<?xml version="1.0" standalone="no"?>
 <!DOCTYPE svg PUBLIC "-//W3C//DTD SVG 1.1//EN" 
 "http://www.w3.org/Graphics/SVG/1.1/DTD/svg11.dtd"> 
<svg xmlns="http://www.w3.org/2000/svg" version="1.1" 
    width="29.7002cm" height="21.0007cm" viewBox="0 0 116930 82680 ">
<title>SVG Picture created as Mega_2560 core mini_full_2.0-drl_map.svg date 2017/08/31 17:06:34 </title>
  <desc>Picture generated by PCBNEW </desc>
<g style="fill:#000000; fill-opacity:1;stroke:#000000; stroke-opacity:1;
stroke-linecap:round; stroke-linejoin:round; "
 transform="translate(0 0) scale(1 1)">
</g>
<g style="fill:#000000; fill-opacity:0.0; 
stroke:#000000; stroke-width:-0.000393701; stroke-opacity:1; 
stroke-linecap:round; stroke-linejoin:round;">
</g>
<g style="fill:#000000; fill-opacity:0.0; 
stroke:#000000; stroke-width:78.7402; stroke-opacity:1; 
stroke-linecap:round; stroke-linejoin:round;">
<path d="M55188 24362
L55188 47862
" />
<path d="M90438 24362
L55188 24362
" />
<path d="M90438 47862
L90438 24362
" />
<path d="M55188 47862
L90438 47862
" />
</g>
<g style="fill:#000000; fill-opacity:0.0; 
stroke:#000000; stroke-width:78.7402; stroke-opacity:1; 
stroke-linecap:round; stroke-linejoin:round;">
<path d="M56378 33052
L56497 33171
" />
<path d="M56497 33052
L56378 33171
" />
<path d="M56628 27602
L56747 27721
" />
<path d="M56747 27602
L56628 27721
" />
<path d="M56728 35002
L56847 35121
" />
<path d="M56847 35002
L56728 35121
" />
<path d="M57078 35502
L57197 35621
" />
<path d="M57197 35502
L57078 35621
" />
<path d="M57128 36302
L57247 36421
" />
<path d="M57247 36302
L57128 36421
" />
<path d="M57129 36801
L57248 36920
" />
<path d="M57248 36801
L57129 36920
" />
<path d="M57578 32802
L57697 32921
" />
<path d="M57697 32802
L57578 32921
" />
<path d="M57928 32802
L58047 32921
" />
<path d="M58047 32802
L57928 32921
" />
<path d="M58278 32802
L58397 32921
" />
<path d="M58397 32802
L58278 32921
" />
<path d="M58378 29302
L58497 29421
" />
<path d="M58497 29302
L58378 29421
" />
<path d="M58378 30452
L58497 30571
" />
<path d="M58497 30452
L58378 30571
" />
<path d="M58528 35502
L58647 35621
" />
<path d="M58647 35502
L58528 35621
" />
<path d="M58628 32802
L58747 32921
" />
<path d="M58747 32802
L58628 32921
" />
<path d="M58928 31502
L59047 31621
" />
<path d="M59047 31502
L58928 31621
" />
<path d="M59128 37902
L59247 38021
" />
<path d="M59247 37902
L59128 38021
" />
<path d="M59678 32002
L59797 32121
" />
<path d="M59797 32002
L59678 32121
" />
<path d="M59878 38552
L59997 38671
" />
<path d="M59997 38552
L59878 38671
" />
<path d="M60028 39352
L60147 39471
" />
<path d="M60147 39352
L60028 39471
" />
<path d="M60028 39752
L60147 39871
" />
<path d="M60147 39752
L60028 39871
" />
<path d="M60178 31602
L60297 31721
" />
<path d="M60297 31602
L60178 31721
" />
<path d="M60678 28002
L60797 28121
" />
<path d="M60797 28002
L60678 28121
" />
<path d="M60728 34052
L60847 34171
" />
<path d="M60847 34052
L60728 34171
" />
<path d="M60728 34643
L60847 34761
" />
<path d="M60847 34643
L60728 34761
" />
<path d="M60728 36052
L60847 36171
" />
<path d="M60847 36052
L60728 36171
" />
<path d="M60728 36452
L60847 36571
" />
<path d="M60847 36452
L60728 36571
" />
<path d="M60728 36802
L60847 36921
" />
<path d="M60847 36802
L60728 36921
" />
<path d="M60828 38052
L60947 38171
" />
<path d="M60947 38052
L60828 38171
" />
<path d="M61078 27402
L61197 27521
" />
<path d="M61197 27402
L61078 27521
" />
<path d="M61178 35302
L61297 35421
" />
<path d="M61297 35302
L61178 35421
" />
<path d="M61228 32802
L61347 32921
" />
<path d="M61347 32802
L61228 32921
" />
<path d="M61228 37602
L61347 37721
" />
<path d="M61347 37602
L61228 37721
" />
<path d="M61428 39352
L61547 39471
" />
<path d="M61547 39352
L61428 39471
" />
<path d="M61878 27802
L61997 27921
" />
<path d="M61997 27802
L61878 27921
" />
<path d="M61878 30152
L61997 30271
" />
<path d="M61997 30152
L61878 30271
" />
<path d="M62278 38252
L62397 38371
" />
<path d="M62397 38252
L62278 38371
" />
<path d="M62378 29552
L62497 29671
" />
<path d="M62497 29552
L62378 29671
" />
<path d="M62378 34202
L62497 34321
" />
<path d="M62497 34202
L62378 34321
" />
<path d="M62428 42302
L62547 42421
" />
<path d="M62547 42302
L62428 42421
" />
<path d="M63378 31452
L63497 31571
" />
<path d="M63497 31452
L63378 31571
" />
<path d="M65378 35652
L65497 35771
" />
<path d="M65497 35652
L65378 35771
" />
<path d="M65428 28302
L65547 28421
" />
<path d="M65547 28302
L65428 28421
" />
<path d="M65528 40052
L65647 40171
" />
<path d="M65647 40052
L65528 40171
" />
<path d="M65928 41352
L66047 41471
" />
<path d="M66047 41352
L65928 41471
" />
<path d="M65928 41852
L66047 41971
" />
<path d="M66047 41852
L65928 41971
" />
<path d="M66228 36302
L66347 36421
" />
<path d="M66347 36302
L66228 36421
" />
<path d="M66278 38302
L66397 38421
" />
<path d="M66397 38302
L66278 38421
" />
<path d="M68028 32302
L68147 32421
" />
<path d="M68147 32302
L68028 32421
" />
<path d="M68228 29852
L68347 29971
" />
<path d="M68347 29852
L68228 29971
" />
<path d="M68228 30652
L68347 30771
" />
<path d="M68347 30652
L68228 30771
" />
<path d="M68228 38302
L68347 38421
" />
<path d="M68347 38302
L68228 38421
" />
<path d="M68278 37302
L68397 37421
" />
<path d="M68397 37302
L68278 37421
" />
<path d="M68378 32302
L68497 32421
" />
<path d="M68497 32302
L68378 32421
" />
<path d="M69328 29952
L69447 30071
" />
<path d="M69447 29952
L69328 30071
" />
<path d="M69428 37552
L69547 37671
" />
<path d="M69547 37552
L69428 37671
" />
<path d="M69428 37952
L69547 38071
" />
<path d="M69547 37952
L69428 38071
" />
<path d="M69828 31552
L69947 31671
" />
<path d="M69947 31552
L69828 31671
" />
<path d="M69828 32152
L69947 32271
" />
<path d="M69947 32152
L69828 32271
" />
<path d="M70178 40452
L70297 40571
" />
<path d="M70297 40452
L70178 40571
" />
<path d="M70228 38602
L70347 38721
" />
<path d="M70347 38602
L70228 38721
" />
<path d="M70428 37702
L70547 37821
" />
<path d="M70547 37702
L70428 37821
" />
<path d="M70528 34952
L70647 35071
" />
<path d="M70647 34952
L70528 35071
" />
<path d="M71328 36802
L71447 36921
" />
<path d="M71447 36802
L71328 36921
" />
<path d="M71778 37952
L71897 38071
" />
<path d="M71897 37952
L71778 38071
" />
<path d="M72028 37202
L72147 37321
" />
<path d="M72147 37202
L72028 37321
" />
<path d="M72128 32602
L72247 32721
" />
<path d="M72247 32602
L72128 32721
" />
<path d="M72128 35352
L72247 35471
" />
<path d="M72247 35352
L72128 35471
" />
<path d="M72128 40802
L72247 40921
" />
<path d="M72247 40802
L72128 40921
" />
<path d="M72128 41802
L72247 41921
" />
<path d="M72247 41802
L72128 41921
" />
<path d="M73128 33552
L73247 33671
" />
<path d="M73247 33552
L73128 33671
" />
<path d="M73428 37952
L73547 38071
" />
<path d="M73547 37952
L73428 38071
" />
<path d="M74128 29252
L74247 29371
" />
<path d="M74247 29252
L74128 29371
" />
<path d="M75228 36752
L75347 36871
" />
<path d="M75347 36752
L75228 36871
" />
<path d="M75378 40052
L75497 40171
" />
<path d="M75497 40052
L75378 40171
" />
<path d="M75628 39052
L75747 39171
" />
<path d="M75747 39052
L75628 39171
" />
<path d="M75878 39552
L75997 39671
" />
<path d="M75997 39552
L75878 39671
" />
<path d="M75878 40802
L75997 40921
" />
<path d="M75997 40802
L75878 40921
" />
<path d="M75878 41302
L75997 41421
" />
<path d="M75997 41302
L75878 41421
" />
<path d="M75928 34102
L76047 34221
" />
<path d="M76047 34102
L75928 34221
" />
<path d="M75928 34652
L76047 34771
" />
<path d="M76047 34652
L75928 34771
" />
<path d="M76178 38052
L76297 38171
" />
<path d="M76297 38052
L76178 38171
" />
<path d="M76178 38702
L76297 38821
" />
<path d="M76297 38702
L76178 38821
" />
<path d="M76628 35802
L76747 35921
" />
<path d="M76747 35802
L76628 35921
" />
<path d="M76928 38752
L77047 38871
" />
<path d="M77047 38752
L76928 38871
" />
<path d="M77178 35802
L77297 35921
" />
<path d="M77297 35802
L77178 35921
" />
<path d="M77178 36902
L77297 37021
" />
<path d="M77297 36902
L77178 37021
" />
<path d="M77178 37902
L77297 38021
" />
<path d="M77297 37902
L77178 38021
" />
<path d="M77428 33402
L77547 33521
" />
<path d="M77547 33402
L77428 33521
" />
<path d="M77428 37352
L77547 37471
" />
<path d="M77547 37352
L77428 37471
" />
<path d="M77628 26552
L77747 26671
" />
<path d="M77747 26552
L77628 26671
" />
<path d="M77628 32902
L77747 33021
" />
<path d="M77747 32902
L77628 33021
" />
<path d="M77628 42152
L77747 42271
" />
<path d="M77747 42152
L77628 42271
" />
<path d="M77928 32552
L78047 32671
" />
<path d="M78047 32552
L77928 32671
" />
<path d="M79928 27002
L80047 27121
" />
<path d="M80047 27002
L79928 27121
" />
<path d="M80428 45852
L80547 45971
" />
<path d="M80547 45852
L80428 45971
" />
<path d="M80528 36352
L80647 36471
" />
<path d="M80647 36352
L80528 36471
" />
<path d="M80678 33102
L80797 33221
" />
<path d="M80797 33102
L80678 33221
" />
<path d="M80728 46152
L80847 46271
" />
<path d="M80847 46152
L80728 46271
" />
<path d="M81428 32102
L81547 32221
" />
<path d="M81547 32102
L81428 32221
" />
<path d="M81428 32502
L81547 32621
" />
<path d="M81547 32502
L81428 32621
" />
<path d="M81778 41302
L81897 41421
" />
<path d="M81897 41302
L81778 41421
" />
<path d="M81828 42302
L81947 42421
" />
<path d="M81947 42302
L81828 42421
" />
<path d="M84278 34302
L84397 34421
" />
<path d="M84397 34302
L84278 34421
" />
<path d="M84278 35302
L84397 35421
" />
<path d="M84397 35302
L84278 35421
" />
<path d="M85178 34552
L85297 34671
" />
<path d="M85297 34552
L85178 34671
" />
<path d="M85228 35252
L85347 35371
" />
<path d="M85347 35252
L85228 35371
" />
<path d="M85728 43852
L85847 43971
" />
<path d="M85847 43852
L85728 43971
" />
<path d="M85728 44452
L85847 44571
" />
<path d="M85847 44452
L85728 44571
" />
<path d="M87078 36602
L87197 36721
" />
<path d="M87197 36602
L87078 36721
" />
<path d="M88428 39402
L88547 39521
" />
<path d="M88547 39402
L88428 39521
" />
<circle cx="58988" cy="39562" r="118.11" /> 
<circle cx="59388" cy="38812" r="118.11" /> 
<circle cx="60788" cy="35362" r="118.11" /> 
<circle cx="69488" cy="33162" r="118.11" /> 
<circle cx="70938" cy="40112" r="118.11" /> 
<circle cx="72188" cy="41362" r="118.11" /> 
<circle cx="72188" cy="44362" r="118.11" /> 
<circle cx="73438" cy="38612" r="118.11" /> 
<circle cx="73438" cy="39412" r="118.11" /> 
<circle cx="73938" cy="37762" r="118.11" /> 
<circle cx="74188" cy="44362" r="118.11" /> 
<circle cx="74688" cy="36862" r="118.11" /> 
<circle cx="75188" cy="37762" r="118.11" /> 
<circle cx="76238" cy="37362" r="118.11" /> 
<circle cx="77738" cy="44562" r="118.11" /> 
<circle cx="82188" cy="31112" r="118.11" /> 
<circle cx="84588" cy="25262" r="118.11" /> 
<circle cx="85388" cy="44762" r="118.11" /> 
<circle cx="85938" cy="36412" r="118.11" /> 
<circle cx="86738" cy="41462" r="118.11" /> 
<circle cx="87288" cy="41712" r="118.11" /> 
<circle cx="87338" cy="26862" r="118.11" /> 
<path d="M58288 38654
L58288 38969
" />
<path d="M58130 38812
L58445 38812
" />
<path d="M58938 46204
L58938 46519
" />
<path d="M58780 46362
L59095 46362
" />
<path d="M59938 46204
L59938 46519
" />
<path d="M59780 46362
L60095 46362
" />
<path d="M60938 46204
L60938 46519
" />
<path d="M60780 46362
L61095 46362
" />
<path d="M61538 47054
L61538 47369
" />
<path d="M61380 47212
L61695 47212
" />
<path d="M62238 44554
L62238 44869
" />
<path d="M62080 44712
L62395 44712
" />
<path d="M62938 25954
L62938 26269
" />
<path d="M62780 26112
L63095 26112
" />
<path d="M62938 28204
L62938 28519
" />
<path d="M62780 28362
L63095 28362
" />
<path d="M62938 32704
L62938 33019
" />
<path d="M62780 32862
L63095 32862
" />
<path d="M62938 37204
L62938 37519
" />
<path d="M62780 37362
L63095 37362
" />
<path d="M62938 41704
L62938 42019
" />
<path d="M62780 41862
L63095 41862
" />
<path d="M63938 25954
L63938 26269
" />
<path d="M63780 26112
L64095 26112
" />
<path d="M63938 28204
L63938 28519
" />
<path d="M63780 28362
L64095 28362
" />
<path d="M63938 32704
L63938 33019
" />
<path d="M63780 32862
L64095 32862
" />
<path d="M63938 37204
L63938 37519
" />
<path d="M63780 37362
L64095 37362
" />
<path d="M63938 41704
L63938 42019
" />
<path d="M63780 41862
L64095 41862
" />
<path d="M64938 25954
L64938 26269
" />
<path d="M64780 26112
L65095 26112
" />
<path d="M64938 26704
L64938 27019
" />
<path d="M64780 26862
L65095 26862
" />
<path d="M64938 28204
L64938 28519
" />
<path d="M64780 28362
L65095 28362
" />
<path d="M64938 32704
L64938 33019
" />
<path d="M64780 32862
L65095 32862
" />
<path d="M64938 37204
L64938 37519
" />
<path d="M64780 37362
L65095 37362
" />
<path d="M64938 41704
L64938 42019
" />
<path d="M64780 41862
L65095 41862
" />
<path d="M65588 47204
L65588 47519
" />
<path d="M65430 47362
L65745 47362
" />
<path d="M71288 26904
L71288 27219
" />
<path d="M71130 27062
L71445 27062
" />
<path d="M74688 46704
L74688 47019
" />
<path d="M74530 46862
L74845 46862
" />
<path d="M75238 46704
L75238 47019
" />
<path d="M75080 46862
L75395 46862
" />
<path d="M83888 30504
L83888 30819
" />
<path d="M83730 30662
L84045 30662
" />
<path d="M84188 28204
L84188 28519
" />
<path d="M84030 28362
L84345 28362
" />
<path d="M84188 28704
L84188 29019
" />
<path d="M84030 28862
L84345 28862
" />
<path d="M84588 39704
L84588 40019
" />
<path d="M84430 39862
L84745 39862
" />
<path d="M84788 30604
L84788 30919
" />
<path d="M84630 30762
L84945 30762
" />
<path d="M84788 31054
L84788 31369
" />
<path d="M84630 31212
L84945 31212
" />
<path d="M84888 25404
L84888 25719
" />
<path d="M84730 25562
L85045 25562
" />
<path d="M86388 30004
L86388 30319
" />
<path d="M86230 30162
L86545 30162
" />
<path d="M86413 38429
L86413 38744
" />
<path d="M86255 38587
L86570 38587
" />
<path d="M86438 29054
L86438 29369
" />
<path d="M86280 29212
L86595 29212
" />
<path d="M86738 38104
L86738 38419
" />
<path d="M86580 38262
L86895 38262
" />
<path d="M86838 30004
L86838 30319
" />
<path d="M86680 30162
L86995 30162
" />
<path d="M87388 31654
L87388 31969
" />
<path d="M87230 31812
L87545 31812
" />
<path d="M87688 44954
L87688 45269
" />
<path d="M87530 45112
L87845 45112
" />
<path d="M87888 31654
L87888 31969
" />
<path d="M87730 31812
L88045 31812
" />
<path d="M88288 30454
L88288 30769
" />
<path d="M88130 30612
L88445 30612
" />
<path d="M99838 38604
L99838 38919
" />
<path d="M99680 38762
L99995 38762
" />
<path d="M99838 39604
L99838 39919
" />
<path d="M99680 39762
L99995 39762
" />
<path d="M99838 40604
L99838 40919
" />
<path d="M99680 40762
L99995 40762
" />
<polyline fill="none;"
points="63051,30725
63051,30498
62824,30498
62824,30725
63051,30725
" /> 
<polyline fill="none;"
points="63051,35225
63051,34998
62824,34998
62824,35225
63051,35225
" /> 
<polyline fill="none;"
points="63051,39725
63051,39498
62824,39498
62824,39725
63051,39725
" /> 
<polyline fill="none;"
points="63051,44225
63051,43998
62824,43998
62824,44225
63051,44225
" /> 
<polyline fill="none;"
points="64051,30725
64051,30498
63824,30498
63824,30725
64051,30725
" /> 
<polyline fill="none;"
points="64051,35225
64051,34998
63824,34998
63824,35225
64051,35225
" /> 
<polyline fill="none;"
points="64051,39725
64051,39498
63824,39498
63824,39725
64051,39725
" /> 
<polyline fill="none;"
points="64051,44225
64051,43998
63824,43998
63824,44225
64051,44225
" /> 
<polyline fill="none;"
points="65051,30725
65051,30498
64824,30498
64824,30725
65051,30725
" /> 
<polyline fill="none;"
points="65051,35225
65051,34998
64824,34998
64824,35225
65051,35225
" /> 
<polyline fill="none;"
points="65051,39725
65051,39498
64824,39498
64824,39725
65051,39725
" /> 
<polyline fill="none;"
points="65051,44225
65051,43998
64824,43998
64824,44225
65051,44225
" /> 
<polyline fill="none;"
points="56188,29058
56384,28862
56188,28665
55991,28862
56188,29058
" /> 
<polyline fill="none;"
points="56188,30058
56384,29862
56188,29665
55991,29862
56188,30058
" /> 
<polyline fill="none;"
points="56188,31058
56384,30862
56188,30665
55991,30862
56188,31058
" /> 
<polyline fill="none;"
points="56188,38058
56384,37862
56188,37665
55991,37862
56188,38058
" /> 
<polyline fill="none;"
points="56188,39058
56384,38862
56188,38665
55991,38862
56188,39058
" /> 
<polyline fill="none;"
points="56188,40058
56384,39862
56188,39665
55991,39862
56188,40058
" /> 
<polyline fill="none;"
points="56188,41058
56384,40862
56188,40665
55991,40862
56188,41058
" /> 
<polyline fill="none;"
points="56188,42058
56384,41862
56188,41665
55991,41862
56188,42058
" /> 
<polyline fill="none;"
points="56188,43058
56384,42862
56188,42665
55991,42862
56188,43058
" /> 
<polyline fill="none;"
points="56188,44058
56384,43862
56188,43665
55991,43862
56188,44058
" /> 
<polyline fill="none;"
points="56188,45058
56384,44862
56188,44665
55991,44862
56188,45058
" /> 
<polyline fill="none;"
points="56188,46058
56384,45862
56188,45665
55991,45862
56188,46058
" /> 
<polyline fill="none;"
points="56188,47058
56384,46862
56188,46665
55991,46862
56188,47058
" /> 
<polyline fill="none;"
points="57188,29058
57384,28862
57188,28665
56991,28862
57188,29058
" /> 
<polyline fill="none;"
points="57188,30058
57384,29862
57188,29665
56991,29862
57188,30058
" /> 
<polyline fill="none;"
points="57188,31058
57384,30862
57188,30665
56991,30862
57188,31058
" /> 
<polyline fill="none;"
points="57188,38058
57384,37862
57188,37665
56991,37862
57188,38058
" /> 
<polyline fill="none;"
points="57188,39058
57384,38862
57188,38665
56991,38862
57188,39058
" /> 
<polyline fill="none;"
points="57188,40058
57384,39862
57188,39665
56991,39862
57188,40058
" /> 
<polyline fill="none;"
points="57188,41058
57384,40862
57188,40665
56991,40862
57188,41058
" /> 
<polyline fill="none;"
points="57188,42058
57384,41862
57188,41665
56991,41862
57188,42058
" /> 
<polyline fill="none;"
points="57188,43058
57384,42862
57188,42665
56991,42862
57188,43058
" /> 
<polyline fill="none;"
points="57188,44058
57384,43862
57188,43665
56991,43862
57188,44058
" /> 
<polyline fill="none;"
points="57188,45058
57384,44862
57188,44665
56991,44862
57188,45058
" /> 
<polyline fill="none;"
points="57188,46058
57384,45862
57188,45665
56991,45862
57188,46058
" /> 
<polyline fill="none;"
points="57188,47058
57384,46862
57188,46665
56991,46862
57188,47058
" /> 
<polyline fill="none;"
points="58188,27308
58384,27112
58188,26915
57991,27112
58188,27308
" /> 
<polyline fill="none;"
points="58688,41058
58884,40862
58688,40665
58491,40862
58688,41058
" /> 
<polyline fill="none;"
points="58688,42058
58884,41862
58688,41665
58491,41862
58688,42058
" /> 
<polyline fill="none;"
points="58688,43058
58884,42862
58688,42665
58491,42862
58688,43058
" /> 
<polyline fill="none;"
points="59188,27308
59384,27112
59188,26915
58991,27112
59188,27308
" /> 
<polyline fill="none;"
points="59438,29058
59634,28862
59438,28665
59241,28862
59438,29058
" /> 
<polyline fill="none;"
points="59438,30058
59634,29862
59438,29665
59241,29862
59438,30058
" /> 
<polyline fill="none;"
points="59438,31058
59634,30862
59438,30665
59241,30862
59438,31058
" /> 
<polyline fill="none;"
points="59688,41058
59884,40862
59688,40665
59491,40862
59688,41058
" /> 
<polyline fill="none;"
points="59688,42058
59884,41862
59688,41665
59491,41862
59688,42058
" /> 
<polyline fill="none;"
points="59688,43058
59884,42862
59688,42665
59491,42862
59688,43058
" /> 
<polyline fill="none;"
points="60188,27308
60384,27112
60188,26915
59991,27112
60188,27308
" /> 
<polyline fill="none;"
points="60438,29058
60634,28862
60438,28665
60241,28862
60438,29058
" /> 
<polyline fill="none;"
points="60438,30058
60634,29862
60438,29665
60241,29862
60438,30058
" /> 
<polyline fill="none;"
points="60438,31058
60634,30862
60438,30665
60241,30862
60438,31058
" /> 
<polyline fill="none;"
points="60688,41058
60884,40862
60688,40665
60491,40862
60688,41058
" /> 
<polyline fill="none;"
points="60688,42058
60884,41862
60688,41665
60491,41862
60688,42058
" /> 
<polyline fill="none;"
points="60688,43058
60884,42862
60688,42665
60491,42862
60688,43058
" /> 
<polyline fill="none;"
points="62938,46058
63134,45862
62938,45665
62741,45862
62938,46058
" /> 
<polyline fill="none;"
points="62938,47058
63134,46862
62938,46665
62741,46862
62938,47058
" /> 
<polyline fill="none;"
points="63938,46058
64134,45862
63938,45665
63741,45862
63938,46058
" /> 
<polyline fill="none;"
points="63938,47058
64134,46862
63938,46665
63741,46862
63938,47058
" /> 
<polyline fill="none;"
points="64938,46058
65134,45862
64938,45665
64741,45862
64938,46058
" /> 
<polyline fill="none;"
points="64938,47058
65134,46862
64938,46665
64741,46862
64938,47058
" /> 
<polyline fill="none;"
points="66688,28058
66884,27862
66688,27665
66491,27862
66688,28058
" /> 
<polyline fill="none;"
points="66688,29058
66884,28862
66688,28665
66491,28862
66688,29058
" /> 
<polyline fill="none;"
points="66688,30058
66884,29862
66688,29665
66491,29862
66688,30058
" /> 
<polyline fill="none;"
points="66688,31058
66884,30862
66688,30665
66491,30862
66688,31058
" /> 
<polyline fill="none;"
points="66688,32058
66884,31862
66688,31665
66491,31862
66688,32058
" /> 
<polyline fill="none;"
points="66688,33058
66884,32862
66688,32665
66491,32862
66688,33058
" /> 
<polyline fill="none;"
points="66688,34058
66884,33862
66688,33665
66491,33862
66688,34058
" /> 
<polyline fill="none;"
points="66688,35058
66884,34862
66688,34665
66491,34862
66688,35058
" /> 
<polyline fill="none;"
points="66688,36058
66884,35862
66688,35665
66491,35862
66688,36058
" /> 
<polyline fill="none;"
points="66688,37058
66884,36862
66688,36665
66491,36862
66688,37058
" /> 
<polyline fill="none;"
points="66688,38058
66884,37862
66688,37665
66491,37862
66688,38058
" /> 
<polyline fill="none;"
points="66688,39058
66884,38862
66688,38665
66491,38862
66688,39058
" /> 
<polyline fill="none;"
points="66688,40058
66884,39862
66688,39665
66491,39862
66688,40058
" /> 
<polyline fill="none;"
points="66688,41058
66884,40862
66688,40665
66491,40862
66688,41058
" /> 
<polyline fill="none;"
points="66688,42058
66884,41862
66688,41665
66491,41862
66688,42058
" /> 
<polyline fill="none;"
points="66688,43058
66884,42862
66688,42665
66491,42862
66688,43058
" /> 
<polyline fill="none;"
points="66688,44058
66884,43862
66688,43665
66491,43862
66688,44058
" /> 
<polyline fill="none;"
points="66688,45058
66884,44862
66688,44665
66491,44862
66688,45058
" /> 
<polyline fill="none;"
points="66688,46058
66884,45862
66688,45665
66491,45862
66688,46058
" /> 
<polyline fill="none;"
points="66688,47058
66884,46862
66688,46665
66491,46862
66688,47058
" /> 
<polyline fill="none;"
points="67438,25558
67634,25362
67438,25165
67241,25362
67438,25558
" /> 
<polyline fill="none;"
points="67438,26558
67634,26362
67438,26165
67241,26362
67438,26558
" /> 
<polyline fill="none;"
points="67688,28058
67884,27862
67688,27665
67491,27862
67688,28058
" /> 
<polyline fill="none;"
points="67688,29058
67884,28862
67688,28665
67491,28862
67688,29058
" /> 
<polyline fill="none;"
points="67688,30058
67884,29862
67688,29665
67491,29862
67688,30058
" /> 
<polyline fill="none;"
points="67688,31058
67884,30862
67688,30665
67491,30862
67688,31058
" /> 
<polyline fill="none;"
points="67688,32058
67884,31862
67688,31665
67491,31862
67688,32058
" /> 
<polyline fill="none;"
points="67688,33058
67884,32862
67688,32665
67491,32862
67688,33058
" /> 
<polyline fill="none;"
points="67688,34058
67884,33862
67688,33665
67491,33862
67688,34058
" /> 
<polyline fill="none;"
points="67688,35058
67884,34862
67688,34665
67491,34862
67688,35058
" /> 
<polyline fill="none;"
points="67688,36058
67884,35862
67688,35665
67491,35862
67688,36058
" /> 
<polyline fill="none;"
points="67688,37058
67884,36862
67688,36665
67491,36862
67688,37058
" /> 
<polyline fill="none;"
points="67688,38058
67884,37862
67688,37665
67491,37862
67688,38058
" /> 
<polyline fill="none;"
points="67688,39058
67884,38862
67688,38665
67491,38862
67688,39058
" /> 
<polyline fill="none;"
points="67688,40058
67884,39862
67688,39665
67491,39862
67688,40058
" /> 
<polyline fill="none;"
points="67688,41058
67884,40862
67688,40665
67491,40862
67688,41058
" /> 
<polyline fill="none;"
points="67688,42058
67884,41862
67688,41665
67491,41862
67688,42058
" /> 
<polyline fill="none;"
points="67688,43058
67884,42862
67688,42665
67491,42862
67688,43058
" /> 
<polyline fill="none;"
points="67688,44058
67884,43862
67688,43665
67491,43862
67688,44058
" /> 
<polyline fill="none;"
points="67688,45058
67884,44862
67688,44665
67491,44862
67688,45058
" /> 
<polyline fill="none;"
points="67688,46058
67884,45862
67688,45665
67491,45862
67688,46058
" /> 
<polyline fill="none;"
points="67688,47058
67884,46862
67688,46665
67491,46862
67688,47058
" /> 
<polyline fill="none;"
points="68438,25558
68634,25362
68438,25165
68241,25362
68438,25558
" /> 
<polyline fill="none;"
points="68438,26558
68634,26362
68438,26165
68241,26362
68438,26558
" /> 
<polyline fill="none;"
points="68688,28058
68884,27862
68688,27665
68491,27862
68688,28058
" /> 
<polyline fill="none;"
points="68688,29058
68884,28862
68688,28665
68491,28862
68688,29058
" /> 
<polyline fill="none;"
points="69438,25558
69634,25362
69438,25165
69241,25362
69438,25558
" /> 
<polyline fill="none;"
points="69438,26558
69634,26362
69438,26165
69241,26362
69438,26558
" /> 
<polyline fill="none;"
points="69438,34058
69634,33862
69438,33665
69241,33862
69438,34058
" /> 
<polyline fill="none;"
points="69438,35058
69634,34862
69438,34665
69241,34862
69438,35058
" /> 
<polyline fill="none;"
points="69438,37058
69634,36862
69438,36665
69241,36862
69438,37058
" /> 
<polyline fill="none;"
points="69438,39058
69634,38862
69438,38665
69241,38862
69438,39058
" /> 
<polyline fill="none;"
points="69438,45058
69634,44862
69438,44665
69241,44862
69438,45058
" /> 
<polyline fill="none;"
points="69438,46058
69634,45862
69438,45665
69241,45862
69438,46058
" /> 
<polyline fill="none;"
points="69438,47058
69634,46862
69438,46665
69241,46862
69438,47058
" /> 
<polyline fill="none;"
points="69688,28058
69884,27862
69688,27665
69491,27862
69688,28058
" /> 
<polyline fill="none;"
points="69688,29058
69884,28862
69688,28665
69491,28862
69688,29058
" /> 
<polyline fill="none;"
points="70438,25558
70634,25362
70438,25165
70241,25362
70438,25558
" /> 
<polyline fill="none;"
points="70438,26558
70634,26362
70438,26165
70241,26362
70438,26558
" /> 
<polyline fill="none;"
points="70688,28058
70884,27862
70688,27665
70491,27862
70688,28058
" /> 
<polyline fill="none;"
points="70688,29058
70884,28862
70688,28665
70491,28862
70688,29058
" /> 
<polyline fill="none;"
points="70688,30308
70884,30112
70688,29915
70491,30112
70688,30308
" /> 
<polyline fill="none;"
points="70688,31308
70884,31112
70688,30915
70491,31112
70688,31308
" /> 
<polyline fill="none;"
points="70688,32308
70884,32112
70688,31915
70491,32112
70688,32308
" /> 
<polyline fill="none;"
points="71438,25558
71634,25362
71438,25165
71241,25362
71438,25558
" /> 
<polyline fill="none;"
points="71438,26558
71634,26362
71438,26165
71241,26362
71438,26558
" /> 
<polyline fill="none;"
points="71688,28058
71884,27862
71688,27665
71491,27862
71688,28058
" /> 
<polyline fill="none;"
points="71688,29058
71884,28862
71688,28665
71491,28862
71688,29058
" /> 
<polyline fill="none;"
points="71688,30308
71884,30112
71688,29915
71491,30112
71688,30308
" /> 
<polyline fill="none;"
points="71688,31308
71884,31112
71688,30915
71491,31112
71688,31308
" /> 
<polyline fill="none;"
points="71688,32308
71884,32112
71688,31915
71491,32112
71688,32308
" /> 
<polyline fill="none;"
points="72688,25558
72884,25362
72688,25165
72491,25362
72688,25558
" /> 
<polyline fill="none;"
points="72688,26558
72884,26362
72688,26165
72491,26362
72688,26558
" /> 
<polyline fill="none;"
points="72688,28058
72884,27862
72688,27665
72491,27862
72688,28058
" /> 
<polyline fill="none;"
points="72688,29058
72884,28862
72688,28665
72491,28862
72688,29058
" /> 
<polyline fill="none;"
points="72688,30308
72884,30112
72688,29915
72491,30112
72688,30308
" /> 
<polyline fill="none;"
points="72688,31308
72884,31112
72688,30915
72491,31112
72688,31308
" /> 
<polyline fill="none;"
points="72688,32308
72884,32112
72688,31915
72491,32112
72688,32308
" /> 
<polyline fill="none;"
points="73688,25558
73884,25362
73688,25165
73491,25362
73688,25558
" /> 
<polyline fill="none;"
points="73688,26558
73884,26362
73688,26165
73491,26362
73688,26558
" /> 
<polyline fill="none;"
points="73688,28058
73884,27862
73688,27665
73491,27862
73688,28058
" /> 
<polyline fill="none;"
points="73688,29058
73884,28862
73688,28665
73491,28862
73688,29058
" /> 
<polyline fill="none;"
points="73688,30308
73884,30112
73688,29915
73491,30112
73688,30308
" /> 
<polyline fill="none;"
points="73688,31308
73884,31112
73688,30915
73491,31112
73688,31308
" /> 
<polyline fill="none;"
points="73688,32308
73884,32112
73688,31915
73491,32112
73688,32308
" /> 
<polyline fill="none;"
points="74688,25558
74884,25362
74688,25165
74491,25362
74688,25558
" /> 
<polyline fill="none;"
points="74688,26558
74884,26362
74688,26165
74491,26362
74688,26558
" /> 
<polyline fill="none;"
points="74688,28058
74884,27862
74688,27665
74491,27862
74688,28058
" /> 
<polyline fill="none;"
points="74688,29058
74884,28862
74688,28665
74491,28862
74688,29058
" /> 
<polyline fill="none;"
points="74688,30308
74884,30112
74688,29915
74491,30112
74688,30308
" /> 
<polyline fill="none;"
points="74688,31308
74884,31112
74688,30915
74491,31112
74688,31308
" /> 
<polyline fill="none;"
points="74688,32308
74884,32112
74688,31915
74491,32112
74688,32308
" /> 
<polyline fill="none;"
points="75688,25558
75884,25362
75688,25165
75491,25362
75688,25558
" /> 
<polyline fill="none;"
points="75688,26558
75884,26362
75688,26165
75491,26362
75688,26558
" /> 
<polyline fill="none;"
points="75688,28058
75884,27862
75688,27665
75491,27862
75688,28058
" /> 
<polyline fill="none;"
points="75688,29058
75884,28862
75688,28665
75491,28862
75688,29058
" /> 
<polyline fill="none;"
points="75688,32308
75884,32112
75688,31915
75491,32112
75688,32308
" /> 
<polyline fill="none;"
points="76188,43058
76384,42862
76188,42665
75991,42862
76188,43058
" /> 
<polyline fill="none;"
points="76188,44058
76384,43862
76188,43665
75991,43862
76188,44058
" /> 
<polyline fill="none;"
points="76688,25558
76884,25362
76688,25165
76491,25362
76688,25558
" /> 
<polyline fill="none;"
points="76688,26558
76884,26362
76688,26165
76491,26362
76688,26558
" /> 
<polyline fill="none;"
points="76688,28058
76884,27862
76688,27665
76491,27862
76688,28058
" /> 
<polyline fill="none;"
points="76688,29058
76884,28862
76688,28665
76491,28862
76688,29058
" /> 
<polyline fill="none;"
points="76938,34058
77134,33862
76938,33665
76741,33862
76938,34058
" /> 
<polyline fill="none;"
points="76938,35058
77134,34862
76938,34665
76741,34862
76938,35058
" /> 
<polyline fill="none;"
points="76938,45058
77134,44862
76938,44665
76741,44862
76938,45058
" /> 
<polyline fill="none;"
points="76938,46058
77134,45862
76938,45665
76741,45862
76938,46058
" /> 
<polyline fill="none;"
points="76938,47058
77134,46862
76938,46665
76741,46862
76938,47058
" /> 
<polyline fill="none;"
points="77688,28058
77884,27862
77688,27665
77491,27862
77688,28058
" /> 
<polyline fill="none;"
points="77688,29058
77884,28862
77688,28665
77491,28862
77688,29058
" /> 
<polyline fill="none;"
points="77688,31058
77884,30862
77688,30665
77491,30862
77688,31058
" /> 
<polyline fill="none;"
points="77688,32058
77884,31862
77688,31665
77491,31862
77688,32058
" /> 
<polyline fill="none;"
points="77938,25558
78134,25362
77938,25165
77741,25362
77938,25558
" /> 
<polyline fill="none;"
points="78688,28058
78884,27862
78688,27665
78491,27862
78688,28058
" /> 
<polyline fill="none;"
points="78688,29058
78884,28862
78688,28665
78491,28862
78688,29058
" /> 
<polyline fill="none;"
points="78688,30058
78884,29862
78688,29665
78491,29862
78688,30058
" /> 
<polyline fill="none;"
points="78688,31058
78884,30862
78688,30665
78491,30862
78688,31058
" /> 
<polyline fill="none;"
points="78688,32058
78884,31862
78688,31665
78491,31862
78688,32058
" /> 
<polyline fill="none;"
points="78688,33058
78884,32862
78688,32665
78491,32862
78688,33058
" /> 
<polyline fill="none;"
points="78688,34058
78884,33862
78688,33665
78491,33862
78688,34058
" /> 
<polyline fill="none;"
points="78688,35058
78884,34862
78688,34665
78491,34862
78688,35058
" /> 
<polyline fill="none;"
points="78688,36058
78884,35862
78688,35665
78491,35862
78688,36058
" /> 
<polyline fill="none;"
points="78688,37058
78884,36862
78688,36665
78491,36862
78688,37058
" /> 
<polyline fill="none;"
points="78688,38058
78884,37862
78688,37665
78491,37862
78688,38058
" /> 
<polyline fill="none;"
points="78688,39058
78884,38862
78688,38665
78491,38862
78688,39058
" /> 
<polyline fill="none;"
points="78688,40058
78884,39862
78688,39665
78491,39862
78688,40058
" /> 
<polyline fill="none;"
points="78688,41058
78884,40862
78688,40665
78491,40862
78688,41058
" /> 
<polyline fill="none;"
points="78688,42058
78884,41862
78688,41665
78491,41862
78688,42058
" /> 
<polyline fill="none;"
points="78688,43058
78884,42862
78688,42665
78491,42862
78688,43058
" /> 
<polyline fill="none;"
points="78688,44058
78884,43862
78688,43665
78491,43862
78688,44058
" /> 
<polyline fill="none;"
points="78688,45058
78884,44862
78688,44665
78491,44862
78688,45058
" /> 
<polyline fill="none;"
points="78688,46058
78884,45862
78688,45665
78491,45862
78688,46058
" /> 
<polyline fill="none;"
points="78688,47058
78884,46862
78688,46665
78491,46862
78688,47058
" /> 
<polyline fill="none;"
points="78938,25558
79134,25362
78938,25165
78741,25362
78938,25558
" /> 
<polyline fill="none;"
points="79688,28058
79884,27862
79688,27665
79491,27862
79688,28058
" /> 
<polyline fill="none;"
points="79688,29058
79884,28862
79688,28665
79491,28862
79688,29058
" /> 
<polyline fill="none;"
points="79688,30058
79884,29862
79688,29665
79491,29862
79688,30058
" /> 
<polyline fill="none;"
points="79688,31058
79884,30862
79688,30665
79491,30862
79688,31058
" /> 
<polyline fill="none;"
points="79688,32058
79884,31862
79688,31665
79491,31862
79688,32058
" /> 
<polyline fill="none;"
points="79688,33058
79884,32862
79688,32665
79491,32862
79688,33058
" /> 
<polyline fill="none;"
points="79688,34058
79884,33862
79688,33665
79491,33862
79688,34058
" /> 
<polyline fill="none;"
points="79688,35058
79884,34862
79688,34665
79491,34862
79688,35058
" /> 
<polyline fill="none;"
points="79688,36058
79884,35862
79688,35665
79491,35862
79688,36058
" /> 
<polyline fill="none;"
points="79688,37058
79884,36862
79688,36665
79491,36862
79688,37058
" /> 
<polyline fill="none;"
points="79688,38058
79884,37862
79688,37665
79491,37862
79688,38058
" /> 
<polyline fill="none;"
points="79688,39058
79884,38862
79688,38665
79491,38862
79688,39058
" /> 
<polyline fill="none;"
points="79688,40058
79884,39862
79688,39665
79491,39862
79688,40058
" /> 
<polyline fill="none;"
points="79688,41058
79884,40862
79688,40665
79491,40862
79688,41058
" /> 
<polyline fill="none;"
points="79688,42058
79884,41862
79688,41665
79491,41862
79688,42058
" /> 
<polyline fill="none;"
points="79688,43058
79884,42862
79688,42665
79491,42862
79688,43058
" /> 
<polyline fill="none;"
points="79688,44058
79884,43862
79688,43665
79491,43862
79688,44058
" /> 
<polyline fill="none;"
points="79688,45058
79884,44862
79688,44665
79491,44862
79688,45058
" /> 
<polyline fill="none;"
points="79688,46058
79884,45862
79688,45665
79491,45862
79688,46058
" /> 
<polyline fill="none;"
points="79688,47058
79884,46862
79688,46665
79491,46862
79688,47058
" /> 
<polyline fill="none;"
points="80188,25558
80384,25362
80188,25165
79991,25362
80188,25558
" /> 
<polyline fill="none;"
points="80938,28058
81134,27862
80938,27665
80741,27862
80938,28058
" /> 
<polyline fill="none;"
points="80938,29058
81134,28862
80938,28665
80741,28862
80938,29058
" /> 
<polyline fill="none;"
points="80938,30058
81134,29862
80938,29665
80741,29862
80938,30058
" /> 
<polyline fill="none;"
points="80938,31058
81134,30862
80938,30665
80741,30862
80938,31058
" /> 
<polyline fill="none;"
points="80938,34058
81134,33862
80938,33665
80741,33862
80938,34058
" /> 
<polyline fill="none;"
points="80938,35058
81134,34862
80938,34665
80741,34862
80938,35058
" /> 
<polyline fill="none;"
points="80938,36058
81134,35862
80938,35665
80741,35862
80938,36058
" /> 
<polyline fill="none;"
points="80938,37058
81134,36862
80938,36665
80741,36862
80938,37058
" /> 
<polyline fill="none;"
points="80938,38058
81134,37862
80938,37665
80741,37862
80938,38058
" /> 
<polyline fill="none;"
points="80938,39058
81134,38862
80938,38665
80741,38862
80938,39058
" /> 
<polyline fill="none;"
points="80938,41058
81134,40862
80938,40665
80741,40862
80938,41058
" /> 
<polyline fill="none;"
points="80938,42058
81134,41862
80938,41665
80741,41862
80938,42058
" /> 
<polyline fill="none;"
points="80938,44058
81134,43862
80938,43665
80741,43862
80938,44058
" /> 
<polyline fill="none;"
points="80938,45058
81134,44862
80938,44665
80741,44862
80938,45058
" /> 
<polyline fill="none;"
points="81188,25558
81384,25362
81188,25165
80991,25362
81188,25558
" /> 
<polyline fill="none;"
points="81938,34058
82134,33862
81938,33665
81741,33862
81938,34058
" /> 
<polyline fill="none;"
points="81938,35058
82134,34862
81938,34665
81741,34862
81938,35058
" /> 
<polyline fill="none;"
points="82188,25558
82384,25362
82188,25165
81991,25362
82188,25558
" /> 
<polyline fill="none;"
points="82191,32858
82388,32662
82191,32465
81995,32662
82191,32858
" /> 
<polyline fill="none;"
points="82688,40558
82884,40362
82688,40165
82491,40362
82688,40558
" /> 
<polyline fill="none;"
points="82688,41558
82884,41362
82688,41165
82491,41362
82688,41558
" /> 
<polyline fill="none;"
points="82688,42558
82884,42362
82688,42165
82491,42362
82688,42558
" /> 
<polyline fill="none;"
points="82688,43558
82884,43362
82688,43165
82491,43362
82688,43558
" /> 
<polyline fill="none;"
points="82688,47058
82884,46862
82688,46665
82491,46862
82688,47058
" /> 
<polyline fill="none;"
points="82938,34058
83134,33862
82938,33665
82741,33862
82938,34058
" /> 
<polyline fill="none;"
points="82938,35058
83134,34862
82938,34665
82741,34862
82938,35058
" /> 
<polyline fill="none;"
points="83188,25558
83384,25362
83188,25165
82991,25362
83188,25558
" /> 
<polyline fill="none;"
points="83188,32858
83384,32662
83188,32465
82991,32662
83188,32858
" /> 
<polyline fill="none;"
points="83688,47058
83884,46862
83688,46665
83491,46862
83688,47058
" /> 
<polyline fill="none;"
points="83938,34058
84134,33862
83938,33665
83741,33862
83938,34058
" /> 
<polyline fill="none;"
points="83938,35058
84134,34862
83938,34665
83741,34862
83938,35058
" /> 
<polyline fill="none;"
points="83938,36063
84134,35867
83938,35670
83741,35867
83938,36063
" /> 
<polyline fill="none;"
points="83938,36063
84134,35867
83938,35670
83741,35867
83938,36063
" /> 
<polyline fill="none;"
points="83938,37063
84134,36867
83938,36670
83741,36867
83938,37063
" /> 
<polyline fill="none;"
points="83938,37063
84134,36867
83938,36670
83741,36867
83938,37063
" /> 
<polyline fill="none;"
points="83938,38063
84134,37867
83938,37670
83741,37867
83938,38063
" /> 
<polyline fill="none;"
points="83938,38063
84134,37867
83938,37670
83741,37867
83938,38063
" /> 
<polyline fill="none;"
points="83938,39063
84134,38867
83938,38670
83741,38867
83938,39063
" /> 
<polyline fill="none;"
points="83938,39063
84134,38867
83938,38670
83741,38867
83938,39063
" /> 
<polyline fill="none;"
points="83938,40558
84134,40362
83938,40165
83741,40362
83938,40558
" /> 
<polyline fill="none;"
points="83938,41558
84134,41362
83938,41165
83741,41362
83938,41558
" /> 
<polyline fill="none;"
points="83938,42558
84134,42362
83938,42165
83741,42362
83938,42558
" /> 
<polyline fill="none;"
points="83938,43558
84134,43362
83938,43165
83741,43362
83938,43558
" /> 
<polyline fill="none;"
points="84688,47058
84884,46862
84688,46665
84491,46862
84688,47058
" /> 
<polyline fill="none;"
points="85188,40558
85384,40362
85188,40165
84991,40362
85188,40558
" /> 
<polyline fill="none;"
points="85188,41558
85384,41362
85188,41165
84991,41362
85188,41558
" /> 
<polyline fill="none;"
points="85188,42558
85384,42362
85188,42165
84991,42362
85188,42558
" /> 
<polyline fill="none;"
points="85188,43558
85384,43362
85188,43165
84991,43362
85188,43558
" /> 
<polyline fill="none;"
points="85688,47058
85884,46862
85688,46665
85491,46862
85688,47058
" /> 
<polyline fill="none;"
points="85938,34058
86134,33862
85938,33665
85741,33862
85938,34058
" /> 
<polyline fill="none;"
points="85938,35058
86134,34862
85938,34665
85741,34862
85938,35058
" /> 
<polyline fill="none;"
points="86388,25558
86584,25362
86388,25165
86191,25362
86388,25558
" /> 
<polyline fill="none;"
points="86388,32858
86584,32662
86388,32465
86191,32662
86388,32858
" /> 
<polyline fill="none;"
points="86938,34058
87134,33862
86938,33665
86741,33862
86938,34058
" /> 
<polyline fill="none;"
points="86938,35058
87134,34862
86938,34665
86741,34862
86938,35058
" /> 
<polyline fill="none;"
points="87188,40308
87384,40112
87188,39915
86991,40112
87188,40308
" /> 
<polyline fill="none;"
points="87388,25558
87584,25362
87388,25165
87191,25362
87388,25558
" /> 
<polyline fill="none;"
points="87388,32858
87584,32662
87388,32465
87191,32662
87388,32858
" /> 
<polyline fill="none;"
points="87938,34058
88134,33862
87938,33665
87741,33862
87938,34058
" /> 
<polyline fill="none;"
points="87938,35058
88134,34862
87938,34665
87741,34862
87938,35058
" /> 
<polyline fill="none;"
points="88188,40308
88384,40112
88188,39915
87991,40112
88188,40308
" /> 
<polyline fill="none;"
points="88938,34058
89134,33862
88938,33665
88741,33862
88938,34058
" /> 
<polyline fill="none;"
points="88938,35058
89134,34862
88938,34665
88741,34862
88938,35058
" /> 
<polyline fill="none;"
points="89188,36083
89384,35887
89188,35690
88991,35887
89188,36083
" /> 
<polyline fill="none;"
points="89188,37083
89384,36887
89188,36690
88991,36887
89188,37083
" /> 
<polyline fill="none;"
points="89188,38083
89384,37887
89188,37690
88991,37887
89188,38083
" /> 
<polyline fill="none;"
points="89188,39083
89384,38887
89188,38690
88991,38887
89188,39083
" /> 
<polyline fill="none;"
points="89188,40308
89384,40112
89188,39915
88991,40112
89188,40308
" /> 
<polyline fill="none;"
points="89188,41558
89384,41362
89188,41165
88991,41362
89188,41558
" /> 
<polyline fill="none;"
points="89188,42558
89384,42362
89188,42165
88991,42362
89188,42558
" /> 
<polyline fill="none;"
points="89188,43558
89384,43362
89188,43165
88991,43362
89188,43558
" /> 
<polyline fill="none;"
points="89188,44558
89384,44362
89188,44165
88991,44362
89188,44558
" /> 
<path d="M89213 28387
L89663 28837
" />
<path d="M89663 28387
L89213 28837
" />
<circle cx="89438" cy="28612" r="225" /> 
<path d="M89213 29387
L89663 29837
" />
<path d="M89663 29387
L89213 29837
" />
<circle cx="89438" cy="29612" r="225" /> 
<path d="M89213 30387
L89663 30837
" />
<path d="M89663 30387
L89213 30837
" />
<circle cx="89438" cy="30612" r="225" /> 
</g>
<g style="fill:#000000; fill-opacity:0.0; 
stroke:#000000; stroke-width:118.11; stroke-opacity:1; 
stroke-linecap:round; stroke-linejoin:round;">
<path d="M56217 49734
L56217 48553
L56498 48553
L56667 48610
L56779 48722
L56835 48835
L56892 49059
L56892 49228
L56835 49453
L56779 49566
L56667 49678
L56498 49734
L56217 49734
" />
<path d="M57398 49734
L57398 48947
" />
<path d="M57398 49172
L57454 49059
L57510 49003
L57623 48947
L57735 48947
" />
<path d="M58129 49734
L58129 48947
" />
<path d="M58129 48553
L58073 48610
L58129 48666
L58185 48610
L58129 48553
L58129 48666
" />
<path d="M58860 49734
L58748 49678
L58691 49566
L58691 48553
" />
<path d="M59479 49734
L59366 49678
L59310 49566
L59310 48553
" />
<path d="M60829 49734
L60829 48553
L61222 49397
L61616 48553
L61616 49734
" />
<path d="M62685 49734
L62685 49116
L62628 49003
L62516 48947
L62291 48947
L62179 49003
" />
<path d="M62685 49678
L62572 49734
L62291 49734
L62179 49678
L62122 49566
L62122 49453
L62179 49341
L62291 49284
L62572 49284
L62685 49228
" />
<path d="M63247 48947
L63247 50128
" />
<path d="M63247 49003
L63360 48947
L63585 48947
L63697 49003
L63753 49059
L63810 49172
L63810 49509
L63753 49622
L63697 49678
L63585 49734
L63360 49734
L63247 49678
" />
<path d="M64316 49622
L64372 49678
L64316 49734
L64259 49678
L64316 49622
L64316 49734
" />
<path d="M64316 49003
L64372 49059
L64316 49116
L64259 49059
L64316 49003
L64316 49116
" />
<path d="M55030 51621
L55148 51739
" />
<path d="M55148 51621
L55030 51739
" />
<path d="M56442 51034
L56554 51034
L56667 51090
L56723 51146
L56779 51259
L56835 51484
L56835 51765
L56779 51990
L56723 52102
L56667 52158
L56554 52215
L56442 52215
L56329 52158
L56273 52102
L56217 51990
L56161 51765
L56161 51484
L56217 51259
L56273 51146
L56329 51090
L56442 51034
" />
<path d="M57342 52102
L57398 52158
L57342 52215
L57285 52158
L57342 52102
L57342 52215
" />
<path d="M57792 51034
L58523 51034
L58129 51484
L58298 51484
L58410 51540
L58466 51596
L58523 51709
L58523 51990
L58466 52102
L58410 52158
L58298 52215
L57960 52215
L57848 52158
L57792 52102
" />
<path d="M59254 51034
L59366 51034
L59479 51090
L59535 51146
L59591 51259
L59648 51484
L59648 51765
L59591 51990
L59535 52102
L59479 52158
L59366 52215
L59254 52215
L59141 52158
L59085 52102
L59029 51990
L58973 51765
L58973 51484
L59029 51259
L59085 51146
L59141 51090
L59254 51034
" />
<path d="M60154 52215
L60154 51427
" />
<path d="M60154 51540
L60210 51484
L60322 51427
L60491 51427
L60604 51484
L60660 51596
L60660 52215
" />
<path d="M60660 51596
L60716 51484
L60829 51427
L60997 51427
L61110 51484
L61166 51596
L61166 52215
" />
<path d="M61729 52215
L61729 51427
" />
<path d="M61729 51540
L61785 51484
L61897 51427
L62066 51427
L62179 51484
L62235 51596
L62235 52215
" />
<path d="M62235 51596
L62291 51484
L62403 51427
L62572 51427
L62685 51484
L62741 51596
L62741 52215
" />
<path d="M65047 50977
L64035 52496
" />
<path d="M66565 51034
L66678 51034
L66790 51090
L66847 51146
L66903 51259
L66959 51484
L66959 51765
L66903 51990
L66847 52102
L66790 52158
L66678 52215
L66565 52215
L66453 52158
L66397 52102
L66340 51990
L66284 51765
L66284 51484
L66340 51259
L66397 51146
L66453 51090
L66565 51034
" />
<path d="M67465 52102
L67522 52158
L67465 52215
L67409 52158
L67465 52102
L67465 52215
" />
<path d="M68253 51034
L68365 51034
L68478 51090
L68534 51146
L68590 51259
L68646 51484
L68646 51765
L68590 51990
L68534 52102
L68478 52158
L68365 52215
L68253 52215
L68140 52158
L68084 52102
L68028 51990
L67972 51765
L67972 51484
L68028 51259
L68084 51146
L68140 51090
L68253 51034
" />
<path d="M69771 52215
L69096 52215
" />
<path d="M69434 52215
L69434 51034
L69321 51202
L69209 51315
L69096 51371
" />
<path d="M70221 51146
L70277 51090
L70390 51034
L70671 51034
L70784 51090
L70840 51146
L70896 51259
L70896 51371
L70840 51540
L70165 52215
L70896 52215
" />
<path d="M71346 51034
L71346 51259
" />
<path d="M71796 51034
L71796 51259
" />
<path d="M73540 52665
L73483 52608
L73371 52440
L73315 52327
L73258 52158
L73202 51877
L73202 51652
L73258 51371
L73315 51202
L73371 51090
L73483 50921
L73540 50865
" />
<path d="M74608 52215
L73933 52215
" />
<path d="M74271 52215
L74271 51034
L74158 51202
L74046 51315
L73933 51371
" />
<path d="M75339 51034
L75452 51034
L75564 51090
L75621 51146
L75677 51259
L75733 51484
L75733 51765
L75677 51990
L75621 52102
L75564 52158
L75452 52215
L75339 52215
L75227 52158
L75171 52102
L75114 51990
L75058 51765
L75058 51484
L75114 51259
L75171 51146
L75227 51090
L75339 51034
" />
<path d="M76295 52215
L76520 52215
L76633 52158
L76689 52102
L76802 51933
L76858 51709
L76858 51259
L76802 51146
L76745 51090
L76633 51034
L76408 51034
L76295 51090
L76239 51146
L76183 51259
L76183 51540
L76239 51652
L76295 51709
L76408 51765
L76633 51765
L76745 51709
L76802 51652
L76858 51540
" />
<path d="M78264 52215
L78264 51034
" />
<path d="M78770 52215
L78770 51596
L78714 51484
L78601 51427
L78433 51427
L78320 51484
L78264 51540
" />
<path d="M79501 52215
L79389 52158
L79333 52102
L79276 51990
L79276 51652
L79333 51540
L79389 51484
L79501 51427
L79670 51427
L79783 51484
L79839 51540
L79895 51652
L79895 51990
L79839 52102
L79783 52158
L79670 52215
L79501 52215
" />
<path d="M80570 52215
L80457 52158
L80401 52046
L80401 51034
" />
<path d="M81470 52158
L81357 52215
L81132 52215
L81020 52158
L80964 52046
L80964 51596
L81020 51484
L81132 51427
L81357 51427
L81470 51484
L81526 51596
L81526 51709
L80964 51821
" />
<path d="M81976 52158
L82089 52215
L82313 52215
L82426 52158
L82482 52046
L82482 51990
L82426 51877
L82313 51821
L82145 51821
L82032 51765
L81976 51652
L81976 51596
L82032 51484
L82145 51427
L82313 51427
L82426 51484
" />
<path d="M82876 52665
L82932 52608
L83045 52440
L83101 52327
L83157 52158
L83213 51877
L83213 51652
L83157 51371
L83101 51202
L83045 51090
L82932 50921
L82876 50865
" />
<circle cx="55030.5" cy="53240" r="118.11" /> 
<path d="M56442 52593
L56554 52593
L56667 52649
L56723 52705
L56779 52818
L56835 53043
L56835 53324
L56779 53549
L56723 53661
L56667 53718
L56554 53774
L56442 53774
L56329 53718
L56273 53661
L56217 53549
L56161 53324
L56161 53043
L56217 52818
L56273 52705
L56329 52649
L56442 52593
" />
<path d="M57342 53661
L57398 53718
L57342 53774
L57285 53718
L57342 53661
L57342 53774
" />
<path d="M58410 52593
L58185 52593
L58073 52649
L58017 52705
L57904 52874
L57848 53099
L57848 53549
L57904 53661
L57960 53718
L58073 53774
L58298 53774
L58410 53718
L58466 53661
L58523 53549
L58523 53268
L58466 53155
L58410 53099
L58298 53043
L58073 53043
L57960 53099
L57904 53155
L57848 53268
" />
<path d="M59254 52593
L59366 52593
L59479 52649
L59535 52705
L59591 52818
L59648 53043
L59648 53324
L59591 53549
L59535 53661
L59479 53718
L59366 53774
L59254 53774
L59141 53718
L59085 53661
L59029 53549
L58973 53324
L58973 53043
L59029 52818
L59085 52705
L59141 52649
L59254 52593
" />
<path d="M60154 53774
L60154 52986
" />
<path d="M60154 53099
L60210 53043
L60322 52986
L60491 52986
L60604 53043
L60660 53155
L60660 53774
" />
<path d="M60660 53155
L60716 53043
L60829 52986
L60997 52986
L61110 53043
L61166 53155
L61166 53774
" />
<path d="M61729 53774
L61729 52986
" />
<path d="M61729 53099
L61785 53043
L61897 52986
L62066 52986
L62179 53043
L62235 53155
L62235 53774
" />
<path d="M62235 53155
L62291 53043
L62403 52986
L62572 52986
L62685 53043
L62741 53155
L62741 53774
" />
<path d="M65047 52536
L64035 54055
" />
<path d="M66565 52593
L66678 52593
L66790 52649
L66847 52705
L66903 52818
L66959 53043
L66959 53324
L66903 53549
L66847 53661
L66790 53718
L66678 53774
L66565 53774
L66453 53718
L66397 53661
L66340 53549
L66284 53324
L66284 53043
L66340 52818
L66397 52705
L66453 52649
L66565 52593
" />
<path d="M67465 53661
L67522 53718
L67465 53774
L67409 53718
L67465 53661
L67465 53774
" />
<path d="M68253 52593
L68365 52593
L68478 52649
L68534 52705
L68590 52818
L68646 53043
L68646 53324
L68590 53549
L68534 53661
L68478 53718
L68365 53774
L68253 53774
L68140 53718
L68084 53661
L68028 53549
L67972 53324
L67972 53043
L68028 52818
L68084 52705
L68140 52649
L68253 52593
" />
<path d="M69096 52705
L69153 52649
L69265 52593
L69546 52593
L69659 52649
L69715 52705
L69771 52818
L69771 52930
L69715 53099
L69040 53774
L69771 53774
" />
<path d="M70784 52986
L70784 53774
" />
<path d="M70502 52536
L70221 53380
L70952 53380
" />
<path d="M71346 52593
L71346 52818
" />
<path d="M71796 52593
L71796 52818
" />
<path d="M73540 54224
L73483 54167
L73371 53999
L73315 53886
L73258 53718
L73202 53436
L73202 53211
L73258 52930
L73315 52761
L73371 52649
L73483 52480
L73540 52424
" />
<path d="M73933 52705
L73990 52649
L74102 52593
L74383 52593
L74496 52649
L74552 52705
L74608 52818
L74608 52930
L74552 53099
L73877 53774
L74608 53774
" />
<path d="M75058 52705
L75114 52649
L75227 52593
L75508 52593
L75621 52649
L75677 52705
L75733 52818
L75733 52930
L75677 53099
L75002 53774
L75733 53774
" />
<path d="M77139 53774
L77139 52593
" />
<path d="M77645 53774
L77645 53155
L77589 53043
L77477 52986
L77308 52986
L77195 53043
L77139 53099
" />
<path d="M78376 53774
L78264 53718
L78208 53661
L78152 53549
L78152 53211
L78208 53099
L78264 53043
L78376 52986
L78545 52986
L78658 53043
L78714 53099
L78770 53211
L78770 53549
L78714 53661
L78658 53718
L78545 53774
L78376 53774
" />
<path d="M79445 53774
L79333 53718
L79276 53605
L79276 52593
" />
<path d="M80345 53718
L80232 53774
L80008 53774
L79895 53718
L79839 53605
L79839 53155
L79895 53043
L80008 52986
L80232 52986
L80345 53043
L80401 53155
L80401 53268
L79839 53380
" />
<path d="M80851 53718
L80964 53774
L81189 53774
L81301 53718
L81357 53605
L81357 53549
L81301 53436
L81189 53380
L81020 53380
L80907 53324
L80851 53211
L80851 53155
L80907 53043
L81020 52986
L81189 52986
L81301 53043
" />
<path d="M81751 54224
L81807 54167
L81920 53999
L81976 53886
L82032 53718
L82089 53436
L82089 53211
L82032 52930
L81976 52761
L81920 52649
L81807 52480
L81751 52424
" />
<path d="M54991 54641
L54991 54956
" />
<path d="M54833 54799
L55148 54799
" />
<path d="M56442 54152
L56554 54152
L56667 54208
L56723 54264
L56779 54377
L56835 54602
L56835 54883
L56779 55108
L56723 55220
L56667 55277
L56554 55333
L56442 55333
L56329 55277
L56273 55220
L56217 55108
L56161 54883
L56161 54602
L56217 54377
L56273 54264
L56329 54208
L56442 54152
" />
<path d="M57342 55220
L57398 55277
L57342 55333
L57285 55277
L57342 55220
L57342 55333
" />
<path d="M58073 54658
L57960 54602
L57904 54545
L57848 54433
L57848 54377
L57904 54264
L57960 54208
L58073 54152
L58298 54152
L58410 54208
L58466 54264
L58523 54377
L58523 54433
L58466 54545
L58410 54602
L58298 54658
L58073 54658
L57960 54714
L57904 54770
L57848 54883
L57848 55108
L57904 55220
L57960 55277
L58073 55333
L58298 55333
L58410 55277
L58466 55220
L58523 55108
L58523 54883
L58466 54770
L58410 54714
L58298 54658
" />
<path d="M59254 54152
L59366 54152
L59479 54208
L59535 54264
L59591 54377
L59648 54602
L59648 54883
L59591 55108
L59535 55220
L59479 55277
L59366 55333
L59254 55333
L59141 55277
L59085 55220
L59029 55108
L58973 54883
L58973 54602
L59029 54377
L59085 54264
L59141 54208
L59254 54152
" />
<path d="M60154 55333
L60154 54545
" />
<path d="M60154 54658
L60210 54602
L60322 54545
L60491 54545
L60604 54602
L60660 54714
L60660 55333
" />
<path d="M60660 54714
L60716 54602
L60829 54545
L60997 54545
L61110 54602
L61166 54714
L61166 55333
" />
<path d="M61729 55333
L61729 54545
" />
<path d="M61729 54658
L61785 54602
L61897 54545
L62066 54545
L62179 54602
L62235 54714
L62235 55333
" />
<path d="M62235 54714
L62291 54602
L62403 54545
L62572 54545
L62685 54602
L62741 54714
L62741 55333
" />
<path d="M65047 54095
L64035 55614
" />
<path d="M66565 54152
L66678 54152
L66790 54208
L66847 54264
L66903 54377
L66959 54602
L66959 54883
L66903 55108
L66847 55220
L66790 55277
L66678 55333
L66565 55333
L66453 55277
L66397 55220
L66340 55108
L66284 54883
L66284 54602
L66340 54377
L66397 54264
L66453 54208
L66565 54152
" />
<path d="M67465 55220
L67522 55277
L67465 55333
L67409 55277
L67465 55220
L67465 55333
" />
<path d="M68253 54152
L68365 54152
L68478 54208
L68534 54264
L68590 54377
L68646 54602
L68646 54883
L68590 55108
L68534 55220
L68478 55277
L68365 55333
L68253 55333
L68140 55277
L68084 55220
L68028 55108
L67972 54883
L67972 54602
L68028 54377
L68084 54264
L68140 54208
L68253 54152
" />
<path d="M69040 54152
L69771 54152
L69378 54602
L69546 54602
L69659 54658
L69715 54714
L69771 54827
L69771 55108
L69715 55220
L69659 55277
L69546 55333
L69209 55333
L69096 55277
L69040 55220
" />
<path d="M70896 55333
L70221 55333
" />
<path d="M70559 55333
L70559 54152
L70446 54320
L70334 54433
L70221 54489
" />
<path d="M71346 54152
L71346 54377
" />
<path d="M71796 54152
L71796 54377
" />
<path d="M73540 55783
L73483 55727
L73371 55558
L73315 55445
L73258 55277
L73202 54995
L73202 54770
L73258 54489
L73315 54320
L73371 54208
L73483 54039
L73540 53983
" />
<path d="M74496 54545
L74496 55333
" />
<path d="M74214 54095
L73933 54939
L74664 54939
" />
<path d="M75677 54152
L75114 54152
L75058 54714
L75114 54658
L75227 54602
L75508 54602
L75621 54658
L75677 54714
L75733 54827
L75733 55108
L75677 55220
L75621 55277
L75508 55333
L75227 55333
L75114 55277
L75058 55220
" />
<path d="M77139 55333
L77139 54152
" />
<path d="M77645 55333
L77645 54714
L77589 54602
L77477 54545
L77308 54545
L77195 54602
L77139 54658
" />
<path d="M78376 55333
L78264 55277
L78208 55220
L78152 55108
L78152 54770
L78208 54658
L78264 54602
L78376 54545
L78545 54545
L78658 54602
L78714 54658
L78770 54770
L78770 55108
L78714 55220
L78658 55277
L78545 55333
L78376 55333
" />
<path d="M79445 55333
L79333 55277
L79276 55164
L79276 54152
" />
<path d="M80345 55277
L80232 55333
L80008 55333
L79895 55277
L79839 55164
L79839 54714
L79895 54602
L80008 54545
L80232 54545
L80345 54602
L80401 54714
L80401 54827
L79839 54939
" />
<path d="M80851 55277
L80964 55333
L81189 55333
L81301 55277
L81357 55164
L81357 55108
L81301 54995
L81189 54939
L81020 54939
L80907 54883
L80851 54770
L80851 54714
L80907 54602
L81020 54545
L81189 54545
L81301 54602
" />
<path d="M81751 55783
L81807 55727
L81920 55558
L81976 55445
L82032 55277
L82089 54995
L82089 54770
L82032 54489
L81976 54320
L81920 54208
L81807 54039
L81751 53983
" />
<polyline fill="none;"
points="55101,56471
55101,56244
54875,56244
54875,56471
55101,56471
" /> 
<path d="M56442 55711
L56554 55711
L56667 55767
L56723 55823
L56779 55936
L56835 56161
L56835 56442
L56779 56667
L56723 56779
L56667 56836
L56554 56892
L56442 56892
L56329 56836
L56273 56779
L56217 56667
L56161 56442
L56161 56161
L56217 55936
L56273 55823
L56329 55767
L56442 55711
" />
<path d="M57342 56779
L57398 56836
L57342 56892
L57285 56836
L57342 56779
L57342 56892
" />
<path d="M58073 56217
L57960 56161
L57904 56104
L57848 55992
L57848 55936
L57904 55823
L57960 55767
L58073 55711
L58298 55711
L58410 55767
L58466 55823
L58523 55936
L58523 55992
L58466 56104
L58410 56161
L58298 56217
L58073 56217
L57960 56273
L57904 56329
L57848 56442
L57848 56667
L57904 56779
L57960 56836
L58073 56892
L58298 56892
L58410 56836
L58466 56779
L58523 56667
L58523 56442
L58466 56329
L58410 56273
L58298 56217
" />
<path d="M59648 56892
L58973 56892
" />
<path d="M59310 56892
L59310 55711
L59198 55879
L59085 55992
L58973 56048
" />
<path d="M60154 56892
L60154 56104
" />
<path d="M60154 56217
L60210 56161
L60322 56104
L60491 56104
L60604 56161
L60660 56273
L60660 56892
" />
<path d="M60660 56273
L60716 56161
L60829 56104
L60997 56104
L61110 56161
L61166 56273
L61166 56892
" />
<path d="M61729 56892
L61729 56104
" />
<path d="M61729 56217
L61785 56161
L61897 56104
L62066 56104
L62179 56161
L62235 56273
L62235 56892
" />
<path d="M62235 56273
L62291 56161
L62403 56104
L62572 56104
L62685 56161
L62741 56273
L62741 56892
" />
<path d="M65047 55655
L64035 57173
" />
<path d="M66565 55711
L66678 55711
L66790 55767
L66847 55823
L66903 55936
L66959 56161
L66959 56442
L66903 56667
L66847 56779
L66790 56836
L66678 56892
L66565 56892
L66453 56836
L66397 56779
L66340 56667
L66284 56442
L66284 56161
L66340 55936
L66397 55823
L66453 55767
L66565 55711
" />
<path d="M67465 56779
L67522 56836
L67465 56892
L67409 56836
L67465 56779
L67465 56892
" />
<path d="M68253 55711
L68365 55711
L68478 55767
L68534 55823
L68590 55936
L68646 56161
L68646 56442
L68590 56667
L68534 56779
L68478 56836
L68365 56892
L68253 56892
L68140 56836
L68084 56779
L68028 56667
L67972 56442
L67972 56161
L68028 55936
L68084 55823
L68140 55767
L68253 55711
" />
<path d="M69040 55711
L69771 55711
L69378 56161
L69546 56161
L69659 56217
L69715 56273
L69771 56386
L69771 56667
L69715 56779
L69659 56836
L69546 56892
L69209 56892
L69096 56836
L69040 56779
" />
<path d="M70221 55823
L70277 55767
L70390 55711
L70671 55711
L70784 55767
L70840 55823
L70896 55936
L70896 56048
L70840 56217
L70165 56892
L70896 56892
" />
<path d="M71346 55711
L71346 55936
" />
<path d="M71796 55711
L71796 55936
" />
<path d="M73540 57342
L73483 57286
L73371 57117
L73315 57004
L73258 56836
L73202 56554
L73202 56329
L73258 56048
L73315 55879
L73371 55767
L73483 55598
L73540 55542
" />
<path d="M74608 56892
L73933 56892
" />
<path d="M74271 56892
L74271 55711
L74158 55879
L74046 55992
L73933 56048
" />
<path d="M75058 55823
L75114 55767
L75227 55711
L75508 55711
L75621 55767
L75677 55823
L75733 55936
L75733 56048
L75677 56217
L75002 56892
L75733 56892
" />
<path d="M77139 56892
L77139 55711
" />
<path d="M77645 56892
L77645 56273
L77589 56161
L77477 56104
L77308 56104
L77195 56161
L77139 56217
" />
<path d="M78376 56892
L78264 56836
L78208 56779
L78152 56667
L78152 56329
L78208 56217
L78264 56161
L78376 56104
L78545 56104
L78658 56161
L78714 56217
L78770 56329
L78770 56667
L78714 56779
L78658 56836
L78545 56892
L78376 56892
" />
<path d="M79445 56892
L79333 56836
L79276 56723
L79276 55711
" />
<path d="M80345 56836
L80232 56892
L80008 56892
L79895 56836
L79839 56723
L79839 56273
L79895 56161
L80008 56104
L80232 56104
L80345 56161
L80401 56273
L80401 56386
L79839 56498
" />
<path d="M80851 56836
L80964 56892
L81189 56892
L81301 56836
L81357 56723
L81357 56667
L81301 56554
L81189 56498
L81020 56498
L80907 56442
L80851 56329
L80851 56273
L80907 56161
L81020 56104
L81189 56104
L81301 56161
" />
<path d="M81751 57342
L81807 57286
L81920 57117
L81976 57004
L82032 56836
L82089 56554
L82089 56329
L82032 56048
L81976 55879
L81920 55767
L81807 55598
L81751 55542
" />
<polyline fill="none;"
points="54951,58113
55148,57917
54951,57720
54754,57917
54951,58113
" /> 
<path d="M56835 58451
L56161 58451
" />
<path d="M56498 58451
L56498 57270
L56385 57439
L56273 57551
L56161 57607
" />
<path d="M57342 58338
L57398 58395
L57342 58451
L57285 58395
L57342 58338
L57342 58451
" />
<path d="M58129 57270
L58241 57270
L58354 57326
L58410 57382
L58466 57495
L58523 57720
L58523 58001
L58466 58226
L58410 58338
L58354 58395
L58241 58451
L58129 58451
L58017 58395
L57960 58338
L57904 58226
L57848 58001
L57848 57720
L57904 57495
L57960 57382
L58017 57326
L58129 57270
" />
<path d="M59254 57270
L59366 57270
L59479 57326
L59535 57382
L59591 57495
L59648 57720
L59648 58001
L59591 58226
L59535 58338
L59479 58395
L59366 58451
L59254 58451
L59141 58395
L59085 58338
L59029 58226
L58973 58001
L58973 57720
L59029 57495
L59085 57382
L59141 57326
L59254 57270
" />
<path d="M60154 58451
L60154 57664
" />
<path d="M60154 57776
L60210 57720
L60322 57664
L60491 57664
L60604 57720
L60660 57832
L60660 58451
" />
<path d="M60660 57832
L60716 57720
L60829 57664
L60997 57664
L61110 57720
L61166 57832
L61166 58451
" />
<path d="M61729 58451
L61729 57664
" />
<path d="M61729 57776
L61785 57720
L61897 57664
L62066 57664
L62179 57720
L62235 57832
L62235 58451
" />
<path d="M62235 57832
L62291 57720
L62403 57664
L62572 57664
L62685 57720
L62741 57832
L62741 58451
" />
<path d="M65047 57214
L64035 58732
" />
<path d="M66565 57270
L66678 57270
L66790 57326
L66847 57382
L66903 57495
L66959 57720
L66959 58001
L66903 58226
L66847 58338
L66790 58395
L66678 58451
L66565 58451
L66453 58395
L66397 58338
L66340 58226
L66284 58001
L66284 57720
L66340 57495
L66397 57382
L66453 57326
L66565 57270
" />
<path d="M67465 58338
L67522 58395
L67465 58451
L67409 58395
L67465 58338
L67465 58451
" />
<path d="M68253 57270
L68365 57270
L68478 57326
L68534 57382
L68590 57495
L68646 57720
L68646 58001
L68590 58226
L68534 58338
L68478 58395
L68365 58451
L68253 58451
L68140 58395
L68084 58338
L68028 58226
L67972 58001
L67972 57720
L68028 57495
L68084 57382
L68140 57326
L68253 57270
" />
<path d="M69040 57270
L69771 57270
L69378 57720
L69546 57720
L69659 57776
L69715 57832
L69771 57945
L69771 58226
L69715 58338
L69659 58395
L69546 58451
L69209 58451
L69096 58395
L69040 58338
" />
<path d="M70334 58451
L70559 58451
L70671 58395
L70727 58338
L70840 58170
L70896 57945
L70896 57495
L70840 57382
L70784 57326
L70671 57270
L70446 57270
L70334 57326
L70277 57382
L70221 57495
L70221 57776
L70277 57888
L70334 57945
L70446 58001
L70671 58001
L70784 57945
L70840 57888
L70896 57776
" />
<path d="M71346 57270
L71346 57495
" />
<path d="M71796 57270
L71796 57495
" />
<path d="M73540 58901
L73483 58845
L73371 58676
L73315 58563
L73258 58395
L73202 58113
L73202 57888
L73258 57607
L73315 57439
L73371 57326
L73483 57157
L73540 57101
" />
<path d="M73933 57382
L73990 57326
L74102 57270
L74383 57270
L74496 57326
L74552 57382
L74608 57495
L74608 57607
L74552 57776
L73877 58451
L74608 58451
" />
<path d="M75002 57270
L75789 57270
L75283 58451
" />
<path d="M76127 57270
L76914 57270
L76408 58451
" />
<path d="M78264 58451
L78264 57270
" />
<path d="M78770 58451
L78770 57832
L78714 57720
L78601 57664
L78433 57664
L78320 57720
L78264 57776
" />
<path d="M79501 58451
L79389 58395
L79333 58338
L79276 58226
L79276 57888
L79333 57776
L79389 57720
L79501 57664
L79670 57664
L79783 57720
L79839 57776
L79895 57888
L79895 58226
L79839 58338
L79783 58395
L79670 58451
L79501 58451
" />
<path d="M80570 58451
L80457 58395
L80401 58282
L80401 57270
" />
<path d="M81470 58395
L81357 58451
L81132 58451
L81020 58395
L80964 58282
L80964 57832
L81020 57720
L81132 57664
L81357 57664
L81470 57720
L81526 57832
L81526 57945
L80964 58057
" />
<path d="M81976 58395
L82089 58451
L82313 58451
L82426 58395
L82482 58282
L82482 58226
L82426 58113
L82313 58057
L82145 58057
L82032 58001
L81976 57888
L81976 57832
L82032 57720
L82145 57664
L82313 57664
L82426 57720
" />
<path d="M82876 58901
L82932 58845
L83045 58676
L83101 58563
L83157 58395
L83213 58113
L83213 57888
L83157 57607
L83101 57439
L83045 57326
L82932 57157
L82876 57101
" />
<path d="M54698 59251
L55148 59701
" />
<path d="M55148 59251
L54698 59701
" />
<circle cx="54923.6" cy="59476.2" r="225" /> 
<path d="M56835 60010
L56161 60010
" />
<path d="M56498 60010
L56498 58829
L56385 58998
L56273 59110
L56161 59166
" />
<path d="M57342 59897
L57398 59954
L57342 60010
L57285 59954
L57342 59897
L57342 60010
" />
<path d="M58523 60010
L57848 60010
" />
<path d="M58185 60010
L58185 58829
L58073 58998
L57960 59110
L57848 59166
" />
<path d="M59535 59223
L59535 60010
" />
<path d="M59254 58773
L58973 59616
L59704 59616
" />
<path d="M60154 60010
L60154 59223
" />
<path d="M60154 59335
L60210 59279
L60322 59223
L60491 59223
L60604 59279
L60660 59391
L60660 60010
" />
<path d="M60660 59391
L60716 59279
L60829 59223
L60997 59223
L61110 59279
L61166 59391
L61166 60010
" />
<path d="M61729 60010
L61729 59223
" />
<path d="M61729 59335
L61785 59279
L61897 59223
L62066 59223
L62179 59279
L62235 59391
L62235 60010
" />
<path d="M62235 59391
L62291 59279
L62403 59223
L62572 59223
L62685 59279
L62741 59391
L62741 60010
" />
<path d="M65047 58773
L64035 60291
" />
<path d="M66565 58829
L66678 58829
L66790 58885
L66847 58941
L66903 59054
L66959 59279
L66959 59560
L66903 59785
L66847 59897
L66790 59954
L66678 60010
L66565 60010
L66453 59954
L66397 59897
L66340 59785
L66284 59560
L66284 59279
L66340 59054
L66397 58941
L66453 58885
L66565 58829
" />
<path d="M67465 59897
L67522 59954
L67465 60010
L67409 59954
L67465 59897
L67465 60010
" />
<path d="M68253 58829
L68365 58829
L68478 58885
L68534 58941
L68590 59054
L68646 59279
L68646 59560
L68590 59785
L68534 59897
L68478 59954
L68365 60010
L68253 60010
L68140 59954
L68084 59897
L68028 59785
L67972 59560
L67972 59279
L68028 59054
L68084 58941
L68140 58885
L68253 58829
" />
<path d="M69659 59223
L69659 60010
" />
<path d="M69378 58773
L69096 59616
L69828 59616
" />
<path d="M70840 58829
L70277 58829
L70221 59391
L70277 59335
L70390 59279
L70671 59279
L70784 59335
L70840 59391
L70896 59504
L70896 59785
L70840 59897
L70784 59954
L70671 60010
L70390 60010
L70277 59954
L70221 59897
" />
<path d="M71346 58829
L71346 59054
" />
<path d="M71796 58829
L71796 59054
" />
<path d="M73540 60460
L73483 60404
L73371 60235
L73315 60122
L73258 59954
L73202 59673
L73202 59448
L73258 59166
L73315 58998
L73371 58885
L73483 58716
L73540 58660
" />
<path d="M73877 58829
L74608 58829
L74214 59279
L74383 59279
L74496 59335
L74552 59391
L74608 59504
L74608 59785
L74552 59897
L74496 59954
L74383 60010
L74046 60010
L73933 59954
L73877 59897
" />
<path d="M76014 60010
L76014 58829
" />
<path d="M76520 60010
L76520 59391
L76464 59279
L76352 59223
L76183 59223
L76071 59279
L76014 59335
" />
<path d="M77252 60010
L77139 59954
L77083 59897
L77027 59785
L77027 59448
L77083 59335
L77139 59279
L77252 59223
L77420 59223
L77533 59279
L77589 59335
L77645 59448
L77645 59785
L77589 59897
L77533 59954
L77420 60010
L77252 60010
" />
<path d="M78320 60010
L78208 59954
L78152 59841
L78152 58829
" />
<path d="M79220 59954
L79108 60010
L78883 60010
L78770 59954
L78714 59841
L78714 59391
L78770 59279
L78883 59223
L79108 59223
L79220 59279
L79276 59391
L79276 59504
L78714 59616
" />
<path d="M79726 59954
L79839 60010
L80064 60010
L80176 59954
L80232 59841
L80232 59785
L80176 59673
L80064 59616
L79895 59616
L79783 59560
L79726 59448
L79726 59391
L79783 59279
L79895 59223
L80064 59223
L80176 59279
" />
<path d="M80626 60460
L80682 60404
L80795 60235
L80851 60122
L80907 59954
L80964 59673
L80964 59448
L80907 59166
L80851 58998
L80795 58885
L80682 58716
L80626 58660
" />
</g> 
</svg>
