<?xml version="1.0" standalone="no"?>
 <!DOCTYPE svg PUBLIC "-//W3C//DTD SVG 1.1//EN" 
 "http://www.w3.org/Graphics/SVG/1.1/DTD/svg11.dtd"> 
<svg xmlns="http://www.w3.org/2000/svg" version="1.1" 
    width="29.7002cm" height="21.0007cm" viewBox="0 0 116930 82680 ">
<title>SVG Picture created as Mega_2560 core mini_full_2.0-NPTH-drl_map.svg date 2017/08/31 17:06:34 </title>
  <desc>Picture generated by PCBNEW </desc>
<g style="fill:#000000; fill-opacity:1;stroke:#000000; stroke-opacity:1;
stroke-linecap:round; stroke-linejoin:round; "
 transform="translate(0 0) scale(1 1)">
</g>
<g style="fill:#000000; fill-opacity:0.0; 
stroke:#000000; stroke-width:-0.000393701; stroke-opacity:1; 
stroke-linecap:round; stroke-linejoin:round;">
</g>
<g style="fill:#000000; fill-opacity:0.0; 
stroke:#000000; stroke-width:78.7402; stroke-opacity:1; 
stroke-linecap:round; stroke-linejoin:round;">
<path d="M55188 24362
L55188 47862
" />
<path d="M90438 24362
L55188 24362
" />
<path d="M90438 47862
L90438 24362
" />
<path d="M55188 47862
L90438 47862
" />
</g>
<g style="fill:#000000; fill-opacity:0.0; 
stroke:#000000; stroke-width:78.7402; stroke-opacity:1; 
stroke-linecap:round; stroke-linejoin:round;">
<path d="M55808 24982
L57067 26241
" />
<path d="M57067 24982
L55808 26241
" />
<path d="M88558 24982
L89817 26241
" />
<path d="M89817 24982
L88558 26241
" />
<path d="M88558 45982
L89817 47241
" />
<path d="M89817 45982
L88558 47241
" />
</g>
<g style="fill:#000000; fill-opacity:0.0; 
stroke:#000000; stroke-width:118.11; stroke-opacity:1; 
stroke-linecap:round; stroke-linejoin:round;">
<path d="M56217 49734
L56217 48553
L56498 48553
L56667 48610
L56779 48722
L56835 48835
L56892 49059
L56892 49228
L56835 49453
L56779 49566
L56667 49678
L56498 49734
L56217 49734
" />
<path d="M57398 49734
L57398 48947
" />
<path d="M57398 49172
L57454 49059
L57510 49003
L57623 48947
L57735 48947
" />
<path d="M58129 49734
L58129 48947
" />
<path d="M58129 48553
L58073 48610
L58129 48666
L58185 48610
L58129 48553
L58129 48666
" />
<path d="M58860 49734
L58748 49678
L58691 49566
L58691 48553
" />
<path d="M59479 49734
L59366 49678
L59310 49566
L59310 48553
" />
<path d="M60829 49734
L60829 48553
L61222 49397
L61616 48553
L61616 49734
" />
<path d="M62685 49734
L62685 49116
L62628 49003
L62516 48947
L62291 48947
L62179 49003
" />
<path d="M62685 49678
L62572 49734
L62291 49734
L62179 49678
L62122 49566
L62122 49453
L62179 49341
L62291 49284
L62572 49284
L62685 49228
" />
<path d="M63247 48947
L63247 50128
" />
<path d="M63247 49003
L63360 48947
L63585 48947
L63697 49003
L63753 49059
L63810 49172
L63810 49509
L63753 49622
L63697 49678
L63585 49734
L63360 49734
L63247 49678
" />
<path d="M64316 49622
L64372 49678
L64316 49734
L64259 49678
L64316 49622
L64316 49734
" />
<path d="M64316 49003
L64372 49059
L64316 49116
L64259 49059
L64316 49003
L64316 49116
" />
<path d="M53888 51050
L55148 52310
" />
<path d="M55148 51050
L53888 52310
" />
<path d="M56104 51034
L56835 51034
L56442 51484
L56610 51484
L56723 51540
L56779 51596
L56835 51709
L56835 51990
L56779 52102
L56723 52158
L56610 52215
L56273 52215
L56161 52158
L56104 52102
" />
<path d="M57342 52102
L57398 52158
L57342 52215
L57285 52158
L57342 52102
L57342 52215
" />
<path d="M57848 51146
L57904 51090
L58017 51034
L58298 51034
L58410 51090
L58466 51146
L58523 51259
L58523 51371
L58466 51540
L57792 52215
L58523 52215
" />
<path d="M59254 51034
L59366 51034
L59479 51090
L59535 51146
L59591 51259
L59648 51484
L59648 51765
L59591 51990
L59535 52102
L59479 52158
L59366 52215
L59254 52215
L59141 52158
L59085 52102
L59029 51990
L58973 51765
L58973 51484
L59029 51259
L59085 51146
L59141 51090
L59254 51034
" />
<path d="M60154 52215
L60154 51427
" />
<path d="M60154 51540
L60210 51484
L60322 51427
L60491 51427
L60604 51484
L60660 51596
L60660 52215
" />
<path d="M60660 51596
L60716 51484
L60829 51427
L60997 51427
L61110 51484
L61166 51596
L61166 52215
" />
<path d="M61729 52215
L61729 51427
" />
<path d="M61729 51540
L61785 51484
L61897 51427
L62066 51427
L62179 51484
L62235 51596
L62235 52215
" />
<path d="M62235 51596
L62291 51484
L62403 51427
L62572 51427
L62685 51484
L62741 51596
L62741 52215
" />
<path d="M65047 50977
L64035 52496
" />
<path d="M66565 51034
L66678 51034
L66790 51090
L66847 51146
L66903 51259
L66959 51484
L66959 51765
L66903 51990
L66847 52102
L66790 52158
L66678 52215
L66565 52215
L66453 52158
L66397 52102
L66340 51990
L66284 51765
L66284 51484
L66340 51259
L66397 51146
L66453 51090
L66565 51034
" />
<path d="M67465 52102
L67522 52158
L67465 52215
L67409 52158
L67465 52102
L67465 52215
" />
<path d="M68646 52215
L67972 52215
" />
<path d="M68309 52215
L68309 51034
L68196 51202
L68084 51315
L67972 51371
" />
<path d="M69096 51146
L69153 51090
L69265 51034
L69546 51034
L69659 51090
L69715 51146
L69771 51259
L69771 51371
L69715 51540
L69040 52215
L69771 52215
" />
<path d="M70784 51034
L70559 51034
L70446 51090
L70390 51146
L70277 51315
L70221 51540
L70221 51990
L70277 52102
L70334 52158
L70446 52215
L70671 52215
L70784 52158
L70840 52102
L70896 51990
L70896 51709
L70840 51596
L70784 51540
L70671 51484
L70446 51484
L70334 51540
L70277 51596
L70221 51709
" />
<path d="M71346 51034
L71346 51259
" />
<path d="M71796 51034
L71796 51259
" />
<path d="M73540 52665
L73483 52608
L73371 52440
L73315 52327
L73258 52158
L73202 51877
L73202 51652
L73258 51371
L73315 51202
L73371 51090
L73483 50921
L73540 50865
" />
<path d="M73877 51034
L74608 51034
L74214 51484
L74383 51484
L74496 51540
L74552 51596
L74608 51709
L74608 51990
L74552 52102
L74496 52158
L74383 52215
L74046 52215
L73933 52158
L73877 52102
" />
<path d="M76014 52215
L76014 51034
" />
<path d="M76520 52215
L76520 51596
L76464 51484
L76352 51427
L76183 51427
L76071 51484
L76014 51540
" />
<path d="M77252 52215
L77139 52158
L77083 52102
L77027 51990
L77027 51652
L77083 51540
L77139 51484
L77252 51427
L77420 51427
L77533 51484
L77589 51540
L77645 51652
L77645 51990
L77589 52102
L77533 52158
L77420 52215
L77252 52215
" />
<path d="M78320 52215
L78208 52158
L78152 52046
L78152 51034
" />
<path d="M79220 52158
L79108 52215
L78883 52215
L78770 52158
L78714 52046
L78714 51596
L78770 51484
L78883 51427
L79108 51427
L79220 51484
L79276 51596
L79276 51709
L78714 51821
" />
<path d="M79726 52158
L79839 52215
L80064 52215
L80176 52158
L80232 52046
L80232 51990
L80176 51877
L80064 51821
L79895 51821
L79783 51765
L79726 51652
L79726 51596
L79783 51484
L79895 51427
L80064 51427
L80176 51484
" />
<path d="M80626 52665
L80682 52608
L80795 52440
L80851 52327
L80907 52158
L80964 51877
L80964 51652
L80907 51371
L80851 51202
L80795 51090
L80682 50921
L80626 50865
" />
<path d="M82763 52665
L82707 52608
L82595 52440
L82538 52327
L82482 52158
L82426 51877
L82426 51652
L82482 51371
L82538 51202
L82595 51090
L82707 50921
L82763 50865
" />
<path d="M83213 51427
L83213 52215
" />
<path d="M83213 51540
L83270 51484
L83382 51427
L83551 51427
L83663 51484
L83720 51596
L83720 52215
" />
<path d="M84451 52215
L84338 52158
L84282 52102
L84226 51990
L84226 51652
L84282 51540
L84338 51484
L84451 51427
L84619 51427
L84732 51484
L84788 51540
L84844 51652
L84844 51990
L84788 52102
L84732 52158
L84619 52215
L84451 52215
" />
<path d="M85182 51427
L85632 51427
" />
<path d="M85351 51034
L85351 52046
L85407 52158
L85519 52215
L85632 52215
" />
<path d="M86925 51427
L86925 52608
" />
<path d="M86925 51484
L87038 51427
L87263 51427
L87375 51484
L87432 51540
L87488 51652
L87488 51990
L87432 52102
L87375 52158
L87263 52215
L87038 52215
L86925 52158
" />
<path d="M88163 52215
L88050 52158
L87994 52046
L87994 51034
" />
<path d="M89119 52215
L89119 51596
L89063 51484
L88950 51427
L88725 51427
L88613 51484
" />
<path d="M89119 52158
L89006 52215
L88725 52215
L88613 52158
L88556 52046
L88556 51933
L88613 51821
L88725 51765
L89006 51765
L89119 51709
" />
<path d="M89513 51427
L89963 51427
" />
<path d="M89681 51034
L89681 52046
L89738 52158
L89850 52215
L89963 52215
" />
<path d="M90806 52158
L90694 52215
L90469 52215
L90356 52158
L90300 52046
L90300 51596
L90356 51484
L90469 51427
L90694 51427
L90806 51484
L90862 51596
L90862 51709
L90300 51821
" />
<path d="M91875 52215
L91875 51034
" />
<path d="M91875 52158
L91762 52215
L91537 52215
L91425 52158
L91369 52102
L91312 51990
L91312 51652
L91369 51540
L91425 51484
L91537 51427
L91762 51427
L91875 51484
" />
<path d="M92325 52665
L92381 52608
L92493 52440
L92550 52327
L92606 52158
L92662 51877
L92662 51652
L92606 51371
L92550 51202
L92493 51090
L92381 50921
L92325 50865
" />
</g> 
</svg>
