G04 #@! TF.FileFunction,Soldermask,Bot*
%FSLAX46Y46*%
G04 Gerber Fmt 4.6, Leading zero omitted, Abs format (unit mm)*
G04 Created by KiCad (PCBNEW 4.0.7) date 08/07/18 09:05:40*
%MOMM*%
%LPD*%
G01*
G04 APERTURE LIST*
%ADD10C,0.100000*%
%ADD11R,3.000000X3.000000*%
%ADD12O,3.000000X3.000000*%
%ADD13R,2.000000X2.000000*%
%ADD14C,2.000000*%
%ADD15O,2.000000X2.000000*%
%ADD16C,2.750000*%
%ADD17R,2.200000X2.200000*%
%ADD18C,2.200000*%
%ADD19R,2.100000X2.100000*%
%ADD20O,2.100000X2.100000*%
%ADD21C,2.600000*%
G04 APERTURE END LIST*
D10*
D11*
X164770000Y-86044000D03*
D12*
X148895000Y-86044000D03*
D13*
X161000000Y-90460000D03*
D14*
X158000000Y-90460000D03*
X155000000Y-90460000D03*
X161000000Y-95540000D03*
X158000000Y-95540000D03*
X155000000Y-95540000D03*
X131000000Y-93000000D03*
D15*
X120840000Y-93000000D03*
D16*
X142752000Y-91044000D03*
X142752000Y-85964000D03*
X142752000Y-101284000D03*
X142752000Y-106364000D03*
X140212000Y-88504000D03*
X145292000Y-88504000D03*
X140212000Y-103824000D03*
X145292000Y-103824000D03*
X184960000Y-98080000D03*
X184960000Y-87920000D03*
X172260000Y-98160000D03*
X174800000Y-93000000D03*
X172260000Y-87920000D03*
X174800000Y-100700000D03*
X169720000Y-100700000D03*
X174800000Y-85380000D03*
X169720000Y-85380000D03*
D17*
X135000000Y-93700000D03*
D18*
X135000000Y-96240000D03*
D19*
X162000000Y-100000000D03*
D20*
X159460000Y-100000000D03*
X156920000Y-100000000D03*
D19*
X124500000Y-103000000D03*
D20*
X121960000Y-103000000D03*
X119420000Y-103000000D03*
X116880000Y-103000000D03*
X114340000Y-103000000D03*
D19*
X112000000Y-90000000D03*
D20*
X112000000Y-87460000D03*
X112000000Y-84920000D03*
X112000000Y-82380000D03*
D21*
X186000000Y-107000000D03*
X115000000Y-74000000D03*
X109000000Y-101000000D03*
M02*
