G04 #@! TF.FileFunction,Paste,Bot*
%FSLAX46Y46*%
G04 Gerber Fmt 4.6, Leading zero omitted, Abs format (unit mm)*
G04 Created by KiCad (PCBNEW 4.0.7) date 12/18/17 16:59:21*
%MOMM*%
%LPD*%
G01*
G04 APERTURE LIST*
%ADD10C,0.100000*%
%ADD11C,0.150000*%
G04 APERTURE END LIST*
D10*
D11*
X100000000Y-115000000D02*
X100000000Y-70000000D01*
X130000000Y-115000000D02*
X100000000Y-115000000D01*
X94046666Y-125160000D02*
G75*
G03X94046666Y-125160000I-1666666J0D01*
G01*
X89880000Y-125160000D02*
X94880000Y-125160000D01*
X92380000Y-122660000D02*
X92380000Y-127660000D01*
X200806666Y-64200000D02*
G75*
G03X200806666Y-64200000I-1666666J0D01*
G01*
X196640000Y-64200000D02*
X201640000Y-64200000D01*
X199140000Y-61700000D02*
X199140000Y-66700000D01*
X94046666Y-64200000D02*
G75*
G03X94046666Y-64200000I-1666666J0D01*
G01*
X89880000Y-64200000D02*
X94880000Y-64200000D01*
X92380000Y-61700000D02*
X92380000Y-66700000D01*
X120000000Y-70000000D02*
X100000000Y-70000000D01*
X120000000Y-80000000D02*
X120000000Y-70000000D01*
X137500000Y-80000000D02*
X120000000Y-80000000D01*
X137500000Y-82500000D02*
X137500000Y-80000000D01*
X162500000Y-82500000D02*
X137500000Y-82500000D01*
X162500000Y-80000000D02*
X162500000Y-82500000D01*
X165000000Y-80000000D02*
X162500000Y-80000000D01*
X190000000Y-80000000D02*
X165000000Y-80000000D01*
X190000000Y-115000000D02*
X190000000Y-80000000D01*
X180000000Y-115000000D02*
X190000000Y-115000000D01*
X180000000Y-110000000D02*
X180000000Y-115000000D01*
X130000000Y-110000000D02*
X180000000Y-110000000D01*
X130000000Y-115000000D02*
X130000000Y-110000000D01*
M02*
