G04 #@! TF.FileFunction,Legend,Top*
%FSLAX46Y46*%
G04 Gerber Fmt 4.6, Leading zero omitted, Abs format (unit mm)*
G04 Created by KiCad (PCBNEW 4.0.7) date 12/15/18 16:00:28*
%MOMM*%
%LPD*%
G01*
G04 APERTURE LIST*
%ADD10C,0.100000*%
%ADD11C,0.120000*%
%ADD12C,0.150000*%
G04 APERTURE END LIST*
D10*
D11*
X183515000Y-99180000D02*
X188715000Y-99180000D01*
X188715000Y-99180000D02*
X188715000Y-96400000D01*
X188715000Y-96400000D02*
X183515000Y-96400000D01*
X183515000Y-96400000D02*
X183515000Y-99180000D01*
X182245000Y-99180000D02*
X180855000Y-99180000D01*
X180855000Y-99180000D02*
X180855000Y-97790000D01*
X166370000Y-99180000D02*
X171570000Y-99180000D01*
X171570000Y-99180000D02*
X171570000Y-96400000D01*
X171570000Y-96400000D02*
X166370000Y-96400000D01*
X166370000Y-96400000D02*
X166370000Y-99180000D01*
X165100000Y-99180000D02*
X163710000Y-99180000D01*
X163710000Y-99180000D02*
X163710000Y-97790000D01*
X158115000Y-102990000D02*
X163315000Y-102990000D01*
X163315000Y-102990000D02*
X163315000Y-100210000D01*
X163315000Y-100210000D02*
X158115000Y-100210000D01*
X158115000Y-100210000D02*
X158115000Y-102990000D01*
X156845000Y-102990000D02*
X155455000Y-102990000D01*
X155455000Y-102990000D02*
X155455000Y-101600000D01*
X158115000Y-99180000D02*
X163315000Y-99180000D01*
X163315000Y-99180000D02*
X163315000Y-96400000D01*
X163315000Y-96400000D02*
X158115000Y-96400000D01*
X158115000Y-96400000D02*
X158115000Y-99180000D01*
X156845000Y-99180000D02*
X155455000Y-99180000D01*
X155455000Y-99180000D02*
X155455000Y-97790000D01*
X147050000Y-72640000D02*
X145050000Y-72640000D01*
X145050000Y-74680000D02*
X147050000Y-74680000D01*
X152820000Y-104100000D02*
X154520000Y-104100000D01*
X154520000Y-104050000D02*
X154520000Y-100000000D01*
X152820000Y-104050000D02*
X152820000Y-100000000D01*
X145050000Y-72270000D02*
X143680000Y-72270000D01*
X143680000Y-72270000D02*
X143680000Y-108070000D01*
X143680000Y-108070000D02*
X148420000Y-108070000D01*
X148420000Y-108070000D02*
X148420000Y-72270000D01*
X148420000Y-72270000D02*
X147050000Y-72270000D01*
X147050000Y-72270000D02*
G75*
G02X145050000Y-72270000I-1000000J0D01*
G01*
X183515000Y-102990000D02*
X188715000Y-102990000D01*
X188715000Y-102990000D02*
X188715000Y-100210000D01*
X188715000Y-100210000D02*
X183515000Y-100210000D01*
X183515000Y-100210000D02*
X183515000Y-102990000D01*
X182245000Y-102990000D02*
X180855000Y-102990000D01*
X180855000Y-102990000D02*
X180855000Y-101600000D01*
X166370000Y-102990000D02*
X171570000Y-102990000D01*
X171570000Y-102990000D02*
X171570000Y-100210000D01*
X171570000Y-100210000D02*
X166370000Y-100210000D01*
X166370000Y-100210000D02*
X166370000Y-102990000D01*
X165100000Y-102990000D02*
X163710000Y-102990000D01*
X163710000Y-102990000D02*
X163710000Y-101600000D01*
X161925000Y-108070000D02*
X167125000Y-108070000D01*
X167125000Y-108070000D02*
X167125000Y-105290000D01*
X167125000Y-105290000D02*
X161925000Y-105290000D01*
X161925000Y-105290000D02*
X161925000Y-108070000D01*
X160655000Y-108070000D02*
X159265000Y-108070000D01*
X159265000Y-108070000D02*
X159265000Y-106680000D01*
X137160000Y-83820000D02*
X137160000Y-89027000D01*
X134500000Y-83820000D02*
X134500000Y-89020000D01*
X134500000Y-89020000D02*
X139820000Y-89020000D01*
X139820000Y-89020000D02*
X139820000Y-81160000D01*
X139820000Y-81160000D02*
X137160000Y-81160000D01*
X137160000Y-81160000D02*
X137160000Y-83820000D01*
X137160000Y-83820000D02*
X134500000Y-83820000D01*
X134500000Y-82550000D02*
X134500000Y-81160000D01*
X134500000Y-81160000D02*
X135890000Y-81160000D01*
X174879000Y-102870000D02*
X180086000Y-102870000D01*
X174879000Y-105530000D02*
X180079000Y-105530000D01*
X180079000Y-105530000D02*
X180079000Y-100210000D01*
X180079000Y-100210000D02*
X172219000Y-100210000D01*
X172219000Y-100210000D02*
X172219000Y-102870000D01*
X172219000Y-102870000D02*
X174879000Y-102870000D01*
X174879000Y-102870000D02*
X174879000Y-105530000D01*
X173609000Y-105530000D02*
X172219000Y-105530000D01*
X172219000Y-105530000D02*
X172219000Y-104140000D01*
X156575000Y-107750000D02*
X154575000Y-107750000D01*
X154575000Y-105610000D02*
X156575000Y-105610000D01*
X176800000Y-72270000D02*
X175430000Y-72270000D01*
X175430000Y-72270000D02*
X175430000Y-95370000D01*
X175430000Y-95370000D02*
X180170000Y-95370000D01*
X180170000Y-95370000D02*
X180170000Y-72270000D01*
X180170000Y-72270000D02*
X178800000Y-72270000D01*
X178800000Y-72270000D02*
G75*
G02X176800000Y-72270000I-1000000J0D01*
G01*
X156480000Y-72270000D02*
X155110000Y-72270000D01*
X155110000Y-72270000D02*
X155110000Y-95370000D01*
X155110000Y-95370000D02*
X159850000Y-95370000D01*
X159850000Y-95370000D02*
X159850000Y-72270000D01*
X159850000Y-72270000D02*
X158480000Y-72270000D01*
X158480000Y-72270000D02*
G75*
G02X156480000Y-72270000I-1000000J0D01*
G01*
D10*
X135890000Y-97790000D02*
X135890000Y-92710000D01*
X138430000Y-97790000D02*
X138430000Y-92710000D01*
X137160000Y-99060000D02*
G75*
G03X138430000Y-97790000I0J1270000D01*
G01*
X135890000Y-97790000D02*
G75*
G03X137160000Y-99060000I1270000J0D01*
G01*
X137160000Y-91440000D02*
G75*
G03X135890000Y-92710000I0J-1270000D01*
G01*
X138430000Y-92710000D02*
G75*
G03X137160000Y-91440000I-1270000J0D01*
G01*
X184023000Y-90805000D02*
X184023000Y-93091000D01*
X184023000Y-93091000D02*
X186817000Y-93091000D01*
X186817000Y-93091000D02*
X186817000Y-90805000D01*
X184023000Y-90805000D02*
X184023000Y-74930000D01*
X186817000Y-90805000D02*
X186817000Y-72263000D01*
D11*
X186810000Y-74930000D02*
X184030000Y-74930000D01*
X184030000Y-73660000D02*
X184030000Y-72270000D01*
X184030000Y-72270000D02*
X185420000Y-72270000D01*
D10*
X186563000Y-90805000D02*
X186563000Y-93091000D01*
X186563000Y-93091000D02*
X189357000Y-93091000D01*
X189357000Y-93091000D02*
X189357000Y-90805000D01*
X186563000Y-90805000D02*
X186563000Y-74930000D01*
X189357000Y-90805000D02*
X189357000Y-72263000D01*
D11*
X189350000Y-74930000D02*
X186570000Y-74930000D01*
X186570000Y-73660000D02*
X186570000Y-72270000D01*
X186570000Y-72270000D02*
X187960000Y-72270000D01*
D10*
X163703000Y-90805000D02*
X163703000Y-93091000D01*
X163703000Y-93091000D02*
X166497000Y-93091000D01*
X166497000Y-93091000D02*
X166497000Y-90805000D01*
X163703000Y-90805000D02*
X163703000Y-74930000D01*
X166497000Y-90805000D02*
X166497000Y-72263000D01*
D11*
X166490000Y-74930000D02*
X163710000Y-74930000D01*
X163710000Y-73660000D02*
X163710000Y-72270000D01*
X163710000Y-72270000D02*
X165100000Y-72270000D01*
D10*
X166243000Y-90805000D02*
X166243000Y-93091000D01*
X166243000Y-93091000D02*
X169037000Y-93091000D01*
X169037000Y-93091000D02*
X169037000Y-90805000D01*
X166243000Y-90805000D02*
X166243000Y-74930000D01*
X169037000Y-90805000D02*
X169037000Y-72263000D01*
D11*
X169030000Y-74930000D02*
X166250000Y-74930000D01*
X166250000Y-73660000D02*
X166250000Y-72270000D01*
X166250000Y-72270000D02*
X167640000Y-72270000D01*
D10*
X168783000Y-90805000D02*
X168783000Y-93091000D01*
X168783000Y-93091000D02*
X171577000Y-93091000D01*
X171577000Y-93091000D02*
X171577000Y-90805000D01*
X168783000Y-90805000D02*
X168783000Y-74930000D01*
X171577000Y-90805000D02*
X171577000Y-72263000D01*
D11*
X171570000Y-74930000D02*
X168790000Y-74930000D01*
X168790000Y-73660000D02*
X168790000Y-72270000D01*
X168790000Y-72270000D02*
X170180000Y-72270000D01*
D12*
X190190381Y-99004286D02*
X189190381Y-99004286D01*
X189190381Y-98623333D01*
X189238000Y-98528095D01*
X189285619Y-98480476D01*
X189380857Y-98432857D01*
X189523714Y-98432857D01*
X189618952Y-98480476D01*
X189666571Y-98528095D01*
X189714190Y-98623333D01*
X189714190Y-99004286D01*
X190190381Y-97480476D02*
X190190381Y-98051905D01*
X190190381Y-97766191D02*
X189190381Y-97766191D01*
X189333238Y-97861429D01*
X189428476Y-97956667D01*
X189476095Y-98051905D01*
X189190381Y-97147143D02*
X189190381Y-96528095D01*
X189571333Y-96861429D01*
X189571333Y-96718571D01*
X189618952Y-96623333D01*
X189666571Y-96575714D01*
X189761810Y-96528095D01*
X189999905Y-96528095D01*
X190095143Y-96575714D01*
X190142762Y-96623333D01*
X190190381Y-96718571D01*
X190190381Y-97004286D01*
X190142762Y-97099524D01*
X190095143Y-97147143D01*
X173045381Y-99004286D02*
X172045381Y-99004286D01*
X172045381Y-98623333D01*
X172093000Y-98528095D01*
X172140619Y-98480476D01*
X172235857Y-98432857D01*
X172378714Y-98432857D01*
X172473952Y-98480476D01*
X172521571Y-98528095D01*
X172569190Y-98623333D01*
X172569190Y-99004286D01*
X173045381Y-97480476D02*
X173045381Y-98051905D01*
X173045381Y-97766191D02*
X172045381Y-97766191D01*
X172188238Y-97861429D01*
X172283476Y-97956667D01*
X172331095Y-98051905D01*
X172378714Y-96623333D02*
X173045381Y-96623333D01*
X171997762Y-96861429D02*
X172712048Y-97099524D01*
X172712048Y-96480476D01*
X158297714Y-104338381D02*
X158297714Y-103338381D01*
X158678667Y-103338381D01*
X158773905Y-103386000D01*
X158821524Y-103433619D01*
X158869143Y-103528857D01*
X158869143Y-103671714D01*
X158821524Y-103766952D01*
X158773905Y-103814571D01*
X158678667Y-103862190D01*
X158297714Y-103862190D01*
X159821524Y-104338381D02*
X159250095Y-104338381D01*
X159535809Y-104338381D02*
X159535809Y-103338381D01*
X159440571Y-103481238D01*
X159345333Y-103576476D01*
X159250095Y-103624095D01*
X160202476Y-103433619D02*
X160250095Y-103386000D01*
X160345333Y-103338381D01*
X160583429Y-103338381D01*
X160678667Y-103386000D01*
X160726286Y-103433619D01*
X160773905Y-103528857D01*
X160773905Y-103624095D01*
X160726286Y-103766952D01*
X160154857Y-104338381D01*
X160773905Y-104338381D01*
X136183810Y-108005571D02*
X135850476Y-108005571D01*
X135850476Y-108529381D02*
X135850476Y-107529381D01*
X136326667Y-107529381D01*
X136707619Y-108529381D02*
X136707619Y-107862714D01*
X136707619Y-107529381D02*
X136660000Y-107577000D01*
X136707619Y-107624619D01*
X136755238Y-107577000D01*
X136707619Y-107529381D01*
X136707619Y-107624619D01*
X137088571Y-108529381D02*
X137612381Y-107862714D01*
X137088571Y-107862714D02*
X137612381Y-108529381D01*
X138517143Y-108529381D02*
X137945714Y-108529381D01*
X138231428Y-108529381D02*
X138231428Y-107529381D01*
X138136190Y-107672238D01*
X138040952Y-107767476D01*
X137945714Y-107815095D01*
X136310810Y-73588571D02*
X135977476Y-73588571D01*
X135977476Y-74112381D02*
X135977476Y-73112381D01*
X136453667Y-73112381D01*
X136834619Y-74112381D02*
X136834619Y-73445714D01*
X136834619Y-73112381D02*
X136787000Y-73160000D01*
X136834619Y-73207619D01*
X136882238Y-73160000D01*
X136834619Y-73112381D01*
X136834619Y-73207619D01*
X137215571Y-74112381D02*
X137739381Y-73445714D01*
X137215571Y-73445714D02*
X137739381Y-74112381D01*
X138644143Y-74112381D02*
X138072714Y-74112381D01*
X138358428Y-74112381D02*
X138358428Y-73112381D01*
X138263190Y-73255238D01*
X138167952Y-73350476D01*
X138072714Y-73398095D01*
X192063810Y-73588571D02*
X191730476Y-73588571D01*
X191730476Y-74112381D02*
X191730476Y-73112381D01*
X192206667Y-73112381D01*
X192587619Y-74112381D02*
X192587619Y-73445714D01*
X192587619Y-73112381D02*
X192540000Y-73160000D01*
X192587619Y-73207619D01*
X192635238Y-73160000D01*
X192587619Y-73112381D01*
X192587619Y-73207619D01*
X192968571Y-74112381D02*
X193492381Y-73445714D01*
X192968571Y-73445714D02*
X193492381Y-74112381D01*
X194397143Y-74112381D02*
X193825714Y-74112381D01*
X194111428Y-74112381D02*
X194111428Y-73112381D01*
X194016190Y-73255238D01*
X193920952Y-73350476D01*
X193825714Y-73398095D01*
X155011381Y-98877286D02*
X154011381Y-98877286D01*
X154011381Y-98496333D01*
X154059000Y-98401095D01*
X154106619Y-98353476D01*
X154201857Y-98305857D01*
X154344714Y-98305857D01*
X154439952Y-98353476D01*
X154487571Y-98401095D01*
X154535190Y-98496333D01*
X154535190Y-98877286D01*
X155011381Y-97353476D02*
X155011381Y-97924905D01*
X155011381Y-97639191D02*
X154011381Y-97639191D01*
X154154238Y-97734429D01*
X154249476Y-97829667D01*
X154297095Y-97924905D01*
X154011381Y-96448714D02*
X154011381Y-96924905D01*
X154487571Y-96972524D01*
X154439952Y-96924905D01*
X154392333Y-96829667D01*
X154392333Y-96591571D01*
X154439952Y-96496333D01*
X154487571Y-96448714D01*
X154582810Y-96401095D01*
X154820905Y-96401095D01*
X154916143Y-96448714D01*
X154963762Y-96496333D01*
X155011381Y-96591571D01*
X155011381Y-96829667D01*
X154963762Y-96924905D01*
X154916143Y-96972524D01*
X192063810Y-108259571D02*
X191730476Y-108259571D01*
X191730476Y-108783381D02*
X191730476Y-107783381D01*
X192206667Y-107783381D01*
X192587619Y-108783381D02*
X192587619Y-108116714D01*
X192587619Y-107783381D02*
X192540000Y-107831000D01*
X192587619Y-107878619D01*
X192635238Y-107831000D01*
X192587619Y-107783381D01*
X192587619Y-107878619D01*
X192968571Y-108783381D02*
X193492381Y-108116714D01*
X192968571Y-108116714D02*
X193492381Y-108783381D01*
X194397143Y-108783381D02*
X193825714Y-108783381D01*
X194111428Y-108783381D02*
X194111428Y-107783381D01*
X194016190Y-107926238D01*
X193920952Y-108021476D01*
X193825714Y-108069095D01*
X145883334Y-75795143D02*
X145835715Y-75842762D01*
X145692858Y-75890381D01*
X145597620Y-75890381D01*
X145454762Y-75842762D01*
X145359524Y-75747524D01*
X145311905Y-75652286D01*
X145264286Y-75461810D01*
X145264286Y-75318952D01*
X145311905Y-75128476D01*
X145359524Y-75033238D01*
X145454762Y-74938000D01*
X145597620Y-74890381D01*
X145692858Y-74890381D01*
X145835715Y-74938000D01*
X145883334Y-74985619D01*
X146788096Y-74890381D02*
X146311905Y-74890381D01*
X146264286Y-75366571D01*
X146311905Y-75318952D01*
X146407143Y-75271333D01*
X146645239Y-75271333D01*
X146740477Y-75318952D01*
X146788096Y-75366571D01*
X146835715Y-75461810D01*
X146835715Y-75699905D01*
X146788096Y-75795143D01*
X146740477Y-75842762D01*
X146645239Y-75890381D01*
X146407143Y-75890381D01*
X146311905Y-75842762D01*
X146264286Y-75795143D01*
X152522381Y-102338095D02*
X151522381Y-102338095D01*
X151522381Y-102100000D01*
X151570000Y-101957142D01*
X151665238Y-101861904D01*
X151760476Y-101814285D01*
X151950952Y-101766666D01*
X152093810Y-101766666D01*
X152284286Y-101814285D01*
X152379524Y-101861904D01*
X152474762Y-101957142D01*
X152522381Y-102100000D01*
X152522381Y-102338095D01*
X152522381Y-100814285D02*
X152522381Y-101385714D01*
X152522381Y-101100000D02*
X151522381Y-101100000D01*
X151665238Y-101195238D01*
X151760476Y-101290476D01*
X151808095Y-101385714D01*
X145073810Y-71722381D02*
X145073810Y-70722381D01*
X146121429Y-71627143D02*
X146073810Y-71674762D01*
X145930953Y-71722381D01*
X145835715Y-71722381D01*
X145692857Y-71674762D01*
X145597619Y-71579524D01*
X145550000Y-71484286D01*
X145502381Y-71293810D01*
X145502381Y-71150952D01*
X145550000Y-70960476D01*
X145597619Y-70865238D01*
X145692857Y-70770000D01*
X145835715Y-70722381D01*
X145930953Y-70722381D01*
X146073810Y-70770000D01*
X146121429Y-70817619D01*
X147073810Y-71722381D02*
X146502381Y-71722381D01*
X146788095Y-71722381D02*
X146788095Y-70722381D01*
X146692857Y-70865238D01*
X146597619Y-70960476D01*
X146502381Y-71008095D01*
X184300905Y-104338381D02*
X184300905Y-103338381D01*
X184681858Y-103338381D01*
X184777096Y-103386000D01*
X184824715Y-103433619D01*
X184872334Y-103528857D01*
X184872334Y-103671714D01*
X184824715Y-103766952D01*
X184777096Y-103814571D01*
X184681858Y-103862190D01*
X184300905Y-103862190D01*
X185205667Y-103338381D02*
X185824715Y-103338381D01*
X185491381Y-103719333D01*
X185634239Y-103719333D01*
X185729477Y-103766952D01*
X185777096Y-103814571D01*
X185824715Y-103909810D01*
X185824715Y-104147905D01*
X185777096Y-104243143D01*
X185729477Y-104290762D01*
X185634239Y-104338381D01*
X185348524Y-104338381D01*
X185253286Y-104290762D01*
X185205667Y-104243143D01*
X167409905Y-104338381D02*
X167409905Y-103338381D01*
X167790858Y-103338381D01*
X167886096Y-103386000D01*
X167933715Y-103433619D01*
X167981334Y-103528857D01*
X167981334Y-103671714D01*
X167933715Y-103766952D01*
X167886096Y-103814571D01*
X167790858Y-103862190D01*
X167409905Y-103862190D01*
X168838477Y-103338381D02*
X168648000Y-103338381D01*
X168552762Y-103386000D01*
X168505143Y-103433619D01*
X168409905Y-103576476D01*
X168362286Y-103766952D01*
X168362286Y-104147905D01*
X168409905Y-104243143D01*
X168457524Y-104290762D01*
X168552762Y-104338381D01*
X168743239Y-104338381D01*
X168838477Y-104290762D01*
X168886096Y-104243143D01*
X168933715Y-104147905D01*
X168933715Y-103909810D01*
X168886096Y-103814571D01*
X168838477Y-103766952D01*
X168743239Y-103719333D01*
X168552762Y-103719333D01*
X168457524Y-103766952D01*
X168409905Y-103814571D01*
X168362286Y-103909810D01*
X171981905Y-110180381D02*
X171981905Y-109180381D01*
X172362858Y-109180381D01*
X172458096Y-109228000D01*
X172505715Y-109275619D01*
X172553334Y-109370857D01*
X172553334Y-109513714D01*
X172505715Y-109608952D01*
X172458096Y-109656571D01*
X172362858Y-109704190D01*
X171981905Y-109704190D01*
X172886667Y-109180381D02*
X173553334Y-109180381D01*
X173124762Y-110180381D01*
X162583905Y-109418381D02*
X162583905Y-108418381D01*
X162964858Y-108418381D01*
X163060096Y-108466000D01*
X163107715Y-108513619D01*
X163155334Y-108608857D01*
X163155334Y-108751714D01*
X163107715Y-108846952D01*
X163060096Y-108894571D01*
X162964858Y-108942190D01*
X162583905Y-108942190D01*
X163726762Y-108846952D02*
X163631524Y-108799333D01*
X163583905Y-108751714D01*
X163536286Y-108656476D01*
X163536286Y-108608857D01*
X163583905Y-108513619D01*
X163631524Y-108466000D01*
X163726762Y-108418381D01*
X163917239Y-108418381D01*
X164012477Y-108466000D01*
X164060096Y-108513619D01*
X164107715Y-108608857D01*
X164107715Y-108656476D01*
X164060096Y-108751714D01*
X164012477Y-108799333D01*
X163917239Y-108846952D01*
X163726762Y-108846952D01*
X163631524Y-108894571D01*
X163583905Y-108942190D01*
X163536286Y-109037429D01*
X163536286Y-109227905D01*
X163583905Y-109323143D01*
X163631524Y-109370762D01*
X163726762Y-109418381D01*
X163917239Y-109418381D01*
X164012477Y-109370762D01*
X164060096Y-109323143D01*
X164107715Y-109227905D01*
X164107715Y-109037429D01*
X164060096Y-108942190D01*
X164012477Y-108894571D01*
X163917239Y-108846952D01*
X135945714Y-80716381D02*
X135945714Y-79716381D01*
X136326667Y-79716381D01*
X136421905Y-79764000D01*
X136469524Y-79811619D01*
X136517143Y-79906857D01*
X136517143Y-80049714D01*
X136469524Y-80144952D01*
X136421905Y-80192571D01*
X136326667Y-80240190D01*
X135945714Y-80240190D01*
X137469524Y-80716381D02*
X136898095Y-80716381D01*
X137183809Y-80716381D02*
X137183809Y-79716381D01*
X137088571Y-79859238D01*
X136993333Y-79954476D01*
X136898095Y-80002095D01*
X138088571Y-79716381D02*
X138183810Y-79716381D01*
X138279048Y-79764000D01*
X138326667Y-79811619D01*
X138374286Y-79906857D01*
X138421905Y-80097333D01*
X138421905Y-80335429D01*
X138374286Y-80525905D01*
X138326667Y-80621143D01*
X138279048Y-80668762D01*
X138183810Y-80716381D01*
X138088571Y-80716381D01*
X137993333Y-80668762D01*
X137945714Y-80621143D01*
X137898095Y-80525905D01*
X137850476Y-80335429D01*
X137850476Y-80097333D01*
X137898095Y-79906857D01*
X137945714Y-79811619D01*
X137993333Y-79764000D01*
X138088571Y-79716381D01*
X175188714Y-99766381D02*
X175188714Y-98766381D01*
X175569667Y-98766381D01*
X175664905Y-98814000D01*
X175712524Y-98861619D01*
X175760143Y-98956857D01*
X175760143Y-99099714D01*
X175712524Y-99194952D01*
X175664905Y-99242571D01*
X175569667Y-99290190D01*
X175188714Y-99290190D01*
X176712524Y-99766381D02*
X176141095Y-99766381D01*
X176426809Y-99766381D02*
X176426809Y-98766381D01*
X176331571Y-98909238D01*
X176236333Y-99004476D01*
X176141095Y-99052095D01*
X177664905Y-99766381D02*
X177093476Y-99766381D01*
X177379190Y-99766381D02*
X177379190Y-98766381D01*
X177283952Y-98909238D01*
X177188714Y-99004476D01*
X177093476Y-99052095D01*
X195524381Y-99512286D02*
X194524381Y-99512286D01*
X194524381Y-99131333D01*
X194572000Y-99036095D01*
X194619619Y-98988476D01*
X194714857Y-98940857D01*
X194857714Y-98940857D01*
X194952952Y-98988476D01*
X195000571Y-99036095D01*
X195048190Y-99131333D01*
X195048190Y-99512286D01*
X195524381Y-97988476D02*
X195524381Y-98559905D01*
X195524381Y-98274191D02*
X194524381Y-98274191D01*
X194667238Y-98369429D01*
X194762476Y-98464667D01*
X194810095Y-98559905D01*
X194524381Y-97131333D02*
X194524381Y-97321810D01*
X194572000Y-97417048D01*
X194619619Y-97464667D01*
X194762476Y-97559905D01*
X194952952Y-97607524D01*
X195333905Y-97607524D01*
X195429143Y-97559905D01*
X195476762Y-97512286D01*
X195524381Y-97417048D01*
X195524381Y-97226571D01*
X195476762Y-97131333D01*
X195429143Y-97083714D01*
X195333905Y-97036095D01*
X195095810Y-97036095D01*
X195000571Y-97083714D01*
X194952952Y-97131333D01*
X194905333Y-97226571D01*
X194905333Y-97417048D01*
X194952952Y-97512286D01*
X195000571Y-97559905D01*
X195095810Y-97607524D01*
X182935714Y-110307381D02*
X182935714Y-109307381D01*
X183316667Y-109307381D01*
X183411905Y-109355000D01*
X183459524Y-109402619D01*
X183507143Y-109497857D01*
X183507143Y-109640714D01*
X183459524Y-109735952D01*
X183411905Y-109783571D01*
X183316667Y-109831190D01*
X182935714Y-109831190D01*
X184459524Y-110307381D02*
X183888095Y-110307381D01*
X184173809Y-110307381D02*
X184173809Y-109307381D01*
X184078571Y-109450238D01*
X183983333Y-109545476D01*
X183888095Y-109593095D01*
X184792857Y-109307381D02*
X185459524Y-109307381D01*
X185030952Y-110307381D01*
X154932143Y-105282381D02*
X154598809Y-104806190D01*
X154360714Y-105282381D02*
X154360714Y-104282381D01*
X154741667Y-104282381D01*
X154836905Y-104330000D01*
X154884524Y-104377619D01*
X154932143Y-104472857D01*
X154932143Y-104615714D01*
X154884524Y-104710952D01*
X154836905Y-104758571D01*
X154741667Y-104806190D01*
X154360714Y-104806190D01*
X155884524Y-105282381D02*
X155313095Y-105282381D01*
X155598809Y-105282381D02*
X155598809Y-104282381D01*
X155503571Y-104425238D01*
X155408333Y-104520476D01*
X155313095Y-104568095D01*
X156836905Y-105282381D02*
X156265476Y-105282381D01*
X156551190Y-105282381D02*
X156551190Y-104282381D01*
X156455952Y-104425238D01*
X156360714Y-104520476D01*
X156265476Y-104568095D01*
X177038095Y-70722381D02*
X177038095Y-71531905D01*
X177085714Y-71627143D01*
X177133333Y-71674762D01*
X177228571Y-71722381D01*
X177419048Y-71722381D01*
X177514286Y-71674762D01*
X177561905Y-71627143D01*
X177609524Y-71531905D01*
X177609524Y-70722381D01*
X178609524Y-71722381D02*
X178038095Y-71722381D01*
X178323809Y-71722381D02*
X178323809Y-70722381D01*
X178228571Y-70865238D01*
X178133333Y-70960476D01*
X178038095Y-71008095D01*
X156718095Y-70722381D02*
X156718095Y-71531905D01*
X156765714Y-71627143D01*
X156813333Y-71674762D01*
X156908571Y-71722381D01*
X157099048Y-71722381D01*
X157194286Y-71674762D01*
X157241905Y-71627143D01*
X157289524Y-71531905D01*
X157289524Y-70722381D01*
X157718095Y-70817619D02*
X157765714Y-70770000D01*
X157860952Y-70722381D01*
X158099048Y-70722381D01*
X158194286Y-70770000D01*
X158241905Y-70817619D01*
X158289524Y-70912857D01*
X158289524Y-71008095D01*
X158241905Y-71150952D01*
X157670476Y-71722381D01*
X158289524Y-71722381D01*
X134453381Y-95932524D02*
X135453381Y-95265857D01*
X134453381Y-95265857D02*
X135453381Y-95932524D01*
X135453381Y-94361095D02*
X135453381Y-94932524D01*
X135453381Y-94646810D02*
X134453381Y-94646810D01*
X134596238Y-94742048D01*
X134691476Y-94837286D01*
X134739095Y-94932524D01*
X184808905Y-72334381D02*
X184808905Y-71334381D01*
X185189858Y-71334381D01*
X185285096Y-71382000D01*
X185332715Y-71429619D01*
X185380334Y-71524857D01*
X185380334Y-71667714D01*
X185332715Y-71762952D01*
X185285096Y-71810571D01*
X185189858Y-71858190D01*
X184808905Y-71858190D01*
X186332715Y-72334381D02*
X185761286Y-72334381D01*
X186047000Y-72334381D02*
X186047000Y-71334381D01*
X185951762Y-71477238D01*
X185856524Y-71572476D01*
X185761286Y-71620095D01*
X187221905Y-72334381D02*
X187221905Y-71334381D01*
X187602858Y-71334381D01*
X187698096Y-71382000D01*
X187745715Y-71429619D01*
X187793334Y-71524857D01*
X187793334Y-71667714D01*
X187745715Y-71762952D01*
X187698096Y-71810571D01*
X187602858Y-71858190D01*
X187221905Y-71858190D01*
X188174286Y-71429619D02*
X188221905Y-71382000D01*
X188317143Y-71334381D01*
X188555239Y-71334381D01*
X188650477Y-71382000D01*
X188698096Y-71429619D01*
X188745715Y-71524857D01*
X188745715Y-71620095D01*
X188698096Y-71762952D01*
X188126667Y-72334381D01*
X188745715Y-72334381D01*
X164361905Y-72334381D02*
X164361905Y-71334381D01*
X164742858Y-71334381D01*
X164838096Y-71382000D01*
X164885715Y-71429619D01*
X164933334Y-71524857D01*
X164933334Y-71667714D01*
X164885715Y-71762952D01*
X164838096Y-71810571D01*
X164742858Y-71858190D01*
X164361905Y-71858190D01*
X165790477Y-71667714D02*
X165790477Y-72334381D01*
X165552381Y-71286762D02*
X165314286Y-72001048D01*
X165933334Y-72001048D01*
X166901905Y-72334381D02*
X166901905Y-71334381D01*
X167282858Y-71334381D01*
X167378096Y-71382000D01*
X167425715Y-71429619D01*
X167473334Y-71524857D01*
X167473334Y-71667714D01*
X167425715Y-71762952D01*
X167378096Y-71810571D01*
X167282858Y-71858190D01*
X166901905Y-71858190D01*
X168378096Y-71334381D02*
X167901905Y-71334381D01*
X167854286Y-71810571D01*
X167901905Y-71762952D01*
X167997143Y-71715333D01*
X168235239Y-71715333D01*
X168330477Y-71762952D01*
X168378096Y-71810571D01*
X168425715Y-71905810D01*
X168425715Y-72143905D01*
X168378096Y-72239143D01*
X168330477Y-72286762D01*
X168235239Y-72334381D01*
X167997143Y-72334381D01*
X167901905Y-72286762D01*
X167854286Y-72239143D01*
X169441905Y-72334381D02*
X169441905Y-71334381D01*
X169822858Y-71334381D01*
X169918096Y-71382000D01*
X169965715Y-71429619D01*
X170013334Y-71524857D01*
X170013334Y-71667714D01*
X169965715Y-71762952D01*
X169918096Y-71810571D01*
X169822858Y-71858190D01*
X169441905Y-71858190D01*
X170489524Y-72334381D02*
X170680000Y-72334381D01*
X170775239Y-72286762D01*
X170822858Y-72239143D01*
X170918096Y-72096286D01*
X170965715Y-71905810D01*
X170965715Y-71524857D01*
X170918096Y-71429619D01*
X170870477Y-71382000D01*
X170775239Y-71334381D01*
X170584762Y-71334381D01*
X170489524Y-71382000D01*
X170441905Y-71429619D01*
X170394286Y-71524857D01*
X170394286Y-71762952D01*
X170441905Y-71858190D01*
X170489524Y-71905810D01*
X170584762Y-71953429D01*
X170775239Y-71953429D01*
X170870477Y-71905810D01*
X170918096Y-71858190D01*
X170965715Y-71762952D01*
M02*
