%FSLAX45Y45*%
G04 Gerber Fmt 4.5, Leading zero omitted, Abs format (unit mm)*
G04 Created by KiCad (PCBNEW 4.0.7) date 12/18/18 08:38:41*
%MOMM*%
%LPD*%
G01*
G04 APERTURE LIST*
%ADD10C,0.127000*%
%ADD11C,0.150000*%
%ADD12C,0.200000*%
%ADD13C,0.300000*%
G04 APERTURE END LIST*
D10*
D11*
X19685000Y-6985000D02*
X19685000Y-11176000D01*
X13335000Y-6985000D02*
X19685000Y-6985000D01*
X13335000Y-11176000D02*
X13335000Y-6985000D01*
X19685000Y-11176000D02*
X13335000Y-11176000D01*
D12*
X14575000Y-7336000D02*
X14635000Y-7396000D01*
X14635000Y-7336000D02*
X14575000Y-7396000D01*
X14638500Y-10384000D02*
X14698500Y-10444000D01*
X14698500Y-10384000D02*
X14638500Y-10444000D01*
X15337000Y-10130000D02*
X15397000Y-10190000D01*
X15397000Y-10130000D02*
X15337000Y-10190000D01*
X15337000Y-10434800D02*
X15397000Y-10494800D01*
X15397000Y-10434800D02*
X15337000Y-10494800D01*
X15438600Y-9787100D02*
X15498600Y-9847100D01*
X15498600Y-9787100D02*
X15438600Y-9847100D01*
X16327600Y-9926800D02*
X16387600Y-9986800D01*
X16387600Y-9926800D02*
X16327600Y-9986800D01*
X13754100Y-9271000D02*
G75*
G03X13754100Y-9271000I-38100J0D01*
G01*
X13754100Y-9779000D02*
G75*
G03X13754100Y-9779000I-38100J0D01*
G01*
X14224000Y-7326000D02*
X14224000Y-7406000D01*
X14184000Y-7366000D02*
X14264000Y-7366000D01*
X14224000Y-7580000D02*
X14224000Y-7660000D01*
X14184000Y-7620000D02*
X14264000Y-7620000D01*
X14224000Y-7834000D02*
X14224000Y-7914000D01*
X14184000Y-7874000D02*
X14264000Y-7874000D01*
X14224000Y-8088000D02*
X14224000Y-8168000D01*
X14184000Y-8128000D02*
X14264000Y-8128000D01*
X14224000Y-8342000D02*
X14224000Y-8422000D01*
X14184000Y-8382000D02*
X14264000Y-8382000D01*
X14224000Y-8596000D02*
X14224000Y-8676000D01*
X14184000Y-8636000D02*
X14264000Y-8636000D01*
X14224000Y-8850000D02*
X14224000Y-8930000D01*
X14184000Y-8890000D02*
X14264000Y-8890000D01*
X14224000Y-9104000D02*
X14224000Y-9184000D01*
X14184000Y-9144000D02*
X14264000Y-9144000D01*
X14224000Y-9358000D02*
X14224000Y-9438000D01*
X14184000Y-9398000D02*
X14264000Y-9398000D01*
X14224000Y-9612000D02*
X14224000Y-9692000D01*
X14184000Y-9652000D02*
X14264000Y-9652000D01*
X14224000Y-9866000D02*
X14224000Y-9946000D01*
X14184000Y-9906000D02*
X14264000Y-9906000D01*
X14224000Y-10120000D02*
X14224000Y-10200000D01*
X14184000Y-10160000D02*
X14264000Y-10160000D01*
X14224000Y-10374000D02*
X14224000Y-10454000D01*
X14184000Y-10414000D02*
X14264000Y-10414000D01*
X14224000Y-10628000D02*
X14224000Y-10708000D01*
X14184000Y-10668000D02*
X14264000Y-10668000D01*
X14986000Y-7326000D02*
X14986000Y-7406000D01*
X14946000Y-7366000D02*
X15026000Y-7366000D01*
X14986000Y-7580000D02*
X14986000Y-7660000D01*
X14946000Y-7620000D02*
X15026000Y-7620000D01*
X14986000Y-7834000D02*
X14986000Y-7914000D01*
X14946000Y-7874000D02*
X15026000Y-7874000D01*
X14986000Y-8088000D02*
X14986000Y-8168000D01*
X14946000Y-8128000D02*
X15026000Y-8128000D01*
X14986000Y-8342000D02*
X14986000Y-8422000D01*
X14946000Y-8382000D02*
X15026000Y-8382000D01*
X14986000Y-8596000D02*
X14986000Y-8676000D01*
X14946000Y-8636000D02*
X15026000Y-8636000D01*
X14986000Y-8850000D02*
X14986000Y-8930000D01*
X14946000Y-8890000D02*
X15026000Y-8890000D01*
X14986000Y-9104000D02*
X14986000Y-9184000D01*
X14946000Y-9144000D02*
X15026000Y-9144000D01*
X14986000Y-9358000D02*
X14986000Y-9438000D01*
X14946000Y-9398000D02*
X15026000Y-9398000D01*
X14986000Y-9612000D02*
X14986000Y-9692000D01*
X14946000Y-9652000D02*
X15026000Y-9652000D01*
X14986000Y-9866000D02*
X14986000Y-9946000D01*
X14946000Y-9906000D02*
X15026000Y-9906000D01*
X14986000Y-10120000D02*
X14986000Y-10200000D01*
X14946000Y-10160000D02*
X15026000Y-10160000D01*
X14986000Y-10374000D02*
X14986000Y-10454000D01*
X14946000Y-10414000D02*
X15026000Y-10414000D01*
X14986000Y-10628000D02*
X14986000Y-10708000D01*
X14946000Y-10668000D02*
X15026000Y-10668000D01*
X15367000Y-7326000D02*
X15367000Y-7406000D01*
X15327000Y-7366000D02*
X15407000Y-7366000D01*
X15367000Y-7580000D02*
X15367000Y-7660000D01*
X15327000Y-7620000D02*
X15407000Y-7620000D01*
X15367000Y-7834000D02*
X15367000Y-7914000D01*
X15327000Y-7874000D02*
X15407000Y-7874000D01*
X15367000Y-8088000D02*
X15367000Y-8168000D01*
X15327000Y-8128000D02*
X15407000Y-8128000D01*
X15367000Y-8342000D02*
X15367000Y-8422000D01*
X15327000Y-8382000D02*
X15407000Y-8382000D01*
X15367000Y-8596000D02*
X15367000Y-8676000D01*
X15327000Y-8636000D02*
X15407000Y-8636000D01*
X15367000Y-8850000D02*
X15367000Y-8930000D01*
X15327000Y-8890000D02*
X15407000Y-8890000D01*
X15367000Y-9104000D02*
X15367000Y-9184000D01*
X15327000Y-9144000D02*
X15407000Y-9144000D01*
X15367000Y-9358000D02*
X15367000Y-9438000D01*
X15327000Y-9398000D02*
X15407000Y-9398000D01*
X16129000Y-7326000D02*
X16129000Y-7406000D01*
X16089000Y-7366000D02*
X16169000Y-7366000D01*
X16129000Y-7580000D02*
X16129000Y-7660000D01*
X16089000Y-7620000D02*
X16169000Y-7620000D01*
X16129000Y-7834000D02*
X16129000Y-7914000D01*
X16089000Y-7874000D02*
X16169000Y-7874000D01*
X16129000Y-8088000D02*
X16129000Y-8168000D01*
X16089000Y-8128000D02*
X16169000Y-8128000D01*
X16129000Y-8342000D02*
X16129000Y-8422000D01*
X16089000Y-8382000D02*
X16169000Y-8382000D01*
X16129000Y-8596000D02*
X16129000Y-8676000D01*
X16089000Y-8636000D02*
X16169000Y-8636000D01*
X16129000Y-8850000D02*
X16129000Y-8930000D01*
X16089000Y-8890000D02*
X16169000Y-8890000D01*
X16129000Y-9104000D02*
X16129000Y-9184000D01*
X16089000Y-9144000D02*
X16169000Y-9144000D01*
X16129000Y-9358000D02*
X16129000Y-9438000D01*
X16089000Y-9398000D02*
X16169000Y-9398000D01*
X16510000Y-7326000D02*
X16510000Y-7406000D01*
X16470000Y-7366000D02*
X16550000Y-7366000D01*
X16510000Y-7580000D02*
X16510000Y-7660000D01*
X16470000Y-7620000D02*
X16550000Y-7620000D01*
X16510000Y-7834000D02*
X16510000Y-7914000D01*
X16470000Y-7874000D02*
X16550000Y-7874000D01*
X16510000Y-8088000D02*
X16510000Y-8168000D01*
X16470000Y-8128000D02*
X16550000Y-8128000D01*
X16510000Y-8342000D02*
X16510000Y-8422000D01*
X16470000Y-8382000D02*
X16550000Y-8382000D01*
X16510000Y-8596000D02*
X16510000Y-8676000D01*
X16470000Y-8636000D02*
X16550000Y-8636000D01*
X16510000Y-8850000D02*
X16510000Y-8930000D01*
X16470000Y-8890000D02*
X16550000Y-8890000D01*
X16510000Y-9104000D02*
X16510000Y-9184000D01*
X16470000Y-9144000D02*
X16550000Y-9144000D01*
X16764000Y-7326000D02*
X16764000Y-7406000D01*
X16724000Y-7366000D02*
X16804000Y-7366000D01*
X16764000Y-7580000D02*
X16764000Y-7660000D01*
X16724000Y-7620000D02*
X16804000Y-7620000D01*
X16764000Y-7834000D02*
X16764000Y-7914000D01*
X16724000Y-7874000D02*
X16804000Y-7874000D01*
X16764000Y-8088000D02*
X16764000Y-8168000D01*
X16724000Y-8128000D02*
X16804000Y-8128000D01*
X16764000Y-8342000D02*
X16764000Y-8422000D01*
X16724000Y-8382000D02*
X16804000Y-8382000D01*
X16764000Y-8596000D02*
X16764000Y-8676000D01*
X16724000Y-8636000D02*
X16804000Y-8636000D01*
X16764000Y-8850000D02*
X16764000Y-8930000D01*
X16724000Y-8890000D02*
X16804000Y-8890000D01*
X16764000Y-9104000D02*
X16764000Y-9184000D01*
X16724000Y-9144000D02*
X16804000Y-9144000D01*
X17018000Y-7326000D02*
X17018000Y-7406000D01*
X16978000Y-7366000D02*
X17058000Y-7366000D01*
X17018000Y-7580000D02*
X17018000Y-7660000D01*
X16978000Y-7620000D02*
X17058000Y-7620000D01*
X17018000Y-7834000D02*
X17018000Y-7914000D01*
X16978000Y-7874000D02*
X17058000Y-7874000D01*
X17018000Y-8088000D02*
X17018000Y-8168000D01*
X16978000Y-8128000D02*
X17058000Y-8128000D01*
X17018000Y-8342000D02*
X17018000Y-8422000D01*
X16978000Y-8382000D02*
X17058000Y-8382000D01*
X17018000Y-8596000D02*
X17018000Y-8676000D01*
X16978000Y-8636000D02*
X17058000Y-8636000D01*
X17018000Y-8850000D02*
X17018000Y-8930000D01*
X16978000Y-8890000D02*
X17058000Y-8890000D01*
X17018000Y-9104000D02*
X17018000Y-9184000D01*
X16978000Y-9144000D02*
X17058000Y-9144000D01*
X17399000Y-7326000D02*
X17399000Y-7406000D01*
X17359000Y-7366000D02*
X17439000Y-7366000D01*
X17399000Y-7580000D02*
X17399000Y-7660000D01*
X17359000Y-7620000D02*
X17439000Y-7620000D01*
X17399000Y-7834000D02*
X17399000Y-7914000D01*
X17359000Y-7874000D02*
X17439000Y-7874000D01*
X17399000Y-8088000D02*
X17399000Y-8168000D01*
X17359000Y-8128000D02*
X17439000Y-8128000D01*
X17399000Y-8342000D02*
X17399000Y-8422000D01*
X17359000Y-8382000D02*
X17439000Y-8382000D01*
X17399000Y-8596000D02*
X17399000Y-8676000D01*
X17359000Y-8636000D02*
X17439000Y-8636000D01*
X17399000Y-8850000D02*
X17399000Y-8930000D01*
X17359000Y-8890000D02*
X17439000Y-8890000D01*
X17399000Y-9104000D02*
X17399000Y-9184000D01*
X17359000Y-9144000D02*
X17439000Y-9144000D01*
X17399000Y-9358000D02*
X17399000Y-9438000D01*
X17359000Y-9398000D02*
X17439000Y-9398000D01*
X18161000Y-7326000D02*
X18161000Y-7406000D01*
X18121000Y-7366000D02*
X18201000Y-7366000D01*
X18161000Y-7580000D02*
X18161000Y-7660000D01*
X18121000Y-7620000D02*
X18201000Y-7620000D01*
X18161000Y-7834000D02*
X18161000Y-7914000D01*
X18121000Y-7874000D02*
X18201000Y-7874000D01*
X18161000Y-8088000D02*
X18161000Y-8168000D01*
X18121000Y-8128000D02*
X18201000Y-8128000D01*
X18161000Y-8342000D02*
X18161000Y-8422000D01*
X18121000Y-8382000D02*
X18201000Y-8382000D01*
X18161000Y-8596000D02*
X18161000Y-8676000D01*
X18121000Y-8636000D02*
X18201000Y-8636000D01*
X18161000Y-8850000D02*
X18161000Y-8930000D01*
X18121000Y-8890000D02*
X18201000Y-8890000D01*
X18161000Y-9104000D02*
X18161000Y-9184000D01*
X18121000Y-9144000D02*
X18201000Y-9144000D01*
X18161000Y-9358000D02*
X18161000Y-9438000D01*
X18121000Y-9398000D02*
X18201000Y-9398000D01*
X18542000Y-7326000D02*
X18542000Y-7406000D01*
X18502000Y-7366000D02*
X18582000Y-7366000D01*
X18542000Y-7580000D02*
X18542000Y-7660000D01*
X18502000Y-7620000D02*
X18582000Y-7620000D01*
X18542000Y-7834000D02*
X18542000Y-7914000D01*
X18502000Y-7874000D02*
X18582000Y-7874000D01*
X18542000Y-8088000D02*
X18542000Y-8168000D01*
X18502000Y-8128000D02*
X18582000Y-8128000D01*
X18542000Y-8342000D02*
X18542000Y-8422000D01*
X18502000Y-8382000D02*
X18582000Y-8382000D01*
X18542000Y-8596000D02*
X18542000Y-8676000D01*
X18502000Y-8636000D02*
X18582000Y-8636000D01*
X18542000Y-8850000D02*
X18542000Y-8930000D01*
X18502000Y-8890000D02*
X18582000Y-8890000D01*
X18542000Y-9104000D02*
X18542000Y-9184000D01*
X18502000Y-9144000D02*
X18582000Y-9144000D01*
X18796000Y-7326000D02*
X18796000Y-7406000D01*
X18756000Y-7366000D02*
X18836000Y-7366000D01*
X18796000Y-7580000D02*
X18796000Y-7660000D01*
X18756000Y-7620000D02*
X18836000Y-7620000D01*
X18796000Y-7834000D02*
X18796000Y-7914000D01*
X18756000Y-7874000D02*
X18836000Y-7874000D01*
X18796000Y-8088000D02*
X18796000Y-8168000D01*
X18756000Y-8128000D02*
X18836000Y-8128000D01*
X18796000Y-8342000D02*
X18796000Y-8422000D01*
X18756000Y-8382000D02*
X18836000Y-8382000D01*
X18796000Y-8596000D02*
X18796000Y-8676000D01*
X18756000Y-8636000D02*
X18836000Y-8636000D01*
X18796000Y-8850000D02*
X18796000Y-8930000D01*
X18756000Y-8890000D02*
X18836000Y-8890000D01*
X18796000Y-9104000D02*
X18796000Y-9184000D01*
X18756000Y-9144000D02*
X18836000Y-9144000D01*
X13624356Y-8290356D02*
X13624356Y-8219644D01*
X13553644Y-8219644D01*
X13553644Y-8290356D01*
X13624356Y-8290356D01*
X13624356Y-8544356D02*
X13624356Y-8473644D01*
X13553644Y-8473644D01*
X13553644Y-8544356D01*
X13624356Y-8544356D01*
X13624356Y-8798356D02*
X13624356Y-8727644D01*
X13553644Y-8727644D01*
X13553644Y-8798356D01*
X13624356Y-8798356D01*
X13878356Y-8290356D02*
X13878356Y-8219644D01*
X13807644Y-8219644D01*
X13807644Y-8290356D01*
X13878356Y-8290356D01*
X13878356Y-8544356D02*
X13878356Y-8473644D01*
X13807644Y-8473644D01*
X13807644Y-8544356D01*
X13878356Y-8544356D01*
X13878356Y-8798356D02*
X13878356Y-8727644D01*
X13807644Y-8727644D01*
X13807644Y-8798356D01*
X13878356Y-8798356D01*
X15719856Y-9814356D02*
X15719856Y-9743644D01*
X15649144Y-9743644D01*
X15649144Y-9814356D01*
X15719856Y-9814356D01*
X15719856Y-10195356D02*
X15719856Y-10124644D01*
X15649144Y-10124644D01*
X15649144Y-10195356D01*
X15719856Y-10195356D01*
X15973856Y-9814356D02*
X15973856Y-9743644D01*
X15903144Y-9743644D01*
X15903144Y-9814356D01*
X15973856Y-9814356D01*
X15973856Y-10195356D02*
X15973856Y-10124644D01*
X15903144Y-10124644D01*
X15903144Y-10195356D01*
X15973856Y-10195356D01*
X16100856Y-10703356D02*
X16100856Y-10632644D01*
X16030144Y-10632644D01*
X16030144Y-10703356D01*
X16100856Y-10703356D01*
X16227856Y-9814356D02*
X16227856Y-9743644D01*
X16157144Y-9743644D01*
X16157144Y-9814356D01*
X16227856Y-9814356D01*
X16227856Y-10195356D02*
X16227856Y-10124644D01*
X16157144Y-10124644D01*
X16157144Y-10195356D01*
X16227856Y-10195356D01*
X16354856Y-10703356D02*
X16354856Y-10632644D01*
X16284144Y-10632644D01*
X16284144Y-10703356D01*
X16354856Y-10703356D01*
X16545356Y-9814356D02*
X16545356Y-9743644D01*
X16474644Y-9743644D01*
X16474644Y-9814356D01*
X16545356Y-9814356D01*
X16545356Y-10195356D02*
X16545356Y-10124644D01*
X16474644Y-10124644D01*
X16474644Y-10195356D01*
X16545356Y-10195356D01*
X16608856Y-10703356D02*
X16608856Y-10632644D01*
X16538144Y-10632644D01*
X16538144Y-10703356D01*
X16608856Y-10703356D01*
X16799356Y-9814356D02*
X16799356Y-9743644D01*
X16728644Y-9743644D01*
X16728644Y-9814356D01*
X16799356Y-9814356D01*
X16799356Y-10195356D02*
X16799356Y-10124644D01*
X16728644Y-10124644D01*
X16728644Y-10195356D01*
X16799356Y-10195356D01*
X17053356Y-9814356D02*
X17053356Y-9743644D01*
X16982644Y-9743644D01*
X16982644Y-9814356D01*
X17053356Y-9814356D01*
X17053356Y-10195356D02*
X17053356Y-10124644D01*
X16982644Y-10124644D01*
X16982644Y-10195356D01*
X17053356Y-10195356D01*
X17396256Y-9928656D02*
X17396256Y-9857944D01*
X17325544Y-9857944D01*
X17325544Y-9928656D01*
X17396256Y-9928656D01*
X17396256Y-10182656D02*
X17396256Y-10111944D01*
X17325544Y-10111944D01*
X17325544Y-10182656D01*
X17396256Y-10182656D01*
X17650256Y-9928656D02*
X17650256Y-9857944D01*
X17579544Y-9857944D01*
X17579544Y-9928656D01*
X17650256Y-9928656D01*
X17650256Y-10182656D02*
X17650256Y-10111944D01*
X17579544Y-10111944D01*
X17579544Y-10182656D01*
X17650256Y-10182656D01*
X17904256Y-9928656D02*
X17904256Y-9857944D01*
X17833544Y-9857944D01*
X17833544Y-9928656D01*
X17904256Y-9928656D01*
X17904256Y-10182656D02*
X17904256Y-10111944D01*
X17833544Y-10111944D01*
X17833544Y-10182656D01*
X17904256Y-10182656D01*
X18259856Y-9814356D02*
X18259856Y-9743644D01*
X18189144Y-9743644D01*
X18189144Y-9814356D01*
X18259856Y-9814356D01*
X18259856Y-10195356D02*
X18259856Y-10124644D01*
X18189144Y-10124644D01*
X18189144Y-10195356D01*
X18259856Y-10195356D01*
X18513856Y-9814356D02*
X18513856Y-9743644D01*
X18443144Y-9743644D01*
X18443144Y-9814356D01*
X18513856Y-9814356D01*
X18513856Y-10195356D02*
X18513856Y-10124644D01*
X18443144Y-10124644D01*
X18443144Y-10195356D01*
X18513856Y-10195356D01*
X18767856Y-9814356D02*
X18767856Y-9743644D01*
X18697144Y-9743644D01*
X18697144Y-9814356D01*
X18767856Y-9814356D01*
X18767856Y-10195356D02*
X18767856Y-10124644D01*
X18697144Y-10124644D01*
X18697144Y-10195356D01*
X18767856Y-10195356D01*
X17018000Y-10870000D02*
X17093000Y-10795000D01*
X17018000Y-10720000D01*
X16943000Y-10795000D01*
X17018000Y-10870000D01*
X17526000Y-10870000D02*
X17601000Y-10795000D01*
X17526000Y-10720000D01*
X17451000Y-10795000D01*
X17526000Y-10870000D01*
X18161000Y-10870000D02*
X18236000Y-10795000D01*
X18161000Y-10720000D01*
X18086000Y-10795000D01*
X18161000Y-10870000D01*
X18669000Y-10870000D02*
X18744000Y-10795000D01*
X18669000Y-10720000D01*
X18594000Y-10795000D01*
X18669000Y-10870000D01*
X19304000Y-9663500D02*
X19379000Y-9588500D01*
X19304000Y-9513500D01*
X19229000Y-9588500D01*
X19304000Y-9663500D01*
X19304000Y-10171500D02*
X19379000Y-10096500D01*
X19304000Y-10021500D01*
X19229000Y-10096500D01*
X19304000Y-10171500D01*
D13*
X13598928Y-11649214D02*
X13598928Y-11349214D01*
X13670357Y-11349214D01*
X13713214Y-11363500D01*
X13741786Y-11392071D01*
X13756071Y-11420643D01*
X13770357Y-11477786D01*
X13770357Y-11520643D01*
X13756071Y-11577786D01*
X13741786Y-11606357D01*
X13713214Y-11634929D01*
X13670357Y-11649214D01*
X13598928Y-11649214D01*
X13898928Y-11649214D02*
X13898928Y-11449214D01*
X13898928Y-11506357D02*
X13913214Y-11477786D01*
X13927500Y-11463500D01*
X13956071Y-11449214D01*
X13984643Y-11449214D01*
X14084643Y-11649214D02*
X14084643Y-11449214D01*
X14084643Y-11349214D02*
X14070357Y-11363500D01*
X14084643Y-11377786D01*
X14098928Y-11363500D01*
X14084643Y-11349214D01*
X14084643Y-11377786D01*
X14270357Y-11649214D02*
X14241786Y-11634929D01*
X14227500Y-11606357D01*
X14227500Y-11349214D01*
X14427500Y-11649214D02*
X14398928Y-11634929D01*
X14384643Y-11606357D01*
X14384643Y-11349214D01*
X14770357Y-11649214D02*
X14770357Y-11349214D01*
X14870357Y-11563500D01*
X14970357Y-11349214D01*
X14970357Y-11649214D01*
X15241786Y-11649214D02*
X15241786Y-11492071D01*
X15227500Y-11463500D01*
X15198928Y-11449214D01*
X15141786Y-11449214D01*
X15113214Y-11463500D01*
X15241786Y-11634929D02*
X15213214Y-11649214D01*
X15141786Y-11649214D01*
X15113214Y-11634929D01*
X15098928Y-11606357D01*
X15098928Y-11577786D01*
X15113214Y-11549214D01*
X15141786Y-11534929D01*
X15213214Y-11534929D01*
X15241786Y-11520643D01*
X15384643Y-11449214D02*
X15384643Y-11749214D01*
X15384643Y-11463500D02*
X15413214Y-11449214D01*
X15470357Y-11449214D01*
X15498928Y-11463500D01*
X15513214Y-11477786D01*
X15527500Y-11506357D01*
X15527500Y-11592071D01*
X15513214Y-11620643D01*
X15498928Y-11634929D01*
X15470357Y-11649214D01*
X15413214Y-11649214D01*
X15384643Y-11634929D01*
X15656071Y-11620643D02*
X15670357Y-11634929D01*
X15656071Y-11649214D01*
X15641786Y-11634929D01*
X15656071Y-11620643D01*
X15656071Y-11649214D01*
X15656071Y-11463500D02*
X15670357Y-11477786D01*
X15656071Y-11492071D01*
X15641786Y-11477786D01*
X15656071Y-11463500D01*
X15656071Y-11492071D01*
X13267500Y-12113500D02*
X13327500Y-12173500D01*
X13327500Y-12113500D02*
X13267500Y-12173500D01*
X13656071Y-11979214D02*
X13684643Y-11979214D01*
X13713214Y-11993500D01*
X13727500Y-12007786D01*
X13741786Y-12036357D01*
X13756071Y-12093500D01*
X13756071Y-12164929D01*
X13741786Y-12222071D01*
X13727500Y-12250643D01*
X13713214Y-12264929D01*
X13684643Y-12279214D01*
X13656071Y-12279214D01*
X13627500Y-12264929D01*
X13613214Y-12250643D01*
X13598928Y-12222071D01*
X13584643Y-12164929D01*
X13584643Y-12093500D01*
X13598928Y-12036357D01*
X13613214Y-12007786D01*
X13627500Y-11993500D01*
X13656071Y-11979214D01*
X13884643Y-12250643D02*
X13898928Y-12264929D01*
X13884643Y-12279214D01*
X13870357Y-12264929D01*
X13884643Y-12250643D01*
X13884643Y-12279214D01*
X14156071Y-11979214D02*
X14098928Y-11979214D01*
X14070357Y-11993500D01*
X14056071Y-12007786D01*
X14027500Y-12050643D01*
X14013214Y-12107786D01*
X14013214Y-12222071D01*
X14027500Y-12250643D01*
X14041786Y-12264929D01*
X14070357Y-12279214D01*
X14127500Y-12279214D01*
X14156071Y-12264929D01*
X14170357Y-12250643D01*
X14184643Y-12222071D01*
X14184643Y-12150643D01*
X14170357Y-12122071D01*
X14156071Y-12107786D01*
X14127500Y-12093500D01*
X14070357Y-12093500D01*
X14041786Y-12107786D01*
X14027500Y-12122071D01*
X14013214Y-12150643D01*
X14370357Y-11979214D02*
X14398928Y-11979214D01*
X14427500Y-11993500D01*
X14441786Y-12007786D01*
X14456071Y-12036357D01*
X14470357Y-12093500D01*
X14470357Y-12164929D01*
X14456071Y-12222071D01*
X14441786Y-12250643D01*
X14427500Y-12264929D01*
X14398928Y-12279214D01*
X14370357Y-12279214D01*
X14341786Y-12264929D01*
X14327500Y-12250643D01*
X14313214Y-12222071D01*
X14298928Y-12164929D01*
X14298928Y-12093500D01*
X14313214Y-12036357D01*
X14327500Y-12007786D01*
X14341786Y-11993500D01*
X14370357Y-11979214D01*
X14598928Y-12279214D02*
X14598928Y-12079214D01*
X14598928Y-12107786D02*
X14613214Y-12093500D01*
X14641786Y-12079214D01*
X14684643Y-12079214D01*
X14713214Y-12093500D01*
X14727500Y-12122071D01*
X14727500Y-12279214D01*
X14727500Y-12122071D02*
X14741786Y-12093500D01*
X14770357Y-12079214D01*
X14813214Y-12079214D01*
X14841786Y-12093500D01*
X14856071Y-12122071D01*
X14856071Y-12279214D01*
X14998928Y-12279214D02*
X14998928Y-12079214D01*
X14998928Y-12107786D02*
X15013214Y-12093500D01*
X15041786Y-12079214D01*
X15084643Y-12079214D01*
X15113214Y-12093500D01*
X15127500Y-12122071D01*
X15127500Y-12279214D01*
X15127500Y-12122071D02*
X15141786Y-12093500D01*
X15170357Y-12079214D01*
X15213214Y-12079214D01*
X15241786Y-12093500D01*
X15256071Y-12122071D01*
X15256071Y-12279214D01*
X15841786Y-11964929D02*
X15584643Y-12350643D01*
X16227500Y-11979214D02*
X16256071Y-11979214D01*
X16284643Y-11993500D01*
X16298928Y-12007786D01*
X16313214Y-12036357D01*
X16327500Y-12093500D01*
X16327500Y-12164929D01*
X16313214Y-12222071D01*
X16298928Y-12250643D01*
X16284643Y-12264929D01*
X16256071Y-12279214D01*
X16227500Y-12279214D01*
X16198928Y-12264929D01*
X16184643Y-12250643D01*
X16170357Y-12222071D01*
X16156071Y-12164929D01*
X16156071Y-12093500D01*
X16170357Y-12036357D01*
X16184643Y-12007786D01*
X16198928Y-11993500D01*
X16227500Y-11979214D01*
X16456071Y-12250643D02*
X16470357Y-12264929D01*
X16456071Y-12279214D01*
X16441786Y-12264929D01*
X16456071Y-12250643D01*
X16456071Y-12279214D01*
X16656071Y-11979214D02*
X16684643Y-11979214D01*
X16713214Y-11993500D01*
X16727500Y-12007786D01*
X16741785Y-12036357D01*
X16756071Y-12093500D01*
X16756071Y-12164929D01*
X16741785Y-12222071D01*
X16727500Y-12250643D01*
X16713214Y-12264929D01*
X16684643Y-12279214D01*
X16656071Y-12279214D01*
X16627500Y-12264929D01*
X16613214Y-12250643D01*
X16598928Y-12222071D01*
X16584643Y-12164929D01*
X16584643Y-12093500D01*
X16598928Y-12036357D01*
X16613214Y-12007786D01*
X16627500Y-11993500D01*
X16656071Y-11979214D01*
X16870357Y-12007786D02*
X16884643Y-11993500D01*
X16913214Y-11979214D01*
X16984643Y-11979214D01*
X17013214Y-11993500D01*
X17027500Y-12007786D01*
X17041786Y-12036357D01*
X17041786Y-12064929D01*
X17027500Y-12107786D01*
X16856071Y-12279214D01*
X17041786Y-12279214D01*
X17298928Y-12079214D02*
X17298928Y-12279214D01*
X17227500Y-11964929D02*
X17156071Y-12179214D01*
X17341786Y-12179214D01*
X17441786Y-11979214D02*
X17441786Y-12036357D01*
X17556071Y-11979214D02*
X17556071Y-12036357D01*
X17998928Y-12393500D02*
X17984643Y-12379214D01*
X17956071Y-12336357D01*
X17941786Y-12307786D01*
X17927500Y-12264929D01*
X17913214Y-12193500D01*
X17913214Y-12136357D01*
X17927500Y-12064929D01*
X17941786Y-12022071D01*
X17956071Y-11993500D01*
X17984643Y-11950643D01*
X17998928Y-11936357D01*
X18241786Y-11979214D02*
X18184643Y-11979214D01*
X18156071Y-11993500D01*
X18141786Y-12007786D01*
X18113214Y-12050643D01*
X18098928Y-12107786D01*
X18098928Y-12222071D01*
X18113214Y-12250643D01*
X18127500Y-12264929D01*
X18156071Y-12279214D01*
X18213214Y-12279214D01*
X18241786Y-12264929D01*
X18256071Y-12250643D01*
X18270357Y-12222071D01*
X18270357Y-12150643D01*
X18256071Y-12122071D01*
X18241786Y-12107786D01*
X18213214Y-12093500D01*
X18156071Y-12093500D01*
X18127500Y-12107786D01*
X18113214Y-12122071D01*
X18098928Y-12150643D01*
X18627500Y-12279214D02*
X18627500Y-11979214D01*
X18756071Y-12279214D02*
X18756071Y-12122071D01*
X18741786Y-12093500D01*
X18713214Y-12079214D01*
X18670357Y-12079214D01*
X18641786Y-12093500D01*
X18627500Y-12107786D01*
X18941786Y-12279214D02*
X18913214Y-12264929D01*
X18898928Y-12250643D01*
X18884643Y-12222071D01*
X18884643Y-12136357D01*
X18898928Y-12107786D01*
X18913214Y-12093500D01*
X18941786Y-12079214D01*
X18984643Y-12079214D01*
X19013214Y-12093500D01*
X19027500Y-12107786D01*
X19041786Y-12136357D01*
X19041786Y-12222071D01*
X19027500Y-12250643D01*
X19013214Y-12264929D01*
X18984643Y-12279214D01*
X18941786Y-12279214D01*
X19213214Y-12279214D02*
X19184643Y-12264929D01*
X19170357Y-12236357D01*
X19170357Y-11979214D01*
X19441786Y-12264929D02*
X19413214Y-12279214D01*
X19356071Y-12279214D01*
X19327500Y-12264929D01*
X19313214Y-12236357D01*
X19313214Y-12122071D01*
X19327500Y-12093500D01*
X19356071Y-12079214D01*
X19413214Y-12079214D01*
X19441786Y-12093500D01*
X19456071Y-12122071D01*
X19456071Y-12150643D01*
X19313214Y-12179214D01*
X19570357Y-12264929D02*
X19598929Y-12279214D01*
X19656071Y-12279214D01*
X19684643Y-12264929D01*
X19698929Y-12236357D01*
X19698929Y-12222071D01*
X19684643Y-12193500D01*
X19656071Y-12179214D01*
X19613214Y-12179214D01*
X19584643Y-12164929D01*
X19570357Y-12136357D01*
X19570357Y-12122071D01*
X19584643Y-12093500D01*
X19613214Y-12079214D01*
X19656071Y-12079214D01*
X19684643Y-12093500D01*
X19798928Y-12393500D02*
X19813214Y-12379214D01*
X19841786Y-12336357D01*
X19856071Y-12307786D01*
X19870357Y-12264929D01*
X19884643Y-12193500D01*
X19884643Y-12136357D01*
X19870357Y-12064929D01*
X19856071Y-12022071D01*
X19841786Y-11993500D01*
X19813214Y-11950643D01*
X19798928Y-11936357D01*
X13327500Y-12539500D02*
G75*
G03X13327500Y-12539500I-38100J0D01*
G01*
X13656071Y-12375214D02*
X13684643Y-12375214D01*
X13713214Y-12389500D01*
X13727500Y-12403786D01*
X13741786Y-12432357D01*
X13756071Y-12489500D01*
X13756071Y-12560929D01*
X13741786Y-12618071D01*
X13727500Y-12646643D01*
X13713214Y-12660929D01*
X13684643Y-12675214D01*
X13656071Y-12675214D01*
X13627500Y-12660929D01*
X13613214Y-12646643D01*
X13598928Y-12618071D01*
X13584643Y-12560929D01*
X13584643Y-12489500D01*
X13598928Y-12432357D01*
X13613214Y-12403786D01*
X13627500Y-12389500D01*
X13656071Y-12375214D01*
X13884643Y-12646643D02*
X13898928Y-12660929D01*
X13884643Y-12675214D01*
X13870357Y-12660929D01*
X13884643Y-12646643D01*
X13884643Y-12675214D01*
X13998928Y-12375214D02*
X14198928Y-12375214D01*
X14070357Y-12675214D01*
X14441786Y-12375214D02*
X14384643Y-12375214D01*
X14356071Y-12389500D01*
X14341786Y-12403786D01*
X14313214Y-12446643D01*
X14298928Y-12503786D01*
X14298928Y-12618071D01*
X14313214Y-12646643D01*
X14327500Y-12660929D01*
X14356071Y-12675214D01*
X14413214Y-12675214D01*
X14441786Y-12660929D01*
X14456071Y-12646643D01*
X14470357Y-12618071D01*
X14470357Y-12546643D01*
X14456071Y-12518071D01*
X14441786Y-12503786D01*
X14413214Y-12489500D01*
X14356071Y-12489500D01*
X14327500Y-12503786D01*
X14313214Y-12518071D01*
X14298928Y-12546643D01*
X14598928Y-12675214D02*
X14598928Y-12475214D01*
X14598928Y-12503786D02*
X14613214Y-12489500D01*
X14641786Y-12475214D01*
X14684643Y-12475214D01*
X14713214Y-12489500D01*
X14727500Y-12518071D01*
X14727500Y-12675214D01*
X14727500Y-12518071D02*
X14741786Y-12489500D01*
X14770357Y-12475214D01*
X14813214Y-12475214D01*
X14841786Y-12489500D01*
X14856071Y-12518071D01*
X14856071Y-12675214D01*
X14998928Y-12675214D02*
X14998928Y-12475214D01*
X14998928Y-12503786D02*
X15013214Y-12489500D01*
X15041786Y-12475214D01*
X15084643Y-12475214D01*
X15113214Y-12489500D01*
X15127500Y-12518071D01*
X15127500Y-12675214D01*
X15127500Y-12518071D02*
X15141786Y-12489500D01*
X15170357Y-12475214D01*
X15213214Y-12475214D01*
X15241786Y-12489500D01*
X15256071Y-12518071D01*
X15256071Y-12675214D01*
X15841786Y-12360929D02*
X15584643Y-12746643D01*
X16227500Y-12375214D02*
X16256071Y-12375214D01*
X16284643Y-12389500D01*
X16298928Y-12403786D01*
X16313214Y-12432357D01*
X16327500Y-12489500D01*
X16327500Y-12560929D01*
X16313214Y-12618071D01*
X16298928Y-12646643D01*
X16284643Y-12660929D01*
X16256071Y-12675214D01*
X16227500Y-12675214D01*
X16198928Y-12660929D01*
X16184643Y-12646643D01*
X16170357Y-12618071D01*
X16156071Y-12560929D01*
X16156071Y-12489500D01*
X16170357Y-12432357D01*
X16184643Y-12403786D01*
X16198928Y-12389500D01*
X16227500Y-12375214D01*
X16456071Y-12646643D02*
X16470357Y-12660929D01*
X16456071Y-12675214D01*
X16441786Y-12660929D01*
X16456071Y-12646643D01*
X16456071Y-12675214D01*
X16656071Y-12375214D02*
X16684643Y-12375214D01*
X16713214Y-12389500D01*
X16727500Y-12403786D01*
X16741785Y-12432357D01*
X16756071Y-12489500D01*
X16756071Y-12560929D01*
X16741785Y-12618071D01*
X16727500Y-12646643D01*
X16713214Y-12660929D01*
X16684643Y-12675214D01*
X16656071Y-12675214D01*
X16627500Y-12660929D01*
X16613214Y-12646643D01*
X16598928Y-12618071D01*
X16584643Y-12560929D01*
X16584643Y-12489500D01*
X16598928Y-12432357D01*
X16613214Y-12403786D01*
X16627500Y-12389500D01*
X16656071Y-12375214D01*
X16856071Y-12375214D02*
X17041786Y-12375214D01*
X16941786Y-12489500D01*
X16984643Y-12489500D01*
X17013214Y-12503786D01*
X17027500Y-12518071D01*
X17041786Y-12546643D01*
X17041786Y-12618071D01*
X17027500Y-12646643D01*
X17013214Y-12660929D01*
X16984643Y-12675214D01*
X16898928Y-12675214D01*
X16870357Y-12660929D01*
X16856071Y-12646643D01*
X17227500Y-12375214D02*
X17256071Y-12375214D01*
X17284643Y-12389500D01*
X17298928Y-12403786D01*
X17313214Y-12432357D01*
X17327500Y-12489500D01*
X17327500Y-12560929D01*
X17313214Y-12618071D01*
X17298928Y-12646643D01*
X17284643Y-12660929D01*
X17256071Y-12675214D01*
X17227500Y-12675214D01*
X17198928Y-12660929D01*
X17184643Y-12646643D01*
X17170357Y-12618071D01*
X17156071Y-12560929D01*
X17156071Y-12489500D01*
X17170357Y-12432357D01*
X17184643Y-12403786D01*
X17198928Y-12389500D01*
X17227500Y-12375214D01*
X17441786Y-12375214D02*
X17441786Y-12432357D01*
X17556071Y-12375214D02*
X17556071Y-12432357D01*
X17998928Y-12789500D02*
X17984643Y-12775214D01*
X17956071Y-12732357D01*
X17941786Y-12703786D01*
X17927500Y-12660929D01*
X17913214Y-12589500D01*
X17913214Y-12532357D01*
X17927500Y-12460929D01*
X17941786Y-12418071D01*
X17956071Y-12389500D01*
X17984643Y-12346643D01*
X17998928Y-12332357D01*
X18098928Y-12403786D02*
X18113214Y-12389500D01*
X18141786Y-12375214D01*
X18213214Y-12375214D01*
X18241786Y-12389500D01*
X18256071Y-12403786D01*
X18270357Y-12432357D01*
X18270357Y-12460929D01*
X18256071Y-12503786D01*
X18084643Y-12675214D01*
X18270357Y-12675214D01*
X18627500Y-12675214D02*
X18627500Y-12375214D01*
X18756071Y-12675214D02*
X18756071Y-12518071D01*
X18741786Y-12489500D01*
X18713214Y-12475214D01*
X18670357Y-12475214D01*
X18641786Y-12489500D01*
X18627500Y-12503786D01*
X18941786Y-12675214D02*
X18913214Y-12660929D01*
X18898928Y-12646643D01*
X18884643Y-12618071D01*
X18884643Y-12532357D01*
X18898928Y-12503786D01*
X18913214Y-12489500D01*
X18941786Y-12475214D01*
X18984643Y-12475214D01*
X19013214Y-12489500D01*
X19027500Y-12503786D01*
X19041786Y-12532357D01*
X19041786Y-12618071D01*
X19027500Y-12646643D01*
X19013214Y-12660929D01*
X18984643Y-12675214D01*
X18941786Y-12675214D01*
X19213214Y-12675214D02*
X19184643Y-12660929D01*
X19170357Y-12632357D01*
X19170357Y-12375214D01*
X19441786Y-12660929D02*
X19413214Y-12675214D01*
X19356071Y-12675214D01*
X19327500Y-12660929D01*
X19313214Y-12632357D01*
X19313214Y-12518071D01*
X19327500Y-12489500D01*
X19356071Y-12475214D01*
X19413214Y-12475214D01*
X19441786Y-12489500D01*
X19456071Y-12518071D01*
X19456071Y-12546643D01*
X19313214Y-12575214D01*
X19570357Y-12660929D02*
X19598929Y-12675214D01*
X19656071Y-12675214D01*
X19684643Y-12660929D01*
X19698929Y-12632357D01*
X19698929Y-12618071D01*
X19684643Y-12589500D01*
X19656071Y-12575214D01*
X19613214Y-12575214D01*
X19584643Y-12560929D01*
X19570357Y-12532357D01*
X19570357Y-12518071D01*
X19584643Y-12489500D01*
X19613214Y-12475214D01*
X19656071Y-12475214D01*
X19684643Y-12489500D01*
X19798928Y-12789500D02*
X19813214Y-12775214D01*
X19841786Y-12732357D01*
X19856071Y-12703786D01*
X19870357Y-12660929D01*
X19884643Y-12589500D01*
X19884643Y-12532357D01*
X19870357Y-12460929D01*
X19856071Y-12418071D01*
X19841786Y-12389500D01*
X19813214Y-12346643D01*
X19798928Y-12332357D01*
X13287500Y-12895500D02*
X13287500Y-12975500D01*
X13247500Y-12935500D02*
X13327500Y-12935500D01*
X13656071Y-12771214D02*
X13684643Y-12771214D01*
X13713214Y-12785500D01*
X13727500Y-12799786D01*
X13741786Y-12828357D01*
X13756071Y-12885500D01*
X13756071Y-12956929D01*
X13741786Y-13014071D01*
X13727500Y-13042643D01*
X13713214Y-13056929D01*
X13684643Y-13071214D01*
X13656071Y-13071214D01*
X13627500Y-13056929D01*
X13613214Y-13042643D01*
X13598928Y-13014071D01*
X13584643Y-12956929D01*
X13584643Y-12885500D01*
X13598928Y-12828357D01*
X13613214Y-12799786D01*
X13627500Y-12785500D01*
X13656071Y-12771214D01*
X13884643Y-13042643D02*
X13898928Y-13056929D01*
X13884643Y-13071214D01*
X13870357Y-13056929D01*
X13884643Y-13042643D01*
X13884643Y-13071214D01*
X14070357Y-12899786D02*
X14041786Y-12885500D01*
X14027500Y-12871214D01*
X14013214Y-12842643D01*
X14013214Y-12828357D01*
X14027500Y-12799786D01*
X14041786Y-12785500D01*
X14070357Y-12771214D01*
X14127500Y-12771214D01*
X14156071Y-12785500D01*
X14170357Y-12799786D01*
X14184643Y-12828357D01*
X14184643Y-12842643D01*
X14170357Y-12871214D01*
X14156071Y-12885500D01*
X14127500Y-12899786D01*
X14070357Y-12899786D01*
X14041786Y-12914071D01*
X14027500Y-12928357D01*
X14013214Y-12956929D01*
X14013214Y-13014071D01*
X14027500Y-13042643D01*
X14041786Y-13056929D01*
X14070357Y-13071214D01*
X14127500Y-13071214D01*
X14156071Y-13056929D01*
X14170357Y-13042643D01*
X14184643Y-13014071D01*
X14184643Y-12956929D01*
X14170357Y-12928357D01*
X14156071Y-12914071D01*
X14127500Y-12899786D01*
X14370357Y-12771214D02*
X14398928Y-12771214D01*
X14427500Y-12785500D01*
X14441786Y-12799786D01*
X14456071Y-12828357D01*
X14470357Y-12885500D01*
X14470357Y-12956929D01*
X14456071Y-13014071D01*
X14441786Y-13042643D01*
X14427500Y-13056929D01*
X14398928Y-13071214D01*
X14370357Y-13071214D01*
X14341786Y-13056929D01*
X14327500Y-13042643D01*
X14313214Y-13014071D01*
X14298928Y-12956929D01*
X14298928Y-12885500D01*
X14313214Y-12828357D01*
X14327500Y-12799786D01*
X14341786Y-12785500D01*
X14370357Y-12771214D01*
X14598928Y-13071214D02*
X14598928Y-12871214D01*
X14598928Y-12899786D02*
X14613214Y-12885500D01*
X14641786Y-12871214D01*
X14684643Y-12871214D01*
X14713214Y-12885500D01*
X14727500Y-12914071D01*
X14727500Y-13071214D01*
X14727500Y-12914071D02*
X14741786Y-12885500D01*
X14770357Y-12871214D01*
X14813214Y-12871214D01*
X14841786Y-12885500D01*
X14856071Y-12914071D01*
X14856071Y-13071214D01*
X14998928Y-13071214D02*
X14998928Y-12871214D01*
X14998928Y-12899786D02*
X15013214Y-12885500D01*
X15041786Y-12871214D01*
X15084643Y-12871214D01*
X15113214Y-12885500D01*
X15127500Y-12914071D01*
X15127500Y-13071214D01*
X15127500Y-12914071D02*
X15141786Y-12885500D01*
X15170357Y-12871214D01*
X15213214Y-12871214D01*
X15241786Y-12885500D01*
X15256071Y-12914071D01*
X15256071Y-13071214D01*
X15841786Y-12756929D02*
X15584643Y-13142643D01*
X16227500Y-12771214D02*
X16256071Y-12771214D01*
X16284643Y-12785500D01*
X16298928Y-12799786D01*
X16313214Y-12828357D01*
X16327500Y-12885500D01*
X16327500Y-12956929D01*
X16313214Y-13014071D01*
X16298928Y-13042643D01*
X16284643Y-13056929D01*
X16256071Y-13071214D01*
X16227500Y-13071214D01*
X16198928Y-13056929D01*
X16184643Y-13042643D01*
X16170357Y-13014071D01*
X16156071Y-12956929D01*
X16156071Y-12885500D01*
X16170357Y-12828357D01*
X16184643Y-12799786D01*
X16198928Y-12785500D01*
X16227500Y-12771214D01*
X16456071Y-13042643D02*
X16470357Y-13056929D01*
X16456071Y-13071214D01*
X16441786Y-13056929D01*
X16456071Y-13042643D01*
X16456071Y-13071214D01*
X16656071Y-12771214D02*
X16684643Y-12771214D01*
X16713214Y-12785500D01*
X16727500Y-12799786D01*
X16741785Y-12828357D01*
X16756071Y-12885500D01*
X16756071Y-12956929D01*
X16741785Y-13014071D01*
X16727500Y-13042643D01*
X16713214Y-13056929D01*
X16684643Y-13071214D01*
X16656071Y-13071214D01*
X16627500Y-13056929D01*
X16613214Y-13042643D01*
X16598928Y-13014071D01*
X16584643Y-12956929D01*
X16584643Y-12885500D01*
X16598928Y-12828357D01*
X16613214Y-12799786D01*
X16627500Y-12785500D01*
X16656071Y-12771214D01*
X16856071Y-12771214D02*
X17041786Y-12771214D01*
X16941786Y-12885500D01*
X16984643Y-12885500D01*
X17013214Y-12899786D01*
X17027500Y-12914071D01*
X17041786Y-12942643D01*
X17041786Y-13014071D01*
X17027500Y-13042643D01*
X17013214Y-13056929D01*
X16984643Y-13071214D01*
X16898928Y-13071214D01*
X16870357Y-13056929D01*
X16856071Y-13042643D01*
X17327500Y-13071214D02*
X17156071Y-13071214D01*
X17241786Y-13071214D02*
X17241786Y-12771214D01*
X17213214Y-12814071D01*
X17184643Y-12842643D01*
X17156071Y-12856929D01*
X17441786Y-12771214D02*
X17441786Y-12828357D01*
X17556071Y-12771214D02*
X17556071Y-12828357D01*
X17998928Y-13185500D02*
X17984643Y-13171214D01*
X17956071Y-13128357D01*
X17941786Y-13099786D01*
X17927500Y-13056929D01*
X17913214Y-12985500D01*
X17913214Y-12928357D01*
X17927500Y-12856929D01*
X17941786Y-12814071D01*
X17956071Y-12785500D01*
X17984643Y-12742643D01*
X17998928Y-12728357D01*
X18270357Y-13071214D02*
X18098928Y-13071214D01*
X18184643Y-13071214D02*
X18184643Y-12771214D01*
X18156071Y-12814071D01*
X18127500Y-12842643D01*
X18098928Y-12856929D01*
X18456071Y-12771214D02*
X18484643Y-12771214D01*
X18513214Y-12785500D01*
X18527500Y-12799786D01*
X18541786Y-12828357D01*
X18556071Y-12885500D01*
X18556071Y-12956929D01*
X18541786Y-13014071D01*
X18527500Y-13042643D01*
X18513214Y-13056929D01*
X18484643Y-13071214D01*
X18456071Y-13071214D01*
X18427500Y-13056929D01*
X18413214Y-13042643D01*
X18398928Y-13014071D01*
X18384643Y-12956929D01*
X18384643Y-12885500D01*
X18398928Y-12828357D01*
X18413214Y-12799786D01*
X18427500Y-12785500D01*
X18456071Y-12771214D01*
X18813214Y-12871214D02*
X18813214Y-13071214D01*
X18741786Y-12756929D02*
X18670357Y-12971214D01*
X18856071Y-12971214D01*
X19198928Y-13071214D02*
X19198928Y-12771214D01*
X19327500Y-13071214D02*
X19327500Y-12914071D01*
X19313214Y-12885500D01*
X19284643Y-12871214D01*
X19241786Y-12871214D01*
X19213214Y-12885500D01*
X19198928Y-12899786D01*
X19513214Y-13071214D02*
X19484643Y-13056929D01*
X19470357Y-13042643D01*
X19456071Y-13014071D01*
X19456071Y-12928357D01*
X19470357Y-12899786D01*
X19484643Y-12885500D01*
X19513214Y-12871214D01*
X19556071Y-12871214D01*
X19584643Y-12885500D01*
X19598928Y-12899786D01*
X19613214Y-12928357D01*
X19613214Y-13014071D01*
X19598928Y-13042643D01*
X19584643Y-13056929D01*
X19556071Y-13071214D01*
X19513214Y-13071214D01*
X19784643Y-13071214D02*
X19756071Y-13056929D01*
X19741786Y-13028357D01*
X19741786Y-12771214D01*
X20013214Y-13056929D02*
X19984643Y-13071214D01*
X19927500Y-13071214D01*
X19898929Y-13056929D01*
X19884643Y-13028357D01*
X19884643Y-12914071D01*
X19898929Y-12885500D01*
X19927500Y-12871214D01*
X19984643Y-12871214D01*
X20013214Y-12885500D01*
X20027500Y-12914071D01*
X20027500Y-12942643D01*
X19884643Y-12971214D01*
X20141786Y-13056929D02*
X20170357Y-13071214D01*
X20227500Y-13071214D01*
X20256071Y-13056929D01*
X20270357Y-13028357D01*
X20270357Y-13014071D01*
X20256071Y-12985500D01*
X20227500Y-12971214D01*
X20184643Y-12971214D01*
X20156071Y-12956929D01*
X20141786Y-12928357D01*
X20141786Y-12914071D01*
X20156071Y-12885500D01*
X20184643Y-12871214D01*
X20227500Y-12871214D01*
X20256071Y-12885500D01*
X20370357Y-13185500D02*
X20384643Y-13171214D01*
X20413214Y-13128357D01*
X20427500Y-13099786D01*
X20441786Y-13056929D01*
X20456071Y-12985500D01*
X20456071Y-12928357D01*
X20441786Y-12856929D01*
X20427500Y-12814071D01*
X20413214Y-12785500D01*
X20384643Y-12742643D01*
X20370357Y-12728357D01*
X13312856Y-13366856D02*
X13312856Y-13296144D01*
X13242144Y-13296144D01*
X13242144Y-13366856D01*
X13312856Y-13366856D01*
X13756071Y-13467214D02*
X13584643Y-13467214D01*
X13670357Y-13467214D02*
X13670357Y-13167214D01*
X13641786Y-13210071D01*
X13613214Y-13238643D01*
X13584643Y-13252929D01*
X13884643Y-13438643D02*
X13898928Y-13452929D01*
X13884643Y-13467214D01*
X13870357Y-13452929D01*
X13884643Y-13438643D01*
X13884643Y-13467214D01*
X14084643Y-13167214D02*
X14113214Y-13167214D01*
X14141786Y-13181500D01*
X14156071Y-13195786D01*
X14170357Y-13224357D01*
X14184643Y-13281500D01*
X14184643Y-13352929D01*
X14170357Y-13410071D01*
X14156071Y-13438643D01*
X14141786Y-13452929D01*
X14113214Y-13467214D01*
X14084643Y-13467214D01*
X14056071Y-13452929D01*
X14041786Y-13438643D01*
X14027500Y-13410071D01*
X14013214Y-13352929D01*
X14013214Y-13281500D01*
X14027500Y-13224357D01*
X14041786Y-13195786D01*
X14056071Y-13181500D01*
X14084643Y-13167214D01*
X14370357Y-13167214D02*
X14398928Y-13167214D01*
X14427500Y-13181500D01*
X14441786Y-13195786D01*
X14456071Y-13224357D01*
X14470357Y-13281500D01*
X14470357Y-13352929D01*
X14456071Y-13410071D01*
X14441786Y-13438643D01*
X14427500Y-13452929D01*
X14398928Y-13467214D01*
X14370357Y-13467214D01*
X14341786Y-13452929D01*
X14327500Y-13438643D01*
X14313214Y-13410071D01*
X14298928Y-13352929D01*
X14298928Y-13281500D01*
X14313214Y-13224357D01*
X14327500Y-13195786D01*
X14341786Y-13181500D01*
X14370357Y-13167214D01*
X14598928Y-13467214D02*
X14598928Y-13267214D01*
X14598928Y-13295786D02*
X14613214Y-13281500D01*
X14641786Y-13267214D01*
X14684643Y-13267214D01*
X14713214Y-13281500D01*
X14727500Y-13310071D01*
X14727500Y-13467214D01*
X14727500Y-13310071D02*
X14741786Y-13281500D01*
X14770357Y-13267214D01*
X14813214Y-13267214D01*
X14841786Y-13281500D01*
X14856071Y-13310071D01*
X14856071Y-13467214D01*
X14998928Y-13467214D02*
X14998928Y-13267214D01*
X14998928Y-13295786D02*
X15013214Y-13281500D01*
X15041786Y-13267214D01*
X15084643Y-13267214D01*
X15113214Y-13281500D01*
X15127500Y-13310071D01*
X15127500Y-13467214D01*
X15127500Y-13310071D02*
X15141786Y-13281500D01*
X15170357Y-13267214D01*
X15213214Y-13267214D01*
X15241786Y-13281500D01*
X15256071Y-13310071D01*
X15256071Y-13467214D01*
X15841786Y-13152929D02*
X15584643Y-13538643D01*
X16227500Y-13167214D02*
X16256071Y-13167214D01*
X16284643Y-13181500D01*
X16298928Y-13195786D01*
X16313214Y-13224357D01*
X16327500Y-13281500D01*
X16327500Y-13352929D01*
X16313214Y-13410071D01*
X16298928Y-13438643D01*
X16284643Y-13452929D01*
X16256071Y-13467214D01*
X16227500Y-13467214D01*
X16198928Y-13452929D01*
X16184643Y-13438643D01*
X16170357Y-13410071D01*
X16156071Y-13352929D01*
X16156071Y-13281500D01*
X16170357Y-13224357D01*
X16184643Y-13195786D01*
X16198928Y-13181500D01*
X16227500Y-13167214D01*
X16456071Y-13438643D02*
X16470357Y-13452929D01*
X16456071Y-13467214D01*
X16441786Y-13452929D01*
X16456071Y-13438643D01*
X16456071Y-13467214D01*
X16656071Y-13167214D02*
X16684643Y-13167214D01*
X16713214Y-13181500D01*
X16727500Y-13195786D01*
X16741785Y-13224357D01*
X16756071Y-13281500D01*
X16756071Y-13352929D01*
X16741785Y-13410071D01*
X16727500Y-13438643D01*
X16713214Y-13452929D01*
X16684643Y-13467214D01*
X16656071Y-13467214D01*
X16627500Y-13452929D01*
X16613214Y-13438643D01*
X16598928Y-13410071D01*
X16584643Y-13352929D01*
X16584643Y-13281500D01*
X16598928Y-13224357D01*
X16613214Y-13195786D01*
X16627500Y-13181500D01*
X16656071Y-13167214D01*
X16856071Y-13167214D02*
X17041786Y-13167214D01*
X16941786Y-13281500D01*
X16984643Y-13281500D01*
X17013214Y-13295786D01*
X17027500Y-13310071D01*
X17041786Y-13338643D01*
X17041786Y-13410071D01*
X17027500Y-13438643D01*
X17013214Y-13452929D01*
X16984643Y-13467214D01*
X16898928Y-13467214D01*
X16870357Y-13452929D01*
X16856071Y-13438643D01*
X17184643Y-13467214D02*
X17241786Y-13467214D01*
X17270357Y-13452929D01*
X17284643Y-13438643D01*
X17313214Y-13395786D01*
X17327500Y-13338643D01*
X17327500Y-13224357D01*
X17313214Y-13195786D01*
X17298928Y-13181500D01*
X17270357Y-13167214D01*
X17213214Y-13167214D01*
X17184643Y-13181500D01*
X17170357Y-13195786D01*
X17156071Y-13224357D01*
X17156071Y-13295786D01*
X17170357Y-13324357D01*
X17184643Y-13338643D01*
X17213214Y-13352929D01*
X17270357Y-13352929D01*
X17298928Y-13338643D01*
X17313214Y-13324357D01*
X17327500Y-13295786D01*
X17441786Y-13167214D02*
X17441786Y-13224357D01*
X17556071Y-13167214D02*
X17556071Y-13224357D01*
X17998928Y-13581500D02*
X17984643Y-13567214D01*
X17956071Y-13524357D01*
X17941786Y-13495786D01*
X17927500Y-13452929D01*
X17913214Y-13381500D01*
X17913214Y-13324357D01*
X17927500Y-13252929D01*
X17941786Y-13210071D01*
X17956071Y-13181500D01*
X17984643Y-13138643D01*
X17998928Y-13124357D01*
X18084643Y-13167214D02*
X18270357Y-13167214D01*
X18170357Y-13281500D01*
X18213214Y-13281500D01*
X18241786Y-13295786D01*
X18256071Y-13310071D01*
X18270357Y-13338643D01*
X18270357Y-13410071D01*
X18256071Y-13438643D01*
X18241786Y-13452929D01*
X18213214Y-13467214D01*
X18127500Y-13467214D01*
X18098928Y-13452929D01*
X18084643Y-13438643D01*
X18370357Y-13167214D02*
X18556071Y-13167214D01*
X18456071Y-13281500D01*
X18498928Y-13281500D01*
X18527500Y-13295786D01*
X18541786Y-13310071D01*
X18556071Y-13338643D01*
X18556071Y-13410071D01*
X18541786Y-13438643D01*
X18527500Y-13452929D01*
X18498928Y-13467214D01*
X18413214Y-13467214D01*
X18384643Y-13452929D01*
X18370357Y-13438643D01*
X18913214Y-13467214D02*
X18913214Y-13167214D01*
X19041786Y-13467214D02*
X19041786Y-13310071D01*
X19027500Y-13281500D01*
X18998928Y-13267214D01*
X18956071Y-13267214D01*
X18927500Y-13281500D01*
X18913214Y-13295786D01*
X19227500Y-13467214D02*
X19198928Y-13452929D01*
X19184643Y-13438643D01*
X19170357Y-13410071D01*
X19170357Y-13324357D01*
X19184643Y-13295786D01*
X19198928Y-13281500D01*
X19227500Y-13267214D01*
X19270357Y-13267214D01*
X19298928Y-13281500D01*
X19313214Y-13295786D01*
X19327500Y-13324357D01*
X19327500Y-13410071D01*
X19313214Y-13438643D01*
X19298928Y-13452929D01*
X19270357Y-13467214D01*
X19227500Y-13467214D01*
X19498928Y-13467214D02*
X19470357Y-13452929D01*
X19456071Y-13424357D01*
X19456071Y-13167214D01*
X19727500Y-13452929D02*
X19698929Y-13467214D01*
X19641786Y-13467214D01*
X19613214Y-13452929D01*
X19598929Y-13424357D01*
X19598929Y-13310071D01*
X19613214Y-13281500D01*
X19641786Y-13267214D01*
X19698929Y-13267214D01*
X19727500Y-13281500D01*
X19741786Y-13310071D01*
X19741786Y-13338643D01*
X19598929Y-13367214D01*
X19856071Y-13452929D02*
X19884643Y-13467214D01*
X19941786Y-13467214D01*
X19970357Y-13452929D01*
X19984643Y-13424357D01*
X19984643Y-13410071D01*
X19970357Y-13381500D01*
X19941786Y-13367214D01*
X19898929Y-13367214D01*
X19870357Y-13352929D01*
X19856071Y-13324357D01*
X19856071Y-13310071D01*
X19870357Y-13281500D01*
X19898929Y-13267214D01*
X19941786Y-13267214D01*
X19970357Y-13281500D01*
X20084643Y-13581500D02*
X20098929Y-13567214D01*
X20127500Y-13524357D01*
X20141786Y-13495786D01*
X20156071Y-13452929D01*
X20170357Y-13381500D01*
X20170357Y-13324357D01*
X20156071Y-13252929D01*
X20141786Y-13210071D01*
X20127500Y-13181500D01*
X20098929Y-13138643D01*
X20084643Y-13124357D01*
X13252500Y-13802500D02*
X13327500Y-13727500D01*
X13252500Y-13652500D01*
X13177500Y-13727500D01*
X13252500Y-13802500D01*
X13756071Y-13863214D02*
X13584643Y-13863214D01*
X13670357Y-13863214D02*
X13670357Y-13563214D01*
X13641786Y-13606071D01*
X13613214Y-13634643D01*
X13584643Y-13648929D01*
X13884643Y-13834643D02*
X13898928Y-13848929D01*
X13884643Y-13863214D01*
X13870357Y-13848929D01*
X13884643Y-13834643D01*
X13884643Y-13863214D01*
X14170357Y-13563214D02*
X14027500Y-13563214D01*
X14013214Y-13706071D01*
X14027500Y-13691786D01*
X14056071Y-13677500D01*
X14127500Y-13677500D01*
X14156071Y-13691786D01*
X14170357Y-13706071D01*
X14184643Y-13734643D01*
X14184643Y-13806071D01*
X14170357Y-13834643D01*
X14156071Y-13848929D01*
X14127500Y-13863214D01*
X14056071Y-13863214D01*
X14027500Y-13848929D01*
X14013214Y-13834643D01*
X14370357Y-13563214D02*
X14398928Y-13563214D01*
X14427500Y-13577500D01*
X14441786Y-13591786D01*
X14456071Y-13620357D01*
X14470357Y-13677500D01*
X14470357Y-13748929D01*
X14456071Y-13806071D01*
X14441786Y-13834643D01*
X14427500Y-13848929D01*
X14398928Y-13863214D01*
X14370357Y-13863214D01*
X14341786Y-13848929D01*
X14327500Y-13834643D01*
X14313214Y-13806071D01*
X14298928Y-13748929D01*
X14298928Y-13677500D01*
X14313214Y-13620357D01*
X14327500Y-13591786D01*
X14341786Y-13577500D01*
X14370357Y-13563214D01*
X14598928Y-13863214D02*
X14598928Y-13663214D01*
X14598928Y-13691786D02*
X14613214Y-13677500D01*
X14641786Y-13663214D01*
X14684643Y-13663214D01*
X14713214Y-13677500D01*
X14727500Y-13706071D01*
X14727500Y-13863214D01*
X14727500Y-13706071D02*
X14741786Y-13677500D01*
X14770357Y-13663214D01*
X14813214Y-13663214D01*
X14841786Y-13677500D01*
X14856071Y-13706071D01*
X14856071Y-13863214D01*
X14998928Y-13863214D02*
X14998928Y-13663214D01*
X14998928Y-13691786D02*
X15013214Y-13677500D01*
X15041786Y-13663214D01*
X15084643Y-13663214D01*
X15113214Y-13677500D01*
X15127500Y-13706071D01*
X15127500Y-13863214D01*
X15127500Y-13706071D02*
X15141786Y-13677500D01*
X15170357Y-13663214D01*
X15213214Y-13663214D01*
X15241786Y-13677500D01*
X15256071Y-13706071D01*
X15256071Y-13863214D01*
X15841786Y-13548929D02*
X15584643Y-13934643D01*
X16227500Y-13563214D02*
X16256071Y-13563214D01*
X16284643Y-13577500D01*
X16298928Y-13591786D01*
X16313214Y-13620357D01*
X16327500Y-13677500D01*
X16327500Y-13748929D01*
X16313214Y-13806071D01*
X16298928Y-13834643D01*
X16284643Y-13848929D01*
X16256071Y-13863214D01*
X16227500Y-13863214D01*
X16198928Y-13848929D01*
X16184643Y-13834643D01*
X16170357Y-13806071D01*
X16156071Y-13748929D01*
X16156071Y-13677500D01*
X16170357Y-13620357D01*
X16184643Y-13591786D01*
X16198928Y-13577500D01*
X16227500Y-13563214D01*
X16456071Y-13834643D02*
X16470357Y-13848929D01*
X16456071Y-13863214D01*
X16441786Y-13848929D01*
X16456071Y-13834643D01*
X16456071Y-13863214D01*
X16656071Y-13563214D02*
X16684643Y-13563214D01*
X16713214Y-13577500D01*
X16727500Y-13591786D01*
X16741785Y-13620357D01*
X16756071Y-13677500D01*
X16756071Y-13748929D01*
X16741785Y-13806071D01*
X16727500Y-13834643D01*
X16713214Y-13848929D01*
X16684643Y-13863214D01*
X16656071Y-13863214D01*
X16627500Y-13848929D01*
X16613214Y-13834643D01*
X16598928Y-13806071D01*
X16584643Y-13748929D01*
X16584643Y-13677500D01*
X16598928Y-13620357D01*
X16613214Y-13591786D01*
X16627500Y-13577500D01*
X16656071Y-13563214D01*
X17027500Y-13563214D02*
X16884643Y-13563214D01*
X16870357Y-13706071D01*
X16884643Y-13691786D01*
X16913214Y-13677500D01*
X16984643Y-13677500D01*
X17013214Y-13691786D01*
X17027500Y-13706071D01*
X17041786Y-13734643D01*
X17041786Y-13806071D01*
X17027500Y-13834643D01*
X17013214Y-13848929D01*
X16984643Y-13863214D01*
X16913214Y-13863214D01*
X16884643Y-13848929D01*
X16870357Y-13834643D01*
X17184643Y-13863214D02*
X17241786Y-13863214D01*
X17270357Y-13848929D01*
X17284643Y-13834643D01*
X17313214Y-13791786D01*
X17327500Y-13734643D01*
X17327500Y-13620357D01*
X17313214Y-13591786D01*
X17298928Y-13577500D01*
X17270357Y-13563214D01*
X17213214Y-13563214D01*
X17184643Y-13577500D01*
X17170357Y-13591786D01*
X17156071Y-13620357D01*
X17156071Y-13691786D01*
X17170357Y-13720357D01*
X17184643Y-13734643D01*
X17213214Y-13748929D01*
X17270357Y-13748929D01*
X17298928Y-13734643D01*
X17313214Y-13720357D01*
X17327500Y-13691786D01*
X17441786Y-13563214D02*
X17441786Y-13620357D01*
X17556071Y-13563214D02*
X17556071Y-13620357D01*
X17998928Y-13977500D02*
X17984643Y-13963214D01*
X17956071Y-13920357D01*
X17941786Y-13891786D01*
X17927500Y-13848929D01*
X17913214Y-13777500D01*
X17913214Y-13720357D01*
X17927500Y-13648929D01*
X17941786Y-13606071D01*
X17956071Y-13577500D01*
X17984643Y-13534643D01*
X17998928Y-13520357D01*
X18241786Y-13563214D02*
X18184643Y-13563214D01*
X18156071Y-13577500D01*
X18141786Y-13591786D01*
X18113214Y-13634643D01*
X18098928Y-13691786D01*
X18098928Y-13806071D01*
X18113214Y-13834643D01*
X18127500Y-13848929D01*
X18156071Y-13863214D01*
X18213214Y-13863214D01*
X18241786Y-13848929D01*
X18256071Y-13834643D01*
X18270357Y-13806071D01*
X18270357Y-13734643D01*
X18256071Y-13706071D01*
X18241786Y-13691786D01*
X18213214Y-13677500D01*
X18156071Y-13677500D01*
X18127500Y-13691786D01*
X18113214Y-13706071D01*
X18098928Y-13734643D01*
X18627500Y-13863214D02*
X18627500Y-13563214D01*
X18756071Y-13863214D02*
X18756071Y-13706071D01*
X18741786Y-13677500D01*
X18713214Y-13663214D01*
X18670357Y-13663214D01*
X18641786Y-13677500D01*
X18627500Y-13691786D01*
X18941786Y-13863214D02*
X18913214Y-13848929D01*
X18898928Y-13834643D01*
X18884643Y-13806071D01*
X18884643Y-13720357D01*
X18898928Y-13691786D01*
X18913214Y-13677500D01*
X18941786Y-13663214D01*
X18984643Y-13663214D01*
X19013214Y-13677500D01*
X19027500Y-13691786D01*
X19041786Y-13720357D01*
X19041786Y-13806071D01*
X19027500Y-13834643D01*
X19013214Y-13848929D01*
X18984643Y-13863214D01*
X18941786Y-13863214D01*
X19213214Y-13863214D02*
X19184643Y-13848929D01*
X19170357Y-13820357D01*
X19170357Y-13563214D01*
X19441786Y-13848929D02*
X19413214Y-13863214D01*
X19356071Y-13863214D01*
X19327500Y-13848929D01*
X19313214Y-13820357D01*
X19313214Y-13706071D01*
X19327500Y-13677500D01*
X19356071Y-13663214D01*
X19413214Y-13663214D01*
X19441786Y-13677500D01*
X19456071Y-13706071D01*
X19456071Y-13734643D01*
X19313214Y-13763214D01*
X19570357Y-13848929D02*
X19598929Y-13863214D01*
X19656071Y-13863214D01*
X19684643Y-13848929D01*
X19698929Y-13820357D01*
X19698929Y-13806071D01*
X19684643Y-13777500D01*
X19656071Y-13763214D01*
X19613214Y-13763214D01*
X19584643Y-13748929D01*
X19570357Y-13720357D01*
X19570357Y-13706071D01*
X19584643Y-13677500D01*
X19613214Y-13663214D01*
X19656071Y-13663214D01*
X19684643Y-13677500D01*
X19798928Y-13977500D02*
X19813214Y-13963214D01*
X19841786Y-13920357D01*
X19856071Y-13891786D01*
X19870357Y-13848929D01*
X19884643Y-13777500D01*
X19884643Y-13720357D01*
X19870357Y-13648929D01*
X19856071Y-13606071D01*
X19841786Y-13577500D01*
X19813214Y-13534643D01*
X19798928Y-13520357D01*
M02*
