%FSLAX45Y45*%
G04 Gerber Fmt 4.5, Leading zero omitted, Abs format (unit mm)*
G04 Created by KiCad (PCBNEW 4.0.7) date 12/12/18 08:32:26*
%MOMM*%
%LPD*%
G01*
G04 APERTURE LIST*
%ADD10C,0.127000*%
%ADD11C,0.200000*%
%ADD12C,0.300000*%
G04 APERTURE END LIST*
D10*
D11*
X14575000Y-7336000D02*
X14635000Y-7396000D01*
X14635000Y-7336000D02*
X14575000Y-7396000D01*
X14638500Y-10384000D02*
X14698500Y-10444000D01*
X14698500Y-10384000D02*
X14638500Y-10444000D01*
X15337000Y-10130000D02*
X15397000Y-10190000D01*
X15397000Y-10130000D02*
X15337000Y-10190000D01*
X17686500Y-9685500D02*
X17746500Y-9745500D01*
X17746500Y-9685500D02*
X17686500Y-9745500D01*
X13756000Y-9281000D02*
G75*
G03X13756000Y-9281000I-40000J0D01*
G01*
X13756000Y-9769000D02*
G75*
G03X13756000Y-9769000I-40000J0D01*
G01*
X14264000Y-7366000D02*
G75*
G03X14264000Y-7366000I-40000J0D01*
G01*
X14264000Y-7620000D02*
G75*
G03X14264000Y-7620000I-40000J0D01*
G01*
X14264000Y-7874000D02*
G75*
G03X14264000Y-7874000I-40000J0D01*
G01*
X14264000Y-8128000D02*
G75*
G03X14264000Y-8128000I-40000J0D01*
G01*
X14264000Y-8382000D02*
G75*
G03X14264000Y-8382000I-40000J0D01*
G01*
X14264000Y-8636000D02*
G75*
G03X14264000Y-8636000I-40000J0D01*
G01*
X14264000Y-8890000D02*
G75*
G03X14264000Y-8890000I-40000J0D01*
G01*
X14264000Y-9144000D02*
G75*
G03X14264000Y-9144000I-40000J0D01*
G01*
X14264000Y-9398000D02*
G75*
G03X14264000Y-9398000I-40000J0D01*
G01*
X14264000Y-9652000D02*
G75*
G03X14264000Y-9652000I-40000J0D01*
G01*
X14264000Y-9906000D02*
G75*
G03X14264000Y-9906000I-40000J0D01*
G01*
X14264000Y-10160000D02*
G75*
G03X14264000Y-10160000I-40000J0D01*
G01*
X14264000Y-10414000D02*
G75*
G03X14264000Y-10414000I-40000J0D01*
G01*
X14264000Y-10668000D02*
G75*
G03X14264000Y-10668000I-40000J0D01*
G01*
X15026000Y-7366000D02*
G75*
G03X15026000Y-7366000I-40000J0D01*
G01*
X15026000Y-7620000D02*
G75*
G03X15026000Y-7620000I-40000J0D01*
G01*
X15026000Y-7874000D02*
G75*
G03X15026000Y-7874000I-40000J0D01*
G01*
X15026000Y-8128000D02*
G75*
G03X15026000Y-8128000I-40000J0D01*
G01*
X15026000Y-8382000D02*
G75*
G03X15026000Y-8382000I-40000J0D01*
G01*
X15026000Y-8636000D02*
G75*
G03X15026000Y-8636000I-40000J0D01*
G01*
X15026000Y-8890000D02*
G75*
G03X15026000Y-8890000I-40000J0D01*
G01*
X15026000Y-9144000D02*
G75*
G03X15026000Y-9144000I-40000J0D01*
G01*
X15026000Y-9398000D02*
G75*
G03X15026000Y-9398000I-40000J0D01*
G01*
X15026000Y-9652000D02*
G75*
G03X15026000Y-9652000I-40000J0D01*
G01*
X15026000Y-9906000D02*
G75*
G03X15026000Y-9906000I-40000J0D01*
G01*
X15026000Y-10160000D02*
G75*
G03X15026000Y-10160000I-40000J0D01*
G01*
X15026000Y-10414000D02*
G75*
G03X15026000Y-10414000I-40000J0D01*
G01*
X15026000Y-10668000D02*
G75*
G03X15026000Y-10668000I-40000J0D01*
G01*
X15407000Y-7366000D02*
G75*
G03X15407000Y-7366000I-40000J0D01*
G01*
X15407000Y-7620000D02*
G75*
G03X15407000Y-7620000I-40000J0D01*
G01*
X15407000Y-7874000D02*
G75*
G03X15407000Y-7874000I-40000J0D01*
G01*
X15407000Y-8128000D02*
G75*
G03X15407000Y-8128000I-40000J0D01*
G01*
X15407000Y-8382000D02*
G75*
G03X15407000Y-8382000I-40000J0D01*
G01*
X15407000Y-8636000D02*
G75*
G03X15407000Y-8636000I-40000J0D01*
G01*
X15407000Y-8890000D02*
G75*
G03X15407000Y-8890000I-40000J0D01*
G01*
X15407000Y-9144000D02*
G75*
G03X15407000Y-9144000I-40000J0D01*
G01*
X15407000Y-9398000D02*
G75*
G03X15407000Y-9398000I-40000J0D01*
G01*
X16169000Y-7366000D02*
G75*
G03X16169000Y-7366000I-40000J0D01*
G01*
X16169000Y-7620000D02*
G75*
G03X16169000Y-7620000I-40000J0D01*
G01*
X16169000Y-7874000D02*
G75*
G03X16169000Y-7874000I-40000J0D01*
G01*
X16169000Y-8128000D02*
G75*
G03X16169000Y-8128000I-40000J0D01*
G01*
X16169000Y-8382000D02*
G75*
G03X16169000Y-8382000I-40000J0D01*
G01*
X16169000Y-8636000D02*
G75*
G03X16169000Y-8636000I-40000J0D01*
G01*
X16169000Y-8890000D02*
G75*
G03X16169000Y-8890000I-40000J0D01*
G01*
X16169000Y-9144000D02*
G75*
G03X16169000Y-9144000I-40000J0D01*
G01*
X16169000Y-9398000D02*
G75*
G03X16169000Y-9398000I-40000J0D01*
G01*
X17439000Y-7366000D02*
G75*
G03X17439000Y-7366000I-40000J0D01*
G01*
X17439000Y-7620000D02*
G75*
G03X17439000Y-7620000I-40000J0D01*
G01*
X17439000Y-7874000D02*
G75*
G03X17439000Y-7874000I-40000J0D01*
G01*
X17439000Y-8128000D02*
G75*
G03X17439000Y-8128000I-40000J0D01*
G01*
X17439000Y-8382000D02*
G75*
G03X17439000Y-8382000I-40000J0D01*
G01*
X17439000Y-8636000D02*
G75*
G03X17439000Y-8636000I-40000J0D01*
G01*
X17439000Y-8890000D02*
G75*
G03X17439000Y-8890000I-40000J0D01*
G01*
X17439000Y-9144000D02*
G75*
G03X17439000Y-9144000I-40000J0D01*
G01*
X17439000Y-9398000D02*
G75*
G03X17439000Y-9398000I-40000J0D01*
G01*
X18201000Y-7366000D02*
G75*
G03X18201000Y-7366000I-40000J0D01*
G01*
X18201000Y-7620000D02*
G75*
G03X18201000Y-7620000I-40000J0D01*
G01*
X18201000Y-7874000D02*
G75*
G03X18201000Y-7874000I-40000J0D01*
G01*
X18201000Y-8128000D02*
G75*
G03X18201000Y-8128000I-40000J0D01*
G01*
X18201000Y-8382000D02*
G75*
G03X18201000Y-8382000I-40000J0D01*
G01*
X18201000Y-8636000D02*
G75*
G03X18201000Y-8636000I-40000J0D01*
G01*
X18201000Y-8890000D02*
G75*
G03X18201000Y-8890000I-40000J0D01*
G01*
X18201000Y-9144000D02*
G75*
G03X18201000Y-9144000I-40000J0D01*
G01*
X18201000Y-9398000D02*
G75*
G03X18201000Y-9398000I-40000J0D01*
G01*
X13563600Y-8205000D02*
X13563600Y-8305000D01*
X13513600Y-8255000D02*
X13613600Y-8255000D01*
X13563600Y-8459000D02*
X13563600Y-8559000D01*
X13513600Y-8509000D02*
X13613600Y-8509000D01*
X13563600Y-8713000D02*
X13563600Y-8813000D01*
X13513600Y-8763000D02*
X13613600Y-8763000D01*
X13868400Y-8205000D02*
X13868400Y-8305000D01*
X13818400Y-8255000D02*
X13918400Y-8255000D01*
X13868400Y-8459000D02*
X13868400Y-8559000D01*
X13818400Y-8509000D02*
X13918400Y-8509000D01*
X13868400Y-8713000D02*
X13868400Y-8813000D01*
X13818400Y-8763000D02*
X13918400Y-8763000D01*
X15684500Y-9729000D02*
X15684500Y-9829000D01*
X15634500Y-9779000D02*
X15734500Y-9779000D01*
X15811500Y-10110000D02*
X15811500Y-10210000D01*
X15761500Y-10160000D02*
X15861500Y-10160000D01*
X15938500Y-9729000D02*
X15938500Y-9829000D01*
X15888500Y-9779000D02*
X15988500Y-9779000D01*
X16065500Y-10110000D02*
X16065500Y-10210000D01*
X16015500Y-10160000D02*
X16115500Y-10160000D01*
X16065500Y-10618000D02*
X16065500Y-10718000D01*
X16015500Y-10668000D02*
X16115500Y-10668000D01*
X16192500Y-9729000D02*
X16192500Y-9829000D01*
X16142500Y-9779000D02*
X16242500Y-9779000D01*
X16319500Y-10618000D02*
X16319500Y-10718000D01*
X16269500Y-10668000D02*
X16369500Y-10668000D01*
X16510000Y-7316000D02*
X16510000Y-7416000D01*
X16460000Y-7366000D02*
X16560000Y-7366000D01*
X16510000Y-7570000D02*
X16510000Y-7670000D01*
X16460000Y-7620000D02*
X16560000Y-7620000D01*
X16510000Y-7824000D02*
X16510000Y-7924000D01*
X16460000Y-7874000D02*
X16560000Y-7874000D01*
X16510000Y-8078000D02*
X16510000Y-8178000D01*
X16460000Y-8128000D02*
X16560000Y-8128000D01*
X16510000Y-8332000D02*
X16510000Y-8432000D01*
X16460000Y-8382000D02*
X16560000Y-8382000D01*
X16510000Y-8586000D02*
X16510000Y-8686000D01*
X16460000Y-8636000D02*
X16560000Y-8636000D01*
X16510000Y-8840000D02*
X16510000Y-8940000D01*
X16460000Y-8890000D02*
X16560000Y-8890000D01*
X16510000Y-9094000D02*
X16510000Y-9194000D01*
X16460000Y-9144000D02*
X16560000Y-9144000D01*
X16510000Y-9348000D02*
X16510000Y-9448000D01*
X16460000Y-9398000D02*
X16560000Y-9398000D01*
X16510000Y-9729000D02*
X16510000Y-9829000D01*
X16460000Y-9779000D02*
X16560000Y-9779000D01*
X16510000Y-10110000D02*
X16510000Y-10210000D01*
X16460000Y-10160000D02*
X16560000Y-10160000D01*
X16573500Y-10618000D02*
X16573500Y-10718000D01*
X16523500Y-10668000D02*
X16623500Y-10668000D01*
X16764000Y-7316000D02*
X16764000Y-7416000D01*
X16714000Y-7366000D02*
X16814000Y-7366000D01*
X16764000Y-7570000D02*
X16764000Y-7670000D01*
X16714000Y-7620000D02*
X16814000Y-7620000D01*
X16764000Y-7824000D02*
X16764000Y-7924000D01*
X16714000Y-7874000D02*
X16814000Y-7874000D01*
X16764000Y-8078000D02*
X16764000Y-8178000D01*
X16714000Y-8128000D02*
X16814000Y-8128000D01*
X16764000Y-8332000D02*
X16764000Y-8432000D01*
X16714000Y-8382000D02*
X16814000Y-8382000D01*
X16764000Y-8586000D02*
X16764000Y-8686000D01*
X16714000Y-8636000D02*
X16814000Y-8636000D01*
X16764000Y-8840000D02*
X16764000Y-8940000D01*
X16714000Y-8890000D02*
X16814000Y-8890000D01*
X16764000Y-9094000D02*
X16764000Y-9194000D01*
X16714000Y-9144000D02*
X16814000Y-9144000D01*
X16764000Y-9348000D02*
X16764000Y-9448000D01*
X16714000Y-9398000D02*
X16814000Y-9398000D01*
X16764000Y-9729000D02*
X16764000Y-9829000D01*
X16714000Y-9779000D02*
X16814000Y-9779000D01*
X16764000Y-10110000D02*
X16764000Y-10210000D01*
X16714000Y-10160000D02*
X16814000Y-10160000D01*
X17018000Y-7316000D02*
X17018000Y-7416000D01*
X16968000Y-7366000D02*
X17068000Y-7366000D01*
X17018000Y-7570000D02*
X17018000Y-7670000D01*
X16968000Y-7620000D02*
X17068000Y-7620000D01*
X17018000Y-7824000D02*
X17018000Y-7924000D01*
X16968000Y-7874000D02*
X17068000Y-7874000D01*
X17018000Y-8078000D02*
X17018000Y-8178000D01*
X16968000Y-8128000D02*
X17068000Y-8128000D01*
X17018000Y-8332000D02*
X17018000Y-8432000D01*
X16968000Y-8382000D02*
X17068000Y-8382000D01*
X17018000Y-8586000D02*
X17018000Y-8686000D01*
X16968000Y-8636000D02*
X17068000Y-8636000D01*
X17018000Y-8840000D02*
X17018000Y-8940000D01*
X16968000Y-8890000D02*
X17068000Y-8890000D01*
X17018000Y-9094000D02*
X17018000Y-9194000D01*
X16968000Y-9144000D02*
X17068000Y-9144000D01*
X17018000Y-9348000D02*
X17018000Y-9448000D01*
X16968000Y-9398000D02*
X17068000Y-9398000D01*
X17018000Y-10110000D02*
X17018000Y-10210000D01*
X16968000Y-10160000D02*
X17068000Y-10160000D01*
X17360900Y-10110000D02*
X17360900Y-10210000D01*
X17310900Y-10160000D02*
X17410900Y-10160000D01*
X17360900Y-10364000D02*
X17360900Y-10464000D01*
X17310900Y-10414000D02*
X17410900Y-10414000D01*
X17614900Y-10110000D02*
X17614900Y-10210000D01*
X17564900Y-10160000D02*
X17664900Y-10160000D01*
X17614900Y-10364000D02*
X17614900Y-10464000D01*
X17564900Y-10414000D02*
X17664900Y-10414000D01*
X17868900Y-10110000D02*
X17868900Y-10210000D01*
X17818900Y-10160000D02*
X17918900Y-10160000D01*
X17868900Y-10364000D02*
X17868900Y-10464000D01*
X17818900Y-10414000D02*
X17918900Y-10414000D01*
X18224500Y-9729000D02*
X18224500Y-9829000D01*
X18174500Y-9779000D02*
X18274500Y-9779000D01*
X18224500Y-10110000D02*
X18224500Y-10210000D01*
X18174500Y-10160000D02*
X18274500Y-10160000D01*
X18478500Y-9729000D02*
X18478500Y-9829000D01*
X18428500Y-9779000D02*
X18528500Y-9779000D01*
X18478500Y-10110000D02*
X18478500Y-10210000D01*
X18428500Y-10160000D02*
X18528500Y-10160000D01*
X18542000Y-7316000D02*
X18542000Y-7416000D01*
X18492000Y-7366000D02*
X18592000Y-7366000D01*
X18542000Y-7570000D02*
X18542000Y-7670000D01*
X18492000Y-7620000D02*
X18592000Y-7620000D01*
X18542000Y-7824000D02*
X18542000Y-7924000D01*
X18492000Y-7874000D02*
X18592000Y-7874000D01*
X18542000Y-8078000D02*
X18542000Y-8178000D01*
X18492000Y-8128000D02*
X18592000Y-8128000D01*
X18542000Y-8332000D02*
X18542000Y-8432000D01*
X18492000Y-8382000D02*
X18592000Y-8382000D01*
X18542000Y-8586000D02*
X18542000Y-8686000D01*
X18492000Y-8636000D02*
X18592000Y-8636000D01*
X18542000Y-8840000D02*
X18542000Y-8940000D01*
X18492000Y-8890000D02*
X18592000Y-8890000D01*
X18542000Y-9094000D02*
X18542000Y-9194000D01*
X18492000Y-9144000D02*
X18592000Y-9144000D01*
X18542000Y-9348000D02*
X18542000Y-9448000D01*
X18492000Y-9398000D02*
X18592000Y-9398000D01*
X18732500Y-10110000D02*
X18732500Y-10210000D01*
X18682500Y-10160000D02*
X18782500Y-10160000D01*
X18796000Y-7316000D02*
X18796000Y-7416000D01*
X18746000Y-7366000D02*
X18846000Y-7366000D01*
X18796000Y-7570000D02*
X18796000Y-7670000D01*
X18746000Y-7620000D02*
X18846000Y-7620000D01*
X18796000Y-7824000D02*
X18796000Y-7924000D01*
X18746000Y-7874000D02*
X18846000Y-7874000D01*
X18796000Y-8078000D02*
X18796000Y-8178000D01*
X18746000Y-8128000D02*
X18846000Y-8128000D01*
X18796000Y-8332000D02*
X18796000Y-8432000D01*
X18746000Y-8382000D02*
X18846000Y-8382000D01*
X18796000Y-8586000D02*
X18796000Y-8686000D01*
X18746000Y-8636000D02*
X18846000Y-8636000D01*
X18796000Y-8840000D02*
X18796000Y-8940000D01*
X18746000Y-8890000D02*
X18846000Y-8890000D01*
X18796000Y-9094000D02*
X18796000Y-9194000D01*
X18746000Y-9144000D02*
X18846000Y-9144000D01*
X18796000Y-9348000D02*
X18796000Y-9448000D01*
X18746000Y-9398000D02*
X18846000Y-9398000D01*
X17071034Y-10848034D02*
X17071034Y-10741967D01*
X16964967Y-10741967D01*
X16964967Y-10848034D01*
X17071034Y-10848034D01*
X17579034Y-10848034D02*
X17579034Y-10741967D01*
X17472967Y-10741967D01*
X17472967Y-10848034D01*
X17579034Y-10848034D01*
X18214034Y-10848034D02*
X18214034Y-10741967D01*
X18107967Y-10741967D01*
X18107967Y-10848034D01*
X18214034Y-10848034D01*
X18722034Y-10848034D02*
X18722034Y-10741967D01*
X18615967Y-10741967D01*
X18615967Y-10848034D01*
X18722034Y-10848034D01*
X19357034Y-9641534D02*
X19357034Y-9535467D01*
X19250967Y-9535467D01*
X19250967Y-9641534D01*
X19357034Y-9641534D01*
X19357034Y-10149534D02*
X19357034Y-10043467D01*
X19250967Y-10043467D01*
X19250967Y-10149534D01*
X19357034Y-10149534D01*
D12*
X271429Y-465714D02*
X271429Y-165714D01*
X342857Y-165714D01*
X385714Y-180000D01*
X414286Y-208571D01*
X428571Y-237143D01*
X442857Y-294286D01*
X442857Y-337143D01*
X428571Y-394286D01*
X414286Y-422857D01*
X385714Y-451429D01*
X342857Y-465714D01*
X271429Y-465714D01*
X571429Y-465714D02*
X571429Y-265714D01*
X571429Y-322857D02*
X585714Y-294286D01*
X600000Y-280000D01*
X628571Y-265714D01*
X657143Y-265714D01*
X757143Y-465714D02*
X757143Y-265714D01*
X757143Y-165714D02*
X742857Y-180000D01*
X757143Y-194286D01*
X771429Y-180000D01*
X757143Y-165714D01*
X757143Y-194286D01*
X942857Y-465714D02*
X914286Y-451429D01*
X900000Y-422857D01*
X900000Y-165714D01*
X1100000Y-465714D02*
X1071429Y-451429D01*
X1057143Y-422857D01*
X1057143Y-165714D01*
X1442857Y-465714D02*
X1442857Y-165714D01*
X1542857Y-380000D01*
X1642857Y-165714D01*
X1642857Y-465714D01*
X1914286Y-465714D02*
X1914286Y-308571D01*
X1900000Y-280000D01*
X1871429Y-265714D01*
X1814286Y-265714D01*
X1785714Y-280000D01*
X1914286Y-451429D02*
X1885714Y-465714D01*
X1814286Y-465714D01*
X1785714Y-451429D01*
X1771429Y-422857D01*
X1771429Y-394286D01*
X1785714Y-365714D01*
X1814286Y-351429D01*
X1885714Y-351429D01*
X1914286Y-337143D01*
X2057143Y-265714D02*
X2057143Y-565714D01*
X2057143Y-280000D02*
X2085714Y-265714D01*
X2142857Y-265714D01*
X2171429Y-280000D01*
X2185714Y-294286D01*
X2200000Y-322857D01*
X2200000Y-408571D01*
X2185714Y-437143D01*
X2171429Y-451429D01*
X2142857Y-465714D01*
X2085714Y-465714D01*
X2057143Y-451429D01*
X2328572Y-437143D02*
X2342857Y-451429D01*
X2328572Y-465714D01*
X2314286Y-451429D01*
X2328572Y-437143D01*
X2328572Y-465714D01*
X2328572Y-280000D02*
X2342857Y-294286D01*
X2328572Y-308571D01*
X2314286Y-294286D01*
X2328572Y-280000D01*
X2328572Y-308571D01*
X-60000Y-930000D02*
X0Y-990000D01*
X0Y-930000D02*
X-60000Y-990000D01*
X328571Y-795714D02*
X357143Y-795714D01*
X385714Y-810000D01*
X400000Y-824286D01*
X414286Y-852857D01*
X428571Y-910000D01*
X428571Y-981429D01*
X414286Y-1038571D01*
X400000Y-1067143D01*
X385714Y-1081429D01*
X357143Y-1095714D01*
X328571Y-1095714D01*
X300000Y-1081429D01*
X285714Y-1067143D01*
X271429Y-1038571D01*
X257143Y-981429D01*
X257143Y-910000D01*
X271429Y-852857D01*
X285714Y-824286D01*
X300000Y-810000D01*
X328571Y-795714D01*
X557143Y-1067143D02*
X571429Y-1081429D01*
X557143Y-1095714D01*
X542857Y-1081429D01*
X557143Y-1067143D01*
X557143Y-1095714D01*
X828571Y-795714D02*
X771428Y-795714D01*
X742857Y-810000D01*
X728571Y-824286D01*
X700000Y-867143D01*
X685714Y-924286D01*
X685714Y-1038571D01*
X700000Y-1067143D01*
X714286Y-1081429D01*
X742857Y-1095714D01*
X800000Y-1095714D01*
X828571Y-1081429D01*
X842857Y-1067143D01*
X857143Y-1038571D01*
X857143Y-967143D01*
X842857Y-938571D01*
X828571Y-924286D01*
X800000Y-910000D01*
X742857Y-910000D01*
X714286Y-924286D01*
X700000Y-938571D01*
X685714Y-967143D01*
X1042857Y-795714D02*
X1071429Y-795714D01*
X1100000Y-810000D01*
X1114286Y-824286D01*
X1128571Y-852857D01*
X1142857Y-910000D01*
X1142857Y-981429D01*
X1128571Y-1038571D01*
X1114286Y-1067143D01*
X1100000Y-1081429D01*
X1071429Y-1095714D01*
X1042857Y-1095714D01*
X1014286Y-1081429D01*
X1000000Y-1067143D01*
X985714Y-1038571D01*
X971429Y-981429D01*
X971429Y-910000D01*
X985714Y-852857D01*
X1000000Y-824286D01*
X1014286Y-810000D01*
X1042857Y-795714D01*
X1271429Y-1095714D02*
X1271429Y-895714D01*
X1271429Y-924286D02*
X1285714Y-910000D01*
X1314286Y-895714D01*
X1357143Y-895714D01*
X1385714Y-910000D01*
X1400000Y-938571D01*
X1400000Y-1095714D01*
X1400000Y-938571D02*
X1414286Y-910000D01*
X1442857Y-895714D01*
X1485714Y-895714D01*
X1514286Y-910000D01*
X1528571Y-938571D01*
X1528571Y-1095714D01*
X1671429Y-1095714D02*
X1671429Y-895714D01*
X1671429Y-924286D02*
X1685714Y-910000D01*
X1714286Y-895714D01*
X1757143Y-895714D01*
X1785714Y-910000D01*
X1800000Y-938571D01*
X1800000Y-1095714D01*
X1800000Y-938571D02*
X1814286Y-910000D01*
X1842857Y-895714D01*
X1885714Y-895714D01*
X1914286Y-910000D01*
X1928571Y-938571D01*
X1928571Y-1095714D01*
X2514286Y-781429D02*
X2257143Y-1167143D01*
X2900000Y-795714D02*
X2928571Y-795714D01*
X2957143Y-810000D01*
X2971428Y-824286D01*
X2985714Y-852857D01*
X3000000Y-910000D01*
X3000000Y-981429D01*
X2985714Y-1038571D01*
X2971428Y-1067143D01*
X2957143Y-1081429D01*
X2928571Y-1095714D01*
X2900000Y-1095714D01*
X2871428Y-1081429D01*
X2857143Y-1067143D01*
X2842857Y-1038571D01*
X2828571Y-981429D01*
X2828571Y-910000D01*
X2842857Y-852857D01*
X2857143Y-824286D01*
X2871428Y-810000D01*
X2900000Y-795714D01*
X3128571Y-1067143D02*
X3142857Y-1081429D01*
X3128571Y-1095714D01*
X3114286Y-1081429D01*
X3128571Y-1067143D01*
X3128571Y-1095714D01*
X3328571Y-795714D02*
X3357143Y-795714D01*
X3385714Y-810000D01*
X3400000Y-824286D01*
X3414286Y-852857D01*
X3428571Y-910000D01*
X3428571Y-981429D01*
X3414286Y-1038571D01*
X3400000Y-1067143D01*
X3385714Y-1081429D01*
X3357143Y-1095714D01*
X3328571Y-1095714D01*
X3300000Y-1081429D01*
X3285714Y-1067143D01*
X3271428Y-1038571D01*
X3257143Y-981429D01*
X3257143Y-910000D01*
X3271428Y-852857D01*
X3285714Y-824286D01*
X3300000Y-810000D01*
X3328571Y-795714D01*
X3542857Y-824286D02*
X3557143Y-810000D01*
X3585714Y-795714D01*
X3657143Y-795714D01*
X3685714Y-810000D01*
X3700000Y-824286D01*
X3714286Y-852857D01*
X3714286Y-881429D01*
X3700000Y-924286D01*
X3528571Y-1095714D01*
X3714286Y-1095714D01*
X3971428Y-895714D02*
X3971428Y-1095714D01*
X3900000Y-781429D02*
X3828571Y-995714D01*
X4014286Y-995714D01*
X4114286Y-795714D02*
X4114286Y-852857D01*
X4228571Y-795714D02*
X4228571Y-852857D01*
X4671429Y-1210000D02*
X4657143Y-1195714D01*
X4628571Y-1152857D01*
X4614286Y-1124286D01*
X4600000Y-1081429D01*
X4585714Y-1010000D01*
X4585714Y-952857D01*
X4600000Y-881429D01*
X4614286Y-838571D01*
X4628571Y-810000D01*
X4657143Y-767143D01*
X4671429Y-752857D01*
X4914286Y-895714D02*
X4914286Y-1095714D01*
X4842857Y-781429D02*
X4771429Y-995714D01*
X4957143Y-995714D01*
X5300000Y-1095714D02*
X5300000Y-795714D01*
X5428571Y-1095714D02*
X5428571Y-938571D01*
X5414286Y-910000D01*
X5385714Y-895714D01*
X5342857Y-895714D01*
X5314286Y-910000D01*
X5300000Y-924286D01*
X5614286Y-1095714D02*
X5585714Y-1081429D01*
X5571429Y-1067143D01*
X5557143Y-1038571D01*
X5557143Y-952857D01*
X5571429Y-924286D01*
X5585714Y-910000D01*
X5614286Y-895714D01*
X5657143Y-895714D01*
X5685714Y-910000D01*
X5700000Y-924286D01*
X5714286Y-952857D01*
X5714286Y-1038571D01*
X5700000Y-1067143D01*
X5685714Y-1081429D01*
X5657143Y-1095714D01*
X5614286Y-1095714D01*
X5885714Y-1095714D02*
X5857143Y-1081429D01*
X5842857Y-1052857D01*
X5842857Y-795714D01*
X6114286Y-1081429D02*
X6085714Y-1095714D01*
X6028571Y-1095714D01*
X6000000Y-1081429D01*
X5985714Y-1052857D01*
X5985714Y-938571D01*
X6000000Y-910000D01*
X6028571Y-895714D01*
X6085714Y-895714D01*
X6114286Y-910000D01*
X6128571Y-938571D01*
X6128571Y-967143D01*
X5985714Y-995714D01*
X6242857Y-1081429D02*
X6271429Y-1095714D01*
X6328571Y-1095714D01*
X6357143Y-1081429D01*
X6371429Y-1052857D01*
X6371429Y-1038571D01*
X6357143Y-1010000D01*
X6328571Y-995714D01*
X6285714Y-995714D01*
X6257143Y-981429D01*
X6242857Y-952857D01*
X6242857Y-938571D01*
X6257143Y-910000D01*
X6285714Y-895714D01*
X6328571Y-895714D01*
X6357143Y-910000D01*
X6471428Y-1210000D02*
X6485714Y-1195714D01*
X6514286Y-1152857D01*
X6528571Y-1124286D01*
X6542857Y-1081429D01*
X6557143Y-1010000D01*
X6557143Y-952857D01*
X6542857Y-881429D01*
X6528571Y-838571D01*
X6514286Y-810000D01*
X6485714Y-767143D01*
X6471428Y-752857D01*
X0Y-1356000D02*
G75*
G03X0Y-1356000I-40000J0D01*
G01*
X328571Y-1191714D02*
X357143Y-1191714D01*
X385714Y-1206000D01*
X400000Y-1220286D01*
X414286Y-1248857D01*
X428571Y-1306000D01*
X428571Y-1377429D01*
X414286Y-1434571D01*
X400000Y-1463143D01*
X385714Y-1477429D01*
X357143Y-1491714D01*
X328571Y-1491714D01*
X300000Y-1477429D01*
X285714Y-1463143D01*
X271429Y-1434571D01*
X257143Y-1377429D01*
X257143Y-1306000D01*
X271429Y-1248857D01*
X285714Y-1220286D01*
X300000Y-1206000D01*
X328571Y-1191714D01*
X557143Y-1463143D02*
X571429Y-1477429D01*
X557143Y-1491714D01*
X542857Y-1477429D01*
X557143Y-1463143D01*
X557143Y-1491714D01*
X742857Y-1320286D02*
X714286Y-1306000D01*
X700000Y-1291714D01*
X685714Y-1263143D01*
X685714Y-1248857D01*
X700000Y-1220286D01*
X714286Y-1206000D01*
X742857Y-1191714D01*
X800000Y-1191714D01*
X828571Y-1206000D01*
X842857Y-1220286D01*
X857143Y-1248857D01*
X857143Y-1263143D01*
X842857Y-1291714D01*
X828571Y-1306000D01*
X800000Y-1320286D01*
X742857Y-1320286D01*
X714286Y-1334571D01*
X700000Y-1348857D01*
X685714Y-1377429D01*
X685714Y-1434571D01*
X700000Y-1463143D01*
X714286Y-1477429D01*
X742857Y-1491714D01*
X800000Y-1491714D01*
X828571Y-1477429D01*
X842857Y-1463143D01*
X857143Y-1434571D01*
X857143Y-1377429D01*
X842857Y-1348857D01*
X828571Y-1334571D01*
X800000Y-1320286D01*
X1042857Y-1191714D02*
X1071429Y-1191714D01*
X1100000Y-1206000D01*
X1114286Y-1220286D01*
X1128571Y-1248857D01*
X1142857Y-1306000D01*
X1142857Y-1377429D01*
X1128571Y-1434571D01*
X1114286Y-1463143D01*
X1100000Y-1477429D01*
X1071429Y-1491714D01*
X1042857Y-1491714D01*
X1014286Y-1477429D01*
X1000000Y-1463143D01*
X985714Y-1434571D01*
X971429Y-1377429D01*
X971429Y-1306000D01*
X985714Y-1248857D01*
X1000000Y-1220286D01*
X1014286Y-1206000D01*
X1042857Y-1191714D01*
X1271429Y-1491714D02*
X1271429Y-1291714D01*
X1271429Y-1320286D02*
X1285714Y-1306000D01*
X1314286Y-1291714D01*
X1357143Y-1291714D01*
X1385714Y-1306000D01*
X1400000Y-1334571D01*
X1400000Y-1491714D01*
X1400000Y-1334571D02*
X1414286Y-1306000D01*
X1442857Y-1291714D01*
X1485714Y-1291714D01*
X1514286Y-1306000D01*
X1528571Y-1334571D01*
X1528571Y-1491714D01*
X1671429Y-1491714D02*
X1671429Y-1291714D01*
X1671429Y-1320286D02*
X1685714Y-1306000D01*
X1714286Y-1291714D01*
X1757143Y-1291714D01*
X1785714Y-1306000D01*
X1800000Y-1334571D01*
X1800000Y-1491714D01*
X1800000Y-1334571D02*
X1814286Y-1306000D01*
X1842857Y-1291714D01*
X1885714Y-1291714D01*
X1914286Y-1306000D01*
X1928571Y-1334571D01*
X1928571Y-1491714D01*
X2514286Y-1177429D02*
X2257143Y-1563143D01*
X2900000Y-1191714D02*
X2928571Y-1191714D01*
X2957143Y-1206000D01*
X2971428Y-1220286D01*
X2985714Y-1248857D01*
X3000000Y-1306000D01*
X3000000Y-1377429D01*
X2985714Y-1434571D01*
X2971428Y-1463143D01*
X2957143Y-1477429D01*
X2928571Y-1491714D01*
X2900000Y-1491714D01*
X2871428Y-1477429D01*
X2857143Y-1463143D01*
X2842857Y-1434571D01*
X2828571Y-1377429D01*
X2828571Y-1306000D01*
X2842857Y-1248857D01*
X2857143Y-1220286D01*
X2871428Y-1206000D01*
X2900000Y-1191714D01*
X3128571Y-1463143D02*
X3142857Y-1477429D01*
X3128571Y-1491714D01*
X3114286Y-1477429D01*
X3128571Y-1463143D01*
X3128571Y-1491714D01*
X3328571Y-1191714D02*
X3357143Y-1191714D01*
X3385714Y-1206000D01*
X3400000Y-1220286D01*
X3414286Y-1248857D01*
X3428571Y-1306000D01*
X3428571Y-1377429D01*
X3414286Y-1434571D01*
X3400000Y-1463143D01*
X3385714Y-1477429D01*
X3357143Y-1491714D01*
X3328571Y-1491714D01*
X3300000Y-1477429D01*
X3285714Y-1463143D01*
X3271428Y-1434571D01*
X3257143Y-1377429D01*
X3257143Y-1306000D01*
X3271428Y-1248857D01*
X3285714Y-1220286D01*
X3300000Y-1206000D01*
X3328571Y-1191714D01*
X3528571Y-1191714D02*
X3714286Y-1191714D01*
X3614286Y-1306000D01*
X3657143Y-1306000D01*
X3685714Y-1320286D01*
X3700000Y-1334571D01*
X3714286Y-1363143D01*
X3714286Y-1434571D01*
X3700000Y-1463143D01*
X3685714Y-1477429D01*
X3657143Y-1491714D01*
X3571428Y-1491714D01*
X3542857Y-1477429D01*
X3528571Y-1463143D01*
X4000000Y-1491714D02*
X3828571Y-1491714D01*
X3914286Y-1491714D02*
X3914286Y-1191714D01*
X3885714Y-1234571D01*
X3857143Y-1263143D01*
X3828571Y-1277429D01*
X4114286Y-1191714D02*
X4114286Y-1248857D01*
X4228571Y-1191714D02*
X4228571Y-1248857D01*
X4671429Y-1606000D02*
X4657143Y-1591714D01*
X4628571Y-1548857D01*
X4614286Y-1520286D01*
X4600000Y-1477429D01*
X4585714Y-1406000D01*
X4585714Y-1348857D01*
X4600000Y-1277429D01*
X4614286Y-1234571D01*
X4628571Y-1206000D01*
X4657143Y-1163143D01*
X4671429Y-1148857D01*
X4914286Y-1191714D02*
X4857143Y-1191714D01*
X4828571Y-1206000D01*
X4814286Y-1220286D01*
X4785714Y-1263143D01*
X4771429Y-1320286D01*
X4771429Y-1434571D01*
X4785714Y-1463143D01*
X4800000Y-1477429D01*
X4828571Y-1491714D01*
X4885714Y-1491714D01*
X4914286Y-1477429D01*
X4928571Y-1463143D01*
X4942857Y-1434571D01*
X4942857Y-1363143D01*
X4928571Y-1334571D01*
X4914286Y-1320286D01*
X4885714Y-1306000D01*
X4828571Y-1306000D01*
X4800000Y-1320286D01*
X4785714Y-1334571D01*
X4771429Y-1363143D01*
X5200000Y-1191714D02*
X5142857Y-1191714D01*
X5114286Y-1206000D01*
X5100000Y-1220286D01*
X5071429Y-1263143D01*
X5057143Y-1320286D01*
X5057143Y-1434571D01*
X5071429Y-1463143D01*
X5085714Y-1477429D01*
X5114286Y-1491714D01*
X5171429Y-1491714D01*
X5200000Y-1477429D01*
X5214286Y-1463143D01*
X5228571Y-1434571D01*
X5228571Y-1363143D01*
X5214286Y-1334571D01*
X5200000Y-1320286D01*
X5171429Y-1306000D01*
X5114286Y-1306000D01*
X5085714Y-1320286D01*
X5071429Y-1334571D01*
X5057143Y-1363143D01*
X5585714Y-1491714D02*
X5585714Y-1191714D01*
X5714286Y-1491714D02*
X5714286Y-1334571D01*
X5700000Y-1306000D01*
X5671428Y-1291714D01*
X5628571Y-1291714D01*
X5600000Y-1306000D01*
X5585714Y-1320286D01*
X5900000Y-1491714D02*
X5871428Y-1477429D01*
X5857143Y-1463143D01*
X5842857Y-1434571D01*
X5842857Y-1348857D01*
X5857143Y-1320286D01*
X5871428Y-1306000D01*
X5900000Y-1291714D01*
X5942857Y-1291714D01*
X5971428Y-1306000D01*
X5985714Y-1320286D01*
X6000000Y-1348857D01*
X6000000Y-1434571D01*
X5985714Y-1463143D01*
X5971428Y-1477429D01*
X5942857Y-1491714D01*
X5900000Y-1491714D01*
X6171428Y-1491714D02*
X6142857Y-1477429D01*
X6128571Y-1448857D01*
X6128571Y-1191714D01*
X6400000Y-1477429D02*
X6371429Y-1491714D01*
X6314286Y-1491714D01*
X6285714Y-1477429D01*
X6271429Y-1448857D01*
X6271429Y-1334571D01*
X6285714Y-1306000D01*
X6314286Y-1291714D01*
X6371429Y-1291714D01*
X6400000Y-1306000D01*
X6414286Y-1334571D01*
X6414286Y-1363143D01*
X6271429Y-1391714D01*
X6528571Y-1477429D02*
X6557143Y-1491714D01*
X6614286Y-1491714D01*
X6642857Y-1477429D01*
X6657143Y-1448857D01*
X6657143Y-1434571D01*
X6642857Y-1406000D01*
X6614286Y-1391714D01*
X6571429Y-1391714D01*
X6542857Y-1377429D01*
X6528571Y-1348857D01*
X6528571Y-1334571D01*
X6542857Y-1306000D01*
X6571429Y-1291714D01*
X6614286Y-1291714D01*
X6642857Y-1306000D01*
X6757143Y-1606000D02*
X6771429Y-1591714D01*
X6800000Y-1548857D01*
X6814286Y-1520286D01*
X6828571Y-1477429D01*
X6842857Y-1406000D01*
X6842857Y-1348857D01*
X6828571Y-1277429D01*
X6814286Y-1234571D01*
X6800000Y-1206000D01*
X6771429Y-1163143D01*
X6757143Y-1148857D01*
X-50000Y-1702000D02*
X-50000Y-1802000D01*
X-100000Y-1752000D02*
X0Y-1752000D01*
X428571Y-1887714D02*
X257143Y-1887714D01*
X342857Y-1887714D02*
X342857Y-1587714D01*
X314286Y-1630571D01*
X285714Y-1659143D01*
X257143Y-1673429D01*
X557143Y-1859143D02*
X571429Y-1873429D01*
X557143Y-1887714D01*
X542857Y-1873429D01*
X557143Y-1859143D01*
X557143Y-1887714D01*
X757143Y-1587714D02*
X785714Y-1587714D01*
X814286Y-1602000D01*
X828571Y-1616286D01*
X842857Y-1644857D01*
X857143Y-1702000D01*
X857143Y-1773429D01*
X842857Y-1830571D01*
X828571Y-1859143D01*
X814286Y-1873429D01*
X785714Y-1887714D01*
X757143Y-1887714D01*
X728571Y-1873429D01*
X714286Y-1859143D01*
X700000Y-1830571D01*
X685714Y-1773429D01*
X685714Y-1702000D01*
X700000Y-1644857D01*
X714286Y-1616286D01*
X728571Y-1602000D01*
X757143Y-1587714D01*
X1042857Y-1587714D02*
X1071429Y-1587714D01*
X1100000Y-1602000D01*
X1114286Y-1616286D01*
X1128571Y-1644857D01*
X1142857Y-1702000D01*
X1142857Y-1773429D01*
X1128571Y-1830571D01*
X1114286Y-1859143D01*
X1100000Y-1873429D01*
X1071429Y-1887714D01*
X1042857Y-1887714D01*
X1014286Y-1873429D01*
X1000000Y-1859143D01*
X985714Y-1830571D01*
X971429Y-1773429D01*
X971429Y-1702000D01*
X985714Y-1644857D01*
X1000000Y-1616286D01*
X1014286Y-1602000D01*
X1042857Y-1587714D01*
X1271429Y-1887714D02*
X1271429Y-1687714D01*
X1271429Y-1716286D02*
X1285714Y-1702000D01*
X1314286Y-1687714D01*
X1357143Y-1687714D01*
X1385714Y-1702000D01*
X1400000Y-1730571D01*
X1400000Y-1887714D01*
X1400000Y-1730571D02*
X1414286Y-1702000D01*
X1442857Y-1687714D01*
X1485714Y-1687714D01*
X1514286Y-1702000D01*
X1528571Y-1730571D01*
X1528571Y-1887714D01*
X1671429Y-1887714D02*
X1671429Y-1687714D01*
X1671429Y-1716286D02*
X1685714Y-1702000D01*
X1714286Y-1687714D01*
X1757143Y-1687714D01*
X1785714Y-1702000D01*
X1800000Y-1730571D01*
X1800000Y-1887714D01*
X1800000Y-1730571D02*
X1814286Y-1702000D01*
X1842857Y-1687714D01*
X1885714Y-1687714D01*
X1914286Y-1702000D01*
X1928571Y-1730571D01*
X1928571Y-1887714D01*
X2514286Y-1573429D02*
X2257143Y-1959143D01*
X2900000Y-1587714D02*
X2928571Y-1587714D01*
X2957143Y-1602000D01*
X2971428Y-1616286D01*
X2985714Y-1644857D01*
X3000000Y-1702000D01*
X3000000Y-1773429D01*
X2985714Y-1830571D01*
X2971428Y-1859143D01*
X2957143Y-1873429D01*
X2928571Y-1887714D01*
X2900000Y-1887714D01*
X2871428Y-1873429D01*
X2857143Y-1859143D01*
X2842857Y-1830571D01*
X2828571Y-1773429D01*
X2828571Y-1702000D01*
X2842857Y-1644857D01*
X2857143Y-1616286D01*
X2871428Y-1602000D01*
X2900000Y-1587714D01*
X3128571Y-1859143D02*
X3142857Y-1873429D01*
X3128571Y-1887714D01*
X3114286Y-1873429D01*
X3128571Y-1859143D01*
X3128571Y-1887714D01*
X3328571Y-1587714D02*
X3357143Y-1587714D01*
X3385714Y-1602000D01*
X3400000Y-1616286D01*
X3414286Y-1644857D01*
X3428571Y-1702000D01*
X3428571Y-1773429D01*
X3414286Y-1830571D01*
X3400000Y-1859143D01*
X3385714Y-1873429D01*
X3357143Y-1887714D01*
X3328571Y-1887714D01*
X3300000Y-1873429D01*
X3285714Y-1859143D01*
X3271428Y-1830571D01*
X3257143Y-1773429D01*
X3257143Y-1702000D01*
X3271428Y-1644857D01*
X3285714Y-1616286D01*
X3300000Y-1602000D01*
X3328571Y-1587714D01*
X3528571Y-1587714D02*
X3714286Y-1587714D01*
X3614286Y-1702000D01*
X3657143Y-1702000D01*
X3685714Y-1716286D01*
X3700000Y-1730571D01*
X3714286Y-1759143D01*
X3714286Y-1830571D01*
X3700000Y-1859143D01*
X3685714Y-1873429D01*
X3657143Y-1887714D01*
X3571428Y-1887714D01*
X3542857Y-1873429D01*
X3528571Y-1859143D01*
X3857143Y-1887714D02*
X3914286Y-1887714D01*
X3942857Y-1873429D01*
X3957143Y-1859143D01*
X3985714Y-1816286D01*
X4000000Y-1759143D01*
X4000000Y-1644857D01*
X3985714Y-1616286D01*
X3971428Y-1602000D01*
X3942857Y-1587714D01*
X3885714Y-1587714D01*
X3857143Y-1602000D01*
X3842857Y-1616286D01*
X3828571Y-1644857D01*
X3828571Y-1716286D01*
X3842857Y-1744857D01*
X3857143Y-1759143D01*
X3885714Y-1773429D01*
X3942857Y-1773429D01*
X3971428Y-1759143D01*
X3985714Y-1744857D01*
X4000000Y-1716286D01*
X4114286Y-1587714D02*
X4114286Y-1644857D01*
X4228571Y-1587714D02*
X4228571Y-1644857D01*
X4671429Y-2002000D02*
X4657143Y-1987714D01*
X4628571Y-1944857D01*
X4614286Y-1916286D01*
X4600000Y-1873429D01*
X4585714Y-1802000D01*
X4585714Y-1744857D01*
X4600000Y-1673429D01*
X4614286Y-1630571D01*
X4628571Y-1602000D01*
X4657143Y-1559143D01*
X4671429Y-1544857D01*
X4757143Y-1587714D02*
X4957143Y-1587714D01*
X4828571Y-1887714D01*
X5214286Y-1587714D02*
X5071429Y-1587714D01*
X5057143Y-1730571D01*
X5071429Y-1716286D01*
X5100000Y-1702000D01*
X5171429Y-1702000D01*
X5200000Y-1716286D01*
X5214286Y-1730571D01*
X5228571Y-1759143D01*
X5228571Y-1830571D01*
X5214286Y-1859143D01*
X5200000Y-1873429D01*
X5171429Y-1887714D01*
X5100000Y-1887714D01*
X5071429Y-1873429D01*
X5057143Y-1859143D01*
X5585714Y-1887714D02*
X5585714Y-1587714D01*
X5714286Y-1887714D02*
X5714286Y-1730571D01*
X5700000Y-1702000D01*
X5671428Y-1687714D01*
X5628571Y-1687714D01*
X5600000Y-1702000D01*
X5585714Y-1716286D01*
X5900000Y-1887714D02*
X5871428Y-1873429D01*
X5857143Y-1859143D01*
X5842857Y-1830571D01*
X5842857Y-1744857D01*
X5857143Y-1716286D01*
X5871428Y-1702000D01*
X5900000Y-1687714D01*
X5942857Y-1687714D01*
X5971428Y-1702000D01*
X5985714Y-1716286D01*
X6000000Y-1744857D01*
X6000000Y-1830571D01*
X5985714Y-1859143D01*
X5971428Y-1873429D01*
X5942857Y-1887714D01*
X5900000Y-1887714D01*
X6171428Y-1887714D02*
X6142857Y-1873429D01*
X6128571Y-1844857D01*
X6128571Y-1587714D01*
X6400000Y-1873429D02*
X6371429Y-1887714D01*
X6314286Y-1887714D01*
X6285714Y-1873429D01*
X6271429Y-1844857D01*
X6271429Y-1730571D01*
X6285714Y-1702000D01*
X6314286Y-1687714D01*
X6371429Y-1687714D01*
X6400000Y-1702000D01*
X6414286Y-1730571D01*
X6414286Y-1759143D01*
X6271429Y-1787714D01*
X6528571Y-1873429D02*
X6557143Y-1887714D01*
X6614286Y-1887714D01*
X6642857Y-1873429D01*
X6657143Y-1844857D01*
X6657143Y-1830571D01*
X6642857Y-1802000D01*
X6614286Y-1787714D01*
X6571429Y-1787714D01*
X6542857Y-1773429D01*
X6528571Y-1744857D01*
X6528571Y-1730571D01*
X6542857Y-1702000D01*
X6571429Y-1687714D01*
X6614286Y-1687714D01*
X6642857Y-1702000D01*
X6757143Y-2002000D02*
X6771429Y-1987714D01*
X6800000Y-1944857D01*
X6814286Y-1916286D01*
X6828571Y-1873429D01*
X6842857Y-1802000D01*
X6842857Y-1744857D01*
X6828571Y-1673429D01*
X6814286Y-1630571D01*
X6800000Y-1602000D01*
X6771429Y-1559143D01*
X6757143Y-1544857D01*
X-21966Y-2201034D02*
X-21966Y-2094966D01*
X-128033Y-2094966D01*
X-128033Y-2201034D01*
X-21966Y-2201034D01*
X428571Y-2283714D02*
X257143Y-2283714D01*
X342857Y-2283714D02*
X342857Y-1983714D01*
X314286Y-2026571D01*
X285714Y-2055143D01*
X257143Y-2069429D01*
X557143Y-2255143D02*
X571429Y-2269429D01*
X557143Y-2283714D01*
X542857Y-2269429D01*
X557143Y-2255143D01*
X557143Y-2283714D01*
X842857Y-1983714D02*
X700000Y-1983714D01*
X685714Y-2126571D01*
X700000Y-2112286D01*
X728571Y-2098000D01*
X800000Y-2098000D01*
X828571Y-2112286D01*
X842857Y-2126571D01*
X857143Y-2155143D01*
X857143Y-2226571D01*
X842857Y-2255143D01*
X828571Y-2269429D01*
X800000Y-2283714D01*
X728571Y-2283714D01*
X700000Y-2269429D01*
X685714Y-2255143D01*
X1042857Y-1983714D02*
X1071429Y-1983714D01*
X1100000Y-1998000D01*
X1114286Y-2012286D01*
X1128571Y-2040857D01*
X1142857Y-2098000D01*
X1142857Y-2169429D01*
X1128571Y-2226571D01*
X1114286Y-2255143D01*
X1100000Y-2269429D01*
X1071429Y-2283714D01*
X1042857Y-2283714D01*
X1014286Y-2269429D01*
X1000000Y-2255143D01*
X985714Y-2226571D01*
X971429Y-2169429D01*
X971429Y-2098000D01*
X985714Y-2040857D01*
X1000000Y-2012286D01*
X1014286Y-1998000D01*
X1042857Y-1983714D01*
X1271429Y-2283714D02*
X1271429Y-2083714D01*
X1271429Y-2112286D02*
X1285714Y-2098000D01*
X1314286Y-2083714D01*
X1357143Y-2083714D01*
X1385714Y-2098000D01*
X1400000Y-2126571D01*
X1400000Y-2283714D01*
X1400000Y-2126571D02*
X1414286Y-2098000D01*
X1442857Y-2083714D01*
X1485714Y-2083714D01*
X1514286Y-2098000D01*
X1528571Y-2126571D01*
X1528571Y-2283714D01*
X1671429Y-2283714D02*
X1671429Y-2083714D01*
X1671429Y-2112286D02*
X1685714Y-2098000D01*
X1714286Y-2083714D01*
X1757143Y-2083714D01*
X1785714Y-2098000D01*
X1800000Y-2126571D01*
X1800000Y-2283714D01*
X1800000Y-2126571D02*
X1814286Y-2098000D01*
X1842857Y-2083714D01*
X1885714Y-2083714D01*
X1914286Y-2098000D01*
X1928571Y-2126571D01*
X1928571Y-2283714D01*
X2514286Y-1969429D02*
X2257143Y-2355143D01*
X2900000Y-1983714D02*
X2928571Y-1983714D01*
X2957143Y-1998000D01*
X2971428Y-2012286D01*
X2985714Y-2040857D01*
X3000000Y-2098000D01*
X3000000Y-2169429D01*
X2985714Y-2226571D01*
X2971428Y-2255143D01*
X2957143Y-2269429D01*
X2928571Y-2283714D01*
X2900000Y-2283714D01*
X2871428Y-2269429D01*
X2857143Y-2255143D01*
X2842857Y-2226571D01*
X2828571Y-2169429D01*
X2828571Y-2098000D01*
X2842857Y-2040857D01*
X2857143Y-2012286D01*
X2871428Y-1998000D01*
X2900000Y-1983714D01*
X3128571Y-2255143D02*
X3142857Y-2269429D01*
X3128571Y-2283714D01*
X3114286Y-2269429D01*
X3128571Y-2255143D01*
X3128571Y-2283714D01*
X3328571Y-1983714D02*
X3357143Y-1983714D01*
X3385714Y-1998000D01*
X3400000Y-2012286D01*
X3414286Y-2040857D01*
X3428571Y-2098000D01*
X3428571Y-2169429D01*
X3414286Y-2226571D01*
X3400000Y-2255143D01*
X3385714Y-2269429D01*
X3357143Y-2283714D01*
X3328571Y-2283714D01*
X3300000Y-2269429D01*
X3285714Y-2255143D01*
X3271428Y-2226571D01*
X3257143Y-2169429D01*
X3257143Y-2098000D01*
X3271428Y-2040857D01*
X3285714Y-2012286D01*
X3300000Y-1998000D01*
X3328571Y-1983714D01*
X3700000Y-1983714D02*
X3557143Y-1983714D01*
X3542857Y-2126571D01*
X3557143Y-2112286D01*
X3585714Y-2098000D01*
X3657143Y-2098000D01*
X3685714Y-2112286D01*
X3700000Y-2126571D01*
X3714286Y-2155143D01*
X3714286Y-2226571D01*
X3700000Y-2255143D01*
X3685714Y-2269429D01*
X3657143Y-2283714D01*
X3585714Y-2283714D01*
X3557143Y-2269429D01*
X3542857Y-2255143D01*
X3857143Y-2283714D02*
X3914286Y-2283714D01*
X3942857Y-2269429D01*
X3957143Y-2255143D01*
X3985714Y-2212286D01*
X4000000Y-2155143D01*
X4000000Y-2040857D01*
X3985714Y-2012286D01*
X3971428Y-1998000D01*
X3942857Y-1983714D01*
X3885714Y-1983714D01*
X3857143Y-1998000D01*
X3842857Y-2012286D01*
X3828571Y-2040857D01*
X3828571Y-2112286D01*
X3842857Y-2140857D01*
X3857143Y-2155143D01*
X3885714Y-2169429D01*
X3942857Y-2169429D01*
X3971428Y-2155143D01*
X3985714Y-2140857D01*
X4000000Y-2112286D01*
X4114286Y-1983714D02*
X4114286Y-2040857D01*
X4228571Y-1983714D02*
X4228571Y-2040857D01*
X4671429Y-2398000D02*
X4657143Y-2383714D01*
X4628571Y-2340857D01*
X4614286Y-2312286D01*
X4600000Y-2269429D01*
X4585714Y-2198000D01*
X4585714Y-2140857D01*
X4600000Y-2069429D01*
X4614286Y-2026571D01*
X4628571Y-1998000D01*
X4657143Y-1955143D01*
X4671429Y-1940857D01*
X4914286Y-1983714D02*
X4857143Y-1983714D01*
X4828571Y-1998000D01*
X4814286Y-2012286D01*
X4785714Y-2055143D01*
X4771429Y-2112286D01*
X4771429Y-2226571D01*
X4785714Y-2255143D01*
X4800000Y-2269429D01*
X4828571Y-2283714D01*
X4885714Y-2283714D01*
X4914286Y-2269429D01*
X4928571Y-2255143D01*
X4942857Y-2226571D01*
X4942857Y-2155143D01*
X4928571Y-2126571D01*
X4914286Y-2112286D01*
X4885714Y-2098000D01*
X4828571Y-2098000D01*
X4800000Y-2112286D01*
X4785714Y-2126571D01*
X4771429Y-2155143D01*
X5300000Y-2283714D02*
X5300000Y-1983714D01*
X5428571Y-2283714D02*
X5428571Y-2126571D01*
X5414286Y-2098000D01*
X5385714Y-2083714D01*
X5342857Y-2083714D01*
X5314286Y-2098000D01*
X5300000Y-2112286D01*
X5614286Y-2283714D02*
X5585714Y-2269429D01*
X5571429Y-2255143D01*
X5557143Y-2226571D01*
X5557143Y-2140857D01*
X5571429Y-2112286D01*
X5585714Y-2098000D01*
X5614286Y-2083714D01*
X5657143Y-2083714D01*
X5685714Y-2098000D01*
X5700000Y-2112286D01*
X5714286Y-2140857D01*
X5714286Y-2226571D01*
X5700000Y-2255143D01*
X5685714Y-2269429D01*
X5657143Y-2283714D01*
X5614286Y-2283714D01*
X5885714Y-2283714D02*
X5857143Y-2269429D01*
X5842857Y-2240857D01*
X5842857Y-1983714D01*
X6114286Y-2269429D02*
X6085714Y-2283714D01*
X6028571Y-2283714D01*
X6000000Y-2269429D01*
X5985714Y-2240857D01*
X5985714Y-2126571D01*
X6000000Y-2098000D01*
X6028571Y-2083714D01*
X6085714Y-2083714D01*
X6114286Y-2098000D01*
X6128571Y-2126571D01*
X6128571Y-2155143D01*
X5985714Y-2183714D01*
X6242857Y-2269429D02*
X6271429Y-2283714D01*
X6328571Y-2283714D01*
X6357143Y-2269429D01*
X6371429Y-2240857D01*
X6371429Y-2226571D01*
X6357143Y-2198000D01*
X6328571Y-2183714D01*
X6285714Y-2183714D01*
X6257143Y-2169429D01*
X6242857Y-2140857D01*
X6242857Y-2126571D01*
X6257143Y-2098000D01*
X6285714Y-2083714D01*
X6328571Y-2083714D01*
X6357143Y-2098000D01*
X6471428Y-2398000D02*
X6485714Y-2383714D01*
X6514286Y-2340857D01*
X6528571Y-2312286D01*
X6542857Y-2269429D01*
X6557143Y-2198000D01*
X6557143Y-2140857D01*
X6542857Y-2069429D01*
X6528571Y-2026571D01*
X6514286Y-1998000D01*
X6485714Y-1955143D01*
X6471428Y-1940857D01*
M02*
