M48
;DRILL file {KiCad 4.0.7} date 12/18/18 08:38:43
;FORMAT={-:-/ absolute / metric / decimal}
FMAT,2
METRIC,TZ
T1C0.600
T2C0.762
T3C0.800
T4C1.000
T5C1.500
%
G90
G05
M71
T1
X146.05Y-73.66
X146.685Y-104.14
X153.67Y-101.6
X153.67Y-104.648
X154.686Y-98.171
X163.576Y-99.568
T2
X137.16Y-92.71
X137.16Y-97.79
T3
X142.24Y-73.66
X142.24Y-76.2
X142.24Y-78.74
X142.24Y-81.28
X142.24Y-83.82
X142.24Y-86.36
X142.24Y-88.9
X142.24Y-91.44
X142.24Y-93.98
X142.24Y-96.52
X142.24Y-99.06
X142.24Y-101.6
X142.24Y-104.14
X142.24Y-106.68
X149.86Y-73.66
X149.86Y-76.2
X149.86Y-78.74
X149.86Y-81.28
X149.86Y-83.82
X149.86Y-86.36
X149.86Y-88.9
X149.86Y-91.44
X149.86Y-93.98
X149.86Y-96.52
X149.86Y-99.06
X149.86Y-101.6
X149.86Y-104.14
X149.86Y-106.68
X153.67Y-73.66
X153.67Y-76.2
X153.67Y-78.74
X153.67Y-81.28
X153.67Y-83.82
X153.67Y-86.36
X153.67Y-88.9
X153.67Y-91.44
X153.67Y-93.98
X161.29Y-73.66
X161.29Y-76.2
X161.29Y-78.74
X161.29Y-81.28
X161.29Y-83.82
X161.29Y-86.36
X161.29Y-88.9
X161.29Y-91.44
X161.29Y-93.98
X165.1Y-73.66
X165.1Y-76.2
X165.1Y-78.74
X165.1Y-81.28
X165.1Y-83.82
X165.1Y-86.36
X165.1Y-88.9
X165.1Y-91.44
X167.64Y-73.66
X167.64Y-76.2
X167.64Y-78.74
X167.64Y-81.28
X167.64Y-83.82
X167.64Y-86.36
X167.64Y-88.9
X167.64Y-91.44
X170.18Y-73.66
X170.18Y-76.2
X170.18Y-78.74
X170.18Y-81.28
X170.18Y-83.82
X170.18Y-86.36
X170.18Y-88.9
X170.18Y-91.44
X173.99Y-73.66
X173.99Y-76.2
X173.99Y-78.74
X173.99Y-81.28
X173.99Y-83.82
X173.99Y-86.36
X173.99Y-88.9
X173.99Y-91.44
X173.99Y-93.98
X181.61Y-73.66
X181.61Y-76.2
X181.61Y-78.74
X181.61Y-81.28
X181.61Y-83.82
X181.61Y-86.36
X181.61Y-88.9
X181.61Y-91.44
X181.61Y-93.98
X185.42Y-73.66
X185.42Y-76.2
X185.42Y-78.74
X185.42Y-81.28
X185.42Y-83.82
X185.42Y-86.36
X185.42Y-88.9
X185.42Y-91.44
X187.96Y-73.66
X187.96Y-76.2
X187.96Y-78.74
X187.96Y-81.28
X187.96Y-83.82
X187.96Y-86.36
X187.96Y-88.9
X187.96Y-91.44
T4
X135.89Y-82.55
X135.89Y-85.09
X135.89Y-87.63
X138.43Y-82.55
X138.43Y-85.09
X138.43Y-87.63
X156.845Y-97.79
X156.845Y-101.6
X159.385Y-97.79
X159.385Y-101.6
X160.655Y-106.68
X161.925Y-97.79
X161.925Y-101.6
X163.195Y-106.68
X165.1Y-97.79
X165.1Y-101.6
X165.735Y-106.68
X167.64Y-97.79
X167.64Y-101.6
X170.18Y-97.79
X170.18Y-101.6
X173.609Y-98.933
X173.609Y-101.473
X176.149Y-98.933
X176.149Y-101.473
X178.689Y-98.933
X178.689Y-101.473
X182.245Y-97.79
X182.245Y-101.6
X184.785Y-97.79
X184.785Y-101.6
X187.325Y-97.79
X187.325Y-101.6
T5
X170.18Y-107.95
X175.26Y-107.95
X181.61Y-107.95
X186.69Y-107.95
X193.04Y-95.885
X193.04Y-100.965
T0
M30
