%FSLAX45Y45*%
G04 Gerber Fmt 4.5, Leading zero omitted, Abs format (unit mm)*
G04 Created by KiCad (PCBNEW (5.0.2)-1) date 30/06/2019 14:54:17*
%MOMM*%
%LPD*%
G01*
G04 APERTURE LIST*
%ADD10C,0.200000*%
%ADD11C,0.300000*%
G04 APERTURE END LIST*
D10*
X14017752Y-6187948D02*
X14017752Y-12156948D01*
X22971252Y-6187948D02*
X14017752Y-6187948D01*
X22971252Y-12156948D02*
X22971252Y-6187948D01*
X14017752Y-12156948D02*
X22971252Y-12156948D01*
D10*
X14193252Y-9259048D02*
X14223252Y-9289048D01*
X14223252Y-9259048D02*
X14193252Y-9289048D01*
X14409152Y-8890748D02*
X14439152Y-8920748D01*
X14439152Y-8890748D02*
X14409152Y-8920748D01*
X14510752Y-9220948D02*
X14540752Y-9250948D01*
X14540752Y-9220948D02*
X14510752Y-9250948D01*
X14511006Y-9347694D02*
X14541006Y-9377694D01*
X14541006Y-9347694D02*
X14511006Y-9377694D01*
X14612352Y-8370048D02*
X14642352Y-8400048D01*
X14642352Y-8370048D02*
X14612352Y-8400048D01*
X14713952Y-8331948D02*
X14743952Y-8361948D01*
X14743952Y-8331948D02*
X14713952Y-8361948D01*
X14802852Y-8370048D02*
X14832852Y-8400048D01*
X14832852Y-8370048D02*
X14802852Y-8400048D01*
X14853652Y-7735048D02*
X14883652Y-7765048D01*
X14883652Y-7735048D02*
X14853652Y-7765048D01*
X14891752Y-8331948D02*
X14921752Y-8361948D01*
X14921752Y-8331948D02*
X14891752Y-8361948D01*
X14967952Y-8014448D02*
X14997952Y-8044448D01*
X14997952Y-8014448D02*
X14967952Y-8044448D01*
X15018752Y-9627348D02*
X15048752Y-9657348D01*
X15048752Y-9627348D02*
X15018752Y-9657348D01*
X15158452Y-8128748D02*
X15188452Y-8158748D01*
X15188452Y-8128748D02*
X15158452Y-8158748D01*
X15247352Y-9995648D02*
X15277352Y-10025648D01*
X15277352Y-9995648D02*
X15247352Y-10025648D01*
X15247352Y-10097248D02*
X15277352Y-10127248D01*
X15277352Y-10097248D02*
X15247352Y-10127248D01*
X15285452Y-8027148D02*
X15315452Y-8057148D01*
X15315452Y-8027148D02*
X15285452Y-8057148D01*
X15348952Y-9614648D02*
X15378952Y-9644648D01*
X15378952Y-9614648D02*
X15348952Y-9644648D01*
X15412452Y-7112748D02*
X15442452Y-7142748D01*
X15442452Y-7112748D02*
X15412452Y-7142748D01*
X15425152Y-8649448D02*
X15455152Y-8679448D01*
X15455152Y-8649448D02*
X15425152Y-8679448D01*
X15425152Y-8799448D02*
X15455152Y-8829448D01*
X15455152Y-8799448D02*
X15425152Y-8829448D01*
X15425152Y-9157448D02*
X15455152Y-9187448D01*
X15455152Y-9157448D02*
X15425152Y-9187448D01*
X15425152Y-9259048D02*
X15455152Y-9289048D01*
X15455152Y-9259048D02*
X15425152Y-9289048D01*
X15425152Y-9373348D02*
X15455152Y-9403348D01*
X15455152Y-9373348D02*
X15425152Y-9403348D01*
X15501352Y-9830548D02*
X15531352Y-9860548D01*
X15531352Y-9830548D02*
X15501352Y-9860548D01*
X15539452Y-8966948D02*
X15569452Y-8996948D01*
X15569452Y-8966948D02*
X15539452Y-8996948D01*
X15552152Y-8331948D02*
X15582152Y-8361948D01*
X15582152Y-8331948D02*
X15552152Y-8361948D01*
X15564852Y-9627348D02*
X15594852Y-9657348D01*
X15594852Y-9627348D02*
X15564852Y-9657348D01*
X15717252Y-7061948D02*
X15747252Y-7091948D01*
X15747252Y-7061948D02*
X15717252Y-7091948D01*
X15717252Y-7658848D02*
X15747252Y-7688848D01*
X15747252Y-7658848D02*
X15717252Y-7688848D01*
X15717252Y-9995648D02*
X15747252Y-10025648D01*
X15747252Y-9995648D02*
X15717252Y-10025648D01*
X15780752Y-9347948D02*
X15810752Y-9377948D01*
X15810752Y-9347948D02*
X15780752Y-9377948D01*
X15844252Y-7506448D02*
X15874252Y-7536448D01*
X15874252Y-7506448D02*
X15844252Y-7536448D01*
X15844252Y-8687548D02*
X15874252Y-8717548D01*
X15874252Y-8687548D02*
X15844252Y-8717548D01*
X16098252Y-7989048D02*
X16128252Y-8019048D01*
X16128252Y-7989048D02*
X16098252Y-8019048D01*
X16606252Y-9017748D02*
X16636252Y-9047748D01*
X16636252Y-9017748D02*
X16606252Y-9047748D01*
X16644352Y-10046448D02*
X16674352Y-10076448D01*
X16674352Y-10046448D02*
X16644352Y-10076448D01*
X16745952Y-10503648D02*
X16775952Y-10533648D01*
X16775952Y-10503648D02*
X16745952Y-10533648D01*
X16745952Y-10630648D02*
X16775952Y-10660648D01*
X16775952Y-10630648D02*
X16745952Y-10660648D01*
X16822152Y-9220948D02*
X16852152Y-9250948D01*
X16852152Y-9220948D02*
X16822152Y-9250948D01*
X16834852Y-9728948D02*
X16864852Y-9758948D01*
X16864852Y-9728948D02*
X16834852Y-9758948D01*
X17279352Y-8204948D02*
X17309352Y-8234948D01*
X17309352Y-8204948D02*
X17279352Y-8234948D01*
X17330152Y-7582648D02*
X17360152Y-7612648D01*
X17360152Y-7582648D02*
X17330152Y-7612648D01*
X17330152Y-7785848D02*
X17360152Y-7815848D01*
X17360152Y-7785848D02*
X17330152Y-7815848D01*
X17330152Y-9728948D02*
X17360152Y-9758948D01*
X17360152Y-9728948D02*
X17330152Y-9758948D01*
X17342852Y-9474948D02*
X17372852Y-9504948D01*
X17372852Y-9474948D02*
X17342852Y-9504948D01*
X17368252Y-8166848D02*
X17398252Y-8196848D01*
X17398252Y-8166848D02*
X17368252Y-8196848D01*
X17609552Y-7608048D02*
X17639552Y-7638048D01*
X17639552Y-7608048D02*
X17609552Y-7638048D01*
X17634952Y-9640048D02*
X17664952Y-9670048D01*
X17664952Y-9640048D02*
X17634952Y-9670048D01*
X17812752Y-9424148D02*
X17842752Y-9454148D01*
X17842752Y-9424148D02*
X17812752Y-9454148D01*
X17825452Y-9640048D02*
X17855452Y-9670048D01*
X17855452Y-9640048D02*
X17825452Y-9670048D01*
X17838152Y-9805148D02*
X17868152Y-9835148D01*
X17868152Y-9805148D02*
X17838152Y-9835148D01*
X17914352Y-8878048D02*
X17944352Y-8908048D01*
X17944352Y-8878048D02*
X17914352Y-8908048D01*
X18041352Y-9500348D02*
X18071352Y-9530348D01*
X18071352Y-9500348D02*
X18041352Y-9530348D01*
X18231852Y-9640048D02*
X18261852Y-9670048D01*
X18261852Y-9640048D02*
X18231852Y-9670048D01*
X18295352Y-9449548D02*
X18325352Y-9479548D01*
X18325352Y-9449548D02*
X18295352Y-9479548D01*
X18320752Y-8281148D02*
X18350752Y-8311148D01*
X18350752Y-8281148D02*
X18320752Y-8311148D01*
X18320752Y-8979648D02*
X18350752Y-9009648D01*
X18350752Y-8979648D02*
X18320752Y-9009648D01*
X18320752Y-10363948D02*
X18350752Y-10393948D01*
X18350752Y-10363948D02*
X18320752Y-10393948D01*
X18320752Y-10617948D02*
X18350752Y-10647948D01*
X18350752Y-10617948D02*
X18320752Y-10647948D01*
X18574752Y-8522448D02*
X18604752Y-8552448D01*
X18604752Y-8522448D02*
X18574752Y-8552448D01*
X18650952Y-9640048D02*
X18680952Y-9670048D01*
X18680952Y-9640048D02*
X18650952Y-9670048D01*
X18828752Y-7430248D02*
X18858752Y-7460248D01*
X18858752Y-7430248D02*
X18828752Y-7460248D01*
X19108152Y-9335248D02*
X19138152Y-9365248D01*
X19138152Y-9335248D02*
X19108152Y-9365248D01*
X19146252Y-10173448D02*
X19176252Y-10203448D01*
X19176252Y-10173448D02*
X19146252Y-10203448D01*
X19209752Y-9919448D02*
X19239752Y-9949448D01*
X19239752Y-9919448D02*
X19209752Y-9949448D01*
X19222452Y-10046448D02*
X19252452Y-10076448D01*
X19252452Y-10046448D02*
X19222452Y-10076448D01*
X19222452Y-10363948D02*
X19252452Y-10393948D01*
X19252452Y-10363948D02*
X19222452Y-10393948D01*
X19222452Y-10490948D02*
X19252452Y-10520948D01*
X19252452Y-10490948D02*
X19222452Y-10520948D01*
X19285952Y-8662148D02*
X19315952Y-8692148D01*
X19315952Y-8662148D02*
X19285952Y-8692148D01*
X19285952Y-8801848D02*
X19315952Y-8831848D01*
X19315952Y-8801848D02*
X19285952Y-8831848D01*
X19349452Y-9474948D02*
X19379452Y-9504948D01*
X19379452Y-9474948D02*
X19349452Y-9504948D01*
X19349452Y-9576548D02*
X19379452Y-9606548D01*
X19379452Y-9576548D02*
X19349452Y-9606548D01*
X19400252Y-8458948D02*
X19430252Y-8488948D01*
X19430252Y-8458948D02*
X19400252Y-8488948D01*
X19425652Y-10059148D02*
X19455652Y-10089148D01*
X19455652Y-10059148D02*
X19425652Y-10089148D01*
X19425652Y-10363948D02*
X19455652Y-10393948D01*
X19455652Y-10363948D02*
X19425652Y-10393948D01*
X19476452Y-9665448D02*
X19506452Y-9695448D01*
X19506452Y-9665448D02*
X19476452Y-9695448D01*
X19514552Y-9754348D02*
X19544552Y-9784348D01*
X19544552Y-9754348D02*
X19514552Y-9784348D01*
X19552652Y-7950948D02*
X19582652Y-7980948D01*
X19582652Y-7950948D02*
X19552652Y-7980948D01*
X19552652Y-11214848D02*
X19582652Y-11244848D01*
X19582652Y-11214848D02*
X19552652Y-11244848D01*
X19628852Y-8357348D02*
X19658852Y-8387348D01*
X19658852Y-8357348D02*
X19628852Y-8387348D01*
X19654252Y-8243048D02*
X19684252Y-8273048D01*
X19684252Y-8243048D02*
X19654252Y-8273048D01*
X19666952Y-9601948D02*
X19696952Y-9631948D01*
X19696952Y-9601948D02*
X19666952Y-9631948D01*
X19666952Y-9830548D02*
X19696952Y-9860548D01*
X19696952Y-9830548D02*
X19666952Y-9860548D01*
X19717752Y-10706848D02*
X19747752Y-10736848D01*
X19747752Y-10706848D02*
X19717752Y-10736848D01*
X19781252Y-9055848D02*
X19811252Y-9085848D01*
X19811252Y-9055848D02*
X19781252Y-9085848D01*
X20314652Y-6795248D02*
X20344652Y-6825248D01*
X20344652Y-6795248D02*
X20314652Y-6825248D01*
X20390852Y-10732248D02*
X20420852Y-10762248D01*
X20420852Y-10732248D02*
X20390852Y-10762248D01*
X20428952Y-11646648D02*
X20458952Y-11676648D01*
X20458952Y-11646648D02*
X20428952Y-11676648D01*
X20505152Y-11722848D02*
X20535152Y-11752848D01*
X20535152Y-11722848D02*
X20505152Y-11752848D01*
X20555952Y-10071848D02*
X20585952Y-10101848D01*
X20585952Y-10071848D02*
X20555952Y-10101848D01*
X20682952Y-8154148D02*
X20712952Y-8184148D01*
X20712952Y-8154148D02*
X20682952Y-8184148D01*
X20682952Y-8255748D02*
X20712952Y-8285748D01*
X20712952Y-8255748D02*
X20682952Y-8285748D01*
X20695652Y-7227048D02*
X20725652Y-7257048D01*
X20725652Y-7227048D02*
X20695652Y-7257048D01*
X20708352Y-9474948D02*
X20738352Y-9504948D01*
X20738352Y-9474948D02*
X20708352Y-9504948D01*
X20911552Y-11075148D02*
X20941552Y-11105148D01*
X20941552Y-11075148D02*
X20911552Y-11105148D01*
X20924252Y-8928848D02*
X20954252Y-8958848D01*
X20954252Y-8928848D02*
X20924252Y-8958848D01*
X20949652Y-6858748D02*
X20979652Y-6888748D01*
X20979652Y-6858748D02*
X20949652Y-6888748D01*
X20975052Y-10757648D02*
X21005052Y-10787648D01*
X21005052Y-10757648D02*
X20975052Y-10787648D01*
X21000452Y-9170148D02*
X21030452Y-9200148D01*
X21030452Y-9170148D02*
X21000452Y-9200148D01*
X21063952Y-10402048D02*
X21093952Y-10432048D01*
X21093952Y-10402048D02*
X21063952Y-10432048D01*
X21241752Y-11138648D02*
X21271752Y-11168648D01*
X21271752Y-11138648D02*
X21241752Y-11168648D01*
X21254452Y-7341348D02*
X21284452Y-7371348D01*
X21284452Y-7341348D02*
X21254452Y-7371348D01*
X21394152Y-8712948D02*
X21424152Y-8742948D01*
X21424152Y-8712948D02*
X21394152Y-8742948D01*
X21571952Y-9170148D02*
X21601952Y-9200148D01*
X21601952Y-9170148D02*
X21571952Y-9200148D01*
X21571952Y-9551148D02*
X21601952Y-9581148D01*
X21601952Y-9551148D02*
X21571952Y-9581148D01*
X21673552Y-11303748D02*
X21703552Y-11333748D01*
X21703552Y-11303748D02*
X21673552Y-11333748D01*
X21762452Y-9081248D02*
X21792452Y-9111248D01*
X21792452Y-9081248D02*
X21762452Y-9111248D01*
X21762452Y-9195548D02*
X21792452Y-9225548D01*
X21792452Y-9195548D02*
X21762452Y-9225548D01*
X21762452Y-9500348D02*
X21792452Y-9530348D01*
X21792452Y-9500348D02*
X21762452Y-9530348D01*
X21762452Y-9601948D02*
X21792452Y-9631948D01*
X21792452Y-9601948D02*
X21762452Y-9631948D01*
X21851352Y-10478248D02*
X21881352Y-10508248D01*
X21881352Y-10478248D02*
X21851352Y-10508248D01*
X21959302Y-11164048D02*
X21989302Y-11194048D01*
X21989302Y-11164048D02*
X21959302Y-11194048D01*
X21959302Y-11341848D02*
X21989302Y-11371848D01*
X21989302Y-11341848D02*
X21959302Y-11371848D01*
X22016452Y-7493748D02*
X22046452Y-7523748D01*
X22046452Y-7493748D02*
X22016452Y-7523748D01*
X22118052Y-8077948D02*
X22148052Y-8107948D01*
X22148052Y-8077948D02*
X22118052Y-8107948D01*
X22118052Y-10351248D02*
X22148052Y-10381248D01*
X22148052Y-10351248D02*
X22118052Y-10381248D01*
X22174152Y-9696148D02*
X22204152Y-9726148D01*
X22204152Y-9696148D02*
X22174152Y-9726148D01*
X22219652Y-11252948D02*
X22249652Y-11282948D01*
X22249652Y-11252948D02*
X22219652Y-11282948D01*
X22232352Y-10744948D02*
X22262352Y-10774948D01*
X22262352Y-10744948D02*
X22232352Y-10774948D01*
X22232352Y-10998948D02*
X22262352Y-11028948D01*
X22262352Y-10998948D02*
X22232352Y-11028948D01*
X22295852Y-9195548D02*
X22325852Y-9225548D01*
X22325852Y-9195548D02*
X22295852Y-9225548D01*
X22308552Y-11125948D02*
X22338552Y-11155948D01*
X22338552Y-11125948D02*
X22308552Y-11155948D01*
X22402752Y-10338548D02*
X22432752Y-10368548D01*
X22432752Y-10338548D02*
X22402752Y-10368548D01*
X14365252Y-8410448D02*
G75*
G03X14365252Y-8410448I-30000J0D01*
G01*
X14543052Y-9032748D02*
G75*
G03X14543052Y-9032748I-30000J0D01*
G01*
X14898652Y-7457948D02*
G75*
G03X14898652Y-7457948I-30000J0D01*
G01*
X15012952Y-10048748D02*
G75*
G03X15012952Y-10048748I-30000J0D01*
G01*
X15470152Y-8981948D02*
G75*
G03X15470152Y-8981948I-30000J0D01*
G01*
X16524252Y-6822948D02*
G75*
G03X16524252Y-6822948I-30000J0D01*
G01*
X17679952Y-8423148D02*
G75*
G03X17679952Y-8423148I-30000J0D01*
G01*
X18048252Y-10188448D02*
G75*
G03X18048252Y-10188448I-30000J0D01*
G01*
X18365752Y-10505948D02*
G75*
G03X18365752Y-10505948I-30000J0D01*
G01*
X18365752Y-11267948D02*
G75*
G03X18365752Y-11267948I-30000J0D01*
G01*
X18683252Y-9807448D02*
G75*
G03X18683252Y-9807448I-30000J0D01*
G01*
X18683252Y-10010648D02*
G75*
G03X18683252Y-10010648I-30000J0D01*
G01*
X18873752Y-11267948D02*
G75*
G03X18873752Y-11267948I-30000J0D01*
G01*
X19000752Y-11902948D02*
G75*
G03X19000752Y-11902948I-30000J0D01*
G01*
X19127752Y-9591548D02*
G75*
G03X19127752Y-9591548I-30000J0D01*
G01*
X19140452Y-11902948D02*
G75*
G03X19140452Y-11902948I-30000J0D01*
G01*
X19775452Y-11318748D02*
G75*
G03X19775452Y-11318748I-30000J0D01*
G01*
X21566152Y-7813548D02*
G75*
G03X21566152Y-7813548I-30000J0D01*
G01*
X21566152Y-7927848D02*
G75*
G03X21566152Y-7927848I-30000J0D01*
G01*
X21743952Y-9845548D02*
G75*
G03X21743952Y-9845548I-30000J0D01*
G01*
X21896352Y-9845548D02*
G75*
G03X21896352Y-9845548I-30000J0D01*
G01*
X22455152Y-7775448D02*
G75*
G03X22455152Y-7775448I-30000J0D01*
G01*
X14703552Y-11456548D02*
X14703552Y-11536548D01*
X14663552Y-11496548D02*
X14743552Y-11496548D01*
X14703552Y-11799448D02*
X14703552Y-11879448D01*
X14663552Y-11839448D02*
X14743552Y-11839448D01*
X14805152Y-9818248D02*
X14805152Y-9898248D01*
X14765152Y-9858248D02*
X14845152Y-9858248D01*
X14868652Y-9005448D02*
X14868652Y-9085448D01*
X14828652Y-9045448D02*
X14908652Y-9045448D01*
X15186152Y-9818248D02*
X15186152Y-9898248D01*
X15146152Y-9858248D02*
X15226152Y-9858248D01*
X16659352Y-11989948D02*
X16659352Y-12069948D01*
X16619352Y-12029948D02*
X16699352Y-12029948D01*
X20799552Y-7862448D02*
X20799552Y-7942448D01*
X20759552Y-7902448D02*
X20839552Y-7902448D01*
X20913852Y-7862448D02*
X20913852Y-7942448D01*
X20873852Y-7902448D02*
X20953852Y-7902448D01*
X21371052Y-7773548D02*
X21371052Y-7853548D01*
X21331052Y-7813548D02*
X21411052Y-7813548D01*
X21383752Y-7202048D02*
X21383752Y-7282048D01*
X21343752Y-7242048D02*
X21423752Y-7242048D01*
X21383752Y-7443348D02*
X21383752Y-7523348D01*
X21343752Y-7483348D02*
X21423752Y-7483348D01*
X21485352Y-6376548D02*
X21485352Y-6456548D01*
X21445352Y-6416548D02*
X21525352Y-6416548D01*
X21561552Y-6452748D02*
X21561552Y-6532748D01*
X21521552Y-6492748D02*
X21601552Y-6492748D01*
X21574252Y-7341748D02*
X21574252Y-7421748D01*
X21534252Y-7381748D02*
X21614252Y-7381748D01*
X21586952Y-8814948D02*
X21586952Y-8894948D01*
X21546952Y-8854948D02*
X21626952Y-8854948D01*
X22082252Y-6516248D02*
X22082252Y-6596248D01*
X22042252Y-6556248D02*
X22122252Y-6556248D01*
X22209252Y-7621148D02*
X22209252Y-7701148D01*
X22169252Y-7661148D02*
X22249252Y-7661148D01*
X22209252Y-7748148D02*
X22209252Y-7828148D01*
X22169252Y-7788148D02*
X22249252Y-7788148D01*
X14970252Y-11735948D02*
X14970252Y-11815948D01*
X14930252Y-11775948D02*
X15010252Y-11775948D01*
X15224252Y-11735948D02*
X15224252Y-11815948D01*
X15184252Y-11775948D02*
X15264252Y-11775948D01*
X15478252Y-11735948D02*
X15478252Y-11815948D01*
X15438252Y-11775948D02*
X15518252Y-11775948D01*
X15986252Y-10592948D02*
X15986252Y-10672948D01*
X15946252Y-10632948D02*
X16026252Y-10632948D01*
X16240252Y-10592948D02*
X16240252Y-10672948D01*
X16200252Y-10632948D02*
X16280252Y-10632948D01*
X16494252Y-10592948D02*
X16494252Y-10672948D01*
X16454252Y-10632948D02*
X16534252Y-10632948D01*
X15986252Y-9449948D02*
X15986252Y-9529948D01*
X15946252Y-9489948D02*
X16026252Y-9489948D01*
X16240252Y-9449948D02*
X16240252Y-9529948D01*
X16200252Y-9489948D02*
X16280252Y-9489948D01*
X16494252Y-9449948D02*
X16494252Y-9529948D01*
X16454252Y-9489948D02*
X16534252Y-9489948D01*
X15986252Y-8306948D02*
X15986252Y-8386948D01*
X15946252Y-8346948D02*
X16026252Y-8346948D01*
X16240252Y-8306948D02*
X16240252Y-8386948D01*
X16200252Y-8346948D02*
X16280252Y-8346948D01*
X16494252Y-8306948D02*
X16494252Y-8386948D01*
X16454252Y-8346948D02*
X16534252Y-8346948D01*
X15986252Y-7163948D02*
X15986252Y-7243948D01*
X15946252Y-7203948D02*
X16026252Y-7203948D01*
X16240252Y-7163948D02*
X16240252Y-7243948D01*
X16200252Y-7203948D02*
X16280252Y-7203948D01*
X16494252Y-7163948D02*
X16494252Y-7243948D01*
X16454252Y-7203948D02*
X16534252Y-7203948D01*
X15986252Y-6592448D02*
X15986252Y-6672448D01*
X15946252Y-6632448D02*
X16026252Y-6632448D01*
X16240252Y-6592448D02*
X16240252Y-6672448D01*
X16200252Y-6632448D02*
X16280252Y-6632448D01*
X16494252Y-6592448D02*
X16494252Y-6672448D01*
X16454252Y-6632448D02*
X16534252Y-6632448D01*
X16014989Y-11233185D02*
X16014989Y-11175711D01*
X15957515Y-11175711D01*
X15957515Y-11233185D01*
X16014989Y-11233185D01*
X16268989Y-11233185D02*
X16268989Y-11175711D01*
X16211515Y-11175711D01*
X16211515Y-11233185D01*
X16268989Y-11233185D01*
X16522989Y-11233185D02*
X16522989Y-11175711D01*
X16465515Y-11175711D01*
X16465515Y-11233185D01*
X16522989Y-11233185D01*
X16014989Y-10090185D02*
X16014989Y-10032711D01*
X15957515Y-10032711D01*
X15957515Y-10090185D01*
X16014989Y-10090185D01*
X16268989Y-10090185D02*
X16268989Y-10032711D01*
X16211515Y-10032711D01*
X16211515Y-10090185D01*
X16268989Y-10090185D01*
X16522989Y-10090185D02*
X16522989Y-10032711D01*
X16465515Y-10032711D01*
X16465515Y-10090185D01*
X16522989Y-10090185D01*
X16014989Y-8947185D02*
X16014989Y-8889711D01*
X15957515Y-8889711D01*
X15957515Y-8947185D01*
X16014989Y-8947185D01*
X16268989Y-8947185D02*
X16268989Y-8889711D01*
X16211515Y-8889711D01*
X16211515Y-8947185D01*
X16268989Y-8947185D01*
X16522989Y-8947185D02*
X16522989Y-8889711D01*
X16465515Y-8889711D01*
X16465515Y-8947185D01*
X16522989Y-8947185D01*
X16014989Y-7804185D02*
X16014989Y-7746711D01*
X15957515Y-7746711D01*
X15957515Y-7804185D01*
X16014989Y-7804185D01*
X16268989Y-7804185D02*
X16268989Y-7746711D01*
X16211515Y-7746711D01*
X16211515Y-7804185D01*
X16268989Y-7804185D01*
X16522989Y-7804185D02*
X16522989Y-7746711D01*
X16465515Y-7746711D01*
X16465515Y-7804185D01*
X16522989Y-7804185D01*
X20812252Y-9158948D02*
X20862252Y-9108948D01*
X20812252Y-9058948D01*
X20762252Y-9108948D01*
X20812252Y-9158948D01*
X20812252Y-9412948D02*
X20862252Y-9362948D01*
X20812252Y-9312948D01*
X20762252Y-9362948D01*
X20812252Y-9412948D01*
X20812252Y-9666948D02*
X20862252Y-9616948D01*
X20812252Y-9566948D01*
X20762252Y-9616948D01*
X20812252Y-9666948D01*
X20812252Y-9920948D02*
X20862252Y-9870948D01*
X20812252Y-9820948D01*
X20762252Y-9870948D01*
X20812252Y-9920948D01*
X20812252Y-10174948D02*
X20862252Y-10124948D01*
X20812252Y-10074948D01*
X20762252Y-10124948D01*
X20812252Y-10174948D01*
X16938752Y-7126948D02*
X16988752Y-7076948D01*
X16938752Y-7026948D01*
X16888752Y-7076948D01*
X16938752Y-7126948D01*
X16938752Y-7380948D02*
X16988752Y-7330948D01*
X16938752Y-7280948D01*
X16888752Y-7330948D01*
X16938752Y-7380948D01*
X16938752Y-7634948D02*
X16988752Y-7584948D01*
X16938752Y-7534948D01*
X16888752Y-7584948D01*
X16938752Y-7634948D01*
X16938752Y-7888948D02*
X16988752Y-7838948D01*
X16938752Y-7788948D01*
X16888752Y-7838948D01*
X16938752Y-7888948D01*
X16938752Y-8142948D02*
X16988752Y-8092948D01*
X16938752Y-8042948D01*
X16888752Y-8092948D01*
X16938752Y-8142948D01*
X16938752Y-8396948D02*
X16988752Y-8346948D01*
X16938752Y-8296948D01*
X16888752Y-8346948D01*
X16938752Y-8396948D01*
X16938752Y-8650948D02*
X16988752Y-8600948D01*
X16938752Y-8550948D01*
X16888752Y-8600948D01*
X16938752Y-8650948D01*
X16938752Y-8904948D02*
X16988752Y-8854948D01*
X16938752Y-8804948D01*
X16888752Y-8854948D01*
X16938752Y-8904948D01*
X16938752Y-9158948D02*
X16988752Y-9108948D01*
X16938752Y-9058948D01*
X16888752Y-9108948D01*
X16938752Y-9158948D01*
X16938752Y-9412948D02*
X16988752Y-9362948D01*
X16938752Y-9312948D01*
X16888752Y-9362948D01*
X16938752Y-9412948D01*
X16938752Y-9666948D02*
X16988752Y-9616948D01*
X16938752Y-9566948D01*
X16888752Y-9616948D01*
X16938752Y-9666948D01*
X16938752Y-9920948D02*
X16988752Y-9870948D01*
X16938752Y-9820948D01*
X16888752Y-9870948D01*
X16938752Y-9920948D01*
X16938752Y-10174948D02*
X16988752Y-10124948D01*
X16938752Y-10074948D01*
X16888752Y-10124948D01*
X16938752Y-10174948D01*
X16938752Y-10428948D02*
X16988752Y-10378948D01*
X16938752Y-10328948D01*
X16888752Y-10378948D01*
X16938752Y-10428948D01*
X16938752Y-10682948D02*
X16988752Y-10632948D01*
X16938752Y-10582948D01*
X16888752Y-10632948D01*
X16938752Y-10682948D01*
X16938752Y-10936948D02*
X16988752Y-10886948D01*
X16938752Y-10836948D01*
X16888752Y-10886948D01*
X16938752Y-10936948D01*
X16938752Y-11190948D02*
X16988752Y-11140948D01*
X16938752Y-11090948D01*
X16888752Y-11140948D01*
X16938752Y-11190948D01*
X16938752Y-11444948D02*
X16988752Y-11394948D01*
X16938752Y-11344948D01*
X16888752Y-11394948D01*
X16938752Y-11444948D01*
X16938752Y-11698948D02*
X16988752Y-11648948D01*
X16938752Y-11598948D01*
X16888752Y-11648948D01*
X16938752Y-11698948D01*
X16938752Y-11952948D02*
X16988752Y-11902948D01*
X16938752Y-11852948D01*
X16888752Y-11902948D01*
X16938752Y-11952948D01*
X17192752Y-7126948D02*
X17242752Y-7076948D01*
X17192752Y-7026948D01*
X17142752Y-7076948D01*
X17192752Y-7126948D01*
X17192752Y-7380948D02*
X17242752Y-7330948D01*
X17192752Y-7280948D01*
X17142752Y-7330948D01*
X17192752Y-7380948D01*
X17192752Y-7634948D02*
X17242752Y-7584948D01*
X17192752Y-7534948D01*
X17142752Y-7584948D01*
X17192752Y-7634948D01*
X17192752Y-7888948D02*
X17242752Y-7838948D01*
X17192752Y-7788948D01*
X17142752Y-7838948D01*
X17192752Y-7888948D01*
X17192752Y-8142948D02*
X17242752Y-8092948D01*
X17192752Y-8042948D01*
X17142752Y-8092948D01*
X17192752Y-8142948D01*
X17192752Y-8396948D02*
X17242752Y-8346948D01*
X17192752Y-8296948D01*
X17142752Y-8346948D01*
X17192752Y-8396948D01*
X17192752Y-8650948D02*
X17242752Y-8600948D01*
X17192752Y-8550948D01*
X17142752Y-8600948D01*
X17192752Y-8650948D01*
X17192752Y-8904948D02*
X17242752Y-8854948D01*
X17192752Y-8804948D01*
X17142752Y-8854948D01*
X17192752Y-8904948D01*
X17192752Y-9158948D02*
X17242752Y-9108948D01*
X17192752Y-9058948D01*
X17142752Y-9108948D01*
X17192752Y-9158948D01*
X17192752Y-9412948D02*
X17242752Y-9362948D01*
X17192752Y-9312948D01*
X17142752Y-9362948D01*
X17192752Y-9412948D01*
X17192752Y-9666948D02*
X17242752Y-9616948D01*
X17192752Y-9566948D01*
X17142752Y-9616948D01*
X17192752Y-9666948D01*
X17192752Y-9920948D02*
X17242752Y-9870948D01*
X17192752Y-9820948D01*
X17142752Y-9870948D01*
X17192752Y-9920948D01*
X17192752Y-10174948D02*
X17242752Y-10124948D01*
X17192752Y-10074948D01*
X17142752Y-10124948D01*
X17192752Y-10174948D01*
X17192752Y-10428948D02*
X17242752Y-10378948D01*
X17192752Y-10328948D01*
X17142752Y-10378948D01*
X17192752Y-10428948D01*
X17192752Y-10682948D02*
X17242752Y-10632948D01*
X17192752Y-10582948D01*
X17142752Y-10632948D01*
X17192752Y-10682948D01*
X17192752Y-10936948D02*
X17242752Y-10886948D01*
X17192752Y-10836948D01*
X17142752Y-10886948D01*
X17192752Y-10936948D01*
X17192752Y-11190948D02*
X17242752Y-11140948D01*
X17192752Y-11090948D01*
X17142752Y-11140948D01*
X17192752Y-11190948D01*
X17192752Y-11444948D02*
X17242752Y-11394948D01*
X17192752Y-11344948D01*
X17142752Y-11394948D01*
X17192752Y-11444948D01*
X17192752Y-11698948D02*
X17242752Y-11648948D01*
X17192752Y-11598948D01*
X17142752Y-11648948D01*
X17192752Y-11698948D01*
X17192752Y-11952948D02*
X17242752Y-11902948D01*
X17192752Y-11852948D01*
X17142752Y-11902948D01*
X17192752Y-11952948D01*
X17446752Y-7126948D02*
X17496752Y-7076948D01*
X17446752Y-7026948D01*
X17396752Y-7076948D01*
X17446752Y-7126948D01*
X17446752Y-7380948D02*
X17496752Y-7330948D01*
X17446752Y-7280948D01*
X17396752Y-7330948D01*
X17446752Y-7380948D01*
X17700752Y-7126948D02*
X17750752Y-7076948D01*
X17700752Y-7026948D01*
X17650752Y-7076948D01*
X17700752Y-7126948D01*
X17700752Y-7380948D02*
X17750752Y-7330948D01*
X17700752Y-7280948D01*
X17650752Y-7330948D01*
X17700752Y-7380948D01*
X17954752Y-7126948D02*
X18004752Y-7076948D01*
X17954752Y-7026948D01*
X17904752Y-7076948D01*
X17954752Y-7126948D01*
X17954752Y-7380948D02*
X18004752Y-7330948D01*
X17954752Y-7280948D01*
X17904752Y-7330948D01*
X17954752Y-7380948D01*
X18208752Y-7126948D02*
X18258752Y-7076948D01*
X18208752Y-7026948D01*
X18158752Y-7076948D01*
X18208752Y-7126948D01*
X18208752Y-7380948D02*
X18258752Y-7330948D01*
X18208752Y-7280948D01*
X18158752Y-7330948D01*
X18208752Y-7380948D01*
X18462752Y-7126948D02*
X18512752Y-7076948D01*
X18462752Y-7026948D01*
X18412752Y-7076948D01*
X18462752Y-7126948D01*
X18462752Y-7380948D02*
X18512752Y-7330948D01*
X18462752Y-7280948D01*
X18412752Y-7330948D01*
X18462752Y-7380948D01*
X18716752Y-7126948D02*
X18766752Y-7076948D01*
X18716752Y-7026948D01*
X18666752Y-7076948D01*
X18716752Y-7126948D01*
X18716752Y-7380948D02*
X18766752Y-7330948D01*
X18716752Y-7280948D01*
X18666752Y-7330948D01*
X18716752Y-7380948D01*
X18970752Y-7126948D02*
X19020752Y-7076948D01*
X18970752Y-7026948D01*
X18920752Y-7076948D01*
X18970752Y-7126948D01*
X18970752Y-7380948D02*
X19020752Y-7330948D01*
X18970752Y-7280948D01*
X18920752Y-7330948D01*
X18970752Y-7380948D01*
X19224752Y-7126948D02*
X19274752Y-7076948D01*
X19224752Y-7026948D01*
X19174752Y-7076948D01*
X19224752Y-7126948D01*
X19224752Y-7380948D02*
X19274752Y-7330948D01*
X19224752Y-7280948D01*
X19174752Y-7330948D01*
X19224752Y-7380948D01*
X19478752Y-7126948D02*
X19528752Y-7076948D01*
X19478752Y-7026948D01*
X19428752Y-7076948D01*
X19478752Y-7126948D01*
X19478752Y-7380948D02*
X19528752Y-7330948D01*
X19478752Y-7280948D01*
X19428752Y-7330948D01*
X19478752Y-7380948D01*
X19732752Y-7126948D02*
X19782752Y-7076948D01*
X19732752Y-7026948D01*
X19682752Y-7076948D01*
X19732752Y-7126948D01*
X19732752Y-7380948D02*
X19782752Y-7330948D01*
X19732752Y-7280948D01*
X19682752Y-7330948D01*
X19732752Y-7380948D01*
X19986752Y-7126948D02*
X20036752Y-7076948D01*
X19986752Y-7026948D01*
X19936752Y-7076948D01*
X19986752Y-7126948D01*
X19986752Y-7380948D02*
X20036752Y-7330948D01*
X19986752Y-7280948D01*
X19936752Y-7330948D01*
X19986752Y-7380948D01*
X19986752Y-7634948D02*
X20036752Y-7584948D01*
X19986752Y-7534948D01*
X19936752Y-7584948D01*
X19986752Y-7634948D01*
X19986752Y-7888948D02*
X20036752Y-7838948D01*
X19986752Y-7788948D01*
X19936752Y-7838948D01*
X19986752Y-7888948D01*
X19986752Y-8142948D02*
X20036752Y-8092948D01*
X19986752Y-8042948D01*
X19936752Y-8092948D01*
X19986752Y-8142948D01*
X19986752Y-8396948D02*
X20036752Y-8346948D01*
X19986752Y-8296948D01*
X19936752Y-8346948D01*
X19986752Y-8396948D01*
X19986752Y-8650948D02*
X20036752Y-8600948D01*
X19986752Y-8550948D01*
X19936752Y-8600948D01*
X19986752Y-8650948D01*
X19986752Y-8904948D02*
X20036752Y-8854948D01*
X19986752Y-8804948D01*
X19936752Y-8854948D01*
X19986752Y-8904948D01*
X19986752Y-9158948D02*
X20036752Y-9108948D01*
X19986752Y-9058948D01*
X19936752Y-9108948D01*
X19986752Y-9158948D01*
X19986752Y-9412948D02*
X20036752Y-9362948D01*
X19986752Y-9312948D01*
X19936752Y-9362948D01*
X19986752Y-9412948D01*
X19986752Y-9666948D02*
X20036752Y-9616948D01*
X19986752Y-9566948D01*
X19936752Y-9616948D01*
X19986752Y-9666948D01*
X19986752Y-9920948D02*
X20036752Y-9870948D01*
X19986752Y-9820948D01*
X19936752Y-9870948D01*
X19986752Y-9920948D01*
X19986752Y-10174948D02*
X20036752Y-10124948D01*
X19986752Y-10074948D01*
X19936752Y-10124948D01*
X19986752Y-10174948D01*
X19986752Y-10428948D02*
X20036752Y-10378948D01*
X19986752Y-10328948D01*
X19936752Y-10378948D01*
X19986752Y-10428948D01*
X19986752Y-10682948D02*
X20036752Y-10632948D01*
X19986752Y-10582948D01*
X19936752Y-10632948D01*
X19986752Y-10682948D01*
X19986752Y-10936948D02*
X20036752Y-10886948D01*
X19986752Y-10836948D01*
X19936752Y-10886948D01*
X19986752Y-10936948D01*
X19986752Y-11190948D02*
X20036752Y-11140948D01*
X19986752Y-11090948D01*
X19936752Y-11140948D01*
X19986752Y-11190948D01*
X19986752Y-11444948D02*
X20036752Y-11394948D01*
X19986752Y-11344948D01*
X19936752Y-11394948D01*
X19986752Y-11444948D01*
X19986752Y-11698948D02*
X20036752Y-11648948D01*
X19986752Y-11598948D01*
X19936752Y-11648948D01*
X19986752Y-11698948D01*
X19986752Y-11952948D02*
X20036752Y-11902948D01*
X19986752Y-11852948D01*
X19936752Y-11902948D01*
X19986752Y-11952948D01*
X20240752Y-7126948D02*
X20290752Y-7076948D01*
X20240752Y-7026948D01*
X20190752Y-7076948D01*
X20240752Y-7126948D01*
X20240752Y-7380948D02*
X20290752Y-7330948D01*
X20240752Y-7280948D01*
X20190752Y-7330948D01*
X20240752Y-7380948D01*
X20240752Y-7634948D02*
X20290752Y-7584948D01*
X20240752Y-7534948D01*
X20190752Y-7584948D01*
X20240752Y-7634948D01*
X20240752Y-7888948D02*
X20290752Y-7838948D01*
X20240752Y-7788948D01*
X20190752Y-7838948D01*
X20240752Y-7888948D01*
X20240752Y-8142948D02*
X20290752Y-8092948D01*
X20240752Y-8042948D01*
X20190752Y-8092948D01*
X20240752Y-8142948D01*
X20240752Y-8396948D02*
X20290752Y-8346948D01*
X20240752Y-8296948D01*
X20190752Y-8346948D01*
X20240752Y-8396948D01*
X20240752Y-8650948D02*
X20290752Y-8600948D01*
X20240752Y-8550948D01*
X20190752Y-8600948D01*
X20240752Y-8650948D01*
X20240752Y-8904948D02*
X20290752Y-8854948D01*
X20240752Y-8804948D01*
X20190752Y-8854948D01*
X20240752Y-8904948D01*
X20240752Y-9158948D02*
X20290752Y-9108948D01*
X20240752Y-9058948D01*
X20190752Y-9108948D01*
X20240752Y-9158948D01*
X20240752Y-9412948D02*
X20290752Y-9362948D01*
X20240752Y-9312948D01*
X20190752Y-9362948D01*
X20240752Y-9412948D01*
X20240752Y-9666948D02*
X20290752Y-9616948D01*
X20240752Y-9566948D01*
X20190752Y-9616948D01*
X20240752Y-9666948D01*
X20240752Y-9920948D02*
X20290752Y-9870948D01*
X20240752Y-9820948D01*
X20190752Y-9870948D01*
X20240752Y-9920948D01*
X20240752Y-10174948D02*
X20290752Y-10124948D01*
X20240752Y-10074948D01*
X20190752Y-10124948D01*
X20240752Y-10174948D01*
X20240752Y-10428948D02*
X20290752Y-10378948D01*
X20240752Y-10328948D01*
X20190752Y-10378948D01*
X20240752Y-10428948D01*
X20240752Y-10682948D02*
X20290752Y-10632948D01*
X20240752Y-10582948D01*
X20190752Y-10632948D01*
X20240752Y-10682948D01*
X20240752Y-10936948D02*
X20290752Y-10886948D01*
X20240752Y-10836948D01*
X20190752Y-10886948D01*
X20240752Y-10936948D01*
X20240752Y-11190948D02*
X20290752Y-11140948D01*
X20240752Y-11090948D01*
X20190752Y-11140948D01*
X20240752Y-11190948D01*
X20240752Y-11444948D02*
X20290752Y-11394948D01*
X20240752Y-11344948D01*
X20190752Y-11394948D01*
X20240752Y-11444948D01*
X20240752Y-11698948D02*
X20290752Y-11648948D01*
X20240752Y-11598948D01*
X20190752Y-11648948D01*
X20240752Y-11698948D01*
X20240752Y-11952948D02*
X20290752Y-11902948D01*
X20240752Y-11852948D01*
X20190752Y-11902948D01*
X20240752Y-11952948D01*
X21866352Y-11571948D02*
X21916352Y-11521948D01*
X21866352Y-11471948D01*
X21816352Y-11521948D01*
X21866352Y-11571948D01*
X22120352Y-11571948D02*
X22170352Y-11521948D01*
X22120352Y-11471948D01*
X22070352Y-11521948D01*
X22120352Y-11571948D01*
X17954752Y-7698448D02*
X18004752Y-7648448D01*
X17954752Y-7598448D01*
X17904752Y-7648448D01*
X17954752Y-7698448D01*
X17954752Y-7952448D02*
X18004752Y-7902448D01*
X17954752Y-7852448D01*
X17904752Y-7902448D01*
X17954752Y-7952448D01*
X18208752Y-7698448D02*
X18258752Y-7648448D01*
X18208752Y-7598448D01*
X18158752Y-7648448D01*
X18208752Y-7698448D01*
X18208752Y-7952448D02*
X18258752Y-7902448D01*
X18208752Y-7852448D01*
X18158752Y-7902448D01*
X18208752Y-7952448D01*
X18462752Y-7698448D02*
X18512752Y-7648448D01*
X18462752Y-7598448D01*
X18412752Y-7648448D01*
X18462752Y-7698448D01*
X18462752Y-7952448D02*
X18512752Y-7902448D01*
X18462752Y-7852448D01*
X18412752Y-7902448D01*
X18462752Y-7952448D01*
X18716752Y-7698448D02*
X18766752Y-7648448D01*
X18716752Y-7598448D01*
X18666752Y-7648448D01*
X18716752Y-7698448D01*
X18716752Y-7952448D02*
X18766752Y-7902448D01*
X18716752Y-7852448D01*
X18666752Y-7902448D01*
X18716752Y-7952448D01*
X18970752Y-7698448D02*
X19020752Y-7648448D01*
X18970752Y-7598448D01*
X18920752Y-7648448D01*
X18970752Y-7698448D01*
X18970752Y-7952448D02*
X19020752Y-7902448D01*
X18970752Y-7852448D01*
X18920752Y-7902448D01*
X18970752Y-7952448D01*
X17637252Y-8650948D02*
X17687252Y-8600948D01*
X17637252Y-8550948D01*
X17587252Y-8600948D01*
X17637252Y-8650948D01*
X17637252Y-8904948D02*
X17687252Y-8854948D01*
X17637252Y-8804948D01*
X17587252Y-8854948D01*
X17637252Y-8904948D01*
X17637252Y-9412948D02*
X17687252Y-9362948D01*
X17637252Y-9312948D01*
X17587252Y-9362948D01*
X17637252Y-9412948D01*
X17637252Y-9920948D02*
X17687252Y-9870948D01*
X17637252Y-9820948D01*
X17587252Y-9870948D01*
X17637252Y-9920948D01*
X17637252Y-11444948D02*
X17687252Y-11394948D01*
X17637252Y-11344948D01*
X17587252Y-11394948D01*
X17637252Y-11444948D01*
X17637252Y-11698948D02*
X17687252Y-11648948D01*
X17637252Y-11598948D01*
X17587252Y-11648948D01*
X17637252Y-11698948D01*
X17637252Y-11952948D02*
X17687252Y-11902948D01*
X17637252Y-11852948D01*
X17587252Y-11902948D01*
X17637252Y-11952948D01*
X19542252Y-8650948D02*
X19592252Y-8600948D01*
X19542252Y-8550948D01*
X19492252Y-8600948D01*
X19542252Y-8650948D01*
X19542252Y-8904948D02*
X19592252Y-8854948D01*
X19542252Y-8804948D01*
X19492252Y-8854948D01*
X19542252Y-8904948D01*
X19542252Y-11444948D02*
X19592252Y-11394948D01*
X19542252Y-11344948D01*
X19492252Y-11394948D01*
X19542252Y-11444948D01*
X19542252Y-11698948D02*
X19592252Y-11648948D01*
X19542252Y-11598948D01*
X19492252Y-11648948D01*
X19542252Y-11698948D01*
X19542252Y-11952948D02*
X19592252Y-11902948D01*
X19542252Y-11852948D01*
X19492252Y-11902948D01*
X19542252Y-11952948D01*
X22653752Y-10555948D02*
X22703752Y-10505948D01*
X22653752Y-10455948D01*
X22603752Y-10505948D01*
X22653752Y-10555948D01*
X22653752Y-10809948D02*
X22703752Y-10759948D01*
X22653752Y-10709948D01*
X22603752Y-10759948D01*
X22653752Y-10809948D01*
X22653752Y-11063948D02*
X22703752Y-11013948D01*
X22653752Y-10963948D01*
X22603752Y-11013948D01*
X22653752Y-11063948D01*
X22653752Y-11317948D02*
X22703752Y-11267948D01*
X22653752Y-11217948D01*
X22603752Y-11267948D01*
X22653752Y-11317948D01*
X21002752Y-11952948D02*
X21052752Y-11902948D01*
X21002752Y-11852948D01*
X20952752Y-11902948D01*
X21002752Y-11952948D01*
X21256752Y-11952948D02*
X21306752Y-11902948D01*
X21256752Y-11852948D01*
X21206752Y-11902948D01*
X21256752Y-11952948D01*
X21510752Y-11952948D02*
X21560752Y-11902948D01*
X21510752Y-11852948D01*
X21460752Y-11902948D01*
X21510752Y-11952948D01*
X21764752Y-11952948D02*
X21814752Y-11902948D01*
X21764752Y-11852948D01*
X21714752Y-11902948D01*
X21764752Y-11952948D01*
X20558252Y-11190948D02*
X20608252Y-11140948D01*
X20558252Y-11090948D01*
X20508252Y-11140948D01*
X20558252Y-11190948D01*
X20558252Y-11444948D02*
X20608252Y-11394948D01*
X20558252Y-11344948D01*
X20508252Y-11394948D01*
X20558252Y-11444948D01*
X21625052Y-10301948D02*
X21675052Y-10251948D01*
X21625052Y-10201948D01*
X21575052Y-10251948D01*
X21625052Y-10301948D01*
X21625052Y-10555948D02*
X21675052Y-10505948D01*
X21625052Y-10455948D01*
X21575052Y-10505948D01*
X21625052Y-10555948D01*
X21625052Y-10809948D02*
X21675052Y-10759948D01*
X21625052Y-10709948D01*
X21575052Y-10759948D01*
X21625052Y-10809948D01*
X21625052Y-11063948D02*
X21675052Y-11013948D01*
X21625052Y-10963948D01*
X21575052Y-11013948D01*
X21625052Y-11063948D01*
X20558252Y-10428948D02*
X20608252Y-10378948D01*
X20558252Y-10328948D01*
X20508252Y-10378948D01*
X20558252Y-10428948D01*
X20558252Y-10682948D02*
X20608252Y-10632948D01*
X20558252Y-10582948D01*
X20508252Y-10632948D01*
X20558252Y-10682948D01*
X20875752Y-6491948D02*
X20925752Y-6441948D01*
X20875752Y-6391948D01*
X20825752Y-6441948D01*
X20875752Y-6491948D01*
X20876752Y-8346148D02*
X20926752Y-8296148D01*
X20876752Y-8246148D01*
X20826752Y-8296148D01*
X20876752Y-8346148D01*
X21129752Y-6491948D02*
X21179752Y-6441948D01*
X21129752Y-6391948D01*
X21079752Y-6441948D01*
X21129752Y-6491948D01*
X21129752Y-8346148D02*
X21179752Y-8296148D01*
X21129752Y-8246148D01*
X21079752Y-8296148D01*
X21129752Y-8346148D01*
X21942552Y-6491948D02*
X21992552Y-6441948D01*
X21942552Y-6391948D01*
X21892552Y-6441948D01*
X21942552Y-6491948D01*
X21942552Y-8346148D02*
X21992552Y-8296148D01*
X21942552Y-8246148D01*
X21892552Y-8296148D01*
X21942552Y-8346148D01*
X22196552Y-6491948D02*
X22246552Y-6441948D01*
X22196552Y-6391948D01*
X22146552Y-6441948D01*
X22196552Y-6491948D01*
X22196552Y-8346148D02*
X22246552Y-8296148D01*
X22196552Y-8246148D01*
X22146552Y-8296148D01*
X22196552Y-8346148D01*
X19732752Y-7634948D02*
X19782752Y-7584948D01*
X19732752Y-7534948D01*
X19682752Y-7584948D01*
X19732752Y-7634948D01*
X19732752Y-7888948D02*
X19782752Y-7838948D01*
X19732752Y-7788948D01*
X19682752Y-7838948D01*
X19732752Y-7888948D01*
X19732752Y-8142948D02*
X19782752Y-8092948D01*
X19732752Y-8042948D01*
X19682752Y-8092948D01*
X19732752Y-8142948D01*
X20558252Y-7126948D02*
X20608252Y-7076948D01*
X20558252Y-7026948D01*
X20508252Y-7076948D01*
X20558252Y-7126948D01*
X20558252Y-7380948D02*
X20608252Y-7330948D01*
X20558252Y-7280948D01*
X20508252Y-7330948D01*
X20558252Y-7380948D01*
X20558252Y-7634948D02*
X20608252Y-7584948D01*
X20558252Y-7534948D01*
X20508252Y-7584948D01*
X20558252Y-7634948D01*
X20558252Y-7888948D02*
X20608252Y-7838948D01*
X20558252Y-7788948D01*
X20508252Y-7838948D01*
X20558252Y-7888948D01*
X20558252Y-9158948D02*
X20608252Y-9108948D01*
X20558252Y-9058948D01*
X20508252Y-9108948D01*
X20558252Y-9158948D01*
X20558252Y-9412948D02*
X20608252Y-9362948D01*
X20558252Y-9312948D01*
X20508252Y-9362948D01*
X20558252Y-9412948D01*
X20558252Y-9666948D02*
X20608252Y-9616948D01*
X20558252Y-9566948D01*
X20508252Y-9616948D01*
X20558252Y-9666948D01*
X20558252Y-9920948D02*
X20608252Y-9870948D01*
X20558252Y-9820948D01*
X20508252Y-9870948D01*
X20558252Y-9920948D01*
X21320252Y-9160218D02*
X21370252Y-9110218D01*
X21320252Y-9060218D01*
X21270252Y-9110218D01*
X21320252Y-9160218D01*
X21320252Y-9160218D02*
X21370252Y-9110218D01*
X21320252Y-9060218D01*
X21270252Y-9110218D01*
X21320252Y-9160218D01*
X21320252Y-9414218D02*
X21370252Y-9364218D01*
X21320252Y-9314218D01*
X21270252Y-9364218D01*
X21320252Y-9414218D01*
X21320252Y-9414218D02*
X21370252Y-9364218D01*
X21320252Y-9314218D01*
X21270252Y-9364218D01*
X21320252Y-9414218D01*
X21320252Y-9668218D02*
X21370252Y-9618218D01*
X21320252Y-9568218D01*
X21270252Y-9618218D01*
X21320252Y-9668218D01*
X21320252Y-9668218D02*
X21370252Y-9618218D01*
X21320252Y-9568218D01*
X21270252Y-9618218D01*
X21320252Y-9668218D01*
X21320252Y-9922218D02*
X21370252Y-9872218D01*
X21320252Y-9822218D01*
X21270252Y-9872218D01*
X21320252Y-9922218D01*
X21320252Y-9922218D02*
X21370252Y-9872218D01*
X21320252Y-9822218D01*
X21270252Y-9872218D01*
X21320252Y-9922218D01*
X22653752Y-9165298D02*
X22703752Y-9115298D01*
X22653752Y-9065298D01*
X22603752Y-9115298D01*
X22653752Y-9165298D01*
X22653752Y-9419298D02*
X22703752Y-9369298D01*
X22653752Y-9319298D01*
X22603752Y-9369298D01*
X22653752Y-9419298D01*
X22653752Y-9673298D02*
X22703752Y-9623298D01*
X22653752Y-9573298D01*
X22603752Y-9623298D01*
X22653752Y-9673298D01*
X22653752Y-9927298D02*
X22703752Y-9877298D01*
X22653752Y-9827298D01*
X22603752Y-9877298D01*
X22653752Y-9927298D01*
X20367752Y-6491948D02*
X20417752Y-6441948D01*
X20367752Y-6391948D01*
X20317752Y-6441948D01*
X20367752Y-6491948D01*
X20621752Y-6491948D02*
X20671752Y-6441948D01*
X20621752Y-6391948D01*
X20571752Y-6441948D01*
X20621752Y-6491948D01*
X19796252Y-6491948D02*
X19846252Y-6441948D01*
X19796252Y-6391948D01*
X19746252Y-6441948D01*
X19796252Y-6491948D01*
X20050252Y-6491948D02*
X20100252Y-6441948D01*
X20050252Y-6391948D01*
X20000252Y-6441948D01*
X20050252Y-6491948D01*
X17954752Y-8206448D02*
X18004752Y-8156448D01*
X17954752Y-8106448D01*
X17904752Y-8156448D01*
X17954752Y-8206448D01*
X18208752Y-8206448D02*
X18258752Y-8156448D01*
X18208752Y-8106448D01*
X18158752Y-8156448D01*
X18208752Y-8206448D01*
X18462752Y-8206448D02*
X18512752Y-8156448D01*
X18462752Y-8106448D01*
X18412752Y-8156448D01*
X18462752Y-8206448D01*
X18716752Y-8206448D02*
X18766752Y-8156448D01*
X18716752Y-8106448D01*
X18666752Y-8156448D01*
X18716752Y-8206448D01*
X18970752Y-8206448D02*
X19020752Y-8156448D01*
X18970752Y-8106448D01*
X18920752Y-8156448D01*
X18970752Y-8206448D01*
X19224752Y-8206448D02*
X19274752Y-8156448D01*
X19224752Y-8106448D01*
X19174752Y-8156448D01*
X19224752Y-8206448D01*
X19351752Y-10936948D02*
X19401752Y-10886948D01*
X19351752Y-10836948D01*
X19301752Y-10886948D01*
X19351752Y-10936948D01*
X19351752Y-11190948D02*
X19401752Y-11140948D01*
X19351752Y-11090948D01*
X19301752Y-11140948D01*
X19351752Y-11190948D01*
X14779752Y-6936448D02*
X14829752Y-6886448D01*
X14779752Y-6836448D01*
X14729752Y-6886448D01*
X14779752Y-6936448D01*
X15033752Y-6936448D02*
X15083752Y-6886448D01*
X15033752Y-6836448D01*
X14983752Y-6886448D01*
X15033752Y-6936448D01*
X15287752Y-6936448D02*
X15337752Y-6886448D01*
X15287752Y-6836448D01*
X15237752Y-6886448D01*
X15287752Y-6936448D01*
X15097252Y-7380948D02*
X15147252Y-7330948D01*
X15097252Y-7280948D01*
X15047252Y-7330948D01*
X15097252Y-7380948D01*
X15097252Y-7634948D02*
X15147252Y-7584948D01*
X15097252Y-7534948D01*
X15047252Y-7584948D01*
X15097252Y-7634948D01*
X15097252Y-7888948D02*
X15147252Y-7838948D01*
X15097252Y-7788948D01*
X15047252Y-7838948D01*
X15097252Y-7888948D01*
X15351252Y-7380948D02*
X15401252Y-7330948D01*
X15351252Y-7280948D01*
X15301252Y-7330948D01*
X15351252Y-7380948D01*
X15351252Y-7634948D02*
X15401252Y-7584948D01*
X15351252Y-7534948D01*
X15301252Y-7584948D01*
X15351252Y-7634948D01*
X15351252Y-7888948D02*
X15401252Y-7838948D01*
X15351252Y-7788948D01*
X15301252Y-7838948D01*
X15351252Y-7888948D01*
X14271752Y-7380948D02*
X14321752Y-7330948D01*
X14271752Y-7280948D01*
X14221752Y-7330948D01*
X14271752Y-7380948D01*
X14271752Y-7634948D02*
X14321752Y-7584948D01*
X14271752Y-7534948D01*
X14221752Y-7584948D01*
X14271752Y-7634948D01*
X14271752Y-7888948D02*
X14321752Y-7838948D01*
X14271752Y-7788948D01*
X14221752Y-7838948D01*
X14271752Y-7888948D01*
X14525752Y-7380948D02*
X14575752Y-7330948D01*
X14525752Y-7280948D01*
X14475752Y-7330948D01*
X14525752Y-7380948D01*
X14525752Y-7634948D02*
X14575752Y-7584948D01*
X14525752Y-7534948D01*
X14475752Y-7584948D01*
X14525752Y-7634948D01*
X14525752Y-7888948D02*
X14575752Y-7838948D01*
X14525752Y-7788948D01*
X14475752Y-7838948D01*
X14525752Y-7888948D01*
X14271752Y-9666948D02*
X14321752Y-9616948D01*
X14271752Y-9566948D01*
X14221752Y-9616948D01*
X14271752Y-9666948D01*
X14271752Y-9920948D02*
X14321752Y-9870948D01*
X14271752Y-9820948D01*
X14221752Y-9870948D01*
X14271752Y-9920948D01*
X14271752Y-10174948D02*
X14321752Y-10124948D01*
X14271752Y-10074948D01*
X14221752Y-10124948D01*
X14271752Y-10174948D01*
X14271752Y-10428948D02*
X14321752Y-10378948D01*
X14271752Y-10328948D01*
X14221752Y-10378948D01*
X14271752Y-10428948D01*
X14271752Y-10682948D02*
X14321752Y-10632948D01*
X14271752Y-10582948D01*
X14221752Y-10632948D01*
X14271752Y-10682948D01*
X14271752Y-10936948D02*
X14321752Y-10886948D01*
X14271752Y-10836948D01*
X14221752Y-10886948D01*
X14271752Y-10936948D01*
X14271752Y-11190948D02*
X14321752Y-11140948D01*
X14271752Y-11090948D01*
X14221752Y-11140948D01*
X14271752Y-11190948D01*
X14271752Y-11444948D02*
X14321752Y-11394948D01*
X14271752Y-11344948D01*
X14221752Y-11394948D01*
X14271752Y-11444948D01*
X14271752Y-11698948D02*
X14321752Y-11648948D01*
X14271752Y-11598948D01*
X14221752Y-11648948D01*
X14271752Y-11698948D01*
X14271752Y-11952948D02*
X14321752Y-11902948D01*
X14271752Y-11852948D01*
X14221752Y-11902948D01*
X14271752Y-11952948D01*
X14525752Y-9666948D02*
X14575752Y-9616948D01*
X14525752Y-9566948D01*
X14475752Y-9616948D01*
X14525752Y-9666948D01*
X14525752Y-9920948D02*
X14575752Y-9870948D01*
X14525752Y-9820948D01*
X14475752Y-9870948D01*
X14525752Y-9920948D01*
X14525752Y-10174948D02*
X14575752Y-10124948D01*
X14525752Y-10074948D01*
X14475752Y-10124948D01*
X14525752Y-10174948D01*
X14525752Y-10428948D02*
X14575752Y-10378948D01*
X14525752Y-10328948D01*
X14475752Y-10378948D01*
X14525752Y-10428948D01*
X14525752Y-10682948D02*
X14575752Y-10632948D01*
X14525752Y-10582948D01*
X14475752Y-10632948D01*
X14525752Y-10682948D01*
X14525752Y-10936948D02*
X14575752Y-10886948D01*
X14525752Y-10836948D01*
X14475752Y-10886948D01*
X14525752Y-10936948D01*
X14525752Y-11190948D02*
X14575752Y-11140948D01*
X14525752Y-11090948D01*
X14475752Y-11140948D01*
X14525752Y-11190948D01*
X14525752Y-11444948D02*
X14575752Y-11394948D01*
X14525752Y-11344948D01*
X14475752Y-11394948D01*
X14525752Y-11444948D01*
X14525752Y-11698948D02*
X14575752Y-11648948D01*
X14525752Y-11598948D01*
X14475752Y-11648948D01*
X14525752Y-11698948D01*
X14525752Y-11952948D02*
X14575752Y-11902948D01*
X14525752Y-11852948D01*
X14475752Y-11902948D01*
X14525752Y-11952948D01*
X14906752Y-10428948D02*
X14956752Y-10378948D01*
X14906752Y-10328948D01*
X14856752Y-10378948D01*
X14906752Y-10428948D01*
X15160752Y-10428948D02*
X15210752Y-10378948D01*
X15160752Y-10328948D01*
X15110752Y-10378948D01*
X15160752Y-10428948D01*
X15414752Y-10428948D02*
X15464752Y-10378948D01*
X15414752Y-10328948D01*
X15364752Y-10378948D01*
X15414752Y-10428948D01*
X14906752Y-10682948D02*
X14956752Y-10632948D01*
X14906752Y-10582948D01*
X14856752Y-10632948D01*
X14906752Y-10682948D01*
X15160752Y-10682948D02*
X15210752Y-10632948D01*
X15160752Y-10582948D01*
X15110752Y-10632948D01*
X15160752Y-10682948D01*
X15414752Y-10682948D02*
X15464752Y-10632948D01*
X15414752Y-10582948D01*
X15364752Y-10632948D01*
X15414752Y-10682948D01*
X14906752Y-10936948D02*
X14956752Y-10886948D01*
X14906752Y-10836948D01*
X14856752Y-10886948D01*
X14906752Y-10936948D01*
X15160752Y-10936948D02*
X15210752Y-10886948D01*
X15160752Y-10836948D01*
X15110752Y-10886948D01*
X15160752Y-10936948D01*
X15414752Y-10936948D02*
X15464752Y-10886948D01*
X15414752Y-10836948D01*
X15364752Y-10886948D01*
X15414752Y-10936948D01*
X14906752Y-11444948D02*
X14956752Y-11394948D01*
X14906752Y-11344948D01*
X14856752Y-11394948D01*
X14906752Y-11444948D01*
X15160752Y-11444948D02*
X15210752Y-11394948D01*
X15160752Y-11344948D01*
X15110752Y-11394948D01*
X15160752Y-11444948D01*
X15414752Y-11444948D02*
X15464752Y-11394948D01*
X15414752Y-11344948D01*
X15364752Y-11394948D01*
X15414752Y-11444948D01*
X15986252Y-11698948D02*
X16036252Y-11648948D01*
X15986252Y-11598948D01*
X15936252Y-11648948D01*
X15986252Y-11698948D01*
X15986252Y-11952948D02*
X16036252Y-11902948D01*
X15986252Y-11852948D01*
X15936252Y-11902948D01*
X15986252Y-11952948D01*
X16240252Y-11698948D02*
X16290252Y-11648948D01*
X16240252Y-11598948D01*
X16190252Y-11648948D01*
X16240252Y-11698948D01*
X16240252Y-11952948D02*
X16290252Y-11902948D01*
X16240252Y-11852948D01*
X16190252Y-11902948D01*
X16240252Y-11952948D01*
X16494252Y-11698948D02*
X16544252Y-11648948D01*
X16494252Y-11598948D01*
X16444252Y-11648948D01*
X16494252Y-11698948D01*
X16494252Y-11952948D02*
X16544252Y-11902948D01*
X16494252Y-11852948D01*
X16444252Y-11902948D01*
X16494252Y-11952948D01*
X20558252Y-8650948D02*
X20608252Y-8600948D01*
X20558252Y-8550948D01*
X20508252Y-8600948D01*
X20558252Y-8650948D01*
X20558252Y-8904948D02*
X20608252Y-8854948D01*
X20558252Y-8804948D01*
X20508252Y-8854948D01*
X20558252Y-8904948D01*
X20812252Y-8650948D02*
X20862252Y-8600948D01*
X20812252Y-8550948D01*
X20762252Y-8600948D01*
X20812252Y-8650948D01*
X20812252Y-8904948D02*
X20862252Y-8854948D01*
X20812252Y-8804948D01*
X20762252Y-8854948D01*
X20812252Y-8904948D01*
X21066252Y-8650948D02*
X21116252Y-8600948D01*
X21066252Y-8550948D01*
X21016252Y-8600948D01*
X21066252Y-8650948D01*
X21066252Y-8904948D02*
X21116252Y-8854948D01*
X21066252Y-8804948D01*
X21016252Y-8854948D01*
X21066252Y-8904948D01*
X21320252Y-8650948D02*
X21370252Y-8600948D01*
X21320252Y-8550948D01*
X21270252Y-8600948D01*
X21320252Y-8650948D01*
X21320252Y-8904948D02*
X21370252Y-8854948D01*
X21320252Y-8804948D01*
X21270252Y-8854948D01*
X21320252Y-8904948D01*
X17192752Y-6491948D02*
X17242752Y-6441948D01*
X17192752Y-6391948D01*
X17142752Y-6441948D01*
X17192752Y-6491948D01*
X17192752Y-6745948D02*
X17242752Y-6695948D01*
X17192752Y-6645948D01*
X17142752Y-6695948D01*
X17192752Y-6745948D01*
X17446752Y-6491948D02*
X17496752Y-6441948D01*
X17446752Y-6391948D01*
X17396752Y-6441948D01*
X17446752Y-6491948D01*
X17446752Y-6745948D02*
X17496752Y-6695948D01*
X17446752Y-6645948D01*
X17396752Y-6695948D01*
X17446752Y-6745948D01*
X17700752Y-6491948D02*
X17750752Y-6441948D01*
X17700752Y-6391948D01*
X17650752Y-6441948D01*
X17700752Y-6491948D01*
X17700752Y-6745948D02*
X17750752Y-6695948D01*
X17700752Y-6645948D01*
X17650752Y-6695948D01*
X17700752Y-6745948D01*
X17954752Y-6491948D02*
X18004752Y-6441948D01*
X17954752Y-6391948D01*
X17904752Y-6441948D01*
X17954752Y-6491948D01*
X17954752Y-6745948D02*
X18004752Y-6695948D01*
X17954752Y-6645948D01*
X17904752Y-6695948D01*
X17954752Y-6745948D01*
X18208752Y-6491948D02*
X18258752Y-6441948D01*
X18208752Y-6391948D01*
X18158752Y-6441948D01*
X18208752Y-6491948D01*
X18208752Y-6745948D02*
X18258752Y-6695948D01*
X18208752Y-6645948D01*
X18158752Y-6695948D01*
X18208752Y-6745948D01*
X18462752Y-6491948D02*
X18512752Y-6441948D01*
X18462752Y-6391948D01*
X18412752Y-6441948D01*
X18462752Y-6491948D01*
X18462752Y-6745948D02*
X18512752Y-6695948D01*
X18462752Y-6645948D01*
X18412752Y-6695948D01*
X18462752Y-6745948D01*
X18716752Y-6491948D02*
X18766752Y-6441948D01*
X18716752Y-6391948D01*
X18666752Y-6441948D01*
X18716752Y-6491948D01*
X18716752Y-6745948D02*
X18766752Y-6695948D01*
X18716752Y-6645948D01*
X18666752Y-6695948D01*
X18716752Y-6745948D01*
X18970752Y-6491948D02*
X19020752Y-6441948D01*
X18970752Y-6391948D01*
X18920752Y-6441948D01*
X18970752Y-6491948D01*
X18970752Y-6745948D02*
X19020752Y-6695948D01*
X18970752Y-6645948D01*
X18920752Y-6695948D01*
X18970752Y-6745948D01*
X19224752Y-6491948D02*
X19274752Y-6441948D01*
X19224752Y-6391948D01*
X19174752Y-6441948D01*
X19224752Y-6491948D01*
X19224752Y-6745948D02*
X19274752Y-6695948D01*
X19224752Y-6645948D01*
X19174752Y-6695948D01*
X19224752Y-6745948D01*
X19478752Y-6491948D02*
X19528752Y-6441948D01*
X19478752Y-6391948D01*
X19428752Y-6441948D01*
X19478752Y-6491948D01*
X19478752Y-6745948D02*
X19528752Y-6695948D01*
X19478752Y-6645948D01*
X19428752Y-6695948D01*
X19478752Y-6745948D01*
X21828252Y-8650948D02*
X21878252Y-8600948D01*
X21828252Y-8550948D01*
X21778252Y-8600948D01*
X21828252Y-8650948D01*
X21828252Y-8904948D02*
X21878252Y-8854948D01*
X21828252Y-8804948D01*
X21778252Y-8854948D01*
X21828252Y-8904948D01*
X22082252Y-8650948D02*
X22132252Y-8600948D01*
X22082252Y-8550948D01*
X22032252Y-8600948D01*
X22082252Y-8650948D01*
X22082252Y-8904948D02*
X22132252Y-8854948D01*
X22082252Y-8804948D01*
X22032252Y-8854948D01*
X22082252Y-8904948D01*
X22336252Y-8650948D02*
X22386252Y-8600948D01*
X22336252Y-8550948D01*
X22286252Y-8600948D01*
X22336252Y-8650948D01*
X22336252Y-8904948D02*
X22386252Y-8854948D01*
X22336252Y-8804948D01*
X22286252Y-8854948D01*
X22336252Y-8904948D01*
X22590252Y-8650948D02*
X22640252Y-8600948D01*
X22590252Y-8550948D01*
X22540252Y-8600948D01*
X22590252Y-8650948D01*
X22590252Y-8904948D02*
X22640252Y-8854948D01*
X22590252Y-8804948D01*
X22540252Y-8854948D01*
X22590252Y-8904948D01*
X22660102Y-6956298D02*
X22774402Y-7070598D01*
X22774402Y-6956298D02*
X22660102Y-7070598D01*
X22774402Y-7013448D02*
G75*
G03X22774402Y-7013448I-57150J0D01*
G01*
X22660102Y-7210298D02*
X22774402Y-7324598D01*
X22774402Y-7210298D02*
X22660102Y-7324598D01*
X22774402Y-7267448D02*
G75*
G03X22774402Y-7267448I-57150J0D01*
G01*
X22660102Y-7464298D02*
X22774402Y-7578598D01*
X22774402Y-7464298D02*
X22660102Y-7578598D01*
X22774402Y-7521448D02*
G75*
G03X22774402Y-7521448I-57150J0D01*
G01*
X22660102Y-7718298D02*
X22774402Y-7832598D01*
X22774402Y-7718298D02*
X22660102Y-7832598D01*
X22774402Y-7775448D02*
G75*
G03X22774402Y-7775448I-57150J0D01*
G01*
X22660102Y-7972298D02*
X22774402Y-8086598D01*
X22774402Y-7972298D02*
X22660102Y-8086598D01*
X22774402Y-8029448D02*
G75*
G03X22774402Y-8029448I-57150J0D01*
G01*
D11*
X14294180Y-12632662D02*
X14294180Y-12332662D01*
X14365609Y-12332662D01*
X14408466Y-12346948D01*
X14437038Y-12375519D01*
X14451323Y-12404091D01*
X14465609Y-12461234D01*
X14465609Y-12504091D01*
X14451323Y-12561234D01*
X14437038Y-12589805D01*
X14408466Y-12618377D01*
X14365609Y-12632662D01*
X14294180Y-12632662D01*
X14594180Y-12632662D02*
X14594180Y-12432662D01*
X14594180Y-12489805D02*
X14608466Y-12461234D01*
X14622752Y-12446948D01*
X14651323Y-12432662D01*
X14679895Y-12432662D01*
X14779895Y-12632662D02*
X14779895Y-12432662D01*
X14779895Y-12332662D02*
X14765609Y-12346948D01*
X14779895Y-12361234D01*
X14794180Y-12346948D01*
X14779895Y-12332662D01*
X14779895Y-12361234D01*
X14965609Y-12632662D02*
X14937038Y-12618377D01*
X14922752Y-12589805D01*
X14922752Y-12332662D01*
X15122752Y-12632662D02*
X15094180Y-12618377D01*
X15079895Y-12589805D01*
X15079895Y-12332662D01*
X15465609Y-12632662D02*
X15465609Y-12332662D01*
X15565609Y-12546948D01*
X15665609Y-12332662D01*
X15665609Y-12632662D01*
X15937038Y-12632662D02*
X15937038Y-12475519D01*
X15922752Y-12446948D01*
X15894180Y-12432662D01*
X15837038Y-12432662D01*
X15808466Y-12446948D01*
X15937038Y-12618377D02*
X15908466Y-12632662D01*
X15837038Y-12632662D01*
X15808466Y-12618377D01*
X15794180Y-12589805D01*
X15794180Y-12561234D01*
X15808466Y-12532662D01*
X15837038Y-12518377D01*
X15908466Y-12518377D01*
X15937038Y-12504091D01*
X16079895Y-12432662D02*
X16079895Y-12732662D01*
X16079895Y-12446948D02*
X16108466Y-12432662D01*
X16165609Y-12432662D01*
X16194180Y-12446948D01*
X16208466Y-12461234D01*
X16222752Y-12489805D01*
X16222752Y-12575519D01*
X16208466Y-12604091D01*
X16194180Y-12618377D01*
X16165609Y-12632662D01*
X16108466Y-12632662D01*
X16079895Y-12618377D01*
X16351323Y-12604091D02*
X16365609Y-12618377D01*
X16351323Y-12632662D01*
X16337038Y-12618377D01*
X16351323Y-12604091D01*
X16351323Y-12632662D01*
X16351323Y-12446948D02*
X16365609Y-12461234D01*
X16351323Y-12475519D01*
X16337038Y-12461234D01*
X16351323Y-12446948D01*
X16351323Y-12475519D01*
X13977752Y-13111948D02*
X14007752Y-13141948D01*
X14007752Y-13111948D02*
X13977752Y-13141948D01*
X14351323Y-12962662D02*
X14379895Y-12962662D01*
X14408466Y-12976948D01*
X14422752Y-12991234D01*
X14437038Y-13019805D01*
X14451323Y-13076948D01*
X14451323Y-13148377D01*
X14437038Y-13205519D01*
X14422752Y-13234091D01*
X14408466Y-13248377D01*
X14379895Y-13262662D01*
X14351323Y-13262662D01*
X14322752Y-13248377D01*
X14308466Y-13234091D01*
X14294180Y-13205519D01*
X14279895Y-13148377D01*
X14279895Y-13076948D01*
X14294180Y-13019805D01*
X14308466Y-12991234D01*
X14322752Y-12976948D01*
X14351323Y-12962662D01*
X14579895Y-13234091D02*
X14594180Y-13248377D01*
X14579895Y-13262662D01*
X14565609Y-13248377D01*
X14579895Y-13234091D01*
X14579895Y-13262662D01*
X14694180Y-12962662D02*
X14879895Y-12962662D01*
X14779895Y-13076948D01*
X14822752Y-13076948D01*
X14851323Y-13091234D01*
X14865609Y-13105519D01*
X14879895Y-13134091D01*
X14879895Y-13205519D01*
X14865609Y-13234091D01*
X14851323Y-13248377D01*
X14822752Y-13262662D01*
X14737038Y-13262662D01*
X14708466Y-13248377D01*
X14694180Y-13234091D01*
X15065609Y-12962662D02*
X15094180Y-12962662D01*
X15122752Y-12976948D01*
X15137038Y-12991234D01*
X15151323Y-13019805D01*
X15165609Y-13076948D01*
X15165609Y-13148377D01*
X15151323Y-13205519D01*
X15137038Y-13234091D01*
X15122752Y-13248377D01*
X15094180Y-13262662D01*
X15065609Y-13262662D01*
X15037038Y-13248377D01*
X15022752Y-13234091D01*
X15008466Y-13205519D01*
X14994180Y-13148377D01*
X14994180Y-13076948D01*
X15008466Y-13019805D01*
X15022752Y-12991234D01*
X15037038Y-12976948D01*
X15065609Y-12962662D01*
X15294180Y-13262662D02*
X15294180Y-13062662D01*
X15294180Y-13091234D02*
X15308466Y-13076948D01*
X15337038Y-13062662D01*
X15379895Y-13062662D01*
X15408466Y-13076948D01*
X15422752Y-13105519D01*
X15422752Y-13262662D01*
X15422752Y-13105519D02*
X15437038Y-13076948D01*
X15465609Y-13062662D01*
X15508466Y-13062662D01*
X15537038Y-13076948D01*
X15551323Y-13105519D01*
X15551323Y-13262662D01*
X15694180Y-13262662D02*
X15694180Y-13062662D01*
X15694180Y-13091234D02*
X15708466Y-13076948D01*
X15737038Y-13062662D01*
X15779895Y-13062662D01*
X15808466Y-13076948D01*
X15822752Y-13105519D01*
X15822752Y-13262662D01*
X15822752Y-13105519D02*
X15837038Y-13076948D01*
X15865609Y-13062662D01*
X15908466Y-13062662D01*
X15937038Y-13076948D01*
X15951323Y-13105519D01*
X15951323Y-13262662D01*
X16537038Y-12948377D02*
X16279895Y-13334091D01*
X16922752Y-12962662D02*
X16951323Y-12962662D01*
X16979895Y-12976948D01*
X16994180Y-12991234D01*
X17008466Y-13019805D01*
X17022752Y-13076948D01*
X17022752Y-13148377D01*
X17008466Y-13205519D01*
X16994180Y-13234091D01*
X16979895Y-13248377D01*
X16951323Y-13262662D01*
X16922752Y-13262662D01*
X16894180Y-13248377D01*
X16879895Y-13234091D01*
X16865609Y-13205519D01*
X16851323Y-13148377D01*
X16851323Y-13076948D01*
X16865609Y-13019805D01*
X16879895Y-12991234D01*
X16894180Y-12976948D01*
X16922752Y-12962662D01*
X17151323Y-13234091D02*
X17165609Y-13248377D01*
X17151323Y-13262662D01*
X17137038Y-13248377D01*
X17151323Y-13234091D01*
X17151323Y-13262662D01*
X17351323Y-12962662D02*
X17379895Y-12962662D01*
X17408466Y-12976948D01*
X17422752Y-12991234D01*
X17437038Y-13019805D01*
X17451323Y-13076948D01*
X17451323Y-13148377D01*
X17437038Y-13205519D01*
X17422752Y-13234091D01*
X17408466Y-13248377D01*
X17379895Y-13262662D01*
X17351323Y-13262662D01*
X17322752Y-13248377D01*
X17308466Y-13234091D01*
X17294180Y-13205519D01*
X17279895Y-13148377D01*
X17279895Y-13076948D01*
X17294180Y-13019805D01*
X17308466Y-12991234D01*
X17322752Y-12976948D01*
X17351323Y-12962662D01*
X17737038Y-13262662D02*
X17565609Y-13262662D01*
X17651323Y-13262662D02*
X17651323Y-12962662D01*
X17622752Y-13005519D01*
X17594180Y-13034091D01*
X17565609Y-13048377D01*
X17851323Y-12991234D02*
X17865609Y-12976948D01*
X17894180Y-12962662D01*
X17965609Y-12962662D01*
X17994180Y-12976948D01*
X18008466Y-12991234D01*
X18022752Y-13019805D01*
X18022752Y-13048377D01*
X18008466Y-13091234D01*
X17837038Y-13262662D01*
X18022752Y-13262662D01*
X18137038Y-12962662D02*
X18137038Y-13019805D01*
X18251323Y-12962662D02*
X18251323Y-13019805D01*
X18694180Y-13376948D02*
X18679895Y-13362662D01*
X18651323Y-13319805D01*
X18637038Y-13291234D01*
X18622752Y-13248377D01*
X18608466Y-13176948D01*
X18608466Y-13119805D01*
X18622752Y-13048377D01*
X18637038Y-13005519D01*
X18651323Y-12976948D01*
X18679895Y-12934091D01*
X18694180Y-12919805D01*
X18965609Y-13262662D02*
X18794180Y-13262662D01*
X18879895Y-13262662D02*
X18879895Y-12962662D01*
X18851323Y-13005519D01*
X18822752Y-13034091D01*
X18794180Y-13048377D01*
X19079895Y-12991234D02*
X19094180Y-12976948D01*
X19122752Y-12962662D01*
X19194180Y-12962662D01*
X19222752Y-12976948D01*
X19237038Y-12991234D01*
X19251323Y-13019805D01*
X19251323Y-13048377D01*
X19237038Y-13091234D01*
X19065609Y-13262662D01*
X19251323Y-13262662D01*
X19365609Y-12991234D02*
X19379895Y-12976948D01*
X19408466Y-12962662D01*
X19479895Y-12962662D01*
X19508466Y-12976948D01*
X19522752Y-12991234D01*
X19537038Y-13019805D01*
X19537038Y-13048377D01*
X19522752Y-13091234D01*
X19351323Y-13262662D01*
X19537038Y-13262662D01*
X19894180Y-13262662D02*
X19894180Y-12962662D01*
X20022752Y-13262662D02*
X20022752Y-13105519D01*
X20008466Y-13076948D01*
X19979895Y-13062662D01*
X19937038Y-13062662D01*
X19908466Y-13076948D01*
X19894180Y-13091234D01*
X20208466Y-13262662D02*
X20179895Y-13248377D01*
X20165609Y-13234091D01*
X20151323Y-13205519D01*
X20151323Y-13119805D01*
X20165609Y-13091234D01*
X20179895Y-13076948D01*
X20208466Y-13062662D01*
X20251323Y-13062662D01*
X20279895Y-13076948D01*
X20294180Y-13091234D01*
X20308466Y-13119805D01*
X20308466Y-13205519D01*
X20294180Y-13234091D01*
X20279895Y-13248377D01*
X20251323Y-13262662D01*
X20208466Y-13262662D01*
X20479895Y-13262662D02*
X20451323Y-13248377D01*
X20437038Y-13219805D01*
X20437038Y-12962662D01*
X20708466Y-13248377D02*
X20679895Y-13262662D01*
X20622752Y-13262662D01*
X20594180Y-13248377D01*
X20579895Y-13219805D01*
X20579895Y-13105519D01*
X20594180Y-13076948D01*
X20622752Y-13062662D01*
X20679895Y-13062662D01*
X20708466Y-13076948D01*
X20722752Y-13105519D01*
X20722752Y-13134091D01*
X20579895Y-13162662D01*
X20837038Y-13248377D02*
X20865609Y-13262662D01*
X20922752Y-13262662D01*
X20951323Y-13248377D01*
X20965609Y-13219805D01*
X20965609Y-13205519D01*
X20951323Y-13176948D01*
X20922752Y-13162662D01*
X20879895Y-13162662D01*
X20851323Y-13148377D01*
X20837038Y-13119805D01*
X20837038Y-13105519D01*
X20851323Y-13076948D01*
X20879895Y-13062662D01*
X20922752Y-13062662D01*
X20951323Y-13076948D01*
X21065609Y-13376948D02*
X21079895Y-13362662D01*
X21108466Y-13319805D01*
X21122752Y-13291234D01*
X21137038Y-13248377D01*
X21151323Y-13176948D01*
X21151323Y-13119805D01*
X21137038Y-13048377D01*
X21122752Y-13005519D01*
X21108466Y-12976948D01*
X21079895Y-12934091D01*
X21065609Y-12919805D01*
X14007752Y-13522948D02*
G75*
G03X14007752Y-13522948I-30000J0D01*
G01*
X14351323Y-13358662D02*
X14379895Y-13358662D01*
X14408466Y-13372948D01*
X14422752Y-13387234D01*
X14437038Y-13415805D01*
X14451323Y-13472948D01*
X14451323Y-13544377D01*
X14437038Y-13601519D01*
X14422752Y-13630091D01*
X14408466Y-13644377D01*
X14379895Y-13658662D01*
X14351323Y-13658662D01*
X14322752Y-13644377D01*
X14308466Y-13630091D01*
X14294180Y-13601519D01*
X14279895Y-13544377D01*
X14279895Y-13472948D01*
X14294180Y-13415805D01*
X14308466Y-13387234D01*
X14322752Y-13372948D01*
X14351323Y-13358662D01*
X14579895Y-13630091D02*
X14594180Y-13644377D01*
X14579895Y-13658662D01*
X14565609Y-13644377D01*
X14579895Y-13630091D01*
X14579895Y-13658662D01*
X14851323Y-13358662D02*
X14794180Y-13358662D01*
X14765609Y-13372948D01*
X14751323Y-13387234D01*
X14722752Y-13430091D01*
X14708466Y-13487234D01*
X14708466Y-13601519D01*
X14722752Y-13630091D01*
X14737038Y-13644377D01*
X14765609Y-13658662D01*
X14822752Y-13658662D01*
X14851323Y-13644377D01*
X14865609Y-13630091D01*
X14879895Y-13601519D01*
X14879895Y-13530091D01*
X14865609Y-13501519D01*
X14851323Y-13487234D01*
X14822752Y-13472948D01*
X14765609Y-13472948D01*
X14737038Y-13487234D01*
X14722752Y-13501519D01*
X14708466Y-13530091D01*
X15065609Y-13358662D02*
X15094180Y-13358662D01*
X15122752Y-13372948D01*
X15137038Y-13387234D01*
X15151323Y-13415805D01*
X15165609Y-13472948D01*
X15165609Y-13544377D01*
X15151323Y-13601519D01*
X15137038Y-13630091D01*
X15122752Y-13644377D01*
X15094180Y-13658662D01*
X15065609Y-13658662D01*
X15037038Y-13644377D01*
X15022752Y-13630091D01*
X15008466Y-13601519D01*
X14994180Y-13544377D01*
X14994180Y-13472948D01*
X15008466Y-13415805D01*
X15022752Y-13387234D01*
X15037038Y-13372948D01*
X15065609Y-13358662D01*
X15294180Y-13658662D02*
X15294180Y-13458662D01*
X15294180Y-13487234D02*
X15308466Y-13472948D01*
X15337038Y-13458662D01*
X15379895Y-13458662D01*
X15408466Y-13472948D01*
X15422752Y-13501519D01*
X15422752Y-13658662D01*
X15422752Y-13501519D02*
X15437038Y-13472948D01*
X15465609Y-13458662D01*
X15508466Y-13458662D01*
X15537038Y-13472948D01*
X15551323Y-13501519D01*
X15551323Y-13658662D01*
X15694180Y-13658662D02*
X15694180Y-13458662D01*
X15694180Y-13487234D02*
X15708466Y-13472948D01*
X15737038Y-13458662D01*
X15779895Y-13458662D01*
X15808466Y-13472948D01*
X15822752Y-13501519D01*
X15822752Y-13658662D01*
X15822752Y-13501519D02*
X15837038Y-13472948D01*
X15865609Y-13458662D01*
X15908466Y-13458662D01*
X15937038Y-13472948D01*
X15951323Y-13501519D01*
X15951323Y-13658662D01*
X16537038Y-13344377D02*
X16279895Y-13730091D01*
X16922752Y-13358662D02*
X16951323Y-13358662D01*
X16979895Y-13372948D01*
X16994180Y-13387234D01*
X17008466Y-13415805D01*
X17022752Y-13472948D01*
X17022752Y-13544377D01*
X17008466Y-13601519D01*
X16994180Y-13630091D01*
X16979895Y-13644377D01*
X16951323Y-13658662D01*
X16922752Y-13658662D01*
X16894180Y-13644377D01*
X16879895Y-13630091D01*
X16865609Y-13601519D01*
X16851323Y-13544377D01*
X16851323Y-13472948D01*
X16865609Y-13415805D01*
X16879895Y-13387234D01*
X16894180Y-13372948D01*
X16922752Y-13358662D01*
X17151323Y-13630091D02*
X17165609Y-13644377D01*
X17151323Y-13658662D01*
X17137038Y-13644377D01*
X17151323Y-13630091D01*
X17151323Y-13658662D01*
X17351323Y-13358662D02*
X17379895Y-13358662D01*
X17408466Y-13372948D01*
X17422752Y-13387234D01*
X17437038Y-13415805D01*
X17451323Y-13472948D01*
X17451323Y-13544377D01*
X17437038Y-13601519D01*
X17422752Y-13630091D01*
X17408466Y-13644377D01*
X17379895Y-13658662D01*
X17351323Y-13658662D01*
X17322752Y-13644377D01*
X17308466Y-13630091D01*
X17294180Y-13601519D01*
X17279895Y-13544377D01*
X17279895Y-13472948D01*
X17294180Y-13415805D01*
X17308466Y-13387234D01*
X17322752Y-13372948D01*
X17351323Y-13358662D01*
X17565609Y-13387234D02*
X17579895Y-13372948D01*
X17608466Y-13358662D01*
X17679895Y-13358662D01*
X17708466Y-13372948D01*
X17722752Y-13387234D01*
X17737038Y-13415805D01*
X17737038Y-13444377D01*
X17722752Y-13487234D01*
X17551323Y-13658662D01*
X17737038Y-13658662D01*
X17994180Y-13458662D02*
X17994180Y-13658662D01*
X17922752Y-13344377D02*
X17851323Y-13558662D01*
X18037038Y-13558662D01*
X18137038Y-13358662D02*
X18137038Y-13415805D01*
X18251323Y-13358662D02*
X18251323Y-13415805D01*
X18694180Y-13772948D02*
X18679895Y-13758662D01*
X18651323Y-13715805D01*
X18637038Y-13687234D01*
X18622752Y-13644377D01*
X18608466Y-13572948D01*
X18608466Y-13515805D01*
X18622752Y-13444377D01*
X18637038Y-13401519D01*
X18651323Y-13372948D01*
X18679895Y-13330091D01*
X18694180Y-13315805D01*
X18794180Y-13387234D02*
X18808466Y-13372948D01*
X18837038Y-13358662D01*
X18908466Y-13358662D01*
X18937038Y-13372948D01*
X18951323Y-13387234D01*
X18965609Y-13415805D01*
X18965609Y-13444377D01*
X18951323Y-13487234D01*
X18779895Y-13658662D01*
X18965609Y-13658662D01*
X19079895Y-13387234D02*
X19094180Y-13372948D01*
X19122752Y-13358662D01*
X19194180Y-13358662D01*
X19222752Y-13372948D01*
X19237038Y-13387234D01*
X19251323Y-13415805D01*
X19251323Y-13444377D01*
X19237038Y-13487234D01*
X19065609Y-13658662D01*
X19251323Y-13658662D01*
X19608466Y-13658662D02*
X19608466Y-13358662D01*
X19737038Y-13658662D02*
X19737038Y-13501519D01*
X19722752Y-13472948D01*
X19694180Y-13458662D01*
X19651323Y-13458662D01*
X19622752Y-13472948D01*
X19608466Y-13487234D01*
X19922752Y-13658662D02*
X19894180Y-13644377D01*
X19879895Y-13630091D01*
X19865609Y-13601519D01*
X19865609Y-13515805D01*
X19879895Y-13487234D01*
X19894180Y-13472948D01*
X19922752Y-13458662D01*
X19965609Y-13458662D01*
X19994180Y-13472948D01*
X20008466Y-13487234D01*
X20022752Y-13515805D01*
X20022752Y-13601519D01*
X20008466Y-13630091D01*
X19994180Y-13644377D01*
X19965609Y-13658662D01*
X19922752Y-13658662D01*
X20194180Y-13658662D02*
X20165609Y-13644377D01*
X20151323Y-13615805D01*
X20151323Y-13358662D01*
X20422752Y-13644377D02*
X20394180Y-13658662D01*
X20337038Y-13658662D01*
X20308466Y-13644377D01*
X20294180Y-13615805D01*
X20294180Y-13501519D01*
X20308466Y-13472948D01*
X20337038Y-13458662D01*
X20394180Y-13458662D01*
X20422752Y-13472948D01*
X20437038Y-13501519D01*
X20437038Y-13530091D01*
X20294180Y-13558662D01*
X20551323Y-13644377D02*
X20579895Y-13658662D01*
X20637038Y-13658662D01*
X20665609Y-13644377D01*
X20679895Y-13615805D01*
X20679895Y-13601519D01*
X20665609Y-13572948D01*
X20637038Y-13558662D01*
X20594180Y-13558662D01*
X20565609Y-13544377D01*
X20551323Y-13515805D01*
X20551323Y-13501519D01*
X20565609Y-13472948D01*
X20594180Y-13458662D01*
X20637038Y-13458662D01*
X20665609Y-13472948D01*
X20779895Y-13772948D02*
X20794180Y-13758662D01*
X20822752Y-13715805D01*
X20837038Y-13687234D01*
X20851323Y-13644377D01*
X20865609Y-13572948D01*
X20865609Y-13515805D01*
X20851323Y-13444377D01*
X20837038Y-13401519D01*
X20822752Y-13372948D01*
X20794180Y-13330091D01*
X20779895Y-13315805D01*
X13967752Y-13878948D02*
X13967752Y-13958948D01*
X13927752Y-13918948D02*
X14007752Y-13918948D01*
X14351323Y-13754662D02*
X14379895Y-13754662D01*
X14408466Y-13768948D01*
X14422752Y-13783234D01*
X14437038Y-13811805D01*
X14451323Y-13868948D01*
X14451323Y-13940377D01*
X14437038Y-13997519D01*
X14422752Y-14026091D01*
X14408466Y-14040377D01*
X14379895Y-14054662D01*
X14351323Y-14054662D01*
X14322752Y-14040377D01*
X14308466Y-14026091D01*
X14294180Y-13997519D01*
X14279895Y-13940377D01*
X14279895Y-13868948D01*
X14294180Y-13811805D01*
X14308466Y-13783234D01*
X14322752Y-13768948D01*
X14351323Y-13754662D01*
X14579895Y-14026091D02*
X14594180Y-14040377D01*
X14579895Y-14054662D01*
X14565609Y-14040377D01*
X14579895Y-14026091D01*
X14579895Y-14054662D01*
X14765609Y-13883234D02*
X14737038Y-13868948D01*
X14722752Y-13854662D01*
X14708466Y-13826091D01*
X14708466Y-13811805D01*
X14722752Y-13783234D01*
X14737038Y-13768948D01*
X14765609Y-13754662D01*
X14822752Y-13754662D01*
X14851323Y-13768948D01*
X14865609Y-13783234D01*
X14879895Y-13811805D01*
X14879895Y-13826091D01*
X14865609Y-13854662D01*
X14851323Y-13868948D01*
X14822752Y-13883234D01*
X14765609Y-13883234D01*
X14737038Y-13897519D01*
X14722752Y-13911805D01*
X14708466Y-13940377D01*
X14708466Y-13997519D01*
X14722752Y-14026091D01*
X14737038Y-14040377D01*
X14765609Y-14054662D01*
X14822752Y-14054662D01*
X14851323Y-14040377D01*
X14865609Y-14026091D01*
X14879895Y-13997519D01*
X14879895Y-13940377D01*
X14865609Y-13911805D01*
X14851323Y-13897519D01*
X14822752Y-13883234D01*
X15065609Y-13754662D02*
X15094180Y-13754662D01*
X15122752Y-13768948D01*
X15137038Y-13783234D01*
X15151323Y-13811805D01*
X15165609Y-13868948D01*
X15165609Y-13940377D01*
X15151323Y-13997519D01*
X15137038Y-14026091D01*
X15122752Y-14040377D01*
X15094180Y-14054662D01*
X15065609Y-14054662D01*
X15037038Y-14040377D01*
X15022752Y-14026091D01*
X15008466Y-13997519D01*
X14994180Y-13940377D01*
X14994180Y-13868948D01*
X15008466Y-13811805D01*
X15022752Y-13783234D01*
X15037038Y-13768948D01*
X15065609Y-13754662D01*
X15294180Y-14054662D02*
X15294180Y-13854662D01*
X15294180Y-13883234D02*
X15308466Y-13868948D01*
X15337038Y-13854662D01*
X15379895Y-13854662D01*
X15408466Y-13868948D01*
X15422752Y-13897519D01*
X15422752Y-14054662D01*
X15422752Y-13897519D02*
X15437038Y-13868948D01*
X15465609Y-13854662D01*
X15508466Y-13854662D01*
X15537038Y-13868948D01*
X15551323Y-13897519D01*
X15551323Y-14054662D01*
X15694180Y-14054662D02*
X15694180Y-13854662D01*
X15694180Y-13883234D02*
X15708466Y-13868948D01*
X15737038Y-13854662D01*
X15779895Y-13854662D01*
X15808466Y-13868948D01*
X15822752Y-13897519D01*
X15822752Y-14054662D01*
X15822752Y-13897519D02*
X15837038Y-13868948D01*
X15865609Y-13854662D01*
X15908466Y-13854662D01*
X15937038Y-13868948D01*
X15951323Y-13897519D01*
X15951323Y-14054662D01*
X16537038Y-13740377D02*
X16279895Y-14126091D01*
X16922752Y-13754662D02*
X16951323Y-13754662D01*
X16979895Y-13768948D01*
X16994180Y-13783234D01*
X17008466Y-13811805D01*
X17022752Y-13868948D01*
X17022752Y-13940377D01*
X17008466Y-13997519D01*
X16994180Y-14026091D01*
X16979895Y-14040377D01*
X16951323Y-14054662D01*
X16922752Y-14054662D01*
X16894180Y-14040377D01*
X16879895Y-14026091D01*
X16865609Y-13997519D01*
X16851323Y-13940377D01*
X16851323Y-13868948D01*
X16865609Y-13811805D01*
X16879895Y-13783234D01*
X16894180Y-13768948D01*
X16922752Y-13754662D01*
X17151323Y-14026091D02*
X17165609Y-14040377D01*
X17151323Y-14054662D01*
X17137038Y-14040377D01*
X17151323Y-14026091D01*
X17151323Y-14054662D01*
X17351323Y-13754662D02*
X17379895Y-13754662D01*
X17408466Y-13768948D01*
X17422752Y-13783234D01*
X17437038Y-13811805D01*
X17451323Y-13868948D01*
X17451323Y-13940377D01*
X17437038Y-13997519D01*
X17422752Y-14026091D01*
X17408466Y-14040377D01*
X17379895Y-14054662D01*
X17351323Y-14054662D01*
X17322752Y-14040377D01*
X17308466Y-14026091D01*
X17294180Y-13997519D01*
X17279895Y-13940377D01*
X17279895Y-13868948D01*
X17294180Y-13811805D01*
X17308466Y-13783234D01*
X17322752Y-13768948D01*
X17351323Y-13754662D01*
X17551323Y-13754662D02*
X17737038Y-13754662D01*
X17637038Y-13868948D01*
X17679895Y-13868948D01*
X17708466Y-13883234D01*
X17722752Y-13897519D01*
X17737038Y-13926091D01*
X17737038Y-13997519D01*
X17722752Y-14026091D01*
X17708466Y-14040377D01*
X17679895Y-14054662D01*
X17594180Y-14054662D01*
X17565609Y-14040377D01*
X17551323Y-14026091D01*
X18022752Y-14054662D02*
X17851323Y-14054662D01*
X17937038Y-14054662D02*
X17937038Y-13754662D01*
X17908466Y-13797519D01*
X17879895Y-13826091D01*
X17851323Y-13840377D01*
X18137038Y-13754662D02*
X18137038Y-13811805D01*
X18251323Y-13754662D02*
X18251323Y-13811805D01*
X18694180Y-14168948D02*
X18679895Y-14154662D01*
X18651323Y-14111805D01*
X18637038Y-14083234D01*
X18622752Y-14040377D01*
X18608466Y-13968948D01*
X18608466Y-13911805D01*
X18622752Y-13840377D01*
X18637038Y-13797519D01*
X18651323Y-13768948D01*
X18679895Y-13726091D01*
X18694180Y-13711805D01*
X18779895Y-13754662D02*
X18965609Y-13754662D01*
X18865609Y-13868948D01*
X18908466Y-13868948D01*
X18937038Y-13883234D01*
X18951323Y-13897519D01*
X18965609Y-13926091D01*
X18965609Y-13997519D01*
X18951323Y-14026091D01*
X18937038Y-14040377D01*
X18908466Y-14054662D01*
X18822752Y-14054662D01*
X18794180Y-14040377D01*
X18779895Y-14026091D01*
X19222752Y-13754662D02*
X19165609Y-13754662D01*
X19137038Y-13768948D01*
X19122752Y-13783234D01*
X19094180Y-13826091D01*
X19079895Y-13883234D01*
X19079895Y-13997519D01*
X19094180Y-14026091D01*
X19108466Y-14040377D01*
X19137038Y-14054662D01*
X19194180Y-14054662D01*
X19222752Y-14040377D01*
X19237038Y-14026091D01*
X19251323Y-13997519D01*
X19251323Y-13926091D01*
X19237038Y-13897519D01*
X19222752Y-13883234D01*
X19194180Y-13868948D01*
X19137038Y-13868948D01*
X19108466Y-13883234D01*
X19094180Y-13897519D01*
X19079895Y-13926091D01*
X19608466Y-14054662D02*
X19608466Y-13754662D01*
X19737038Y-14054662D02*
X19737038Y-13897519D01*
X19722752Y-13868948D01*
X19694180Y-13854662D01*
X19651323Y-13854662D01*
X19622752Y-13868948D01*
X19608466Y-13883234D01*
X19922752Y-14054662D02*
X19894180Y-14040377D01*
X19879895Y-14026091D01*
X19865609Y-13997519D01*
X19865609Y-13911805D01*
X19879895Y-13883234D01*
X19894180Y-13868948D01*
X19922752Y-13854662D01*
X19965609Y-13854662D01*
X19994180Y-13868948D01*
X20008466Y-13883234D01*
X20022752Y-13911805D01*
X20022752Y-13997519D01*
X20008466Y-14026091D01*
X19994180Y-14040377D01*
X19965609Y-14054662D01*
X19922752Y-14054662D01*
X20194180Y-14054662D02*
X20165609Y-14040377D01*
X20151323Y-14011805D01*
X20151323Y-13754662D01*
X20422752Y-14040377D02*
X20394180Y-14054662D01*
X20337038Y-14054662D01*
X20308466Y-14040377D01*
X20294180Y-14011805D01*
X20294180Y-13897519D01*
X20308466Y-13868948D01*
X20337038Y-13854662D01*
X20394180Y-13854662D01*
X20422752Y-13868948D01*
X20437038Y-13897519D01*
X20437038Y-13926091D01*
X20294180Y-13954662D01*
X20551323Y-14040377D02*
X20579895Y-14054662D01*
X20637038Y-14054662D01*
X20665609Y-14040377D01*
X20679895Y-14011805D01*
X20679895Y-13997519D01*
X20665609Y-13968948D01*
X20637038Y-13954662D01*
X20594180Y-13954662D01*
X20565609Y-13940377D01*
X20551323Y-13911805D01*
X20551323Y-13897519D01*
X20565609Y-13868948D01*
X20594180Y-13854662D01*
X20637038Y-13854662D01*
X20665609Y-13868948D01*
X20779895Y-14168948D02*
X20794180Y-14154662D01*
X20822752Y-14111805D01*
X20837038Y-14083234D01*
X20851323Y-14040377D01*
X20865609Y-13968948D01*
X20865609Y-13911805D01*
X20851323Y-13840377D01*
X20837038Y-13797519D01*
X20822752Y-13768948D01*
X20794180Y-13726091D01*
X20779895Y-13711805D01*
X13995849Y-14343685D02*
X13995849Y-14286211D01*
X13938375Y-14286211D01*
X13938375Y-14343685D01*
X13995849Y-14343685D01*
X14351323Y-14150662D02*
X14379895Y-14150662D01*
X14408466Y-14164948D01*
X14422752Y-14179234D01*
X14437038Y-14207805D01*
X14451323Y-14264948D01*
X14451323Y-14336377D01*
X14437038Y-14393519D01*
X14422752Y-14422091D01*
X14408466Y-14436377D01*
X14379895Y-14450662D01*
X14351323Y-14450662D01*
X14322752Y-14436377D01*
X14308466Y-14422091D01*
X14294180Y-14393519D01*
X14279895Y-14336377D01*
X14279895Y-14264948D01*
X14294180Y-14207805D01*
X14308466Y-14179234D01*
X14322752Y-14164948D01*
X14351323Y-14150662D01*
X14579895Y-14422091D02*
X14594180Y-14436377D01*
X14579895Y-14450662D01*
X14565609Y-14436377D01*
X14579895Y-14422091D01*
X14579895Y-14450662D01*
X14765609Y-14279234D02*
X14737038Y-14264948D01*
X14722752Y-14250662D01*
X14708466Y-14222091D01*
X14708466Y-14207805D01*
X14722752Y-14179234D01*
X14737038Y-14164948D01*
X14765609Y-14150662D01*
X14822752Y-14150662D01*
X14851323Y-14164948D01*
X14865609Y-14179234D01*
X14879895Y-14207805D01*
X14879895Y-14222091D01*
X14865609Y-14250662D01*
X14851323Y-14264948D01*
X14822752Y-14279234D01*
X14765609Y-14279234D01*
X14737038Y-14293519D01*
X14722752Y-14307805D01*
X14708466Y-14336377D01*
X14708466Y-14393519D01*
X14722752Y-14422091D01*
X14737038Y-14436377D01*
X14765609Y-14450662D01*
X14822752Y-14450662D01*
X14851323Y-14436377D01*
X14865609Y-14422091D01*
X14879895Y-14393519D01*
X14879895Y-14336377D01*
X14865609Y-14307805D01*
X14851323Y-14293519D01*
X14822752Y-14279234D01*
X15165609Y-14450662D02*
X14994180Y-14450662D01*
X15079895Y-14450662D02*
X15079895Y-14150662D01*
X15051323Y-14193519D01*
X15022752Y-14222091D01*
X14994180Y-14236377D01*
X15294180Y-14450662D02*
X15294180Y-14250662D01*
X15294180Y-14279234D02*
X15308466Y-14264948D01*
X15337038Y-14250662D01*
X15379895Y-14250662D01*
X15408466Y-14264948D01*
X15422752Y-14293519D01*
X15422752Y-14450662D01*
X15422752Y-14293519D02*
X15437038Y-14264948D01*
X15465609Y-14250662D01*
X15508466Y-14250662D01*
X15537038Y-14264948D01*
X15551323Y-14293519D01*
X15551323Y-14450662D01*
X15694180Y-14450662D02*
X15694180Y-14250662D01*
X15694180Y-14279234D02*
X15708466Y-14264948D01*
X15737038Y-14250662D01*
X15779895Y-14250662D01*
X15808466Y-14264948D01*
X15822752Y-14293519D01*
X15822752Y-14450662D01*
X15822752Y-14293519D02*
X15837038Y-14264948D01*
X15865609Y-14250662D01*
X15908466Y-14250662D01*
X15937038Y-14264948D01*
X15951323Y-14293519D01*
X15951323Y-14450662D01*
X16537038Y-14136377D02*
X16279895Y-14522091D01*
X16922752Y-14150662D02*
X16951323Y-14150662D01*
X16979895Y-14164948D01*
X16994180Y-14179234D01*
X17008466Y-14207805D01*
X17022752Y-14264948D01*
X17022752Y-14336377D01*
X17008466Y-14393519D01*
X16994180Y-14422091D01*
X16979895Y-14436377D01*
X16951323Y-14450662D01*
X16922752Y-14450662D01*
X16894180Y-14436377D01*
X16879895Y-14422091D01*
X16865609Y-14393519D01*
X16851323Y-14336377D01*
X16851323Y-14264948D01*
X16865609Y-14207805D01*
X16879895Y-14179234D01*
X16894180Y-14164948D01*
X16922752Y-14150662D01*
X17151323Y-14422091D02*
X17165609Y-14436377D01*
X17151323Y-14450662D01*
X17137038Y-14436377D01*
X17151323Y-14422091D01*
X17151323Y-14450662D01*
X17351323Y-14150662D02*
X17379895Y-14150662D01*
X17408466Y-14164948D01*
X17422752Y-14179234D01*
X17437038Y-14207805D01*
X17451323Y-14264948D01*
X17451323Y-14336377D01*
X17437038Y-14393519D01*
X17422752Y-14422091D01*
X17408466Y-14436377D01*
X17379895Y-14450662D01*
X17351323Y-14450662D01*
X17322752Y-14436377D01*
X17308466Y-14422091D01*
X17294180Y-14393519D01*
X17279895Y-14336377D01*
X17279895Y-14264948D01*
X17294180Y-14207805D01*
X17308466Y-14179234D01*
X17322752Y-14164948D01*
X17351323Y-14150662D01*
X17551323Y-14150662D02*
X17737038Y-14150662D01*
X17637038Y-14264948D01*
X17679895Y-14264948D01*
X17708466Y-14279234D01*
X17722752Y-14293519D01*
X17737038Y-14322091D01*
X17737038Y-14393519D01*
X17722752Y-14422091D01*
X17708466Y-14436377D01*
X17679895Y-14450662D01*
X17594180Y-14450662D01*
X17565609Y-14436377D01*
X17551323Y-14422091D01*
X17851323Y-14179234D02*
X17865609Y-14164948D01*
X17894180Y-14150662D01*
X17965609Y-14150662D01*
X17994180Y-14164948D01*
X18008466Y-14179234D01*
X18022752Y-14207805D01*
X18022752Y-14236377D01*
X18008466Y-14279234D01*
X17837038Y-14450662D01*
X18022752Y-14450662D01*
X18137038Y-14150662D02*
X18137038Y-14207805D01*
X18251323Y-14150662D02*
X18251323Y-14207805D01*
X18694180Y-14564948D02*
X18679895Y-14550662D01*
X18651323Y-14507805D01*
X18637038Y-14479234D01*
X18622752Y-14436377D01*
X18608466Y-14364948D01*
X18608466Y-14307805D01*
X18622752Y-14236377D01*
X18637038Y-14193519D01*
X18651323Y-14164948D01*
X18679895Y-14122091D01*
X18694180Y-14107805D01*
X18965609Y-14450662D02*
X18794180Y-14450662D01*
X18879895Y-14450662D02*
X18879895Y-14150662D01*
X18851323Y-14193519D01*
X18822752Y-14222091D01*
X18794180Y-14236377D01*
X19079895Y-14179234D02*
X19094180Y-14164948D01*
X19122752Y-14150662D01*
X19194180Y-14150662D01*
X19222752Y-14164948D01*
X19237038Y-14179234D01*
X19251323Y-14207805D01*
X19251323Y-14236377D01*
X19237038Y-14279234D01*
X19065609Y-14450662D01*
X19251323Y-14450662D01*
X19608466Y-14450662D02*
X19608466Y-14150662D01*
X19737038Y-14450662D02*
X19737038Y-14293519D01*
X19722752Y-14264948D01*
X19694180Y-14250662D01*
X19651323Y-14250662D01*
X19622752Y-14264948D01*
X19608466Y-14279234D01*
X19922752Y-14450662D02*
X19894180Y-14436377D01*
X19879895Y-14422091D01*
X19865609Y-14393519D01*
X19865609Y-14307805D01*
X19879895Y-14279234D01*
X19894180Y-14264948D01*
X19922752Y-14250662D01*
X19965609Y-14250662D01*
X19994180Y-14264948D01*
X20008466Y-14279234D01*
X20022752Y-14307805D01*
X20022752Y-14393519D01*
X20008466Y-14422091D01*
X19994180Y-14436377D01*
X19965609Y-14450662D01*
X19922752Y-14450662D01*
X20194180Y-14450662D02*
X20165609Y-14436377D01*
X20151323Y-14407805D01*
X20151323Y-14150662D01*
X20422752Y-14436377D02*
X20394180Y-14450662D01*
X20337038Y-14450662D01*
X20308466Y-14436377D01*
X20294180Y-14407805D01*
X20294180Y-14293519D01*
X20308466Y-14264948D01*
X20337038Y-14250662D01*
X20394180Y-14250662D01*
X20422752Y-14264948D01*
X20437038Y-14293519D01*
X20437038Y-14322091D01*
X20294180Y-14350662D01*
X20551323Y-14436377D02*
X20579895Y-14450662D01*
X20637038Y-14450662D01*
X20665609Y-14436377D01*
X20679895Y-14407805D01*
X20679895Y-14393519D01*
X20665609Y-14364948D01*
X20637038Y-14350662D01*
X20594180Y-14350662D01*
X20565609Y-14336377D01*
X20551323Y-14307805D01*
X20551323Y-14293519D01*
X20565609Y-14264948D01*
X20594180Y-14250662D01*
X20637038Y-14250662D01*
X20665609Y-14264948D01*
X20779895Y-14564948D02*
X20794180Y-14550662D01*
X20822752Y-14507805D01*
X20837038Y-14479234D01*
X20851323Y-14436377D01*
X20865609Y-14364948D01*
X20865609Y-14307805D01*
X20851323Y-14236377D01*
X20837038Y-14193519D01*
X20822752Y-14164948D01*
X20794180Y-14122091D01*
X20779895Y-14107805D01*
X13957752Y-14760948D02*
X14007752Y-14710948D01*
X13957752Y-14660948D01*
X13907752Y-14710948D01*
X13957752Y-14760948D01*
X14451323Y-14846662D02*
X14279895Y-14846662D01*
X14365609Y-14846662D02*
X14365609Y-14546662D01*
X14337038Y-14589519D01*
X14308466Y-14618091D01*
X14279895Y-14632377D01*
X14579895Y-14818091D02*
X14594180Y-14832377D01*
X14579895Y-14846662D01*
X14565609Y-14832377D01*
X14579895Y-14818091D01*
X14579895Y-14846662D01*
X14779895Y-14546662D02*
X14808466Y-14546662D01*
X14837038Y-14560948D01*
X14851323Y-14575234D01*
X14865609Y-14603805D01*
X14879895Y-14660948D01*
X14879895Y-14732377D01*
X14865609Y-14789519D01*
X14851323Y-14818091D01*
X14837038Y-14832377D01*
X14808466Y-14846662D01*
X14779895Y-14846662D01*
X14751323Y-14832377D01*
X14737038Y-14818091D01*
X14722752Y-14789519D01*
X14708466Y-14732377D01*
X14708466Y-14660948D01*
X14722752Y-14603805D01*
X14737038Y-14575234D01*
X14751323Y-14560948D01*
X14779895Y-14546662D01*
X15065609Y-14546662D02*
X15094180Y-14546662D01*
X15122752Y-14560948D01*
X15137038Y-14575234D01*
X15151323Y-14603805D01*
X15165609Y-14660948D01*
X15165609Y-14732377D01*
X15151323Y-14789519D01*
X15137038Y-14818091D01*
X15122752Y-14832377D01*
X15094180Y-14846662D01*
X15065609Y-14846662D01*
X15037038Y-14832377D01*
X15022752Y-14818091D01*
X15008466Y-14789519D01*
X14994180Y-14732377D01*
X14994180Y-14660948D01*
X15008466Y-14603805D01*
X15022752Y-14575234D01*
X15037038Y-14560948D01*
X15065609Y-14546662D01*
X15294180Y-14846662D02*
X15294180Y-14646662D01*
X15294180Y-14675234D02*
X15308466Y-14660948D01*
X15337038Y-14646662D01*
X15379895Y-14646662D01*
X15408466Y-14660948D01*
X15422752Y-14689519D01*
X15422752Y-14846662D01*
X15422752Y-14689519D02*
X15437038Y-14660948D01*
X15465609Y-14646662D01*
X15508466Y-14646662D01*
X15537038Y-14660948D01*
X15551323Y-14689519D01*
X15551323Y-14846662D01*
X15694180Y-14846662D02*
X15694180Y-14646662D01*
X15694180Y-14675234D02*
X15708466Y-14660948D01*
X15737038Y-14646662D01*
X15779895Y-14646662D01*
X15808466Y-14660948D01*
X15822752Y-14689519D01*
X15822752Y-14846662D01*
X15822752Y-14689519D02*
X15837038Y-14660948D01*
X15865609Y-14646662D01*
X15908466Y-14646662D01*
X15937038Y-14660948D01*
X15951323Y-14689519D01*
X15951323Y-14846662D01*
X16537038Y-14532377D02*
X16279895Y-14918091D01*
X16922752Y-14546662D02*
X16951323Y-14546662D01*
X16979895Y-14560948D01*
X16994180Y-14575234D01*
X17008466Y-14603805D01*
X17022752Y-14660948D01*
X17022752Y-14732377D01*
X17008466Y-14789519D01*
X16994180Y-14818091D01*
X16979895Y-14832377D01*
X16951323Y-14846662D01*
X16922752Y-14846662D01*
X16894180Y-14832377D01*
X16879895Y-14818091D01*
X16865609Y-14789519D01*
X16851323Y-14732377D01*
X16851323Y-14660948D01*
X16865609Y-14603805D01*
X16879895Y-14575234D01*
X16894180Y-14560948D01*
X16922752Y-14546662D01*
X17151323Y-14818091D02*
X17165609Y-14832377D01*
X17151323Y-14846662D01*
X17137038Y-14832377D01*
X17151323Y-14818091D01*
X17151323Y-14846662D01*
X17351323Y-14546662D02*
X17379895Y-14546662D01*
X17408466Y-14560948D01*
X17422752Y-14575234D01*
X17437038Y-14603805D01*
X17451323Y-14660948D01*
X17451323Y-14732377D01*
X17437038Y-14789519D01*
X17422752Y-14818091D01*
X17408466Y-14832377D01*
X17379895Y-14846662D01*
X17351323Y-14846662D01*
X17322752Y-14832377D01*
X17308466Y-14818091D01*
X17294180Y-14789519D01*
X17279895Y-14732377D01*
X17279895Y-14660948D01*
X17294180Y-14603805D01*
X17308466Y-14575234D01*
X17322752Y-14560948D01*
X17351323Y-14546662D01*
X17551323Y-14546662D02*
X17737038Y-14546662D01*
X17637038Y-14660948D01*
X17679895Y-14660948D01*
X17708466Y-14675234D01*
X17722752Y-14689519D01*
X17737038Y-14718091D01*
X17737038Y-14789519D01*
X17722752Y-14818091D01*
X17708466Y-14832377D01*
X17679895Y-14846662D01*
X17594180Y-14846662D01*
X17565609Y-14832377D01*
X17551323Y-14818091D01*
X17879895Y-14846662D02*
X17937038Y-14846662D01*
X17965609Y-14832377D01*
X17979895Y-14818091D01*
X18008466Y-14775234D01*
X18022752Y-14718091D01*
X18022752Y-14603805D01*
X18008466Y-14575234D01*
X17994180Y-14560948D01*
X17965609Y-14546662D01*
X17908466Y-14546662D01*
X17879895Y-14560948D01*
X17865609Y-14575234D01*
X17851323Y-14603805D01*
X17851323Y-14675234D01*
X17865609Y-14703805D01*
X17879895Y-14718091D01*
X17908466Y-14732377D01*
X17965609Y-14732377D01*
X17994180Y-14718091D01*
X18008466Y-14703805D01*
X18022752Y-14675234D01*
X18137038Y-14546662D02*
X18137038Y-14603805D01*
X18251323Y-14546662D02*
X18251323Y-14603805D01*
X18694180Y-14960948D02*
X18679895Y-14946662D01*
X18651323Y-14903805D01*
X18637038Y-14875234D01*
X18622752Y-14832377D01*
X18608466Y-14760948D01*
X18608466Y-14703805D01*
X18622752Y-14632377D01*
X18637038Y-14589519D01*
X18651323Y-14560948D01*
X18679895Y-14518091D01*
X18694180Y-14503805D01*
X18794180Y-14575234D02*
X18808466Y-14560948D01*
X18837038Y-14546662D01*
X18908466Y-14546662D01*
X18937038Y-14560948D01*
X18951323Y-14575234D01*
X18965609Y-14603805D01*
X18965609Y-14632377D01*
X18951323Y-14675234D01*
X18779895Y-14846662D01*
X18965609Y-14846662D01*
X19065609Y-14546662D02*
X19265609Y-14546662D01*
X19137038Y-14846662D01*
X19351323Y-14546662D02*
X19551323Y-14546662D01*
X19422752Y-14846662D01*
X19894180Y-14846662D02*
X19894180Y-14546662D01*
X20022752Y-14846662D02*
X20022752Y-14689519D01*
X20008466Y-14660948D01*
X19979895Y-14646662D01*
X19937038Y-14646662D01*
X19908466Y-14660948D01*
X19894180Y-14675234D01*
X20208466Y-14846662D02*
X20179895Y-14832377D01*
X20165609Y-14818091D01*
X20151323Y-14789519D01*
X20151323Y-14703805D01*
X20165609Y-14675234D01*
X20179895Y-14660948D01*
X20208466Y-14646662D01*
X20251323Y-14646662D01*
X20279895Y-14660948D01*
X20294180Y-14675234D01*
X20308466Y-14703805D01*
X20308466Y-14789519D01*
X20294180Y-14818091D01*
X20279895Y-14832377D01*
X20251323Y-14846662D01*
X20208466Y-14846662D01*
X20479895Y-14846662D02*
X20451323Y-14832377D01*
X20437038Y-14803805D01*
X20437038Y-14546662D01*
X20708466Y-14832377D02*
X20679895Y-14846662D01*
X20622752Y-14846662D01*
X20594180Y-14832377D01*
X20579895Y-14803805D01*
X20579895Y-14689519D01*
X20594180Y-14660948D01*
X20622752Y-14646662D01*
X20679895Y-14646662D01*
X20708466Y-14660948D01*
X20722752Y-14689519D01*
X20722752Y-14718091D01*
X20579895Y-14746662D01*
X20837038Y-14832377D02*
X20865609Y-14846662D01*
X20922752Y-14846662D01*
X20951323Y-14832377D01*
X20965609Y-14803805D01*
X20965609Y-14789519D01*
X20951323Y-14760948D01*
X20922752Y-14746662D01*
X20879895Y-14746662D01*
X20851323Y-14732377D01*
X20837038Y-14703805D01*
X20837038Y-14689519D01*
X20851323Y-14660948D01*
X20879895Y-14646662D01*
X20922752Y-14646662D01*
X20951323Y-14660948D01*
X21065609Y-14960948D02*
X21079895Y-14946662D01*
X21108466Y-14903805D01*
X21122752Y-14875234D01*
X21137038Y-14832377D01*
X21151323Y-14760948D01*
X21151323Y-14703805D01*
X21137038Y-14632377D01*
X21122752Y-14589519D01*
X21108466Y-14560948D01*
X21079895Y-14518091D01*
X21065609Y-14503805D01*
X13893452Y-15049798D02*
X14007752Y-15164098D01*
X14007752Y-15049798D02*
X13893452Y-15164098D01*
X14007752Y-15106948D02*
G75*
G03X14007752Y-15106948I-57150J0D01*
G01*
X14451323Y-15242662D02*
X14279895Y-15242662D01*
X14365609Y-15242662D02*
X14365609Y-14942662D01*
X14337038Y-14985519D01*
X14308466Y-15014091D01*
X14279895Y-15028377D01*
X14579895Y-15214091D02*
X14594180Y-15228377D01*
X14579895Y-15242662D01*
X14565609Y-15228377D01*
X14579895Y-15214091D01*
X14579895Y-15242662D01*
X14879895Y-15242662D02*
X14708466Y-15242662D01*
X14794180Y-15242662D02*
X14794180Y-14942662D01*
X14765609Y-14985519D01*
X14737038Y-15014091D01*
X14708466Y-15028377D01*
X15137038Y-15042662D02*
X15137038Y-15242662D01*
X15065609Y-14928377D02*
X14994180Y-15142662D01*
X15179895Y-15142662D01*
X15294180Y-15242662D02*
X15294180Y-15042662D01*
X15294180Y-15071234D02*
X15308466Y-15056948D01*
X15337038Y-15042662D01*
X15379895Y-15042662D01*
X15408466Y-15056948D01*
X15422752Y-15085519D01*
X15422752Y-15242662D01*
X15422752Y-15085519D02*
X15437038Y-15056948D01*
X15465609Y-15042662D01*
X15508466Y-15042662D01*
X15537038Y-15056948D01*
X15551323Y-15085519D01*
X15551323Y-15242662D01*
X15694180Y-15242662D02*
X15694180Y-15042662D01*
X15694180Y-15071234D02*
X15708466Y-15056948D01*
X15737038Y-15042662D01*
X15779895Y-15042662D01*
X15808466Y-15056948D01*
X15822752Y-15085519D01*
X15822752Y-15242662D01*
X15822752Y-15085519D02*
X15837038Y-15056948D01*
X15865609Y-15042662D01*
X15908466Y-15042662D01*
X15937038Y-15056948D01*
X15951323Y-15085519D01*
X15951323Y-15242662D01*
X16537038Y-14928377D02*
X16279895Y-15314091D01*
X16922752Y-14942662D02*
X16951323Y-14942662D01*
X16979895Y-14956948D01*
X16994180Y-14971234D01*
X17008466Y-14999805D01*
X17022752Y-15056948D01*
X17022752Y-15128377D01*
X17008466Y-15185519D01*
X16994180Y-15214091D01*
X16979895Y-15228377D01*
X16951323Y-15242662D01*
X16922752Y-15242662D01*
X16894180Y-15228377D01*
X16879895Y-15214091D01*
X16865609Y-15185519D01*
X16851323Y-15128377D01*
X16851323Y-15056948D01*
X16865609Y-14999805D01*
X16879895Y-14971234D01*
X16894180Y-14956948D01*
X16922752Y-14942662D01*
X17151323Y-15214091D02*
X17165609Y-15228377D01*
X17151323Y-15242662D01*
X17137038Y-15228377D01*
X17151323Y-15214091D01*
X17151323Y-15242662D01*
X17351323Y-14942662D02*
X17379895Y-14942662D01*
X17408466Y-14956948D01*
X17422752Y-14971234D01*
X17437038Y-14999805D01*
X17451323Y-15056948D01*
X17451323Y-15128377D01*
X17437038Y-15185519D01*
X17422752Y-15214091D01*
X17408466Y-15228377D01*
X17379895Y-15242662D01*
X17351323Y-15242662D01*
X17322752Y-15228377D01*
X17308466Y-15214091D01*
X17294180Y-15185519D01*
X17279895Y-15128377D01*
X17279895Y-15056948D01*
X17294180Y-14999805D01*
X17308466Y-14971234D01*
X17322752Y-14956948D01*
X17351323Y-14942662D01*
X17708466Y-15042662D02*
X17708466Y-15242662D01*
X17637038Y-14928377D02*
X17565609Y-15142662D01*
X17751323Y-15142662D01*
X18008466Y-14942662D02*
X17865609Y-14942662D01*
X17851323Y-15085519D01*
X17865609Y-15071234D01*
X17894180Y-15056948D01*
X17965609Y-15056948D01*
X17994180Y-15071234D01*
X18008466Y-15085519D01*
X18022752Y-15114091D01*
X18022752Y-15185519D01*
X18008466Y-15214091D01*
X17994180Y-15228377D01*
X17965609Y-15242662D01*
X17894180Y-15242662D01*
X17865609Y-15228377D01*
X17851323Y-15214091D01*
X18137038Y-14942662D02*
X18137038Y-14999805D01*
X18251323Y-14942662D02*
X18251323Y-14999805D01*
X18694180Y-15356948D02*
X18679895Y-15342662D01*
X18651323Y-15299805D01*
X18637038Y-15271234D01*
X18622752Y-15228377D01*
X18608466Y-15156948D01*
X18608466Y-15099805D01*
X18622752Y-15028377D01*
X18637038Y-14985519D01*
X18651323Y-14956948D01*
X18679895Y-14914091D01*
X18694180Y-14899805D01*
X18951323Y-14942662D02*
X18808466Y-14942662D01*
X18794180Y-15085519D01*
X18808466Y-15071234D01*
X18837038Y-15056948D01*
X18908466Y-15056948D01*
X18937038Y-15071234D01*
X18951323Y-15085519D01*
X18965609Y-15114091D01*
X18965609Y-15185519D01*
X18951323Y-15214091D01*
X18937038Y-15228377D01*
X18908466Y-15242662D01*
X18837038Y-15242662D01*
X18808466Y-15228377D01*
X18794180Y-15214091D01*
X19322752Y-15242662D02*
X19322752Y-14942662D01*
X19451323Y-15242662D02*
X19451323Y-15085519D01*
X19437038Y-15056948D01*
X19408466Y-15042662D01*
X19365609Y-15042662D01*
X19337038Y-15056948D01*
X19322752Y-15071234D01*
X19637038Y-15242662D02*
X19608466Y-15228377D01*
X19594180Y-15214091D01*
X19579895Y-15185519D01*
X19579895Y-15099805D01*
X19594180Y-15071234D01*
X19608466Y-15056948D01*
X19637038Y-15042662D01*
X19679895Y-15042662D01*
X19708466Y-15056948D01*
X19722752Y-15071234D01*
X19737038Y-15099805D01*
X19737038Y-15185519D01*
X19722752Y-15214091D01*
X19708466Y-15228377D01*
X19679895Y-15242662D01*
X19637038Y-15242662D01*
X19908466Y-15242662D02*
X19879895Y-15228377D01*
X19865609Y-15199805D01*
X19865609Y-14942662D01*
X20137038Y-15228377D02*
X20108466Y-15242662D01*
X20051323Y-15242662D01*
X20022752Y-15228377D01*
X20008466Y-15199805D01*
X20008466Y-15085519D01*
X20022752Y-15056948D01*
X20051323Y-15042662D01*
X20108466Y-15042662D01*
X20137038Y-15056948D01*
X20151323Y-15085519D01*
X20151323Y-15114091D01*
X20008466Y-15142662D01*
X20265609Y-15228377D02*
X20294180Y-15242662D01*
X20351323Y-15242662D01*
X20379895Y-15228377D01*
X20394180Y-15199805D01*
X20394180Y-15185519D01*
X20379895Y-15156948D01*
X20351323Y-15142662D01*
X20308466Y-15142662D01*
X20279895Y-15128377D01*
X20265609Y-15099805D01*
X20265609Y-15085519D01*
X20279895Y-15056948D01*
X20308466Y-15042662D01*
X20351323Y-15042662D01*
X20379895Y-15056948D01*
X20494180Y-15356948D02*
X20508466Y-15342662D01*
X20537038Y-15299805D01*
X20551323Y-15271234D01*
X20565609Y-15228377D01*
X20579895Y-15156948D01*
X20579895Y-15099805D01*
X20565609Y-15028377D01*
X20551323Y-14985519D01*
X20537038Y-14956948D01*
X20508466Y-14914091D01*
X20494180Y-14899805D01*
M02*
