G04 #@! TF.GenerationSoftware,KiCad,Pcbnew,(5.0.2)-1*
G04 #@! TF.CreationDate,2019-06-30T14:55:02+02:00*
G04 #@! TF.ProjectId,Mega_2560 core mini_full_2.2,4d656761-5f32-4353-9630-20636f726520,2.2*
G04 #@! TF.SameCoordinates,Original*
G04 #@! TF.FileFunction,Paste,Bot*
G04 #@! TF.FilePolarity,Positive*
%FSLAX46Y46*%
G04 Gerber Fmt 4.6, Leading zero omitted, Abs format (unit mm)*
G04 Created by KiCad (PCBNEW (5.0.2)-1) date 30/06/2019 14:55:02*
%MOMM*%
%LPD*%
G01*
G04 APERTURE LIST*
%ADD10C,0.300000*%
%ADD11R,1.000000X1.600000*%
%ADD12R,1.200000X0.900000*%
%ADD13R,0.800000X0.550000*%
%ADD14R,1.700000X0.900000*%
%ADD15R,0.900000X1.700000*%
%ADD16R,0.900000X1.200000*%
%ADD17R,1.600000X1.000000*%
%ADD18R,2.000000X3.800000*%
%ADD19R,2.000000X1.500000*%
%ADD20R,1.524000X1.524000*%
G04 APERTURE END LIST*
D10*
X208639662Y-58113051D02*
X208639662Y-56613051D01*
X208139662Y-57684480D01*
X207639662Y-56613051D01*
X207639662Y-58113051D01*
X206353948Y-58041622D02*
X206496805Y-58113051D01*
X206782520Y-58113051D01*
X206925377Y-58041622D01*
X206996805Y-57898765D01*
X206996805Y-57327337D01*
X206925377Y-57184480D01*
X206782520Y-57113051D01*
X206496805Y-57113051D01*
X206353948Y-57184480D01*
X206282520Y-57327337D01*
X206282520Y-57470194D01*
X206996805Y-57613051D01*
X204996805Y-57113051D02*
X204996805Y-58327337D01*
X205068234Y-58470194D01*
X205139662Y-58541622D01*
X205282520Y-58613051D01*
X205496805Y-58613051D01*
X205639662Y-58541622D01*
X204996805Y-58041622D02*
X205139662Y-58113051D01*
X205425377Y-58113051D01*
X205568234Y-58041622D01*
X205639662Y-57970194D01*
X205711091Y-57827337D01*
X205711091Y-57398765D01*
X205639662Y-57255908D01*
X205568234Y-57184480D01*
X205425377Y-57113051D01*
X205139662Y-57113051D01*
X204996805Y-57184480D01*
X203639662Y-58113051D02*
X203639662Y-57327337D01*
X203711091Y-57184480D01*
X203853948Y-57113051D01*
X204139662Y-57113051D01*
X204282520Y-57184480D01*
X203639662Y-58041622D02*
X203782520Y-58113051D01*
X204139662Y-58113051D01*
X204282520Y-58041622D01*
X204353948Y-57898765D01*
X204353948Y-57755908D01*
X204282520Y-57613051D01*
X204139662Y-57541622D01*
X203782520Y-57541622D01*
X203639662Y-57470194D01*
X200925377Y-57970194D02*
X200996805Y-58041622D01*
X201211091Y-58113051D01*
X201353948Y-58113051D01*
X201568234Y-58041622D01*
X201711091Y-57898765D01*
X201782520Y-57755908D01*
X201853948Y-57470194D01*
X201853948Y-57255908D01*
X201782520Y-56970194D01*
X201711091Y-56827337D01*
X201568234Y-56684480D01*
X201353948Y-56613051D01*
X201211091Y-56613051D01*
X200996805Y-56684480D01*
X200925377Y-56755908D01*
X200068234Y-58113051D02*
X200211091Y-58041622D01*
X200282520Y-57970194D01*
X200353948Y-57827337D01*
X200353948Y-57398765D01*
X200282520Y-57255908D01*
X200211091Y-57184480D01*
X200068234Y-57113051D01*
X199853948Y-57113051D01*
X199711091Y-57184480D01*
X199639662Y-57255908D01*
X199568234Y-57398765D01*
X199568234Y-57827337D01*
X199639662Y-57970194D01*
X199711091Y-58041622D01*
X199853948Y-58113051D01*
X200068234Y-58113051D01*
X198925377Y-58113051D02*
X198925377Y-57113051D01*
X198925377Y-57398765D02*
X198853948Y-57255908D01*
X198782520Y-57184480D01*
X198639662Y-57113051D01*
X198496805Y-57113051D01*
X197425377Y-58041622D02*
X197568234Y-58113051D01*
X197853948Y-58113051D01*
X197996805Y-58041622D01*
X198068234Y-57898765D01*
X198068234Y-57327337D01*
X197996805Y-57184480D01*
X197853948Y-57113051D01*
X197568234Y-57113051D01*
X197425377Y-57184480D01*
X197353948Y-57327337D01*
X197353948Y-57470194D01*
X198068234Y-57613051D01*
X195639662Y-56755908D02*
X195568234Y-56684480D01*
X195425377Y-56613051D01*
X195068234Y-56613051D01*
X194925377Y-56684480D01*
X194853948Y-56755908D01*
X194782520Y-56898765D01*
X194782520Y-57041622D01*
X194853948Y-57255908D01*
X195711091Y-58113051D01*
X194782520Y-58113051D01*
X193425377Y-56613051D02*
X194139662Y-56613051D01*
X194211091Y-57327337D01*
X194139662Y-57255908D01*
X193996805Y-57184480D01*
X193639662Y-57184480D01*
X193496805Y-57255908D01*
X193425377Y-57327337D01*
X193353948Y-57470194D01*
X193353948Y-57827337D01*
X193425377Y-57970194D01*
X193496805Y-58041622D01*
X193639662Y-58113051D01*
X193996805Y-58113051D01*
X194139662Y-58041622D01*
X194211091Y-57970194D01*
X192068234Y-56613051D02*
X192353948Y-56613051D01*
X192496805Y-56684480D01*
X192568234Y-56755908D01*
X192711091Y-56970194D01*
X192782520Y-57255908D01*
X192782520Y-57827337D01*
X192711091Y-57970194D01*
X192639662Y-58041622D01*
X192496805Y-58113051D01*
X192211091Y-58113051D01*
X192068234Y-58041622D01*
X191996805Y-57970194D01*
X191925377Y-57827337D01*
X191925377Y-57470194D01*
X191996805Y-57327337D01*
X192068234Y-57255908D01*
X192211091Y-57184480D01*
X192496805Y-57184480D01*
X192639662Y-57255908D01*
X192711091Y-57327337D01*
X192782520Y-57470194D01*
X190996805Y-56613051D02*
X190853948Y-56613051D01*
X190711091Y-56684480D01*
X190639662Y-56755908D01*
X190568234Y-56898765D01*
X190496805Y-57184480D01*
X190496805Y-57541622D01*
X190568234Y-57827337D01*
X190639662Y-57970194D01*
X190711091Y-58041622D01*
X190853948Y-58113051D01*
X190996805Y-58113051D01*
X191139662Y-58041622D01*
X191211091Y-57970194D01*
X191282520Y-57827337D01*
X191353948Y-57541622D01*
X191353948Y-57184480D01*
X191282520Y-56898765D01*
X191211091Y-56755908D01*
X191139662Y-56684480D01*
X190996805Y-56613051D01*
X188782520Y-58041622D02*
X188639662Y-58113051D01*
X188353948Y-58113051D01*
X188211091Y-58041622D01*
X188139662Y-57898765D01*
X188139662Y-57827337D01*
X188211091Y-57684480D01*
X188353948Y-57613051D01*
X188568234Y-57613051D01*
X188711091Y-57541622D01*
X188782520Y-57398765D01*
X188782520Y-57327337D01*
X188711091Y-57184480D01*
X188568234Y-57113051D01*
X188353948Y-57113051D01*
X188211091Y-57184480D01*
X187496805Y-58113051D02*
X187496805Y-56613051D01*
X186853948Y-58113051D02*
X186853948Y-57327337D01*
X186925377Y-57184480D01*
X187068234Y-57113051D01*
X187282520Y-57113051D01*
X187425377Y-57184480D01*
X187496805Y-57255908D01*
X186139662Y-58113051D02*
X186139662Y-57113051D01*
X186139662Y-56613051D02*
X186211091Y-56684480D01*
X186139662Y-56755908D01*
X186068234Y-56684480D01*
X186139662Y-56613051D01*
X186139662Y-56755908D01*
X184853948Y-58041622D02*
X184996805Y-58113051D01*
X185282520Y-58113051D01*
X185425377Y-58041622D01*
X185496805Y-57898765D01*
X185496805Y-57327337D01*
X185425377Y-57184480D01*
X185282520Y-57113051D01*
X184996805Y-57113051D01*
X184853948Y-57184480D01*
X184782520Y-57327337D01*
X184782520Y-57470194D01*
X185496805Y-57613051D01*
X183925377Y-58113051D02*
X184068234Y-58041622D01*
X184139662Y-57898765D01*
X184139662Y-56613051D01*
X182711091Y-58113051D02*
X182711091Y-56613051D01*
X182711091Y-58041622D02*
X182853948Y-58113051D01*
X183139662Y-58113051D01*
X183282520Y-58041622D01*
X183353948Y-57970194D01*
X183425377Y-57827337D01*
X183425377Y-57398765D01*
X183353948Y-57255908D01*
X183282520Y-57184480D01*
X183139662Y-57113051D01*
X182853948Y-57113051D01*
X182711091Y-57184480D01*
X180853948Y-58113051D02*
X180853948Y-56613051D01*
X180282520Y-56613051D01*
X180139662Y-56684480D01*
X180068234Y-56755908D01*
X179996805Y-56898765D01*
X179996805Y-57113051D01*
X180068234Y-57255908D01*
X180139662Y-57327337D01*
X180282520Y-57398765D01*
X180853948Y-57398765D01*
X178711091Y-58113051D02*
X178711091Y-57327337D01*
X178782520Y-57184480D01*
X178925377Y-57113051D01*
X179211091Y-57113051D01*
X179353948Y-57184480D01*
X178711091Y-58041622D02*
X178853948Y-58113051D01*
X179211091Y-58113051D01*
X179353948Y-58041622D01*
X179425377Y-57898765D01*
X179425377Y-57755908D01*
X179353948Y-57613051D01*
X179211091Y-57541622D01*
X178853948Y-57541622D01*
X178711091Y-57470194D01*
X178068234Y-58041622D02*
X177925377Y-58113051D01*
X177639662Y-58113051D01*
X177496805Y-58041622D01*
X177425377Y-57898765D01*
X177425377Y-57827337D01*
X177496805Y-57684480D01*
X177639662Y-57613051D01*
X177853948Y-57613051D01*
X177996805Y-57541622D01*
X178068234Y-57398765D01*
X178068234Y-57327337D01*
X177996805Y-57184480D01*
X177853948Y-57113051D01*
X177639662Y-57113051D01*
X177496805Y-57184480D01*
X176996805Y-57113051D02*
X176425377Y-57113051D01*
X176782520Y-56613051D02*
X176782520Y-57898765D01*
X176711091Y-58041622D01*
X176568234Y-58113051D01*
X176425377Y-58113051D01*
X174782520Y-58113051D02*
X174782520Y-56613051D01*
X174282520Y-57684480D01*
X173782520Y-56613051D01*
X173782520Y-58113051D01*
X172425377Y-58113051D02*
X172425377Y-57327337D01*
X172496805Y-57184480D01*
X172639662Y-57113051D01*
X172925377Y-57113051D01*
X173068234Y-57184480D01*
X172425377Y-58041622D02*
X172568234Y-58113051D01*
X172925377Y-58113051D01*
X173068234Y-58041622D01*
X173139662Y-57898765D01*
X173139662Y-57755908D01*
X173068234Y-57613051D01*
X172925377Y-57541622D01*
X172568234Y-57541622D01*
X172425377Y-57470194D01*
X171782520Y-58041622D02*
X171639662Y-58113051D01*
X171353948Y-58113051D01*
X171211091Y-58041622D01*
X171139662Y-57898765D01*
X171139662Y-57827337D01*
X171211091Y-57684480D01*
X171353948Y-57613051D01*
X171568234Y-57613051D01*
X171711091Y-57541622D01*
X171782520Y-57398765D01*
X171782520Y-57327337D01*
X171711091Y-57184480D01*
X171568234Y-57113051D01*
X171353948Y-57113051D01*
X171211091Y-57184480D01*
X170496805Y-58113051D02*
X170496805Y-56613051D01*
X170353948Y-57541622D02*
X169925377Y-58113051D01*
X169925377Y-57113051D02*
X170496805Y-57684480D01*
X168211091Y-56755908D02*
X168139662Y-56684480D01*
X167996805Y-56613051D01*
X167639662Y-56613051D01*
X167496805Y-56684480D01*
X167425377Y-56755908D01*
X167353948Y-56898765D01*
X167353948Y-57041622D01*
X167425377Y-57255908D01*
X168282520Y-58113051D01*
X167353948Y-58113051D01*
X165639662Y-56541622D02*
X166925377Y-58470194D01*
X165211091Y-56755908D02*
X165139662Y-56684480D01*
X164996805Y-56613051D01*
X164639662Y-56613051D01*
X164496805Y-56684480D01*
X164425377Y-56755908D01*
X164353948Y-56898765D01*
X164353948Y-57041622D01*
X164425377Y-57255908D01*
X165282520Y-58113051D01*
X164353948Y-58113051D01*
D11*
G04 #@! TO.C,C2*
X209543520Y-113822480D03*
X212543520Y-113822480D03*
G04 #@! TD*
D12*
G04 #@! TO.C,D3*
X207995520Y-109503480D03*
X207995520Y-106203480D03*
G04 #@! TD*
G04 #@! TO.C,D2*
X210535520Y-106203480D03*
X210535520Y-109503480D03*
G04 #@! TD*
D13*
G04 #@! TO.C,U2*
X219101520Y-94711480D03*
X219101520Y-95661480D03*
X219101520Y-96611480D03*
X216701520Y-96611480D03*
X216701520Y-95661480D03*
X216701520Y-94711480D03*
G04 #@! TD*
G04 #@! TO.C,U3*
X219101520Y-90901480D03*
X219101520Y-91851480D03*
X219101520Y-92801480D03*
X216701520Y-92801480D03*
X216701520Y-91851480D03*
X216701520Y-90901480D03*
G04 #@! TD*
D14*
G04 #@! TO.C,R18*
X210916520Y-90655480D03*
X210916520Y-93555480D03*
G04 #@! TD*
D15*
G04 #@! TO.C,R10*
X154856520Y-67340480D03*
X157756520Y-67340480D03*
G04 #@! TD*
D14*
G04 #@! TO.C,R2*
X219806520Y-80982480D03*
X219806520Y-78082480D03*
G04 #@! TD*
D16*
G04 #@! TO.C,D1*
X211169520Y-111409480D03*
X207869520Y-111409480D03*
G04 #@! TD*
D17*
G04 #@! TO.C,C10*
X213202520Y-110369480D03*
X213202520Y-107369480D03*
G04 #@! TD*
D14*
G04 #@! TO.C,R5*
X213202520Y-102265480D03*
X213202520Y-105165480D03*
G04 #@! TD*
D17*
G04 #@! TO.C,C31*
X224251520Y-78921480D03*
X224251520Y-81921480D03*
G04 #@! TD*
D14*
G04 #@! TO.C,R41*
X224124520Y-71838480D03*
X224124520Y-68938480D03*
G04 #@! TD*
G04 #@! TO.C,R43*
X221711520Y-68938480D03*
X221711520Y-71838480D03*
G04 #@! TD*
G04 #@! TO.C,R16*
X211297520Y-80474480D03*
X211297520Y-77574480D03*
G04 #@! TD*
G04 #@! TO.C,R17*
X208757520Y-80474480D03*
X208757520Y-77574480D03*
G04 #@! TD*
D17*
G04 #@! TO.C,C38*
X211297520Y-72444480D03*
X211297520Y-75444480D03*
G04 #@! TD*
G04 #@! TO.C,C5*
X208757520Y-72444480D03*
X208757520Y-75444480D03*
G04 #@! TD*
D18*
G04 #@! TO.C,U5*
X212592520Y-68864480D03*
D19*
X218892520Y-68864480D03*
X218892520Y-71164480D03*
X218892520Y-66564480D03*
G04 #@! TD*
D16*
G04 #@! TO.C,D6*
X203803520Y-66451480D03*
X200503520Y-66451480D03*
G04 #@! TD*
D17*
G04 #@! TO.C,C22*
X184627520Y-97844480D03*
X184627520Y-100844480D03*
G04 #@! TD*
D15*
G04 #@! TO.C,R20*
X185082520Y-103154480D03*
X187982520Y-103154480D03*
G04 #@! TD*
G04 #@! TO.C,R15*
X185082520Y-106964480D03*
X187982520Y-106964480D03*
G04 #@! TD*
D17*
G04 #@! TO.C,C23*
X181452520Y-104829480D03*
X181452520Y-107829480D03*
G04 #@! TD*
G04 #@! TO.C,C19*
X167101520Y-115751480D03*
X167101520Y-118751480D03*
G04 #@! TD*
D14*
G04 #@! TO.C,R35*
X157322520Y-106509480D03*
X157322520Y-103609480D03*
G04 #@! TD*
D11*
G04 #@! TO.C,C12*
X152647520Y-111409480D03*
X155647520Y-111409480D03*
G04 #@! TD*
G04 #@! TO.C,C13*
X151329520Y-101122480D03*
X148329520Y-101122480D03*
G04 #@! TD*
D15*
G04 #@! TO.C,R34*
X162222520Y-97439480D03*
X165122520Y-97439480D03*
G04 #@! TD*
D14*
G04 #@! TO.C,R32*
X157322520Y-95079480D03*
X157322520Y-92179480D03*
G04 #@! TD*
D17*
G04 #@! TO.C,C45*
X152877520Y-94494480D03*
X152877520Y-91494480D03*
G04 #@! TD*
G04 #@! TO.C,C44*
X147162520Y-94494480D03*
X147162520Y-91494480D03*
G04 #@! TD*
G04 #@! TO.C,C43*
X147162520Y-85144480D03*
X147162520Y-88144480D03*
G04 #@! TD*
G04 #@! TO.C,C46*
X152877520Y-85144480D03*
X152877520Y-88144480D03*
G04 #@! TD*
D15*
G04 #@! TO.C,R31*
X162222520Y-86009480D03*
X165122520Y-86009480D03*
G04 #@! TD*
D14*
G04 #@! TO.C,R29*
X157322520Y-83649480D03*
X157322520Y-80749480D03*
G04 #@! TD*
D15*
G04 #@! TO.C,R11*
X157142520Y-74579480D03*
X160042520Y-74579480D03*
G04 #@! TD*
G04 #@! TO.C,R28*
X162222520Y-74579480D03*
X165122520Y-74579480D03*
G04 #@! TD*
D11*
G04 #@! TO.C,C11*
X145487520Y-80675480D03*
X142487520Y-80675480D03*
G04 #@! TD*
D17*
G04 #@! TO.C,C42*
X143352520Y-85604480D03*
X143352520Y-82604480D03*
G04 #@! TD*
G04 #@! TO.C,C17*
X148686520Y-78794480D03*
X148686520Y-81794480D03*
G04 #@! TD*
G04 #@! TO.C,C16*
X148686520Y-76079480D03*
X148686520Y-73079480D03*
G04 #@! TD*
D14*
G04 #@! TO.C,R26*
X157322520Y-72219480D03*
X157322520Y-69319480D03*
G04 #@! TD*
D11*
G04 #@! TO.C,C9*
X145487520Y-70769480D03*
X142487520Y-70769480D03*
G04 #@! TD*
D15*
G04 #@! TO.C,R12*
X157142520Y-86009480D03*
X160042520Y-86009480D03*
G04 #@! TD*
G04 #@! TO.C,R13*
X157142520Y-97439480D03*
X160042520Y-97439480D03*
G04 #@! TD*
G04 #@! TO.C,R37*
X162222520Y-108869480D03*
X165122520Y-108869480D03*
G04 #@! TD*
G04 #@! TO.C,R14*
X157142520Y-108869480D03*
X160042520Y-108869480D03*
G04 #@! TD*
D20*
G04 #@! TO.C,W1*
X164571680Y-70134480D03*
X162872420Y-70134480D03*
G04 #@! TD*
G04 #@! TO.C,W2*
X164571680Y-81564480D03*
X162872420Y-81564480D03*
G04 #@! TD*
G04 #@! TO.C,W3*
X164571680Y-92994480D03*
X162872420Y-92994480D03*
G04 #@! TD*
G04 #@! TO.C,W4*
X164571680Y-104424480D03*
X162872420Y-104424480D03*
G04 #@! TD*
D17*
G04 #@! TO.C,C4*
X143352520Y-90684480D03*
X143352520Y-87684480D03*
G04 #@! TD*
M02*
