G04 #@! TF.GenerationSoftware,KiCad,Pcbnew,(5.0.2)-1*
G04 #@! TF.CreationDate,2019-02-22T10:36:22+01:00*
G04 #@! TF.ProjectId,Mega_2560 core mini_full_2.2,4d656761-5f32-4353-9630-20636f726520,2.1*
G04 #@! TF.SameCoordinates,Original*
G04 #@! TF.FileFunction,Other,User*
%FSLAX46Y46*%
G04 Gerber Fmt 4.6, Leading zero omitted, Abs format (unit mm)*
G04 Created by KiCad (PCBNEW (5.0.2)-1) date 22/02/2019 10:36:22*
%MOMM*%
%LPD*%
G01*
G04 APERTURE LIST*
%ADD10C,0.050000*%
G04 APERTURE END LIST*
D10*
G04 #@! TO.C,R21*
X225070520Y-72760480D02*
X225070520Y-77160480D01*
X222670520Y-72760480D02*
X222670520Y-77160480D01*
X225070520Y-72760480D02*
X222670520Y-72760480D01*
X225070520Y-77160480D02*
X222670520Y-77160480D01*
G04 #@! TO.C,RV1*
X157302520Y-120459480D02*
X157302520Y-115059480D01*
X157302520Y-115059480D02*
X147202520Y-115059480D01*
X147202520Y-115059480D02*
X147202520Y-120459480D01*
X147202520Y-120459480D02*
X157302520Y-120459480D01*
G04 #@! TO.C,P3*
X206522520Y-89489480D02*
X206522520Y-102789480D01*
X206522520Y-102789480D02*
X209722520Y-102789480D01*
X209722520Y-102789480D02*
X209722520Y-89489480D01*
X209722520Y-89489480D02*
X206522520Y-89489480D01*
G04 #@! TO.C,R22*
X205668520Y-65886480D02*
X210068520Y-65886480D01*
X205668520Y-68286480D02*
X210068520Y-68286480D01*
X205668520Y-65886480D02*
X205668520Y-68286480D01*
X210068520Y-65886480D02*
X210068520Y-68286480D01*
G04 #@! TO.C,D4*
X222988520Y-71086480D02*
X222988520Y-75786480D01*
X222988520Y-75786480D02*
X220688520Y-75786480D01*
X220688520Y-75786480D02*
X220688520Y-71086480D01*
X222988520Y-71086480D02*
X220688520Y-71086480D01*
G04 #@! TO.C,P15*
X195727520Y-74249480D02*
X195727520Y-82449480D01*
X195727520Y-82449480D02*
X198927520Y-82449480D01*
X198927520Y-82449480D02*
X198927520Y-74249480D01*
X198927520Y-74249480D02*
X195727520Y-74249480D01*
G04 #@! TO.C,P8*
X203982520Y-69169480D02*
X203982520Y-79969480D01*
X203982520Y-79969480D02*
X207182520Y-79969480D01*
X207182520Y-79969480D02*
X207182520Y-69169480D01*
X207182520Y-69169480D02*
X203982520Y-69169480D01*
G04 #@! TO.C,Q2*
X207565520Y-107119480D02*
X210965520Y-107119480D01*
X210965520Y-107119480D02*
X210965520Y-110619480D01*
X210965520Y-110619480D02*
X207565520Y-110619480D01*
X207565520Y-110619480D02*
X207565520Y-107119480D01*
G04 #@! TO.C,R7*
X222641520Y-93305480D02*
X218241520Y-93305480D01*
X222641520Y-90905480D02*
X218241520Y-90905480D01*
X222641520Y-93305480D02*
X222641520Y-90905480D01*
X218241520Y-93305480D02*
X218241520Y-90905480D01*
G04 #@! TO.C,R19*
X222641520Y-96734480D02*
X218241520Y-96734480D01*
X222641520Y-94334480D02*
X218241520Y-94334480D01*
X222641520Y-96734480D02*
X222641520Y-94334480D01*
X218241520Y-96734480D02*
X218241520Y-94334480D01*
G04 #@! TO.C,P33*
X217063520Y-116819480D02*
X222763520Y-116819480D01*
X222763520Y-116819480D02*
X222763520Y-113619480D01*
X222763520Y-113619480D02*
X217063520Y-113619480D01*
X217063520Y-113619480D02*
X217063520Y-116819480D01*
G04 #@! TO.C,Fix1*
X229987520Y-118394480D02*
G75*
G03X229987520Y-118394480I-3450000J0D01*
G01*
X229987520Y-65054480D02*
G75*
G03X229987520Y-65054480I-3450000J0D01*
G01*
G04 #@! TO.C,C1*
X209385520Y-98977480D02*
X209385520Y-94377480D01*
X211685520Y-98977480D02*
X211685520Y-94377480D01*
X209385520Y-98977480D02*
X211685520Y-98977480D01*
X209385520Y-94377480D02*
X211685520Y-94377480D01*
G04 #@! TO.C,R42*
X196397520Y-66267480D02*
X200797520Y-66267480D01*
X196397520Y-68667480D02*
X200797520Y-68667480D01*
X196397520Y-66267480D02*
X196397520Y-68667480D01*
X200797520Y-66267480D02*
X200797520Y-68667480D01*
G04 #@! TO.C,C33*
X225027520Y-111289480D02*
X220427520Y-111289480D01*
X225027520Y-108989480D02*
X220427520Y-108989480D01*
X225027520Y-111289480D02*
X225027520Y-108989480D01*
X220427520Y-111289480D02*
X220427520Y-108989480D01*
G04 #@! TO.C,C34*
X225027520Y-108749480D02*
X220427520Y-108749480D01*
X225027520Y-106449480D02*
X220427520Y-106449480D01*
X225027520Y-108749480D02*
X225027520Y-106449480D01*
X220427520Y-108749480D02*
X220427520Y-106449480D01*
G04 #@! TO.C,R39*
X220527520Y-103732480D02*
X224927520Y-103732480D01*
X220527520Y-106132480D02*
X224927520Y-106132480D01*
X220527520Y-103732480D02*
X220527520Y-106132480D01*
X224927520Y-103732480D02*
X224927520Y-106132480D01*
G04 #@! TO.C,R40*
X220527520Y-100938480D02*
X224927520Y-100938480D01*
X220527520Y-103338480D02*
X224927520Y-103338480D01*
X220527520Y-100938480D02*
X220527520Y-103338480D01*
X224927520Y-100938480D02*
X224927520Y-103338480D01*
G04 #@! TO.C,P24*
X228137520Y-114279480D02*
X228137520Y-103479480D01*
X228137520Y-103479480D02*
X224937520Y-103479480D01*
X224937520Y-103479480D02*
X224937520Y-114279480D01*
X224937520Y-114279480D02*
X228137520Y-114279480D01*
G04 #@! TO.C,P23*
X208427520Y-120629480D02*
X219227520Y-120629480D01*
X219227520Y-120629480D02*
X219227520Y-117429480D01*
X219227520Y-117429480D02*
X208427520Y-117429480D01*
X208427520Y-117429480D02*
X208427520Y-120629480D01*
G04 #@! TO.C,C29*
X213957520Y-117519480D02*
X213957520Y-112919480D01*
X216257520Y-117519480D02*
X216257520Y-112919480D01*
X213957520Y-117519480D02*
X216257520Y-117519480D01*
X213957520Y-112919480D02*
X216257520Y-112919480D01*
G04 #@! TO.C,C27*
X211417520Y-117519480D02*
X211417520Y-112919480D01*
X213717520Y-117519480D02*
X213717520Y-112919480D01*
X211417520Y-117519480D02*
X213717520Y-117519480D01*
X211417520Y-112919480D02*
X213717520Y-112919480D01*
G04 #@! TO.C,C26*
X208877520Y-117519480D02*
X208877520Y-112919480D01*
X211177520Y-117519480D02*
X211177520Y-112919480D01*
X208877520Y-117519480D02*
X211177520Y-117519480D01*
X208877520Y-112919480D02*
X211177520Y-112919480D01*
G04 #@! TO.C,P5*
X203982520Y-109809480D02*
X203982520Y-115509480D01*
X203982520Y-115509480D02*
X207182520Y-115509480D01*
X207182520Y-115509480D02*
X207182520Y-109809480D01*
X207182520Y-109809480D02*
X203982520Y-109809480D01*
G04 #@! TO.C,R6*
X212002520Y-105862480D02*
X212002520Y-101462480D01*
X214402520Y-105862480D02*
X214402520Y-101462480D01*
X212002520Y-105862480D02*
X214402520Y-105862480D01*
X212002520Y-101462480D02*
X214402520Y-101462480D01*
G04 #@! TO.C,P10*
X214650520Y-100919480D02*
X214650520Y-111719480D01*
X214650520Y-111719480D02*
X217850520Y-111719480D01*
X217850520Y-111719480D02*
X217850520Y-100919480D01*
X217850520Y-100919480D02*
X214650520Y-100919480D01*
G04 #@! TO.C,P18*
X203982520Y-102189480D02*
X203982520Y-107889480D01*
X203982520Y-107889480D02*
X207182520Y-107889480D01*
X207182520Y-107889480D02*
X207182520Y-102189480D01*
X207182520Y-102189480D02*
X203982520Y-102189480D01*
G04 #@! TO.C,P2*
X203982520Y-89489480D02*
X203982520Y-100289480D01*
X203982520Y-100289480D02*
X207182520Y-100289480D01*
X207182520Y-100289480D02*
X207182520Y-89489480D01*
X207182520Y-89489480D02*
X203982520Y-89489480D01*
G04 #@! TO.C,P20*
X214802520Y-100322180D02*
X211602520Y-100322180D01*
X214802520Y-89522180D02*
X214802520Y-100322180D01*
X211602520Y-89522180D02*
X214802520Y-89522180D01*
X211602520Y-100322180D02*
X211602520Y-89522180D01*
X211602520Y-100322180D02*
X211602520Y-89522180D01*
X211602520Y-89522180D02*
X214802520Y-89522180D01*
X214802520Y-89522180D02*
X214802520Y-100322180D01*
X214802520Y-100322180D02*
X211602520Y-100322180D01*
G04 #@! TO.C,R1*
X201096520Y-66267480D02*
X205496520Y-66267480D01*
X201096520Y-68667480D02*
X205496520Y-68667480D01*
X201096520Y-66267480D02*
X201096520Y-68667480D01*
X205496520Y-66267480D02*
X205496520Y-68667480D01*
G04 #@! TO.C,P21*
X202077520Y-66019480D02*
X207777520Y-66019480D01*
X207777520Y-66019480D02*
X207777520Y-62819480D01*
X207777520Y-62819480D02*
X202077520Y-62819480D01*
X202077520Y-62819480D02*
X202077520Y-66019480D01*
G04 #@! TO.C,P17*
X196362520Y-66019480D02*
X202062520Y-66019480D01*
X202062520Y-66019480D02*
X202062520Y-62819480D01*
X202062520Y-62819480D02*
X196362520Y-62819480D01*
X196362520Y-62819480D02*
X196362520Y-66019480D01*
G04 #@! TO.C,P6*
X177947520Y-83164480D02*
X193847520Y-83164480D01*
X193847520Y-83164480D02*
X193847520Y-79964480D01*
X193847520Y-79964480D02*
X177947520Y-79964480D01*
X177947520Y-79964480D02*
X177947520Y-83164480D01*
G04 #@! TO.C,C15*
X198604520Y-113808480D02*
X198604520Y-118408480D01*
X196304520Y-113808480D02*
X196304520Y-118408480D01*
X198604520Y-113808480D02*
X196304520Y-113808480D01*
X198604520Y-118408480D02*
X196304520Y-118408480D01*
G04 #@! TO.C,C21*
X191859520Y-118281480D02*
X191859520Y-113681480D01*
X194159520Y-118281480D02*
X194159520Y-113681480D01*
X191859520Y-118281480D02*
X194159520Y-118281480D01*
X191859520Y-113681480D02*
X194159520Y-113681480D01*
G04 #@! TO.C,C20*
X177508520Y-118154480D02*
X177508520Y-113554480D01*
X179808520Y-118154480D02*
X179808520Y-113554480D01*
X177508520Y-118154480D02*
X179808520Y-118154480D01*
X177508520Y-113554480D02*
X179808520Y-113554480D01*
G04 #@! TO.C,R9*
X196127520Y-112212480D02*
X196127520Y-107812480D01*
X198527520Y-112212480D02*
X198527520Y-107812480D01*
X196127520Y-112212480D02*
X198527520Y-112212480D01*
X196127520Y-107812480D02*
X198527520Y-107812480D01*
G04 #@! TO.C,R8*
X196127520Y-105354480D02*
X196127520Y-100954480D01*
X198527520Y-105354480D02*
X198527520Y-100954480D01*
X196127520Y-105354480D02*
X198527520Y-105354480D01*
X196127520Y-100954480D02*
X198527520Y-100954480D01*
G04 #@! TO.C,R3*
X178572520Y-102449480D02*
X174172520Y-102449480D01*
X178572520Y-100049480D02*
X174172520Y-100049480D01*
X178572520Y-102449480D02*
X178572520Y-100049480D01*
X174172520Y-102449480D02*
X174172520Y-100049480D01*
G04 #@! TO.C,U1*
X191244520Y-96299480D02*
X196044520Y-96299480D01*
X196044520Y-96299480D02*
X196044520Y-93499480D01*
X191244520Y-93499480D02*
X191244520Y-96299480D01*
X191244520Y-93499480D02*
X196044520Y-93499480D01*
G04 #@! TO.C,R4*
X188605520Y-95337480D02*
X184205520Y-95337480D01*
X188605520Y-92937480D02*
X184205520Y-92937480D01*
X188605520Y-95337480D02*
X188605520Y-92937480D01*
X184205520Y-95337480D02*
X184205520Y-92937480D01*
G04 #@! TO.C,P28*
X146197520Y-70464480D02*
X154397520Y-70464480D01*
X154397520Y-70464480D02*
X154397520Y-67264480D01*
X154397520Y-67264480D02*
X146197520Y-67264480D01*
X146197520Y-67264480D02*
X146197520Y-70464480D01*
G04 #@! TO.C,P13*
X149372520Y-71709480D02*
X149372520Y-79909480D01*
X149372520Y-79909480D02*
X155072520Y-79909480D01*
X155072520Y-79909480D02*
X155072520Y-71709480D01*
X155072520Y-71709480D02*
X149372520Y-71709480D01*
G04 #@! TO.C,P12*
X141117520Y-71709480D02*
X141117520Y-79909480D01*
X141117520Y-79909480D02*
X146817520Y-79909480D01*
X146817520Y-79909480D02*
X146817520Y-71709480D01*
X146817520Y-71709480D02*
X141117520Y-71709480D01*
G04 #@! TO.C,R25*
X142152520Y-86304480D02*
X142152520Y-81904480D01*
X144552520Y-86304480D02*
X144552520Y-81904480D01*
X142152520Y-86304480D02*
X144552520Y-86304480D01*
X142152520Y-81904480D02*
X144552520Y-81904480D01*
G04 #@! TO.C,R24*
X142152520Y-91384480D02*
X142152520Y-86984480D01*
X144552520Y-91384480D02*
X144552520Y-86984480D01*
X142152520Y-91384480D02*
X144552520Y-91384480D01*
X142152520Y-86984480D02*
X144552520Y-86984480D01*
G04 #@! TO.C,P16*
X146857520Y-120629480D02*
X146857520Y-94629480D01*
X146857520Y-94629480D02*
X141157520Y-94629480D01*
X141157520Y-94629480D02*
X141157520Y-120629480D01*
X141157520Y-120629480D02*
X146857520Y-120629480D01*
G04 #@! TO.C,C14*
X152129520Y-102272480D02*
X147529520Y-102272480D01*
X152129520Y-99972480D02*
X147529520Y-99972480D01*
X152129520Y-102272480D02*
X152129520Y-99972480D01*
X147529520Y-102272480D02*
X147529520Y-99972480D01*
G04 #@! TO.C,P32*
X155747520Y-102189480D02*
X147547520Y-102189480D01*
X147547520Y-102189480D02*
X147547520Y-105389480D01*
X147547520Y-105389480D02*
X155747520Y-105389480D01*
X155747520Y-105389480D02*
X155747520Y-102189480D01*
G04 #@! TO.C,P31*
X155747520Y-104729480D02*
X147547520Y-104729480D01*
X147547520Y-104729480D02*
X147547520Y-107929480D01*
X147547520Y-107929480D02*
X155747520Y-107929480D01*
X155747520Y-107929480D02*
X155747520Y-104729480D01*
G04 #@! TO.C,P4*
X155747520Y-107269480D02*
X147547520Y-107269480D01*
X147547520Y-107269480D02*
X147547520Y-110469480D01*
X147547520Y-110469480D02*
X155747520Y-110469480D01*
X155747520Y-110469480D02*
X155747520Y-107269480D01*
G04 #@! TO.C,P26*
X155747520Y-112349480D02*
X147547520Y-112349480D01*
X147547520Y-112349480D02*
X147547520Y-115549480D01*
X147547520Y-115549480D02*
X155747520Y-115549480D01*
X155747520Y-115549480D02*
X155747520Y-112349480D01*
G04 #@! TO.C,P9*
X166542520Y-114889480D02*
X158342520Y-114889480D01*
X158342520Y-114889480D02*
X158342520Y-120589480D01*
X158342520Y-120589480D02*
X166542520Y-120589480D01*
X166542520Y-120589480D02*
X166542520Y-114889480D01*
G04 #@! TO.C,R36*
X167462520Y-109029480D02*
X167462520Y-103629480D01*
X167462520Y-103629480D02*
X157362520Y-103629480D01*
X157362520Y-103629480D02*
X157362520Y-109029480D01*
X157362520Y-109029480D02*
X167462520Y-109029480D01*
G04 #@! TO.C,R33*
X167462520Y-97599480D02*
X167462520Y-92199480D01*
X167462520Y-92199480D02*
X157362520Y-92199480D01*
X157362520Y-92199480D02*
X157362520Y-97599480D01*
X157362520Y-97599480D02*
X167462520Y-97599480D01*
G04 #@! TO.C,R30*
X167462520Y-86169480D02*
X167462520Y-80769480D01*
X167462520Y-80769480D02*
X157362520Y-80769480D01*
X157362520Y-80769480D02*
X157362520Y-86169480D01*
X157362520Y-86169480D02*
X167462520Y-86169480D01*
G04 #@! TO.C,R27*
X167462520Y-74739480D02*
X167462520Y-69339480D01*
X167462520Y-69339480D02*
X157362520Y-69339480D01*
X157362520Y-69339480D02*
X157362520Y-74739480D01*
X157362520Y-74739480D02*
X167462520Y-74739480D01*
G04 #@! TO.C,RV6*
X167462520Y-69024480D02*
X167462520Y-63624480D01*
X167462520Y-63624480D02*
X157362520Y-63624480D01*
X157362520Y-63624480D02*
X157362520Y-69024480D01*
X157362520Y-69024480D02*
X167462520Y-69024480D01*
G04 #@! TO.C,C18*
X173952520Y-84372480D02*
X173952520Y-79772480D01*
X176252520Y-84372480D02*
X176252520Y-79772480D01*
X173952520Y-84372480D02*
X176252520Y-84372480D01*
X173952520Y-79772480D02*
X176252520Y-79772480D01*
G04 #@! TO.C,C3*
X193277520Y-85254480D02*
X188677520Y-85254480D01*
X193277520Y-82954480D02*
X188677520Y-82954480D01*
X193277520Y-85254480D02*
X193277520Y-82954480D01*
X188677520Y-85254480D02*
X188677520Y-82954480D01*
G04 #@! TO.C,P25*
X203782520Y-90349480D02*
X214982520Y-90349480D01*
X214982520Y-90349480D02*
X214982520Y-84199480D01*
X214982520Y-84199480D02*
X203782520Y-84199480D01*
X203782520Y-84199480D02*
X203782520Y-90349480D01*
G04 #@! TO.C,P11*
X170127520Y-68759480D02*
X183877520Y-68759480D01*
X183877520Y-68759480D02*
X183877520Y-62609480D01*
X183877520Y-62609480D02*
X170127520Y-62609480D01*
X170127520Y-62609480D02*
X170127520Y-68759480D01*
G04 #@! TO.C,P14*
X182827520Y-68759480D02*
X196577520Y-68759480D01*
X196577520Y-68759480D02*
X196577520Y-62609480D01*
X196577520Y-62609480D02*
X182827520Y-62609480D01*
X182827520Y-62609480D02*
X182827520Y-68759480D01*
G04 #@! TO.C,P19*
X216482520Y-90349480D02*
X227682520Y-90349480D01*
X227682520Y-90349480D02*
X227682520Y-84199480D01*
X227682520Y-84199480D02*
X216482520Y-84199480D01*
X216482520Y-84199480D02*
X216482520Y-90349480D01*
G04 #@! TO.C,C28*
X210407520Y-64829480D02*
X219807520Y-64829480D01*
X210407520Y-64829480D02*
X210407520Y-71629480D01*
X219807520Y-71629480D02*
X219807520Y-64829480D01*
X219807520Y-71629480D02*
X210407520Y-71629480D01*
G04 #@! TO.C,C6*
X191197520Y-80004480D02*
X191197520Y-75504480D01*
X191197520Y-80004480D02*
X193297520Y-80004480D01*
X193297520Y-75504480D02*
X191197520Y-75504480D01*
X193297520Y-75504480D02*
X193297520Y-80004480D01*
G04 #@! TO.C,C7*
X213866520Y-81184480D02*
X213866520Y-71784480D01*
X213866520Y-81184480D02*
X220666520Y-81184480D01*
X220666520Y-71784480D02*
X213866520Y-71784480D01*
X220666520Y-71784480D02*
X220666520Y-81184480D01*
G04 #@! TO.C,C8*
X214062520Y-71784480D02*
X214062520Y-81184480D01*
X214062520Y-71784480D02*
X207262520Y-71784480D01*
X207262520Y-81184480D02*
X214062520Y-81184480D01*
X207262520Y-81184480D02*
X207262520Y-71784480D01*
G04 #@! TO.C,Fix1*
X146802520Y-65054480D02*
G75*
G03X146802520Y-65054480I-3450000J0D01*
G01*
G04 #@! TO.C,Q3*
X206930520Y-68257480D02*
X210330520Y-68257480D01*
X210330520Y-68257480D02*
X210330520Y-71757480D01*
X210330520Y-71757480D02*
X206930520Y-71757480D01*
X206930520Y-71757480D02*
X206930520Y-68257480D01*
G04 #@! TO.C,C32*
X225017020Y-113729480D02*
X220517020Y-113729480D01*
X225017020Y-113729480D02*
X225017020Y-111629480D01*
X220517020Y-111629480D02*
X220517020Y-113729480D01*
X220517020Y-111629480D02*
X225017020Y-111629480D01*
G04 #@! TD*
M02*
