G04 #@! TF.GenerationSoftware,KiCad,Pcbnew,(5.0.2)-1*
G04 #@! TF.CreationDate,2019-04-05T16:18:54+02:00*
G04 #@! TF.ProjectId,Mega_2560 core mini_full_2.2,4d656761-5f32-4353-9630-20636f726520,2.2*
G04 #@! TF.SameCoordinates,Original*
G04 #@! TF.FileFunction,Paste,Top*
G04 #@! TF.FilePolarity,Positive*
%FSLAX46Y46*%
G04 Gerber Fmt 4.6, Leading zero omitted, Abs format (unit mm)*
G04 Created by KiCad (PCBNEW (5.0.2)-1) date 05/04/2019 16:18:54*
%MOMM*%
%LPD*%
G01*
G04 APERTURE LIST*
%ADD10C,0.300000*%
%ADD11R,1.700000X0.900000*%
%ADD12R,0.900000X1.700000*%
%ADD13R,1.200000X0.900000*%
%ADD14R,0.900000X0.800000*%
%ADD15R,1.600000X1.000000*%
%ADD16R,1.000000X1.600000*%
%ADD17R,1.980000X0.530000*%
%ADD18R,3.000000X0.650000*%
%ADD19R,0.800000X0.550000*%
%ADD20R,3.500000X1.600000*%
%ADD21R,1.600000X3.500000*%
%ADD22R,1.800000X0.698500*%
G04 APERTURE END LIST*
D10*
X164425377Y-58113051D02*
X164425377Y-56613051D01*
X164925377Y-57684480D01*
X165425377Y-56613051D01*
X165425377Y-58113051D01*
X166711091Y-58041622D02*
X166568234Y-58113051D01*
X166282519Y-58113051D01*
X166139662Y-58041622D01*
X166068234Y-57898765D01*
X166068234Y-57327337D01*
X166139662Y-57184480D01*
X166282519Y-57113051D01*
X166568234Y-57113051D01*
X166711091Y-57184480D01*
X166782519Y-57327337D01*
X166782519Y-57470194D01*
X166068234Y-57613051D01*
X168068234Y-57113051D02*
X168068234Y-58327337D01*
X167996805Y-58470194D01*
X167925377Y-58541622D01*
X167782519Y-58613051D01*
X167568234Y-58613051D01*
X167425377Y-58541622D01*
X168068234Y-58041622D02*
X167925377Y-58113051D01*
X167639662Y-58113051D01*
X167496805Y-58041622D01*
X167425377Y-57970194D01*
X167353948Y-57827337D01*
X167353948Y-57398765D01*
X167425377Y-57255908D01*
X167496805Y-57184480D01*
X167639662Y-57113051D01*
X167925377Y-57113051D01*
X168068234Y-57184480D01*
X169425377Y-58113051D02*
X169425377Y-57327337D01*
X169353948Y-57184480D01*
X169211091Y-57113051D01*
X168925377Y-57113051D01*
X168782519Y-57184480D01*
X169425377Y-58041622D02*
X169282519Y-58113051D01*
X168925377Y-58113051D01*
X168782519Y-58041622D01*
X168711091Y-57898765D01*
X168711091Y-57755908D01*
X168782519Y-57613051D01*
X168925377Y-57541622D01*
X169282519Y-57541622D01*
X169425377Y-57470194D01*
X172139662Y-57970194D02*
X172068234Y-58041622D01*
X171853948Y-58113051D01*
X171711091Y-58113051D01*
X171496805Y-58041622D01*
X171353948Y-57898765D01*
X171282519Y-57755908D01*
X171211091Y-57470194D01*
X171211091Y-57255908D01*
X171282519Y-56970194D01*
X171353948Y-56827337D01*
X171496805Y-56684480D01*
X171711091Y-56613051D01*
X171853948Y-56613051D01*
X172068234Y-56684480D01*
X172139662Y-56755908D01*
X172996805Y-58113051D02*
X172853948Y-58041622D01*
X172782519Y-57970194D01*
X172711091Y-57827337D01*
X172711091Y-57398765D01*
X172782519Y-57255908D01*
X172853948Y-57184480D01*
X172996805Y-57113051D01*
X173211091Y-57113051D01*
X173353948Y-57184480D01*
X173425377Y-57255908D01*
X173496805Y-57398765D01*
X173496805Y-57827337D01*
X173425377Y-57970194D01*
X173353948Y-58041622D01*
X173211091Y-58113051D01*
X172996805Y-58113051D01*
X174139662Y-58113051D02*
X174139662Y-57113051D01*
X174139662Y-57398765D02*
X174211091Y-57255908D01*
X174282519Y-57184480D01*
X174425377Y-57113051D01*
X174568234Y-57113051D01*
X175639662Y-58041622D02*
X175496805Y-58113051D01*
X175211091Y-58113051D01*
X175068234Y-58041622D01*
X174996805Y-57898765D01*
X174996805Y-57327337D01*
X175068234Y-57184480D01*
X175211091Y-57113051D01*
X175496805Y-57113051D01*
X175639662Y-57184480D01*
X175711091Y-57327337D01*
X175711091Y-57470194D01*
X174996805Y-57613051D01*
X177425377Y-56755908D02*
X177496805Y-56684480D01*
X177639662Y-56613051D01*
X177996805Y-56613051D01*
X178139662Y-56684480D01*
X178211091Y-56755908D01*
X178282519Y-56898765D01*
X178282519Y-57041622D01*
X178211091Y-57255908D01*
X177353948Y-58113051D01*
X178282519Y-58113051D01*
X179639662Y-56613051D02*
X178925377Y-56613051D01*
X178853948Y-57327337D01*
X178925377Y-57255908D01*
X179068234Y-57184480D01*
X179425377Y-57184480D01*
X179568234Y-57255908D01*
X179639662Y-57327337D01*
X179711091Y-57470194D01*
X179711091Y-57827337D01*
X179639662Y-57970194D01*
X179568234Y-58041622D01*
X179425377Y-58113051D01*
X179068234Y-58113051D01*
X178925377Y-58041622D01*
X178853948Y-57970194D01*
X180996805Y-56613051D02*
X180711091Y-56613051D01*
X180568234Y-56684480D01*
X180496805Y-56755908D01*
X180353948Y-56970194D01*
X180282519Y-57255908D01*
X180282519Y-57827337D01*
X180353948Y-57970194D01*
X180425377Y-58041622D01*
X180568234Y-58113051D01*
X180853948Y-58113051D01*
X180996805Y-58041622D01*
X181068234Y-57970194D01*
X181139662Y-57827337D01*
X181139662Y-57470194D01*
X181068234Y-57327337D01*
X180996805Y-57255908D01*
X180853948Y-57184480D01*
X180568234Y-57184480D01*
X180425377Y-57255908D01*
X180353948Y-57327337D01*
X180282519Y-57470194D01*
X182068234Y-56613051D02*
X182211091Y-56613051D01*
X182353948Y-56684480D01*
X182425377Y-56755908D01*
X182496805Y-56898765D01*
X182568234Y-57184480D01*
X182568234Y-57541622D01*
X182496805Y-57827337D01*
X182425377Y-57970194D01*
X182353948Y-58041622D01*
X182211091Y-58113051D01*
X182068234Y-58113051D01*
X181925377Y-58041622D01*
X181853948Y-57970194D01*
X181782520Y-57827337D01*
X181711091Y-57541622D01*
X181711091Y-57184480D01*
X181782520Y-56898765D01*
X181853948Y-56755908D01*
X181925377Y-56684480D01*
X182068234Y-56613051D01*
X184282520Y-58041622D02*
X184425377Y-58113051D01*
X184711091Y-58113051D01*
X184853948Y-58041622D01*
X184925377Y-57898765D01*
X184925377Y-57827337D01*
X184853948Y-57684480D01*
X184711091Y-57613051D01*
X184496805Y-57613051D01*
X184353948Y-57541622D01*
X184282520Y-57398765D01*
X184282520Y-57327337D01*
X184353948Y-57184480D01*
X184496805Y-57113051D01*
X184711091Y-57113051D01*
X184853948Y-57184480D01*
X185568234Y-58113051D02*
X185568234Y-56613051D01*
X186211091Y-58113051D02*
X186211091Y-57327337D01*
X186139662Y-57184480D01*
X185996805Y-57113051D01*
X185782519Y-57113051D01*
X185639662Y-57184480D01*
X185568234Y-57255908D01*
X186925377Y-58113051D02*
X186925377Y-57113051D01*
X186925377Y-56613051D02*
X186853948Y-56684480D01*
X186925377Y-56755908D01*
X186996805Y-56684480D01*
X186925377Y-56613051D01*
X186925377Y-56755908D01*
X188211091Y-58041622D02*
X188068234Y-58113051D01*
X187782519Y-58113051D01*
X187639662Y-58041622D01*
X187568234Y-57898765D01*
X187568234Y-57327337D01*
X187639662Y-57184480D01*
X187782519Y-57113051D01*
X188068234Y-57113051D01*
X188211091Y-57184480D01*
X188282519Y-57327337D01*
X188282519Y-57470194D01*
X187568234Y-57613051D01*
X189139662Y-58113051D02*
X188996805Y-58041622D01*
X188925377Y-57898765D01*
X188925377Y-56613051D01*
X190353948Y-58113051D02*
X190353948Y-56613051D01*
X190353948Y-58041622D02*
X190211091Y-58113051D01*
X189925377Y-58113051D01*
X189782520Y-58041622D01*
X189711091Y-57970194D01*
X189639662Y-57827337D01*
X189639662Y-57398765D01*
X189711091Y-57255908D01*
X189782520Y-57184480D01*
X189925377Y-57113051D01*
X190211091Y-57113051D01*
X190353948Y-57184480D01*
X192211091Y-58113051D02*
X192211091Y-56613051D01*
X192782520Y-56613051D01*
X192925377Y-56684480D01*
X192996805Y-56755908D01*
X193068234Y-56898765D01*
X193068234Y-57113051D01*
X192996805Y-57255908D01*
X192925377Y-57327337D01*
X192782520Y-57398765D01*
X192211091Y-57398765D01*
X194353948Y-58113051D02*
X194353948Y-57327337D01*
X194282520Y-57184480D01*
X194139662Y-57113051D01*
X193853948Y-57113051D01*
X193711091Y-57184480D01*
X194353948Y-58041622D02*
X194211091Y-58113051D01*
X193853948Y-58113051D01*
X193711091Y-58041622D01*
X193639662Y-57898765D01*
X193639662Y-57755908D01*
X193711091Y-57613051D01*
X193853948Y-57541622D01*
X194211091Y-57541622D01*
X194353948Y-57470194D01*
X194996805Y-58041622D02*
X195139662Y-58113051D01*
X195425377Y-58113051D01*
X195568234Y-58041622D01*
X195639662Y-57898765D01*
X195639662Y-57827337D01*
X195568234Y-57684480D01*
X195425377Y-57613051D01*
X195211091Y-57613051D01*
X195068234Y-57541622D01*
X194996805Y-57398765D01*
X194996805Y-57327337D01*
X195068234Y-57184480D01*
X195211091Y-57113051D01*
X195425377Y-57113051D01*
X195568234Y-57184480D01*
X196068234Y-57113051D02*
X196639662Y-57113051D01*
X196282520Y-56613051D02*
X196282520Y-57898765D01*
X196353948Y-58041622D01*
X196496805Y-58113051D01*
X196639662Y-58113051D01*
X198282520Y-58113051D02*
X198282520Y-56613051D01*
X198782520Y-57684480D01*
X199282520Y-56613051D01*
X199282520Y-58113051D01*
X200639662Y-58113051D02*
X200639662Y-57327337D01*
X200568234Y-57184480D01*
X200425377Y-57113051D01*
X200139662Y-57113051D01*
X199996805Y-57184480D01*
X200639662Y-58041622D02*
X200496805Y-58113051D01*
X200139662Y-58113051D01*
X199996805Y-58041622D01*
X199925377Y-57898765D01*
X199925377Y-57755908D01*
X199996805Y-57613051D01*
X200139662Y-57541622D01*
X200496805Y-57541622D01*
X200639662Y-57470194D01*
X201282520Y-58041622D02*
X201425377Y-58113051D01*
X201711091Y-58113051D01*
X201853948Y-58041622D01*
X201925377Y-57898765D01*
X201925377Y-57827337D01*
X201853948Y-57684480D01*
X201711091Y-57613051D01*
X201496805Y-57613051D01*
X201353948Y-57541622D01*
X201282520Y-57398765D01*
X201282520Y-57327337D01*
X201353948Y-57184480D01*
X201496805Y-57113051D01*
X201711091Y-57113051D01*
X201853948Y-57184480D01*
X202568234Y-58113051D02*
X202568234Y-56613051D01*
X202711091Y-57541622D02*
X203139662Y-58113051D01*
X203139662Y-57113051D02*
X202568234Y-57684480D01*
X205711091Y-58113051D02*
X204853948Y-58113051D01*
X205282520Y-58113051D02*
X205282520Y-56613051D01*
X205139662Y-56827337D01*
X204996805Y-56970194D01*
X204853948Y-57041622D01*
X207425377Y-56541622D02*
X206139662Y-58470194D01*
X207853948Y-56755908D02*
X207925377Y-56684480D01*
X208068234Y-56613051D01*
X208425377Y-56613051D01*
X208568234Y-56684480D01*
X208639662Y-56755908D01*
X208711091Y-56898765D01*
X208711091Y-57041622D01*
X208639662Y-57255908D01*
X207782520Y-58113051D01*
X208711091Y-58113051D01*
D11*
G04 #@! TO.C,R21*
X223870520Y-73510480D03*
X223870520Y-76410480D03*
G04 #@! TD*
D12*
G04 #@! TO.C,R22*
X206418520Y-67086480D03*
X209318520Y-67086480D03*
G04 #@! TD*
D13*
G04 #@! TO.C,D4*
X221838520Y-71786480D03*
X221838520Y-75086480D03*
G04 #@! TD*
D14*
G04 #@! TO.C,Q2*
X208265520Y-107919480D03*
X208265520Y-109819480D03*
X210265520Y-108869480D03*
G04 #@! TD*
D12*
G04 #@! TO.C,R19*
X221891520Y-92105480D03*
X218991520Y-92105480D03*
G04 #@! TD*
G04 #@! TO.C,R7*
X221891520Y-95534480D03*
X218991520Y-95534480D03*
G04 #@! TD*
D15*
G04 #@! TO.C,C1*
X210535520Y-98177480D03*
X210535520Y-95177480D03*
G04 #@! TD*
D12*
G04 #@! TO.C,R42*
X197147520Y-67467480D03*
X200047520Y-67467480D03*
G04 #@! TD*
D16*
G04 #@! TO.C,C33*
X224227520Y-110139480D03*
X221227520Y-110139480D03*
G04 #@! TD*
G04 #@! TO.C,C34*
X224227520Y-107599480D03*
X221227520Y-107599480D03*
G04 #@! TD*
D12*
G04 #@! TO.C,R39*
X221277520Y-104932480D03*
X224177520Y-104932480D03*
G04 #@! TD*
G04 #@! TO.C,R40*
X221277520Y-102138480D03*
X224177520Y-102138480D03*
G04 #@! TD*
D15*
G04 #@! TO.C,C29*
X215107520Y-116719480D03*
X215107520Y-113719480D03*
G04 #@! TD*
G04 #@! TO.C,C27*
X212567520Y-116719480D03*
X212567520Y-113719480D03*
G04 #@! TD*
G04 #@! TO.C,C26*
X210027520Y-116719480D03*
X210027520Y-113719480D03*
G04 #@! TD*
D11*
G04 #@! TO.C,R6*
X213202520Y-105112480D03*
X213202520Y-102212480D03*
G04 #@! TD*
D12*
G04 #@! TO.C,R1*
X201846520Y-67467480D03*
X204746520Y-67467480D03*
G04 #@! TD*
D15*
G04 #@! TO.C,C15*
X197454520Y-114608480D03*
X197454520Y-117608480D03*
G04 #@! TD*
G04 #@! TO.C,C21*
X193009520Y-117481480D03*
X193009520Y-114481480D03*
G04 #@! TD*
G04 #@! TO.C,C20*
X178658520Y-117354480D03*
X178658520Y-114354480D03*
G04 #@! TD*
D17*
G04 #@! TO.C,U8*
X181212520Y-103789480D03*
X181212520Y-105059480D03*
X181212520Y-106329480D03*
X181212520Y-107599480D03*
X181212520Y-108869480D03*
X181212520Y-110139480D03*
X181212520Y-111409480D03*
X181212520Y-112679480D03*
X190582520Y-112679480D03*
X190582520Y-111409480D03*
X190582520Y-110139480D03*
X190582520Y-108869480D03*
X190582520Y-107599480D03*
X190582520Y-106329480D03*
X190582520Y-105059480D03*
X190582520Y-103789480D03*
G04 #@! TD*
D11*
G04 #@! TO.C,R9*
X197327520Y-111462480D03*
X197327520Y-108562480D03*
G04 #@! TD*
G04 #@! TO.C,R8*
X197327520Y-104604480D03*
X197327520Y-101704480D03*
G04 #@! TD*
D12*
G04 #@! TO.C,R3*
X177822520Y-101249480D03*
X174922520Y-101249480D03*
G04 #@! TD*
D18*
G04 #@! TO.C,U7*
X189247520Y-98074480D03*
X189247520Y-99344480D03*
X189247520Y-100614480D03*
X189247520Y-101884480D03*
X182547520Y-101884480D03*
X182547520Y-100614480D03*
X182547520Y-99344480D03*
X182547520Y-98074480D03*
G04 #@! TD*
D19*
G04 #@! TO.C,U1*
X192444520Y-93949480D03*
X192444520Y-94899480D03*
X192444520Y-95849480D03*
X194844520Y-95849480D03*
X194844520Y-94899480D03*
X194844520Y-93949480D03*
G04 #@! TD*
D12*
G04 #@! TO.C,R4*
X187855520Y-94137480D03*
X184955520Y-94137480D03*
G04 #@! TD*
D11*
G04 #@! TO.C,R25*
X143352520Y-85554480D03*
X143352520Y-82654480D03*
G04 #@! TD*
G04 #@! TO.C,R24*
X143352520Y-90634480D03*
X143352520Y-87734480D03*
G04 #@! TD*
D16*
G04 #@! TO.C,C14*
X151329520Y-101122480D03*
X148329520Y-101122480D03*
G04 #@! TD*
D15*
G04 #@! TO.C,C18*
X175102520Y-83572480D03*
X175102520Y-80572480D03*
G04 #@! TD*
D16*
G04 #@! TO.C,C3*
X192477520Y-84104480D03*
X189477520Y-84104480D03*
G04 #@! TD*
D20*
G04 #@! TO.C,C28*
X212407520Y-68229480D03*
X217807520Y-68229480D03*
G04 #@! TD*
D15*
G04 #@! TO.C,C6*
X192247520Y-79254480D03*
X192247520Y-76254480D03*
G04 #@! TD*
D21*
G04 #@! TO.C,C7*
X217266520Y-79184480D03*
X217266520Y-73784480D03*
G04 #@! TD*
G04 #@! TO.C,C8*
X210662520Y-73784480D03*
X210662520Y-79184480D03*
G04 #@! TD*
D22*
G04 #@! TO.C,U6*
X146954240Y-86012020D03*
X146954240Y-87282020D03*
X146954240Y-88552020D03*
X146954240Y-89819480D03*
X146954240Y-91086940D03*
X146954240Y-92356940D03*
X146954240Y-93626940D03*
X152450800Y-93626940D03*
X152450800Y-92356940D03*
X152450800Y-91086940D03*
X152450800Y-89819480D03*
X152450800Y-88552020D03*
X152450800Y-87282020D03*
X152450800Y-86012020D03*
G04 #@! TD*
D14*
G04 #@! TO.C,Q3*
X207630520Y-69057480D03*
X207630520Y-70957480D03*
X209630520Y-70007480D03*
G04 #@! TD*
D16*
G04 #@! TO.C,C32*
X224267020Y-112679480D03*
X221267020Y-112679480D03*
G04 #@! TD*
M02*
