/* XPM */
static char *Bluetooth[] = {
"16 16 44 1 0 0",
"  c #2546E9",
"! c #7C91F2",
"# c #415FEC",
"$ c #96A6F5",
"% c #E5E9FC",
"& c #415EEC",
"' c #2748E9",
"( c #DFE4FC",
") c #E4E9FC",
"* c #2849E9",
"+ c #D1D9FB",
", c #5B75EF",
"- c #92A3F4",
". c #A6B4F6",
"/ c #DDE2FC",
"0 c #627AEF",
"1 c #EFF1FD",
"2 c #C7D0F9",
"3 c #C4CEF9",
"4 c #EEF1FD",
"5 c #5F78EF",
"6 c #637BEF",
"7 c #F8F9FE",
"8 c #F7F8FE",
"9 c #5C75EF",
": c #F6F8FE",
"; c #F5F6FE",
"< c #5972EE",
"= c #CAD2FA",
"> c #C8D0FA",
"? c #EDF0FD",
"@ c #D1D8FA",
"A c #6078EF",
"B c #96A6F4",
"C c #A4B2F6",
"D c #DEE3FC",
"E c #2848E9",
"F c #DADFFB",
"G c #E8EBFD",
"H c #4662EC",
"I c #E9ECFD",
"J c #7F92F2",
"K c #4562EC",
"L c None",
"                ",
"                ",
"       !#       ",
"       $%&      ",
"     ' $()&     ",
"    *+,$-./*    ",
"     012345     ",
"      6785      ",
"      9:;<      ",
"     94=>?<     ",
"    '@AB-CD*    ",
"     E BFGH     ",
"       BIH      ",
"       JK       ",
"                ",
"                "
};
