G04 #@! TF.FileFunction,Copper,L2,Bot,Signal*
%FSLAX46Y46*%
G04 Gerber Fmt 4.6, Leading zero omitted, Abs format (unit mm)*
G04 Created by KiCad (PCBNEW 4.0.7) date 12/05/18 11:45:52*
%MOMM*%
%LPD*%
G01*
G04 APERTURE LIST*
%ADD10C,0.100000*%
%ADD11O,1.000000X2.000000*%
%ADD12R,0.600000X1.000000*%
%ADD13R,1.524000X1.524000*%
%ADD14R,1.250000X1.500000*%
%ADD15C,0.600000*%
%ADD16C,0.400000*%
%ADD17C,0.250000*%
%ADD18C,0.500000*%
G04 APERTURE END LIST*
D10*
D11*
X122555000Y-114935000D03*
X124555000Y-114935000D03*
X126555000Y-114935000D03*
X128555000Y-114935000D03*
D12*
X127188000Y-110533000D03*
X126238000Y-112733000D03*
X125288000Y-110533000D03*
X130109000Y-110533000D03*
X129159000Y-112733000D03*
X128209000Y-110533000D03*
X124140000Y-110533000D03*
X123190000Y-112733000D03*
X122240000Y-110533000D03*
D13*
X128513840Y-105410000D03*
X130213100Y-105410000D03*
X125994160Y-105410000D03*
X124294900Y-105410000D03*
X128513840Y-107315000D03*
X130213100Y-107315000D03*
X125994160Y-107315000D03*
X124294900Y-107315000D03*
D14*
X122555000Y-107930000D03*
X122555000Y-105430000D03*
D15*
X124333000Y-112649000D03*
X130302000Y-112268000D03*
X121158000Y-109220000D03*
X130302000Y-113538000D03*
X130175000Y-104140000D03*
X130302000Y-108712000D03*
X121285000Y-105410000D03*
X125603000Y-108712000D03*
X127127000Y-109347000D03*
X126238000Y-109347000D03*
X124333000Y-108839000D03*
X127254000Y-106680000D03*
X127254000Y-105410000D03*
D16*
X129159000Y-111506000D02*
X129540000Y-111506000D01*
X129540000Y-111506000D02*
X130302000Y-112268000D01*
X124140000Y-111379000D02*
X124140000Y-112456000D01*
X124140000Y-110533000D02*
X124140000Y-111379000D01*
X124140000Y-112456000D02*
X124333000Y-112649000D01*
X128270000Y-111506000D02*
X128270000Y-110594000D01*
D17*
X128270000Y-110594000D02*
X128209000Y-110533000D01*
D16*
X125288000Y-110533000D02*
X125288000Y-111064000D01*
X125730000Y-111506000D02*
X128270000Y-111506000D01*
X125288000Y-111064000D02*
X125730000Y-111506000D01*
X128270000Y-111506000D02*
X129159000Y-111506000D01*
X129540000Y-111506000D02*
X130302000Y-112268000D01*
X124140000Y-110533000D02*
X125288000Y-110533000D01*
X121201000Y-109263000D02*
X121158000Y-109220000D01*
X121201000Y-109263000D02*
X122240000Y-110533000D01*
X130213100Y-104178100D02*
X130213100Y-105410000D01*
X130175000Y-104140000D02*
X130213100Y-104178100D01*
D17*
X122555000Y-105430000D02*
X121305000Y-105430000D01*
X121305000Y-105430000D02*
X121285000Y-105410000D01*
D16*
X130213100Y-107315000D02*
X130213100Y-105410000D01*
D17*
X122448000Y-105410000D02*
X122428000Y-105430000D01*
X122702000Y-105410000D02*
X122682000Y-105430000D01*
X125222000Y-108712000D02*
X125095000Y-108712000D01*
X125095000Y-108712000D02*
X124294900Y-107911900D01*
X124294900Y-107911900D02*
X124294900Y-107315000D01*
X125603000Y-108712000D02*
X125222000Y-108712000D01*
X122555000Y-107930000D02*
X123170000Y-107315000D01*
X123170000Y-107315000D02*
X124294900Y-107315000D01*
X124294900Y-107315000D02*
X124294900Y-105410000D01*
X127188000Y-110533000D02*
X127188000Y-109408000D01*
X127188000Y-109408000D02*
X127127000Y-109347000D01*
X130109000Y-110533000D02*
X129583000Y-110533000D01*
X128397000Y-109347000D02*
X127635000Y-108585000D01*
X129583000Y-110533000D02*
X128397000Y-109347000D01*
X126238000Y-109347000D02*
X126238000Y-109093000D01*
X126746000Y-108585000D02*
X127635000Y-108585000D01*
X126238000Y-109093000D02*
X126746000Y-108585000D01*
X126555000Y-114935000D02*
X126555000Y-113855000D01*
X126238000Y-113538000D02*
X126238000Y-112733000D01*
X126555000Y-113855000D02*
X126238000Y-113538000D01*
X128555000Y-114935000D02*
X128555000Y-114142000D01*
X128555000Y-114142000D02*
X129159000Y-113538000D01*
X129159000Y-113538000D02*
X129159000Y-112733000D01*
D16*
X123190000Y-110109000D02*
X123190000Y-109982000D01*
X123190000Y-112733000D02*
X123190000Y-110109000D01*
X123190000Y-109982000D02*
X124333000Y-108839000D01*
D18*
X123190000Y-112733000D02*
X123190000Y-113157000D01*
D16*
X123190000Y-113157000D02*
X122555000Y-113792000D01*
X122555000Y-113792000D02*
X122555000Y-114935000D01*
D17*
X128513840Y-107315000D02*
X127889000Y-107315000D01*
X127889000Y-107315000D02*
X127254000Y-106680000D01*
X127254000Y-106680000D02*
X126619000Y-107315000D01*
X126619000Y-107315000D02*
X125994160Y-107315000D01*
X127254000Y-105410000D02*
X128513840Y-105410000D01*
X125994160Y-105410000D02*
X127254000Y-105410000D01*
G36*
X131193000Y-104278240D02*
X131059638Y-104223000D01*
X130494350Y-104223000D01*
X130388100Y-104329250D01*
X130388100Y-105235000D01*
X130408100Y-105235000D01*
X130408100Y-105585000D01*
X130388100Y-105585000D01*
X130388100Y-107140000D01*
X130408100Y-107140000D01*
X130408100Y-107490000D01*
X130388100Y-107490000D01*
X130388100Y-108395750D01*
X130494350Y-108502000D01*
X131059638Y-108502000D01*
X131193000Y-108446760D01*
X131193000Y-116588000D01*
X120775000Y-116588000D01*
X120775000Y-110814250D01*
X121515000Y-110814250D01*
X121515000Y-111117538D01*
X121579702Y-111273743D01*
X121699257Y-111393298D01*
X121855462Y-111458000D01*
X121983750Y-111458000D01*
X122090000Y-111351750D01*
X122090000Y-110708000D01*
X121621250Y-110708000D01*
X121515000Y-110814250D01*
X120775000Y-110814250D01*
X120775000Y-109948462D01*
X121515000Y-109948462D01*
X121515000Y-110251750D01*
X121621250Y-110358000D01*
X122090000Y-110358000D01*
X122090000Y-109714250D01*
X121983750Y-109608000D01*
X121855462Y-109608000D01*
X121699257Y-109672702D01*
X121579702Y-109792257D01*
X121515000Y-109948462D01*
X120775000Y-109948462D01*
X120775000Y-107180000D01*
X121496674Y-107180000D01*
X121496674Y-108680000D01*
X121526309Y-108837496D01*
X121619389Y-108982146D01*
X121761412Y-109079186D01*
X121930000Y-109113326D01*
X123174790Y-109113326D01*
X122748058Y-109540058D01*
X122685726Y-109633345D01*
X122624538Y-109608000D01*
X122496250Y-109608000D01*
X122390000Y-109714250D01*
X122390000Y-110358000D01*
X122435000Y-110358000D01*
X122435000Y-110708000D01*
X122390000Y-110708000D01*
X122390000Y-111351750D01*
X122496250Y-111458000D01*
X122565000Y-111458000D01*
X122565000Y-111955837D01*
X122490814Y-112064412D01*
X122456674Y-112233000D01*
X122456674Y-113006443D01*
X122113058Y-113350058D01*
X121977575Y-113552823D01*
X121943401Y-113724628D01*
X121900926Y-113753009D01*
X121700411Y-114053101D01*
X121630000Y-114407083D01*
X121630000Y-115462917D01*
X121700411Y-115816899D01*
X121900926Y-116116991D01*
X122201018Y-116317506D01*
X122555000Y-116387917D01*
X122908982Y-116317506D01*
X123209074Y-116116991D01*
X123409589Y-115816899D01*
X123480000Y-115462917D01*
X123480000Y-115110000D01*
X123630000Y-115110000D01*
X123630000Y-115610000D01*
X123767381Y-115950661D01*
X124024670Y-116212817D01*
X124240066Y-116304736D01*
X124380000Y-116234829D01*
X124380000Y-115110000D01*
X124730000Y-115110000D01*
X124730000Y-116234829D01*
X124869934Y-116304736D01*
X125085330Y-116212817D01*
X125342619Y-115950661D01*
X125480000Y-115610000D01*
X125480000Y-115110000D01*
X124730000Y-115110000D01*
X124380000Y-115110000D01*
X123630000Y-115110000D01*
X123480000Y-115110000D01*
X123480000Y-114407083D01*
X123450744Y-114260000D01*
X123630000Y-114260000D01*
X123630000Y-114760000D01*
X124380000Y-114760000D01*
X124380000Y-113635171D01*
X124730000Y-113635171D01*
X124730000Y-114760000D01*
X125480000Y-114760000D01*
X125480000Y-114260000D01*
X125342619Y-113919339D01*
X125085330Y-113657183D01*
X124869934Y-113565264D01*
X124730000Y-113635171D01*
X124380000Y-113635171D01*
X124240066Y-113565264D01*
X124024670Y-113657183D01*
X123767381Y-113919339D01*
X123630000Y-114260000D01*
X123450744Y-114260000D01*
X123409589Y-114053101D01*
X123316740Y-113914143D01*
X123454198Y-113776686D01*
X123667297Y-113634297D01*
X123679426Y-113616144D01*
X123792146Y-113543611D01*
X123889186Y-113401588D01*
X123917970Y-113259447D01*
X123921784Y-113263267D01*
X124188156Y-113373874D01*
X124476579Y-113374126D01*
X124743143Y-113263984D01*
X124947267Y-113060216D01*
X125057874Y-112793844D01*
X125058126Y-112505421D01*
X124947984Y-112238857D01*
X124765000Y-112055553D01*
X124765000Y-111395008D01*
X124777760Y-111403726D01*
X124846058Y-111505942D01*
X125288056Y-111947939D01*
X125288058Y-111947942D01*
X125371955Y-112004000D01*
X125490822Y-112083425D01*
X125533255Y-112091865D01*
X125504674Y-112233000D01*
X125504674Y-113233000D01*
X125534309Y-113390496D01*
X125627389Y-113535146D01*
X125696876Y-113582625D01*
X125729866Y-113748476D01*
X125816910Y-113878747D01*
X125700411Y-114053101D01*
X125630000Y-114407083D01*
X125630000Y-115462917D01*
X125700411Y-115816899D01*
X125900926Y-116116991D01*
X126201018Y-116317506D01*
X126555000Y-116387917D01*
X126908982Y-116317506D01*
X127209074Y-116116991D01*
X127409589Y-115816899D01*
X127480000Y-115462917D01*
X127480000Y-114407083D01*
X127409589Y-114053101D01*
X127209074Y-113753009D01*
X127065651Y-113657177D01*
X127063134Y-113644524D01*
X126943909Y-113466091D01*
X126913732Y-113435914D01*
X126937186Y-113401588D01*
X126971326Y-113233000D01*
X126971326Y-112233000D01*
X126952133Y-112131000D01*
X128446330Y-112131000D01*
X128425674Y-112233000D01*
X128425674Y-113233000D01*
X128455309Y-113390496D01*
X128484039Y-113435143D01*
X128407824Y-113511358D01*
X128201018Y-113552494D01*
X127900926Y-113753009D01*
X127700411Y-114053101D01*
X127630000Y-114407083D01*
X127630000Y-115462917D01*
X127700411Y-115816899D01*
X127900926Y-116116991D01*
X128201018Y-116317506D01*
X128555000Y-116387917D01*
X128908982Y-116317506D01*
X129209074Y-116116991D01*
X129409589Y-115816899D01*
X129480000Y-115462917D01*
X129480000Y-114407083D01*
X129411601Y-114063217D01*
X129547909Y-113926909D01*
X129667134Y-113748476D01*
X129700066Y-113582915D01*
X129761146Y-113543611D01*
X129858186Y-113401588D01*
X129892326Y-113233000D01*
X129892326Y-112882907D01*
X130157156Y-112992874D01*
X130445579Y-112993126D01*
X130712143Y-112882984D01*
X130916267Y-112679216D01*
X131026874Y-112412844D01*
X131027126Y-112124421D01*
X130916984Y-111857857D01*
X130713216Y-111653733D01*
X130471069Y-111553185D01*
X130384210Y-111466326D01*
X130409000Y-111466326D01*
X130566496Y-111436691D01*
X130711146Y-111343611D01*
X130808186Y-111201588D01*
X130842326Y-111033000D01*
X130842326Y-110033000D01*
X130812691Y-109875504D01*
X130719611Y-109730854D01*
X130577588Y-109633814D01*
X130409000Y-109599674D01*
X129809000Y-109599674D01*
X129651504Y-109629309D01*
X129533233Y-109705415D01*
X128338144Y-108510326D01*
X129275840Y-108510326D01*
X129352045Y-108495987D01*
X129366562Y-108502000D01*
X129931850Y-108502000D01*
X130038100Y-108395750D01*
X130038100Y-107490000D01*
X130018100Y-107490000D01*
X130018100Y-107140000D01*
X130038100Y-107140000D01*
X130038100Y-105585000D01*
X130018100Y-105585000D01*
X130018100Y-105235000D01*
X130038100Y-105235000D01*
X130038100Y-104329250D01*
X129931850Y-104223000D01*
X129366562Y-104223000D01*
X129350273Y-104229747D01*
X129275840Y-104214674D01*
X127751840Y-104214674D01*
X127594344Y-104244309D01*
X127449694Y-104337389D01*
X127352654Y-104479412D01*
X127318514Y-104648000D01*
X127318514Y-104685056D01*
X127189486Y-104684943D01*
X127189486Y-104648000D01*
X127159851Y-104490504D01*
X127066771Y-104345854D01*
X126924748Y-104248814D01*
X126756160Y-104214674D01*
X125232160Y-104214674D01*
X125141313Y-104231768D01*
X125056900Y-104214674D01*
X123532900Y-104214674D01*
X123375404Y-104244309D01*
X123321879Y-104278751D01*
X123264538Y-104255000D01*
X122836250Y-104255000D01*
X122730000Y-104361250D01*
X122730000Y-105255000D01*
X122750000Y-105255000D01*
X122750000Y-105605000D01*
X122730000Y-105605000D01*
X122730000Y-106498750D01*
X122836250Y-106605000D01*
X123099574Y-106605000D01*
X123099574Y-106746674D01*
X121930000Y-106746674D01*
X121772504Y-106776309D01*
X121627854Y-106869389D01*
X121530814Y-107011412D01*
X121496674Y-107180000D01*
X120775000Y-107180000D01*
X120775000Y-105711250D01*
X121505000Y-105711250D01*
X121505000Y-106264538D01*
X121569702Y-106420743D01*
X121689257Y-106540298D01*
X121845462Y-106605000D01*
X122273750Y-106605000D01*
X122380000Y-106498750D01*
X122380000Y-105605000D01*
X121611250Y-105605000D01*
X121505000Y-105711250D01*
X120775000Y-105711250D01*
X120775000Y-104595462D01*
X121505000Y-104595462D01*
X121505000Y-105148750D01*
X121611250Y-105255000D01*
X122380000Y-105255000D01*
X122380000Y-104361250D01*
X122273750Y-104255000D01*
X121845462Y-104255000D01*
X121689257Y-104319702D01*
X121569702Y-104439257D01*
X121505000Y-104595462D01*
X120775000Y-104595462D01*
X120775000Y-103757000D01*
X131193000Y-103757000D01*
X131193000Y-104278240D01*
X131193000Y-104278240D01*
G37*
X131193000Y-104278240D02*
X131059638Y-104223000D01*
X130494350Y-104223000D01*
X130388100Y-104329250D01*
X130388100Y-105235000D01*
X130408100Y-105235000D01*
X130408100Y-105585000D01*
X130388100Y-105585000D01*
X130388100Y-107140000D01*
X130408100Y-107140000D01*
X130408100Y-107490000D01*
X130388100Y-107490000D01*
X130388100Y-108395750D01*
X130494350Y-108502000D01*
X131059638Y-108502000D01*
X131193000Y-108446760D01*
X131193000Y-116588000D01*
X120775000Y-116588000D01*
X120775000Y-110814250D01*
X121515000Y-110814250D01*
X121515000Y-111117538D01*
X121579702Y-111273743D01*
X121699257Y-111393298D01*
X121855462Y-111458000D01*
X121983750Y-111458000D01*
X122090000Y-111351750D01*
X122090000Y-110708000D01*
X121621250Y-110708000D01*
X121515000Y-110814250D01*
X120775000Y-110814250D01*
X120775000Y-109948462D01*
X121515000Y-109948462D01*
X121515000Y-110251750D01*
X121621250Y-110358000D01*
X122090000Y-110358000D01*
X122090000Y-109714250D01*
X121983750Y-109608000D01*
X121855462Y-109608000D01*
X121699257Y-109672702D01*
X121579702Y-109792257D01*
X121515000Y-109948462D01*
X120775000Y-109948462D01*
X120775000Y-107180000D01*
X121496674Y-107180000D01*
X121496674Y-108680000D01*
X121526309Y-108837496D01*
X121619389Y-108982146D01*
X121761412Y-109079186D01*
X121930000Y-109113326D01*
X123174790Y-109113326D01*
X122748058Y-109540058D01*
X122685726Y-109633345D01*
X122624538Y-109608000D01*
X122496250Y-109608000D01*
X122390000Y-109714250D01*
X122390000Y-110358000D01*
X122435000Y-110358000D01*
X122435000Y-110708000D01*
X122390000Y-110708000D01*
X122390000Y-111351750D01*
X122496250Y-111458000D01*
X122565000Y-111458000D01*
X122565000Y-111955837D01*
X122490814Y-112064412D01*
X122456674Y-112233000D01*
X122456674Y-113006443D01*
X122113058Y-113350058D01*
X121977575Y-113552823D01*
X121943401Y-113724628D01*
X121900926Y-113753009D01*
X121700411Y-114053101D01*
X121630000Y-114407083D01*
X121630000Y-115462917D01*
X121700411Y-115816899D01*
X121900926Y-116116991D01*
X122201018Y-116317506D01*
X122555000Y-116387917D01*
X122908982Y-116317506D01*
X123209074Y-116116991D01*
X123409589Y-115816899D01*
X123480000Y-115462917D01*
X123480000Y-115110000D01*
X123630000Y-115110000D01*
X123630000Y-115610000D01*
X123767381Y-115950661D01*
X124024670Y-116212817D01*
X124240066Y-116304736D01*
X124380000Y-116234829D01*
X124380000Y-115110000D01*
X124730000Y-115110000D01*
X124730000Y-116234829D01*
X124869934Y-116304736D01*
X125085330Y-116212817D01*
X125342619Y-115950661D01*
X125480000Y-115610000D01*
X125480000Y-115110000D01*
X124730000Y-115110000D01*
X124380000Y-115110000D01*
X123630000Y-115110000D01*
X123480000Y-115110000D01*
X123480000Y-114407083D01*
X123450744Y-114260000D01*
X123630000Y-114260000D01*
X123630000Y-114760000D01*
X124380000Y-114760000D01*
X124380000Y-113635171D01*
X124730000Y-113635171D01*
X124730000Y-114760000D01*
X125480000Y-114760000D01*
X125480000Y-114260000D01*
X125342619Y-113919339D01*
X125085330Y-113657183D01*
X124869934Y-113565264D01*
X124730000Y-113635171D01*
X124380000Y-113635171D01*
X124240066Y-113565264D01*
X124024670Y-113657183D01*
X123767381Y-113919339D01*
X123630000Y-114260000D01*
X123450744Y-114260000D01*
X123409589Y-114053101D01*
X123316740Y-113914143D01*
X123454198Y-113776686D01*
X123667297Y-113634297D01*
X123679426Y-113616144D01*
X123792146Y-113543611D01*
X123889186Y-113401588D01*
X123917970Y-113259447D01*
X123921784Y-113263267D01*
X124188156Y-113373874D01*
X124476579Y-113374126D01*
X124743143Y-113263984D01*
X124947267Y-113060216D01*
X125057874Y-112793844D01*
X125058126Y-112505421D01*
X124947984Y-112238857D01*
X124765000Y-112055553D01*
X124765000Y-111395008D01*
X124777760Y-111403726D01*
X124846058Y-111505942D01*
X125288056Y-111947939D01*
X125288058Y-111947942D01*
X125371955Y-112004000D01*
X125490822Y-112083425D01*
X125533255Y-112091865D01*
X125504674Y-112233000D01*
X125504674Y-113233000D01*
X125534309Y-113390496D01*
X125627389Y-113535146D01*
X125696876Y-113582625D01*
X125729866Y-113748476D01*
X125816910Y-113878747D01*
X125700411Y-114053101D01*
X125630000Y-114407083D01*
X125630000Y-115462917D01*
X125700411Y-115816899D01*
X125900926Y-116116991D01*
X126201018Y-116317506D01*
X126555000Y-116387917D01*
X126908982Y-116317506D01*
X127209074Y-116116991D01*
X127409589Y-115816899D01*
X127480000Y-115462917D01*
X127480000Y-114407083D01*
X127409589Y-114053101D01*
X127209074Y-113753009D01*
X127065651Y-113657177D01*
X127063134Y-113644524D01*
X126943909Y-113466091D01*
X126913732Y-113435914D01*
X126937186Y-113401588D01*
X126971326Y-113233000D01*
X126971326Y-112233000D01*
X126952133Y-112131000D01*
X128446330Y-112131000D01*
X128425674Y-112233000D01*
X128425674Y-113233000D01*
X128455309Y-113390496D01*
X128484039Y-113435143D01*
X128407824Y-113511358D01*
X128201018Y-113552494D01*
X127900926Y-113753009D01*
X127700411Y-114053101D01*
X127630000Y-114407083D01*
X127630000Y-115462917D01*
X127700411Y-115816899D01*
X127900926Y-116116991D01*
X128201018Y-116317506D01*
X128555000Y-116387917D01*
X128908982Y-116317506D01*
X129209074Y-116116991D01*
X129409589Y-115816899D01*
X129480000Y-115462917D01*
X129480000Y-114407083D01*
X129411601Y-114063217D01*
X129547909Y-113926909D01*
X129667134Y-113748476D01*
X129700066Y-113582915D01*
X129761146Y-113543611D01*
X129858186Y-113401588D01*
X129892326Y-113233000D01*
X129892326Y-112882907D01*
X130157156Y-112992874D01*
X130445579Y-112993126D01*
X130712143Y-112882984D01*
X130916267Y-112679216D01*
X131026874Y-112412844D01*
X131027126Y-112124421D01*
X130916984Y-111857857D01*
X130713216Y-111653733D01*
X130471069Y-111553185D01*
X130384210Y-111466326D01*
X130409000Y-111466326D01*
X130566496Y-111436691D01*
X130711146Y-111343611D01*
X130808186Y-111201588D01*
X130842326Y-111033000D01*
X130842326Y-110033000D01*
X130812691Y-109875504D01*
X130719611Y-109730854D01*
X130577588Y-109633814D01*
X130409000Y-109599674D01*
X129809000Y-109599674D01*
X129651504Y-109629309D01*
X129533233Y-109705415D01*
X128338144Y-108510326D01*
X129275840Y-108510326D01*
X129352045Y-108495987D01*
X129366562Y-108502000D01*
X129931850Y-108502000D01*
X130038100Y-108395750D01*
X130038100Y-107490000D01*
X130018100Y-107490000D01*
X130018100Y-107140000D01*
X130038100Y-107140000D01*
X130038100Y-105585000D01*
X130018100Y-105585000D01*
X130018100Y-105235000D01*
X130038100Y-105235000D01*
X130038100Y-104329250D01*
X129931850Y-104223000D01*
X129366562Y-104223000D01*
X129350273Y-104229747D01*
X129275840Y-104214674D01*
X127751840Y-104214674D01*
X127594344Y-104244309D01*
X127449694Y-104337389D01*
X127352654Y-104479412D01*
X127318514Y-104648000D01*
X127318514Y-104685056D01*
X127189486Y-104684943D01*
X127189486Y-104648000D01*
X127159851Y-104490504D01*
X127066771Y-104345854D01*
X126924748Y-104248814D01*
X126756160Y-104214674D01*
X125232160Y-104214674D01*
X125141313Y-104231768D01*
X125056900Y-104214674D01*
X123532900Y-104214674D01*
X123375404Y-104244309D01*
X123321879Y-104278751D01*
X123264538Y-104255000D01*
X122836250Y-104255000D01*
X122730000Y-104361250D01*
X122730000Y-105255000D01*
X122750000Y-105255000D01*
X122750000Y-105605000D01*
X122730000Y-105605000D01*
X122730000Y-106498750D01*
X122836250Y-106605000D01*
X123099574Y-106605000D01*
X123099574Y-106746674D01*
X121930000Y-106746674D01*
X121772504Y-106776309D01*
X121627854Y-106869389D01*
X121530814Y-107011412D01*
X121496674Y-107180000D01*
X120775000Y-107180000D01*
X120775000Y-105711250D01*
X121505000Y-105711250D01*
X121505000Y-106264538D01*
X121569702Y-106420743D01*
X121689257Y-106540298D01*
X121845462Y-106605000D01*
X122273750Y-106605000D01*
X122380000Y-106498750D01*
X122380000Y-105605000D01*
X121611250Y-105605000D01*
X121505000Y-105711250D01*
X120775000Y-105711250D01*
X120775000Y-104595462D01*
X121505000Y-104595462D01*
X121505000Y-105148750D01*
X121611250Y-105255000D01*
X122380000Y-105255000D01*
X122380000Y-104361250D01*
X122273750Y-104255000D01*
X121845462Y-104255000D01*
X121689257Y-104319702D01*
X121569702Y-104439257D01*
X121505000Y-104595462D01*
X120775000Y-104595462D01*
X120775000Y-103757000D01*
X131193000Y-103757000D01*
X131193000Y-104278240D01*
M02*
