G04 #@! TF.FileFunction,Legend,Bot*
%FSLAX46Y46*%
G04 Gerber Fmt 4.6, Leading zero omitted, Abs format (unit mm)*
G04 Created by KiCad (PCBNEW 4.0.7) date 08/07/18 09:16:37*
%MOMM*%
%LPD*%
G01*
G04 APERTURE LIST*
%ADD10C,0.100000*%
%ADD11C,0.150000*%
%ADD12C,0.210000*%
%ADD13C,0.300000*%
%ADD14C,0.120000*%
G04 APERTURE END LIST*
D10*
D11*
X208630520Y-110520480D02*
X208630520Y-112425480D01*
X210535520Y-112298480D02*
X210535520Y-112425480D01*
X209011520Y-110520480D02*
X209011520Y-112298480D01*
X211424520Y-108742480D02*
X209519520Y-108742480D01*
X209519520Y-108361480D02*
X211424520Y-108361480D01*
X206979520Y-107345480D02*
X208884520Y-107345480D01*
X209011520Y-106964480D02*
X206979520Y-106964480D01*
X202915520Y-67213480D02*
X202915520Y-65689480D01*
X202661520Y-67213480D02*
X202661520Y-65689480D01*
D12*
X195232092Y-111389623D02*
X196374949Y-111389623D01*
X195232092Y-108849623D02*
X196374949Y-108849623D01*
X195803520Y-109421051D02*
X195803520Y-108278194D01*
D13*
X209282517Y-58113051D02*
X209282517Y-56613051D01*
X208782517Y-57684480D01*
X208282517Y-56613051D01*
X208282517Y-58113051D01*
X206996803Y-58041623D02*
X207139660Y-58113051D01*
X207425374Y-58113051D01*
X207568231Y-58041623D01*
X207639660Y-57898766D01*
X207639660Y-57327337D01*
X207568231Y-57184480D01*
X207425374Y-57113051D01*
X207139660Y-57113051D01*
X206996803Y-57184480D01*
X206925374Y-57327337D01*
X206925374Y-57470194D01*
X207639660Y-57613051D01*
X205639660Y-57113051D02*
X205639660Y-58327337D01*
X205711089Y-58470194D01*
X205782517Y-58541623D01*
X205925374Y-58613051D01*
X206139660Y-58613051D01*
X206282517Y-58541623D01*
X205639660Y-58041623D02*
X205782517Y-58113051D01*
X206068231Y-58113051D01*
X206211089Y-58041623D01*
X206282517Y-57970194D01*
X206353946Y-57827337D01*
X206353946Y-57398766D01*
X206282517Y-57255909D01*
X206211089Y-57184480D01*
X206068231Y-57113051D01*
X205782517Y-57113051D01*
X205639660Y-57184480D01*
X204282517Y-58113051D02*
X204282517Y-57327337D01*
X204353946Y-57184480D01*
X204496803Y-57113051D01*
X204782517Y-57113051D01*
X204925374Y-57184480D01*
X204282517Y-58041623D02*
X204425374Y-58113051D01*
X204782517Y-58113051D01*
X204925374Y-58041623D01*
X204996803Y-57898766D01*
X204996803Y-57755909D01*
X204925374Y-57613051D01*
X204782517Y-57541623D01*
X204425374Y-57541623D01*
X204282517Y-57470194D01*
X201568231Y-57970194D02*
X201639660Y-58041623D01*
X201853946Y-58113051D01*
X201996803Y-58113051D01*
X202211088Y-58041623D01*
X202353946Y-57898766D01*
X202425374Y-57755909D01*
X202496803Y-57470194D01*
X202496803Y-57255909D01*
X202425374Y-56970194D01*
X202353946Y-56827337D01*
X202211088Y-56684480D01*
X201996803Y-56613051D01*
X201853946Y-56613051D01*
X201639660Y-56684480D01*
X201568231Y-56755909D01*
X200711088Y-58113051D02*
X200853946Y-58041623D01*
X200925374Y-57970194D01*
X200996803Y-57827337D01*
X200996803Y-57398766D01*
X200925374Y-57255909D01*
X200853946Y-57184480D01*
X200711088Y-57113051D01*
X200496803Y-57113051D01*
X200353946Y-57184480D01*
X200282517Y-57255909D01*
X200211088Y-57398766D01*
X200211088Y-57827337D01*
X200282517Y-57970194D01*
X200353946Y-58041623D01*
X200496803Y-58113051D01*
X200711088Y-58113051D01*
X199568231Y-58113051D02*
X199568231Y-57113051D01*
X199568231Y-57398766D02*
X199496803Y-57255909D01*
X199425374Y-57184480D01*
X199282517Y-57113051D01*
X199139660Y-57113051D01*
X198068232Y-58041623D02*
X198211089Y-58113051D01*
X198496803Y-58113051D01*
X198639660Y-58041623D01*
X198711089Y-57898766D01*
X198711089Y-57327337D01*
X198639660Y-57184480D01*
X198496803Y-57113051D01*
X198211089Y-57113051D01*
X198068232Y-57184480D01*
X197996803Y-57327337D01*
X197996803Y-57470194D01*
X198711089Y-57613051D01*
X196282518Y-56755909D02*
X196211089Y-56684480D01*
X196068232Y-56613051D01*
X195711089Y-56613051D01*
X195568232Y-56684480D01*
X195496803Y-56755909D01*
X195425375Y-56898766D01*
X195425375Y-57041623D01*
X195496803Y-57255909D01*
X196353946Y-58113051D01*
X195425375Y-58113051D01*
X194068232Y-56613051D02*
X194782518Y-56613051D01*
X194853947Y-57327337D01*
X194782518Y-57255909D01*
X194639661Y-57184480D01*
X194282518Y-57184480D01*
X194139661Y-57255909D01*
X194068232Y-57327337D01*
X193996804Y-57470194D01*
X193996804Y-57827337D01*
X194068232Y-57970194D01*
X194139661Y-58041623D01*
X194282518Y-58113051D01*
X194639661Y-58113051D01*
X194782518Y-58041623D01*
X194853947Y-57970194D01*
X192711090Y-56613051D02*
X192996804Y-56613051D01*
X193139661Y-56684480D01*
X193211090Y-56755909D01*
X193353947Y-56970194D01*
X193425376Y-57255909D01*
X193425376Y-57827337D01*
X193353947Y-57970194D01*
X193282519Y-58041623D01*
X193139661Y-58113051D01*
X192853947Y-58113051D01*
X192711090Y-58041623D01*
X192639661Y-57970194D01*
X192568233Y-57827337D01*
X192568233Y-57470194D01*
X192639661Y-57327337D01*
X192711090Y-57255909D01*
X192853947Y-57184480D01*
X193139661Y-57184480D01*
X193282519Y-57255909D01*
X193353947Y-57327337D01*
X193425376Y-57470194D01*
X191639662Y-56613051D02*
X191496805Y-56613051D01*
X191353948Y-56684480D01*
X191282519Y-56755909D01*
X191211090Y-56898766D01*
X191139662Y-57184480D01*
X191139662Y-57541623D01*
X191211090Y-57827337D01*
X191282519Y-57970194D01*
X191353948Y-58041623D01*
X191496805Y-58113051D01*
X191639662Y-58113051D01*
X191782519Y-58041623D01*
X191853948Y-57970194D01*
X191925376Y-57827337D01*
X191996805Y-57541623D01*
X191996805Y-57184480D01*
X191925376Y-56898766D01*
X191853948Y-56755909D01*
X191782519Y-56684480D01*
X191639662Y-56613051D01*
X189425377Y-58041623D02*
X189282520Y-58113051D01*
X188996805Y-58113051D01*
X188853948Y-58041623D01*
X188782520Y-57898766D01*
X188782520Y-57827337D01*
X188853948Y-57684480D01*
X188996805Y-57613051D01*
X189211091Y-57613051D01*
X189353948Y-57541623D01*
X189425377Y-57398766D01*
X189425377Y-57327337D01*
X189353948Y-57184480D01*
X189211091Y-57113051D01*
X188996805Y-57113051D01*
X188853948Y-57184480D01*
X188139662Y-58113051D02*
X188139662Y-56613051D01*
X187496805Y-58113051D02*
X187496805Y-57327337D01*
X187568234Y-57184480D01*
X187711091Y-57113051D01*
X187925376Y-57113051D01*
X188068234Y-57184480D01*
X188139662Y-57255909D01*
X186782519Y-58113051D02*
X186782519Y-57113051D01*
X186782519Y-56613051D02*
X186853948Y-56684480D01*
X186782519Y-56755909D01*
X186711091Y-56684480D01*
X186782519Y-56613051D01*
X186782519Y-56755909D01*
X185496805Y-58041623D02*
X185639662Y-58113051D01*
X185925376Y-58113051D01*
X186068233Y-58041623D01*
X186139662Y-57898766D01*
X186139662Y-57327337D01*
X186068233Y-57184480D01*
X185925376Y-57113051D01*
X185639662Y-57113051D01*
X185496805Y-57184480D01*
X185425376Y-57327337D01*
X185425376Y-57470194D01*
X186139662Y-57613051D01*
X184568233Y-58113051D02*
X184711091Y-58041623D01*
X184782519Y-57898766D01*
X184782519Y-56613051D01*
X183353948Y-58113051D02*
X183353948Y-56613051D01*
X183353948Y-58041623D02*
X183496805Y-58113051D01*
X183782519Y-58113051D01*
X183925377Y-58041623D01*
X183996805Y-57970194D01*
X184068234Y-57827337D01*
X184068234Y-57398766D01*
X183996805Y-57255909D01*
X183925377Y-57184480D01*
X183782519Y-57113051D01*
X183496805Y-57113051D01*
X183353948Y-57184480D01*
X181568234Y-58041623D02*
X181353948Y-58113051D01*
X180996805Y-58113051D01*
X180853948Y-58041623D01*
X180782519Y-57970194D01*
X180711091Y-57827337D01*
X180711091Y-57684480D01*
X180782519Y-57541623D01*
X180853948Y-57470194D01*
X180996805Y-57398766D01*
X181282519Y-57327337D01*
X181425377Y-57255909D01*
X181496805Y-57184480D01*
X181568234Y-57041623D01*
X181568234Y-56898766D01*
X181496805Y-56755909D01*
X181425377Y-56684480D01*
X181282519Y-56613051D01*
X180925377Y-56613051D01*
X180711091Y-56684480D01*
X180068234Y-58113051D02*
X180068234Y-57113051D01*
X180068234Y-56613051D02*
X180139663Y-56684480D01*
X180068234Y-56755909D01*
X179996806Y-56684480D01*
X180068234Y-56613051D01*
X180068234Y-56755909D01*
X179139662Y-58113051D02*
X179282520Y-58041623D01*
X179353948Y-57898766D01*
X179353948Y-56613051D01*
X178568234Y-58113051D02*
X178568234Y-56613051D01*
X178425377Y-57541623D02*
X177996806Y-58113051D01*
X177996806Y-57113051D02*
X178568234Y-57684480D01*
X176282520Y-58041623D02*
X176068234Y-58113051D01*
X175711091Y-58113051D01*
X175568234Y-58041623D01*
X175496805Y-57970194D01*
X175425377Y-57827337D01*
X175425377Y-57684480D01*
X175496805Y-57541623D01*
X175568234Y-57470194D01*
X175711091Y-57398766D01*
X175996805Y-57327337D01*
X176139663Y-57255909D01*
X176211091Y-57184480D01*
X176282520Y-57041623D01*
X176282520Y-56898766D01*
X176211091Y-56755909D01*
X176139663Y-56684480D01*
X175996805Y-56613051D01*
X175639663Y-56613051D01*
X175425377Y-56684480D01*
X174139663Y-58041623D02*
X174282520Y-58113051D01*
X174568234Y-58113051D01*
X174711092Y-58041623D01*
X174782520Y-57970194D01*
X174853949Y-57827337D01*
X174853949Y-57398766D01*
X174782520Y-57255909D01*
X174711092Y-57184480D01*
X174568234Y-57113051D01*
X174282520Y-57113051D01*
X174139663Y-57184480D01*
X173496806Y-58113051D02*
X173496806Y-57113051D01*
X173496806Y-57398766D02*
X173425378Y-57255909D01*
X173353949Y-57184480D01*
X173211092Y-57113051D01*
X173068235Y-57113051D01*
X171996807Y-58041623D02*
X172139664Y-58113051D01*
X172425378Y-58113051D01*
X172568235Y-58041623D01*
X172639664Y-57898766D01*
X172639664Y-57327337D01*
X172568235Y-57184480D01*
X172425378Y-57113051D01*
X172139664Y-57113051D01*
X171996807Y-57184480D01*
X171925378Y-57327337D01*
X171925378Y-57470194D01*
X172639664Y-57613051D01*
X170711093Y-58041623D02*
X170853950Y-58113051D01*
X171139664Y-58113051D01*
X171282521Y-58041623D01*
X171353950Y-57898766D01*
X171353950Y-57327337D01*
X171282521Y-57184480D01*
X171139664Y-57113051D01*
X170853950Y-57113051D01*
X170711093Y-57184480D01*
X170639664Y-57327337D01*
X170639664Y-57470194D01*
X171353950Y-57613051D01*
X169996807Y-57113051D02*
X169996807Y-58113051D01*
X169996807Y-57255909D02*
X169925379Y-57184480D01*
X169782521Y-57113051D01*
X169568236Y-57113051D01*
X169425379Y-57184480D01*
X169353950Y-57327337D01*
X169353950Y-58113051D01*
X167568236Y-56755909D02*
X167496807Y-56684480D01*
X167353950Y-56613051D01*
X166996807Y-56613051D01*
X166853950Y-56684480D01*
X166782521Y-56755909D01*
X166711093Y-56898766D01*
X166711093Y-57041623D01*
X166782521Y-57255909D01*
X167639664Y-58113051D01*
X166711093Y-58113051D01*
X164996808Y-56541623D02*
X166282522Y-58470194D01*
X164568236Y-56755909D02*
X164496807Y-56684480D01*
X164353950Y-56613051D01*
X163996807Y-56613051D01*
X163853950Y-56684480D01*
X163782521Y-56755909D01*
X163711093Y-56898766D01*
X163711093Y-57041623D01*
X163782521Y-57255909D01*
X164639664Y-58113051D01*
X163711093Y-58113051D01*
D12*
X185091805Y-114049337D02*
X184877519Y-114120766D01*
X184806091Y-114192194D01*
X184734662Y-114335051D01*
X184734662Y-114549337D01*
X184806091Y-114692194D01*
X184877519Y-114763623D01*
X185020377Y-114835051D01*
X185591805Y-114835051D01*
X185591805Y-113335051D01*
X185091805Y-113335051D01*
X184948948Y-113406480D01*
X184877519Y-113477909D01*
X184806091Y-113620766D01*
X184806091Y-113763623D01*
X184877519Y-113906480D01*
X184948948Y-113977909D01*
X185091805Y-114049337D01*
X185591805Y-114049337D01*
X184234662Y-113835051D02*
X183877519Y-114835051D01*
X183520377Y-113835051D02*
X183877519Y-114835051D01*
X184020377Y-115192194D01*
X184091805Y-115263623D01*
X184234662Y-115335051D01*
X189448948Y-115795051D02*
X189163234Y-115795051D01*
X189020376Y-115866480D01*
X188877519Y-116009337D01*
X188806091Y-116295051D01*
X188806091Y-116795051D01*
X188877519Y-117080766D01*
X189020376Y-117223623D01*
X189163234Y-117295051D01*
X189448948Y-117295051D01*
X189591805Y-117223623D01*
X189734662Y-117080766D01*
X189806091Y-116795051D01*
X189806091Y-116295051D01*
X189734662Y-116009337D01*
X189591805Y-115866480D01*
X189448948Y-115795051D01*
X188163233Y-116295051D02*
X188163233Y-117795051D01*
X188163233Y-116366480D02*
X188020376Y-116295051D01*
X187734662Y-116295051D01*
X187591805Y-116366480D01*
X187520376Y-116437909D01*
X187448947Y-116580766D01*
X187448947Y-117009337D01*
X187520376Y-117152194D01*
X187591805Y-117223623D01*
X187734662Y-117295051D01*
X188020376Y-117295051D01*
X188163233Y-117223623D01*
X186234662Y-117223623D02*
X186377519Y-117295051D01*
X186663233Y-117295051D01*
X186806090Y-117223623D01*
X186877519Y-117080766D01*
X186877519Y-116509337D01*
X186806090Y-116366480D01*
X186663233Y-116295051D01*
X186377519Y-116295051D01*
X186234662Y-116366480D01*
X186163233Y-116509337D01*
X186163233Y-116652194D01*
X186877519Y-116795051D01*
X185520376Y-116295051D02*
X185520376Y-117295051D01*
X185520376Y-116437909D02*
X185448948Y-116366480D01*
X185306090Y-116295051D01*
X185091805Y-116295051D01*
X184948948Y-116366480D01*
X184877519Y-116509337D01*
X184877519Y-117295051D01*
X184234662Y-116866480D02*
X183520376Y-116866480D01*
X184377519Y-117295051D02*
X183877519Y-115795051D01*
X183377519Y-117295051D01*
X183091805Y-115795051D02*
X182591805Y-117295051D01*
X182091805Y-115795051D01*
X180734662Y-117295051D02*
X181234662Y-116580766D01*
X181591805Y-117295051D02*
X181591805Y-115795051D01*
X181020377Y-115795051D01*
X180877519Y-115866480D01*
X180806091Y-115937909D01*
X180734662Y-116080766D01*
X180734662Y-116295051D01*
X180806091Y-116437909D01*
X180877519Y-116509337D01*
X181020377Y-116580766D01*
X181591805Y-116580766D01*
X179448948Y-117223623D02*
X179591805Y-117295051D01*
X179877519Y-117295051D01*
X180020377Y-117223623D01*
X180091805Y-117152194D01*
X180163234Y-117009337D01*
X180163234Y-116580766D01*
X180091805Y-116437909D01*
X180020377Y-116366480D01*
X179877519Y-116295051D01*
X179591805Y-116295051D01*
X179448948Y-116366480D01*
X187377520Y-118255051D02*
X186520377Y-118255051D01*
X186948948Y-119755051D02*
X186948948Y-118255051D01*
X185448949Y-119683623D02*
X185591806Y-119755051D01*
X185877520Y-119755051D01*
X186020377Y-119683623D01*
X186091806Y-119540766D01*
X186091806Y-118969337D01*
X186020377Y-118826480D01*
X185877520Y-118755051D01*
X185591806Y-118755051D01*
X185448949Y-118826480D01*
X185377520Y-118969337D01*
X185377520Y-119112194D01*
X186091806Y-119255051D01*
X184091806Y-119755051D02*
X184091806Y-118969337D01*
X184163235Y-118826480D01*
X184306092Y-118755051D01*
X184591806Y-118755051D01*
X184734663Y-118826480D01*
X184091806Y-119683623D02*
X184234663Y-119755051D01*
X184591806Y-119755051D01*
X184734663Y-119683623D01*
X184806092Y-119540766D01*
X184806092Y-119397909D01*
X184734663Y-119255051D01*
X184591806Y-119183623D01*
X184234663Y-119183623D01*
X184091806Y-119112194D01*
X183377520Y-119755051D02*
X183377520Y-118755051D01*
X183377520Y-118897909D02*
X183306092Y-118826480D01*
X183163234Y-118755051D01*
X182948949Y-118755051D01*
X182806092Y-118826480D01*
X182734663Y-118969337D01*
X182734663Y-119755051D01*
X182734663Y-118969337D02*
X182663234Y-118826480D01*
X182520377Y-118755051D01*
X182306092Y-118755051D01*
X182163234Y-118826480D01*
X182091806Y-118969337D01*
X182091806Y-119755051D01*
X191885376Y-110096051D02*
X191885376Y-108596051D01*
X191385376Y-109667480D01*
X190885376Y-108596051D01*
X190885376Y-110096051D01*
X189599662Y-110024623D02*
X189742519Y-110096051D01*
X190028233Y-110096051D01*
X190171090Y-110024623D01*
X190242519Y-109881766D01*
X190242519Y-109310337D01*
X190171090Y-109167480D01*
X190028233Y-109096051D01*
X189742519Y-109096051D01*
X189599662Y-109167480D01*
X189528233Y-109310337D01*
X189528233Y-109453194D01*
X190242519Y-109596051D01*
X188242519Y-109096051D02*
X188242519Y-110310337D01*
X188313948Y-110453194D01*
X188385376Y-110524623D01*
X188528233Y-110596051D01*
X188742519Y-110596051D01*
X188885376Y-110524623D01*
X188242519Y-110024623D02*
X188385376Y-110096051D01*
X188671090Y-110096051D01*
X188813948Y-110024623D01*
X188885376Y-109953194D01*
X188956805Y-109810337D01*
X188956805Y-109381766D01*
X188885376Y-109238909D01*
X188813948Y-109167480D01*
X188671090Y-109096051D01*
X188385376Y-109096051D01*
X188242519Y-109167480D01*
X186885376Y-110096051D02*
X186885376Y-109310337D01*
X186956805Y-109167480D01*
X187099662Y-109096051D01*
X187385376Y-109096051D01*
X187528233Y-109167480D01*
X186885376Y-110024623D02*
X187028233Y-110096051D01*
X187385376Y-110096051D01*
X187528233Y-110024623D01*
X187599662Y-109881766D01*
X187599662Y-109738909D01*
X187528233Y-109596051D01*
X187385376Y-109524623D01*
X187028233Y-109524623D01*
X186885376Y-109453194D01*
X185313947Y-109953194D02*
X185385376Y-110024623D01*
X185599662Y-110096051D01*
X185742519Y-110096051D01*
X185956804Y-110024623D01*
X186099662Y-109881766D01*
X186171090Y-109738909D01*
X186242519Y-109453194D01*
X186242519Y-109238909D01*
X186171090Y-108953194D01*
X186099662Y-108810337D01*
X185956804Y-108667480D01*
X185742519Y-108596051D01*
X185599662Y-108596051D01*
X185385376Y-108667480D01*
X185313947Y-108738909D01*
X184456804Y-110096051D02*
X184599662Y-110024623D01*
X184671090Y-109953194D01*
X184742519Y-109810337D01*
X184742519Y-109381766D01*
X184671090Y-109238909D01*
X184599662Y-109167480D01*
X184456804Y-109096051D01*
X184242519Y-109096051D01*
X184099662Y-109167480D01*
X184028233Y-109238909D01*
X183956804Y-109381766D01*
X183956804Y-109810337D01*
X184028233Y-109953194D01*
X184099662Y-110024623D01*
X184242519Y-110096051D01*
X184456804Y-110096051D01*
X183313947Y-110096051D02*
X183313947Y-109096051D01*
X183313947Y-109381766D02*
X183242519Y-109238909D01*
X183171090Y-109167480D01*
X183028233Y-109096051D01*
X182885376Y-109096051D01*
X181813948Y-110024623D02*
X181956805Y-110096051D01*
X182242519Y-110096051D01*
X182385376Y-110024623D01*
X182456805Y-109881766D01*
X182456805Y-109310337D01*
X182385376Y-109167480D01*
X182242519Y-109096051D01*
X181956805Y-109096051D01*
X181813948Y-109167480D01*
X181742519Y-109310337D01*
X181742519Y-109453194D01*
X182456805Y-109596051D01*
X181171091Y-108738909D02*
X181099662Y-108667480D01*
X180956805Y-108596051D01*
X180599662Y-108596051D01*
X180456805Y-108667480D01*
X180385376Y-108738909D01*
X180313948Y-108881766D01*
X180313948Y-109024623D01*
X180385376Y-109238909D01*
X181242519Y-110096051D01*
X180313948Y-110096051D01*
X178956805Y-108596051D02*
X179671091Y-108596051D01*
X179742520Y-109310337D01*
X179671091Y-109238909D01*
X179528234Y-109167480D01*
X179171091Y-109167480D01*
X179028234Y-109238909D01*
X178956805Y-109310337D01*
X178885377Y-109453194D01*
X178885377Y-109810337D01*
X178956805Y-109953194D01*
X179028234Y-110024623D01*
X179171091Y-110096051D01*
X179528234Y-110096051D01*
X179671091Y-110024623D01*
X179742520Y-109953194D01*
X177599663Y-108596051D02*
X177885377Y-108596051D01*
X178028234Y-108667480D01*
X178099663Y-108738909D01*
X178242520Y-108953194D01*
X178313949Y-109238909D01*
X178313949Y-109810337D01*
X178242520Y-109953194D01*
X178171092Y-110024623D01*
X178028234Y-110096051D01*
X177742520Y-110096051D01*
X177599663Y-110024623D01*
X177528234Y-109953194D01*
X177456806Y-109810337D01*
X177456806Y-109453194D01*
X177528234Y-109310337D01*
X177599663Y-109238909D01*
X177742520Y-109167480D01*
X178028234Y-109167480D01*
X178171092Y-109238909D01*
X178242520Y-109310337D01*
X178313949Y-109453194D01*
X176528235Y-108596051D02*
X176385378Y-108596051D01*
X176242521Y-108667480D01*
X176171092Y-108738909D01*
X176099663Y-108881766D01*
X176028235Y-109167480D01*
X176028235Y-109524623D01*
X176099663Y-109810337D01*
X176171092Y-109953194D01*
X176242521Y-110024623D01*
X176385378Y-110096051D01*
X176528235Y-110096051D01*
X176671092Y-110024623D01*
X176742521Y-109953194D01*
X176813949Y-109810337D01*
X176885378Y-109524623D01*
X176885378Y-109167480D01*
X176813949Y-108881766D01*
X176742521Y-108738909D01*
X176671092Y-108667480D01*
X176528235Y-108596051D01*
X190171091Y-112484623D02*
X189956805Y-112556051D01*
X189599662Y-112556051D01*
X189456805Y-112484623D01*
X189385376Y-112413194D01*
X189313948Y-112270337D01*
X189313948Y-112127480D01*
X189385376Y-111984623D01*
X189456805Y-111913194D01*
X189599662Y-111841766D01*
X189885376Y-111770337D01*
X190028234Y-111698909D01*
X190099662Y-111627480D01*
X190171091Y-111484623D01*
X190171091Y-111341766D01*
X190099662Y-111198909D01*
X190028234Y-111127480D01*
X189885376Y-111056051D01*
X189528234Y-111056051D01*
X189313948Y-111127480D01*
X188671091Y-112556051D02*
X188671091Y-111056051D01*
X188028234Y-112556051D02*
X188028234Y-111770337D01*
X188099663Y-111627480D01*
X188242520Y-111556051D01*
X188456805Y-111556051D01*
X188599663Y-111627480D01*
X188671091Y-111698909D01*
X187313948Y-112556051D02*
X187313948Y-111556051D01*
X187313948Y-111056051D02*
X187385377Y-111127480D01*
X187313948Y-111198909D01*
X187242520Y-111127480D01*
X187313948Y-111056051D01*
X187313948Y-111198909D01*
X186028234Y-112484623D02*
X186171091Y-112556051D01*
X186456805Y-112556051D01*
X186599662Y-112484623D01*
X186671091Y-112341766D01*
X186671091Y-111770337D01*
X186599662Y-111627480D01*
X186456805Y-111556051D01*
X186171091Y-111556051D01*
X186028234Y-111627480D01*
X185956805Y-111770337D01*
X185956805Y-111913194D01*
X186671091Y-112056051D01*
X185099662Y-112556051D02*
X185242520Y-112484623D01*
X185313948Y-112341766D01*
X185313948Y-111056051D01*
X183885377Y-112556051D02*
X183885377Y-111056051D01*
X183885377Y-112484623D02*
X184028234Y-112556051D01*
X184313948Y-112556051D01*
X184456806Y-112484623D01*
X184528234Y-112413194D01*
X184599663Y-112270337D01*
X184599663Y-111841766D01*
X184528234Y-111698909D01*
X184456806Y-111627480D01*
X184313948Y-111556051D01*
X184028234Y-111556051D01*
X183885377Y-111627480D01*
X182242520Y-111056051D02*
X181742520Y-112556051D01*
X181242520Y-111056051D01*
X180813949Y-111198909D02*
X180742520Y-111127480D01*
X180599663Y-111056051D01*
X180242520Y-111056051D01*
X180099663Y-111127480D01*
X180028234Y-111198909D01*
X179956806Y-111341766D01*
X179956806Y-111484623D01*
X180028234Y-111698909D01*
X180885377Y-112556051D01*
X179956806Y-112556051D01*
X179313949Y-112413194D02*
X179242521Y-112484623D01*
X179313949Y-112556051D01*
X179385378Y-112484623D01*
X179313949Y-112413194D01*
X179313949Y-112556051D01*
X177813949Y-112556051D02*
X178671092Y-112556051D01*
X178242520Y-112556051D02*
X178242520Y-111056051D01*
X178385377Y-111270337D01*
X178528235Y-111413194D01*
X178671092Y-111484623D01*
D11*
X207106520Y-68940480D02*
X206556520Y-68390480D01*
X207656520Y-68940480D02*
X206556520Y-68940480D01*
X207656520Y-65740480D02*
X206556520Y-65740480D01*
X206556520Y-68940480D02*
X206556520Y-65740480D01*
X207656520Y-68940480D02*
X207656520Y-65740480D01*
D14*
X212043520Y-114847480D02*
X210043520Y-114847480D01*
X210043520Y-112797480D02*
X212043520Y-112797480D01*
X206995520Y-105603480D02*
X208995520Y-105603480D01*
X208995520Y-105603480D02*
X208995520Y-109503480D01*
X206995520Y-105603480D02*
X206995520Y-109503480D01*
X211535520Y-110103480D02*
X209535520Y-110103480D01*
X209535520Y-110103480D02*
X209535520Y-106203480D01*
X211535520Y-110103480D02*
X211535520Y-106203480D01*
X217201520Y-94001480D02*
X219101520Y-94001480D01*
X218601520Y-97321480D02*
X217201520Y-97321480D01*
X217201520Y-90191480D02*
X219101520Y-90191480D01*
X218601520Y-93511480D02*
X217201520Y-93511480D01*
D11*
X211991520Y-93105480D02*
X211991520Y-91105480D01*
X209841520Y-91105480D02*
X209841520Y-93105480D01*
X157306520Y-66265480D02*
X155306520Y-66265480D01*
X155306520Y-68415480D02*
X157306520Y-68415480D01*
X218731520Y-78532480D02*
X218731520Y-80532480D01*
X220881520Y-80532480D02*
X220881520Y-78532480D01*
X224327520Y-103789480D02*
X223777520Y-104339480D01*
X224327520Y-103239480D02*
X224327520Y-104339480D01*
X221127520Y-103239480D02*
X221127520Y-104339480D01*
X224327520Y-104339480D02*
X221127520Y-104339480D01*
X224327520Y-103239480D02*
X221127520Y-103239480D01*
D14*
X207269520Y-112409480D02*
X207269520Y-110409480D01*
X207269520Y-110409480D02*
X211169520Y-110409480D01*
X207269520Y-112409480D02*
X211169520Y-112409480D01*
X214227520Y-107869480D02*
X214227520Y-109869480D01*
X212177520Y-109869480D02*
X212177520Y-107869480D01*
D11*
X212127520Y-102662480D02*
X212127520Y-104662480D01*
X214277520Y-104662480D02*
X214277520Y-102662480D01*
D14*
X223226520Y-81421480D02*
X223226520Y-79421480D01*
X225276520Y-79421480D02*
X225276520Y-81421480D01*
D11*
X223049520Y-69388480D02*
X223049520Y-71388480D01*
X225199520Y-71388480D02*
X225199520Y-69388480D01*
X222786520Y-71388480D02*
X222786520Y-69388480D01*
X220636520Y-69388480D02*
X220636520Y-71388480D01*
X210222520Y-78024480D02*
X210222520Y-80024480D01*
X212372520Y-80024480D02*
X212372520Y-78024480D01*
X207682520Y-78024480D02*
X207682520Y-80024480D01*
X209832520Y-80024480D02*
X209832520Y-78024480D01*
D14*
X210272520Y-74944480D02*
X210272520Y-72944480D01*
X212322520Y-72944480D02*
X212322520Y-74944480D01*
X207732520Y-74944480D02*
X207732520Y-72944480D01*
X209782520Y-72944480D02*
X209782520Y-74944480D01*
X213832520Y-72274480D02*
X213832520Y-71014480D01*
X213832520Y-65454480D02*
X213832520Y-66714480D01*
X217592520Y-72274480D02*
X213832520Y-72274480D01*
X219842520Y-65454480D02*
X213832520Y-65454480D01*
X204403520Y-65451480D02*
X204403520Y-67451480D01*
X204403520Y-67451480D02*
X200503520Y-67451480D01*
X204403520Y-65451480D02*
X200503520Y-65451480D01*
X180817520Y-75094480D02*
X191097520Y-75094480D01*
X191097520Y-75094480D02*
X191097520Y-80414480D01*
X191097520Y-80414480D02*
X178157520Y-80414480D01*
X178157520Y-80414480D02*
X178157520Y-77754480D01*
X178157520Y-77754480D02*
X180817520Y-77754480D01*
X180817520Y-77754480D02*
X180817520Y-75094480D01*
X179547520Y-75094480D02*
X178157520Y-75094480D01*
X178157520Y-75094480D02*
X178157520Y-76484480D01*
X196692520Y-120299480D02*
X175102520Y-120299480D01*
X175102520Y-120299480D02*
X175102520Y-84739480D01*
X175102520Y-84739480D02*
X196692520Y-84739480D01*
X196692520Y-84739480D02*
X196692520Y-120299480D01*
X183602520Y-100344480D02*
X183602520Y-98344480D01*
X185652520Y-98344480D02*
X185652520Y-100344480D01*
D11*
X187532520Y-102079480D02*
X185532520Y-102079480D01*
X185532520Y-104229480D02*
X187532520Y-104229480D01*
X187532520Y-105889480D02*
X185532520Y-105889480D01*
X185532520Y-108039480D02*
X187532520Y-108039480D01*
D14*
X180427520Y-107329480D02*
X180427520Y-105329480D01*
X182477520Y-105329480D02*
X182477520Y-107329480D01*
X166076520Y-118251480D02*
X166076520Y-116251480D01*
X168126520Y-116251480D02*
X168126520Y-118251480D01*
D11*
X156247520Y-104059480D02*
X156247520Y-106059480D01*
X158397520Y-106059480D02*
X158397520Y-104059480D01*
D14*
X155147520Y-112434480D02*
X153147520Y-112434480D01*
X153147520Y-110384480D02*
X155147520Y-110384480D01*
X148829520Y-100097480D02*
X150829520Y-100097480D01*
X150829520Y-102147480D02*
X148829520Y-102147480D01*
D11*
X164672520Y-96364480D02*
X162672520Y-96364480D01*
X162672520Y-98514480D02*
X164672520Y-98514480D01*
X156247520Y-92629480D02*
X156247520Y-94629480D01*
X158397520Y-94629480D02*
X158397520Y-92629480D01*
D14*
X153902520Y-91994480D02*
X153902520Y-93994480D01*
X151852520Y-93994480D02*
X151852520Y-91994480D01*
X148187520Y-91994480D02*
X148187520Y-93994480D01*
X146137520Y-93994480D02*
X146137520Y-91994480D01*
X146137520Y-87644480D02*
X146137520Y-85644480D01*
X148187520Y-85644480D02*
X148187520Y-87644480D01*
X151852520Y-87644480D02*
X151852520Y-85644480D01*
X153902520Y-85644480D02*
X153902520Y-87644480D01*
D11*
X164672520Y-84934480D02*
X162672520Y-84934480D01*
X162672520Y-87084480D02*
X164672520Y-87084480D01*
X156247520Y-81199480D02*
X156247520Y-83199480D01*
X158397520Y-83199480D02*
X158397520Y-81199480D01*
X159592520Y-73504480D02*
X157592520Y-73504480D01*
X157592520Y-75654480D02*
X159592520Y-75654480D01*
X164672520Y-73504480D02*
X162672520Y-73504480D01*
X162672520Y-75654480D02*
X164672520Y-75654480D01*
D14*
X142987520Y-79650480D02*
X144987520Y-79650480D01*
X144987520Y-81700480D02*
X142987520Y-81700480D01*
X144377520Y-83104480D02*
X144377520Y-85104480D01*
X142327520Y-85104480D02*
X142327520Y-83104480D01*
X147661520Y-81294480D02*
X147661520Y-79294480D01*
X149711520Y-79294480D02*
X149711520Y-81294480D01*
X149711520Y-73579480D02*
X149711520Y-75579480D01*
X147661520Y-75579480D02*
X147661520Y-73579480D01*
D11*
X156247520Y-69769480D02*
X156247520Y-71769480D01*
X158397520Y-71769480D02*
X158397520Y-69769480D01*
D14*
X142987520Y-69744480D02*
X144987520Y-69744480D01*
X144987520Y-71794480D02*
X142987520Y-71794480D01*
X159592520Y-84939480D02*
X157592520Y-84939480D01*
X157592520Y-87079480D02*
X159592520Y-87079480D01*
X159592520Y-96369480D02*
X157592520Y-96369480D01*
X157592520Y-98509480D02*
X159592520Y-98509480D01*
D11*
X164672520Y-107794480D02*
X162672520Y-107794480D01*
X162672520Y-109944480D02*
X164672520Y-109944480D01*
D14*
X159592520Y-107799480D02*
X157592520Y-107799480D01*
X157592520Y-109939480D02*
X159592520Y-109939480D01*
X194907520Y-110139480D02*
X194907520Y-112799480D01*
X194907520Y-112799480D02*
X192127520Y-112799480D01*
X192127520Y-112799480D02*
X192127520Y-110139480D01*
X192127520Y-110139480D02*
X194907520Y-110139480D01*
X194907520Y-108869480D02*
X194907520Y-107479480D01*
X194907520Y-107479480D02*
X193517520Y-107479480D01*
X144372520Y-88184480D02*
X144372520Y-90184480D01*
X142332520Y-90184480D02*
X142332520Y-88184480D01*
D11*
X210321139Y-67118242D02*
X210273520Y-67023004D01*
X210178282Y-66927766D01*
X210035425Y-66784909D01*
X209987806Y-66689670D01*
X209987806Y-66594432D01*
X210225901Y-66642051D02*
X210178282Y-66546813D01*
X210083044Y-66451575D01*
X209892568Y-66403956D01*
X209559234Y-66403956D01*
X209368758Y-66451575D01*
X209273520Y-66546813D01*
X209225901Y-66642051D01*
X209225901Y-66832528D01*
X209273520Y-66927766D01*
X209368758Y-67023004D01*
X209559234Y-67070623D01*
X209892568Y-67070623D01*
X210083044Y-67023004D01*
X210178282Y-66927766D01*
X210225901Y-66832528D01*
X210225901Y-66642051D01*
X209559234Y-67927766D02*
X210225901Y-67927766D01*
X209178282Y-67689670D02*
X209892568Y-67451575D01*
X209892568Y-68070623D01*
X214385186Y-114179623D02*
X214432805Y-114227242D01*
X214575662Y-114274861D01*
X214670900Y-114274861D01*
X214813758Y-114227242D01*
X214908996Y-114132004D01*
X214956615Y-114036766D01*
X215004234Y-113846290D01*
X215004234Y-113703432D01*
X214956615Y-113512956D01*
X214908996Y-113417718D01*
X214813758Y-113322480D01*
X214670900Y-113274861D01*
X214575662Y-113274861D01*
X214432805Y-113322480D01*
X214385186Y-113370099D01*
X214004234Y-113370099D02*
X213956615Y-113322480D01*
X213861377Y-113274861D01*
X213623281Y-113274861D01*
X213528043Y-113322480D01*
X213480424Y-113370099D01*
X213432805Y-113465337D01*
X213432805Y-113560575D01*
X213480424Y-113703432D01*
X214051853Y-114274861D01*
X213432805Y-114274861D01*
X208447901Y-103813385D02*
X207447901Y-103813385D01*
X207447901Y-104051480D01*
X207495520Y-104194338D01*
X207590758Y-104289576D01*
X207685996Y-104337195D01*
X207876472Y-104384814D01*
X208019330Y-104384814D01*
X208209806Y-104337195D01*
X208305044Y-104289576D01*
X208400282Y-104194338D01*
X208447901Y-104051480D01*
X208447901Y-103813385D01*
X207447901Y-104718147D02*
X207447901Y-105337195D01*
X207828853Y-105003861D01*
X207828853Y-105146719D01*
X207876472Y-105241957D01*
X207924091Y-105289576D01*
X208019330Y-105337195D01*
X208257425Y-105337195D01*
X208352663Y-105289576D01*
X208400282Y-105241957D01*
X208447901Y-105146719D01*
X208447901Y-104861004D01*
X208400282Y-104765766D01*
X208352663Y-104718147D01*
X210987901Y-103940385D02*
X209987901Y-103940385D01*
X209987901Y-104178480D01*
X210035520Y-104321338D01*
X210130758Y-104416576D01*
X210225996Y-104464195D01*
X210416472Y-104511814D01*
X210559330Y-104511814D01*
X210749806Y-104464195D01*
X210845044Y-104416576D01*
X210940282Y-104321338D01*
X210987901Y-104178480D01*
X210987901Y-103940385D01*
X210083139Y-104892766D02*
X210035520Y-104940385D01*
X209987901Y-105035623D01*
X209987901Y-105273719D01*
X210035520Y-105368957D01*
X210083139Y-105416576D01*
X210178377Y-105464195D01*
X210273615Y-105464195D01*
X210416472Y-105416576D01*
X210987901Y-104845147D01*
X210987901Y-105464195D01*
X221584425Y-93970861D02*
X221584425Y-94780385D01*
X221536806Y-94875623D01*
X221489187Y-94923242D01*
X221393949Y-94970861D01*
X221203472Y-94970861D01*
X221108234Y-94923242D01*
X221060615Y-94875623D01*
X221012996Y-94780385D01*
X221012996Y-93970861D01*
X220632044Y-93970861D02*
X220012996Y-93970861D01*
X220346330Y-94351813D01*
X220203472Y-94351813D01*
X220108234Y-94399432D01*
X220060615Y-94447051D01*
X220012996Y-94542290D01*
X220012996Y-94780385D01*
X220060615Y-94875623D01*
X220108234Y-94923242D01*
X220203472Y-94970861D01*
X220489187Y-94970861D01*
X220584425Y-94923242D01*
X220632044Y-94875623D01*
X221584425Y-90287861D02*
X221584425Y-91097385D01*
X221536806Y-91192623D01*
X221489187Y-91240242D01*
X221393949Y-91287861D01*
X221203472Y-91287861D01*
X221108234Y-91240242D01*
X221060615Y-91192623D01*
X221012996Y-91097385D01*
X221012996Y-90287861D01*
X220584425Y-90383099D02*
X220536806Y-90335480D01*
X220441568Y-90287861D01*
X220203472Y-90287861D01*
X220108234Y-90335480D01*
X220060615Y-90383099D01*
X220012996Y-90478337D01*
X220012996Y-90573575D01*
X220060615Y-90716432D01*
X220632044Y-91287861D01*
X220012996Y-91287861D01*
X211305377Y-95351861D02*
X211638711Y-94875670D01*
X211876806Y-95351861D02*
X211876806Y-94351861D01*
X211495853Y-94351861D01*
X211400615Y-94399480D01*
X211352996Y-94447099D01*
X211305377Y-94542337D01*
X211305377Y-94685194D01*
X211352996Y-94780432D01*
X211400615Y-94828051D01*
X211495853Y-94875670D01*
X211876806Y-94875670D01*
X210352996Y-95351861D02*
X210924425Y-95351861D01*
X210638711Y-95351861D02*
X210638711Y-94351861D01*
X210733949Y-94494718D01*
X210829187Y-94589956D01*
X210924425Y-94637575D01*
X209781568Y-94780432D02*
X209876806Y-94732813D01*
X209924425Y-94685194D01*
X209972044Y-94589956D01*
X209972044Y-94542337D01*
X209924425Y-94447099D01*
X209876806Y-94399480D01*
X209781568Y-94351861D01*
X209591091Y-94351861D01*
X209495853Y-94399480D01*
X209448234Y-94447099D01*
X209400615Y-94542337D01*
X209400615Y-94589956D01*
X209448234Y-94685194D01*
X209495853Y-94732813D01*
X209591091Y-94780432D01*
X209781568Y-94780432D01*
X209876806Y-94828051D01*
X209924425Y-94875670D01*
X209972044Y-94970909D01*
X209972044Y-95161385D01*
X209924425Y-95256623D01*
X209876806Y-95304242D01*
X209781568Y-95351861D01*
X209591091Y-95351861D01*
X209495853Y-95304242D01*
X209448234Y-95256623D01*
X209400615Y-95161385D01*
X209400615Y-94970909D01*
X209448234Y-94875670D01*
X209495853Y-94828051D01*
X209591091Y-94780432D01*
X153837901Y-65808623D02*
X153361710Y-65475289D01*
X153837901Y-65237194D02*
X152837901Y-65237194D01*
X152837901Y-65618147D01*
X152885520Y-65713385D01*
X152933139Y-65761004D01*
X153028377Y-65808623D01*
X153171234Y-65808623D01*
X153266472Y-65761004D01*
X153314091Y-65713385D01*
X153361710Y-65618147D01*
X153361710Y-65237194D01*
X153837901Y-66761004D02*
X153837901Y-66189575D01*
X153837901Y-66475289D02*
X152837901Y-66475289D01*
X152980758Y-66380051D01*
X153075996Y-66284813D01*
X153123615Y-66189575D01*
X152837901Y-67380051D02*
X152837901Y-67475290D01*
X152885520Y-67570528D01*
X152933139Y-67618147D01*
X153028377Y-67665766D01*
X153218853Y-67713385D01*
X153456949Y-67713385D01*
X153647425Y-67665766D01*
X153742663Y-67618147D01*
X153790282Y-67570528D01*
X153837901Y-67475290D01*
X153837901Y-67380051D01*
X153790282Y-67284813D01*
X153742663Y-67237194D01*
X153647425Y-67189575D01*
X153456949Y-67141956D01*
X153218853Y-67141956D01*
X153028377Y-67189575D01*
X152933139Y-67237194D01*
X152885520Y-67284813D01*
X152837901Y-67380051D01*
X218353901Y-79746814D02*
X217877710Y-79413480D01*
X218353901Y-79175385D02*
X217353901Y-79175385D01*
X217353901Y-79556338D01*
X217401520Y-79651576D01*
X217449139Y-79699195D01*
X217544377Y-79746814D01*
X217687234Y-79746814D01*
X217782472Y-79699195D01*
X217830091Y-79651576D01*
X217877710Y-79556338D01*
X217877710Y-79175385D01*
X217449139Y-80127766D02*
X217401520Y-80175385D01*
X217353901Y-80270623D01*
X217353901Y-80508719D01*
X217401520Y-80603957D01*
X217449139Y-80651576D01*
X217544377Y-80699195D01*
X217639615Y-80699195D01*
X217782472Y-80651576D01*
X218353901Y-80080147D01*
X218353901Y-80699195D01*
X219901758Y-104337099D02*
X219996996Y-104289480D01*
X220092234Y-104194242D01*
X220235091Y-104051385D01*
X220330330Y-104003766D01*
X220425568Y-104003766D01*
X220377949Y-104241861D02*
X220473187Y-104194242D01*
X220568425Y-104099004D01*
X220616044Y-103908528D01*
X220616044Y-103575194D01*
X220568425Y-103384718D01*
X220473187Y-103289480D01*
X220377949Y-103241861D01*
X220187472Y-103241861D01*
X220092234Y-103289480D01*
X219996996Y-103384718D01*
X219949377Y-103575194D01*
X219949377Y-103908528D01*
X219996996Y-104099004D01*
X220092234Y-104194242D01*
X220187472Y-104241861D01*
X220377949Y-104241861D01*
X218996996Y-104241861D02*
X219568425Y-104241861D01*
X219282711Y-104241861D02*
X219282711Y-103241861D01*
X219377949Y-103384718D01*
X219473187Y-103479956D01*
X219568425Y-103527575D01*
X208225615Y-113512861D02*
X208225615Y-112512861D01*
X207987520Y-112512861D01*
X207844662Y-112560480D01*
X207749424Y-112655718D01*
X207701805Y-112750956D01*
X207654186Y-112941432D01*
X207654186Y-113084290D01*
X207701805Y-113274766D01*
X207749424Y-113370004D01*
X207844662Y-113465242D01*
X207987520Y-113512861D01*
X208225615Y-113512861D01*
X206701805Y-113512861D02*
X207273234Y-113512861D01*
X206987520Y-113512861D02*
X206987520Y-112512861D01*
X207082758Y-112655718D01*
X207177996Y-112750956D01*
X207273234Y-112798575D01*
X215337663Y-108099623D02*
X215385282Y-108052004D01*
X215432901Y-107909147D01*
X215432901Y-107813909D01*
X215385282Y-107671051D01*
X215290044Y-107575813D01*
X215194806Y-107528194D01*
X215004330Y-107480575D01*
X214861472Y-107480575D01*
X214670996Y-107528194D01*
X214575758Y-107575813D01*
X214480520Y-107671051D01*
X214432901Y-107813909D01*
X214432901Y-107909147D01*
X214480520Y-108052004D01*
X214528139Y-108099623D01*
X215432901Y-109052004D02*
X215432901Y-108480575D01*
X215432901Y-108766289D02*
X214432901Y-108766289D01*
X214575758Y-108671051D01*
X214670996Y-108575813D01*
X214718615Y-108480575D01*
X214432901Y-109671051D02*
X214432901Y-109766290D01*
X214480520Y-109861528D01*
X214528139Y-109909147D01*
X214623377Y-109956766D01*
X214813853Y-110004385D01*
X215051949Y-110004385D01*
X215242425Y-109956766D01*
X215337663Y-109909147D01*
X215385282Y-109861528D01*
X215432901Y-109766290D01*
X215432901Y-109671051D01*
X215385282Y-109575813D01*
X215337663Y-109528194D01*
X215242425Y-109480575D01*
X215051949Y-109432956D01*
X214813853Y-109432956D01*
X214623377Y-109480575D01*
X214528139Y-109528194D01*
X214480520Y-109575813D01*
X214432901Y-109671051D01*
X213369186Y-101447861D02*
X213702520Y-100971670D01*
X213940615Y-101447861D02*
X213940615Y-100447861D01*
X213559662Y-100447861D01*
X213464424Y-100495480D01*
X213416805Y-100543099D01*
X213369186Y-100638337D01*
X213369186Y-100781194D01*
X213416805Y-100876432D01*
X213464424Y-100924051D01*
X213559662Y-100971670D01*
X213940615Y-100971670D01*
X212464424Y-100447861D02*
X212940615Y-100447861D01*
X212988234Y-100924051D01*
X212940615Y-100876432D01*
X212845377Y-100828813D01*
X212607281Y-100828813D01*
X212512043Y-100876432D01*
X212464424Y-100924051D01*
X212416805Y-101019290D01*
X212416805Y-101257385D01*
X212464424Y-101352623D01*
X212512043Y-101400242D01*
X212607281Y-101447861D01*
X212845377Y-101447861D01*
X212940615Y-101400242D01*
X212988234Y-101352623D01*
X222703663Y-80159623D02*
X222751282Y-80112004D01*
X222798901Y-79969147D01*
X222798901Y-79873909D01*
X222751282Y-79731051D01*
X222656044Y-79635813D01*
X222560806Y-79588194D01*
X222370330Y-79540575D01*
X222227472Y-79540575D01*
X222036996Y-79588194D01*
X221941758Y-79635813D01*
X221846520Y-79731051D01*
X221798901Y-79873909D01*
X221798901Y-79969147D01*
X221846520Y-80112004D01*
X221894139Y-80159623D01*
X221798901Y-80492956D02*
X221798901Y-81112004D01*
X222179853Y-80778670D01*
X222179853Y-80921528D01*
X222227472Y-81016766D01*
X222275091Y-81064385D01*
X222370330Y-81112004D01*
X222608425Y-81112004D01*
X222703663Y-81064385D01*
X222751282Y-81016766D01*
X222798901Y-80921528D01*
X222798901Y-80635813D01*
X222751282Y-80540575D01*
X222703663Y-80492956D01*
X222798901Y-82064385D02*
X222798901Y-81492956D01*
X222798901Y-81778670D02*
X221798901Y-81778670D01*
X221941758Y-81683432D01*
X222036996Y-81588194D01*
X222084615Y-81492956D01*
X224576901Y-73174623D02*
X224100710Y-72841289D01*
X224576901Y-72603194D02*
X223576901Y-72603194D01*
X223576901Y-72984147D01*
X223624520Y-73079385D01*
X223672139Y-73127004D01*
X223767377Y-73174623D01*
X223910234Y-73174623D01*
X224005472Y-73127004D01*
X224053091Y-73079385D01*
X224100710Y-72984147D01*
X224100710Y-72603194D01*
X223910234Y-74031766D02*
X224576901Y-74031766D01*
X223529282Y-73793670D02*
X224243568Y-73555575D01*
X224243568Y-74174623D01*
X224576901Y-75079385D02*
X224576901Y-74507956D01*
X224576901Y-74793670D02*
X223576901Y-74793670D01*
X223719758Y-74698432D01*
X223814996Y-74603194D01*
X223862615Y-74507956D01*
X222163901Y-73174623D02*
X221687710Y-72841289D01*
X222163901Y-72603194D02*
X221163901Y-72603194D01*
X221163901Y-72984147D01*
X221211520Y-73079385D01*
X221259139Y-73127004D01*
X221354377Y-73174623D01*
X221497234Y-73174623D01*
X221592472Y-73127004D01*
X221640091Y-73079385D01*
X221687710Y-72984147D01*
X221687710Y-72603194D01*
X221497234Y-74031766D02*
X222163901Y-74031766D01*
X221116282Y-73793670D02*
X221830568Y-73555575D01*
X221830568Y-74174623D01*
X221163901Y-74460337D02*
X221163901Y-75079385D01*
X221544853Y-74746051D01*
X221544853Y-74888909D01*
X221592472Y-74984147D01*
X221640091Y-75031766D01*
X221735330Y-75079385D01*
X221973425Y-75079385D01*
X222068663Y-75031766D01*
X222116282Y-74984147D01*
X222163901Y-74888909D01*
X222163901Y-74603194D01*
X222116282Y-74507956D01*
X222068663Y-74460337D01*
X213908901Y-79524623D02*
X213432710Y-79191289D01*
X213908901Y-78953194D02*
X212908901Y-78953194D01*
X212908901Y-79334147D01*
X212956520Y-79429385D01*
X213004139Y-79477004D01*
X213099377Y-79524623D01*
X213242234Y-79524623D01*
X213337472Y-79477004D01*
X213385091Y-79429385D01*
X213432710Y-79334147D01*
X213432710Y-78953194D01*
X213908901Y-80477004D02*
X213908901Y-79905575D01*
X213908901Y-80191289D02*
X212908901Y-80191289D01*
X213051758Y-80096051D01*
X213146996Y-80000813D01*
X213194615Y-79905575D01*
X212908901Y-81334147D02*
X212908901Y-81143670D01*
X212956520Y-81048432D01*
X213004139Y-81000813D01*
X213146996Y-80905575D01*
X213337472Y-80857956D01*
X213718425Y-80857956D01*
X213813663Y-80905575D01*
X213861282Y-80953194D01*
X213908901Y-81048432D01*
X213908901Y-81238909D01*
X213861282Y-81334147D01*
X213813663Y-81381766D01*
X213718425Y-81429385D01*
X213480330Y-81429385D01*
X213385091Y-81381766D01*
X213337472Y-81334147D01*
X213289853Y-81238909D01*
X213289853Y-81048432D01*
X213337472Y-80953194D01*
X213385091Y-80905575D01*
X213480330Y-80857956D01*
X207304901Y-79524623D02*
X206828710Y-79191289D01*
X207304901Y-78953194D02*
X206304901Y-78953194D01*
X206304901Y-79334147D01*
X206352520Y-79429385D01*
X206400139Y-79477004D01*
X206495377Y-79524623D01*
X206638234Y-79524623D01*
X206733472Y-79477004D01*
X206781091Y-79429385D01*
X206828710Y-79334147D01*
X206828710Y-78953194D01*
X207304901Y-80477004D02*
X207304901Y-79905575D01*
X207304901Y-80191289D02*
X206304901Y-80191289D01*
X206447758Y-80096051D01*
X206542996Y-80000813D01*
X206590615Y-79905575D01*
X206304901Y-80810337D02*
X206304901Y-81477004D01*
X207304901Y-81048432D01*
X213559663Y-72158623D02*
X213607282Y-72111004D01*
X213654901Y-71968147D01*
X213654901Y-71872909D01*
X213607282Y-71730051D01*
X213512044Y-71634813D01*
X213416806Y-71587194D01*
X213226330Y-71539575D01*
X213083472Y-71539575D01*
X212892996Y-71587194D01*
X212797758Y-71634813D01*
X212702520Y-71730051D01*
X212654901Y-71872909D01*
X212654901Y-71968147D01*
X212702520Y-72111004D01*
X212750139Y-72158623D01*
X212654901Y-72491956D02*
X212654901Y-73111004D01*
X213035853Y-72777670D01*
X213035853Y-72920528D01*
X213083472Y-73015766D01*
X213131091Y-73063385D01*
X213226330Y-73111004D01*
X213464425Y-73111004D01*
X213559663Y-73063385D01*
X213607282Y-73015766D01*
X213654901Y-72920528D01*
X213654901Y-72634813D01*
X213607282Y-72539575D01*
X213559663Y-72491956D01*
X213083472Y-73682432D02*
X213035853Y-73587194D01*
X212988234Y-73539575D01*
X212892996Y-73491956D01*
X212845377Y-73491956D01*
X212750139Y-73539575D01*
X212702520Y-73587194D01*
X212654901Y-73682432D01*
X212654901Y-73872909D01*
X212702520Y-73968147D01*
X212750139Y-74015766D01*
X212845377Y-74063385D01*
X212892996Y-74063385D01*
X212988234Y-74015766D01*
X213035853Y-73968147D01*
X213083472Y-73872909D01*
X213083472Y-73682432D01*
X213131091Y-73587194D01*
X213178710Y-73539575D01*
X213273949Y-73491956D01*
X213464425Y-73491956D01*
X213559663Y-73539575D01*
X213607282Y-73587194D01*
X213654901Y-73682432D01*
X213654901Y-73872909D01*
X213607282Y-73968147D01*
X213559663Y-74015766D01*
X213464425Y-74063385D01*
X213273949Y-74063385D01*
X213178710Y-74015766D01*
X213131091Y-73968147D01*
X213083472Y-73872909D01*
X208924186Y-71253623D02*
X208971805Y-71301242D01*
X209114662Y-71348861D01*
X209209900Y-71348861D01*
X209352758Y-71301242D01*
X209447996Y-71206004D01*
X209495615Y-71110766D01*
X209543234Y-70920290D01*
X209543234Y-70777432D01*
X209495615Y-70586956D01*
X209447996Y-70491718D01*
X209352758Y-70396480D01*
X209209900Y-70348861D01*
X209114662Y-70348861D01*
X208971805Y-70396480D01*
X208924186Y-70444099D01*
X208019424Y-70348861D02*
X208495615Y-70348861D01*
X208543234Y-70825051D01*
X208495615Y-70777432D01*
X208400377Y-70729813D01*
X208162281Y-70729813D01*
X208067043Y-70777432D01*
X208019424Y-70825051D01*
X207971805Y-70920290D01*
X207971805Y-71158385D01*
X208019424Y-71253623D01*
X208067043Y-71301242D01*
X208162281Y-71348861D01*
X208400377Y-71348861D01*
X208495615Y-71301242D01*
X208543234Y-71253623D01*
X218028425Y-64252861D02*
X218028425Y-65062385D01*
X217980806Y-65157623D01*
X217933187Y-65205242D01*
X217837949Y-65252861D01*
X217647472Y-65252861D01*
X217552234Y-65205242D01*
X217504615Y-65157623D01*
X217456996Y-65062385D01*
X217456996Y-64252861D01*
X216504615Y-64252861D02*
X216980806Y-64252861D01*
X217028425Y-64729051D01*
X216980806Y-64681432D01*
X216885568Y-64633813D01*
X216647472Y-64633813D01*
X216552234Y-64681432D01*
X216504615Y-64729051D01*
X216456996Y-64824290D01*
X216456996Y-65062385D01*
X216504615Y-65157623D01*
X216552234Y-65205242D01*
X216647472Y-65252861D01*
X216885568Y-65252861D01*
X216980806Y-65205242D01*
X217028425Y-65157623D01*
X199462615Y-66903861D02*
X199462615Y-65903861D01*
X199224520Y-65903861D01*
X199081662Y-65951480D01*
X198986424Y-66046718D01*
X198938805Y-66141956D01*
X198891186Y-66332432D01*
X198891186Y-66475290D01*
X198938805Y-66665766D01*
X198986424Y-66761004D01*
X199081662Y-66856242D01*
X199224520Y-66903861D01*
X199462615Y-66903861D01*
X198034043Y-65903861D02*
X198224520Y-65903861D01*
X198319758Y-65951480D01*
X198367377Y-65999099D01*
X198462615Y-66141956D01*
X198510234Y-66332432D01*
X198510234Y-66713385D01*
X198462615Y-66808623D01*
X198414996Y-66856242D01*
X198319758Y-66903861D01*
X198129281Y-66903861D01*
X198034043Y-66856242D01*
X197986424Y-66808623D01*
X197938805Y-66713385D01*
X197938805Y-66475290D01*
X197986424Y-66380051D01*
X198034043Y-66332432D01*
X198129281Y-66284813D01*
X198319758Y-66284813D01*
X198414996Y-66332432D01*
X198462615Y-66380051D01*
X198510234Y-66475290D01*
X177713901Y-76889385D02*
X176713901Y-76889385D01*
X176713901Y-77270338D01*
X176761520Y-77365576D01*
X176809139Y-77413195D01*
X176904377Y-77460814D01*
X177047234Y-77460814D01*
X177142472Y-77413195D01*
X177190091Y-77365576D01*
X177237710Y-77270338D01*
X177237710Y-76889385D01*
X176713901Y-77794147D02*
X176713901Y-78460814D01*
X177713901Y-78032242D01*
X198033901Y-117688194D02*
X197033901Y-117688194D01*
X197033901Y-118069147D01*
X197081520Y-118164385D01*
X197129139Y-118212004D01*
X197224377Y-118259623D01*
X197367234Y-118259623D01*
X197462472Y-118212004D01*
X197510091Y-118164385D01*
X197557710Y-118069147D01*
X197557710Y-117688194D01*
X197129139Y-118640575D02*
X197081520Y-118688194D01*
X197033901Y-118783432D01*
X197033901Y-119021528D01*
X197081520Y-119116766D01*
X197129139Y-119164385D01*
X197224377Y-119212004D01*
X197319615Y-119212004D01*
X197462472Y-119164385D01*
X198033901Y-118592956D01*
X198033901Y-119212004D01*
X197129139Y-119592956D02*
X197081520Y-119640575D01*
X197033901Y-119735813D01*
X197033901Y-119973909D01*
X197081520Y-120069147D01*
X197129139Y-120116766D01*
X197224377Y-120164385D01*
X197319615Y-120164385D01*
X197462472Y-120116766D01*
X198033901Y-119545337D01*
X198033901Y-120164385D01*
X183079663Y-98574623D02*
X183127282Y-98527004D01*
X183174901Y-98384147D01*
X183174901Y-98288909D01*
X183127282Y-98146051D01*
X183032044Y-98050813D01*
X182936806Y-98003194D01*
X182746330Y-97955575D01*
X182603472Y-97955575D01*
X182412996Y-98003194D01*
X182317758Y-98050813D01*
X182222520Y-98146051D01*
X182174901Y-98288909D01*
X182174901Y-98384147D01*
X182222520Y-98527004D01*
X182270139Y-98574623D01*
X182270139Y-98955575D02*
X182222520Y-99003194D01*
X182174901Y-99098432D01*
X182174901Y-99336528D01*
X182222520Y-99431766D01*
X182270139Y-99479385D01*
X182365377Y-99527004D01*
X182460615Y-99527004D01*
X182603472Y-99479385D01*
X183174901Y-98907956D01*
X183174901Y-99527004D01*
X182270139Y-99907956D02*
X182222520Y-99955575D01*
X182174901Y-100050813D01*
X182174901Y-100288909D01*
X182222520Y-100384147D01*
X182270139Y-100431766D01*
X182365377Y-100479385D01*
X182460615Y-100479385D01*
X182603472Y-100431766D01*
X183174901Y-99860337D01*
X183174901Y-100479385D01*
X188064377Y-101828861D02*
X188397711Y-101352670D01*
X188635806Y-101828861D02*
X188635806Y-100828861D01*
X188254853Y-100828861D01*
X188159615Y-100876480D01*
X188111996Y-100924099D01*
X188064377Y-101019337D01*
X188064377Y-101162194D01*
X188111996Y-101257432D01*
X188159615Y-101305051D01*
X188254853Y-101352670D01*
X188635806Y-101352670D01*
X187683425Y-100924099D02*
X187635806Y-100876480D01*
X187540568Y-100828861D01*
X187302472Y-100828861D01*
X187207234Y-100876480D01*
X187159615Y-100924099D01*
X187111996Y-101019337D01*
X187111996Y-101114575D01*
X187159615Y-101257432D01*
X187731044Y-101828861D01*
X187111996Y-101828861D01*
X186492949Y-100828861D02*
X186397710Y-100828861D01*
X186302472Y-100876480D01*
X186254853Y-100924099D01*
X186207234Y-101019337D01*
X186159615Y-101209813D01*
X186159615Y-101447909D01*
X186207234Y-101638385D01*
X186254853Y-101733623D01*
X186302472Y-101781242D01*
X186397710Y-101828861D01*
X186492949Y-101828861D01*
X186588187Y-101781242D01*
X186635806Y-101733623D01*
X186683425Y-101638385D01*
X186731044Y-101447909D01*
X186731044Y-101209813D01*
X186683425Y-101019337D01*
X186635806Y-100924099D01*
X186588187Y-100876480D01*
X186492949Y-100828861D01*
X187302377Y-105511861D02*
X187635711Y-105035670D01*
X187873806Y-105511861D02*
X187873806Y-104511861D01*
X187492853Y-104511861D01*
X187397615Y-104559480D01*
X187349996Y-104607099D01*
X187302377Y-104702337D01*
X187302377Y-104845194D01*
X187349996Y-104940432D01*
X187397615Y-104988051D01*
X187492853Y-105035670D01*
X187873806Y-105035670D01*
X186349996Y-105511861D02*
X186921425Y-105511861D01*
X186635711Y-105511861D02*
X186635711Y-104511861D01*
X186730949Y-104654718D01*
X186826187Y-104749956D01*
X186921425Y-104797575D01*
X185445234Y-104511861D02*
X185921425Y-104511861D01*
X185969044Y-104988051D01*
X185921425Y-104940432D01*
X185826187Y-104892813D01*
X185588091Y-104892813D01*
X185492853Y-104940432D01*
X185445234Y-104988051D01*
X185397615Y-105083290D01*
X185397615Y-105321385D01*
X185445234Y-105416623D01*
X185492853Y-105464242D01*
X185588091Y-105511861D01*
X185826187Y-105511861D01*
X185921425Y-105464242D01*
X185969044Y-105416623D01*
X180031663Y-105559623D02*
X180079282Y-105512004D01*
X180126901Y-105369147D01*
X180126901Y-105273909D01*
X180079282Y-105131051D01*
X179984044Y-105035813D01*
X179888806Y-104988194D01*
X179698330Y-104940575D01*
X179555472Y-104940575D01*
X179364996Y-104988194D01*
X179269758Y-105035813D01*
X179174520Y-105131051D01*
X179126901Y-105273909D01*
X179126901Y-105369147D01*
X179174520Y-105512004D01*
X179222139Y-105559623D01*
X179222139Y-105940575D02*
X179174520Y-105988194D01*
X179126901Y-106083432D01*
X179126901Y-106321528D01*
X179174520Y-106416766D01*
X179222139Y-106464385D01*
X179317377Y-106512004D01*
X179412615Y-106512004D01*
X179555472Y-106464385D01*
X180126901Y-105892956D01*
X180126901Y-106512004D01*
X179126901Y-106845337D02*
X179126901Y-107464385D01*
X179507853Y-107131051D01*
X179507853Y-107273909D01*
X179555472Y-107369147D01*
X179603091Y-107416766D01*
X179698330Y-107464385D01*
X179936425Y-107464385D01*
X180031663Y-107416766D01*
X180079282Y-107369147D01*
X180126901Y-107273909D01*
X180126901Y-106988194D01*
X180079282Y-106892956D01*
X180031663Y-106845337D01*
X167585663Y-112925623D02*
X167633282Y-112878004D01*
X167680901Y-112735147D01*
X167680901Y-112639909D01*
X167633282Y-112497051D01*
X167538044Y-112401813D01*
X167442806Y-112354194D01*
X167252330Y-112306575D01*
X167109472Y-112306575D01*
X166918996Y-112354194D01*
X166823758Y-112401813D01*
X166728520Y-112497051D01*
X166680901Y-112639909D01*
X166680901Y-112735147D01*
X166728520Y-112878004D01*
X166776139Y-112925623D01*
X167680901Y-113878004D02*
X167680901Y-113306575D01*
X167680901Y-113592289D02*
X166680901Y-113592289D01*
X166823758Y-113497051D01*
X166918996Y-113401813D01*
X166966615Y-113306575D01*
X167680901Y-114354194D02*
X167680901Y-114544670D01*
X167633282Y-114639909D01*
X167585663Y-114687528D01*
X167442806Y-114782766D01*
X167252330Y-114830385D01*
X166871377Y-114830385D01*
X166776139Y-114782766D01*
X166728520Y-114735147D01*
X166680901Y-114639909D01*
X166680901Y-114449432D01*
X166728520Y-114354194D01*
X166776139Y-114306575D01*
X166871377Y-114258956D01*
X167109472Y-114258956D01*
X167204710Y-114306575D01*
X167252330Y-114354194D01*
X167299949Y-114449432D01*
X167299949Y-114639909D01*
X167252330Y-114735147D01*
X167204710Y-114782766D01*
X167109472Y-114830385D01*
X159679901Y-103146623D02*
X159203710Y-102813289D01*
X159679901Y-102575194D02*
X158679901Y-102575194D01*
X158679901Y-102956147D01*
X158727520Y-103051385D01*
X158775139Y-103099004D01*
X158870377Y-103146623D01*
X159013234Y-103146623D01*
X159108472Y-103099004D01*
X159156091Y-103051385D01*
X159203710Y-102956147D01*
X159203710Y-102575194D01*
X158679901Y-103479956D02*
X158679901Y-104099004D01*
X159060853Y-103765670D01*
X159060853Y-103908528D01*
X159108472Y-104003766D01*
X159156091Y-104051385D01*
X159251330Y-104099004D01*
X159489425Y-104099004D01*
X159584663Y-104051385D01*
X159632282Y-104003766D01*
X159679901Y-103908528D01*
X159679901Y-103622813D01*
X159632282Y-103527575D01*
X159584663Y-103479956D01*
X158679901Y-105003766D02*
X158679901Y-104527575D01*
X159156091Y-104479956D01*
X159108472Y-104527575D01*
X159060853Y-104622813D01*
X159060853Y-104860909D01*
X159108472Y-104956147D01*
X159156091Y-105003766D01*
X159251330Y-105051385D01*
X159489425Y-105051385D01*
X159584663Y-105003766D01*
X159632282Y-104956147D01*
X159679901Y-104860909D01*
X159679901Y-104622813D01*
X159632282Y-104527575D01*
X159584663Y-104479956D01*
X151107377Y-111766623D02*
X151154996Y-111814242D01*
X151297853Y-111861861D01*
X151393091Y-111861861D01*
X151535949Y-111814242D01*
X151631187Y-111719004D01*
X151678806Y-111623766D01*
X151726425Y-111433290D01*
X151726425Y-111290432D01*
X151678806Y-111099956D01*
X151631187Y-111004718D01*
X151535949Y-110909480D01*
X151393091Y-110861861D01*
X151297853Y-110861861D01*
X151154996Y-110909480D01*
X151107377Y-110957099D01*
X150154996Y-111861861D02*
X150726425Y-111861861D01*
X150440711Y-111861861D02*
X150440711Y-110861861D01*
X150535949Y-111004718D01*
X150631187Y-111099956D01*
X150726425Y-111147575D01*
X149774044Y-110957099D02*
X149726425Y-110909480D01*
X149631187Y-110861861D01*
X149393091Y-110861861D01*
X149297853Y-110909480D01*
X149250234Y-110957099D01*
X149202615Y-111052337D01*
X149202615Y-111147575D01*
X149250234Y-111290432D01*
X149821663Y-111861861D01*
X149202615Y-111861861D01*
X150599377Y-99701623D02*
X150646996Y-99749242D01*
X150789853Y-99796861D01*
X150885091Y-99796861D01*
X151027949Y-99749242D01*
X151123187Y-99654004D01*
X151170806Y-99558766D01*
X151218425Y-99368290D01*
X151218425Y-99225432D01*
X151170806Y-99034956D01*
X151123187Y-98939718D01*
X151027949Y-98844480D01*
X150885091Y-98796861D01*
X150789853Y-98796861D01*
X150646996Y-98844480D01*
X150599377Y-98892099D01*
X149646996Y-99796861D02*
X150218425Y-99796861D01*
X149932711Y-99796861D02*
X149932711Y-98796861D01*
X150027949Y-98939718D01*
X150123187Y-99034956D01*
X150218425Y-99082575D01*
X149313663Y-98796861D02*
X148694615Y-98796861D01*
X149027949Y-99177813D01*
X148885091Y-99177813D01*
X148789853Y-99225432D01*
X148742234Y-99273051D01*
X148694615Y-99368290D01*
X148694615Y-99606385D01*
X148742234Y-99701623D01*
X148789853Y-99749242D01*
X148885091Y-99796861D01*
X149170806Y-99796861D01*
X149266044Y-99749242D01*
X149313663Y-99701623D01*
X167172901Y-96796623D02*
X166696710Y-96463289D01*
X167172901Y-96225194D02*
X166172901Y-96225194D01*
X166172901Y-96606147D01*
X166220520Y-96701385D01*
X166268139Y-96749004D01*
X166363377Y-96796623D01*
X166506234Y-96796623D01*
X166601472Y-96749004D01*
X166649091Y-96701385D01*
X166696710Y-96606147D01*
X166696710Y-96225194D01*
X166172901Y-97129956D02*
X166172901Y-97749004D01*
X166553853Y-97415670D01*
X166553853Y-97558528D01*
X166601472Y-97653766D01*
X166649091Y-97701385D01*
X166744330Y-97749004D01*
X166982425Y-97749004D01*
X167077663Y-97701385D01*
X167125282Y-97653766D01*
X167172901Y-97558528D01*
X167172901Y-97272813D01*
X167125282Y-97177575D01*
X167077663Y-97129956D01*
X166506234Y-98606147D02*
X167172901Y-98606147D01*
X166125282Y-98368051D02*
X166839568Y-98129956D01*
X166839568Y-98749004D01*
X155869901Y-92986623D02*
X155393710Y-92653289D01*
X155869901Y-92415194D02*
X154869901Y-92415194D01*
X154869901Y-92796147D01*
X154917520Y-92891385D01*
X154965139Y-92939004D01*
X155060377Y-92986623D01*
X155203234Y-92986623D01*
X155298472Y-92939004D01*
X155346091Y-92891385D01*
X155393710Y-92796147D01*
X155393710Y-92415194D01*
X154869901Y-93319956D02*
X154869901Y-93939004D01*
X155250853Y-93605670D01*
X155250853Y-93748528D01*
X155298472Y-93843766D01*
X155346091Y-93891385D01*
X155441330Y-93939004D01*
X155679425Y-93939004D01*
X155774663Y-93891385D01*
X155822282Y-93843766D01*
X155869901Y-93748528D01*
X155869901Y-93462813D01*
X155822282Y-93367575D01*
X155774663Y-93319956D01*
X154965139Y-94319956D02*
X154917520Y-94367575D01*
X154869901Y-94462813D01*
X154869901Y-94700909D01*
X154917520Y-94796147D01*
X154965139Y-94843766D01*
X155060377Y-94891385D01*
X155155615Y-94891385D01*
X155298472Y-94843766D01*
X155869901Y-94272337D01*
X155869901Y-94891385D01*
X151456663Y-92478623D02*
X151504282Y-92431004D01*
X151551901Y-92288147D01*
X151551901Y-92192909D01*
X151504282Y-92050051D01*
X151409044Y-91954813D01*
X151313806Y-91907194D01*
X151123330Y-91859575D01*
X150980472Y-91859575D01*
X150789996Y-91907194D01*
X150694758Y-91954813D01*
X150599520Y-92050051D01*
X150551901Y-92192909D01*
X150551901Y-92288147D01*
X150599520Y-92431004D01*
X150647139Y-92478623D01*
X150885234Y-93335766D02*
X151551901Y-93335766D01*
X150504282Y-93097670D02*
X151218568Y-92859575D01*
X151218568Y-93478623D01*
X150551901Y-94335766D02*
X150551901Y-93859575D01*
X151028091Y-93811956D01*
X150980472Y-93859575D01*
X150932853Y-93954813D01*
X150932853Y-94192909D01*
X150980472Y-94288147D01*
X151028091Y-94335766D01*
X151123330Y-94383385D01*
X151361425Y-94383385D01*
X151456663Y-94335766D01*
X151504282Y-94288147D01*
X151551901Y-94192909D01*
X151551901Y-93954813D01*
X151504282Y-93859575D01*
X151456663Y-93811956D01*
X149424663Y-92478623D02*
X149472282Y-92431004D01*
X149519901Y-92288147D01*
X149519901Y-92192909D01*
X149472282Y-92050051D01*
X149377044Y-91954813D01*
X149281806Y-91907194D01*
X149091330Y-91859575D01*
X148948472Y-91859575D01*
X148757996Y-91907194D01*
X148662758Y-91954813D01*
X148567520Y-92050051D01*
X148519901Y-92192909D01*
X148519901Y-92288147D01*
X148567520Y-92431004D01*
X148615139Y-92478623D01*
X148853234Y-93335766D02*
X149519901Y-93335766D01*
X148472282Y-93097670D02*
X149186568Y-92859575D01*
X149186568Y-93478623D01*
X148853234Y-94288147D02*
X149519901Y-94288147D01*
X148472282Y-94050051D02*
X149186568Y-93811956D01*
X149186568Y-94431004D01*
X149551663Y-86128623D02*
X149599282Y-86081004D01*
X149646901Y-85938147D01*
X149646901Y-85842909D01*
X149599282Y-85700051D01*
X149504044Y-85604813D01*
X149408806Y-85557194D01*
X149218330Y-85509575D01*
X149075472Y-85509575D01*
X148884996Y-85557194D01*
X148789758Y-85604813D01*
X148694520Y-85700051D01*
X148646901Y-85842909D01*
X148646901Y-85938147D01*
X148694520Y-86081004D01*
X148742139Y-86128623D01*
X148980234Y-86985766D02*
X149646901Y-86985766D01*
X148599282Y-86747670D02*
X149313568Y-86509575D01*
X149313568Y-87128623D01*
X148646901Y-87414337D02*
X148646901Y-88033385D01*
X149027853Y-87700051D01*
X149027853Y-87842909D01*
X149075472Y-87938147D01*
X149123091Y-87985766D01*
X149218330Y-88033385D01*
X149456425Y-88033385D01*
X149551663Y-87985766D01*
X149599282Y-87938147D01*
X149646901Y-87842909D01*
X149646901Y-87557194D01*
X149599282Y-87461956D01*
X149551663Y-87414337D01*
X151342363Y-86014323D02*
X151389982Y-85966704D01*
X151437601Y-85823847D01*
X151437601Y-85728609D01*
X151389982Y-85585751D01*
X151294744Y-85490513D01*
X151199506Y-85442894D01*
X151009030Y-85395275D01*
X150866172Y-85395275D01*
X150675696Y-85442894D01*
X150580458Y-85490513D01*
X150485220Y-85585751D01*
X150437601Y-85728609D01*
X150437601Y-85823847D01*
X150485220Y-85966704D01*
X150532839Y-86014323D01*
X150770934Y-86871466D02*
X151437601Y-86871466D01*
X150389982Y-86633370D02*
X151104268Y-86395275D01*
X151104268Y-87014323D01*
X150437601Y-87823847D02*
X150437601Y-87633370D01*
X150485220Y-87538132D01*
X150532839Y-87490513D01*
X150675696Y-87395275D01*
X150866172Y-87347656D01*
X151247125Y-87347656D01*
X151342363Y-87395275D01*
X151389982Y-87442894D01*
X151437601Y-87538132D01*
X151437601Y-87728609D01*
X151389982Y-87823847D01*
X151342363Y-87871466D01*
X151247125Y-87919085D01*
X151009030Y-87919085D01*
X150913791Y-87871466D01*
X150866172Y-87823847D01*
X150818553Y-87728609D01*
X150818553Y-87538132D01*
X150866172Y-87442894D01*
X150913791Y-87395275D01*
X151009030Y-87347656D01*
X167045901Y-85366623D02*
X166569710Y-85033289D01*
X167045901Y-84795194D02*
X166045901Y-84795194D01*
X166045901Y-85176147D01*
X166093520Y-85271385D01*
X166141139Y-85319004D01*
X166236377Y-85366623D01*
X166379234Y-85366623D01*
X166474472Y-85319004D01*
X166522091Y-85271385D01*
X166569710Y-85176147D01*
X166569710Y-84795194D01*
X166045901Y-85699956D02*
X166045901Y-86319004D01*
X166426853Y-85985670D01*
X166426853Y-86128528D01*
X166474472Y-86223766D01*
X166522091Y-86271385D01*
X166617330Y-86319004D01*
X166855425Y-86319004D01*
X166950663Y-86271385D01*
X166998282Y-86223766D01*
X167045901Y-86128528D01*
X167045901Y-85842813D01*
X166998282Y-85747575D01*
X166950663Y-85699956D01*
X167045901Y-87271385D02*
X167045901Y-86699956D01*
X167045901Y-86985670D02*
X166045901Y-86985670D01*
X166188758Y-86890432D01*
X166283996Y-86795194D01*
X166331615Y-86699956D01*
X155869901Y-81683623D02*
X155393710Y-81350289D01*
X155869901Y-81112194D02*
X154869901Y-81112194D01*
X154869901Y-81493147D01*
X154917520Y-81588385D01*
X154965139Y-81636004D01*
X155060377Y-81683623D01*
X155203234Y-81683623D01*
X155298472Y-81636004D01*
X155346091Y-81588385D01*
X155393710Y-81493147D01*
X155393710Y-81112194D01*
X154965139Y-82064575D02*
X154917520Y-82112194D01*
X154869901Y-82207432D01*
X154869901Y-82445528D01*
X154917520Y-82540766D01*
X154965139Y-82588385D01*
X155060377Y-82636004D01*
X155155615Y-82636004D01*
X155298472Y-82588385D01*
X155869901Y-82016956D01*
X155869901Y-82636004D01*
X155869901Y-83112194D02*
X155869901Y-83302670D01*
X155822282Y-83397909D01*
X155774663Y-83445528D01*
X155631806Y-83540766D01*
X155441330Y-83588385D01*
X155060377Y-83588385D01*
X154965139Y-83540766D01*
X154917520Y-83493147D01*
X154869901Y-83397909D01*
X154869901Y-83207432D01*
X154917520Y-83112194D01*
X154965139Y-83064575D01*
X155060377Y-83016956D01*
X155298472Y-83016956D01*
X155393710Y-83064575D01*
X155441330Y-83112194D01*
X155488949Y-83207432D01*
X155488949Y-83397909D01*
X155441330Y-83493147D01*
X155393710Y-83540766D01*
X155298472Y-83588385D01*
X158600377Y-76936861D02*
X158933711Y-76460670D01*
X159171806Y-76936861D02*
X159171806Y-75936861D01*
X158790853Y-75936861D01*
X158695615Y-75984480D01*
X158647996Y-76032099D01*
X158600377Y-76127337D01*
X158600377Y-76270194D01*
X158647996Y-76365432D01*
X158695615Y-76413051D01*
X158790853Y-76460670D01*
X159171806Y-76460670D01*
X157647996Y-76936861D02*
X158219425Y-76936861D01*
X157933711Y-76936861D02*
X157933711Y-75936861D01*
X158028949Y-76079718D01*
X158124187Y-76174956D01*
X158219425Y-76222575D01*
X156695615Y-76936861D02*
X157267044Y-76936861D01*
X156981330Y-76936861D02*
X156981330Y-75936861D01*
X157076568Y-76079718D01*
X157171806Y-76174956D01*
X157267044Y-76222575D01*
X167045901Y-73936623D02*
X166569710Y-73603289D01*
X167045901Y-73365194D02*
X166045901Y-73365194D01*
X166045901Y-73746147D01*
X166093520Y-73841385D01*
X166141139Y-73889004D01*
X166236377Y-73936623D01*
X166379234Y-73936623D01*
X166474472Y-73889004D01*
X166522091Y-73841385D01*
X166569710Y-73746147D01*
X166569710Y-73365194D01*
X166141139Y-74317575D02*
X166093520Y-74365194D01*
X166045901Y-74460432D01*
X166045901Y-74698528D01*
X166093520Y-74793766D01*
X166141139Y-74841385D01*
X166236377Y-74889004D01*
X166331615Y-74889004D01*
X166474472Y-74841385D01*
X167045901Y-74269956D01*
X167045901Y-74889004D01*
X166474472Y-75460432D02*
X166426853Y-75365194D01*
X166379234Y-75317575D01*
X166283996Y-75269956D01*
X166236377Y-75269956D01*
X166141139Y-75317575D01*
X166093520Y-75365194D01*
X166045901Y-75460432D01*
X166045901Y-75650909D01*
X166093520Y-75746147D01*
X166141139Y-75793766D01*
X166236377Y-75841385D01*
X166283996Y-75841385D01*
X166379234Y-75793766D01*
X166426853Y-75746147D01*
X166474472Y-75650909D01*
X166474472Y-75460432D01*
X166522091Y-75365194D01*
X166569710Y-75317575D01*
X166664949Y-75269956D01*
X166855425Y-75269956D01*
X166950663Y-75317575D01*
X166998282Y-75365194D01*
X167045901Y-75460432D01*
X167045901Y-75650909D01*
X166998282Y-75746147D01*
X166950663Y-75793766D01*
X166855425Y-75841385D01*
X166664949Y-75841385D01*
X166569710Y-75793766D01*
X166522091Y-75746147D01*
X166474472Y-75650909D01*
X141423663Y-80032623D02*
X141471282Y-79985004D01*
X141518901Y-79842147D01*
X141518901Y-79746909D01*
X141471282Y-79604051D01*
X141376044Y-79508813D01*
X141280806Y-79461194D01*
X141090330Y-79413575D01*
X140947472Y-79413575D01*
X140756996Y-79461194D01*
X140661758Y-79508813D01*
X140566520Y-79604051D01*
X140518901Y-79746909D01*
X140518901Y-79842147D01*
X140566520Y-79985004D01*
X140614139Y-80032623D01*
X141518901Y-80985004D02*
X141518901Y-80413575D01*
X141518901Y-80699289D02*
X140518901Y-80699289D01*
X140661758Y-80604051D01*
X140756996Y-80508813D01*
X140804615Y-80413575D01*
X141518901Y-81937385D02*
X141518901Y-81365956D01*
X141518901Y-81651670D02*
X140518901Y-81651670D01*
X140661758Y-81556432D01*
X140756996Y-81461194D01*
X140804615Y-81365956D01*
X145614663Y-83334623D02*
X145662282Y-83287004D01*
X145709901Y-83144147D01*
X145709901Y-83048909D01*
X145662282Y-82906051D01*
X145567044Y-82810813D01*
X145471806Y-82763194D01*
X145281330Y-82715575D01*
X145138472Y-82715575D01*
X144947996Y-82763194D01*
X144852758Y-82810813D01*
X144757520Y-82906051D01*
X144709901Y-83048909D01*
X144709901Y-83144147D01*
X144757520Y-83287004D01*
X144805139Y-83334623D01*
X145043234Y-84191766D02*
X145709901Y-84191766D01*
X144662282Y-83953670D02*
X145376568Y-83715575D01*
X145376568Y-84334623D01*
X144805139Y-84667956D02*
X144757520Y-84715575D01*
X144709901Y-84810813D01*
X144709901Y-85048909D01*
X144757520Y-85144147D01*
X144805139Y-85191766D01*
X144900377Y-85239385D01*
X144995615Y-85239385D01*
X145138472Y-85191766D01*
X145709901Y-84620337D01*
X145709901Y-85239385D01*
X151075663Y-80921623D02*
X151123282Y-80874004D01*
X151170901Y-80731147D01*
X151170901Y-80635909D01*
X151123282Y-80493051D01*
X151028044Y-80397813D01*
X150932806Y-80350194D01*
X150742330Y-80302575D01*
X150599472Y-80302575D01*
X150408996Y-80350194D01*
X150313758Y-80397813D01*
X150218520Y-80493051D01*
X150170901Y-80635909D01*
X150170901Y-80731147D01*
X150218520Y-80874004D01*
X150266139Y-80921623D01*
X151170901Y-81874004D02*
X151170901Y-81302575D01*
X151170901Y-81588289D02*
X150170901Y-81588289D01*
X150313758Y-81493051D01*
X150408996Y-81397813D01*
X150456615Y-81302575D01*
X150170901Y-82207337D02*
X150170901Y-82874004D01*
X151170901Y-82445432D01*
X147392663Y-73936623D02*
X147440282Y-73889004D01*
X147487901Y-73746147D01*
X147487901Y-73650909D01*
X147440282Y-73508051D01*
X147345044Y-73412813D01*
X147249806Y-73365194D01*
X147059330Y-73317575D01*
X146916472Y-73317575D01*
X146725996Y-73365194D01*
X146630758Y-73412813D01*
X146535520Y-73508051D01*
X146487901Y-73650909D01*
X146487901Y-73746147D01*
X146535520Y-73889004D01*
X146583139Y-73936623D01*
X147487901Y-74889004D02*
X147487901Y-74317575D01*
X147487901Y-74603289D02*
X146487901Y-74603289D01*
X146630758Y-74508051D01*
X146725996Y-74412813D01*
X146773615Y-74317575D01*
X146487901Y-75746147D02*
X146487901Y-75555670D01*
X146535520Y-75460432D01*
X146583139Y-75412813D01*
X146725996Y-75317575D01*
X146916472Y-75269956D01*
X147297425Y-75269956D01*
X147392663Y-75317575D01*
X147440282Y-75365194D01*
X147487901Y-75460432D01*
X147487901Y-75650909D01*
X147440282Y-75746147D01*
X147392663Y-75793766D01*
X147297425Y-75841385D01*
X147059330Y-75841385D01*
X146964091Y-75793766D01*
X146916472Y-75746147D01*
X146868853Y-75650909D01*
X146868853Y-75460432D01*
X146916472Y-75365194D01*
X146964091Y-75317575D01*
X147059330Y-75269956D01*
X155869901Y-70126623D02*
X155393710Y-69793289D01*
X155869901Y-69555194D02*
X154869901Y-69555194D01*
X154869901Y-69936147D01*
X154917520Y-70031385D01*
X154965139Y-70079004D01*
X155060377Y-70126623D01*
X155203234Y-70126623D01*
X155298472Y-70079004D01*
X155346091Y-70031385D01*
X155393710Y-69936147D01*
X155393710Y-69555194D01*
X154965139Y-70507575D02*
X154917520Y-70555194D01*
X154869901Y-70650432D01*
X154869901Y-70888528D01*
X154917520Y-70983766D01*
X154965139Y-71031385D01*
X155060377Y-71079004D01*
X155155615Y-71079004D01*
X155298472Y-71031385D01*
X155869901Y-70459956D01*
X155869901Y-71079004D01*
X154869901Y-71936147D02*
X154869901Y-71745670D01*
X154917520Y-71650432D01*
X154965139Y-71602813D01*
X155107996Y-71507575D01*
X155298472Y-71459956D01*
X155679425Y-71459956D01*
X155774663Y-71507575D01*
X155822282Y-71555194D01*
X155869901Y-71650432D01*
X155869901Y-71840909D01*
X155822282Y-71936147D01*
X155774663Y-71983766D01*
X155679425Y-72031385D01*
X155441330Y-72031385D01*
X155346091Y-71983766D01*
X155298472Y-71936147D01*
X155250853Y-71840909D01*
X155250853Y-71650432D01*
X155298472Y-71555194D01*
X155346091Y-71507575D01*
X155441330Y-71459956D01*
X147329186Y-71507623D02*
X147376805Y-71555242D01*
X147519662Y-71602861D01*
X147614900Y-71602861D01*
X147757758Y-71555242D01*
X147852996Y-71460004D01*
X147900615Y-71364766D01*
X147948234Y-71174290D01*
X147948234Y-71031432D01*
X147900615Y-70840956D01*
X147852996Y-70745718D01*
X147757758Y-70650480D01*
X147614900Y-70602861D01*
X147519662Y-70602861D01*
X147376805Y-70650480D01*
X147329186Y-70698099D01*
X146852996Y-71602861D02*
X146662520Y-71602861D01*
X146567281Y-71555242D01*
X146519662Y-71507623D01*
X146424424Y-71364766D01*
X146376805Y-71174290D01*
X146376805Y-70793337D01*
X146424424Y-70698099D01*
X146472043Y-70650480D01*
X146567281Y-70602861D01*
X146757758Y-70602861D01*
X146852996Y-70650480D01*
X146900615Y-70698099D01*
X146948234Y-70793337D01*
X146948234Y-71031432D01*
X146900615Y-71126670D01*
X146852996Y-71174290D01*
X146757758Y-71221909D01*
X146567281Y-71221909D01*
X146472043Y-71174290D01*
X146424424Y-71126670D01*
X146376805Y-71031432D01*
X158727377Y-88366861D02*
X159060711Y-87890670D01*
X159298806Y-88366861D02*
X159298806Y-87366861D01*
X158917853Y-87366861D01*
X158822615Y-87414480D01*
X158774996Y-87462099D01*
X158727377Y-87557337D01*
X158727377Y-87700194D01*
X158774996Y-87795432D01*
X158822615Y-87843051D01*
X158917853Y-87890670D01*
X159298806Y-87890670D01*
X157774996Y-88366861D02*
X158346425Y-88366861D01*
X158060711Y-88366861D02*
X158060711Y-87366861D01*
X158155949Y-87509718D01*
X158251187Y-87604956D01*
X158346425Y-87652575D01*
X157394044Y-87462099D02*
X157346425Y-87414480D01*
X157251187Y-87366861D01*
X157013091Y-87366861D01*
X156917853Y-87414480D01*
X156870234Y-87462099D01*
X156822615Y-87557337D01*
X156822615Y-87652575D01*
X156870234Y-87795432D01*
X157441663Y-88366861D01*
X156822615Y-88366861D01*
X158473377Y-99796861D02*
X158806711Y-99320670D01*
X159044806Y-99796861D02*
X159044806Y-98796861D01*
X158663853Y-98796861D01*
X158568615Y-98844480D01*
X158520996Y-98892099D01*
X158473377Y-98987337D01*
X158473377Y-99130194D01*
X158520996Y-99225432D01*
X158568615Y-99273051D01*
X158663853Y-99320670D01*
X159044806Y-99320670D01*
X157520996Y-99796861D02*
X158092425Y-99796861D01*
X157806711Y-99796861D02*
X157806711Y-98796861D01*
X157901949Y-98939718D01*
X157997187Y-99034956D01*
X158092425Y-99082575D01*
X157187663Y-98796861D02*
X156568615Y-98796861D01*
X156901949Y-99177813D01*
X156759091Y-99177813D01*
X156663853Y-99225432D01*
X156616234Y-99273051D01*
X156568615Y-99368290D01*
X156568615Y-99606385D01*
X156616234Y-99701623D01*
X156663853Y-99749242D01*
X156759091Y-99796861D01*
X157044806Y-99796861D01*
X157140044Y-99749242D01*
X157187663Y-99701623D01*
X167045901Y-108226623D02*
X166569710Y-107893289D01*
X167045901Y-107655194D02*
X166045901Y-107655194D01*
X166045901Y-108036147D01*
X166093520Y-108131385D01*
X166141139Y-108179004D01*
X166236377Y-108226623D01*
X166379234Y-108226623D01*
X166474472Y-108179004D01*
X166522091Y-108131385D01*
X166569710Y-108036147D01*
X166569710Y-107655194D01*
X166045901Y-108559956D02*
X166045901Y-109179004D01*
X166426853Y-108845670D01*
X166426853Y-108988528D01*
X166474472Y-109083766D01*
X166522091Y-109131385D01*
X166617330Y-109179004D01*
X166855425Y-109179004D01*
X166950663Y-109131385D01*
X166998282Y-109083766D01*
X167045901Y-108988528D01*
X167045901Y-108702813D01*
X166998282Y-108607575D01*
X166950663Y-108559956D01*
X166045901Y-109512337D02*
X166045901Y-110179004D01*
X167045901Y-109750432D01*
X156377901Y-108099623D02*
X155901710Y-107766289D01*
X156377901Y-107528194D02*
X155377901Y-107528194D01*
X155377901Y-107909147D01*
X155425520Y-108004385D01*
X155473139Y-108052004D01*
X155568377Y-108099623D01*
X155711234Y-108099623D01*
X155806472Y-108052004D01*
X155854091Y-108004385D01*
X155901710Y-107909147D01*
X155901710Y-107528194D01*
X156377901Y-109052004D02*
X156377901Y-108480575D01*
X156377901Y-108766289D02*
X155377901Y-108766289D01*
X155520758Y-108671051D01*
X155615996Y-108575813D01*
X155663615Y-108480575D01*
X155711234Y-109909147D02*
X156377901Y-109909147D01*
X155330282Y-109671051D02*
X156044568Y-109432956D01*
X156044568Y-110052004D01*
X193446091Y-105162766D02*
X193493710Y-105305623D01*
X193541330Y-105353242D01*
X193636568Y-105400861D01*
X193779425Y-105400861D01*
X193874663Y-105353242D01*
X193922282Y-105305623D01*
X193969901Y-105210385D01*
X193969901Y-104829432D01*
X192969901Y-104829432D01*
X192969901Y-105162766D01*
X193017520Y-105258004D01*
X193065139Y-105305623D01*
X193160377Y-105353242D01*
X193255615Y-105353242D01*
X193350853Y-105305623D01*
X193398472Y-105258004D01*
X193446091Y-105162766D01*
X193446091Y-104829432D01*
X192969901Y-105686575D02*
X192969901Y-106258004D01*
X193969901Y-105972289D02*
X192969901Y-105972289D01*
X193969901Y-107115147D02*
X193969901Y-106543718D01*
X193969901Y-106829432D02*
X192969901Y-106829432D01*
X193112758Y-106734194D01*
X193207996Y-106638956D01*
X193255615Y-106543718D01*
X167371282Y-69586861D02*
X167133187Y-70586861D01*
X166942710Y-69872575D01*
X166752234Y-70586861D01*
X166514139Y-69586861D01*
X165609377Y-70586861D02*
X166180806Y-70586861D01*
X165895092Y-70586861D02*
X165895092Y-69586861D01*
X165990330Y-69729718D01*
X166085568Y-69824956D01*
X166180806Y-69872575D01*
X166751901Y-67935861D02*
X166180472Y-67935861D01*
X166466187Y-68935861D02*
X166466187Y-67935861D01*
X165847139Y-68412051D02*
X165513805Y-68412051D01*
X165370948Y-68935861D02*
X165847139Y-68935861D01*
X165847139Y-67935861D01*
X165370948Y-67935861D01*
X164989996Y-68888242D02*
X164847139Y-68935861D01*
X164609043Y-68935861D01*
X164513805Y-68888242D01*
X164466186Y-68840623D01*
X164418567Y-68745385D01*
X164418567Y-68650147D01*
X164466186Y-68554909D01*
X164513805Y-68507290D01*
X164609043Y-68459670D01*
X164799520Y-68412051D01*
X164894758Y-68364432D01*
X164942377Y-68316813D01*
X164989996Y-68221575D01*
X164989996Y-68126337D01*
X164942377Y-68031099D01*
X164894758Y-67983480D01*
X164799520Y-67935861D01*
X164561424Y-67935861D01*
X164418567Y-67983480D01*
X164132853Y-67935861D02*
X163561424Y-67935861D01*
X163847139Y-68935861D02*
X163847139Y-67935861D01*
X163466186Y-69031099D02*
X162704281Y-69031099D01*
X162513805Y-68031099D02*
X162466186Y-67983480D01*
X162370948Y-67935861D01*
X162132852Y-67935861D01*
X162037614Y-67983480D01*
X161989995Y-68031099D01*
X161942376Y-68126337D01*
X161942376Y-68221575D01*
X161989995Y-68364432D01*
X162561424Y-68935861D01*
X161942376Y-68935861D01*
X161513805Y-68935861D02*
X161513805Y-67935861D01*
X161132852Y-67935861D01*
X161037614Y-67983480D01*
X160989995Y-68031099D01*
X160942376Y-68126337D01*
X160942376Y-68269194D01*
X160989995Y-68364432D01*
X161037614Y-68412051D01*
X161132852Y-68459670D01*
X161513805Y-68459670D01*
X167498282Y-81016861D02*
X167260187Y-82016861D01*
X167069710Y-81302575D01*
X166879234Y-82016861D01*
X166641139Y-81016861D01*
X166307806Y-81112099D02*
X166260187Y-81064480D01*
X166164949Y-81016861D01*
X165926853Y-81016861D01*
X165831615Y-81064480D01*
X165783996Y-81112099D01*
X165736377Y-81207337D01*
X165736377Y-81302575D01*
X165783996Y-81445432D01*
X166355425Y-82016861D01*
X165736377Y-82016861D01*
X166624901Y-79365861D02*
X166053472Y-79365861D01*
X166339187Y-80365861D02*
X166339187Y-79365861D01*
X165720139Y-79842051D02*
X165386805Y-79842051D01*
X165243948Y-80365861D02*
X165720139Y-80365861D01*
X165720139Y-79365861D01*
X165243948Y-79365861D01*
X164862996Y-80318242D02*
X164720139Y-80365861D01*
X164482043Y-80365861D01*
X164386805Y-80318242D01*
X164339186Y-80270623D01*
X164291567Y-80175385D01*
X164291567Y-80080147D01*
X164339186Y-79984909D01*
X164386805Y-79937290D01*
X164482043Y-79889670D01*
X164672520Y-79842051D01*
X164767758Y-79794432D01*
X164815377Y-79746813D01*
X164862996Y-79651575D01*
X164862996Y-79556337D01*
X164815377Y-79461099D01*
X164767758Y-79413480D01*
X164672520Y-79365861D01*
X164434424Y-79365861D01*
X164291567Y-79413480D01*
X164005853Y-79365861D02*
X163434424Y-79365861D01*
X163720139Y-80365861D02*
X163720139Y-79365861D01*
X163339186Y-80461099D02*
X162577281Y-80461099D01*
X162386805Y-79461099D02*
X162339186Y-79413480D01*
X162243948Y-79365861D01*
X162005852Y-79365861D01*
X161910614Y-79413480D01*
X161862995Y-79461099D01*
X161815376Y-79556337D01*
X161815376Y-79651575D01*
X161862995Y-79794432D01*
X162434424Y-80365861D01*
X161815376Y-80365861D01*
X161386805Y-80365861D02*
X161386805Y-79365861D01*
X161005852Y-79365861D01*
X160910614Y-79413480D01*
X160862995Y-79461099D01*
X160815376Y-79556337D01*
X160815376Y-79699194D01*
X160862995Y-79794432D01*
X160910614Y-79842051D01*
X161005852Y-79889670D01*
X161386805Y-79889670D01*
X167498282Y-92446861D02*
X167260187Y-93446861D01*
X167069710Y-92732575D01*
X166879234Y-93446861D01*
X166641139Y-92446861D01*
X166355425Y-92446861D02*
X165736377Y-92446861D01*
X166069711Y-92827813D01*
X165926853Y-92827813D01*
X165831615Y-92875432D01*
X165783996Y-92923051D01*
X165736377Y-93018290D01*
X165736377Y-93256385D01*
X165783996Y-93351623D01*
X165831615Y-93399242D01*
X165926853Y-93446861D01*
X166212568Y-93446861D01*
X166307806Y-93399242D01*
X166355425Y-93351623D01*
X166624901Y-90795861D02*
X166053472Y-90795861D01*
X166339187Y-91795861D02*
X166339187Y-90795861D01*
X165720139Y-91272051D02*
X165386805Y-91272051D01*
X165243948Y-91795861D02*
X165720139Y-91795861D01*
X165720139Y-90795861D01*
X165243948Y-90795861D01*
X164862996Y-91748242D02*
X164720139Y-91795861D01*
X164482043Y-91795861D01*
X164386805Y-91748242D01*
X164339186Y-91700623D01*
X164291567Y-91605385D01*
X164291567Y-91510147D01*
X164339186Y-91414909D01*
X164386805Y-91367290D01*
X164482043Y-91319670D01*
X164672520Y-91272051D01*
X164767758Y-91224432D01*
X164815377Y-91176813D01*
X164862996Y-91081575D01*
X164862996Y-90986337D01*
X164815377Y-90891099D01*
X164767758Y-90843480D01*
X164672520Y-90795861D01*
X164434424Y-90795861D01*
X164291567Y-90843480D01*
X164005853Y-90795861D02*
X163434424Y-90795861D01*
X163720139Y-91795861D02*
X163720139Y-90795861D01*
X163339186Y-91891099D02*
X162577281Y-91891099D01*
X162386805Y-90891099D02*
X162339186Y-90843480D01*
X162243948Y-90795861D01*
X162005852Y-90795861D01*
X161910614Y-90843480D01*
X161862995Y-90891099D01*
X161815376Y-90986337D01*
X161815376Y-91081575D01*
X161862995Y-91224432D01*
X162434424Y-91795861D01*
X161815376Y-91795861D01*
X161386805Y-91795861D02*
X161386805Y-90795861D01*
X161005852Y-90795861D01*
X160910614Y-90843480D01*
X160862995Y-90891099D01*
X160815376Y-90986337D01*
X160815376Y-91129194D01*
X160862995Y-91224432D01*
X160910614Y-91272051D01*
X161005852Y-91319670D01*
X161386805Y-91319670D01*
X167371282Y-103876861D02*
X167133187Y-104876861D01*
X166942710Y-104162575D01*
X166752234Y-104876861D01*
X166514139Y-103876861D01*
X165704615Y-104210194D02*
X165704615Y-104876861D01*
X165942711Y-103829242D02*
X166180806Y-104543528D01*
X165561758Y-104543528D01*
X166624901Y-102225861D02*
X166053472Y-102225861D01*
X166339187Y-103225861D02*
X166339187Y-102225861D01*
X165720139Y-102702051D02*
X165386805Y-102702051D01*
X165243948Y-103225861D02*
X165720139Y-103225861D01*
X165720139Y-102225861D01*
X165243948Y-102225861D01*
X164862996Y-103178242D02*
X164720139Y-103225861D01*
X164482043Y-103225861D01*
X164386805Y-103178242D01*
X164339186Y-103130623D01*
X164291567Y-103035385D01*
X164291567Y-102940147D01*
X164339186Y-102844909D01*
X164386805Y-102797290D01*
X164482043Y-102749670D01*
X164672520Y-102702051D01*
X164767758Y-102654432D01*
X164815377Y-102606813D01*
X164862996Y-102511575D01*
X164862996Y-102416337D01*
X164815377Y-102321099D01*
X164767758Y-102273480D01*
X164672520Y-102225861D01*
X164434424Y-102225861D01*
X164291567Y-102273480D01*
X164005853Y-102225861D02*
X163434424Y-102225861D01*
X163720139Y-103225861D02*
X163720139Y-102225861D01*
X163339186Y-103321099D02*
X162577281Y-103321099D01*
X162386805Y-102321099D02*
X162339186Y-102273480D01*
X162243948Y-102225861D01*
X162005852Y-102225861D01*
X161910614Y-102273480D01*
X161862995Y-102321099D01*
X161815376Y-102416337D01*
X161815376Y-102511575D01*
X161862995Y-102654432D01*
X162434424Y-103225861D01*
X161815376Y-103225861D01*
X161386805Y-103225861D02*
X161386805Y-102225861D01*
X161005852Y-102225861D01*
X160910614Y-102273480D01*
X160862995Y-102321099D01*
X160815376Y-102416337D01*
X160815376Y-102559194D01*
X160862995Y-102654432D01*
X160910614Y-102702051D01*
X161005852Y-102749670D01*
X161386805Y-102749670D01*
X145614663Y-88763814D02*
X145662282Y-88716195D01*
X145709901Y-88573338D01*
X145709901Y-88478100D01*
X145662282Y-88335242D01*
X145567044Y-88240004D01*
X145471806Y-88192385D01*
X145281330Y-88144766D01*
X145138472Y-88144766D01*
X144947996Y-88192385D01*
X144852758Y-88240004D01*
X144757520Y-88335242D01*
X144709901Y-88478100D01*
X144709901Y-88573338D01*
X144757520Y-88716195D01*
X144805139Y-88763814D01*
X145043234Y-89620957D02*
X145709901Y-89620957D01*
X144662282Y-89382861D02*
X145376568Y-89144766D01*
X145376568Y-89763814D01*
M02*
