  0
SECTION
  2
HEADER
  9
$ACADVER
  1
AC1014
  9
$ACADMAINTVER
 70
     9
  9
$DWGCODEPAGE
  3
ANSI_1252
  9
$INSBASE
 10
0.0
 20
0.0
 30
0.0
  9
$EXTMIN
 10
1.000000000000000E+20
 20
1.000000000000000E+20
 30
1.000000000000000E+20
  9
$EXTMAX
 10
-1.000000000000000E+20
 20
-1.000000000000000E+20
 30
-1.000000000000000E+20
  9
$LIMMIN
 10
0.0
 20
0.0
  9
$LIMMAX
 10
12.0
 20
9.0
  9
$ORTHOMODE
 70
     0
  9
$REGENMODE
 70
     1
  9
$FILLMODE
 70
     1
  9
$QTEXTMODE
 70
     0
  9
$MIRRTEXT
 70
     1
  9
$DRAGMODE
 70
     2
  9
$LTSCALE
 40
1.0
  9
$OSMODE
 70
    37
  9
$ATTMODE
 70
     1
  9
$TEXTSIZE
 40
0.2
  9
$TRACEWID
 40
0.05
  9
$TEXTSTYLE
  7
STANDARD
  9
$CLAYER
  8
0
  9
$CELTYPE
  6
BYLAYER
  9
$CECOLOR
 62
   256
  9
$CELTSCALE
 40
1.0
  9
$DELOBJ
 70
     1
  9
$DISPSILH
 70
     0
  9
$DIMSCALE
 40
1.0
  9
$DIMASZ
 40
0.18
  9
$DIMEXO
 40
0.0625
  9
$DIMDLI
 40
0.38
  9
$DIMRND
 40
0.0
  9
$DIMDLE
 40
0.0
  9
$DIMEXE
 40
0.18
  9
$DIMTP
 40
0.0
  9
$DIMTM
 40
0.0
  9
$DIMTXT
 40
0.18
  9
$DIMCEN
 40
0.09
  9
$DIMTSZ
 40
0.0
  9
$DIMTOL
 70
     0
  9
$DIMLIM
 70
     0
  9
$DIMTIH
 70
     1
  9
$DIMTOH
 70
     1
  9
$DIMSE1
 70
     0
  9
$DIMSE2
 70
     0
  9
$DIMTAD
 70
     0
  9
$DIMZIN
 70
     0
  9
$DIMBLK
  1

  9
$DIMASO
 70
     1
  9
$DIMSHO
 70
     1
  9
$DIMPOST
  1

  9
$DIMAPOST
  1

  9
$DIMALT
 70
     0
  9
$DIMALTD
 70
     2
  9
$DIMALTF
 40
25.4
  9
$DIMLFAC
 40
1.0
  9
$DIMTOFL
 70
     0
  9
$DIMTVP
 40
0.0
  9
$DIMTIX
 70
     0
  9
$DIMSOXD
 70
     0
  9
$DIMSAH
 70
     0
  9
$DIMBLK1
  1

  9
$DIMBLK2
  1

  9
$DIMSTYLE
  2
STANDARD
  9
$DIMCLRD
 70
     0
  9
$DIMCLRE
 70
     0
  9
$DIMCLRT
 70
     0
  9
$DIMTFAC
 40
1.0
  9
$DIMGAP
 40
0.09
  9
$DIMJUST
 70
     0
  9
$DIMSD1
 70
     0
  9
$DIMSD2
 70
     0
  9
$DIMTOLJ
 70
     1
  9
$DIMTZIN
 70
     0
  9
$DIMALTZ
 70
     0
  9
$DIMALTTZ
 70
     0
  9
$DIMFIT
 70
     3
  9
$DIMUPT
 70
     0
  9
$DIMUNIT
 70
     2
  9
$DIMDEC
 70
     4
  9
$DIMTDEC
 70
     4
  9
$DIMALTU
 70
     2
  9
$DIMALTTD
 70
     2
  9
$DIMTXSTY
  7
STANDARD
  9
$DIMAUNIT
 70
     0
  9
$LUNITS
 70
     2
  9
$LUPREC
 70
     4
  9
$SKETCHINC
 40
0.1
  9
$FILLETRAD
 40
0.5
  9
$AUNITS
 70
     0
  9
$AUPREC
 70
     0
  9
$MENU
  1
.
  9
$ELEVATION
 40
0.0
  9
$PELEVATION
 40
0.0
  9
$THICKNESS
 40
0.0
  9
$LIMCHECK
 70
     0
  9
$CHAMFERA
 40
0.0
  9
$CHAMFERB
 40
0.0
  9
$CHAMFERC
 40
0.0
  9
$CHAMFERD
 40
0.0
  9
$SKPOLY
 70
     0
  9
$TDCREATE
 40
2458098.795726192
  9
$TDUPDATE
 40
2458098.795726736
  9
$TDINDWG
 40
0.0000000116
  9
$TDUSRTIMER
 40
0.0000000116
  9
$USRTIMER
 70
     1
  9
$ANGBASE
 50
0.0
  9
$ANGDIR
 70
     0
  9
$PDMODE
 70
     0
  9
$PDSIZE
 40
0.0
  9
$PLINEWID
 40
0.0
  9
$COORDS
 70
     1
  9
$SPLFRAME
 70
     0
  9
$SPLINETYPE
 70
     6
  9
$SPLINESEGS
 70
     8
  9
$ATTDIA
 70
     0
  9
$ATTREQ
 70
     1
  9
$HANDLING
 70
     1
  9
$HANDSEED
  5
2B2
  9
$SURFTAB1
 70
     6
  9
$SURFTAB2
 70
     6
  9
$SURFTYPE
 70
     6
  9
$SURFU
 70
     6
  9
$SURFV
 70
     6
  9
$UCSNAME
  2

  9
$UCSORG
 10
0.0
 20
0.0
 30
0.0
  9
$UCSXDIR
 10
1.0
 20
0.0
 30
0.0
  9
$UCSYDIR
 10
0.0
 20
1.0
 30
0.0
  9
$PUCSNAME
  2

  9
$PUCSORG
 10
0.0
 20
0.0
 30
0.0
  9
$PUCSXDIR
 10
1.0
 20
0.0
 30
0.0
  9
$PUCSYDIR
 10
0.0
 20
1.0
 30
0.0
  9
$USERI1
 70
     0
  9
$USERI2
 70
     0
  9
$USERI3
 70
     0
  9
$USERI4
 70
     0
  9
$USERI5
 70
     0
  9
$USERR1
 40
0.0
  9
$USERR2
 40
0.0
  9
$USERR3
 40
0.0
  9
$USERR4
 40
0.0
  9
$USERR5
 40
0.0
  9
$WORLDVIEW
 70
     1
  9
$SHADEDGE
 70
     3
  9
$SHADEDIF
 70
    70
  9
$TILEMODE
 70
     1
  9
$MAXACTVP
 70
    64
  9
$PINSBASE
 10
0.0
 20
0.0
 30
0.0
  9
$PLIMCHECK
 70
     0
  9
$PEXTMIN
 10
1.000000000000000E+20
 20
1.000000000000000E+20
 30
1.000000000000000E+20
  9
$PEXTMAX
 10
-1.000000000000000E+20
 20
-1.000000000000000E+20
 30
-1.000000000000000E+20
  9
$PLIMMIN
 10
0.0
 20
0.0
  9
$PLIMMAX
 10
12.0
 20
9.0
  9
$UNITMODE
 70
     0
  9
$VISRETAIN
 70
     1
  9
$PLINEGEN
 70
     0
  9
$PSLTSCALE
 70
     1
  9
$TREEDEPTH
 70
  3020
  9
$PICKSTYLE
 70
     1
  9
$CMLSTYLE
  2
STANDARD
  9
$CMLJUST
 70
     0
  9
$CMLSCALE
 40
1.0
  9
$PROXYGRAPHICS
 70
     1
  9
$MEASUREMENT
 70
     1
  0
ENDSEC
  0
SECTION
  2
CLASSES
  0
CLASS
  1
ACDBDICTIONARYWDFLT
  2
AcDbDictionaryWithDefault
  3
ObjectDBX Classes
 90
        0
280
     0
281
     0
  0
CLASS
  1
VISUALSTYLE
  2
AcDbVisualStyle
  3
ObjectDBX Classes
 90
     4095
280
     0
281
     0
  0
CLASS
  1
MATERIAL
  2
AcDbMaterial
  3
ObjectDBX Classes
 90
     1153
280
     0
281
     0
  0
CLASS
  1
SCALE
  2
AcDbScale
  3
ObjectDBX Classes
 90
     1153
280
     0
281
     0
  0
CLASS
  1
TABLESTYLE
  2
AcDbTableStyle
  3
ObjectDBX Classes
 90
     4095
280
     0
281
     0
  0
CLASS
  1
MLEADERSTYLE
  2
AcDbMLeaderStyle
  3
ACDB_MLEADERSTYLE_CLASS
 90
     4095
280
     0
281
     0
  0
CLASS
  1
SUN
  2
AcDbSun
  3
SCENEOE
 90
     1153
280
     0
281
     0
  0
CLASS
  1
DICTIONARYVAR
  2
AcDbDictionaryVar
  3
ObjectDBX Classes
 90
        0
280
     0
281
     0
  0
CLASS
  1
XRECORD
  2
AcDbXrecord
  3
ObjectDBX Classes
 90
        0
280
     0
281
     0
  0
CLASS
  1
LWPOLYLINE
  2
AcDbPolyline
  3
ObjectDBX Classes
 90
        0
280
     0
281
     1
  0
CLASS
  1
HATCH
  2
AcDbHatch
  3
ObjectDBX Classes
 90
        0
280
     0
281
     1
  0
CLASS
  1
ACDBPLACEHOLDER
  2
AcDbPlaceHolder
  3
ObjectDBX Classes
 90
        0
280
     0
281
     0
  0
CLASS
  1
LAYOUT
  2
AcDbLayout
  3
ObjectDBX Classes
 90
        0
280
     0
281
     0
  0
ENDSEC
  0
SECTION
  2
TABLES
  0
TABLE
  2
VPORT
  5
8
102
{ACAD_XDICTIONARY
360
2A7
102
}
330
0
100
AcDbSymbolTable
 70
     1
  0
VPORT
  5
29
330
8
100
AcDbSymbolTableRecord
100
AcDbViewportTableRecord
  2
*ACTIVE
 70
     0
 10
0.0
 20
0.0
 11
1.0
 21
1.0
 12
0.0
 22
0.0
 13
0.0
 23
0.0
 14
0.5
 24
0.5
 15
0.5
 25
0.5
 16
0.0
 26
0.0
 36
1.0
 17
0.0
 27
0.0
 37
-1000.0
 40
97.56106411694934
 41
1.567193675889328
 42
50.0
 43
154.7120819331703
 44
272.0140610550018
 50
0.0
 51
0.0
 71
     0
 72
   100
 73
     1
 74
     3
 75
     0
 76
     0
 77
     0
 78
     0
  0
ENDTAB
  0
TABLE
  2
LTYPE
  5
5
330
0
100
AcDbSymbolTable
 70
     1
  0
LTYPE
  5
14
330
5
100
AcDbSymbolTableRecord
100
AcDbLinetypeTableRecord
  2
BYBLOCK
 70
     0
  3

 72
    65
 73
     0
 40
0.0
  0
LTYPE
  5
15
330
5
100
AcDbSymbolTableRecord
100
AcDbLinetypeTableRecord
  2
BYLAYER
 70
     0
  3

 72
    65
 73
     0
 40
0.0
  0
LTYPE
  5
16
330
5
100
AcDbSymbolTableRecord
100
AcDbLinetypeTableRecord
  2
CONTINUOUS
 70
     0
  3
Solid line
 72
    65
 73
     0
 40
0.0
  0
ENDTAB
  0
TABLE
  2
LAYER
  5
2
330
0
100
AcDbSymbolTable
 70
     3
  0
LAYER
  5
10
330
2
100
AcDbSymbolTableRecord
100
AcDbLayerTableRecord
  2
0
 70
     0
 62
     7
  6
CONTINUOUS
  0
LAYER
  5
6E
330
2
100
AcDbSymbolTableRecord
100
AcDbLayerTableRecord
  2
PROFILEEDGES
 70
     0
 62
     7
  6
CONTINUOUS
  0
LAYER
  5
6F
330
2
100
AcDbSymbolTableRecord
100
AcDbLayerTableRecord
  2
SECTIONCUTEDGES
 70
     0
 62
     7
  6
CONTINUOUS
  0
ENDTAB
  0
TABLE
  2
STYLE
  5
3
330
0
100
AcDbSymbolTable
 70
     2
  0
STYLE
  5
11
330
3
100
AcDbSymbolTableRecord
100
AcDbTextStyleTableRecord
  2
STANDARD
 70
     0
 40
0.0
 41
1.0
 50
0.0
 71
     0
 42
0.2
  3
txt
  4

  0
STYLE
  5
265
330
3
100
AcDbSymbolTableRecord
100
AcDbTextStyleTableRecord
  2
TAHOMA
 70
     0
 40
0.0
 41
1.0
 50
0.0
 71
     0
 42
0.2
  3
Tahoma
  4

1001
ACAD
1000
Tahoma
1071
       34
  0
ENDTAB
  0
TABLE
  2
VIEW
  5
6
330
0
100
AcDbSymbolTable
 70
     0
  0
ENDTAB
  0
TABLE
  2
UCS
  5
7
330
0
100
AcDbSymbolTable
 70
     0
  0
ENDTAB
  0
TABLE
  2
APPID
  5
9
330
0
100
AcDbSymbolTable
 70
     2
  0
APPID
  5
12
330
9
100
AcDbSymbolTableRecord
100
AcDbRegAppTableRecord
  2
ACAD
 70
     0
  0
APPID
  5
2B1
330
9
100
AcDbSymbolTableRecord
100
AcDbRegAppTableRecord
  2
ACAD_MLEADERVER
 70
     0
  0
ENDTAB
  0
TABLE
  2
DIMSTYLE
  5
A
330
0
100
AcDbSymbolTable
 70
     1
  0
DIMSTYLE
105
27
330
A
100
AcDbSymbolTableRecord
100
AcDbDimStyleTableRecord
  2
STANDARD
 70
     0
  3

  4

  5

  6

  7

 40
1.0
 41
0.18
 42
0.0625
 43
0.38
 44
0.18
 45
0.0
 46
0.0
 47
0.0
 48
0.0
140
0.18
141
0.09
142
0.0
143
25.4
144
1.0
145
0.0
146
1.0
147
0.09
 71
     0
 72
     0
 73
     1
 74
     1
 75
     0
 76
     0
 77
     0
 78
     0
170
     0
171
     2
172
     0
173
     0
174
     0
175
     0
176
     0
177
     0
178
     0
270
     2
271
     4
272
     4
273
     2
274
     2
340
11
275
     0
280
     0
281
     0
282
     0
283
     1
284
     0
285
     0
286
     0
287
     3
288
     0
  0
ENDTAB
  0
TABLE
  2
BLOCK_RECORD
  5
1
330
0
100
AcDbSymbolTable
 70
     1
  0
BLOCK_RECORD
  5
1F
330
1
100
AcDbSymbolTableRecord
100
AcDbBlockTableRecord
  2
*MODEL_SPACE
  0
BLOCK_RECORD
  5
1B
330
1
100
AcDbSymbolTableRecord
100
AcDbBlockTableRecord
  2
*PAPER_SPACE
  0
ENDTAB
  0
ENDSEC
  0
SECTION
  2
BLOCKS
  0
BLOCK
  5
20
330
1F
100
AcDbEntity
  8
0
100
AcDbBlockBegin
  2
*MODEL_SPACE
 70
     0
 10
0.0
 20
0.0
 30
0.0
  3
*MODEL_SPACE
  1

  0
ENDBLK
  5
21
330
1F
100
AcDbEntity
  8
0
100
AcDbBlockEnd
  0
BLOCK
  5
1C
330
1B
100
AcDbEntity
 67
     1
  8
0
100
AcDbBlockBegin
  2
*PAPER_SPACE
 70
     0
 10
0.0
 20
0.0
 30
0.0
  3
*PAPER_SPACE
  1

  0
ENDBLK
  5
1D
330
1B
100
AcDbEntity
 67
     1
  8
0
100
AcDbBlockEnd
  0
ENDSEC
  0
SECTION
  2
ENTITIES
  0
LINE
  5
70
330
1F
100
AcDbEntity
  8
0
100
AcDbLine
 10
36.80672483336747
 20
-0.0559026879844455
 30
0.0
 11
36.69517990944409
 21
29.38040632097628
 31
0.0
  0
LINE
  5
71
330
1F
100
AcDbEntity
  8
0
100
AcDbLine
 10
-38.27753494586717
 20
-24.74581742187671
 30
0.0
 11
-38.18265519008845
 21
9.729607477217627
 31
0.0
  0
LINE
  5
72
330
1F
100
AcDbEntity
  8
0
100
AcDbLine
 10
-28.35283468065809
 20
9.735300938359465
 30
0.0
 11
-38.18265519008845
 21
9.729607477217627
 31
0.0
  0
LINE
  5
73
330
1F
100
AcDbEntity
  8
0
100
AcDbLine
 10
-28.37145276225859
 20
-0.0936864654907185
 30
0.0
 11
-28.35283468065809
 21
9.735300938359465
 31
0.0
  0
LINE
  5
74
330
1F
100
AcDbEntity
  8
0
100
AcDbLine
 10
-33.67335169727447
 20
6.303092050629576
 30
0.0
 11
-34.04426131264004
 21
6.149489957517171
 31
0.0
  0
LINE
  5
75
330
1F
100
AcDbEntity
  8
0
100
AcDbLine
 10
-34.04426131264004
 20
6.149489957517171
 30
0.0
 11
-34.36304807024879
 21
5.905292999981255
 31
0.0
  0
LINE
  5
76
330
1F
100
AcDbEntity
  8
0
100
AcDbLine
 10
-34.36304807024879
 20
5.905292999981255
 30
0.0
 11
-34.60798995368572
 21
5.587132518678706
 31
0.0
  0
LINE
  5
77
330
1F
100
AcDbEntity
  8
0
100
AcDbLine
 10
-34.60798995368572
 20
5.587132518678706
 30
0.0
 11
-34.76239184347907
 21
5.21668035108711
 31
0.0
  0
LINE
  5
78
330
1F
100
AcDbEntity
  8
0
100
AcDbLine
 10
-34.76239184347907
 20
5.21668035108711
 30
0.0
 11
-34.8157239939153
 21
4.819174684050306
 31
0.0
  0
LINE
  5
79
330
1F
100
AcDbEntity
  8
0
100
AcDbLine
 10
-34.8157239939153
 20
4.819174684050306
 30
0.0
 11
-34.76434162986288
 21
4.421702127339906
 31
0.0
  0
LINE
  5
7A
330
1F
100
AcDbEntity
  8
0
100
AcDbLine
 10
-34.76434162986288
 20
4.421702127339906
 30
0.0
 11
-34.61173608561218
 21
4.051352542157995
 31
0.0
  0
LINE
  5
7B
330
1F
100
AcDbEntity
  8
0
100
AcDbLine
 10
-34.61173608561218
 20
4.051352542157995
 30
0.0
 11
-34.36829963344852
 21
3.733372172237421
 31
0.0
  0
LINE
  5
7C
330
1F
100
AcDbEntity
  8
0
100
AcDbLine
 10
-34.36829963344852
 20
3.733372172237421
 30
0.0
 11
-34.05061928950971
 21
3.489441136315091
 31
0.0
  0
LINE
  5
7D
330
1F
100
AcDbEntity
  8
0
100
AcDbLine
 10
-34.05061928950971
 20
3.489441136315091
 30
0.0
 11
-33.68034718061831
 21
3.33619320847758
 31
0.0
  0
LINE
  5
7E
330
1F
100
AcDbEntity
  8
0
100
AcDbLine
 10
-33.68034718061831
 20
3.33619320847758
 30
0.0
 11
-33.28272425474454
 21
3.284079499401493
 31
0.0
  0
LINE
  5
7F
330
1F
100
AcDbEntity
  8
0
100
AcDbLine
 10
-33.28272425474454
 20
3.284079499401493
 30
0.0
 11
-32.88485813797041
 21
3.336654215282711
 31
0.0
  0
LINE
  5
80
330
1F
100
AcDbEntity
  8
0
100
AcDbLine
 10
-32.88485813797041
 20
3.336654215282711
 30
0.0
 11
-32.513873039039
 21
3.490331709230545
 31
0.0
  0
LINE
  5
81
330
1F
100
AcDbEntity
  8
0
100
AcDbLine
 10
-32.513873039039
 20
3.490331709230545
 30
0.0
 11
-32.19505852124907
 21
3.73463157889647
 31
0.0
  0
LINE
  5
82
330
1F
100
AcDbEntity
  8
0
100
AcDbLine
 10
-32.19505852124907
 20
3.73463157889647
 30
0.0
 11
-31.95014403933322
 21
4.052894908401096
 31
0.0
  0
LINE
  5
83
330
1F
100
AcDbEntity
  8
0
100
AcDbLine
 10
-31.95014403933322
 20
4.052894908401096
 30
0.0
 11
-31.79581737054712
 21
4.423422302174592
 31
0.0
  0
LINE
  5
84
330
1F
100
AcDbEntity
  8
0
100
AcDbLine
 10
-31.79581737054712
 20
4.423422302174592
 30
0.0
 11
-31.74258810519621
 21
4.820955416579
 31
0.0
  0
LINE
  5
85
330
1F
100
AcDbEntity
  8
0
100
AcDbLine
 10
-31.74258810519621
 20
4.820955416579
 30
0.0
 11
-31.79407345043705
 21
5.218400287343166
 31
0.0
  0
LINE
  5
86
330
1F
100
AcDbEntity
  8
0
100
AcDbLine
 10
-31.79407345043705
 20
5.218400287343166
 30
0.0
 11
-31.9467544782536
 21
5.588674471691492
 31
0.0
  0
LINE
  5
87
330
1F
100
AcDbEntity
  8
0
100
AcDbLine
 10
-31.9467544782536
 20
5.588674471691492
 30
0.0
 11
-32.1902186906
 21
5.906551929483034
 31
0.0
  0
LINE
  5
88
330
1F
100
AcDbEntity
  8
0
100
AcDbLine
 10
-32.1902186906
 20
5.906551929483034
 30
0.0
 11
-32.50787163301937
 21
6.150380117202305
 31
0.0
  0
LINE
  5
89
330
1F
100
AcDbEntity
  8
0
100
AcDbLine
 10
-32.87806852090354
 20
6.30355281885607
 30
0.0
 11
-33.27558856169036
 21
6.355639080563603
 31
0.0
  0
LINE
  5
8A
330
1F
100
AcDbEntity
  8
0
100
AcDbLine
 10
-33.27558856169036
 20
6.355639080563603
 30
0.0
 11
-33.67335169727447
 21
6.303092050629576
 31
0.0
  0
LINE
  5
8B
330
1F
100
AcDbEntity
  8
0
100
AcDbLine
 10
-27.96420884251348
 20
9.573252237367821
 30
0.0
 11
-28.35283468065809
 21
9.735300938359465
 31
0.0
  0
LINE
  5
8C
330
1F
100
AcDbEntity
  8
0
100
AcDbLine
 10
-35.75014144001662
 20
-0.0979638899535228
 30
0.0
 11
-35.80955123974078
 21
-23.5095486204416
 31
0.0
  0
LINE
  5
8D
330
1F
100
AcDbEntity
  8
0
100
AcDbLine
 10
-35.80955123974078
 20
-23.5095486204416
 30
0.0
 11
-13.01216620703134
 21
-23.49630600092149
 31
0.0
  0
LINE
  5
8E
330
1F
100
AcDbEntity
  8
0
100
AcDbLine
 10
-13.01216620703134
 20
-23.49630600092149
 30
0.0
 11
-12.99920236261083
 21
-0.0847751747750739
 31
0.0
  0
LINE
  5
8F
330
1F
100
AcDbEntity
  8
0
100
AcDbLine
 10
-28.37145276225859
 20
-0.0936864654907185
 30
0.0
 11
-35.75014144001662
 21
-0.0979638899535228
 31
0.0
  0
LINE
  5
90
330
1F
100
AcDbEntity
  8
0
100
AcDbLine
 10
36.87146825725881
 20
28.95020831124469
 30
0.0
 11
36.91276073279978
 21
28.95023218793958
 31
0.0
  0
LINE
  5
91
330
1F
100
AcDbEntity
  8
0
100
AcDbLine
 10
-28.56697865024091
 20
9.572903106366105
 30
0.0
 11
-28.61063389597969
 21
9.572877820760423
 31
0.0
  0
LINE
  5
92
330
1F
100
AcDbEntity
  8
0
100
AcDbLine
 10
-27.98219142024233
 20
-0.0934608107626933
 30
0.0
 11
-27.96420884251348
 21
9.573252237367821
 31
0.0
  0
LINE
  5
93
330
1F
100
AcDbEntity
  8
0
100
AcDbLine
 10
36.30169498254409
 20
-0.0561954536956308
 30
0.0
 11
36.19305800809008
 21
28.9498160316752
 31
0.0
  0
LINE
  5
94
330
1F
100
AcDbEntity
  8
0
100
AcDbLine
 10
-33.21166238506198
 20
6.188053877280279
 30
0.0
 11
-33.57748035515534
 21
6.036556302316001
 31
0.0
  0
LINE
  5
95
330
1F
100
AcDbEntity
  8
0
100
AcDbLine
 10
-33.57748035515534
 20
6.036556302316001
 30
0.0
 11
-33.89188632612818
 21
5.795705227139608
 31
0.0
  0
LINE
  5
96
330
1F
100
AcDbEntity
  8
0
100
AcDbLine
 10
-33.89188632612818
 20
5.795705227139608
 30
0.0
 11
-34.13345674895938
 21
5.481904255893384
 31
0.0
  0
LINE
  5
97
330
1F
100
AcDbEntity
  8
0
100
AcDbLine
 10
-34.13345674895938
 20
5.481904255893384
 30
0.0
 11
-34.28572633770516
 21
5.116528412374014
 31
0.0
  0
LINE
  5
98
330
1F
100
AcDbEntity
  8
0
100
AcDbLine
 10
-34.28572633770516
 20
5.116528412374014
 30
0.0
 11
-34.33831086372731
 21
4.724470145001317
 31
0.0
  0
LINE
  5
99
330
1F
100
AcDbEntity
  8
0
100
AcDbLine
 10
-34.33831086372731
 20
4.724470145001317
 30
0.0
 11
-34.28761678106396
 21
4.33244490702666
 31
0.0
  0
LINE
  5
9A
330
1F
100
AcDbEntity
  8
0
100
AcDbLine
 10
-34.28761678106396
 20
4.33244490702666
 30
0.0
 11
-34.13708879912721
 21
3.967171258673491
 31
0.0
  0
LINE
  5
9B
330
1F
100
AcDbEntity
  8
0
100
AcDbLine
 10
-34.13708879912721
 20
3.967171258673491
 30
0.0
 11
-33.89697781354871
 21
3.653549321905373
 31
0.0
  0
LINE
  5
9C
330
1F
100
AcDbEntity
  8
0
100
AcDbLine
 10
-33.89697781354871
 20
3.653549321905373
 30
0.0
 11
-33.58364429145016
 21
3.412961915458842
 31
0.0
  0
LINE
  5
9D
330
1F
100
AcDbEntity
  8
0
100
AcDbLine
 10
-33.58364429145016
 20
3.412961915458842
 30
0.0
 11
-33.28272425474454
 21
3.284079499401493
 31
0.0
  0
LINE
  5
9E
330
1F
100
AcDbEntity
  8
0
100
AcDbLine
 10
-32.68007606359081
 20
6.221631439756989
 30
0.0
 11
-32.81935497181514
 21
6.239880967708855
 31
0.0
  0
LINE
  5
9F
330
1F
100
AcDbEntity
  8
0
100
AcDbLine
 10
-32.81935497181514
 20
6.239880967708855
 30
0.0
 11
-33.21166238506198
 21
6.188053877280279
 31
0.0
  0
LINE
  5
A0
330
1F
100
AcDbEntity
  8
0
100
AcDbLine
 10
36.69517990944409
 20
29.38040632097628
 30
0.0
 11
55.09440629534975
 21
29.39104497082655
 31
0.0
  0
LINE
  5
A1
330
1F
100
AcDbEntity
  8
0
100
AcDbLine
 10
55.09440629534975
 20
29.39104497082655
 30
0.0
 11
55.3863391211048
 21
-24.691403798034
 31
0.0
  0
LINE
  5
A2
330
1F
100
AcDbEntity
  8
0
100
AcDbLine
 10
36.69517990944409
 20
29.38040632097628
 30
0.0
 11
36.19305800809008
 21
28.9498160316752
 31
0.0
  0
LINE
  5
A3
330
1F
100
AcDbEntity
  8
0
100
AcDbLine
 10
55.3863391211048
 20
-24.691403798034
 30
0.0
 11
-38.27753494586717
 21
-24.74581742187671
 31
0.0
  0
LINE
  5
A4
330
1F
100
AcDbEntity
  8
0
100
AcDbLine
 10
54.34093783780269
 20
28.8814854953988
 30
0.0
 11
54.34064547060604
 21
28.93631998419543
 31
0.0
  0
LINE
  5
A5
330
1F
100
AcDbEntity
  8
0
100
AcDbLine
 10
42.66305818177609
 20
18.43965581007363
 30
0.0
 11
42.33153133074689
 21
18.21629032257542
 31
0.0
  0
LINE
  5
A6
330
1F
100
AcDbEntity
  8
0
100
AcDbLine
 10
41.95306331906757
 20
18.08640657214908
 30
0.0
 11
41.55345447318807
 21
18.0588624345843
 31
0.0
  0
LINE
  5
A7
330
1F
100
AcDbEntity
  8
0
100
AcDbLine
 10
41.55345447318807
 20
18.0588624345843
 30
0.0
 11
41.15994799060157
 21
18.13553645419556
 31
0.0
  0
LINE
  5
A8
330
1F
100
AcDbEntity
  8
0
100
AcDbLine
 10
41.15994799060157
 20
18.13553645419556
 30
0.0
 11
40.7993705426164
 21
18.31119943359023
 31
0.0
  0
LINE
  5
A9
330
1F
100
AcDbEntity
  8
0
100
AcDbLine
 10
40.7993705426164
 20
18.31119943359023
 30
0.0
 11
40.4963014397225
 21
18.57387186432963
 31
0.0
  0
LINE
  5
AA
330
1F
100
AcDbEntity
  8
0
100
AcDbLine
 10
40.4963014397225
 20
18.57387186432963
 30
0.0
 11
40.27139583607077
 21
18.90564255332464
 31
0.0
  0
LINE
  5
AB
330
1F
100
AcDbEntity
  8
0
100
AcDbLine
 10
40.27139583607077
 20
18.90564255332464
 30
0.0
 11
40.13997671456875
 21
19.28389205550856
 31
0.0
  0
LINE
  5
AC
330
1F
100
AcDbEntity
  8
0
100
AcDbLine
 10
40.13997671456875
 20
19.28389205550856
 30
0.0
 11
40.1109917134609
 21
19.68283678331379
 31
0.0
  0
LINE
  5
AD
330
1F
100
AcDbEntity
  8
0
100
AcDbLine
 10
40.1109917134609
 20
19.68283678331379
 30
0.0
 11
40.1864055997354
 21
20.07528785918587
 31
0.0
  0
LINE
  5
AE
330
1F
100
AcDbEntity
  8
0
100
AcDbLine
 10
40.1864055997354
 20
20.07528785918587
 30
0.0
 11
40.36106919061377
 21
20.43450438131398
 31
0.0
  0
LINE
  5
AF
330
1F
100
AcDbEntity
  8
0
100
AcDbLine
 10
40.6230729009602
 20
20.73601470193668
 30
0.0
 11
40.95456011606502
 21
20.95928188823359
 31
0.0
  0
LINE
  5
B0
330
1F
100
AcDbEntity
  8
0
100
AcDbLine
 10
40.95456011606502
 20
20.95928188823359
 30
0.0
 11
41.33294449024099
 21
21.08910046809842
 31
0.0
  0
LINE
  5
B1
330
1F
100
AcDbEntity
  8
0
100
AcDbLine
 10
41.33294449024099
 20
21.08910046809842
 30
0.0
 11
41.73244810763977
 21
21.11663002814143
 31
0.0
  0
LINE
  5
B2
330
1F
100
AcDbEntity
  8
0
100
AcDbLine
 10
41.73244810763977
 20
21.11663002814143
 30
0.0
 11
42.1258559666553
 21
21.03999593008352
 31
0.0
  0
LINE
  5
B3
330
1F
100
AcDbEntity
  8
0
100
AcDbLine
 10
42.1258559666553
 20
21.03999593008352
 30
0.0
 11
42.48636782208587
 21
20.86441667436878
 31
0.0
  0
LINE
  5
B4
330
1F
100
AcDbEntity
  8
0
100
AcDbLine
 10
42.48636782208587
 20
20.86441667436878
 30
0.0
 11
42.78942193891343
 21
20.60184933574301
 31
0.0
  0
LINE
  5
B5
330
1F
100
AcDbEntity
  8
0
100
AcDbLine
 10
42.78942193891343
 20
20.60184933574301
 30
0.0
 11
43.01436717849086
 21
20.27017694794796
 31
0.0
  0
LINE
  5
B6
330
1F
100
AcDbEntity
  8
0
100
AcDbLine
 10
43.01436717849086
 20
20.27017694794796
 30
0.0
 11
43.1458699374958
 21
19.89199261632378
 31
0.0
  0
LINE
  5
B7
330
1F
100
AcDbEntity
  8
0
100
AcDbLine
 10
43.1458699374958
 20
19.89199261632378
 30
0.0
 11
43.17496016708259
 21
19.49306246603982
 31
0.0
  0
LINE
  5
B8
330
1F
100
AcDbEntity
  8
0
100
AcDbLine
 10
43.17496016708259
 20
19.49306246603982
 30
0.0
 11
43.0996449043778
 21
19.1005714686157
 31
0.0
  0
LINE
  5
B9
330
1F
100
AcDbEntity
  8
0
100
AcDbLine
 10
43.0996449043778
 20
19.1005714686157
 30
0.0
 11
42.92504690605446
 21
18.74127122280934
 31
0.0
  0
LINE
  5
BA
330
1F
100
AcDbEntity
  8
0
100
AcDbLine
 10
42.92504690605446
 20
18.74127122280934
 30
0.0
 11
42.66305818177609
 21
18.43965581007363
 31
0.0
  0
LINE
  5
BB
330
1F
100
AcDbEntity
  8
0
100
AcDbLine
 10
42.07872352573461
 20
18.15850931427767
 30
0.0
 11
41.9910587789561
 21
18.09944596432281
 31
0.0
  0
LINE
  5
BC
330
1F
100
AcDbEntity
  8
0
100
AcDbLine
 10
42.33713919679536
 20
18.45600106323469
 30
0.0
 11
42.07872352573461
 21
18.15850931427767
 31
0.0
  0
LINE
  5
BD
330
1F
100
AcDbEntity
  8
0
100
AcDbLine
 10
42.50936414685734
 20
18.81038926265142
 30
0.0
 11
42.33713919679536
 21
18.45600106323469
 31
0.0
  0
LINE
  5
BE
330
1F
100
AcDbEntity
  8
0
100
AcDbLine
 10
42.5836679068092
 20
19.19751480620983
 30
0.0
 11
42.50936414685734
 21
18.81038926265142
 31
0.0
  0
LINE
  5
BF
330
1F
100
AcDbEntity
  8
0
100
AcDbLine
 10
42.55499638394988
 20
19.59099185026282
 30
0.0
 11
42.5836679068092
 21
19.19751480620983
 31
0.0
  0
LINE
  5
C0
330
1F
100
AcDbEntity
  8
0
100
AcDbLine
 10
42.42531372110977
 20
19.96400700378241
 30
0.0
 11
42.55499638394988
 21
19.59099185026282
 31
0.0
  0
LINE
  5
C1
330
1F
100
AcDbEntity
  8
0
100
AcDbLine
 10
42.20346570370658
 20
20.29114623554347
 30
0.0
 11
42.42531372110977
 21
19.96400700378241
 31
0.0
  0
LINE
  5
C2
330
1F
100
AcDbEntity
  8
0
100
AcDbLine
 10
41.90457475736036
 20
20.55012510042858
 30
0.0
 11
42.20346570370658
 21
20.29114623554347
 31
0.0
  0
LINE
  5
C3
330
1F
100
AcDbEntity
  8
0
100
AcDbLine
 10
41.54900834882415
 20
20.72330482801345
 30
0.0
 11
41.90457475736036
 21
20.55012510042858
 31
0.0
  0
LINE
  5
C4
330
1F
100
AcDbEntity
  8
0
100
AcDbLine
 10
41.1609913677171
 20
20.79889164022301
 30
0.0
 11
41.54900834882415
 21
20.72330482801345
 31
0.0
  0
LINE
  5
C5
330
1F
100
AcDbEntity
  8
0
100
AcDbLine
 10
40.76695694793692
 20
20.77173829908437
 30
0.0
 11
41.1609913677171
 21
20.79889164022301
 31
0.0
  0
LINE
  5
C6
330
1F
100
AcDbEntity
  8
0
100
AcDbLine
 10
9.777224010351388
 20
-17.92960538210992
 30
0.0
 11
9.760482176405187
 21
-6.223247793547357
 31
0.0
  0
LINE
  5
C7
330
1F
100
AcDbEntity
  8
0
100
AcDbLine
 10
6.078732216859036
 20
-14.84881390209639
 30
0.0
 11
6.072585800206648
 21
-9.303696197253943
 31
0.0
  0
LINE
  5
C8
330
1F
100
AcDbEntity
  8
0
100
AcDbLine
 10
1.153286422059754
 20
-14.85167286084086
 30
0.0
 11
1.149518573005221
 21
-9.3065523954003
 31
0.0
  0
LINE
  5
C9
330
1F
100
AcDbEntity
  8
0
100
AcDbLine
 10
9.777224010351388
 20
-17.92960538210992
 30
0.0
 11
-7.466469035419911
 21
-17.93961711409268
 31
0.0
  0
LINE
  5
CA
330
1F
100
AcDbEntity
  8
0
100
AcDbLine
 10
9.760482176405187
 20
-6.223247793547357
 30
0.0
 11
-7.465635885377748
 21
-6.233239127761522
 31
0.0
  0
LINE
  5
CB
330
1F
100
AcDbEntity
  8
0
100
AcDbLine
 10
-7.465635885377748
 20
-6.233239127761522
 30
0.0
 11
-7.466469035419911
 21
-17.93961711409268
 31
0.0
  0
LINE
  5
CC
330
1F
100
AcDbEntity
  8
0
100
AcDbLine
 10
-3.773551104519209
 20
-9.30940859496824
 30
0.0
 11
-3.772161825430798
 21
-14.85453182100898
 31
0.0
  0
LINE
  5
CD
330
1F
100
AcDbEntity
  8
0
100
AcDbLine
 10
6.078732216859036
 20
-14.84881390209639
 30
0.0
 11
1.153286422059754
 21
-14.85167286084086
 31
0.0
  0
LINE
  5
CE
330
1F
100
AcDbEntity
  8
0
100
AcDbLine
 10
6.072585800206648
 20
-9.303696197253943
 30
0.0
 11
1.149518573005221
 21
-9.3065523954003
 31
0.0
  0
LINE
  5
CF
330
1F
100
AcDbEntity
  8
0
100
AcDbLine
 10
1.149518573005221
 20
-9.3065523954003
 30
0.0
 11
-3.773551104519209
 21
-9.30940859496824
 31
0.0
  0
LINE
  5
D0
330
1F
100
AcDbEntity
  8
0
100
AcDbLine
 10
1.153286422059754
 20
-14.85167286084086
 30
0.0
 11
-3.772161825430798
 21
-14.85453182100898
 31
0.0
  0
LINE
  5
D1
330
1F
100
AcDbEntity
  8
0
100
AcDbLine
 10
31.24229321052566
 20
-7.599239838739496
 30
0.0
 11
31.62007271539235
 21
-8.120295046350403
 31
0.0
  0
LINE
  5
D2
330
1F
100
AcDbEntity
  8
0
100
AcDbLine
 10
31.62007271539235
 20
-8.120295046350403
 30
0.0
 11
31.85049492196961
 21
-8.721119511512585
 31
0.0
  0
LINE
  5
D3
330
1F
100
AcDbEntity
  8
0
100
AcDbLine
 10
31.85049492196961
 20
-8.721119511512585
 30
0.0
 11
31.91783659994569
 21
-9.360786236900413
 31
0.0
  0
LINE
  5
D4
330
1F
100
AcDbEntity
  8
0
100
AcDbLine
 10
31.91783659994569
 20
-9.360786236900413
 30
0.0
 11
31.81748179144296
 21
-9.995708553100105
 31
0.0
  0
LINE
  5
D5
330
1F
100
AcDbEntity
  8
0
100
AcDbLine
 10
31.81748179144296
 20
-9.995708553100105
 30
0.0
 11
31.55624354313415
 21
-10.58260898467735
 31
0.0
  0
LINE
  5
D6
330
1F
100
AcDbEntity
  8
0
100
AcDbLine
 10
31.55624354313415
 20
-10.58260898467735
 30
0.0
 11
31.15190656802491
 21
-11.08147083145182
 31
0.0
  0
LINE
  5
D7
330
1F
100
AcDbEntity
  8
0
100
AcDbLine
 10
31.15190656802491
 20
-11.08147083145182
 30
0.0
 11
30.63202013795582
 21
-11.45827070708544
 31
0.0
  0
LINE
  5
D8
330
1F
100
AcDbEntity
  8
0
100
AcDbLine
 10
30.63202013795582
 20
-11.45827070708544
 30
0.0
 11
30.03202215659309
 21
-11.68730435285755
 31
0.0
  0
LINE
  5
D9
330
1F
100
AcDbEntity
  8
0
100
AcDbLine
 10
30.03202215659309
 20
-11.68730435285755
 30
0.0
 11
29.39282184767757
 21
-11.75294530243553
 31
0.0
  0
LINE
  5
DA
330
1F
100
AcDbEntity
  8
0
100
AcDbLine
 10
29.39282184767757
 20
-11.75294530243553
 30
0.0
 11
28.75800640386563
 21
-11.65071468008031
 31
0.0
  0
LINE
  5
DB
330
1F
100
AcDbEntity
  8
0
100
AcDbLine
 10
28.75800640386563
 20
-11.65071468008031
 30
0.0
 11
28.17086342109104
 21
-11.38758791776167
 31
0.0
  0
LINE
  5
DC
330
1F
100
AcDbEntity
  8
0
100
AcDbLine
 10
28.17086342109104
 20
-11.38758791776167
 30
0.0
 11
27.67142395794903
 21
-10.98151708927413
 31
0.0
  0
LINE
  5
DD
330
1F
100
AcDbEntity
  8
0
100
AcDbLine
 10
27.67142395794903
 20
-10.98151708927413
 30
0.0
 11
27.29372959816958
 21
-10.46020203120395
 31
0.0
  0
LINE
  5
DE
330
1F
100
AcDbEntity
  8
0
100
AcDbLine
 10
27.29372959816958
 20
-10.46020203120395
 30
0.0
 11
27.06351107147187
 21
-9.859195465806653
 31
0.0
  0
LINE
  5
DF
330
1F
100
AcDbEntity
  8
0
100
AcDbLine
 10
27.06351107147187
 20
-9.859195465806653
 30
0.0
 11
26.99643703230902
 21
-9.219473184014337
 31
0.0
  0
LINE
  5
E0
330
1F
100
AcDbEntity
  8
0
100
AcDbLine
 10
26.99643703230902
 20
-9.219473184014337
 30
0.0
 11
27.09705172495877
 21
-8.584636741532757
 31
0.0
  0
LINE
  5
E1
330
1F
100
AcDbEntity
  8
0
100
AcDbLine
 10
27.09705172495877
 20
-8.584636741532757
 30
0.0
 11
27.35847246700468
 21
-7.997940604005462
 31
0.0
  0
LINE
  5
E2
330
1F
100
AcDbEntity
  8
0
100
AcDbLine
 10
27.35847246700468
 20
-7.997940604005462
 30
0.0
 11
27.76286564639118
 21
-7.499346731191492
 31
0.0
  0
LINE
  5
E3
330
1F
100
AcDbEntity
  8
0
100
AcDbLine
 10
27.76286564639118
 20
-7.499346731191492
 30
0.0
 11
28.28266693138283
 21
-7.122806706024388
 31
0.0
  0
LINE
  5
E4
330
1F
100
AcDbEntity
  8
0
100
AcDbLine
 10
28.28266693138283
 20
-7.122806706024388
 30
0.0
 11
28.88246123286461
 21
-6.893955160499496
 31
0.0
  0
LINE
  5
E5
330
1F
100
AcDbEntity
  8
0
100
AcDbLine
 10
28.88246123286461
 20
-6.893955160499496
 30
0.0
 11
29.52139390295572
 21
-6.82836976733082
 31
0.0
  0
LINE
  5
E6
330
1F
100
AcDbEntity
  8
0
100
AcDbLine
 10
29.52139390295572
 20
-6.82836976733082
 30
0.0
 11
30.15594946261091
 21
-6.930514515960666
 31
0.0
  0
LINE
  5
E7
330
1F
100
AcDbEntity
  8
0
100
AcDbLine
 10
30.15594946261091
 20
-6.930514515960666
 30
0.0
 11
30.74290995164974
 21
-7.193436984217294
 31
0.0
  0
LINE
  5
E8
330
1F
100
AcDbEntity
  8
0
100
AcDbLine
 10
30.74290995164974
 20
-7.193436984217294
 30
0.0
 11
31.24229321052566
 21
-7.599239838739496
 31
0.0
  0
LINE
  5
E9
330
1F
100
AcDbEntity
  8
0
100
AcDbLine
 10
-32.50787163301937
 20
6.150380117202305
 30
0.0
 11
-32.68007606359081
 21
6.221631439756989
 31
0.0
  0
LINE
  5
EA
330
1F
100
AcDbEntity
  8
0
100
AcDbLine
 10
-32.68007606359081
 20
6.221631439756989
 30
0.0
 11
-32.87806852090354
 21
6.30355281885607
 31
0.0
  0
LINE
  5
EB
330
1F
100
AcDbEntity
  8
0
100
AcDbLine
 10
-12.99920236261083
 20
-0.0847751747750739
 30
0.0
 11
-27.98219142024233
 21
-0.0934608107626933
 31
0.0
  0
LINE
  5
EC
330
1F
100
AcDbEntity
  8
0
100
AcDbLine
 10
-27.98219142024233
 20
-0.0934608107626933
 30
0.0
 11
-28.37145276225859
 21
-0.0936864654907185
 31
0.0
  0
LINE
  5
ED
330
1F
100
AcDbEntity
  8
0
100
AcDbLine
 10
-12.99920236261083
 20
-0.0847751747750739
 30
0.0
 11
36.30169498254409
 21
-0.0561954536956308
 31
0.0
  0
LINE
  5
EE
330
1F
100
AcDbEntity
  8
0
100
AcDbLine
 10
36.30169498254409
 20
-0.0561954536956308
 30
0.0
 11
36.80672483336747
 21
-0.0559026879844455
 31
0.0
  0
LINE
  5
EF
330
1F
100
AcDbEntity
  8
0
100
AcDbLine
 10
42.33153133074689
 20
18.21629032257542
 30
0.0
 11
41.9910587789561
 21
18.09944596432281
 31
0.0
  0
LINE
  5
F0
330
1F
100
AcDbEntity
  8
0
100
AcDbLine
 10
41.9910587789561
 20
18.09944596432281
 30
0.0
 11
41.95306331906757
 21
18.08640657214908
 31
0.0
  0
LINE
  5
F1
330
1F
100
AcDbEntity
  8
0
100
AcDbLine
 10
40.6230729009602
 20
20.73601470193668
 30
0.0
 11
40.76695694793692
 21
20.77173829908437
 31
0.0
  0
LINE
  5
F2
330
1F
100
AcDbEntity
  8
0
100
AcDbLine
 10
40.36106919061377
 20
20.43450438131398
 30
0.0
 11
40.6230729009602
 21
20.73601470193668
 31
0.0
  0
LINE
  5
F3
330
1F
100
AcDbEntity
  8
0
 62
   250
100
AcDbLine
 10
-38.663442334704
 20
-24.74604161311057
 30
0.0
 11
-61.22978735384842
 21
-24.75915143396315
 31
0.0
  0
LINE
  5
F4
330
1F
100
AcDbEntity
  8
0
 62
   250
100
AcDbLine
 10
-38.56798331647192
 20
9.729384294025992
 30
0.0
 11
-61.06605484230344
 21
9.716353344389008
 31
0.0
  0
LINE
  5
F5
330
1F
100
AcDbEntity
  8
0
 62
   250
100
AcDbLine
 10
-60.84358923816532
 20
-24.75892707383279
 30
0.0
 11
-60.76786273198758
 21
-8.700334104294871
 31
0.0
  0
LINE
  5
F6
330
1F
100
AcDbEntity
  8
0
 62
   250
100
AcDbLine
 10
-60.75649754842647
 20
-6.290228765437417
 30
0.0
 11
-60.68101525495585
 21
9.716576360457978
 31
0.0
  0
LINE
  5
F7
330
1F
100
AcDbEntity
  8
0
 62
   250
100
AcDbLine
 10
-27.96729986776965
 20
9.735524241264534
 30
0.0
 11
-17.14025766929317
 21
9.741795296161117
 31
0.0
  0
LINE
  5
F8
330
1F
100
AcDbEntity
  8
0
 62
   250
100
AcDbLine
 10
-27.98575262360881
 20
-0.0934628751916368
 30
0.0
 11
-17.14925731134633
 21
-0.0871809608618625
 31
0.0
  0
LINE
  5
F9
330
1F
100
AcDbEntity
  8
0
 62
   250
100
AcDbLine
 10
-17.52570953856956
 20
9.741572041297237
 30
0.0
 11
-17.52922877176118
 21
6.034243372444849
 31
0.0
  0
LINE
  5
FA
330
1F
100
AcDbEntity
  8
0
 62
   250
100
AcDbLine
 10
-17.53151659770312
 20
3.624138033587384
 30
0.0
 11
-17.53503983105826
 21
-0.0874045989172402
 31
0.0
  0
LINE
  5
FB
330
1F
100
AcDbEntity
  8
0
 62
   250
100
AcDbLine
 10
-32.41825142707475
 20
6.081588270880746
 30
0.0
 11
-34.14625547406602
 21
3.549463949930574
 31
0.0
  0
LINE
  5
FC
330
1F
100
AcDbEntity
  8
0
 62
   250
100
AcDbLine
 10
-26.87768166209769
 20
14.20044162556298
 30
0.0
 11
-32.41224856972224
 21
6.090384535637158
 31
0.0
  0
LINE
  5
FD
330
1F
100
AcDbEntity
  8
0
 62
   250
100
AcDbLine
 10
-26.87768166209769
 20
14.20044162556298
 30
0.0
 11
-25.33521424522893
 21
14.20044162556298
 31
0.0
  0
LINE
  5
FE
330
1F
100
AcDbEntity
  8
0
 62
   250
100
AcDbLine
 10
-28.37072127252103
 20
0.2924866951375437
 30
0.0
 11
-28.30321930916974
 21
35.92859366640405
 31
0.0
  0
LINE
  5
FF
330
1F
100
AcDbEntity
  8
0
 62
   250
100
AcDbLine
 10
36.80526148948095
 20
0.3302685631577401
 30
0.0
 11
36.67022415796232
 21
35.9661404479126
 31
0.0
  0
LINE
  5
100
330
1F
100
AcDbEntity
  8
0
 62
   250
100
AcDbLine
 10
-28.30394739150687
 20
35.54421936436167
 30
0.0
 11
1.002580951913418
 21
35.5611555579123
 31
0.0
  0
LINE
  5
101
330
1F
100
AcDbEntity
  8
0
 62
   250
100
AcDbLine
 10
7.365259046497058
 20
35.56483253890605
 30
0.0
 11
36.67168068298466
 21
35.581768670791
 31
0.0
  0
LINE
  5
102
330
1F
100
AcDbEntity
  8
0
 62
   250
100
AcDbLine
 10
-38.1815937704889
 20
10.11528397259318
 30
0.0
 11
-38.11056860602489
 21
35.92292547976071
 31
0.0
  0
LINE
  5
103
330
1F
100
AcDbEntity
  8
0
 62
   250
100
AcDbLine
 10
-28.35210413224926
 20
10.12097714616805
 30
0.0
 11
-28.30321931054588
 21
35.92859293990364
 31
0.0
  0
LINE
  5
104
330
1F
100
AcDbEntity
  8
0
 62
   250
100
AcDbLine
 10
-38.11162644090997
 20
35.53855152309717
 30
0.0
 11
-36.38912474789283
 21
35.53954695393502
 31
0.0
  0
LINE
  5
105
330
1F
100
AcDbEntity
  8
0
 62
   250
100
AcDbLine
 10
-30.02644665330917
 20
35.54322393492874
 30
0.0
 11
-28.30394739150687
 21
35.54421936436166
 31
0.0
  0
LINE
  5
106
330
1F
100
AcDbEntity
  8
0
 62
   250
100
AcDbLine
 10
55.19816339429
 20
10.16936966477459
 30
0.0
 11
55.05885707969422
 21
35.97676766059249
 31
0.0
  0
LINE
  5
107
330
1F
100
AcDbEntity
  8
0
 62
   250
100
AcDbLine
 10
36.76801799253262
 20
10.15869504985185
 30
0.0
 11
36.67022415489343
 21
35.96614125777657
 31
0.0
  0
LINE
  5
108
330
1F
100
AcDbEntity
  8
0
 62
   250
100
AcDbLine
 10
55.06093188897896
 20
35.59239578820414
 30
0.0
 11
49.48146856783648
 21
35.58917142571365
 31
0.0
  0
LINE
  5
109
330
1F
100
AcDbEntity
  8
0
 62
   250
100
AcDbLine
 10
42.25115255126416
 20
35.58499303822077
 30
0.0
 11
36.67168068298466
 21
35.581768670791
 31
0.0
  0
LINE
  5
10A
330
1F
100
AcDbEntity
  8
0
 62
   250
100
AcDbLine
 10
-38.66340097218016
 20
-24.74604158908118
 30
0.0
 11
-53.49007526651925
 21
-24.75465508159287
 31
0.0
  0
LINE
  5
10B
330
1F
100
AcDbEntity
  8
0
 62
   250
100
AcDbLine
 10
-38.58154398347538
 20
4.816992574831767
 30
0.0
 11
-53.36958245257877
 21
4.808423626991208
 31
0.0
  0
LINE
  5
10C
330
1F
100
AcDbEntity
  8
0
 62
   250
100
AcDbLine
 10
-53.1039601781981
 20
-24.7544307696969
 30
0.0
 11
-53.04900449254521
 21
-11.15890833629521
 31
0.0
  0
LINE
  5
10D
330
1F
100
AcDbEntity
  8
0
 62
   250
100
AcDbLine
 10
-53.03926238869878
 20
-8.748802997437771
 30
0.0
 11
-52.98446059993175
 21
4.808646786342225
 31
0.0
  0
LINE
  5
10E
330
1F
100
AcDbEntity
  8
0
 62
   250
100
AcDbLine
 10
-38.27646944314872
 20
-24.35865728799394
 30
0.0
 11
-38.15264317407877
 21
20.63474730942365
 31
0.0
  0
LINE
  5
10F
330
1F
100
AcDbEntity
  8
0
 62
   250
100
AcDbLine
 10
-33.34693582052717
 20
-24.35579354502001
 30
0.0
 11
-33.2424094533358
 21
20.63758862454925
 31
0.0
  0
LINE
  5
110
330
1F
100
AcDbEntity
  8
0
 62
   250
100
AcDbLine
 10
-24.62007574177649
 20
-14.14216746466821
 30
0.0
 11
-3.305557369624925
 21
10.17086910684657
 31
0.0
  0
LINE
  5
111
330
1F
100
AcDbEntity
  8
0
 62
   250
100
AcDbLine
 10
-3.305557369624922
 20
10.17086910684657
 30
0.0
 11
-1.763089952756162
 21
10.1708691068466
 31
0.0
  0
LINE
  5
112
330
1F
100
AcDbEntity
  8
0
 62
   250
100
AcDbLine
 10
-38.27859824990643
 20
-25.13217864560956
 30
0.0
 11
-38.28932649011738
 21
-29.03038260552193
 31
0.0
  0
LINE
  5
113
330
1F
100
AcDbEntity
  8
0
 62
   250
100
AcDbLine
 10
-35.81053152107346
 20
-23.89584750692334
 30
0.0
 11
-35.82355740421812
 21
-29.02894959355507
 31
0.0
  0
LINE
  5
114
330
1F
100
AcDbEntity
  8
0
 62
   250
100
AcDbLine
 10
55.1452016642442
 20
19.98087354243707
 30
0.0
 11
55.08160623271844
 21
31.76233956473058
 31
0.0
  0
LINE
  5
115
330
1F
100
AcDbEntity
  8
0
 62
   250
100
AcDbLine
 10
41.641338734212
 20
19.97305889452146
 30
0.0
 11
41.59164074768807
 21
31.75454112451294
 31
0.0
  0
LINE
  5
116
330
1F
100
AcDbEntity
  8
0
 62
   250
100
AcDbLine
 10
55.08368180715685
 20
31.37782594266297
 30
0.0
 11
51.95363258625638
 21
31.37601642562003
 31
0.0
  0
LINE
  5
117
330
1F
100
AcDbEntity
  8
0
 62
   250
100
AcDbLine
 10
44.72331656968408
 20
31.37183649772307
 30
0.0
 11
41.59326274893525
 21
31.37002697802105
 31
0.0
  0
LINE
  5
118
330
1F
100
AcDbEntity
  8
0
 62
   250
100
AcDbLine
 10
42.02866193268257
 20
19.58817361765579
 30
0.0
 11
58.86566025923844
 21
19.59791730572422
 31
0.0
  0
LINE
  5
119
330
1F
100
AcDbEntity
  8
0
 62
   250
100
AcDbLine
 10
41.98717727520988
 20
29.38346621631112
 30
0.0
 11
58.80960459755498
 21
29.3931931423329
 31
0.0
  0
LINE
  5
11A
330
1F
100
AcDbEntity
  8
0
 62
   250
100
AcDbLine
 10
58.47987950582571
 20
19.5976940517183
 30
0.0
 11
58.45886036615916
 21
23.29237564640172
 31
0.0
  0
LINE
  5
11B
330
1F
100
AcDbEntity
  8
0
 62
   250
100
AcDbLine
 10
58.44514921421541
 20
25.70248098525918
 30
0.0
 11
58.42415392470794
 21
29.39297027020464
 31
0.0
  0
LINE
  5
11C
330
1F
100
AcDbEntity
  8
0
 62
   250
100
AcDbLine
 10
55.47956842744073
 20
29.39126767611713
 30
0.0
 11
64.95149905297099
 21
29.39674445819576
 31
0.0
  0
LINE
  5
11D
330
1F
100
AcDbEntity
  8
0
 62
   250
100
AcDbLine
 10
55.77241072930054
 20
-24.69117951139764
 30
0.0
 11
65.29003762176708
 21
-24.68565028708612
 31
0.0
  0
LINE
  5
11E
330
1F
100
AcDbEntity
  8
0
 62
   250
100
AcDbLine
 10
64.56679086515308
 20
29.3965220153811
 30
0.0
 11
64.7272508790898
 21
3.624153011423258
 31
0.0
  0
LINE
  5
11F
330
1F
100
AcDbEntity
  8
0
 62
   250
100
AcDbLine
 10
64.74225631131074
 20
1.214047672565838
 30
0.0
 11
64.9035104795412
 21
-24.68587483836301
 31
0.0
  0
LINE
  5
120
330
1F
100
AcDbEntity
  8
0
 62
   250
100
AcDbLine
 10
40.27930967862709
 20
20.26635618626628
 30
0.0
 11
43.0184989442937
 21
18.9036333759116
 31
0.0
  0
LINE
  5
121
330
1F
100
AcDbEntity
  8
0
 62
   250
100
AcDbLine
 10
31.36295788749721
 20
24.70216357030355
 30
0.0
 11
40.26759196704423
 21
20.27218564575609
 31
0.0
  0
LINE
  5
122
330
1F
100
AcDbEntity
  8
0
 62
   250
100
AcDbLine
 10
31.36295788749721
 20
24.70216357030355
 30
0.0
 11
29.82049047062848
 21
24.70216357030358
 31
0.0
  0
LINE
  5
123
330
1F
100
AcDbEntity
  8
0
 62
   250
100
AcDbLine
 10
37.19258923536667
 20
-0.05567900246192
 30
0.0
 11
62.32273313911503
 21
-0.0411110626853398
 31
0.0
  0
LINE
  5
124
330
1F
100
AcDbEntity
  8
0
 62
   250
100
AcDbLine
 10
37.08054876451378
 20
29.38062914579654
 30
0.0
 11
62.14569236389168
 21
29.39512210765305
 31
0.0
  0
LINE
  5
125
330
1F
100
AcDbEntity
  8
0
 62
   250
100
AcDbLine
 10
61.93662138051367
 20
-0.0413348916004418
 30
0.0
 11
61.85569049432213
 21
13.49064353854473
 31
0.0
  0
LINE
  5
126
330
1F
100
AcDbEntity
  8
0
 62
   250
100
AcDbLine
 10
61.84127634476555
 20
15.90074887740217
 30
0.0
 11
61.76057169629409
 21
29.39489942633772
 31
0.0
  0
LINE
  5
127
330
1F
100
AcDbEntity
  8
0
 62
   250
100
AcDbLine
 10
-38.27859803772868
 20
-25.13210154889008
 30
0.0
 11
-38.30198331739827
 21
-33.62935627278842
 31
0.0
  0
LINE
  5
128
330
1F
100
AcDbEntity
  8
0
 62
   250
100
AcDbLine
 10
-7.466979654945725
 20
-25.11420137131108
 30
0.0
 11
-7.467584407827269
 21
-33.6114293151245
 31
0.0
  0
LINE
  5
129
330
1F
100
AcDbEntity
  8
0
 62
   250
100
AcDbLine
 10
-38.30091904599013
 20
-33.24264354674551
 30
0.0
 11
-26.49938395952687
 21
-33.23578242689694
 31
0.0
  0
LINE
  5
12A
330
1F
100
AcDbEntity
  8
0
 62
   250
100
AcDbLine
 10
-19.26906794295456
 20
-33.23157890045994
 30
0.0
 11
-7.467556885333118
 21
-33.2247177945811
 31
0.0
  0
LINE
  5
12B
330
1F
100
AcDbEntity
  8
0
 62
   250
100
AcDbLine
 10
-7.466891766693746
 20
-23.87930603892789
 30
0.0
 11
-7.467584407860731
 21
-33.61142978527647
 31
0.0
  0
LINE
  5
12C
330
1F
100
AcDbEntity
  8
0
 62
   250
100
AcDbLine
 10
9.78571863511707
 20
-23.86928411787146
 30
0.0
 11
9.799636996258554
 21
-33.60139071339427
 31
0.0
  0
LINE
  5
12D
330
1F
100
AcDbEntity
  8
0
 62
   250
100
AcDbLine
 10
-7.46755688533312
 20
-33.22471779458109
 30
0.0
 11
-2.449390712488138
 21
-33.22180035720711
 31
0.0
  0
LINE
  5
12E
330
1F
100
AcDbEntity
  8
0
 62
   250
100
AcDbLine
 10
4.78092530408421
 20
-33.21759683077009
 30
0.0
 11
9.799083941511828
 21
-33.21467939777695
 31
0.0
  0
LINE
  5
12F
330
1F
100
AcDbEntity
  8
0
 62
   250
100
AcDbLine
 10
-38.27647113561369
 20
-24.35927226058402
 30
0.0
 11
-38.25287779592377
 21
-15.78641703005743
 31
0.0
  0
LINE
  5
130
330
1F
100
AcDbEntity
  8
0
 62
   250
100
AcDbLine
 10
1.159731165427066
 20
-24.33636235430341
 30
0.0
 11
1.153906027003373
 21
-15.76354167607806
 31
0.0
  0
LINE
  5
131
330
1F
100
AcDbEntity
  8
0
 62
   250
100
AcDbLine
 10
-38.25394041648109
 20
-16.17252990439204
 30
0.0
 11
-22.16502439777264
 21
-16.16319009058354
 31
0.0
  0
LINE
  5
132
330
1F
100
AcDbEntity
  8
0
 62
   250
100
AcDbLine
 10
-14.93470838120031
 20
-16.15899280312842
 30
0.0
 11
1.154168385457342
 21
-16.1496530121062
 31
0.0
  0
LINE
  5
133
330
1F
100
AcDbEntity
  8
0
 62
   250
100
AcDbLine
 10
5.284218692089462
 20
-6.98670903909412
 30
0.0
 11
12.08875804700439
 21
-2.820970131772677
 31
0.0
  0
LINE
  5
134
330
1F
100
AcDbEntity
  8
0
 62
   250
100
AcDbLine
 10
12.08875804700439
 20
-2.820970131772677
 30
0.0
 11
13.63122546387314
 21
-2.820970131772648
 31
0.0
  0
LINE
  5
135
330
1F
100
AcDbEntity
  8
0
 62
   250
100
AcDbLine
 10
-7.852625699492815
 20
-24.72814220201557
 30
0.0
 11
-47.14263227724197
 21
-24.75096756195287
 31
0.0
  0
LINE
  5
136
330
1F
100
AcDbEntity
  8
0
 62
   250
100
AcDbLine
 10
-7.852028651821633
 20
-17.93984097098532
 30
0.0
 11
-47.11871375720369
 21
-17.96263930809809
 31
0.0
  0
LINE
  5
137
330
1F
100
AcDbEntity
  8
0
 62
   250
100
AcDbLine
 10
-46.75690061440107
 20
-24.75074347280627
 30
0.0
 11
-46.74925730569508
 21
-22.56062942934811
 31
0.0
  0
LINE
  5
138
330
1F
100
AcDbEntity
  8
0
 62
   250
100
AcDbLine
 10
-46.74084624638345
 20
-20.15052409049069
 30
0.0
 11
-46.73320993647778
 21
-17.96241548360057
 31
0.0
  0
LINE
  5
139
330
1F
100
AcDbEntity
  8
0
 62
   250
100
AcDbLine
 10
-7.852183951893601
 20
-17.93984106115294
 30
0.0
 11
-47.11902435858069
 21
-17.96263948843404
 31
0.0
  0
LINE
  5
13A
330
1F
100
AcDbEntity
  8
0
 62
   250
100
AcDbLine
 10
-7.851154189047236
 20
-6.233462732534445
 30
0.0
 11
-47.07777672045003
 21
-6.256214596558503
 31
0.0
  0
LINE
  5
13B
330
1F
100
AcDbEntity
  8
0
 62
   250
100
AcDbLine
 10
-46.73320993647778
 20
-17.96241548360057
 30
0.0
 11
-46.71697784625859
 21
-13.31127157310877
 31
0.0
  0
LINE
  5
13C
330
1F
100
AcDbEntity
  8
0
 62
   250
100
AcDbLine
 10
-46.70856678694696
 20
-10.90116623425132
 30
0.0
 11
-46.69235552705983
 21
-6.255991048110583
 31
0.0
  0
LINE
  5
13D
330
1F
100
AcDbEntity
  8
0
 62
   250
100
AcDbLine
 10
-37.89181082314486
 20
-24.74559333711053
 30
0.0
 11
4.167104825015493
 21
-24.72115939138588
 31
0.0
  0
LINE
  5
13E
330
1F
100
AcDbEntity
  8
0
 62
   250
100
AcDbLine
 10
-37.85722413311575
 20
-12.10107997141626
 30
0.0
 11
4.155204515046109
 21
-12.07669988555546
 31
0.0
  0
LINE
  5
13F
330
1F
100
AcDbEntity
  8
0
 62
   250
100
AcDbLine
 10
3.781275748213718
 20
-24.72138353712469
 30
0.0
 11
3.776628363347391
 21
-19.6007263158558
 31
0.0
  0
LINE
  5
140
330
1F
100
AcDbEntity
  8
0
 62
   250
100
AcDbLine
 10
3.774441009928848
 20
-17.19062097699836
 30
0.0
 11
3.769799941593135
 21
-12.07692353833856
 31
0.0
  0
LINE
  5
141
330
1F
100
AcDbEntity
  8
0
 62
   250
100
AcDbLine
 10
-38.27859791346896
 20
-25.13205639798783
 30
0.0
 11
-38.30941667980795
 21
-36.33033632274249
 31
0.0
  0
LINE
  5
142
330
1F
100
AcDbEntity
  8
0
 62
   250
100
AcDbLine
 10
29.50683557141173
 20
-25.09267608122523
 30
0.0
 11
29.54206447292274
 21
-36.29087856373308
 31
0.0
  0
LINE
  5
143
330
1F
100
AcDbEntity
  8
0
 62
   250
100
AcDbLine
 10
-38.30835215747099
 20
-35.94353241942279
 30
0.0
 11
-9.734127944841427
 21
-35.9269161728132
 31
0.0
  0
LINE
  5
144
330
1F
100
AcDbEntity
  8
0
 62
   250
100
AcDbLine
 10
0.9667397596856041
 20
-35.92069349270155
 30
0.0
 11
29.54084761841764
 21
-35.90407731375309
 31
0.0
  0
LINE
  5
145
330
1F
100
AcDbEntity
  8
0
 62
   250
100
AcDbLine
 10
55.00059416258307
 20
-24.69162789490466
 30
0.0
 11
29.2314559409727
 21
-24.70659836466059
 31
0.0
  0
LINE
  5
146
330
1F
100
AcDbEntity
  8
0
 62
   250
100
AcDbLine
 10
54.91763715545731
 20
-9.275357940086108
 30
0.0
 11
29.18332488730934
 21
-9.290288123162163
 31
0.0
  0
LINE
  5
147
330
1F
100
AcDbEntity
  8
0
 62
   250
100
AcDbLine
 10
29.6173311460316
 20
-24.70637419212376
 30
0.0
 11
29.59679322229472
 21
-18.19809860714179
 31
0.0
  0
LINE
  5
148
330
1F
100
AcDbEntity
  8
0
 62
   250
100
AcDbLine
 10
29.58918774231753
 20
-15.78799326828434
 30
0.0
 11
29.56868246980902
 21
-9.290064551644244
 31
0.0
  0
LINE
  5
149
330
1F
100
AcDbEntity
  8
0
 62
   250
100
AcDbLine
 10
30.6176254996047
 20
-8.396597562508548
 30
0.0
 11
34.46503243730503
 21
-4.652102360851941
 31
0.0
  0
LINE
  5
14A
330
1F
100
AcDbEntity
  8
0
 62
   250
100
AcDbLine
 10
34.46503243730503
 20
-4.652102360851941
 30
0.0
 11
36.0074998541738
 21
-4.652102360851941
 31
0.0
  0
POLYLINE
  5
14B
330
1F
100
AcDbEntity
  8
0
 62
   250
100
AcDbPolyFaceMesh
 66
     1
 10
0.0
 20
0.0
 30
0.0
 70
    64
 71
     3
 72
     1
  0
VERTEX
  5
14C
330
14B
100
AcDbEntity
  8
0
100
AcDbVertex
100
AcDbPolyFaceMeshVertex
 10
-60.45254414708469
 20
-23.59957749606355
 30
0.0
 70
   192
  0
VERTEX
  5
14D
330
14B
100
AcDbEntity
  8
0
100
AcDbVertex
100
AcDbPolyFaceMeshVertex
 10
-60.84358923816532
 20
-24.75892707383279
 30
0.0
 70
   192
  0
VERTEX
  5
14E
330
14B
100
AcDbEntity
  8
0
100
AcDbVertex
100
AcDbPolyFaceMeshVertex
 10
-61.22370231155551
 20
-23.60002545188977
 30
0.0
 70
   192
  0
VERTEX
  5
14F
330
14B
100
AcDbEntity
  8
0
 62
   250
100
AcDbFaceRecord
 10
0.0
 20
0.0
 30
0.0
 70
   128
 71
     1
 72
     2
 73
     3
  0
SEQEND
  5
150
330
14B
100
AcDbEntity
  8
0
 62
   250
  0
POLYLINE
  5
151
330
1F
100
AcDbEntity
  8
0
 62
   250
100
AcDbPolyFaceMesh
 66
     1
 10
0.0
 20
0.0
 30
0.0
 70
    64
 71
     3
 72
     1
  0
VERTEX
  5
152
330
151
100
AcDbEntity
  8
0
100
AcDbVertex
100
AcDbPolyFaceMeshVertex
 10
-60.3008091079655
 20
8.560918163426784
 30
0.0
 70
   192
  0
VERTEX
  5
153
330
151
100
AcDbEntity
  8
0
100
AcDbVertex
100
AcDbPolyFaceMeshVertex
 10
-61.0721228545835
 20
8.560471371153643
 30
0.0
 70
   192
  0
VERTEX
  5
154
330
151
100
AcDbEntity
  8
0
100
AcDbVertex
100
AcDbPolyFaceMeshVertex
 10
-60.68101525495585
 20
9.716576360457985
 30
0.0
 70
   192
  0
VERTEX
  5
155
330
151
100
AcDbEntity
  8
0
 62
   250
100
AcDbFaceRecord
 10
0.0
 20
0.0
 30
0.0
 70
   128
 71
     1
 72
     2
 73
     3
  0
SEQEND
  5
156
330
151
100
AcDbEntity
  8
0
 62
   250
  0
POLYLINE
  5
157
330
1F
100
AcDbEntity
  8
0
 62
   250
100
AcDbPolyFaceMesh
 66
     1
 10
0.0
 20
0.0
 30
0.0
 70
    64
 71
     3
 72
     1
  0
VERTEX
  5
158
330
157
100
AcDbEntity
  8
0
100
AcDbVertex
100
AcDbPolyFaceMeshVertex
 10
-17.14115074842347
 20
8.585916365329847
 30
0.0
 70
   192
  0
VERTEX
  5
159
330
157
100
AcDbEntity
  8
0
100
AcDbVertex
100
AcDbPolyFaceMeshVertex
 10
-17.91246281225386
 20
8.58546957403138
 30
0.0
 70
   192
  0
VERTEX
  5
15A
330
157
100
AcDbEntity
  8
0
100
AcDbVertex
100
AcDbPolyFaceMeshVertex
 10
-17.52570953856956
 20
9.741572041297244
 30
0.0
 70
   192
  0
VERTEX
  5
15B
330
157
100
AcDbEntity
  8
0
 62
   250
100
AcDbFaceRecord
 10
0.0
 20
0.0
 30
0.0
 70
   128
 71
     1
 72
     2
 73
     3
  0
SEQEND
  5
15C
330
157
100
AcDbEntity
  8
0
 62
   250
  0
POLYLINE
  5
15D
330
1F
100
AcDbEntity
  8
0
 62
   250
100
AcDbPolyFaceMesh
 66
     1
 10
0.0
 20
0.0
 30
0.0
 70
    64
 71
     3
 72
     1
  0
VERTEX
  5
15E
330
15D
100
AcDbEntity
  8
0
100
AcDbVertex
100
AcDbPolyFaceMeshVertex
 10
-17.14836364641539
 20
1.069456149859927
 30
0.0
 70
   192
  0
VERTEX
  5
15F
330
15D
100
AcDbEntity
  8
0
100
AcDbVertex
100
AcDbPolyFaceMeshVertex
 10
-17.53503983105826
 20
-0.0874045989172241
 30
0.0
 70
   192
  0
VERTEX
  5
160
330
15D
100
AcDbEntity
  8
0
100
AcDbVertex
100
AcDbPolyFaceMeshVertex
 10
-17.91952012280425
 20
1.06900915568105
 30
0.0
 70
   192
  0
VERTEX
  5
161
330
15D
100
AcDbEntity
  8
0
 62
   250
100
AcDbFaceRecord
 10
0.0
 20
0.0
 30
0.0
 70
   128
 71
     1
 72
     2
 73
     3
  0
SEQEND
  5
162
330
15D
100
AcDbEntity
  8
0
 62
   250
  0
POLYLINE
  5
163
330
1F
100
AcDbEntity
  8
0
 62
   250
100
AcDbPolyFaceMesh
 66
     1
 10
0.0
 20
0.0
 30
0.0
 70
    64
 71
     3
 72
     1
  0
VERTEX
  5
164
330
163
100
AcDbEntity
  8
0
100
AcDbVertex
100
AcDbPolyFaceMeshVertex
 10
-32.41224856972224
 20
6.090384535637155
 30
0.0
 70
   192
  0
VERTEX
  5
165
330
163
100
AcDbEntity
  8
0
100
AcDbVertex
100
AcDbPolyFaceMeshVertex
 10
-32.74657479321597
 20
4.91734252763763
 30
0.0
 70
   192
  0
VERTEX
  5
166
330
163
100
AcDbEntity
  8
0
100
AcDbVertex
100
AcDbPolyFaceMeshVertex
 10
-33.38337484868576
 20
5.350460749129432
 30
0.0
 70
   192
  0
VERTEX
  5
167
330
163
100
AcDbEntity
  8
0
 62
   250
100
AcDbFaceRecord
 10
0.0
 20
0.0
 30
0.0
 70
   128
 71
     1
 72
     2
 73
     3
  0
SEQEND
  5
168
330
163
100
AcDbEntity
  8
0
 62
   250
  0
POLYLINE
  5
169
330
1F
100
AcDbEntity
  8
0
 62
   250
100
AcDbPolyFaceMesh
 66
     1
 10
0.0
 20
0.0
 30
0.0
 70
    64
 71
     3
 72
     1
  0
VERTEX
  5
16A
330
169
100
AcDbEntity
  8
0
100
AcDbVertex
100
AcDbPolyFaceMeshVertex
 10
-33.17514263694819
 20
4.289456226605847
 30
0.0
 70
   192
  0
VERTEX
  5
16B
330
169
100
AcDbEntity
  8
0
100
AcDbVertex
100
AcDbPolyFaceMeshVertex
 10
-34.14625547406602
 20
3.549463949930574
 30
0.0
 70
   192
  0
VERTEX
  5
16C
330
169
100
AcDbEntity
  8
0
100
AcDbVertex
100
AcDbPolyFaceMeshVertex
 10
-33.81182023944116
 20
4.72252589435098
 30
0.0
 70
   192
  0
VERTEX
  5
16D
330
169
100
AcDbEntity
  8
0
 62
   250
100
AcDbFaceRecord
 10
0.0
 20
0.0
 30
0.0
 70
   128
 71
     1
 72
     2
 73
     3
  0
SEQEND
  5
16E
330
169
100
AcDbEntity
  8
0
 62
   250
  0
POLYLINE
  5
16F
330
1F
100
AcDbEntity
  8
0
 62
   250
100
AcDbPolyFaceMesh
 66
     1
 10
0.0
 20
0.0
 30
0.0
 70
    64
 71
     3
 72
     1
  0
VERTEX
  5
170
330
16F
100
AcDbEntity
  8
0
100
AcDbVertex
100
AcDbPolyFaceMeshVertex
 10
-27.14640625027771
 20
35.92926153303163
 30
0.0
 70
   192
  0
VERTEX
  5
171
330
16F
100
AcDbEntity
  8
0
100
AcDbVertex
100
AcDbPolyFaceMeshVertex
 10
-27.1477846675454
 20
35.16048843276662
 30
0.0
 70
   192
  0
VERTEX
  5
172
330
16F
100
AcDbEntity
  8
0
100
AcDbVertex
100
AcDbPolyFaceMeshVertex
 10
-28.30394739150687
 20
35.54421936436166
 30
0.0
 70
   192
  0
VERTEX
  5
173
330
16F
100
AcDbEntity
  8
0
 62
   250
100
AcDbFaceRecord
 10
0.0
 20
0.0
 30
0.0
 70
   128
 71
     1
 72
     2
 73
     3
  0
SEQEND
  5
174
330
16F
100
AcDbEntity
  8
0
 62
   250
  0
POLYLINE
  5
175
330
1F
100
AcDbEntity
  8
0
 62
   250
100
AcDbPolyFaceMesh
 66
     1
 10
0.0
 20
0.0
 30
0.0
 70
    64
 71
     3
 72
     1
  0
VERTEX
  5
176
330
175
100
AcDbEntity
  8
0
100
AcDbVertex
100
AcDbPolyFaceMeshVertex
 10
36.67168068298468
 20
35.581768670791
 30
0.0
 70
   192
  0
VERTEX
  5
177
330
175
100
AcDbEntity
  8
0
100
AcDbVertex
100
AcDbPolyFaceMeshVertex
 10
35.51625011892625
 20
35.19670182835393
 30
0.0
 70
   192
  0
VERTEX
  5
178
330
175
100
AcDbEntity
  8
0
100
AcDbVertex
100
AcDbPolyFaceMeshVertex
 10
35.51341475963322
 20
35.96547258339837
 30
0.0
 70
   192
  0
VERTEX
  5
179
330
175
100
AcDbEntity
  8
0
 62
   250
100
AcDbFaceRecord
 10
0.0
 20
0.0
 30
0.0
 70
   128
 71
     1
 72
     2
 73
     3
  0
SEQEND
  5
17A
330
175
100
AcDbEntity
  8
0
 62
   250
  0
POLYLINE
  5
17B
330
1F
100
AcDbEntity
  8
0
 62
   250
100
AcDbPolyFaceMesh
 66
     1
 10
0.0
 20
0.0
 30
0.0
 70
    64
 71
     3
 72
     1
  0
VERTEX
  5
17C
330
17B
100
AcDbEntity
  8
0
100
AcDbVertex
100
AcDbPolyFaceMeshVertex
 10
-36.95375497269632
 20
35.92359388266256
 30
0.0
 70
   192
  0
VERTEX
  5
17D
330
17B
100
AcDbEntity
  8
0
100
AcDbVertex
100
AcDbPolyFaceMeshVertex
 10
-36.95579291902507
 20
35.15482040125681
 30
0.0
 70
   192
  0
VERTEX
  5
17E
330
17B
100
AcDbEntity
  8
0
100
AcDbVertex
100
AcDbPolyFaceMeshVertex
 10
-38.11162644090997
 20
35.53855152309718
 30
0.0
 70
   192
  0
VERTEX
  5
17F
330
17B
100
AcDbEntity
  8
0
 62
   250
100
AcDbFaceRecord
 10
0.0
 20
0.0
 30
0.0
 70
   128
 71
     1
 72
     2
 73
     3
  0
SEQEND
  5
180
330
17B
100
AcDbEntity
  8
0
 62
   250
  0
POLYLINE
  5
181
330
1F
100
AcDbEntity
  8
0
 62
   250
100
AcDbPolyFaceMesh
 66
     1
 10
0.0
 20
0.0
 30
0.0
 70
    64
 71
     3
 72
     1
  0
VERTEX
  5
182
330
181
100
AcDbEntity
  8
0
100
AcDbVertex
100
AcDbPolyFaceMeshVertex
 10
-28.30394739150687
 20
35.54421936436166
 30
0.0
 70
   192
  0
VERTEX
  5
183
330
181
100
AcDbEntity
  8
0
100
AcDbVertex
100
AcDbPolyFaceMeshVertex
 10
-29.46156651098776
 20
35.15915125716208
 30
0.0
 70
   192
  0
VERTEX
  5
184
330
181
100
AcDbEntity
  8
0
100
AcDbVertex
100
AcDbPolyFaceMeshVertex
 10
-29.46003250574673
 20
35.92792453725495
 30
0.0
 70
   192
  0
VERTEX
  5
185
330
181
100
AcDbEntity
  8
0
 62
   250
100
AcDbFaceRecord
 10
0.0
 20
0.0
 30
0.0
 70
   128
 71
     1
 72
     2
 73
     3
  0
SEQEND
  5
186
330
181
100
AcDbEntity
  8
0
 62
   250
  0
POLYLINE
  5
187
330
1F
100
AcDbEntity
  8
0
 62
   250
100
AcDbPolyFaceMesh
 66
     1
 10
0.0
 20
0.0
 30
0.0
 70
    64
 71
     3
 72
     1
  0
VERTEX
  5
188
330
187
100
AcDbEntity
  8
0
100
AcDbVertex
100
AcDbPolyFaceMeshVertex
 10
55.06093188897898
 20
35.59239578820414
 30
0.0
 70
   192
  0
VERTEX
  5
189
330
187
100
AcDbEntity
  8
0
100
AcDbVertex
100
AcDbPolyFaceMeshVertex
 10
53.9061207247884
 20
35.20732930371722
 30
0.0
 70
   192
  0
VERTEX
  5
18A
330
187
100
AcDbEntity
  8
0
100
AcDbVertex
100
AcDbPolyFaceMeshVertex
 10
53.90204875810259
 20
35.97609934412831
 30
0.0
 70
   192
  0
VERTEX
  5
18B
330
187
100
AcDbEntity
  8
0
 62
   250
100
AcDbFaceRecord
 10
0.0
 20
0.0
 30
0.0
 70
   128
 71
     1
 72
     2
 73
     3
  0
SEQEND
  5
18C
330
187
100
AcDbEntity
  8
0
 62
   250
  0
POLYLINE
  5
18D
330
1F
100
AcDbEntity
  8
0
 62
   250
100
AcDbPolyFaceMesh
 66
     1
 10
0.0
 20
0.0
 30
0.0
 70
    64
 71
     3
 72
     1
  0
VERTEX
  5
18E
330
18D
100
AcDbEntity
  8
0
100
AcDbVertex
100
AcDbPolyFaceMeshVertex
 10
37.83002436245871
 20
35.19803899956649
 30
0.0
 70
   192
  0
VERTEX
  5
18F
330
18D
100
AcDbEntity
  8
0
100
AcDbVertex
100
AcDbPolyFaceMeshVertex
 10
36.67168068298468
 20
35.581768670791
 30
0.0
 70
   192
  0
VERTEX
  5
190
330
18D
100
AcDbEntity
  8
0
100
AcDbVertex
100
AcDbPolyFaceMeshVertex
 10
37.82703341621441
 20
35.96680957478366
 30
0.0
 70
   192
  0
VERTEX
  5
191
330
18D
100
AcDbEntity
  8
0
 62
   250
100
AcDbFaceRecord
 10
0.0
 20
0.0
 30
0.0
 70
   128
 71
     1
 72
     2
 73
     3
  0
SEQEND
  5
192
330
18D
100
AcDbEntity
  8
0
 62
   250
  0
POLYLINE
  5
193
330
1F
100
AcDbEntity
  8
0
 62
   250
100
AcDbPolyFaceMesh
 66
     1
 10
0.0
 20
0.0
 30
0.0
 70
    64
 71
     3
 72
     1
  0
VERTEX
  5
194
330
193
100
AcDbEntity
  8
0
100
AcDbVertex
100
AcDbPolyFaceMeshVertex
 10
-52.71369585016978
 20
-23.59508164550857
 30
0.0
 70
   192
  0
VERTEX
  5
195
330
193
100
AcDbEntity
  8
0
100
AcDbVertex
100
AcDbPolyFaceMeshVertex
 10
-53.1039601781981
 20
-24.75443076969688
 30
0.0
 70
   192
  0
VERTEX
  5
196
330
193
100
AcDbEntity
  8
0
100
AcDbVertex
100
AcDbPolyFaceMeshVertex
 10
-53.4848537129651
 20
-23.59552960115954
 30
0.0
 70
   192
  0
VERTEX
  5
197
330
193
100
AcDbEntity
  8
0
 62
   250
100
AcDbFaceRecord
 10
0.0
 20
0.0
 30
0.0
 70
   128
 71
     1
 72
     2
 73
     3
  0
SEQEND
  5
198
330
193
100
AcDbEntity
  8
0
 62
   250
  0
POLYLINE
  5
199
330
1F
100
AcDbEntity
  8
0
 62
   250
100
AcDbPolyFaceMesh
 66
     1
 10
0.0
 20
0.0
 30
0.0
 70
    64
 71
     3
 72
     1
  0
VERTEX
  5
19A
330
199
100
AcDbEntity
  8
0
100
AcDbVertex
100
AcDbPolyFaceMeshVertex
 10
-52.60347817861346
 20
3.652493575645503
 30
0.0
 70
   192
  0
VERTEX
  5
19B
330
199
100
AcDbEntity
  8
0
100
AcDbVertex
100
AcDbPolyFaceMeshVertex
 10
-53.37479162511388
 20
3.652046591993732
 30
0.0
 70
   192
  0
VERTEX
  5
19C
330
199
100
AcDbEntity
  8
0
100
AcDbVertex
100
AcDbPolyFaceMeshVertex
 10
-52.98446059993177
 20
4.808646786342228
 30
0.0
 70
   192
  0
VERTEX
  5
19D
330
199
100
AcDbEntity
  8
0
 62
   250
100
AcDbFaceRecord
 10
0.0
 20
0.0
 30
0.0
 70
   128
 71
     1
 72
     2
 73
     3
  0
SEQEND
  5
19E
330
199
100
AcDbEntity
  8
0
 62
   250
  0
POLYLINE
  5
19F
330
1F
100
AcDbEntity
  8
0
 62
   250
100
AcDbPolyFaceMesh
 66
     1
 10
0.0
 20
0.0
 30
0.0
 70
    64
 71
     3
 72
     1
  0
VERTEX
  5
1A0
330
19F
100
AcDbEntity
  8
0
100
AcDbVertex
100
AcDbPolyFaceMeshVertex
 10
-36.99582953815906
 20
20.63541665384225
 30
0.0
 70
   192
  0
VERTEX
  5
1A1
330
19F
100
AcDbEntity
  8
0
100
AcDbVertex
100
AcDbPolyFaceMeshVertex
 10
-36.99787031393738
 20
19.86561506611965
 30
0.0
 70
   192
  0
VERTEX
  5
1A2
330
19F
100
AcDbEntity
  8
0
100
AcDbVertex
100
AcDbPolyFaceMeshVertex
 10
-38.15370242351047
 20
20.24985936433756
 30
0.0
 70
   192
  0
VERTEX
  5
1A3
330
19F
100
AcDbEntity
  8
0
 62
   250
100
AcDbFaceRecord
 10
0.0
 20
0.0
 30
0.0
 70
   128
 71
     1
 72
     2
 73
     3
  0
SEQEND
  5
1A4
330
19F
100
AcDbEntity
  8
0
 62
   250
  0
POLYLINE
  5
1A5
330
1F
100
AcDbEntity
  8
0
 62
   250
100
AcDbPolyFaceMesh
 66
     1
 10
0.0
 20
0.0
 30
0.0
 70
    64
 71
     3
 72
     1
  0
VERTEX
  5
1A6
330
1A5
100
AcDbEntity
  8
0
100
AcDbVertex
100
AcDbPolyFaceMeshVertex
 10
-33.243303605248
 20
20.25270087053399
 30
0.0
 70
   192
  0
VERTEX
  5
1A7
330
1A5
100
AcDbEntity
  8
0
100
AcDbVertex
100
AcDbPolyFaceMeshVertex
 10
-34.40108909564588
 20
19.867117703508
 30
0.0
 70
   192
  0
VERTEX
  5
1A8
330
1A5
100
AcDbEntity
  8
0
100
AcDbVertex
100
AcDbPolyFaceMeshVertex
 10
-34.39922293743457
 20
20.63691928021853
 30
0.0
 70
   192
  0
VERTEX
  5
1A9
330
1A5
100
AcDbEntity
  8
0
 62
   250
100
AcDbFaceRecord
 10
0.0
 20
0.0
 30
0.0
 70
   128
 71
     1
 72
     2
 73
     3
  0
SEQEND
  5
1AA
330
1A5
100
AcDbEntity
  8
0
 62
   250
  0
POLYLINE
  5
1AB
330
1F
100
AcDbEntity
  8
0
 62
   250
100
AcDbPolyFaceMesh
 66
     1
 10
0.0
 20
0.0
 30
0.0
 70
    64
 71
     3
 72
     1
  0
VERTEX
  5
1AC
330
1AB
100
AcDbEntity
  8
0
100
AcDbVertex
100
AcDbPolyFaceMeshVertex
 10
-24.03353571737719
 20
-13.86382968896611
 30
0.0
 70
   192
  0
VERTEX
  5
1AD
330
1AB
100
AcDbEntity
  8
0
100
AcDbVertex
100
AcDbPolyFaceMeshVertex
 10
-24.62007574177649
 20
-14.14216746466821
 30
0.0
 70
   192
  0
VERTEX
  5
1AE
330
1AB
100
AcDbEntity
  8
0
100
AcDbVertex
100
AcDbPolyFaceMeshVertex
 10
-24.40937960697254
 20
-13.5111142066903
 30
0.0
 70
   192
  0
VERTEX
  5
1AF
330
1AB
100
AcDbEntity
  8
0
 62
   250
100
AcDbFaceRecord
 10
0.0
 20
0.0
 30
0.0
 70
   128
 71
     1
 72
     2
 73
     3
  0
SEQEND
  5
1B0
330
1AB
100
AcDbEntity
  8
0
 62
   250
  0
POLYLINE
  5
1B1
330
1F
100
AcDbEntity
  8
0
 62
   250
100
AcDbPolyFaceMesh
 66
     1
 10
0.0
 20
0.0
 30
0.0
 70
    64
 71
     3
 72
     1
  0
VERTEX
  5
1B2
330
1B1
100
AcDbEntity
  8
0
100
AcDbVertex
100
AcDbPolyFaceMeshVertex
 10
-37.13038522763469
 20
-28.25662073801498
 30
0.0
 70
   192
  0
VERTEX
  5
1B3
330
1B1
100
AcDbEntity
  8
0
100
AcDbVertex
100
AcDbPolyFaceMeshVertex
 10
-37.13243505207541
 20
-29.02971023977297
 30
0.0
 70
   192
  0
VERTEX
  5
1B4
330
1B1
100
AcDbEntity
  8
0
100
AcDbVertex
100
AcDbPolyFaceMeshVertex
 10
-38.28826264503412
 20
-28.64382478850825
 30
0.0
 70
   192
  0
VERTEX
  5
1B5
330
1B1
100
AcDbEntity
  8
0
 62
   250
100
AcDbFaceRecord
 10
0.0
 20
0.0
 30
0.0
 70
   128
 71
     1
 72
     2
 73
     3
  0
SEQEND
  5
1B6
330
1B1
100
AcDbEntity
  8
0
 62
   250
  0
POLYLINE
  5
1B7
330
1F
100
AcDbEntity
  8
0
 62
   250
100
AcDbPolyFaceMesh
 66
     1
 10
0.0
 20
0.0
 30
0.0
 70
    64
 71
     3
 72
     1
  0
VERTEX
  5
1B8
330
1B7
100
AcDbEntity
  8
0
100
AcDbVertex
100
AcDbPolyFaceMeshVertex
 10
-35.82257646606164
 20
-28.64239187290437
 30
0.0
 70
   192
  0
VERTEX
  5
1B9
330
1B7
100
AcDbEntity
  8
0
100
AcDbVertex
100
AcDbPolyFaceMeshVertex
 10
-36.98044883336666
 20
-29.02962195929885
 30
0.0
 70
   192
  0
VERTEX
  5
1BA
330
1B7
100
AcDbEntity
  8
0
100
AcDbVertex
100
AcDbPolyFaceMeshVertex
 10
-36.97840922883868
 20
-28.25653237306147
 30
0.0
 70
   192
  0
VERTEX
  5
1BB
330
1B7
100
AcDbEntity
  8
0
 62
   250
100
AcDbFaceRecord
 10
0.0
 20
0.0
 30
0.0
 70
   128
 71
     1
 72
     2
 73
     3
  0
SEQEND
  5
1BC
330
1B7
100
AcDbEntity
  8
0
 62
   250
  0
POLYLINE
  5
1BD
330
1F
100
AcDbEntity
  8
0
 62
   250
100
AcDbPolyFaceMesh
 66
     1
 10
0.0
 20
0.0
 30
0.0
 70
    64
 71
     3
 72
     1
  0
VERTEX
  5
1BE
330
1BD
100
AcDbEntity
  8
0
100
AcDbVertex
100
AcDbPolyFaceMeshVertex
 10
55.08368180715684
 20
31.37782594266296
 30
0.0
 70
   192
  0
VERTEX
  5
1BF
330
1BD
100
AcDbEntity
  8
0
100
AcDbVertex
100
AcDbPolyFaceMeshVertex
 10
53.92887140924523
 20
30.99261750003017
 30
0.0
 70
   192
  0
VERTEX
  5
1C0
330
1BD
100
AcDbEntity
  8
0
100
AcDbVertex
100
AcDbPolyFaceMeshVertex
 10
53.92479791271371
 20
31.76167095427743
 30
0.0
 70
   192
  0
VERTEX
  5
1C1
330
1BD
100
AcDbEntity
  8
0
 62
   250
100
AcDbFaceRecord
 10
0.0
 20
0.0
 30
0.0
 70
   128
 71
     1
 72
     2
 73
     3
  0
SEQEND
  5
1C2
330
1BD
100
AcDbEntity
  8
0
 62
   250
  0
POLYLINE
  5
1C3
330
1F
100
AcDbEntity
  8
0
 62
   250
100
AcDbPolyFaceMesh
 66
     1
 10
0.0
 20
0.0
 30
0.0
 70
    64
 71
     3
 72
     1
  0
VERTEX
  5
1C4
330
1C3
100
AcDbEntity
  8
0
100
AcDbVertex
100
AcDbPolyFaceMeshVertex
 10
42.7517716249892
 20
30.98615593653917
 30
0.0
 70
   192
  0
VERTEX
  5
1C5
330
1C3
100
AcDbEntity
  8
0
100
AcDbVertex
100
AcDbPolyFaceMeshVertex
 10
41.59326274893523
 20
31.37002697802102
 30
0.0
 70
   192
  0
VERTEX
  5
1C6
330
1C3
100
AcDbEntity
  8
0
100
AcDbVertex
100
AcDbPolyFaceMeshVertex
 10
42.74844972109604
 20
31.75520973534369
 30
0.0
 70
   192
  0
VERTEX
  5
1C7
330
1C3
100
AcDbEntity
  8
0
 62
   250
100
AcDbFaceRecord
 10
0.0
 20
0.0
 30
0.0
 70
   128
 71
     1
 72
     2
 73
     3
  0
SEQEND
  5
1C8
330
1C3
100
AcDbEntity
  8
0
 62
   250
  0
POLYLINE
  5
1C9
330
1F
100
AcDbEntity
  8
0
 62
   250
100
AcDbPolyFaceMesh
 66
     1
 10
0.0
 20
0.0
 30
0.0
 70
    64
 71
     3
 72
     1
  0
VERTEX
  5
1CA
330
1C9
100
AcDbEntity
  8
0
100
AcDbVertex
100
AcDbPolyFaceMeshVertex
 10
58.85888741076393
 20
20.75256899502747
 30
0.0
 70
   192
  0
VERTEX
  5
1CB
330
1C9
100
AcDbEntity
  8
0
100
AcDbVertex
100
AcDbPolyFaceMeshVertex
 10
58.47987950582571
 20
19.59769405171829
 30
0.0
 70
   192
  0
VERTEX
  5
1CC
330
1C9
100
AcDbEntity
  8
0
100
AcDbVertex
100
AcDbPolyFaceMeshVertex
 10
58.0877338972869
 20
20.75212276813496
 30
0.0
 70
   192
  0
VERTEX
  5
1CD
330
1C9
100
AcDbEntity
  8
0
 62
   250
100
AcDbFaceRecord
 10
0.0
 20
0.0
 30
0.0
 70
   128
 71
     1
 72
     2
 73
     3
  0
SEQEND
  5
1CE
330
1C9
100
AcDbEntity
  8
0
 62
   250
  0
POLYLINE
  5
1CF
330
1F
100
AcDbEntity
  8
0
 62
   250
100
AcDbPolyFaceMesh
 66
     1
 10
0.0
 20
0.0
 30
0.0
 70
    64
 71
     3
 72
     1
  0
VERTEX
  5
1D0
330
1CF
100
AcDbEntity
  8
0
100
AcDbVertex
100
AcDbPolyFaceMeshVertex
 10
58.81637301636027
 20
28.23929663381688
 30
0.0
 70
   192
  0
VERTEX
  5
1D1
330
1CF
100
AcDbEntity
  8
0
100
AcDbVertex
100
AcDbPolyFaceMeshVertex
 10
58.04506391410064
 20
28.23885060880031
 30
0.0
 70
   192
  0
VERTEX
  5
1D2
330
1CF
100
AcDbEntity
  8
0
100
AcDbVertex
100
AcDbPolyFaceMeshVertex
 10
58.42415392470794
 20
29.39297027020462
 30
0.0
 70
   192
  0
VERTEX
  5
1D3
330
1CF
100
AcDbEntity
  8
0
 62
   250
100
AcDbFaceRecord
 10
0.0
 20
0.0
 30
0.0
 70
   128
 71
     1
 72
     2
 73
     3
  0
SEQEND
  5
1D4
330
1CF
100
AcDbEntity
  8
0
 62
   250
  0
POLYLINE
  5
1D5
330
1F
100
AcDbEntity
  8
0
 62
   250
100
AcDbPolyFaceMesh
 66
     1
 10
0.0
 20
0.0
 30
0.0
 70
    64
 71
     3
 72
     1
  0
VERTEX
  5
1D6
330
1D5
100
AcDbEntity
  8
0
100
AcDbVertex
100
AcDbPolyFaceMeshVertex
 10
64.9596295030279
 20
28.24284873722227
 30
0.0
 70
   192
  0
VERTEX
  5
1D7
330
1D5
100
AcDbEntity
  8
0
100
AcDbVertex
100
AcDbPolyFaceMeshVertex
 10
64.18832064029277
 20
28.24240271234421
 30
0.0
 70
   192
  0
VERTEX
  5
1D8
330
1D5
100
AcDbEntity
  8
0
100
AcDbVertex
100
AcDbPolyFaceMeshVertex
 10
64.56679086515307
 20
29.39652201538109
 30
0.0
 70
   192
  0
VERTEX
  5
1D9
330
1D5
100
AcDbEntity
  8
0
 62
   250
100
AcDbFaceRecord
 10
0.0
 20
0.0
 30
0.0
 70
   128
 71
     1
 72
     2
 73
     3
  0
SEQEND
  5
1DA
330
1D5
100
AcDbEntity
  8
0
 62
   250
  0
POLYLINE
  5
1DB
330
1F
100
AcDbEntity
  8
0
 62
   250
100
AcDbPolyFaceMesh
 66
     1
 10
0.0
 20
0.0
 30
0.0
 70
    64
 71
     3
 72
     1
  0
VERTEX
  5
1DC
330
1DB
100
AcDbEntity
  8
0
100
AcDbVertex
100
AcDbPolyFaceMeshVertex
 10
65.28187037749005
 20
-23.52653263000205
 30
0.0
 70
   192
  0
VERTEX
  5
1DD
330
1DB
100
AcDbEntity
  8
0
100
AcDbVertex
100
AcDbPolyFaceMeshVertex
 10
64.90351047954118
 20
-24.68587483836303
 30
0.0
 70
   192
  0
VERTEX
  5
1DE
330
1DB
100
AcDbEntity
  8
0
100
AcDbVertex
100
AcDbPolyFaceMeshVertex
 10
64.51071711439351
 20
-23.52698058298084
 30
0.0
 70
   192
  0
VERTEX
  5
1DF
330
1DB
100
AcDbEntity
  8
0
 62
   250
100
AcDbFaceRecord
 10
0.0
 20
0.0
 30
0.0
 70
   128
 71
     1
 72
     2
 73
     3
  0
SEQEND
  5
1E0
330
1DB
100
AcDbEntity
  8
0
 62
   250
  0
POLYLINE
  5
1E1
330
1F
100
AcDbEntity
  8
0
 62
   250
100
AcDbPolyFaceMesh
 66
     1
 10
0.0
 20
0.0
 30
0.0
 70
    64
 71
     3
 72
     1
  0
VERTEX
  5
1E2
330
1E1
100
AcDbEntity
  8
0
100
AcDbVertex
100
AcDbPolyFaceMeshVertex
 10
41.47548244041122
 20
20.10073377688892
 30
0.0
 70
   192
  0
VERTEX
  5
1E3
330
1E1
100
AcDbEntity
  8
0
100
AcDbVertex
100
AcDbPolyFaceMeshVertex
 10
41.1334370775253
 20
19.4119462769534
 30
0.0
 70
   192
  0
VERTEX
  5
1E4
330
1E1
100
AcDbEntity
  8
0
100
AcDbVertex
100
AcDbPolyFaceMeshVertex
 10
40.26759196704423
 20
20.27218564575609
 30
0.0
 70
   192
  0
VERTEX
  5
1E5
330
1E1
100
AcDbEntity
  8
0
 62
   250
100
AcDbFaceRecord
 10
0.0
 20
0.0
 30
0.0
 70
   128
 71
     1
 72
     2
 73
     3
  0
SEQEND
  5
1E6
330
1E1
100
AcDbEntity
  8
0
 62
   250
  0
POLYLINE
  5
1E7
330
1F
100
AcDbEntity
  8
0
 62
   250
100
AcDbPolyFaceMesh
 66
     1
 10
0.0
 20
0.0
 30
0.0
 70
    64
 71
     3
 72
     1
  0
VERTEX
  5
1E8
330
1E7
100
AcDbEntity
  8
0
100
AcDbVertex
100
AcDbPolyFaceMeshVertex
 10
43.0184989442937
 20
18.9036333759116
 30
0.0
 70
   192
  0
VERTEX
  5
1E9
330
1E7
100
AcDbEntity
  8
0
100
AcDbVertex
100
AcDbPolyFaceMeshVertex
 10
41.81060345181211
 20
19.07510060570888
 30
0.0
 70
   192
  0
VERTEX
  5
1EA
330
1E7
100
AcDbEntity
  8
0
100
AcDbVertex
100
AcDbPolyFaceMeshVertex
 10
42.15257725469844
 20
19.76384630262823
 30
0.0
 70
   192
  0
VERTEX
  5
1EB
330
1E7
100
AcDbEntity
  8
0
 62
   250
100
AcDbFaceRecord
 10
0.0
 20
0.0
 30
0.0
 70
   128
 71
     1
 72
     2
 73
     3
  0
SEQEND
  5
1EC
330
1E7
100
AcDbEntity
  8
0
 62
   250
  0
POLYLINE
  5
1ED
330
1F
100
AcDbEntity
  8
0
 62
   250
100
AcDbPolyFaceMesh
 66
     1
 10
0.0
 20
0.0
 30
0.0
 70
    64
 71
     3
 72
     1
  0
VERTEX
  5
1EE
330
1ED
100
AcDbEntity
  8
0
100
AcDbVertex
100
AcDbPolyFaceMeshVertex
 10
62.3152805741227
 20
1.115521209728475
 30
0.0
 70
   192
  0
VERTEX
  5
1EF
330
1ED
100
AcDbEntity
  8
0
100
AcDbVertex
100
AcDbPolyFaceMeshVertex
 10
61.93662138051369
 20
-0.0413348916004564
 30
0.0
 70
   192
  0
VERTEX
  5
1F0
330
1ED
100
AcDbEntity
  8
0
100
AcDbVertex
100
AcDbPolyFaceMeshVertex
 10
61.54412719538266
 20
1.115074217345304
 30
0.0
 70
   192
  0
VERTEX
  5
1F1
330
1ED
100
AcDbEntity
  8
0
 62
   250
100
AcDbFaceRecord
 10
0.0
 20
0.0
 30
0.0
 70
   128
 71
     1
 72
     2
 73
     3
  0
SEQEND
  5
1F2
330
1ED
100
AcDbEntity
  8
0
 62
   250
  0
POLYLINE
  5
1F3
330
1F
100
AcDbEntity
  8
0
 62
   250
100
AcDbPolyFaceMesh
 66
     1
 10
0.0
 20
0.0
 30
0.0
 70
    64
 71
     3
 72
     1
  0
VERTEX
  5
1F4
330
1F3
100
AcDbEntity
  8
0
100
AcDbVertex
100
AcDbPolyFaceMeshVertex
 10
62.15312729896721
 20
28.24122598452459
 30
0.0
 70
   192
  0
VERTEX
  5
1F5
330
1F3
100
AcDbEntity
  8
0
100
AcDbVertex
100
AcDbPolyFaceMeshVertex
 10
61.38181832680705
 20
28.24077995958326
 30
0.0
 70
   192
  0
VERTEX
  5
1F6
330
1F3
100
AcDbEntity
  8
0
100
AcDbVertex
100
AcDbPolyFaceMeshVertex
 10
61.76057169629411
 20
29.3948994263377
 30
0.0
 70
   192
  0
VERTEX
  5
1F7
330
1F3
100
AcDbEntity
  8
0
 62
   250
100
AcDbFaceRecord
 10
0.0
 20
0.0
 30
0.0
 70
   128
 71
     1
 72
     2
 73
     3
  0
SEQEND
  5
1F8
330
1F3
100
AcDbEntity
  8
0
 62
   250
  0
POLYLINE
  5
1F9
330
1F
100
AcDbEntity
  8
0
 62
   250
100
AcDbPolyFaceMesh
 66
     1
 10
0.0
 20
0.0
 30
0.0
 70
    64
 71
     3
 72
     1
  0
VERTEX
  5
1FA
330
1F9
100
AcDbEntity
  8
0
100
AcDbVertex
100
AcDbPolyFaceMeshVertex
 10
-37.1430412023175
 20
-32.85528460599482
 30
0.0
 70
   192
  0
VERTEX
  5
1FB
330
1F9
100
AcDbEntity
  8
0
100
AcDbVertex
100
AcDbPolyFaceMeshVertex
 10
-37.14509187785298
 20
-33.62868336079854
 30
0.0
 70
   192
  0
VERTEX
  5
1FC
330
1F9
100
AcDbEntity
  8
0
100
AcDbVertex
100
AcDbPolyFaceMeshVertex
 10
-38.30091904599013
 20
-33.24264354674551
 30
0.0
 70
   192
  0
VERTEX
  5
1FD
330
1F9
100
AcDbEntity
  8
0
 62
   250
100
AcDbFaceRecord
 10
0.0
 20
0.0
 30
0.0
 70
   128
 71
     1
 72
     2
 73
     3
  0
SEQEND
  5
1FE
330
1F9
100
AcDbEntity
  8
0
 62
   250
  0
POLYLINE
  5
1FF
330
1F
100
AcDbEntity
  8
0
 62
   250
100
AcDbPolyFaceMesh
 66
     1
 10
0.0
 20
0.0
 30
0.0
 70
    64
 71
     3
 72
     1
  0
VERTEX
  5
200
330
1FF
100
AcDbEntity
  8
0
100
AcDbVertex
100
AcDbPolyFaceMeshVertex
 10
-7.467556885333114
 20
-33.22471779458109
 30
0.0
 70
   192
  0
VERTEX
  5
201
330
1FF
100
AcDbEntity
  8
0
100
AcDbVertex
100
AcDbPolyFaceMeshVertex
 10
-8.624474178655824
 20
-33.61210222614375
 30
0.0
 70
   192
  0
VERTEX
  5
202
330
1FF
100
AcDbEntity
  8
0
100
AcDbVertex
100
AcDbPolyFaceMeshVertex
 10
-8.624341341643458
 20
-32.838704495869
 30
0.0
 70
   192
  0
VERTEX
  5
203
330
1FF
100
AcDbEntity
  8
0
 62
   250
100
AcDbFaceRecord
 10
0.0
 20
0.0
 30
0.0
 70
   128
 71
     1
 72
     2
 73
     3
  0
SEQEND
  5
204
330
1FF
100
AcDbEntity
  8
0
 62
   250
  0
POLYLINE
  5
205
330
1F
100
AcDbEntity
  8
0
 62
   250
100
AcDbPolyFaceMesh
 66
     1
 10
0.0
 20
0.0
 30
0.0
 70
    64
 71
     3
 72
     1
  0
VERTEX
  5
206
330
205
100
AcDbEntity
  8
0
100
AcDbVertex
100
AcDbPolyFaceMeshVertex
 10
-6.310694772353289
 20
-33.61075700694285
 30
0.0
 70
   192
  0
VERTEX
  5
207
330
205
100
AcDbEntity
  8
0
100
AcDbVertex
100
AcDbPolyFaceMeshVertex
 10
-7.467556885333114
 20
-33.22471779458109
 30
0.0
 70
   192
  0
VERTEX
  5
208
330
205
100
AcDbEntity
  8
0
100
AcDbVertex
100
AcDbPolyFaceMeshVertex
 10
-6.310717522986506
 20
-32.83735945757769
 30
0.0
 70
   192
  0
VERTEX
  5
209
330
205
100
AcDbEntity
  8
0
 62
   250
100
AcDbFaceRecord
 10
0.0
 20
0.0
 30
0.0
 70
   128
 71
     1
 72
     2
 73
     3
  0
SEQEND
  5
20A
330
205
100
AcDbEntity
  8
0
 62
   250
  0
POLYLINE
  5
20B
330
1F
100
AcDbEntity
  8
0
 62
   250
100
AcDbPolyFaceMesh
 66
     1
 10
0.0
 20
0.0
 30
0.0
 70
    64
 71
     3
 72
     1
  0
VERTEX
  5
20C
330
20B
100
AcDbEntity
  8
0
100
AcDbVertex
100
AcDbPolyFaceMeshVertex
 10
9.799083941511835
 20
-33.21467939777695
 30
0.0
 70
   192
  0
VERTEX
  5
20D
330
20B
100
AcDbEntity
  8
0
100
AcDbVertex
100
AcDbPolyFaceMeshVertex
 10
8.642748235493924
 20
-33.60206349121918
 30
0.0
 70
   192
  0
VERTEX
  5
20E
330
20B
100
AcDbEntity
  8
0
100
AcDbVertex
100
AcDbPolyFaceMeshVertex
 10
8.641719956403424
 20
-32.82866643598854
 30
0.0
 70
   192
  0
VERTEX
  5
20F
330
20B
100
AcDbEntity
  8
0
 62
   250
100
AcDbFaceRecord
 10
0.0
 20
0.0
 30
0.0
 70
   128
 71
     1
 72
     2
 73
     3
  0
SEQEND
  5
210
330
20B
100
AcDbEntity
  8
0
 62
   250
  0
POLYLINE
  5
211
330
1F
100
AcDbEntity
  8
0
 62
   250
100
AcDbPolyFaceMesh
 66
     1
 10
0.0
 20
0.0
 30
0.0
 70
    64
 71
     3
 72
     1
  0
VERTEX
  5
212
330
211
100
AcDbEntity
  8
0
100
AcDbVertex
100
AcDbPolyFaceMeshVertex
 10
-37.09606415506956
 20
-15.78574589264708
 30
0.0
 70
   192
  0
VERTEX
  5
213
330
211
100
AcDbEntity
  8
0
100
AcDbVertex
100
AcDbPolyFaceMeshVertex
 10
-37.09811167147113
 20
-16.55799674732418
 30
0.0
 70
   192
  0
VERTEX
  5
214
330
211
100
AcDbEntity
  8
0
100
AcDbVertex
100
AcDbPolyFaceMeshVertex
 10
-38.25394041648109
 20
-16.17252990439204
 30
0.0
 70
   192
  0
VERTEX
  5
215
330
211
100
AcDbEntity
  8
0
 62
   250
100
AcDbFaceRecord
 10
0.0
 20
0.0
 30
0.0
 70
   128
 71
     1
 72
     2
 73
     3
  0
SEQEND
  5
216
330
211
100
AcDbEntity
  8
0
 62
   250
  0
POLYLINE
  5
217
330
1F
100
AcDbEntity
  8
0
 62
   250
100
AcDbPolyFaceMesh
 66
     1
 10
0.0
 20
0.0
 30
0.0
 70
    64
 71
     3
 72
     1
  0
VERTEX
  5
218
330
217
100
AcDbEntity
  8
0
100
AcDbVertex
100
AcDbPolyFaceMeshVertex
 10
1.154168385457342
 20
-16.14965301210619
 30
0.0
 70
   192
  0
VERTEX
  5
219
330
217
100
AcDbEntity
  8
0
100
AcDbVertex
100
AcDbPolyFaceMeshVertex
 10
-0.0024585047688304
 20
-16.53646230916496
 30
0.0
 70
   192
  0
VERTEX
  5
21A
330
217
100
AcDbEntity
  8
0
100
AcDbVertex
100
AcDbPolyFaceMeshVertex
 10
-0.0029054460785349
 20
-15.76421281223074
 30
0.0
 70
   192
  0
VERTEX
  5
21B
330
217
100
AcDbEntity
  8
0
 62
   250
100
AcDbFaceRecord
 10
0.0
 20
0.0
 30
0.0
 70
   128
 71
     1
 72
     2
 73
     3
  0
SEQEND
  5
21C
330
217
100
AcDbEntity
  8
0
 62
   250
  0
POLYLINE
  5
21D
330
1F
100
AcDbEntity
  8
0
 62
   250
100
AcDbPolyFaceMesh
 66
     1
 10
0.0
 20
0.0
 30
0.0
 70
    64
 71
     3
 72
     1
  0
VERTEX
  5
21E
330
21D
100
AcDbEntity
  8
0
100
AcDbVertex
100
AcDbPolyFaceMeshVertex
 10
5.998776893432174
 20
-6.851276550036143
 30
0.0
 70
   192
  0
VERTEX
  5
21F
330
21D
100
AcDbEntity
  8
0
100
AcDbVertex
100
AcDbPolyFaceMeshVertex
 10
5.284218692089462
 20
-6.98670903909412
 30
0.0
 70
   192
  0
VERTEX
  5
220
330
21D
100
AcDbEntity
  8
0
100
AcDbVertex
100
AcDbPolyFaceMeshVertex
 10
5.715528632117484
 20
-6.420641066446286
 30
0.0
 70
   192
  0
VERTEX
  5
221
330
21D
100
AcDbEntity
  8
0
 62
   250
100
AcDbFaceRecord
 10
0.0
 20
0.0
 30
0.0
 70
   128
 71
     1
 72
     2
 73
     3
  0
SEQEND
  5
222
330
21D
100
AcDbEntity
  8
0
 62
   250
  0
POLYLINE
  5
223
330
1F
100
AcDbEntity
  8
0
 62
   250
100
AcDbPolyFaceMesh
 66
     1
 10
0.0
 20
0.0
 30
0.0
 70
    64
 71
     3
 72
     1
  0
VERTEX
  5
224
330
223
100
AcDbEntity
  8
0
100
AcDbVertex
100
AcDbPolyFaceMeshVertex
 10
-46.36727656894439
 20
-23.59139472058736
 30
0.0
 70
   192
  0
VERTEX
  5
225
330
223
100
AcDbEntity
  8
0
100
AcDbVertex
100
AcDbPolyFaceMeshVertex
 10
-46.75690061440107
 20
-24.75074347280627
 30
0.0
 70
   192
  0
VERTEX
  5
226
330
223
100
AcDbEntity
  8
0
100
AcDbVertex
100
AcDbPolyFaceMeshVertex
 10
-47.13843418434382
 20
-23.5918426760946
 30
0.0
 70
   192
  0
VERTEX
  5
227
330
223
100
AcDbEntity
  8
0
 62
   250
100
AcDbFaceRecord
 10
0.0
 20
0.0
 30
0.0
 70
   128
 71
     1
 72
     2
 73
     3
  0
SEQEND
  5
228
330
223
100
AcDbEntity
  8
0
 62
   250
  0
POLYLINE
  5
229
330
1F
100
AcDbEntity
  8
0
 62
   250
100
AcDbPolyFaceMesh
 66
     1
 10
0.0
 20
0.0
 30
0.0
 70
    64
 71
     3
 72
     1
  0
VERTEX
  5
22A
330
229
100
AcDbEntity
  8
0
100
AcDbVertex
100
AcDbPolyFaceMeshVertex
 10
-46.35159701415937
 20
-19.12086538312136
 30
0.0
 70
   192
  0
VERTEX
  5
22B
330
229
100
AcDbEntity
  8
0
100
AcDbVertex
100
AcDbPolyFaceMeshVertex
 10
-47.12291021690001
 20
-19.12131325470246
 30
0.0
 70
   192
  0
VERTEX
  5
22C
330
229
100
AcDbEntity
  8
0
100
AcDbVertex
100
AcDbPolyFaceMeshVertex
 10
-46.73320993647778
 20
-17.96241548360056
 30
0.0
 70
   192
  0
VERTEX
  5
22D
330
229
100
AcDbEntity
  8
0
 62
   250
100
AcDbFaceRecord
 10
0.0
 20
0.0
 30
0.0
 70
   128
 71
     1
 72
     2
 73
     3
  0
SEQEND
  5
22E
330
229
100
AcDbEntity
  8
0
 62
   250
  0
POLYLINE
  5
22F
330
1F
100
AcDbEntity
  8
0
 62
   250
100
AcDbPolyFaceMesh
 66
     1
 10
0.0
 20
0.0
 30
0.0
 70
    64
 71
     3
 72
     1
  0
VERTEX
  5
230
330
22F
100
AcDbEntity
  8
0
100
AcDbVertex
100
AcDbPolyFaceMeshVertex
 10
-46.34358828090388
 20
-16.80375152850046
 30
0.0
 70
   192
  0
VERTEX
  5
231
330
22F
100
AcDbEntity
  8
0
100
AcDbVertex
100
AcDbPolyFaceMeshVertex
 10
-46.73320993647778
 20
-17.96241548360056
 30
0.0
 70
   192
  0
VERTEX
  5
232
330
22F
100
AcDbEntity
  8
0
100
AcDbVertex
100
AcDbPolyFaceMeshVertex
 10
-47.1147458953799
 20
-16.80419921941205
 30
0.0
 70
   192
  0
VERTEX
  5
233
330
22F
100
AcDbEntity
  8
0
 62
   250
100
AcDbFaceRecord
 10
0.0
 20
0.0
 30
0.0
 70
   128
 71
     1
 72
     2
 73
     3
  0
SEQEND
  5
234
330
22F
100
AcDbEntity
  8
0
 62
   250
  0
POLYLINE
  5
235
330
1F
100
AcDbEntity
  8
0
 62
   250
100
AcDbPolyFaceMesh
 66
     1
 10
0.0
 20
0.0
 30
0.0
 70
    64
 71
     3
 72
     1
  0
VERTEX
  5
236
330
235
100
AcDbEntity
  8
0
100
AcDbVertex
100
AcDbPolyFaceMeshVertex
 10
-46.31073848416661
 20
-7.413260237928331
 30
0.0
 70
   192
  0
VERTEX
  5
237
330
235
100
AcDbEntity
  8
0
100
AcDbVertex
100
AcDbPolyFaceMeshVertex
 10
-47.08205168531418
 20
-7.413707653031935
 30
0.0
 70
   192
  0
VERTEX
  5
238
330
235
100
AcDbEntity
  8
0
100
AcDbVertex
100
AcDbPolyFaceMeshVertex
 10
-46.69235552705984
 20
-6.255991048110585
 30
0.0
 70
   192
  0
VERTEX
  5
239
330
235
100
AcDbEntity
  8
0
 62
   250
100
AcDbFaceRecord
 10
0.0
 20
0.0
 30
0.0
 70
   128
 71
     1
 72
     2
 73
     3
  0
SEQEND
  5
23A
330
235
100
AcDbEntity
  8
0
 62
   250
  0
POLYLINE
  5
23B
330
1F
100
AcDbEntity
  8
0
 62
   250
100
AcDbPolyFaceMesh
 66
     1
 10
0.0
 20
0.0
 30
0.0
 70
    64
 71
     3
 72
     1
  0
VERTEX
  5
23C
330
23B
100
AcDbEntity
  8
0
100
AcDbVertex
100
AcDbPolyFaceMeshVertex
 10
4.165801572485757
 20
-23.56203774669539
 30
0.0
 70
   192
  0
VERTEX
  5
23D
330
23B
100
AcDbEntity
  8
0
100
AcDbVertex
100
AcDbPolyFaceMeshVertex
 10
3.781275748213725
 20
-24.72138353712469
 30
0.0
 70
   192
  0
VERTEX
  5
23E
330
23B
100
AcDbEntity
  8
0
100
AcDbVertex
100
AcDbPolyFaceMeshVertex
 10
3.394645926964892
 20
-23.56248570105824
 30
0.0
 70
   192
  0
VERTEX
  5
23F
330
23B
100
AcDbEntity
  8
0
 62
   250
100
AcDbFaceRecord
 10
0.0
 20
0.0
 30
0.0
 70
   128
 71
     1
 72
     2
 73
     3
  0
SEQEND
  5
240
330
23B
100
AcDbEntity
  8
0
 62
   250
  0
POLYLINE
  5
241
330
1F
100
AcDbEntity
  8
0
 62
   250
100
AcDbPolyFaceMesh
 66
     1
 10
0.0
 20
0.0
 30
0.0
 70
    64
 71
     3
 72
     1
  0
VERTEX
  5
242
330
241
100
AcDbEntity
  8
0
100
AcDbVertex
100
AcDbPolyFaceMeshVertex
 10
4.156506596342383
 20
-13.23477982727524
 30
0.0
 70
   192
  0
VERTEX
  5
243
330
241
100
AcDbEntity
  8
0
100
AcDbVertex
100
AcDbPolyFaceMeshVertex
 10
3.385195362903986
 20
-13.23522746935889
 30
0.0
 70
   192
  0
VERTEX
  5
244
330
241
100
AcDbEntity
  8
0
100
AcDbVertex
100
AcDbPolyFaceMeshVertex
 10
3.769799941593142
 20
-12.07692353833856
 30
0.0
 70
   192
  0
VERTEX
  5
245
330
241
100
AcDbEntity
  8
0
 62
   250
100
AcDbFaceRecord
 10
0.0
 20
0.0
 30
0.0
 70
   128
 71
     1
 72
     2
 73
     3
  0
SEQEND
  5
246
330
241
100
AcDbEntity
  8
0
 62
   250
  0
POLYLINE
  5
247
330
1F
100
AcDbEntity
  8
0
 62
   250
100
AcDbPolyFaceMesh
 66
     1
 10
0.0
 20
0.0
 30
0.0
 70
    64
 71
     3
 72
     1
  0
VERTEX
  5
248
330
247
100
AcDbEntity
  8
0
100
AcDbVertex
100
AcDbPolyFaceMeshVertex
 10
-37.15047406344787
 20
-35.55608251153581
 30
0.0
 70
   192
  0
VERTEX
  5
249
330
247
100
AcDbEntity
  8
0
100
AcDbVertex
100
AcDbPolyFaceMeshVertex
 10
-37.15252523883178
 20
-36.3296628908292
 30
0.0
 70
   192
  0
VERTEX
  5
24A
330
247
100
AcDbEntity
  8
0
100
AcDbVertex
100
AcDbPolyFaceMeshVertex
 10
-38.30835215747098
 20
-35.94353241942279
 30
0.0
 70
   192
  0
VERTEX
  5
24B
330
247
100
AcDbEntity
  8
0
 62
   250
100
AcDbFaceRecord
 10
0.0
 20
0.0
 30
0.0
 70
   128
 71
     1
 72
     2
 73
     3
  0
SEQEND
  5
24C
330
247
100
AcDbEntity
  8
0
 62
   250
  0
POLYLINE
  5
24D
330
1F
100
AcDbEntity
  8
0
 62
   250
100
AcDbPolyFaceMesh
 66
     1
 10
0.0
 20
0.0
 30
0.0
 70
    64
 71
     3
 72
     1
  0
VERTEX
  5
24E
330
24D
100
AcDbEntity
  8
0
100
AcDbVertex
100
AcDbPolyFaceMeshVertex
 10
29.54084761841765
 20
-35.90407731375308
 30
0.0
 70
   192
  0
VERTEX
  5
24F
330
24D
100
AcDbEntity
  8
0
100
AcDbVertex
100
AcDbPolyFaceMeshVertex
 10
28.38517686855676
 20
-36.29155199341304
 30
0.0
 70
   192
  0
VERTEX
  5
250
330
24D
100
AcDbEntity
  8
0
100
AcDbVertex
100
AcDbPolyFaceMeshVertex
 10
28.38282103073992
 20
-35.51797408637349
 30
0.0
 70
   192
  0
VERTEX
  5
251
330
24D
100
AcDbEntity
  8
0
 62
   250
100
AcDbFaceRecord
 10
0.0
 20
0.0
 30
0.0
 70
   128
 71
     1
 72
     2
 73
     3
  0
SEQEND
  5
252
330
24D
100
AcDbEntity
  8
0
 62
   250
  0
POLYLINE
  5
253
330
1F
100
AcDbEntity
  8
0
 62
   250
100
AcDbPolyFaceMesh
 66
     1
 10
0.0
 20
0.0
 30
0.0
 70
    64
 71
     3
 72
     1
  0
VERTEX
  5
254
330
253
100
AcDbEntity
  8
0
100
AcDbVertex
100
AcDbPolyFaceMeshVertex
 10
29.99925066484435
 20
-23.54702991581639
 30
0.0
 70
   192
  0
VERTEX
  5
255
330
253
100
AcDbEntity
  8
0
100
AcDbVertex
100
AcDbPolyFaceMeshVertex
 10
29.61733114603161
 20
-24.70637419212376
 30
0.0
 70
   192
  0
VERTEX
  5
256
330
253
100
AcDbEntity
  8
0
100
AcDbVertex
100
AcDbPolyFaceMeshVertex
 10
29.22809602636204
 20
-23.54747786959421
 30
0.0
 70
   192
  0
VERTEX
  5
257
330
253
100
AcDbEntity
  8
0
 62
   250
100
AcDbFaceRecord
 10
0.0
 20
0.0
 30
0.0
 70
   128
 71
     1
 72
     2
 73
     3
  0
SEQEND
  5
258
330
253
100
AcDbEntity
  8
0
 62
   250
  0
POLYLINE
  5
259
330
1F
100
AcDbEntity
  8
0
 62
   250
100
AcDbPolyFaceMesh
 66
     1
 10
0.0
 20
0.0
 30
0.0
 70
    64
 71
     3
 72
     1
  0
VERTEX
  5
25A
330
259
100
AcDbEntity
  8
0
100
AcDbVertex
100
AcDbPolyFaceMeshVertex
 10
29.95799119926491
 20
-10.44763975804673
 30
0.0
 70
   192
  0
VERTEX
  5
25B
330
259
100
AcDbEntity
  8
0
100
AcDbVertex
100
AcDbPolyFaceMeshVertex
 10
29.18668097182194
 20
-10.44808729146027
 30
0.0
 70
   192
  0
VERTEX
  5
25C
330
259
100
AcDbEntity
  8
0
100
AcDbVertex
100
AcDbPolyFaceMeshVertex
 10
29.56868246980903
 20
-9.290064551644239
 30
0.0
 70
   192
  0
VERTEX
  5
25D
330
259
100
AcDbEntity
  8
0
 62
   250
100
AcDbFaceRecord
 10
0.0
 20
0.0
 30
0.0
 70
   128
 71
     1
 72
     2
 73
     3
  0
SEQEND
  5
25E
330
259
100
AcDbEntity
  8
0
 62
   250
  0
POLYLINE
  5
25F
330
1F
100
AcDbEntity
  8
0
 62
   250
100
AcDbPolyFaceMesh
 66
     1
 10
0.0
 20
0.0
 30
0.0
 70
    64
 71
     3
 72
     1
  0
VERTEX
  5
260
330
25F
100
AcDbEntity
  8
0
100
AcDbVertex
100
AcDbPolyFaceMeshVertex
 10
31.31453688920076
 20
-8.0758151023566
 30
0.0
 70
   192
  0
VERTEX
  5
261
330
25F
100
AcDbEntity
  8
0
100
AcDbVertex
100
AcDbPolyFaceMeshVertex
 10
30.6176254996047
 20
-8.396597562508548
 30
0.0
 70
   192
  0
VERTEX
  5
262
330
25F
100
AcDbEntity
  8
0
100
AcDbVertex
100
AcDbPolyFaceMeshVertex
 10
30.91643356700696
 20
-7.748294404918463
 30
0.0
 70
   192
  0
VERTEX
  5
263
330
25F
100
AcDbEntity
  8
0
 62
   250
100
AcDbFaceRecord
 10
0.0
 20
0.0
 30
0.0
 70
   128
 71
     1
 72
     2
 73
     3
  0
SEQEND
  5
264
330
25F
100
AcDbEntity
  8
0
 62
   250
  0
MTEXT
  5
266
330
1F
100
AcDbEntity
  8
0
 62
   250
100
AcDbMText
 10
-64.08812550783031
 20
-8.095517975458206
 30
0.0
 40
1.200473081184195
 41
0.0
 71
     7
 72
     1
  1
28,00mm
  7
TAHOMA
  0
MTEXT
  5
267
330
1F
100
AcDbEntity
  8
0
 62
   250
100
AcDbMText
 10
-20.42249909136111
 20
4.228954162424026
 30
0.0
 40
1.200473081184194
 41
0.0
 71
     7
 72
     1
  1
8,00mm
  7
TAHOMA
  0
MTEXT
  5
268
330
1F
100
AcDbEntity
  8
0
 62
   250
100
AcDbMText
 10
-25.33521424522893
 20
13.60020508497086
 30
0.0
 40
1.200473081184195
 41
0.0
 71
     7
 72
     1
  1
DIA 2,50mm
  7
TAHOMA
  0
MTEXT
  5
269
330
1F
100
AcDbEntity
  8
0
 62
   250
100
AcDbMText
 10
1.291793592576295
 20
34.96275750781712
 30
0.0
 40
1.200473081184197
 41
0.0
 71
     7
 72
     1
  1
53,0mm
  7
TAHOMA
  0
MTEXT
  5
26A
330
1F
100
AcDbEntity
  8
0
 62
   250
100
AcDbMText
 10
-36.09991210722993
 20
34.94114890383982
 30
0.0
 40
1.200473081184197
 41
0.0
 71
     7
 72
     1
  1
8,00mm
  7
TAHOMA
  0
MTEXT
  5
26B
330
1F
100
AcDbEntity
  8
0
 62
   250
100
AcDbMText
 10
42.54036519192707
 20
34.98684569137513
 30
0.0
 40
1.200473081184197
 41
0.0
 71
     7
 72
     1
  1
15,00mm
  7
TAHOMA
  0
MTEXT
  5
26C
330
1F
100
AcDbEntity
  8
0
 62
   250
100
AcDbMText
 10
-56.37007880824527
 20
-10.55409220745854
 30
0.0
 40
1.200473081184195
 41
0.0
 71
     7
 72
     1
  1
24,00mm
  7
TAHOMA
  0
MTEXT
  5
26D
330
1F
100
AcDbEntity
  8
0
 62
   250
100
AcDbMText
 10
-38.59062911629281
 20
19.65104357702004
 30
0.0
 40
1.200473081184195
 41
0.0
 71
     7
 72
     1
  1
4,00mm
  7
TAHOMA
  0
MTEXT
  5
26E
330
1F
100
AcDbEntity
  8
0
 62
   250
100
AcDbMText
 10
-0.9918562443217664
 20
9.570632566254492
 30
0.0
 40
1.200473081184195
 41
0.0
 71
     7
 72
     1
  1
Connecteur din
  7
TAHOMA
  0
MTEXT
  5
26F
330
1F
100
AcDbEntity
  8
0
 62
   250
100
AcDbMText
 10
-39.94754588534582
 20
-29.24334487125374
 30
0.0
 40
1.200473081184193
 41
0.0
 71
     7
 72
     1
  1
2,00mm
  7
TAHOMA
  0
MTEXT
  5
270
330
1F
100
AcDbEntity
  8
0
 62
   250
100
AcDbMText
 10
45.01252921034692
 20
30.7736899210795
 30
0.0
 40
1.200473081184193
 41
0.0
 71
     7
 72
     1
  1
11,00mm
  7
TAHOMA
  0
MTEXT
  5
271
330
1F
100
AcDbEntity
  8
0
 62
   250
100
AcDbMText
 10
55.55987838355838
 20
23.89719177523835
 30
0.0
 40
1.200473081184195
 41
0.0
 71
     7
 72
     1
  1
8,00mm
  7
TAHOMA
  0
MTEXT
  5
272
330
1F
100
AcDbEntity
  8
0
 62
   250
100
AcDbMText
 10
61.40880822757697
 20
1.818863801402496
 30
0.0
 40
1.200473081184194
 41
0.0
 71
     7
 72
     1
  1
44,00mm
  7
TAHOMA
  0
MTEXT
  5
273
330
1F
100
AcDbEntity
  8
0
 62
   250
100
AcDbMText
 10
20.85489861007877
 20
24.10192702971147
 30
0.0
 40
1.200473081184195
 41
0.0
 71
     7
 72
     1
  1
DIA 2,50mm
  7
TAHOMA
  0
MTEXT
  5
274
330
1F
100
AcDbEntity
  8
0
 62
   250
100
AcDbMText
 10
58.95635701291492
 20
14.09545966738142
 30
0.0
 40
1.200473081184195
 41
0.0
 71
     7
 72
     1
  1
24,0mm
  7
TAHOMA
  0
MTEXT
  5
275
330
1F
100
AcDbEntity
  8
0
 62
   250
100
AcDbMText
 10
-26.210171318864
 20
-33.83391720427051
 30
0.0
 40
1.200473081184197
 41
0.0
 71
     7
 72
     1
  1
25,00mm
  7
TAHOMA
  0
MTEXT
  5
276
330
1F
100
AcDbEntity
  8
0
 62
   250
100
AcDbMText
 10
-2.160178071825248
 20
-33.81993513458066
 30
0.0
 40
1.200473081184197
 41
0.0
 71
     7
 72
     1
  1
14,00mm
  7
TAHOMA
  0
MTEXT
  5
277
330
1F
100
AcDbEntity
  8
0
 62
   250
100
AcDbMText
 10
-21.87581175710977
 20
-16.76132798744807
 30
0.0
 40
1.200473081184195
 41
0.0
 71
     7
 72
     1
  1
32,00mm
  7
TAHOMA
  0
MTEXT
  5
278
330
1F
100
AcDbEntity
  8
0
 62
   250
100
AcDbMText
 10
14.40245917230754
 20
-3.421206672364758
 30
0.0
 40
1.200473081184194
 41
0.0
 71
     7
 72
     1
  1
Power switch
  7
TAHOMA
  0
MTEXT
  5
279
330
1F
100
AcDbEntity
  8
0
 62
   250
100
AcDbMText
 10
-49.63717818266822
 20
-21.95581330051149
 30
0.0
 40
1.200473081184197
 41
0.0
 71
     7
 72
     1
  1
5,50mm
  7
TAHOMA
  0
MTEXT
  5
27A
330
1F
100
AcDbEntity
  8
0
 62
   250
100
AcDbMText
 10
-49.60489872323171
 20
-12.70645544427212
 30
0.0
 40
1.200473081184195
 41
0.0
 71
     7
 72
     1
  1
9,50mm
  7
TAHOMA
  0
MTEXT
  5
27B
330
1F
100
AcDbEntity
  8
0
 62
   250
100
AcDbMText
 10
0.4495893190148203
 20
-18.99591018701916
 30
0.0
 40
1.200473081184193
 41
0.0
 71
     7
 72
     1
  1
10,25mm
  7
TAHOMA
  0
MTEXT
  5
27C
330
1F
100
AcDbEntity
  8
0
 62
   250
100
AcDbMText
 10
-9.444915304178556
 20
-36.52404137334945
 30
0.0
 40
1.200473081184197
 41
0.0
 71
     7
 72
     1
  1
55,000000mm
  7
TAHOMA
  0
MTEXT
  5
27D
330
1F
100
AcDbEntity
  8
0
 62
   250
100
AcDbMText
 10
24.53176927070546
 20
-17.59328247830515
 30
0.0
 40
1.200473081184195
 41
0.0
 71
     7
 72
     1
  1
12,500000mm
  7
TAHOMA
  0
MTEXT
  5
27E
330
1F
100
AcDbEntity
  8
0
 62
   250
100
AcDbMText
 10
36.77873356260818
 20
-5.252338901444071
 30
0.0
 40
1.200473081184194
 41
0.0
 71
     7
 72
     1
  1
Power led
  7
TAHOMA
  0
ENDSEC
  0
SECTION
  2
OBJECTS
  0
DICTIONARY
  5
C
330
0
100
AcDbDictionary
  3
ACAD_GROUP
350
D
  3
ACAD_LAYOUT
350
1A
  3
ACAD_MATERIAL
350
43
  3
ACAD_MLEADERSTYLE
350
6B
  3
ACAD_MLINESTYLE
350
17
  3
ACAD_PLOTSETTINGS
350
19
  3
ACAD_SCALELIST
350
47
  3
ACAD_VISUALSTYLE
350
2A
  3
ACDBHEADERROUNDTRIPXREC
350
27F
  3
ACDBVARIABLEDICTIONARY
350
2A0
  0
DICTIONARY
  5
2A7
330
8
100
AcDbDictionary
280
     1
  3
ACAD_XREC_ROUNDTRIP
360
2A8
  0
DICTIONARY
  5
D
102
{ACAD_REACTORS
330
C
102
}
330
C
100
AcDbDictionary
  0
DICTIONARY
  5
1A
102
{ACAD_REACTORS
330
C
102
}
330
C
100
AcDbDictionary
  0
DICTIONARY
  5
43
102
{ACAD_REACTORS
330
C
102
}
330
C
100
AcDbDictionary
  3
BYBLOCK
350
45
  3
BYLAYER
350
44
  3
GLOBAL
350
46
  0
DICTIONARY
  5
6B
102
{ACAD_REACTORS
330
C
102
}
330
C
100
AcDbDictionary
  3
STANDARD
350
6C
  0
DICTIONARY
  5
17
102
{ACAD_REACTORS
330
C
102
}
330
C
100
AcDbDictionary
  3
STANDARD
350
18
  0
DICTIONARY
  5
19
102
{ACAD_REACTORS
330
C
102
}
330
C
100
AcDbDictionary
  0
DICTIONARY
  5
47
102
{ACAD_REACTORS
330
C
102
}
330
C
100
AcDbDictionary
  3
A0
350
48
  3
A1
350
49
  3
A2
350
4A
  3
A3
350
4B
  3
A4
350
4C
  3
A5
350
4D
  3
A6
350
4E
  3
A7
350
4F
  3
A8
350
50
  3
A9
350
51
  3
B0
350
52
  3
B1
350
53
  3
B2
350
54
  3
B3
350
55
  3
B4
350
56
  3
B5
350
57
  3
B6
350
58
  3
B7
350
59
  3
B8
350
5A
  3
B9
350
5B
  3
C0
350
5C
  3
C1
350
5D
  3
C2
350
5E
  3
C3
350
5F
  3
C4
350
60
  3
C5
350
61
  3
C6
350
62
  3
C7
350
63
  3
C8
350
64
  3
C9
350
65
  3
D0
350
66
  3
D1
350
67
  3
D2
350
68
  0
DICTIONARY
  5
2A
102
{ACAD_REACTORS
330
C
102
}
330
C
100
AcDbDictionary
  3
2DWIREFRAME
350
2F
  3
BASIC
350
32
  3
BRIGHTEN
350
36
  3
COLORCHANGE
350
3A
  3
CONCEPTUAL
350
34
  3
DIM
350
35
  3
EDGECOLOROFF
350
3D
  3
FACEPATTERN
350
39
  3
FLAT
350
2B
  3
FLATWITHEDGES
350
2C
  3
GOURAUD
350
2D
  3
GOURAUDWITHEDGES
350
2E
  3
HIDDEN
350
31
  3
JITTEROFF
350
3B
  3
LINEPATTERN
350
38
  3
OVERHANGOFF
350
3C
  3
REALISTIC
350
33
  3
SHADED
350
42
  3
SHADED_WITH_EDGES
350
41
  3
SHADES_OF_GRAY
350
3E
  3
SKETCHY
350
3F
  3
THICKEN
350
37
  3
WIREFRAME
350
30
  3
X-RAY
350
40
  0
DICTIONARY
  5
27F
102
{ACAD_REACTORS
330
C
102
}
330
C
100
AcDbDictionary
  3
CEPSNID
350
289
  3
CEPSNTYPE
350
288
  3
DIMSTYLEDATA
350
29F
  3
FINGERPRINTGUID
350
28A
  3
HYPERLINKBASE
350
282
  3
INSUNITS
350
287
  3
LAYOUTDICT
350
284
  3
LWETCUNION
350
286
  3
PLOTSETDICT
350
285
  3
PSVPSCALE
350
28C
  3
PUCSBASE
350
28F
  3
PUCSORGBACK
350
295
  3
PUCSORGBOTTOM
350
291
  3
PUCSORGFRONT
350
294
  3
PUCSORGLEFT
350
292
  3
PUCSORGRIGHT
350
293
  3
PUCSORGTOP
350
290
  3
PUCSORTHOREF
350
28D
  3
PUCSORTHOVIEW
350
28E
  3
STYLESHEET
350
283
  3
TSTACKALIGN
350
280
  3
TSTACKSIZE
350
281
  3
UCSBASE
350
298
  3
UCSORGBACK
350
29E
  3
UCSORGBOTTOM
350
29A
  3
UCSORGFRONT
350
29D
  3
UCSORGLEFT
350
29B
  3
UCSORGRIGHT
350
29C
  3
UCSORGTOP
350
299
  3
UCSORTHOREF
350
296
  3
UCSORTHOVIEW
350
297
  3
VERSIONGUID
350
28B
  0
DICTIONARY
  5
2A0
102
{ACAD_REACTORS
330
C
102
}
330
C
100
AcDbDictionary
  3
CANNOSCALE
350
2A9
  3
CMLEADERSTYLE
350
2A2
  3
CTABLESTYLE
350
2A1
  3
DIMASSOC
350
2A5
  3
HIDETEXT
350
2A6
  3
MSLTSCALE
350
2AA
  0
XRECORD
  5
2A8
102
{ACAD_REACTORS
330
2A7
102
}
330
2A7
100
AcDbXrecord
102
VTR_0.000_0.000_1.000_1.000_VISUALSTYLE
340
2F
102
VTR_0.000_0.000_1.000_1.000_GRIDDISPLAY
 70
     3
102
VTR_0.000_0.000_1.000_1.000_GRIDMAJOR
 70
     5
102
VTR_0.000_0.000_1.000_1.000_DEFAULTLIGHTING
280
     1
102
VTR_0.000_0.000_1.000_1.000_DEFAULTLIGHTINGTYPE
 70
     1
102
VTR_0.000_0.000_1.000_1.000_BRIGHTNESS
141
0.0
102
VTR_0.000_0.000_1.000_1.000_CONTRAST
142
0.0
  0
MATERIAL
  5
45
102
{ACAD_REACTORS
330
43
102
}
102
{ACAD_XDICTIONARY
360
2AD
102
}
330
43
100
AcDbMaterial
  1
BYBLOCK
  0
MATERIAL
  5
44
102
{ACAD_REACTORS
330
43
102
}
102
{ACAD_XDICTIONARY
360
2AB
102
}
330
43
100
AcDbMaterial
  1
BYLAYER
  0
MATERIAL
  5
46
102
{ACAD_REACTORS
330
43
102
}
102
{ACAD_XDICTIONARY
360
2AF
102
}
330
43
100
AcDbMaterial
  1
GLOBAL
  0
ACAD_PROXY_OBJECT
  5
6C
102
{ACAD_REACTORS
330
6B
102
}
330
6B
100
AcDbProxyObject
 90
      499
 91
      505
 93
      610
310
40901902A4063FBFFFFFE056BD1B81E855B9FC0AD7A3703D0AD73F4214DD185B99185C9900AD7A3703D0AC73F90141901A02B5E8DC0F42B1CFC02B5E8DC0F42B1CFE5764000000000000300FC0
340
14
340
0
340
11
340
0
 94
        0
1001
ACAD_MLEADERVER
1070
     2
  0
MLINESTYLE
  5
18
102
{ACAD_REACTORS
330
17
102
}
330
17
100
AcDbMlineStyle
  2
Standard
 70
     0
  3

 62
   256
 51
90.0
 52
90.0
 71
     2
 49
0.5
 62
   256
  6
BYLAYER
 49
-0.5
 62
   256
  6
BYLAYER
  0
ACAD_PROXY_OBJECT
  5
48
102
{ACAD_REACTORS
330
47
102
}
330
47
100
AcDbProxyObject
 90
      499
 91
      503
 93
       41
310
903313A31580
  0
ACAD_PROXY_OBJECT
  5
49
102
{ACAD_REACTORS
330
47
102
}
330
47
100
AcDbProxyObject
 90
      499
 91
      503
 93
      105
310
903313A324000000000000004000
  0
ACAD_PROXY_OBJECT
  5
4A
102
{ACAD_REACTORS
330
47
102
}
330
47
100
AcDbProxyObject
 90
      499
 91
      503
 93
      105
310
903313A344000000000000104000
  0
ACAD_PROXY_OBJECT
  5
4B
102
{ACAD_REACTORS
330
47
102
}
330
47
100
AcDbProxyObject
 90
      499
 91
      503
 93
      105
310
903313A354000000000000144000
  0
ACAD_PROXY_OBJECT
  5
4C
102
{ACAD_REACTORS
330
47
102
}
330
47
100
AcDbProxyObject
 90
      499
 91
      503
 93
      105
310
903313A384000000000000204000
  0
ACAD_PROXY_OBJECT
  5
4D
102
{ACAD_REACTORS
330
47
102
}
330
47
100
AcDbProxyObject
 90
      499
 91
      503
 93
      113
310
904313A31304000000000000244000
  0
ACAD_PROXY_OBJECT
  5
4E
102
{ACAD_REACTORS
330
47
102
}
330
47
100
AcDbProxyObject
 90
      499
 91
      503
 93
      113
310
904313A31364000000000000304000
  0
ACAD_PROXY_OBJECT
  5
4F
102
{ACAD_REACTORS
330
47
102
}
330
47
100
AcDbProxyObject
 90
      499
 91
      503
 93
      113
310
904313A32304000000000000344000
  0
ACAD_PROXY_OBJECT
  5
50
102
{ACAD_REACTORS
330
47
102
}
330
47
100
AcDbProxyObject
 90
      499
 91
      503
 93
      113
310
904313A333040000000000003E4000
  0
ACAD_PROXY_OBJECT
  5
51
102
{ACAD_REACTORS
330
47
102
}
330
47
100
AcDbProxyObject
 90
      499
 91
      503
 93
      113
310
904313A34304000000000000444000
  0
ACAD_PROXY_OBJECT
  5
52
102
{ACAD_REACTORS
330
47
102
}
330
47
100
AcDbProxyObject
 90
      499
 91
      503
 93
      113
310
904313A35304000000000000494000
  0
ACAD_PROXY_OBJECT
  5
53
102
{ACAD_REACTORS
330
47
102
}
330
47
100
AcDbProxyObject
 90
      499
 91
      503
 93
      121
310
905313A3130304000000000000594000
  0
ACAD_PROXY_OBJECT
  5
54
102
{ACAD_REACTORS
330
47
102
}
330
47
100
AcDbProxyObject
 90
      499
 91
      503
 93
      105
310
903323A310000000000000010100
  0
ACAD_PROXY_OBJECT
  5
55
102
{ACAD_REACTORS
330
47
102
}
330
47
100
AcDbProxyObject
 90
      499
 91
      503
 93
      105
310
903343A310000000000000410100
  0
ACAD_PROXY_OBJECT
  5
56
102
{ACAD_REACTORS
330
47
102
}
330
47
100
AcDbProxyObject
 90
      499
 91
      503
 93
      105
310
903383A310000000000000810100
  0
ACAD_PROXY_OBJECT
  5
57
102
{ACAD_REACTORS
330
47
102
}
330
47
100
AcDbProxyObject
 90
      499
 91
      503
 93
      113
310
90431303A310000000000000910100
  0
ACAD_PROXY_OBJECT
  5
58
102
{ACAD_REACTORS
330
47
102
}
330
47
100
AcDbProxyObject
 90
      499
 91
      503
 93
      121
310
9053130303A310000000000001650100
  0
ACAD_PROXY_OBJECT
  5
59
102
{ACAD_REACTORS
330
47
102
}
330
47
100
AcDbProxyObject
 90
      499
 91
      503
 93
      257
310
90E312F31323822203D2031272D3022000000000000200FC000000000000284000
  0
ACAD_PROXY_OBJECT
  5
5A
102
{ACAD_REACTORS
330
47
102
}
330
47
100
AcDbProxyObject
 90
      499
 91
      503
 93
      249
310
90D312F363422203D2031272D3022000000000000240FC000000000000284000
  0
ACAD_PROXY_OBJECT
  5
5B
102
{ACAD_REACTORS
330
47
102
}
330
47
100
AcDbProxyObject
 90
      499
 91
      503
 93
      249
310
90D312F333222203D2031272D3022000000000000280FC000000000000284000
  0
ACAD_PROXY_OBJECT
  5
5C
102
{ACAD_REACTORS
330
47
102
}
330
47
100
AcDbProxyObject
 90
      499
 91
      503
 93
      249
310
90D312F313622203D2031272D30220000000000002C0FC000000000000284000
  0
ACAD_PROXY_OBJECT
  5
5D
102
{ACAD_REACTORS
330
47
102
}
330
47
100
AcDbProxyObject
 90
      499
 91
      503
 93
      249
310
90D332F333222203D2031272D30220000000000002E0FC000000000000284000
  0
ACAD_PROXY_OBJECT
  5
5E
102
{ACAD_REACTORS
330
47
102
}
330
47
100
AcDbProxyObject
 90
      499
 91
      503
 93
      241
310
90C312F3822203D2031272D3022000000000000300FC000000000000284000
  0
ACAD_PROXY_OBJECT
  5
5F
102
{ACAD_REACTORS
330
47
102
}
330
47
100
AcDbProxyObject
 90
      499
 91
      503
 93
      249
310
90D332F313622203D2031272D3022000000000000320FC000000000000284000
  0
ACAD_PROXY_OBJECT
  5
60
102
{ACAD_REACTORS
330
47
102
}
330
47
100
AcDbProxyObject
 90
      499
 91
      503
 93
      241
310
90C312F3422203D2031272D3022000000000000340FC000000000000284000
  0
ACAD_PROXY_OBJECT
  5
61
102
{ACAD_REACTORS
330
47
102
}
330
47
100
AcDbProxyObject
 90
      499
 91
      503
 93
      241
310
90C332F3822203D2031272D3022000000000000360FC000000000000284000
  0
ACAD_PROXY_OBJECT
  5
62
102
{ACAD_REACTORS
330
47
102
}
330
47
100
AcDbProxyObject
 90
      499
 91
      503
 93
      241
310
90C312F3222203D2031272D3022000000000000380FC000000000000284000
  0
ACAD_PROXY_OBJECT
  5
63
102
{ACAD_REACTORS
330
47
102
}
330
47
100
AcDbProxyObject
 90
      499
 91
      503
 93
      241
310
90C332F3422203D2031272D30220000000000003A0FC000000000000284000
  0
ACAD_PROXY_OBJECT
  5
64
102
{ACAD_REACTORS
330
47
102
}
330
47
100
AcDbProxyObject
 90
      499
 91
      503
 93
      161
310
90A3122203D2031272D30224000000000000284000
  0
ACAD_PROXY_OBJECT
  5
65
102
{ACAD_REACTORS
330
47
102
}
330
47
100
AcDbProxyObject
 90
      499
 91
      503
 93
      257
310
90E312D312F3222203D2031272D30220000000000003E0FC000000000000284000
  0
ACAD_PROXY_OBJECT
  5
66
102
{ACAD_REACTORS
330
47
102
}
330
47
100
AcDbProxyObject
 90
      499
 91
      503
 93
      225
310
90A3322203D2031272D302200000000000002100000000000000284000
  0
ACAD_PROXY_OBJECT
  5
67
102
{ACAD_REACTORS
330
47
102
}
330
47
100
AcDbProxyObject
 90
      499
 91
      503
 93
      225
310
90A3622203D2031272D302200000000000006100000000000000284000
  0
ACAD_PROXY_OBJECT
  5
68
102
{ACAD_REACTORS
330
47
102
}
330
47
100
AcDbProxyObject
 90
      499
 91
      503
 93
      249
310
90D31272D3022203D2031272D30220000000000000A100000000000000284000
  0
ACAD_PROXY_OBJECT
  5
2F
102
{ACAD_REACTORS
330
2A
102
}
330
2A
100
AcDbProxyObject
 90
      499
 91
      501
 93
      436
310
42CC9915DA5C99599C985B595049028333333333333E33F0000000000000F90107901411070040501600405405064090741402480A0340
1001
ACAD
1000
AcDbSavedByObjectVersion
1070
     0
  0
ACAD_PROXY_OBJECT
  5
32
102
{ACAD_REACTORS
330
2A
102
}
330
2A
100
AcDbProxyObject
 90
      499
 91
      501
 93
      388
310
4150985CDA58D07406404333333333333E33F0000000000000F90107A41107004050150841D405064090741402480A0350
1001
ACAD
1000
AcDbSavedByObjectVersion
1070
     0
  0
ACAD_PROXY_OBJECT
  5
36
102
{ACAD_REACTORS
330
2A
102
}
330
2A
100
AcDbProxyObject
 90
      499
 91
      501
 93
      428
310
42109C9A59DA1D195B90C409028333333333333E33F0000000000000F9010790141107004050150841D405064090741402480A029950
1001
ACAD
1000
AcDbSavedByObjectVersion
1070
     0
  0
ACAD_PROXY_OBJECT
  5
3A
102
{ACAD_REACTORS
330
2A
102
}
330
2A
100
AcDbProxyObject
 90
      499
 91
      501
 93
      452
310
42D0DBDB1BDC90DA185B99D95104090240C333333333333E33F0000000000000F90108901411070040501508421405064090741402480A0350
1001
ACAD
1000
AcDbSavedByObjectVersion
1070
     0
  0
ACAD_PROXY_OBJECT
  5
34
102
{ACAD_REACTORS
330
2A
102
}
330
2A
100
AcDbProxyObject
 90
      499
 91
      501
 93
      500
310
4290DBDB98D95C1D1D585B10940D028333333333333E33F0000000000000F90107902409070040501000000000018199010841D405064090740C02480A0340
1001
ACAD
1000
AcDbSavedByObjectVersion
1070
     0
  0
ACAD_PROXY_OBJECT
  5
35
102
{ACAD_REACTORS
330
2A
102
}
330
2A
100
AcDbProxyObject
 90
      499
 91
      501
 93
      412
310
40D11A5B50B409028333333333333E33F0000000000000F9010790141107004050150841D405064090741402480A02677FFFFFD0
1001
ACAD
1000
AcDbSavedByObjectVersion
1070
     0
  0
ACAD_PROXY_OBJECT
  5
3D
102
{ACAD_REACTORS
330
2A
102
}
330
2A
100
AcDbProxyObject
 90
      499
 91
      501
 93
      452
310
43115919D950DBDB1BDC93D999916409028333333333333E33F0000000000000F9010790141107004050150841D405064090741402480A0350
1001
ACAD
1000
AcDbSavedByObjectVersion
1070
     0
  0
ACAD_PROXY_OBJECT
  5
39
102
{ACAD_REACTORS
330
2A
102
}
330
2A
100
AcDbProxyObject
 90
      499
 91
      501
 93
      444
310
42D19858D95C185D1D195C9B90F409028333333333333E33F0000000000000F9010790141107004050150841D405064090741402480A0350
1001
ACAD
1000
AcDbSavedByObjectVersion
1070
     0
  0
ACAD_PROXY_OBJECT
  5
2B
102
{ACAD_REACTORS
330
2A
102
}
330
2A
100
AcDbProxyObject
 90
      499
 91
      501
 93
      380
310
41119B185D240901404333333333333E33F0000000000000F9010740A907004050150841D405064090741402480A1B50
1001
ACAD
1000
AcDbSavedByObjectVersion
1070
     0
  0
ACAD_PROXY_OBJECT
  5
2C
102
{ACAD_REACTORS
330
2A
102
}
330
2A
100
AcDbProxyObject
 90
      499
 91
      501
 93
      468
310
43519B185D15DA5D1A115919D95CD0140901404333333333333E33F0000000000000F90107409019070040501600405405064090741402480A1B50
1001
ACAD
1000
AcDbSavedByObjectVersion
1070
     0
  0
ACAD_PROXY_OBJECT
  5
2D
102
{ACAD_REACTORS
330
2A
102
}
330
2A
100
AcDbProxyObject
 90
      499
 91
      501
 93
      404
310
41D1DBDD5C985D5910240902404333333333333E33F0000000000000F9010740A9070040501641D405064090741402480A1B50
1001
ACAD
1000
AcDbSavedByObjectVersion
1070
     0
  0
ACAD_PROXY_OBJECT
  5
2E
102
{ACAD_REACTORS
330
2A
102
}
330
2A
100
AcDbProxyObject
 90
      499
 91
      501
 93
      492
310
4411DBDD5C985D5915DA5D1A115919D95CD0340902404333333333333E33F0000000000000F90107409019070040501600405405064090741402480A1B50
1001
ACAD
1000
AcDbSavedByObjectVersion
1070
     0
  0
ACAD_PROXY_OBJECT
  5
31
102
{ACAD_REACTORS
330
2A
102
}
330
2A
100
AcDbProxyObject
 90
      499
 91
      501
 93
      476
310
41921A5919195B90640502408333333333333E33F0000000000000F901079024090700405020000000000001110200405405064090740C02480A0340
1001
ACAD
1000
AcDbSavedByObjectVersion
1070
     0
  0
ACAD_PROXY_OBJECT
  5
3B
102
{ACAD_REACTORS
330
2A
102
}
330
2A
100
AcDbProxyObject
 90
      499
 91
      501
 93
      428
310
42529A5D1D195C93D999914409028333333333333E33F0000000000000F9010790141107004050150A41D405064090741402480A0350
1001
ACAD
1000
AcDbSavedByObjectVersion
1070
     0
  0
ACAD_PROXY_OBJECT
  5
38
102
{ACAD_REACTORS
330
2A
102
}
330
2A
100
AcDbProxyObject
 90
      499
 91
      501
 93
      444
310
42D31A5B995C185D1D195C9B90E409028333333333333E33F0000000000000F9010790141107004050750841D405064090741402483A0350
1001
ACAD
1000
AcDbSavedByObjectVersion
1070
     0
  0
ACAD_PROXY_OBJECT
  5
3C
102
{ACAD_REACTORS
330
2A
102
}
330
2A
100
AcDbProxyObject
 90
      499
 91
      501
 93
      444
310
42D3DD995C9A185B99D3D999915409028333333333333E33F0000000000000F9010790141107004050150941D405064090741402480A0350
1001
ACAD
1000
AcDbSavedByObjectVersion
1070
     0
  0
ACAD_PROXY_OBJECT
  5
33
102
{ACAD_REACTORS
330
2A
102
}
330
2A
100
AcDbProxyObject
 90
      499
 91
      501
 93
      428
310
425499585B1A5CDD1A58D08409038333333333333E33F0000000000000F9010740A907004050150800405405064090740C02480A1B40
1001
ACAD
1000
AcDbSavedByObjectVersion
1070
     0
  0
ACAD_PROXY_OBJECT
  5
42
102
{ACAD_REACTORS
330
2A
102
}
330
2A
100
AcDbProxyObject
 90
      499
 91
      501
 93
      420
310
4194DA1859195911B40902404333333333333E33F0000000000000F9010740A41107004050150800405405064090840C02480A0B40
1001
ACAD
1000
AcDbSavedByObjectVersion
1070
     0
  0
ACAD_PROXY_OBJECT
  5
41
102
{ACAD_REACTORS
330
2A
102
}
330
2A
100
AcDbProxyObject
 90
      499
 91
      501
 93
      516
310
4454DA18591959081DDA5D1A08195919D95CD1A40902404333333333333E33F0000000000000F901074090142907004050250800405405064090740C02480A0B40
1001
ACAD
1000
AcDbSavedByObjectVersion
1070
     0
  0
ACAD_PROXY_OBJECT
  5
3E
102
{ACAD_REACTORS
330
2A
102
}
330
2A
100
AcDbProxyObject
 90
      499
 91
      501
 93
      532
310
4394DA1859195CC81BD98811DC985E5174090240C333333333333E33F0000000000000F901079024090741D01000000000000111010841D405064090740C02480A0340
1001
ACAD
1000
AcDbSavedByObjectVersion
1070
     0
  0
ACAD_PROXY_OBJECT
  5
3F
102
{ACAD_REACTORS
330
2A
102
}
330
2A
100
AcDbProxyObject
 90
      499
 91
      501
 93
      476
310
41D4DAD95D18DA1E51840502408333333333333E33F0000000000000F901079024090741D01000000000000111010B41D405064090741802480A0340
1001
ACAD
1000
AcDbSavedByObjectVersion
1070
     0
  0
ACAD_PROXY_OBJECT
  5
37
102
{ACAD_REACTORS
330
2A
102
}
330
2A
100
AcDbProxyObject
 90
      499
 91
      501
 93
      412
310
41D51A1A58DAD95B90D409028333333333333E33F0000000000000F9010790141107004050150C41D405064090741402480A0350
1001
ACAD
1000
AcDbSavedByObjectVersion
1070
     0
  0
ACAD_PROXY_OBJECT
  5
30
102
{ACAD_REACTORS
330
2A
102
}
330
2A
100
AcDbProxyObject
 90
      499
 91
      501
 93
      420
310
4255DA5C99599C985B595059028333333333333E33F0000000000000F90107901411070040501600405405064090740C02480A0340
1001
ACAD
1000
AcDbSavedByObjectVersion
1070
     0
  0
ACAD_PROXY_OBJECT
  5
40
102
{ACAD_REACTORS
330
2A
102
}
330
2A
100
AcDbProxyObject
 90
      499
 91
      501
 93
      404
310
41560B54985E51940902404000000000000E03F0000000000000F9010740501907004050150841D405064090740C02480A1B40
1001
ACAD
1000
AcDbSavedByObjectVersion
1070
     0
  0
XRECORD
  5
289
102
{ACAD_REACTORS
330
27F
102
}
330
27F
100
AcDbXrecord
340
0
  0
XRECORD
  5
288
102
{ACAD_REACTORS
330
27F
102
}
330
27F
100
AcDbXrecord
 90
        0
  0
XRECORD
  5
29F
102
{ACAD_REACTORS
330
27F
102
}
330
27F
100
AcDbXrecord
1000
DSTYLE
1002
{
1070
   171
 70
     2
1070
   143
 40
25.4
1070
   274
 70
     2
1070
    41
 40
0.18
1070
   141
 40
0.09
1070
   271
 70
     4
1070
    43
 40
0.38
1070
   278
 70
    46
1070
    44
 40
0.18
1070
    42
 40
0.0625
1070
   147
 40
0.09
1070
    77
 70
     0
1070
   272
 70
     4
1070
    73
 70
     1
1070
   172
 70
     0
1070
    74
 70
     1
1070
   283
 70
     1
1070
   340
340
11
1070
   140
 40
0.18
1070
   284
 70
     0
1070
    78
 70
     0
1002
}
  0
XRECORD
  5
28A
102
{ACAD_REACTORS
330
27F
102
}
330
27F
100
AcDbXrecord
  1
{D1CF8066-FA31-4AEA-9AC7-BB8114368075}
  0
XRECORD
  5
282
102
{ACAD_REACTORS
330
27F
102
}
330
27F
100
AcDbXrecord
  1

  0
XRECORD
  5
287
102
{ACAD_REACTORS
330
27F
102
}
330
27F
100
AcDbXrecord
 90
        4
  0
XRECORD
  5
284
102
{ACAD_REACTORS
330
27F
102
}
330
27F
100
AcDbXrecord
340
1A
  0
XRECORD
  5
286
102
{ACAD_REACTORS
330
27F
102
}
330
27F
100
AcDbXrecord
 90
    10781
  0
XRECORD
  5
285
102
{ACAD_REACTORS
330
27F
102
}
330
27F
100
AcDbXrecord
340
19
  0
XRECORD
  5
28C
102
{ACAD_REACTORS
330
27F
102
}
330
27F
100
AcDbXrecord
 40
0.0
  0
XRECORD
  5
28F
102
{ACAD_REACTORS
330
27F
102
}
330
27F
100
AcDbXrecord
340
0
  0
XRECORD
  5
295
102
{ACAD_REACTORS
330
27F
102
}
330
27F
100
AcDbXrecord
 10
0.0
 20
0.0
 30
0.0
  0
XRECORD
  5
291
102
{ACAD_REACTORS
330
27F
102
}
330
27F
100
AcDbXrecord
 10
0.0
 20
0.0
 30
0.0
  0
XRECORD
  5
294
102
{ACAD_REACTORS
330
27F
102
}
330
27F
100
AcDbXrecord
 10
0.0
 20
0.0
 30
0.0
  0
XRECORD
  5
292
102
{ACAD_REACTORS
330
27F
102
}
330
27F
100
AcDbXrecord
 10
0.0
 20
0.0
 30
0.0
  0
XRECORD
  5
293
102
{ACAD_REACTORS
330
27F
102
}
330
27F
100
AcDbXrecord
 10
0.0
 20
0.0
 30
0.0
  0
XRECORD
  5
290
102
{ACAD_REACTORS
330
27F
102
}
330
27F
100
AcDbXrecord
 10
0.0
 20
0.0
 30
0.0
  0
XRECORD
  5
28D
102
{ACAD_REACTORS
330
27F
102
}
330
27F
100
AcDbXrecord
340
0
  0
XRECORD
  5
28E
102
{ACAD_REACTORS
330
27F
102
}
330
27F
100
AcDbXrecord
 70
     0
  0
XRECORD
  5
283
102
{ACAD_REACTORS
330
27F
102
}
330
27F
100
AcDbXrecord
  1

  0
XRECORD
  5
280
102
{ACAD_REACTORS
330
27F
102
}
330
27F
100
AcDbXrecord
 90
        1
  0
XRECORD
  5
281
102
{ACAD_REACTORS
330
27F
102
}
330
27F
100
AcDbXrecord
 90
       70
  0
XRECORD
  5
298
102
{ACAD_REACTORS
330
27F
102
}
330
27F
100
AcDbXrecord
340
0
  0
XRECORD
  5
29E
102
{ACAD_REACTORS
330
27F
102
}
330
27F
100
AcDbXrecord
 10
0.0
 20
0.0
 30
0.0
  0
XRECORD
  5
29A
102
{ACAD_REACTORS
330
27F
102
}
330
27F
100
AcDbXrecord
 10
0.0
 20
0.0
 30
0.0
  0
XRECORD
  5
29D
102
{ACAD_REACTORS
330
27F
102
}
330
27F
100
AcDbXrecord
 10
0.0
 20
0.0
 30
0.0
  0
XRECORD
  5
29B
102
{ACAD_REACTORS
330
27F
102
}
330
27F
100
AcDbXrecord
 10
0.0
 20
0.0
 30
0.0
  0
XRECORD
  5
29C
102
{ACAD_REACTORS
330
27F
102
}
330
27F
100
AcDbXrecord
 10
0.0
 20
0.0
 30
0.0
  0
XRECORD
  5
299
102
{ACAD_REACTORS
330
27F
102
}
330
27F
100
AcDbXrecord
 10
0.0
 20
0.0
 30
0.0
  0
XRECORD
  5
296
102
{ACAD_REACTORS
330
27F
102
}
330
27F
100
AcDbXrecord
340
0
  0
XRECORD
  5
297
102
{ACAD_REACTORS
330
27F
102
}
330
27F
100
AcDbXrecord
 70
     0
  0
XRECORD
  5
28B
102
{ACAD_REACTORS
330
27F
102
}
330
27F
100
AcDbXrecord
  1
{FAEB1C32-E019-11D5-929B-00C0DF256EC4}
  0
DICTIONARYVAR
  5
2A9
102
{ACAD_REACTORS
330
2A0
102
}
330
2A0
100
DictionaryVariables
280
     0
  1
1:1
  0
DICTIONARYVAR
  5
2A2
102
{ACAD_REACTORS
330
2A0
102
}
330
2A0
100
DictionaryVariables
280
     0
  1
Standard
  0
DICTIONARYVAR
  5
2A1
102
{ACAD_REACTORS
330
2A0
102
}
330
2A0
100
DictionaryVariables
280
     0
  1
Standard
  0
DICTIONARYVAR
  5
2A5
102
{ACAD_REACTORS
330
2A0
102
}
330
2A0
100
DictionaryVariables
280
     0
  1
2
  0
DICTIONARYVAR
  5
2A6
102
{ACAD_REACTORS
330
2A0
102
}
330
2A0
100
DictionaryVariables
280
     0
  1
1
  0
DICTIONARYVAR
  5
2AA
102
{ACAD_REACTORS
330
2A0
102
}
330
2A0
100
DictionaryVariables
280
     0
  1
1
  0
DICTIONARY
  5
2AD
330
45
100
AcDbDictionary
280
     1
  3
ACAD_XREC_ROUNDTRIP
360
2AE
  0
DICTIONARY
  5
2AB
330
44
100
AcDbDictionary
280
     1
  3
ACAD_XREC_ROUNDTRIP
360
2AC
  0
DICTIONARY
  5
2AF
330
46
100
AcDbDictionary
280
     1
  3
ACAD_XREC_ROUNDTRIP
360
2B0
  0
XRECORD
  5
2AE
102
{ACAD_REACTORS
330
2AD
102
}
330
2AD
100
AcDbXrecord
102
MATERIAL
148
0.0
149
0.0
149
0.0
 93
        0
 94
      127
282
     0
 72
     1
 77
     1
171
     1
175
     1
179
     1
273
     0
  0
XRECORD
  5
2AC
102
{ACAD_REACTORS
330
2AB
102
}
330
2AB
100
AcDbXrecord
102
MATERIAL
148
0.0
149
0.0
149
0.0
 93
        0
 94
      127
282
     0
 72
     1
 77
     1
171
     1
175
     1
179
     1
273
     0
  0
XRECORD
  5
2B0
102
{ACAD_REACTORS
330
2AF
102
}
330
2AF
100
AcDbXrecord
102
MATERIAL
148
0.0
149
0.0
149
0.0
 93
        0
 94
      127
282
     0
 72
     1
 77
     1
171
     1
175
     1
179
     1
273
     0
  0
ENDSEC
  0
EOF
