G04 #@! TF.FileFunction,Soldermask,Bot*
%FSLAX46Y46*%
G04 Gerber Fmt 4.6, Leading zero omitted, Abs format (unit mm)*
G04 Created by KiCad (PCBNEW 4.0.7) date 09/07/18 14:24:09*
%MOMM*%
%LPD*%
G01*
G04 APERTURE LIST*
%ADD10C,0.100000*%
%ADD11C,2.200000*%
%ADD12R,2.200000X2.200000*%
%ADD13R,2.800000X2.000000*%
%ADD14O,2.800000X2.000000*%
%ADD15R,2.100000X2.100000*%
%ADD16O,2.100000X2.100000*%
G04 APERTURE END LIST*
D10*
D11*
X147955000Y-107315000D03*
X147955000Y-104775000D03*
D12*
X147955000Y-92075000D03*
D11*
X147955000Y-94615000D03*
X147955000Y-97155000D03*
X147955000Y-99695000D03*
X147955000Y-102235000D03*
X167640000Y-82550000D03*
X170180000Y-82550000D03*
D12*
X170180000Y-69850000D03*
D11*
X167640000Y-69850000D03*
X170180000Y-72390000D03*
X167640000Y-72390000D03*
X170180000Y-74930000D03*
X167640000Y-74930000D03*
X170180000Y-77470000D03*
X167640000Y-77470000D03*
X170180000Y-80010000D03*
X167640000Y-80010000D03*
X111760000Y-106680000D03*
X111760000Y-104140000D03*
D12*
X111760000Y-91440000D03*
D11*
X111760000Y-93980000D03*
X111760000Y-96520000D03*
X111760000Y-99060000D03*
X111760000Y-101600000D03*
X147320000Y-82550000D03*
X147320000Y-80010000D03*
D12*
X147320000Y-67310000D03*
D11*
X147320000Y-69850000D03*
X147320000Y-72390000D03*
X147320000Y-74930000D03*
X147320000Y-77470000D03*
X111760000Y-81915000D03*
X111760000Y-79375000D03*
D12*
X111760000Y-66675000D03*
D11*
X111760000Y-69215000D03*
X111760000Y-71755000D03*
X111760000Y-74295000D03*
X111760000Y-76835000D03*
D13*
X116840000Y-69215000D03*
D14*
X116840000Y-71755000D03*
X116840000Y-74295000D03*
X116840000Y-76835000D03*
X116840000Y-79375000D03*
X116840000Y-81915000D03*
X127000000Y-81915000D03*
X127000000Y-79375000D03*
X127000000Y-76835000D03*
X127000000Y-74295000D03*
X127000000Y-71755000D03*
X127000000Y-69215000D03*
D13*
X152400000Y-69850000D03*
D14*
X152400000Y-72390000D03*
X152400000Y-74930000D03*
X152400000Y-77470000D03*
X152400000Y-80010000D03*
X152400000Y-82550000D03*
X162560000Y-82550000D03*
X162560000Y-80010000D03*
X162560000Y-77470000D03*
X162560000Y-74930000D03*
X162560000Y-72390000D03*
X162560000Y-69850000D03*
D15*
X134620000Y-71755000D03*
D16*
X132080000Y-71755000D03*
X134620000Y-74295000D03*
X132080000Y-74295000D03*
X134620000Y-76835000D03*
X132080000Y-76835000D03*
X134620000Y-79375000D03*
X132080000Y-79375000D03*
D13*
X116840000Y-93980000D03*
D14*
X116840000Y-96520000D03*
X116840000Y-99060000D03*
X116840000Y-101600000D03*
X116840000Y-104140000D03*
X116840000Y-106680000D03*
X127000000Y-106680000D03*
X127000000Y-104140000D03*
X127000000Y-101600000D03*
X127000000Y-99060000D03*
X127000000Y-96520000D03*
X127000000Y-93980000D03*
D15*
X135890000Y-90170000D03*
D16*
X135890000Y-92710000D03*
X135890000Y-95250000D03*
X135890000Y-97790000D03*
X135890000Y-100330000D03*
X135890000Y-102870000D03*
X135890000Y-105410000D03*
X135890000Y-107950000D03*
X135890000Y-110490000D03*
D13*
X153035000Y-94615000D03*
D14*
X153035000Y-97155000D03*
X153035000Y-99695000D03*
X153035000Y-102235000D03*
X153035000Y-104775000D03*
X153035000Y-107315000D03*
X163195000Y-107315000D03*
X163195000Y-104775000D03*
X163195000Y-102235000D03*
X163195000Y-99695000D03*
X163195000Y-97155000D03*
X163195000Y-94615000D03*
D15*
X171450000Y-95885000D03*
D16*
X168910000Y-95885000D03*
X171450000Y-98425000D03*
X168910000Y-98425000D03*
X171450000Y-100965000D03*
X168910000Y-100965000D03*
X171450000Y-103505000D03*
X168910000Y-103505000D03*
X171450000Y-106045000D03*
X168910000Y-106045000D03*
M02*
