G04 #@! TF.FileFunction,Other,Fab,Top*
%FSLAX46Y46*%
G04 Gerber Fmt 4.6, Leading zero omitted, Abs format (unit mm)*
G04 Created by KiCad (PCBNEW 4.0.7) date 10/12/18 14:52:48*
%MOMM*%
%LPD*%
G01*
G04 APERTURE LIST*
%ADD10C,0.100000*%
%ADD11C,0.200000*%
%ADD12C,0.120000*%
%ADD13C,0.150000*%
%ADD14C,0.105000*%
G04 APERTURE END LIST*
D10*
D11*
X143510000Y-113030000D02*
X176530000Y-113030000D01*
X176530000Y-87630000D02*
X176530000Y-113030000D01*
X143510000Y-87630000D02*
X176530000Y-87630000D01*
X143510000Y-113030000D02*
X143510000Y-87630000D01*
X142240000Y-87630000D02*
X142240000Y-110490000D01*
X107950000Y-87630000D02*
X142240000Y-87630000D01*
X107950000Y-110490000D02*
X107950000Y-87630000D01*
X107950000Y-113030000D02*
X107950000Y-110490000D01*
X142240000Y-113030000D02*
X107950000Y-113030000D01*
X142240000Y-110490000D02*
X142240000Y-113030000D01*
X107950000Y-113030000D02*
X107950000Y-110490000D01*
X142240000Y-113030000D02*
X107950000Y-113030000D01*
X142240000Y-110490000D02*
X142240000Y-113030000D01*
X176530000Y-63500000D02*
X143510000Y-63500000D01*
X176530000Y-86360000D02*
X176530000Y-63500000D01*
X143510000Y-86360000D02*
X176530000Y-86360000D01*
X143510000Y-63500000D02*
X143510000Y-86360000D01*
X142240000Y-86360000D02*
X142240000Y-63500000D01*
X107950000Y-86360000D02*
X142240000Y-86360000D01*
X107950000Y-63500000D02*
X107950000Y-86360000D01*
X142240000Y-63500000D02*
X107950000Y-63500000D01*
D10*
X146685000Y-103505000D02*
X146685000Y-108585000D01*
X146685000Y-108585000D02*
X149225000Y-108585000D01*
X149225000Y-108585000D02*
X149225000Y-103505000D01*
X146685000Y-90805000D02*
X146685000Y-103505000D01*
X149225000Y-103505000D02*
X149225000Y-90805000D01*
X149225000Y-90805000D02*
X146685000Y-90805000D01*
X110490000Y-102870000D02*
X110490000Y-107950000D01*
X110490000Y-107950000D02*
X113030000Y-107950000D01*
X113030000Y-107950000D02*
X113030000Y-102870000D01*
X110490000Y-90170000D02*
X110490000Y-102870000D01*
X113030000Y-102870000D02*
X113030000Y-90170000D01*
X113030000Y-90170000D02*
X110490000Y-90170000D01*
X146050000Y-78740000D02*
X146050000Y-83820000D01*
X146050000Y-83820000D02*
X148590000Y-83820000D01*
X148590000Y-83820000D02*
X148590000Y-78740000D01*
X146050000Y-66040000D02*
X146050000Y-78740000D01*
X148590000Y-78740000D02*
X148590000Y-66040000D01*
X148590000Y-66040000D02*
X146050000Y-66040000D01*
X110490000Y-78105000D02*
X110490000Y-83185000D01*
X110490000Y-83185000D02*
X113030000Y-83185000D01*
X113030000Y-83185000D02*
X113030000Y-78105000D01*
X110490000Y-65405000D02*
X110490000Y-78105000D01*
X113030000Y-78105000D02*
X113030000Y-65405000D01*
X113030000Y-65405000D02*
X110490000Y-65405000D01*
X118580000Y-73965000D02*
X120180000Y-73965000D01*
X118580000Y-77165000D02*
X118580000Y-73965000D01*
X120180000Y-77165000D02*
X118580000Y-77165000D01*
X120180000Y-73965000D02*
X120180000Y-77165000D01*
X123660000Y-73965000D02*
X125260000Y-73965000D01*
X123660000Y-77165000D02*
X123660000Y-73965000D01*
X125260000Y-77165000D02*
X123660000Y-77165000D01*
X125260000Y-73965000D02*
X125260000Y-77165000D01*
X154140000Y-74600000D02*
X155740000Y-74600000D01*
X154140000Y-77800000D02*
X154140000Y-74600000D01*
X155740000Y-77800000D02*
X154140000Y-77800000D01*
X155740000Y-74600000D02*
X155740000Y-77800000D01*
X159220000Y-74600000D02*
X160820000Y-74600000D01*
X159220000Y-77800000D02*
X159220000Y-74600000D01*
X160820000Y-77800000D02*
X159220000Y-77800000D01*
X160820000Y-74600000D02*
X160820000Y-77800000D01*
D12*
X115570000Y-83185000D02*
X128270000Y-83185000D01*
X115570000Y-67945000D02*
X115570000Y-83185000D01*
X128270000Y-83185000D02*
X128270000Y-67945000D01*
X125857000Y-67945000D02*
X126619000Y-68707000D01*
D10*
X118350000Y-67945000D02*
X126490000Y-67945000D01*
X128270000Y-67945000D02*
X115570000Y-67945000D01*
D12*
X151130000Y-83820000D02*
X163830000Y-83820000D01*
X151130000Y-68580000D02*
X151130000Y-83820000D01*
X163830000Y-83820000D02*
X163830000Y-68580000D01*
X161417000Y-68580000D02*
X162179000Y-69342000D01*
D10*
X153910000Y-68580000D02*
X162050000Y-68580000D01*
X163830000Y-68580000D02*
X151130000Y-68580000D01*
X137960000Y-74625000D02*
X136360000Y-74625000D01*
X137960000Y-71425000D02*
X137960000Y-74625000D01*
X136360000Y-71425000D02*
X137960000Y-71425000D01*
X136360000Y-74625000D02*
X136360000Y-71425000D01*
X118580000Y-98730000D02*
X120180000Y-98730000D01*
X118580000Y-101930000D02*
X118580000Y-98730000D01*
X120180000Y-101930000D02*
X118580000Y-101930000D01*
X120180000Y-98730000D02*
X120180000Y-101930000D01*
X123660000Y-98730000D02*
X125260000Y-98730000D01*
X123660000Y-101930000D02*
X123660000Y-98730000D01*
X125260000Y-101930000D02*
X123660000Y-101930000D01*
X125260000Y-98730000D02*
X125260000Y-101930000D01*
D12*
X115570000Y-107950000D02*
X128270000Y-107950000D01*
X115570000Y-92710000D02*
X115570000Y-107950000D01*
X128270000Y-107950000D02*
X128270000Y-92710000D01*
X125857000Y-92710000D02*
X126619000Y-93472000D01*
D10*
X118350000Y-92710000D02*
X126490000Y-92710000D01*
X128270000Y-92710000D02*
X115570000Y-92710000D01*
X154775000Y-99365000D02*
X156375000Y-99365000D01*
X154775000Y-102565000D02*
X154775000Y-99365000D01*
X156375000Y-102565000D02*
X154775000Y-102565000D01*
X156375000Y-99365000D02*
X156375000Y-102565000D01*
X159855000Y-99365000D02*
X161455000Y-99365000D01*
X159855000Y-102565000D02*
X159855000Y-99365000D01*
X161455000Y-102565000D02*
X159855000Y-102565000D01*
X161455000Y-99365000D02*
X161455000Y-102565000D01*
D12*
X151765000Y-108585000D02*
X164465000Y-108585000D01*
X151765000Y-93345000D02*
X151765000Y-108585000D01*
X164465000Y-108585000D02*
X164465000Y-93345000D01*
X162052000Y-93345000D02*
X162814000Y-94107000D01*
D10*
X154545000Y-93345000D02*
X162685000Y-93345000D01*
X164465000Y-93345000D02*
X151765000Y-93345000D01*
D13*
X145772143Y-103083809D02*
X145819762Y-103131428D01*
X145867381Y-103274285D01*
X145867381Y-103369523D01*
X145819762Y-103512381D01*
X145724524Y-103607619D01*
X145629286Y-103655238D01*
X145438810Y-103702857D01*
X145295952Y-103702857D01*
X145105476Y-103655238D01*
X145010238Y-103607619D01*
X144915000Y-103512381D01*
X144867381Y-103369523D01*
X144867381Y-103274285D01*
X144915000Y-103131428D01*
X144962619Y-103083809D01*
X144867381Y-102464762D02*
X144867381Y-102274285D01*
X144915000Y-102179047D01*
X145010238Y-102083809D01*
X145200714Y-102036190D01*
X145534048Y-102036190D01*
X145724524Y-102083809D01*
X145819762Y-102179047D01*
X145867381Y-102274285D01*
X145867381Y-102464762D01*
X145819762Y-102560000D01*
X145724524Y-102655238D01*
X145534048Y-102702857D01*
X145200714Y-102702857D01*
X145010238Y-102655238D01*
X144915000Y-102560000D01*
X144867381Y-102464762D01*
X145867381Y-101607619D02*
X144867381Y-101607619D01*
X145867381Y-101036190D01*
X144867381Y-101036190D01*
X145867381Y-100560000D02*
X144867381Y-100560000D01*
X145867381Y-99988571D01*
X144867381Y-99988571D01*
X145962619Y-99750476D02*
X145962619Y-98988571D01*
X144867381Y-98560000D02*
X144867381Y-98464761D01*
X144915000Y-98369523D01*
X144962619Y-98321904D01*
X145057857Y-98274285D01*
X145248333Y-98226666D01*
X145486429Y-98226666D01*
X145676905Y-98274285D01*
X145772143Y-98321904D01*
X145819762Y-98369523D01*
X145867381Y-98464761D01*
X145867381Y-98560000D01*
X145819762Y-98655238D01*
X145772143Y-98702857D01*
X145676905Y-98750476D01*
X145486429Y-98798095D01*
X145248333Y-98798095D01*
X145057857Y-98750476D01*
X144962619Y-98702857D01*
X144915000Y-98655238D01*
X144867381Y-98560000D01*
X145867381Y-97274285D02*
X145867381Y-97845714D01*
X145867381Y-97560000D02*
X144867381Y-97560000D01*
X145010238Y-97655238D01*
X145105476Y-97750476D01*
X145153095Y-97845714D01*
X144867381Y-96940952D02*
X145867381Y-96274285D01*
X144867381Y-96274285D02*
X145867381Y-96940952D01*
X144867381Y-95702857D02*
X144867381Y-95607618D01*
X144915000Y-95512380D01*
X144962619Y-95464761D01*
X145057857Y-95417142D01*
X145248333Y-95369523D01*
X145486429Y-95369523D01*
X145676905Y-95417142D01*
X145772143Y-95464761D01*
X145819762Y-95512380D01*
X145867381Y-95607618D01*
X145867381Y-95702857D01*
X145819762Y-95798095D01*
X145772143Y-95845714D01*
X145676905Y-95893333D01*
X145486429Y-95940952D01*
X145248333Y-95940952D01*
X145057857Y-95893333D01*
X144962619Y-95845714D01*
X144915000Y-95798095D01*
X144867381Y-95702857D01*
X144867381Y-95036190D02*
X144867381Y-94369523D01*
X145867381Y-94798095D01*
X147216905Y-100782381D02*
X147216905Y-99782381D01*
X147597858Y-99782381D01*
X147693096Y-99830000D01*
X147740715Y-99877619D01*
X147788334Y-99972857D01*
X147788334Y-100115714D01*
X147740715Y-100210952D01*
X147693096Y-100258571D01*
X147597858Y-100306190D01*
X147216905Y-100306190D01*
X148121667Y-99782381D02*
X148788334Y-99782381D01*
X148359762Y-100782381D01*
X109577143Y-103083809D02*
X109624762Y-103131428D01*
X109672381Y-103274285D01*
X109672381Y-103369523D01*
X109624762Y-103512381D01*
X109529524Y-103607619D01*
X109434286Y-103655238D01*
X109243810Y-103702857D01*
X109100952Y-103702857D01*
X108910476Y-103655238D01*
X108815238Y-103607619D01*
X108720000Y-103512381D01*
X108672381Y-103369523D01*
X108672381Y-103274285D01*
X108720000Y-103131428D01*
X108767619Y-103083809D01*
X108672381Y-102464762D02*
X108672381Y-102274285D01*
X108720000Y-102179047D01*
X108815238Y-102083809D01*
X109005714Y-102036190D01*
X109339048Y-102036190D01*
X109529524Y-102083809D01*
X109624762Y-102179047D01*
X109672381Y-102274285D01*
X109672381Y-102464762D01*
X109624762Y-102560000D01*
X109529524Y-102655238D01*
X109339048Y-102702857D01*
X109005714Y-102702857D01*
X108815238Y-102655238D01*
X108720000Y-102560000D01*
X108672381Y-102464762D01*
X109672381Y-101607619D02*
X108672381Y-101607619D01*
X109672381Y-101036190D01*
X108672381Y-101036190D01*
X109672381Y-100560000D02*
X108672381Y-100560000D01*
X109672381Y-99988571D01*
X108672381Y-99988571D01*
X109767619Y-99750476D02*
X109767619Y-98988571D01*
X108672381Y-98560000D02*
X108672381Y-98464761D01*
X108720000Y-98369523D01*
X108767619Y-98321904D01*
X108862857Y-98274285D01*
X109053333Y-98226666D01*
X109291429Y-98226666D01*
X109481905Y-98274285D01*
X109577143Y-98321904D01*
X109624762Y-98369523D01*
X109672381Y-98464761D01*
X109672381Y-98560000D01*
X109624762Y-98655238D01*
X109577143Y-98702857D01*
X109481905Y-98750476D01*
X109291429Y-98798095D01*
X109053333Y-98798095D01*
X108862857Y-98750476D01*
X108767619Y-98702857D01*
X108720000Y-98655238D01*
X108672381Y-98560000D01*
X109672381Y-97274285D02*
X109672381Y-97845714D01*
X109672381Y-97560000D02*
X108672381Y-97560000D01*
X108815238Y-97655238D01*
X108910476Y-97750476D01*
X108958095Y-97845714D01*
X108672381Y-96940952D02*
X109672381Y-96274285D01*
X108672381Y-96274285D02*
X109672381Y-96940952D01*
X108672381Y-95702857D02*
X108672381Y-95607618D01*
X108720000Y-95512380D01*
X108767619Y-95464761D01*
X108862857Y-95417142D01*
X109053333Y-95369523D01*
X109291429Y-95369523D01*
X109481905Y-95417142D01*
X109577143Y-95464761D01*
X109624762Y-95512380D01*
X109672381Y-95607618D01*
X109672381Y-95702857D01*
X109624762Y-95798095D01*
X109577143Y-95845714D01*
X109481905Y-95893333D01*
X109291429Y-95940952D01*
X109053333Y-95940952D01*
X108862857Y-95893333D01*
X108767619Y-95845714D01*
X108720000Y-95798095D01*
X108672381Y-95702857D01*
X108672381Y-95036190D02*
X108672381Y-94369523D01*
X109672381Y-94798095D01*
X111021905Y-100147381D02*
X111021905Y-99147381D01*
X111402858Y-99147381D01*
X111498096Y-99195000D01*
X111545715Y-99242619D01*
X111593334Y-99337857D01*
X111593334Y-99480714D01*
X111545715Y-99575952D01*
X111498096Y-99623571D01*
X111402858Y-99671190D01*
X111021905Y-99671190D01*
X112498096Y-99147381D02*
X112021905Y-99147381D01*
X111974286Y-99623571D01*
X112021905Y-99575952D01*
X112117143Y-99528333D01*
X112355239Y-99528333D01*
X112450477Y-99575952D01*
X112498096Y-99623571D01*
X112545715Y-99718810D01*
X112545715Y-99956905D01*
X112498096Y-100052143D01*
X112450477Y-100099762D01*
X112355239Y-100147381D01*
X112117143Y-100147381D01*
X112021905Y-100099762D01*
X111974286Y-100052143D01*
X145137143Y-78953809D02*
X145184762Y-79001428D01*
X145232381Y-79144285D01*
X145232381Y-79239523D01*
X145184762Y-79382381D01*
X145089524Y-79477619D01*
X144994286Y-79525238D01*
X144803810Y-79572857D01*
X144660952Y-79572857D01*
X144470476Y-79525238D01*
X144375238Y-79477619D01*
X144280000Y-79382381D01*
X144232381Y-79239523D01*
X144232381Y-79144285D01*
X144280000Y-79001428D01*
X144327619Y-78953809D01*
X144232381Y-78334762D02*
X144232381Y-78144285D01*
X144280000Y-78049047D01*
X144375238Y-77953809D01*
X144565714Y-77906190D01*
X144899048Y-77906190D01*
X145089524Y-77953809D01*
X145184762Y-78049047D01*
X145232381Y-78144285D01*
X145232381Y-78334762D01*
X145184762Y-78430000D01*
X145089524Y-78525238D01*
X144899048Y-78572857D01*
X144565714Y-78572857D01*
X144375238Y-78525238D01*
X144280000Y-78430000D01*
X144232381Y-78334762D01*
X145232381Y-77477619D02*
X144232381Y-77477619D01*
X145232381Y-76906190D01*
X144232381Y-76906190D01*
X145232381Y-76430000D02*
X144232381Y-76430000D01*
X145232381Y-75858571D01*
X144232381Y-75858571D01*
X145327619Y-75620476D02*
X145327619Y-74858571D01*
X144232381Y-74430000D02*
X144232381Y-74334761D01*
X144280000Y-74239523D01*
X144327619Y-74191904D01*
X144422857Y-74144285D01*
X144613333Y-74096666D01*
X144851429Y-74096666D01*
X145041905Y-74144285D01*
X145137143Y-74191904D01*
X145184762Y-74239523D01*
X145232381Y-74334761D01*
X145232381Y-74430000D01*
X145184762Y-74525238D01*
X145137143Y-74572857D01*
X145041905Y-74620476D01*
X144851429Y-74668095D01*
X144613333Y-74668095D01*
X144422857Y-74620476D01*
X144327619Y-74572857D01*
X144280000Y-74525238D01*
X144232381Y-74430000D01*
X145232381Y-73144285D02*
X145232381Y-73715714D01*
X145232381Y-73430000D02*
X144232381Y-73430000D01*
X144375238Y-73525238D01*
X144470476Y-73620476D01*
X144518095Y-73715714D01*
X144232381Y-72810952D02*
X145232381Y-72144285D01*
X144232381Y-72144285D02*
X145232381Y-72810952D01*
X144232381Y-71572857D02*
X144232381Y-71477618D01*
X144280000Y-71382380D01*
X144327619Y-71334761D01*
X144422857Y-71287142D01*
X144613333Y-71239523D01*
X144851429Y-71239523D01*
X145041905Y-71287142D01*
X145137143Y-71334761D01*
X145184762Y-71382380D01*
X145232381Y-71477618D01*
X145232381Y-71572857D01*
X145184762Y-71668095D01*
X145137143Y-71715714D01*
X145041905Y-71763333D01*
X144851429Y-71810952D01*
X144613333Y-71810952D01*
X144422857Y-71763333D01*
X144327619Y-71715714D01*
X144280000Y-71668095D01*
X144232381Y-71572857D01*
X144232381Y-70906190D02*
X144232381Y-70239523D01*
X145232381Y-70668095D01*
X146581905Y-76017381D02*
X146581905Y-75017381D01*
X146962858Y-75017381D01*
X147058096Y-75065000D01*
X147105715Y-75112619D01*
X147153334Y-75207857D01*
X147153334Y-75350714D01*
X147105715Y-75445952D01*
X147058096Y-75493571D01*
X146962858Y-75541190D01*
X146581905Y-75541190D01*
X147486667Y-75017381D02*
X148105715Y-75017381D01*
X147772381Y-75398333D01*
X147915239Y-75398333D01*
X148010477Y-75445952D01*
X148058096Y-75493571D01*
X148105715Y-75588810D01*
X148105715Y-75826905D01*
X148058096Y-75922143D01*
X148010477Y-75969762D01*
X147915239Y-76017381D01*
X147629524Y-76017381D01*
X147534286Y-75969762D01*
X147486667Y-75922143D01*
X109577143Y-78953809D02*
X109624762Y-79001428D01*
X109672381Y-79144285D01*
X109672381Y-79239523D01*
X109624762Y-79382381D01*
X109529524Y-79477619D01*
X109434286Y-79525238D01*
X109243810Y-79572857D01*
X109100952Y-79572857D01*
X108910476Y-79525238D01*
X108815238Y-79477619D01*
X108720000Y-79382381D01*
X108672381Y-79239523D01*
X108672381Y-79144285D01*
X108720000Y-79001428D01*
X108767619Y-78953809D01*
X108672381Y-78334762D02*
X108672381Y-78144285D01*
X108720000Y-78049047D01*
X108815238Y-77953809D01*
X109005714Y-77906190D01*
X109339048Y-77906190D01*
X109529524Y-77953809D01*
X109624762Y-78049047D01*
X109672381Y-78144285D01*
X109672381Y-78334762D01*
X109624762Y-78430000D01*
X109529524Y-78525238D01*
X109339048Y-78572857D01*
X109005714Y-78572857D01*
X108815238Y-78525238D01*
X108720000Y-78430000D01*
X108672381Y-78334762D01*
X109672381Y-77477619D02*
X108672381Y-77477619D01*
X109672381Y-76906190D01*
X108672381Y-76906190D01*
X109672381Y-76430000D02*
X108672381Y-76430000D01*
X109672381Y-75858571D01*
X108672381Y-75858571D01*
X109767619Y-75620476D02*
X109767619Y-74858571D01*
X108672381Y-74430000D02*
X108672381Y-74334761D01*
X108720000Y-74239523D01*
X108767619Y-74191904D01*
X108862857Y-74144285D01*
X109053333Y-74096666D01*
X109291429Y-74096666D01*
X109481905Y-74144285D01*
X109577143Y-74191904D01*
X109624762Y-74239523D01*
X109672381Y-74334761D01*
X109672381Y-74430000D01*
X109624762Y-74525238D01*
X109577143Y-74572857D01*
X109481905Y-74620476D01*
X109291429Y-74668095D01*
X109053333Y-74668095D01*
X108862857Y-74620476D01*
X108767619Y-74572857D01*
X108720000Y-74525238D01*
X108672381Y-74430000D01*
X109672381Y-73144285D02*
X109672381Y-73715714D01*
X109672381Y-73430000D02*
X108672381Y-73430000D01*
X108815238Y-73525238D01*
X108910476Y-73620476D01*
X108958095Y-73715714D01*
X108672381Y-72810952D02*
X109672381Y-72144285D01*
X108672381Y-72144285D02*
X109672381Y-72810952D01*
X108672381Y-71572857D02*
X108672381Y-71477618D01*
X108720000Y-71382380D01*
X108767619Y-71334761D01*
X108862857Y-71287142D01*
X109053333Y-71239523D01*
X109291429Y-71239523D01*
X109481905Y-71287142D01*
X109577143Y-71334761D01*
X109624762Y-71382380D01*
X109672381Y-71477618D01*
X109672381Y-71572857D01*
X109624762Y-71668095D01*
X109577143Y-71715714D01*
X109481905Y-71763333D01*
X109291429Y-71810952D01*
X109053333Y-71810952D01*
X108862857Y-71763333D01*
X108767619Y-71715714D01*
X108720000Y-71668095D01*
X108672381Y-71572857D01*
X108672381Y-70906190D02*
X108672381Y-70239523D01*
X109672381Y-70668095D01*
X111021905Y-74747381D02*
X111021905Y-73747381D01*
X111402858Y-73747381D01*
X111498096Y-73795000D01*
X111545715Y-73842619D01*
X111593334Y-73937857D01*
X111593334Y-74080714D01*
X111545715Y-74175952D01*
X111498096Y-74223571D01*
X111402858Y-74271190D01*
X111021905Y-74271190D01*
X112545715Y-74747381D02*
X111974286Y-74747381D01*
X112260000Y-74747381D02*
X112260000Y-73747381D01*
X112164762Y-73890238D01*
X112069524Y-73985476D01*
X111974286Y-74033095D01*
X121737381Y-77112619D02*
X121737381Y-77684048D01*
X121737381Y-77398334D02*
X120737381Y-77398334D01*
X120880238Y-77493572D01*
X120975476Y-77588810D01*
X121023095Y-77684048D01*
X120737381Y-76493572D02*
X120737381Y-76398333D01*
X120785000Y-76303095D01*
X120832619Y-76255476D01*
X120927857Y-76207857D01*
X121118333Y-76160238D01*
X121356429Y-76160238D01*
X121546905Y-76207857D01*
X121642143Y-76255476D01*
X121689762Y-76303095D01*
X121737381Y-76398333D01*
X121737381Y-76493572D01*
X121689762Y-76588810D01*
X121642143Y-76636429D01*
X121546905Y-76684048D01*
X121356429Y-76731667D01*
X121118333Y-76731667D01*
X120927857Y-76684048D01*
X120832619Y-76636429D01*
X120785000Y-76588810D01*
X120737381Y-76493572D01*
X120737381Y-75541191D02*
X120737381Y-75445952D01*
X120785000Y-75350714D01*
X120832619Y-75303095D01*
X120927857Y-75255476D01*
X121118333Y-75207857D01*
X121356429Y-75207857D01*
X121546905Y-75255476D01*
X121642143Y-75303095D01*
X121689762Y-75350714D01*
X121737381Y-75445952D01*
X121737381Y-75541191D01*
X121689762Y-75636429D01*
X121642143Y-75684048D01*
X121546905Y-75731667D01*
X121356429Y-75779286D01*
X121118333Y-75779286D01*
X120927857Y-75731667D01*
X120832619Y-75684048D01*
X120785000Y-75636429D01*
X120737381Y-75541191D01*
X121070714Y-74779286D02*
X121737381Y-74779286D01*
X121165952Y-74779286D02*
X121118333Y-74731667D01*
X121070714Y-74636429D01*
X121070714Y-74493571D01*
X121118333Y-74398333D01*
X121213571Y-74350714D01*
X121737381Y-74350714D01*
X121213571Y-73541190D02*
X121213571Y-73874524D01*
X121737381Y-73874524D02*
X120737381Y-73874524D01*
X120737381Y-73398333D01*
X119737143Y-75731666D02*
X119784762Y-75779285D01*
X119832381Y-75922142D01*
X119832381Y-76017380D01*
X119784762Y-76160238D01*
X119689524Y-76255476D01*
X119594286Y-76303095D01*
X119403810Y-76350714D01*
X119260952Y-76350714D01*
X119070476Y-76303095D01*
X118975238Y-76255476D01*
X118880000Y-76160238D01*
X118832381Y-76017380D01*
X118832381Y-75922142D01*
X118880000Y-75779285D01*
X118927619Y-75731666D01*
X119832381Y-74779285D02*
X119832381Y-75350714D01*
X119832381Y-75065000D02*
X118832381Y-75065000D01*
X118975238Y-75160238D01*
X119070476Y-75255476D01*
X119118095Y-75350714D01*
X123007381Y-77112619D02*
X123007381Y-77684048D01*
X123007381Y-77398334D02*
X122007381Y-77398334D01*
X122150238Y-77493572D01*
X122245476Y-77588810D01*
X122293095Y-77684048D01*
X122007381Y-76493572D02*
X122007381Y-76398333D01*
X122055000Y-76303095D01*
X122102619Y-76255476D01*
X122197857Y-76207857D01*
X122388333Y-76160238D01*
X122626429Y-76160238D01*
X122816905Y-76207857D01*
X122912143Y-76255476D01*
X122959762Y-76303095D01*
X123007381Y-76398333D01*
X123007381Y-76493572D01*
X122959762Y-76588810D01*
X122912143Y-76636429D01*
X122816905Y-76684048D01*
X122626429Y-76731667D01*
X122388333Y-76731667D01*
X122197857Y-76684048D01*
X122102619Y-76636429D01*
X122055000Y-76588810D01*
X122007381Y-76493572D01*
X122007381Y-75541191D02*
X122007381Y-75445952D01*
X122055000Y-75350714D01*
X122102619Y-75303095D01*
X122197857Y-75255476D01*
X122388333Y-75207857D01*
X122626429Y-75207857D01*
X122816905Y-75255476D01*
X122912143Y-75303095D01*
X122959762Y-75350714D01*
X123007381Y-75445952D01*
X123007381Y-75541191D01*
X122959762Y-75636429D01*
X122912143Y-75684048D01*
X122816905Y-75731667D01*
X122626429Y-75779286D01*
X122388333Y-75779286D01*
X122197857Y-75731667D01*
X122102619Y-75684048D01*
X122055000Y-75636429D01*
X122007381Y-75541191D01*
X122340714Y-74779286D02*
X123007381Y-74779286D01*
X122435952Y-74779286D02*
X122388333Y-74731667D01*
X122340714Y-74636429D01*
X122340714Y-74493571D01*
X122388333Y-74398333D01*
X122483571Y-74350714D01*
X123007381Y-74350714D01*
X122483571Y-73541190D02*
X122483571Y-73874524D01*
X123007381Y-73874524D02*
X122007381Y-73874524D01*
X122007381Y-73398333D01*
X124817143Y-75731666D02*
X124864762Y-75779285D01*
X124912381Y-75922142D01*
X124912381Y-76017380D01*
X124864762Y-76160238D01*
X124769524Y-76255476D01*
X124674286Y-76303095D01*
X124483810Y-76350714D01*
X124340952Y-76350714D01*
X124150476Y-76303095D01*
X124055238Y-76255476D01*
X123960000Y-76160238D01*
X123912381Y-76017380D01*
X123912381Y-75922142D01*
X123960000Y-75779285D01*
X124007619Y-75731666D01*
X124007619Y-75350714D02*
X123960000Y-75303095D01*
X123912381Y-75207857D01*
X123912381Y-74969761D01*
X123960000Y-74874523D01*
X124007619Y-74826904D01*
X124102857Y-74779285D01*
X124198095Y-74779285D01*
X124340952Y-74826904D01*
X124912381Y-75398333D01*
X124912381Y-74779285D01*
X157297381Y-77747619D02*
X157297381Y-78319048D01*
X157297381Y-78033334D02*
X156297381Y-78033334D01*
X156440238Y-78128572D01*
X156535476Y-78223810D01*
X156583095Y-78319048D01*
X156297381Y-77128572D02*
X156297381Y-77033333D01*
X156345000Y-76938095D01*
X156392619Y-76890476D01*
X156487857Y-76842857D01*
X156678333Y-76795238D01*
X156916429Y-76795238D01*
X157106905Y-76842857D01*
X157202143Y-76890476D01*
X157249762Y-76938095D01*
X157297381Y-77033333D01*
X157297381Y-77128572D01*
X157249762Y-77223810D01*
X157202143Y-77271429D01*
X157106905Y-77319048D01*
X156916429Y-77366667D01*
X156678333Y-77366667D01*
X156487857Y-77319048D01*
X156392619Y-77271429D01*
X156345000Y-77223810D01*
X156297381Y-77128572D01*
X156297381Y-76176191D02*
X156297381Y-76080952D01*
X156345000Y-75985714D01*
X156392619Y-75938095D01*
X156487857Y-75890476D01*
X156678333Y-75842857D01*
X156916429Y-75842857D01*
X157106905Y-75890476D01*
X157202143Y-75938095D01*
X157249762Y-75985714D01*
X157297381Y-76080952D01*
X157297381Y-76176191D01*
X157249762Y-76271429D01*
X157202143Y-76319048D01*
X157106905Y-76366667D01*
X156916429Y-76414286D01*
X156678333Y-76414286D01*
X156487857Y-76366667D01*
X156392619Y-76319048D01*
X156345000Y-76271429D01*
X156297381Y-76176191D01*
X156630714Y-75414286D02*
X157297381Y-75414286D01*
X156725952Y-75414286D02*
X156678333Y-75366667D01*
X156630714Y-75271429D01*
X156630714Y-75128571D01*
X156678333Y-75033333D01*
X156773571Y-74985714D01*
X157297381Y-74985714D01*
X156773571Y-74176190D02*
X156773571Y-74509524D01*
X157297381Y-74509524D02*
X156297381Y-74509524D01*
X156297381Y-74033333D01*
X155297143Y-76366666D02*
X155344762Y-76414285D01*
X155392381Y-76557142D01*
X155392381Y-76652380D01*
X155344762Y-76795238D01*
X155249524Y-76890476D01*
X155154286Y-76938095D01*
X154963810Y-76985714D01*
X154820952Y-76985714D01*
X154630476Y-76938095D01*
X154535238Y-76890476D01*
X154440000Y-76795238D01*
X154392381Y-76652380D01*
X154392381Y-76557142D01*
X154440000Y-76414285D01*
X154487619Y-76366666D01*
X154392381Y-76033333D02*
X154392381Y-75414285D01*
X154773333Y-75747619D01*
X154773333Y-75604761D01*
X154820952Y-75509523D01*
X154868571Y-75461904D01*
X154963810Y-75414285D01*
X155201905Y-75414285D01*
X155297143Y-75461904D01*
X155344762Y-75509523D01*
X155392381Y-75604761D01*
X155392381Y-75890476D01*
X155344762Y-75985714D01*
X155297143Y-76033333D01*
X158472381Y-77747619D02*
X158472381Y-78319048D01*
X158472381Y-78033334D02*
X157472381Y-78033334D01*
X157615238Y-78128572D01*
X157710476Y-78223810D01*
X157758095Y-78319048D01*
X157472381Y-77128572D02*
X157472381Y-77033333D01*
X157520000Y-76938095D01*
X157567619Y-76890476D01*
X157662857Y-76842857D01*
X157853333Y-76795238D01*
X158091429Y-76795238D01*
X158281905Y-76842857D01*
X158377143Y-76890476D01*
X158424762Y-76938095D01*
X158472381Y-77033333D01*
X158472381Y-77128572D01*
X158424762Y-77223810D01*
X158377143Y-77271429D01*
X158281905Y-77319048D01*
X158091429Y-77366667D01*
X157853333Y-77366667D01*
X157662857Y-77319048D01*
X157567619Y-77271429D01*
X157520000Y-77223810D01*
X157472381Y-77128572D01*
X157472381Y-76176191D02*
X157472381Y-76080952D01*
X157520000Y-75985714D01*
X157567619Y-75938095D01*
X157662857Y-75890476D01*
X157853333Y-75842857D01*
X158091429Y-75842857D01*
X158281905Y-75890476D01*
X158377143Y-75938095D01*
X158424762Y-75985714D01*
X158472381Y-76080952D01*
X158472381Y-76176191D01*
X158424762Y-76271429D01*
X158377143Y-76319048D01*
X158281905Y-76366667D01*
X158091429Y-76414286D01*
X157853333Y-76414286D01*
X157662857Y-76366667D01*
X157567619Y-76319048D01*
X157520000Y-76271429D01*
X157472381Y-76176191D01*
X157805714Y-75414286D02*
X158472381Y-75414286D01*
X157900952Y-75414286D02*
X157853333Y-75366667D01*
X157805714Y-75271429D01*
X157805714Y-75128571D01*
X157853333Y-75033333D01*
X157948571Y-74985714D01*
X158472381Y-74985714D01*
X157948571Y-74176190D02*
X157948571Y-74509524D01*
X158472381Y-74509524D02*
X157472381Y-74509524D01*
X157472381Y-74033333D01*
X160377143Y-76366666D02*
X160424762Y-76414285D01*
X160472381Y-76557142D01*
X160472381Y-76652380D01*
X160424762Y-76795238D01*
X160329524Y-76890476D01*
X160234286Y-76938095D01*
X160043810Y-76985714D01*
X159900952Y-76985714D01*
X159710476Y-76938095D01*
X159615238Y-76890476D01*
X159520000Y-76795238D01*
X159472381Y-76652380D01*
X159472381Y-76557142D01*
X159520000Y-76414285D01*
X159567619Y-76366666D01*
X159805714Y-75509523D02*
X160472381Y-75509523D01*
X159424762Y-75747619D02*
X160139048Y-75985714D01*
X160139048Y-75366666D01*
X117515238Y-84812143D02*
X117467619Y-84859762D01*
X117324762Y-84907381D01*
X117229524Y-84907381D01*
X117086666Y-84859762D01*
X116991428Y-84764524D01*
X116943809Y-84669286D01*
X116896190Y-84478810D01*
X116896190Y-84335952D01*
X116943809Y-84145476D01*
X116991428Y-84050238D01*
X117086666Y-83955000D01*
X117229524Y-83907381D01*
X117324762Y-83907381D01*
X117467619Y-83955000D01*
X117515238Y-84002619D01*
X118134285Y-83907381D02*
X118324762Y-83907381D01*
X118420000Y-83955000D01*
X118515238Y-84050238D01*
X118562857Y-84240714D01*
X118562857Y-84574048D01*
X118515238Y-84764524D01*
X118420000Y-84859762D01*
X118324762Y-84907381D01*
X118134285Y-84907381D01*
X118039047Y-84859762D01*
X117943809Y-84764524D01*
X117896190Y-84574048D01*
X117896190Y-84240714D01*
X117943809Y-84050238D01*
X118039047Y-83955000D01*
X118134285Y-83907381D01*
X118991428Y-84907381D02*
X118991428Y-83907381D01*
X119562857Y-84907381D01*
X119562857Y-83907381D01*
X119800952Y-85002619D02*
X120562857Y-85002619D01*
X121277143Y-83907381D02*
X120800952Y-83907381D01*
X120753333Y-84383571D01*
X120800952Y-84335952D01*
X120896190Y-84288333D01*
X121134286Y-84288333D01*
X121229524Y-84335952D01*
X121277143Y-84383571D01*
X121324762Y-84478810D01*
X121324762Y-84716905D01*
X121277143Y-84812143D01*
X121229524Y-84859762D01*
X121134286Y-84907381D01*
X120896190Y-84907381D01*
X120800952Y-84859762D01*
X120753333Y-84812143D01*
X121610476Y-83907381D02*
X121943809Y-84907381D01*
X122277143Y-83907381D01*
X122372381Y-85002619D02*
X123134286Y-85002619D01*
X123277143Y-83907381D02*
X123896191Y-83907381D01*
X123562857Y-84288333D01*
X123705715Y-84288333D01*
X123800953Y-84335952D01*
X123848572Y-84383571D01*
X123896191Y-84478810D01*
X123896191Y-84716905D01*
X123848572Y-84812143D01*
X123800953Y-84859762D01*
X123705715Y-84907381D01*
X123420000Y-84907381D01*
X123324762Y-84859762D01*
X123277143Y-84812143D01*
X124324762Y-84526429D02*
X125086667Y-84526429D01*
X125467619Y-83907381D02*
X126086667Y-83907381D01*
X125753333Y-84288333D01*
X125896191Y-84288333D01*
X125991429Y-84335952D01*
X126039048Y-84383571D01*
X126086667Y-84478810D01*
X126086667Y-84716905D01*
X126039048Y-84812143D01*
X125991429Y-84859762D01*
X125896191Y-84907381D01*
X125610476Y-84907381D01*
X125515238Y-84859762D01*
X125467619Y-84812143D01*
X126372381Y-83907381D02*
X126705714Y-84907381D01*
X127039048Y-83907381D01*
X121158095Y-81367381D02*
X121158095Y-82176905D01*
X121205714Y-82272143D01*
X121253333Y-82319762D01*
X121348571Y-82367381D01*
X121539048Y-82367381D01*
X121634286Y-82319762D01*
X121681905Y-82272143D01*
X121729524Y-82176905D01*
X121729524Y-81367381D01*
X122729524Y-82367381D02*
X122158095Y-82367381D01*
X122443809Y-82367381D02*
X122443809Y-81367381D01*
X122348571Y-81510238D01*
X122253333Y-81605476D01*
X122158095Y-81653095D01*
X153075238Y-85447143D02*
X153027619Y-85494762D01*
X152884762Y-85542381D01*
X152789524Y-85542381D01*
X152646666Y-85494762D01*
X152551428Y-85399524D01*
X152503809Y-85304286D01*
X152456190Y-85113810D01*
X152456190Y-84970952D01*
X152503809Y-84780476D01*
X152551428Y-84685238D01*
X152646666Y-84590000D01*
X152789524Y-84542381D01*
X152884762Y-84542381D01*
X153027619Y-84590000D01*
X153075238Y-84637619D01*
X153694285Y-84542381D02*
X153884762Y-84542381D01*
X153980000Y-84590000D01*
X154075238Y-84685238D01*
X154122857Y-84875714D01*
X154122857Y-85209048D01*
X154075238Y-85399524D01*
X153980000Y-85494762D01*
X153884762Y-85542381D01*
X153694285Y-85542381D01*
X153599047Y-85494762D01*
X153503809Y-85399524D01*
X153456190Y-85209048D01*
X153456190Y-84875714D01*
X153503809Y-84685238D01*
X153599047Y-84590000D01*
X153694285Y-84542381D01*
X154551428Y-85542381D02*
X154551428Y-84542381D01*
X155122857Y-85542381D01*
X155122857Y-84542381D01*
X155360952Y-85637619D02*
X156122857Y-85637619D01*
X156837143Y-84542381D02*
X156360952Y-84542381D01*
X156313333Y-85018571D01*
X156360952Y-84970952D01*
X156456190Y-84923333D01*
X156694286Y-84923333D01*
X156789524Y-84970952D01*
X156837143Y-85018571D01*
X156884762Y-85113810D01*
X156884762Y-85351905D01*
X156837143Y-85447143D01*
X156789524Y-85494762D01*
X156694286Y-85542381D01*
X156456190Y-85542381D01*
X156360952Y-85494762D01*
X156313333Y-85447143D01*
X157170476Y-84542381D02*
X157503809Y-85542381D01*
X157837143Y-84542381D01*
X157932381Y-85637619D02*
X158694286Y-85637619D01*
X158837143Y-84542381D02*
X159456191Y-84542381D01*
X159122857Y-84923333D01*
X159265715Y-84923333D01*
X159360953Y-84970952D01*
X159408572Y-85018571D01*
X159456191Y-85113810D01*
X159456191Y-85351905D01*
X159408572Y-85447143D01*
X159360953Y-85494762D01*
X159265715Y-85542381D01*
X158980000Y-85542381D01*
X158884762Y-85494762D01*
X158837143Y-85447143D01*
X159884762Y-85161429D02*
X160646667Y-85161429D01*
X161027619Y-84542381D02*
X161646667Y-84542381D01*
X161313333Y-84923333D01*
X161456191Y-84923333D01*
X161551429Y-84970952D01*
X161599048Y-85018571D01*
X161646667Y-85113810D01*
X161646667Y-85351905D01*
X161599048Y-85447143D01*
X161551429Y-85494762D01*
X161456191Y-85542381D01*
X161170476Y-85542381D01*
X161075238Y-85494762D01*
X161027619Y-85447143D01*
X161932381Y-84542381D02*
X162265714Y-85542381D01*
X162599048Y-84542381D01*
X156718095Y-82002381D02*
X156718095Y-82811905D01*
X156765714Y-82907143D01*
X156813333Y-82954762D01*
X156908571Y-83002381D01*
X157099048Y-83002381D01*
X157194286Y-82954762D01*
X157241905Y-82907143D01*
X157289524Y-82811905D01*
X157289524Y-82002381D01*
X157718095Y-82097619D02*
X157765714Y-82050000D01*
X157860952Y-82002381D01*
X158099048Y-82002381D01*
X158194286Y-82050000D01*
X158241905Y-82097619D01*
X158289524Y-82192857D01*
X158289524Y-82288095D01*
X158241905Y-82430952D01*
X157670476Y-83002381D01*
X158289524Y-83002381D01*
X138612619Y-74286905D02*
X138565000Y-74239286D01*
X138517381Y-74144048D01*
X138517381Y-73905952D01*
X138565000Y-73810714D01*
X138612619Y-73763095D01*
X138707857Y-73715476D01*
X138803095Y-73715476D01*
X138945952Y-73763095D01*
X139517381Y-74334524D01*
X139517381Y-73715476D01*
X138517381Y-73096429D02*
X138517381Y-73001190D01*
X138565000Y-72905952D01*
X138612619Y-72858333D01*
X138707857Y-72810714D01*
X138898333Y-72763095D01*
X139136429Y-72763095D01*
X139326905Y-72810714D01*
X139422143Y-72858333D01*
X139469762Y-72905952D01*
X139517381Y-73001190D01*
X139517381Y-73096429D01*
X139469762Y-73191667D01*
X139422143Y-73239286D01*
X139326905Y-73286905D01*
X139136429Y-73334524D01*
X138898333Y-73334524D01*
X138707857Y-73286905D01*
X138612619Y-73239286D01*
X138565000Y-73191667D01*
X138517381Y-73096429D01*
X139517381Y-72334524D02*
X138517381Y-72334524D01*
X139517381Y-71763095D02*
X138945952Y-72191667D01*
X138517381Y-71763095D02*
X139088810Y-72334524D01*
D14*
X137612381Y-73191666D02*
X137136190Y-73525000D01*
X137612381Y-73763095D02*
X136612381Y-73763095D01*
X136612381Y-73382142D01*
X136660000Y-73286904D01*
X136707619Y-73239285D01*
X136802857Y-73191666D01*
X136945714Y-73191666D01*
X137040952Y-73239285D01*
X137088571Y-73286904D01*
X137136190Y-73382142D01*
X137136190Y-73763095D01*
X137612381Y-72239285D02*
X137612381Y-72810714D01*
X137612381Y-72525000D02*
X136612381Y-72525000D01*
X136755238Y-72620238D01*
X136850476Y-72715476D01*
X136898095Y-72810714D01*
D13*
X117832381Y-101877619D02*
X117832381Y-102449048D01*
X117832381Y-102163334D02*
X116832381Y-102163334D01*
X116975238Y-102258572D01*
X117070476Y-102353810D01*
X117118095Y-102449048D01*
X116832381Y-101258572D02*
X116832381Y-101163333D01*
X116880000Y-101068095D01*
X116927619Y-101020476D01*
X117022857Y-100972857D01*
X117213333Y-100925238D01*
X117451429Y-100925238D01*
X117641905Y-100972857D01*
X117737143Y-101020476D01*
X117784762Y-101068095D01*
X117832381Y-101163333D01*
X117832381Y-101258572D01*
X117784762Y-101353810D01*
X117737143Y-101401429D01*
X117641905Y-101449048D01*
X117451429Y-101496667D01*
X117213333Y-101496667D01*
X117022857Y-101449048D01*
X116927619Y-101401429D01*
X116880000Y-101353810D01*
X116832381Y-101258572D01*
X116832381Y-100306191D02*
X116832381Y-100210952D01*
X116880000Y-100115714D01*
X116927619Y-100068095D01*
X117022857Y-100020476D01*
X117213333Y-99972857D01*
X117451429Y-99972857D01*
X117641905Y-100020476D01*
X117737143Y-100068095D01*
X117784762Y-100115714D01*
X117832381Y-100210952D01*
X117832381Y-100306191D01*
X117784762Y-100401429D01*
X117737143Y-100449048D01*
X117641905Y-100496667D01*
X117451429Y-100544286D01*
X117213333Y-100544286D01*
X117022857Y-100496667D01*
X116927619Y-100449048D01*
X116880000Y-100401429D01*
X116832381Y-100306191D01*
X117165714Y-99544286D02*
X117832381Y-99544286D01*
X117260952Y-99544286D02*
X117213333Y-99496667D01*
X117165714Y-99401429D01*
X117165714Y-99258571D01*
X117213333Y-99163333D01*
X117308571Y-99115714D01*
X117832381Y-99115714D01*
X117308571Y-98306190D02*
X117308571Y-98639524D01*
X117832381Y-98639524D02*
X116832381Y-98639524D01*
X116832381Y-98163333D01*
X119737143Y-100496666D02*
X119784762Y-100544285D01*
X119832381Y-100687142D01*
X119832381Y-100782380D01*
X119784762Y-100925238D01*
X119689524Y-101020476D01*
X119594286Y-101068095D01*
X119403810Y-101115714D01*
X119260952Y-101115714D01*
X119070476Y-101068095D01*
X118975238Y-101020476D01*
X118880000Y-100925238D01*
X118832381Y-100782380D01*
X118832381Y-100687142D01*
X118880000Y-100544285D01*
X118927619Y-100496666D01*
X118832381Y-99591904D02*
X118832381Y-100068095D01*
X119308571Y-100115714D01*
X119260952Y-100068095D01*
X119213333Y-99972857D01*
X119213333Y-99734761D01*
X119260952Y-99639523D01*
X119308571Y-99591904D01*
X119403810Y-99544285D01*
X119641905Y-99544285D01*
X119737143Y-99591904D01*
X119784762Y-99639523D01*
X119832381Y-99734761D01*
X119832381Y-99972857D01*
X119784762Y-100068095D01*
X119737143Y-100115714D01*
X122912381Y-101877619D02*
X122912381Y-102449048D01*
X122912381Y-102163334D02*
X121912381Y-102163334D01*
X122055238Y-102258572D01*
X122150476Y-102353810D01*
X122198095Y-102449048D01*
X121912381Y-101258572D02*
X121912381Y-101163333D01*
X121960000Y-101068095D01*
X122007619Y-101020476D01*
X122102857Y-100972857D01*
X122293333Y-100925238D01*
X122531429Y-100925238D01*
X122721905Y-100972857D01*
X122817143Y-101020476D01*
X122864762Y-101068095D01*
X122912381Y-101163333D01*
X122912381Y-101258572D01*
X122864762Y-101353810D01*
X122817143Y-101401429D01*
X122721905Y-101449048D01*
X122531429Y-101496667D01*
X122293333Y-101496667D01*
X122102857Y-101449048D01*
X122007619Y-101401429D01*
X121960000Y-101353810D01*
X121912381Y-101258572D01*
X121912381Y-100306191D02*
X121912381Y-100210952D01*
X121960000Y-100115714D01*
X122007619Y-100068095D01*
X122102857Y-100020476D01*
X122293333Y-99972857D01*
X122531429Y-99972857D01*
X122721905Y-100020476D01*
X122817143Y-100068095D01*
X122864762Y-100115714D01*
X122912381Y-100210952D01*
X122912381Y-100306191D01*
X122864762Y-100401429D01*
X122817143Y-100449048D01*
X122721905Y-100496667D01*
X122531429Y-100544286D01*
X122293333Y-100544286D01*
X122102857Y-100496667D01*
X122007619Y-100449048D01*
X121960000Y-100401429D01*
X121912381Y-100306191D01*
X122245714Y-99544286D02*
X122912381Y-99544286D01*
X122340952Y-99544286D02*
X122293333Y-99496667D01*
X122245714Y-99401429D01*
X122245714Y-99258571D01*
X122293333Y-99163333D01*
X122388571Y-99115714D01*
X122912381Y-99115714D01*
X122388571Y-98306190D02*
X122388571Y-98639524D01*
X122912381Y-98639524D02*
X121912381Y-98639524D01*
X121912381Y-98163333D01*
X124817143Y-100496666D02*
X124864762Y-100544285D01*
X124912381Y-100687142D01*
X124912381Y-100782380D01*
X124864762Y-100925238D01*
X124769524Y-101020476D01*
X124674286Y-101068095D01*
X124483810Y-101115714D01*
X124340952Y-101115714D01*
X124150476Y-101068095D01*
X124055238Y-101020476D01*
X123960000Y-100925238D01*
X123912381Y-100782380D01*
X123912381Y-100687142D01*
X123960000Y-100544285D01*
X124007619Y-100496666D01*
X123912381Y-99639523D02*
X123912381Y-99830000D01*
X123960000Y-99925238D01*
X124007619Y-99972857D01*
X124150476Y-100068095D01*
X124340952Y-100115714D01*
X124721905Y-100115714D01*
X124817143Y-100068095D01*
X124864762Y-100020476D01*
X124912381Y-99925238D01*
X124912381Y-99734761D01*
X124864762Y-99639523D01*
X124817143Y-99591904D01*
X124721905Y-99544285D01*
X124483810Y-99544285D01*
X124388571Y-99591904D01*
X124340952Y-99639523D01*
X124293333Y-99734761D01*
X124293333Y-99925238D01*
X124340952Y-100020476D01*
X124388571Y-100068095D01*
X124483810Y-100115714D01*
X116753238Y-110212143D02*
X116705619Y-110259762D01*
X116562762Y-110307381D01*
X116467524Y-110307381D01*
X116324666Y-110259762D01*
X116229428Y-110164524D01*
X116181809Y-110069286D01*
X116134190Y-109878810D01*
X116134190Y-109735952D01*
X116181809Y-109545476D01*
X116229428Y-109450238D01*
X116324666Y-109355000D01*
X116467524Y-109307381D01*
X116562762Y-109307381D01*
X116705619Y-109355000D01*
X116753238Y-109402619D01*
X117372285Y-109307381D02*
X117562762Y-109307381D01*
X117658000Y-109355000D01*
X117753238Y-109450238D01*
X117800857Y-109640714D01*
X117800857Y-109974048D01*
X117753238Y-110164524D01*
X117658000Y-110259762D01*
X117562762Y-110307381D01*
X117372285Y-110307381D01*
X117277047Y-110259762D01*
X117181809Y-110164524D01*
X117134190Y-109974048D01*
X117134190Y-109640714D01*
X117181809Y-109450238D01*
X117277047Y-109355000D01*
X117372285Y-109307381D01*
X118229428Y-110307381D02*
X118229428Y-109307381D01*
X118800857Y-110307381D01*
X118800857Y-109307381D01*
X119038952Y-110402619D02*
X119800857Y-110402619D01*
X120515143Y-109307381D02*
X120038952Y-109307381D01*
X119991333Y-109783571D01*
X120038952Y-109735952D01*
X120134190Y-109688333D01*
X120372286Y-109688333D01*
X120467524Y-109735952D01*
X120515143Y-109783571D01*
X120562762Y-109878810D01*
X120562762Y-110116905D01*
X120515143Y-110212143D01*
X120467524Y-110259762D01*
X120372286Y-110307381D01*
X120134190Y-110307381D01*
X120038952Y-110259762D01*
X119991333Y-110212143D01*
X120848476Y-109307381D02*
X121181809Y-110307381D01*
X121515143Y-109307381D01*
X121610381Y-110402619D02*
X122372286Y-110402619D01*
X122515143Y-109307381D02*
X123134191Y-109307381D01*
X122800857Y-109688333D01*
X122943715Y-109688333D01*
X123038953Y-109735952D01*
X123086572Y-109783571D01*
X123134191Y-109878810D01*
X123134191Y-110116905D01*
X123086572Y-110212143D01*
X123038953Y-110259762D01*
X122943715Y-110307381D01*
X122658000Y-110307381D01*
X122562762Y-110259762D01*
X122515143Y-110212143D01*
X123562762Y-109926429D02*
X124324667Y-109926429D01*
X124705619Y-109307381D02*
X125324667Y-109307381D01*
X124991333Y-109688333D01*
X125134191Y-109688333D01*
X125229429Y-109735952D01*
X125277048Y-109783571D01*
X125324667Y-109878810D01*
X125324667Y-110116905D01*
X125277048Y-110212143D01*
X125229429Y-110259762D01*
X125134191Y-110307381D01*
X124848476Y-110307381D01*
X124753238Y-110259762D01*
X124705619Y-110212143D01*
X125610381Y-109307381D02*
X125943714Y-110307381D01*
X126277048Y-109307381D01*
X121158095Y-106132381D02*
X121158095Y-106941905D01*
X121205714Y-107037143D01*
X121253333Y-107084762D01*
X121348571Y-107132381D01*
X121539048Y-107132381D01*
X121634286Y-107084762D01*
X121681905Y-107037143D01*
X121729524Y-106941905D01*
X121729524Y-106132381D01*
X122110476Y-106132381D02*
X122729524Y-106132381D01*
X122396190Y-106513333D01*
X122539048Y-106513333D01*
X122634286Y-106560952D01*
X122681905Y-106608571D01*
X122729524Y-106703810D01*
X122729524Y-106941905D01*
X122681905Y-107037143D01*
X122634286Y-107084762D01*
X122539048Y-107132381D01*
X122253333Y-107132381D01*
X122158095Y-107084762D01*
X122110476Y-107037143D01*
X157932381Y-102512619D02*
X157932381Y-103084048D01*
X157932381Y-102798334D02*
X156932381Y-102798334D01*
X157075238Y-102893572D01*
X157170476Y-102988810D01*
X157218095Y-103084048D01*
X156932381Y-101893572D02*
X156932381Y-101798333D01*
X156980000Y-101703095D01*
X157027619Y-101655476D01*
X157122857Y-101607857D01*
X157313333Y-101560238D01*
X157551429Y-101560238D01*
X157741905Y-101607857D01*
X157837143Y-101655476D01*
X157884762Y-101703095D01*
X157932381Y-101798333D01*
X157932381Y-101893572D01*
X157884762Y-101988810D01*
X157837143Y-102036429D01*
X157741905Y-102084048D01*
X157551429Y-102131667D01*
X157313333Y-102131667D01*
X157122857Y-102084048D01*
X157027619Y-102036429D01*
X156980000Y-101988810D01*
X156932381Y-101893572D01*
X156932381Y-100941191D02*
X156932381Y-100845952D01*
X156980000Y-100750714D01*
X157027619Y-100703095D01*
X157122857Y-100655476D01*
X157313333Y-100607857D01*
X157551429Y-100607857D01*
X157741905Y-100655476D01*
X157837143Y-100703095D01*
X157884762Y-100750714D01*
X157932381Y-100845952D01*
X157932381Y-100941191D01*
X157884762Y-101036429D01*
X157837143Y-101084048D01*
X157741905Y-101131667D01*
X157551429Y-101179286D01*
X157313333Y-101179286D01*
X157122857Y-101131667D01*
X157027619Y-101084048D01*
X156980000Y-101036429D01*
X156932381Y-100941191D01*
X157265714Y-100179286D02*
X157932381Y-100179286D01*
X157360952Y-100179286D02*
X157313333Y-100131667D01*
X157265714Y-100036429D01*
X157265714Y-99893571D01*
X157313333Y-99798333D01*
X157408571Y-99750714D01*
X157932381Y-99750714D01*
X157408571Y-98941190D02*
X157408571Y-99274524D01*
X157932381Y-99274524D02*
X156932381Y-99274524D01*
X156932381Y-98798333D01*
X155932143Y-101131666D02*
X155979762Y-101179285D01*
X156027381Y-101322142D01*
X156027381Y-101417380D01*
X155979762Y-101560238D01*
X155884524Y-101655476D01*
X155789286Y-101703095D01*
X155598810Y-101750714D01*
X155455952Y-101750714D01*
X155265476Y-101703095D01*
X155170238Y-101655476D01*
X155075000Y-101560238D01*
X155027381Y-101417380D01*
X155027381Y-101322142D01*
X155075000Y-101179285D01*
X155122619Y-101131666D01*
X155027381Y-100798333D02*
X155027381Y-100131666D01*
X156027381Y-100560238D01*
X159107381Y-102512619D02*
X159107381Y-103084048D01*
X159107381Y-102798334D02*
X158107381Y-102798334D01*
X158250238Y-102893572D01*
X158345476Y-102988810D01*
X158393095Y-103084048D01*
X158107381Y-101893572D02*
X158107381Y-101798333D01*
X158155000Y-101703095D01*
X158202619Y-101655476D01*
X158297857Y-101607857D01*
X158488333Y-101560238D01*
X158726429Y-101560238D01*
X158916905Y-101607857D01*
X159012143Y-101655476D01*
X159059762Y-101703095D01*
X159107381Y-101798333D01*
X159107381Y-101893572D01*
X159059762Y-101988810D01*
X159012143Y-102036429D01*
X158916905Y-102084048D01*
X158726429Y-102131667D01*
X158488333Y-102131667D01*
X158297857Y-102084048D01*
X158202619Y-102036429D01*
X158155000Y-101988810D01*
X158107381Y-101893572D01*
X158107381Y-100941191D02*
X158107381Y-100845952D01*
X158155000Y-100750714D01*
X158202619Y-100703095D01*
X158297857Y-100655476D01*
X158488333Y-100607857D01*
X158726429Y-100607857D01*
X158916905Y-100655476D01*
X159012143Y-100703095D01*
X159059762Y-100750714D01*
X159107381Y-100845952D01*
X159107381Y-100941191D01*
X159059762Y-101036429D01*
X159012143Y-101084048D01*
X158916905Y-101131667D01*
X158726429Y-101179286D01*
X158488333Y-101179286D01*
X158297857Y-101131667D01*
X158202619Y-101084048D01*
X158155000Y-101036429D01*
X158107381Y-100941191D01*
X158440714Y-100179286D02*
X159107381Y-100179286D01*
X158535952Y-100179286D02*
X158488333Y-100131667D01*
X158440714Y-100036429D01*
X158440714Y-99893571D01*
X158488333Y-99798333D01*
X158583571Y-99750714D01*
X159107381Y-99750714D01*
X158583571Y-98941190D02*
X158583571Y-99274524D01*
X159107381Y-99274524D02*
X158107381Y-99274524D01*
X158107381Y-98798333D01*
X161012143Y-101131666D02*
X161059762Y-101179285D01*
X161107381Y-101322142D01*
X161107381Y-101417380D01*
X161059762Y-101560238D01*
X160964524Y-101655476D01*
X160869286Y-101703095D01*
X160678810Y-101750714D01*
X160535952Y-101750714D01*
X160345476Y-101703095D01*
X160250238Y-101655476D01*
X160155000Y-101560238D01*
X160107381Y-101417380D01*
X160107381Y-101322142D01*
X160155000Y-101179285D01*
X160202619Y-101131666D01*
X160535952Y-100560238D02*
X160488333Y-100655476D01*
X160440714Y-100703095D01*
X160345476Y-100750714D01*
X160297857Y-100750714D01*
X160202619Y-100703095D01*
X160155000Y-100655476D01*
X160107381Y-100560238D01*
X160107381Y-100369761D01*
X160155000Y-100274523D01*
X160202619Y-100226904D01*
X160297857Y-100179285D01*
X160345476Y-100179285D01*
X160440714Y-100226904D01*
X160488333Y-100274523D01*
X160535952Y-100369761D01*
X160535952Y-100560238D01*
X160583571Y-100655476D01*
X160631190Y-100703095D01*
X160726429Y-100750714D01*
X160916905Y-100750714D01*
X161012143Y-100703095D01*
X161059762Y-100655476D01*
X161107381Y-100560238D01*
X161107381Y-100369761D01*
X161059762Y-100274523D01*
X161012143Y-100226904D01*
X160916905Y-100179285D01*
X160726429Y-100179285D01*
X160631190Y-100226904D01*
X160583571Y-100274523D01*
X160535952Y-100369761D01*
X152948238Y-110847143D02*
X152900619Y-110894762D01*
X152757762Y-110942381D01*
X152662524Y-110942381D01*
X152519666Y-110894762D01*
X152424428Y-110799524D01*
X152376809Y-110704286D01*
X152329190Y-110513810D01*
X152329190Y-110370952D01*
X152376809Y-110180476D01*
X152424428Y-110085238D01*
X152519666Y-109990000D01*
X152662524Y-109942381D01*
X152757762Y-109942381D01*
X152900619Y-109990000D01*
X152948238Y-110037619D01*
X153567285Y-109942381D02*
X153757762Y-109942381D01*
X153853000Y-109990000D01*
X153948238Y-110085238D01*
X153995857Y-110275714D01*
X153995857Y-110609048D01*
X153948238Y-110799524D01*
X153853000Y-110894762D01*
X153757762Y-110942381D01*
X153567285Y-110942381D01*
X153472047Y-110894762D01*
X153376809Y-110799524D01*
X153329190Y-110609048D01*
X153329190Y-110275714D01*
X153376809Y-110085238D01*
X153472047Y-109990000D01*
X153567285Y-109942381D01*
X154424428Y-110942381D02*
X154424428Y-109942381D01*
X154995857Y-110942381D01*
X154995857Y-109942381D01*
X155233952Y-111037619D02*
X155995857Y-111037619D01*
X156710143Y-109942381D02*
X156233952Y-109942381D01*
X156186333Y-110418571D01*
X156233952Y-110370952D01*
X156329190Y-110323333D01*
X156567286Y-110323333D01*
X156662524Y-110370952D01*
X156710143Y-110418571D01*
X156757762Y-110513810D01*
X156757762Y-110751905D01*
X156710143Y-110847143D01*
X156662524Y-110894762D01*
X156567286Y-110942381D01*
X156329190Y-110942381D01*
X156233952Y-110894762D01*
X156186333Y-110847143D01*
X157043476Y-109942381D02*
X157376809Y-110942381D01*
X157710143Y-109942381D01*
X157805381Y-111037619D02*
X158567286Y-111037619D01*
X158710143Y-109942381D02*
X159329191Y-109942381D01*
X158995857Y-110323333D01*
X159138715Y-110323333D01*
X159233953Y-110370952D01*
X159281572Y-110418571D01*
X159329191Y-110513810D01*
X159329191Y-110751905D01*
X159281572Y-110847143D01*
X159233953Y-110894762D01*
X159138715Y-110942381D01*
X158853000Y-110942381D01*
X158757762Y-110894762D01*
X158710143Y-110847143D01*
X159757762Y-110561429D02*
X160519667Y-110561429D01*
X160900619Y-109942381D02*
X161519667Y-109942381D01*
X161186333Y-110323333D01*
X161329191Y-110323333D01*
X161424429Y-110370952D01*
X161472048Y-110418571D01*
X161519667Y-110513810D01*
X161519667Y-110751905D01*
X161472048Y-110847143D01*
X161424429Y-110894762D01*
X161329191Y-110942381D01*
X161043476Y-110942381D01*
X160948238Y-110894762D01*
X160900619Y-110847143D01*
X161805381Y-109942381D02*
X162138714Y-110942381D01*
X162472048Y-109942381D01*
X157353095Y-106767381D02*
X157353095Y-107576905D01*
X157400714Y-107672143D01*
X157448333Y-107719762D01*
X157543571Y-107767381D01*
X157734048Y-107767381D01*
X157829286Y-107719762D01*
X157876905Y-107672143D01*
X157924524Y-107576905D01*
X157924524Y-106767381D01*
X158829286Y-107100714D02*
X158829286Y-107767381D01*
X158591190Y-106719762D02*
X158353095Y-107434048D01*
X158972143Y-107434048D01*
M02*
