G04 #@! TF.FileFunction,Copper,L1,Top,Signal*
%FSLAX46Y46*%
G04 Gerber Fmt 4.6, Leading zero omitted, Abs format (unit mm)*
G04 Created by KiCad (PCBNEW 4.0.7) date 09/07/18 14:24:09*
%MOMM*%
%LPD*%
G01*
G04 APERTURE LIST*
%ADD10C,0.100000*%
%ADD11C,0.300000*%
%ADD12C,1.800000*%
%ADD13R,1.800000X1.800000*%
%ADD14R,1.600000X1.000000*%
%ADD15R,2.400000X1.600000*%
%ADD16O,2.400000X1.600000*%
%ADD17R,1.700000X1.700000*%
%ADD18O,1.700000X1.700000*%
%ADD19R,1.700000X0.900000*%
%ADD20C,1.000000*%
%ADD21C,0.500000*%
G04 APERTURE END LIST*
D10*
D11*
X145431430Y-112295714D02*
X145360001Y-112367143D01*
X145145715Y-112438571D01*
X145002858Y-112438571D01*
X144788573Y-112367143D01*
X144645715Y-112224286D01*
X144574287Y-112081429D01*
X144502858Y-111795714D01*
X144502858Y-111581429D01*
X144574287Y-111295714D01*
X144645715Y-111152857D01*
X144788573Y-111010000D01*
X145002858Y-110938571D01*
X145145715Y-110938571D01*
X145360001Y-111010000D01*
X145431430Y-111081429D01*
X146360001Y-111724286D02*
X146360001Y-112438571D01*
X145860001Y-110938571D02*
X146360001Y-111724286D01*
X146860001Y-110938571D01*
X148217144Y-112438571D02*
X147717144Y-111724286D01*
X147360001Y-112438571D02*
X147360001Y-110938571D01*
X147931429Y-110938571D01*
X148074287Y-111010000D01*
X148145715Y-111081429D01*
X148217144Y-111224286D01*
X148217144Y-111438571D01*
X148145715Y-111581429D01*
X148074287Y-111652857D01*
X147931429Y-111724286D01*
X147360001Y-111724286D01*
X149360001Y-111652857D02*
X148860001Y-111652857D01*
X148860001Y-112438571D02*
X148860001Y-110938571D01*
X149574287Y-110938571D01*
X150788572Y-110938571D02*
X150502858Y-110938571D01*
X150360001Y-111010000D01*
X150288572Y-111081429D01*
X150145715Y-111295714D01*
X150074286Y-111581429D01*
X150074286Y-112152857D01*
X150145715Y-112295714D01*
X150217143Y-112367143D01*
X150360001Y-112438571D01*
X150645715Y-112438571D01*
X150788572Y-112367143D01*
X150860001Y-112295714D01*
X150931429Y-112152857D01*
X150931429Y-111795714D01*
X150860001Y-111652857D01*
X150788572Y-111581429D01*
X150645715Y-111510000D01*
X150360001Y-111510000D01*
X150217143Y-111581429D01*
X150145715Y-111652857D01*
X150074286Y-111795714D01*
X151645714Y-112438571D02*
X151931429Y-112438571D01*
X152074286Y-112367143D01*
X152145714Y-112295714D01*
X152288572Y-112081429D01*
X152360000Y-111795714D01*
X152360000Y-111224286D01*
X152288572Y-111081429D01*
X152217143Y-111010000D01*
X152074286Y-110938571D01*
X151788572Y-110938571D01*
X151645714Y-111010000D01*
X151574286Y-111081429D01*
X151502857Y-111224286D01*
X151502857Y-111581429D01*
X151574286Y-111724286D01*
X151645714Y-111795714D01*
X151788572Y-111867143D01*
X152074286Y-111867143D01*
X152217143Y-111795714D01*
X152288572Y-111724286D01*
X152360000Y-111581429D01*
X152860000Y-110938571D02*
X153788571Y-110938571D01*
X153288571Y-111510000D01*
X153502857Y-111510000D01*
X153645714Y-111581429D01*
X153717143Y-111652857D01*
X153788571Y-111795714D01*
X153788571Y-112152857D01*
X153717143Y-112295714D01*
X153645714Y-112367143D01*
X153502857Y-112438571D01*
X153074285Y-112438571D01*
X152931428Y-112367143D01*
X152860000Y-112295714D01*
X155074285Y-110938571D02*
X154788571Y-110938571D01*
X154645714Y-111010000D01*
X154574285Y-111081429D01*
X154431428Y-111295714D01*
X154359999Y-111581429D01*
X154359999Y-112152857D01*
X154431428Y-112295714D01*
X154502856Y-112367143D01*
X154645714Y-112438571D01*
X154931428Y-112438571D01*
X155074285Y-112367143D01*
X155145714Y-112295714D01*
X155217142Y-112152857D01*
X155217142Y-111795714D01*
X155145714Y-111652857D01*
X155074285Y-111581429D01*
X154931428Y-111510000D01*
X154645714Y-111510000D01*
X154502856Y-111581429D01*
X154431428Y-111652857D01*
X154359999Y-111795714D01*
X109180715Y-112010000D02*
X109895001Y-112010000D01*
X109037858Y-112438571D02*
X109537858Y-110938571D01*
X110037858Y-112438571D01*
X110395001Y-110938571D02*
X111395001Y-110938571D01*
X110752144Y-112438571D01*
X112752143Y-112438571D02*
X111895000Y-112438571D01*
X112323572Y-112438571D02*
X112323572Y-110938571D01*
X112180715Y-111152857D01*
X112037857Y-111295714D01*
X111895000Y-111367143D01*
X113680714Y-110938571D02*
X113823571Y-110938571D01*
X113966428Y-111010000D01*
X114037857Y-111081429D01*
X114109286Y-111224286D01*
X114180714Y-111510000D01*
X114180714Y-111867143D01*
X114109286Y-112152857D01*
X114037857Y-112295714D01*
X113966428Y-112367143D01*
X113823571Y-112438571D01*
X113680714Y-112438571D01*
X113537857Y-112367143D01*
X113466428Y-112295714D01*
X113395000Y-112152857D01*
X113323571Y-111867143D01*
X113323571Y-111510000D01*
X113395000Y-111224286D01*
X113466428Y-111081429D01*
X113537857Y-111010000D01*
X113680714Y-110938571D01*
X115537857Y-110938571D02*
X114823571Y-110938571D01*
X114752142Y-111652857D01*
X114823571Y-111581429D01*
X114966428Y-111510000D01*
X115323571Y-111510000D01*
X115466428Y-111581429D01*
X115537857Y-111652857D01*
X115609285Y-111795714D01*
X115609285Y-112152857D01*
X115537857Y-112295714D01*
X115466428Y-112367143D01*
X115323571Y-112438571D01*
X114966428Y-112438571D01*
X114823571Y-112367143D01*
X114752142Y-112295714D01*
X168307144Y-85625714D02*
X168235715Y-85697143D01*
X168021429Y-85768571D01*
X167878572Y-85768571D01*
X167664287Y-85697143D01*
X167521429Y-85554286D01*
X167450001Y-85411429D01*
X167378572Y-85125714D01*
X167378572Y-84911429D01*
X167450001Y-84625714D01*
X167521429Y-84482857D01*
X167664287Y-84340000D01*
X167878572Y-84268571D01*
X168021429Y-84268571D01*
X168235715Y-84340000D01*
X168307144Y-84411429D01*
X169807144Y-85625714D02*
X169735715Y-85697143D01*
X169521429Y-85768571D01*
X169378572Y-85768571D01*
X169164287Y-85697143D01*
X169021429Y-85554286D01*
X168950001Y-85411429D01*
X168878572Y-85125714D01*
X168878572Y-84911429D01*
X168950001Y-84625714D01*
X169021429Y-84482857D01*
X169164287Y-84340000D01*
X169378572Y-84268571D01*
X169521429Y-84268571D01*
X169735715Y-84340000D01*
X169807144Y-84411429D01*
X170378572Y-84411429D02*
X170450001Y-84340000D01*
X170592858Y-84268571D01*
X170950001Y-84268571D01*
X171092858Y-84340000D01*
X171164287Y-84411429D01*
X171235715Y-84554286D01*
X171235715Y-84697143D01*
X171164287Y-84911429D01*
X170307144Y-85768571D01*
X171235715Y-85768571D01*
X172592858Y-84268571D02*
X171878572Y-84268571D01*
X171807143Y-84982857D01*
X171878572Y-84911429D01*
X172021429Y-84840000D01*
X172378572Y-84840000D01*
X172521429Y-84911429D01*
X172592858Y-84982857D01*
X172664286Y-85125714D01*
X172664286Y-85482857D01*
X172592858Y-85625714D01*
X172521429Y-85697143D01*
X172378572Y-85768571D01*
X172021429Y-85768571D01*
X171878572Y-85697143D01*
X171807143Y-85625714D01*
X173592857Y-84268571D02*
X173735714Y-84268571D01*
X173878571Y-84340000D01*
X173950000Y-84411429D01*
X174021429Y-84554286D01*
X174092857Y-84840000D01*
X174092857Y-85197143D01*
X174021429Y-85482857D01*
X173950000Y-85625714D01*
X173878571Y-85697143D01*
X173735714Y-85768571D01*
X173592857Y-85768571D01*
X173450000Y-85697143D01*
X173378571Y-85625714D01*
X173307143Y-85482857D01*
X173235714Y-85197143D01*
X173235714Y-84840000D01*
X173307143Y-84554286D01*
X173378571Y-84411429D01*
X173450000Y-84340000D01*
X173592857Y-84268571D01*
X175021428Y-84268571D02*
X175164285Y-84268571D01*
X175307142Y-84340000D01*
X175378571Y-84411429D01*
X175450000Y-84554286D01*
X175521428Y-84840000D01*
X175521428Y-85197143D01*
X175450000Y-85482857D01*
X175378571Y-85625714D01*
X175307142Y-85697143D01*
X175164285Y-85768571D01*
X175021428Y-85768571D01*
X174878571Y-85697143D01*
X174807142Y-85625714D01*
X174735714Y-85482857D01*
X174664285Y-85197143D01*
X174664285Y-84840000D01*
X174735714Y-84554286D01*
X174807142Y-84411429D01*
X174878571Y-84340000D01*
X175021428Y-84268571D01*
X130604287Y-85768571D02*
X130604287Y-84268571D01*
X131461430Y-85768571D01*
X131461430Y-84268571D01*
X133032859Y-85768571D02*
X132532859Y-85054286D01*
X132175716Y-85768571D02*
X132175716Y-84268571D01*
X132747144Y-84268571D01*
X132890002Y-84340000D01*
X132961430Y-84411429D01*
X133032859Y-84554286D01*
X133032859Y-84768571D01*
X132961430Y-84911429D01*
X132890002Y-84982857D01*
X132747144Y-85054286D01*
X132175716Y-85054286D01*
X134175716Y-84982857D02*
X133675716Y-84982857D01*
X133675716Y-85768571D02*
X133675716Y-84268571D01*
X134390002Y-84268571D01*
X134890001Y-84411429D02*
X134961430Y-84340000D01*
X135104287Y-84268571D01*
X135461430Y-84268571D01*
X135604287Y-84340000D01*
X135675716Y-84411429D01*
X135747144Y-84554286D01*
X135747144Y-84697143D01*
X135675716Y-84911429D01*
X134818573Y-85768571D01*
X135747144Y-85768571D01*
X137032858Y-84768571D02*
X137032858Y-85768571D01*
X136675715Y-84197143D02*
X136318572Y-85268571D01*
X137247144Y-85268571D01*
X138532858Y-85768571D02*
X137818572Y-85768571D01*
X137818572Y-84268571D01*
X139318572Y-84268571D02*
X139461429Y-84268571D01*
X139604286Y-84340000D01*
X139675715Y-84411429D01*
X139747144Y-84554286D01*
X139818572Y-84840000D01*
X139818572Y-85197143D01*
X139747144Y-85482857D01*
X139675715Y-85625714D01*
X139604286Y-85697143D01*
X139461429Y-85768571D01*
X139318572Y-85768571D01*
X139175715Y-85697143D01*
X139104286Y-85625714D01*
X139032858Y-85482857D01*
X138961429Y-85197143D01*
X138961429Y-84840000D01*
X139032858Y-84554286D01*
X139104286Y-84411429D01*
X139175715Y-84340000D01*
X139318572Y-84268571D01*
X141247143Y-85768571D02*
X140390000Y-85768571D01*
X140818572Y-85768571D02*
X140818572Y-84268571D01*
X140675715Y-84482857D01*
X140532857Y-84625714D01*
X140390000Y-84697143D01*
D12*
X147955000Y-107315000D03*
X147955000Y-104775000D03*
D13*
X147955000Y-92075000D03*
D12*
X147955000Y-94615000D03*
X147955000Y-97155000D03*
X147955000Y-99695000D03*
X147955000Y-102235000D03*
X167640000Y-82550000D03*
X170180000Y-82550000D03*
D13*
X170180000Y-69850000D03*
D12*
X167640000Y-69850000D03*
X170180000Y-72390000D03*
X167640000Y-72390000D03*
X170180000Y-74930000D03*
X167640000Y-74930000D03*
X170180000Y-77470000D03*
X167640000Y-77470000D03*
X170180000Y-80010000D03*
X167640000Y-80010000D03*
X111760000Y-106680000D03*
X111760000Y-104140000D03*
D13*
X111760000Y-91440000D03*
D12*
X111760000Y-93980000D03*
X111760000Y-96520000D03*
X111760000Y-99060000D03*
X111760000Y-101600000D03*
X147320000Y-82550000D03*
X147320000Y-80010000D03*
D13*
X147320000Y-67310000D03*
D12*
X147320000Y-69850000D03*
X147320000Y-72390000D03*
X147320000Y-74930000D03*
X147320000Y-77470000D03*
X111760000Y-81915000D03*
X111760000Y-79375000D03*
D13*
X111760000Y-66675000D03*
D12*
X111760000Y-69215000D03*
X111760000Y-71755000D03*
X111760000Y-74295000D03*
X111760000Y-76835000D03*
D14*
X119380000Y-74065000D03*
X119380000Y-77065000D03*
X124460000Y-74065000D03*
X124460000Y-77065000D03*
X154940000Y-74700000D03*
X154940000Y-77700000D03*
X160020000Y-74700000D03*
X160020000Y-77700000D03*
D15*
X116840000Y-69215000D03*
D16*
X116840000Y-71755000D03*
X116840000Y-74295000D03*
X116840000Y-76835000D03*
X116840000Y-79375000D03*
X116840000Y-81915000D03*
X127000000Y-81915000D03*
X127000000Y-79375000D03*
X127000000Y-76835000D03*
X127000000Y-74295000D03*
X127000000Y-71755000D03*
X127000000Y-69215000D03*
D15*
X152400000Y-69850000D03*
D16*
X152400000Y-72390000D03*
X152400000Y-74930000D03*
X152400000Y-77470000D03*
X152400000Y-80010000D03*
X152400000Y-82550000D03*
X162560000Y-82550000D03*
X162560000Y-80010000D03*
X162560000Y-77470000D03*
X162560000Y-74930000D03*
X162560000Y-72390000D03*
X162560000Y-69850000D03*
D17*
X134620000Y-71755000D03*
D18*
X132080000Y-71755000D03*
X134620000Y-74295000D03*
X132080000Y-74295000D03*
X134620000Y-76835000D03*
X132080000Y-76835000D03*
X134620000Y-79375000D03*
X132080000Y-79375000D03*
D19*
X137160000Y-74475000D03*
X137160000Y-71575000D03*
D14*
X119380000Y-98830000D03*
X119380000Y-101830000D03*
X124460000Y-98830000D03*
X124460000Y-101830000D03*
D15*
X116840000Y-93980000D03*
D16*
X116840000Y-96520000D03*
X116840000Y-99060000D03*
X116840000Y-101600000D03*
X116840000Y-104140000D03*
X116840000Y-106680000D03*
X127000000Y-106680000D03*
X127000000Y-104140000D03*
X127000000Y-101600000D03*
X127000000Y-99060000D03*
X127000000Y-96520000D03*
X127000000Y-93980000D03*
D17*
X135890000Y-90170000D03*
D18*
X135890000Y-92710000D03*
X135890000Y-95250000D03*
X135890000Y-97790000D03*
X135890000Y-100330000D03*
X135890000Y-102870000D03*
X135890000Y-105410000D03*
X135890000Y-107950000D03*
X135890000Y-110490000D03*
D14*
X155575000Y-99465000D03*
X155575000Y-102465000D03*
X160655000Y-99465000D03*
X160655000Y-102465000D03*
D15*
X153035000Y-94615000D03*
D16*
X153035000Y-97155000D03*
X153035000Y-99695000D03*
X153035000Y-102235000D03*
X153035000Y-104775000D03*
X153035000Y-107315000D03*
X163195000Y-107315000D03*
X163195000Y-104775000D03*
X163195000Y-102235000D03*
X163195000Y-99695000D03*
X163195000Y-97155000D03*
X163195000Y-94615000D03*
D17*
X171450000Y-95885000D03*
D18*
X168910000Y-95885000D03*
X171450000Y-98425000D03*
X168910000Y-98425000D03*
X171450000Y-100965000D03*
X168910000Y-100965000D03*
X171450000Y-103505000D03*
X168910000Y-103505000D03*
X171450000Y-106045000D03*
X168910000Y-106045000D03*
D20*
X154940000Y-74700000D02*
X152630000Y-74700000D01*
X152630000Y-74700000D02*
X152400000Y-74930000D01*
X152400000Y-74930000D02*
X147320000Y-74930000D01*
X170180000Y-82550000D02*
X170434000Y-82804000D01*
X170434000Y-82804000D02*
X172466000Y-82804000D01*
X167640000Y-82550000D02*
X166370000Y-82550000D01*
X166370000Y-82550000D02*
X165100000Y-83820000D01*
X154940000Y-77700000D02*
X152630000Y-77700000D01*
X152630000Y-77700000D02*
X152400000Y-77470000D01*
X154940000Y-77700000D02*
X160020000Y-77700000D01*
X160020000Y-77700000D02*
X162330000Y-77700000D01*
X162330000Y-77700000D02*
X162560000Y-77470000D01*
X170180000Y-82550000D02*
X167640000Y-82550000D01*
X152400000Y-77470000D02*
X147320000Y-77470000D01*
X160020000Y-74700000D02*
X160020000Y-73660000D01*
X160020000Y-73660000D02*
X158115000Y-71755000D01*
X158115000Y-71755000D02*
X158115000Y-68580000D01*
X158115000Y-68580000D02*
X156845000Y-67310000D01*
X156845000Y-67310000D02*
X147320000Y-67310000D01*
X160020000Y-74700000D02*
X162330000Y-74700000D01*
X162330000Y-74700000D02*
X162560000Y-74930000D01*
X127000000Y-81915000D02*
X129032000Y-81915000D01*
X132969000Y-81026000D02*
X134620000Y-79375000D01*
X129921000Y-81026000D02*
X132969000Y-81026000D01*
X129032000Y-81915000D02*
X129921000Y-81026000D01*
X127000000Y-79375000D02*
X128270000Y-79375000D01*
X130810000Y-76835000D02*
X132080000Y-76835000D01*
X128270000Y-79375000D02*
X130810000Y-76835000D01*
X135890000Y-75565000D02*
X136525000Y-76200000D01*
X139065000Y-75565000D02*
X139065000Y-74930000D01*
X138430000Y-76200000D02*
X139065000Y-75565000D01*
X136525000Y-76200000D02*
X138430000Y-76200000D01*
X137414000Y-68834000D02*
X139065000Y-70485000D01*
X131572000Y-68834000D02*
X137414000Y-68834000D01*
X128651000Y-71755000D02*
X131572000Y-68834000D01*
X127000000Y-71755000D02*
X128651000Y-71755000D01*
X133350000Y-75565000D02*
X132080000Y-74295000D01*
D11*
X135890000Y-75565000D02*
X133350000Y-75565000D01*
D20*
X139065000Y-70485000D02*
X139065000Y-74930000D01*
X137922000Y-67564000D02*
X140208000Y-69850000D01*
X129159000Y-69215000D02*
X130810000Y-67564000D01*
X130810000Y-67564000D02*
X137922000Y-67564000D01*
X127000000Y-69215000D02*
X129159000Y-69215000D01*
X135382000Y-77597000D02*
X134620000Y-76835000D01*
X139192000Y-77597000D02*
X135382000Y-77597000D01*
X140335000Y-76454000D02*
X139192000Y-77597000D01*
X140335000Y-70104000D02*
X140335000Y-76454000D01*
X140208000Y-69977000D02*
X140335000Y-70104000D01*
X140208000Y-69850000D02*
X140208000Y-69977000D01*
X162560000Y-82550000D02*
X163830000Y-82550000D01*
X163830000Y-82550000D02*
X165665002Y-80714998D01*
X165665002Y-80714998D02*
X165665002Y-75634998D01*
X165665002Y-75634998D02*
X166370000Y-74930000D01*
X166370000Y-74930000D02*
X167640000Y-74930000D01*
X162560000Y-80010000D02*
X163195000Y-80010000D01*
X163195000Y-80010000D02*
X164465000Y-78740000D01*
X164465000Y-78740000D02*
X164465000Y-73660000D01*
X164465000Y-73660000D02*
X165735000Y-72390000D01*
X165735000Y-72390000D02*
X167640000Y-72390000D01*
X162560000Y-72390000D02*
X161290000Y-72390000D01*
X161290000Y-72390000D02*
X160020000Y-71120000D01*
X160020000Y-71120000D02*
X160020000Y-68580000D01*
X160020000Y-68580000D02*
X162560000Y-66040000D01*
X162560000Y-66040000D02*
X172720000Y-66040000D01*
X172720000Y-66040000D02*
X173990000Y-67310000D01*
X173990000Y-67310000D02*
X173990000Y-73660000D01*
X173990000Y-73660000D02*
X172720000Y-74930000D01*
X172720000Y-74930000D02*
X170180000Y-74930000D01*
X162560000Y-69850000D02*
X165100000Y-67310000D01*
X165100000Y-67310000D02*
X171450000Y-67310000D01*
X171450000Y-67310000D02*
X172720000Y-68580000D01*
X172720000Y-68580000D02*
X172720000Y-71120000D01*
X172720000Y-71120000D02*
X171450000Y-72390000D01*
X171450000Y-72390000D02*
X170180000Y-72390000D01*
X170180000Y-69850000D02*
X167640000Y-69850000D01*
X170180000Y-77470000D02*
X172085000Y-79375000D01*
X172085000Y-79375000D02*
X172085000Y-80645000D01*
X172085000Y-80645000D02*
X171450000Y-81280000D01*
D11*
X171450000Y-81280000D02*
X168910000Y-81280000D01*
D20*
X168910000Y-81280000D02*
X167640000Y-80010000D01*
X167640000Y-77470000D02*
X170180000Y-80010000D01*
X116840000Y-79375000D02*
X111760000Y-79375000D01*
X116840000Y-69215000D02*
X111760000Y-69215000D01*
X116840000Y-71755000D02*
X111760000Y-71755000D01*
X152400000Y-80010000D02*
X147320000Y-80010000D01*
X152400000Y-69850000D02*
X147320000Y-69850000D01*
X152400000Y-72390000D02*
X147320000Y-72390000D01*
X116840000Y-81915000D02*
X111760000Y-81915000D01*
X152400000Y-82550000D02*
X147320000Y-82550000D01*
X119380000Y-74065000D02*
X117070000Y-74065000D01*
X117070000Y-74065000D02*
X116840000Y-74295000D01*
X116840000Y-74295000D02*
X111760000Y-74295000D01*
X137160000Y-71575000D02*
X137160000Y-70612000D01*
X132080000Y-70739000D02*
X132715000Y-70104000D01*
X132715000Y-70104000D02*
X136652000Y-70104000D01*
X136652000Y-70104000D02*
X137160000Y-70612000D01*
X132080000Y-70739000D02*
X132080000Y-71755000D01*
X127000000Y-74295000D02*
X127889000Y-74295000D01*
X127889000Y-74295000D02*
X130429000Y-71755000D01*
X130429000Y-71755000D02*
X132080000Y-71755000D01*
X124460000Y-74065000D02*
X124460000Y-67945000D01*
X124460000Y-67945000D02*
X123190000Y-66675000D01*
X123190000Y-66675000D02*
X111760000Y-66675000D01*
X124460000Y-74065000D02*
X126770000Y-74065000D01*
X126770000Y-74065000D02*
X127000000Y-74295000D01*
X127000000Y-76835000D02*
X127127000Y-76835000D01*
X127127000Y-76835000D02*
X130937000Y-73025000D01*
X133350000Y-73025000D02*
X134620000Y-71755000D01*
D11*
X130937000Y-73025000D02*
X133350000Y-73025000D01*
D20*
X119380000Y-77065000D02*
X117070000Y-77065000D01*
X117070000Y-77065000D02*
X116840000Y-76835000D01*
X124460000Y-77065000D02*
X119380000Y-77065000D01*
X124460000Y-77065000D02*
X126770000Y-77065000D01*
X126770000Y-77065000D02*
X127000000Y-76835000D01*
X116840000Y-76835000D02*
X111760000Y-76835000D01*
X134620000Y-74295000D02*
X136980000Y-74295000D01*
X136980000Y-74295000D02*
X137160000Y-74475000D01*
X134800000Y-74475000D02*
X134620000Y-74295000D01*
X119380000Y-98830000D02*
X117070000Y-98830000D01*
X117070000Y-98830000D02*
X116840000Y-99060000D01*
X116840000Y-99060000D02*
X111760000Y-99060000D01*
X129540000Y-100965000D02*
X129540000Y-96520000D01*
X130810000Y-95250000D02*
X132080000Y-95250000D01*
X129540000Y-96520000D02*
X130810000Y-95250000D01*
X127000000Y-101600000D02*
X128905000Y-101600000D01*
X132080000Y-95250000D02*
X135890000Y-95250000D01*
X128905000Y-101600000D02*
X129540000Y-100965000D01*
X124460000Y-101830000D02*
X126770000Y-101830000D01*
X126770000Y-101830000D02*
X127000000Y-101600000D01*
X119380000Y-101830000D02*
X117070000Y-101830000D01*
X117070000Y-101830000D02*
X116840000Y-101600000D01*
X116840000Y-101600000D02*
X111760000Y-101600000D01*
X130810000Y-91440000D02*
X132715000Y-91440000D01*
X132715000Y-91440000D02*
X133985000Y-90170000D01*
X130810000Y-91440000D02*
X125730000Y-91440000D01*
X124460000Y-92710000D02*
X125730000Y-91440000D01*
X133985000Y-90170000D02*
X135890000Y-90170000D01*
X121285000Y-91440000D02*
X123190000Y-91440000D01*
X124460000Y-92710000D02*
X124460000Y-94615000D01*
X123190000Y-91440000D02*
X124460000Y-92710000D01*
X124460000Y-98830000D02*
X124460000Y-94615000D01*
X121285000Y-91440000D02*
X111760000Y-91440000D01*
X124460000Y-98830000D02*
X126770000Y-98830000D01*
X126770000Y-98830000D02*
X127000000Y-99060000D01*
X116840000Y-104140000D02*
X111760000Y-104140000D01*
X116840000Y-93980000D02*
X111760000Y-93980000D01*
X116840000Y-96520000D02*
X111760000Y-96520000D01*
X116840000Y-106680000D02*
X111760000Y-106680000D01*
X129540000Y-106680000D02*
X133350000Y-102870000D01*
X127000000Y-106680000D02*
X129540000Y-106680000D01*
X133985000Y-100330000D02*
X135890000Y-100330000D01*
X133350000Y-100965000D02*
X133985000Y-100330000D01*
X133350000Y-102870000D02*
X133350000Y-100965000D01*
X131127500Y-101917500D02*
X131127500Y-99377500D01*
X131127500Y-99377500D02*
X132080000Y-98425000D01*
X127000000Y-104140000D02*
X128905000Y-104140000D01*
X132715000Y-97790000D02*
X135890000Y-97790000D01*
X132080000Y-98425000D02*
X132715000Y-97790000D01*
X128905000Y-104140000D02*
X131127500Y-101917500D01*
X131445000Y-92710000D02*
X128270000Y-92710000D01*
X128270000Y-92710000D02*
X127000000Y-93980000D01*
X131445000Y-92710000D02*
X135890000Y-92710000D01*
X135890000Y-102870000D02*
X137160000Y-102870000D01*
X137160000Y-110490000D02*
X135890000Y-110490000D01*
X137795000Y-109855000D02*
X137160000Y-110490000D01*
X137795000Y-103505000D02*
X137795000Y-109855000D01*
X137160000Y-102870000D02*
X137795000Y-103505000D01*
X135890000Y-105410000D02*
X135890000Y-107950000D01*
X158750000Y-90170000D02*
X146685000Y-90170000D01*
X146685000Y-99695000D02*
X146050000Y-99060000D01*
X158750000Y-90170000D02*
X161290000Y-92710000D01*
X161290000Y-92710000D02*
X170180000Y-92710000D01*
X170180000Y-92710000D02*
X171450000Y-93980000D01*
X171450000Y-95885000D02*
X171450000Y-93980000D01*
X146685000Y-99695000D02*
X147955000Y-99695000D01*
X146050000Y-90805000D02*
X146050000Y-99060000D01*
X146685000Y-90170000D02*
X146050000Y-90805000D01*
X155575000Y-99465000D02*
X153265000Y-99465000D01*
X153265000Y-99465000D02*
X153035000Y-99695000D01*
X153035000Y-99695000D02*
X147955000Y-99695000D01*
X163195000Y-102235000D02*
X165100000Y-102235000D01*
X166370000Y-100965000D02*
X168910000Y-100965000D01*
X165100000Y-102235000D02*
X166370000Y-100965000D01*
X160655000Y-102465000D02*
X162965000Y-102465000D01*
X162965000Y-102465000D02*
X163195000Y-102235000D01*
X160655000Y-102465000D02*
X155575000Y-102465000D01*
X155575000Y-102465000D02*
X153265000Y-102465000D01*
X153265000Y-102465000D02*
X153035000Y-102235000D01*
X153035000Y-102235000D02*
X147955000Y-102235000D01*
X160655000Y-95250000D02*
X157480000Y-92075000D01*
X157480000Y-92075000D02*
X154940000Y-92075000D01*
X147955000Y-92075000D02*
X154940000Y-92075000D01*
X160655000Y-95250000D02*
X160655000Y-99465000D01*
X160655000Y-99465000D02*
X162965000Y-99465000D01*
X162965000Y-99465000D02*
X163195000Y-99695000D01*
X153035000Y-104775000D02*
X147955000Y-104775000D01*
X153035000Y-94615000D02*
X147955000Y-94615000D01*
X153035000Y-97155000D02*
X147955000Y-97155000D01*
X153035000Y-107315000D02*
X147955000Y-107315000D01*
X163195000Y-94615000D02*
X165100000Y-94615000D01*
X166370000Y-95885000D02*
X168910000Y-95885000D01*
X165100000Y-94615000D02*
X166370000Y-95885000D01*
X163195000Y-97155000D02*
X165100000Y-97155000D01*
X166370000Y-98425000D02*
X168910000Y-98425000D01*
X165100000Y-97155000D02*
X166370000Y-98425000D01*
X163195000Y-104775000D02*
X165100000Y-104775000D01*
X166370000Y-103505000D02*
X168910000Y-103505000D01*
X165100000Y-104775000D02*
X166370000Y-103505000D01*
X163195000Y-107315000D02*
X165100000Y-107315000D01*
X166370000Y-106045000D02*
X168910000Y-106045000D01*
X165100000Y-107315000D02*
X166370000Y-106045000D01*
D21*
G36*
X175645000Y-83140000D02*
X171722108Y-83140000D01*
X171826792Y-82893939D01*
X171830989Y-82454216D01*
X171928354Y-82434849D01*
X172333883Y-82163883D01*
X172968884Y-81528883D01*
X173239849Y-81123354D01*
X173335000Y-80645000D01*
X173335000Y-79375000D01*
X173239849Y-78896646D01*
X173199206Y-78835819D01*
X172968884Y-78491117D01*
X171830103Y-77352336D01*
X171830285Y-77143235D01*
X171579617Y-76536571D01*
X171243453Y-76199820D01*
X171263307Y-76180000D01*
X172720000Y-76180000D01*
X173198354Y-76084849D01*
X173603883Y-75813883D01*
X174873883Y-74543884D01*
X175144849Y-74138354D01*
X175164470Y-74039713D01*
X175240000Y-73660000D01*
X175240000Y-67310000D01*
X175144849Y-66831646D01*
X174935514Y-66518354D01*
X174873883Y-66426116D01*
X173603883Y-65156117D01*
X173198354Y-64885151D01*
X172720000Y-64790000D01*
X162560000Y-64790000D01*
X162161010Y-64869365D01*
X162081645Y-64885151D01*
X161676116Y-65156117D01*
X159136118Y-67696116D01*
X159136117Y-67696117D01*
X159067500Y-67798810D01*
X159060514Y-67788354D01*
X158998883Y-67696116D01*
X157728883Y-66426117D01*
X157323354Y-66155151D01*
X156845000Y-66060000D01*
X148886022Y-66060000D01*
X148768138Y-65876802D01*
X148517508Y-65705554D01*
X148220000Y-65645307D01*
X146420000Y-65645307D01*
X146142067Y-65697604D01*
X145886802Y-65861862D01*
X145715554Y-66112492D01*
X145655307Y-66410000D01*
X145655307Y-68210000D01*
X145707604Y-68487933D01*
X145871862Y-68743198D01*
X146003288Y-68832998D01*
X145922014Y-68914130D01*
X145670287Y-69520355D01*
X145669715Y-70176765D01*
X145920383Y-70783429D01*
X146256547Y-71120180D01*
X145922014Y-71454130D01*
X145670287Y-72060355D01*
X145669715Y-72716765D01*
X145920383Y-73323429D01*
X146256547Y-73660180D01*
X145922014Y-73994130D01*
X145670287Y-74600355D01*
X145669715Y-75256765D01*
X145920383Y-75863429D01*
X146325639Y-76269393D01*
X146298946Y-76378235D01*
X147320000Y-77399289D01*
X148341054Y-76378235D01*
X148314242Y-76268910D01*
X148403307Y-76180000D01*
X151096235Y-76180000D01*
X151144214Y-76212058D01*
X150868629Y-76409340D01*
X150548852Y-76923035D01*
X150477702Y-77178268D01*
X150638418Y-77420000D01*
X152350000Y-77420000D01*
X152350000Y-77400000D01*
X152450000Y-77400000D01*
X152450000Y-77420000D01*
X152470000Y-77420000D01*
X152470000Y-77520000D01*
X152450000Y-77520000D01*
X152450000Y-77540000D01*
X152350000Y-77540000D01*
X152350000Y-77520000D01*
X150638418Y-77520000D01*
X150477702Y-77761732D01*
X150548852Y-78016965D01*
X150868629Y-78530660D01*
X151144214Y-78727942D01*
X151096235Y-78760000D01*
X148403598Y-78760000D01*
X148314361Y-78670607D01*
X148341054Y-78561765D01*
X147320000Y-77540711D01*
X146298946Y-78561765D01*
X146325758Y-78671090D01*
X145922014Y-79074130D01*
X145670287Y-79680355D01*
X145669715Y-80336765D01*
X145920383Y-80943429D01*
X146256547Y-81280180D01*
X145922014Y-81614130D01*
X145670287Y-82220355D01*
X145669715Y-82876765D01*
X145920383Y-83483429D01*
X146384130Y-83947986D01*
X146990355Y-84199713D01*
X147646765Y-84200285D01*
X148253429Y-83949617D01*
X148403307Y-83800000D01*
X151096235Y-83800000D01*
X151368638Y-83982013D01*
X151961797Y-84100000D01*
X152838203Y-84100000D01*
X153431362Y-83982013D01*
X153934219Y-83646016D01*
X154270216Y-83143159D01*
X154388203Y-82550000D01*
X154270216Y-81956841D01*
X153934219Y-81453984D01*
X153673833Y-81280000D01*
X153934219Y-81106016D01*
X154270216Y-80603159D01*
X154388203Y-80010000D01*
X154270216Y-79416841D01*
X153945835Y-78931369D01*
X153990815Y-78950000D01*
X154702500Y-78950000D01*
X154890000Y-78762500D01*
X154890000Y-77750000D01*
X154990000Y-77750000D01*
X154990000Y-78762500D01*
X155177500Y-78950000D01*
X155889185Y-78950000D01*
X156164841Y-78835819D01*
X156375819Y-78624841D01*
X156490000Y-78349184D01*
X156490000Y-77937500D01*
X158470000Y-77937500D01*
X158470000Y-78349184D01*
X158584181Y-78624841D01*
X158795159Y-78835819D01*
X159070815Y-78950000D01*
X159782500Y-78950000D01*
X159970000Y-78762500D01*
X159970000Y-77750000D01*
X158657500Y-77750000D01*
X158470000Y-77937500D01*
X156490000Y-77937500D01*
X156302500Y-77750000D01*
X154990000Y-77750000D01*
X154890000Y-77750000D01*
X154870000Y-77750000D01*
X154870000Y-77650000D01*
X154890000Y-77650000D01*
X154890000Y-76637500D01*
X154990000Y-76637500D01*
X154990000Y-77650000D01*
X156302500Y-77650000D01*
X156490000Y-77462500D01*
X156490000Y-77050816D01*
X158470000Y-77050816D01*
X158470000Y-77462500D01*
X158657500Y-77650000D01*
X159970000Y-77650000D01*
X159970000Y-76637500D01*
X159782500Y-76450000D01*
X159070815Y-76450000D01*
X158795159Y-76564181D01*
X158584181Y-76775159D01*
X158470000Y-77050816D01*
X156490000Y-77050816D01*
X156375819Y-76775159D01*
X156164841Y-76564181D01*
X155889185Y-76450000D01*
X155177500Y-76450000D01*
X154990000Y-76637500D01*
X154890000Y-76637500D01*
X154702500Y-76450000D01*
X153990815Y-76450000D01*
X153963679Y-76461240D01*
X153931371Y-76409340D01*
X153655786Y-76212058D01*
X153934219Y-76026016D01*
X153985011Y-75950000D01*
X154067444Y-75950000D01*
X154140000Y-75964693D01*
X155740000Y-75964693D01*
X156017933Y-75912396D01*
X156273198Y-75748138D01*
X156444446Y-75497508D01*
X156504693Y-75200000D01*
X156504693Y-74200000D01*
X156452396Y-73922067D01*
X156288138Y-73666802D01*
X156037508Y-73495554D01*
X155740000Y-73435307D01*
X154140000Y-73435307D01*
X154061914Y-73450000D01*
X153958284Y-73450000D01*
X154270216Y-72983159D01*
X154388203Y-72390000D01*
X154270216Y-71796841D01*
X153949262Y-71316497D01*
X154133198Y-71198138D01*
X154304446Y-70947508D01*
X154364693Y-70650000D01*
X154364693Y-69050000D01*
X154312396Y-68772067D01*
X154175935Y-68560000D01*
X156327234Y-68560000D01*
X156865000Y-69097767D01*
X156865000Y-71755000D01*
X156926312Y-72063235D01*
X156960151Y-72233354D01*
X157231117Y-72638883D01*
X158512046Y-73919813D01*
X158455307Y-74200000D01*
X158455307Y-75200000D01*
X158507604Y-75477933D01*
X158671862Y-75733198D01*
X158922492Y-75904446D01*
X159220000Y-75964693D01*
X160820000Y-75964693D01*
X160898086Y-75950000D01*
X160974989Y-75950000D01*
X161025781Y-76026016D01*
X161304214Y-76212058D01*
X161028629Y-76409340D01*
X160996321Y-76461240D01*
X160969185Y-76450000D01*
X160257500Y-76450000D01*
X160070000Y-76637500D01*
X160070000Y-77650000D01*
X160090000Y-77650000D01*
X160090000Y-77750000D01*
X160070000Y-77750000D01*
X160070000Y-78762500D01*
X160257500Y-78950000D01*
X160969185Y-78950000D01*
X161014165Y-78931369D01*
X160689784Y-79416841D01*
X160571797Y-80010000D01*
X160689784Y-80603159D01*
X161025781Y-81106016D01*
X161286167Y-81280000D01*
X161025781Y-81453984D01*
X160689784Y-81956841D01*
X160571797Y-82550000D01*
X160689784Y-83143159D01*
X161025781Y-83646016D01*
X161528638Y-83982013D01*
X162121797Y-84100000D01*
X162998203Y-84100000D01*
X163591362Y-83982013D01*
X163878077Y-83790437D01*
X164308354Y-83704849D01*
X164713883Y-83433883D01*
X166031344Y-82116423D01*
X165993208Y-82206061D01*
X165986943Y-82862441D01*
X166232341Y-83471255D01*
X166250182Y-83497958D01*
X166342858Y-83520686D01*
X166342858Y-85475000D01*
X144395000Y-85475000D01*
X144395000Y-77782441D01*
X145666943Y-77782441D01*
X145912341Y-78391255D01*
X145930182Y-78417958D01*
X146228235Y-78491054D01*
X147249289Y-77470000D01*
X147390711Y-77470000D01*
X148411765Y-78491054D01*
X148709818Y-78417958D01*
X148966792Y-77813939D01*
X148973057Y-77157559D01*
X148727659Y-76548745D01*
X148709818Y-76522042D01*
X148411765Y-76448946D01*
X147390711Y-77470000D01*
X147249289Y-77470000D01*
X146228235Y-76448946D01*
X145930182Y-76522042D01*
X145673208Y-77126061D01*
X145666943Y-77782441D01*
X144395000Y-77782441D01*
X144395000Y-64385000D01*
X175645000Y-64385000D01*
X175645000Y-83140000D01*
X175645000Y-83140000D01*
G37*
X175645000Y-83140000D02*
X171722108Y-83140000D01*
X171826792Y-82893939D01*
X171830989Y-82454216D01*
X171928354Y-82434849D01*
X172333883Y-82163883D01*
X172968884Y-81528883D01*
X173239849Y-81123354D01*
X173335000Y-80645000D01*
X173335000Y-79375000D01*
X173239849Y-78896646D01*
X173199206Y-78835819D01*
X172968884Y-78491117D01*
X171830103Y-77352336D01*
X171830285Y-77143235D01*
X171579617Y-76536571D01*
X171243453Y-76199820D01*
X171263307Y-76180000D01*
X172720000Y-76180000D01*
X173198354Y-76084849D01*
X173603883Y-75813883D01*
X174873883Y-74543884D01*
X175144849Y-74138354D01*
X175164470Y-74039713D01*
X175240000Y-73660000D01*
X175240000Y-67310000D01*
X175144849Y-66831646D01*
X174935514Y-66518354D01*
X174873883Y-66426116D01*
X173603883Y-65156117D01*
X173198354Y-64885151D01*
X172720000Y-64790000D01*
X162560000Y-64790000D01*
X162161010Y-64869365D01*
X162081645Y-64885151D01*
X161676116Y-65156117D01*
X159136118Y-67696116D01*
X159136117Y-67696117D01*
X159067500Y-67798810D01*
X159060514Y-67788354D01*
X158998883Y-67696116D01*
X157728883Y-66426117D01*
X157323354Y-66155151D01*
X156845000Y-66060000D01*
X148886022Y-66060000D01*
X148768138Y-65876802D01*
X148517508Y-65705554D01*
X148220000Y-65645307D01*
X146420000Y-65645307D01*
X146142067Y-65697604D01*
X145886802Y-65861862D01*
X145715554Y-66112492D01*
X145655307Y-66410000D01*
X145655307Y-68210000D01*
X145707604Y-68487933D01*
X145871862Y-68743198D01*
X146003288Y-68832998D01*
X145922014Y-68914130D01*
X145670287Y-69520355D01*
X145669715Y-70176765D01*
X145920383Y-70783429D01*
X146256547Y-71120180D01*
X145922014Y-71454130D01*
X145670287Y-72060355D01*
X145669715Y-72716765D01*
X145920383Y-73323429D01*
X146256547Y-73660180D01*
X145922014Y-73994130D01*
X145670287Y-74600355D01*
X145669715Y-75256765D01*
X145920383Y-75863429D01*
X146325639Y-76269393D01*
X146298946Y-76378235D01*
X147320000Y-77399289D01*
X148341054Y-76378235D01*
X148314242Y-76268910D01*
X148403307Y-76180000D01*
X151096235Y-76180000D01*
X151144214Y-76212058D01*
X150868629Y-76409340D01*
X150548852Y-76923035D01*
X150477702Y-77178268D01*
X150638418Y-77420000D01*
X152350000Y-77420000D01*
X152350000Y-77400000D01*
X152450000Y-77400000D01*
X152450000Y-77420000D01*
X152470000Y-77420000D01*
X152470000Y-77520000D01*
X152450000Y-77520000D01*
X152450000Y-77540000D01*
X152350000Y-77540000D01*
X152350000Y-77520000D01*
X150638418Y-77520000D01*
X150477702Y-77761732D01*
X150548852Y-78016965D01*
X150868629Y-78530660D01*
X151144214Y-78727942D01*
X151096235Y-78760000D01*
X148403598Y-78760000D01*
X148314361Y-78670607D01*
X148341054Y-78561765D01*
X147320000Y-77540711D01*
X146298946Y-78561765D01*
X146325758Y-78671090D01*
X145922014Y-79074130D01*
X145670287Y-79680355D01*
X145669715Y-80336765D01*
X145920383Y-80943429D01*
X146256547Y-81280180D01*
X145922014Y-81614130D01*
X145670287Y-82220355D01*
X145669715Y-82876765D01*
X145920383Y-83483429D01*
X146384130Y-83947986D01*
X146990355Y-84199713D01*
X147646765Y-84200285D01*
X148253429Y-83949617D01*
X148403307Y-83800000D01*
X151096235Y-83800000D01*
X151368638Y-83982013D01*
X151961797Y-84100000D01*
X152838203Y-84100000D01*
X153431362Y-83982013D01*
X153934219Y-83646016D01*
X154270216Y-83143159D01*
X154388203Y-82550000D01*
X154270216Y-81956841D01*
X153934219Y-81453984D01*
X153673833Y-81280000D01*
X153934219Y-81106016D01*
X154270216Y-80603159D01*
X154388203Y-80010000D01*
X154270216Y-79416841D01*
X153945835Y-78931369D01*
X153990815Y-78950000D01*
X154702500Y-78950000D01*
X154890000Y-78762500D01*
X154890000Y-77750000D01*
X154990000Y-77750000D01*
X154990000Y-78762500D01*
X155177500Y-78950000D01*
X155889185Y-78950000D01*
X156164841Y-78835819D01*
X156375819Y-78624841D01*
X156490000Y-78349184D01*
X156490000Y-77937500D01*
X158470000Y-77937500D01*
X158470000Y-78349184D01*
X158584181Y-78624841D01*
X158795159Y-78835819D01*
X159070815Y-78950000D01*
X159782500Y-78950000D01*
X159970000Y-78762500D01*
X159970000Y-77750000D01*
X158657500Y-77750000D01*
X158470000Y-77937500D01*
X156490000Y-77937500D01*
X156302500Y-77750000D01*
X154990000Y-77750000D01*
X154890000Y-77750000D01*
X154870000Y-77750000D01*
X154870000Y-77650000D01*
X154890000Y-77650000D01*
X154890000Y-76637500D01*
X154990000Y-76637500D01*
X154990000Y-77650000D01*
X156302500Y-77650000D01*
X156490000Y-77462500D01*
X156490000Y-77050816D01*
X158470000Y-77050816D01*
X158470000Y-77462500D01*
X158657500Y-77650000D01*
X159970000Y-77650000D01*
X159970000Y-76637500D01*
X159782500Y-76450000D01*
X159070815Y-76450000D01*
X158795159Y-76564181D01*
X158584181Y-76775159D01*
X158470000Y-77050816D01*
X156490000Y-77050816D01*
X156375819Y-76775159D01*
X156164841Y-76564181D01*
X155889185Y-76450000D01*
X155177500Y-76450000D01*
X154990000Y-76637500D01*
X154890000Y-76637500D01*
X154702500Y-76450000D01*
X153990815Y-76450000D01*
X153963679Y-76461240D01*
X153931371Y-76409340D01*
X153655786Y-76212058D01*
X153934219Y-76026016D01*
X153985011Y-75950000D01*
X154067444Y-75950000D01*
X154140000Y-75964693D01*
X155740000Y-75964693D01*
X156017933Y-75912396D01*
X156273198Y-75748138D01*
X156444446Y-75497508D01*
X156504693Y-75200000D01*
X156504693Y-74200000D01*
X156452396Y-73922067D01*
X156288138Y-73666802D01*
X156037508Y-73495554D01*
X155740000Y-73435307D01*
X154140000Y-73435307D01*
X154061914Y-73450000D01*
X153958284Y-73450000D01*
X154270216Y-72983159D01*
X154388203Y-72390000D01*
X154270216Y-71796841D01*
X153949262Y-71316497D01*
X154133198Y-71198138D01*
X154304446Y-70947508D01*
X154364693Y-70650000D01*
X154364693Y-69050000D01*
X154312396Y-68772067D01*
X154175935Y-68560000D01*
X156327234Y-68560000D01*
X156865000Y-69097767D01*
X156865000Y-71755000D01*
X156926312Y-72063235D01*
X156960151Y-72233354D01*
X157231117Y-72638883D01*
X158512046Y-73919813D01*
X158455307Y-74200000D01*
X158455307Y-75200000D01*
X158507604Y-75477933D01*
X158671862Y-75733198D01*
X158922492Y-75904446D01*
X159220000Y-75964693D01*
X160820000Y-75964693D01*
X160898086Y-75950000D01*
X160974989Y-75950000D01*
X161025781Y-76026016D01*
X161304214Y-76212058D01*
X161028629Y-76409340D01*
X160996321Y-76461240D01*
X160969185Y-76450000D01*
X160257500Y-76450000D01*
X160070000Y-76637500D01*
X160070000Y-77650000D01*
X160090000Y-77650000D01*
X160090000Y-77750000D01*
X160070000Y-77750000D01*
X160070000Y-78762500D01*
X160257500Y-78950000D01*
X160969185Y-78950000D01*
X161014165Y-78931369D01*
X160689784Y-79416841D01*
X160571797Y-80010000D01*
X160689784Y-80603159D01*
X161025781Y-81106016D01*
X161286167Y-81280000D01*
X161025781Y-81453984D01*
X160689784Y-81956841D01*
X160571797Y-82550000D01*
X160689784Y-83143159D01*
X161025781Y-83646016D01*
X161528638Y-83982013D01*
X162121797Y-84100000D01*
X162998203Y-84100000D01*
X163591362Y-83982013D01*
X163878077Y-83790437D01*
X164308354Y-83704849D01*
X164713883Y-83433883D01*
X166031344Y-82116423D01*
X165993208Y-82206061D01*
X165986943Y-82862441D01*
X166232341Y-83471255D01*
X166250182Y-83497958D01*
X166342858Y-83520686D01*
X166342858Y-85475000D01*
X144395000Y-85475000D01*
X144395000Y-77782441D01*
X145666943Y-77782441D01*
X145912341Y-78391255D01*
X145930182Y-78417958D01*
X146228235Y-78491054D01*
X147249289Y-77470000D01*
X147390711Y-77470000D01*
X148411765Y-78491054D01*
X148709818Y-78417958D01*
X148966792Y-77813939D01*
X148973057Y-77157559D01*
X148727659Y-76548745D01*
X148709818Y-76522042D01*
X148411765Y-76448946D01*
X147390711Y-77470000D01*
X147249289Y-77470000D01*
X146228235Y-76448946D01*
X145930182Y-76522042D01*
X145673208Y-77126061D01*
X145666943Y-77782441D01*
X144395000Y-77782441D01*
X144395000Y-64385000D01*
X175645000Y-64385000D01*
X175645000Y-83140000D01*
G36*
X170264853Y-82535858D02*
X170250711Y-82550000D01*
X170264853Y-82564142D01*
X170194142Y-82634853D01*
X170180000Y-82620711D01*
X170165858Y-82634853D01*
X170095147Y-82564142D01*
X170109289Y-82550000D01*
X170095147Y-82535858D01*
X170165858Y-82465147D01*
X170180000Y-82479289D01*
X170194142Y-82465147D01*
X170264853Y-82535858D01*
X170264853Y-82535858D01*
G37*
X170264853Y-82535858D02*
X170250711Y-82550000D01*
X170264853Y-82564142D01*
X170194142Y-82634853D01*
X170180000Y-82620711D01*
X170165858Y-82634853D01*
X170095147Y-82564142D01*
X170109289Y-82550000D01*
X170095147Y-82535858D01*
X170165858Y-82465147D01*
X170180000Y-82479289D01*
X170194142Y-82465147D01*
X170264853Y-82535858D01*
G36*
X167724853Y-82535858D02*
X167710711Y-82550000D01*
X167724853Y-82564142D01*
X167654142Y-82634853D01*
X167640000Y-82620711D01*
X167625858Y-82634853D01*
X167555147Y-82564142D01*
X167569289Y-82550000D01*
X167555147Y-82535858D01*
X167625858Y-82465147D01*
X167640000Y-82479289D01*
X167654142Y-82465147D01*
X167724853Y-82535858D01*
X167724853Y-82535858D01*
G37*
X167724853Y-82535858D02*
X167710711Y-82550000D01*
X167724853Y-82564142D01*
X167654142Y-82634853D01*
X167640000Y-82620711D01*
X167625858Y-82634853D01*
X167555147Y-82564142D01*
X167569289Y-82550000D01*
X167555147Y-82535858D01*
X167625858Y-82465147D01*
X167640000Y-82479289D01*
X167654142Y-82465147D01*
X167724853Y-82535858D01*
G36*
X162610000Y-77420000D02*
X162630000Y-77420000D01*
X162630000Y-77520000D01*
X162610000Y-77520000D01*
X162610000Y-77540000D01*
X162510000Y-77540000D01*
X162510000Y-77520000D01*
X162490000Y-77520000D01*
X162490000Y-77420000D01*
X162510000Y-77420000D01*
X162510000Y-77400000D01*
X162610000Y-77400000D01*
X162610000Y-77420000D01*
X162610000Y-77420000D01*
G37*
X162610000Y-77420000D02*
X162630000Y-77420000D01*
X162630000Y-77520000D01*
X162610000Y-77520000D01*
X162610000Y-77540000D01*
X162510000Y-77540000D01*
X162510000Y-77520000D01*
X162490000Y-77520000D01*
X162490000Y-77420000D01*
X162510000Y-77420000D01*
X162510000Y-77400000D01*
X162610000Y-77400000D01*
X162610000Y-77420000D01*
G36*
X141355000Y-69359899D02*
X141271545Y-69235000D01*
X141091883Y-68966116D01*
X138805883Y-66680117D01*
X138400354Y-66409151D01*
X137922000Y-66314000D01*
X130810000Y-66314000D01*
X130331646Y-66409151D01*
X129926117Y-66680116D01*
X128641234Y-67965000D01*
X128303765Y-67965000D01*
X128031362Y-67782987D01*
X127438203Y-67665000D01*
X126561797Y-67665000D01*
X125968638Y-67782987D01*
X125710000Y-67955803D01*
X125710000Y-67945000D01*
X125614849Y-67466646D01*
X125360273Y-67085646D01*
X125343883Y-67061116D01*
X124073883Y-65791117D01*
X123668354Y-65520151D01*
X123190000Y-65425000D01*
X113326022Y-65425000D01*
X113208138Y-65241802D01*
X112957508Y-65070554D01*
X112660000Y-65010307D01*
X110860000Y-65010307D01*
X110582067Y-65062604D01*
X110326802Y-65226862D01*
X110155554Y-65477492D01*
X110095307Y-65775000D01*
X110095307Y-67575000D01*
X110147604Y-67852933D01*
X110311862Y-68108198D01*
X110443288Y-68197998D01*
X110362014Y-68279130D01*
X110110287Y-68885355D01*
X110109715Y-69541765D01*
X110360383Y-70148429D01*
X110696547Y-70485180D01*
X110362014Y-70819130D01*
X110110287Y-71425355D01*
X110109715Y-72081765D01*
X110360383Y-72688429D01*
X110696547Y-73025180D01*
X110362014Y-73359130D01*
X110110287Y-73965355D01*
X110109715Y-74621765D01*
X110360383Y-75228429D01*
X110765639Y-75634393D01*
X110738946Y-75743235D01*
X111760000Y-76764289D01*
X112781054Y-75743235D01*
X112754242Y-75633910D01*
X112843307Y-75545000D01*
X115536235Y-75545000D01*
X115584214Y-75577058D01*
X115308629Y-75774340D01*
X114988852Y-76288035D01*
X114917702Y-76543268D01*
X115078418Y-76785000D01*
X116790000Y-76785000D01*
X116790000Y-76765000D01*
X116890000Y-76765000D01*
X116890000Y-76785000D01*
X116910000Y-76785000D01*
X116910000Y-76885000D01*
X116890000Y-76885000D01*
X116890000Y-76905000D01*
X116790000Y-76905000D01*
X116790000Y-76885000D01*
X115078418Y-76885000D01*
X114917702Y-77126732D01*
X114988852Y-77381965D01*
X115308629Y-77895660D01*
X115584214Y-78092942D01*
X115536235Y-78125000D01*
X112843598Y-78125000D01*
X112754361Y-78035607D01*
X112781054Y-77926765D01*
X111760000Y-76905711D01*
X110738946Y-77926765D01*
X110765758Y-78036090D01*
X110362014Y-78439130D01*
X110110287Y-79045355D01*
X110109715Y-79701765D01*
X110360383Y-80308429D01*
X110696547Y-80645180D01*
X110362014Y-80979130D01*
X110110287Y-81585355D01*
X110109715Y-82241765D01*
X110360383Y-82848429D01*
X110824130Y-83312986D01*
X111430355Y-83564713D01*
X112086765Y-83565285D01*
X112693429Y-83314617D01*
X112843307Y-83165000D01*
X115536235Y-83165000D01*
X115808638Y-83347013D01*
X116401797Y-83465000D01*
X117278203Y-83465000D01*
X117871362Y-83347013D01*
X118374219Y-83011016D01*
X118710216Y-82508159D01*
X118828203Y-81915000D01*
X118710216Y-81321841D01*
X118374219Y-80818984D01*
X118113833Y-80645000D01*
X118374219Y-80471016D01*
X118710216Y-79968159D01*
X118828203Y-79375000D01*
X118710216Y-78781841D01*
X118385835Y-78296369D01*
X118430815Y-78315000D01*
X119142500Y-78315000D01*
X119330000Y-78127500D01*
X119330000Y-77115000D01*
X119430000Y-77115000D01*
X119430000Y-78127500D01*
X119617500Y-78315000D01*
X120329185Y-78315000D01*
X120604841Y-78200819D01*
X120815819Y-77989841D01*
X120930000Y-77714184D01*
X120930000Y-77302500D01*
X122910000Y-77302500D01*
X122910000Y-77714184D01*
X123024181Y-77989841D01*
X123235159Y-78200819D01*
X123510815Y-78315000D01*
X124222500Y-78315000D01*
X124410000Y-78127500D01*
X124410000Y-77115000D01*
X123097500Y-77115000D01*
X122910000Y-77302500D01*
X120930000Y-77302500D01*
X120742500Y-77115000D01*
X119430000Y-77115000D01*
X119330000Y-77115000D01*
X119310000Y-77115000D01*
X119310000Y-77015000D01*
X119330000Y-77015000D01*
X119330000Y-76002500D01*
X119430000Y-76002500D01*
X119430000Y-77015000D01*
X120742500Y-77015000D01*
X120930000Y-76827500D01*
X120930000Y-76415816D01*
X122910000Y-76415816D01*
X122910000Y-76827500D01*
X123097500Y-77015000D01*
X124410000Y-77015000D01*
X124410000Y-76002500D01*
X124222500Y-75815000D01*
X123510815Y-75815000D01*
X123235159Y-75929181D01*
X123024181Y-76140159D01*
X122910000Y-76415816D01*
X120930000Y-76415816D01*
X120815819Y-76140159D01*
X120604841Y-75929181D01*
X120329185Y-75815000D01*
X119617500Y-75815000D01*
X119430000Y-76002500D01*
X119330000Y-76002500D01*
X119142500Y-75815000D01*
X118430815Y-75815000D01*
X118403679Y-75826240D01*
X118371371Y-75774340D01*
X118095786Y-75577058D01*
X118374219Y-75391016D01*
X118425011Y-75315000D01*
X118507444Y-75315000D01*
X118580000Y-75329693D01*
X120180000Y-75329693D01*
X120457933Y-75277396D01*
X120713198Y-75113138D01*
X120884446Y-74862508D01*
X120944693Y-74565000D01*
X120944693Y-73565000D01*
X120892396Y-73287067D01*
X120728138Y-73031802D01*
X120477508Y-72860554D01*
X120180000Y-72800307D01*
X118580000Y-72800307D01*
X118501914Y-72815000D01*
X118398284Y-72815000D01*
X118710216Y-72348159D01*
X118828203Y-71755000D01*
X118710216Y-71161841D01*
X118389262Y-70681497D01*
X118573198Y-70563138D01*
X118744446Y-70312508D01*
X118804693Y-70015000D01*
X118804693Y-68415000D01*
X118752396Y-68137067D01*
X118615935Y-67925000D01*
X122672234Y-67925000D01*
X123210000Y-68462767D01*
X123210000Y-72963326D01*
X123126802Y-73016862D01*
X122955554Y-73267492D01*
X122895307Y-73565000D01*
X122895307Y-74565000D01*
X122947604Y-74842933D01*
X123111862Y-75098198D01*
X123362492Y-75269446D01*
X123660000Y-75329693D01*
X125260000Y-75329693D01*
X125338086Y-75315000D01*
X125414989Y-75315000D01*
X125465781Y-75391016D01*
X125744214Y-75577058D01*
X125468629Y-75774340D01*
X125436321Y-75826240D01*
X125409185Y-75815000D01*
X124697500Y-75815000D01*
X124510000Y-76002500D01*
X124510000Y-77015000D01*
X124530000Y-77015000D01*
X124530000Y-77115000D01*
X124510000Y-77115000D01*
X124510000Y-78127500D01*
X124697500Y-78315000D01*
X125409185Y-78315000D01*
X125454165Y-78296369D01*
X125129784Y-78781841D01*
X125011797Y-79375000D01*
X125129784Y-79968159D01*
X125465781Y-80471016D01*
X125726167Y-80645000D01*
X125465781Y-80818984D01*
X125129784Y-81321841D01*
X125011797Y-81915000D01*
X125129784Y-82508159D01*
X125465781Y-83011016D01*
X125968638Y-83347013D01*
X126561797Y-83465000D01*
X127438203Y-83465000D01*
X128031362Y-83347013D01*
X128303765Y-83165000D01*
X129032000Y-83165000D01*
X129510354Y-83069849D01*
X129915883Y-82798883D01*
X130438767Y-82276000D01*
X132969000Y-82276000D01*
X133447354Y-82180849D01*
X133852883Y-81909883D01*
X134821640Y-80941126D01*
X135263639Y-80853207D01*
X135782717Y-80506371D01*
X136129553Y-79987293D01*
X136251346Y-79375000D01*
X136146320Y-78847000D01*
X139192000Y-78847000D01*
X139670354Y-78751849D01*
X140075883Y-78480883D01*
X141218883Y-77337884D01*
X141355000Y-77134170D01*
X141355000Y-83140000D01*
X129497144Y-83140000D01*
X129497144Y-85475000D01*
X108835000Y-85475000D01*
X108835000Y-77147441D01*
X110106943Y-77147441D01*
X110352341Y-77756255D01*
X110370182Y-77782958D01*
X110668235Y-77856054D01*
X111689289Y-76835000D01*
X111830711Y-76835000D01*
X112851765Y-77856054D01*
X113149818Y-77782958D01*
X113406792Y-77178939D01*
X113413057Y-76522559D01*
X113167659Y-75913745D01*
X113149818Y-75887042D01*
X112851765Y-75813946D01*
X111830711Y-76835000D01*
X111689289Y-76835000D01*
X110668235Y-75813946D01*
X110370182Y-75887042D01*
X110113208Y-76491061D01*
X110106943Y-77147441D01*
X108835000Y-77147441D01*
X108835000Y-64385000D01*
X141355000Y-64385000D01*
X141355000Y-69359899D01*
X141355000Y-69359899D01*
G37*
X141355000Y-69359899D02*
X141271545Y-69235000D01*
X141091883Y-68966116D01*
X138805883Y-66680117D01*
X138400354Y-66409151D01*
X137922000Y-66314000D01*
X130810000Y-66314000D01*
X130331646Y-66409151D01*
X129926117Y-66680116D01*
X128641234Y-67965000D01*
X128303765Y-67965000D01*
X128031362Y-67782987D01*
X127438203Y-67665000D01*
X126561797Y-67665000D01*
X125968638Y-67782987D01*
X125710000Y-67955803D01*
X125710000Y-67945000D01*
X125614849Y-67466646D01*
X125360273Y-67085646D01*
X125343883Y-67061116D01*
X124073883Y-65791117D01*
X123668354Y-65520151D01*
X123190000Y-65425000D01*
X113326022Y-65425000D01*
X113208138Y-65241802D01*
X112957508Y-65070554D01*
X112660000Y-65010307D01*
X110860000Y-65010307D01*
X110582067Y-65062604D01*
X110326802Y-65226862D01*
X110155554Y-65477492D01*
X110095307Y-65775000D01*
X110095307Y-67575000D01*
X110147604Y-67852933D01*
X110311862Y-68108198D01*
X110443288Y-68197998D01*
X110362014Y-68279130D01*
X110110287Y-68885355D01*
X110109715Y-69541765D01*
X110360383Y-70148429D01*
X110696547Y-70485180D01*
X110362014Y-70819130D01*
X110110287Y-71425355D01*
X110109715Y-72081765D01*
X110360383Y-72688429D01*
X110696547Y-73025180D01*
X110362014Y-73359130D01*
X110110287Y-73965355D01*
X110109715Y-74621765D01*
X110360383Y-75228429D01*
X110765639Y-75634393D01*
X110738946Y-75743235D01*
X111760000Y-76764289D01*
X112781054Y-75743235D01*
X112754242Y-75633910D01*
X112843307Y-75545000D01*
X115536235Y-75545000D01*
X115584214Y-75577058D01*
X115308629Y-75774340D01*
X114988852Y-76288035D01*
X114917702Y-76543268D01*
X115078418Y-76785000D01*
X116790000Y-76785000D01*
X116790000Y-76765000D01*
X116890000Y-76765000D01*
X116890000Y-76785000D01*
X116910000Y-76785000D01*
X116910000Y-76885000D01*
X116890000Y-76885000D01*
X116890000Y-76905000D01*
X116790000Y-76905000D01*
X116790000Y-76885000D01*
X115078418Y-76885000D01*
X114917702Y-77126732D01*
X114988852Y-77381965D01*
X115308629Y-77895660D01*
X115584214Y-78092942D01*
X115536235Y-78125000D01*
X112843598Y-78125000D01*
X112754361Y-78035607D01*
X112781054Y-77926765D01*
X111760000Y-76905711D01*
X110738946Y-77926765D01*
X110765758Y-78036090D01*
X110362014Y-78439130D01*
X110110287Y-79045355D01*
X110109715Y-79701765D01*
X110360383Y-80308429D01*
X110696547Y-80645180D01*
X110362014Y-80979130D01*
X110110287Y-81585355D01*
X110109715Y-82241765D01*
X110360383Y-82848429D01*
X110824130Y-83312986D01*
X111430355Y-83564713D01*
X112086765Y-83565285D01*
X112693429Y-83314617D01*
X112843307Y-83165000D01*
X115536235Y-83165000D01*
X115808638Y-83347013D01*
X116401797Y-83465000D01*
X117278203Y-83465000D01*
X117871362Y-83347013D01*
X118374219Y-83011016D01*
X118710216Y-82508159D01*
X118828203Y-81915000D01*
X118710216Y-81321841D01*
X118374219Y-80818984D01*
X118113833Y-80645000D01*
X118374219Y-80471016D01*
X118710216Y-79968159D01*
X118828203Y-79375000D01*
X118710216Y-78781841D01*
X118385835Y-78296369D01*
X118430815Y-78315000D01*
X119142500Y-78315000D01*
X119330000Y-78127500D01*
X119330000Y-77115000D01*
X119430000Y-77115000D01*
X119430000Y-78127500D01*
X119617500Y-78315000D01*
X120329185Y-78315000D01*
X120604841Y-78200819D01*
X120815819Y-77989841D01*
X120930000Y-77714184D01*
X120930000Y-77302500D01*
X122910000Y-77302500D01*
X122910000Y-77714184D01*
X123024181Y-77989841D01*
X123235159Y-78200819D01*
X123510815Y-78315000D01*
X124222500Y-78315000D01*
X124410000Y-78127500D01*
X124410000Y-77115000D01*
X123097500Y-77115000D01*
X122910000Y-77302500D01*
X120930000Y-77302500D01*
X120742500Y-77115000D01*
X119430000Y-77115000D01*
X119330000Y-77115000D01*
X119310000Y-77115000D01*
X119310000Y-77015000D01*
X119330000Y-77015000D01*
X119330000Y-76002500D01*
X119430000Y-76002500D01*
X119430000Y-77015000D01*
X120742500Y-77015000D01*
X120930000Y-76827500D01*
X120930000Y-76415816D01*
X122910000Y-76415816D01*
X122910000Y-76827500D01*
X123097500Y-77015000D01*
X124410000Y-77015000D01*
X124410000Y-76002500D01*
X124222500Y-75815000D01*
X123510815Y-75815000D01*
X123235159Y-75929181D01*
X123024181Y-76140159D01*
X122910000Y-76415816D01*
X120930000Y-76415816D01*
X120815819Y-76140159D01*
X120604841Y-75929181D01*
X120329185Y-75815000D01*
X119617500Y-75815000D01*
X119430000Y-76002500D01*
X119330000Y-76002500D01*
X119142500Y-75815000D01*
X118430815Y-75815000D01*
X118403679Y-75826240D01*
X118371371Y-75774340D01*
X118095786Y-75577058D01*
X118374219Y-75391016D01*
X118425011Y-75315000D01*
X118507444Y-75315000D01*
X118580000Y-75329693D01*
X120180000Y-75329693D01*
X120457933Y-75277396D01*
X120713198Y-75113138D01*
X120884446Y-74862508D01*
X120944693Y-74565000D01*
X120944693Y-73565000D01*
X120892396Y-73287067D01*
X120728138Y-73031802D01*
X120477508Y-72860554D01*
X120180000Y-72800307D01*
X118580000Y-72800307D01*
X118501914Y-72815000D01*
X118398284Y-72815000D01*
X118710216Y-72348159D01*
X118828203Y-71755000D01*
X118710216Y-71161841D01*
X118389262Y-70681497D01*
X118573198Y-70563138D01*
X118744446Y-70312508D01*
X118804693Y-70015000D01*
X118804693Y-68415000D01*
X118752396Y-68137067D01*
X118615935Y-67925000D01*
X122672234Y-67925000D01*
X123210000Y-68462767D01*
X123210000Y-72963326D01*
X123126802Y-73016862D01*
X122955554Y-73267492D01*
X122895307Y-73565000D01*
X122895307Y-74565000D01*
X122947604Y-74842933D01*
X123111862Y-75098198D01*
X123362492Y-75269446D01*
X123660000Y-75329693D01*
X125260000Y-75329693D01*
X125338086Y-75315000D01*
X125414989Y-75315000D01*
X125465781Y-75391016D01*
X125744214Y-75577058D01*
X125468629Y-75774340D01*
X125436321Y-75826240D01*
X125409185Y-75815000D01*
X124697500Y-75815000D01*
X124510000Y-76002500D01*
X124510000Y-77015000D01*
X124530000Y-77015000D01*
X124530000Y-77115000D01*
X124510000Y-77115000D01*
X124510000Y-78127500D01*
X124697500Y-78315000D01*
X125409185Y-78315000D01*
X125454165Y-78296369D01*
X125129784Y-78781841D01*
X125011797Y-79375000D01*
X125129784Y-79968159D01*
X125465781Y-80471016D01*
X125726167Y-80645000D01*
X125465781Y-80818984D01*
X125129784Y-81321841D01*
X125011797Y-81915000D01*
X125129784Y-82508159D01*
X125465781Y-83011016D01*
X125968638Y-83347013D01*
X126561797Y-83465000D01*
X127438203Y-83465000D01*
X128031362Y-83347013D01*
X128303765Y-83165000D01*
X129032000Y-83165000D01*
X129510354Y-83069849D01*
X129915883Y-82798883D01*
X130438767Y-82276000D01*
X132969000Y-82276000D01*
X133447354Y-82180849D01*
X133852883Y-81909883D01*
X134821640Y-80941126D01*
X135263639Y-80853207D01*
X135782717Y-80506371D01*
X136129553Y-79987293D01*
X136251346Y-79375000D01*
X136146320Y-78847000D01*
X139192000Y-78847000D01*
X139670354Y-78751849D01*
X140075883Y-78480883D01*
X141218883Y-77337884D01*
X141355000Y-77134170D01*
X141355000Y-83140000D01*
X129497144Y-83140000D01*
X129497144Y-85475000D01*
X108835000Y-85475000D01*
X108835000Y-77147441D01*
X110106943Y-77147441D01*
X110352341Y-77756255D01*
X110370182Y-77782958D01*
X110668235Y-77856054D01*
X111689289Y-76835000D01*
X111830711Y-76835000D01*
X112851765Y-77856054D01*
X113149818Y-77782958D01*
X113406792Y-77178939D01*
X113413057Y-76522559D01*
X113167659Y-75913745D01*
X113149818Y-75887042D01*
X112851765Y-75813946D01*
X111830711Y-76835000D01*
X111689289Y-76835000D01*
X110668235Y-75813946D01*
X110370182Y-75887042D01*
X110113208Y-76491061D01*
X110106943Y-77147441D01*
X108835000Y-77147441D01*
X108835000Y-64385000D01*
X141355000Y-64385000D01*
X141355000Y-69359899D01*
G36*
X131124756Y-73025000D02*
X130917283Y-73163629D01*
X130570447Y-73682707D01*
X130448654Y-74295000D01*
X130570447Y-74907293D01*
X130917283Y-75426371D01*
X131124756Y-75565000D01*
X131094824Y-75585000D01*
X130810000Y-75585000D01*
X130411010Y-75664365D01*
X130331645Y-75680151D01*
X129926116Y-75951117D01*
X128853692Y-77023542D01*
X128761582Y-76885000D01*
X127050000Y-76885000D01*
X127050000Y-76905000D01*
X126950000Y-76905000D01*
X126950000Y-76885000D01*
X126930000Y-76885000D01*
X126930000Y-76785000D01*
X126950000Y-76785000D01*
X126950000Y-76765000D01*
X127050000Y-76765000D01*
X127050000Y-76785000D01*
X128761582Y-76785000D01*
X128922298Y-76543268D01*
X128851148Y-76288035D01*
X128531371Y-75774340D01*
X128255786Y-75577058D01*
X128534219Y-75391016D01*
X128597788Y-75295878D01*
X128772883Y-75178883D01*
X130946767Y-73005000D01*
X131094824Y-73005000D01*
X131124756Y-73025000D01*
X131124756Y-73025000D01*
G37*
X131124756Y-73025000D02*
X130917283Y-73163629D01*
X130570447Y-73682707D01*
X130448654Y-74295000D01*
X130570447Y-74907293D01*
X130917283Y-75426371D01*
X131124756Y-75565000D01*
X131094824Y-75585000D01*
X130810000Y-75585000D01*
X130411010Y-75664365D01*
X130331645Y-75680151D01*
X129926116Y-75951117D01*
X128853692Y-77023542D01*
X128761582Y-76885000D01*
X127050000Y-76885000D01*
X127050000Y-76905000D01*
X126950000Y-76905000D01*
X126950000Y-76885000D01*
X126930000Y-76885000D01*
X126930000Y-76785000D01*
X126950000Y-76785000D01*
X126950000Y-76765000D01*
X127050000Y-76765000D01*
X127050000Y-76785000D01*
X128761582Y-76785000D01*
X128922298Y-76543268D01*
X128851148Y-76288035D01*
X128531371Y-75774340D01*
X128255786Y-75577058D01*
X128534219Y-75391016D01*
X128597788Y-75295878D01*
X128772883Y-75178883D01*
X130946767Y-73005000D01*
X131094824Y-73005000D01*
X131124756Y-73025000D01*
G36*
X134670000Y-71705000D02*
X134690000Y-71705000D01*
X134690000Y-71805000D01*
X134670000Y-71805000D01*
X134670000Y-71825000D01*
X134570000Y-71825000D01*
X134570000Y-71805000D01*
X134550000Y-71805000D01*
X134550000Y-71705000D01*
X134570000Y-71705000D01*
X134570000Y-71685000D01*
X134670000Y-71685000D01*
X134670000Y-71705000D01*
X134670000Y-71705000D01*
G37*
X134670000Y-71705000D02*
X134690000Y-71705000D01*
X134690000Y-71805000D01*
X134670000Y-71805000D01*
X134670000Y-71825000D01*
X134570000Y-71825000D01*
X134570000Y-71805000D01*
X134550000Y-71805000D01*
X134550000Y-71705000D01*
X134570000Y-71705000D01*
X134570000Y-71685000D01*
X134670000Y-71685000D01*
X134670000Y-71705000D01*
G36*
X175645000Y-112145000D02*
X156252856Y-112145000D01*
X156252856Y-109810000D01*
X144395000Y-109810000D01*
X144395000Y-102547441D01*
X146301943Y-102547441D01*
X146547341Y-103156255D01*
X146565182Y-103182958D01*
X146863235Y-103256054D01*
X147884289Y-102235000D01*
X148025711Y-102235000D01*
X149046765Y-103256054D01*
X149344818Y-103182958D01*
X149601792Y-102578939D01*
X149608057Y-101922559D01*
X149362659Y-101313745D01*
X149344818Y-101287042D01*
X149046765Y-101213946D01*
X148025711Y-102235000D01*
X147884289Y-102235000D01*
X146863235Y-101213946D01*
X146565182Y-101287042D01*
X146308208Y-101891061D01*
X146301943Y-102547441D01*
X144395000Y-102547441D01*
X144395000Y-90805000D01*
X144800000Y-90805000D01*
X144800000Y-99060000D01*
X144861312Y-99368235D01*
X144895151Y-99538354D01*
X145166117Y-99943883D01*
X145801117Y-100578884D01*
X146206646Y-100849849D01*
X146685000Y-100945000D01*
X146871402Y-100945000D01*
X146960639Y-101034393D01*
X146933946Y-101143235D01*
X147955000Y-102164289D01*
X148976054Y-101143235D01*
X148949242Y-101033910D01*
X149038307Y-100945000D01*
X151731235Y-100945000D01*
X151779214Y-100977058D01*
X151503629Y-101174340D01*
X151183852Y-101688035D01*
X151112702Y-101943268D01*
X151273418Y-102185000D01*
X152985000Y-102185000D01*
X152985000Y-102165000D01*
X153085000Y-102165000D01*
X153085000Y-102185000D01*
X153105000Y-102185000D01*
X153105000Y-102285000D01*
X153085000Y-102285000D01*
X153085000Y-102305000D01*
X152985000Y-102305000D01*
X152985000Y-102285000D01*
X151273418Y-102285000D01*
X151112702Y-102526732D01*
X151183852Y-102781965D01*
X151503629Y-103295660D01*
X151779214Y-103492942D01*
X151731235Y-103525000D01*
X149038598Y-103525000D01*
X148949361Y-103435607D01*
X148976054Y-103326765D01*
X147955000Y-102305711D01*
X146933946Y-103326765D01*
X146960758Y-103436090D01*
X146557014Y-103839130D01*
X146305287Y-104445355D01*
X146304715Y-105101765D01*
X146555383Y-105708429D01*
X146891547Y-106045180D01*
X146557014Y-106379130D01*
X146305287Y-106985355D01*
X146304715Y-107641765D01*
X146555383Y-108248429D01*
X147019130Y-108712986D01*
X147625355Y-108964713D01*
X148281765Y-108965285D01*
X148888429Y-108714617D01*
X149038307Y-108565000D01*
X151731235Y-108565000D01*
X152003638Y-108747013D01*
X152596797Y-108865000D01*
X153473203Y-108865000D01*
X154066362Y-108747013D01*
X154569219Y-108411016D01*
X154905216Y-107908159D01*
X155023203Y-107315000D01*
X154905216Y-106721841D01*
X154569219Y-106218984D01*
X154308833Y-106045000D01*
X154569219Y-105871016D01*
X154905216Y-105368159D01*
X155023203Y-104775000D01*
X154905216Y-104181841D01*
X154580835Y-103696369D01*
X154625815Y-103715000D01*
X155337500Y-103715000D01*
X155525000Y-103527500D01*
X155525000Y-102515000D01*
X155625000Y-102515000D01*
X155625000Y-103527500D01*
X155812500Y-103715000D01*
X156524185Y-103715000D01*
X156799841Y-103600819D01*
X157010819Y-103389841D01*
X157125000Y-103114184D01*
X157125000Y-102702500D01*
X159105000Y-102702500D01*
X159105000Y-103114184D01*
X159219181Y-103389841D01*
X159430159Y-103600819D01*
X159705815Y-103715000D01*
X160417500Y-103715000D01*
X160605000Y-103527500D01*
X160605000Y-102515000D01*
X159292500Y-102515000D01*
X159105000Y-102702500D01*
X157125000Y-102702500D01*
X156937500Y-102515000D01*
X155625000Y-102515000D01*
X155525000Y-102515000D01*
X155505000Y-102515000D01*
X155505000Y-102415000D01*
X155525000Y-102415000D01*
X155525000Y-101402500D01*
X155625000Y-101402500D01*
X155625000Y-102415000D01*
X156937500Y-102415000D01*
X157125000Y-102227500D01*
X157125000Y-101815816D01*
X159105000Y-101815816D01*
X159105000Y-102227500D01*
X159292500Y-102415000D01*
X160605000Y-102415000D01*
X160605000Y-101402500D01*
X160417500Y-101215000D01*
X159705815Y-101215000D01*
X159430159Y-101329181D01*
X159219181Y-101540159D01*
X159105000Y-101815816D01*
X157125000Y-101815816D01*
X157010819Y-101540159D01*
X156799841Y-101329181D01*
X156524185Y-101215000D01*
X155812500Y-101215000D01*
X155625000Y-101402500D01*
X155525000Y-101402500D01*
X155337500Y-101215000D01*
X154625815Y-101215000D01*
X154598679Y-101226240D01*
X154566371Y-101174340D01*
X154290786Y-100977058D01*
X154569219Y-100791016D01*
X154620011Y-100715000D01*
X154702444Y-100715000D01*
X154775000Y-100729693D01*
X156375000Y-100729693D01*
X156652933Y-100677396D01*
X156908198Y-100513138D01*
X157079446Y-100262508D01*
X157139693Y-99965000D01*
X157139693Y-98965000D01*
X157087396Y-98687067D01*
X156923138Y-98431802D01*
X156672508Y-98260554D01*
X156375000Y-98200307D01*
X154775000Y-98200307D01*
X154696914Y-98215000D01*
X154593284Y-98215000D01*
X154905216Y-97748159D01*
X155023203Y-97155000D01*
X154905216Y-96561841D01*
X154584262Y-96081497D01*
X154768198Y-95963138D01*
X154939446Y-95712508D01*
X154999693Y-95415000D01*
X154999693Y-93815000D01*
X154947396Y-93537067D01*
X154810935Y-93325000D01*
X156962234Y-93325000D01*
X159405000Y-95767767D01*
X159405000Y-98363326D01*
X159321802Y-98416862D01*
X159150554Y-98667492D01*
X159090307Y-98965000D01*
X159090307Y-99965000D01*
X159142604Y-100242933D01*
X159306862Y-100498198D01*
X159557492Y-100669446D01*
X159855000Y-100729693D01*
X161455000Y-100729693D01*
X161533086Y-100715000D01*
X161609989Y-100715000D01*
X161660781Y-100791016D01*
X161939214Y-100977058D01*
X161663629Y-101174340D01*
X161631321Y-101226240D01*
X161604185Y-101215000D01*
X160892500Y-101215000D01*
X160705000Y-101402500D01*
X160705000Y-102415000D01*
X160725000Y-102415000D01*
X160725000Y-102515000D01*
X160705000Y-102515000D01*
X160705000Y-103527500D01*
X160892500Y-103715000D01*
X161604185Y-103715000D01*
X161649165Y-103696369D01*
X161324784Y-104181841D01*
X161206797Y-104775000D01*
X161324784Y-105368159D01*
X161660781Y-105871016D01*
X161921167Y-106045000D01*
X161660781Y-106218984D01*
X161324784Y-106721841D01*
X161206797Y-107315000D01*
X161324784Y-107908159D01*
X161660781Y-108411016D01*
X162163638Y-108747013D01*
X162756797Y-108865000D01*
X163633203Y-108865000D01*
X164226362Y-108747013D01*
X164498765Y-108565000D01*
X165100000Y-108565000D01*
X165578354Y-108469849D01*
X165983883Y-108198883D01*
X166887767Y-107295000D01*
X167924824Y-107295000D01*
X168266361Y-107523207D01*
X168878654Y-107645000D01*
X168941346Y-107645000D01*
X169553639Y-107523207D01*
X170072717Y-107176371D01*
X170180000Y-107015810D01*
X170287283Y-107176371D01*
X170806361Y-107523207D01*
X171418654Y-107645000D01*
X171481346Y-107645000D01*
X172093639Y-107523207D01*
X172612717Y-107176371D01*
X172959553Y-106657293D01*
X173081346Y-106045000D01*
X172959553Y-105432707D01*
X172612717Y-104913629D01*
X172405244Y-104775000D01*
X172612717Y-104636371D01*
X172959553Y-104117293D01*
X173081346Y-103505000D01*
X172959553Y-102892707D01*
X172612717Y-102373629D01*
X172405244Y-102235000D01*
X172612717Y-102096371D01*
X172959553Y-101577293D01*
X173081346Y-100965000D01*
X172959553Y-100352707D01*
X172612717Y-99833629D01*
X172405244Y-99695000D01*
X172612717Y-99556371D01*
X172959553Y-99037293D01*
X173081346Y-98425000D01*
X172959553Y-97812707D01*
X172674109Y-97385509D01*
X172833198Y-97283138D01*
X173004446Y-97032508D01*
X173064693Y-96735000D01*
X173064693Y-95035000D01*
X173012396Y-94757067D01*
X172848138Y-94501802D01*
X172700000Y-94400584D01*
X172700000Y-93980000D01*
X172604849Y-93501646D01*
X172451744Y-93272508D01*
X172333883Y-93096116D01*
X171063883Y-91826117D01*
X170658354Y-91555151D01*
X170180000Y-91460000D01*
X161807767Y-91460000D01*
X159633883Y-89286117D01*
X159228354Y-89015151D01*
X158750000Y-88920000D01*
X146685000Y-88920000D01*
X146206646Y-89015151D01*
X145801117Y-89286116D01*
X145166117Y-89921117D01*
X144895151Y-90326646D01*
X144800000Y-90805000D01*
X144395000Y-90805000D01*
X144395000Y-88515000D01*
X175645000Y-88515000D01*
X175645000Y-112145000D01*
X175645000Y-112145000D01*
G37*
X175645000Y-112145000D02*
X156252856Y-112145000D01*
X156252856Y-109810000D01*
X144395000Y-109810000D01*
X144395000Y-102547441D01*
X146301943Y-102547441D01*
X146547341Y-103156255D01*
X146565182Y-103182958D01*
X146863235Y-103256054D01*
X147884289Y-102235000D01*
X148025711Y-102235000D01*
X149046765Y-103256054D01*
X149344818Y-103182958D01*
X149601792Y-102578939D01*
X149608057Y-101922559D01*
X149362659Y-101313745D01*
X149344818Y-101287042D01*
X149046765Y-101213946D01*
X148025711Y-102235000D01*
X147884289Y-102235000D01*
X146863235Y-101213946D01*
X146565182Y-101287042D01*
X146308208Y-101891061D01*
X146301943Y-102547441D01*
X144395000Y-102547441D01*
X144395000Y-90805000D01*
X144800000Y-90805000D01*
X144800000Y-99060000D01*
X144861312Y-99368235D01*
X144895151Y-99538354D01*
X145166117Y-99943883D01*
X145801117Y-100578884D01*
X146206646Y-100849849D01*
X146685000Y-100945000D01*
X146871402Y-100945000D01*
X146960639Y-101034393D01*
X146933946Y-101143235D01*
X147955000Y-102164289D01*
X148976054Y-101143235D01*
X148949242Y-101033910D01*
X149038307Y-100945000D01*
X151731235Y-100945000D01*
X151779214Y-100977058D01*
X151503629Y-101174340D01*
X151183852Y-101688035D01*
X151112702Y-101943268D01*
X151273418Y-102185000D01*
X152985000Y-102185000D01*
X152985000Y-102165000D01*
X153085000Y-102165000D01*
X153085000Y-102185000D01*
X153105000Y-102185000D01*
X153105000Y-102285000D01*
X153085000Y-102285000D01*
X153085000Y-102305000D01*
X152985000Y-102305000D01*
X152985000Y-102285000D01*
X151273418Y-102285000D01*
X151112702Y-102526732D01*
X151183852Y-102781965D01*
X151503629Y-103295660D01*
X151779214Y-103492942D01*
X151731235Y-103525000D01*
X149038598Y-103525000D01*
X148949361Y-103435607D01*
X148976054Y-103326765D01*
X147955000Y-102305711D01*
X146933946Y-103326765D01*
X146960758Y-103436090D01*
X146557014Y-103839130D01*
X146305287Y-104445355D01*
X146304715Y-105101765D01*
X146555383Y-105708429D01*
X146891547Y-106045180D01*
X146557014Y-106379130D01*
X146305287Y-106985355D01*
X146304715Y-107641765D01*
X146555383Y-108248429D01*
X147019130Y-108712986D01*
X147625355Y-108964713D01*
X148281765Y-108965285D01*
X148888429Y-108714617D01*
X149038307Y-108565000D01*
X151731235Y-108565000D01*
X152003638Y-108747013D01*
X152596797Y-108865000D01*
X153473203Y-108865000D01*
X154066362Y-108747013D01*
X154569219Y-108411016D01*
X154905216Y-107908159D01*
X155023203Y-107315000D01*
X154905216Y-106721841D01*
X154569219Y-106218984D01*
X154308833Y-106045000D01*
X154569219Y-105871016D01*
X154905216Y-105368159D01*
X155023203Y-104775000D01*
X154905216Y-104181841D01*
X154580835Y-103696369D01*
X154625815Y-103715000D01*
X155337500Y-103715000D01*
X155525000Y-103527500D01*
X155525000Y-102515000D01*
X155625000Y-102515000D01*
X155625000Y-103527500D01*
X155812500Y-103715000D01*
X156524185Y-103715000D01*
X156799841Y-103600819D01*
X157010819Y-103389841D01*
X157125000Y-103114184D01*
X157125000Y-102702500D01*
X159105000Y-102702500D01*
X159105000Y-103114184D01*
X159219181Y-103389841D01*
X159430159Y-103600819D01*
X159705815Y-103715000D01*
X160417500Y-103715000D01*
X160605000Y-103527500D01*
X160605000Y-102515000D01*
X159292500Y-102515000D01*
X159105000Y-102702500D01*
X157125000Y-102702500D01*
X156937500Y-102515000D01*
X155625000Y-102515000D01*
X155525000Y-102515000D01*
X155505000Y-102515000D01*
X155505000Y-102415000D01*
X155525000Y-102415000D01*
X155525000Y-101402500D01*
X155625000Y-101402500D01*
X155625000Y-102415000D01*
X156937500Y-102415000D01*
X157125000Y-102227500D01*
X157125000Y-101815816D01*
X159105000Y-101815816D01*
X159105000Y-102227500D01*
X159292500Y-102415000D01*
X160605000Y-102415000D01*
X160605000Y-101402500D01*
X160417500Y-101215000D01*
X159705815Y-101215000D01*
X159430159Y-101329181D01*
X159219181Y-101540159D01*
X159105000Y-101815816D01*
X157125000Y-101815816D01*
X157010819Y-101540159D01*
X156799841Y-101329181D01*
X156524185Y-101215000D01*
X155812500Y-101215000D01*
X155625000Y-101402500D01*
X155525000Y-101402500D01*
X155337500Y-101215000D01*
X154625815Y-101215000D01*
X154598679Y-101226240D01*
X154566371Y-101174340D01*
X154290786Y-100977058D01*
X154569219Y-100791016D01*
X154620011Y-100715000D01*
X154702444Y-100715000D01*
X154775000Y-100729693D01*
X156375000Y-100729693D01*
X156652933Y-100677396D01*
X156908198Y-100513138D01*
X157079446Y-100262508D01*
X157139693Y-99965000D01*
X157139693Y-98965000D01*
X157087396Y-98687067D01*
X156923138Y-98431802D01*
X156672508Y-98260554D01*
X156375000Y-98200307D01*
X154775000Y-98200307D01*
X154696914Y-98215000D01*
X154593284Y-98215000D01*
X154905216Y-97748159D01*
X155023203Y-97155000D01*
X154905216Y-96561841D01*
X154584262Y-96081497D01*
X154768198Y-95963138D01*
X154939446Y-95712508D01*
X154999693Y-95415000D01*
X154999693Y-93815000D01*
X154947396Y-93537067D01*
X154810935Y-93325000D01*
X156962234Y-93325000D01*
X159405000Y-95767767D01*
X159405000Y-98363326D01*
X159321802Y-98416862D01*
X159150554Y-98667492D01*
X159090307Y-98965000D01*
X159090307Y-99965000D01*
X159142604Y-100242933D01*
X159306862Y-100498198D01*
X159557492Y-100669446D01*
X159855000Y-100729693D01*
X161455000Y-100729693D01*
X161533086Y-100715000D01*
X161609989Y-100715000D01*
X161660781Y-100791016D01*
X161939214Y-100977058D01*
X161663629Y-101174340D01*
X161631321Y-101226240D01*
X161604185Y-101215000D01*
X160892500Y-101215000D01*
X160705000Y-101402500D01*
X160705000Y-102415000D01*
X160725000Y-102415000D01*
X160725000Y-102515000D01*
X160705000Y-102515000D01*
X160705000Y-103527500D01*
X160892500Y-103715000D01*
X161604185Y-103715000D01*
X161649165Y-103696369D01*
X161324784Y-104181841D01*
X161206797Y-104775000D01*
X161324784Y-105368159D01*
X161660781Y-105871016D01*
X161921167Y-106045000D01*
X161660781Y-106218984D01*
X161324784Y-106721841D01*
X161206797Y-107315000D01*
X161324784Y-107908159D01*
X161660781Y-108411016D01*
X162163638Y-108747013D01*
X162756797Y-108865000D01*
X163633203Y-108865000D01*
X164226362Y-108747013D01*
X164498765Y-108565000D01*
X165100000Y-108565000D01*
X165578354Y-108469849D01*
X165983883Y-108198883D01*
X166887767Y-107295000D01*
X167924824Y-107295000D01*
X168266361Y-107523207D01*
X168878654Y-107645000D01*
X168941346Y-107645000D01*
X169553639Y-107523207D01*
X170072717Y-107176371D01*
X170180000Y-107015810D01*
X170287283Y-107176371D01*
X170806361Y-107523207D01*
X171418654Y-107645000D01*
X171481346Y-107645000D01*
X172093639Y-107523207D01*
X172612717Y-107176371D01*
X172959553Y-106657293D01*
X173081346Y-106045000D01*
X172959553Y-105432707D01*
X172612717Y-104913629D01*
X172405244Y-104775000D01*
X172612717Y-104636371D01*
X172959553Y-104117293D01*
X173081346Y-103505000D01*
X172959553Y-102892707D01*
X172612717Y-102373629D01*
X172405244Y-102235000D01*
X172612717Y-102096371D01*
X172959553Y-101577293D01*
X173081346Y-100965000D01*
X172959553Y-100352707D01*
X172612717Y-99833629D01*
X172405244Y-99695000D01*
X172612717Y-99556371D01*
X172959553Y-99037293D01*
X173081346Y-98425000D01*
X172959553Y-97812707D01*
X172674109Y-97385509D01*
X172833198Y-97283138D01*
X173004446Y-97032508D01*
X173064693Y-96735000D01*
X173064693Y-95035000D01*
X173012396Y-94757067D01*
X172848138Y-94501802D01*
X172700000Y-94400584D01*
X172700000Y-93980000D01*
X172604849Y-93501646D01*
X172451744Y-93272508D01*
X172333883Y-93096116D01*
X171063883Y-91826117D01*
X170658354Y-91555151D01*
X170180000Y-91460000D01*
X161807767Y-91460000D01*
X159633883Y-89286117D01*
X159228354Y-89015151D01*
X158750000Y-88920000D01*
X146685000Y-88920000D01*
X146206646Y-89015151D01*
X145801117Y-89286116D01*
X145166117Y-89921117D01*
X144895151Y-90326646D01*
X144800000Y-90805000D01*
X144395000Y-90805000D01*
X144395000Y-88515000D01*
X175645000Y-88515000D01*
X175645000Y-112145000D01*
G36*
X165486116Y-99308883D02*
X165574943Y-99368235D01*
X165891646Y-99579849D01*
X166370000Y-99675000D01*
X167924824Y-99675000D01*
X167959816Y-99698381D01*
X167586813Y-100065452D01*
X167343292Y-100640288D01*
X167338292Y-100665443D01*
X167498385Y-100915000D01*
X168860000Y-100915000D01*
X168860000Y-100895000D01*
X168960000Y-100895000D01*
X168960000Y-100915000D01*
X168980000Y-100915000D01*
X168980000Y-101015000D01*
X168960000Y-101015000D01*
X168960000Y-101035000D01*
X168860000Y-101035000D01*
X168860000Y-101015000D01*
X167498385Y-101015000D01*
X167338292Y-101264557D01*
X167343292Y-101289712D01*
X167586813Y-101864548D01*
X167959816Y-102231619D01*
X167924824Y-102255000D01*
X166370000Y-102255000D01*
X165891646Y-102350151D01*
X165486116Y-102621117D01*
X164582234Y-103525000D01*
X164498765Y-103525000D01*
X164450786Y-103492942D01*
X164726371Y-103295660D01*
X165046148Y-102781965D01*
X165117298Y-102526732D01*
X164956582Y-102285000D01*
X163245000Y-102285000D01*
X163245000Y-102305000D01*
X163145000Y-102305000D01*
X163145000Y-102285000D01*
X163125000Y-102285000D01*
X163125000Y-102185000D01*
X163145000Y-102185000D01*
X163145000Y-102165000D01*
X163245000Y-102165000D01*
X163245000Y-102185000D01*
X164956582Y-102185000D01*
X165117298Y-101943268D01*
X165046148Y-101688035D01*
X164726371Y-101174340D01*
X164450786Y-100977058D01*
X164729219Y-100791016D01*
X165065216Y-100288159D01*
X165183203Y-99695000D01*
X165065216Y-99101841D01*
X164729219Y-98598984D01*
X164468833Y-98425000D01*
X164498765Y-98405000D01*
X164582234Y-98405000D01*
X165486116Y-99308883D01*
X165486116Y-99308883D01*
G37*
X165486116Y-99308883D02*
X165574943Y-99368235D01*
X165891646Y-99579849D01*
X166370000Y-99675000D01*
X167924824Y-99675000D01*
X167959816Y-99698381D01*
X167586813Y-100065452D01*
X167343292Y-100640288D01*
X167338292Y-100665443D01*
X167498385Y-100915000D01*
X168860000Y-100915000D01*
X168860000Y-100895000D01*
X168960000Y-100895000D01*
X168960000Y-100915000D01*
X168980000Y-100915000D01*
X168980000Y-101015000D01*
X168960000Y-101015000D01*
X168960000Y-101035000D01*
X168860000Y-101035000D01*
X168860000Y-101015000D01*
X167498385Y-101015000D01*
X167338292Y-101264557D01*
X167343292Y-101289712D01*
X167586813Y-101864548D01*
X167959816Y-102231619D01*
X167924824Y-102255000D01*
X166370000Y-102255000D01*
X165891646Y-102350151D01*
X165486116Y-102621117D01*
X164582234Y-103525000D01*
X164498765Y-103525000D01*
X164450786Y-103492942D01*
X164726371Y-103295660D01*
X165046148Y-102781965D01*
X165117298Y-102526732D01*
X164956582Y-102285000D01*
X163245000Y-102285000D01*
X163245000Y-102305000D01*
X163145000Y-102305000D01*
X163145000Y-102285000D01*
X163125000Y-102285000D01*
X163125000Y-102185000D01*
X163145000Y-102185000D01*
X163145000Y-102165000D01*
X163245000Y-102165000D01*
X163245000Y-102185000D01*
X164956582Y-102185000D01*
X165117298Y-101943268D01*
X165046148Y-101688035D01*
X164726371Y-101174340D01*
X164450786Y-100977058D01*
X164729219Y-100791016D01*
X165065216Y-100288159D01*
X165183203Y-99695000D01*
X165065216Y-99101841D01*
X164729219Y-98598984D01*
X164468833Y-98425000D01*
X164498765Y-98405000D01*
X164582234Y-98405000D01*
X165486116Y-99308883D01*
G36*
X141355000Y-112145000D02*
X116644999Y-112145000D01*
X116644999Y-109810000D01*
X108835000Y-109810000D01*
X108835000Y-101912441D01*
X110106943Y-101912441D01*
X110352341Y-102521255D01*
X110370182Y-102547958D01*
X110668235Y-102621054D01*
X111689289Y-101600000D01*
X111830711Y-101600000D01*
X112851765Y-102621054D01*
X113149818Y-102547958D01*
X113406792Y-101943939D01*
X113413057Y-101287559D01*
X113167659Y-100678745D01*
X113149818Y-100652042D01*
X112851765Y-100578946D01*
X111830711Y-101600000D01*
X111689289Y-101600000D01*
X110668235Y-100578946D01*
X110370182Y-100652042D01*
X110113208Y-101256061D01*
X110106943Y-101912441D01*
X108835000Y-101912441D01*
X108835000Y-90540000D01*
X110095307Y-90540000D01*
X110095307Y-92340000D01*
X110147604Y-92617933D01*
X110311862Y-92873198D01*
X110443288Y-92962998D01*
X110362014Y-93044130D01*
X110110287Y-93650355D01*
X110109715Y-94306765D01*
X110360383Y-94913429D01*
X110696547Y-95250180D01*
X110362014Y-95584130D01*
X110110287Y-96190355D01*
X110109715Y-96846765D01*
X110360383Y-97453429D01*
X110696547Y-97790180D01*
X110362014Y-98124130D01*
X110110287Y-98730355D01*
X110109715Y-99386765D01*
X110360383Y-99993429D01*
X110765639Y-100399393D01*
X110738946Y-100508235D01*
X111760000Y-101529289D01*
X112781054Y-100508235D01*
X112754242Y-100398910D01*
X112843307Y-100310000D01*
X115536235Y-100310000D01*
X115584214Y-100342058D01*
X115308629Y-100539340D01*
X114988852Y-101053035D01*
X114917702Y-101308268D01*
X115078418Y-101550000D01*
X116790000Y-101550000D01*
X116790000Y-101530000D01*
X116890000Y-101530000D01*
X116890000Y-101550000D01*
X116910000Y-101550000D01*
X116910000Y-101650000D01*
X116890000Y-101650000D01*
X116890000Y-101670000D01*
X116790000Y-101670000D01*
X116790000Y-101650000D01*
X115078418Y-101650000D01*
X114917702Y-101891732D01*
X114988852Y-102146965D01*
X115308629Y-102660660D01*
X115584214Y-102857942D01*
X115536235Y-102890000D01*
X112843598Y-102890000D01*
X112754361Y-102800607D01*
X112781054Y-102691765D01*
X111760000Y-101670711D01*
X110738946Y-102691765D01*
X110765758Y-102801090D01*
X110362014Y-103204130D01*
X110110287Y-103810355D01*
X110109715Y-104466765D01*
X110360383Y-105073429D01*
X110696547Y-105410180D01*
X110362014Y-105744130D01*
X110110287Y-106350355D01*
X110109715Y-107006765D01*
X110360383Y-107613429D01*
X110824130Y-108077986D01*
X111430355Y-108329713D01*
X112086765Y-108330285D01*
X112693429Y-108079617D01*
X112843307Y-107930000D01*
X115536235Y-107930000D01*
X115808638Y-108112013D01*
X116401797Y-108230000D01*
X117278203Y-108230000D01*
X117871362Y-108112013D01*
X118374219Y-107776016D01*
X118710216Y-107273159D01*
X118828203Y-106680000D01*
X118710216Y-106086841D01*
X118374219Y-105583984D01*
X118113833Y-105410000D01*
X118374219Y-105236016D01*
X118710216Y-104733159D01*
X118828203Y-104140000D01*
X118710216Y-103546841D01*
X118385835Y-103061369D01*
X118430815Y-103080000D01*
X119142500Y-103080000D01*
X119330000Y-102892500D01*
X119330000Y-101880000D01*
X119430000Y-101880000D01*
X119430000Y-102892500D01*
X119617500Y-103080000D01*
X120329185Y-103080000D01*
X120604841Y-102965819D01*
X120815819Y-102754841D01*
X120930000Y-102479184D01*
X120930000Y-102067500D01*
X122910000Y-102067500D01*
X122910000Y-102479184D01*
X123024181Y-102754841D01*
X123235159Y-102965819D01*
X123510815Y-103080000D01*
X124222500Y-103080000D01*
X124410000Y-102892500D01*
X124410000Y-101880000D01*
X123097500Y-101880000D01*
X122910000Y-102067500D01*
X120930000Y-102067500D01*
X120742500Y-101880000D01*
X119430000Y-101880000D01*
X119330000Y-101880000D01*
X119310000Y-101880000D01*
X119310000Y-101780000D01*
X119330000Y-101780000D01*
X119330000Y-100767500D01*
X119430000Y-100767500D01*
X119430000Y-101780000D01*
X120742500Y-101780000D01*
X120930000Y-101592500D01*
X120930000Y-101180816D01*
X122910000Y-101180816D01*
X122910000Y-101592500D01*
X123097500Y-101780000D01*
X124410000Y-101780000D01*
X124410000Y-100767500D01*
X124222500Y-100580000D01*
X123510815Y-100580000D01*
X123235159Y-100694181D01*
X123024181Y-100905159D01*
X122910000Y-101180816D01*
X120930000Y-101180816D01*
X120815819Y-100905159D01*
X120604841Y-100694181D01*
X120329185Y-100580000D01*
X119617500Y-100580000D01*
X119430000Y-100767500D01*
X119330000Y-100767500D01*
X119142500Y-100580000D01*
X118430815Y-100580000D01*
X118403679Y-100591240D01*
X118371371Y-100539340D01*
X118095786Y-100342058D01*
X118374219Y-100156016D01*
X118425011Y-100080000D01*
X118507444Y-100080000D01*
X118580000Y-100094693D01*
X120180000Y-100094693D01*
X120457933Y-100042396D01*
X120713198Y-99878138D01*
X120884446Y-99627508D01*
X120944693Y-99330000D01*
X120944693Y-98330000D01*
X120892396Y-98052067D01*
X120728138Y-97796802D01*
X120477508Y-97625554D01*
X120180000Y-97565307D01*
X118580000Y-97565307D01*
X118501914Y-97580000D01*
X118398284Y-97580000D01*
X118710216Y-97113159D01*
X118828203Y-96520000D01*
X118710216Y-95926841D01*
X118389262Y-95446497D01*
X118573198Y-95328138D01*
X118744446Y-95077508D01*
X118804693Y-94780000D01*
X118804693Y-93180000D01*
X118752396Y-92902067D01*
X118615935Y-92690000D01*
X122672234Y-92690000D01*
X123210000Y-93227767D01*
X123210000Y-97728326D01*
X123126802Y-97781862D01*
X122955554Y-98032492D01*
X122895307Y-98330000D01*
X122895307Y-99330000D01*
X122947604Y-99607933D01*
X123111862Y-99863198D01*
X123362492Y-100034446D01*
X123660000Y-100094693D01*
X125260000Y-100094693D01*
X125338086Y-100080000D01*
X125414989Y-100080000D01*
X125465781Y-100156016D01*
X125744214Y-100342058D01*
X125468629Y-100539340D01*
X125436321Y-100591240D01*
X125409185Y-100580000D01*
X124697500Y-100580000D01*
X124510000Y-100767500D01*
X124510000Y-101780000D01*
X124530000Y-101780000D01*
X124530000Y-101880000D01*
X124510000Y-101880000D01*
X124510000Y-102892500D01*
X124697500Y-103080000D01*
X125409185Y-103080000D01*
X125454165Y-103061369D01*
X125129784Y-103546841D01*
X125011797Y-104140000D01*
X125129784Y-104733159D01*
X125465781Y-105236016D01*
X125726167Y-105410000D01*
X125465781Y-105583984D01*
X125129784Y-106086841D01*
X125011797Y-106680000D01*
X125129784Y-107273159D01*
X125465781Y-107776016D01*
X125968638Y-108112013D01*
X126561797Y-108230000D01*
X127438203Y-108230000D01*
X128031362Y-108112013D01*
X128303765Y-107930000D01*
X129540000Y-107930000D01*
X130018354Y-107834849D01*
X130423883Y-107563883D01*
X134233884Y-103753883D01*
X134397901Y-103508414D01*
X134727283Y-104001371D01*
X134934756Y-104140000D01*
X134727283Y-104278629D01*
X134380447Y-104797707D01*
X134258654Y-105410000D01*
X134380447Y-106022293D01*
X134640000Y-106410742D01*
X134640000Y-106949258D01*
X134380447Y-107337707D01*
X134258654Y-107950000D01*
X134380447Y-108562293D01*
X134727283Y-109081371D01*
X134934756Y-109220000D01*
X134727283Y-109358629D01*
X134380447Y-109877707D01*
X134258654Y-110490000D01*
X134380447Y-111102293D01*
X134727283Y-111621371D01*
X135246361Y-111968207D01*
X135858654Y-112090000D01*
X135921346Y-112090000D01*
X136533639Y-111968207D01*
X136875176Y-111740000D01*
X137160000Y-111740000D01*
X137638354Y-111644849D01*
X138043883Y-111373883D01*
X138678884Y-110738883D01*
X138949849Y-110333354D01*
X139045000Y-109855000D01*
X139045000Y-103505000D01*
X138949849Y-103026646D01*
X138909206Y-102965819D01*
X138678884Y-102621117D01*
X138043883Y-101986117D01*
X137638354Y-101715151D01*
X137160000Y-101620000D01*
X136875176Y-101620000D01*
X136845244Y-101600000D01*
X137052717Y-101461371D01*
X137399553Y-100942293D01*
X137521346Y-100330000D01*
X137399553Y-99717707D01*
X137052717Y-99198629D01*
X136845244Y-99060000D01*
X137052717Y-98921371D01*
X137399553Y-98402293D01*
X137521346Y-97790000D01*
X137399553Y-97177707D01*
X137052717Y-96658629D01*
X136840184Y-96516619D01*
X137213187Y-96149548D01*
X137456708Y-95574712D01*
X137461708Y-95549557D01*
X137301615Y-95300000D01*
X135940000Y-95300000D01*
X135940000Y-95320000D01*
X135840000Y-95320000D01*
X135840000Y-95300000D01*
X134478385Y-95300000D01*
X134318292Y-95549557D01*
X134323292Y-95574712D01*
X134566813Y-96149548D01*
X134939816Y-96516619D01*
X134904824Y-96540000D01*
X132715000Y-96540000D01*
X132236646Y-96635151D01*
X131831117Y-96906116D01*
X131196119Y-97541115D01*
X131196116Y-97541117D01*
X130243617Y-98493617D01*
X129972651Y-98899146D01*
X129877500Y-99377500D01*
X129877500Y-101399733D01*
X128387234Y-102890000D01*
X128303765Y-102890000D01*
X128255786Y-102857942D01*
X128531371Y-102660660D01*
X128851148Y-102146965D01*
X128922298Y-101891732D01*
X128761582Y-101650000D01*
X127050000Y-101650000D01*
X127050000Y-101670000D01*
X126950000Y-101670000D01*
X126950000Y-101650000D01*
X126930000Y-101650000D01*
X126930000Y-101550000D01*
X126950000Y-101550000D01*
X126950000Y-101530000D01*
X127050000Y-101530000D01*
X127050000Y-101550000D01*
X128761582Y-101550000D01*
X128922298Y-101308268D01*
X128851148Y-101053035D01*
X128531371Y-100539340D01*
X128255786Y-100342058D01*
X128534219Y-100156016D01*
X128870216Y-99653159D01*
X128988203Y-99060000D01*
X128870216Y-98466841D01*
X128534219Y-97963984D01*
X128273833Y-97790000D01*
X128534219Y-97616016D01*
X128870216Y-97113159D01*
X128988203Y-96520000D01*
X128870216Y-95926841D01*
X128534219Y-95423984D01*
X128273833Y-95250000D01*
X128534219Y-95076016D01*
X128870216Y-94573159D01*
X128988203Y-93980000D01*
X128984225Y-93960000D01*
X134904824Y-93960000D01*
X134939816Y-93983381D01*
X134566813Y-94350452D01*
X134323292Y-94925288D01*
X134318292Y-94950443D01*
X134478385Y-95200000D01*
X135840000Y-95200000D01*
X135840000Y-95180000D01*
X135940000Y-95180000D01*
X135940000Y-95200000D01*
X137301615Y-95200000D01*
X137461708Y-94950443D01*
X137456708Y-94925288D01*
X137213187Y-94350452D01*
X136840184Y-93983381D01*
X137052717Y-93841371D01*
X137399553Y-93322293D01*
X137521346Y-92710000D01*
X137399553Y-92097707D01*
X137114109Y-91670509D01*
X137273198Y-91568138D01*
X137444446Y-91317508D01*
X137504693Y-91020000D01*
X137504693Y-89320000D01*
X137452396Y-89042067D01*
X137288138Y-88786802D01*
X137037508Y-88615554D01*
X136740000Y-88555307D01*
X135040000Y-88555307D01*
X134762067Y-88607604D01*
X134506802Y-88771862D01*
X134405584Y-88920000D01*
X133985000Y-88920000D01*
X133506646Y-89015151D01*
X133101116Y-89286117D01*
X132197234Y-90190000D01*
X125730000Y-90190000D01*
X125251646Y-90285151D01*
X124846116Y-90556117D01*
X124460000Y-90942233D01*
X124073883Y-90556117D01*
X123668354Y-90285151D01*
X123190000Y-90190000D01*
X113326022Y-90190000D01*
X113208138Y-90006802D01*
X112957508Y-89835554D01*
X112660000Y-89775307D01*
X110860000Y-89775307D01*
X110582067Y-89827604D01*
X110326802Y-89991862D01*
X110155554Y-90242492D01*
X110095307Y-90540000D01*
X108835000Y-90540000D01*
X108835000Y-88515000D01*
X141355000Y-88515000D01*
X141355000Y-112145000D01*
X141355000Y-112145000D01*
G37*
X141355000Y-112145000D02*
X116644999Y-112145000D01*
X116644999Y-109810000D01*
X108835000Y-109810000D01*
X108835000Y-101912441D01*
X110106943Y-101912441D01*
X110352341Y-102521255D01*
X110370182Y-102547958D01*
X110668235Y-102621054D01*
X111689289Y-101600000D01*
X111830711Y-101600000D01*
X112851765Y-102621054D01*
X113149818Y-102547958D01*
X113406792Y-101943939D01*
X113413057Y-101287559D01*
X113167659Y-100678745D01*
X113149818Y-100652042D01*
X112851765Y-100578946D01*
X111830711Y-101600000D01*
X111689289Y-101600000D01*
X110668235Y-100578946D01*
X110370182Y-100652042D01*
X110113208Y-101256061D01*
X110106943Y-101912441D01*
X108835000Y-101912441D01*
X108835000Y-90540000D01*
X110095307Y-90540000D01*
X110095307Y-92340000D01*
X110147604Y-92617933D01*
X110311862Y-92873198D01*
X110443288Y-92962998D01*
X110362014Y-93044130D01*
X110110287Y-93650355D01*
X110109715Y-94306765D01*
X110360383Y-94913429D01*
X110696547Y-95250180D01*
X110362014Y-95584130D01*
X110110287Y-96190355D01*
X110109715Y-96846765D01*
X110360383Y-97453429D01*
X110696547Y-97790180D01*
X110362014Y-98124130D01*
X110110287Y-98730355D01*
X110109715Y-99386765D01*
X110360383Y-99993429D01*
X110765639Y-100399393D01*
X110738946Y-100508235D01*
X111760000Y-101529289D01*
X112781054Y-100508235D01*
X112754242Y-100398910D01*
X112843307Y-100310000D01*
X115536235Y-100310000D01*
X115584214Y-100342058D01*
X115308629Y-100539340D01*
X114988852Y-101053035D01*
X114917702Y-101308268D01*
X115078418Y-101550000D01*
X116790000Y-101550000D01*
X116790000Y-101530000D01*
X116890000Y-101530000D01*
X116890000Y-101550000D01*
X116910000Y-101550000D01*
X116910000Y-101650000D01*
X116890000Y-101650000D01*
X116890000Y-101670000D01*
X116790000Y-101670000D01*
X116790000Y-101650000D01*
X115078418Y-101650000D01*
X114917702Y-101891732D01*
X114988852Y-102146965D01*
X115308629Y-102660660D01*
X115584214Y-102857942D01*
X115536235Y-102890000D01*
X112843598Y-102890000D01*
X112754361Y-102800607D01*
X112781054Y-102691765D01*
X111760000Y-101670711D01*
X110738946Y-102691765D01*
X110765758Y-102801090D01*
X110362014Y-103204130D01*
X110110287Y-103810355D01*
X110109715Y-104466765D01*
X110360383Y-105073429D01*
X110696547Y-105410180D01*
X110362014Y-105744130D01*
X110110287Y-106350355D01*
X110109715Y-107006765D01*
X110360383Y-107613429D01*
X110824130Y-108077986D01*
X111430355Y-108329713D01*
X112086765Y-108330285D01*
X112693429Y-108079617D01*
X112843307Y-107930000D01*
X115536235Y-107930000D01*
X115808638Y-108112013D01*
X116401797Y-108230000D01*
X117278203Y-108230000D01*
X117871362Y-108112013D01*
X118374219Y-107776016D01*
X118710216Y-107273159D01*
X118828203Y-106680000D01*
X118710216Y-106086841D01*
X118374219Y-105583984D01*
X118113833Y-105410000D01*
X118374219Y-105236016D01*
X118710216Y-104733159D01*
X118828203Y-104140000D01*
X118710216Y-103546841D01*
X118385835Y-103061369D01*
X118430815Y-103080000D01*
X119142500Y-103080000D01*
X119330000Y-102892500D01*
X119330000Y-101880000D01*
X119430000Y-101880000D01*
X119430000Y-102892500D01*
X119617500Y-103080000D01*
X120329185Y-103080000D01*
X120604841Y-102965819D01*
X120815819Y-102754841D01*
X120930000Y-102479184D01*
X120930000Y-102067500D01*
X122910000Y-102067500D01*
X122910000Y-102479184D01*
X123024181Y-102754841D01*
X123235159Y-102965819D01*
X123510815Y-103080000D01*
X124222500Y-103080000D01*
X124410000Y-102892500D01*
X124410000Y-101880000D01*
X123097500Y-101880000D01*
X122910000Y-102067500D01*
X120930000Y-102067500D01*
X120742500Y-101880000D01*
X119430000Y-101880000D01*
X119330000Y-101880000D01*
X119310000Y-101880000D01*
X119310000Y-101780000D01*
X119330000Y-101780000D01*
X119330000Y-100767500D01*
X119430000Y-100767500D01*
X119430000Y-101780000D01*
X120742500Y-101780000D01*
X120930000Y-101592500D01*
X120930000Y-101180816D01*
X122910000Y-101180816D01*
X122910000Y-101592500D01*
X123097500Y-101780000D01*
X124410000Y-101780000D01*
X124410000Y-100767500D01*
X124222500Y-100580000D01*
X123510815Y-100580000D01*
X123235159Y-100694181D01*
X123024181Y-100905159D01*
X122910000Y-101180816D01*
X120930000Y-101180816D01*
X120815819Y-100905159D01*
X120604841Y-100694181D01*
X120329185Y-100580000D01*
X119617500Y-100580000D01*
X119430000Y-100767500D01*
X119330000Y-100767500D01*
X119142500Y-100580000D01*
X118430815Y-100580000D01*
X118403679Y-100591240D01*
X118371371Y-100539340D01*
X118095786Y-100342058D01*
X118374219Y-100156016D01*
X118425011Y-100080000D01*
X118507444Y-100080000D01*
X118580000Y-100094693D01*
X120180000Y-100094693D01*
X120457933Y-100042396D01*
X120713198Y-99878138D01*
X120884446Y-99627508D01*
X120944693Y-99330000D01*
X120944693Y-98330000D01*
X120892396Y-98052067D01*
X120728138Y-97796802D01*
X120477508Y-97625554D01*
X120180000Y-97565307D01*
X118580000Y-97565307D01*
X118501914Y-97580000D01*
X118398284Y-97580000D01*
X118710216Y-97113159D01*
X118828203Y-96520000D01*
X118710216Y-95926841D01*
X118389262Y-95446497D01*
X118573198Y-95328138D01*
X118744446Y-95077508D01*
X118804693Y-94780000D01*
X118804693Y-93180000D01*
X118752396Y-92902067D01*
X118615935Y-92690000D01*
X122672234Y-92690000D01*
X123210000Y-93227767D01*
X123210000Y-97728326D01*
X123126802Y-97781862D01*
X122955554Y-98032492D01*
X122895307Y-98330000D01*
X122895307Y-99330000D01*
X122947604Y-99607933D01*
X123111862Y-99863198D01*
X123362492Y-100034446D01*
X123660000Y-100094693D01*
X125260000Y-100094693D01*
X125338086Y-100080000D01*
X125414989Y-100080000D01*
X125465781Y-100156016D01*
X125744214Y-100342058D01*
X125468629Y-100539340D01*
X125436321Y-100591240D01*
X125409185Y-100580000D01*
X124697500Y-100580000D01*
X124510000Y-100767500D01*
X124510000Y-101780000D01*
X124530000Y-101780000D01*
X124530000Y-101880000D01*
X124510000Y-101880000D01*
X124510000Y-102892500D01*
X124697500Y-103080000D01*
X125409185Y-103080000D01*
X125454165Y-103061369D01*
X125129784Y-103546841D01*
X125011797Y-104140000D01*
X125129784Y-104733159D01*
X125465781Y-105236016D01*
X125726167Y-105410000D01*
X125465781Y-105583984D01*
X125129784Y-106086841D01*
X125011797Y-106680000D01*
X125129784Y-107273159D01*
X125465781Y-107776016D01*
X125968638Y-108112013D01*
X126561797Y-108230000D01*
X127438203Y-108230000D01*
X128031362Y-108112013D01*
X128303765Y-107930000D01*
X129540000Y-107930000D01*
X130018354Y-107834849D01*
X130423883Y-107563883D01*
X134233884Y-103753883D01*
X134397901Y-103508414D01*
X134727283Y-104001371D01*
X134934756Y-104140000D01*
X134727283Y-104278629D01*
X134380447Y-104797707D01*
X134258654Y-105410000D01*
X134380447Y-106022293D01*
X134640000Y-106410742D01*
X134640000Y-106949258D01*
X134380447Y-107337707D01*
X134258654Y-107950000D01*
X134380447Y-108562293D01*
X134727283Y-109081371D01*
X134934756Y-109220000D01*
X134727283Y-109358629D01*
X134380447Y-109877707D01*
X134258654Y-110490000D01*
X134380447Y-111102293D01*
X134727283Y-111621371D01*
X135246361Y-111968207D01*
X135858654Y-112090000D01*
X135921346Y-112090000D01*
X136533639Y-111968207D01*
X136875176Y-111740000D01*
X137160000Y-111740000D01*
X137638354Y-111644849D01*
X138043883Y-111373883D01*
X138678884Y-110738883D01*
X138949849Y-110333354D01*
X139045000Y-109855000D01*
X139045000Y-103505000D01*
X138949849Y-103026646D01*
X138909206Y-102965819D01*
X138678884Y-102621117D01*
X138043883Y-101986117D01*
X137638354Y-101715151D01*
X137160000Y-101620000D01*
X136875176Y-101620000D01*
X136845244Y-101600000D01*
X137052717Y-101461371D01*
X137399553Y-100942293D01*
X137521346Y-100330000D01*
X137399553Y-99717707D01*
X137052717Y-99198629D01*
X136845244Y-99060000D01*
X137052717Y-98921371D01*
X137399553Y-98402293D01*
X137521346Y-97790000D01*
X137399553Y-97177707D01*
X137052717Y-96658629D01*
X136840184Y-96516619D01*
X137213187Y-96149548D01*
X137456708Y-95574712D01*
X137461708Y-95549557D01*
X137301615Y-95300000D01*
X135940000Y-95300000D01*
X135940000Y-95320000D01*
X135840000Y-95320000D01*
X135840000Y-95300000D01*
X134478385Y-95300000D01*
X134318292Y-95549557D01*
X134323292Y-95574712D01*
X134566813Y-96149548D01*
X134939816Y-96516619D01*
X134904824Y-96540000D01*
X132715000Y-96540000D01*
X132236646Y-96635151D01*
X131831117Y-96906116D01*
X131196119Y-97541115D01*
X131196116Y-97541117D01*
X130243617Y-98493617D01*
X129972651Y-98899146D01*
X129877500Y-99377500D01*
X129877500Y-101399733D01*
X128387234Y-102890000D01*
X128303765Y-102890000D01*
X128255786Y-102857942D01*
X128531371Y-102660660D01*
X128851148Y-102146965D01*
X128922298Y-101891732D01*
X128761582Y-101650000D01*
X127050000Y-101650000D01*
X127050000Y-101670000D01*
X126950000Y-101670000D01*
X126950000Y-101650000D01*
X126930000Y-101650000D01*
X126930000Y-101550000D01*
X126950000Y-101550000D01*
X126950000Y-101530000D01*
X127050000Y-101530000D01*
X127050000Y-101550000D01*
X128761582Y-101550000D01*
X128922298Y-101308268D01*
X128851148Y-101053035D01*
X128531371Y-100539340D01*
X128255786Y-100342058D01*
X128534219Y-100156016D01*
X128870216Y-99653159D01*
X128988203Y-99060000D01*
X128870216Y-98466841D01*
X128534219Y-97963984D01*
X128273833Y-97790000D01*
X128534219Y-97616016D01*
X128870216Y-97113159D01*
X128988203Y-96520000D01*
X128870216Y-95926841D01*
X128534219Y-95423984D01*
X128273833Y-95250000D01*
X128534219Y-95076016D01*
X128870216Y-94573159D01*
X128988203Y-93980000D01*
X128984225Y-93960000D01*
X134904824Y-93960000D01*
X134939816Y-93983381D01*
X134566813Y-94350452D01*
X134323292Y-94925288D01*
X134318292Y-94950443D01*
X134478385Y-95200000D01*
X135840000Y-95200000D01*
X135840000Y-95180000D01*
X135940000Y-95180000D01*
X135940000Y-95200000D01*
X137301615Y-95200000D01*
X137461708Y-94950443D01*
X137456708Y-94925288D01*
X137213187Y-94350452D01*
X136840184Y-93983381D01*
X137052717Y-93841371D01*
X137399553Y-93322293D01*
X137521346Y-92710000D01*
X137399553Y-92097707D01*
X137114109Y-91670509D01*
X137273198Y-91568138D01*
X137444446Y-91317508D01*
X137504693Y-91020000D01*
X137504693Y-89320000D01*
X137452396Y-89042067D01*
X137288138Y-88786802D01*
X137037508Y-88615554D01*
X136740000Y-88555307D01*
X135040000Y-88555307D01*
X134762067Y-88607604D01*
X134506802Y-88771862D01*
X134405584Y-88920000D01*
X133985000Y-88920000D01*
X133506646Y-89015151D01*
X133101116Y-89286117D01*
X132197234Y-90190000D01*
X125730000Y-90190000D01*
X125251646Y-90285151D01*
X124846116Y-90556117D01*
X124460000Y-90942233D01*
X124073883Y-90556117D01*
X123668354Y-90285151D01*
X123190000Y-90190000D01*
X113326022Y-90190000D01*
X113208138Y-90006802D01*
X112957508Y-89835554D01*
X112660000Y-89775307D01*
X110860000Y-89775307D01*
X110582067Y-89827604D01*
X110326802Y-89991862D01*
X110155554Y-90242492D01*
X110095307Y-90540000D01*
X108835000Y-90540000D01*
X108835000Y-88515000D01*
X141355000Y-88515000D01*
X141355000Y-112145000D01*
M02*
