M48
;DRILL file {KiCad 4.0.7} date 09/07/18 14:23:29
;FORMAT={-:-/ absolute / metric / decimal}
FMAT,2
METRIC,TZ
T1C1.000
T2C1.100
%
G90
G05
M71
T1
X132.08Y-71.755
X132.08Y-74.295
X132.08Y-76.835
X132.08Y-79.375
X134.62Y-71.755
X134.62Y-74.295
X134.62Y-76.835
X134.62Y-79.375
X135.89Y-90.17
X135.89Y-92.71
X135.89Y-95.25
X135.89Y-97.79
X135.89Y-100.33
X135.89Y-102.87
X135.89Y-105.41
X135.89Y-107.95
X135.89Y-110.49
X168.91Y-95.885
X168.91Y-98.425
X168.91Y-100.965
X168.91Y-103.505
X168.91Y-106.045
X171.45Y-95.885
X171.45Y-98.425
X171.45Y-100.965
X171.45Y-103.505
X171.45Y-106.045
T2
X111.76Y-66.675
X111.76Y-69.215
X111.76Y-71.755
X111.76Y-74.295
X111.76Y-76.835
X111.76Y-79.375
X111.76Y-81.915
X111.76Y-91.44
X111.76Y-93.98
X111.76Y-96.52
X111.76Y-99.06
X111.76Y-101.6
X111.76Y-104.14
X111.76Y-106.68
X116.84Y-69.215
X116.84Y-71.755
X116.84Y-74.295
X116.84Y-76.835
X116.84Y-79.375
X116.84Y-81.915
X116.84Y-93.98
X116.84Y-96.52
X116.84Y-99.06
X116.84Y-101.6
X116.84Y-104.14
X116.84Y-106.68
X127.Y-69.215
X127.Y-71.755
X127.Y-74.295
X127.Y-76.835
X127.Y-79.375
X127.Y-81.915
X127.Y-93.98
X127.Y-96.52
X127.Y-99.06
X127.Y-101.6
X127.Y-104.14
X127.Y-106.68
X147.32Y-67.31
X147.32Y-69.85
X147.32Y-72.39
X147.32Y-74.93
X147.32Y-77.47
X147.32Y-80.01
X147.32Y-82.55
X147.955Y-92.075
X147.955Y-94.615
X147.955Y-97.155
X147.955Y-99.695
X147.955Y-102.235
X147.955Y-104.775
X147.955Y-107.315
X152.4Y-69.85
X152.4Y-72.39
X152.4Y-74.93
X152.4Y-77.47
X152.4Y-80.01
X152.4Y-82.55
X153.035Y-94.615
X153.035Y-97.155
X153.035Y-99.695
X153.035Y-102.235
X153.035Y-104.775
X153.035Y-107.315
X162.56Y-69.85
X162.56Y-72.39
X162.56Y-74.93
X162.56Y-77.47
X162.56Y-80.01
X162.56Y-82.55
X163.195Y-94.615
X163.195Y-97.155
X163.195Y-99.695
X163.195Y-102.235
X163.195Y-104.775
X163.195Y-107.315
X167.64Y-69.85
X167.64Y-72.39
X167.64Y-74.93
X167.64Y-77.47
X167.64Y-80.01
X167.64Y-82.55
X170.18Y-69.85
X170.18Y-72.39
X170.18Y-74.93
X170.18Y-77.47
X170.18Y-80.01
X170.18Y-82.55
T0
M30
