G04 #@! TF.GenerationSoftware,KiCad,Pcbnew,(5.1.5)-3*
G04 #@! TF.CreationDate,2020-06-02T17:02:28+02:00*
G04 #@! TF.ProjectId,MutltiSwitch_Sw8,4d75746c-7469-4537-9769-7463685f5377,0.1*
G04 #@! TF.SameCoordinates,Original*
G04 #@! TF.FileFunction,Other,Fab,Top*
%FSLAX46Y46*%
G04 Gerber Fmt 4.6, Leading zero omitted, Abs format (unit mm)*
G04 Created by KiCad (PCBNEW (5.1.5)-3) date 2020-06-02 17:02:28*
%MOMM*%
%LPD*%
G04 APERTURE LIST*
%ADD10C,0.200000*%
%ADD11C,0.100000*%
%ADD12C,0.150000*%
%ADD13C,0.105000*%
G04 APERTURE END LIST*
D10*
X133350000Y-88265000D02*
X133350000Y-120650000D01*
X172085000Y-88265000D02*
X172085000Y-120650000D01*
X172085000Y-120650000D02*
X133350000Y-120650000D01*
X172085000Y-88265000D02*
X133350000Y-88265000D01*
D11*
X168275000Y-108585000D02*
X168275000Y-110490000D01*
X168275000Y-110490000D02*
X170815000Y-110490000D01*
X170815000Y-110490000D02*
X170815000Y-108585000D01*
X170815000Y-90170000D02*
X170815000Y-108585000D01*
X168275000Y-108585000D02*
X168275000Y-90170000D01*
X170815000Y-90170000D02*
X168275000Y-90170000D01*
X165735000Y-108585000D02*
X165735000Y-110490000D01*
X165735000Y-110490000D02*
X168275000Y-110490000D01*
X168275000Y-110490000D02*
X168275000Y-108585000D01*
X168275000Y-90170000D02*
X168275000Y-108585000D01*
X165735000Y-108585000D02*
X165735000Y-90170000D01*
X168275000Y-90170000D02*
X165735000Y-90170000D01*
X143240000Y-90170000D02*
X148590000Y-90170000D01*
X148590000Y-90170000D02*
X148590000Y-107950000D01*
X148590000Y-107950000D02*
X142240000Y-107950000D01*
X142240000Y-107950000D02*
X142240000Y-91170000D01*
X142240000Y-91170000D02*
X143240000Y-90170000D01*
X163195000Y-108585000D02*
X163195000Y-110490000D01*
X163195000Y-110490000D02*
X165735000Y-110490000D01*
X165735000Y-110490000D02*
X165735000Y-108585000D01*
X165735000Y-90170000D02*
X165735000Y-108585000D01*
X163195000Y-108585000D02*
X163195000Y-90170000D01*
X165735000Y-90170000D02*
X163195000Y-90170000D01*
X154670000Y-90170000D02*
X160020000Y-90170000D01*
X160020000Y-90170000D02*
X160020000Y-113030000D01*
X160020000Y-113030000D02*
X153670000Y-113030000D01*
X153670000Y-113030000D02*
X153670000Y-91170000D01*
X153670000Y-91170000D02*
X154670000Y-90170000D01*
X143510000Y-119380000D02*
X151130000Y-119380000D01*
X151130000Y-119380000D02*
X151130000Y-116840000D01*
X151130000Y-116840000D02*
X143510000Y-116840000D01*
X143510000Y-116840000D02*
X143510000Y-119380000D01*
X134493000Y-102235000D02*
X134493000Y-109855000D01*
X134493000Y-109855000D02*
X137033000Y-109855000D01*
X137033000Y-109855000D02*
X137033000Y-102235000D01*
X137033000Y-102235000D02*
X134493000Y-102235000D01*
X141605000Y-113411000D02*
X149225000Y-113411000D01*
X149225000Y-113411000D02*
X149225000Y-110871000D01*
X149225000Y-110871000D02*
X141605000Y-110871000D01*
X141605000Y-110871000D02*
X141605000Y-113411000D01*
X163195000Y-114300000D02*
X170815000Y-114300000D01*
X170815000Y-114300000D02*
X170815000Y-111760000D01*
X170815000Y-111760000D02*
X163195000Y-111760000D01*
X163195000Y-111760000D02*
X163195000Y-114300000D01*
X152908000Y-119380000D02*
X160528000Y-119380000D01*
X160528000Y-119380000D02*
X160528000Y-116840000D01*
X160528000Y-116840000D02*
X152908000Y-116840000D01*
X152908000Y-116840000D02*
X152908000Y-119380000D01*
X146380000Y-114897000D02*
X146380000Y-116497000D01*
X143180000Y-114897000D02*
X146380000Y-114897000D01*
X143180000Y-116497000D02*
X143180000Y-114897000D01*
X146380000Y-116497000D02*
X143180000Y-116497000D01*
X134620000Y-119380000D02*
X142240000Y-119380000D01*
X142240000Y-119380000D02*
X142240000Y-114300000D01*
X142240000Y-114300000D02*
X134620000Y-114300000D01*
X134620000Y-114300000D02*
X134620000Y-119380000D01*
X143265000Y-107825000D02*
X147565000Y-107825000D01*
X147565000Y-107825000D02*
X147565000Y-100525000D01*
X147565000Y-100525000D02*
X143265000Y-100525000D01*
X143265000Y-100525000D02*
X143265000Y-107825000D01*
X143265000Y-107095000D02*
X147565000Y-107095000D01*
X143265000Y-106730000D02*
X147565000Y-106730000D01*
X139084000Y-106485000D02*
X138284000Y-106485000D01*
X138684000Y-106535000D02*
X139084000Y-107135000D01*
X138284000Y-107135000D02*
X138684000Y-106535000D01*
X139084000Y-107135000D02*
X138284000Y-107135000D01*
X137884000Y-108535000D02*
X137884000Y-105335000D01*
X139484000Y-108535000D02*
X137884000Y-108535000D01*
X139484000Y-105335000D02*
X139484000Y-108535000D01*
X137884000Y-105335000D02*
X139484000Y-105335000D01*
X136402000Y-112776000D02*
X135902000Y-112776000D01*
X136402000Y-112376000D02*
X137002000Y-112776000D01*
X136402000Y-113176000D02*
X136402000Y-112376000D01*
X137002000Y-112776000D02*
X136402000Y-113176000D01*
X137002000Y-112776000D02*
X137002000Y-112226000D01*
X137002000Y-112776000D02*
X137002000Y-113326000D01*
X137402000Y-112776000D02*
X137002000Y-112776000D01*
X138052000Y-111876000D02*
X138052000Y-113676000D01*
X135252000Y-111876000D02*
X138052000Y-111876000D01*
X135252000Y-113676000D02*
X135252000Y-111876000D01*
X138052000Y-113676000D02*
X135252000Y-113676000D01*
X172085000Y-118745000D02*
X161925000Y-118745000D01*
X161925000Y-118745000D02*
X161925000Y-117475000D01*
X161925000Y-117475000D02*
X172085000Y-117475000D01*
X172085000Y-118745000D02*
X172085000Y-117475000D01*
X138925000Y-91950000D02*
G75*
G03X136525000Y-89550000I-2400000J0D01*
G01*
X136525000Y-89550000D02*
G75*
G03X134125000Y-91950000I0J-2400000D01*
G01*
X136525000Y-100950000D02*
G75*
G03X138925000Y-98550000I0J2400000D01*
G01*
X134125000Y-98550000D02*
G75*
G03X136525000Y-100950000I2400000J0D01*
G01*
X138925000Y-98550000D02*
X138925000Y-91950000D01*
X134125000Y-91950000D02*
X134125000Y-98550000D01*
X134525000Y-98650000D02*
X134525000Y-91850000D01*
X138525000Y-98650000D02*
X138525000Y-91850000D01*
X138525000Y-91950000D02*
G75*
G03X136525000Y-89950000I-2000000J0D01*
G01*
X136525000Y-89950000D02*
G75*
G03X134525000Y-91950000I0J-2000000D01*
G01*
X136525000Y-100550000D02*
G75*
G03X138525000Y-98550000I0J2000000D01*
G01*
X134525000Y-98550000D02*
G75*
G03X136525000Y-100550000I2000000J0D01*
G01*
D12*
X168997380Y-107084047D02*
X168997380Y-106893571D01*
X169045000Y-106798333D01*
X169140238Y-106703095D01*
X169330714Y-106655476D01*
X169664047Y-106655476D01*
X169854523Y-106703095D01*
X169949761Y-106798333D01*
X169997380Y-106893571D01*
X169997380Y-107084047D01*
X169949761Y-107179285D01*
X169854523Y-107274523D01*
X169664047Y-107322142D01*
X169330714Y-107322142D01*
X169140238Y-107274523D01*
X169045000Y-107179285D01*
X168997380Y-107084047D01*
X168997380Y-106226904D02*
X169806904Y-106226904D01*
X169902142Y-106179285D01*
X169949761Y-106131666D01*
X169997380Y-106036428D01*
X169997380Y-105845952D01*
X169949761Y-105750714D01*
X169902142Y-105703095D01*
X169806904Y-105655476D01*
X168997380Y-105655476D01*
X168997380Y-105322142D02*
X168997380Y-104750714D01*
X169997380Y-105036428D02*
X168997380Y-105036428D01*
X169997380Y-104417380D02*
X168997380Y-104417380D01*
X168997380Y-104036428D01*
X169045000Y-103941190D01*
X169092619Y-103893571D01*
X169187857Y-103845952D01*
X169330714Y-103845952D01*
X169425952Y-103893571D01*
X169473571Y-103941190D01*
X169521190Y-104036428D01*
X169521190Y-104417380D01*
X168997380Y-103417380D02*
X169806904Y-103417380D01*
X169902142Y-103369761D01*
X169949761Y-103322142D01*
X169997380Y-103226904D01*
X169997380Y-103036428D01*
X169949761Y-102941190D01*
X169902142Y-102893571D01*
X169806904Y-102845952D01*
X168997380Y-102845952D01*
X168997380Y-102512619D02*
X168997380Y-101941190D01*
X169997380Y-102226904D02*
X168997380Y-102226904D01*
X170092619Y-101845952D02*
X170092619Y-101084047D01*
X169997380Y-100322142D02*
X169997380Y-100893571D01*
X169997380Y-100607857D02*
X168997380Y-100607857D01*
X169140238Y-100703095D01*
X169235476Y-100798333D01*
X169283095Y-100893571D01*
X168997380Y-99988809D02*
X169997380Y-99322142D01*
X168997380Y-99322142D02*
X169997380Y-99988809D01*
X169425952Y-98798333D02*
X169378333Y-98893571D01*
X169330714Y-98941190D01*
X169235476Y-98988809D01*
X169187857Y-98988809D01*
X169092619Y-98941190D01*
X169045000Y-98893571D01*
X168997380Y-98798333D01*
X168997380Y-98607857D01*
X169045000Y-98512619D01*
X169092619Y-98465000D01*
X169187857Y-98417380D01*
X169235476Y-98417380D01*
X169330714Y-98465000D01*
X169378333Y-98512619D01*
X169425952Y-98607857D01*
X169425952Y-98798333D01*
X169473571Y-98893571D01*
X169521190Y-98941190D01*
X169616428Y-98988809D01*
X169806904Y-98988809D01*
X169902142Y-98941190D01*
X169949761Y-98893571D01*
X169997380Y-98798333D01*
X169997380Y-98607857D01*
X169949761Y-98512619D01*
X169902142Y-98465000D01*
X169806904Y-98417380D01*
X169616428Y-98417380D01*
X169521190Y-98465000D01*
X169473571Y-98512619D01*
X169425952Y-98607857D01*
X170092619Y-98226904D02*
X170092619Y-97465000D01*
X169045000Y-96703095D02*
X168997380Y-96798333D01*
X168997380Y-96941190D01*
X169045000Y-97084047D01*
X169140238Y-97179285D01*
X169235476Y-97226904D01*
X169425952Y-97274523D01*
X169568809Y-97274523D01*
X169759285Y-97226904D01*
X169854523Y-97179285D01*
X169949761Y-97084047D01*
X169997380Y-96941190D01*
X169997380Y-96845952D01*
X169949761Y-96703095D01*
X169902142Y-96655476D01*
X169568809Y-96655476D01*
X169568809Y-96845952D01*
X169997380Y-96226904D02*
X168997380Y-96226904D01*
X169997380Y-95655476D01*
X168997380Y-95655476D01*
X169997380Y-95179285D02*
X168997380Y-95179285D01*
X168997380Y-94941190D01*
X169045000Y-94798333D01*
X169140238Y-94703095D01*
X169235476Y-94655476D01*
X169425952Y-94607857D01*
X169568809Y-94607857D01*
X169759285Y-94655476D01*
X169854523Y-94703095D01*
X169949761Y-94798333D01*
X169997380Y-94941190D01*
X169997380Y-95179285D01*
X166457380Y-107203095D02*
X166457380Y-107012619D01*
X166505000Y-106917380D01*
X166600238Y-106822142D01*
X166790714Y-106774523D01*
X167124047Y-106774523D01*
X167314523Y-106822142D01*
X167409761Y-106917380D01*
X167457380Y-107012619D01*
X167457380Y-107203095D01*
X167409761Y-107298333D01*
X167314523Y-107393571D01*
X167124047Y-107441190D01*
X166790714Y-107441190D01*
X166600238Y-107393571D01*
X166505000Y-107298333D01*
X166457380Y-107203095D01*
X166457380Y-106345952D02*
X167266904Y-106345952D01*
X167362142Y-106298333D01*
X167409761Y-106250714D01*
X167457380Y-106155476D01*
X167457380Y-105965000D01*
X167409761Y-105869761D01*
X167362142Y-105822142D01*
X167266904Y-105774523D01*
X166457380Y-105774523D01*
X166457380Y-105441190D02*
X166457380Y-104869761D01*
X167457380Y-105155476D02*
X166457380Y-105155476D01*
X167457380Y-104536428D02*
X166457380Y-104536428D01*
X166457380Y-104155476D01*
X166505000Y-104060238D01*
X166552619Y-104012619D01*
X166647857Y-103965000D01*
X166790714Y-103965000D01*
X166885952Y-104012619D01*
X166933571Y-104060238D01*
X166981190Y-104155476D01*
X166981190Y-104536428D01*
X166457380Y-103536428D02*
X167266904Y-103536428D01*
X167362142Y-103488809D01*
X167409761Y-103441190D01*
X167457380Y-103345952D01*
X167457380Y-103155476D01*
X167409761Y-103060238D01*
X167362142Y-103012619D01*
X167266904Y-102965000D01*
X166457380Y-102965000D01*
X166457380Y-102631666D02*
X166457380Y-102060238D01*
X167457380Y-102345952D02*
X166457380Y-102345952D01*
X167552619Y-101965000D02*
X167552619Y-101203095D01*
X167457380Y-100441190D02*
X167457380Y-101012619D01*
X167457380Y-100726904D02*
X166457380Y-100726904D01*
X166600238Y-100822142D01*
X166695476Y-100917380D01*
X166743095Y-101012619D01*
X166457380Y-100107857D02*
X167457380Y-99441190D01*
X166457380Y-99441190D02*
X167457380Y-100107857D01*
X166885952Y-98917380D02*
X166838333Y-99012619D01*
X166790714Y-99060238D01*
X166695476Y-99107857D01*
X166647857Y-99107857D01*
X166552619Y-99060238D01*
X166505000Y-99012619D01*
X166457380Y-98917380D01*
X166457380Y-98726904D01*
X166505000Y-98631666D01*
X166552619Y-98584047D01*
X166647857Y-98536428D01*
X166695476Y-98536428D01*
X166790714Y-98584047D01*
X166838333Y-98631666D01*
X166885952Y-98726904D01*
X166885952Y-98917380D01*
X166933571Y-99012619D01*
X166981190Y-99060238D01*
X167076428Y-99107857D01*
X167266904Y-99107857D01*
X167362142Y-99060238D01*
X167409761Y-99012619D01*
X167457380Y-98917380D01*
X167457380Y-98726904D01*
X167409761Y-98631666D01*
X167362142Y-98584047D01*
X167266904Y-98536428D01*
X167076428Y-98536428D01*
X166981190Y-98584047D01*
X166933571Y-98631666D01*
X166885952Y-98726904D01*
X167552619Y-98345952D02*
X167552619Y-97584047D01*
X167171666Y-97393571D02*
X167171666Y-96917380D01*
X167457380Y-97488809D02*
X166457380Y-97155476D01*
X167457380Y-96822142D01*
X167457380Y-96012619D02*
X167457380Y-96488809D01*
X166457380Y-96488809D01*
X167457380Y-95679285D02*
X166457380Y-95679285D01*
X167457380Y-95203095D02*
X166457380Y-95203095D01*
X167171666Y-94869761D01*
X166457380Y-94536428D01*
X167457380Y-94536428D01*
X146470666Y-99257904D02*
X146470666Y-98781714D01*
X146756380Y-99353142D02*
X145756380Y-99019809D01*
X146756380Y-98686476D01*
X145756380Y-98496000D02*
X145756380Y-97924571D01*
X146756380Y-98210285D02*
X145756380Y-98210285D01*
X145756380Y-97734095D02*
X145756380Y-97162666D01*
X146756380Y-97448380D02*
X145756380Y-97448380D01*
X146756380Y-96829333D02*
X145756380Y-96829333D01*
X146756380Y-96353142D02*
X145756380Y-96353142D01*
X146756380Y-95781714D01*
X145756380Y-95781714D01*
X146280190Y-95115047D02*
X146756380Y-95115047D01*
X145756380Y-95448380D02*
X146280190Y-95115047D01*
X145756380Y-94781714D01*
X146184952Y-94305523D02*
X146137333Y-94400761D01*
X146089714Y-94448380D01*
X145994476Y-94496000D01*
X145946857Y-94496000D01*
X145851619Y-94448380D01*
X145804000Y-94400761D01*
X145756380Y-94305523D01*
X145756380Y-94115047D01*
X145804000Y-94019809D01*
X145851619Y-93972190D01*
X145946857Y-93924571D01*
X145994476Y-93924571D01*
X146089714Y-93972190D01*
X146137333Y-94019809D01*
X146184952Y-94115047D01*
X146184952Y-94305523D01*
X146232571Y-94400761D01*
X146280190Y-94448380D01*
X146375428Y-94496000D01*
X146565904Y-94496000D01*
X146661142Y-94448380D01*
X146708761Y-94400761D01*
X146756380Y-94305523D01*
X146756380Y-94115047D01*
X146708761Y-94019809D01*
X146661142Y-93972190D01*
X146565904Y-93924571D01*
X146375428Y-93924571D01*
X146280190Y-93972190D01*
X146232571Y-94019809D01*
X146184952Y-94115047D01*
X146089714Y-93067428D02*
X146756380Y-93067428D01*
X145708761Y-93305523D02*
X146423047Y-93543619D01*
X146423047Y-92924571D01*
X146375428Y-92543619D02*
X146375428Y-91781714D01*
X146756380Y-91305523D02*
X145756380Y-91305523D01*
X145756380Y-90924571D01*
X145804000Y-90829333D01*
X145851619Y-90781714D01*
X145946857Y-90734095D01*
X146089714Y-90734095D01*
X146184952Y-90781714D01*
X146232571Y-90829333D01*
X146280190Y-90924571D01*
X146280190Y-91305523D01*
X144851380Y-96099190D02*
X143851380Y-96099190D01*
X144756142Y-95051571D02*
X144803761Y-95099190D01*
X144851380Y-95242047D01*
X144851380Y-95337285D01*
X144803761Y-95480142D01*
X144708523Y-95575380D01*
X144613285Y-95623000D01*
X144422809Y-95670619D01*
X144279952Y-95670619D01*
X144089476Y-95623000D01*
X143994238Y-95575380D01*
X143899000Y-95480142D01*
X143851380Y-95337285D01*
X143851380Y-95242047D01*
X143899000Y-95099190D01*
X143946619Y-95051571D01*
X144851380Y-94099190D02*
X144851380Y-94670619D01*
X144851380Y-94384904D02*
X143851380Y-94384904D01*
X143994238Y-94480142D01*
X144089476Y-94575380D01*
X144137095Y-94670619D01*
X163917380Y-105179285D02*
X163917380Y-104988809D01*
X163965000Y-104893571D01*
X164060238Y-104798333D01*
X164250714Y-104750714D01*
X164584047Y-104750714D01*
X164774523Y-104798333D01*
X164869761Y-104893571D01*
X164917380Y-104988809D01*
X164917380Y-105179285D01*
X164869761Y-105274523D01*
X164774523Y-105369761D01*
X164584047Y-105417380D01*
X164250714Y-105417380D01*
X164060238Y-105369761D01*
X163965000Y-105274523D01*
X163917380Y-105179285D01*
X163917380Y-104322142D02*
X164726904Y-104322142D01*
X164822142Y-104274523D01*
X164869761Y-104226904D01*
X164917380Y-104131666D01*
X164917380Y-103941190D01*
X164869761Y-103845952D01*
X164822142Y-103798333D01*
X164726904Y-103750714D01*
X163917380Y-103750714D01*
X163917380Y-103417380D02*
X163917380Y-102845952D01*
X164917380Y-103131666D02*
X163917380Y-103131666D01*
X164917380Y-102512619D02*
X163917380Y-102512619D01*
X163917380Y-102131666D01*
X163965000Y-102036428D01*
X164012619Y-101988809D01*
X164107857Y-101941190D01*
X164250714Y-101941190D01*
X164345952Y-101988809D01*
X164393571Y-102036428D01*
X164441190Y-102131666D01*
X164441190Y-102512619D01*
X163917380Y-101512619D02*
X164726904Y-101512619D01*
X164822142Y-101465000D01*
X164869761Y-101417380D01*
X164917380Y-101322142D01*
X164917380Y-101131666D01*
X164869761Y-101036428D01*
X164822142Y-100988809D01*
X164726904Y-100941190D01*
X163917380Y-100941190D01*
X163917380Y-100607857D02*
X163917380Y-100036428D01*
X164917380Y-100322142D02*
X163917380Y-100322142D01*
X165012619Y-99941190D02*
X165012619Y-99179285D01*
X164917380Y-98417380D02*
X164917380Y-98988809D01*
X164917380Y-98703095D02*
X163917380Y-98703095D01*
X164060238Y-98798333D01*
X164155476Y-98893571D01*
X164203095Y-98988809D01*
X163917380Y-98084047D02*
X164917380Y-97417380D01*
X163917380Y-97417380D02*
X164917380Y-98084047D01*
X164345952Y-96893571D02*
X164298333Y-96988809D01*
X164250714Y-97036428D01*
X164155476Y-97084047D01*
X164107857Y-97084047D01*
X164012619Y-97036428D01*
X163965000Y-96988809D01*
X163917380Y-96893571D01*
X163917380Y-96703095D01*
X163965000Y-96607857D01*
X164012619Y-96560238D01*
X164107857Y-96512619D01*
X164155476Y-96512619D01*
X164250714Y-96560238D01*
X164298333Y-96607857D01*
X164345952Y-96703095D01*
X164345952Y-96893571D01*
X164393571Y-96988809D01*
X164441190Y-97036428D01*
X164536428Y-97084047D01*
X164726904Y-97084047D01*
X164822142Y-97036428D01*
X164869761Y-96988809D01*
X164917380Y-96893571D01*
X164917380Y-96703095D01*
X164869761Y-96607857D01*
X164822142Y-96560238D01*
X164726904Y-96512619D01*
X164536428Y-96512619D01*
X164441190Y-96560238D01*
X164393571Y-96607857D01*
X164345952Y-96703095D01*
X156297380Y-105989047D02*
X157106904Y-105989047D01*
X157202142Y-105941428D01*
X157249761Y-105893809D01*
X157297380Y-105798571D01*
X157297380Y-105608095D01*
X157249761Y-105512857D01*
X157202142Y-105465238D01*
X157106904Y-105417619D01*
X156297380Y-105417619D01*
X157297380Y-104465238D02*
X157297380Y-104941428D01*
X156297380Y-104941428D01*
X157297380Y-104131904D02*
X156297380Y-104131904D01*
X157297380Y-103560476D01*
X156297380Y-103560476D01*
X156392619Y-103131904D02*
X156345000Y-103084285D01*
X156297380Y-102989047D01*
X156297380Y-102750952D01*
X156345000Y-102655714D01*
X156392619Y-102608095D01*
X156487857Y-102560476D01*
X156583095Y-102560476D01*
X156725952Y-102608095D01*
X157297380Y-103179523D01*
X157297380Y-102560476D01*
X156725952Y-101989047D02*
X156678333Y-102084285D01*
X156630714Y-102131904D01*
X156535476Y-102179523D01*
X156487857Y-102179523D01*
X156392619Y-102131904D01*
X156345000Y-102084285D01*
X156297380Y-101989047D01*
X156297380Y-101798571D01*
X156345000Y-101703333D01*
X156392619Y-101655714D01*
X156487857Y-101608095D01*
X156535476Y-101608095D01*
X156630714Y-101655714D01*
X156678333Y-101703333D01*
X156725952Y-101798571D01*
X156725952Y-101989047D01*
X156773571Y-102084285D01*
X156821190Y-102131904D01*
X156916428Y-102179523D01*
X157106904Y-102179523D01*
X157202142Y-102131904D01*
X157249761Y-102084285D01*
X157297380Y-101989047D01*
X157297380Y-101798571D01*
X157249761Y-101703333D01*
X157202142Y-101655714D01*
X157106904Y-101608095D01*
X156916428Y-101608095D01*
X156821190Y-101655714D01*
X156773571Y-101703333D01*
X156725952Y-101798571D01*
X156297380Y-100989047D02*
X156297380Y-100893809D01*
X156345000Y-100798571D01*
X156392619Y-100750952D01*
X156487857Y-100703333D01*
X156678333Y-100655714D01*
X156916428Y-100655714D01*
X157106904Y-100703333D01*
X157202142Y-100750952D01*
X157249761Y-100798571D01*
X157297380Y-100893809D01*
X157297380Y-100989047D01*
X157249761Y-101084285D01*
X157202142Y-101131904D01*
X157106904Y-101179523D01*
X156916428Y-101227142D01*
X156678333Y-101227142D01*
X156487857Y-101179523D01*
X156392619Y-101131904D01*
X156345000Y-101084285D01*
X156297380Y-100989047D01*
X156297380Y-100322380D02*
X156297380Y-99703333D01*
X156678333Y-100036666D01*
X156678333Y-99893809D01*
X156725952Y-99798571D01*
X156773571Y-99750952D01*
X156868809Y-99703333D01*
X157106904Y-99703333D01*
X157202142Y-99750952D01*
X157249761Y-99798571D01*
X157297380Y-99893809D01*
X157297380Y-100179523D01*
X157249761Y-100274761D01*
X157202142Y-100322380D01*
X155741809Y-94813380D02*
X155741809Y-93813380D01*
X156789428Y-94718142D02*
X156741809Y-94765761D01*
X156598952Y-94813380D01*
X156503714Y-94813380D01*
X156360857Y-94765761D01*
X156265619Y-94670523D01*
X156218000Y-94575285D01*
X156170380Y-94384809D01*
X156170380Y-94241952D01*
X156218000Y-94051476D01*
X156265619Y-93956238D01*
X156360857Y-93861000D01*
X156503714Y-93813380D01*
X156598952Y-93813380D01*
X156741809Y-93861000D01*
X156789428Y-93908619D01*
X157170380Y-93908619D02*
X157218000Y-93861000D01*
X157313238Y-93813380D01*
X157551333Y-93813380D01*
X157646571Y-93861000D01*
X157694190Y-93908619D01*
X157741809Y-94003857D01*
X157741809Y-94099095D01*
X157694190Y-94241952D01*
X157122761Y-94813380D01*
X157741809Y-94813380D01*
X139764380Y-121864428D02*
X140526285Y-121864428D01*
X140145333Y-122245380D02*
X140145333Y-121483476D01*
X140859619Y-121245380D02*
X141192952Y-122245380D01*
X141526285Y-121245380D01*
X141859619Y-121721571D02*
X142621523Y-121721571D01*
X142621523Y-122007285D02*
X141859619Y-122007285D01*
X142954857Y-121245380D02*
X143288190Y-122245380D01*
X143621523Y-121245380D01*
X144526285Y-122245380D02*
X144192952Y-121769190D01*
X143954857Y-122245380D02*
X143954857Y-121245380D01*
X144335809Y-121245380D01*
X144431047Y-121293000D01*
X144478666Y-121340619D01*
X144526285Y-121435857D01*
X144526285Y-121578714D01*
X144478666Y-121673952D01*
X144431047Y-121721571D01*
X144335809Y-121769190D01*
X143954857Y-121769190D01*
X144859619Y-122245380D02*
X145383428Y-121578714D01*
X144859619Y-121578714D02*
X145383428Y-122245380D01*
X147240571Y-121197761D02*
X146383428Y-122483476D01*
X148335809Y-121864428D02*
X149097714Y-121864428D01*
X148716761Y-122245380D02*
X148716761Y-121483476D01*
X149431047Y-121245380D02*
X149764380Y-122245380D01*
X150097714Y-121245380D01*
X151192952Y-121578714D02*
X150431047Y-121864428D01*
X151192952Y-122150142D01*
X151526285Y-121245380D02*
X151859619Y-122245380D01*
X152192952Y-121245380D01*
X153097714Y-122245380D02*
X152764380Y-121769190D01*
X152526285Y-122245380D02*
X152526285Y-121245380D01*
X152907238Y-121245380D01*
X153002476Y-121293000D01*
X153050095Y-121340619D01*
X153097714Y-121435857D01*
X153097714Y-121578714D01*
X153050095Y-121673952D01*
X153002476Y-121721571D01*
X152907238Y-121769190D01*
X152526285Y-121769190D01*
X153431047Y-122245380D02*
X153954857Y-121578714D01*
X153431047Y-121578714D02*
X153954857Y-122245380D01*
X135215380Y-110052904D02*
X136215380Y-109386238D01*
X135215380Y-109386238D02*
X136215380Y-110052904D01*
X135929666Y-109052904D02*
X135929666Y-108576714D01*
X136215380Y-109148142D02*
X135215380Y-108814809D01*
X136215380Y-108481476D01*
X136215380Y-108148142D02*
X135215380Y-108148142D01*
X136215380Y-107576714D01*
X135215380Y-107576714D01*
X135739190Y-106910047D02*
X136215380Y-106910047D01*
X135215380Y-107243380D02*
X135739190Y-106910047D01*
X135215380Y-106576714D01*
X136310619Y-106481476D02*
X136310619Y-105719571D01*
X136215380Y-105481476D02*
X135215380Y-105481476D01*
X136215380Y-105005285D02*
X135215380Y-105005285D01*
X136215380Y-104433857D01*
X135215380Y-104433857D01*
X136215380Y-103957666D02*
X135215380Y-103957666D01*
X135215380Y-103576714D01*
X135263000Y-103481476D01*
X135310619Y-103433857D01*
X135405857Y-103386238D01*
X135548714Y-103386238D01*
X135643952Y-103433857D01*
X135691571Y-103481476D01*
X135739190Y-103576714D01*
X135739190Y-103957666D01*
X135215380Y-102957666D02*
X136024904Y-102957666D01*
X136120142Y-102910047D01*
X136167761Y-102862428D01*
X136215380Y-102767190D01*
X136215380Y-102576714D01*
X136167761Y-102481476D01*
X136120142Y-102433857D01*
X136024904Y-102386238D01*
X135215380Y-102386238D01*
X135215380Y-102052904D02*
X135215380Y-101481476D01*
X136215380Y-101767190D02*
X135215380Y-101767190D01*
X143224523Y-112672761D02*
X143367380Y-112720380D01*
X143605476Y-112720380D01*
X143700714Y-112672761D01*
X143748333Y-112625142D01*
X143795952Y-112529904D01*
X143795952Y-112434666D01*
X143748333Y-112339428D01*
X143700714Y-112291809D01*
X143605476Y-112244190D01*
X143415000Y-112196571D01*
X143319761Y-112148952D01*
X143272142Y-112101333D01*
X143224523Y-112006095D01*
X143224523Y-111910857D01*
X143272142Y-111815619D01*
X143319761Y-111768000D01*
X143415000Y-111720380D01*
X143653095Y-111720380D01*
X143795952Y-111768000D01*
X144224523Y-112196571D02*
X144557857Y-112196571D01*
X144700714Y-112720380D02*
X144224523Y-112720380D01*
X144224523Y-111720380D01*
X144700714Y-111720380D01*
X145700714Y-112720380D02*
X145367380Y-112244190D01*
X145129285Y-112720380D02*
X145129285Y-111720380D01*
X145510238Y-111720380D01*
X145605476Y-111768000D01*
X145653095Y-111815619D01*
X145700714Y-111910857D01*
X145700714Y-112053714D01*
X145653095Y-112148952D01*
X145605476Y-112196571D01*
X145510238Y-112244190D01*
X145129285Y-112244190D01*
X145986428Y-111720380D02*
X146319761Y-112720380D01*
X146653095Y-111720380D01*
X147176904Y-111720380D02*
X147367380Y-111720380D01*
X147462619Y-111768000D01*
X147557857Y-111863238D01*
X147605476Y-112053714D01*
X147605476Y-112387047D01*
X147557857Y-112577523D01*
X147462619Y-112672761D01*
X147367380Y-112720380D01*
X147176904Y-112720380D01*
X147081666Y-112672761D01*
X146986428Y-112577523D01*
X146938809Y-112387047D01*
X146938809Y-112053714D01*
X146986428Y-111863238D01*
X147081666Y-111768000D01*
X147176904Y-111720380D01*
X165028809Y-113482380D02*
X165028809Y-112482380D01*
X165266904Y-112482380D01*
X165409761Y-112530000D01*
X165505000Y-112625238D01*
X165552619Y-112720476D01*
X165600238Y-112910952D01*
X165600238Y-113053809D01*
X165552619Y-113244285D01*
X165505000Y-113339523D01*
X165409761Y-113434761D01*
X165266904Y-113482380D01*
X165028809Y-113482380D01*
X166028809Y-113482380D02*
X166028809Y-112482380D01*
X166695476Y-112482380D02*
X166885952Y-112482380D01*
X166981190Y-112530000D01*
X167076428Y-112625238D01*
X167124047Y-112815714D01*
X167124047Y-113149047D01*
X167076428Y-113339523D01*
X166981190Y-113434761D01*
X166885952Y-113482380D01*
X166695476Y-113482380D01*
X166600238Y-113434761D01*
X166505000Y-113339523D01*
X166457380Y-113149047D01*
X166457380Y-112815714D01*
X166505000Y-112625238D01*
X166600238Y-112530000D01*
X166695476Y-112482380D01*
X167552619Y-113482380D02*
X167552619Y-112482380D01*
X167790714Y-112482380D01*
X167933571Y-112530000D01*
X168028809Y-112625238D01*
X168076428Y-112720476D01*
X168124047Y-112910952D01*
X168124047Y-113053809D01*
X168076428Y-113244285D01*
X168028809Y-113339523D01*
X167933571Y-113434761D01*
X167790714Y-113482380D01*
X167552619Y-113482380D01*
X168552619Y-112958571D02*
X168885952Y-112958571D01*
X169028809Y-113482380D02*
X168552619Y-113482380D01*
X168552619Y-112482380D01*
X169028809Y-112482380D01*
X153297333Y-116228761D02*
X153440190Y-116276380D01*
X153678285Y-116276380D01*
X153773523Y-116228761D01*
X153821142Y-116181142D01*
X153868761Y-116085904D01*
X153868761Y-115990666D01*
X153821142Y-115895428D01*
X153773523Y-115847809D01*
X153678285Y-115800190D01*
X153487809Y-115752571D01*
X153392571Y-115704952D01*
X153344952Y-115657333D01*
X153297333Y-115562095D01*
X153297333Y-115466857D01*
X153344952Y-115371619D01*
X153392571Y-115324000D01*
X153487809Y-115276380D01*
X153725904Y-115276380D01*
X153868761Y-115324000D01*
X154297333Y-115752571D02*
X154630666Y-115752571D01*
X154773523Y-116276380D02*
X154297333Y-116276380D01*
X154297333Y-115276380D01*
X154773523Y-115276380D01*
X155678285Y-116276380D02*
X155202095Y-116276380D01*
X155202095Y-115276380D01*
X155773523Y-116371619D02*
X156535428Y-116371619D01*
X156725904Y-115990666D02*
X157202095Y-115990666D01*
X156630666Y-116276380D02*
X156964000Y-115276380D01*
X157297333Y-116276380D01*
X158106857Y-116276380D02*
X157630666Y-116276380D01*
X157630666Y-115276380D01*
X158440190Y-116276380D02*
X158440190Y-115276380D01*
X158916380Y-116276380D02*
X158916380Y-115276380D01*
X159249714Y-115990666D01*
X159583047Y-115276380D01*
X159583047Y-116276380D01*
X147264523Y-116022380D02*
X146693095Y-116022380D01*
X146978809Y-116022380D02*
X146978809Y-115022380D01*
X146883571Y-115165238D01*
X146788333Y-115260476D01*
X146693095Y-115308095D01*
X147883571Y-115022380D02*
X147978809Y-115022380D01*
X148074047Y-115070000D01*
X148121666Y-115117619D01*
X148169285Y-115212857D01*
X148216904Y-115403333D01*
X148216904Y-115641428D01*
X148169285Y-115831904D01*
X148121666Y-115927142D01*
X148074047Y-115974761D01*
X147978809Y-116022380D01*
X147883571Y-116022380D01*
X147788333Y-115974761D01*
X147740714Y-115927142D01*
X147693095Y-115831904D01*
X147645476Y-115641428D01*
X147645476Y-115403333D01*
X147693095Y-115212857D01*
X147740714Y-115117619D01*
X147788333Y-115070000D01*
X147883571Y-115022380D01*
X148645476Y-116022380D02*
X148645476Y-115022380D01*
X149216904Y-116022380D02*
X148788333Y-115450952D01*
X149216904Y-115022380D02*
X148645476Y-115593809D01*
D13*
X144663333Y-116013666D02*
X144430000Y-115680333D01*
X144263333Y-116013666D02*
X144263333Y-115313666D01*
X144530000Y-115313666D01*
X144596666Y-115347000D01*
X144630000Y-115380333D01*
X144663333Y-115447000D01*
X144663333Y-115547000D01*
X144630000Y-115613666D01*
X144596666Y-115647000D01*
X144530000Y-115680333D01*
X144263333Y-115680333D01*
X145263333Y-115547000D02*
X145263333Y-116013666D01*
X145096666Y-115280333D02*
X144930000Y-115780333D01*
X145363333Y-115780333D01*
D12*
X137453809Y-116705071D02*
X137120476Y-116705071D01*
X137120476Y-117228880D02*
X137120476Y-116228880D01*
X137596666Y-116228880D01*
X137834761Y-116228880D02*
X138406190Y-116228880D01*
X138120476Y-117228880D02*
X138120476Y-116228880D01*
X138739523Y-117228880D02*
X138739523Y-116228880D01*
X138977619Y-116228880D01*
X139120476Y-116276500D01*
X139215714Y-116371738D01*
X139263333Y-116466976D01*
X139310952Y-116657452D01*
X139310952Y-116800309D01*
X139263333Y-116990785D01*
X139215714Y-117086023D01*
X139120476Y-117181261D01*
X138977619Y-117228880D01*
X138739523Y-117228880D01*
X139739523Y-117228880D02*
X139739523Y-116228880D01*
X144200619Y-105913047D02*
X144153000Y-105865428D01*
X144105380Y-105770190D01*
X144105380Y-105532095D01*
X144153000Y-105436857D01*
X144200619Y-105389238D01*
X144295857Y-105341619D01*
X144391095Y-105341619D01*
X144533952Y-105389238D01*
X145105380Y-105960666D01*
X145105380Y-105341619D01*
X144200619Y-104960666D02*
X144153000Y-104913047D01*
X144105380Y-104817809D01*
X144105380Y-104579714D01*
X144153000Y-104484476D01*
X144200619Y-104436857D01*
X144295857Y-104389238D01*
X144391095Y-104389238D01*
X144533952Y-104436857D01*
X145105380Y-105008285D01*
X145105380Y-104389238D01*
X144105380Y-103770190D02*
X144105380Y-103674952D01*
X144153000Y-103579714D01*
X144200619Y-103532095D01*
X144295857Y-103484476D01*
X144486333Y-103436857D01*
X144724428Y-103436857D01*
X144914904Y-103484476D01*
X145010142Y-103532095D01*
X145057761Y-103579714D01*
X145105380Y-103674952D01*
X145105380Y-103770190D01*
X145057761Y-103865428D01*
X145010142Y-103913047D01*
X144914904Y-103960666D01*
X144724428Y-104008285D01*
X144486333Y-104008285D01*
X144295857Y-103960666D01*
X144200619Y-103913047D01*
X144153000Y-103865428D01*
X144105380Y-103770190D01*
X144438714Y-102579714D02*
X145105380Y-102579714D01*
X144438714Y-103008285D02*
X144962523Y-103008285D01*
X145057761Y-102960666D01*
X145105380Y-102865428D01*
X145105380Y-102722571D01*
X145057761Y-102627333D01*
X145010142Y-102579714D01*
X144581571Y-101770190D02*
X144581571Y-102103523D01*
X145105380Y-102103523D02*
X144105380Y-102103523D01*
X144105380Y-101627333D01*
X146534142Y-103833666D02*
X146581761Y-103881285D01*
X146629380Y-104024142D01*
X146629380Y-104119380D01*
X146581761Y-104262238D01*
X146486523Y-104357476D01*
X146391285Y-104405095D01*
X146200809Y-104452714D01*
X146057952Y-104452714D01*
X145867476Y-104405095D01*
X145772238Y-104357476D01*
X145677000Y-104262238D01*
X145629380Y-104119380D01*
X145629380Y-104024142D01*
X145677000Y-103881285D01*
X145724619Y-103833666D01*
X145962714Y-102976523D02*
X146629380Y-102976523D01*
X145581761Y-103214619D02*
X146296047Y-103452714D01*
X146296047Y-102833666D01*
X140914380Y-107703857D02*
X140914380Y-108180047D01*
X139914380Y-108180047D01*
X140390571Y-107370523D02*
X140390571Y-107037190D01*
X140914380Y-106894333D02*
X140914380Y-107370523D01*
X139914380Y-107370523D01*
X139914380Y-106894333D01*
X140914380Y-106465761D02*
X139914380Y-106465761D01*
X139914380Y-106227666D01*
X139962000Y-106084809D01*
X140057238Y-105989571D01*
X140152476Y-105941952D01*
X140342952Y-105894333D01*
X140485809Y-105894333D01*
X140676285Y-105941952D01*
X140771523Y-105989571D01*
X140866761Y-106084809D01*
X140914380Y-106227666D01*
X140914380Y-106465761D01*
X134906000Y-111577380D02*
X134429809Y-111577380D01*
X134429809Y-110577380D01*
X135715523Y-111577380D02*
X135239333Y-111577380D01*
X135239333Y-110577380D01*
X136477428Y-110910714D02*
X136477428Y-111577380D01*
X136239333Y-110529761D02*
X136001238Y-111244047D01*
X136620285Y-111244047D01*
X137525047Y-111577380D02*
X136953619Y-111577380D01*
X137239333Y-111577380D02*
X137239333Y-110577380D01*
X137144095Y-110720238D01*
X137048857Y-110815476D01*
X136953619Y-110863095D01*
X138382190Y-110910714D02*
X138382190Y-111577380D01*
X138144095Y-110529761D02*
X137906000Y-111244047D01*
X138525047Y-111244047D01*
X139048857Y-111005952D02*
X138953619Y-110958333D01*
X138906000Y-110910714D01*
X138858380Y-110815476D01*
X138858380Y-110767857D01*
X138906000Y-110672619D01*
X138953619Y-110625000D01*
X139048857Y-110577380D01*
X139239333Y-110577380D01*
X139334571Y-110625000D01*
X139382190Y-110672619D01*
X139429809Y-110767857D01*
X139429809Y-110815476D01*
X139382190Y-110910714D01*
X139334571Y-110958333D01*
X139239333Y-111005952D01*
X139048857Y-111005952D01*
X138953619Y-111053571D01*
X138906000Y-111101190D01*
X138858380Y-111196428D01*
X138858380Y-111386904D01*
X138906000Y-111482142D01*
X138953619Y-111529761D01*
X139048857Y-111577380D01*
X139239333Y-111577380D01*
X139334571Y-111529761D01*
X139382190Y-111482142D01*
X139429809Y-111386904D01*
X139429809Y-111196428D01*
X139382190Y-111101190D01*
X139334571Y-111053571D01*
X139239333Y-111005952D01*
X138580904Y-113228380D02*
X138580904Y-112228380D01*
X138819000Y-112228380D01*
X138961857Y-112276000D01*
X139057095Y-112371238D01*
X139104714Y-112466476D01*
X139152333Y-112656952D01*
X139152333Y-112799809D01*
X139104714Y-112990285D01*
X139057095Y-113085523D01*
X138961857Y-113180761D01*
X138819000Y-113228380D01*
X138580904Y-113228380D01*
X139485666Y-112228380D02*
X140104714Y-112228380D01*
X139771380Y-112609333D01*
X139914238Y-112609333D01*
X140009476Y-112656952D01*
X140057095Y-112704571D01*
X140104714Y-112799809D01*
X140104714Y-113037904D01*
X140057095Y-113133142D01*
X140009476Y-113180761D01*
X139914238Y-113228380D01*
X139628523Y-113228380D01*
X139533285Y-113180761D01*
X139485666Y-113133142D01*
X165528809Y-121372380D02*
X165862142Y-122372380D01*
X166195476Y-121372380D01*
X166528809Y-121848571D02*
X166862142Y-121848571D01*
X167005000Y-122372380D02*
X166528809Y-122372380D01*
X166528809Y-121372380D01*
X167005000Y-121372380D01*
X167338333Y-122372380D02*
X167862142Y-121705714D01*
X167338333Y-121705714D02*
X167862142Y-122372380D01*
X168100238Y-121705714D02*
X168481190Y-121705714D01*
X168243095Y-121372380D02*
X168243095Y-122229523D01*
X168290714Y-122324761D01*
X168385952Y-122372380D01*
X168481190Y-122372380D01*
X165671666Y-120467380D02*
X165338333Y-119991190D01*
X165100238Y-120467380D02*
X165100238Y-119467380D01*
X165481190Y-119467380D01*
X165576428Y-119515000D01*
X165624047Y-119562619D01*
X165671666Y-119657857D01*
X165671666Y-119800714D01*
X165624047Y-119895952D01*
X165576428Y-119943571D01*
X165481190Y-119991190D01*
X165100238Y-119991190D01*
X166100238Y-119943571D02*
X166433571Y-119943571D01*
X166576428Y-120467380D02*
X166100238Y-120467380D01*
X166100238Y-119467380D01*
X166576428Y-119467380D01*
X167338333Y-119943571D02*
X167005000Y-119943571D01*
X167005000Y-120467380D02*
X167005000Y-119467380D01*
X167481190Y-119467380D01*
X168005000Y-119467380D02*
X168005000Y-119705476D01*
X167766904Y-119610238D02*
X168005000Y-119705476D01*
X168243095Y-119610238D01*
X167862142Y-119895952D02*
X168005000Y-119705476D01*
X168147857Y-119895952D01*
X168766904Y-119467380D02*
X168766904Y-119705476D01*
X168528809Y-119610238D02*
X168766904Y-119705476D01*
X169005000Y-119610238D01*
X168624047Y-119895952D02*
X168766904Y-119705476D01*
X168909761Y-119895952D01*
X137477380Y-96869047D02*
X137477380Y-97440476D01*
X137477380Y-97154761D02*
X136477380Y-97154761D01*
X136620238Y-97250000D01*
X136715476Y-97345238D01*
X136763095Y-97440476D01*
X136477380Y-96011904D02*
X136477380Y-96202380D01*
X136525000Y-96297619D01*
X136572619Y-96345238D01*
X136715476Y-96440476D01*
X136905952Y-96488095D01*
X137286904Y-96488095D01*
X137382142Y-96440476D01*
X137429761Y-96392857D01*
X137477380Y-96297619D01*
X137477380Y-96107142D01*
X137429761Y-96011904D01*
X137382142Y-95964285D01*
X137286904Y-95916666D01*
X137048809Y-95916666D01*
X136953571Y-95964285D01*
X136905952Y-96011904D01*
X136858333Y-96107142D01*
X136858333Y-96297619D01*
X136905952Y-96392857D01*
X136953571Y-96440476D01*
X137048809Y-96488095D01*
X137477380Y-95488095D02*
X136477380Y-95488095D01*
X137191666Y-95154761D01*
X136477380Y-94821428D01*
X137477380Y-94821428D01*
X137477380Y-94345238D02*
X136477380Y-94345238D01*
X137477380Y-93916666D02*
X136953571Y-93916666D01*
X136858333Y-93964285D01*
X136810714Y-94059523D01*
X136810714Y-94202380D01*
X136858333Y-94297619D01*
X136905952Y-94345238D01*
X136810714Y-93535714D02*
X136810714Y-93011904D01*
X137477380Y-93535714D01*
X137477380Y-93011904D01*
M02*
