/* XPM */
static char *avatarnext[] = {
"32 32 54 1 0 0",
"  c #602000",
"! c #804040",
"# c #604000",
"$ c #806040",
"% c #804000",
"& c #806000",
"' c #604040",
"( c #402000",
") c #A06040",
"* c #402040",
"+ c #404040",
", c #A04040",
"- c #A08040",
". c #C08040",
"/ c #000000",
"0 c #A04000",
"1 c #A06000",
"2 c #C0A040",
"3 c #C06040",
"4 c #E0A040",
"5 c #E08040",
"6 c #E0A080",
"7 c #E0C080",
"8 c #C0C080",
"9 c #FFFFFF",
": c #C0A080",
"; c #202040",
"< c #E0C040",
"= c #606040",
"> c #808080",
"? c #806080",
"@ c #C0C0C0",
"A c #A08080",
"B c #E0E080",
"C c #808040",
"D c #204000",
"E c #608040",
"F c #A0C040",
"G c #A0C080",
"H c #80C040",
"I c #A0E040",
"J c #C0E040",
"K c #602040",
"L c #C0E080",
"M c #80A080",
"N c #A0E080",
"O c #A0A080",
"P c #406040",
"Q c #A0A0A4",
"R c #C0DCC0",
"S c #FFFBF0",
"T c #A0A040",
"U c #C08080",
"V c None",
" !!#!!#!$!!!!%!$%$$!$&!!$!%!!%!!",
" ###!$$$#!!$$$$!$$$$!!!'(!!!!!!!",
" ###!$$)$$!$$)))$)))))'*'$!!!%!!",
"!%%!$)!!!!$$))))))))'+'$($%$$)$$",
",%%%!%!%%$)))---.-$'+''/!)))%$$$",
"%%,%%,!#!$!))))))''''/ )!!$!))))",
"%%))01))))))).)'+''(().)-)$!!!%$",
"!)))))))$))))12'()3%))-)-)!!!$$!",
"%%!%'!'!%$!0.44$#4.5)))$))!!!))$",
"))))$)))3..442464.444...)%!!!$!!",
"!)$$$$4.-).2-...742-24-.-4))))$$",
"))))$8$.425.454..446442.6-6))$$$",
")))))9-).244244422444444.79))))$",
"))))3 !6..46444+$44444646).).)$$",
")))144:(**(:446('424:'++':.4))))",
")$)142/////+44-66-46//((/(641)$)",
"!)))4$+;;*;+2.-77-<.+(++/+.6)$$)",
"$$!34$=;=+='22-='7<2>='+=?26.$$!",
"!$$3.2/*'(/$2.-@A77B(/;;/(77)!$!",
"!$$.462'('-.76->=7777===':77.!=$",
"#'#.))46762667:C-774::6777.7.'=!",
"''!4 )4764$DD+++==EC=B.777%).'$!",
"''!475)776=FFFFGFFFFEB.76.77.$='",
"''!7.)).47CFHFIIFIFJCB.B-)77.'$=",
"#K$7%.6$-7CFIIIIIIILMB.BB777.'=$",
"'+)72))6:7ENIIINLLLLM7.B:-BB.!$=",
"'()47..727ELLLLLLLLLOB.B:!B76'$$",
"+($776774B(P=CCCOQRSOS-B7R7B6'==",
"'' 77-676).22:2.T--))-AS@R7B!$==",
"*++(6766666677BBSSSSSSSSSRB:(?$$",
"''''/((((((((((((((((((!-U (>$$$",
"'''''''$$??AAAAOO:QQO::A='>A?)$$"
};
