/* XPM */
static char *splash[] = {
"128 64 3 1 0 0",
"  c #FFFFFF",
"! c #000000",
"# c None",
"                                                                                                                                ",
"                                                                                                                                ",
"  !!!       !!!                                       !!!!!!!!!!                                    !!!!!!!!!!     !!!!!!!!!!   ",
"  !!!!      !!!                                      !!!!!!!!!!!                                    !!!!!!!!!!!   !!!!!!!!!!!   ",
"  !!!!      !!!                                      !!!!!!!!!!!                                    !!!!!!!!!!!!  !!!!!!!!!!!   ",
"  !!!!!     !!!                                      !!!                                            !!!     !!!!  !!!           ",
"  !!!!!!    !!!  !!!!!!!!!  !!!    !!!  !!!!!!!!!!!  !!!         !!!!!!!!!!!  !!!!!!!!!  !!!!!!!!   !!!      !!!  !!!           ",
"  !!!!!!!   !!!  !!!!!!!!!  !!!    !!!  !!!!!!!!!!!  !!!         !!!!!!!!!!!  !!!!!!!!!  !!!!!!!!!  !!!      !!!  !!!           ",
"  !!!!!!!   !!!  !!!!!!!!!   !!!  !!!   !!!!!!!!!!!  !!!         !!!!!!!!!!!  !!!!!!!!!  !!!!!!!!!  !!!      !!!  !!!           ",
"  !!! !!!!  !!!  !!!         !!!  !!!       !!!      !!!!!!!!!!      !!!      !!!        !!!   !!!  !!!      !!!  !!!           ",
"  !!!  !!!  !!!  !!!          !!!!!!        !!!      !!!!!!!!!!!     !!!      !!!        !!!   !!!  !!!     !!!!  !!!           ",
"  !!!  !!!! !!!  !!!          !!!!!!        !!!       !!!!!!!!!!!    !!!      !!!        !!!   !!!  !!!!!!!!!!!   !!!           ",
"  !!!   !!!!!!!  !!!!!!!!      !!!!         !!!         !!!!!!!!!    !!!      !!!!!!!!   !!!   !!!  !!!!!!!!!!    !!!           ",
"  !!!    !!!!!!  !!!!!!!!      !!!!         !!!               !!!    !!!      !!!!!!!!   !!!!!!!!!  !!!!!!!!!     !!!           ",
"  !!!    !!!!!!  !!!!!!!!      !!!!         !!!               !!!    !!!      !!!!!!!!   !!!!!!!!!  !!!  !!!!     !!!           ",
"  !!!     !!!!!  !!!           !!!!         !!!               !!!    !!!      !!!        !!!!!!!!   !!!   !!!     !!!           ",
"  !!!     !!!!!  !!!          !!!!!!        !!!               !!!    !!!      !!!        !!!        !!!   !!!!    !!!           ",
"  !!!      !!!!  !!!          !!!!!!        !!!               !!!    !!!      !!!        !!!        !!!    !!!    !!!           ",
"  !!!      !!!!  !!!         !!!  !!!       !!!              !!!!    !!!      !!!        !!!        !!!    !!!!   !!!           ",
"  !!!       !!!  !!!!!!!!!   !!!  !!!       !!!      !!!!!!!!!!!!    !!!      !!!!!!!!!  !!!        !!!     !!!   !!!!!!!!!!!   ",
"  !!!       !!!  !!!!!!!!!  !!!    !!!      !!!      !!!!!!!!!!!     !!!      !!!!!!!!!  !!!        !!!     !!!!  !!!!!!!!!!!   ",
"  !!!       !!!  !!!!!!!!!  !!!    !!!      !!!      !!!!!!!!!!      !!!      !!!!!!!!!  !!!        !!!      !!!   !!!!!!!!!!   ",
"                                                                                                                                ",
"                                                                                                                                ",
"                                                                                                                                ",
"                                                                                                           !!                   ",
"                                                                                                         !!!!!                  ",
"                                                                                                         !!!!!                  ",
"                                                                                                         !!!!!                  ",
"                                                                                !!!!                     !!!!!!   !!!!!!!       ",
"                                                                               !!!!!                 !!!!!!!!!!  !!!!!!!!!!     ",
"                                                                      !!!!!   !!!!!!      !!!!!!    !!!!!!!!!!!  !!!!!!!!!!     ",
"                                                                     !!!!!!   !!!!!!    !!!!!!!!!   !!!!!!!!!!!! !!!!! !!!!!    ",
"                                                            !        !!!!!!!  !!!!!!   !!!! !!!!!!  !!!!!  !!!!! !!!!!!!!!!!!   ",
"                                                         !!!!        !!!!!!!  !!!!!!!  !!!  !!!!!!  !!!!!  !!!!! !!!!!!!!!!     ",
"                                                        !!!!!        !!!!!!!  !!!!!!!  !!! !!!!!!!  !!!!!  !!!!!!!!!!!!   !!!   ",
"                                                        !!!!!        !!!!!!!!!!!!!!!!    !!!!!!!!!  !!!!!! !!!!!! !!!!!!   !!!  ",
"                                                        !!!!!        !!!!!!!!!!!!!!!!   !!!!!!!!!!  !!!!!!!!!!!!!  !!!!!! !!!   ",
"                                                        !!!!!        !!!!!!!!!!!!!!!!  !!!!! !!!!!!  !!!!!!!!!!!!!  !!!!!!!!!   ",
"                                                    !!!!!!!!!        !!!!!!!!!!!!!!!! !!!!!  !!!!!!  !!!!!!!!!!!!!    !!!!!     ",
"          !!!!!! !!!!!!                            !!!!!!!!!!        !!!!!!!!!! !!!!! !!!!!!!!!!!!!!! !!!!!!!!!                 ",
"         !!!!!!  !!!!!!                 ! !!!!!   !!!!!!!!!!!        !!!!!!!!!! !!!!! !!!!!!!!!!!!!!!                           ",
"         !!!!!!  !!!!!              !!!!!!!!!!!   !!!!!!!!!!!        !!! !!!!!! !!!!!  !!!!!!!!!!!                              ",
"         !!!!!! !!!!!!       !!!    !!!!!!!!!!!  !!!!!! !!!!!        !!! !!!!!! !!!!!!  !!!!                                    ",
"        !!!!!!  !!!!!!   !!!!!!!!!  !!!!!!!!!!!  !!!!!  !!!!!        !!! !!!!!! !!!!!!                                          ",
"        !!!!!!  !!!!!!  !!!!!!!!!! !!!!!! !!!!!  !!!!!  !!!!!        !!!  !!!!  !!!                                             ",
"        !!!!!! !!!!!!  !!!! !!!!!! !!!!!! !!!!!  !!!!!  !!!!!        !!!  !!!!                                                  ",
"       !!!!!!!!!!!!!!  !!!  !!!!!  !!!!!  !!!!!  !!!!!  !!!!!        !!!                                                        ",
"       !!!!!!!!!!!!!!  !!! !!!!!!  !!!!!  !!!!!  !!!!! !!!!!!        !!                                                         ",
"      !!!!!!!!!!!!!!     !!!!!!!!  !!!!! !!!!!   !!!!!!!!!!!!                                                                   ",
"      !!!!!!! !!!!!!   !!!!!!!!!! !!!!!  !!!!!   !!!!!!!!!!!!                                                                   ",
"      !!!!!!  !!!!!! !!!!! !!!!!  !!!!!  !!!!!   !!!!!!!!!                                                                      ",
"     !!!!!!! !!!!!! !!!!!! !!!!!  !!!!!  !!!!!    !!!!                                                                          ",
"     !!!!!!  !!!!!! !!!!!  !!!!!  !!!!!  !!!!!                                                                                  ",
"    !!!!!!!  !!!!!! !!!!! !!!!!!! !!!!!  !!!!                                                                                   ",
"    !!!!!!! !!!!!!!!!!!!!!!!!!!!!!!!!!!                                                                                         ",
"    !!!!!!  !!!!!! !!!!!!!!!!!!!!!!                                                                                             ",
"   !!!!!!!  !!!!!!  !!!!!!  !!                                                 !!               !!!!!!  !                       ",
"   !!!!!!  !!!!!!!   !!                                                       !  ! !!  !!! !  !   !  !  !  ! !  !  !! ! !!  !!! ",
"   !!!!!!  !!!!                                                               !  ! ! ! !   !! !   !   !!   ! !! ! !   ! ! ! !   ",
"                                                                              !  ! !!  !!  ! !!   !   !!   ! ! !!  !  ! ! ! !!  ",
"                                                                              !  ! !   !   !  !   !  !  !  ! !  !   ! ! ! ! !   ",
"                                                                               !!  !   !!! !  !   !  !  !  ! !  ! !!  ! !!  !!! ",
"                                                                                                                                "
};
