G04 #@! TF.GenerationSoftware,KiCad,Pcbnew,(5.1.5)-3*
G04 #@! TF.CreationDate,2020-06-20T17:54:41+02:00*
G04 #@! TF.ProjectId,openXsensor,6f70656e-5873-4656-9e73-6f722e6b6963,rev?*
G04 #@! TF.SameCoordinates,Original*
G04 #@! TF.FileFunction,Paste,Top*
G04 #@! TF.FilePolarity,Positive*
%FSLAX46Y46*%
G04 Gerber Fmt 4.6, Leading zero omitted, Abs format (unit mm)*
G04 Created by KiCad (PCBNEW (5.1.5)-3) date 2020-06-20 17:54:41*
%MOMM*%
%LPD*%
G04 APERTURE LIST*
%ADD10C,0.100000*%
%ADD11R,1.600000X1.000000*%
%ADD12R,1.000000X1.600000*%
%ADD13R,1.700000X0.900000*%
%ADD14R,0.900000X1.700000*%
G04 APERTURE END LIST*
D10*
G36*
X160582005Y-84416204D02*
G01*
X160606273Y-84419804D01*
X160630072Y-84425765D01*
X160653171Y-84434030D01*
X160675350Y-84444520D01*
X160696393Y-84457132D01*
X160716099Y-84471747D01*
X160734277Y-84488223D01*
X160750753Y-84506401D01*
X160765368Y-84526107D01*
X160777980Y-84547150D01*
X160788470Y-84569329D01*
X160796735Y-84592428D01*
X160802696Y-84616227D01*
X160806296Y-84640495D01*
X160807500Y-84664999D01*
X160807500Y-85515001D01*
X160806296Y-85539505D01*
X160802696Y-85563773D01*
X160796735Y-85587572D01*
X160788470Y-85610671D01*
X160777980Y-85632850D01*
X160765368Y-85653893D01*
X160750753Y-85673599D01*
X160734277Y-85691777D01*
X160716099Y-85708253D01*
X160696393Y-85722868D01*
X160675350Y-85735480D01*
X160653171Y-85745970D01*
X160630072Y-85754235D01*
X160606273Y-85760196D01*
X160582005Y-85763796D01*
X160557501Y-85765000D01*
X159482499Y-85765000D01*
X159457995Y-85763796D01*
X159433727Y-85760196D01*
X159409928Y-85754235D01*
X159386829Y-85745970D01*
X159364650Y-85735480D01*
X159343607Y-85722868D01*
X159323901Y-85708253D01*
X159305723Y-85691777D01*
X159289247Y-85673599D01*
X159274632Y-85653893D01*
X159262020Y-85632850D01*
X159251530Y-85610671D01*
X159243265Y-85587572D01*
X159237304Y-85563773D01*
X159233704Y-85539505D01*
X159232500Y-85515001D01*
X159232500Y-84664999D01*
X159233704Y-84640495D01*
X159237304Y-84616227D01*
X159243265Y-84592428D01*
X159251530Y-84569329D01*
X159262020Y-84547150D01*
X159274632Y-84526107D01*
X159289247Y-84506401D01*
X159305723Y-84488223D01*
X159323901Y-84471747D01*
X159343607Y-84457132D01*
X159364650Y-84444520D01*
X159386829Y-84434030D01*
X159409928Y-84425765D01*
X159433727Y-84419804D01*
X159457995Y-84416204D01*
X159482499Y-84415000D01*
X160557501Y-84415000D01*
X160582005Y-84416204D01*
G37*
G36*
X157707005Y-84416204D02*
G01*
X157731273Y-84419804D01*
X157755072Y-84425765D01*
X157778171Y-84434030D01*
X157800350Y-84444520D01*
X157821393Y-84457132D01*
X157841099Y-84471747D01*
X157859277Y-84488223D01*
X157875753Y-84506401D01*
X157890368Y-84526107D01*
X157902980Y-84547150D01*
X157913470Y-84569329D01*
X157921735Y-84592428D01*
X157927696Y-84616227D01*
X157931296Y-84640495D01*
X157932500Y-84664999D01*
X157932500Y-85515001D01*
X157931296Y-85539505D01*
X157927696Y-85563773D01*
X157921735Y-85587572D01*
X157913470Y-85610671D01*
X157902980Y-85632850D01*
X157890368Y-85653893D01*
X157875753Y-85673599D01*
X157859277Y-85691777D01*
X157841099Y-85708253D01*
X157821393Y-85722868D01*
X157800350Y-85735480D01*
X157778171Y-85745970D01*
X157755072Y-85754235D01*
X157731273Y-85760196D01*
X157707005Y-85763796D01*
X157682501Y-85765000D01*
X156607499Y-85765000D01*
X156582995Y-85763796D01*
X156558727Y-85760196D01*
X156534928Y-85754235D01*
X156511829Y-85745970D01*
X156489650Y-85735480D01*
X156468607Y-85722868D01*
X156448901Y-85708253D01*
X156430723Y-85691777D01*
X156414247Y-85673599D01*
X156399632Y-85653893D01*
X156387020Y-85632850D01*
X156376530Y-85610671D01*
X156368265Y-85587572D01*
X156362304Y-85563773D01*
X156358704Y-85539505D01*
X156357500Y-85515001D01*
X156357500Y-84664999D01*
X156358704Y-84640495D01*
X156362304Y-84616227D01*
X156368265Y-84592428D01*
X156376530Y-84569329D01*
X156387020Y-84547150D01*
X156399632Y-84526107D01*
X156414247Y-84506401D01*
X156430723Y-84488223D01*
X156448901Y-84471747D01*
X156468607Y-84457132D01*
X156489650Y-84444520D01*
X156511829Y-84434030D01*
X156534928Y-84425765D01*
X156558727Y-84419804D01*
X156582995Y-84416204D01*
X156607499Y-84415000D01*
X157682501Y-84415000D01*
X157707005Y-84416204D01*
G37*
D11*
X160020000Y-103505000D03*
X160020000Y-100505000D03*
D12*
X162385000Y-113030000D03*
X159385000Y-113030000D03*
X149225000Y-106680000D03*
X146225000Y-106680000D03*
X146225000Y-104140000D03*
X149225000Y-104140000D03*
D13*
X143510000Y-94636000D03*
X143510000Y-97536000D03*
X146050000Y-97536000D03*
X146050000Y-94636000D03*
X148590000Y-94636000D03*
X148590000Y-97536000D03*
X143510000Y-93091000D03*
X143510000Y-90191000D03*
X146050000Y-90191000D03*
X146050000Y-93091000D03*
X148590000Y-90191000D03*
X148590000Y-93091000D03*
X140970000Y-100330000D03*
X140970000Y-97430000D03*
D14*
X140462000Y-105410000D03*
X143362000Y-105410000D03*
M02*
