%FSLAX45Y45*%
G04 Gerber Fmt 4.5, Leading zero omitted, Abs format (unit mm)*
G04 Created by KiCad (PCBNEW (5.1.5)-3) date 2020-06-20 17:59:58*
%MOMM*%
%LPD*%
G04 APERTURE LIST*
%TA.AperFunction,Profile*%
%ADD10C,0.100000*%
%TD*%
%ADD11C,0.200000*%
%ADD12C,0.300000*%
G04 APERTURE END LIST*
D10*
X16510000Y-8255000D02*
X13271500Y-8255000D01*
X16510000Y-11557000D02*
X13271500Y-11557000D01*
X13271500Y-11557000D02*
X13271500Y-8255000D01*
X16510000Y-11557000D02*
X16510000Y-8255000D01*
D11*
D12*
X13552928Y-12027714D02*
X13552928Y-11727714D01*
X13624357Y-11727714D01*
X13667214Y-11742000D01*
X13695786Y-11770571D01*
X13710071Y-11799143D01*
X13724357Y-11856286D01*
X13724357Y-11899143D01*
X13710071Y-11956286D01*
X13695786Y-11984857D01*
X13667214Y-12013429D01*
X13624357Y-12027714D01*
X13552928Y-12027714D01*
X13852928Y-12027714D02*
X13852928Y-11827714D01*
X13852928Y-11884857D02*
X13867214Y-11856286D01*
X13881500Y-11842000D01*
X13910071Y-11827714D01*
X13938643Y-11827714D01*
X14038643Y-12027714D02*
X14038643Y-11827714D01*
X14038643Y-11727714D02*
X14024357Y-11742000D01*
X14038643Y-11756286D01*
X14052928Y-11742000D01*
X14038643Y-11727714D01*
X14038643Y-11756286D01*
X14224357Y-12027714D02*
X14195786Y-12013429D01*
X14181500Y-11984857D01*
X14181500Y-11727714D01*
X14381500Y-12027714D02*
X14352928Y-12013429D01*
X14338643Y-11984857D01*
X14338643Y-11727714D01*
X14724357Y-12027714D02*
X14724357Y-11727714D01*
X14824357Y-11942000D01*
X14924357Y-11727714D01*
X14924357Y-12027714D01*
X15195786Y-12027714D02*
X15195786Y-11870571D01*
X15181500Y-11842000D01*
X15152928Y-11827714D01*
X15095786Y-11827714D01*
X15067214Y-11842000D01*
X15195786Y-12013429D02*
X15167214Y-12027714D01*
X15095786Y-12027714D01*
X15067214Y-12013429D01*
X15052928Y-11984857D01*
X15052928Y-11956286D01*
X15067214Y-11927714D01*
X15095786Y-11913429D01*
X15167214Y-11913429D01*
X15195786Y-11899143D01*
X15338643Y-11827714D02*
X15338643Y-12127714D01*
X15338643Y-11842000D02*
X15367214Y-11827714D01*
X15424357Y-11827714D01*
X15452928Y-11842000D01*
X15467214Y-11856286D01*
X15481500Y-11884857D01*
X15481500Y-11970571D01*
X15467214Y-11999143D01*
X15452928Y-12013429D01*
X15424357Y-12027714D01*
X15367214Y-12027714D01*
X15338643Y-12013429D01*
X15610071Y-11999143D02*
X15624357Y-12013429D01*
X15610071Y-12027714D01*
X15595786Y-12013429D01*
X15610071Y-11999143D01*
X15610071Y-12027714D01*
X15610071Y-11842000D02*
X15624357Y-11856286D01*
X15610071Y-11870571D01*
X15595786Y-11856286D01*
X15610071Y-11842000D01*
X15610071Y-11870571D01*
M02*
