%FSLAX45Y45*%
G04 Gerber Fmt 4.5, Leading zero omitted, Abs format (unit mm)*
G04 Created by KiCad (PCBNEW (5.1.5)-3) date 2020-06-20 17:59:58*
%MOMM*%
%LPD*%
G04 APERTURE LIST*
%TA.AperFunction,Profile*%
%ADD10C,0.100000*%
%TD*%
%ADD11C,0.200000*%
%ADD12C,0.300000*%
G04 APERTURE END LIST*
D10*
X16510000Y-8255000D02*
X13271500Y-8255000D01*
X16510000Y-11557000D02*
X13271500Y-11557000D01*
X13271500Y-11557000D02*
X13271500Y-8255000D01*
X16510000Y-11557000D02*
X16510000Y-8255000D01*
D11*
X14041600Y-10790400D02*
X14101600Y-10850400D01*
X14101600Y-10790400D02*
X14041600Y-10850400D01*
X14130500Y-9876000D02*
X14190500Y-9936000D01*
X14190500Y-9876000D02*
X14130500Y-9936000D01*
X14371800Y-9849400D02*
X14431800Y-9909400D01*
X14431800Y-9849400D02*
X14371800Y-9909400D01*
X14397200Y-10511000D02*
X14457200Y-10571000D01*
X14457200Y-10511000D02*
X14397200Y-10571000D01*
X14486100Y-10599900D02*
X14546100Y-10659900D01*
X14546100Y-10599900D02*
X14486100Y-10659900D01*
X14727400Y-10384000D02*
X14787400Y-10444000D01*
X14787400Y-10384000D02*
X14727400Y-10444000D01*
X14740100Y-9837900D02*
X14800100Y-9897900D01*
X14800100Y-9837900D02*
X14740100Y-9897900D01*
X14790900Y-10638000D02*
X14850900Y-10698000D01*
X14850900Y-10638000D02*
X14790900Y-10698000D01*
X14981400Y-9114000D02*
X15041400Y-9174000D01*
X15041400Y-9114000D02*
X14981400Y-9174000D01*
X15502100Y-10892000D02*
X15562100Y-10952000D01*
X15562100Y-10892000D02*
X15502100Y-10952000D01*
X15578300Y-8771100D02*
X15638300Y-8831100D01*
X15638300Y-8771100D02*
X15578300Y-8831100D01*
X15591000Y-8593300D02*
X15651000Y-8653300D01*
X15651000Y-8593300D02*
X15591000Y-8653300D01*
X15972000Y-10130000D02*
X16032000Y-10190000D01*
X16032000Y-10130000D02*
X15972000Y-10190000D01*
X16099000Y-11273000D02*
X16159000Y-11333000D01*
X16159000Y-11273000D02*
X16099000Y-11333000D01*
X14147000Y-11303000D02*
G75*
G03X14147000Y-11303000I-50000J0D01*
G01*
X14401000Y-11303000D02*
G75*
G03X14401000Y-11303000I-50000J0D01*
G01*
X14655000Y-11303000D02*
G75*
G03X14655000Y-11303000I-50000J0D01*
G01*
X14401000Y-8509000D02*
G75*
G03X14401000Y-8509000I-50000J0D01*
G01*
X14655000Y-8509000D02*
G75*
G03X14655000Y-8509000I-50000J0D01*
G01*
X14909000Y-8509000D02*
G75*
G03X14909000Y-8509000I-50000J0D01*
G01*
X15163000Y-8509000D02*
G75*
G03X15163000Y-8509000I-50000J0D01*
G01*
X13575500Y-9525000D02*
G75*
G03X13575500Y-9525000I-50000J0D01*
G01*
X13575500Y-9779000D02*
G75*
G03X13575500Y-9779000I-50000J0D01*
G01*
X13575500Y-10033000D02*
G75*
G03X13575500Y-10033000I-50000J0D01*
G01*
X16052000Y-8763000D02*
G75*
G03X16052000Y-8763000I-50000J0D01*
G01*
X16052000Y-9017000D02*
G75*
G03X16052000Y-9017000I-50000J0D01*
G01*
X16052000Y-9271000D02*
G75*
G03X16052000Y-9271000I-50000J0D01*
G01*
X16052000Y-9525000D02*
G75*
G03X16052000Y-9525000I-50000J0D01*
G01*
X16052000Y-9779000D02*
G75*
G03X16052000Y-9779000I-50000J0D01*
G01*
X16306000Y-10287000D02*
G75*
G03X16306000Y-10287000I-50000J0D01*
G01*
X16306000Y-10541000D02*
G75*
G03X16306000Y-10541000I-50000J0D01*
G01*
X16306000Y-10795000D02*
G75*
G03X16306000Y-10795000I-50000J0D01*
G01*
X16306000Y-11049000D02*
G75*
G03X16306000Y-11049000I-50000J0D01*
G01*
X13575500Y-10287000D02*
G75*
G03X13575500Y-10287000I-50000J0D01*
G01*
X13575500Y-10541000D02*
G75*
G03X13575500Y-10541000I-50000J0D01*
G01*
X13575500Y-10795000D02*
G75*
G03X13575500Y-10795000I-50000J0D01*
G01*
X13575500Y-11049000D02*
G75*
G03X13575500Y-11049000I-50000J0D01*
G01*
X13575500Y-11303000D02*
G75*
G03X13575500Y-11303000I-50000J0D01*
G01*
X16052000Y-10541000D02*
G75*
G03X16052000Y-10541000I-50000J0D01*
G01*
X16052000Y-10795000D02*
G75*
G03X16052000Y-10795000I-50000J0D01*
G01*
X16052000Y-11049000D02*
G75*
G03X16052000Y-11049000I-50000J0D01*
G01*
X16306000Y-8509000D02*
G75*
G03X16306000Y-8509000I-50000J0D01*
G01*
X16306000Y-8763000D02*
G75*
G03X16306000Y-8763000I-50000J0D01*
G01*
X16306000Y-9017000D02*
G75*
G03X16306000Y-9017000I-50000J0D01*
G01*
X13575500Y-8763000D02*
G75*
G03X13575500Y-8763000I-50000J0D01*
G01*
X13575500Y-9017000D02*
G75*
G03X13575500Y-9017000I-50000J0D01*
G01*
X14909000Y-11049000D02*
G75*
G03X14909000Y-11049000I-50000J0D01*
G01*
X14909000Y-11303000D02*
G75*
G03X14909000Y-11303000I-50000J0D01*
G01*
X14147000Y-11049000D02*
G75*
G03X14147000Y-11049000I-50000J0D01*
G01*
X14401000Y-11049000D02*
G75*
G03X14401000Y-11049000I-50000J0D01*
G01*
X14655000Y-11049000D02*
G75*
G03X14655000Y-11049000I-50000J0D01*
G01*
X15734500Y-9017000D02*
G75*
G03X15734500Y-9017000I-50000J0D01*
G01*
X15734500Y-9271000D02*
G75*
G03X15734500Y-9271000I-50000J0D01*
G01*
X15734500Y-9525000D02*
G75*
G03X15734500Y-9525000I-50000J0D01*
G01*
X15734500Y-9779000D02*
G75*
G03X15734500Y-9779000I-50000J0D01*
G01*
X15734500Y-10033000D02*
G75*
G03X15734500Y-10033000I-50000J0D01*
G01*
X15734500Y-10287000D02*
G75*
G03X15734500Y-10287000I-50000J0D01*
G01*
X15734500Y-10541000D02*
G75*
G03X15734500Y-10541000I-50000J0D01*
G01*
X15734500Y-10795000D02*
G75*
G03X15734500Y-10795000I-50000J0D01*
G01*
X15734500Y-11049000D02*
G75*
G03X15734500Y-11049000I-50000J0D01*
G01*
X15734500Y-11303000D02*
G75*
G03X15734500Y-11303000I-50000J0D01*
G01*
X14147000Y-8763000D02*
G75*
G03X14147000Y-8763000I-50000J0D01*
G01*
X14401000Y-8763000D02*
G75*
G03X14401000Y-8763000I-50000J0D01*
G01*
X14655000Y-8763000D02*
G75*
G03X14655000Y-8763000I-50000J0D01*
G01*
X14909000Y-8763000D02*
G75*
G03X14909000Y-8763000I-50000J0D01*
G01*
X15163000Y-8763000D02*
G75*
G03X15163000Y-8763000I-50000J0D01*
G01*
X15163000Y-11049000D02*
G75*
G03X15163000Y-11049000I-50000J0D01*
G01*
X15163000Y-11303000D02*
G75*
G03X15163000Y-11303000I-50000J0D01*
G01*
X16306000Y-9271000D02*
G75*
G03X16306000Y-9271000I-50000J0D01*
G01*
X16306000Y-9525000D02*
G75*
G03X16306000Y-9525000I-50000J0D01*
G01*
X16306000Y-9779000D02*
G75*
G03X16306000Y-9779000I-50000J0D01*
G01*
X16306000Y-10033000D02*
G75*
G03X16306000Y-10033000I-50000J0D01*
G01*
X15367000Y-8458200D02*
X15367000Y-8559800D01*
X15316200Y-8509000D02*
X15417800Y-8509000D01*
X15367000Y-8712200D02*
X15367000Y-8813800D01*
X15316200Y-8763000D02*
X15417800Y-8763000D01*
X15367000Y-8966200D02*
X15367000Y-9067800D01*
X15316200Y-9017000D02*
X15417800Y-9017000D01*
X15367000Y-9220200D02*
X15367000Y-9321800D01*
X15316200Y-9271000D02*
X15417800Y-9271000D01*
X15367000Y-9474200D02*
X15367000Y-9575800D01*
X15316200Y-9525000D02*
X15417800Y-9525000D01*
X15367000Y-9728200D02*
X15367000Y-9829800D01*
X15316200Y-9779000D02*
X15417800Y-9779000D01*
X15367000Y-9982200D02*
X15367000Y-10083800D01*
X15316200Y-10033000D02*
X15417800Y-10033000D01*
X15367000Y-10236200D02*
X15367000Y-10337800D01*
X15316200Y-10287000D02*
X15417800Y-10287000D01*
X15367000Y-10490200D02*
X15367000Y-10591800D01*
X15316200Y-10541000D02*
X15417800Y-10541000D01*
X15367000Y-10744200D02*
X15367000Y-10845800D01*
X15316200Y-10795000D02*
X15417800Y-10795000D01*
X15367000Y-10998200D02*
X15367000Y-11099800D01*
X15316200Y-11049000D02*
X15417800Y-11049000D01*
X15367000Y-11252200D02*
X15367000Y-11353800D01*
X15316200Y-11303000D02*
X15417800Y-11303000D01*
X13843000Y-8458200D02*
X13843000Y-8559800D01*
X13792200Y-8509000D02*
X13893800Y-8509000D01*
X13843000Y-8712200D02*
X13843000Y-8813800D01*
X13792200Y-8763000D02*
X13893800Y-8763000D01*
X13843000Y-8966200D02*
X13843000Y-9067800D01*
X13792200Y-9017000D02*
X13893800Y-9017000D01*
X13843000Y-9220200D02*
X13843000Y-9321800D01*
X13792200Y-9271000D02*
X13893800Y-9271000D01*
X13843000Y-9474200D02*
X13843000Y-9575800D01*
X13792200Y-9525000D02*
X13893800Y-9525000D01*
X13843000Y-9728200D02*
X13843000Y-9829800D01*
X13792200Y-9779000D02*
X13893800Y-9779000D01*
X13843000Y-9982200D02*
X13843000Y-10083800D01*
X13792200Y-10033000D02*
X13893800Y-10033000D01*
X13843000Y-10236200D02*
X13843000Y-10337800D01*
X13792200Y-10287000D02*
X13893800Y-10287000D01*
X13843000Y-10490200D02*
X13843000Y-10591800D01*
X13792200Y-10541000D02*
X13893800Y-10541000D01*
X13843000Y-10744200D02*
X13843000Y-10845800D01*
X13792200Y-10795000D02*
X13893800Y-10795000D01*
X13843000Y-10998200D02*
X13843000Y-11099800D01*
X13792200Y-11049000D02*
X13893800Y-11049000D01*
X13843000Y-11252200D02*
X13843000Y-11353800D01*
X13792200Y-11303000D02*
X13893800Y-11303000D01*
X15113000Y-9347200D02*
X15113000Y-9448800D01*
X15062200Y-9398000D02*
X15163800Y-9398000D01*
X15113000Y-9601200D02*
X15113000Y-9702800D01*
X15062200Y-9652000D02*
X15163800Y-9652000D01*
X15113000Y-10363200D02*
X15113000Y-10464800D01*
X15062200Y-10414000D02*
X15163800Y-10414000D01*
X15113000Y-10617200D02*
X15113000Y-10718800D01*
X15062200Y-10668000D02*
X15163800Y-10668000D01*
D12*
X13552928Y-12027714D02*
X13552928Y-11727714D01*
X13624357Y-11727714D01*
X13667214Y-11742000D01*
X13695786Y-11770571D01*
X13710071Y-11799143D01*
X13724357Y-11856286D01*
X13724357Y-11899143D01*
X13710071Y-11956286D01*
X13695786Y-11984857D01*
X13667214Y-12013429D01*
X13624357Y-12027714D01*
X13552928Y-12027714D01*
X13852928Y-12027714D02*
X13852928Y-11827714D01*
X13852928Y-11884857D02*
X13867214Y-11856286D01*
X13881500Y-11842000D01*
X13910071Y-11827714D01*
X13938643Y-11827714D01*
X14038643Y-12027714D02*
X14038643Y-11827714D01*
X14038643Y-11727714D02*
X14024357Y-11742000D01*
X14038643Y-11756286D01*
X14052928Y-11742000D01*
X14038643Y-11727714D01*
X14038643Y-11756286D01*
X14224357Y-12027714D02*
X14195786Y-12013429D01*
X14181500Y-11984857D01*
X14181500Y-11727714D01*
X14381500Y-12027714D02*
X14352928Y-12013429D01*
X14338643Y-11984857D01*
X14338643Y-11727714D01*
X14724357Y-12027714D02*
X14724357Y-11727714D01*
X14824357Y-11942000D01*
X14924357Y-11727714D01*
X14924357Y-12027714D01*
X15195786Y-12027714D02*
X15195786Y-11870571D01*
X15181500Y-11842000D01*
X15152928Y-11827714D01*
X15095786Y-11827714D01*
X15067214Y-11842000D01*
X15195786Y-12013429D02*
X15167214Y-12027714D01*
X15095786Y-12027714D01*
X15067214Y-12013429D01*
X15052928Y-11984857D01*
X15052928Y-11956286D01*
X15067214Y-11927714D01*
X15095786Y-11913429D01*
X15167214Y-11913429D01*
X15195786Y-11899143D01*
X15338643Y-11827714D02*
X15338643Y-12127714D01*
X15338643Y-11842000D02*
X15367214Y-11827714D01*
X15424357Y-11827714D01*
X15452928Y-11842000D01*
X15467214Y-11856286D01*
X15481500Y-11884857D01*
X15481500Y-11970571D01*
X15467214Y-11999143D01*
X15452928Y-12013429D01*
X15424357Y-12027714D01*
X15367214Y-12027714D01*
X15338643Y-12013429D01*
X15610071Y-11999143D02*
X15624357Y-12013429D01*
X15610071Y-12027714D01*
X15595786Y-12013429D01*
X15610071Y-11999143D01*
X15610071Y-12027714D01*
X15610071Y-11842000D02*
X15624357Y-11856286D01*
X15610071Y-11870571D01*
X15595786Y-11856286D01*
X15610071Y-11842000D01*
X15610071Y-11870571D01*
X13206500Y-12492000D02*
X13266500Y-12552000D01*
X13266500Y-12492000D02*
X13206500Y-12552000D01*
X13610071Y-12357714D02*
X13638643Y-12357714D01*
X13667214Y-12372000D01*
X13681500Y-12386286D01*
X13695786Y-12414857D01*
X13710071Y-12472000D01*
X13710071Y-12543429D01*
X13695786Y-12600571D01*
X13681500Y-12629143D01*
X13667214Y-12643429D01*
X13638643Y-12657714D01*
X13610071Y-12657714D01*
X13581500Y-12643429D01*
X13567214Y-12629143D01*
X13552928Y-12600571D01*
X13538643Y-12543429D01*
X13538643Y-12472000D01*
X13552928Y-12414857D01*
X13567214Y-12386286D01*
X13581500Y-12372000D01*
X13610071Y-12357714D01*
X13838643Y-12629143D02*
X13852928Y-12643429D01*
X13838643Y-12657714D01*
X13824357Y-12643429D01*
X13838643Y-12629143D01*
X13838643Y-12657714D01*
X14110071Y-12357714D02*
X14052928Y-12357714D01*
X14024357Y-12372000D01*
X14010071Y-12386286D01*
X13981500Y-12429143D01*
X13967214Y-12486286D01*
X13967214Y-12600571D01*
X13981500Y-12629143D01*
X13995786Y-12643429D01*
X14024357Y-12657714D01*
X14081500Y-12657714D01*
X14110071Y-12643429D01*
X14124357Y-12629143D01*
X14138643Y-12600571D01*
X14138643Y-12529143D01*
X14124357Y-12500571D01*
X14110071Y-12486286D01*
X14081500Y-12472000D01*
X14024357Y-12472000D01*
X13995786Y-12486286D01*
X13981500Y-12500571D01*
X13967214Y-12529143D01*
X14324357Y-12357714D02*
X14352928Y-12357714D01*
X14381500Y-12372000D01*
X14395786Y-12386286D01*
X14410071Y-12414857D01*
X14424357Y-12472000D01*
X14424357Y-12543429D01*
X14410071Y-12600571D01*
X14395786Y-12629143D01*
X14381500Y-12643429D01*
X14352928Y-12657714D01*
X14324357Y-12657714D01*
X14295786Y-12643429D01*
X14281500Y-12629143D01*
X14267214Y-12600571D01*
X14252928Y-12543429D01*
X14252928Y-12472000D01*
X14267214Y-12414857D01*
X14281500Y-12386286D01*
X14295786Y-12372000D01*
X14324357Y-12357714D01*
X14552928Y-12657714D02*
X14552928Y-12457714D01*
X14552928Y-12486286D02*
X14567214Y-12472000D01*
X14595786Y-12457714D01*
X14638643Y-12457714D01*
X14667214Y-12472000D01*
X14681500Y-12500571D01*
X14681500Y-12657714D01*
X14681500Y-12500571D02*
X14695786Y-12472000D01*
X14724357Y-12457714D01*
X14767214Y-12457714D01*
X14795786Y-12472000D01*
X14810071Y-12500571D01*
X14810071Y-12657714D01*
X14952928Y-12657714D02*
X14952928Y-12457714D01*
X14952928Y-12486286D02*
X14967214Y-12472000D01*
X14995786Y-12457714D01*
X15038643Y-12457714D01*
X15067214Y-12472000D01*
X15081500Y-12500571D01*
X15081500Y-12657714D01*
X15081500Y-12500571D02*
X15095786Y-12472000D01*
X15124357Y-12457714D01*
X15167214Y-12457714D01*
X15195786Y-12472000D01*
X15210071Y-12500571D01*
X15210071Y-12657714D01*
X15795786Y-12343429D02*
X15538643Y-12729143D01*
X16181500Y-12357714D02*
X16210071Y-12357714D01*
X16238643Y-12372000D01*
X16252928Y-12386286D01*
X16267214Y-12414857D01*
X16281500Y-12472000D01*
X16281500Y-12543429D01*
X16267214Y-12600571D01*
X16252928Y-12629143D01*
X16238643Y-12643429D01*
X16210071Y-12657714D01*
X16181500Y-12657714D01*
X16152928Y-12643429D01*
X16138643Y-12629143D01*
X16124357Y-12600571D01*
X16110071Y-12543429D01*
X16110071Y-12472000D01*
X16124357Y-12414857D01*
X16138643Y-12386286D01*
X16152928Y-12372000D01*
X16181500Y-12357714D01*
X16410071Y-12629143D02*
X16424357Y-12643429D01*
X16410071Y-12657714D01*
X16395786Y-12643429D01*
X16410071Y-12629143D01*
X16410071Y-12657714D01*
X16610071Y-12357714D02*
X16638643Y-12357714D01*
X16667214Y-12372000D01*
X16681500Y-12386286D01*
X16695786Y-12414857D01*
X16710071Y-12472000D01*
X16710071Y-12543429D01*
X16695786Y-12600571D01*
X16681500Y-12629143D01*
X16667214Y-12643429D01*
X16638643Y-12657714D01*
X16610071Y-12657714D01*
X16581500Y-12643429D01*
X16567214Y-12629143D01*
X16552928Y-12600571D01*
X16538643Y-12543429D01*
X16538643Y-12472000D01*
X16552928Y-12414857D01*
X16567214Y-12386286D01*
X16581500Y-12372000D01*
X16610071Y-12357714D01*
X16824357Y-12386286D02*
X16838643Y-12372000D01*
X16867214Y-12357714D01*
X16938643Y-12357714D01*
X16967214Y-12372000D01*
X16981500Y-12386286D01*
X16995786Y-12414857D01*
X16995786Y-12443429D01*
X16981500Y-12486286D01*
X16810071Y-12657714D01*
X16995786Y-12657714D01*
X17252928Y-12457714D02*
X17252928Y-12657714D01*
X17181500Y-12343429D02*
X17110071Y-12557714D01*
X17295786Y-12557714D01*
X17395786Y-12357714D02*
X17395786Y-12414857D01*
X17510071Y-12357714D02*
X17510071Y-12414857D01*
X17952928Y-12772000D02*
X17938643Y-12757714D01*
X17910071Y-12714857D01*
X17895786Y-12686286D01*
X17881500Y-12643429D01*
X17867214Y-12572000D01*
X17867214Y-12514857D01*
X17881500Y-12443429D01*
X17895786Y-12400571D01*
X17910071Y-12372000D01*
X17938643Y-12329143D01*
X17952928Y-12314857D01*
X18224357Y-12657714D02*
X18052928Y-12657714D01*
X18138643Y-12657714D02*
X18138643Y-12357714D01*
X18110071Y-12400571D01*
X18081500Y-12429143D01*
X18052928Y-12443429D01*
X18481500Y-12457714D02*
X18481500Y-12657714D01*
X18410071Y-12343429D02*
X18338643Y-12557714D01*
X18524357Y-12557714D01*
X18867214Y-12657714D02*
X18867214Y-12357714D01*
X18995786Y-12657714D02*
X18995786Y-12500571D01*
X18981500Y-12472000D01*
X18952928Y-12457714D01*
X18910071Y-12457714D01*
X18881500Y-12472000D01*
X18867214Y-12486286D01*
X19181500Y-12657714D02*
X19152928Y-12643429D01*
X19138643Y-12629143D01*
X19124357Y-12600571D01*
X19124357Y-12514857D01*
X19138643Y-12486286D01*
X19152928Y-12472000D01*
X19181500Y-12457714D01*
X19224357Y-12457714D01*
X19252928Y-12472000D01*
X19267214Y-12486286D01*
X19281500Y-12514857D01*
X19281500Y-12600571D01*
X19267214Y-12629143D01*
X19252928Y-12643429D01*
X19224357Y-12657714D01*
X19181500Y-12657714D01*
X19452928Y-12657714D02*
X19424357Y-12643429D01*
X19410071Y-12614857D01*
X19410071Y-12357714D01*
X19681500Y-12643429D02*
X19652928Y-12657714D01*
X19595786Y-12657714D01*
X19567214Y-12643429D01*
X19552928Y-12614857D01*
X19552928Y-12500571D01*
X19567214Y-12472000D01*
X19595786Y-12457714D01*
X19652928Y-12457714D01*
X19681500Y-12472000D01*
X19695786Y-12500571D01*
X19695786Y-12529143D01*
X19552928Y-12557714D01*
X19810071Y-12643429D02*
X19838643Y-12657714D01*
X19895786Y-12657714D01*
X19924357Y-12643429D01*
X19938643Y-12614857D01*
X19938643Y-12600571D01*
X19924357Y-12572000D01*
X19895786Y-12557714D01*
X19852928Y-12557714D01*
X19824357Y-12543429D01*
X19810071Y-12514857D01*
X19810071Y-12500571D01*
X19824357Y-12472000D01*
X19852928Y-12457714D01*
X19895786Y-12457714D01*
X19924357Y-12472000D01*
X20038643Y-12772000D02*
X20052928Y-12757714D01*
X20081500Y-12714857D01*
X20095786Y-12686286D01*
X20110071Y-12643429D01*
X20124357Y-12572000D01*
X20124357Y-12514857D01*
X20110071Y-12443429D01*
X20095786Y-12400571D01*
X20081500Y-12372000D01*
X20052928Y-12329143D01*
X20038643Y-12314857D01*
X13266500Y-12918000D02*
G75*
G03X13266500Y-12918000I-50000J0D01*
G01*
X13710071Y-13053714D02*
X13538643Y-13053714D01*
X13624357Y-13053714D02*
X13624357Y-12753714D01*
X13595786Y-12796571D01*
X13567214Y-12825143D01*
X13538643Y-12839429D01*
X13838643Y-13025143D02*
X13852928Y-13039429D01*
X13838643Y-13053714D01*
X13824357Y-13039429D01*
X13838643Y-13025143D01*
X13838643Y-13053714D01*
X14038643Y-12753714D02*
X14067214Y-12753714D01*
X14095786Y-12768000D01*
X14110071Y-12782286D01*
X14124357Y-12810857D01*
X14138643Y-12868000D01*
X14138643Y-12939429D01*
X14124357Y-12996571D01*
X14110071Y-13025143D01*
X14095786Y-13039429D01*
X14067214Y-13053714D01*
X14038643Y-13053714D01*
X14010071Y-13039429D01*
X13995786Y-13025143D01*
X13981500Y-12996571D01*
X13967214Y-12939429D01*
X13967214Y-12868000D01*
X13981500Y-12810857D01*
X13995786Y-12782286D01*
X14010071Y-12768000D01*
X14038643Y-12753714D01*
X14324357Y-12753714D02*
X14352928Y-12753714D01*
X14381500Y-12768000D01*
X14395786Y-12782286D01*
X14410071Y-12810857D01*
X14424357Y-12868000D01*
X14424357Y-12939429D01*
X14410071Y-12996571D01*
X14395786Y-13025143D01*
X14381500Y-13039429D01*
X14352928Y-13053714D01*
X14324357Y-13053714D01*
X14295786Y-13039429D01*
X14281500Y-13025143D01*
X14267214Y-12996571D01*
X14252928Y-12939429D01*
X14252928Y-12868000D01*
X14267214Y-12810857D01*
X14281500Y-12782286D01*
X14295786Y-12768000D01*
X14324357Y-12753714D01*
X14552928Y-13053714D02*
X14552928Y-12853714D01*
X14552928Y-12882286D02*
X14567214Y-12868000D01*
X14595786Y-12853714D01*
X14638643Y-12853714D01*
X14667214Y-12868000D01*
X14681500Y-12896571D01*
X14681500Y-13053714D01*
X14681500Y-12896571D02*
X14695786Y-12868000D01*
X14724357Y-12853714D01*
X14767214Y-12853714D01*
X14795786Y-12868000D01*
X14810071Y-12896571D01*
X14810071Y-13053714D01*
X14952928Y-13053714D02*
X14952928Y-12853714D01*
X14952928Y-12882286D02*
X14967214Y-12868000D01*
X14995786Y-12853714D01*
X15038643Y-12853714D01*
X15067214Y-12868000D01*
X15081500Y-12896571D01*
X15081500Y-13053714D01*
X15081500Y-12896571D02*
X15095786Y-12868000D01*
X15124357Y-12853714D01*
X15167214Y-12853714D01*
X15195786Y-12868000D01*
X15210071Y-12896571D01*
X15210071Y-13053714D01*
X15795786Y-12739429D02*
X15538643Y-13125143D01*
X16181500Y-12753714D02*
X16210071Y-12753714D01*
X16238643Y-12768000D01*
X16252928Y-12782286D01*
X16267214Y-12810857D01*
X16281500Y-12868000D01*
X16281500Y-12939429D01*
X16267214Y-12996571D01*
X16252928Y-13025143D01*
X16238643Y-13039429D01*
X16210071Y-13053714D01*
X16181500Y-13053714D01*
X16152928Y-13039429D01*
X16138643Y-13025143D01*
X16124357Y-12996571D01*
X16110071Y-12939429D01*
X16110071Y-12868000D01*
X16124357Y-12810857D01*
X16138643Y-12782286D01*
X16152928Y-12768000D01*
X16181500Y-12753714D01*
X16410071Y-13025143D02*
X16424357Y-13039429D01*
X16410071Y-13053714D01*
X16395786Y-13039429D01*
X16410071Y-13025143D01*
X16410071Y-13053714D01*
X16610071Y-12753714D02*
X16638643Y-12753714D01*
X16667214Y-12768000D01*
X16681500Y-12782286D01*
X16695786Y-12810857D01*
X16710071Y-12868000D01*
X16710071Y-12939429D01*
X16695786Y-12996571D01*
X16681500Y-13025143D01*
X16667214Y-13039429D01*
X16638643Y-13053714D01*
X16610071Y-13053714D01*
X16581500Y-13039429D01*
X16567214Y-13025143D01*
X16552928Y-12996571D01*
X16538643Y-12939429D01*
X16538643Y-12868000D01*
X16552928Y-12810857D01*
X16567214Y-12782286D01*
X16581500Y-12768000D01*
X16610071Y-12753714D01*
X16810071Y-12753714D02*
X16995786Y-12753714D01*
X16895786Y-12868000D01*
X16938643Y-12868000D01*
X16967214Y-12882286D01*
X16981500Y-12896571D01*
X16995786Y-12925143D01*
X16995786Y-12996571D01*
X16981500Y-13025143D01*
X16967214Y-13039429D01*
X16938643Y-13053714D01*
X16852928Y-13053714D01*
X16824357Y-13039429D01*
X16810071Y-13025143D01*
X17138643Y-13053714D02*
X17195786Y-13053714D01*
X17224357Y-13039429D01*
X17238643Y-13025143D01*
X17267214Y-12982286D01*
X17281500Y-12925143D01*
X17281500Y-12810857D01*
X17267214Y-12782286D01*
X17252928Y-12768000D01*
X17224357Y-12753714D01*
X17167214Y-12753714D01*
X17138643Y-12768000D01*
X17124357Y-12782286D01*
X17110071Y-12810857D01*
X17110071Y-12882286D01*
X17124357Y-12910857D01*
X17138643Y-12925143D01*
X17167214Y-12939429D01*
X17224357Y-12939429D01*
X17252928Y-12925143D01*
X17267214Y-12910857D01*
X17281500Y-12882286D01*
X17395786Y-12753714D02*
X17395786Y-12810857D01*
X17510071Y-12753714D02*
X17510071Y-12810857D01*
X17952928Y-13168000D02*
X17938643Y-13153714D01*
X17910071Y-13110857D01*
X17895786Y-13082286D01*
X17881500Y-13039429D01*
X17867214Y-12968000D01*
X17867214Y-12910857D01*
X17881500Y-12839429D01*
X17895786Y-12796571D01*
X17910071Y-12768000D01*
X17938643Y-12725143D01*
X17952928Y-12710857D01*
X18210071Y-12753714D02*
X18067214Y-12753714D01*
X18052928Y-12896571D01*
X18067214Y-12882286D01*
X18095786Y-12868000D01*
X18167214Y-12868000D01*
X18195786Y-12882286D01*
X18210071Y-12896571D01*
X18224357Y-12925143D01*
X18224357Y-12996571D01*
X18210071Y-13025143D01*
X18195786Y-13039429D01*
X18167214Y-13053714D01*
X18095786Y-13053714D01*
X18067214Y-13039429D01*
X18052928Y-13025143D01*
X18395786Y-12882286D02*
X18367214Y-12868000D01*
X18352928Y-12853714D01*
X18338643Y-12825143D01*
X18338643Y-12810857D01*
X18352928Y-12782286D01*
X18367214Y-12768000D01*
X18395786Y-12753714D01*
X18452928Y-12753714D01*
X18481500Y-12768000D01*
X18495786Y-12782286D01*
X18510071Y-12810857D01*
X18510071Y-12825143D01*
X18495786Y-12853714D01*
X18481500Y-12868000D01*
X18452928Y-12882286D01*
X18395786Y-12882286D01*
X18367214Y-12896571D01*
X18352928Y-12910857D01*
X18338643Y-12939429D01*
X18338643Y-12996571D01*
X18352928Y-13025143D01*
X18367214Y-13039429D01*
X18395786Y-13053714D01*
X18452928Y-13053714D01*
X18481500Y-13039429D01*
X18495786Y-13025143D01*
X18510071Y-12996571D01*
X18510071Y-12939429D01*
X18495786Y-12910857D01*
X18481500Y-12896571D01*
X18452928Y-12882286D01*
X18867214Y-13053714D02*
X18867214Y-12753714D01*
X18995786Y-13053714D02*
X18995786Y-12896571D01*
X18981500Y-12868000D01*
X18952928Y-12853714D01*
X18910071Y-12853714D01*
X18881500Y-12868000D01*
X18867214Y-12882286D01*
X19181500Y-13053714D02*
X19152928Y-13039429D01*
X19138643Y-13025143D01*
X19124357Y-12996571D01*
X19124357Y-12910857D01*
X19138643Y-12882286D01*
X19152928Y-12868000D01*
X19181500Y-12853714D01*
X19224357Y-12853714D01*
X19252928Y-12868000D01*
X19267214Y-12882286D01*
X19281500Y-12910857D01*
X19281500Y-12996571D01*
X19267214Y-13025143D01*
X19252928Y-13039429D01*
X19224357Y-13053714D01*
X19181500Y-13053714D01*
X19452928Y-13053714D02*
X19424357Y-13039429D01*
X19410071Y-13010857D01*
X19410071Y-12753714D01*
X19681500Y-13039429D02*
X19652928Y-13053714D01*
X19595786Y-13053714D01*
X19567214Y-13039429D01*
X19552928Y-13010857D01*
X19552928Y-12896571D01*
X19567214Y-12868000D01*
X19595786Y-12853714D01*
X19652928Y-12853714D01*
X19681500Y-12868000D01*
X19695786Y-12896571D01*
X19695786Y-12925143D01*
X19552928Y-12953714D01*
X19810071Y-13039429D02*
X19838643Y-13053714D01*
X19895786Y-13053714D01*
X19924357Y-13039429D01*
X19938643Y-13010857D01*
X19938643Y-12996571D01*
X19924357Y-12968000D01*
X19895786Y-12953714D01*
X19852928Y-12953714D01*
X19824357Y-12939429D01*
X19810071Y-12910857D01*
X19810071Y-12896571D01*
X19824357Y-12868000D01*
X19852928Y-12853714D01*
X19895786Y-12853714D01*
X19924357Y-12868000D01*
X20038643Y-13168000D02*
X20052928Y-13153714D01*
X20081500Y-13110857D01*
X20095786Y-13082286D01*
X20110071Y-13039429D01*
X20124357Y-12968000D01*
X20124357Y-12910857D01*
X20110071Y-12839429D01*
X20095786Y-12796571D01*
X20081500Y-12768000D01*
X20052928Y-12725143D01*
X20038643Y-12710857D01*
X13215700Y-13263200D02*
X13215700Y-13364800D01*
X13164900Y-13314000D02*
X13266500Y-13314000D01*
X13710071Y-13449714D02*
X13538643Y-13449714D01*
X13624357Y-13449714D02*
X13624357Y-13149714D01*
X13595786Y-13192571D01*
X13567214Y-13221143D01*
X13538643Y-13235429D01*
X13838643Y-13421143D02*
X13852928Y-13435429D01*
X13838643Y-13449714D01*
X13824357Y-13435429D01*
X13838643Y-13421143D01*
X13838643Y-13449714D01*
X14038643Y-13149714D02*
X14067214Y-13149714D01*
X14095786Y-13164000D01*
X14110071Y-13178286D01*
X14124357Y-13206857D01*
X14138643Y-13264000D01*
X14138643Y-13335429D01*
X14124357Y-13392571D01*
X14110071Y-13421143D01*
X14095786Y-13435429D01*
X14067214Y-13449714D01*
X14038643Y-13449714D01*
X14010071Y-13435429D01*
X13995786Y-13421143D01*
X13981500Y-13392571D01*
X13967214Y-13335429D01*
X13967214Y-13264000D01*
X13981500Y-13206857D01*
X13995786Y-13178286D01*
X14010071Y-13164000D01*
X14038643Y-13149714D01*
X14252928Y-13178286D02*
X14267214Y-13164000D01*
X14295786Y-13149714D01*
X14367214Y-13149714D01*
X14395786Y-13164000D01*
X14410071Y-13178286D01*
X14424357Y-13206857D01*
X14424357Y-13235429D01*
X14410071Y-13278286D01*
X14238643Y-13449714D01*
X14424357Y-13449714D01*
X14552928Y-13449714D02*
X14552928Y-13249714D01*
X14552928Y-13278286D02*
X14567214Y-13264000D01*
X14595786Y-13249714D01*
X14638643Y-13249714D01*
X14667214Y-13264000D01*
X14681500Y-13292571D01*
X14681500Y-13449714D01*
X14681500Y-13292571D02*
X14695786Y-13264000D01*
X14724357Y-13249714D01*
X14767214Y-13249714D01*
X14795786Y-13264000D01*
X14810071Y-13292571D01*
X14810071Y-13449714D01*
X14952928Y-13449714D02*
X14952928Y-13249714D01*
X14952928Y-13278286D02*
X14967214Y-13264000D01*
X14995786Y-13249714D01*
X15038643Y-13249714D01*
X15067214Y-13264000D01*
X15081500Y-13292571D01*
X15081500Y-13449714D01*
X15081500Y-13292571D02*
X15095786Y-13264000D01*
X15124357Y-13249714D01*
X15167214Y-13249714D01*
X15195786Y-13264000D01*
X15210071Y-13292571D01*
X15210071Y-13449714D01*
X15795786Y-13135429D02*
X15538643Y-13521143D01*
X16181500Y-13149714D02*
X16210071Y-13149714D01*
X16238643Y-13164000D01*
X16252928Y-13178286D01*
X16267214Y-13206857D01*
X16281500Y-13264000D01*
X16281500Y-13335429D01*
X16267214Y-13392571D01*
X16252928Y-13421143D01*
X16238643Y-13435429D01*
X16210071Y-13449714D01*
X16181500Y-13449714D01*
X16152928Y-13435429D01*
X16138643Y-13421143D01*
X16124357Y-13392571D01*
X16110071Y-13335429D01*
X16110071Y-13264000D01*
X16124357Y-13206857D01*
X16138643Y-13178286D01*
X16152928Y-13164000D01*
X16181500Y-13149714D01*
X16410071Y-13421143D02*
X16424357Y-13435429D01*
X16410071Y-13449714D01*
X16395786Y-13435429D01*
X16410071Y-13421143D01*
X16410071Y-13449714D01*
X16610071Y-13149714D02*
X16638643Y-13149714D01*
X16667214Y-13164000D01*
X16681500Y-13178286D01*
X16695786Y-13206857D01*
X16710071Y-13264000D01*
X16710071Y-13335429D01*
X16695786Y-13392571D01*
X16681500Y-13421143D01*
X16667214Y-13435429D01*
X16638643Y-13449714D01*
X16610071Y-13449714D01*
X16581500Y-13435429D01*
X16567214Y-13421143D01*
X16552928Y-13392571D01*
X16538643Y-13335429D01*
X16538643Y-13264000D01*
X16552928Y-13206857D01*
X16567214Y-13178286D01*
X16581500Y-13164000D01*
X16610071Y-13149714D01*
X16967214Y-13249714D02*
X16967214Y-13449714D01*
X16895786Y-13135429D02*
X16824357Y-13349714D01*
X17010071Y-13349714D01*
X17181500Y-13149714D02*
X17210071Y-13149714D01*
X17238643Y-13164000D01*
X17252928Y-13178286D01*
X17267214Y-13206857D01*
X17281500Y-13264000D01*
X17281500Y-13335429D01*
X17267214Y-13392571D01*
X17252928Y-13421143D01*
X17238643Y-13435429D01*
X17210071Y-13449714D01*
X17181500Y-13449714D01*
X17152928Y-13435429D01*
X17138643Y-13421143D01*
X17124357Y-13392571D01*
X17110071Y-13335429D01*
X17110071Y-13264000D01*
X17124357Y-13206857D01*
X17138643Y-13178286D01*
X17152928Y-13164000D01*
X17181500Y-13149714D01*
X17395786Y-13149714D02*
X17395786Y-13206857D01*
X17510071Y-13149714D02*
X17510071Y-13206857D01*
X17952928Y-13564000D02*
X17938643Y-13549714D01*
X17910071Y-13506857D01*
X17895786Y-13478286D01*
X17881500Y-13435429D01*
X17867214Y-13364000D01*
X17867214Y-13306857D01*
X17881500Y-13235429D01*
X17895786Y-13192571D01*
X17910071Y-13164000D01*
X17938643Y-13121143D01*
X17952928Y-13106857D01*
X18052928Y-13178286D02*
X18067214Y-13164000D01*
X18095786Y-13149714D01*
X18167214Y-13149714D01*
X18195786Y-13164000D01*
X18210071Y-13178286D01*
X18224357Y-13206857D01*
X18224357Y-13235429D01*
X18210071Y-13278286D01*
X18038643Y-13449714D01*
X18224357Y-13449714D01*
X18395786Y-13278286D02*
X18367214Y-13264000D01*
X18352928Y-13249714D01*
X18338643Y-13221143D01*
X18338643Y-13206857D01*
X18352928Y-13178286D01*
X18367214Y-13164000D01*
X18395786Y-13149714D01*
X18452928Y-13149714D01*
X18481500Y-13164000D01*
X18495786Y-13178286D01*
X18510071Y-13206857D01*
X18510071Y-13221143D01*
X18495786Y-13249714D01*
X18481500Y-13264000D01*
X18452928Y-13278286D01*
X18395786Y-13278286D01*
X18367214Y-13292571D01*
X18352928Y-13306857D01*
X18338643Y-13335429D01*
X18338643Y-13392571D01*
X18352928Y-13421143D01*
X18367214Y-13435429D01*
X18395786Y-13449714D01*
X18452928Y-13449714D01*
X18481500Y-13435429D01*
X18495786Y-13421143D01*
X18510071Y-13392571D01*
X18510071Y-13335429D01*
X18495786Y-13306857D01*
X18481500Y-13292571D01*
X18452928Y-13278286D01*
X18867214Y-13449714D02*
X18867214Y-13149714D01*
X18995786Y-13449714D02*
X18995786Y-13292571D01*
X18981500Y-13264000D01*
X18952928Y-13249714D01*
X18910071Y-13249714D01*
X18881500Y-13264000D01*
X18867214Y-13278286D01*
X19181500Y-13449714D02*
X19152928Y-13435429D01*
X19138643Y-13421143D01*
X19124357Y-13392571D01*
X19124357Y-13306857D01*
X19138643Y-13278286D01*
X19152928Y-13264000D01*
X19181500Y-13249714D01*
X19224357Y-13249714D01*
X19252928Y-13264000D01*
X19267214Y-13278286D01*
X19281500Y-13306857D01*
X19281500Y-13392571D01*
X19267214Y-13421143D01*
X19252928Y-13435429D01*
X19224357Y-13449714D01*
X19181500Y-13449714D01*
X19452928Y-13449714D02*
X19424357Y-13435429D01*
X19410071Y-13406857D01*
X19410071Y-13149714D01*
X19681500Y-13435429D02*
X19652928Y-13449714D01*
X19595786Y-13449714D01*
X19567214Y-13435429D01*
X19552928Y-13406857D01*
X19552928Y-13292571D01*
X19567214Y-13264000D01*
X19595786Y-13249714D01*
X19652928Y-13249714D01*
X19681500Y-13264000D01*
X19695786Y-13292571D01*
X19695786Y-13321143D01*
X19552928Y-13349714D01*
X19810071Y-13435429D02*
X19838643Y-13449714D01*
X19895786Y-13449714D01*
X19924357Y-13435429D01*
X19938643Y-13406857D01*
X19938643Y-13392571D01*
X19924357Y-13364000D01*
X19895786Y-13349714D01*
X19852928Y-13349714D01*
X19824357Y-13335429D01*
X19810071Y-13306857D01*
X19810071Y-13292571D01*
X19824357Y-13264000D01*
X19852928Y-13249714D01*
X19895786Y-13249714D01*
X19924357Y-13264000D01*
X20038643Y-13564000D02*
X20052928Y-13549714D01*
X20081500Y-13506857D01*
X20095786Y-13478286D01*
X20110071Y-13435429D01*
X20124357Y-13364000D01*
X20124357Y-13306857D01*
X20110071Y-13235429D01*
X20095786Y-13192571D01*
X20081500Y-13164000D01*
X20052928Y-13121143D01*
X20038643Y-13106857D01*
M02*
