G04 #@! TF.GenerationSoftware,KiCad,Pcbnew,(5.1.5)-3*
G04 #@! TF.CreationDate,2020-06-20T17:54:41+02:00*
G04 #@! TF.ProjectId,openXsensor,6f70656e-5873-4656-9e73-6f722e6b6963,rev?*
G04 #@! TF.SameCoordinates,Original*
G04 #@! TF.FileFunction,Copper,L1,Top*
G04 #@! TF.FilePolarity,Positive*
%FSLAX46Y46*%
G04 Gerber Fmt 4.6, Leading zero omitted, Abs format (unit mm)*
G04 Created by KiCad (PCBNEW (5.1.5)-3) date 2020-06-20 17:54:41*
%MOMM*%
%LPD*%
G04 APERTURE LIST*
%ADD10O,2.032000X1.727200*%
%ADD11C,1.778000*%
%ADD12C,0.100000*%
%ADD13R,1.600000X1.000000*%
%ADD14R,1.000000X1.600000*%
%ADD15O,1.700000X1.700000*%
%ADD16R,1.700000X1.700000*%
%ADD17R,1.700000X0.900000*%
%ADD18R,0.900000X1.700000*%
%ADD19C,0.800000*%
%ADD20C,0.500000*%
%ADD21C,0.300000*%
%ADD22C,0.250000*%
G04 APERTURE END LIST*
D10*
X138430000Y-85090000D03*
X138430000Y-87630000D03*
X138430000Y-90170000D03*
X138430000Y-92710000D03*
X138430000Y-95250000D03*
X138430000Y-97790000D03*
X138430000Y-100330000D03*
X138430000Y-102870000D03*
X138430000Y-105410000D03*
X138430000Y-107950000D03*
X138430000Y-110490000D03*
X138430000Y-113030000D03*
D11*
X151130000Y-93980000D03*
X151130000Y-96520000D03*
D10*
X153670000Y-85090000D03*
X153670000Y-87630000D03*
X153670000Y-90170000D03*
X153670000Y-92710000D03*
X153670000Y-95250000D03*
X153670000Y-97790000D03*
X153670000Y-100330000D03*
X153670000Y-102870000D03*
X153670000Y-105410000D03*
X153670000Y-107950000D03*
X153670000Y-110490000D03*
X153670000Y-113030000D03*
D11*
X151130000Y-104140000D03*
X151130000Y-106680000D03*
G04 #@! TA.AperFunction,SMDPad,CuDef*
D12*
G36*
X160582005Y-84416204D02*
G01*
X160606273Y-84419804D01*
X160630072Y-84425765D01*
X160653171Y-84434030D01*
X160675350Y-84444520D01*
X160696393Y-84457132D01*
X160716099Y-84471747D01*
X160734277Y-84488223D01*
X160750753Y-84506401D01*
X160765368Y-84526107D01*
X160777980Y-84547150D01*
X160788470Y-84569329D01*
X160796735Y-84592428D01*
X160802696Y-84616227D01*
X160806296Y-84640495D01*
X160807500Y-84664999D01*
X160807500Y-85515001D01*
X160806296Y-85539505D01*
X160802696Y-85563773D01*
X160796735Y-85587572D01*
X160788470Y-85610671D01*
X160777980Y-85632850D01*
X160765368Y-85653893D01*
X160750753Y-85673599D01*
X160734277Y-85691777D01*
X160716099Y-85708253D01*
X160696393Y-85722868D01*
X160675350Y-85735480D01*
X160653171Y-85745970D01*
X160630072Y-85754235D01*
X160606273Y-85760196D01*
X160582005Y-85763796D01*
X160557501Y-85765000D01*
X159482499Y-85765000D01*
X159457995Y-85763796D01*
X159433727Y-85760196D01*
X159409928Y-85754235D01*
X159386829Y-85745970D01*
X159364650Y-85735480D01*
X159343607Y-85722868D01*
X159323901Y-85708253D01*
X159305723Y-85691777D01*
X159289247Y-85673599D01*
X159274632Y-85653893D01*
X159262020Y-85632850D01*
X159251530Y-85610671D01*
X159243265Y-85587572D01*
X159237304Y-85563773D01*
X159233704Y-85539505D01*
X159232500Y-85515001D01*
X159232500Y-84664999D01*
X159233704Y-84640495D01*
X159237304Y-84616227D01*
X159243265Y-84592428D01*
X159251530Y-84569329D01*
X159262020Y-84547150D01*
X159274632Y-84526107D01*
X159289247Y-84506401D01*
X159305723Y-84488223D01*
X159323901Y-84471747D01*
X159343607Y-84457132D01*
X159364650Y-84444520D01*
X159386829Y-84434030D01*
X159409928Y-84425765D01*
X159433727Y-84419804D01*
X159457995Y-84416204D01*
X159482499Y-84415000D01*
X160557501Y-84415000D01*
X160582005Y-84416204D01*
G37*
G04 #@! TD.AperFunction*
G04 #@! TA.AperFunction,SMDPad,CuDef*
G36*
X157707005Y-84416204D02*
G01*
X157731273Y-84419804D01*
X157755072Y-84425765D01*
X157778171Y-84434030D01*
X157800350Y-84444520D01*
X157821393Y-84457132D01*
X157841099Y-84471747D01*
X157859277Y-84488223D01*
X157875753Y-84506401D01*
X157890368Y-84526107D01*
X157902980Y-84547150D01*
X157913470Y-84569329D01*
X157921735Y-84592428D01*
X157927696Y-84616227D01*
X157931296Y-84640495D01*
X157932500Y-84664999D01*
X157932500Y-85515001D01*
X157931296Y-85539505D01*
X157927696Y-85563773D01*
X157921735Y-85587572D01*
X157913470Y-85610671D01*
X157902980Y-85632850D01*
X157890368Y-85653893D01*
X157875753Y-85673599D01*
X157859277Y-85691777D01*
X157841099Y-85708253D01*
X157821393Y-85722868D01*
X157800350Y-85735480D01*
X157778171Y-85745970D01*
X157755072Y-85754235D01*
X157731273Y-85760196D01*
X157707005Y-85763796D01*
X157682501Y-85765000D01*
X156607499Y-85765000D01*
X156582995Y-85763796D01*
X156558727Y-85760196D01*
X156534928Y-85754235D01*
X156511829Y-85745970D01*
X156489650Y-85735480D01*
X156468607Y-85722868D01*
X156448901Y-85708253D01*
X156430723Y-85691777D01*
X156414247Y-85673599D01*
X156399632Y-85653893D01*
X156387020Y-85632850D01*
X156376530Y-85610671D01*
X156368265Y-85587572D01*
X156362304Y-85563773D01*
X156358704Y-85539505D01*
X156357500Y-85515001D01*
X156357500Y-84664999D01*
X156358704Y-84640495D01*
X156362304Y-84616227D01*
X156368265Y-84592428D01*
X156376530Y-84569329D01*
X156387020Y-84547150D01*
X156399632Y-84526107D01*
X156414247Y-84506401D01*
X156430723Y-84488223D01*
X156448901Y-84471747D01*
X156468607Y-84457132D01*
X156489650Y-84444520D01*
X156511829Y-84434030D01*
X156534928Y-84425765D01*
X156558727Y-84419804D01*
X156582995Y-84416204D01*
X156607499Y-84415000D01*
X157682501Y-84415000D01*
X157707005Y-84416204D01*
G37*
G04 #@! TD.AperFunction*
D13*
X160020000Y-103505000D03*
X160020000Y-100505000D03*
D14*
X162385000Y-113030000D03*
X159385000Y-113030000D03*
X149225000Y-106680000D03*
X146225000Y-106680000D03*
X146225000Y-104140000D03*
X149225000Y-104140000D03*
D15*
X151130000Y-85090000D03*
X148590000Y-85090000D03*
X146050000Y-85090000D03*
D16*
X143510000Y-85090000D03*
X135255000Y-95250000D03*
D15*
X135255000Y-97790000D03*
X135255000Y-100330000D03*
D16*
X135255000Y-87630000D03*
D15*
X135255000Y-90170000D03*
D16*
X140970000Y-113030000D03*
D15*
X143510000Y-113030000D03*
X146050000Y-113030000D03*
X146050000Y-110490000D03*
X143510000Y-110490000D03*
D16*
X140970000Y-110490000D03*
X162560000Y-102870000D03*
D15*
X162560000Y-105410000D03*
X162560000Y-107950000D03*
X162560000Y-110490000D03*
D16*
X160020000Y-87630000D03*
D15*
X160020000Y-90170000D03*
X160020000Y-92710000D03*
X160020000Y-95250000D03*
X160020000Y-97790000D03*
X148590000Y-110490000D03*
D16*
X148590000Y-113030000D03*
X151130000Y-113030000D03*
D15*
X151130000Y-110490000D03*
D16*
X162560000Y-85090000D03*
D15*
X162560000Y-87630000D03*
X162560000Y-90170000D03*
D16*
X135255000Y-102870000D03*
D15*
X135255000Y-105410000D03*
X135255000Y-107950000D03*
X135255000Y-110490000D03*
X135255000Y-113030000D03*
X151130000Y-87630000D03*
X148590000Y-87630000D03*
X146050000Y-87630000D03*
X143510000Y-87630000D03*
D16*
X140970000Y-87630000D03*
X156845000Y-90170000D03*
D15*
X156845000Y-92710000D03*
X156845000Y-95250000D03*
X156845000Y-97790000D03*
X156845000Y-100330000D03*
X156845000Y-102870000D03*
X156845000Y-105410000D03*
X156845000Y-107950000D03*
X156845000Y-110490000D03*
X156845000Y-113030000D03*
D16*
X162560000Y-92710000D03*
D15*
X162560000Y-95250000D03*
X162560000Y-97790000D03*
X162560000Y-100330000D03*
X160020000Y-110490000D03*
X160020000Y-107950000D03*
D16*
X160020000Y-105410000D03*
D17*
X143510000Y-94636000D03*
X143510000Y-97536000D03*
X146050000Y-97536000D03*
X146050000Y-94636000D03*
X148590000Y-94636000D03*
X148590000Y-97536000D03*
X143510000Y-93091000D03*
X143510000Y-90191000D03*
X146050000Y-90191000D03*
X146050000Y-93091000D03*
X148590000Y-90191000D03*
X148590000Y-93091000D03*
X140970000Y-100330000D03*
X140970000Y-97430000D03*
D18*
X140462000Y-105410000D03*
X143362000Y-105410000D03*
D19*
X161290000Y-113030000D03*
X160020000Y-101600000D03*
X156210000Y-86233000D03*
X147574000Y-104140000D03*
X141605000Y-99060000D03*
X145161000Y-106299000D03*
X144018000Y-98794000D03*
X147701000Y-98679000D03*
X150114000Y-91440000D03*
X156083000Y-88011000D03*
X144272000Y-105410000D03*
X148209000Y-106680000D03*
X140716000Y-108204000D03*
X155321000Y-109220000D03*
D20*
X162385000Y-113030000D02*
X162560000Y-113030000D01*
X162385000Y-113030000D02*
X161290000Y-113030000D01*
X160020000Y-100505000D02*
X160020000Y-101600000D01*
X157145000Y-85090000D02*
X157480000Y-85090000D01*
X157145000Y-85090000D02*
X157099000Y-85090000D01*
X157099000Y-85090000D02*
X156210000Y-85979000D01*
X156210000Y-85979000D02*
X156210000Y-86233000D01*
X146225000Y-104140000D02*
X147574000Y-104140000D01*
X148590000Y-110490000D02*
X146050000Y-110490000D01*
X148590000Y-110490000D02*
X151130000Y-110490000D01*
X140970000Y-100330000D02*
X140970000Y-99695000D01*
X140970000Y-99695000D02*
X141605000Y-99060000D01*
X146225000Y-106680000D02*
X145542000Y-106680000D01*
X145542000Y-106680000D02*
X145161000Y-106299000D01*
D21*
X143510000Y-98286000D02*
X144018000Y-98794000D01*
X143510000Y-97536000D02*
X143510000Y-98286000D01*
X147320000Y-98298000D02*
X147447000Y-98425000D01*
X147320000Y-97536000D02*
X148590000Y-97536000D01*
X147320000Y-97536000D02*
X147320000Y-98298000D01*
X146050000Y-97536000D02*
X147320000Y-97536000D01*
X147447000Y-98425000D02*
X147701000Y-98679000D01*
X136525000Y-91440000D02*
X135255000Y-90170000D01*
X138430000Y-95250000D02*
X136525000Y-93345000D01*
X136525000Y-93345000D02*
X136525000Y-91440000D01*
X152654000Y-88900000D02*
X150114000Y-91440000D01*
X160020000Y-87630000D02*
X158750000Y-88900000D01*
X158750000Y-88900000D02*
X152654000Y-88900000D01*
X140970000Y-110490000D02*
X138430000Y-110490000D01*
D20*
X160020000Y-90170000D02*
X156845000Y-90170000D01*
X156210000Y-90170000D02*
X156845000Y-90170000D01*
X154940000Y-92075000D02*
X154940000Y-91440000D01*
X154940000Y-91440000D02*
X156210000Y-90170000D01*
X153670000Y-92710000D02*
X154305000Y-92710000D01*
X154305000Y-92710000D02*
X154940000Y-92075000D01*
X164211000Y-89281000D02*
X162560000Y-87630000D01*
X160020000Y-90170000D02*
X162560000Y-87630000D01*
X164211000Y-91059000D02*
X162560000Y-92710000D01*
X164211000Y-90805000D02*
X164211000Y-91059000D01*
X164211000Y-90805000D02*
X164211000Y-89281000D01*
X164211000Y-94361000D02*
X162560000Y-92710000D01*
X164211000Y-101219000D02*
X162560000Y-102870000D01*
X164211000Y-100330000D02*
X164211000Y-101219000D01*
X164211000Y-100330000D02*
X164211000Y-94361000D01*
X164211000Y-104521000D02*
X162560000Y-102870000D01*
X164211000Y-113792000D02*
X164211000Y-104521000D01*
X163449000Y-114554000D02*
X164211000Y-113792000D01*
X143510000Y-113030000D02*
X145034000Y-114554000D01*
X145034000Y-114554000D02*
X163449000Y-114554000D01*
X160020000Y-105410000D02*
X160561998Y-105410000D01*
X160561998Y-105410000D02*
X161320001Y-104651997D01*
X161320001Y-104109999D02*
X162560000Y-102870000D01*
X161320001Y-104651997D02*
X161320001Y-104109999D01*
X160020000Y-85090000D02*
X162560000Y-87630000D01*
X152527000Y-83693000D02*
X151130000Y-85090000D01*
X154559000Y-83693000D02*
X152527000Y-83693000D01*
X156083000Y-88011000D02*
X155194000Y-87122000D01*
X155194000Y-87122000D02*
X155194000Y-84328000D01*
X155194000Y-84328000D02*
X154559000Y-83693000D01*
X143362000Y-105410000D02*
X144272000Y-105410000D01*
D21*
X155575000Y-93980000D02*
X156845000Y-95250000D01*
X151130000Y-93980000D02*
X155575000Y-93980000D01*
X156845000Y-95250000D02*
X160020000Y-95250000D01*
X160020000Y-95250000D02*
X162560000Y-95250000D01*
X155575000Y-96520000D02*
X156845000Y-97790000D01*
X151130000Y-96520000D02*
X155575000Y-96520000D01*
X156845000Y-97790000D02*
X160020000Y-97790000D01*
X160020000Y-97790000D02*
X162560000Y-97790000D01*
X153670000Y-95250000D02*
X151638000Y-95250000D01*
D22*
X151638000Y-95250000D02*
X150368000Y-95250000D01*
D21*
X148590000Y-93091000D02*
X148590000Y-94636000D01*
X149754000Y-94636000D02*
X148590000Y-94636000D01*
X150368000Y-95250000D02*
X149754000Y-94636000D01*
X146050000Y-93091000D02*
X146050000Y-94636000D01*
X146050000Y-95504000D02*
X146050000Y-94636000D01*
X149840001Y-97135001D02*
X149840001Y-96627001D01*
X149352000Y-96139000D02*
X146685000Y-96139000D01*
X149840001Y-96627001D02*
X149352000Y-96139000D01*
X146685000Y-96139000D02*
X146050000Y-95504000D01*
X152354000Y-97790000D02*
X153670000Y-97790000D01*
X152227000Y-97917000D02*
X152354000Y-97790000D01*
X150622000Y-97917000D02*
X152227000Y-97917000D01*
X150622000Y-97917000D02*
X149840001Y-97135001D01*
X143510000Y-93091000D02*
X143510000Y-94636000D01*
X143510000Y-95885000D02*
X143510000Y-94636000D01*
X144018000Y-96393000D02*
X143510000Y-95885000D01*
X144387002Y-96393000D02*
X144018000Y-96393000D01*
X144780000Y-96785998D02*
X144387002Y-96393000D01*
X153670000Y-100330000D02*
X153035000Y-100330000D01*
X152209500Y-99504500D02*
X145859500Y-99504500D01*
X145859500Y-99504500D02*
X144780000Y-98425000D01*
X153035000Y-100330000D02*
X152209500Y-99504500D01*
X144780000Y-98425000D02*
X144780000Y-96785998D01*
X142240000Y-98298000D02*
X142240000Y-88900000D01*
X142240000Y-88900000D02*
X143510000Y-87630000D01*
X144399000Y-100457000D02*
X142240000Y-98298000D01*
X151257000Y-100457000D02*
X144399000Y-100457000D01*
X153670000Y-102870000D02*
X151257000Y-100457000D01*
X149225000Y-104140000D02*
X151130000Y-104140000D01*
X159385000Y-113030000D02*
X158750000Y-113030000D01*
X158750000Y-113030000D02*
X158115000Y-112395000D01*
X159385000Y-113030000D02*
X160020000Y-113030000D01*
X160020000Y-113030000D02*
X162560000Y-110490000D01*
X158060002Y-112395000D02*
X157431392Y-111766390D01*
X158115000Y-112395000D02*
X158060002Y-112395000D01*
X151130000Y-111880000D02*
X151250000Y-111760000D01*
X151130000Y-113030000D02*
X151130000Y-111880000D01*
X151250000Y-111760000D02*
X152527000Y-111760000D01*
X157431392Y-111766390D02*
X152527000Y-111760000D01*
X149225000Y-106680000D02*
X151130000Y-106680000D01*
X148209000Y-106680000D02*
X149225000Y-106680000D01*
X160020000Y-103505000D02*
X158750000Y-103505000D01*
X162560000Y-107950000D02*
X161290000Y-106680000D01*
X158750000Y-106553000D02*
X158877000Y-106680000D01*
X158750000Y-103505000D02*
X158750000Y-106553000D01*
X161290000Y-106680000D02*
X158877000Y-106680000D01*
X154305000Y-106680000D02*
X151130000Y-106680000D01*
X158877000Y-106680000D02*
X154305000Y-106680000D01*
X143510000Y-89441000D02*
X143924000Y-89027000D01*
X143510000Y-90191000D02*
X143510000Y-89441000D01*
X144653000Y-89027000D02*
X146050000Y-87630000D01*
X143924000Y-89027000D02*
X144653000Y-89027000D01*
X146050000Y-89441000D02*
X146464000Y-89027000D01*
X146050000Y-90191000D02*
X146050000Y-89441000D01*
X147193000Y-89027000D02*
X148590000Y-87630000D01*
X146464000Y-89027000D02*
X147193000Y-89027000D01*
X140970000Y-97430000D02*
X140970000Y-97155000D01*
X140970000Y-97155000D02*
X140335000Y-96520000D01*
X140335000Y-96520000D02*
X136525000Y-96520000D01*
X136525000Y-96520000D02*
X135255000Y-95250000D01*
X138430000Y-87630000D02*
X139700000Y-86360000D01*
X144780000Y-86360000D02*
X146050000Y-85090000D01*
X139700000Y-86360000D02*
X144780000Y-86360000D01*
D20*
X140462000Y-102489000D02*
X139573000Y-101600000D01*
D21*
X139573000Y-101600000D02*
X137287000Y-101600000D01*
D20*
X140462000Y-104140000D02*
X139573000Y-104140000D01*
X140462000Y-104140000D02*
X140462000Y-102489000D01*
X140462000Y-105410000D02*
X140462000Y-104140000D01*
D21*
X139573000Y-104140000D02*
X137414000Y-104140000D01*
D20*
X137414000Y-104140000D02*
X137160000Y-104140000D01*
X136779000Y-103759000D02*
X136779000Y-101600000D01*
X137287000Y-101600000D02*
X136779000Y-101600000D01*
X137160000Y-104140000D02*
X136779000Y-103759000D01*
X136779000Y-99314000D02*
X135255000Y-97790000D01*
X136779000Y-101600000D02*
X136779000Y-99314000D01*
D21*
X138430000Y-113030000D02*
X137541000Y-113030000D01*
X137541000Y-113030000D02*
X136779000Y-112268000D01*
X136779000Y-112014000D02*
X135255000Y-110490000D01*
X136779000Y-112268000D02*
X136779000Y-112014000D01*
X151892000Y-107950000D02*
X153670000Y-107950000D01*
X151765000Y-108077000D02*
X151892000Y-107950000D01*
X149987000Y-108077000D02*
X151765000Y-108077000D01*
X149860000Y-107950000D02*
X149987000Y-108077000D01*
X145288000Y-107950000D02*
X149860000Y-107950000D01*
X140081000Y-107315000D02*
X139446000Y-106680000D01*
X144653000Y-107315000D02*
X140081000Y-107315000D01*
X144653000Y-107315000D02*
X145288000Y-107950000D01*
X137922000Y-106680000D02*
X137541000Y-106680000D01*
X137922000Y-106680000D02*
X139446000Y-106680000D01*
X137541000Y-106680000D02*
X136652000Y-105791000D01*
X136652000Y-105791000D02*
X136652000Y-104902000D01*
X135255000Y-103505000D02*
X135255000Y-102870000D01*
X136652000Y-104902000D02*
X135255000Y-103505000D01*
X153035000Y-110490000D02*
X151765000Y-109220000D01*
X153670000Y-110490000D02*
X153035000Y-110490000D01*
X137922000Y-109220000D02*
X137541000Y-109220000D01*
X151765000Y-109220000D02*
X137922000Y-109220000D01*
X137541000Y-109220000D02*
X136906000Y-108585000D01*
X136906000Y-107061000D02*
X135255000Y-105410000D01*
X136906000Y-108585000D02*
X136906000Y-107061000D01*
X140716000Y-108204000D02*
X144272000Y-108204000D01*
X144272000Y-108204000D02*
X144695010Y-108627010D01*
X144695010Y-108627010D02*
X151976020Y-108627010D01*
X151976020Y-108627010D02*
X152188010Y-108627010D01*
X152188010Y-108627010D02*
X152781000Y-109220000D01*
X152781000Y-109220000D02*
X155321000Y-109220000D01*
X148590000Y-89441000D02*
X149004000Y-89027000D01*
X148590000Y-90191000D02*
X148590000Y-89441000D01*
X149733000Y-89027000D02*
X151130000Y-87630000D01*
X149004000Y-89027000D02*
X149733000Y-89027000D01*
M02*
