G04 #@! TF.GenerationSoftware,KiCad,Pcbnew,(5.0.2)-1*
G04 #@! TF.CreationDate,2019-11-09T14:36:27+01:00*
G04 #@! TF.ProjectId,LM386Amplifier,4c4d3338-3641-46d7-906c-69666965722e,rev?*
G04 #@! TF.SameCoordinates,Original*
G04 #@! TF.FileFunction,Other,Fab,Top*
%FSLAX46Y46*%
G04 Gerber Fmt 4.6, Leading zero omitted, Abs format (unit mm)*
G04 Created by KiCad (PCBNEW (5.0.2)-1) date 09/11/2019 14:36:27*
%MOMM*%
%LPD*%
G01*
G04 APERTURE LIST*
%ADD10C,0.300000*%
%ADD11C,0.100000*%
%ADD12C,0.150000*%
G04 APERTURE END LIST*
D10*
X126241428Y-96384285D02*
X126170000Y-96312857D01*
X126098571Y-96170000D01*
X126098571Y-95812857D01*
X126170000Y-95670000D01*
X126241428Y-95598571D01*
X126384285Y-95527142D01*
X126527142Y-95527142D01*
X126741428Y-95598571D01*
X127598571Y-96455714D01*
X127598571Y-95527142D01*
X126098571Y-94170000D02*
X126098571Y-94884285D01*
X126812857Y-94955714D01*
X126741428Y-94884285D01*
X126670000Y-94741428D01*
X126670000Y-94384285D01*
X126741428Y-94241428D01*
X126812857Y-94170000D01*
X126955714Y-94098571D01*
X127312857Y-94098571D01*
X127455714Y-94170000D01*
X127527142Y-94241428D01*
X127598571Y-94384285D01*
X127598571Y-94741428D01*
X127527142Y-94884285D01*
X127455714Y-94955714D01*
X127527142Y-93384285D02*
X127598571Y-93384285D01*
X127741428Y-93455714D01*
X127812857Y-93527142D01*
X126598571Y-92098571D02*
X127598571Y-92098571D01*
X126027142Y-92455714D02*
X127098571Y-92812857D01*
X127098571Y-91884285D01*
X126098571Y-91027142D02*
X126098571Y-90884285D01*
X126170000Y-90741428D01*
X126241428Y-90670000D01*
X126384285Y-90598571D01*
X126670000Y-90527142D01*
X127027142Y-90527142D01*
X127312857Y-90598571D01*
X127455714Y-90670000D01*
X127527142Y-90741428D01*
X127598571Y-90884285D01*
X127598571Y-91027142D01*
X127527142Y-91170000D01*
X127455714Y-91241428D01*
X127312857Y-91312857D01*
X127027142Y-91384285D01*
X126670000Y-91384285D01*
X126384285Y-91312857D01*
X126241428Y-91241428D01*
X126170000Y-91170000D01*
X126098571Y-91027142D01*
X126098571Y-89598571D02*
X126098571Y-89455714D01*
X126170000Y-89312857D01*
X126241428Y-89241428D01*
X126384285Y-89170000D01*
X126670000Y-89098571D01*
X127027142Y-89098571D01*
X127312857Y-89170000D01*
X127455714Y-89241428D01*
X127527142Y-89312857D01*
X127598571Y-89455714D01*
X127598571Y-89598571D01*
X127527142Y-89741428D01*
X127455714Y-89812857D01*
X127312857Y-89884285D01*
X127027142Y-89955714D01*
X126670000Y-89955714D01*
X126384285Y-89884285D01*
X126241428Y-89812857D01*
X126170000Y-89741428D01*
X126098571Y-89598571D01*
X127598571Y-87312857D02*
X126598571Y-87312857D01*
X126741428Y-87312857D02*
X126670000Y-87241428D01*
X126598571Y-87098571D01*
X126598571Y-86884285D01*
X126670000Y-86741428D01*
X126812857Y-86670000D01*
X127598571Y-86670000D01*
X126812857Y-86670000D02*
X126670000Y-86598571D01*
X126598571Y-86455714D01*
X126598571Y-86241428D01*
X126670000Y-86098571D01*
X126812857Y-86027142D01*
X127598571Y-86027142D01*
X127598571Y-85312857D02*
X126598571Y-85312857D01*
X126741428Y-85312857D02*
X126670000Y-85241428D01*
X126598571Y-85098571D01*
X126598571Y-84884285D01*
X126670000Y-84741428D01*
X126812857Y-84670000D01*
X127598571Y-84670000D01*
X126812857Y-84670000D02*
X126670000Y-84598571D01*
X126598571Y-84455714D01*
X126598571Y-84241428D01*
X126670000Y-84098571D01*
X126812857Y-84027142D01*
X127598571Y-84027142D01*
X128270000Y-102870000D02*
X128270000Y-77470000D01*
X130810000Y-102870000D02*
X125570000Y-102870000D01*
X130810000Y-77470000D02*
X125570000Y-77470000D01*
X128270000Y-77470000D02*
X128856421Y-78596504D01*
X128270000Y-77470000D02*
X127683579Y-78596504D01*
X128270000Y-102870000D02*
X128856421Y-101743496D01*
X128270000Y-102870000D02*
X127683579Y-101743496D01*
X143256785Y-104668571D02*
X144185357Y-104668571D01*
X143685357Y-105240000D01*
X143899642Y-105240000D01*
X144042500Y-105311428D01*
X144113928Y-105382857D01*
X144185357Y-105525714D01*
X144185357Y-105882857D01*
X144113928Y-106025714D01*
X144042500Y-106097142D01*
X143899642Y-106168571D01*
X143471071Y-106168571D01*
X143328214Y-106097142D01*
X143256785Y-106025714D01*
X144685357Y-104668571D02*
X145685357Y-104668571D01*
X145042500Y-106168571D01*
X146328214Y-106097142D02*
X146328214Y-106168571D01*
X146256785Y-106311428D01*
X146185357Y-106382857D01*
X147613928Y-105168571D02*
X147613928Y-106168571D01*
X147256785Y-104597142D02*
X146899642Y-105668571D01*
X147828214Y-105668571D01*
X149042500Y-104668571D02*
X148756785Y-104668571D01*
X148613928Y-104740000D01*
X148542500Y-104811428D01*
X148399642Y-105025714D01*
X148328214Y-105311428D01*
X148328214Y-105882857D01*
X148399642Y-106025714D01*
X148471071Y-106097142D01*
X148613928Y-106168571D01*
X148899642Y-106168571D01*
X149042500Y-106097142D01*
X149113928Y-106025714D01*
X149185357Y-105882857D01*
X149185357Y-105525714D01*
X149113928Y-105382857D01*
X149042500Y-105311428D01*
X148899642Y-105240000D01*
X148613928Y-105240000D01*
X148471071Y-105311428D01*
X148399642Y-105382857D01*
X148328214Y-105525714D01*
X150542500Y-104668571D02*
X149828214Y-104668571D01*
X149756785Y-105382857D01*
X149828214Y-105311428D01*
X149971071Y-105240000D01*
X150328214Y-105240000D01*
X150471071Y-105311428D01*
X150542500Y-105382857D01*
X150613928Y-105525714D01*
X150613928Y-105882857D01*
X150542500Y-106025714D01*
X150471071Y-106097142D01*
X150328214Y-106168571D01*
X149971071Y-106168571D01*
X149828214Y-106097142D01*
X149756785Y-106025714D01*
X152399642Y-106168571D02*
X152399642Y-105168571D01*
X152399642Y-105311428D02*
X152471071Y-105240000D01*
X152613928Y-105168571D01*
X152828214Y-105168571D01*
X152971071Y-105240000D01*
X153042500Y-105382857D01*
X153042500Y-106168571D01*
X153042500Y-105382857D02*
X153113928Y-105240000D01*
X153256785Y-105168571D01*
X153471071Y-105168571D01*
X153613928Y-105240000D01*
X153685357Y-105382857D01*
X153685357Y-106168571D01*
X154399642Y-106168571D02*
X154399642Y-105168571D01*
X154399642Y-105311428D02*
X154471071Y-105240000D01*
X154613928Y-105168571D01*
X154828214Y-105168571D01*
X154971071Y-105240000D01*
X155042500Y-105382857D01*
X155042500Y-106168571D01*
X155042500Y-105382857D02*
X155113928Y-105240000D01*
X155256785Y-105168571D01*
X155471071Y-105168571D01*
X155613928Y-105240000D01*
X155685357Y-105382857D01*
X155685357Y-106168571D01*
X168275000Y-104140000D02*
X130810000Y-104140000D01*
X168275000Y-102870000D02*
X168275000Y-106840000D01*
X130810000Y-102870000D02*
X130810000Y-106840000D01*
X130810000Y-104140000D02*
X131936504Y-103553579D01*
X130810000Y-104140000D02*
X131936504Y-104726421D01*
X168275000Y-104140000D02*
X167148496Y-103553579D01*
X168275000Y-104140000D02*
X167148496Y-104726421D01*
D11*
G04 #@! TO.C,C6*
X164211000Y-86741000D02*
X159639000Y-86741000D01*
X159639000Y-84709000D02*
X164211000Y-84709000D01*
X164211000Y-86725000D02*
X164211000Y-84725000D01*
X159655000Y-84725000D02*
X159655000Y-86725000D01*
G04 #@! TO.C,C4*
X164211000Y-82296000D02*
X159639000Y-82296000D01*
X159639000Y-80264000D02*
X164211000Y-80264000D01*
X164211000Y-82280000D02*
X164211000Y-80280000D01*
X159655000Y-80280000D02*
X159655000Y-82280000D01*
G04 #@! TO.C,P1*
X132080000Y-81280000D02*
X137160000Y-81280000D01*
X137160000Y-81280000D02*
X137160000Y-78740000D01*
X137160000Y-78740000D02*
X132080000Y-78740000D01*
X132080000Y-78740000D02*
X132080000Y-81280000D01*
G04 #@! TO.C,R4*
X166535000Y-80645000D02*
G75*
G03X166535000Y-80645000I-800000J0D01*
G01*
X165735000Y-80645000D02*
X165735000Y-83185000D01*
G04 #@! TO.C,R5*
X167170000Y-100965000D02*
G75*
G03X167170000Y-100965000I-800000J0D01*
G01*
X166370000Y-100965000D02*
X166370000Y-98425000D01*
G04 #@! TO.C,R3*
X157010000Y-100330000D02*
G75*
G03X157010000Y-100330000I-800000J0D01*
G01*
X156210000Y-100330000D02*
X156210000Y-97790000D01*
G04 #@! TO.C,R2*
X144945000Y-90805000D02*
G75*
G03X144945000Y-90805000I-800000J0D01*
G01*
X144145000Y-90805000D02*
X146685000Y-90805000D01*
G04 #@! TO.C,R1*
X144945000Y-93345000D02*
G75*
G03X144945000Y-93345000I-800000J0D01*
G01*
X144145000Y-93345000D02*
X146685000Y-93345000D01*
G04 #@! TO.C,R6*
X134150000Y-98425000D02*
G75*
G03X134150000Y-98425000I-800000J0D01*
G01*
X133350000Y-98425000D02*
X133350000Y-95885000D01*
G04 #@! TO.C,RV1*
X140040000Y-93660000D02*
G75*
G03X140040000Y-93660000I-1095000J0D01*
G01*
X135385000Y-101920000D02*
X140215000Y-101920000D01*
X140215000Y-101920000D02*
X140215000Y-92390000D01*
X140215000Y-92390000D02*
X135385000Y-92390000D01*
X135385000Y-92390000D02*
X135385000Y-101920000D01*
X138249000Y-92829000D02*
X139776000Y-94356000D01*
X138115000Y-92963000D02*
X139642000Y-94490000D01*
G04 #@! TO.C,RV2*
X140040000Y-83500000D02*
G75*
G03X140040000Y-83500000I-1095000J0D01*
G01*
X135385000Y-91760000D02*
X140215000Y-91760000D01*
X140215000Y-91760000D02*
X140215000Y-82230000D01*
X140215000Y-82230000D02*
X135385000Y-82230000D01*
X135385000Y-82230000D02*
X135385000Y-91760000D01*
X138249000Y-82669000D02*
X139776000Y-84196000D01*
X138115000Y-82803000D02*
X139642000Y-84330000D01*
G04 #@! TO.C,R7*
X134150000Y-84455000D02*
G75*
G03X134150000Y-84455000I-800000J0D01*
G01*
X133350000Y-84455000D02*
X133350000Y-86995000D01*
G04 #@! TO.C,P2*
X132080000Y-88900000D02*
X132080000Y-93980000D01*
X132080000Y-93980000D02*
X134620000Y-93980000D01*
X134620000Y-93980000D02*
X134620000Y-88900000D01*
X134620000Y-88900000D02*
X132080000Y-88900000D01*
G04 #@! TO.C,U1*
X148590000Y-92345000D02*
X148590000Y-86995000D01*
X148590000Y-86995000D02*
X158750000Y-86995000D01*
X158750000Y-86995000D02*
X158750000Y-93345000D01*
X158750000Y-93345000D02*
X149590000Y-93345000D01*
X149590000Y-93345000D02*
X148590000Y-92345000D01*
G04 #@! TO.C,C1*
X144145000Y-102530000D02*
X144145000Y-101330000D01*
X143495000Y-101930000D02*
X144795000Y-101930000D01*
X147295000Y-99080000D02*
G75*
G03X147295000Y-99080000I-3150000J0D01*
G01*
G04 #@! TO.C,C2*
X144145000Y-82255000D02*
X144145000Y-83455000D01*
X144795000Y-82855000D02*
X143495000Y-82855000D01*
X147295000Y-85705000D02*
G75*
G03X147295000Y-85705000I-3150000J0D01*
G01*
G04 #@! TO.C,C3*
X159680000Y-81280000D02*
X158480000Y-81280000D01*
X159080000Y-81930000D02*
X159080000Y-80630000D01*
X159380000Y-81280000D02*
G75*
G03X159380000Y-81280000I-3150000J0D01*
G01*
G04 #@! TO.C,C5*
X151130000Y-95590000D02*
X151130000Y-96790000D01*
X151780000Y-96190000D02*
X150480000Y-96190000D01*
X154130000Y-99040000D02*
G75*
G03X154130000Y-99040000I-3000000J0D01*
G01*
G04 #@! TO.C,C7*
X162560000Y-87335000D02*
X162560000Y-88535000D01*
X163210000Y-87935000D02*
X161910000Y-87935000D01*
X165560000Y-90785000D02*
G75*
G03X165560000Y-90785000I-3000000J0D01*
G01*
G04 #@! TO.C,SP1*
X164465000Y-98425000D02*
X159385000Y-98425000D01*
X159385000Y-98425000D02*
X159385000Y-100965000D01*
X159385000Y-100965000D02*
X164465000Y-100965000D01*
X164465000Y-100965000D02*
X164465000Y-98425000D01*
G04 #@! TO.C,J1*
X159385000Y-97155000D02*
X167005000Y-97155000D01*
X167005000Y-97155000D02*
X167005000Y-94615000D01*
X167005000Y-94615000D02*
X159385000Y-94615000D01*
X159385000Y-94615000D02*
X159385000Y-97155000D01*
G04 #@! TO.C,C8*
X152695000Y-81280000D02*
X151495000Y-81280000D01*
X152095000Y-81930000D02*
X152095000Y-80630000D01*
X152245000Y-81280000D02*
G75*
G03X152245000Y-81280000I-3000000J0D01*
G01*
G04 #@! TD*
G04 #@! TO.C,C6*
D12*
X160262380Y-86322380D02*
X159690952Y-86322380D01*
X159976666Y-86322380D02*
X159976666Y-85322380D01*
X159881428Y-85465238D01*
X159786190Y-85560476D01*
X159690952Y-85608095D01*
X160881428Y-85322380D02*
X160976666Y-85322380D01*
X161071904Y-85370000D01*
X161119523Y-85417619D01*
X161167142Y-85512857D01*
X161214761Y-85703333D01*
X161214761Y-85941428D01*
X161167142Y-86131904D01*
X161119523Y-86227142D01*
X161071904Y-86274761D01*
X160976666Y-86322380D01*
X160881428Y-86322380D01*
X160786190Y-86274761D01*
X160738571Y-86227142D01*
X160690952Y-86131904D01*
X160643333Y-85941428D01*
X160643333Y-85703333D01*
X160690952Y-85512857D01*
X160738571Y-85417619D01*
X160786190Y-85370000D01*
X160881428Y-85322380D01*
X161833809Y-85322380D02*
X161929047Y-85322380D01*
X162024285Y-85370000D01*
X162071904Y-85417619D01*
X162119523Y-85512857D01*
X162167142Y-85703333D01*
X162167142Y-85941428D01*
X162119523Y-86131904D01*
X162071904Y-86227142D01*
X162024285Y-86274761D01*
X161929047Y-86322380D01*
X161833809Y-86322380D01*
X161738571Y-86274761D01*
X161690952Y-86227142D01*
X161643333Y-86131904D01*
X161595714Y-85941428D01*
X161595714Y-85703333D01*
X161643333Y-85512857D01*
X161690952Y-85417619D01*
X161738571Y-85370000D01*
X161833809Y-85322380D01*
X162595714Y-85655714D02*
X162595714Y-86322380D01*
X162595714Y-85750952D02*
X162643333Y-85703333D01*
X162738571Y-85655714D01*
X162881428Y-85655714D01*
X162976666Y-85703333D01*
X163024285Y-85798571D01*
X163024285Y-86322380D01*
X163833809Y-85798571D02*
X163500476Y-85798571D01*
X163500476Y-86322380D02*
X163500476Y-85322380D01*
X163976666Y-85322380D01*
X161758333Y-84227142D02*
X161710714Y-84274761D01*
X161567857Y-84322380D01*
X161472619Y-84322380D01*
X161329761Y-84274761D01*
X161234523Y-84179523D01*
X161186904Y-84084285D01*
X161139285Y-83893809D01*
X161139285Y-83750952D01*
X161186904Y-83560476D01*
X161234523Y-83465238D01*
X161329761Y-83370000D01*
X161472619Y-83322380D01*
X161567857Y-83322380D01*
X161710714Y-83370000D01*
X161758333Y-83417619D01*
X162615476Y-83322380D02*
X162425000Y-83322380D01*
X162329761Y-83370000D01*
X162282142Y-83417619D01*
X162186904Y-83560476D01*
X162139285Y-83750952D01*
X162139285Y-84131904D01*
X162186904Y-84227142D01*
X162234523Y-84274761D01*
X162329761Y-84322380D01*
X162520238Y-84322380D01*
X162615476Y-84274761D01*
X162663095Y-84227142D01*
X162710714Y-84131904D01*
X162710714Y-83893809D01*
X162663095Y-83798571D01*
X162615476Y-83750952D01*
X162520238Y-83703333D01*
X162329761Y-83703333D01*
X162234523Y-83750952D01*
X162186904Y-83798571D01*
X162139285Y-83893809D01*
G04 #@! TO.C,C4*
X160762380Y-81822380D02*
X160190952Y-81822380D01*
X160476666Y-81822380D02*
X160476666Y-80822380D01*
X160381428Y-80965238D01*
X160286190Y-81060476D01*
X160190952Y-81108095D01*
X161381428Y-80822380D02*
X161476666Y-80822380D01*
X161571904Y-80870000D01*
X161619523Y-80917619D01*
X161667142Y-81012857D01*
X161714761Y-81203333D01*
X161714761Y-81441428D01*
X161667142Y-81631904D01*
X161619523Y-81727142D01*
X161571904Y-81774761D01*
X161476666Y-81822380D01*
X161381428Y-81822380D01*
X161286190Y-81774761D01*
X161238571Y-81727142D01*
X161190952Y-81631904D01*
X161143333Y-81441428D01*
X161143333Y-81203333D01*
X161190952Y-81012857D01*
X161238571Y-80917619D01*
X161286190Y-80870000D01*
X161381428Y-80822380D01*
X162333809Y-80822380D02*
X162429047Y-80822380D01*
X162524285Y-80870000D01*
X162571904Y-80917619D01*
X162619523Y-81012857D01*
X162667142Y-81203333D01*
X162667142Y-81441428D01*
X162619523Y-81631904D01*
X162571904Y-81727142D01*
X162524285Y-81774761D01*
X162429047Y-81822380D01*
X162333809Y-81822380D01*
X162238571Y-81774761D01*
X162190952Y-81727142D01*
X162143333Y-81631904D01*
X162095714Y-81441428D01*
X162095714Y-81203333D01*
X162143333Y-81012857D01*
X162190952Y-80917619D01*
X162238571Y-80870000D01*
X162333809Y-80822380D01*
X163095714Y-81155714D02*
X163095714Y-81822380D01*
X163095714Y-81250952D02*
X163143333Y-81203333D01*
X163238571Y-81155714D01*
X163381428Y-81155714D01*
X163476666Y-81203333D01*
X163524285Y-81298571D01*
X163524285Y-81822380D01*
X164333809Y-81298571D02*
X164000476Y-81298571D01*
X164000476Y-81822380D02*
X164000476Y-80822380D01*
X164476666Y-80822380D01*
X161758333Y-79727142D02*
X161710714Y-79774761D01*
X161567857Y-79822380D01*
X161472619Y-79822380D01*
X161329761Y-79774761D01*
X161234523Y-79679523D01*
X161186904Y-79584285D01*
X161139285Y-79393809D01*
X161139285Y-79250952D01*
X161186904Y-79060476D01*
X161234523Y-78965238D01*
X161329761Y-78870000D01*
X161472619Y-78822380D01*
X161567857Y-78822380D01*
X161710714Y-78870000D01*
X161758333Y-78917619D01*
X162615476Y-79155714D02*
X162615476Y-79822380D01*
X162377380Y-78774761D02*
X162139285Y-79489047D01*
X162758333Y-79489047D01*
G04 #@! TO.C,P1*
X133881904Y-80462380D02*
X133881904Y-79462380D01*
X134262857Y-79462380D01*
X134358095Y-79510000D01*
X134405714Y-79557619D01*
X134453333Y-79652857D01*
X134453333Y-79795714D01*
X134405714Y-79890952D01*
X134358095Y-79938571D01*
X134262857Y-79986190D01*
X133881904Y-79986190D01*
X135405714Y-80462380D02*
X134834285Y-80462380D01*
X135120000Y-80462380D02*
X135120000Y-79462380D01*
X135024761Y-79605238D01*
X134929523Y-79700476D01*
X134834285Y-79748095D01*
G04 #@! TO.C,R4*
X166262380Y-82060476D02*
X166262380Y-82631904D01*
X166262380Y-82346190D02*
X165262380Y-82346190D01*
X165405238Y-82441428D01*
X165500476Y-82536666D01*
X165548095Y-82631904D01*
X165262380Y-81441428D02*
X165262380Y-81346190D01*
X165310000Y-81250952D01*
X165357619Y-81203333D01*
X165452857Y-81155714D01*
X165643333Y-81108095D01*
X165881428Y-81108095D01*
X166071904Y-81155714D01*
X166167142Y-81203333D01*
X166214761Y-81250952D01*
X166262380Y-81346190D01*
X166262380Y-81441428D01*
X166214761Y-81536666D01*
X166167142Y-81584285D01*
X166071904Y-81631904D01*
X165881428Y-81679523D01*
X165643333Y-81679523D01*
X165452857Y-81631904D01*
X165357619Y-81584285D01*
X165310000Y-81536666D01*
X165262380Y-81441428D01*
X166262380Y-85536666D02*
X165786190Y-85870000D01*
X166262380Y-86108095D02*
X165262380Y-86108095D01*
X165262380Y-85727142D01*
X165310000Y-85631904D01*
X165357619Y-85584285D01*
X165452857Y-85536666D01*
X165595714Y-85536666D01*
X165690952Y-85584285D01*
X165738571Y-85631904D01*
X165786190Y-85727142D01*
X165786190Y-86108095D01*
X165595714Y-84679523D02*
X166262380Y-84679523D01*
X165214761Y-84917619D02*
X165929047Y-85155714D01*
X165929047Y-84536666D01*
G04 #@! TO.C,R5*
X166762380Y-100798571D02*
X166762380Y-101370000D01*
X166762380Y-101084285D02*
X165762380Y-101084285D01*
X165905238Y-101179523D01*
X166000476Y-101274761D01*
X166048095Y-101370000D01*
X166714761Y-100322380D02*
X166762380Y-100322380D01*
X166857619Y-100370000D01*
X166905238Y-100417619D01*
X165857619Y-99941428D02*
X165810000Y-99893809D01*
X165762380Y-99798571D01*
X165762380Y-99560476D01*
X165810000Y-99465238D01*
X165857619Y-99417619D01*
X165952857Y-99370000D01*
X166048095Y-99370000D01*
X166190952Y-99417619D01*
X166762380Y-99989047D01*
X166762380Y-99370000D01*
X166762380Y-98941428D02*
X165762380Y-98941428D01*
X166762380Y-98370000D02*
X166190952Y-98798571D01*
X165762380Y-98370000D02*
X166333809Y-98941428D01*
X168262380Y-100036666D02*
X167786190Y-100370000D01*
X168262380Y-100608095D02*
X167262380Y-100608095D01*
X167262380Y-100227142D01*
X167310000Y-100131904D01*
X167357619Y-100084285D01*
X167452857Y-100036666D01*
X167595714Y-100036666D01*
X167690952Y-100084285D01*
X167738571Y-100131904D01*
X167786190Y-100227142D01*
X167786190Y-100608095D01*
X167262380Y-99131904D02*
X167262380Y-99608095D01*
X167738571Y-99655714D01*
X167690952Y-99608095D01*
X167643333Y-99512857D01*
X167643333Y-99274761D01*
X167690952Y-99179523D01*
X167738571Y-99131904D01*
X167833809Y-99084285D01*
X168071904Y-99084285D01*
X168167142Y-99131904D01*
X168214761Y-99179523D01*
X168262380Y-99274761D01*
X168262380Y-99512857D01*
X168214761Y-99608095D01*
X168167142Y-99655714D01*
G04 #@! TO.C,R3*
X156762380Y-100298571D02*
X156762380Y-100870000D01*
X156762380Y-100584285D02*
X155762380Y-100584285D01*
X155905238Y-100679523D01*
X156000476Y-100774761D01*
X156048095Y-100870000D01*
X156714761Y-99822380D02*
X156762380Y-99822380D01*
X156857619Y-99870000D01*
X156905238Y-99917619D01*
X155857619Y-99441428D02*
X155810000Y-99393809D01*
X155762380Y-99298571D01*
X155762380Y-99060476D01*
X155810000Y-98965238D01*
X155857619Y-98917619D01*
X155952857Y-98870000D01*
X156048095Y-98870000D01*
X156190952Y-98917619D01*
X156762380Y-99489047D01*
X156762380Y-98870000D01*
X156762380Y-98441428D02*
X155762380Y-98441428D01*
X156762380Y-97870000D02*
X156190952Y-98298571D01*
X155762380Y-97870000D02*
X156333809Y-98441428D01*
X158762380Y-97536666D02*
X158286190Y-97870000D01*
X158762380Y-98108095D02*
X157762380Y-98108095D01*
X157762380Y-97727142D01*
X157810000Y-97631904D01*
X157857619Y-97584285D01*
X157952857Y-97536666D01*
X158095714Y-97536666D01*
X158190952Y-97584285D01*
X158238571Y-97631904D01*
X158286190Y-97727142D01*
X158286190Y-98108095D01*
X157762380Y-97203333D02*
X157762380Y-96584285D01*
X158143333Y-96917619D01*
X158143333Y-96774761D01*
X158190952Y-96679523D01*
X158238571Y-96631904D01*
X158333809Y-96584285D01*
X158571904Y-96584285D01*
X158667142Y-96631904D01*
X158714761Y-96679523D01*
X158762380Y-96774761D01*
X158762380Y-97060476D01*
X158714761Y-97155714D01*
X158667142Y-97203333D01*
G04 #@! TO.C,R2*
X144381428Y-91322380D02*
X143810000Y-91322380D01*
X144095714Y-91322380D02*
X144095714Y-90322380D01*
X144000476Y-90465238D01*
X143905238Y-90560476D01*
X143810000Y-90608095D01*
X144857619Y-91274761D02*
X144857619Y-91322380D01*
X144810000Y-91417619D01*
X144762380Y-91465238D01*
X145762380Y-90322380D02*
X145286190Y-90322380D01*
X145238571Y-90798571D01*
X145286190Y-90750952D01*
X145381428Y-90703333D01*
X145619523Y-90703333D01*
X145714761Y-90750952D01*
X145762380Y-90798571D01*
X145810000Y-90893809D01*
X145810000Y-91131904D01*
X145762380Y-91227142D01*
X145714761Y-91274761D01*
X145619523Y-91322380D01*
X145381428Y-91322380D01*
X145286190Y-91274761D01*
X145238571Y-91227142D01*
X146238571Y-91322380D02*
X146238571Y-90322380D01*
X146810000Y-91322380D02*
X146381428Y-90750952D01*
X146810000Y-90322380D02*
X146238571Y-90893809D01*
X141643333Y-91322380D02*
X141310000Y-90846190D01*
X141071904Y-91322380D02*
X141071904Y-90322380D01*
X141452857Y-90322380D01*
X141548095Y-90370000D01*
X141595714Y-90417619D01*
X141643333Y-90512857D01*
X141643333Y-90655714D01*
X141595714Y-90750952D01*
X141548095Y-90798571D01*
X141452857Y-90846190D01*
X141071904Y-90846190D01*
X142024285Y-90417619D02*
X142071904Y-90370000D01*
X142167142Y-90322380D01*
X142405238Y-90322380D01*
X142500476Y-90370000D01*
X142548095Y-90417619D01*
X142595714Y-90512857D01*
X142595714Y-90608095D01*
X142548095Y-90750952D01*
X141976666Y-91322380D01*
X142595714Y-91322380D01*
G04 #@! TO.C,R1*
X144381428Y-93822380D02*
X143810000Y-93822380D01*
X144095714Y-93822380D02*
X144095714Y-92822380D01*
X144000476Y-92965238D01*
X143905238Y-93060476D01*
X143810000Y-93108095D01*
X144857619Y-93774761D02*
X144857619Y-93822380D01*
X144810000Y-93917619D01*
X144762380Y-93965238D01*
X145762380Y-92822380D02*
X145286190Y-92822380D01*
X145238571Y-93298571D01*
X145286190Y-93250952D01*
X145381428Y-93203333D01*
X145619523Y-93203333D01*
X145714761Y-93250952D01*
X145762380Y-93298571D01*
X145810000Y-93393809D01*
X145810000Y-93631904D01*
X145762380Y-93727142D01*
X145714761Y-93774761D01*
X145619523Y-93822380D01*
X145381428Y-93822380D01*
X145286190Y-93774761D01*
X145238571Y-93727142D01*
X146238571Y-93822380D02*
X146238571Y-92822380D01*
X146810000Y-93822380D02*
X146381428Y-93250952D01*
X146810000Y-92822380D02*
X146238571Y-93393809D01*
X141643333Y-93822380D02*
X141310000Y-93346190D01*
X141071904Y-93822380D02*
X141071904Y-92822380D01*
X141452857Y-92822380D01*
X141548095Y-92870000D01*
X141595714Y-92917619D01*
X141643333Y-93012857D01*
X141643333Y-93155714D01*
X141595714Y-93250952D01*
X141548095Y-93298571D01*
X141452857Y-93346190D01*
X141071904Y-93346190D01*
X142595714Y-93822380D02*
X142024285Y-93822380D01*
X142310000Y-93822380D02*
X142310000Y-92822380D01*
X142214761Y-92965238D01*
X142119523Y-93060476D01*
X142024285Y-93108095D01*
G04 #@! TO.C,R6*
X132857619Y-98631904D02*
X132810000Y-98584285D01*
X132762380Y-98489047D01*
X132762380Y-98250952D01*
X132810000Y-98155714D01*
X132857619Y-98108095D01*
X132952857Y-98060476D01*
X133048095Y-98060476D01*
X133190952Y-98108095D01*
X133762380Y-98679523D01*
X133762380Y-98060476D01*
X132857619Y-97679523D02*
X132810000Y-97631904D01*
X132762380Y-97536666D01*
X132762380Y-97298571D01*
X132810000Y-97203333D01*
X132857619Y-97155714D01*
X132952857Y-97108095D01*
X133048095Y-97108095D01*
X133190952Y-97155714D01*
X133762380Y-97727142D01*
X133762380Y-97108095D01*
X133762380Y-96679523D02*
X132762380Y-96679523D01*
X133762380Y-96108095D02*
X133190952Y-96536666D01*
X132762380Y-96108095D02*
X133333809Y-96679523D01*
X133143333Y-100822380D02*
X132810000Y-100346190D01*
X132571904Y-100822380D02*
X132571904Y-99822380D01*
X132952857Y-99822380D01*
X133048095Y-99870000D01*
X133095714Y-99917619D01*
X133143333Y-100012857D01*
X133143333Y-100155714D01*
X133095714Y-100250952D01*
X133048095Y-100298571D01*
X132952857Y-100346190D01*
X132571904Y-100346190D01*
X134000476Y-99822380D02*
X133810000Y-99822380D01*
X133714761Y-99870000D01*
X133667142Y-99917619D01*
X133571904Y-100060476D01*
X133524285Y-100250952D01*
X133524285Y-100631904D01*
X133571904Y-100727142D01*
X133619523Y-100774761D01*
X133714761Y-100822380D01*
X133905238Y-100822380D01*
X134000476Y-100774761D01*
X134048095Y-100727142D01*
X134095714Y-100631904D01*
X134095714Y-100393809D01*
X134048095Y-100298571D01*
X134000476Y-100250952D01*
X133905238Y-100203333D01*
X133714761Y-100203333D01*
X133619523Y-100250952D01*
X133571904Y-100298571D01*
X133524285Y-100393809D01*
G04 #@! TO.C,RV1*
X137104523Y-99004380D02*
X136533095Y-99004380D01*
X136818809Y-99004380D02*
X136818809Y-98004380D01*
X136723571Y-98147238D01*
X136628333Y-98242476D01*
X136533095Y-98290095D01*
X137723571Y-98004380D02*
X137818809Y-98004380D01*
X137914047Y-98052000D01*
X137961666Y-98099619D01*
X138009285Y-98194857D01*
X138056904Y-98385333D01*
X138056904Y-98623428D01*
X138009285Y-98813904D01*
X137961666Y-98909142D01*
X137914047Y-98956761D01*
X137818809Y-99004380D01*
X137723571Y-99004380D01*
X137628333Y-98956761D01*
X137580714Y-98909142D01*
X137533095Y-98813904D01*
X137485476Y-98623428D01*
X137485476Y-98385333D01*
X137533095Y-98194857D01*
X137580714Y-98099619D01*
X137628333Y-98052000D01*
X137723571Y-98004380D01*
X138485476Y-99004380D02*
X138485476Y-98004380D01*
X139056904Y-99004380D02*
X138628333Y-98432952D01*
X139056904Y-98004380D02*
X138485476Y-98575809D01*
X137199761Y-96972380D02*
X136866428Y-96496190D01*
X136628333Y-96972380D02*
X136628333Y-95972380D01*
X137009285Y-95972380D01*
X137104523Y-96020000D01*
X137152142Y-96067619D01*
X137199761Y-96162857D01*
X137199761Y-96305714D01*
X137152142Y-96400952D01*
X137104523Y-96448571D01*
X137009285Y-96496190D01*
X136628333Y-96496190D01*
X137485476Y-95972380D02*
X137818809Y-96972380D01*
X138152142Y-95972380D01*
X139009285Y-96972380D02*
X138437857Y-96972380D01*
X138723571Y-96972380D02*
X138723571Y-95972380D01*
X138628333Y-96115238D01*
X138533095Y-96210476D01*
X138437857Y-96258095D01*
G04 #@! TO.C,RV2*
X137104523Y-88463380D02*
X136533095Y-88463380D01*
X136818809Y-88463380D02*
X136818809Y-87463380D01*
X136723571Y-87606238D01*
X136628333Y-87701476D01*
X136533095Y-87749095D01*
X137723571Y-87463380D02*
X137818809Y-87463380D01*
X137914047Y-87511000D01*
X137961666Y-87558619D01*
X138009285Y-87653857D01*
X138056904Y-87844333D01*
X138056904Y-88082428D01*
X138009285Y-88272904D01*
X137961666Y-88368142D01*
X137914047Y-88415761D01*
X137818809Y-88463380D01*
X137723571Y-88463380D01*
X137628333Y-88415761D01*
X137580714Y-88368142D01*
X137533095Y-88272904D01*
X137485476Y-88082428D01*
X137485476Y-87844333D01*
X137533095Y-87653857D01*
X137580714Y-87558619D01*
X137628333Y-87511000D01*
X137723571Y-87463380D01*
X138485476Y-88463380D02*
X138485476Y-87463380D01*
X139056904Y-88463380D02*
X138628333Y-87891952D01*
X139056904Y-87463380D02*
X138485476Y-88034809D01*
X137199761Y-86685380D02*
X136866428Y-86209190D01*
X136628333Y-86685380D02*
X136628333Y-85685380D01*
X137009285Y-85685380D01*
X137104523Y-85733000D01*
X137152142Y-85780619D01*
X137199761Y-85875857D01*
X137199761Y-86018714D01*
X137152142Y-86113952D01*
X137104523Y-86161571D01*
X137009285Y-86209190D01*
X136628333Y-86209190D01*
X137485476Y-85685380D02*
X137818809Y-86685380D01*
X138152142Y-85685380D01*
X138437857Y-85780619D02*
X138485476Y-85733000D01*
X138580714Y-85685380D01*
X138818809Y-85685380D01*
X138914047Y-85733000D01*
X138961666Y-85780619D01*
X139009285Y-85875857D01*
X139009285Y-85971095D01*
X138961666Y-86113952D01*
X138390238Y-86685380D01*
X139009285Y-86685380D01*
G04 #@! TO.C,R7*
X132857619Y-87131904D02*
X132810000Y-87084285D01*
X132762380Y-86989047D01*
X132762380Y-86750952D01*
X132810000Y-86655714D01*
X132857619Y-86608095D01*
X132952857Y-86560476D01*
X133048095Y-86560476D01*
X133190952Y-86608095D01*
X133762380Y-87179523D01*
X133762380Y-86560476D01*
X132857619Y-86179523D02*
X132810000Y-86131904D01*
X132762380Y-86036666D01*
X132762380Y-85798571D01*
X132810000Y-85703333D01*
X132857619Y-85655714D01*
X132952857Y-85608095D01*
X133048095Y-85608095D01*
X133190952Y-85655714D01*
X133762380Y-86227142D01*
X133762380Y-85608095D01*
X133762380Y-85179523D02*
X132762380Y-85179523D01*
X133762380Y-84608095D02*
X133190952Y-85036666D01*
X132762380Y-84608095D02*
X133333809Y-85179523D01*
X133143333Y-82822380D02*
X132810000Y-82346190D01*
X132571904Y-82822380D02*
X132571904Y-81822380D01*
X132952857Y-81822380D01*
X133048095Y-81870000D01*
X133095714Y-81917619D01*
X133143333Y-82012857D01*
X133143333Y-82155714D01*
X133095714Y-82250952D01*
X133048095Y-82298571D01*
X132952857Y-82346190D01*
X132571904Y-82346190D01*
X133476666Y-81822380D02*
X134143333Y-81822380D01*
X133714761Y-82822380D01*
G04 #@! TO.C,P2*
X132611904Y-91892380D02*
X132611904Y-90892380D01*
X132992857Y-90892380D01*
X133088095Y-90940000D01*
X133135714Y-90987619D01*
X133183333Y-91082857D01*
X133183333Y-91225714D01*
X133135714Y-91320952D01*
X133088095Y-91368571D01*
X132992857Y-91416190D01*
X132611904Y-91416190D01*
X133564285Y-90987619D02*
X133611904Y-90940000D01*
X133707142Y-90892380D01*
X133945238Y-90892380D01*
X134040476Y-90940000D01*
X134088095Y-90987619D01*
X134135714Y-91082857D01*
X134135714Y-91178095D01*
X134088095Y-91320952D01*
X133516666Y-91892380D01*
X134135714Y-91892380D01*
G04 #@! TO.C,U1*
X151979523Y-91257380D02*
X151503333Y-91257380D01*
X151503333Y-90257380D01*
X152312857Y-91257380D02*
X152312857Y-90257380D01*
X152646190Y-90971666D01*
X152979523Y-90257380D01*
X152979523Y-91257380D01*
X153360476Y-90257380D02*
X153979523Y-90257380D01*
X153646190Y-90638333D01*
X153789047Y-90638333D01*
X153884285Y-90685952D01*
X153931904Y-90733571D01*
X153979523Y-90828809D01*
X153979523Y-91066904D01*
X153931904Y-91162142D01*
X153884285Y-91209761D01*
X153789047Y-91257380D01*
X153503333Y-91257380D01*
X153408095Y-91209761D01*
X153360476Y-91162142D01*
X154550952Y-90685952D02*
X154455714Y-90638333D01*
X154408095Y-90590714D01*
X154360476Y-90495476D01*
X154360476Y-90447857D01*
X154408095Y-90352619D01*
X154455714Y-90305000D01*
X154550952Y-90257380D01*
X154741428Y-90257380D01*
X154836666Y-90305000D01*
X154884285Y-90352619D01*
X154931904Y-90447857D01*
X154931904Y-90495476D01*
X154884285Y-90590714D01*
X154836666Y-90638333D01*
X154741428Y-90685952D01*
X154550952Y-90685952D01*
X154455714Y-90733571D01*
X154408095Y-90781190D01*
X154360476Y-90876428D01*
X154360476Y-91066904D01*
X154408095Y-91162142D01*
X154455714Y-91209761D01*
X154550952Y-91257380D01*
X154741428Y-91257380D01*
X154836666Y-91209761D01*
X154884285Y-91162142D01*
X154931904Y-91066904D01*
X154931904Y-90876428D01*
X154884285Y-90781190D01*
X154836666Y-90733571D01*
X154741428Y-90685952D01*
X155789047Y-90257380D02*
X155598571Y-90257380D01*
X155503333Y-90305000D01*
X155455714Y-90352619D01*
X155360476Y-90495476D01*
X155312857Y-90685952D01*
X155312857Y-91066904D01*
X155360476Y-91162142D01*
X155408095Y-91209761D01*
X155503333Y-91257380D01*
X155693809Y-91257380D01*
X155789047Y-91209761D01*
X155836666Y-91162142D01*
X155884285Y-91066904D01*
X155884285Y-90828809D01*
X155836666Y-90733571D01*
X155789047Y-90685952D01*
X155693809Y-90638333D01*
X155503333Y-90638333D01*
X155408095Y-90685952D01*
X155360476Y-90733571D01*
X155312857Y-90828809D01*
X152908095Y-88352380D02*
X152908095Y-89161904D01*
X152955714Y-89257142D01*
X153003333Y-89304761D01*
X153098571Y-89352380D01*
X153289047Y-89352380D01*
X153384285Y-89304761D01*
X153431904Y-89257142D01*
X153479523Y-89161904D01*
X153479523Y-88352380D01*
X154479523Y-89352380D02*
X153908095Y-89352380D01*
X154193809Y-89352380D02*
X154193809Y-88352380D01*
X154098571Y-88495238D01*
X154003333Y-88590476D01*
X153908095Y-88638095D01*
G04 #@! TO.C,C1*
X150114142Y-100274380D02*
X149542714Y-100274380D01*
X149828428Y-100274380D02*
X149828428Y-99274380D01*
X149733190Y-99417238D01*
X149637952Y-99512476D01*
X149542714Y-99560095D01*
X150733190Y-99274380D02*
X150828428Y-99274380D01*
X150923666Y-99322000D01*
X150971285Y-99369619D01*
X151018904Y-99464857D01*
X151066523Y-99655333D01*
X151066523Y-99893428D01*
X151018904Y-100083904D01*
X150971285Y-100179142D01*
X150923666Y-100226761D01*
X150828428Y-100274380D01*
X150733190Y-100274380D01*
X150637952Y-100226761D01*
X150590333Y-100179142D01*
X150542714Y-100083904D01*
X150495095Y-99893428D01*
X150495095Y-99655333D01*
X150542714Y-99464857D01*
X150590333Y-99369619D01*
X150637952Y-99322000D01*
X150733190Y-99274380D01*
X151495095Y-99607714D02*
X151495095Y-100607714D01*
X151971285Y-100131523D02*
X152018904Y-100226761D01*
X152114142Y-100274380D01*
X151495095Y-100131523D02*
X151542714Y-100226761D01*
X151637952Y-100274380D01*
X151828428Y-100274380D01*
X151923666Y-100226761D01*
X151971285Y-100131523D01*
X151971285Y-99607714D01*
X152876047Y-99750571D02*
X152542714Y-99750571D01*
X152542714Y-100274380D02*
X152542714Y-99274380D01*
X153018904Y-99274380D01*
X143978333Y-98147142D02*
X143930714Y-98194761D01*
X143787857Y-98242380D01*
X143692619Y-98242380D01*
X143549761Y-98194761D01*
X143454523Y-98099523D01*
X143406904Y-98004285D01*
X143359285Y-97813809D01*
X143359285Y-97670952D01*
X143406904Y-97480476D01*
X143454523Y-97385238D01*
X143549761Y-97290000D01*
X143692619Y-97242380D01*
X143787857Y-97242380D01*
X143930714Y-97290000D01*
X143978333Y-97337619D01*
X144930714Y-98242380D02*
X144359285Y-98242380D01*
X144645000Y-98242380D02*
X144645000Y-97242380D01*
X144549761Y-97385238D01*
X144454523Y-97480476D01*
X144359285Y-97528095D01*
G04 #@! TO.C,C2*
X143256142Y-87447380D02*
X142684714Y-87447380D01*
X142970428Y-87447380D02*
X142970428Y-86447380D01*
X142875190Y-86590238D01*
X142779952Y-86685476D01*
X142684714Y-86733095D01*
X143875190Y-86447380D02*
X143970428Y-86447380D01*
X144065666Y-86495000D01*
X144113285Y-86542619D01*
X144160904Y-86637857D01*
X144208523Y-86828333D01*
X144208523Y-87066428D01*
X144160904Y-87256904D01*
X144113285Y-87352142D01*
X144065666Y-87399761D01*
X143970428Y-87447380D01*
X143875190Y-87447380D01*
X143779952Y-87399761D01*
X143732333Y-87352142D01*
X143684714Y-87256904D01*
X143637095Y-87066428D01*
X143637095Y-86828333D01*
X143684714Y-86637857D01*
X143732333Y-86542619D01*
X143779952Y-86495000D01*
X143875190Y-86447380D01*
X144637095Y-86780714D02*
X144637095Y-87780714D01*
X145113285Y-87304523D02*
X145160904Y-87399761D01*
X145256142Y-87447380D01*
X144637095Y-87304523D02*
X144684714Y-87399761D01*
X144779952Y-87447380D01*
X144970428Y-87447380D01*
X145065666Y-87399761D01*
X145113285Y-87304523D01*
X145113285Y-86780714D01*
X146018047Y-86923571D02*
X145684714Y-86923571D01*
X145684714Y-87447380D02*
X145684714Y-86447380D01*
X146160904Y-86447380D01*
X143978333Y-85447142D02*
X143930714Y-85494761D01*
X143787857Y-85542380D01*
X143692619Y-85542380D01*
X143549761Y-85494761D01*
X143454523Y-85399523D01*
X143406904Y-85304285D01*
X143359285Y-85113809D01*
X143359285Y-84970952D01*
X143406904Y-84780476D01*
X143454523Y-84685238D01*
X143549761Y-84590000D01*
X143692619Y-84542380D01*
X143787857Y-84542380D01*
X143930714Y-84590000D01*
X143978333Y-84637619D01*
X144359285Y-84637619D02*
X144406904Y-84590000D01*
X144502142Y-84542380D01*
X144740238Y-84542380D01*
X144835476Y-84590000D01*
X144883095Y-84637619D01*
X144930714Y-84732857D01*
X144930714Y-84828095D01*
X144883095Y-84970952D01*
X144311666Y-85542380D01*
X144930714Y-85542380D01*
G04 #@! TO.C,C3*
X155067142Y-83637380D02*
X154495714Y-83637380D01*
X154781428Y-83637380D02*
X154781428Y-82637380D01*
X154686190Y-82780238D01*
X154590952Y-82875476D01*
X154495714Y-82923095D01*
X155686190Y-82637380D02*
X155781428Y-82637380D01*
X155876666Y-82685000D01*
X155924285Y-82732619D01*
X155971904Y-82827857D01*
X156019523Y-83018333D01*
X156019523Y-83256428D01*
X155971904Y-83446904D01*
X155924285Y-83542142D01*
X155876666Y-83589761D01*
X155781428Y-83637380D01*
X155686190Y-83637380D01*
X155590952Y-83589761D01*
X155543333Y-83542142D01*
X155495714Y-83446904D01*
X155448095Y-83256428D01*
X155448095Y-83018333D01*
X155495714Y-82827857D01*
X155543333Y-82732619D01*
X155590952Y-82685000D01*
X155686190Y-82637380D01*
X156448095Y-82970714D02*
X156448095Y-83970714D01*
X156924285Y-83494523D02*
X156971904Y-83589761D01*
X157067142Y-83637380D01*
X156448095Y-83494523D02*
X156495714Y-83589761D01*
X156590952Y-83637380D01*
X156781428Y-83637380D01*
X156876666Y-83589761D01*
X156924285Y-83494523D01*
X156924285Y-82970714D01*
X157829047Y-83113571D02*
X157495714Y-83113571D01*
X157495714Y-83637380D02*
X157495714Y-82637380D01*
X157971904Y-82637380D01*
X156043333Y-79732142D02*
X155995714Y-79779761D01*
X155852857Y-79827380D01*
X155757619Y-79827380D01*
X155614761Y-79779761D01*
X155519523Y-79684523D01*
X155471904Y-79589285D01*
X155424285Y-79398809D01*
X155424285Y-79255952D01*
X155471904Y-79065476D01*
X155519523Y-78970238D01*
X155614761Y-78875000D01*
X155757619Y-78827380D01*
X155852857Y-78827380D01*
X155995714Y-78875000D01*
X156043333Y-78922619D01*
X156376666Y-78827380D02*
X156995714Y-78827380D01*
X156662380Y-79208333D01*
X156805238Y-79208333D01*
X156900476Y-79255952D01*
X156948095Y-79303571D01*
X156995714Y-79398809D01*
X156995714Y-79636904D01*
X156948095Y-79732142D01*
X156900476Y-79779761D01*
X156805238Y-79827380D01*
X156519523Y-79827380D01*
X156424285Y-79779761D01*
X156376666Y-79732142D01*
G04 #@! TO.C,C5*
X143129142Y-100147380D02*
X142557714Y-100147380D01*
X142843428Y-100147380D02*
X142843428Y-99147380D01*
X142748190Y-99290238D01*
X142652952Y-99385476D01*
X142557714Y-99433095D01*
X143748190Y-99147380D02*
X143843428Y-99147380D01*
X143938666Y-99195000D01*
X143986285Y-99242619D01*
X144033904Y-99337857D01*
X144081523Y-99528333D01*
X144081523Y-99766428D01*
X144033904Y-99956904D01*
X143986285Y-100052142D01*
X143938666Y-100099761D01*
X143843428Y-100147380D01*
X143748190Y-100147380D01*
X143652952Y-100099761D01*
X143605333Y-100052142D01*
X143557714Y-99956904D01*
X143510095Y-99766428D01*
X143510095Y-99528333D01*
X143557714Y-99337857D01*
X143605333Y-99242619D01*
X143652952Y-99195000D01*
X143748190Y-99147380D01*
X144510095Y-99480714D02*
X144510095Y-100480714D01*
X144986285Y-100004523D02*
X145033904Y-100099761D01*
X145129142Y-100147380D01*
X144510095Y-100004523D02*
X144557714Y-100099761D01*
X144652952Y-100147380D01*
X144843428Y-100147380D01*
X144938666Y-100099761D01*
X144986285Y-100004523D01*
X144986285Y-99480714D01*
X145891047Y-99623571D02*
X145557714Y-99623571D01*
X145557714Y-100147380D02*
X145557714Y-99147380D01*
X146033904Y-99147380D01*
X150963333Y-98401142D02*
X150915714Y-98448761D01*
X150772857Y-98496380D01*
X150677619Y-98496380D01*
X150534761Y-98448761D01*
X150439523Y-98353523D01*
X150391904Y-98258285D01*
X150344285Y-98067809D01*
X150344285Y-97924952D01*
X150391904Y-97734476D01*
X150439523Y-97639238D01*
X150534761Y-97544000D01*
X150677619Y-97496380D01*
X150772857Y-97496380D01*
X150915714Y-97544000D01*
X150963333Y-97591619D01*
X151868095Y-97496380D02*
X151391904Y-97496380D01*
X151344285Y-97972571D01*
X151391904Y-97924952D01*
X151487142Y-97877333D01*
X151725238Y-97877333D01*
X151820476Y-97924952D01*
X151868095Y-97972571D01*
X151915714Y-98067809D01*
X151915714Y-98305904D01*
X151868095Y-98401142D01*
X151820476Y-98448761D01*
X151725238Y-98496380D01*
X151487142Y-98496380D01*
X151391904Y-98448761D01*
X151344285Y-98401142D01*
G04 #@! TO.C,C7*
X161671142Y-92146380D02*
X161099714Y-92146380D01*
X161385428Y-92146380D02*
X161385428Y-91146380D01*
X161290190Y-91289238D01*
X161194952Y-91384476D01*
X161099714Y-91432095D01*
X162290190Y-91146380D02*
X162385428Y-91146380D01*
X162480666Y-91194000D01*
X162528285Y-91241619D01*
X162575904Y-91336857D01*
X162623523Y-91527333D01*
X162623523Y-91765428D01*
X162575904Y-91955904D01*
X162528285Y-92051142D01*
X162480666Y-92098761D01*
X162385428Y-92146380D01*
X162290190Y-92146380D01*
X162194952Y-92098761D01*
X162147333Y-92051142D01*
X162099714Y-91955904D01*
X162052095Y-91765428D01*
X162052095Y-91527333D01*
X162099714Y-91336857D01*
X162147333Y-91241619D01*
X162194952Y-91194000D01*
X162290190Y-91146380D01*
X163052095Y-91479714D02*
X163052095Y-92479714D01*
X163528285Y-92003523D02*
X163575904Y-92098761D01*
X163671142Y-92146380D01*
X163052095Y-92003523D02*
X163099714Y-92098761D01*
X163194952Y-92146380D01*
X163385428Y-92146380D01*
X163480666Y-92098761D01*
X163528285Y-92003523D01*
X163528285Y-91479714D01*
X164433047Y-91622571D02*
X164099714Y-91622571D01*
X164099714Y-92146380D02*
X164099714Y-91146380D01*
X164575904Y-91146380D01*
X162393333Y-90273142D02*
X162345714Y-90320761D01*
X162202857Y-90368380D01*
X162107619Y-90368380D01*
X161964761Y-90320761D01*
X161869523Y-90225523D01*
X161821904Y-90130285D01*
X161774285Y-89939809D01*
X161774285Y-89796952D01*
X161821904Y-89606476D01*
X161869523Y-89511238D01*
X161964761Y-89416000D01*
X162107619Y-89368380D01*
X162202857Y-89368380D01*
X162345714Y-89416000D01*
X162393333Y-89463619D01*
X162726666Y-89368380D02*
X163393333Y-89368380D01*
X162964761Y-90368380D01*
G04 #@! TO.C,SP1*
X158805952Y-102385761D02*
X158948809Y-102433380D01*
X159186904Y-102433380D01*
X159282142Y-102385761D01*
X159329761Y-102338142D01*
X159377380Y-102242904D01*
X159377380Y-102147666D01*
X159329761Y-102052428D01*
X159282142Y-102004809D01*
X159186904Y-101957190D01*
X158996428Y-101909571D01*
X158901190Y-101861952D01*
X158853571Y-101814333D01*
X158805952Y-101719095D01*
X158805952Y-101623857D01*
X158853571Y-101528619D01*
X158901190Y-101481000D01*
X158996428Y-101433380D01*
X159234523Y-101433380D01*
X159377380Y-101481000D01*
X159805952Y-102433380D02*
X159805952Y-101433380D01*
X160186904Y-101433380D01*
X160282142Y-101481000D01*
X160329761Y-101528619D01*
X160377380Y-101623857D01*
X160377380Y-101766714D01*
X160329761Y-101861952D01*
X160282142Y-101909571D01*
X160186904Y-101957190D01*
X159805952Y-101957190D01*
X160805952Y-101909571D02*
X161139285Y-101909571D01*
X161282142Y-102433380D02*
X160805952Y-102433380D01*
X160805952Y-101433380D01*
X161282142Y-101433380D01*
X161663095Y-102147666D02*
X162139285Y-102147666D01*
X161567857Y-102433380D02*
X161901190Y-101433380D01*
X162234523Y-102433380D01*
X162567857Y-102433380D02*
X162567857Y-101433380D01*
X163139285Y-102433380D02*
X162710714Y-101861952D01*
X163139285Y-101433380D02*
X162567857Y-102004809D01*
X163567857Y-101909571D02*
X163901190Y-101909571D01*
X164044047Y-102433380D02*
X163567857Y-102433380D01*
X163567857Y-101433380D01*
X164044047Y-101433380D01*
X165044047Y-102433380D02*
X164710714Y-101957190D01*
X164472619Y-102433380D02*
X164472619Y-101433380D01*
X164853571Y-101433380D01*
X164948809Y-101481000D01*
X164996428Y-101528619D01*
X165044047Y-101623857D01*
X165044047Y-101766714D01*
X164996428Y-101861952D01*
X164948809Y-101909571D01*
X164853571Y-101957190D01*
X164472619Y-101957190D01*
G04 #@! TO.C,J1*
X160552142Y-95337380D02*
X160552142Y-96051666D01*
X160504523Y-96194523D01*
X160409285Y-96289761D01*
X160266428Y-96337380D01*
X160171190Y-96337380D01*
X160980714Y-96051666D02*
X161456904Y-96051666D01*
X160885476Y-96337380D02*
X161218809Y-95337380D01*
X161552142Y-96337380D01*
X162456904Y-96242142D02*
X162409285Y-96289761D01*
X162266428Y-96337380D01*
X162171190Y-96337380D01*
X162028333Y-96289761D01*
X161933095Y-96194523D01*
X161885476Y-96099285D01*
X161837857Y-95908809D01*
X161837857Y-95765952D01*
X161885476Y-95575476D01*
X161933095Y-95480238D01*
X162028333Y-95385000D01*
X162171190Y-95337380D01*
X162266428Y-95337380D01*
X162409285Y-95385000D01*
X162456904Y-95432619D01*
X162885476Y-96337380D02*
X162885476Y-95337380D01*
X163456904Y-96337380D02*
X163028333Y-95765952D01*
X163456904Y-95337380D02*
X162885476Y-95908809D01*
X163647380Y-96432619D02*
X164409285Y-96432619D01*
X164599761Y-95432619D02*
X164647380Y-95385000D01*
X164742619Y-95337380D01*
X164980714Y-95337380D01*
X165075952Y-95385000D01*
X165123571Y-95432619D01*
X165171190Y-95527857D01*
X165171190Y-95623095D01*
X165123571Y-95765952D01*
X164552142Y-96337380D01*
X165171190Y-96337380D01*
X165599761Y-96337380D02*
X165599761Y-95337380D01*
X165980714Y-95337380D01*
X166075952Y-95385000D01*
X166123571Y-95432619D01*
X166171190Y-95527857D01*
X166171190Y-95670714D01*
X166123571Y-95765952D01*
X166075952Y-95813571D01*
X165980714Y-95861190D01*
X165599761Y-95861190D01*
G04 #@! TO.C,C8*
X148102142Y-83637380D02*
X147530714Y-83637380D01*
X147816428Y-83637380D02*
X147816428Y-82637380D01*
X147721190Y-82780238D01*
X147625952Y-82875476D01*
X147530714Y-82923095D01*
X148721190Y-82637380D02*
X148816428Y-82637380D01*
X148911666Y-82685000D01*
X148959285Y-82732619D01*
X149006904Y-82827857D01*
X149054523Y-83018333D01*
X149054523Y-83256428D01*
X149006904Y-83446904D01*
X148959285Y-83542142D01*
X148911666Y-83589761D01*
X148816428Y-83637380D01*
X148721190Y-83637380D01*
X148625952Y-83589761D01*
X148578333Y-83542142D01*
X148530714Y-83446904D01*
X148483095Y-83256428D01*
X148483095Y-83018333D01*
X148530714Y-82827857D01*
X148578333Y-82732619D01*
X148625952Y-82685000D01*
X148721190Y-82637380D01*
X149483095Y-82970714D02*
X149483095Y-83970714D01*
X149959285Y-83494523D02*
X150006904Y-83589761D01*
X150102142Y-83637380D01*
X149483095Y-83494523D02*
X149530714Y-83589761D01*
X149625952Y-83637380D01*
X149816428Y-83637380D01*
X149911666Y-83589761D01*
X149959285Y-83494523D01*
X149959285Y-82970714D01*
X150864047Y-83113571D02*
X150530714Y-83113571D01*
X150530714Y-83637380D02*
X150530714Y-82637380D01*
X151006904Y-82637380D01*
X149058333Y-79732142D02*
X149010714Y-79779761D01*
X148867857Y-79827380D01*
X148772619Y-79827380D01*
X148629761Y-79779761D01*
X148534523Y-79684523D01*
X148486904Y-79589285D01*
X148439285Y-79398809D01*
X148439285Y-79255952D01*
X148486904Y-79065476D01*
X148534523Y-78970238D01*
X148629761Y-78875000D01*
X148772619Y-78827380D01*
X148867857Y-78827380D01*
X149010714Y-78875000D01*
X149058333Y-78922619D01*
X149629761Y-79255952D02*
X149534523Y-79208333D01*
X149486904Y-79160714D01*
X149439285Y-79065476D01*
X149439285Y-79017857D01*
X149486904Y-78922619D01*
X149534523Y-78875000D01*
X149629761Y-78827380D01*
X149820238Y-78827380D01*
X149915476Y-78875000D01*
X149963095Y-78922619D01*
X150010714Y-79017857D01*
X150010714Y-79065476D01*
X149963095Y-79160714D01*
X149915476Y-79208333D01*
X149820238Y-79255952D01*
X149629761Y-79255952D01*
X149534523Y-79303571D01*
X149486904Y-79351190D01*
X149439285Y-79446428D01*
X149439285Y-79636904D01*
X149486904Y-79732142D01*
X149534523Y-79779761D01*
X149629761Y-79827380D01*
X149820238Y-79827380D01*
X149915476Y-79779761D01*
X149963095Y-79732142D01*
X150010714Y-79636904D01*
X150010714Y-79446428D01*
X149963095Y-79351190D01*
X149915476Y-79303571D01*
X149820238Y-79255952D01*
G04 #@! TD*
M02*
