%FSLAX45Y45*%
G04 Gerber Fmt 4.5, Leading zero omitted, Abs format (unit mm)*
G04 Created by KiCad (PCBNEW (5.0.2)-1) date 09/11/2019 14:29:26*
%MOMM*%
%LPD*%
G01*
G04 APERTURE LIST*
%ADD10C,0.150000*%
%ADD11C,0.200000*%
%ADD12C,0.300000*%
G04 APERTURE END LIST*
D10*
X13081000Y-7747000D02*
X13081000Y-10287000D01*
X16827500Y-7747000D02*
X13081000Y-7747000D01*
X16827500Y-10287000D02*
X16827500Y-7747000D01*
X13081000Y-10287000D02*
X16827500Y-10287000D01*
D11*
X16538500Y-8029500D02*
X16608500Y-8099500D01*
X16608500Y-8029500D02*
X16538500Y-8099500D01*
X16538500Y-8283500D02*
X16608500Y-8353500D01*
X16608500Y-8283500D02*
X16538500Y-8353500D01*
X16602000Y-9807500D02*
X16672000Y-9877500D01*
X16672000Y-9807500D02*
X16602000Y-9877500D01*
X16602000Y-10061500D02*
X16672000Y-10131500D01*
X16672000Y-10061500D02*
X16602000Y-10131500D01*
X15586000Y-9744000D02*
X15656000Y-9814000D01*
X15656000Y-9744000D02*
X15586000Y-9814000D01*
X15586000Y-9998000D02*
X15656000Y-10068000D01*
X15656000Y-9998000D02*
X15586000Y-10068000D01*
X14379500Y-9045500D02*
X14449500Y-9115500D01*
X14449500Y-9045500D02*
X14379500Y-9115500D01*
X14633500Y-9045500D02*
X14703500Y-9115500D01*
X14703500Y-9045500D02*
X14633500Y-9115500D01*
X14379500Y-9299500D02*
X14449500Y-9369500D01*
X14449500Y-9299500D02*
X14379500Y-9369500D01*
X14633500Y-9299500D02*
X14703500Y-9369500D01*
X14703500Y-9299500D02*
X14633500Y-9369500D01*
X13300000Y-9553500D02*
X13370000Y-9623500D01*
X13370000Y-9553500D02*
X13300000Y-9623500D01*
X13300000Y-9807500D02*
X13370000Y-9877500D01*
X13370000Y-9807500D02*
X13300000Y-9877500D01*
X13300000Y-8410500D02*
X13370000Y-8480500D01*
X13370000Y-8410500D02*
X13300000Y-8480500D01*
X13300000Y-8664500D02*
X13370000Y-8734500D01*
X13370000Y-8664500D02*
X13300000Y-8734500D01*
X16105500Y-8572500D02*
G75*
G03X16105500Y-8572500I-40000J0D01*
G01*
X16359500Y-8572500D02*
G75*
G03X16359500Y-8572500I-40000J0D01*
G01*
X16105500Y-8128000D02*
G75*
G03X16105500Y-8128000I-40000J0D01*
G01*
X16359500Y-8128000D02*
G75*
G03X16359500Y-8128000I-40000J0D01*
G01*
X13819500Y-9461500D02*
G75*
G03X13819500Y-9461500I-40000J0D01*
G01*
X13819500Y-9715500D02*
G75*
G03X13819500Y-9715500I-40000J0D01*
G01*
X13819500Y-9969500D02*
G75*
G03X13819500Y-9969500I-40000J0D01*
G01*
X13819500Y-8445500D02*
G75*
G03X13819500Y-8445500I-40000J0D01*
G01*
X13819500Y-8699500D02*
G75*
G03X13819500Y-8699500I-40000J0D01*
G01*
X13819500Y-8953500D02*
G75*
G03X13819500Y-8953500I-40000J0D01*
G01*
X15026000Y-8636000D02*
G75*
G03X15026000Y-8636000I-40000J0D01*
G01*
X15026000Y-9398000D02*
G75*
G03X15026000Y-9398000I-40000J0D01*
G01*
X15280000Y-8636000D02*
G75*
G03X15280000Y-8636000I-40000J0D01*
G01*
X15280000Y-9398000D02*
G75*
G03X15280000Y-9398000I-40000J0D01*
G01*
X15534000Y-8636000D02*
G75*
G03X15534000Y-8636000I-40000J0D01*
G01*
X15534000Y-9398000D02*
G75*
G03X15534000Y-9398000I-40000J0D01*
G01*
X15788000Y-8636000D02*
G75*
G03X15788000Y-8636000I-40000J0D01*
G01*
X15788000Y-9398000D02*
G75*
G03X15788000Y-9398000I-40000J0D01*
G01*
X14454500Y-9783000D02*
G75*
G03X14454500Y-9783000I-40000J0D01*
G01*
X14454500Y-10033000D02*
G75*
G03X14454500Y-10033000I-40000J0D01*
G01*
X14454500Y-8445500D02*
G75*
G03X14454500Y-8445500I-40000J0D01*
G01*
X14454500Y-8695500D02*
G75*
G03X14454500Y-8695500I-40000J0D01*
G01*
X15538000Y-8128000D02*
G75*
G03X15538000Y-8128000I-40000J0D01*
G01*
X15788000Y-8128000D02*
G75*
G03X15788000Y-8128000I-40000J0D01*
G01*
X15153000Y-9779000D02*
G75*
G03X15153000Y-9779000I-40000J0D01*
G01*
X15153000Y-10029000D02*
G75*
G03X15153000Y-10029000I-40000J0D01*
G01*
X16296000Y-8953500D02*
G75*
G03X16296000Y-8953500I-40000J0D01*
G01*
X16296000Y-9203500D02*
G75*
G03X16296000Y-9203500I-40000J0D01*
G01*
X14839500Y-8128000D02*
G75*
G03X14839500Y-8128000I-40000J0D01*
G01*
X15089500Y-8128000D02*
G75*
G03X15089500Y-8128000I-40000J0D01*
G01*
X13335000Y-7951000D02*
X13335000Y-8051000D01*
X13285000Y-8001000D02*
X13385000Y-8001000D01*
X13589000Y-7951000D02*
X13589000Y-8051000D01*
X13539000Y-8001000D02*
X13639000Y-8001000D01*
X13335000Y-8967000D02*
X13335000Y-9067000D01*
X13285000Y-9017000D02*
X13385000Y-9017000D01*
X13335000Y-9221000D02*
X13335000Y-9321000D01*
X13285000Y-9271000D02*
X13385000Y-9271000D01*
X16065500Y-9919500D02*
X16065500Y-10019500D01*
X16015500Y-9969500D02*
X16115500Y-9969500D01*
X16319500Y-9919500D02*
X16319500Y-10019500D01*
X16269500Y-9969500D02*
X16369500Y-9969500D01*
X16065500Y-9538500D02*
X16065500Y-9638500D01*
X16015500Y-9588500D02*
X16115500Y-9588500D01*
X16319500Y-9538500D02*
X16319500Y-9638500D01*
X16269500Y-9588500D02*
X16369500Y-9588500D01*
X16573500Y-9538500D02*
X16573500Y-9638500D01*
X16523500Y-9588500D02*
X16623500Y-9588500D01*
D12*
X13359928Y-10760214D02*
X13359928Y-10460214D01*
X13431357Y-10460214D01*
X13474214Y-10474500D01*
X13502786Y-10503072D01*
X13517071Y-10531643D01*
X13531357Y-10588786D01*
X13531357Y-10631643D01*
X13517071Y-10688786D01*
X13502786Y-10717357D01*
X13474214Y-10745929D01*
X13431357Y-10760214D01*
X13359928Y-10760214D01*
X13659928Y-10760214D02*
X13659928Y-10560214D01*
X13659928Y-10617357D02*
X13674214Y-10588786D01*
X13688500Y-10574500D01*
X13717071Y-10560214D01*
X13745643Y-10560214D01*
X13845643Y-10760214D02*
X13845643Y-10560214D01*
X13845643Y-10460214D02*
X13831357Y-10474500D01*
X13845643Y-10488786D01*
X13859928Y-10474500D01*
X13845643Y-10460214D01*
X13845643Y-10488786D01*
X14031357Y-10760214D02*
X14002786Y-10745929D01*
X13988500Y-10717357D01*
X13988500Y-10460214D01*
X14188500Y-10760214D02*
X14159928Y-10745929D01*
X14145643Y-10717357D01*
X14145643Y-10460214D01*
X14531357Y-10760214D02*
X14531357Y-10460214D01*
X14631357Y-10674500D01*
X14731357Y-10460214D01*
X14731357Y-10760214D01*
X15002786Y-10760214D02*
X15002786Y-10603072D01*
X14988500Y-10574500D01*
X14959928Y-10560214D01*
X14902786Y-10560214D01*
X14874214Y-10574500D01*
X15002786Y-10745929D02*
X14974214Y-10760214D01*
X14902786Y-10760214D01*
X14874214Y-10745929D01*
X14859928Y-10717357D01*
X14859928Y-10688786D01*
X14874214Y-10660214D01*
X14902786Y-10645929D01*
X14974214Y-10645929D01*
X15002786Y-10631643D01*
X15145643Y-10560214D02*
X15145643Y-10860214D01*
X15145643Y-10574500D02*
X15174214Y-10560214D01*
X15231357Y-10560214D01*
X15259928Y-10574500D01*
X15274214Y-10588786D01*
X15288500Y-10617357D01*
X15288500Y-10703072D01*
X15274214Y-10731643D01*
X15259928Y-10745929D01*
X15231357Y-10760214D01*
X15174214Y-10760214D01*
X15145643Y-10745929D01*
X15417071Y-10731643D02*
X15431357Y-10745929D01*
X15417071Y-10760214D01*
X15402786Y-10745929D01*
X15417071Y-10731643D01*
X15417071Y-10760214D01*
X15417071Y-10574500D02*
X15431357Y-10588786D01*
X15417071Y-10603072D01*
X15402786Y-10588786D01*
X15417071Y-10574500D01*
X15417071Y-10603072D01*
X13003500Y-11219500D02*
X13073500Y-11289500D01*
X13073500Y-11219500D02*
X13003500Y-11289500D01*
X13417071Y-11090214D02*
X13445643Y-11090214D01*
X13474214Y-11104500D01*
X13488500Y-11118786D01*
X13502786Y-11147357D01*
X13517071Y-11204500D01*
X13517071Y-11275929D01*
X13502786Y-11333071D01*
X13488500Y-11361643D01*
X13474214Y-11375929D01*
X13445643Y-11390214D01*
X13417071Y-11390214D01*
X13388500Y-11375929D01*
X13374214Y-11361643D01*
X13359928Y-11333071D01*
X13345643Y-11275929D01*
X13345643Y-11204500D01*
X13359928Y-11147357D01*
X13374214Y-11118786D01*
X13388500Y-11104500D01*
X13417071Y-11090214D01*
X13645643Y-11361643D02*
X13659928Y-11375929D01*
X13645643Y-11390214D01*
X13631357Y-11375929D01*
X13645643Y-11361643D01*
X13645643Y-11390214D01*
X13759928Y-11090214D02*
X13959928Y-11090214D01*
X13831357Y-11390214D01*
X14131357Y-11090214D02*
X14159928Y-11090214D01*
X14188500Y-11104500D01*
X14202786Y-11118786D01*
X14217071Y-11147357D01*
X14231357Y-11204500D01*
X14231357Y-11275929D01*
X14217071Y-11333071D01*
X14202786Y-11361643D01*
X14188500Y-11375929D01*
X14159928Y-11390214D01*
X14131357Y-11390214D01*
X14102786Y-11375929D01*
X14088500Y-11361643D01*
X14074214Y-11333071D01*
X14059928Y-11275929D01*
X14059928Y-11204500D01*
X14074214Y-11147357D01*
X14088500Y-11118786D01*
X14102786Y-11104500D01*
X14131357Y-11090214D01*
X14359928Y-11390214D02*
X14359928Y-11190214D01*
X14359928Y-11218786D02*
X14374214Y-11204500D01*
X14402786Y-11190214D01*
X14445643Y-11190214D01*
X14474214Y-11204500D01*
X14488500Y-11233071D01*
X14488500Y-11390214D01*
X14488500Y-11233071D02*
X14502786Y-11204500D01*
X14531357Y-11190214D01*
X14574214Y-11190214D01*
X14602786Y-11204500D01*
X14617071Y-11233071D01*
X14617071Y-11390214D01*
X14759928Y-11390214D02*
X14759928Y-11190214D01*
X14759928Y-11218786D02*
X14774214Y-11204500D01*
X14802786Y-11190214D01*
X14845643Y-11190214D01*
X14874214Y-11204500D01*
X14888500Y-11233071D01*
X14888500Y-11390214D01*
X14888500Y-11233071D02*
X14902786Y-11204500D01*
X14931357Y-11190214D01*
X14974214Y-11190214D01*
X15002786Y-11204500D01*
X15017071Y-11233071D01*
X15017071Y-11390214D01*
X15602786Y-11075929D02*
X15345643Y-11461643D01*
X15988500Y-11090214D02*
X16017071Y-11090214D01*
X16045643Y-11104500D01*
X16059928Y-11118786D01*
X16074214Y-11147357D01*
X16088500Y-11204500D01*
X16088500Y-11275929D01*
X16074214Y-11333071D01*
X16059928Y-11361643D01*
X16045643Y-11375929D01*
X16017071Y-11390214D01*
X15988500Y-11390214D01*
X15959928Y-11375929D01*
X15945643Y-11361643D01*
X15931357Y-11333071D01*
X15917071Y-11275929D01*
X15917071Y-11204500D01*
X15931357Y-11147357D01*
X15945643Y-11118786D01*
X15959928Y-11104500D01*
X15988500Y-11090214D01*
X16217071Y-11361643D02*
X16231357Y-11375929D01*
X16217071Y-11390214D01*
X16202786Y-11375929D01*
X16217071Y-11361643D01*
X16217071Y-11390214D01*
X16417071Y-11090214D02*
X16445643Y-11090214D01*
X16474214Y-11104500D01*
X16488500Y-11118786D01*
X16502786Y-11147357D01*
X16517071Y-11204500D01*
X16517071Y-11275929D01*
X16502786Y-11333071D01*
X16488500Y-11361643D01*
X16474214Y-11375929D01*
X16445643Y-11390214D01*
X16417071Y-11390214D01*
X16388500Y-11375929D01*
X16374214Y-11361643D01*
X16359928Y-11333071D01*
X16345643Y-11275929D01*
X16345643Y-11204500D01*
X16359928Y-11147357D01*
X16374214Y-11118786D01*
X16388500Y-11104500D01*
X16417071Y-11090214D01*
X16631357Y-11118786D02*
X16645643Y-11104500D01*
X16674214Y-11090214D01*
X16745643Y-11090214D01*
X16774214Y-11104500D01*
X16788500Y-11118786D01*
X16802786Y-11147357D01*
X16802786Y-11175929D01*
X16788500Y-11218786D01*
X16617071Y-11390214D01*
X16802786Y-11390214D01*
X16974214Y-11218786D02*
X16945643Y-11204500D01*
X16931357Y-11190214D01*
X16917071Y-11161643D01*
X16917071Y-11147357D01*
X16931357Y-11118786D01*
X16945643Y-11104500D01*
X16974214Y-11090214D01*
X17031357Y-11090214D01*
X17059928Y-11104500D01*
X17074214Y-11118786D01*
X17088500Y-11147357D01*
X17088500Y-11161643D01*
X17074214Y-11190214D01*
X17059928Y-11204500D01*
X17031357Y-11218786D01*
X16974214Y-11218786D01*
X16945643Y-11233071D01*
X16931357Y-11247357D01*
X16917071Y-11275929D01*
X16917071Y-11333071D01*
X16931357Y-11361643D01*
X16945643Y-11375929D01*
X16974214Y-11390214D01*
X17031357Y-11390214D01*
X17059928Y-11375929D01*
X17074214Y-11361643D01*
X17088500Y-11333071D01*
X17088500Y-11275929D01*
X17074214Y-11247357D01*
X17059928Y-11233071D01*
X17031357Y-11218786D01*
X17202786Y-11090214D02*
X17202786Y-11147357D01*
X17317071Y-11090214D02*
X17317071Y-11147357D01*
X17759928Y-11504500D02*
X17745643Y-11490214D01*
X17717071Y-11447357D01*
X17702786Y-11418786D01*
X17688500Y-11375929D01*
X17674214Y-11304500D01*
X17674214Y-11247357D01*
X17688500Y-11175929D01*
X17702786Y-11133072D01*
X17717071Y-11104500D01*
X17745643Y-11061643D01*
X17759928Y-11047357D01*
X18031357Y-11390214D02*
X17859928Y-11390214D01*
X17945643Y-11390214D02*
X17945643Y-11090214D01*
X17917071Y-11133072D01*
X17888500Y-11161643D01*
X17859928Y-11175929D01*
X18288500Y-11190214D02*
X18288500Y-11390214D01*
X18217071Y-11075929D02*
X18145643Y-11290214D01*
X18331357Y-11290214D01*
X18674214Y-11390214D02*
X18674214Y-11090214D01*
X18802786Y-11390214D02*
X18802786Y-11233071D01*
X18788500Y-11204500D01*
X18759928Y-11190214D01*
X18717071Y-11190214D01*
X18688500Y-11204500D01*
X18674214Y-11218786D01*
X18988500Y-11390214D02*
X18959928Y-11375929D01*
X18945643Y-11361643D01*
X18931357Y-11333071D01*
X18931357Y-11247357D01*
X18945643Y-11218786D01*
X18959928Y-11204500D01*
X18988500Y-11190214D01*
X19031357Y-11190214D01*
X19059928Y-11204500D01*
X19074214Y-11218786D01*
X19088500Y-11247357D01*
X19088500Y-11333071D01*
X19074214Y-11361643D01*
X19059928Y-11375929D01*
X19031357Y-11390214D01*
X18988500Y-11390214D01*
X19259928Y-11390214D02*
X19231357Y-11375929D01*
X19217071Y-11347357D01*
X19217071Y-11090214D01*
X19488500Y-11375929D02*
X19459928Y-11390214D01*
X19402786Y-11390214D01*
X19374214Y-11375929D01*
X19359928Y-11347357D01*
X19359928Y-11233071D01*
X19374214Y-11204500D01*
X19402786Y-11190214D01*
X19459928Y-11190214D01*
X19488500Y-11204500D01*
X19502786Y-11233071D01*
X19502786Y-11261643D01*
X19359928Y-11290214D01*
X19617071Y-11375929D02*
X19645643Y-11390214D01*
X19702786Y-11390214D01*
X19731357Y-11375929D01*
X19745643Y-11347357D01*
X19745643Y-11333071D01*
X19731357Y-11304500D01*
X19702786Y-11290214D01*
X19659928Y-11290214D01*
X19631357Y-11275929D01*
X19617071Y-11247357D01*
X19617071Y-11233071D01*
X19631357Y-11204500D01*
X19659928Y-11190214D01*
X19702786Y-11190214D01*
X19731357Y-11204500D01*
X19845643Y-11504500D02*
X19859928Y-11490214D01*
X19888500Y-11447357D01*
X19902786Y-11418786D01*
X19917071Y-11375929D01*
X19931357Y-11304500D01*
X19931357Y-11247357D01*
X19917071Y-11175929D01*
X19902786Y-11133072D01*
X19888500Y-11104500D01*
X19859928Y-11061643D01*
X19845643Y-11047357D01*
X13073500Y-11650500D02*
G75*
G03X13073500Y-11650500I-40000J0D01*
G01*
X13417071Y-11486214D02*
X13445643Y-11486214D01*
X13474214Y-11500500D01*
X13488500Y-11514786D01*
X13502786Y-11543357D01*
X13517071Y-11600500D01*
X13517071Y-11671929D01*
X13502786Y-11729071D01*
X13488500Y-11757643D01*
X13474214Y-11771929D01*
X13445643Y-11786214D01*
X13417071Y-11786214D01*
X13388500Y-11771929D01*
X13374214Y-11757643D01*
X13359928Y-11729071D01*
X13345643Y-11671929D01*
X13345643Y-11600500D01*
X13359928Y-11543357D01*
X13374214Y-11514786D01*
X13388500Y-11500500D01*
X13417071Y-11486214D01*
X13645643Y-11757643D02*
X13659928Y-11771929D01*
X13645643Y-11786214D01*
X13631357Y-11771929D01*
X13645643Y-11757643D01*
X13645643Y-11786214D01*
X13831357Y-11614786D02*
X13802786Y-11600500D01*
X13788500Y-11586214D01*
X13774214Y-11557643D01*
X13774214Y-11543357D01*
X13788500Y-11514786D01*
X13802786Y-11500500D01*
X13831357Y-11486214D01*
X13888500Y-11486214D01*
X13917071Y-11500500D01*
X13931357Y-11514786D01*
X13945643Y-11543357D01*
X13945643Y-11557643D01*
X13931357Y-11586214D01*
X13917071Y-11600500D01*
X13888500Y-11614786D01*
X13831357Y-11614786D01*
X13802786Y-11629071D01*
X13788500Y-11643357D01*
X13774214Y-11671929D01*
X13774214Y-11729071D01*
X13788500Y-11757643D01*
X13802786Y-11771929D01*
X13831357Y-11786214D01*
X13888500Y-11786214D01*
X13917071Y-11771929D01*
X13931357Y-11757643D01*
X13945643Y-11729071D01*
X13945643Y-11671929D01*
X13931357Y-11643357D01*
X13917071Y-11629071D01*
X13888500Y-11614786D01*
X14131357Y-11486214D02*
X14159928Y-11486214D01*
X14188500Y-11500500D01*
X14202786Y-11514786D01*
X14217071Y-11543357D01*
X14231357Y-11600500D01*
X14231357Y-11671929D01*
X14217071Y-11729071D01*
X14202786Y-11757643D01*
X14188500Y-11771929D01*
X14159928Y-11786214D01*
X14131357Y-11786214D01*
X14102786Y-11771929D01*
X14088500Y-11757643D01*
X14074214Y-11729071D01*
X14059928Y-11671929D01*
X14059928Y-11600500D01*
X14074214Y-11543357D01*
X14088500Y-11514786D01*
X14102786Y-11500500D01*
X14131357Y-11486214D01*
X14359928Y-11786214D02*
X14359928Y-11586214D01*
X14359928Y-11614786D02*
X14374214Y-11600500D01*
X14402786Y-11586214D01*
X14445643Y-11586214D01*
X14474214Y-11600500D01*
X14488500Y-11629071D01*
X14488500Y-11786214D01*
X14488500Y-11629071D02*
X14502786Y-11600500D01*
X14531357Y-11586214D01*
X14574214Y-11586214D01*
X14602786Y-11600500D01*
X14617071Y-11629071D01*
X14617071Y-11786214D01*
X14759928Y-11786214D02*
X14759928Y-11586214D01*
X14759928Y-11614786D02*
X14774214Y-11600500D01*
X14802786Y-11586214D01*
X14845643Y-11586214D01*
X14874214Y-11600500D01*
X14888500Y-11629071D01*
X14888500Y-11786214D01*
X14888500Y-11629071D02*
X14902786Y-11600500D01*
X14931357Y-11586214D01*
X14974214Y-11586214D01*
X15002786Y-11600500D01*
X15017071Y-11629071D01*
X15017071Y-11786214D01*
X15602786Y-11471929D02*
X15345643Y-11857643D01*
X15988500Y-11486214D02*
X16017071Y-11486214D01*
X16045643Y-11500500D01*
X16059928Y-11514786D01*
X16074214Y-11543357D01*
X16088500Y-11600500D01*
X16088500Y-11671929D01*
X16074214Y-11729071D01*
X16059928Y-11757643D01*
X16045643Y-11771929D01*
X16017071Y-11786214D01*
X15988500Y-11786214D01*
X15959928Y-11771929D01*
X15945643Y-11757643D01*
X15931357Y-11729071D01*
X15917071Y-11671929D01*
X15917071Y-11600500D01*
X15931357Y-11543357D01*
X15945643Y-11514786D01*
X15959928Y-11500500D01*
X15988500Y-11486214D01*
X16217071Y-11757643D02*
X16231357Y-11771929D01*
X16217071Y-11786214D01*
X16202786Y-11771929D01*
X16217071Y-11757643D01*
X16217071Y-11786214D01*
X16417071Y-11486214D02*
X16445643Y-11486214D01*
X16474214Y-11500500D01*
X16488500Y-11514786D01*
X16502786Y-11543357D01*
X16517071Y-11600500D01*
X16517071Y-11671929D01*
X16502786Y-11729071D01*
X16488500Y-11757643D01*
X16474214Y-11771929D01*
X16445643Y-11786214D01*
X16417071Y-11786214D01*
X16388500Y-11771929D01*
X16374214Y-11757643D01*
X16359928Y-11729071D01*
X16345643Y-11671929D01*
X16345643Y-11600500D01*
X16359928Y-11543357D01*
X16374214Y-11514786D01*
X16388500Y-11500500D01*
X16417071Y-11486214D01*
X16617071Y-11486214D02*
X16802786Y-11486214D01*
X16702786Y-11600500D01*
X16745643Y-11600500D01*
X16774214Y-11614786D01*
X16788500Y-11629071D01*
X16802786Y-11657643D01*
X16802786Y-11729071D01*
X16788500Y-11757643D01*
X16774214Y-11771929D01*
X16745643Y-11786214D01*
X16659928Y-11786214D01*
X16631357Y-11771929D01*
X16617071Y-11757643D01*
X17088500Y-11786214D02*
X16917071Y-11786214D01*
X17002786Y-11786214D02*
X17002786Y-11486214D01*
X16974214Y-11529071D01*
X16945643Y-11557643D01*
X16917071Y-11571929D01*
X17202786Y-11486214D02*
X17202786Y-11543357D01*
X17317071Y-11486214D02*
X17317071Y-11543357D01*
X17759928Y-11900500D02*
X17745643Y-11886214D01*
X17717071Y-11843357D01*
X17702786Y-11814786D01*
X17688500Y-11771929D01*
X17674214Y-11700500D01*
X17674214Y-11643357D01*
X17688500Y-11571929D01*
X17702786Y-11529071D01*
X17717071Y-11500500D01*
X17745643Y-11457643D01*
X17759928Y-11443357D01*
X17845643Y-11486214D02*
X18031357Y-11486214D01*
X17931357Y-11600500D01*
X17974214Y-11600500D01*
X18002786Y-11614786D01*
X18017071Y-11629071D01*
X18031357Y-11657643D01*
X18031357Y-11729071D01*
X18017071Y-11757643D01*
X18002786Y-11771929D01*
X17974214Y-11786214D01*
X17888500Y-11786214D01*
X17859928Y-11771929D01*
X17845643Y-11757643D01*
X18217071Y-11486214D02*
X18245643Y-11486214D01*
X18274214Y-11500500D01*
X18288500Y-11514786D01*
X18302786Y-11543357D01*
X18317071Y-11600500D01*
X18317071Y-11671929D01*
X18302786Y-11729071D01*
X18288500Y-11757643D01*
X18274214Y-11771929D01*
X18245643Y-11786214D01*
X18217071Y-11786214D01*
X18188500Y-11771929D01*
X18174214Y-11757643D01*
X18159928Y-11729071D01*
X18145643Y-11671929D01*
X18145643Y-11600500D01*
X18159928Y-11543357D01*
X18174214Y-11514786D01*
X18188500Y-11500500D01*
X18217071Y-11486214D01*
X18674214Y-11786214D02*
X18674214Y-11486214D01*
X18802786Y-11786214D02*
X18802786Y-11629071D01*
X18788500Y-11600500D01*
X18759928Y-11586214D01*
X18717071Y-11586214D01*
X18688500Y-11600500D01*
X18674214Y-11614786D01*
X18988500Y-11786214D02*
X18959928Y-11771929D01*
X18945643Y-11757643D01*
X18931357Y-11729071D01*
X18931357Y-11643357D01*
X18945643Y-11614786D01*
X18959928Y-11600500D01*
X18988500Y-11586214D01*
X19031357Y-11586214D01*
X19059928Y-11600500D01*
X19074214Y-11614786D01*
X19088500Y-11643357D01*
X19088500Y-11729071D01*
X19074214Y-11757643D01*
X19059928Y-11771929D01*
X19031357Y-11786214D01*
X18988500Y-11786214D01*
X19259928Y-11786214D02*
X19231357Y-11771929D01*
X19217071Y-11743357D01*
X19217071Y-11486214D01*
X19488500Y-11771929D02*
X19459928Y-11786214D01*
X19402786Y-11786214D01*
X19374214Y-11771929D01*
X19359928Y-11743357D01*
X19359928Y-11629071D01*
X19374214Y-11600500D01*
X19402786Y-11586214D01*
X19459928Y-11586214D01*
X19488500Y-11600500D01*
X19502786Y-11629071D01*
X19502786Y-11657643D01*
X19359928Y-11686214D01*
X19617071Y-11771929D02*
X19645643Y-11786214D01*
X19702786Y-11786214D01*
X19731357Y-11771929D01*
X19745643Y-11743357D01*
X19745643Y-11729071D01*
X19731357Y-11700500D01*
X19702786Y-11686214D01*
X19659928Y-11686214D01*
X19631357Y-11671929D01*
X19617071Y-11643357D01*
X19617071Y-11629071D01*
X19631357Y-11600500D01*
X19659928Y-11586214D01*
X19702786Y-11586214D01*
X19731357Y-11600500D01*
X19845643Y-11900500D02*
X19859928Y-11886214D01*
X19888500Y-11843357D01*
X19902786Y-11814786D01*
X19917071Y-11771929D01*
X19931357Y-11700500D01*
X19931357Y-11643357D01*
X19917071Y-11571929D01*
X19902786Y-11529071D01*
X19888500Y-11500500D01*
X19859928Y-11457643D01*
X19845643Y-11443357D01*
X13023500Y-11996500D02*
X13023500Y-12096500D01*
X12973500Y-12046500D02*
X13073500Y-12046500D01*
X13517071Y-12182214D02*
X13345643Y-12182214D01*
X13431357Y-12182214D02*
X13431357Y-11882214D01*
X13402786Y-11925071D01*
X13374214Y-11953643D01*
X13345643Y-11967929D01*
X13645643Y-12153643D02*
X13659928Y-12167929D01*
X13645643Y-12182214D01*
X13631357Y-12167929D01*
X13645643Y-12153643D01*
X13645643Y-12182214D01*
X13845643Y-11882214D02*
X13874214Y-11882214D01*
X13902786Y-11896500D01*
X13917071Y-11910786D01*
X13931357Y-11939357D01*
X13945643Y-11996500D01*
X13945643Y-12067929D01*
X13931357Y-12125071D01*
X13917071Y-12153643D01*
X13902786Y-12167929D01*
X13874214Y-12182214D01*
X13845643Y-12182214D01*
X13817071Y-12167929D01*
X13802786Y-12153643D01*
X13788500Y-12125071D01*
X13774214Y-12067929D01*
X13774214Y-11996500D01*
X13788500Y-11939357D01*
X13802786Y-11910786D01*
X13817071Y-11896500D01*
X13845643Y-11882214D01*
X14131357Y-11882214D02*
X14159928Y-11882214D01*
X14188500Y-11896500D01*
X14202786Y-11910786D01*
X14217071Y-11939357D01*
X14231357Y-11996500D01*
X14231357Y-12067929D01*
X14217071Y-12125071D01*
X14202786Y-12153643D01*
X14188500Y-12167929D01*
X14159928Y-12182214D01*
X14131357Y-12182214D01*
X14102786Y-12167929D01*
X14088500Y-12153643D01*
X14074214Y-12125071D01*
X14059928Y-12067929D01*
X14059928Y-11996500D01*
X14074214Y-11939357D01*
X14088500Y-11910786D01*
X14102786Y-11896500D01*
X14131357Y-11882214D01*
X14359928Y-12182214D02*
X14359928Y-11982214D01*
X14359928Y-12010786D02*
X14374214Y-11996500D01*
X14402786Y-11982214D01*
X14445643Y-11982214D01*
X14474214Y-11996500D01*
X14488500Y-12025071D01*
X14488500Y-12182214D01*
X14488500Y-12025071D02*
X14502786Y-11996500D01*
X14531357Y-11982214D01*
X14574214Y-11982214D01*
X14602786Y-11996500D01*
X14617071Y-12025071D01*
X14617071Y-12182214D01*
X14759928Y-12182214D02*
X14759928Y-11982214D01*
X14759928Y-12010786D02*
X14774214Y-11996500D01*
X14802786Y-11982214D01*
X14845643Y-11982214D01*
X14874214Y-11996500D01*
X14888500Y-12025071D01*
X14888500Y-12182214D01*
X14888500Y-12025071D02*
X14902786Y-11996500D01*
X14931357Y-11982214D01*
X14974214Y-11982214D01*
X15002786Y-11996500D01*
X15017071Y-12025071D01*
X15017071Y-12182214D01*
X15602786Y-11867929D02*
X15345643Y-12253643D01*
X15988500Y-11882214D02*
X16017071Y-11882214D01*
X16045643Y-11896500D01*
X16059928Y-11910786D01*
X16074214Y-11939357D01*
X16088500Y-11996500D01*
X16088500Y-12067929D01*
X16074214Y-12125071D01*
X16059928Y-12153643D01*
X16045643Y-12167929D01*
X16017071Y-12182214D01*
X15988500Y-12182214D01*
X15959928Y-12167929D01*
X15945643Y-12153643D01*
X15931357Y-12125071D01*
X15917071Y-12067929D01*
X15917071Y-11996500D01*
X15931357Y-11939357D01*
X15945643Y-11910786D01*
X15959928Y-11896500D01*
X15988500Y-11882214D01*
X16217071Y-12153643D02*
X16231357Y-12167929D01*
X16217071Y-12182214D01*
X16202786Y-12167929D01*
X16217071Y-12153643D01*
X16217071Y-12182214D01*
X16417071Y-11882214D02*
X16445643Y-11882214D01*
X16474214Y-11896500D01*
X16488500Y-11910786D01*
X16502786Y-11939357D01*
X16517071Y-11996500D01*
X16517071Y-12067929D01*
X16502786Y-12125071D01*
X16488500Y-12153643D01*
X16474214Y-12167929D01*
X16445643Y-12182214D01*
X16417071Y-12182214D01*
X16388500Y-12167929D01*
X16374214Y-12153643D01*
X16359928Y-12125071D01*
X16345643Y-12067929D01*
X16345643Y-11996500D01*
X16359928Y-11939357D01*
X16374214Y-11910786D01*
X16388500Y-11896500D01*
X16417071Y-11882214D01*
X16617071Y-11882214D02*
X16802786Y-11882214D01*
X16702786Y-11996500D01*
X16745643Y-11996500D01*
X16774214Y-12010786D01*
X16788500Y-12025071D01*
X16802786Y-12053643D01*
X16802786Y-12125071D01*
X16788500Y-12153643D01*
X16774214Y-12167929D01*
X16745643Y-12182214D01*
X16659928Y-12182214D01*
X16631357Y-12167929D01*
X16617071Y-12153643D01*
X16945643Y-12182214D02*
X17002786Y-12182214D01*
X17031357Y-12167929D01*
X17045643Y-12153643D01*
X17074214Y-12110786D01*
X17088500Y-12053643D01*
X17088500Y-11939357D01*
X17074214Y-11910786D01*
X17059928Y-11896500D01*
X17031357Y-11882214D01*
X16974214Y-11882214D01*
X16945643Y-11896500D01*
X16931357Y-11910786D01*
X16917071Y-11939357D01*
X16917071Y-12010786D01*
X16931357Y-12039357D01*
X16945643Y-12053643D01*
X16974214Y-12067929D01*
X17031357Y-12067929D01*
X17059928Y-12053643D01*
X17074214Y-12039357D01*
X17088500Y-12010786D01*
X17202786Y-11882214D02*
X17202786Y-11939357D01*
X17317071Y-11882214D02*
X17317071Y-11939357D01*
X17759928Y-12296500D02*
X17745643Y-12282214D01*
X17717071Y-12239357D01*
X17702786Y-12210786D01*
X17688500Y-12167929D01*
X17674214Y-12096500D01*
X17674214Y-12039357D01*
X17688500Y-11967929D01*
X17702786Y-11925071D01*
X17717071Y-11896500D01*
X17745643Y-11853643D01*
X17759928Y-11839357D01*
X17888500Y-12182214D02*
X17945643Y-12182214D01*
X17974214Y-12167929D01*
X17988500Y-12153643D01*
X18017071Y-12110786D01*
X18031357Y-12053643D01*
X18031357Y-11939357D01*
X18017071Y-11910786D01*
X18002786Y-11896500D01*
X17974214Y-11882214D01*
X17917071Y-11882214D01*
X17888500Y-11896500D01*
X17874214Y-11910786D01*
X17859928Y-11939357D01*
X17859928Y-12010786D01*
X17874214Y-12039357D01*
X17888500Y-12053643D01*
X17917071Y-12067929D01*
X17974214Y-12067929D01*
X18002786Y-12053643D01*
X18017071Y-12039357D01*
X18031357Y-12010786D01*
X18388500Y-12182214D02*
X18388500Y-11882214D01*
X18517071Y-12182214D02*
X18517071Y-12025071D01*
X18502786Y-11996500D01*
X18474214Y-11982214D01*
X18431357Y-11982214D01*
X18402786Y-11996500D01*
X18388500Y-12010786D01*
X18702786Y-12182214D02*
X18674214Y-12167929D01*
X18659928Y-12153643D01*
X18645643Y-12125071D01*
X18645643Y-12039357D01*
X18659928Y-12010786D01*
X18674214Y-11996500D01*
X18702786Y-11982214D01*
X18745643Y-11982214D01*
X18774214Y-11996500D01*
X18788500Y-12010786D01*
X18802786Y-12039357D01*
X18802786Y-12125071D01*
X18788500Y-12153643D01*
X18774214Y-12167929D01*
X18745643Y-12182214D01*
X18702786Y-12182214D01*
X18974214Y-12182214D02*
X18945643Y-12167929D01*
X18931357Y-12139357D01*
X18931357Y-11882214D01*
X19202786Y-12167929D02*
X19174214Y-12182214D01*
X19117071Y-12182214D01*
X19088500Y-12167929D01*
X19074214Y-12139357D01*
X19074214Y-12025071D01*
X19088500Y-11996500D01*
X19117071Y-11982214D01*
X19174214Y-11982214D01*
X19202786Y-11996500D01*
X19217071Y-12025071D01*
X19217071Y-12053643D01*
X19074214Y-12082214D01*
X19331357Y-12167929D02*
X19359928Y-12182214D01*
X19417071Y-12182214D01*
X19445643Y-12167929D01*
X19459928Y-12139357D01*
X19459928Y-12125071D01*
X19445643Y-12096500D01*
X19417071Y-12082214D01*
X19374214Y-12082214D01*
X19345643Y-12067929D01*
X19331357Y-12039357D01*
X19331357Y-12025071D01*
X19345643Y-11996500D01*
X19374214Y-11982214D01*
X19417071Y-11982214D01*
X19445643Y-11996500D01*
X19559928Y-12296500D02*
X19574214Y-12282214D01*
X19602786Y-12239357D01*
X19617071Y-12210786D01*
X19631357Y-12167929D01*
X19645643Y-12096500D01*
X19645643Y-12039357D01*
X19631357Y-11967929D01*
X19617071Y-11925071D01*
X19602786Y-11896500D01*
X19574214Y-11853643D01*
X19559928Y-11839357D01*
M02*
