%FSLAX45Y45*%
G04 Gerber Fmt 4.5, Leading zero omitted, Abs format (unit mm)*
G04 Created by KiCad (PCBNEW (5.0.2)-1) date 09/11/2019 14:29:26*
%MOMM*%
%LPD*%
G01*
G04 APERTURE LIST*
%ADD10C,0.150000*%
%ADD11C,0.200000*%
%ADD12C,0.300000*%
G04 APERTURE END LIST*
D10*
X13081000Y-7747000D02*
X13081000Y-10287000D01*
X16827500Y-7747000D02*
X13081000Y-7747000D01*
X16827500Y-10287000D02*
X16827500Y-7747000D01*
X13081000Y-10287000D02*
X16827500Y-10287000D01*
D11*
D12*
X13359928Y-10760214D02*
X13359928Y-10460214D01*
X13431357Y-10460214D01*
X13474214Y-10474500D01*
X13502786Y-10503072D01*
X13517071Y-10531643D01*
X13531357Y-10588786D01*
X13531357Y-10631643D01*
X13517071Y-10688786D01*
X13502786Y-10717357D01*
X13474214Y-10745929D01*
X13431357Y-10760214D01*
X13359928Y-10760214D01*
X13659928Y-10760214D02*
X13659928Y-10560214D01*
X13659928Y-10617357D02*
X13674214Y-10588786D01*
X13688500Y-10574500D01*
X13717071Y-10560214D01*
X13745643Y-10560214D01*
X13845643Y-10760214D02*
X13845643Y-10560214D01*
X13845643Y-10460214D02*
X13831357Y-10474500D01*
X13845643Y-10488786D01*
X13859928Y-10474500D01*
X13845643Y-10460214D01*
X13845643Y-10488786D01*
X14031357Y-10760214D02*
X14002786Y-10745929D01*
X13988500Y-10717357D01*
X13988500Y-10460214D01*
X14188500Y-10760214D02*
X14159928Y-10745929D01*
X14145643Y-10717357D01*
X14145643Y-10460214D01*
X14531357Y-10760214D02*
X14531357Y-10460214D01*
X14631357Y-10674500D01*
X14731357Y-10460214D01*
X14731357Y-10760214D01*
X15002786Y-10760214D02*
X15002786Y-10603072D01*
X14988500Y-10574500D01*
X14959928Y-10560214D01*
X14902786Y-10560214D01*
X14874214Y-10574500D01*
X15002786Y-10745929D02*
X14974214Y-10760214D01*
X14902786Y-10760214D01*
X14874214Y-10745929D01*
X14859928Y-10717357D01*
X14859928Y-10688786D01*
X14874214Y-10660214D01*
X14902786Y-10645929D01*
X14974214Y-10645929D01*
X15002786Y-10631643D01*
X15145643Y-10560214D02*
X15145643Y-10860214D01*
X15145643Y-10574500D02*
X15174214Y-10560214D01*
X15231357Y-10560214D01*
X15259928Y-10574500D01*
X15274214Y-10588786D01*
X15288500Y-10617357D01*
X15288500Y-10703072D01*
X15274214Y-10731643D01*
X15259928Y-10745929D01*
X15231357Y-10760214D01*
X15174214Y-10760214D01*
X15145643Y-10745929D01*
X15417071Y-10731643D02*
X15431357Y-10745929D01*
X15417071Y-10760214D01*
X15402786Y-10745929D01*
X15417071Y-10731643D01*
X15417071Y-10760214D01*
X15417071Y-10574500D02*
X15431357Y-10588786D01*
X15417071Y-10603072D01*
X15402786Y-10588786D01*
X15417071Y-10574500D01*
X15417071Y-10603072D01*
M02*
