G04 #@! TF.FileFunction,Other,Fab,Bot*
%FSLAX46Y46*%
G04 Gerber Fmt 4.6, Leading zero omitted, Abs format (unit mm)*
G04 Created by KiCad (PCBNEW 4.0.7) date 08/25/18 11:10:04*
%MOMM*%
%LPD*%
G01*
G04 APERTURE LIST*
%ADD10C,0.100000*%
%ADD11C,0.200000*%
%ADD12C,0.300000*%
%ADD13C,0.150000*%
G04 APERTURE END LIST*
D10*
D11*
X143510000Y-87630000D02*
X143510000Y-113030000D01*
X176530000Y-87630000D02*
X143510000Y-87630000D01*
X176530000Y-113030000D02*
X176530000Y-87630000D01*
X143510000Y-113030000D02*
X176530000Y-113030000D01*
X142240000Y-87630000D02*
X107950000Y-87630000D01*
X142240000Y-113030000D02*
X142240000Y-87630000D01*
X107950000Y-113030000D02*
X142240000Y-113030000D01*
X107950000Y-87630000D02*
X107950000Y-113030000D01*
X143510000Y-63500000D02*
X143510000Y-86360000D01*
X176530000Y-63500000D02*
X143510000Y-63500000D01*
X176530000Y-86360000D02*
X176530000Y-63500000D01*
X143510000Y-86360000D02*
X176530000Y-86360000D01*
X107950000Y-63500000D02*
X107950000Y-86360000D01*
X142240000Y-63500000D02*
X107950000Y-63500000D01*
X142240000Y-86360000D02*
X142240000Y-63500000D01*
X107950000Y-86360000D02*
X142240000Y-86360000D01*
D12*
X182638570Y-93764999D02*
X183638570Y-93764999D01*
X182067142Y-94122142D02*
X183138570Y-94479285D01*
X183138570Y-93550713D01*
X183638570Y-92907857D02*
X183638570Y-92622142D01*
X183567142Y-92479285D01*
X183495713Y-92407857D01*
X183281428Y-92264999D01*
X182995713Y-92193571D01*
X182424285Y-92193571D01*
X182281428Y-92264999D01*
X182209999Y-92336428D01*
X182138570Y-92479285D01*
X182138570Y-92764999D01*
X182209999Y-92907857D01*
X182281428Y-92979285D01*
X182424285Y-93050714D01*
X182781428Y-93050714D01*
X182924285Y-92979285D01*
X182995713Y-92907857D01*
X183067142Y-92764999D01*
X183067142Y-92479285D01*
X182995713Y-92336428D01*
X182924285Y-92264999D01*
X182781428Y-92193571D01*
X183567142Y-91479286D02*
X183638570Y-91479286D01*
X183781428Y-91550714D01*
X183852856Y-91622143D01*
X182138570Y-90122142D02*
X182138570Y-90836428D01*
X182852856Y-90907857D01*
X182781428Y-90836428D01*
X182709999Y-90693571D01*
X182709999Y-90336428D01*
X182781428Y-90193571D01*
X182852856Y-90122142D01*
X182995713Y-90050714D01*
X183352856Y-90050714D01*
X183495713Y-90122142D01*
X183567142Y-90193571D01*
X183638570Y-90336428D01*
X183638570Y-90693571D01*
X183567142Y-90836428D01*
X183495713Y-90907857D01*
X182138570Y-89550714D02*
X182138570Y-88622143D01*
X182709999Y-89122143D01*
X182709999Y-88907857D01*
X182781428Y-88765000D01*
X182852856Y-88693571D01*
X182995713Y-88622143D01*
X183352856Y-88622143D01*
X183495713Y-88693571D01*
X183567142Y-88765000D01*
X183638570Y-88907857D01*
X183638570Y-89336429D01*
X183567142Y-89479286D01*
X183495713Y-89550714D01*
X182138570Y-87693572D02*
X182138570Y-87550715D01*
X182209999Y-87407858D01*
X182281428Y-87336429D01*
X182424285Y-87265000D01*
X182709999Y-87193572D01*
X183067142Y-87193572D01*
X183352856Y-87265000D01*
X183495713Y-87336429D01*
X183567142Y-87407858D01*
X183638570Y-87550715D01*
X183638570Y-87693572D01*
X183567142Y-87836429D01*
X183495713Y-87907858D01*
X183352856Y-87979286D01*
X183067142Y-88050715D01*
X182709999Y-88050715D01*
X182424285Y-87979286D01*
X182281428Y-87907858D01*
X182209999Y-87836429D01*
X182138570Y-87693572D01*
X183638570Y-85407858D02*
X182638570Y-85407858D01*
X182781428Y-85407858D02*
X182709999Y-85336430D01*
X182638570Y-85193572D01*
X182638570Y-84979287D01*
X182709999Y-84836430D01*
X182852856Y-84765001D01*
X183638570Y-84765001D01*
X182852856Y-84765001D02*
X182709999Y-84693572D01*
X182638570Y-84550715D01*
X182638570Y-84336430D01*
X182709999Y-84193572D01*
X182852856Y-84122144D01*
X183638570Y-84122144D01*
X183638570Y-83407858D02*
X182638570Y-83407858D01*
X182781428Y-83407858D02*
X182709999Y-83336430D01*
X182638570Y-83193572D01*
X182638570Y-82979287D01*
X182709999Y-82836430D01*
X182852856Y-82765001D01*
X183638570Y-82765001D01*
X182852856Y-82765001D02*
X182709999Y-82693572D01*
X182638570Y-82550715D01*
X182638570Y-82336430D01*
X182709999Y-82193572D01*
X182852856Y-82122144D01*
X183638570Y-82122144D01*
X181609999Y-113030000D02*
X181609999Y-63500000D01*
X176530000Y-113030000D02*
X184309999Y-113030000D01*
X176530000Y-63500000D02*
X184309999Y-63500000D01*
X181609999Y-63500000D02*
X182196420Y-64626504D01*
X181609999Y-63500000D02*
X181023578Y-64626504D01*
X181609999Y-113030000D02*
X182196420Y-111903496D01*
X181609999Y-113030000D02*
X181023578Y-111903496D01*
X178471428Y-106544285D02*
X178399999Y-106472856D01*
X178328570Y-106329999D01*
X178328570Y-105972856D01*
X178399999Y-105829999D01*
X178471428Y-105758570D01*
X178614285Y-105687142D01*
X178757142Y-105687142D01*
X178971428Y-105758570D01*
X179828570Y-106615713D01*
X179828570Y-105687142D01*
X178328570Y-104329999D02*
X178328570Y-105044285D01*
X179042856Y-105115714D01*
X178971428Y-105044285D01*
X178899999Y-104901428D01*
X178899999Y-104544285D01*
X178971428Y-104401428D01*
X179042856Y-104329999D01*
X179185713Y-104258571D01*
X179542856Y-104258571D01*
X179685713Y-104329999D01*
X179757142Y-104401428D01*
X179828570Y-104544285D01*
X179828570Y-104901428D01*
X179757142Y-105044285D01*
X179685713Y-105115714D01*
X179757142Y-103544286D02*
X179828570Y-103544286D01*
X179971428Y-103615714D01*
X180042856Y-103687143D01*
X178828570Y-102258571D02*
X179828570Y-102258571D01*
X178257142Y-102615714D02*
X179328570Y-102972857D01*
X179328570Y-102044285D01*
X178328570Y-101187143D02*
X178328570Y-101044286D01*
X178399999Y-100901429D01*
X178471428Y-100830000D01*
X178614285Y-100758571D01*
X178899999Y-100687143D01*
X179257142Y-100687143D01*
X179542856Y-100758571D01*
X179685713Y-100830000D01*
X179757142Y-100901429D01*
X179828570Y-101044286D01*
X179828570Y-101187143D01*
X179757142Y-101330000D01*
X179685713Y-101401429D01*
X179542856Y-101472857D01*
X179257142Y-101544286D01*
X178899999Y-101544286D01*
X178614285Y-101472857D01*
X178471428Y-101401429D01*
X178399999Y-101330000D01*
X178328570Y-101187143D01*
X178328570Y-99758572D02*
X178328570Y-99615715D01*
X178399999Y-99472858D01*
X178471428Y-99401429D01*
X178614285Y-99330000D01*
X178899999Y-99258572D01*
X179257142Y-99258572D01*
X179542856Y-99330000D01*
X179685713Y-99401429D01*
X179757142Y-99472858D01*
X179828570Y-99615715D01*
X179828570Y-99758572D01*
X179757142Y-99901429D01*
X179685713Y-99972858D01*
X179542856Y-100044286D01*
X179257142Y-100115715D01*
X178899999Y-100115715D01*
X178614285Y-100044286D01*
X178471428Y-99972858D01*
X178399999Y-99901429D01*
X178328570Y-99758572D01*
X179828570Y-97472858D02*
X178828570Y-97472858D01*
X178971428Y-97472858D02*
X178899999Y-97401430D01*
X178828570Y-97258572D01*
X178828570Y-97044287D01*
X178899999Y-96901430D01*
X179042856Y-96830001D01*
X179828570Y-96830001D01*
X179042856Y-96830001D02*
X178899999Y-96758572D01*
X178828570Y-96615715D01*
X178828570Y-96401430D01*
X178899999Y-96258572D01*
X179042856Y-96187144D01*
X179828570Y-96187144D01*
X179828570Y-95472858D02*
X178828570Y-95472858D01*
X178971428Y-95472858D02*
X178899999Y-95401430D01*
X178828570Y-95258572D01*
X178828570Y-95044287D01*
X178899999Y-94901430D01*
X179042856Y-94830001D01*
X179828570Y-94830001D01*
X179042856Y-94830001D02*
X178899999Y-94758572D01*
X178828570Y-94615715D01*
X178828570Y-94401430D01*
X178899999Y-94258572D01*
X179042856Y-94187144D01*
X179828570Y-94187144D01*
X177799999Y-113030000D02*
X177799999Y-87630000D01*
X176530000Y-113030000D02*
X180499999Y-113030000D01*
X176530000Y-87630000D02*
X180499999Y-87630000D01*
X177799999Y-87630000D02*
X178386420Y-88756504D01*
X177799999Y-87630000D02*
X177213578Y-88756504D01*
X177799999Y-113030000D02*
X178386420Y-111903496D01*
X177799999Y-113030000D02*
X177213578Y-111903496D01*
X178471428Y-81144285D02*
X178399999Y-81072856D01*
X178328570Y-80929999D01*
X178328570Y-80572856D01*
X178399999Y-80429999D01*
X178471428Y-80358570D01*
X178614285Y-80287142D01*
X178757142Y-80287142D01*
X178971428Y-80358570D01*
X179828570Y-81215713D01*
X179828570Y-80287142D01*
X178471428Y-79715714D02*
X178399999Y-79644285D01*
X178328570Y-79501428D01*
X178328570Y-79144285D01*
X178399999Y-79001428D01*
X178471428Y-78929999D01*
X178614285Y-78858571D01*
X178757142Y-78858571D01*
X178971428Y-78929999D01*
X179828570Y-79787142D01*
X179828570Y-78858571D01*
X179757142Y-78144286D02*
X179828570Y-78144286D01*
X179971428Y-78215714D01*
X180042856Y-78287143D01*
X178971428Y-77287142D02*
X178899999Y-77430000D01*
X178828570Y-77501428D01*
X178685713Y-77572857D01*
X178614285Y-77572857D01*
X178471428Y-77501428D01*
X178399999Y-77430000D01*
X178328570Y-77287142D01*
X178328570Y-77001428D01*
X178399999Y-76858571D01*
X178471428Y-76787142D01*
X178614285Y-76715714D01*
X178685713Y-76715714D01*
X178828570Y-76787142D01*
X178899999Y-76858571D01*
X178971428Y-77001428D01*
X178971428Y-77287142D01*
X179042856Y-77430000D01*
X179114285Y-77501428D01*
X179257142Y-77572857D01*
X179542856Y-77572857D01*
X179685713Y-77501428D01*
X179757142Y-77430000D01*
X179828570Y-77287142D01*
X179828570Y-77001428D01*
X179757142Y-76858571D01*
X179685713Y-76787142D01*
X179542856Y-76715714D01*
X179257142Y-76715714D01*
X179114285Y-76787142D01*
X179042856Y-76858571D01*
X178971428Y-77001428D01*
X178328570Y-75430000D02*
X178328570Y-75715714D01*
X178399999Y-75858571D01*
X178471428Y-75930000D01*
X178685713Y-76072857D01*
X178971428Y-76144286D01*
X179542856Y-76144286D01*
X179685713Y-76072857D01*
X179757142Y-76001429D01*
X179828570Y-75858571D01*
X179828570Y-75572857D01*
X179757142Y-75430000D01*
X179685713Y-75358571D01*
X179542856Y-75287143D01*
X179185713Y-75287143D01*
X179042856Y-75358571D01*
X178971428Y-75430000D01*
X178899999Y-75572857D01*
X178899999Y-75858571D01*
X178971428Y-76001429D01*
X179042856Y-76072857D01*
X179185713Y-76144286D01*
X178328570Y-74358572D02*
X178328570Y-74215715D01*
X178399999Y-74072858D01*
X178471428Y-74001429D01*
X178614285Y-73930000D01*
X178899999Y-73858572D01*
X179257142Y-73858572D01*
X179542856Y-73930000D01*
X179685713Y-74001429D01*
X179757142Y-74072858D01*
X179828570Y-74215715D01*
X179828570Y-74358572D01*
X179757142Y-74501429D01*
X179685713Y-74572858D01*
X179542856Y-74644286D01*
X179257142Y-74715715D01*
X178899999Y-74715715D01*
X178614285Y-74644286D01*
X178471428Y-74572858D01*
X178399999Y-74501429D01*
X178328570Y-74358572D01*
X179828570Y-72072858D02*
X178828570Y-72072858D01*
X178971428Y-72072858D02*
X178899999Y-72001430D01*
X178828570Y-71858572D01*
X178828570Y-71644287D01*
X178899999Y-71501430D01*
X179042856Y-71430001D01*
X179828570Y-71430001D01*
X179042856Y-71430001D02*
X178899999Y-71358572D01*
X178828570Y-71215715D01*
X178828570Y-71001430D01*
X178899999Y-70858572D01*
X179042856Y-70787144D01*
X179828570Y-70787144D01*
X179828570Y-70072858D02*
X178828570Y-70072858D01*
X178971428Y-70072858D02*
X178899999Y-70001430D01*
X178828570Y-69858572D01*
X178828570Y-69644287D01*
X178899999Y-69501430D01*
X179042856Y-69430001D01*
X179828570Y-69430001D01*
X179042856Y-69430001D02*
X178899999Y-69358572D01*
X178828570Y-69215715D01*
X178828570Y-69001430D01*
X178899999Y-68858572D01*
X179042856Y-68787144D01*
X179828570Y-68787144D01*
X177799999Y-86360000D02*
X177799999Y-63500000D01*
X176530000Y-86360000D02*
X180499999Y-86360000D01*
X176530000Y-63500000D02*
X180499999Y-63500000D01*
X177799999Y-63500000D02*
X178386420Y-64626504D01*
X177799999Y-63500000D02*
X177213578Y-64626504D01*
X177799999Y-86360000D02*
X178386420Y-85233496D01*
X177799999Y-86360000D02*
X177213578Y-85233496D01*
X153734287Y-117368570D02*
X154662858Y-117368570D01*
X154162858Y-117939999D01*
X154377144Y-117939999D01*
X154520001Y-118011428D01*
X154591430Y-118082856D01*
X154662858Y-118225713D01*
X154662858Y-118582856D01*
X154591430Y-118725713D01*
X154520001Y-118797142D01*
X154377144Y-118868570D01*
X153948572Y-118868570D01*
X153805715Y-118797142D01*
X153734287Y-118725713D01*
X155162858Y-117368570D02*
X156091429Y-117368570D01*
X155591429Y-117939999D01*
X155805715Y-117939999D01*
X155948572Y-118011428D01*
X156020001Y-118082856D01*
X156091429Y-118225713D01*
X156091429Y-118582856D01*
X156020001Y-118725713D01*
X155948572Y-118797142D01*
X155805715Y-118868570D01*
X155377143Y-118868570D01*
X155234286Y-118797142D01*
X155162858Y-118725713D01*
X156805714Y-118797142D02*
X156805714Y-118868570D01*
X156734286Y-119011428D01*
X156662857Y-119082856D01*
X157734286Y-117368570D02*
X157877143Y-117368570D01*
X158020000Y-117439999D01*
X158091429Y-117511428D01*
X158162858Y-117654285D01*
X158234286Y-117939999D01*
X158234286Y-118297142D01*
X158162858Y-118582856D01*
X158091429Y-118725713D01*
X158020000Y-118797142D01*
X157877143Y-118868570D01*
X157734286Y-118868570D01*
X157591429Y-118797142D01*
X157520000Y-118725713D01*
X157448572Y-118582856D01*
X157377143Y-118297142D01*
X157377143Y-117939999D01*
X157448572Y-117654285D01*
X157520000Y-117511428D01*
X157591429Y-117439999D01*
X157734286Y-117368570D01*
X158805714Y-117511428D02*
X158877143Y-117439999D01*
X159020000Y-117368570D01*
X159377143Y-117368570D01*
X159520000Y-117439999D01*
X159591429Y-117511428D01*
X159662857Y-117654285D01*
X159662857Y-117797142D01*
X159591429Y-118011428D01*
X158734286Y-118868570D01*
X159662857Y-118868570D01*
X160591428Y-117368570D02*
X160734285Y-117368570D01*
X160877142Y-117439999D01*
X160948571Y-117511428D01*
X161020000Y-117654285D01*
X161091428Y-117939999D01*
X161091428Y-118297142D01*
X161020000Y-118582856D01*
X160948571Y-118725713D01*
X160877142Y-118797142D01*
X160734285Y-118868570D01*
X160591428Y-118868570D01*
X160448571Y-118797142D01*
X160377142Y-118725713D01*
X160305714Y-118582856D01*
X160234285Y-118297142D01*
X160234285Y-117939999D01*
X160305714Y-117654285D01*
X160377142Y-117511428D01*
X160448571Y-117439999D01*
X160591428Y-117368570D01*
X162877142Y-118868570D02*
X162877142Y-117868570D01*
X162877142Y-118011428D02*
X162948570Y-117939999D01*
X163091428Y-117868570D01*
X163305713Y-117868570D01*
X163448570Y-117939999D01*
X163519999Y-118082856D01*
X163519999Y-118868570D01*
X163519999Y-118082856D02*
X163591428Y-117939999D01*
X163734285Y-117868570D01*
X163948570Y-117868570D01*
X164091428Y-117939999D01*
X164162856Y-118082856D01*
X164162856Y-118868570D01*
X164877142Y-118868570D02*
X164877142Y-117868570D01*
X164877142Y-118011428D02*
X164948570Y-117939999D01*
X165091428Y-117868570D01*
X165305713Y-117868570D01*
X165448570Y-117939999D01*
X165519999Y-118082856D01*
X165519999Y-118868570D01*
X165519999Y-118082856D02*
X165591428Y-117939999D01*
X165734285Y-117868570D01*
X165948570Y-117868570D01*
X166091428Y-117939999D01*
X166162856Y-118082856D01*
X166162856Y-118868570D01*
X143510000Y-116839999D02*
X176530000Y-116839999D01*
X143510000Y-113030000D02*
X143510000Y-119539999D01*
X176530000Y-113030000D02*
X176530000Y-119539999D01*
X176530000Y-116839999D02*
X175403496Y-117426420D01*
X176530000Y-116839999D02*
X175403496Y-116253578D01*
X143510000Y-116839999D02*
X144636504Y-117426420D01*
X143510000Y-116839999D02*
X144636504Y-116253578D01*
X118809287Y-117368571D02*
X119737858Y-117368571D01*
X119237858Y-117940000D01*
X119452144Y-117940000D01*
X119595001Y-118011429D01*
X119666430Y-118082857D01*
X119737858Y-118225714D01*
X119737858Y-118582857D01*
X119666430Y-118725714D01*
X119595001Y-118797143D01*
X119452144Y-118868571D01*
X119023572Y-118868571D01*
X118880715Y-118797143D01*
X118809287Y-118725714D01*
X121023572Y-117868571D02*
X121023572Y-118868571D01*
X120666429Y-117297143D02*
X120309286Y-118368571D01*
X121237858Y-118368571D01*
X121880714Y-118797143D02*
X121880714Y-118868571D01*
X121809286Y-119011429D01*
X121737857Y-119082857D01*
X122452143Y-117511429D02*
X122523572Y-117440000D01*
X122666429Y-117368571D01*
X123023572Y-117368571D01*
X123166429Y-117440000D01*
X123237858Y-117511429D01*
X123309286Y-117654286D01*
X123309286Y-117797143D01*
X123237858Y-118011429D01*
X122380715Y-118868571D01*
X123309286Y-118868571D01*
X124023571Y-118868571D02*
X124309286Y-118868571D01*
X124452143Y-118797143D01*
X124523571Y-118725714D01*
X124666429Y-118511429D01*
X124737857Y-118225714D01*
X124737857Y-117654286D01*
X124666429Y-117511429D01*
X124595000Y-117440000D01*
X124452143Y-117368571D01*
X124166429Y-117368571D01*
X124023571Y-117440000D01*
X123952143Y-117511429D01*
X123880714Y-117654286D01*
X123880714Y-118011429D01*
X123952143Y-118154286D01*
X124023571Y-118225714D01*
X124166429Y-118297143D01*
X124452143Y-118297143D01*
X124595000Y-118225714D01*
X124666429Y-118154286D01*
X124737857Y-118011429D01*
X125666428Y-117368571D02*
X125809285Y-117368571D01*
X125952142Y-117440000D01*
X126023571Y-117511429D01*
X126095000Y-117654286D01*
X126166428Y-117940000D01*
X126166428Y-118297143D01*
X126095000Y-118582857D01*
X126023571Y-118725714D01*
X125952142Y-118797143D01*
X125809285Y-118868571D01*
X125666428Y-118868571D01*
X125523571Y-118797143D01*
X125452142Y-118725714D01*
X125380714Y-118582857D01*
X125309285Y-118297143D01*
X125309285Y-117940000D01*
X125380714Y-117654286D01*
X125452142Y-117511429D01*
X125523571Y-117440000D01*
X125666428Y-117368571D01*
X127952142Y-118868571D02*
X127952142Y-117868571D01*
X127952142Y-118011429D02*
X128023570Y-117940000D01*
X128166428Y-117868571D01*
X128380713Y-117868571D01*
X128523570Y-117940000D01*
X128594999Y-118082857D01*
X128594999Y-118868571D01*
X128594999Y-118082857D02*
X128666428Y-117940000D01*
X128809285Y-117868571D01*
X129023570Y-117868571D01*
X129166428Y-117940000D01*
X129237856Y-118082857D01*
X129237856Y-118868571D01*
X129952142Y-118868571D02*
X129952142Y-117868571D01*
X129952142Y-118011429D02*
X130023570Y-117940000D01*
X130166428Y-117868571D01*
X130380713Y-117868571D01*
X130523570Y-117940000D01*
X130594999Y-118082857D01*
X130594999Y-118868571D01*
X130594999Y-118082857D02*
X130666428Y-117940000D01*
X130809285Y-117868571D01*
X131023570Y-117868571D01*
X131166428Y-117940000D01*
X131237856Y-118082857D01*
X131237856Y-118868571D01*
X142240000Y-116840000D02*
X107950000Y-116840000D01*
X142240000Y-113030000D02*
X142240000Y-119540000D01*
X107950000Y-113030000D02*
X107950000Y-119540000D01*
X107950000Y-116840000D02*
X109076504Y-116253579D01*
X107950000Y-116840000D02*
X109076504Y-117426421D01*
X142240000Y-116840000D02*
X141113496Y-116253579D01*
X142240000Y-116840000D02*
X141113496Y-117426421D01*
X136740001Y-121178571D02*
X136454287Y-121178571D01*
X136311430Y-121250000D01*
X136240001Y-121321429D01*
X136097144Y-121535714D01*
X136025715Y-121821429D01*
X136025715Y-122392857D01*
X136097144Y-122535714D01*
X136168572Y-122607143D01*
X136311430Y-122678571D01*
X136597144Y-122678571D01*
X136740001Y-122607143D01*
X136811430Y-122535714D01*
X136882858Y-122392857D01*
X136882858Y-122035714D01*
X136811430Y-121892857D01*
X136740001Y-121821429D01*
X136597144Y-121750000D01*
X136311430Y-121750000D01*
X136168572Y-121821429D01*
X136097144Y-121892857D01*
X136025715Y-122035714D01*
X137740001Y-121821429D02*
X137597143Y-121750000D01*
X137525715Y-121678571D01*
X137454286Y-121535714D01*
X137454286Y-121464286D01*
X137525715Y-121321429D01*
X137597143Y-121250000D01*
X137740001Y-121178571D01*
X138025715Y-121178571D01*
X138168572Y-121250000D01*
X138240001Y-121321429D01*
X138311429Y-121464286D01*
X138311429Y-121535714D01*
X138240001Y-121678571D01*
X138168572Y-121750000D01*
X138025715Y-121821429D01*
X137740001Y-121821429D01*
X137597143Y-121892857D01*
X137525715Y-121964286D01*
X137454286Y-122107143D01*
X137454286Y-122392857D01*
X137525715Y-122535714D01*
X137597143Y-122607143D01*
X137740001Y-122678571D01*
X138025715Y-122678571D01*
X138168572Y-122607143D01*
X138240001Y-122535714D01*
X138311429Y-122392857D01*
X138311429Y-122107143D01*
X138240001Y-121964286D01*
X138168572Y-121892857D01*
X138025715Y-121821429D01*
X139025714Y-122607143D02*
X139025714Y-122678571D01*
X138954286Y-122821429D01*
X138882857Y-122892857D01*
X140382858Y-121178571D02*
X139668572Y-121178571D01*
X139597143Y-121892857D01*
X139668572Y-121821429D01*
X139811429Y-121750000D01*
X140168572Y-121750000D01*
X140311429Y-121821429D01*
X140382858Y-121892857D01*
X140454286Y-122035714D01*
X140454286Y-122392857D01*
X140382858Y-122535714D01*
X140311429Y-122607143D01*
X140168572Y-122678571D01*
X139811429Y-122678571D01*
X139668572Y-122607143D01*
X139597143Y-122535714D01*
X141311429Y-121821429D02*
X141168571Y-121750000D01*
X141097143Y-121678571D01*
X141025714Y-121535714D01*
X141025714Y-121464286D01*
X141097143Y-121321429D01*
X141168571Y-121250000D01*
X141311429Y-121178571D01*
X141597143Y-121178571D01*
X141740000Y-121250000D01*
X141811429Y-121321429D01*
X141882857Y-121464286D01*
X141882857Y-121535714D01*
X141811429Y-121678571D01*
X141740000Y-121750000D01*
X141597143Y-121821429D01*
X141311429Y-121821429D01*
X141168571Y-121892857D01*
X141097143Y-121964286D01*
X141025714Y-122107143D01*
X141025714Y-122392857D01*
X141097143Y-122535714D01*
X141168571Y-122607143D01*
X141311429Y-122678571D01*
X141597143Y-122678571D01*
X141740000Y-122607143D01*
X141811429Y-122535714D01*
X141882857Y-122392857D01*
X141882857Y-122107143D01*
X141811429Y-121964286D01*
X141740000Y-121892857D01*
X141597143Y-121821429D01*
X142811428Y-121178571D02*
X142954285Y-121178571D01*
X143097142Y-121250000D01*
X143168571Y-121321429D01*
X143240000Y-121464286D01*
X143311428Y-121750000D01*
X143311428Y-122107143D01*
X143240000Y-122392857D01*
X143168571Y-122535714D01*
X143097142Y-122607143D01*
X142954285Y-122678571D01*
X142811428Y-122678571D01*
X142668571Y-122607143D01*
X142597142Y-122535714D01*
X142525714Y-122392857D01*
X142454285Y-122107143D01*
X142454285Y-121750000D01*
X142525714Y-121464286D01*
X142597142Y-121321429D01*
X142668571Y-121250000D01*
X142811428Y-121178571D01*
X145097142Y-122678571D02*
X145097142Y-121678571D01*
X145097142Y-121821429D02*
X145168570Y-121750000D01*
X145311428Y-121678571D01*
X145525713Y-121678571D01*
X145668570Y-121750000D01*
X145739999Y-121892857D01*
X145739999Y-122678571D01*
X145739999Y-121892857D02*
X145811428Y-121750000D01*
X145954285Y-121678571D01*
X146168570Y-121678571D01*
X146311428Y-121750000D01*
X146382856Y-121892857D01*
X146382856Y-122678571D01*
X147097142Y-122678571D02*
X147097142Y-121678571D01*
X147097142Y-121821429D02*
X147168570Y-121750000D01*
X147311428Y-121678571D01*
X147525713Y-121678571D01*
X147668570Y-121750000D01*
X147739999Y-121892857D01*
X147739999Y-122678571D01*
X147739999Y-121892857D02*
X147811428Y-121750000D01*
X147954285Y-121678571D01*
X148168570Y-121678571D01*
X148311428Y-121750000D01*
X148382856Y-121892857D01*
X148382856Y-122678571D01*
X176530000Y-120650000D02*
X107950000Y-120650000D01*
X176530000Y-113030000D02*
X176530000Y-123350000D01*
X107950000Y-113030000D02*
X107950000Y-123350000D01*
X107950000Y-120650000D02*
X109076504Y-120063579D01*
X107950000Y-120650000D02*
X109076504Y-121236421D01*
X176530000Y-120650000D02*
X175403496Y-120063579D01*
X176530000Y-120650000D02*
X175403496Y-121236421D01*
D10*
X173355000Y-105410000D02*
X173355000Y-107950000D01*
X173355000Y-107950000D02*
X168275000Y-107950000D01*
X168275000Y-107950000D02*
X168275000Y-105410000D01*
X173355000Y-92710000D02*
X173355000Y-105410000D01*
X168275000Y-105410000D02*
X168275000Y-92710000D01*
X168275000Y-92710000D02*
X173355000Y-92710000D01*
X171450000Y-81280000D02*
X171450000Y-83820000D01*
X171450000Y-83820000D02*
X166370000Y-83820000D01*
X166370000Y-83820000D02*
X166370000Y-81280000D01*
X171450000Y-68580000D02*
X171450000Y-81280000D01*
X166370000Y-81280000D02*
X166370000Y-68580000D01*
X166370000Y-68580000D02*
X171450000Y-68580000D01*
X135890000Y-69850000D02*
X135890000Y-80010000D01*
X135890000Y-80010000D02*
X130810000Y-80010000D01*
X130810000Y-80010000D02*
X130810000Y-69850000D01*
X130810000Y-69850000D02*
X135890000Y-69850000D01*
X137160000Y-88900000D02*
X137160000Y-111760000D01*
X137160000Y-111760000D02*
X134620000Y-111760000D01*
X134620000Y-111760000D02*
X134620000Y-88900000D01*
X134620000Y-88900000D02*
X137160000Y-88900000D01*
D13*
X174982143Y-95671191D02*
X175029762Y-95623572D01*
X175077381Y-95480715D01*
X175077381Y-95385477D01*
X175029762Y-95242619D01*
X174934524Y-95147381D01*
X174839286Y-95099762D01*
X174648810Y-95052143D01*
X174505952Y-95052143D01*
X174315476Y-95099762D01*
X174220238Y-95147381D01*
X174125000Y-95242619D01*
X174077381Y-95385477D01*
X174077381Y-95480715D01*
X174125000Y-95623572D01*
X174172619Y-95671191D01*
X174077381Y-96290238D02*
X174077381Y-96480715D01*
X174125000Y-96575953D01*
X174220238Y-96671191D01*
X174410714Y-96718810D01*
X174744048Y-96718810D01*
X174934524Y-96671191D01*
X175029762Y-96575953D01*
X175077381Y-96480715D01*
X175077381Y-96290238D01*
X175029762Y-96195000D01*
X174934524Y-96099762D01*
X174744048Y-96052143D01*
X174410714Y-96052143D01*
X174220238Y-96099762D01*
X174125000Y-96195000D01*
X174077381Y-96290238D01*
X175077381Y-97147381D02*
X174077381Y-97147381D01*
X175077381Y-97718810D01*
X174077381Y-97718810D01*
X175077381Y-98195000D02*
X174077381Y-98195000D01*
X175077381Y-98766429D01*
X174077381Y-98766429D01*
X175172619Y-99004524D02*
X175172619Y-99766429D01*
X174077381Y-100195000D02*
X174077381Y-100290239D01*
X174125000Y-100385477D01*
X174172619Y-100433096D01*
X174267857Y-100480715D01*
X174458333Y-100528334D01*
X174696429Y-100528334D01*
X174886905Y-100480715D01*
X174982143Y-100433096D01*
X175029762Y-100385477D01*
X175077381Y-100290239D01*
X175077381Y-100195000D01*
X175029762Y-100099762D01*
X174982143Y-100052143D01*
X174886905Y-100004524D01*
X174696429Y-99956905D01*
X174458333Y-99956905D01*
X174267857Y-100004524D01*
X174172619Y-100052143D01*
X174125000Y-100099762D01*
X174077381Y-100195000D01*
X175077381Y-101480715D02*
X175077381Y-100909286D01*
X175077381Y-101195000D02*
X174077381Y-101195000D01*
X174220238Y-101099762D01*
X174315476Y-101004524D01*
X174363095Y-100909286D01*
X174077381Y-101814048D02*
X175077381Y-102480715D01*
X174077381Y-102480715D02*
X175077381Y-101814048D01*
X175077381Y-103385477D02*
X175077381Y-102814048D01*
X175077381Y-103099762D02*
X174077381Y-103099762D01*
X174220238Y-103004524D01*
X174315476Y-102909286D01*
X174363095Y-102814048D01*
X174172619Y-103766429D02*
X174125000Y-103814048D01*
X174077381Y-103909286D01*
X174077381Y-104147382D01*
X174125000Y-104242620D01*
X174172619Y-104290239D01*
X174267857Y-104337858D01*
X174363095Y-104337858D01*
X174505952Y-104290239D01*
X175077381Y-103718810D01*
X175077381Y-104337858D01*
X173077143Y-71541191D02*
X173124762Y-71493572D01*
X173172381Y-71350715D01*
X173172381Y-71255477D01*
X173124762Y-71112619D01*
X173029524Y-71017381D01*
X172934286Y-70969762D01*
X172743810Y-70922143D01*
X172600952Y-70922143D01*
X172410476Y-70969762D01*
X172315238Y-71017381D01*
X172220000Y-71112619D01*
X172172381Y-71255477D01*
X172172381Y-71350715D01*
X172220000Y-71493572D01*
X172267619Y-71541191D01*
X172172381Y-72160238D02*
X172172381Y-72350715D01*
X172220000Y-72445953D01*
X172315238Y-72541191D01*
X172505714Y-72588810D01*
X172839048Y-72588810D01*
X173029524Y-72541191D01*
X173124762Y-72445953D01*
X173172381Y-72350715D01*
X173172381Y-72160238D01*
X173124762Y-72065000D01*
X173029524Y-71969762D01*
X172839048Y-71922143D01*
X172505714Y-71922143D01*
X172315238Y-71969762D01*
X172220000Y-72065000D01*
X172172381Y-72160238D01*
X173172381Y-73017381D02*
X172172381Y-73017381D01*
X173172381Y-73588810D01*
X172172381Y-73588810D01*
X173172381Y-74065000D02*
X172172381Y-74065000D01*
X173172381Y-74636429D01*
X172172381Y-74636429D01*
X173267619Y-74874524D02*
X173267619Y-75636429D01*
X172172381Y-76065000D02*
X172172381Y-76160239D01*
X172220000Y-76255477D01*
X172267619Y-76303096D01*
X172362857Y-76350715D01*
X172553333Y-76398334D01*
X172791429Y-76398334D01*
X172981905Y-76350715D01*
X173077143Y-76303096D01*
X173124762Y-76255477D01*
X173172381Y-76160239D01*
X173172381Y-76065000D01*
X173124762Y-75969762D01*
X173077143Y-75922143D01*
X172981905Y-75874524D01*
X172791429Y-75826905D01*
X172553333Y-75826905D01*
X172362857Y-75874524D01*
X172267619Y-75922143D01*
X172220000Y-75969762D01*
X172172381Y-76065000D01*
X173172381Y-77350715D02*
X173172381Y-76779286D01*
X173172381Y-77065000D02*
X172172381Y-77065000D01*
X172315238Y-76969762D01*
X172410476Y-76874524D01*
X172458095Y-76779286D01*
X172172381Y-77684048D02*
X173172381Y-78350715D01*
X172172381Y-78350715D02*
X173172381Y-77684048D01*
X173172381Y-79255477D02*
X173172381Y-78684048D01*
X173172381Y-78969762D02*
X172172381Y-78969762D01*
X172315238Y-78874524D01*
X172410476Y-78779286D01*
X172458095Y-78684048D01*
X172267619Y-79636429D02*
X172220000Y-79684048D01*
X172172381Y-79779286D01*
X172172381Y-80017382D01*
X172220000Y-80112620D01*
X172267619Y-80160239D01*
X172362857Y-80207858D01*
X172458095Y-80207858D01*
X172600952Y-80160239D01*
X173172381Y-79588810D01*
X173172381Y-80207858D01*
X137517143Y-70906191D02*
X137564762Y-70858572D01*
X137612381Y-70715715D01*
X137612381Y-70620477D01*
X137564762Y-70477619D01*
X137469524Y-70382381D01*
X137374286Y-70334762D01*
X137183810Y-70287143D01*
X137040952Y-70287143D01*
X136850476Y-70334762D01*
X136755238Y-70382381D01*
X136660000Y-70477619D01*
X136612381Y-70620477D01*
X136612381Y-70715715D01*
X136660000Y-70858572D01*
X136707619Y-70906191D01*
X136612381Y-71525238D02*
X136612381Y-71715715D01*
X136660000Y-71810953D01*
X136755238Y-71906191D01*
X136945714Y-71953810D01*
X137279048Y-71953810D01*
X137469524Y-71906191D01*
X137564762Y-71810953D01*
X137612381Y-71715715D01*
X137612381Y-71525238D01*
X137564762Y-71430000D01*
X137469524Y-71334762D01*
X137279048Y-71287143D01*
X136945714Y-71287143D01*
X136755238Y-71334762D01*
X136660000Y-71430000D01*
X136612381Y-71525238D01*
X137612381Y-72382381D02*
X136612381Y-72382381D01*
X137612381Y-72953810D01*
X136612381Y-72953810D01*
X137612381Y-73430000D02*
X136612381Y-73430000D01*
X137612381Y-74001429D01*
X136612381Y-74001429D01*
X137707619Y-74239524D02*
X137707619Y-75001429D01*
X136612381Y-75430000D02*
X136612381Y-75525239D01*
X136660000Y-75620477D01*
X136707619Y-75668096D01*
X136802857Y-75715715D01*
X136993333Y-75763334D01*
X137231429Y-75763334D01*
X137421905Y-75715715D01*
X137517143Y-75668096D01*
X137564762Y-75620477D01*
X137612381Y-75525239D01*
X137612381Y-75430000D01*
X137564762Y-75334762D01*
X137517143Y-75287143D01*
X137421905Y-75239524D01*
X137231429Y-75191905D01*
X136993333Y-75191905D01*
X136802857Y-75239524D01*
X136707619Y-75287143D01*
X136660000Y-75334762D01*
X136612381Y-75430000D01*
X137612381Y-76715715D02*
X137612381Y-76144286D01*
X137612381Y-76430000D02*
X136612381Y-76430000D01*
X136755238Y-76334762D01*
X136850476Y-76239524D01*
X136898095Y-76144286D01*
X136612381Y-77049048D02*
X137612381Y-77715715D01*
X136612381Y-77715715D02*
X137612381Y-77049048D01*
X136612381Y-78287143D02*
X136612381Y-78382382D01*
X136660000Y-78477620D01*
X136707619Y-78525239D01*
X136802857Y-78572858D01*
X136993333Y-78620477D01*
X137231429Y-78620477D01*
X137421905Y-78572858D01*
X137517143Y-78525239D01*
X137564762Y-78477620D01*
X137612381Y-78382382D01*
X137612381Y-78287143D01*
X137564762Y-78191905D01*
X137517143Y-78144286D01*
X137421905Y-78096667D01*
X137231429Y-78049048D01*
X136993333Y-78049048D01*
X136802857Y-78096667D01*
X136707619Y-78144286D01*
X136660000Y-78191905D01*
X136612381Y-78287143D01*
X137040952Y-79191905D02*
X136993333Y-79096667D01*
X136945714Y-79049048D01*
X136850476Y-79001429D01*
X136802857Y-79001429D01*
X136707619Y-79049048D01*
X136660000Y-79096667D01*
X136612381Y-79191905D01*
X136612381Y-79382382D01*
X136660000Y-79477620D01*
X136707619Y-79525239D01*
X136802857Y-79572858D01*
X136850476Y-79572858D01*
X136945714Y-79525239D01*
X136993333Y-79477620D01*
X137040952Y-79382382D01*
X137040952Y-79191905D01*
X137088571Y-79096667D01*
X137136190Y-79049048D01*
X137231429Y-79001429D01*
X137421905Y-79001429D01*
X137517143Y-79049048D01*
X137564762Y-79096667D01*
X137612381Y-79191905D01*
X137612381Y-79382382D01*
X137564762Y-79477620D01*
X137517143Y-79525239D01*
X137421905Y-79572858D01*
X137231429Y-79572858D01*
X137136190Y-79525239D01*
X137088571Y-79477620D01*
X137040952Y-79382382D01*
X134088095Y-75382381D02*
X134088095Y-74382381D01*
X133707142Y-74382381D01*
X133611904Y-74430000D01*
X133564285Y-74477619D01*
X133516666Y-74572857D01*
X133516666Y-74715714D01*
X133564285Y-74810952D01*
X133611904Y-74858571D01*
X133707142Y-74906190D01*
X134088095Y-74906190D01*
X133135714Y-74477619D02*
X133088095Y-74430000D01*
X132992857Y-74382381D01*
X132754761Y-74382381D01*
X132659523Y-74430000D01*
X132611904Y-74477619D01*
X132564285Y-74572857D01*
X132564285Y-74668095D01*
X132611904Y-74810952D01*
X133183333Y-75382381D01*
X132564285Y-75382381D01*
X133707143Y-95036191D02*
X133754762Y-94988572D01*
X133802381Y-94845715D01*
X133802381Y-94750477D01*
X133754762Y-94607619D01*
X133659524Y-94512381D01*
X133564286Y-94464762D01*
X133373810Y-94417143D01*
X133230952Y-94417143D01*
X133040476Y-94464762D01*
X132945238Y-94512381D01*
X132850000Y-94607619D01*
X132802381Y-94750477D01*
X132802381Y-94845715D01*
X132850000Y-94988572D01*
X132897619Y-95036191D01*
X132802381Y-95655238D02*
X132802381Y-95845715D01*
X132850000Y-95940953D01*
X132945238Y-96036191D01*
X133135714Y-96083810D01*
X133469048Y-96083810D01*
X133659524Y-96036191D01*
X133754762Y-95940953D01*
X133802381Y-95845715D01*
X133802381Y-95655238D01*
X133754762Y-95560000D01*
X133659524Y-95464762D01*
X133469048Y-95417143D01*
X133135714Y-95417143D01*
X132945238Y-95464762D01*
X132850000Y-95560000D01*
X132802381Y-95655238D01*
X133802381Y-96512381D02*
X132802381Y-96512381D01*
X133802381Y-97083810D01*
X132802381Y-97083810D01*
X133802381Y-97560000D02*
X132802381Y-97560000D01*
X133802381Y-98131429D01*
X132802381Y-98131429D01*
X133897619Y-98369524D02*
X133897619Y-99131429D01*
X132802381Y-99560000D02*
X132802381Y-99655239D01*
X132850000Y-99750477D01*
X132897619Y-99798096D01*
X132992857Y-99845715D01*
X133183333Y-99893334D01*
X133421429Y-99893334D01*
X133611905Y-99845715D01*
X133707143Y-99798096D01*
X133754762Y-99750477D01*
X133802381Y-99655239D01*
X133802381Y-99560000D01*
X133754762Y-99464762D01*
X133707143Y-99417143D01*
X133611905Y-99369524D01*
X133421429Y-99321905D01*
X133183333Y-99321905D01*
X132992857Y-99369524D01*
X132897619Y-99417143D01*
X132850000Y-99464762D01*
X132802381Y-99560000D01*
X133802381Y-100845715D02*
X133802381Y-100274286D01*
X133802381Y-100560000D02*
X132802381Y-100560000D01*
X132945238Y-100464762D01*
X133040476Y-100369524D01*
X133088095Y-100274286D01*
X132802381Y-101179048D02*
X133802381Y-101845715D01*
X132802381Y-101845715D02*
X133802381Y-101179048D01*
X132802381Y-102417143D02*
X132802381Y-102512382D01*
X132850000Y-102607620D01*
X132897619Y-102655239D01*
X132992857Y-102702858D01*
X133183333Y-102750477D01*
X133421429Y-102750477D01*
X133611905Y-102702858D01*
X133707143Y-102655239D01*
X133754762Y-102607620D01*
X133802381Y-102512382D01*
X133802381Y-102417143D01*
X133754762Y-102321905D01*
X133707143Y-102274286D01*
X133611905Y-102226667D01*
X133421429Y-102179048D01*
X133183333Y-102179048D01*
X132992857Y-102226667D01*
X132897619Y-102274286D01*
X132850000Y-102321905D01*
X132802381Y-102417143D01*
X133802381Y-103226667D02*
X133802381Y-103417143D01*
X133754762Y-103512382D01*
X133707143Y-103560001D01*
X133564286Y-103655239D01*
X133373810Y-103702858D01*
X132992857Y-103702858D01*
X132897619Y-103655239D01*
X132850000Y-103607620D01*
X132802381Y-103512382D01*
X132802381Y-103321905D01*
X132850000Y-103226667D01*
X132897619Y-103179048D01*
X132992857Y-103131429D01*
X133230952Y-103131429D01*
X133326190Y-103179048D01*
X133373810Y-103226667D01*
X133421429Y-103321905D01*
X133421429Y-103512382D01*
X133373810Y-103607620D01*
X133326190Y-103655239D01*
X133230952Y-103702858D01*
M02*
