G04 #@! TF.FileFunction,Copper,L2,Bot,Signal*
%FSLAX46Y46*%
G04 Gerber Fmt 4.6, Leading zero omitted, Abs format (unit mm)*
G04 Created by KiCad (PCBNEW 4.0.7) date 08/25/18 10:55:44*
%MOMM*%
%LPD*%
G01*
G04 APERTURE LIST*
%ADD10C,0.100000*%
%ADD11C,0.300000*%
%ADD12C,1.800000*%
%ADD13R,1.800000X1.800000*%
%ADD14R,2.400000X1.600000*%
%ADD15O,2.400000X1.600000*%
%ADD16R,1.700000X1.700000*%
%ADD17O,1.700000X1.700000*%
G04 APERTURE END LIST*
D10*
D11*
X120277143Y-65287142D02*
X120277143Y-65858571D01*
X120420000Y-66144285D01*
X120705714Y-66429999D01*
X121277143Y-66572857D01*
X122277143Y-66572857D01*
X122848571Y-66429999D01*
X123134286Y-66144285D01*
X123277143Y-65858571D01*
X123277143Y-65287142D01*
X123134286Y-65001428D01*
X122848571Y-64715714D01*
X122277143Y-64572857D01*
X121277143Y-64572857D01*
X120705714Y-64715714D01*
X120420000Y-65001428D01*
X120277143Y-65287142D01*
X121277143Y-67858571D02*
X124277143Y-67858571D01*
X121420000Y-67858571D02*
X121277143Y-68144285D01*
X121277143Y-68715714D01*
X121420000Y-69001428D01*
X121562857Y-69144285D01*
X121848571Y-69287142D01*
X122705714Y-69287142D01*
X122991429Y-69144285D01*
X123134286Y-69001428D01*
X123277143Y-68715714D01*
X123277143Y-68144285D01*
X123134286Y-67858571D01*
X123134286Y-71715714D02*
X123277143Y-71430000D01*
X123277143Y-70858571D01*
X123134286Y-70572857D01*
X122848571Y-70430000D01*
X121705714Y-70430000D01*
X121420000Y-70572857D01*
X121277143Y-70858571D01*
X121277143Y-71430000D01*
X121420000Y-71715714D01*
X121705714Y-71858571D01*
X121991429Y-71858571D01*
X122277143Y-70430000D01*
X121277143Y-73144286D02*
X123277143Y-73144286D01*
X121562857Y-73144286D02*
X121420000Y-73287143D01*
X121277143Y-73572857D01*
X121277143Y-74001429D01*
X121420000Y-74287143D01*
X121705714Y-74430000D01*
X123277143Y-74430000D01*
X122420000Y-75715715D02*
X122420000Y-77144286D01*
X123277143Y-75430000D02*
X120277143Y-76430000D01*
X123277143Y-77430000D01*
X120277143Y-78001429D02*
X123277143Y-79001429D01*
X120277143Y-80001429D01*
X123277143Y-82715715D02*
X121848571Y-81715715D01*
X123277143Y-81001430D02*
X120277143Y-81001430D01*
X120277143Y-82144287D01*
X120420000Y-82430001D01*
X120562857Y-82572858D01*
X120848571Y-82715715D01*
X121277143Y-82715715D01*
X121562857Y-82572858D01*
X121705714Y-82430001D01*
X121848571Y-82144287D01*
X121848571Y-81001430D01*
X123134286Y-85287144D02*
X123277143Y-85001430D01*
X123277143Y-84430001D01*
X123134286Y-84144287D01*
X122991429Y-84001430D01*
X122705714Y-83858573D01*
X121848571Y-83858573D01*
X121562857Y-84001430D01*
X121420000Y-84144287D01*
X121277143Y-84430001D01*
X121277143Y-85001430D01*
X121420000Y-85287144D01*
X155837143Y-65287142D02*
X155837143Y-65858571D01*
X155980000Y-66144285D01*
X156265714Y-66429999D01*
X156837143Y-66572857D01*
X157837143Y-66572857D01*
X158408571Y-66429999D01*
X158694286Y-66144285D01*
X158837143Y-65858571D01*
X158837143Y-65287142D01*
X158694286Y-65001428D01*
X158408571Y-64715714D01*
X157837143Y-64572857D01*
X156837143Y-64572857D01*
X156265714Y-64715714D01*
X155980000Y-65001428D01*
X155837143Y-65287142D01*
X156837143Y-67858571D02*
X159837143Y-67858571D01*
X156980000Y-67858571D02*
X156837143Y-68144285D01*
X156837143Y-68715714D01*
X156980000Y-69001428D01*
X157122857Y-69144285D01*
X157408571Y-69287142D01*
X158265714Y-69287142D01*
X158551429Y-69144285D01*
X158694286Y-69001428D01*
X158837143Y-68715714D01*
X158837143Y-68144285D01*
X158694286Y-67858571D01*
X158694286Y-71715714D02*
X158837143Y-71430000D01*
X158837143Y-70858571D01*
X158694286Y-70572857D01*
X158408571Y-70430000D01*
X157265714Y-70430000D01*
X156980000Y-70572857D01*
X156837143Y-70858571D01*
X156837143Y-71430000D01*
X156980000Y-71715714D01*
X157265714Y-71858571D01*
X157551429Y-71858571D01*
X157837143Y-70430000D01*
X156837143Y-73144286D02*
X158837143Y-73144286D01*
X157122857Y-73144286D02*
X156980000Y-73287143D01*
X156837143Y-73572857D01*
X156837143Y-74001429D01*
X156980000Y-74287143D01*
X157265714Y-74430000D01*
X158837143Y-74430000D01*
X157980000Y-75715715D02*
X157980000Y-77144286D01*
X158837143Y-75430000D02*
X155837143Y-76430000D01*
X158837143Y-77430000D01*
X155837143Y-78001429D02*
X158837143Y-79001429D01*
X155837143Y-80001429D01*
X158837143Y-82715715D02*
X157408571Y-81715715D01*
X158837143Y-81001430D02*
X155837143Y-81001430D01*
X155837143Y-82144287D01*
X155980000Y-82430001D01*
X156122857Y-82572858D01*
X156408571Y-82715715D01*
X156837143Y-82715715D01*
X157122857Y-82572858D01*
X157265714Y-82430001D01*
X157408571Y-82144287D01*
X157408571Y-81001430D01*
X158694286Y-85287144D02*
X158837143Y-85001430D01*
X158837143Y-84430001D01*
X158694286Y-84144287D01*
X158551429Y-84001430D01*
X158265714Y-83858573D01*
X157408571Y-83858573D01*
X157122857Y-84001430D01*
X156980000Y-84144287D01*
X156837143Y-84430001D01*
X156837143Y-85001430D01*
X156980000Y-85287144D01*
X155837143Y-90687142D02*
X155837143Y-91258571D01*
X155980000Y-91544285D01*
X156265714Y-91829999D01*
X156837143Y-91972857D01*
X157837143Y-91972857D01*
X158408571Y-91829999D01*
X158694286Y-91544285D01*
X158837143Y-91258571D01*
X158837143Y-90687142D01*
X158694286Y-90401428D01*
X158408571Y-90115714D01*
X157837143Y-89972857D01*
X156837143Y-89972857D01*
X156265714Y-90115714D01*
X155980000Y-90401428D01*
X155837143Y-90687142D01*
X156837143Y-93258571D02*
X159837143Y-93258571D01*
X156980000Y-93258571D02*
X156837143Y-93544285D01*
X156837143Y-94115714D01*
X156980000Y-94401428D01*
X157122857Y-94544285D01*
X157408571Y-94687142D01*
X158265714Y-94687142D01*
X158551429Y-94544285D01*
X158694286Y-94401428D01*
X158837143Y-94115714D01*
X158837143Y-93544285D01*
X158694286Y-93258571D01*
X158694286Y-97115714D02*
X158837143Y-96830000D01*
X158837143Y-96258571D01*
X158694286Y-95972857D01*
X158408571Y-95830000D01*
X157265714Y-95830000D01*
X156980000Y-95972857D01*
X156837143Y-96258571D01*
X156837143Y-96830000D01*
X156980000Y-97115714D01*
X157265714Y-97258571D01*
X157551429Y-97258571D01*
X157837143Y-95830000D01*
X156837143Y-98544286D02*
X158837143Y-98544286D01*
X157122857Y-98544286D02*
X156980000Y-98687143D01*
X156837143Y-98972857D01*
X156837143Y-99401429D01*
X156980000Y-99687143D01*
X157265714Y-99830000D01*
X158837143Y-99830000D01*
X157980000Y-101115715D02*
X157980000Y-102544286D01*
X158837143Y-100830000D02*
X155837143Y-101830000D01*
X158837143Y-102830000D01*
X155837143Y-103401429D02*
X158837143Y-104401429D01*
X155837143Y-105401429D01*
X158837143Y-108115715D02*
X157408571Y-107115715D01*
X158837143Y-106401430D02*
X155837143Y-106401430D01*
X155837143Y-107544287D01*
X155980000Y-107830001D01*
X156122857Y-107972858D01*
X156408571Y-108115715D01*
X156837143Y-108115715D01*
X157122857Y-107972858D01*
X157265714Y-107830001D01*
X157408571Y-107544287D01*
X157408571Y-106401430D01*
X158694286Y-110687144D02*
X158837143Y-110401430D01*
X158837143Y-109830001D01*
X158694286Y-109544287D01*
X158551429Y-109401430D01*
X158265714Y-109258573D01*
X157408571Y-109258573D01*
X157122857Y-109401430D01*
X156980000Y-109544287D01*
X156837143Y-109830001D01*
X156837143Y-110401430D01*
X156980000Y-110687144D01*
X120277143Y-90687142D02*
X120277143Y-91258571D01*
X120420000Y-91544285D01*
X120705714Y-91829999D01*
X121277143Y-91972857D01*
X122277143Y-91972857D01*
X122848571Y-91829999D01*
X123134286Y-91544285D01*
X123277143Y-91258571D01*
X123277143Y-90687142D01*
X123134286Y-90401428D01*
X122848571Y-90115714D01*
X122277143Y-89972857D01*
X121277143Y-89972857D01*
X120705714Y-90115714D01*
X120420000Y-90401428D01*
X120277143Y-90687142D01*
X121277143Y-93258571D02*
X124277143Y-93258571D01*
X121420000Y-93258571D02*
X121277143Y-93544285D01*
X121277143Y-94115714D01*
X121420000Y-94401428D01*
X121562857Y-94544285D01*
X121848571Y-94687142D01*
X122705714Y-94687142D01*
X122991429Y-94544285D01*
X123134286Y-94401428D01*
X123277143Y-94115714D01*
X123277143Y-93544285D01*
X123134286Y-93258571D01*
X123134286Y-97115714D02*
X123277143Y-96830000D01*
X123277143Y-96258571D01*
X123134286Y-95972857D01*
X122848571Y-95830000D01*
X121705714Y-95830000D01*
X121420000Y-95972857D01*
X121277143Y-96258571D01*
X121277143Y-96830000D01*
X121420000Y-97115714D01*
X121705714Y-97258571D01*
X121991429Y-97258571D01*
X122277143Y-95830000D01*
X121277143Y-98544286D02*
X123277143Y-98544286D01*
X121562857Y-98544286D02*
X121420000Y-98687143D01*
X121277143Y-98972857D01*
X121277143Y-99401429D01*
X121420000Y-99687143D01*
X121705714Y-99830000D01*
X123277143Y-99830000D01*
X122420000Y-101115715D02*
X122420000Y-102544286D01*
X123277143Y-100830000D02*
X120277143Y-101830000D01*
X123277143Y-102830000D01*
X120277143Y-103401429D02*
X123277143Y-104401429D01*
X120277143Y-105401429D01*
X123277143Y-108115715D02*
X121848571Y-107115715D01*
X123277143Y-106401430D02*
X120277143Y-106401430D01*
X120277143Y-107544287D01*
X120420000Y-107830001D01*
X120562857Y-107972858D01*
X120848571Y-108115715D01*
X121277143Y-108115715D01*
X121562857Y-107972858D01*
X121705714Y-107830001D01*
X121848571Y-107544287D01*
X121848571Y-106401430D01*
X123134286Y-110687144D02*
X123277143Y-110401430D01*
X123277143Y-109830001D01*
X123134286Y-109544287D01*
X122991429Y-109401430D01*
X122705714Y-109258573D01*
X121848571Y-109258573D01*
X121562857Y-109401430D01*
X121420000Y-109544287D01*
X121277143Y-109830001D01*
X121277143Y-110401430D01*
X121420000Y-110687144D01*
D12*
X147955000Y-106680000D03*
X147955000Y-104140000D03*
D13*
X147955000Y-91440000D03*
D12*
X147955000Y-93980000D03*
X147955000Y-96520000D03*
X147955000Y-99060000D03*
X147955000Y-101600000D03*
X169545000Y-106680000D03*
X172085000Y-106680000D03*
D13*
X172085000Y-93980000D03*
D12*
X169545000Y-93980000D03*
X172085000Y-96520000D03*
X169545000Y-96520000D03*
X172085000Y-99060000D03*
X169545000Y-99060000D03*
X172085000Y-101600000D03*
X169545000Y-101600000D03*
X172085000Y-104140000D03*
X169545000Y-104140000D03*
X167640000Y-82550000D03*
X170180000Y-82550000D03*
D13*
X170180000Y-69850000D03*
D12*
X167640000Y-69850000D03*
X170180000Y-72390000D03*
X167640000Y-72390000D03*
X170180000Y-74930000D03*
X167640000Y-74930000D03*
X170180000Y-77470000D03*
X167640000Y-77470000D03*
X170180000Y-80010000D03*
X167640000Y-80010000D03*
X111760000Y-106680000D03*
X111760000Y-104140000D03*
D13*
X111760000Y-91440000D03*
D12*
X111760000Y-93980000D03*
X111760000Y-96520000D03*
X111760000Y-99060000D03*
X111760000Y-101600000D03*
X147320000Y-82550000D03*
X147320000Y-80010000D03*
D13*
X147320000Y-67310000D03*
D12*
X147320000Y-69850000D03*
X147320000Y-72390000D03*
X147320000Y-74930000D03*
X147320000Y-77470000D03*
X111760000Y-81280000D03*
X111760000Y-78740000D03*
D13*
X111760000Y-66040000D03*
D12*
X111760000Y-68580000D03*
X111760000Y-71120000D03*
X111760000Y-73660000D03*
X111760000Y-76200000D03*
D14*
X116840000Y-68580000D03*
D15*
X116840000Y-71120000D03*
X116840000Y-73660000D03*
X116840000Y-76200000D03*
X116840000Y-78740000D03*
X116840000Y-81280000D03*
X127000000Y-81280000D03*
X127000000Y-78740000D03*
X127000000Y-76200000D03*
X127000000Y-73660000D03*
X127000000Y-71120000D03*
X127000000Y-68580000D03*
D14*
X152400000Y-69850000D03*
D15*
X152400000Y-72390000D03*
X152400000Y-74930000D03*
X152400000Y-77470000D03*
X152400000Y-80010000D03*
X152400000Y-82550000D03*
X162560000Y-82550000D03*
X162560000Y-80010000D03*
X162560000Y-77470000D03*
X162560000Y-74930000D03*
X162560000Y-72390000D03*
X162560000Y-69850000D03*
D16*
X134620000Y-71120000D03*
D17*
X132080000Y-71120000D03*
X134620000Y-73660000D03*
X132080000Y-73660000D03*
X134620000Y-76200000D03*
X132080000Y-76200000D03*
X134620000Y-78740000D03*
X132080000Y-78740000D03*
D14*
X116840000Y-93980000D03*
D15*
X116840000Y-96520000D03*
X116840000Y-99060000D03*
X116840000Y-101600000D03*
X116840000Y-104140000D03*
X116840000Y-106680000D03*
X127000000Y-106680000D03*
X127000000Y-104140000D03*
X127000000Y-101600000D03*
X127000000Y-99060000D03*
X127000000Y-96520000D03*
X127000000Y-93980000D03*
D16*
X135890000Y-90170000D03*
D17*
X135890000Y-92710000D03*
X135890000Y-95250000D03*
X135890000Y-97790000D03*
X135890000Y-100330000D03*
X135890000Y-102870000D03*
X135890000Y-105410000D03*
X135890000Y-107950000D03*
X135890000Y-110490000D03*
D14*
X153035000Y-93980000D03*
D15*
X153035000Y-96520000D03*
X153035000Y-99060000D03*
X153035000Y-101600000D03*
X153035000Y-104140000D03*
X153035000Y-106680000D03*
X163195000Y-106680000D03*
X163195000Y-104140000D03*
X163195000Y-101600000D03*
X163195000Y-99060000D03*
X163195000Y-96520000D03*
X163195000Y-93980000D03*
M02*
