G04 #@! TF.FileFunction,Legend,Bot*
%FSLAX46Y46*%
G04 Gerber Fmt 4.6, Leading zero omitted, Abs format (unit mm)*
G04 Created by KiCad (PCBNEW 4.0.7) date 08/25/18 10:55:44*
%MOMM*%
%LPD*%
G01*
G04 APERTURE LIST*
%ADD10C,0.100000*%
%ADD11C,0.120000*%
%ADD12C,0.150000*%
G04 APERTURE END LIST*
D10*
D11*
X173482000Y-105537000D02*
X173482000Y-107950000D01*
X173482000Y-107950000D02*
X168148000Y-107950000D01*
X168148000Y-107950000D02*
X168148000Y-105537000D01*
X173475000Y-95250000D02*
X173475000Y-105530000D01*
X168155000Y-105530000D02*
X168155000Y-92590000D01*
X168155000Y-92590000D02*
X170815000Y-92590000D01*
X170815000Y-92590000D02*
X170815000Y-95250000D01*
X170815000Y-95250000D02*
X173475000Y-95250000D01*
X173475000Y-93980000D02*
X173475000Y-92590000D01*
X173475000Y-92590000D02*
X172085000Y-92590000D01*
X171577000Y-81407000D02*
X171577000Y-83820000D01*
X171577000Y-83820000D02*
X166243000Y-83820000D01*
X166243000Y-83820000D02*
X166243000Y-81407000D01*
X171570000Y-71120000D02*
X171570000Y-81400000D01*
X166250000Y-81400000D02*
X166250000Y-68460000D01*
X166250000Y-68460000D02*
X168910000Y-68460000D01*
X168910000Y-68460000D02*
X168910000Y-71120000D01*
X168910000Y-71120000D02*
X171570000Y-71120000D01*
X171570000Y-69850000D02*
X171570000Y-68460000D01*
X171570000Y-68460000D02*
X170180000Y-68460000D01*
X135950000Y-72390000D02*
X135950000Y-80070000D01*
X135950000Y-80070000D02*
X130750000Y-80070000D01*
X130750000Y-80070000D02*
X130750000Y-69790000D01*
X130750000Y-69790000D02*
X133350000Y-69790000D01*
X133350000Y-69790000D02*
X133350000Y-72390000D01*
X133350000Y-72390000D02*
X135950000Y-72390000D01*
X135950000Y-71120000D02*
X135950000Y-69790000D01*
X135950000Y-69790000D02*
X134620000Y-69790000D01*
X137280000Y-91440000D02*
X137280000Y-111880000D01*
X137280000Y-111880000D02*
X134500000Y-111880000D01*
X134500000Y-111880000D02*
X134500000Y-91440000D01*
X134500000Y-91440000D02*
X137280000Y-91440000D01*
X137280000Y-90170000D02*
X137280000Y-88780000D01*
X137280000Y-88780000D02*
X135890000Y-88780000D01*
D12*
X171553095Y-109037381D02*
X171553095Y-108037381D01*
X171172142Y-108037381D01*
X171076904Y-108085000D01*
X171029285Y-108132619D01*
X170981666Y-108227857D01*
X170981666Y-108370714D01*
X171029285Y-108465952D01*
X171076904Y-108513571D01*
X171172142Y-108561190D01*
X171553095Y-108561190D01*
X170410238Y-108465952D02*
X170505476Y-108418333D01*
X170553095Y-108370714D01*
X170600714Y-108275476D01*
X170600714Y-108227857D01*
X170553095Y-108132619D01*
X170505476Y-108085000D01*
X170410238Y-108037381D01*
X170219761Y-108037381D01*
X170124523Y-108085000D01*
X170076904Y-108132619D01*
X170029285Y-108227857D01*
X170029285Y-108275476D01*
X170076904Y-108370714D01*
X170124523Y-108418333D01*
X170219761Y-108465952D01*
X170410238Y-108465952D01*
X170505476Y-108513571D01*
X170553095Y-108561190D01*
X170600714Y-108656429D01*
X170600714Y-108846905D01*
X170553095Y-108942143D01*
X170505476Y-108989762D01*
X170410238Y-109037381D01*
X170219761Y-109037381D01*
X170124523Y-108989762D01*
X170076904Y-108942143D01*
X170029285Y-108846905D01*
X170029285Y-108656429D01*
X170076904Y-108561190D01*
X170124523Y-108513571D01*
X170219761Y-108465952D01*
X169648095Y-84907381D02*
X169648095Y-83907381D01*
X169267142Y-83907381D01*
X169171904Y-83955000D01*
X169124285Y-84002619D01*
X169076666Y-84097857D01*
X169076666Y-84240714D01*
X169124285Y-84335952D01*
X169171904Y-84383571D01*
X169267142Y-84431190D01*
X169648095Y-84431190D01*
X168219523Y-84240714D02*
X168219523Y-84907381D01*
X168457619Y-83859762D02*
X168695714Y-84574048D01*
X168076666Y-84574048D01*
X134215095Y-69540381D02*
X134215095Y-68540381D01*
X133834142Y-68540381D01*
X133738904Y-68588000D01*
X133691285Y-68635619D01*
X133643666Y-68730857D01*
X133643666Y-68873714D01*
X133691285Y-68968952D01*
X133738904Y-69016571D01*
X133834142Y-69064190D01*
X134215095Y-69064190D01*
X133262714Y-68635619D02*
X133215095Y-68588000D01*
X133119857Y-68540381D01*
X132881761Y-68540381D01*
X132786523Y-68588000D01*
X132738904Y-68635619D01*
X132691285Y-68730857D01*
X132691285Y-68826095D01*
X132738904Y-68968952D01*
X133310333Y-69540381D01*
X132691285Y-69540381D01*
X136628095Y-88232381D02*
X136628095Y-87232381D01*
X136247142Y-87232381D01*
X136151904Y-87280000D01*
X136104285Y-87327619D01*
X136056666Y-87422857D01*
X136056666Y-87565714D01*
X136104285Y-87660952D01*
X136151904Y-87708571D01*
X136247142Y-87756190D01*
X136628095Y-87756190D01*
X135199523Y-87232381D02*
X135390000Y-87232381D01*
X135485238Y-87280000D01*
X135532857Y-87327619D01*
X135628095Y-87470476D01*
X135675714Y-87660952D01*
X135675714Y-88041905D01*
X135628095Y-88137143D01*
X135580476Y-88184762D01*
X135485238Y-88232381D01*
X135294761Y-88232381D01*
X135199523Y-88184762D01*
X135151904Y-88137143D01*
X135104285Y-88041905D01*
X135104285Y-87803810D01*
X135151904Y-87708571D01*
X135199523Y-87660952D01*
X135294761Y-87613333D01*
X135485238Y-87613333D01*
X135580476Y-87660952D01*
X135628095Y-87708571D01*
X135675714Y-87803810D01*
M02*
