G04 #@! TF.FileFunction,Soldermask,Bot*
%FSLAX46Y46*%
G04 Gerber Fmt 4.6, Leading zero omitted, Abs format (unit mm)*
G04 Created by KiCad (PCBNEW 4.0.7) date 08/25/18 10:55:44*
%MOMM*%
%LPD*%
G01*
G04 APERTURE LIST*
%ADD10C,0.100000*%
%ADD11C,2.200000*%
%ADD12R,2.200000X2.200000*%
%ADD13R,2.800000X2.000000*%
%ADD14O,2.800000X2.000000*%
%ADD15R,2.100000X2.100000*%
%ADD16O,2.100000X2.100000*%
G04 APERTURE END LIST*
D10*
D11*
X147955000Y-106680000D03*
X147955000Y-104140000D03*
D12*
X147955000Y-91440000D03*
D11*
X147955000Y-93980000D03*
X147955000Y-96520000D03*
X147955000Y-99060000D03*
X147955000Y-101600000D03*
X169545000Y-106680000D03*
X172085000Y-106680000D03*
D12*
X172085000Y-93980000D03*
D11*
X169545000Y-93980000D03*
X172085000Y-96520000D03*
X169545000Y-96520000D03*
X172085000Y-99060000D03*
X169545000Y-99060000D03*
X172085000Y-101600000D03*
X169545000Y-101600000D03*
X172085000Y-104140000D03*
X169545000Y-104140000D03*
X167640000Y-82550000D03*
X170180000Y-82550000D03*
D12*
X170180000Y-69850000D03*
D11*
X167640000Y-69850000D03*
X170180000Y-72390000D03*
X167640000Y-72390000D03*
X170180000Y-74930000D03*
X167640000Y-74930000D03*
X170180000Y-77470000D03*
X167640000Y-77470000D03*
X170180000Y-80010000D03*
X167640000Y-80010000D03*
X111760000Y-106680000D03*
X111760000Y-104140000D03*
D12*
X111760000Y-91440000D03*
D11*
X111760000Y-93980000D03*
X111760000Y-96520000D03*
X111760000Y-99060000D03*
X111760000Y-101600000D03*
X147320000Y-82550000D03*
X147320000Y-80010000D03*
D12*
X147320000Y-67310000D03*
D11*
X147320000Y-69850000D03*
X147320000Y-72390000D03*
X147320000Y-74930000D03*
X147320000Y-77470000D03*
X111760000Y-81280000D03*
X111760000Y-78740000D03*
D12*
X111760000Y-66040000D03*
D11*
X111760000Y-68580000D03*
X111760000Y-71120000D03*
X111760000Y-73660000D03*
X111760000Y-76200000D03*
D13*
X116840000Y-68580000D03*
D14*
X116840000Y-71120000D03*
X116840000Y-73660000D03*
X116840000Y-76200000D03*
X116840000Y-78740000D03*
X116840000Y-81280000D03*
X127000000Y-81280000D03*
X127000000Y-78740000D03*
X127000000Y-76200000D03*
X127000000Y-73660000D03*
X127000000Y-71120000D03*
X127000000Y-68580000D03*
D13*
X152400000Y-69850000D03*
D14*
X152400000Y-72390000D03*
X152400000Y-74930000D03*
X152400000Y-77470000D03*
X152400000Y-80010000D03*
X152400000Y-82550000D03*
X162560000Y-82550000D03*
X162560000Y-80010000D03*
X162560000Y-77470000D03*
X162560000Y-74930000D03*
X162560000Y-72390000D03*
X162560000Y-69850000D03*
D15*
X134620000Y-71120000D03*
D16*
X132080000Y-71120000D03*
X134620000Y-73660000D03*
X132080000Y-73660000D03*
X134620000Y-76200000D03*
X132080000Y-76200000D03*
X134620000Y-78740000D03*
X132080000Y-78740000D03*
D13*
X116840000Y-93980000D03*
D14*
X116840000Y-96520000D03*
X116840000Y-99060000D03*
X116840000Y-101600000D03*
X116840000Y-104140000D03*
X116840000Y-106680000D03*
X127000000Y-106680000D03*
X127000000Y-104140000D03*
X127000000Y-101600000D03*
X127000000Y-99060000D03*
X127000000Y-96520000D03*
X127000000Y-93980000D03*
D15*
X135890000Y-90170000D03*
D16*
X135890000Y-92710000D03*
X135890000Y-95250000D03*
X135890000Y-97790000D03*
X135890000Y-100330000D03*
X135890000Y-102870000D03*
X135890000Y-105410000D03*
X135890000Y-107950000D03*
X135890000Y-110490000D03*
D13*
X153035000Y-93980000D03*
D14*
X153035000Y-96520000D03*
X153035000Y-99060000D03*
X153035000Y-101600000D03*
X153035000Y-104140000D03*
X153035000Y-106680000D03*
X163195000Y-106680000D03*
X163195000Y-104140000D03*
X163195000Y-101600000D03*
X163195000Y-99060000D03*
X163195000Y-96520000D03*
X163195000Y-93980000D03*
M02*
