G04 #@! TF.FileFunction,Legend,Top*
%FSLAX46Y46*%
G04 Gerber Fmt 4.6, Leading zero omitted, Abs format (unit mm)*
G04 Created by KiCad (PCBNEW 4.0.7) date 08/25/18 10:55:44*
%MOMM*%
%LPD*%
G01*
G04 APERTURE LIST*
%ADD10C,0.100000*%
%ADD11C,0.120000*%
%ADD12C,0.150000*%
G04 APERTURE END LIST*
D10*
D11*
X149355000Y-102940000D02*
X149355000Y-108040000D01*
X149355000Y-108040000D02*
X146555000Y-108040000D01*
X146555000Y-108040000D02*
X146555000Y-102940000D01*
X146565000Y-92710000D02*
X146565000Y-102990000D01*
X149345000Y-102990000D02*
X149345000Y-92710000D01*
X149345000Y-92710000D02*
X146565000Y-92710000D01*
X146565000Y-91440000D02*
X146565000Y-90050000D01*
X146565000Y-90050000D02*
X147955000Y-90050000D01*
X113160000Y-102940000D02*
X113160000Y-108040000D01*
X113160000Y-108040000D02*
X110360000Y-108040000D01*
X110360000Y-108040000D02*
X110360000Y-102940000D01*
X110370000Y-92710000D02*
X110370000Y-102990000D01*
X113150000Y-102990000D02*
X113150000Y-92710000D01*
X113150000Y-92710000D02*
X110370000Y-92710000D01*
X110370000Y-91440000D02*
X110370000Y-90050000D01*
X110370000Y-90050000D02*
X111760000Y-90050000D01*
X148720000Y-78810000D02*
X148720000Y-83910000D01*
X148720000Y-83910000D02*
X145920000Y-83910000D01*
X145920000Y-83910000D02*
X145920000Y-78810000D01*
X145930000Y-68580000D02*
X145930000Y-78860000D01*
X148710000Y-78860000D02*
X148710000Y-68580000D01*
X148710000Y-68580000D02*
X145930000Y-68580000D01*
X145930000Y-67310000D02*
X145930000Y-65920000D01*
X145930000Y-65920000D02*
X147320000Y-65920000D01*
X113160000Y-77540000D02*
X113160000Y-82640000D01*
X113160000Y-82640000D02*
X110360000Y-82640000D01*
X110360000Y-82640000D02*
X110360000Y-77540000D01*
X110370000Y-67310000D02*
X110370000Y-77590000D01*
X113150000Y-77590000D02*
X113150000Y-67310000D01*
X113150000Y-67310000D02*
X110370000Y-67310000D01*
X110370000Y-66040000D02*
X110370000Y-64650000D01*
X110370000Y-64650000D02*
X111760000Y-64650000D01*
X120400000Y-75930000D02*
X120400000Y-73930000D01*
X118360000Y-73930000D02*
X118360000Y-75930000D01*
X125480000Y-75930000D02*
X125480000Y-73930000D01*
X123440000Y-73930000D02*
X123440000Y-75930000D01*
X155960000Y-77200000D02*
X155960000Y-75200000D01*
X153920000Y-75200000D02*
X153920000Y-77200000D01*
X161040000Y-77200000D02*
X161040000Y-75200000D01*
X159000000Y-75200000D02*
X159000000Y-77200000D01*
X115443000Y-82677000D02*
X115443000Y-82804000D01*
X115443000Y-82804000D02*
X128397000Y-82804000D01*
X115443000Y-82677000D02*
X115443000Y-67183000D01*
X128397000Y-82804000D02*
X128397000Y-67183000D01*
X120920000Y-67190000D02*
X118280000Y-67190000D01*
X125560000Y-67190000D02*
X122920000Y-67190000D01*
X128390000Y-67190000D02*
X115450000Y-67190000D01*
X151003000Y-83947000D02*
X151003000Y-84074000D01*
X151003000Y-84074000D02*
X163957000Y-84074000D01*
X151003000Y-83947000D02*
X151003000Y-68453000D01*
X163957000Y-84074000D02*
X163957000Y-68453000D01*
X156480000Y-68460000D02*
X153840000Y-68460000D01*
X161120000Y-68460000D02*
X158480000Y-68460000D01*
X163950000Y-68460000D02*
X151010000Y-68460000D01*
X138230000Y-71390000D02*
X138230000Y-73390000D01*
X136090000Y-73390000D02*
X136090000Y-71390000D01*
X120400000Y-101330000D02*
X120400000Y-99330000D01*
X118360000Y-99330000D02*
X118360000Y-101330000D01*
X125480000Y-101330000D02*
X125480000Y-99330000D01*
X123440000Y-99330000D02*
X123440000Y-101330000D01*
X115443000Y-108077000D02*
X115443000Y-108204000D01*
X115443000Y-108204000D02*
X128397000Y-108204000D01*
X115443000Y-108077000D02*
X115443000Y-92583000D01*
X128397000Y-108204000D02*
X128397000Y-92583000D01*
X120920000Y-92590000D02*
X118280000Y-92590000D01*
X125560000Y-92590000D02*
X122920000Y-92590000D01*
X128390000Y-92590000D02*
X115450000Y-92590000D01*
X156595000Y-101330000D02*
X156595000Y-99330000D01*
X154555000Y-99330000D02*
X154555000Y-101330000D01*
X161675000Y-101330000D02*
X161675000Y-99330000D01*
X159635000Y-99330000D02*
X159635000Y-101330000D01*
X151638000Y-108077000D02*
X151638000Y-108204000D01*
X151638000Y-108204000D02*
X164592000Y-108204000D01*
X151638000Y-108077000D02*
X151638000Y-92583000D01*
X164592000Y-108204000D02*
X164592000Y-92583000D01*
X157115000Y-92590000D02*
X154475000Y-92590000D01*
X161755000Y-92590000D02*
X159115000Y-92590000D01*
X164585000Y-92590000D02*
X151645000Y-92590000D01*
D12*
X150693381Y-102719095D02*
X149693381Y-102719095D01*
X149693381Y-102338142D01*
X149741000Y-102242904D01*
X149788619Y-102195285D01*
X149883857Y-102147666D01*
X150026714Y-102147666D01*
X150121952Y-102195285D01*
X150169571Y-102242904D01*
X150217190Y-102338142D01*
X150217190Y-102719095D01*
X149693381Y-101814333D02*
X149693381Y-101147666D01*
X150693381Y-101576238D01*
X114498381Y-102719095D02*
X113498381Y-102719095D01*
X113498381Y-102338142D01*
X113546000Y-102242904D01*
X113593619Y-102195285D01*
X113688857Y-102147666D01*
X113831714Y-102147666D01*
X113926952Y-102195285D01*
X113974571Y-102242904D01*
X114022190Y-102338142D01*
X114022190Y-102719095D01*
X113498381Y-101242904D02*
X113498381Y-101719095D01*
X113974571Y-101766714D01*
X113926952Y-101719095D01*
X113879333Y-101623857D01*
X113879333Y-101385761D01*
X113926952Y-101290523D01*
X113974571Y-101242904D01*
X114069810Y-101195285D01*
X114307905Y-101195285D01*
X114403143Y-101242904D01*
X114450762Y-101290523D01*
X114498381Y-101385761D01*
X114498381Y-101623857D01*
X114450762Y-101719095D01*
X114403143Y-101766714D01*
X150058381Y-78589095D02*
X149058381Y-78589095D01*
X149058381Y-78208142D01*
X149106000Y-78112904D01*
X149153619Y-78065285D01*
X149248857Y-78017666D01*
X149391714Y-78017666D01*
X149486952Y-78065285D01*
X149534571Y-78112904D01*
X149582190Y-78208142D01*
X149582190Y-78589095D01*
X149058381Y-77684333D02*
X149058381Y-77065285D01*
X149439333Y-77398619D01*
X149439333Y-77255761D01*
X149486952Y-77160523D01*
X149534571Y-77112904D01*
X149629810Y-77065285D01*
X149867905Y-77065285D01*
X149963143Y-77112904D01*
X150010762Y-77160523D01*
X150058381Y-77255761D01*
X150058381Y-77541476D01*
X150010762Y-77636714D01*
X149963143Y-77684333D01*
X114498381Y-77319095D02*
X113498381Y-77319095D01*
X113498381Y-76938142D01*
X113546000Y-76842904D01*
X113593619Y-76795285D01*
X113688857Y-76747666D01*
X113831714Y-76747666D01*
X113926952Y-76795285D01*
X113974571Y-76842904D01*
X114022190Y-76938142D01*
X114022190Y-77319095D01*
X114498381Y-75795285D02*
X114498381Y-76366714D01*
X114498381Y-76081000D02*
X113498381Y-76081000D01*
X113641238Y-76176238D01*
X113736476Y-76271476D01*
X113784095Y-76366714D01*
X121487143Y-75096666D02*
X121534762Y-75144285D01*
X121582381Y-75287142D01*
X121582381Y-75382380D01*
X121534762Y-75525238D01*
X121439524Y-75620476D01*
X121344286Y-75668095D01*
X121153810Y-75715714D01*
X121010952Y-75715714D01*
X120820476Y-75668095D01*
X120725238Y-75620476D01*
X120630000Y-75525238D01*
X120582381Y-75382380D01*
X120582381Y-75287142D01*
X120630000Y-75144285D01*
X120677619Y-75096666D01*
X121582381Y-74144285D02*
X121582381Y-74715714D01*
X121582381Y-74430000D02*
X120582381Y-74430000D01*
X120725238Y-74525238D01*
X120820476Y-74620476D01*
X120868095Y-74715714D01*
X126567143Y-75096666D02*
X126614762Y-75144285D01*
X126662381Y-75287142D01*
X126662381Y-75382380D01*
X126614762Y-75525238D01*
X126519524Y-75620476D01*
X126424286Y-75668095D01*
X126233810Y-75715714D01*
X126090952Y-75715714D01*
X125900476Y-75668095D01*
X125805238Y-75620476D01*
X125710000Y-75525238D01*
X125662381Y-75382380D01*
X125662381Y-75287142D01*
X125710000Y-75144285D01*
X125757619Y-75096666D01*
X125757619Y-74715714D02*
X125710000Y-74668095D01*
X125662381Y-74572857D01*
X125662381Y-74334761D01*
X125710000Y-74239523D01*
X125757619Y-74191904D01*
X125852857Y-74144285D01*
X125948095Y-74144285D01*
X126090952Y-74191904D01*
X126662381Y-74763333D01*
X126662381Y-74144285D01*
X157047143Y-76366666D02*
X157094762Y-76414285D01*
X157142381Y-76557142D01*
X157142381Y-76652380D01*
X157094762Y-76795238D01*
X156999524Y-76890476D01*
X156904286Y-76938095D01*
X156713810Y-76985714D01*
X156570952Y-76985714D01*
X156380476Y-76938095D01*
X156285238Y-76890476D01*
X156190000Y-76795238D01*
X156142381Y-76652380D01*
X156142381Y-76557142D01*
X156190000Y-76414285D01*
X156237619Y-76366666D01*
X156142381Y-76033333D02*
X156142381Y-75414285D01*
X156523333Y-75747619D01*
X156523333Y-75604761D01*
X156570952Y-75509523D01*
X156618571Y-75461904D01*
X156713810Y-75414285D01*
X156951905Y-75414285D01*
X157047143Y-75461904D01*
X157094762Y-75509523D01*
X157142381Y-75604761D01*
X157142381Y-75890476D01*
X157094762Y-75985714D01*
X157047143Y-76033333D01*
X162127143Y-76366666D02*
X162174762Y-76414285D01*
X162222381Y-76557142D01*
X162222381Y-76652380D01*
X162174762Y-76795238D01*
X162079524Y-76890476D01*
X161984286Y-76938095D01*
X161793810Y-76985714D01*
X161650952Y-76985714D01*
X161460476Y-76938095D01*
X161365238Y-76890476D01*
X161270000Y-76795238D01*
X161222381Y-76652380D01*
X161222381Y-76557142D01*
X161270000Y-76414285D01*
X161317619Y-76366666D01*
X161555714Y-75509523D02*
X162222381Y-75509523D01*
X161174762Y-75747619D02*
X161889048Y-75985714D01*
X161889048Y-75366666D01*
X121158095Y-65642381D02*
X121158095Y-66451905D01*
X121205714Y-66547143D01*
X121253333Y-66594762D01*
X121348571Y-66642381D01*
X121539048Y-66642381D01*
X121634286Y-66594762D01*
X121681905Y-66547143D01*
X121729524Y-66451905D01*
X121729524Y-65642381D01*
X122729524Y-66642381D02*
X122158095Y-66642381D01*
X122443809Y-66642381D02*
X122443809Y-65642381D01*
X122348571Y-65785238D01*
X122253333Y-65880476D01*
X122158095Y-65928095D01*
X156718095Y-66912381D02*
X156718095Y-67721905D01*
X156765714Y-67817143D01*
X156813333Y-67864762D01*
X156908571Y-67912381D01*
X157099048Y-67912381D01*
X157194286Y-67864762D01*
X157241905Y-67817143D01*
X157289524Y-67721905D01*
X157289524Y-66912381D01*
X157718095Y-67007619D02*
X157765714Y-66960000D01*
X157860952Y-66912381D01*
X158099048Y-66912381D01*
X158194286Y-66960000D01*
X158241905Y-67007619D01*
X158289524Y-67102857D01*
X158289524Y-67198095D01*
X158241905Y-67340952D01*
X157670476Y-67912381D01*
X158289524Y-67912381D01*
X135762381Y-72556666D02*
X135286190Y-72890000D01*
X135762381Y-73128095D02*
X134762381Y-73128095D01*
X134762381Y-72747142D01*
X134810000Y-72651904D01*
X134857619Y-72604285D01*
X134952857Y-72556666D01*
X135095714Y-72556666D01*
X135190952Y-72604285D01*
X135238571Y-72651904D01*
X135286190Y-72747142D01*
X135286190Y-73128095D01*
X135762381Y-71604285D02*
X135762381Y-72175714D01*
X135762381Y-71890000D02*
X134762381Y-71890000D01*
X134905238Y-71985238D01*
X135000476Y-72080476D01*
X135048095Y-72175714D01*
X121487143Y-100496666D02*
X121534762Y-100544285D01*
X121582381Y-100687142D01*
X121582381Y-100782380D01*
X121534762Y-100925238D01*
X121439524Y-101020476D01*
X121344286Y-101068095D01*
X121153810Y-101115714D01*
X121010952Y-101115714D01*
X120820476Y-101068095D01*
X120725238Y-101020476D01*
X120630000Y-100925238D01*
X120582381Y-100782380D01*
X120582381Y-100687142D01*
X120630000Y-100544285D01*
X120677619Y-100496666D01*
X120582381Y-99591904D02*
X120582381Y-100068095D01*
X121058571Y-100115714D01*
X121010952Y-100068095D01*
X120963333Y-99972857D01*
X120963333Y-99734761D01*
X121010952Y-99639523D01*
X121058571Y-99591904D01*
X121153810Y-99544285D01*
X121391905Y-99544285D01*
X121487143Y-99591904D01*
X121534762Y-99639523D01*
X121582381Y-99734761D01*
X121582381Y-99972857D01*
X121534762Y-100068095D01*
X121487143Y-100115714D01*
X126567143Y-100496666D02*
X126614762Y-100544285D01*
X126662381Y-100687142D01*
X126662381Y-100782380D01*
X126614762Y-100925238D01*
X126519524Y-101020476D01*
X126424286Y-101068095D01*
X126233810Y-101115714D01*
X126090952Y-101115714D01*
X125900476Y-101068095D01*
X125805238Y-101020476D01*
X125710000Y-100925238D01*
X125662381Y-100782380D01*
X125662381Y-100687142D01*
X125710000Y-100544285D01*
X125757619Y-100496666D01*
X125662381Y-99639523D02*
X125662381Y-99830000D01*
X125710000Y-99925238D01*
X125757619Y-99972857D01*
X125900476Y-100068095D01*
X126090952Y-100115714D01*
X126471905Y-100115714D01*
X126567143Y-100068095D01*
X126614762Y-100020476D01*
X126662381Y-99925238D01*
X126662381Y-99734761D01*
X126614762Y-99639523D01*
X126567143Y-99591904D01*
X126471905Y-99544285D01*
X126233810Y-99544285D01*
X126138571Y-99591904D01*
X126090952Y-99639523D01*
X126043333Y-99734761D01*
X126043333Y-99925238D01*
X126090952Y-100020476D01*
X126138571Y-100068095D01*
X126233810Y-100115714D01*
X121158095Y-91042381D02*
X121158095Y-91851905D01*
X121205714Y-91947143D01*
X121253333Y-91994762D01*
X121348571Y-92042381D01*
X121539048Y-92042381D01*
X121634286Y-91994762D01*
X121681905Y-91947143D01*
X121729524Y-91851905D01*
X121729524Y-91042381D01*
X122110476Y-91042381D02*
X122729524Y-91042381D01*
X122396190Y-91423333D01*
X122539048Y-91423333D01*
X122634286Y-91470952D01*
X122681905Y-91518571D01*
X122729524Y-91613810D01*
X122729524Y-91851905D01*
X122681905Y-91947143D01*
X122634286Y-91994762D01*
X122539048Y-92042381D01*
X122253333Y-92042381D01*
X122158095Y-91994762D01*
X122110476Y-91947143D01*
X157682143Y-100496666D02*
X157729762Y-100544285D01*
X157777381Y-100687142D01*
X157777381Y-100782380D01*
X157729762Y-100925238D01*
X157634524Y-101020476D01*
X157539286Y-101068095D01*
X157348810Y-101115714D01*
X157205952Y-101115714D01*
X157015476Y-101068095D01*
X156920238Y-101020476D01*
X156825000Y-100925238D01*
X156777381Y-100782380D01*
X156777381Y-100687142D01*
X156825000Y-100544285D01*
X156872619Y-100496666D01*
X156777381Y-100163333D02*
X156777381Y-99496666D01*
X157777381Y-99925238D01*
X162762143Y-100496666D02*
X162809762Y-100544285D01*
X162857381Y-100687142D01*
X162857381Y-100782380D01*
X162809762Y-100925238D01*
X162714524Y-101020476D01*
X162619286Y-101068095D01*
X162428810Y-101115714D01*
X162285952Y-101115714D01*
X162095476Y-101068095D01*
X162000238Y-101020476D01*
X161905000Y-100925238D01*
X161857381Y-100782380D01*
X161857381Y-100687142D01*
X161905000Y-100544285D01*
X161952619Y-100496666D01*
X162285952Y-99925238D02*
X162238333Y-100020476D01*
X162190714Y-100068095D01*
X162095476Y-100115714D01*
X162047857Y-100115714D01*
X161952619Y-100068095D01*
X161905000Y-100020476D01*
X161857381Y-99925238D01*
X161857381Y-99734761D01*
X161905000Y-99639523D01*
X161952619Y-99591904D01*
X162047857Y-99544285D01*
X162095476Y-99544285D01*
X162190714Y-99591904D01*
X162238333Y-99639523D01*
X162285952Y-99734761D01*
X162285952Y-99925238D01*
X162333571Y-100020476D01*
X162381190Y-100068095D01*
X162476429Y-100115714D01*
X162666905Y-100115714D01*
X162762143Y-100068095D01*
X162809762Y-100020476D01*
X162857381Y-99925238D01*
X162857381Y-99734761D01*
X162809762Y-99639523D01*
X162762143Y-99591904D01*
X162666905Y-99544285D01*
X162476429Y-99544285D01*
X162381190Y-99591904D01*
X162333571Y-99639523D01*
X162285952Y-99734761D01*
X157353095Y-91042381D02*
X157353095Y-91851905D01*
X157400714Y-91947143D01*
X157448333Y-91994762D01*
X157543571Y-92042381D01*
X157734048Y-92042381D01*
X157829286Y-91994762D01*
X157876905Y-91947143D01*
X157924524Y-91851905D01*
X157924524Y-91042381D01*
X158829286Y-91375714D02*
X158829286Y-92042381D01*
X158591190Y-90994762D02*
X158353095Y-91709048D01*
X158972143Y-91709048D01*
M02*
