#define _width 24
#define _height 64
static char _bits[] = {
 0x00,0x00,0x00,0x00,0x00,0x00,0x00,0x00,0x00,0x00,0x00,0x00,0xf0,0x3c,0x0f,
 0x00,0x00,0x00,0x00,0x00,0x00,0x00,0x00,0x00,0x00,0x00,0x00,0xe0,0x8c,0x01,
 0x40,0x52,0x02,0x40,0x48,0x00,0x40,0x44,0x00,0x40,0x5e,0x00,0x40,0x40,0x02,
 0xe0,0x80,0x01,0x00,0x00,0x00,0x00,0x00,0x08,0x00,0x00,0x1c,0x44,0x04,0x2a,
 0xfe,0x7e,0x7f,0x44,0x04,0x2a,0x00,0x00,0x1c,0x00,0x00,0x08,0x00,0x00,0x00,
 0x10,0x00,0x08,0x38,0x00,0x1c,0x10,0x04,0x2a,0x10,0x7e,0x7f,0x10,0x04,0x2a,
 0x38,0x00,0x1c,0x10,0x00,0x08,0x00,0x00,0x00,0x10,0x00,0x08,0x38,0x00,0x1c,
 0x54,0x20,0x08,0xfe,0x7e,0x08,0x54,0x20,0x08,0x38,0x00,0x1c,0x10,0x00,0x08,
 0x00,0x00,0x00,0x10,0x00,0x00,0x38,0x00,0x00,0x54,0x20,0x22,0xfe,0x7e,0x7f,
 0x54,0x20,0x22,0x38,0x00,0x00,0x10,0x00,0x00,0x00,0x00,0x00,0x10,0x00,0x08,
 0x38,0x00,0x1c,0x54,0x04,0x2a,0xfe,0x7e,0x7f,0x54,0x04,0x2a,0x38,0x00,0x1c,
 0x10,0x00,0x08,0x00,0x00,0x00,0x10,0x00,0x08,0x38,0x00,0x1c,0x54,0x20,0x2a,
 0xfe,0x7e,0x7f,0x54,0x20,0x2a,0x38,0x00,0x1c,0x10,0x00,0x08 };
