G04 #@! TF.FileFunction,Other,Fab,Top*
%FSLAX46Y46*%
G04 Gerber Fmt 4.6, Leading zero omitted, Abs format (unit mm)*
G04 Created by KiCad (PCBNEW 4.0.7) date 12/18/18 08:39:27*
%MOMM*%
%LPD*%
G01*
G04 APERTURE LIST*
%ADD10C,0.100000*%
%ADD11C,0.200000*%
%ADD12C,0.150000*%
%ADD13C,0.105000*%
G04 APERTURE END LIST*
D10*
D11*
X158115000Y-109982000D02*
X158115000Y-103124000D01*
X133350000Y-69850000D02*
X196850000Y-69850000D01*
X196850000Y-111760000D02*
X133350000Y-111760000D01*
X133350000Y-69850000D02*
X133350000Y-111760000D01*
X196850000Y-111760000D02*
X196850000Y-69850000D01*
D10*
X180975000Y-99060000D02*
X188595000Y-99060000D01*
X188595000Y-99060000D02*
X188595000Y-96520000D01*
X188595000Y-96520000D02*
X180975000Y-96520000D01*
X180975000Y-96520000D02*
X180975000Y-99060000D01*
X163830000Y-99060000D02*
X171450000Y-99060000D01*
X171450000Y-99060000D02*
X171450000Y-96520000D01*
X171450000Y-96520000D02*
X163830000Y-96520000D01*
X163830000Y-96520000D02*
X163830000Y-99060000D01*
X155575000Y-102870000D02*
X163195000Y-102870000D01*
X163195000Y-102870000D02*
X163195000Y-100330000D01*
X163195000Y-100330000D02*
X155575000Y-100330000D01*
X155575000Y-100330000D02*
X155575000Y-102870000D01*
X155575000Y-99060000D02*
X163195000Y-99060000D01*
X163195000Y-99060000D02*
X163195000Y-96520000D01*
X163195000Y-96520000D02*
X155575000Y-96520000D01*
X155575000Y-96520000D02*
X155575000Y-99060000D01*
X144450000Y-74460000D02*
X144450000Y-72860000D01*
X147650000Y-74460000D02*
X144450000Y-74460000D01*
X147650000Y-72860000D02*
X147650000Y-74460000D01*
X144450000Y-72860000D02*
X147650000Y-72860000D01*
X153270000Y-102050000D02*
X154070000Y-102050000D01*
X153670000Y-102000000D02*
X153270000Y-101400000D01*
X154070000Y-101400000D02*
X153670000Y-102000000D01*
X153270000Y-101400000D02*
X154070000Y-101400000D01*
X154470000Y-100000000D02*
X154470000Y-103200000D01*
X152870000Y-100000000D02*
X154470000Y-100000000D01*
X152870000Y-103200000D02*
X152870000Y-100000000D01*
X154470000Y-103200000D02*
X152870000Y-103200000D01*
X143875000Y-72390000D02*
X149225000Y-72390000D01*
X149225000Y-72390000D02*
X149225000Y-107950000D01*
X149225000Y-107950000D02*
X142875000Y-107950000D01*
X142875000Y-107950000D02*
X142875000Y-73390000D01*
X142875000Y-73390000D02*
X143875000Y-72390000D01*
X180975000Y-102870000D02*
X188595000Y-102870000D01*
X188595000Y-102870000D02*
X188595000Y-100330000D01*
X188595000Y-100330000D02*
X180975000Y-100330000D01*
X180975000Y-100330000D02*
X180975000Y-102870000D01*
X163830000Y-102870000D02*
X171450000Y-102870000D01*
X171450000Y-102870000D02*
X171450000Y-100330000D01*
X171450000Y-100330000D02*
X163830000Y-100330000D01*
X163830000Y-100330000D02*
X163830000Y-102870000D01*
X167640000Y-107315000D02*
X177800000Y-107315000D01*
X177800000Y-107315000D02*
X177800000Y-108585000D01*
X177800000Y-108585000D02*
X167640000Y-108585000D01*
X167640000Y-107315000D02*
X167640000Y-108585000D01*
X159385000Y-107950000D02*
X167005000Y-107950000D01*
X167005000Y-107950000D02*
X167005000Y-105410000D01*
X167005000Y-105410000D02*
X159385000Y-105410000D01*
X159385000Y-105410000D02*
X159385000Y-107950000D01*
X134620000Y-81280000D02*
X134620000Y-88900000D01*
X134620000Y-88900000D02*
X139700000Y-88900000D01*
X139700000Y-88900000D02*
X139700000Y-81280000D01*
X139700000Y-81280000D02*
X134620000Y-81280000D01*
X172339000Y-102743000D02*
X179959000Y-102743000D01*
X179959000Y-102743000D02*
X179959000Y-97663000D01*
X179959000Y-97663000D02*
X172339000Y-97663000D01*
X172339000Y-97663000D02*
X172339000Y-102743000D01*
X192405000Y-103505000D02*
X192405000Y-93345000D01*
X192405000Y-93345000D02*
X193675000Y-93345000D01*
X193675000Y-93345000D02*
X193675000Y-103505000D01*
X192405000Y-103505000D02*
X193675000Y-103505000D01*
X179070000Y-107315000D02*
X189230000Y-107315000D01*
X189230000Y-107315000D02*
X189230000Y-108585000D01*
X189230000Y-108585000D02*
X179070000Y-108585000D01*
X179070000Y-107315000D02*
X179070000Y-108585000D01*
X153975000Y-107480000D02*
X153975000Y-105880000D01*
X157175000Y-107480000D02*
X153975000Y-107480000D01*
X157175000Y-105880000D02*
X157175000Y-107480000D01*
X153975000Y-105880000D02*
X157175000Y-105880000D01*
X175625000Y-72390000D02*
X180975000Y-72390000D01*
X180975000Y-72390000D02*
X180975000Y-95250000D01*
X180975000Y-95250000D02*
X174625000Y-95250000D01*
X174625000Y-95250000D02*
X174625000Y-73390000D01*
X174625000Y-73390000D02*
X175625000Y-72390000D01*
X155305000Y-72390000D02*
X160655000Y-72390000D01*
X160655000Y-72390000D02*
X160655000Y-95250000D01*
X160655000Y-95250000D02*
X154305000Y-95250000D01*
X154305000Y-95250000D02*
X154305000Y-73390000D01*
X154305000Y-73390000D02*
X155305000Y-72390000D01*
X137160000Y-91440000D02*
G75*
G03X135890000Y-92710000I0J-1270000D01*
G01*
X138430000Y-92710000D02*
G75*
G03X137160000Y-91440000I-1270000J0D01*
G01*
X137160000Y-99060000D02*
G75*
G03X138430000Y-97790000I0J1270000D01*
G01*
X135890000Y-97790000D02*
G75*
G03X137160000Y-99060000I1270000J0D01*
G01*
X138430000Y-97790000D02*
X138430000Y-92710000D01*
X135890000Y-92710000D02*
X135890000Y-97790000D01*
X184150000Y-90805000D02*
X184150000Y-92964000D01*
X184150000Y-92964000D02*
X186690000Y-92964000D01*
X186690000Y-92964000D02*
X186690000Y-90805000D01*
X186690000Y-72390000D02*
X186690000Y-90805000D01*
X184150000Y-90805000D02*
X184150000Y-72390000D01*
X186690000Y-72390000D02*
X184150000Y-72390000D01*
X186690000Y-90805000D02*
X186690000Y-92964000D01*
X186690000Y-92964000D02*
X189230000Y-92964000D01*
X189230000Y-92964000D02*
X189230000Y-90805000D01*
X189230000Y-72390000D02*
X189230000Y-90805000D01*
X186690000Y-90805000D02*
X186690000Y-72390000D01*
X189230000Y-72390000D02*
X186690000Y-72390000D01*
X163830000Y-90805000D02*
X163830000Y-92964000D01*
X163830000Y-92964000D02*
X166370000Y-92964000D01*
X166370000Y-92964000D02*
X166370000Y-90805000D01*
X166370000Y-72390000D02*
X166370000Y-90805000D01*
X163830000Y-90805000D02*
X163830000Y-72390000D01*
X166370000Y-72390000D02*
X163830000Y-72390000D01*
X166370000Y-90805000D02*
X166370000Y-92964000D01*
X166370000Y-92964000D02*
X168910000Y-92964000D01*
X168910000Y-92964000D02*
X168910000Y-90805000D01*
X168910000Y-72390000D02*
X168910000Y-90805000D01*
X166370000Y-90805000D02*
X166370000Y-72390000D01*
X168910000Y-72390000D02*
X166370000Y-72390000D01*
X168910000Y-90805000D02*
X168910000Y-92964000D01*
X168910000Y-92964000D02*
X171450000Y-92964000D01*
X171450000Y-92964000D02*
X171450000Y-90805000D01*
X171450000Y-72390000D02*
X171450000Y-90805000D01*
X168910000Y-90805000D02*
X168910000Y-72390000D01*
X171450000Y-72390000D02*
X168910000Y-72390000D01*
D12*
X182459619Y-96083381D02*
X182459619Y-95083381D01*
X182697714Y-95083381D01*
X182840572Y-95131000D01*
X182935810Y-95226238D01*
X182983429Y-95321476D01*
X183031048Y-95511952D01*
X183031048Y-95654810D01*
X182983429Y-95845286D01*
X182935810Y-95940524D01*
X182840572Y-96035762D01*
X182697714Y-96083381D01*
X182459619Y-96083381D01*
X183459619Y-96083381D02*
X183459619Y-95083381D01*
X184126285Y-95083381D02*
X184316762Y-95083381D01*
X184412000Y-95131000D01*
X184507238Y-95226238D01*
X184554857Y-95416714D01*
X184554857Y-95750048D01*
X184507238Y-95940524D01*
X184412000Y-96035762D01*
X184316762Y-96083381D01*
X184126285Y-96083381D01*
X184031047Y-96035762D01*
X183935809Y-95940524D01*
X183888190Y-95750048D01*
X183888190Y-95416714D01*
X183935809Y-95226238D01*
X184031047Y-95131000D01*
X184126285Y-95083381D01*
X184983428Y-96083381D02*
X184983428Y-95083381D01*
X185221523Y-95083381D01*
X185364381Y-95131000D01*
X185459619Y-95226238D01*
X185507238Y-95321476D01*
X185554857Y-95511952D01*
X185554857Y-95654810D01*
X185507238Y-95845286D01*
X185459619Y-95940524D01*
X185364381Y-96035762D01*
X185221523Y-96083381D01*
X184983428Y-96083381D01*
X185983428Y-95559571D02*
X186316762Y-95559571D01*
X186459619Y-96083381D02*
X185983428Y-96083381D01*
X185983428Y-95083381D01*
X186459619Y-95083381D01*
X186840571Y-95178619D02*
X186888190Y-95131000D01*
X186983428Y-95083381D01*
X187221524Y-95083381D01*
X187316762Y-95131000D01*
X187364381Y-95178619D01*
X187412000Y-95273857D01*
X187412000Y-95369095D01*
X187364381Y-95511952D01*
X186792952Y-96083381D01*
X187412000Y-96083381D01*
X165568619Y-96083381D02*
X165568619Y-95083381D01*
X165806714Y-95083381D01*
X165949572Y-95131000D01*
X166044810Y-95226238D01*
X166092429Y-95321476D01*
X166140048Y-95511952D01*
X166140048Y-95654810D01*
X166092429Y-95845286D01*
X166044810Y-95940524D01*
X165949572Y-96035762D01*
X165806714Y-96083381D01*
X165568619Y-96083381D01*
X166568619Y-96083381D02*
X166568619Y-95083381D01*
X167235285Y-95083381D02*
X167425762Y-95083381D01*
X167521000Y-95131000D01*
X167616238Y-95226238D01*
X167663857Y-95416714D01*
X167663857Y-95750048D01*
X167616238Y-95940524D01*
X167521000Y-96035762D01*
X167425762Y-96083381D01*
X167235285Y-96083381D01*
X167140047Y-96035762D01*
X167044809Y-95940524D01*
X166997190Y-95750048D01*
X166997190Y-95416714D01*
X167044809Y-95226238D01*
X167140047Y-95131000D01*
X167235285Y-95083381D01*
X168092428Y-96083381D02*
X168092428Y-95083381D01*
X168330523Y-95083381D01*
X168473381Y-95131000D01*
X168568619Y-95226238D01*
X168616238Y-95321476D01*
X168663857Y-95511952D01*
X168663857Y-95654810D01*
X168616238Y-95845286D01*
X168568619Y-95940524D01*
X168473381Y-96035762D01*
X168330523Y-96083381D01*
X168092428Y-96083381D01*
X169092428Y-95559571D02*
X169425762Y-95559571D01*
X169568619Y-96083381D02*
X169092428Y-96083381D01*
X169092428Y-95083381D01*
X169568619Y-95083381D01*
X170521000Y-96083381D02*
X169949571Y-96083381D01*
X170235285Y-96083381D02*
X170235285Y-95083381D01*
X170140047Y-95226238D01*
X170044809Y-95321476D01*
X169949571Y-95369095D01*
X149543571Y-110942429D02*
X150305476Y-110942429D01*
X149924524Y-111323381D02*
X149924524Y-110561476D01*
X150638809Y-110323381D02*
X150972142Y-111323381D01*
X151305476Y-110323381D01*
X152400714Y-110799571D02*
X153162619Y-110799571D01*
X153162619Y-111085286D02*
X152400714Y-111085286D01*
X154257857Y-110323381D02*
X154591190Y-111323381D01*
X154924524Y-110323381D01*
X155829286Y-111323381D02*
X155495952Y-110847190D01*
X155257857Y-111323381D02*
X155257857Y-110323381D01*
X155638810Y-110323381D01*
X155734048Y-110371000D01*
X155781667Y-110418619D01*
X155829286Y-110513857D01*
X155829286Y-110656714D01*
X155781667Y-110751952D01*
X155734048Y-110799571D01*
X155638810Y-110847190D01*
X155257857Y-110847190D01*
X156162619Y-111323381D02*
X156686429Y-110656714D01*
X156162619Y-110656714D02*
X156686429Y-111323381D01*
X158543572Y-110275762D02*
X157686429Y-111561476D01*
X159638810Y-110942429D02*
X160400715Y-110942429D01*
X160019763Y-111323381D02*
X160019763Y-110561476D01*
X160734048Y-110323381D02*
X161067381Y-111323381D01*
X161400715Y-110323381D01*
X163257858Y-110656714D02*
X162495953Y-110942429D01*
X163257858Y-111228143D01*
X164353096Y-110323381D02*
X164686429Y-111323381D01*
X165019763Y-110323381D01*
X165924525Y-111323381D02*
X165591191Y-110847190D01*
X165353096Y-111323381D02*
X165353096Y-110323381D01*
X165734049Y-110323381D01*
X165829287Y-110371000D01*
X165876906Y-110418619D01*
X165924525Y-110513857D01*
X165924525Y-110656714D01*
X165876906Y-110751952D01*
X165829287Y-110799571D01*
X165734049Y-110847190D01*
X165353096Y-110847190D01*
X166257858Y-111323381D02*
X166781668Y-110656714D01*
X166257858Y-110656714D02*
X166781668Y-111323381D01*
X157194524Y-98194762D02*
X157337381Y-98242381D01*
X157575477Y-98242381D01*
X157670715Y-98194762D01*
X157718334Y-98147143D01*
X157765953Y-98051905D01*
X157765953Y-97956667D01*
X157718334Y-97861429D01*
X157670715Y-97813810D01*
X157575477Y-97766190D01*
X157385000Y-97718571D01*
X157289762Y-97670952D01*
X157242143Y-97623333D01*
X157194524Y-97528095D01*
X157194524Y-97432857D01*
X157242143Y-97337619D01*
X157289762Y-97290000D01*
X157385000Y-97242381D01*
X157623096Y-97242381D01*
X157765953Y-97290000D01*
X158194524Y-97718571D02*
X158527858Y-97718571D01*
X158670715Y-98242381D02*
X158194524Y-98242381D01*
X158194524Y-97242381D01*
X158670715Y-97242381D01*
X159670715Y-98242381D02*
X159337381Y-97766190D01*
X159099286Y-98242381D02*
X159099286Y-97242381D01*
X159480239Y-97242381D01*
X159575477Y-97290000D01*
X159623096Y-97337619D01*
X159670715Y-97432857D01*
X159670715Y-97575714D01*
X159623096Y-97670952D01*
X159575477Y-97718571D01*
X159480239Y-97766190D01*
X159099286Y-97766190D01*
X159956429Y-97242381D02*
X160289762Y-98242381D01*
X160623096Y-97242381D01*
X161146905Y-97242381D02*
X161337382Y-97242381D01*
X161432620Y-97290000D01*
X161527858Y-97385238D01*
X161575477Y-97575714D01*
X161575477Y-97909048D01*
X161527858Y-98099524D01*
X161432620Y-98194762D01*
X161337382Y-98242381D01*
X161146905Y-98242381D01*
X161051667Y-98194762D01*
X160956429Y-98099524D01*
X160908810Y-97909048D01*
X160908810Y-97575714D01*
X160956429Y-97385238D01*
X161051667Y-97290000D01*
X161146905Y-97242381D01*
X144502381Y-76112381D02*
X143930952Y-76112381D01*
X144216666Y-76112381D02*
X144216666Y-75112381D01*
X144121428Y-75255238D01*
X144026190Y-75350476D01*
X143930952Y-75398095D01*
X145121428Y-75112381D02*
X145216667Y-75112381D01*
X145311905Y-75160000D01*
X145359524Y-75207619D01*
X145407143Y-75302857D01*
X145454762Y-75493333D01*
X145454762Y-75731429D01*
X145407143Y-75921905D01*
X145359524Y-76017143D01*
X145311905Y-76064762D01*
X145216667Y-76112381D01*
X145121428Y-76112381D01*
X145026190Y-76064762D01*
X144978571Y-76017143D01*
X144930952Y-75921905D01*
X144883333Y-75731429D01*
X144883333Y-75493333D01*
X144930952Y-75302857D01*
X144978571Y-75207619D01*
X145026190Y-75160000D01*
X145121428Y-75112381D01*
X146073809Y-75112381D02*
X146169048Y-75112381D01*
X146264286Y-75160000D01*
X146311905Y-75207619D01*
X146359524Y-75302857D01*
X146407143Y-75493333D01*
X146407143Y-75731429D01*
X146359524Y-75921905D01*
X146311905Y-76017143D01*
X146264286Y-76064762D01*
X146169048Y-76112381D01*
X146073809Y-76112381D01*
X145978571Y-76064762D01*
X145930952Y-76017143D01*
X145883333Y-75921905D01*
X145835714Y-75731429D01*
X145835714Y-75493333D01*
X145883333Y-75302857D01*
X145930952Y-75207619D01*
X145978571Y-75160000D01*
X146073809Y-75112381D01*
X146835714Y-75445714D02*
X146835714Y-76112381D01*
X146835714Y-75540952D02*
X146883333Y-75493333D01*
X146978571Y-75445714D01*
X147121429Y-75445714D01*
X147216667Y-75493333D01*
X147264286Y-75588571D01*
X147264286Y-76112381D01*
X148073810Y-75588571D02*
X147740476Y-75588571D01*
X147740476Y-76112381D02*
X147740476Y-75112381D01*
X148216667Y-75112381D01*
X145883334Y-74017143D02*
X145835715Y-74064762D01*
X145692858Y-74112381D01*
X145597620Y-74112381D01*
X145454762Y-74064762D01*
X145359524Y-73969524D01*
X145311905Y-73874286D01*
X145264286Y-73683810D01*
X145264286Y-73540952D01*
X145311905Y-73350476D01*
X145359524Y-73255238D01*
X145454762Y-73160000D01*
X145597620Y-73112381D01*
X145692858Y-73112381D01*
X145835715Y-73160000D01*
X145883334Y-73207619D01*
X146788096Y-73112381D02*
X146311905Y-73112381D01*
X146264286Y-73588571D01*
X146311905Y-73540952D01*
X146407143Y-73493333D01*
X146645239Y-73493333D01*
X146740477Y-73540952D01*
X146788096Y-73588571D01*
X146835715Y-73683810D01*
X146835715Y-73921905D01*
X146788096Y-74017143D01*
X146740477Y-74064762D01*
X146645239Y-74112381D01*
X146407143Y-74112381D01*
X146311905Y-74064762D01*
X146264286Y-74017143D01*
X152471381Y-102242857D02*
X152471381Y-102719048D01*
X151471381Y-102719048D01*
X151947571Y-101909524D02*
X151947571Y-101576190D01*
X152471381Y-101433333D02*
X152471381Y-101909524D01*
X151471381Y-101909524D01*
X151471381Y-101433333D01*
X152471381Y-101004762D02*
X151471381Y-101004762D01*
X151471381Y-100766667D01*
X151519000Y-100623809D01*
X151614238Y-100528571D01*
X151709476Y-100480952D01*
X151899952Y-100433333D01*
X152042810Y-100433333D01*
X152233286Y-100480952D01*
X152328524Y-100528571D01*
X152423762Y-100623809D01*
X152471381Y-100766667D01*
X152471381Y-101004762D01*
X140930952Y-109236667D02*
X141407143Y-109236667D01*
X140835714Y-109522381D02*
X141169047Y-108522381D01*
X141502381Y-109522381D01*
X141692857Y-108522381D02*
X142264286Y-108522381D01*
X141978571Y-109522381D02*
X141978571Y-108522381D01*
X142597619Y-109522381D02*
X142597619Y-108522381D01*
X142930953Y-109236667D01*
X143264286Y-108522381D01*
X143264286Y-109522381D01*
X143740476Y-108998571D02*
X144073810Y-108998571D01*
X144216667Y-109522381D02*
X143740476Y-109522381D01*
X143740476Y-108522381D01*
X144216667Y-108522381D01*
X145169048Y-108570000D02*
X145073810Y-108522381D01*
X144930953Y-108522381D01*
X144788095Y-108570000D01*
X144692857Y-108665238D01*
X144645238Y-108760476D01*
X144597619Y-108950952D01*
X144597619Y-109093810D01*
X144645238Y-109284286D01*
X144692857Y-109379524D01*
X144788095Y-109474762D01*
X144930953Y-109522381D01*
X145026191Y-109522381D01*
X145169048Y-109474762D01*
X145216667Y-109427143D01*
X145216667Y-109093810D01*
X145026191Y-109093810D01*
X145597619Y-109236667D02*
X146073810Y-109236667D01*
X145502381Y-109522381D02*
X145835714Y-108522381D01*
X146169048Y-109522381D01*
X146407143Y-108522381D02*
X147026191Y-108522381D01*
X146692857Y-108903333D01*
X146835715Y-108903333D01*
X146930953Y-108950952D01*
X146978572Y-108998571D01*
X147026191Y-109093810D01*
X147026191Y-109331905D01*
X146978572Y-109427143D01*
X146930953Y-109474762D01*
X146835715Y-109522381D01*
X146550000Y-109522381D01*
X146454762Y-109474762D01*
X146407143Y-109427143D01*
X147407143Y-108617619D02*
X147454762Y-108570000D01*
X147550000Y-108522381D01*
X147788096Y-108522381D01*
X147883334Y-108570000D01*
X147930953Y-108617619D01*
X147978572Y-108712857D01*
X147978572Y-108808095D01*
X147930953Y-108950952D01*
X147359524Y-109522381D01*
X147978572Y-109522381D01*
X148550000Y-108950952D02*
X148454762Y-108903333D01*
X148407143Y-108855714D01*
X148359524Y-108760476D01*
X148359524Y-108712857D01*
X148407143Y-108617619D01*
X148454762Y-108570000D01*
X148550000Y-108522381D01*
X148740477Y-108522381D01*
X148835715Y-108570000D01*
X148883334Y-108617619D01*
X148930953Y-108712857D01*
X148930953Y-108760476D01*
X148883334Y-108855714D01*
X148835715Y-108903333D01*
X148740477Y-108950952D01*
X148550000Y-108950952D01*
X148454762Y-108998571D01*
X148407143Y-109046190D01*
X148359524Y-109141429D01*
X148359524Y-109331905D01*
X148407143Y-109427143D01*
X148454762Y-109474762D01*
X148550000Y-109522381D01*
X148740477Y-109522381D01*
X148835715Y-109474762D01*
X148883334Y-109427143D01*
X148930953Y-109331905D01*
X148930953Y-109141429D01*
X148883334Y-109046190D01*
X148835715Y-108998571D01*
X148740477Y-108950952D01*
X149359524Y-109141429D02*
X150121429Y-109141429D01*
X150597619Y-109522381D02*
X150597619Y-108522381D01*
X150978572Y-108522381D01*
X151073810Y-108570000D01*
X151121429Y-108617619D01*
X151169048Y-108712857D01*
X151169048Y-108855714D01*
X151121429Y-108950952D01*
X151073810Y-108998571D01*
X150978572Y-109046190D01*
X150597619Y-109046190D01*
X145073810Y-90622381D02*
X145073810Y-89622381D01*
X146121429Y-90527143D02*
X146073810Y-90574762D01*
X145930953Y-90622381D01*
X145835715Y-90622381D01*
X145692857Y-90574762D01*
X145597619Y-90479524D01*
X145550000Y-90384286D01*
X145502381Y-90193810D01*
X145502381Y-90050952D01*
X145550000Y-89860476D01*
X145597619Y-89765238D01*
X145692857Y-89670000D01*
X145835715Y-89622381D01*
X145930953Y-89622381D01*
X146073810Y-89670000D01*
X146121429Y-89717619D01*
X147073810Y-90622381D02*
X146502381Y-90622381D01*
X146788095Y-90622381D02*
X146788095Y-89622381D01*
X146692857Y-89765238D01*
X146597619Y-89860476D01*
X146502381Y-89908095D01*
X181777143Y-104290762D02*
X181920000Y-104338381D01*
X182158096Y-104338381D01*
X182253334Y-104290762D01*
X182300953Y-104243143D01*
X182348572Y-104147905D01*
X182348572Y-104052667D01*
X182300953Y-103957429D01*
X182253334Y-103909810D01*
X182158096Y-103862190D01*
X181967619Y-103814571D01*
X181872381Y-103766952D01*
X181824762Y-103719333D01*
X181777143Y-103624095D01*
X181777143Y-103528857D01*
X181824762Y-103433619D01*
X181872381Y-103386000D01*
X181967619Y-103338381D01*
X182205715Y-103338381D01*
X182348572Y-103386000D01*
X182777143Y-103814571D02*
X183110477Y-103814571D01*
X183253334Y-104338381D02*
X182777143Y-104338381D01*
X182777143Y-103338381D01*
X183253334Y-103338381D01*
X184158096Y-104338381D02*
X183681905Y-104338381D01*
X183681905Y-103338381D01*
X184253334Y-104433619D02*
X185015239Y-104433619D01*
X185205715Y-104052667D02*
X185681906Y-104052667D01*
X185110477Y-104338381D02*
X185443810Y-103338381D01*
X185777144Y-104338381D01*
X186586668Y-104338381D02*
X186110477Y-104338381D01*
X186110477Y-103338381D01*
X186920001Y-104338381D02*
X186920001Y-103338381D01*
X187396191Y-104338381D02*
X187396191Y-103338381D01*
X187729525Y-104052667D01*
X188062858Y-103338381D01*
X188062858Y-104338381D01*
X188491429Y-103433619D02*
X188539048Y-103386000D01*
X188634286Y-103338381D01*
X188872382Y-103338381D01*
X188967620Y-103386000D01*
X189015239Y-103433619D01*
X189062858Y-103528857D01*
X189062858Y-103624095D01*
X189015239Y-103766952D01*
X188443810Y-104338381D01*
X189062858Y-104338381D01*
X164505143Y-104290762D02*
X164648000Y-104338381D01*
X164886096Y-104338381D01*
X164981334Y-104290762D01*
X165028953Y-104243143D01*
X165076572Y-104147905D01*
X165076572Y-104052667D01*
X165028953Y-103957429D01*
X164981334Y-103909810D01*
X164886096Y-103862190D01*
X164695619Y-103814571D01*
X164600381Y-103766952D01*
X164552762Y-103719333D01*
X164505143Y-103624095D01*
X164505143Y-103528857D01*
X164552762Y-103433619D01*
X164600381Y-103386000D01*
X164695619Y-103338381D01*
X164933715Y-103338381D01*
X165076572Y-103386000D01*
X165505143Y-103814571D02*
X165838477Y-103814571D01*
X165981334Y-104338381D02*
X165505143Y-104338381D01*
X165505143Y-103338381D01*
X165981334Y-103338381D01*
X166886096Y-104338381D02*
X166409905Y-104338381D01*
X166409905Y-103338381D01*
X166981334Y-104433619D02*
X167743239Y-104433619D01*
X167933715Y-104052667D02*
X168409906Y-104052667D01*
X167838477Y-104338381D02*
X168171810Y-103338381D01*
X168505144Y-104338381D01*
X169314668Y-104338381D02*
X168838477Y-104338381D01*
X168838477Y-103338381D01*
X169648001Y-104338381D02*
X169648001Y-103338381D01*
X170124191Y-104338381D02*
X170124191Y-103338381D01*
X170457525Y-104052667D01*
X170790858Y-103338381D01*
X170790858Y-104338381D01*
X171790858Y-104338381D02*
X171219429Y-104338381D01*
X171505143Y-104338381D02*
X171505143Y-103338381D01*
X171409905Y-103481238D01*
X171314667Y-103576476D01*
X171219429Y-103624095D01*
X170767619Y-109307381D02*
X171100952Y-110307381D01*
X171434286Y-109307381D01*
X171767619Y-109783571D02*
X172100953Y-109783571D01*
X172243810Y-110307381D02*
X171767619Y-110307381D01*
X171767619Y-109307381D01*
X172243810Y-109307381D01*
X172577143Y-110307381D02*
X173100953Y-109640714D01*
X172577143Y-109640714D02*
X173100953Y-110307381D01*
X173339048Y-109640714D02*
X173720000Y-109640714D01*
X173481905Y-109307381D02*
X173481905Y-110164524D01*
X173529524Y-110259762D01*
X173624762Y-110307381D01*
X173720000Y-110307381D01*
X174577144Y-110307381D02*
X174005715Y-110307381D01*
X174291429Y-110307381D02*
X174291429Y-109307381D01*
X174196191Y-109450238D01*
X174100953Y-109545476D01*
X174005715Y-109593095D01*
X158933095Y-108418381D02*
X159599762Y-109418381D01*
X159599762Y-108418381D02*
X158933095Y-109418381D01*
X159933095Y-109132667D02*
X160409286Y-109132667D01*
X159837857Y-109418381D02*
X160171190Y-108418381D01*
X160504524Y-109418381D01*
X160837857Y-109418381D02*
X160837857Y-108418381D01*
X161409286Y-109418381D01*
X161409286Y-108418381D01*
X162075952Y-108942190D02*
X162075952Y-109418381D01*
X161742619Y-108418381D02*
X162075952Y-108942190D01*
X162409286Y-108418381D01*
X162504524Y-109513619D02*
X163266429Y-109513619D01*
X163504524Y-109418381D02*
X163504524Y-108418381D01*
X163980714Y-109418381D02*
X163980714Y-108418381D01*
X164552143Y-109418381D01*
X164552143Y-108418381D01*
X165028333Y-109418381D02*
X165028333Y-108418381D01*
X165409286Y-108418381D01*
X165504524Y-108466000D01*
X165552143Y-108513619D01*
X165599762Y-108608857D01*
X165599762Y-108751714D01*
X165552143Y-108846952D01*
X165504524Y-108894571D01*
X165409286Y-108942190D01*
X165028333Y-108942190D01*
X166028333Y-108418381D02*
X166028333Y-109227905D01*
X166075952Y-109323143D01*
X166123571Y-109370762D01*
X166218809Y-109418381D01*
X166409286Y-109418381D01*
X166504524Y-109370762D01*
X166552143Y-109323143D01*
X166599762Y-109227905D01*
X166599762Y-108418381D01*
X166933095Y-108418381D02*
X167504524Y-108418381D01*
X167218809Y-109418381D02*
X167218809Y-108418381D01*
X136183810Y-79938571D02*
X135850476Y-79938571D01*
X135850476Y-80462381D02*
X135850476Y-79462381D01*
X136326667Y-79462381D01*
X136564762Y-79462381D02*
X137136191Y-79462381D01*
X136850476Y-80462381D02*
X136850476Y-79462381D01*
X137469524Y-80462381D02*
X137469524Y-79462381D01*
X137707619Y-79462381D01*
X137850477Y-79510000D01*
X137945715Y-79605238D01*
X137993334Y-79700476D01*
X138040953Y-79890952D01*
X138040953Y-80033810D01*
X137993334Y-80224286D01*
X137945715Y-80319524D01*
X137850477Y-80414762D01*
X137707619Y-80462381D01*
X137469524Y-80462381D01*
X138469524Y-80462381D02*
X138469524Y-79462381D01*
X175053810Y-100782381D02*
X175053810Y-99782381D01*
X176101429Y-100687143D02*
X176053810Y-100734762D01*
X175910953Y-100782381D01*
X175815715Y-100782381D01*
X175672857Y-100734762D01*
X175577619Y-100639524D01*
X175530000Y-100544286D01*
X175482381Y-100353810D01*
X175482381Y-100210952D01*
X175530000Y-100020476D01*
X175577619Y-99925238D01*
X175672857Y-99830000D01*
X175815715Y-99782381D01*
X175910953Y-99782381D01*
X176053810Y-99830000D01*
X176101429Y-99877619D01*
X176482381Y-100734762D02*
X176625238Y-100782381D01*
X176863334Y-100782381D01*
X176958572Y-100734762D01*
X177006191Y-100687143D01*
X177053810Y-100591905D01*
X177053810Y-100496667D01*
X177006191Y-100401429D01*
X176958572Y-100353810D01*
X176863334Y-100306190D01*
X176672857Y-100258571D01*
X176577619Y-100210952D01*
X176530000Y-100163333D01*
X176482381Y-100068095D01*
X176482381Y-99972857D01*
X176530000Y-99877619D01*
X176577619Y-99830000D01*
X176672857Y-99782381D01*
X176910953Y-99782381D01*
X177053810Y-99830000D01*
X177482381Y-100782381D02*
X177482381Y-99782381D01*
X177863334Y-99782381D01*
X177958572Y-99830000D01*
X178006191Y-99877619D01*
X178053810Y-99972857D01*
X178053810Y-100115714D01*
X178006191Y-100210952D01*
X177958572Y-100258571D01*
X177863334Y-100306190D01*
X177482381Y-100306190D01*
X195080000Y-100750381D02*
X195032381Y-100845619D01*
X195032381Y-100988476D01*
X195080000Y-101131334D01*
X195175238Y-101226572D01*
X195270476Y-101274191D01*
X195460952Y-101321810D01*
X195603810Y-101321810D01*
X195794286Y-101274191D01*
X195889524Y-101226572D01*
X195984762Y-101131334D01*
X196032381Y-100988476D01*
X196032381Y-100893238D01*
X195984762Y-100750381D01*
X195937143Y-100702762D01*
X195603810Y-100702762D01*
X195603810Y-100893238D01*
X196032381Y-100274191D02*
X195032381Y-100274191D01*
X196032381Y-99702762D01*
X195032381Y-99702762D01*
X196032381Y-99226572D02*
X195032381Y-99226572D01*
X195032381Y-98988477D01*
X195080000Y-98845619D01*
X195175238Y-98750381D01*
X195270476Y-98702762D01*
X195460952Y-98655143D01*
X195603810Y-98655143D01*
X195794286Y-98702762D01*
X195889524Y-98750381D01*
X195984762Y-98845619D01*
X196032381Y-98988477D01*
X196032381Y-99226572D01*
X196127619Y-98464667D02*
X196127619Y-97702762D01*
X195508571Y-97464667D02*
X195508571Y-97131333D01*
X196032381Y-96988476D02*
X196032381Y-97464667D01*
X195032381Y-97464667D01*
X195032381Y-96988476D01*
X195032381Y-96655143D02*
X196032381Y-95988476D01*
X195032381Y-95988476D02*
X196032381Y-96655143D01*
X195032381Y-95750381D02*
X195032381Y-95178952D01*
X196032381Y-95464667D02*
X195032381Y-95464667D01*
X182197619Y-109307381D02*
X182530952Y-110307381D01*
X182864286Y-109307381D01*
X183197619Y-109783571D02*
X183530953Y-109783571D01*
X183673810Y-110307381D02*
X183197619Y-110307381D01*
X183197619Y-109307381D01*
X183673810Y-109307381D01*
X184007143Y-110307381D02*
X184530953Y-109640714D01*
X184007143Y-109640714D02*
X184530953Y-110307381D01*
X184769048Y-109640714D02*
X185150000Y-109640714D01*
X184911905Y-109307381D02*
X184911905Y-110164524D01*
X184959524Y-110259762D01*
X185054762Y-110307381D01*
X185150000Y-110307381D01*
X185435715Y-109402619D02*
X185483334Y-109355000D01*
X185578572Y-109307381D01*
X185816668Y-109307381D01*
X185911906Y-109355000D01*
X185959525Y-109402619D01*
X186007144Y-109497857D01*
X186007144Y-109593095D01*
X185959525Y-109735952D01*
X185388096Y-110307381D01*
X186007144Y-110307381D01*
X155360715Y-109082381D02*
X154789286Y-109082381D01*
X155075000Y-109082381D02*
X155075000Y-108082381D01*
X154979762Y-108225238D01*
X154884524Y-108320476D01*
X154789286Y-108368095D01*
X155789286Y-109082381D02*
X155789286Y-108082381D01*
X156360715Y-109082381D02*
X155932143Y-108510952D01*
X156360715Y-108082381D02*
X155789286Y-108653810D01*
D13*
X155125000Y-106996667D02*
X154891666Y-106663333D01*
X154725000Y-106996667D02*
X154725000Y-106296667D01*
X154991666Y-106296667D01*
X155058333Y-106330000D01*
X155091666Y-106363333D01*
X155125000Y-106430000D01*
X155125000Y-106530000D01*
X155091666Y-106596667D01*
X155058333Y-106630000D01*
X154991666Y-106663333D01*
X154725000Y-106663333D01*
X155791666Y-106996667D02*
X155391666Y-106996667D01*
X155591666Y-106996667D02*
X155591666Y-106296667D01*
X155525000Y-106396667D01*
X155458333Y-106463333D01*
X155391666Y-106496667D01*
X156458333Y-106996667D02*
X156058333Y-106996667D01*
X156258333Y-106996667D02*
X156258333Y-106296667D01*
X156191667Y-106396667D01*
X156125000Y-106463333D01*
X156058333Y-106496667D01*
D12*
X174807952Y-70953381D02*
X174807952Y-71762905D01*
X174855571Y-71858143D01*
X174903190Y-71905762D01*
X174998428Y-71953381D01*
X175188905Y-71953381D01*
X175284143Y-71905762D01*
X175331762Y-71858143D01*
X175379381Y-71762905D01*
X175379381Y-70953381D01*
X176331762Y-71953381D02*
X175855571Y-71953381D01*
X175855571Y-70953381D01*
X176665095Y-71953381D02*
X176665095Y-70953381D01*
X177236524Y-71953381D01*
X177236524Y-70953381D01*
X177665095Y-71048619D02*
X177712714Y-71001000D01*
X177807952Y-70953381D01*
X178046048Y-70953381D01*
X178141286Y-71001000D01*
X178188905Y-71048619D01*
X178236524Y-71143857D01*
X178236524Y-71239095D01*
X178188905Y-71381952D01*
X177617476Y-71953381D01*
X178236524Y-71953381D01*
X178807952Y-71381952D02*
X178712714Y-71334333D01*
X178665095Y-71286714D01*
X178617476Y-71191476D01*
X178617476Y-71143857D01*
X178665095Y-71048619D01*
X178712714Y-71001000D01*
X178807952Y-70953381D01*
X178998429Y-70953381D01*
X179093667Y-71001000D01*
X179141286Y-71048619D01*
X179188905Y-71143857D01*
X179188905Y-71191476D01*
X179141286Y-71286714D01*
X179093667Y-71334333D01*
X178998429Y-71381952D01*
X178807952Y-71381952D01*
X178712714Y-71429571D01*
X178665095Y-71477190D01*
X178617476Y-71572429D01*
X178617476Y-71762905D01*
X178665095Y-71858143D01*
X178712714Y-71905762D01*
X178807952Y-71953381D01*
X178998429Y-71953381D01*
X179093667Y-71905762D01*
X179141286Y-71858143D01*
X179188905Y-71762905D01*
X179188905Y-71572429D01*
X179141286Y-71477190D01*
X179093667Y-71429571D01*
X178998429Y-71381952D01*
X179807952Y-70953381D02*
X179903191Y-70953381D01*
X179998429Y-71001000D01*
X180046048Y-71048619D01*
X180093667Y-71143857D01*
X180141286Y-71334333D01*
X180141286Y-71572429D01*
X180093667Y-71762905D01*
X180046048Y-71858143D01*
X179998429Y-71905762D01*
X179903191Y-71953381D01*
X179807952Y-71953381D01*
X179712714Y-71905762D01*
X179665095Y-71858143D01*
X179617476Y-71762905D01*
X179569857Y-71572429D01*
X179569857Y-71334333D01*
X179617476Y-71143857D01*
X179665095Y-71048619D01*
X179712714Y-71001000D01*
X179807952Y-70953381D01*
X180474619Y-70953381D02*
X181093667Y-70953381D01*
X180760333Y-71334333D01*
X180903191Y-71334333D01*
X180998429Y-71381952D01*
X181046048Y-71429571D01*
X181093667Y-71524810D01*
X181093667Y-71762905D01*
X181046048Y-71858143D01*
X180998429Y-71905762D01*
X180903191Y-71953381D01*
X180617476Y-71953381D01*
X180522238Y-71905762D01*
X180474619Y-71858143D01*
X177038095Y-83272381D02*
X177038095Y-84081905D01*
X177085714Y-84177143D01*
X177133333Y-84224762D01*
X177228571Y-84272381D01*
X177419048Y-84272381D01*
X177514286Y-84224762D01*
X177561905Y-84177143D01*
X177609524Y-84081905D01*
X177609524Y-83272381D01*
X178609524Y-84272381D02*
X178038095Y-84272381D01*
X178323809Y-84272381D02*
X178323809Y-83272381D01*
X178228571Y-83415238D01*
X178133333Y-83510476D01*
X178038095Y-83558095D01*
X154487952Y-70953381D02*
X154487952Y-71762905D01*
X154535571Y-71858143D01*
X154583190Y-71905762D01*
X154678428Y-71953381D01*
X154868905Y-71953381D01*
X154964143Y-71905762D01*
X155011762Y-71858143D01*
X155059381Y-71762905D01*
X155059381Y-70953381D01*
X156011762Y-71953381D02*
X155535571Y-71953381D01*
X155535571Y-70953381D01*
X156345095Y-71953381D02*
X156345095Y-70953381D01*
X156916524Y-71953381D01*
X156916524Y-70953381D01*
X157345095Y-71048619D02*
X157392714Y-71001000D01*
X157487952Y-70953381D01*
X157726048Y-70953381D01*
X157821286Y-71001000D01*
X157868905Y-71048619D01*
X157916524Y-71143857D01*
X157916524Y-71239095D01*
X157868905Y-71381952D01*
X157297476Y-71953381D01*
X157916524Y-71953381D01*
X158487952Y-71381952D02*
X158392714Y-71334333D01*
X158345095Y-71286714D01*
X158297476Y-71191476D01*
X158297476Y-71143857D01*
X158345095Y-71048619D01*
X158392714Y-71001000D01*
X158487952Y-70953381D01*
X158678429Y-70953381D01*
X158773667Y-71001000D01*
X158821286Y-71048619D01*
X158868905Y-71143857D01*
X158868905Y-71191476D01*
X158821286Y-71286714D01*
X158773667Y-71334333D01*
X158678429Y-71381952D01*
X158487952Y-71381952D01*
X158392714Y-71429571D01*
X158345095Y-71477190D01*
X158297476Y-71572429D01*
X158297476Y-71762905D01*
X158345095Y-71858143D01*
X158392714Y-71905762D01*
X158487952Y-71953381D01*
X158678429Y-71953381D01*
X158773667Y-71905762D01*
X158821286Y-71858143D01*
X158868905Y-71762905D01*
X158868905Y-71572429D01*
X158821286Y-71477190D01*
X158773667Y-71429571D01*
X158678429Y-71381952D01*
X159487952Y-70953381D02*
X159583191Y-70953381D01*
X159678429Y-71001000D01*
X159726048Y-71048619D01*
X159773667Y-71143857D01*
X159821286Y-71334333D01*
X159821286Y-71572429D01*
X159773667Y-71762905D01*
X159726048Y-71858143D01*
X159678429Y-71905762D01*
X159583191Y-71953381D01*
X159487952Y-71953381D01*
X159392714Y-71905762D01*
X159345095Y-71858143D01*
X159297476Y-71762905D01*
X159249857Y-71572429D01*
X159249857Y-71334333D01*
X159297476Y-71143857D01*
X159345095Y-71048619D01*
X159392714Y-71001000D01*
X159487952Y-70953381D01*
X160154619Y-70953381D02*
X160773667Y-70953381D01*
X160440333Y-71334333D01*
X160583191Y-71334333D01*
X160678429Y-71381952D01*
X160726048Y-71429571D01*
X160773667Y-71524810D01*
X160773667Y-71762905D01*
X160726048Y-71858143D01*
X160678429Y-71905762D01*
X160583191Y-71953381D01*
X160297476Y-71953381D01*
X160202238Y-71905762D01*
X160154619Y-71858143D01*
X156718095Y-83272381D02*
X156718095Y-84081905D01*
X156765714Y-84177143D01*
X156813333Y-84224762D01*
X156908571Y-84272381D01*
X157099048Y-84272381D01*
X157194286Y-84224762D01*
X157241905Y-84177143D01*
X157289524Y-84081905D01*
X157289524Y-83272381D01*
X157718095Y-83367619D02*
X157765714Y-83320000D01*
X157860952Y-83272381D01*
X158099048Y-83272381D01*
X158194286Y-83320000D01*
X158241905Y-83367619D01*
X158289524Y-83462857D01*
X158289524Y-83558095D01*
X158241905Y-83700952D01*
X157670476Y-84272381D01*
X158289524Y-84272381D01*
X137612381Y-96869047D02*
X137612381Y-97440476D01*
X137612381Y-97154762D02*
X136612381Y-97154762D01*
X136755238Y-97250000D01*
X136850476Y-97345238D01*
X136898095Y-97440476D01*
X136612381Y-96011904D02*
X136612381Y-96202381D01*
X136660000Y-96297619D01*
X136707619Y-96345238D01*
X136850476Y-96440476D01*
X137040952Y-96488095D01*
X137421905Y-96488095D01*
X137517143Y-96440476D01*
X137564762Y-96392857D01*
X137612381Y-96297619D01*
X137612381Y-96107142D01*
X137564762Y-96011904D01*
X137517143Y-95964285D01*
X137421905Y-95916666D01*
X137183810Y-95916666D01*
X137088571Y-95964285D01*
X137040952Y-96011904D01*
X136993333Y-96107142D01*
X136993333Y-96297619D01*
X137040952Y-96392857D01*
X137088571Y-96440476D01*
X137183810Y-96488095D01*
X137612381Y-95488095D02*
X136612381Y-95488095D01*
X137326667Y-95154761D01*
X136612381Y-94821428D01*
X137612381Y-94821428D01*
X137612381Y-94345238D02*
X136612381Y-94345238D01*
X137612381Y-93916666D02*
X137088571Y-93916666D01*
X136993333Y-93964285D01*
X136945714Y-94059523D01*
X136945714Y-94202381D01*
X136993333Y-94297619D01*
X137040952Y-94345238D01*
X136945714Y-93535714D02*
X136945714Y-93011904D01*
X137612381Y-93535714D01*
X137612381Y-93011904D01*
X184872381Y-88780334D02*
X184872381Y-88589857D01*
X184920000Y-88494619D01*
X185015238Y-88399381D01*
X185205714Y-88351762D01*
X185539048Y-88351762D01*
X185729524Y-88399381D01*
X185824762Y-88494619D01*
X185872381Y-88589857D01*
X185872381Y-88780334D01*
X185824762Y-88875572D01*
X185729524Y-88970810D01*
X185539048Y-89018429D01*
X185205714Y-89018429D01*
X185015238Y-88970810D01*
X184920000Y-88875572D01*
X184872381Y-88780334D01*
X184872381Y-87923191D02*
X185681905Y-87923191D01*
X185777143Y-87875572D01*
X185824762Y-87827953D01*
X185872381Y-87732715D01*
X185872381Y-87542238D01*
X185824762Y-87447000D01*
X185777143Y-87399381D01*
X185681905Y-87351762D01*
X184872381Y-87351762D01*
X184872381Y-87018429D02*
X184872381Y-86447000D01*
X185872381Y-86732715D02*
X184872381Y-86732715D01*
X185872381Y-86113667D02*
X184872381Y-86113667D01*
X184872381Y-85732714D01*
X184920000Y-85637476D01*
X184967619Y-85589857D01*
X185062857Y-85542238D01*
X185205714Y-85542238D01*
X185300952Y-85589857D01*
X185348571Y-85637476D01*
X185396190Y-85732714D01*
X185396190Y-86113667D01*
X184872381Y-85113667D02*
X185681905Y-85113667D01*
X185777143Y-85066048D01*
X185824762Y-85018429D01*
X185872381Y-84923191D01*
X185872381Y-84732714D01*
X185824762Y-84637476D01*
X185777143Y-84589857D01*
X185681905Y-84542238D01*
X184872381Y-84542238D01*
X184872381Y-84208905D02*
X184872381Y-83637476D01*
X185872381Y-83923191D02*
X184872381Y-83923191D01*
X185967619Y-83542238D02*
X185967619Y-82780333D01*
X185872381Y-82494619D02*
X185872381Y-82304143D01*
X185824762Y-82208904D01*
X185777143Y-82161285D01*
X185634286Y-82066047D01*
X185443810Y-82018428D01*
X185062857Y-82018428D01*
X184967619Y-82066047D01*
X184920000Y-82113666D01*
X184872381Y-82208904D01*
X184872381Y-82399381D01*
X184920000Y-82494619D01*
X184967619Y-82542238D01*
X185062857Y-82589857D01*
X185300952Y-82589857D01*
X185396190Y-82542238D01*
X185443810Y-82494619D01*
X185491429Y-82399381D01*
X185491429Y-82208904D01*
X185443810Y-82113666D01*
X185396190Y-82066047D01*
X185300952Y-82018428D01*
X185491429Y-81589857D02*
X185491429Y-80827952D01*
X185872381Y-79827952D02*
X185872381Y-80399381D01*
X185872381Y-80113667D02*
X184872381Y-80113667D01*
X185015238Y-80208905D01*
X185110476Y-80304143D01*
X185158095Y-80399381D01*
X184872381Y-78970809D02*
X184872381Y-79161286D01*
X184920000Y-79256524D01*
X184967619Y-79304143D01*
X185110476Y-79399381D01*
X185300952Y-79447000D01*
X185681905Y-79447000D01*
X185777143Y-79399381D01*
X185824762Y-79351762D01*
X185872381Y-79256524D01*
X185872381Y-79066047D01*
X185824762Y-78970809D01*
X185777143Y-78923190D01*
X185681905Y-78875571D01*
X185443810Y-78875571D01*
X185348571Y-78923190D01*
X185300952Y-78970809D01*
X185253333Y-79066047D01*
X185253333Y-79256524D01*
X185300952Y-79351762D01*
X185348571Y-79399381D01*
X185443810Y-79447000D01*
X187285381Y-89661143D02*
X187285381Y-89470666D01*
X187333000Y-89375428D01*
X187428238Y-89280190D01*
X187618714Y-89232571D01*
X187952048Y-89232571D01*
X188142524Y-89280190D01*
X188237762Y-89375428D01*
X188285381Y-89470666D01*
X188285381Y-89661143D01*
X188237762Y-89756381D01*
X188142524Y-89851619D01*
X187952048Y-89899238D01*
X187618714Y-89899238D01*
X187428238Y-89851619D01*
X187333000Y-89756381D01*
X187285381Y-89661143D01*
X187285381Y-88804000D02*
X188094905Y-88804000D01*
X188190143Y-88756381D01*
X188237762Y-88708762D01*
X188285381Y-88613524D01*
X188285381Y-88423047D01*
X188237762Y-88327809D01*
X188190143Y-88280190D01*
X188094905Y-88232571D01*
X187285381Y-88232571D01*
X187285381Y-87899238D02*
X187285381Y-87327809D01*
X188285381Y-87613524D02*
X187285381Y-87613524D01*
X188285381Y-86994476D02*
X187285381Y-86994476D01*
X187285381Y-86613523D01*
X187333000Y-86518285D01*
X187380619Y-86470666D01*
X187475857Y-86423047D01*
X187618714Y-86423047D01*
X187713952Y-86470666D01*
X187761571Y-86518285D01*
X187809190Y-86613523D01*
X187809190Y-86994476D01*
X187285381Y-85994476D02*
X188094905Y-85994476D01*
X188190143Y-85946857D01*
X188237762Y-85899238D01*
X188285381Y-85804000D01*
X188285381Y-85613523D01*
X188237762Y-85518285D01*
X188190143Y-85470666D01*
X188094905Y-85423047D01*
X187285381Y-85423047D01*
X187285381Y-85089714D02*
X187285381Y-84518285D01*
X188285381Y-84804000D02*
X187285381Y-84804000D01*
X188380619Y-84423047D02*
X188380619Y-83661142D01*
X188285381Y-83375428D02*
X188285381Y-83184952D01*
X188237762Y-83089713D01*
X188190143Y-83042094D01*
X188047286Y-82946856D01*
X187856810Y-82899237D01*
X187475857Y-82899237D01*
X187380619Y-82946856D01*
X187333000Y-82994475D01*
X187285381Y-83089713D01*
X187285381Y-83280190D01*
X187333000Y-83375428D01*
X187380619Y-83423047D01*
X187475857Y-83470666D01*
X187713952Y-83470666D01*
X187809190Y-83423047D01*
X187856810Y-83375428D01*
X187904429Y-83280190D01*
X187904429Y-83089713D01*
X187856810Y-82994475D01*
X187809190Y-82946856D01*
X187713952Y-82899237D01*
X187904429Y-82470666D02*
X187904429Y-81708761D01*
X188285381Y-80708761D02*
X188285381Y-81280190D01*
X188285381Y-80994476D02*
X187285381Y-80994476D01*
X187428238Y-81089714D01*
X187523476Y-81184952D01*
X187571095Y-81280190D01*
X187285381Y-79851618D02*
X187285381Y-80042095D01*
X187333000Y-80137333D01*
X187380619Y-80184952D01*
X187523476Y-80280190D01*
X187713952Y-80327809D01*
X188094905Y-80327809D01*
X188190143Y-80280190D01*
X188237762Y-80232571D01*
X188285381Y-80137333D01*
X188285381Y-79946856D01*
X188237762Y-79851618D01*
X188190143Y-79803999D01*
X188094905Y-79756380D01*
X187856810Y-79756380D01*
X187761571Y-79803999D01*
X187713952Y-79851618D01*
X187666333Y-79946856D01*
X187666333Y-80137333D01*
X187713952Y-80232571D01*
X187761571Y-80280190D01*
X187856810Y-80327809D01*
X188380619Y-79565904D02*
X188380619Y-78803999D01*
X187999667Y-78613523D02*
X187999667Y-78137332D01*
X188285381Y-78708761D02*
X187285381Y-78375428D01*
X188285381Y-78042094D01*
X188285381Y-77232570D02*
X188285381Y-77708761D01*
X187285381Y-77708761D01*
X188285381Y-76899237D02*
X187285381Y-76899237D01*
X188285381Y-76423047D02*
X187285381Y-76423047D01*
X187999667Y-76089713D01*
X187285381Y-75756380D01*
X188285381Y-75756380D01*
X164552381Y-86907143D02*
X164552381Y-86716666D01*
X164600000Y-86621428D01*
X164695238Y-86526190D01*
X164885714Y-86478571D01*
X165219048Y-86478571D01*
X165409524Y-86526190D01*
X165504762Y-86621428D01*
X165552381Y-86716666D01*
X165552381Y-86907143D01*
X165504762Y-87002381D01*
X165409524Y-87097619D01*
X165219048Y-87145238D01*
X164885714Y-87145238D01*
X164695238Y-87097619D01*
X164600000Y-87002381D01*
X164552381Y-86907143D01*
X164552381Y-86050000D02*
X165361905Y-86050000D01*
X165457143Y-86002381D01*
X165504762Y-85954762D01*
X165552381Y-85859524D01*
X165552381Y-85669047D01*
X165504762Y-85573809D01*
X165457143Y-85526190D01*
X165361905Y-85478571D01*
X164552381Y-85478571D01*
X164552381Y-85145238D02*
X164552381Y-84573809D01*
X165552381Y-84859524D02*
X164552381Y-84859524D01*
X165552381Y-84240476D02*
X164552381Y-84240476D01*
X164552381Y-83859523D01*
X164600000Y-83764285D01*
X164647619Y-83716666D01*
X164742857Y-83669047D01*
X164885714Y-83669047D01*
X164980952Y-83716666D01*
X165028571Y-83764285D01*
X165076190Y-83859523D01*
X165076190Y-84240476D01*
X164552381Y-83240476D02*
X165361905Y-83240476D01*
X165457143Y-83192857D01*
X165504762Y-83145238D01*
X165552381Y-83050000D01*
X165552381Y-82859523D01*
X165504762Y-82764285D01*
X165457143Y-82716666D01*
X165361905Y-82669047D01*
X164552381Y-82669047D01*
X164552381Y-82335714D02*
X164552381Y-81764285D01*
X165552381Y-82050000D02*
X164552381Y-82050000D01*
X165647619Y-81669047D02*
X165647619Y-80907142D01*
X165552381Y-80145237D02*
X165552381Y-80716666D01*
X165552381Y-80430952D02*
X164552381Y-80430952D01*
X164695238Y-80526190D01*
X164790476Y-80621428D01*
X164838095Y-80716666D01*
X165171429Y-79716666D02*
X165171429Y-78954761D01*
X164980952Y-78335714D02*
X164933333Y-78430952D01*
X164885714Y-78478571D01*
X164790476Y-78526190D01*
X164742857Y-78526190D01*
X164647619Y-78478571D01*
X164600000Y-78430952D01*
X164552381Y-78335714D01*
X164552381Y-78145237D01*
X164600000Y-78049999D01*
X164647619Y-78002380D01*
X164742857Y-77954761D01*
X164790476Y-77954761D01*
X164885714Y-78002380D01*
X164933333Y-78049999D01*
X164980952Y-78145237D01*
X164980952Y-78335714D01*
X165028571Y-78430952D01*
X165076190Y-78478571D01*
X165171429Y-78526190D01*
X165361905Y-78526190D01*
X165457143Y-78478571D01*
X165504762Y-78430952D01*
X165552381Y-78335714D01*
X165552381Y-78145237D01*
X165504762Y-78049999D01*
X165457143Y-78002380D01*
X165361905Y-77954761D01*
X165171429Y-77954761D01*
X165076190Y-78002380D01*
X165028571Y-78049999D01*
X164980952Y-78145237D01*
X167219381Y-88549953D02*
X167219381Y-88359476D01*
X167267000Y-88264238D01*
X167362238Y-88169000D01*
X167552714Y-88121381D01*
X167886048Y-88121381D01*
X168076524Y-88169000D01*
X168171762Y-88264238D01*
X168219381Y-88359476D01*
X168219381Y-88549953D01*
X168171762Y-88645191D01*
X168076524Y-88740429D01*
X167886048Y-88788048D01*
X167552714Y-88788048D01*
X167362238Y-88740429D01*
X167267000Y-88645191D01*
X167219381Y-88549953D01*
X167219381Y-87692810D02*
X168028905Y-87692810D01*
X168124143Y-87645191D01*
X168171762Y-87597572D01*
X168219381Y-87502334D01*
X168219381Y-87311857D01*
X168171762Y-87216619D01*
X168124143Y-87169000D01*
X168028905Y-87121381D01*
X167219381Y-87121381D01*
X167219381Y-86788048D02*
X167219381Y-86216619D01*
X168219381Y-86502334D02*
X167219381Y-86502334D01*
X168219381Y-85883286D02*
X167219381Y-85883286D01*
X167219381Y-85502333D01*
X167267000Y-85407095D01*
X167314619Y-85359476D01*
X167409857Y-85311857D01*
X167552714Y-85311857D01*
X167647952Y-85359476D01*
X167695571Y-85407095D01*
X167743190Y-85502333D01*
X167743190Y-85883286D01*
X167219381Y-84883286D02*
X168028905Y-84883286D01*
X168124143Y-84835667D01*
X168171762Y-84788048D01*
X168219381Y-84692810D01*
X168219381Y-84502333D01*
X168171762Y-84407095D01*
X168124143Y-84359476D01*
X168028905Y-84311857D01*
X167219381Y-84311857D01*
X167219381Y-83978524D02*
X167219381Y-83407095D01*
X168219381Y-83692810D02*
X167219381Y-83692810D01*
X168314619Y-83311857D02*
X168314619Y-82549952D01*
X168219381Y-81788047D02*
X168219381Y-82359476D01*
X168219381Y-82073762D02*
X167219381Y-82073762D01*
X167362238Y-82169000D01*
X167457476Y-82264238D01*
X167505095Y-82359476D01*
X167838429Y-81359476D02*
X167838429Y-80597571D01*
X167647952Y-79978524D02*
X167600333Y-80073762D01*
X167552714Y-80121381D01*
X167457476Y-80169000D01*
X167409857Y-80169000D01*
X167314619Y-80121381D01*
X167267000Y-80073762D01*
X167219381Y-79978524D01*
X167219381Y-79788047D01*
X167267000Y-79692809D01*
X167314619Y-79645190D01*
X167409857Y-79597571D01*
X167457476Y-79597571D01*
X167552714Y-79645190D01*
X167600333Y-79692809D01*
X167647952Y-79788047D01*
X167647952Y-79978524D01*
X167695571Y-80073762D01*
X167743190Y-80121381D01*
X167838429Y-80169000D01*
X168028905Y-80169000D01*
X168124143Y-80121381D01*
X168171762Y-80073762D01*
X168219381Y-79978524D01*
X168219381Y-79788047D01*
X168171762Y-79692809D01*
X168124143Y-79645190D01*
X168028905Y-79597571D01*
X167838429Y-79597571D01*
X167743190Y-79645190D01*
X167695571Y-79692809D01*
X167647952Y-79788047D01*
X168314619Y-79407095D02*
X168314619Y-78645190D01*
X167933667Y-78454714D02*
X167933667Y-77978523D01*
X168219381Y-78549952D02*
X167219381Y-78216619D01*
X168219381Y-77883285D01*
X168219381Y-77073761D02*
X168219381Y-77549952D01*
X167219381Y-77549952D01*
X168219381Y-76740428D02*
X167219381Y-76740428D01*
X168219381Y-76264238D02*
X167219381Y-76264238D01*
X167933667Y-75930904D01*
X167219381Y-75597571D01*
X168219381Y-75597571D01*
X169632381Y-89319905D02*
X169632381Y-89129428D01*
X169680000Y-89034190D01*
X169775238Y-88938952D01*
X169965714Y-88891333D01*
X170299048Y-88891333D01*
X170489524Y-88938952D01*
X170584762Y-89034190D01*
X170632381Y-89129428D01*
X170632381Y-89319905D01*
X170584762Y-89415143D01*
X170489524Y-89510381D01*
X170299048Y-89558000D01*
X169965714Y-89558000D01*
X169775238Y-89510381D01*
X169680000Y-89415143D01*
X169632381Y-89319905D01*
X169632381Y-88462762D02*
X170441905Y-88462762D01*
X170537143Y-88415143D01*
X170584762Y-88367524D01*
X170632381Y-88272286D01*
X170632381Y-88081809D01*
X170584762Y-87986571D01*
X170537143Y-87938952D01*
X170441905Y-87891333D01*
X169632381Y-87891333D01*
X169632381Y-87558000D02*
X169632381Y-86986571D01*
X170632381Y-87272286D02*
X169632381Y-87272286D01*
X170632381Y-86653238D02*
X169632381Y-86653238D01*
X169632381Y-86272285D01*
X169680000Y-86177047D01*
X169727619Y-86129428D01*
X169822857Y-86081809D01*
X169965714Y-86081809D01*
X170060952Y-86129428D01*
X170108571Y-86177047D01*
X170156190Y-86272285D01*
X170156190Y-86653238D01*
X169632381Y-85653238D02*
X170441905Y-85653238D01*
X170537143Y-85605619D01*
X170584762Y-85558000D01*
X170632381Y-85462762D01*
X170632381Y-85272285D01*
X170584762Y-85177047D01*
X170537143Y-85129428D01*
X170441905Y-85081809D01*
X169632381Y-85081809D01*
X169632381Y-84748476D02*
X169632381Y-84177047D01*
X170632381Y-84462762D02*
X169632381Y-84462762D01*
X170727619Y-84081809D02*
X170727619Y-83319904D01*
X170632381Y-82557999D02*
X170632381Y-83129428D01*
X170632381Y-82843714D02*
X169632381Y-82843714D01*
X169775238Y-82938952D01*
X169870476Y-83034190D01*
X169918095Y-83129428D01*
X170251429Y-82129428D02*
X170251429Y-81367523D01*
X170060952Y-80748476D02*
X170013333Y-80843714D01*
X169965714Y-80891333D01*
X169870476Y-80938952D01*
X169822857Y-80938952D01*
X169727619Y-80891333D01*
X169680000Y-80843714D01*
X169632381Y-80748476D01*
X169632381Y-80557999D01*
X169680000Y-80462761D01*
X169727619Y-80415142D01*
X169822857Y-80367523D01*
X169870476Y-80367523D01*
X169965714Y-80415142D01*
X170013333Y-80462761D01*
X170060952Y-80557999D01*
X170060952Y-80748476D01*
X170108571Y-80843714D01*
X170156190Y-80891333D01*
X170251429Y-80938952D01*
X170441905Y-80938952D01*
X170537143Y-80891333D01*
X170584762Y-80843714D01*
X170632381Y-80748476D01*
X170632381Y-80557999D01*
X170584762Y-80462761D01*
X170537143Y-80415142D01*
X170441905Y-80367523D01*
X170251429Y-80367523D01*
X170156190Y-80415142D01*
X170108571Y-80462761D01*
X170060952Y-80557999D01*
X170727619Y-80177047D02*
X170727619Y-79415142D01*
X169680000Y-78653237D02*
X169632381Y-78748475D01*
X169632381Y-78891332D01*
X169680000Y-79034190D01*
X169775238Y-79129428D01*
X169870476Y-79177047D01*
X170060952Y-79224666D01*
X170203810Y-79224666D01*
X170394286Y-79177047D01*
X170489524Y-79129428D01*
X170584762Y-79034190D01*
X170632381Y-78891332D01*
X170632381Y-78796094D01*
X170584762Y-78653237D01*
X170537143Y-78605618D01*
X170203810Y-78605618D01*
X170203810Y-78796094D01*
X170632381Y-78177047D02*
X169632381Y-78177047D01*
X170632381Y-77605618D01*
X169632381Y-77605618D01*
X170632381Y-77129428D02*
X169632381Y-77129428D01*
X169632381Y-76891333D01*
X169680000Y-76748475D01*
X169775238Y-76653237D01*
X169870476Y-76605618D01*
X170060952Y-76557999D01*
X170203810Y-76557999D01*
X170394286Y-76605618D01*
X170489524Y-76653237D01*
X170584762Y-76748475D01*
X170632381Y-76891333D01*
X170632381Y-77129428D01*
M02*
