G04 #@! TF.GenerationSoftware,KiCad,Pcbnew,(5.1.5)-3*
G04 #@! TF.CreationDate,2020-03-17T17:19:56+01:00*
G04 #@! TF.ProjectId,Capteur_Hall_I2C,43617074-6575-4725-9f48-616c6c5f4932,0.1*
G04 #@! TF.SameCoordinates,Original*
G04 #@! TF.FileFunction,Soldermask,Top*
G04 #@! TF.FilePolarity,Negative*
%FSLAX46Y46*%
G04 Gerber Fmt 4.6, Leading zero omitted, Abs format (unit mm)*
G04 Created by KiCad (PCBNEW (5.1.5)-3) date 2020-03-17 17:19:56*
%MOMM*%
%LPD*%
G04 APERTURE LIST*
%ADD10C,0.100000*%
G04 APERTURE END LIST*
D10*
G36*
X152775256Y-110151298D02*
G01*
X152881579Y-110172447D01*
X153182042Y-110296903D01*
X153452451Y-110477585D01*
X153682415Y-110707549D01*
X153863097Y-110977958D01*
X153987553Y-111278421D01*
X154051000Y-111597391D01*
X154051000Y-111922609D01*
X153987553Y-112241579D01*
X153863097Y-112542042D01*
X153682415Y-112812451D01*
X153452451Y-113042415D01*
X153182042Y-113223097D01*
X152881579Y-113347553D01*
X152775256Y-113368702D01*
X152562611Y-113411000D01*
X152237389Y-113411000D01*
X152024744Y-113368702D01*
X151918421Y-113347553D01*
X151617958Y-113223097D01*
X151347549Y-113042415D01*
X151117585Y-112812451D01*
X150936903Y-112542042D01*
X150812447Y-112241579D01*
X150749000Y-111922609D01*
X150749000Y-111597391D01*
X150812447Y-111278421D01*
X150936903Y-110977958D01*
X151117585Y-110707549D01*
X151347549Y-110477585D01*
X151617958Y-110296903D01*
X151918421Y-110172447D01*
X152024744Y-110151298D01*
X152237389Y-110109000D01*
X152562611Y-110109000D01*
X152775256Y-110151298D01*
G37*
G36*
X157855256Y-106341298D02*
G01*
X157961579Y-106362447D01*
X158262042Y-106486903D01*
X158532451Y-106667585D01*
X158762415Y-106897549D01*
X158943097Y-107167958D01*
X159067553Y-107468421D01*
X159131000Y-107787391D01*
X159131000Y-108112609D01*
X159067553Y-108431579D01*
X158943097Y-108732042D01*
X158762415Y-109002451D01*
X158532451Y-109232415D01*
X158262042Y-109413097D01*
X157961579Y-109537553D01*
X157855256Y-109558702D01*
X157642611Y-109601000D01*
X157317389Y-109601000D01*
X157104744Y-109558702D01*
X156998421Y-109537553D01*
X156697958Y-109413097D01*
X156427549Y-109232415D01*
X156197585Y-109002451D01*
X156102429Y-108860040D01*
X156086887Y-108841102D01*
X156067945Y-108825557D01*
X156046334Y-108814006D01*
X156022885Y-108806893D01*
X155998499Y-108804491D01*
X155974113Y-108806893D01*
X155950664Y-108814006D01*
X155929053Y-108825557D01*
X155910111Y-108841102D01*
X155894566Y-108860044D01*
X155883015Y-108881655D01*
X155875902Y-108905104D01*
X155873500Y-108929490D01*
X155873500Y-109002449D01*
X155869690Y-109041132D01*
X155860198Y-109072423D01*
X155844783Y-109101263D01*
X155824039Y-109126539D01*
X155798763Y-109147283D01*
X155769923Y-109162698D01*
X155738632Y-109172190D01*
X155699949Y-109176000D01*
X153870051Y-109176000D01*
X153831368Y-109172190D01*
X153800077Y-109162698D01*
X153771237Y-109147283D01*
X153745961Y-109126539D01*
X153725217Y-109101263D01*
X153709802Y-109072423D01*
X153700310Y-109041132D01*
X153696500Y-109002449D01*
X153696500Y-106897551D01*
X153700310Y-106858868D01*
X153709802Y-106827577D01*
X153725217Y-106798737D01*
X153745961Y-106773461D01*
X153771237Y-106752717D01*
X153800077Y-106737302D01*
X153831368Y-106727810D01*
X153870051Y-106724000D01*
X155699949Y-106724000D01*
X155738632Y-106727810D01*
X155769923Y-106737302D01*
X155798763Y-106752717D01*
X155824039Y-106773461D01*
X155844783Y-106798737D01*
X155860198Y-106827577D01*
X155869690Y-106858868D01*
X155873500Y-106897551D01*
X155873500Y-106970510D01*
X155875902Y-106994896D01*
X155883015Y-107018345D01*
X155894566Y-107039956D01*
X155910111Y-107058898D01*
X155929053Y-107074443D01*
X155950664Y-107085994D01*
X155974113Y-107093107D01*
X155998499Y-107095509D01*
X156022885Y-107093107D01*
X156046334Y-107085994D01*
X156067945Y-107074443D01*
X156086887Y-107058898D01*
X156102429Y-107039960D01*
X156197585Y-106897549D01*
X156427549Y-106667585D01*
X156697958Y-106486903D01*
X156998421Y-106362447D01*
X157104744Y-106341298D01*
X157317389Y-106299000D01*
X157642611Y-106299000D01*
X157855256Y-106341298D01*
G37*
G36*
X147695256Y-106341298D02*
G01*
X147801579Y-106362447D01*
X148102042Y-106486903D01*
X148372451Y-106667585D01*
X148578606Y-106873740D01*
X148597542Y-106889280D01*
X148619153Y-106900831D01*
X148642602Y-106907944D01*
X148666988Y-106910346D01*
X148691374Y-106907944D01*
X148714823Y-106900831D01*
X148736434Y-106889280D01*
X148755376Y-106873735D01*
X148770921Y-106854793D01*
X148778727Y-106838290D01*
X148778998Y-106838435D01*
X148800217Y-106798737D01*
X148820961Y-106773461D01*
X148846237Y-106752717D01*
X148875077Y-106737302D01*
X148906368Y-106727810D01*
X148945051Y-106724000D01*
X150774949Y-106724000D01*
X150813632Y-106727810D01*
X150844923Y-106737302D01*
X150873763Y-106752717D01*
X150899039Y-106773461D01*
X150919783Y-106798737D01*
X150935198Y-106827577D01*
X150944690Y-106858868D01*
X150948500Y-106897551D01*
X150948500Y-109002449D01*
X150944690Y-109041132D01*
X150935198Y-109072423D01*
X150919783Y-109101263D01*
X150899039Y-109126539D01*
X150873763Y-109147283D01*
X150844923Y-109162698D01*
X150813632Y-109172190D01*
X150774949Y-109176000D01*
X148945051Y-109176000D01*
X148906368Y-109172190D01*
X148875077Y-109162698D01*
X148846237Y-109147283D01*
X148820961Y-109126539D01*
X148800217Y-109101263D01*
X148781872Y-109066942D01*
X148777224Y-109055723D01*
X148763609Y-109035349D01*
X148746281Y-109018023D01*
X148725906Y-109004410D01*
X148703266Y-108995034D01*
X148679233Y-108990255D01*
X148654729Y-108990257D01*
X148630696Y-108995038D01*
X148608058Y-109004417D01*
X148578604Y-109026262D01*
X148372451Y-109232415D01*
X148102042Y-109413097D01*
X147801579Y-109537553D01*
X147695256Y-109558702D01*
X147482611Y-109601000D01*
X147157389Y-109601000D01*
X146944744Y-109558702D01*
X146838421Y-109537553D01*
X146537958Y-109413097D01*
X146267549Y-109232415D01*
X146037585Y-109002451D01*
X145856903Y-108732042D01*
X145732447Y-108431579D01*
X145669000Y-108112609D01*
X145669000Y-107787391D01*
X145732447Y-107468421D01*
X145856903Y-107167958D01*
X146037585Y-106897549D01*
X146267549Y-106667585D01*
X146537958Y-106486903D01*
X146838421Y-106362447D01*
X146944744Y-106341298D01*
X147157389Y-106299000D01*
X147482611Y-106299000D01*
X147695256Y-106341298D01*
G37*
G36*
X160160562Y-104450681D02*
G01*
X160195481Y-104461274D01*
X160227663Y-104478476D01*
X160255873Y-104501627D01*
X160279024Y-104529837D01*
X160296226Y-104562019D01*
X160306819Y-104596938D01*
X160311000Y-104639395D01*
X160311000Y-105780605D01*
X160306819Y-105823062D01*
X160296226Y-105857981D01*
X160279024Y-105890163D01*
X160255873Y-105918373D01*
X160227663Y-105941524D01*
X160195481Y-105958726D01*
X160160562Y-105969319D01*
X160118105Y-105973500D01*
X158651895Y-105973500D01*
X158609438Y-105969319D01*
X158574519Y-105958726D01*
X158542337Y-105941524D01*
X158514127Y-105918373D01*
X158490976Y-105890163D01*
X158473774Y-105857981D01*
X158463181Y-105823062D01*
X158459000Y-105780605D01*
X158459000Y-104639395D01*
X158463181Y-104596938D01*
X158473774Y-104562019D01*
X158490976Y-104529837D01*
X158514127Y-104501627D01*
X158542337Y-104478476D01*
X158574519Y-104461274D01*
X158609438Y-104450681D01*
X158651895Y-104446500D01*
X160118105Y-104446500D01*
X160160562Y-104450681D01*
G37*
G36*
X154500562Y-103853181D02*
G01*
X154535481Y-103863774D01*
X154567663Y-103880976D01*
X154595873Y-103904127D01*
X154619024Y-103932337D01*
X154636226Y-103964519D01*
X154646819Y-103999438D01*
X154651000Y-104041895D01*
X154651000Y-105508105D01*
X154646819Y-105550562D01*
X154636226Y-105585481D01*
X154619024Y-105617663D01*
X154595873Y-105645873D01*
X154567663Y-105669024D01*
X154535481Y-105686226D01*
X154500562Y-105696819D01*
X154458105Y-105701000D01*
X153316895Y-105701000D01*
X153274438Y-105696819D01*
X153239519Y-105686226D01*
X153207337Y-105669024D01*
X153179127Y-105645873D01*
X153155976Y-105617663D01*
X153138774Y-105585481D01*
X153128181Y-105550562D01*
X153124000Y-105508105D01*
X153124000Y-104041895D01*
X153128181Y-103999438D01*
X153138774Y-103964519D01*
X153155976Y-103932337D01*
X153179127Y-103904127D01*
X153207337Y-103880976D01*
X153239519Y-103863774D01*
X153274438Y-103853181D01*
X153316895Y-103849000D01*
X154458105Y-103849000D01*
X154500562Y-103853181D01*
G37*
G36*
X151525562Y-103853181D02*
G01*
X151560481Y-103863774D01*
X151592663Y-103880976D01*
X151620873Y-103904127D01*
X151644024Y-103932337D01*
X151661226Y-103964519D01*
X151671819Y-103999438D01*
X151676000Y-104041895D01*
X151676000Y-105508105D01*
X151671819Y-105550562D01*
X151661226Y-105585481D01*
X151644024Y-105617663D01*
X151620873Y-105645873D01*
X151592663Y-105669024D01*
X151560481Y-105686226D01*
X151525562Y-105696819D01*
X151483105Y-105701000D01*
X150341895Y-105701000D01*
X150299438Y-105696819D01*
X150264519Y-105686226D01*
X150232337Y-105669024D01*
X150204127Y-105645873D01*
X150180976Y-105617663D01*
X150163774Y-105585481D01*
X150153181Y-105550562D01*
X150149000Y-105508105D01*
X150149000Y-104041895D01*
X150153181Y-103999438D01*
X150163774Y-103964519D01*
X150180976Y-103932337D01*
X150204127Y-103904127D01*
X150232337Y-103880976D01*
X150264519Y-103863774D01*
X150299438Y-103853181D01*
X150341895Y-103849000D01*
X151483105Y-103849000D01*
X151525562Y-103853181D01*
G37*
G36*
X148838228Y-103956703D02*
G01*
X148993100Y-104020853D01*
X149132481Y-104113985D01*
X149251015Y-104232519D01*
X149344147Y-104371900D01*
X149408297Y-104526772D01*
X149441000Y-104691184D01*
X149441000Y-104858816D01*
X149408297Y-105023228D01*
X149344147Y-105178100D01*
X149251015Y-105317481D01*
X149132481Y-105436015D01*
X148993100Y-105529147D01*
X148838228Y-105593297D01*
X148673816Y-105626000D01*
X148506184Y-105626000D01*
X148341772Y-105593297D01*
X148186900Y-105529147D01*
X148047519Y-105436015D01*
X147928985Y-105317481D01*
X147835853Y-105178100D01*
X147771703Y-105023228D01*
X147739000Y-104858816D01*
X147739000Y-104691184D01*
X147771703Y-104526772D01*
X147835853Y-104371900D01*
X147928985Y-104232519D01*
X148047519Y-104113985D01*
X148186900Y-104020853D01*
X148341772Y-103956703D01*
X148506184Y-103924000D01*
X148673816Y-103924000D01*
X148838228Y-103956703D01*
G37*
G36*
X157061000Y-105626000D02*
G01*
X155359000Y-105626000D01*
X155359000Y-103924000D01*
X157061000Y-103924000D01*
X157061000Y-105626000D01*
G37*
G36*
X144696000Y-105601000D02*
G01*
X143594000Y-105601000D01*
X143594000Y-103949000D01*
X144696000Y-103949000D01*
X144696000Y-105601000D01*
G37*
G36*
X146396000Y-105601000D02*
G01*
X145294000Y-105601000D01*
X145294000Y-103949000D01*
X146396000Y-103949000D01*
X146396000Y-105601000D01*
G37*
G36*
X148838228Y-101416703D02*
G01*
X148993100Y-101480853D01*
X149132481Y-101573985D01*
X149251015Y-101692519D01*
X149344147Y-101831900D01*
X149408297Y-101986772D01*
X149441000Y-102151184D01*
X149441000Y-102318816D01*
X149408297Y-102483228D01*
X149344147Y-102638100D01*
X149251015Y-102777481D01*
X149132481Y-102896015D01*
X148993100Y-102989147D01*
X148838228Y-103053297D01*
X148673816Y-103086000D01*
X148506184Y-103086000D01*
X148341772Y-103053297D01*
X148186900Y-102989147D01*
X148047519Y-102896015D01*
X147928985Y-102777481D01*
X147835853Y-102638100D01*
X147771703Y-102483228D01*
X147739000Y-102318816D01*
X147739000Y-102151184D01*
X147771703Y-101986772D01*
X147835853Y-101831900D01*
X147928985Y-101692519D01*
X148047519Y-101573985D01*
X148186900Y-101480853D01*
X148341772Y-101416703D01*
X148506184Y-101384000D01*
X148673816Y-101384000D01*
X148838228Y-101416703D01*
G37*
G36*
X156458228Y-101416703D02*
G01*
X156613100Y-101480853D01*
X156752481Y-101573985D01*
X156871015Y-101692519D01*
X156964147Y-101831900D01*
X157028297Y-101986772D01*
X157061000Y-102151184D01*
X157061000Y-102318816D01*
X157028297Y-102483228D01*
X156964147Y-102638100D01*
X156871015Y-102777481D01*
X156752481Y-102896015D01*
X156613100Y-102989147D01*
X156458228Y-103053297D01*
X156293816Y-103086000D01*
X156126184Y-103086000D01*
X155961772Y-103053297D01*
X155806900Y-102989147D01*
X155667519Y-102896015D01*
X155548985Y-102777481D01*
X155455853Y-102638100D01*
X155391703Y-102483228D01*
X155359000Y-102318816D01*
X155359000Y-102151184D01*
X155391703Y-101986772D01*
X155455853Y-101831900D01*
X155548985Y-101692519D01*
X155667519Y-101573985D01*
X155806900Y-101480853D01*
X155961772Y-101416703D01*
X156126184Y-101384000D01*
X156293816Y-101384000D01*
X156458228Y-101416703D01*
G37*
G36*
X160160562Y-101475681D02*
G01*
X160195481Y-101486274D01*
X160227663Y-101503476D01*
X160255873Y-101526627D01*
X160279024Y-101554837D01*
X160296226Y-101587019D01*
X160306819Y-101621938D01*
X160311000Y-101664395D01*
X160311000Y-102805605D01*
X160306819Y-102848062D01*
X160296226Y-102882981D01*
X160279024Y-102915163D01*
X160255873Y-102943373D01*
X160227663Y-102966524D01*
X160195481Y-102983726D01*
X160160562Y-102994319D01*
X160118105Y-102998500D01*
X158651895Y-102998500D01*
X158609438Y-102994319D01*
X158574519Y-102983726D01*
X158542337Y-102966524D01*
X158514127Y-102943373D01*
X158490976Y-102915163D01*
X158473774Y-102882981D01*
X158463181Y-102848062D01*
X158459000Y-102805605D01*
X158459000Y-101664395D01*
X158463181Y-101621938D01*
X158473774Y-101587019D01*
X158490976Y-101554837D01*
X158514127Y-101526627D01*
X158542337Y-101503476D01*
X158574519Y-101486274D01*
X158609438Y-101475681D01*
X158651895Y-101471500D01*
X160118105Y-101471500D01*
X160160562Y-101475681D01*
G37*
G36*
X160160562Y-99370681D02*
G01*
X160195481Y-99381274D01*
X160227663Y-99398476D01*
X160255873Y-99421627D01*
X160279024Y-99449837D01*
X160296226Y-99482019D01*
X160306819Y-99516938D01*
X160311000Y-99559395D01*
X160311000Y-100700605D01*
X160306819Y-100743062D01*
X160296226Y-100777981D01*
X160279024Y-100810163D01*
X160255873Y-100838373D01*
X160227663Y-100861524D01*
X160195481Y-100878726D01*
X160160562Y-100889319D01*
X160118105Y-100893500D01*
X158651895Y-100893500D01*
X158609438Y-100889319D01*
X158574519Y-100878726D01*
X158542337Y-100861524D01*
X158514127Y-100838373D01*
X158490976Y-100810163D01*
X158473774Y-100777981D01*
X158463181Y-100743062D01*
X158459000Y-100700605D01*
X158459000Y-99559395D01*
X158463181Y-99516938D01*
X158473774Y-99482019D01*
X158490976Y-99449837D01*
X158514127Y-99421627D01*
X158542337Y-99398476D01*
X158574519Y-99381274D01*
X158609438Y-99370681D01*
X158651895Y-99366500D01*
X160118105Y-99366500D01*
X160160562Y-99370681D01*
G37*
G36*
X148838228Y-98876703D02*
G01*
X148993100Y-98940853D01*
X149132481Y-99033985D01*
X149251015Y-99152519D01*
X149344147Y-99291900D01*
X149408297Y-99446772D01*
X149441000Y-99611184D01*
X149441000Y-99778816D01*
X149408297Y-99943228D01*
X149344147Y-100098100D01*
X149251015Y-100237481D01*
X149132481Y-100356015D01*
X148993100Y-100449147D01*
X148838228Y-100513297D01*
X148673816Y-100546000D01*
X148506184Y-100546000D01*
X148341772Y-100513297D01*
X148186900Y-100449147D01*
X148047519Y-100356015D01*
X147928985Y-100237481D01*
X147835853Y-100098100D01*
X147771703Y-99943228D01*
X147739000Y-99778816D01*
X147739000Y-99611184D01*
X147771703Y-99446772D01*
X147835853Y-99291900D01*
X147928985Y-99152519D01*
X148047519Y-99033985D01*
X148186900Y-98940853D01*
X148341772Y-98876703D01*
X148506184Y-98844000D01*
X148673816Y-98844000D01*
X148838228Y-98876703D01*
G37*
G36*
X156458228Y-98876703D02*
G01*
X156613100Y-98940853D01*
X156752481Y-99033985D01*
X156871015Y-99152519D01*
X156964147Y-99291900D01*
X157028297Y-99446772D01*
X157061000Y-99611184D01*
X157061000Y-99778816D01*
X157028297Y-99943228D01*
X156964147Y-100098100D01*
X156871015Y-100237481D01*
X156752481Y-100356015D01*
X156613100Y-100449147D01*
X156458228Y-100513297D01*
X156293816Y-100546000D01*
X156126184Y-100546000D01*
X155961772Y-100513297D01*
X155806900Y-100449147D01*
X155667519Y-100356015D01*
X155548985Y-100237481D01*
X155455853Y-100098100D01*
X155391703Y-99943228D01*
X155359000Y-99778816D01*
X155359000Y-99611184D01*
X155391703Y-99446772D01*
X155455853Y-99291900D01*
X155548985Y-99152519D01*
X155667519Y-99033985D01*
X155806900Y-98940853D01*
X155961772Y-98876703D01*
X156126184Y-98844000D01*
X156293816Y-98844000D01*
X156458228Y-98876703D01*
G37*
G36*
X146396000Y-100351000D02*
G01*
X145294000Y-100351000D01*
X145294000Y-98699000D01*
X146396000Y-98699000D01*
X146396000Y-100351000D01*
G37*
G36*
X144696000Y-100351000D02*
G01*
X143594000Y-100351000D01*
X143594000Y-98699000D01*
X144696000Y-98699000D01*
X144696000Y-100351000D01*
G37*
G36*
X148838228Y-96336703D02*
G01*
X148993100Y-96400853D01*
X149132481Y-96493985D01*
X149251015Y-96612519D01*
X149344147Y-96751900D01*
X149408297Y-96906772D01*
X149441000Y-97071184D01*
X149441000Y-97238816D01*
X149408297Y-97403228D01*
X149344147Y-97558100D01*
X149251015Y-97697481D01*
X149132481Y-97816015D01*
X148993100Y-97909147D01*
X148838228Y-97973297D01*
X148673816Y-98006000D01*
X148506184Y-98006000D01*
X148341772Y-97973297D01*
X148186900Y-97909147D01*
X148047519Y-97816015D01*
X147928985Y-97697481D01*
X147835853Y-97558100D01*
X147771703Y-97403228D01*
X147739000Y-97238816D01*
X147739000Y-97071184D01*
X147771703Y-96906772D01*
X147835853Y-96751900D01*
X147928985Y-96612519D01*
X148047519Y-96493985D01*
X148186900Y-96400853D01*
X148341772Y-96336703D01*
X148506184Y-96304000D01*
X148673816Y-96304000D01*
X148838228Y-96336703D01*
G37*
G36*
X156458228Y-96336703D02*
G01*
X156613100Y-96400853D01*
X156752481Y-96493985D01*
X156871015Y-96612519D01*
X156964147Y-96751900D01*
X157028297Y-96906772D01*
X157061000Y-97071184D01*
X157061000Y-97238816D01*
X157028297Y-97403228D01*
X156964147Y-97558100D01*
X156871015Y-97697481D01*
X156752481Y-97816015D01*
X156613100Y-97909147D01*
X156458228Y-97973297D01*
X156293816Y-98006000D01*
X156126184Y-98006000D01*
X155961772Y-97973297D01*
X155806900Y-97909147D01*
X155667519Y-97816015D01*
X155548985Y-97697481D01*
X155455853Y-97558100D01*
X155391703Y-97403228D01*
X155359000Y-97238816D01*
X155359000Y-97071184D01*
X155391703Y-96906772D01*
X155455853Y-96751900D01*
X155548985Y-96612519D01*
X155667519Y-96493985D01*
X155806900Y-96400853D01*
X155961772Y-96336703D01*
X156126184Y-96304000D01*
X156293816Y-96304000D01*
X156458228Y-96336703D01*
G37*
G36*
X160160562Y-96395681D02*
G01*
X160195481Y-96406274D01*
X160227663Y-96423476D01*
X160255873Y-96446627D01*
X160279024Y-96474837D01*
X160296226Y-96507019D01*
X160306819Y-96541938D01*
X160311000Y-96584395D01*
X160311000Y-97725605D01*
X160306819Y-97768062D01*
X160296226Y-97802981D01*
X160279024Y-97835163D01*
X160255873Y-97863373D01*
X160227663Y-97886524D01*
X160195481Y-97903726D01*
X160160562Y-97914319D01*
X160118105Y-97918500D01*
X158651895Y-97918500D01*
X158609438Y-97914319D01*
X158574519Y-97903726D01*
X158542337Y-97886524D01*
X158514127Y-97863373D01*
X158490976Y-97835163D01*
X158473774Y-97802981D01*
X158463181Y-97768062D01*
X158459000Y-97725605D01*
X158459000Y-96584395D01*
X158463181Y-96541938D01*
X158473774Y-96507019D01*
X158490976Y-96474837D01*
X158514127Y-96446627D01*
X158542337Y-96423476D01*
X158574519Y-96406274D01*
X158609438Y-96395681D01*
X158651895Y-96391500D01*
X160118105Y-96391500D01*
X160160562Y-96395681D01*
G37*
G36*
X153059473Y-92815413D02*
G01*
X153155040Y-92824825D01*
X153400280Y-92899218D01*
X153626294Y-93020025D01*
X153677899Y-93062376D01*
X153824397Y-93182603D01*
X153944624Y-93329101D01*
X153986975Y-93380706D01*
X154107782Y-93606720D01*
X154182175Y-93851960D01*
X154207294Y-94107000D01*
X154182175Y-94362040D01*
X154107782Y-94607280D01*
X153986975Y-94833294D01*
X153944624Y-94884899D01*
X153824397Y-95031397D01*
X153677899Y-95151624D01*
X153626294Y-95193975D01*
X153400280Y-95314782D01*
X153155040Y-95389175D01*
X153059473Y-95398587D01*
X152963906Y-95408000D01*
X151836094Y-95408000D01*
X151740527Y-95398587D01*
X151644960Y-95389175D01*
X151399720Y-95314782D01*
X151173706Y-95193975D01*
X151122101Y-95151624D01*
X150975603Y-95031397D01*
X150855376Y-94884899D01*
X150813025Y-94833294D01*
X150692218Y-94607280D01*
X150617825Y-94362040D01*
X150592706Y-94107000D01*
X150617825Y-93851960D01*
X150692218Y-93606720D01*
X150813025Y-93380706D01*
X150855376Y-93329101D01*
X150975603Y-93182603D01*
X151122101Y-93062376D01*
X151173706Y-93020025D01*
X151399720Y-92899218D01*
X151644960Y-92824825D01*
X151740527Y-92815413D01*
X151836094Y-92806000D01*
X152963906Y-92806000D01*
X153059473Y-92815413D01*
G37*
M02*
