G04 #@! TF.GenerationSoftware,KiCad,Pcbnew,(5.1.5)-3*
G04 #@! TF.CreationDate,2020-04-06T18:45:54+02:00*
G04 #@! TF.ProjectId,Capteur_Hall_I2C,43617074-6575-4725-9f48-616c6c5f4932,0.1*
G04 #@! TF.SameCoordinates,Original*
G04 #@! TF.FileFunction,Soldermask,Top*
G04 #@! TF.FilePolarity,Negative*
%FSLAX46Y46*%
G04 Gerber Fmt 4.6, Leading zero omitted, Abs format (unit mm)*
G04 Created by KiCad (PCBNEW (5.1.5)-3) date 2020-04-06 18:45:54*
%MOMM*%
%LPD*%
G04 APERTURE LIST*
%ADD10C,0.050000*%
%ADD11C,0.100000*%
G04 APERTURE END LIST*
D10*
X163400000Y-102870000D02*
G75*
G03X163400000Y-102870000I-11000000J0D01*
G01*
D11*
G36*
X155738632Y-106092810D02*
G01*
X155769923Y-106102302D01*
X155798763Y-106117717D01*
X155824039Y-106138461D01*
X155844783Y-106163737D01*
X155860198Y-106192577D01*
X155869690Y-106223868D01*
X155873500Y-106262551D01*
X155873500Y-108367449D01*
X155869690Y-108406132D01*
X155860198Y-108437423D01*
X155844783Y-108466263D01*
X155824039Y-108491539D01*
X155798763Y-108512283D01*
X155769923Y-108527698D01*
X155738632Y-108537190D01*
X155699949Y-108541000D01*
X153870051Y-108541000D01*
X153826458Y-108536706D01*
X153812044Y-108533840D01*
X153787540Y-108533842D01*
X153763507Y-108538624D01*
X153740869Y-108548003D01*
X153720496Y-108561618D01*
X153703170Y-108578946D01*
X153689558Y-108599322D01*
X153680182Y-108621961D01*
X153675403Y-108645995D01*
X153675405Y-108670499D01*
X153680187Y-108694532D01*
X153695866Y-108727680D01*
X153863097Y-108977958D01*
X153987553Y-109278421D01*
X154051000Y-109597391D01*
X154051000Y-109922609D01*
X153987553Y-110241579D01*
X153863097Y-110542042D01*
X153682415Y-110812451D01*
X153452451Y-111042415D01*
X153182042Y-111223097D01*
X152881579Y-111347553D01*
X152775256Y-111368702D01*
X152562611Y-111411000D01*
X152237389Y-111411000D01*
X152024744Y-111368702D01*
X151918421Y-111347553D01*
X151617958Y-111223097D01*
X151347549Y-111042415D01*
X151117585Y-110812451D01*
X150936903Y-110542042D01*
X150812447Y-110241579D01*
X150749000Y-109922609D01*
X150749000Y-109597391D01*
X150812447Y-109278421D01*
X150936903Y-108977958D01*
X151117585Y-108707549D01*
X151347549Y-108477585D01*
X151617958Y-108296903D01*
X151918421Y-108172447D01*
X152024744Y-108151298D01*
X152237389Y-108109000D01*
X152562611Y-108109000D01*
X152775256Y-108151298D01*
X152881579Y-108172447D01*
X153182042Y-108296903D01*
X153452451Y-108477585D01*
X153488175Y-108513309D01*
X153507111Y-108528849D01*
X153528722Y-108540400D01*
X153552171Y-108547513D01*
X153576557Y-108549915D01*
X153600943Y-108547513D01*
X153624392Y-108540400D01*
X153646003Y-108528849D01*
X153664945Y-108513304D01*
X153680490Y-108494362D01*
X153692041Y-108472751D01*
X153699154Y-108449302D01*
X153701556Y-108424916D01*
X153700954Y-108412662D01*
X153696500Y-108367447D01*
X153696500Y-106262551D01*
X153700310Y-106223868D01*
X153709802Y-106192577D01*
X153725217Y-106163737D01*
X153745961Y-106138461D01*
X153771237Y-106117717D01*
X153800077Y-106102302D01*
X153831368Y-106092810D01*
X153870051Y-106089000D01*
X155699949Y-106089000D01*
X155738632Y-106092810D01*
G37*
G36*
X158275256Y-105451298D02*
G01*
X158381579Y-105472447D01*
X158682042Y-105596903D01*
X158952451Y-105777585D01*
X159182415Y-106007549D01*
X159306047Y-106192577D01*
X159363098Y-106277960D01*
X159487553Y-106578422D01*
X159551000Y-106897389D01*
X159551000Y-107222611D01*
X159539727Y-107279284D01*
X159487553Y-107541579D01*
X159363097Y-107842042D01*
X159182415Y-108112451D01*
X158952451Y-108342415D01*
X158682042Y-108523097D01*
X158682041Y-108523098D01*
X158682040Y-108523098D01*
X158623097Y-108547513D01*
X158381579Y-108647553D01*
X158275256Y-108668702D01*
X158062611Y-108711000D01*
X157737389Y-108711000D01*
X157524744Y-108668702D01*
X157418421Y-108647553D01*
X157176903Y-108547513D01*
X157117960Y-108523098D01*
X157117959Y-108523098D01*
X157117958Y-108523097D01*
X156847549Y-108342415D01*
X156617585Y-108112451D01*
X156436903Y-107842042D01*
X156312447Y-107541579D01*
X156260273Y-107279284D01*
X156249000Y-107222611D01*
X156249000Y-106897389D01*
X156312447Y-106578422D01*
X156436902Y-106277960D01*
X156493953Y-106192577D01*
X156617585Y-106007549D01*
X156847549Y-105777585D01*
X157117958Y-105596903D01*
X157418421Y-105472447D01*
X157524744Y-105451298D01*
X157737389Y-105409000D01*
X158062611Y-105409000D01*
X158275256Y-105451298D01*
G37*
G36*
X147275256Y-105451298D02*
G01*
X147381579Y-105472447D01*
X147682042Y-105596903D01*
X147952451Y-105777585D01*
X148182415Y-106007549D01*
X148306047Y-106192577D01*
X148363098Y-106277960D01*
X148487553Y-106578422D01*
X148523904Y-106761169D01*
X148531017Y-106784618D01*
X148542568Y-106806229D01*
X148558113Y-106825171D01*
X148577055Y-106840716D01*
X148598666Y-106852267D01*
X148622115Y-106859380D01*
X148646501Y-106861782D01*
X148670887Y-106859380D01*
X148694336Y-106852267D01*
X148715947Y-106840716D01*
X148734889Y-106825171D01*
X148750434Y-106806229D01*
X148761985Y-106784618D01*
X148769098Y-106761169D01*
X148771500Y-106736783D01*
X148771500Y-106262551D01*
X148775310Y-106223868D01*
X148784802Y-106192577D01*
X148800217Y-106163737D01*
X148820961Y-106138461D01*
X148846237Y-106117717D01*
X148875077Y-106102302D01*
X148906368Y-106092810D01*
X148945051Y-106089000D01*
X150774949Y-106089000D01*
X150813632Y-106092810D01*
X150844923Y-106102302D01*
X150873763Y-106117717D01*
X150899039Y-106138461D01*
X150919783Y-106163737D01*
X150935198Y-106192577D01*
X150944690Y-106223868D01*
X150948500Y-106262551D01*
X150948500Y-108367449D01*
X150944690Y-108406132D01*
X150935198Y-108437423D01*
X150919783Y-108466263D01*
X150899039Y-108491539D01*
X150873763Y-108512283D01*
X150844923Y-108527698D01*
X150813632Y-108537190D01*
X150774949Y-108541000D01*
X148945051Y-108541000D01*
X148906368Y-108537190D01*
X148875077Y-108527698D01*
X148846237Y-108512283D01*
X148820961Y-108491539D01*
X148800217Y-108466263D01*
X148784802Y-108437423D01*
X148775310Y-108406132D01*
X148771500Y-108367449D01*
X148771500Y-107383217D01*
X148769098Y-107358831D01*
X148761985Y-107335382D01*
X148750434Y-107313771D01*
X148734889Y-107294829D01*
X148715947Y-107279284D01*
X148694336Y-107267733D01*
X148670887Y-107260620D01*
X148646501Y-107258218D01*
X148622115Y-107260620D01*
X148598666Y-107267733D01*
X148577055Y-107279284D01*
X148558113Y-107294829D01*
X148542568Y-107313771D01*
X148531017Y-107335382D01*
X148523904Y-107358831D01*
X148487553Y-107541579D01*
X148363097Y-107842042D01*
X148182415Y-108112451D01*
X147952451Y-108342415D01*
X147682042Y-108523097D01*
X147682041Y-108523098D01*
X147682040Y-108523098D01*
X147623097Y-108547513D01*
X147381579Y-108647553D01*
X147275256Y-108668702D01*
X147062611Y-108711000D01*
X146737389Y-108711000D01*
X146524744Y-108668702D01*
X146418421Y-108647553D01*
X146176903Y-108547513D01*
X146117960Y-108523098D01*
X146117959Y-108523098D01*
X146117958Y-108523097D01*
X145847549Y-108342415D01*
X145617585Y-108112451D01*
X145436903Y-107842042D01*
X145312447Y-107541579D01*
X145260273Y-107279284D01*
X145249000Y-107222611D01*
X145249000Y-106897389D01*
X145312447Y-106578422D01*
X145436902Y-106277960D01*
X145493953Y-106192577D01*
X145617585Y-106007549D01*
X145847549Y-105777585D01*
X146117958Y-105596903D01*
X146418421Y-105472447D01*
X146524744Y-105451298D01*
X146737389Y-105409000D01*
X147062611Y-105409000D01*
X147275256Y-105451298D01*
G37*
G36*
X151525562Y-103218181D02*
G01*
X151560481Y-103228774D01*
X151592663Y-103245976D01*
X151620873Y-103269127D01*
X151644024Y-103297337D01*
X151661226Y-103329519D01*
X151671819Y-103364438D01*
X151676000Y-103406895D01*
X151676000Y-104873105D01*
X151671819Y-104915562D01*
X151661226Y-104950481D01*
X151644024Y-104982663D01*
X151620873Y-105010873D01*
X151592663Y-105034024D01*
X151560481Y-105051226D01*
X151525562Y-105061819D01*
X151483105Y-105066000D01*
X150341895Y-105066000D01*
X150299438Y-105061819D01*
X150264519Y-105051226D01*
X150232337Y-105034024D01*
X150204127Y-105010873D01*
X150180976Y-104982663D01*
X150163774Y-104950481D01*
X150153181Y-104915562D01*
X150149000Y-104873105D01*
X150149000Y-103406895D01*
X150153181Y-103364438D01*
X150163774Y-103329519D01*
X150180976Y-103297337D01*
X150204127Y-103269127D01*
X150232337Y-103245976D01*
X150264519Y-103228774D01*
X150299438Y-103218181D01*
X150341895Y-103214000D01*
X151483105Y-103214000D01*
X151525562Y-103218181D01*
G37*
G36*
X154500562Y-103218181D02*
G01*
X154535481Y-103228774D01*
X154567663Y-103245976D01*
X154595873Y-103269127D01*
X154619024Y-103297337D01*
X154636226Y-103329519D01*
X154646819Y-103364438D01*
X154651000Y-103406895D01*
X154651000Y-104873105D01*
X154646819Y-104915562D01*
X154636226Y-104950481D01*
X154619024Y-104982663D01*
X154595873Y-105010873D01*
X154567663Y-105034024D01*
X154535481Y-105051226D01*
X154500562Y-105061819D01*
X154458105Y-105066000D01*
X153316895Y-105066000D01*
X153274438Y-105061819D01*
X153239519Y-105051226D01*
X153207337Y-105034024D01*
X153179127Y-105010873D01*
X153155976Y-104982663D01*
X153138774Y-104950481D01*
X153128181Y-104915562D01*
X153124000Y-104873105D01*
X153124000Y-103406895D01*
X153128181Y-103364438D01*
X153138774Y-103329519D01*
X153155976Y-103297337D01*
X153179127Y-103269127D01*
X153207337Y-103245976D01*
X153239519Y-103228774D01*
X153274438Y-103218181D01*
X153316895Y-103214000D01*
X154458105Y-103214000D01*
X154500562Y-103218181D01*
G37*
G36*
X157061000Y-104991000D02*
G01*
X155359000Y-104991000D01*
X155359000Y-103289000D01*
X157061000Y-103289000D01*
X157061000Y-104991000D01*
G37*
G36*
X148838228Y-103321703D02*
G01*
X148993100Y-103385853D01*
X149132481Y-103478985D01*
X149251015Y-103597519D01*
X149344147Y-103736900D01*
X149408297Y-103891772D01*
X149441000Y-104056184D01*
X149441000Y-104223816D01*
X149408297Y-104388228D01*
X149344147Y-104543100D01*
X149251015Y-104682481D01*
X149132481Y-104801015D01*
X148993100Y-104894147D01*
X148838228Y-104958297D01*
X148673816Y-104991000D01*
X148506184Y-104991000D01*
X148341772Y-104958297D01*
X148186900Y-104894147D01*
X148047519Y-104801015D01*
X147928985Y-104682481D01*
X147835853Y-104543100D01*
X147771703Y-104388228D01*
X147739000Y-104223816D01*
X147739000Y-104056184D01*
X147771703Y-103891772D01*
X147835853Y-103736900D01*
X147928985Y-103597519D01*
X148047519Y-103478985D01*
X148186900Y-103385853D01*
X148341772Y-103321703D01*
X148506184Y-103289000D01*
X148673816Y-103289000D01*
X148838228Y-103321703D01*
G37*
G36*
X159525562Y-103180681D02*
G01*
X159560481Y-103191274D01*
X159592663Y-103208476D01*
X159620873Y-103231627D01*
X159644024Y-103259837D01*
X159661226Y-103292019D01*
X159671819Y-103326938D01*
X159676000Y-103369395D01*
X159676000Y-104510605D01*
X159671819Y-104553062D01*
X159661226Y-104587981D01*
X159644024Y-104620163D01*
X159620873Y-104648373D01*
X159592663Y-104671524D01*
X159560481Y-104688726D01*
X159525562Y-104699319D01*
X159483105Y-104703500D01*
X158016895Y-104703500D01*
X157974438Y-104699319D01*
X157939519Y-104688726D01*
X157907337Y-104671524D01*
X157879127Y-104648373D01*
X157855976Y-104620163D01*
X157838774Y-104587981D01*
X157828181Y-104553062D01*
X157824000Y-104510605D01*
X157824000Y-103369395D01*
X157828181Y-103326938D01*
X157838774Y-103292019D01*
X157855976Y-103259837D01*
X157879127Y-103231627D01*
X157907337Y-103208476D01*
X157939519Y-103191274D01*
X157974438Y-103180681D01*
X158016895Y-103176500D01*
X159483105Y-103176500D01*
X159525562Y-103180681D01*
G37*
G36*
X146601000Y-104501000D02*
G01*
X145499000Y-104501000D01*
X145499000Y-102849000D01*
X146601000Y-102849000D01*
X146601000Y-104501000D01*
G37*
G36*
X144901000Y-104501000D02*
G01*
X143799000Y-104501000D01*
X143799000Y-102849000D01*
X144901000Y-102849000D01*
X144901000Y-104501000D01*
G37*
G36*
X156458228Y-100781703D02*
G01*
X156613100Y-100845853D01*
X156752481Y-100938985D01*
X156871015Y-101057519D01*
X156964147Y-101196900D01*
X157028297Y-101351772D01*
X157061000Y-101516184D01*
X157061000Y-101683816D01*
X157028297Y-101848228D01*
X156964147Y-102003100D01*
X156871015Y-102142481D01*
X156752481Y-102261015D01*
X156613100Y-102354147D01*
X156458228Y-102418297D01*
X156293816Y-102451000D01*
X156126184Y-102451000D01*
X155961772Y-102418297D01*
X155806900Y-102354147D01*
X155667519Y-102261015D01*
X155548985Y-102142481D01*
X155455853Y-102003100D01*
X155391703Y-101848228D01*
X155359000Y-101683816D01*
X155359000Y-101516184D01*
X155391703Y-101351772D01*
X155455853Y-101196900D01*
X155548985Y-101057519D01*
X155667519Y-100938985D01*
X155806900Y-100845853D01*
X155961772Y-100781703D01*
X156126184Y-100749000D01*
X156293816Y-100749000D01*
X156458228Y-100781703D01*
G37*
G36*
X148838228Y-100781703D02*
G01*
X148993100Y-100845853D01*
X149132481Y-100938985D01*
X149251015Y-101057519D01*
X149344147Y-101196900D01*
X149408297Y-101351772D01*
X149441000Y-101516184D01*
X149441000Y-101683816D01*
X149408297Y-101848228D01*
X149344147Y-102003100D01*
X149251015Y-102142481D01*
X149132481Y-102261015D01*
X148993100Y-102354147D01*
X148838228Y-102418297D01*
X148673816Y-102451000D01*
X148506184Y-102451000D01*
X148341772Y-102418297D01*
X148186900Y-102354147D01*
X148047519Y-102261015D01*
X147928985Y-102142481D01*
X147835853Y-102003100D01*
X147771703Y-101848228D01*
X147739000Y-101683816D01*
X147739000Y-101516184D01*
X147771703Y-101351772D01*
X147835853Y-101196900D01*
X147928985Y-101057519D01*
X148047519Y-100938985D01*
X148186900Y-100845853D01*
X148341772Y-100781703D01*
X148506184Y-100749000D01*
X148673816Y-100749000D01*
X148838228Y-100781703D01*
G37*
G36*
X159525562Y-100205681D02*
G01*
X159560481Y-100216274D01*
X159592663Y-100233476D01*
X159620873Y-100256627D01*
X159644024Y-100284837D01*
X159661226Y-100317019D01*
X159671819Y-100351938D01*
X159676000Y-100394395D01*
X159676000Y-101535605D01*
X159671819Y-101578062D01*
X159661226Y-101612981D01*
X159644024Y-101645163D01*
X159620873Y-101673373D01*
X159592663Y-101696524D01*
X159560481Y-101713726D01*
X159525562Y-101724319D01*
X159483105Y-101728500D01*
X158016895Y-101728500D01*
X157974438Y-101724319D01*
X157939519Y-101713726D01*
X157907337Y-101696524D01*
X157879127Y-101673373D01*
X157855976Y-101645163D01*
X157838774Y-101612981D01*
X157828181Y-101578062D01*
X157824000Y-101535605D01*
X157824000Y-100394395D01*
X157828181Y-100351938D01*
X157838774Y-100317019D01*
X157855976Y-100284837D01*
X157879127Y-100256627D01*
X157907337Y-100233476D01*
X157939519Y-100216274D01*
X157974438Y-100205681D01*
X158016895Y-100201500D01*
X159483105Y-100201500D01*
X159525562Y-100205681D01*
G37*
G36*
X148838228Y-98241703D02*
G01*
X148993100Y-98305853D01*
X149132481Y-98398985D01*
X149251015Y-98517519D01*
X149344147Y-98656900D01*
X149408297Y-98811772D01*
X149441000Y-98976184D01*
X149441000Y-99143816D01*
X149408297Y-99308228D01*
X149344147Y-99463100D01*
X149251015Y-99602481D01*
X149132481Y-99721015D01*
X148993100Y-99814147D01*
X148838228Y-99878297D01*
X148673816Y-99911000D01*
X148506184Y-99911000D01*
X148341772Y-99878297D01*
X148186900Y-99814147D01*
X148047519Y-99721015D01*
X147928985Y-99602481D01*
X147835853Y-99463100D01*
X147771703Y-99308228D01*
X147739000Y-99143816D01*
X147739000Y-98976184D01*
X147771703Y-98811772D01*
X147835853Y-98656900D01*
X147928985Y-98517519D01*
X148047519Y-98398985D01*
X148186900Y-98305853D01*
X148341772Y-98241703D01*
X148506184Y-98209000D01*
X148673816Y-98209000D01*
X148838228Y-98241703D01*
G37*
G36*
X156458228Y-98241703D02*
G01*
X156613100Y-98305853D01*
X156752481Y-98398985D01*
X156871015Y-98517519D01*
X156964147Y-98656900D01*
X157028297Y-98811772D01*
X157061000Y-98976184D01*
X157061000Y-99143816D01*
X157028297Y-99308228D01*
X156964147Y-99463100D01*
X156871015Y-99602481D01*
X156752481Y-99721015D01*
X156613100Y-99814147D01*
X156458228Y-99878297D01*
X156293816Y-99911000D01*
X156126184Y-99911000D01*
X155961772Y-99878297D01*
X155806900Y-99814147D01*
X155667519Y-99721015D01*
X155548985Y-99602481D01*
X155455853Y-99463100D01*
X155391703Y-99308228D01*
X155359000Y-99143816D01*
X155359000Y-98976184D01*
X155391703Y-98811772D01*
X155455853Y-98656900D01*
X155548985Y-98517519D01*
X155667519Y-98398985D01*
X155806900Y-98305853D01*
X155961772Y-98241703D01*
X156126184Y-98209000D01*
X156293816Y-98209000D01*
X156458228Y-98241703D01*
G37*
G36*
X159525562Y-98100681D02*
G01*
X159560481Y-98111274D01*
X159592663Y-98128476D01*
X159620873Y-98151627D01*
X159644024Y-98179837D01*
X159661226Y-98212019D01*
X159671819Y-98246938D01*
X159676000Y-98289395D01*
X159676000Y-99430605D01*
X159671819Y-99473062D01*
X159661226Y-99507981D01*
X159644024Y-99540163D01*
X159620873Y-99568373D01*
X159592663Y-99591524D01*
X159560481Y-99608726D01*
X159525562Y-99619319D01*
X159483105Y-99623500D01*
X158016895Y-99623500D01*
X157974438Y-99619319D01*
X157939519Y-99608726D01*
X157907337Y-99591524D01*
X157879127Y-99568373D01*
X157855976Y-99540163D01*
X157838774Y-99507981D01*
X157828181Y-99473062D01*
X157824000Y-99430605D01*
X157824000Y-98289395D01*
X157828181Y-98246938D01*
X157838774Y-98212019D01*
X157855976Y-98179837D01*
X157879127Y-98151627D01*
X157907337Y-98128476D01*
X157939519Y-98111274D01*
X157974438Y-98100681D01*
X158016895Y-98096500D01*
X159483105Y-98096500D01*
X159525562Y-98100681D01*
G37*
G36*
X146601000Y-99251000D02*
G01*
X145499000Y-99251000D01*
X145499000Y-97599000D01*
X146601000Y-97599000D01*
X146601000Y-99251000D01*
G37*
G36*
X144901000Y-99251000D02*
G01*
X143799000Y-99251000D01*
X143799000Y-97599000D01*
X144901000Y-97599000D01*
X144901000Y-99251000D01*
G37*
G36*
X148838228Y-95701703D02*
G01*
X148993100Y-95765853D01*
X149132481Y-95858985D01*
X149251015Y-95977519D01*
X149344147Y-96116900D01*
X149408297Y-96271772D01*
X149441000Y-96436184D01*
X149441000Y-96603816D01*
X149408297Y-96768228D01*
X149344147Y-96923100D01*
X149251015Y-97062481D01*
X149132481Y-97181015D01*
X148993100Y-97274147D01*
X148838228Y-97338297D01*
X148673816Y-97371000D01*
X148506184Y-97371000D01*
X148341772Y-97338297D01*
X148186900Y-97274147D01*
X148047519Y-97181015D01*
X147928985Y-97062481D01*
X147835853Y-96923100D01*
X147771703Y-96768228D01*
X147739000Y-96603816D01*
X147739000Y-96436184D01*
X147771703Y-96271772D01*
X147835853Y-96116900D01*
X147928985Y-95977519D01*
X148047519Y-95858985D01*
X148186900Y-95765853D01*
X148341772Y-95701703D01*
X148506184Y-95669000D01*
X148673816Y-95669000D01*
X148838228Y-95701703D01*
G37*
G36*
X156458228Y-95701703D02*
G01*
X156613100Y-95765853D01*
X156752481Y-95858985D01*
X156871015Y-95977519D01*
X156964147Y-96116900D01*
X157028297Y-96271772D01*
X157061000Y-96436184D01*
X157061000Y-96603816D01*
X157028297Y-96768228D01*
X156964147Y-96923100D01*
X156871015Y-97062481D01*
X156752481Y-97181015D01*
X156613100Y-97274147D01*
X156458228Y-97338297D01*
X156293816Y-97371000D01*
X156126184Y-97371000D01*
X155961772Y-97338297D01*
X155806900Y-97274147D01*
X155667519Y-97181015D01*
X155548985Y-97062481D01*
X155455853Y-96923100D01*
X155391703Y-96768228D01*
X155359000Y-96603816D01*
X155359000Y-96436184D01*
X155391703Y-96271772D01*
X155455853Y-96116900D01*
X155548985Y-95977519D01*
X155667519Y-95858985D01*
X155806900Y-95765853D01*
X155961772Y-95701703D01*
X156126184Y-95669000D01*
X156293816Y-95669000D01*
X156458228Y-95701703D01*
G37*
G36*
X159525562Y-95125681D02*
G01*
X159560481Y-95136274D01*
X159592663Y-95153476D01*
X159620873Y-95176627D01*
X159644024Y-95204837D01*
X159661226Y-95237019D01*
X159671819Y-95271938D01*
X159676000Y-95314395D01*
X159676000Y-96455605D01*
X159671819Y-96498062D01*
X159661226Y-96532981D01*
X159644024Y-96565163D01*
X159620873Y-96593373D01*
X159592663Y-96616524D01*
X159560481Y-96633726D01*
X159525562Y-96644319D01*
X159483105Y-96648500D01*
X158016895Y-96648500D01*
X157974438Y-96644319D01*
X157939519Y-96633726D01*
X157907337Y-96616524D01*
X157879127Y-96593373D01*
X157855976Y-96565163D01*
X157838774Y-96532981D01*
X157828181Y-96498062D01*
X157824000Y-96455605D01*
X157824000Y-95314395D01*
X157828181Y-95271938D01*
X157838774Y-95237019D01*
X157855976Y-95204837D01*
X157879127Y-95176627D01*
X157907337Y-95153476D01*
X157939519Y-95136274D01*
X157974438Y-95125681D01*
X158016895Y-95121500D01*
X159483105Y-95121500D01*
X159525562Y-95125681D01*
G37*
G36*
X154059473Y-92815413D02*
G01*
X154155040Y-92824825D01*
X154400280Y-92899218D01*
X154626294Y-93020025D01*
X154677899Y-93062376D01*
X154824397Y-93182603D01*
X154944624Y-93329101D01*
X154986975Y-93380706D01*
X155107782Y-93606720D01*
X155182175Y-93851960D01*
X155207294Y-94107000D01*
X155182175Y-94362040D01*
X155107782Y-94607280D01*
X154986975Y-94833294D01*
X154944624Y-94884899D01*
X154824397Y-95031397D01*
X154689757Y-95141892D01*
X154626294Y-95193975D01*
X154626292Y-95193976D01*
X154452489Y-95286876D01*
X154400280Y-95314782D01*
X154155040Y-95389175D01*
X154059473Y-95398587D01*
X153963906Y-95408000D01*
X150836094Y-95408000D01*
X150740527Y-95398587D01*
X150644960Y-95389175D01*
X150399720Y-95314782D01*
X150347512Y-95286876D01*
X150173708Y-95193976D01*
X150173706Y-95193975D01*
X150110243Y-95141892D01*
X149975603Y-95031397D01*
X149855376Y-94884899D01*
X149813025Y-94833294D01*
X149692218Y-94607280D01*
X149617825Y-94362040D01*
X149592706Y-94107000D01*
X149617825Y-93851960D01*
X149692218Y-93606720D01*
X149813025Y-93380706D01*
X149855376Y-93329101D01*
X149975603Y-93182603D01*
X150122101Y-93062376D01*
X150173706Y-93020025D01*
X150399720Y-92899218D01*
X150644960Y-92824825D01*
X150740527Y-92815413D01*
X150836094Y-92806000D01*
X153963906Y-92806000D01*
X154059473Y-92815413D01*
G37*
M02*
