G04 #@! TF.GenerationSoftware,KiCad,Pcbnew,(5.1.5)-3*
G04 #@! TF.CreationDate,2020-03-17T17:19:56+01:00*
G04 #@! TF.ProjectId,Capteur_Hall_I2C,43617074-6575-4725-9f48-616c6c5f4932,0.1*
G04 #@! TF.SameCoordinates,Original*
G04 #@! TF.FileFunction,Other,Fab,Top*
%FSLAX46Y46*%
G04 Gerber Fmt 4.6, Leading zero omitted, Abs format (unit mm)*
G04 Created by KiCad (PCBNEW (5.1.5)-3) date 2020-03-17 17:19:56*
%MOMM*%
%LPD*%
G04 APERTURE LIST*
%ADD10C,0.150000*%
%ADD11C,0.100000*%
%ADD12C,0.120000*%
G04 APERTURE END LIST*
D10*
X170152380Y-98727142D02*
X170200000Y-98774761D01*
X170247619Y-98870000D01*
X170247619Y-99108095D01*
X170200000Y-99203333D01*
X170152380Y-99250952D01*
X170057142Y-99298571D01*
X169961904Y-99298571D01*
X169819047Y-99250952D01*
X169247619Y-98679523D01*
X169247619Y-99298571D01*
X170152380Y-99679523D02*
X170200000Y-99727142D01*
X170247619Y-99822380D01*
X170247619Y-100060476D01*
X170200000Y-100155714D01*
X170152380Y-100203333D01*
X170057142Y-100250952D01*
X169961904Y-100250952D01*
X169819047Y-100203333D01*
X169247619Y-99631904D01*
X169247619Y-100250952D01*
X169295238Y-100727142D02*
X169247619Y-100727142D01*
X169152380Y-100679523D01*
X169104761Y-100631904D01*
X170247619Y-101346190D02*
X170247619Y-101441428D01*
X170200000Y-101536666D01*
X170152380Y-101584285D01*
X170057142Y-101631904D01*
X169866666Y-101679523D01*
X169628571Y-101679523D01*
X169438095Y-101631904D01*
X169342857Y-101584285D01*
X169295238Y-101536666D01*
X169247619Y-101441428D01*
X169247619Y-101346190D01*
X169295238Y-101250952D01*
X169342857Y-101203333D01*
X169438095Y-101155714D01*
X169628571Y-101108095D01*
X169866666Y-101108095D01*
X170057142Y-101155714D01*
X170152380Y-101203333D01*
X170200000Y-101250952D01*
X170247619Y-101346190D01*
X170247619Y-102298571D02*
X170247619Y-102393809D01*
X170200000Y-102489047D01*
X170152380Y-102536666D01*
X170057142Y-102584285D01*
X169866666Y-102631904D01*
X169628571Y-102631904D01*
X169438095Y-102584285D01*
X169342857Y-102536666D01*
X169295238Y-102489047D01*
X169247619Y-102393809D01*
X169247619Y-102298571D01*
X169295238Y-102203333D01*
X169342857Y-102155714D01*
X169438095Y-102108095D01*
X169628571Y-102060476D01*
X169866666Y-102060476D01*
X170057142Y-102108095D01*
X170152380Y-102155714D01*
X170200000Y-102203333D01*
X170247619Y-102298571D01*
X170247619Y-103250952D02*
X170247619Y-103346190D01*
X170200000Y-103441428D01*
X170152380Y-103489047D01*
X170057142Y-103536666D01*
X169866666Y-103584285D01*
X169628571Y-103584285D01*
X169438095Y-103536666D01*
X169342857Y-103489047D01*
X169295238Y-103441428D01*
X169247619Y-103346190D01*
X169247619Y-103250952D01*
X169295238Y-103155714D01*
X169342857Y-103108095D01*
X169438095Y-103060476D01*
X169628571Y-103012857D01*
X169866666Y-103012857D01*
X170057142Y-103060476D01*
X170152380Y-103108095D01*
X170200000Y-103155714D01*
X170247619Y-103250952D01*
X169247619Y-104774761D02*
X169914285Y-104774761D01*
X169819047Y-104774761D02*
X169866666Y-104822380D01*
X169914285Y-104917619D01*
X169914285Y-105060476D01*
X169866666Y-105155714D01*
X169771428Y-105203333D01*
X169247619Y-105203333D01*
X169771428Y-105203333D02*
X169866666Y-105250952D01*
X169914285Y-105346190D01*
X169914285Y-105489047D01*
X169866666Y-105584285D01*
X169771428Y-105631904D01*
X169247619Y-105631904D01*
X169247619Y-106108095D02*
X169914285Y-106108095D01*
X169819047Y-106108095D02*
X169866666Y-106155714D01*
X169914285Y-106250952D01*
X169914285Y-106393809D01*
X169866666Y-106489047D01*
X169771428Y-106536666D01*
X169247619Y-106536666D01*
X169771428Y-106536666D02*
X169866666Y-106584285D01*
X169914285Y-106679523D01*
X169914285Y-106822380D01*
X169866666Y-106917619D01*
X169771428Y-106965238D01*
X169247619Y-106965238D01*
X168400000Y-91870000D02*
X168400000Y-113870000D01*
X152400000Y-91870000D02*
X168986421Y-91870000D01*
X152400000Y-113870000D02*
X168986421Y-113870000D01*
X168400000Y-113870000D02*
X167813579Y-112743496D01*
X168400000Y-113870000D02*
X168986421Y-112743496D01*
X168400000Y-91870000D02*
X167813579Y-92996504D01*
X168400000Y-91870000D02*
X168986421Y-92996504D01*
X166247619Y-104798571D02*
X166247619Y-104227142D01*
X166247619Y-104512857D02*
X167247619Y-104512857D01*
X167104761Y-104417619D01*
X167009523Y-104322380D01*
X166961904Y-104227142D01*
X166247619Y-105750952D02*
X166247619Y-105179523D01*
X166247619Y-105465238D02*
X167247619Y-105465238D01*
X167104761Y-105370000D01*
X167009523Y-105274761D01*
X166961904Y-105179523D01*
X166295238Y-106227142D02*
X166247619Y-106227142D01*
X166152380Y-106179523D01*
X166104761Y-106131904D01*
X167247619Y-106846190D02*
X167247619Y-106941428D01*
X167200000Y-107036666D01*
X167152380Y-107084285D01*
X167057142Y-107131904D01*
X166866666Y-107179523D01*
X166628571Y-107179523D01*
X166438095Y-107131904D01*
X166342857Y-107084285D01*
X166295238Y-107036666D01*
X166247619Y-106941428D01*
X166247619Y-106846190D01*
X166295238Y-106750952D01*
X166342857Y-106703333D01*
X166438095Y-106655714D01*
X166628571Y-106608095D01*
X166866666Y-106608095D01*
X167057142Y-106655714D01*
X167152380Y-106703333D01*
X167200000Y-106750952D01*
X167247619Y-106846190D01*
X167247619Y-107798571D02*
X167247619Y-107893809D01*
X167200000Y-107989047D01*
X167152380Y-108036666D01*
X167057142Y-108084285D01*
X166866666Y-108131904D01*
X166628571Y-108131904D01*
X166438095Y-108084285D01*
X166342857Y-108036666D01*
X166295238Y-107989047D01*
X166247619Y-107893809D01*
X166247619Y-107798571D01*
X166295238Y-107703333D01*
X166342857Y-107655714D01*
X166438095Y-107608095D01*
X166628571Y-107560476D01*
X166866666Y-107560476D01*
X167057142Y-107608095D01*
X167152380Y-107655714D01*
X167200000Y-107703333D01*
X167247619Y-107798571D01*
X167247619Y-108750952D02*
X167247619Y-108846190D01*
X167200000Y-108941428D01*
X167152380Y-108989047D01*
X167057142Y-109036666D01*
X166866666Y-109084285D01*
X166628571Y-109084285D01*
X166438095Y-109036666D01*
X166342857Y-108989047D01*
X166295238Y-108941428D01*
X166247619Y-108846190D01*
X166247619Y-108750952D01*
X166295238Y-108655714D01*
X166342857Y-108608095D01*
X166438095Y-108560476D01*
X166628571Y-108512857D01*
X166866666Y-108512857D01*
X167057142Y-108560476D01*
X167152380Y-108608095D01*
X167200000Y-108655714D01*
X167247619Y-108750952D01*
X166247619Y-110274761D02*
X166914285Y-110274761D01*
X166819047Y-110274761D02*
X166866666Y-110322380D01*
X166914285Y-110417619D01*
X166914285Y-110560476D01*
X166866666Y-110655714D01*
X166771428Y-110703333D01*
X166247619Y-110703333D01*
X166771428Y-110703333D02*
X166866666Y-110750952D01*
X166914285Y-110846190D01*
X166914285Y-110989047D01*
X166866666Y-111084285D01*
X166771428Y-111131904D01*
X166247619Y-111131904D01*
X166247619Y-111608095D02*
X166914285Y-111608095D01*
X166819047Y-111608095D02*
X166866666Y-111655714D01*
X166914285Y-111750952D01*
X166914285Y-111893809D01*
X166866666Y-111989047D01*
X166771428Y-112036666D01*
X166247619Y-112036666D01*
X166771428Y-112036666D02*
X166866666Y-112084285D01*
X166914285Y-112179523D01*
X166914285Y-112322380D01*
X166866666Y-112417619D01*
X166771428Y-112465238D01*
X166247619Y-112465238D01*
X165400000Y-102870000D02*
X165400000Y-113870000D01*
X152400000Y-102870000D02*
X165986421Y-102870000D01*
X152400000Y-113870000D02*
X165986421Y-113870000D01*
X165400000Y-113870000D02*
X164813579Y-112743496D01*
X165400000Y-113870000D02*
X165986421Y-112743496D01*
X165400000Y-102870000D02*
X164813579Y-103996504D01*
X165400000Y-102870000D02*
X165986421Y-103996504D01*
X148257142Y-119717619D02*
X148304761Y-119670000D01*
X148400000Y-119622380D01*
X148638095Y-119622380D01*
X148733333Y-119670000D01*
X148780952Y-119717619D01*
X148828571Y-119812857D01*
X148828571Y-119908095D01*
X148780952Y-120050952D01*
X148209523Y-120622380D01*
X148828571Y-120622380D01*
X149209523Y-119717619D02*
X149257142Y-119670000D01*
X149352380Y-119622380D01*
X149590476Y-119622380D01*
X149685714Y-119670000D01*
X149733333Y-119717619D01*
X149780952Y-119812857D01*
X149780952Y-119908095D01*
X149733333Y-120050952D01*
X149161904Y-120622380D01*
X149780952Y-120622380D01*
X150257142Y-120574761D02*
X150257142Y-120622380D01*
X150209523Y-120717619D01*
X150161904Y-120765238D01*
X150876190Y-119622380D02*
X150971428Y-119622380D01*
X151066666Y-119670000D01*
X151114285Y-119717619D01*
X151161904Y-119812857D01*
X151209523Y-120003333D01*
X151209523Y-120241428D01*
X151161904Y-120431904D01*
X151114285Y-120527142D01*
X151066666Y-120574761D01*
X150971428Y-120622380D01*
X150876190Y-120622380D01*
X150780952Y-120574761D01*
X150733333Y-120527142D01*
X150685714Y-120431904D01*
X150638095Y-120241428D01*
X150638095Y-120003333D01*
X150685714Y-119812857D01*
X150733333Y-119717619D01*
X150780952Y-119670000D01*
X150876190Y-119622380D01*
X151828571Y-119622380D02*
X151923809Y-119622380D01*
X152019047Y-119670000D01*
X152066666Y-119717619D01*
X152114285Y-119812857D01*
X152161904Y-120003333D01*
X152161904Y-120241428D01*
X152114285Y-120431904D01*
X152066666Y-120527142D01*
X152019047Y-120574761D01*
X151923809Y-120622380D01*
X151828571Y-120622380D01*
X151733333Y-120574761D01*
X151685714Y-120527142D01*
X151638095Y-120431904D01*
X151590476Y-120241428D01*
X151590476Y-120003333D01*
X151638095Y-119812857D01*
X151685714Y-119717619D01*
X151733333Y-119670000D01*
X151828571Y-119622380D01*
X152780952Y-119622380D02*
X152876190Y-119622380D01*
X152971428Y-119670000D01*
X153019047Y-119717619D01*
X153066666Y-119812857D01*
X153114285Y-120003333D01*
X153114285Y-120241428D01*
X153066666Y-120431904D01*
X153019047Y-120527142D01*
X152971428Y-120574761D01*
X152876190Y-120622380D01*
X152780952Y-120622380D01*
X152685714Y-120574761D01*
X152638095Y-120527142D01*
X152590476Y-120431904D01*
X152542857Y-120241428D01*
X152542857Y-120003333D01*
X152590476Y-119812857D01*
X152638095Y-119717619D01*
X152685714Y-119670000D01*
X152780952Y-119622380D01*
X154304761Y-120622380D02*
X154304761Y-119955714D01*
X154304761Y-120050952D02*
X154352380Y-120003333D01*
X154447619Y-119955714D01*
X154590476Y-119955714D01*
X154685714Y-120003333D01*
X154733333Y-120098571D01*
X154733333Y-120622380D01*
X154733333Y-120098571D02*
X154780952Y-120003333D01*
X154876190Y-119955714D01*
X155019047Y-119955714D01*
X155114285Y-120003333D01*
X155161904Y-120098571D01*
X155161904Y-120622380D01*
X155638095Y-120622380D02*
X155638095Y-119955714D01*
X155638095Y-120050952D02*
X155685714Y-120003333D01*
X155780952Y-119955714D01*
X155923809Y-119955714D01*
X156019047Y-120003333D01*
X156066666Y-120098571D01*
X156066666Y-120622380D01*
X156066666Y-120098571D02*
X156114285Y-120003333D01*
X156209523Y-119955714D01*
X156352380Y-119955714D01*
X156447619Y-120003333D01*
X156495238Y-120098571D01*
X156495238Y-120622380D01*
X141400000Y-118870000D02*
X163400000Y-118870000D01*
X141400000Y-102870000D02*
X141400000Y-119456421D01*
X163400000Y-102870000D02*
X163400000Y-119456421D01*
X163400000Y-118870000D02*
X162273496Y-119456421D01*
X163400000Y-118870000D02*
X162273496Y-118283579D01*
X141400000Y-118870000D02*
X142526504Y-119456421D01*
X141400000Y-118870000D02*
X142526504Y-118283579D01*
X154328571Y-117622380D02*
X153757142Y-117622380D01*
X154042857Y-117622380D02*
X154042857Y-116622380D01*
X153947619Y-116765238D01*
X153852380Y-116860476D01*
X153757142Y-116908095D01*
X155280952Y-117622380D02*
X154709523Y-117622380D01*
X154995238Y-117622380D02*
X154995238Y-116622380D01*
X154900000Y-116765238D01*
X154804761Y-116860476D01*
X154709523Y-116908095D01*
X155757142Y-117574761D02*
X155757142Y-117622380D01*
X155709523Y-117717619D01*
X155661904Y-117765238D01*
X156376190Y-116622380D02*
X156471428Y-116622380D01*
X156566666Y-116670000D01*
X156614285Y-116717619D01*
X156661904Y-116812857D01*
X156709523Y-117003333D01*
X156709523Y-117241428D01*
X156661904Y-117431904D01*
X156614285Y-117527142D01*
X156566666Y-117574761D01*
X156471428Y-117622380D01*
X156376190Y-117622380D01*
X156280952Y-117574761D01*
X156233333Y-117527142D01*
X156185714Y-117431904D01*
X156138095Y-117241428D01*
X156138095Y-117003333D01*
X156185714Y-116812857D01*
X156233333Y-116717619D01*
X156280952Y-116670000D01*
X156376190Y-116622380D01*
X157328571Y-116622380D02*
X157423809Y-116622380D01*
X157519047Y-116670000D01*
X157566666Y-116717619D01*
X157614285Y-116812857D01*
X157661904Y-117003333D01*
X157661904Y-117241428D01*
X157614285Y-117431904D01*
X157566666Y-117527142D01*
X157519047Y-117574761D01*
X157423809Y-117622380D01*
X157328571Y-117622380D01*
X157233333Y-117574761D01*
X157185714Y-117527142D01*
X157138095Y-117431904D01*
X157090476Y-117241428D01*
X157090476Y-117003333D01*
X157138095Y-116812857D01*
X157185714Y-116717619D01*
X157233333Y-116670000D01*
X157328571Y-116622380D01*
X158280952Y-116622380D02*
X158376190Y-116622380D01*
X158471428Y-116670000D01*
X158519047Y-116717619D01*
X158566666Y-116812857D01*
X158614285Y-117003333D01*
X158614285Y-117241428D01*
X158566666Y-117431904D01*
X158519047Y-117527142D01*
X158471428Y-117574761D01*
X158376190Y-117622380D01*
X158280952Y-117622380D01*
X158185714Y-117574761D01*
X158138095Y-117527142D01*
X158090476Y-117431904D01*
X158042857Y-117241428D01*
X158042857Y-117003333D01*
X158090476Y-116812857D01*
X158138095Y-116717619D01*
X158185714Y-116670000D01*
X158280952Y-116622380D01*
X159804761Y-117622380D02*
X159804761Y-116955714D01*
X159804761Y-117050952D02*
X159852380Y-117003333D01*
X159947619Y-116955714D01*
X160090476Y-116955714D01*
X160185714Y-117003333D01*
X160233333Y-117098571D01*
X160233333Y-117622380D01*
X160233333Y-117098571D02*
X160280952Y-117003333D01*
X160376190Y-116955714D01*
X160519047Y-116955714D01*
X160614285Y-117003333D01*
X160661904Y-117098571D01*
X160661904Y-117622380D01*
X161138095Y-117622380D02*
X161138095Y-116955714D01*
X161138095Y-117050952D02*
X161185714Y-117003333D01*
X161280952Y-116955714D01*
X161423809Y-116955714D01*
X161519047Y-117003333D01*
X161566666Y-117098571D01*
X161566666Y-117622380D01*
X161566666Y-117098571D02*
X161614285Y-117003333D01*
X161709523Y-116955714D01*
X161852380Y-116955714D01*
X161947619Y-117003333D01*
X161995238Y-117098571D01*
X161995238Y-117622380D01*
X152400000Y-115870000D02*
X163400000Y-115870000D01*
X152400000Y-102870000D02*
X152400000Y-116456421D01*
X163400000Y-102870000D02*
X163400000Y-116456421D01*
X163400000Y-115870000D02*
X162273496Y-116456421D01*
X163400000Y-115870000D02*
X162273496Y-115283579D01*
X152400000Y-115870000D02*
X153526504Y-116456421D01*
X152400000Y-115870000D02*
X153526504Y-115283579D01*
D11*
X155322500Y-106350000D02*
X150122500Y-106350000D01*
X150122500Y-106350000D02*
X149322500Y-107150000D01*
X149322500Y-107150000D02*
X149322500Y-109550000D01*
X149322500Y-109550000D02*
X155322500Y-109550000D01*
X155322500Y-109550000D02*
X155322500Y-106350000D01*
X142245000Y-103450000D02*
X143245000Y-103450000D01*
X142245000Y-100850000D02*
X143245000Y-100850000D01*
X142245000Y-100850000D02*
X142245000Y-103450000D01*
X146745000Y-99800000D02*
X143245000Y-99800000D01*
X146745000Y-104500000D02*
X143245000Y-104500000D01*
X143245000Y-99800000D02*
X143245000Y-104500000D01*
X146745000Y-99800000D02*
X146745000Y-104500000D01*
X154575000Y-106045000D02*
X149225000Y-106045000D01*
X149225000Y-106045000D02*
X149225000Y-95885000D01*
X149225000Y-95885000D02*
X155575000Y-95885000D01*
X155575000Y-95885000D02*
X155575000Y-105045000D01*
X155575000Y-105045000D02*
X154575000Y-106045000D01*
X150800000Y-105575000D02*
X150800000Y-103975000D01*
X150800000Y-103975000D02*
X154000000Y-103975000D01*
X154000000Y-103975000D02*
X154000000Y-105575000D01*
X154000000Y-105575000D02*
X150800000Y-105575000D01*
X160185000Y-105322500D02*
X160185000Y-102522500D01*
X160185000Y-102522500D02*
X159785000Y-102122500D01*
X159785000Y-102122500D02*
X158585000Y-102122500D01*
X158585000Y-102122500D02*
X158585000Y-105322500D01*
X158585000Y-105322500D02*
X160185000Y-105322500D01*
X160185000Y-100242500D02*
X158585000Y-100242500D01*
X158585000Y-100242500D02*
X158585000Y-97042500D01*
X158585000Y-97042500D02*
X160185000Y-97042500D01*
X160185000Y-97042500D02*
X160185000Y-100242500D01*
D10*
X151876190Y-115412380D02*
X151876190Y-114412380D01*
X152352380Y-115412380D02*
X152352380Y-114412380D01*
X152923809Y-115412380D01*
X152923809Y-114412380D01*
X152066666Y-111212380D02*
X152066666Y-111926666D01*
X152019047Y-112069523D01*
X151923809Y-112164761D01*
X151780952Y-112212380D01*
X151685714Y-112212380D01*
X152447619Y-111212380D02*
X153066666Y-111212380D01*
X152733333Y-111593333D01*
X152876190Y-111593333D01*
X152971428Y-111640952D01*
X153019047Y-111688571D01*
X153066666Y-111783809D01*
X153066666Y-112021904D01*
X153019047Y-112117142D01*
X152971428Y-112164761D01*
X152876190Y-112212380D01*
X152590476Y-112212380D01*
X152495238Y-112164761D01*
X152447619Y-112117142D01*
X145986666Y-110602380D02*
X146320000Y-111602380D01*
X146653333Y-110602380D01*
X147558095Y-111507142D02*
X147510476Y-111554761D01*
X147367619Y-111602380D01*
X147272380Y-111602380D01*
X147129523Y-111554761D01*
X147034285Y-111459523D01*
X146986666Y-111364285D01*
X146939047Y-111173809D01*
X146939047Y-111030952D01*
X146986666Y-110840476D01*
X147034285Y-110745238D01*
X147129523Y-110650000D01*
X147272380Y-110602380D01*
X147367619Y-110602380D01*
X147510476Y-110650000D01*
X147558095Y-110697619D01*
X148558095Y-111507142D02*
X148510476Y-111554761D01*
X148367619Y-111602380D01*
X148272380Y-111602380D01*
X148129523Y-111554761D01*
X148034285Y-111459523D01*
X147986666Y-111364285D01*
X147939047Y-111173809D01*
X147939047Y-111030952D01*
X147986666Y-110840476D01*
X148034285Y-110745238D01*
X148129523Y-110650000D01*
X148272380Y-110602380D01*
X148367619Y-110602380D01*
X148510476Y-110650000D01*
X148558095Y-110697619D01*
X147286666Y-107402380D02*
X147286666Y-108116666D01*
X147239047Y-108259523D01*
X147143809Y-108354761D01*
X147000952Y-108402380D01*
X146905714Y-108402380D01*
X148191428Y-107735714D02*
X148191428Y-108402380D01*
X147953333Y-107354761D02*
X147715238Y-108069047D01*
X148334285Y-108069047D01*
X156718095Y-110650000D02*
X156622857Y-110602380D01*
X156480000Y-110602380D01*
X156337142Y-110650000D01*
X156241904Y-110745238D01*
X156194285Y-110840476D01*
X156146666Y-111030952D01*
X156146666Y-111173809D01*
X156194285Y-111364285D01*
X156241904Y-111459523D01*
X156337142Y-111554761D01*
X156480000Y-111602380D01*
X156575238Y-111602380D01*
X156718095Y-111554761D01*
X156765714Y-111507142D01*
X156765714Y-111173809D01*
X156575238Y-111173809D01*
X157194285Y-111602380D02*
X157194285Y-110602380D01*
X157765714Y-111602380D01*
X157765714Y-110602380D01*
X158241904Y-111602380D02*
X158241904Y-110602380D01*
X158480000Y-110602380D01*
X158622857Y-110650000D01*
X158718095Y-110745238D01*
X158765714Y-110840476D01*
X158813333Y-111030952D01*
X158813333Y-111173809D01*
X158765714Y-111364285D01*
X158718095Y-111459523D01*
X158622857Y-111554761D01*
X158480000Y-111602380D01*
X158241904Y-111602380D01*
X157446666Y-107402380D02*
X157446666Y-108116666D01*
X157399047Y-108259523D01*
X157303809Y-108354761D01*
X157160952Y-108402380D01*
X157065714Y-108402380D01*
X158399047Y-107402380D02*
X157922857Y-107402380D01*
X157875238Y-107878571D01*
X157922857Y-107830952D01*
X158018095Y-107783333D01*
X158256190Y-107783333D01*
X158351428Y-107830952D01*
X158399047Y-107878571D01*
X158446666Y-107973809D01*
X158446666Y-108211904D01*
X158399047Y-108307142D01*
X158351428Y-108354761D01*
X158256190Y-108402380D01*
X158018095Y-108402380D01*
X157922857Y-108354761D01*
X157875238Y-108307142D01*
X152132023Y-110857142D02*
X152084404Y-110904761D01*
X151941547Y-110952380D01*
X151846309Y-110952380D01*
X151703452Y-110904761D01*
X151608214Y-110809523D01*
X151560595Y-110714285D01*
X151512976Y-110523809D01*
X151512976Y-110380952D01*
X151560595Y-110190476D01*
X151608214Y-110095238D01*
X151703452Y-110000000D01*
X151846309Y-109952380D01*
X151941547Y-109952380D01*
X152084404Y-110000000D01*
X152132023Y-110047619D01*
X152560595Y-110952380D02*
X152560595Y-109952380D01*
X152941547Y-109952380D01*
X153036785Y-110000000D01*
X153084404Y-110047619D01*
X153132023Y-110142857D01*
X153132023Y-110285714D01*
X153084404Y-110380952D01*
X153036785Y-110428571D01*
X152941547Y-110476190D01*
X152560595Y-110476190D01*
X152155833Y-108307142D02*
X152108214Y-108354761D01*
X151965357Y-108402380D01*
X151870119Y-108402380D01*
X151727261Y-108354761D01*
X151632023Y-108259523D01*
X151584404Y-108164285D01*
X151536785Y-107973809D01*
X151536785Y-107830952D01*
X151584404Y-107640476D01*
X151632023Y-107545238D01*
X151727261Y-107450000D01*
X151870119Y-107402380D01*
X151965357Y-107402380D01*
X152108214Y-107450000D01*
X152155833Y-107497619D01*
X153108214Y-108402380D02*
X152536785Y-108402380D01*
X152822500Y-108402380D02*
X152822500Y-107402380D01*
X152727261Y-107545238D01*
X152632023Y-107640476D01*
X152536785Y-107688095D01*
X148899761Y-105197619D02*
X148947380Y-105054761D01*
X148947380Y-104816666D01*
X148899761Y-104721428D01*
X148852142Y-104673809D01*
X148756904Y-104626190D01*
X148661666Y-104626190D01*
X148566428Y-104673809D01*
X148518809Y-104721428D01*
X148471190Y-104816666D01*
X148423571Y-105007142D01*
X148375952Y-105102380D01*
X148328333Y-105150000D01*
X148233095Y-105197619D01*
X148137857Y-105197619D01*
X148042619Y-105150000D01*
X147995000Y-105102380D01*
X147947380Y-105007142D01*
X147947380Y-104769047D01*
X147995000Y-104626190D01*
X147947380Y-104292857D02*
X148947380Y-104054761D01*
X148233095Y-103864285D01*
X148947380Y-103673809D01*
X147947380Y-103435714D01*
X149042619Y-103292857D02*
X149042619Y-102530952D01*
X148947380Y-102292857D02*
X147947380Y-102292857D01*
X147947380Y-101911904D01*
X147995000Y-101816666D01*
X148042619Y-101769047D01*
X148137857Y-101721428D01*
X148280714Y-101721428D01*
X148375952Y-101769047D01*
X148423571Y-101816666D01*
X148471190Y-101911904D01*
X148471190Y-102292857D01*
X148280714Y-100864285D02*
X148947380Y-100864285D01*
X148280714Y-101292857D02*
X148804523Y-101292857D01*
X148899761Y-101245238D01*
X148947380Y-101150000D01*
X148947380Y-101007142D01*
X148899761Y-100911904D01*
X148852142Y-100864285D01*
X148899761Y-100435714D02*
X148947380Y-100340476D01*
X148947380Y-100150000D01*
X148899761Y-100054761D01*
X148804523Y-100007142D01*
X148756904Y-100007142D01*
X148661666Y-100054761D01*
X148614047Y-100150000D01*
X148614047Y-100292857D01*
X148566428Y-100388095D01*
X148471190Y-100435714D01*
X148423571Y-100435714D01*
X148328333Y-100388095D01*
X148280714Y-100292857D01*
X148280714Y-100150000D01*
X148328333Y-100054761D01*
X148947380Y-99578571D02*
X147947380Y-99578571D01*
X148947380Y-99150000D02*
X148423571Y-99150000D01*
X148328333Y-99197619D01*
X148280714Y-99292857D01*
X148280714Y-99435714D01*
X148328333Y-99530952D01*
X148375952Y-99578571D01*
X145399761Y-103483333D02*
X145447380Y-103340476D01*
X145447380Y-103102380D01*
X145399761Y-103007142D01*
X145352142Y-102959523D01*
X145256904Y-102911904D01*
X145161666Y-102911904D01*
X145066428Y-102959523D01*
X145018809Y-103007142D01*
X144971190Y-103102380D01*
X144923571Y-103292857D01*
X144875952Y-103388095D01*
X144828333Y-103435714D01*
X144733095Y-103483333D01*
X144637857Y-103483333D01*
X144542619Y-103435714D01*
X144495000Y-103388095D01*
X144447380Y-103292857D01*
X144447380Y-103054761D01*
X144495000Y-102911904D01*
X144447380Y-102578571D02*
X145447380Y-102340476D01*
X144733095Y-102150000D01*
X145447380Y-101959523D01*
X144447380Y-101721428D01*
X145447380Y-100816666D02*
X145447380Y-101388095D01*
X145447380Y-101102380D02*
X144447380Y-101102380D01*
X144590238Y-101197619D01*
X144685476Y-101292857D01*
X144733095Y-101388095D01*
X146566666Y-94991666D02*
X147042857Y-94991666D01*
X146471428Y-95277380D02*
X146804761Y-94277380D01*
X147138095Y-95277380D01*
X147328571Y-94277380D02*
X147900000Y-94277380D01*
X147614285Y-95277380D02*
X147614285Y-94277380D01*
X148090476Y-94610714D02*
X148471428Y-94610714D01*
X148233333Y-94277380D02*
X148233333Y-95134523D01*
X148280952Y-95229761D01*
X148376190Y-95277380D01*
X148471428Y-95277380D01*
X148804761Y-95277380D02*
X148804761Y-94610714D01*
X148804761Y-94277380D02*
X148757142Y-94325000D01*
X148804761Y-94372619D01*
X148852380Y-94325000D01*
X148804761Y-94277380D01*
X148804761Y-94372619D01*
X149280952Y-94610714D02*
X149280952Y-95277380D01*
X149280952Y-94705952D02*
X149328571Y-94658333D01*
X149423809Y-94610714D01*
X149566666Y-94610714D01*
X149661904Y-94658333D01*
X149709523Y-94753571D01*
X149709523Y-95277380D01*
X150090476Y-94610714D02*
X150328571Y-95277380D01*
X150566666Y-94610714D02*
X150328571Y-95277380D01*
X150233333Y-95515476D01*
X150185714Y-95563095D01*
X150090476Y-95610714D01*
X151090476Y-94705952D02*
X150995238Y-94658333D01*
X150947619Y-94610714D01*
X150900000Y-94515476D01*
X150900000Y-94467857D01*
X150947619Y-94372619D01*
X150995238Y-94325000D01*
X151090476Y-94277380D01*
X151280952Y-94277380D01*
X151376190Y-94325000D01*
X151423809Y-94372619D01*
X151471428Y-94467857D01*
X151471428Y-94515476D01*
X151423809Y-94610714D01*
X151376190Y-94658333D01*
X151280952Y-94705952D01*
X151090476Y-94705952D01*
X150995238Y-94753571D01*
X150947619Y-94801190D01*
X150900000Y-94896428D01*
X150900000Y-95086904D01*
X150947619Y-95182142D01*
X150995238Y-95229761D01*
X151090476Y-95277380D01*
X151280952Y-95277380D01*
X151376190Y-95229761D01*
X151423809Y-95182142D01*
X151471428Y-95086904D01*
X151471428Y-94896428D01*
X151423809Y-94801190D01*
X151376190Y-94753571D01*
X151280952Y-94705952D01*
X152376190Y-94277380D02*
X151900000Y-94277380D01*
X151852380Y-94753571D01*
X151900000Y-94705952D01*
X151995238Y-94658333D01*
X152233333Y-94658333D01*
X152328571Y-94705952D01*
X152376190Y-94753571D01*
X152423809Y-94848809D01*
X152423809Y-95086904D01*
X152376190Y-95182142D01*
X152328571Y-95229761D01*
X152233333Y-95277380D01*
X151995238Y-95277380D01*
X151900000Y-95229761D01*
X151852380Y-95182142D01*
X152614285Y-95372619D02*
X153376190Y-95372619D01*
X154138095Y-95277380D02*
X153566666Y-95277380D01*
X153852380Y-95277380D02*
X153852380Y-94277380D01*
X153757142Y-94420238D01*
X153661904Y-94515476D01*
X153566666Y-94563095D01*
X154995238Y-94277380D02*
X154804761Y-94277380D01*
X154709523Y-94325000D01*
X154661904Y-94372619D01*
X154566666Y-94515476D01*
X154519047Y-94705952D01*
X154519047Y-95086904D01*
X154566666Y-95182142D01*
X154614285Y-95229761D01*
X154709523Y-95277380D01*
X154900000Y-95277380D01*
X154995238Y-95229761D01*
X155042857Y-95182142D01*
X155090476Y-95086904D01*
X155090476Y-94848809D01*
X155042857Y-94753571D01*
X154995238Y-94705952D01*
X154900000Y-94658333D01*
X154709523Y-94658333D01*
X154614285Y-94705952D01*
X154566666Y-94753571D01*
X154519047Y-94848809D01*
X155519047Y-95277380D02*
X155519047Y-94277380D01*
X155852380Y-94991666D01*
X156185714Y-94277380D01*
X156185714Y-95277380D01*
X156661904Y-95277380D02*
X156661904Y-94277380D01*
X156661904Y-94753571D02*
X157233333Y-94753571D01*
X157233333Y-95277380D02*
X157233333Y-94277380D01*
X157614285Y-94277380D02*
X158280952Y-94277380D01*
X157614285Y-95277380D01*
X158280952Y-95277380D01*
X151638095Y-100417380D02*
X151638095Y-101226904D01*
X151685714Y-101322142D01*
X151733333Y-101369761D01*
X151828571Y-101417380D01*
X152019047Y-101417380D01*
X152114285Y-101369761D01*
X152161904Y-101322142D01*
X152209523Y-101226904D01*
X152209523Y-100417380D01*
X153209523Y-101417380D02*
X152638095Y-101417380D01*
X152923809Y-101417380D02*
X152923809Y-100417380D01*
X152828571Y-100560238D01*
X152733333Y-100655476D01*
X152638095Y-100703095D01*
X151638095Y-97807000D02*
X151542857Y-97759380D01*
X151400000Y-97759380D01*
X151257142Y-97807000D01*
X151161904Y-97902238D01*
X151114285Y-97997476D01*
X151066666Y-98187952D01*
X151066666Y-98330809D01*
X151114285Y-98521285D01*
X151161904Y-98616523D01*
X151257142Y-98711761D01*
X151400000Y-98759380D01*
X151495238Y-98759380D01*
X151638095Y-98711761D01*
X151685714Y-98664142D01*
X151685714Y-98330809D01*
X151495238Y-98330809D01*
X152114285Y-98759380D02*
X152114285Y-97759380D01*
X152685714Y-98759380D01*
X152685714Y-97759380D01*
X153161904Y-98759380D02*
X153161904Y-97759380D01*
X153400000Y-97759380D01*
X153542857Y-97807000D01*
X153638095Y-97902238D01*
X153685714Y-97997476D01*
X153733333Y-98187952D01*
X153733333Y-98330809D01*
X153685714Y-98521285D01*
X153638095Y-98616523D01*
X153542857Y-98711761D01*
X153400000Y-98759380D01*
X153161904Y-98759380D01*
X152366666Y-93559380D02*
X152366666Y-94273666D01*
X152319047Y-94416523D01*
X152223809Y-94511761D01*
X152080952Y-94559380D01*
X151985714Y-94559380D01*
X153366666Y-94559380D02*
X152795238Y-94559380D01*
X153080952Y-94559380D02*
X153080952Y-93559380D01*
X152985714Y-93702238D01*
X152890476Y-93797476D01*
X152795238Y-93845095D01*
X150852380Y-107047380D02*
X150280952Y-107047380D01*
X150566666Y-107047380D02*
X150566666Y-106047380D01*
X150471428Y-106190238D01*
X150376190Y-106285476D01*
X150280952Y-106333095D01*
X151471428Y-106047380D02*
X151566666Y-106047380D01*
X151661904Y-106095000D01*
X151709523Y-106142619D01*
X151757142Y-106237857D01*
X151804761Y-106428333D01*
X151804761Y-106666428D01*
X151757142Y-106856904D01*
X151709523Y-106952142D01*
X151661904Y-106999761D01*
X151566666Y-107047380D01*
X151471428Y-107047380D01*
X151376190Y-106999761D01*
X151328571Y-106952142D01*
X151280952Y-106856904D01*
X151233333Y-106666428D01*
X151233333Y-106428333D01*
X151280952Y-106237857D01*
X151328571Y-106142619D01*
X151376190Y-106095000D01*
X151471428Y-106047380D01*
X152423809Y-106047380D02*
X152519047Y-106047380D01*
X152614285Y-106095000D01*
X152661904Y-106142619D01*
X152709523Y-106237857D01*
X152757142Y-106428333D01*
X152757142Y-106666428D01*
X152709523Y-106856904D01*
X152661904Y-106952142D01*
X152614285Y-106999761D01*
X152519047Y-107047380D01*
X152423809Y-107047380D01*
X152328571Y-106999761D01*
X152280952Y-106952142D01*
X152233333Y-106856904D01*
X152185714Y-106666428D01*
X152185714Y-106428333D01*
X152233333Y-106237857D01*
X152280952Y-106142619D01*
X152328571Y-106095000D01*
X152423809Y-106047380D01*
X153185714Y-106380714D02*
X153185714Y-107047380D01*
X153185714Y-106475952D02*
X153233333Y-106428333D01*
X153328571Y-106380714D01*
X153471428Y-106380714D01*
X153566666Y-106428333D01*
X153614285Y-106523571D01*
X153614285Y-107047380D01*
X154423809Y-106523571D02*
X154090476Y-106523571D01*
X154090476Y-107047380D02*
X154090476Y-106047380D01*
X154566666Y-106047380D01*
D12*
X152266666Y-105060714D02*
X152228571Y-105098809D01*
X152114285Y-105136904D01*
X152038095Y-105136904D01*
X151923809Y-105098809D01*
X151847619Y-105022619D01*
X151809523Y-104946428D01*
X151771428Y-104794047D01*
X151771428Y-104679761D01*
X151809523Y-104527380D01*
X151847619Y-104451190D01*
X151923809Y-104375000D01*
X152038095Y-104336904D01*
X152114285Y-104336904D01*
X152228571Y-104375000D01*
X152266666Y-104413095D01*
X152571428Y-104413095D02*
X152609523Y-104375000D01*
X152685714Y-104336904D01*
X152876190Y-104336904D01*
X152952380Y-104375000D01*
X152990476Y-104413095D01*
X153028571Y-104489285D01*
X153028571Y-104565476D01*
X152990476Y-104679761D01*
X152533333Y-105136904D01*
X153028571Y-105136904D01*
D10*
X158017380Y-104365357D02*
X157541190Y-104698690D01*
X158017380Y-104936785D02*
X157017380Y-104936785D01*
X157017380Y-104555833D01*
X157065000Y-104460595D01*
X157112619Y-104412976D01*
X157207857Y-104365357D01*
X157350714Y-104365357D01*
X157445952Y-104412976D01*
X157493571Y-104460595D01*
X157541190Y-104555833D01*
X157541190Y-104936785D01*
X157493571Y-103936785D02*
X157493571Y-103603452D01*
X158017380Y-103460595D02*
X158017380Y-103936785D01*
X157017380Y-103936785D01*
X157017380Y-103460595D01*
X158017380Y-103032023D02*
X157017380Y-103032023D01*
X157017380Y-102793928D01*
X157065000Y-102651071D01*
X157160238Y-102555833D01*
X157255476Y-102508214D01*
X157445952Y-102460595D01*
X157588809Y-102460595D01*
X157779285Y-102508214D01*
X157874523Y-102555833D01*
X157969761Y-102651071D01*
X158017380Y-102793928D01*
X158017380Y-103032023D01*
D12*
X159746904Y-104312976D02*
X158946904Y-104312976D01*
X158946904Y-104122500D01*
X158985000Y-104008214D01*
X159061190Y-103932023D01*
X159137380Y-103893928D01*
X159289761Y-103855833D01*
X159404047Y-103855833D01*
X159556428Y-103893928D01*
X159632619Y-103932023D01*
X159708809Y-104008214D01*
X159746904Y-104122500D01*
X159746904Y-104312976D01*
X159746904Y-103093928D02*
X159746904Y-103551071D01*
X159746904Y-103322500D02*
X158946904Y-103322500D01*
X159061190Y-103398690D01*
X159137380Y-103474880D01*
X159175476Y-103551071D01*
D10*
X160657380Y-99404404D02*
X160657380Y-99594880D01*
X160705000Y-99690119D01*
X160752619Y-99737738D01*
X160895476Y-99832976D01*
X161085952Y-99880595D01*
X161466904Y-99880595D01*
X161562142Y-99832976D01*
X161609761Y-99785357D01*
X161657380Y-99690119D01*
X161657380Y-99499642D01*
X161609761Y-99404404D01*
X161562142Y-99356785D01*
X161466904Y-99309166D01*
X161228809Y-99309166D01*
X161133571Y-99356785D01*
X161085952Y-99404404D01*
X161038333Y-99499642D01*
X161038333Y-99690119D01*
X161085952Y-99785357D01*
X161133571Y-99832976D01*
X161228809Y-99880595D01*
X161085952Y-98737738D02*
X161038333Y-98832976D01*
X160990714Y-98880595D01*
X160895476Y-98928214D01*
X160847857Y-98928214D01*
X160752619Y-98880595D01*
X160705000Y-98832976D01*
X160657380Y-98737738D01*
X160657380Y-98547261D01*
X160705000Y-98452023D01*
X160752619Y-98404404D01*
X160847857Y-98356785D01*
X160895476Y-98356785D01*
X160990714Y-98404404D01*
X161038333Y-98452023D01*
X161085952Y-98547261D01*
X161085952Y-98737738D01*
X161133571Y-98832976D01*
X161181190Y-98880595D01*
X161276428Y-98928214D01*
X161466904Y-98928214D01*
X161562142Y-98880595D01*
X161609761Y-98832976D01*
X161657380Y-98737738D01*
X161657380Y-98547261D01*
X161609761Y-98452023D01*
X161562142Y-98404404D01*
X161466904Y-98356785D01*
X161276428Y-98356785D01*
X161181190Y-98404404D01*
X161133571Y-98452023D01*
X161085952Y-98547261D01*
X160657380Y-97737738D02*
X160657380Y-97642500D01*
X160705000Y-97547261D01*
X160752619Y-97499642D01*
X160847857Y-97452023D01*
X161038333Y-97404404D01*
X161276428Y-97404404D01*
X161466904Y-97452023D01*
X161562142Y-97499642D01*
X161609761Y-97547261D01*
X161657380Y-97642500D01*
X161657380Y-97737738D01*
X161609761Y-97832976D01*
X161562142Y-97880595D01*
X161466904Y-97928214D01*
X161276428Y-97975833D01*
X161038333Y-97975833D01*
X160847857Y-97928214D01*
X160752619Y-97880595D01*
X160705000Y-97832976D01*
X160657380Y-97737738D01*
D12*
X159746904Y-98775833D02*
X159365952Y-99042500D01*
X159746904Y-99232976D02*
X158946904Y-99232976D01*
X158946904Y-98928214D01*
X158985000Y-98852023D01*
X159023095Y-98813928D01*
X159099285Y-98775833D01*
X159213571Y-98775833D01*
X159289761Y-98813928D01*
X159327857Y-98852023D01*
X159365952Y-98928214D01*
X159365952Y-99232976D01*
X159746904Y-98013928D02*
X159746904Y-98471071D01*
X159746904Y-98242500D02*
X158946904Y-98242500D01*
X159061190Y-98318690D01*
X159137380Y-98394880D01*
X159175476Y-98471071D01*
M02*
