G04 #@! TF.GenerationSoftware,KiCad,Pcbnew,(5.1.5)-3*
G04 #@! TF.CreationDate,2020-04-06T18:45:54+02:00*
G04 #@! TF.ProjectId,Capteur_Hall_I2C,43617074-6575-4725-9f48-616c6c5f4932,0.1*
G04 #@! TF.SameCoordinates,Original*
G04 #@! TF.FileFunction,Copper,L1,Top*
G04 #@! TF.FilePolarity,Positive*
%FSLAX46Y46*%
G04 Gerber Fmt 4.6, Leading zero omitted, Abs format (unit mm)*
G04 Created by KiCad (PCBNEW (5.1.5)-3) date 2020-04-06 18:45:54*
%MOMM*%
%LPD*%
G04 APERTURE LIST*
%ADD10C,0.050000*%
%ADD11O,5.500000X2.500000*%
%ADD12C,3.200000*%
%ADD13C,0.100000*%
%ADD14R,1.000000X1.550000*%
%ADD15R,1.600000X1.600000*%
%ADD16O,1.600000X1.600000*%
%ADD17C,1.000000*%
%ADD18C,0.500000*%
%ADD19C,0.310000*%
G04 APERTURE END LIST*
D10*
X163400000Y-102870000D02*
G75*
G03X163400000Y-102870000I-11000000J0D01*
G01*
D11*
X152400000Y-94107000D03*
D12*
X152400000Y-109760000D03*
X146900000Y-107060000D03*
X157900000Y-107060000D03*
G04 #@! TA.AperFunction,SMDPad,CuDef*
D13*
G36*
X150672004Y-106141204D02*
G01*
X150696273Y-106144804D01*
X150720071Y-106150765D01*
X150743171Y-106159030D01*
X150765349Y-106169520D01*
X150786393Y-106182133D01*
X150806098Y-106196747D01*
X150824277Y-106213223D01*
X150840753Y-106231402D01*
X150855367Y-106251107D01*
X150867980Y-106272151D01*
X150878470Y-106294329D01*
X150886735Y-106317429D01*
X150892696Y-106341227D01*
X150896296Y-106365496D01*
X150897500Y-106390000D01*
X150897500Y-108240000D01*
X150896296Y-108264504D01*
X150892696Y-108288773D01*
X150886735Y-108312571D01*
X150878470Y-108335671D01*
X150867980Y-108357849D01*
X150855367Y-108378893D01*
X150840753Y-108398598D01*
X150824277Y-108416777D01*
X150806098Y-108433253D01*
X150786393Y-108447867D01*
X150765349Y-108460480D01*
X150743171Y-108470970D01*
X150720071Y-108479235D01*
X150696273Y-108485196D01*
X150672004Y-108488796D01*
X150647500Y-108490000D01*
X149072500Y-108490000D01*
X149047996Y-108488796D01*
X149023727Y-108485196D01*
X148999929Y-108479235D01*
X148976829Y-108470970D01*
X148954651Y-108460480D01*
X148933607Y-108447867D01*
X148913902Y-108433253D01*
X148895723Y-108416777D01*
X148879247Y-108398598D01*
X148864633Y-108378893D01*
X148852020Y-108357849D01*
X148841530Y-108335671D01*
X148833265Y-108312571D01*
X148827304Y-108288773D01*
X148823704Y-108264504D01*
X148822500Y-108240000D01*
X148822500Y-106390000D01*
X148823704Y-106365496D01*
X148827304Y-106341227D01*
X148833265Y-106317429D01*
X148841530Y-106294329D01*
X148852020Y-106272151D01*
X148864633Y-106251107D01*
X148879247Y-106231402D01*
X148895723Y-106213223D01*
X148913902Y-106196747D01*
X148933607Y-106182133D01*
X148954651Y-106169520D01*
X148976829Y-106159030D01*
X148999929Y-106150765D01*
X149023727Y-106144804D01*
X149047996Y-106141204D01*
X149072500Y-106140000D01*
X150647500Y-106140000D01*
X150672004Y-106141204D01*
G37*
G04 #@! TD.AperFunction*
G04 #@! TA.AperFunction,SMDPad,CuDef*
G36*
X155597004Y-106141204D02*
G01*
X155621273Y-106144804D01*
X155645071Y-106150765D01*
X155668171Y-106159030D01*
X155690349Y-106169520D01*
X155711393Y-106182133D01*
X155731098Y-106196747D01*
X155749277Y-106213223D01*
X155765753Y-106231402D01*
X155780367Y-106251107D01*
X155792980Y-106272151D01*
X155803470Y-106294329D01*
X155811735Y-106317429D01*
X155817696Y-106341227D01*
X155821296Y-106365496D01*
X155822500Y-106390000D01*
X155822500Y-108240000D01*
X155821296Y-108264504D01*
X155817696Y-108288773D01*
X155811735Y-108312571D01*
X155803470Y-108335671D01*
X155792980Y-108357849D01*
X155780367Y-108378893D01*
X155765753Y-108398598D01*
X155749277Y-108416777D01*
X155731098Y-108433253D01*
X155711393Y-108447867D01*
X155690349Y-108460480D01*
X155668171Y-108470970D01*
X155645071Y-108479235D01*
X155621273Y-108485196D01*
X155597004Y-108488796D01*
X155572500Y-108490000D01*
X153997500Y-108490000D01*
X153972996Y-108488796D01*
X153948727Y-108485196D01*
X153924929Y-108479235D01*
X153901829Y-108470970D01*
X153879651Y-108460480D01*
X153858607Y-108447867D01*
X153838902Y-108433253D01*
X153820723Y-108416777D01*
X153804247Y-108398598D01*
X153789633Y-108378893D01*
X153777020Y-108357849D01*
X153766530Y-108335671D01*
X153758265Y-108312571D01*
X153752304Y-108288773D01*
X153748704Y-108264504D01*
X153747500Y-108240000D01*
X153747500Y-106390000D01*
X153748704Y-106365496D01*
X153752304Y-106341227D01*
X153758265Y-106317429D01*
X153766530Y-106294329D01*
X153777020Y-106272151D01*
X153789633Y-106251107D01*
X153804247Y-106231402D01*
X153820723Y-106213223D01*
X153838902Y-106196747D01*
X153858607Y-106182133D01*
X153879651Y-106169520D01*
X153901829Y-106159030D01*
X153924929Y-106150765D01*
X153948727Y-106144804D01*
X153972996Y-106141204D01*
X153997500Y-106140000D01*
X155572500Y-106140000D01*
X155597004Y-106141204D01*
G37*
G04 #@! TD.AperFunction*
D14*
X146050000Y-98425000D03*
X146050000Y-103675000D03*
X144350000Y-103675000D03*
X144350000Y-98425000D03*
D15*
X156210000Y-104140000D03*
D16*
X148590000Y-96520000D03*
X156210000Y-101600000D03*
X148590000Y-99060000D03*
X156210000Y-99060000D03*
X148590000Y-101600000D03*
X156210000Y-96520000D03*
X148590000Y-104140000D03*
G04 #@! TA.AperFunction,SMDPad,CuDef*
D13*
G36*
X151399504Y-103266204D02*
G01*
X151423773Y-103269804D01*
X151447571Y-103275765D01*
X151470671Y-103284030D01*
X151492849Y-103294520D01*
X151513893Y-103307133D01*
X151533598Y-103321747D01*
X151551777Y-103338223D01*
X151568253Y-103356402D01*
X151582867Y-103376107D01*
X151595480Y-103397151D01*
X151605970Y-103419329D01*
X151614235Y-103442429D01*
X151620196Y-103466227D01*
X151623796Y-103490496D01*
X151625000Y-103515000D01*
X151625000Y-104765000D01*
X151623796Y-104789504D01*
X151620196Y-104813773D01*
X151614235Y-104837571D01*
X151605970Y-104860671D01*
X151595480Y-104882849D01*
X151582867Y-104903893D01*
X151568253Y-104923598D01*
X151551777Y-104941777D01*
X151533598Y-104958253D01*
X151513893Y-104972867D01*
X151492849Y-104985480D01*
X151470671Y-104995970D01*
X151447571Y-105004235D01*
X151423773Y-105010196D01*
X151399504Y-105013796D01*
X151375000Y-105015000D01*
X150450000Y-105015000D01*
X150425496Y-105013796D01*
X150401227Y-105010196D01*
X150377429Y-105004235D01*
X150354329Y-104995970D01*
X150332151Y-104985480D01*
X150311107Y-104972867D01*
X150291402Y-104958253D01*
X150273223Y-104941777D01*
X150256747Y-104923598D01*
X150242133Y-104903893D01*
X150229520Y-104882849D01*
X150219030Y-104860671D01*
X150210765Y-104837571D01*
X150204804Y-104813773D01*
X150201204Y-104789504D01*
X150200000Y-104765000D01*
X150200000Y-103515000D01*
X150201204Y-103490496D01*
X150204804Y-103466227D01*
X150210765Y-103442429D01*
X150219030Y-103419329D01*
X150229520Y-103397151D01*
X150242133Y-103376107D01*
X150256747Y-103356402D01*
X150273223Y-103338223D01*
X150291402Y-103321747D01*
X150311107Y-103307133D01*
X150332151Y-103294520D01*
X150354329Y-103284030D01*
X150377429Y-103275765D01*
X150401227Y-103269804D01*
X150425496Y-103266204D01*
X150450000Y-103265000D01*
X151375000Y-103265000D01*
X151399504Y-103266204D01*
G37*
G04 #@! TD.AperFunction*
G04 #@! TA.AperFunction,SMDPad,CuDef*
G36*
X154374504Y-103266204D02*
G01*
X154398773Y-103269804D01*
X154422571Y-103275765D01*
X154445671Y-103284030D01*
X154467849Y-103294520D01*
X154488893Y-103307133D01*
X154508598Y-103321747D01*
X154526777Y-103338223D01*
X154543253Y-103356402D01*
X154557867Y-103376107D01*
X154570480Y-103397151D01*
X154580970Y-103419329D01*
X154589235Y-103442429D01*
X154595196Y-103466227D01*
X154598796Y-103490496D01*
X154600000Y-103515000D01*
X154600000Y-104765000D01*
X154598796Y-104789504D01*
X154595196Y-104813773D01*
X154589235Y-104837571D01*
X154580970Y-104860671D01*
X154570480Y-104882849D01*
X154557867Y-104903893D01*
X154543253Y-104923598D01*
X154526777Y-104941777D01*
X154508598Y-104958253D01*
X154488893Y-104972867D01*
X154467849Y-104985480D01*
X154445671Y-104995970D01*
X154422571Y-105004235D01*
X154398773Y-105010196D01*
X154374504Y-105013796D01*
X154350000Y-105015000D01*
X153425000Y-105015000D01*
X153400496Y-105013796D01*
X153376227Y-105010196D01*
X153352429Y-105004235D01*
X153329329Y-104995970D01*
X153307151Y-104985480D01*
X153286107Y-104972867D01*
X153266402Y-104958253D01*
X153248223Y-104941777D01*
X153231747Y-104923598D01*
X153217133Y-104903893D01*
X153204520Y-104882849D01*
X153194030Y-104860671D01*
X153185765Y-104837571D01*
X153179804Y-104813773D01*
X153176204Y-104789504D01*
X153175000Y-104765000D01*
X153175000Y-103515000D01*
X153176204Y-103490496D01*
X153179804Y-103466227D01*
X153185765Y-103442429D01*
X153194030Y-103419329D01*
X153204520Y-103397151D01*
X153217133Y-103376107D01*
X153231747Y-103356402D01*
X153248223Y-103338223D01*
X153266402Y-103321747D01*
X153286107Y-103307133D01*
X153307151Y-103294520D01*
X153329329Y-103284030D01*
X153352429Y-103275765D01*
X153376227Y-103269804D01*
X153400496Y-103266204D01*
X153425000Y-103265000D01*
X154350000Y-103265000D01*
X154374504Y-103266204D01*
G37*
G04 #@! TD.AperFunction*
G04 #@! TA.AperFunction,SMDPad,CuDef*
G36*
X159399504Y-100253704D02*
G01*
X159423773Y-100257304D01*
X159447571Y-100263265D01*
X159470671Y-100271530D01*
X159492849Y-100282020D01*
X159513893Y-100294633D01*
X159533598Y-100309247D01*
X159551777Y-100325723D01*
X159568253Y-100343902D01*
X159582867Y-100363607D01*
X159595480Y-100384651D01*
X159605970Y-100406829D01*
X159614235Y-100429929D01*
X159620196Y-100453727D01*
X159623796Y-100477996D01*
X159625000Y-100502500D01*
X159625000Y-101427500D01*
X159623796Y-101452004D01*
X159620196Y-101476273D01*
X159614235Y-101500071D01*
X159605970Y-101523171D01*
X159595480Y-101545349D01*
X159582867Y-101566393D01*
X159568253Y-101586098D01*
X159551777Y-101604277D01*
X159533598Y-101620753D01*
X159513893Y-101635367D01*
X159492849Y-101647980D01*
X159470671Y-101658470D01*
X159447571Y-101666735D01*
X159423773Y-101672696D01*
X159399504Y-101676296D01*
X159375000Y-101677500D01*
X158125000Y-101677500D01*
X158100496Y-101676296D01*
X158076227Y-101672696D01*
X158052429Y-101666735D01*
X158029329Y-101658470D01*
X158007151Y-101647980D01*
X157986107Y-101635367D01*
X157966402Y-101620753D01*
X157948223Y-101604277D01*
X157931747Y-101586098D01*
X157917133Y-101566393D01*
X157904520Y-101545349D01*
X157894030Y-101523171D01*
X157885765Y-101500071D01*
X157879804Y-101476273D01*
X157876204Y-101452004D01*
X157875000Y-101427500D01*
X157875000Y-100502500D01*
X157876204Y-100477996D01*
X157879804Y-100453727D01*
X157885765Y-100429929D01*
X157894030Y-100406829D01*
X157904520Y-100384651D01*
X157917133Y-100363607D01*
X157931747Y-100343902D01*
X157948223Y-100325723D01*
X157966402Y-100309247D01*
X157986107Y-100294633D01*
X158007151Y-100282020D01*
X158029329Y-100271530D01*
X158052429Y-100263265D01*
X158076227Y-100257304D01*
X158100496Y-100253704D01*
X158125000Y-100252500D01*
X159375000Y-100252500D01*
X159399504Y-100253704D01*
G37*
G04 #@! TD.AperFunction*
G04 #@! TA.AperFunction,SMDPad,CuDef*
G36*
X159399504Y-103228704D02*
G01*
X159423773Y-103232304D01*
X159447571Y-103238265D01*
X159470671Y-103246530D01*
X159492849Y-103257020D01*
X159513893Y-103269633D01*
X159533598Y-103284247D01*
X159551777Y-103300723D01*
X159568253Y-103318902D01*
X159582867Y-103338607D01*
X159595480Y-103359651D01*
X159605970Y-103381829D01*
X159614235Y-103404929D01*
X159620196Y-103428727D01*
X159623796Y-103452996D01*
X159625000Y-103477500D01*
X159625000Y-104402500D01*
X159623796Y-104427004D01*
X159620196Y-104451273D01*
X159614235Y-104475071D01*
X159605970Y-104498171D01*
X159595480Y-104520349D01*
X159582867Y-104541393D01*
X159568253Y-104561098D01*
X159551777Y-104579277D01*
X159533598Y-104595753D01*
X159513893Y-104610367D01*
X159492849Y-104622980D01*
X159470671Y-104633470D01*
X159447571Y-104641735D01*
X159423773Y-104647696D01*
X159399504Y-104651296D01*
X159375000Y-104652500D01*
X158125000Y-104652500D01*
X158100496Y-104651296D01*
X158076227Y-104647696D01*
X158052429Y-104641735D01*
X158029329Y-104633470D01*
X158007151Y-104622980D01*
X157986107Y-104610367D01*
X157966402Y-104595753D01*
X157948223Y-104579277D01*
X157931747Y-104561098D01*
X157917133Y-104541393D01*
X157904520Y-104520349D01*
X157894030Y-104498171D01*
X157885765Y-104475071D01*
X157879804Y-104451273D01*
X157876204Y-104427004D01*
X157875000Y-104402500D01*
X157875000Y-103477500D01*
X157876204Y-103452996D01*
X157879804Y-103428727D01*
X157885765Y-103404929D01*
X157894030Y-103381829D01*
X157904520Y-103359651D01*
X157917133Y-103338607D01*
X157931747Y-103318902D01*
X157948223Y-103300723D01*
X157966402Y-103284247D01*
X157986107Y-103269633D01*
X158007151Y-103257020D01*
X158029329Y-103246530D01*
X158052429Y-103238265D01*
X158076227Y-103232304D01*
X158100496Y-103228704D01*
X158125000Y-103227500D01*
X159375000Y-103227500D01*
X159399504Y-103228704D01*
G37*
G04 #@! TD.AperFunction*
G04 #@! TA.AperFunction,SMDPad,CuDef*
G36*
X159399504Y-98148704D02*
G01*
X159423773Y-98152304D01*
X159447571Y-98158265D01*
X159470671Y-98166530D01*
X159492849Y-98177020D01*
X159513893Y-98189633D01*
X159533598Y-98204247D01*
X159551777Y-98220723D01*
X159568253Y-98238902D01*
X159582867Y-98258607D01*
X159595480Y-98279651D01*
X159605970Y-98301829D01*
X159614235Y-98324929D01*
X159620196Y-98348727D01*
X159623796Y-98372996D01*
X159625000Y-98397500D01*
X159625000Y-99322500D01*
X159623796Y-99347004D01*
X159620196Y-99371273D01*
X159614235Y-99395071D01*
X159605970Y-99418171D01*
X159595480Y-99440349D01*
X159582867Y-99461393D01*
X159568253Y-99481098D01*
X159551777Y-99499277D01*
X159533598Y-99515753D01*
X159513893Y-99530367D01*
X159492849Y-99542980D01*
X159470671Y-99553470D01*
X159447571Y-99561735D01*
X159423773Y-99567696D01*
X159399504Y-99571296D01*
X159375000Y-99572500D01*
X158125000Y-99572500D01*
X158100496Y-99571296D01*
X158076227Y-99567696D01*
X158052429Y-99561735D01*
X158029329Y-99553470D01*
X158007151Y-99542980D01*
X157986107Y-99530367D01*
X157966402Y-99515753D01*
X157948223Y-99499277D01*
X157931747Y-99481098D01*
X157917133Y-99461393D01*
X157904520Y-99440349D01*
X157894030Y-99418171D01*
X157885765Y-99395071D01*
X157879804Y-99371273D01*
X157876204Y-99347004D01*
X157875000Y-99322500D01*
X157875000Y-98397500D01*
X157876204Y-98372996D01*
X157879804Y-98348727D01*
X157885765Y-98324929D01*
X157894030Y-98301829D01*
X157904520Y-98279651D01*
X157917133Y-98258607D01*
X157931747Y-98238902D01*
X157948223Y-98220723D01*
X157966402Y-98204247D01*
X157986107Y-98189633D01*
X158007151Y-98177020D01*
X158029329Y-98166530D01*
X158052429Y-98158265D01*
X158076227Y-98152304D01*
X158100496Y-98148704D01*
X158125000Y-98147500D01*
X159375000Y-98147500D01*
X159399504Y-98148704D01*
G37*
G04 #@! TD.AperFunction*
G04 #@! TA.AperFunction,SMDPad,CuDef*
G36*
X159399504Y-95173704D02*
G01*
X159423773Y-95177304D01*
X159447571Y-95183265D01*
X159470671Y-95191530D01*
X159492849Y-95202020D01*
X159513893Y-95214633D01*
X159533598Y-95229247D01*
X159551777Y-95245723D01*
X159568253Y-95263902D01*
X159582867Y-95283607D01*
X159595480Y-95304651D01*
X159605970Y-95326829D01*
X159614235Y-95349929D01*
X159620196Y-95373727D01*
X159623796Y-95397996D01*
X159625000Y-95422500D01*
X159625000Y-96347500D01*
X159623796Y-96372004D01*
X159620196Y-96396273D01*
X159614235Y-96420071D01*
X159605970Y-96443171D01*
X159595480Y-96465349D01*
X159582867Y-96486393D01*
X159568253Y-96506098D01*
X159551777Y-96524277D01*
X159533598Y-96540753D01*
X159513893Y-96555367D01*
X159492849Y-96567980D01*
X159470671Y-96578470D01*
X159447571Y-96586735D01*
X159423773Y-96592696D01*
X159399504Y-96596296D01*
X159375000Y-96597500D01*
X158125000Y-96597500D01*
X158100496Y-96596296D01*
X158076227Y-96592696D01*
X158052429Y-96586735D01*
X158029329Y-96578470D01*
X158007151Y-96567980D01*
X157986107Y-96555367D01*
X157966402Y-96540753D01*
X157948223Y-96524277D01*
X157931747Y-96506098D01*
X157917133Y-96486393D01*
X157904520Y-96465349D01*
X157894030Y-96443171D01*
X157885765Y-96420071D01*
X157879804Y-96396273D01*
X157876204Y-96372004D01*
X157875000Y-96347500D01*
X157875000Y-95422500D01*
X157876204Y-95397996D01*
X157879804Y-95373727D01*
X157885765Y-95349929D01*
X157894030Y-95326829D01*
X157904520Y-95304651D01*
X157917133Y-95283607D01*
X157931747Y-95263902D01*
X157948223Y-95245723D01*
X157966402Y-95229247D01*
X157986107Y-95214633D01*
X158007151Y-95202020D01*
X158029329Y-95191530D01*
X158052429Y-95183265D01*
X158076227Y-95177304D01*
X158100496Y-95173704D01*
X158125000Y-95172500D01*
X159375000Y-95172500D01*
X159399504Y-95173704D01*
G37*
G04 #@! TD.AperFunction*
D17*
X144350000Y-100916000D03*
D18*
X147155000Y-107315000D02*
X146900000Y-107060000D01*
X149860000Y-107315000D02*
X147155000Y-107315000D01*
X150912500Y-105087500D02*
X150912500Y-104140000D01*
X149860000Y-107315000D02*
X149860000Y-106140000D01*
X149860000Y-106140000D02*
X150912500Y-105087500D01*
X150912500Y-104140000D02*
X148590000Y-104140000D01*
X156845000Y-95885000D02*
X156210000Y-96520000D01*
X158750000Y-95885000D02*
X156845000Y-95885000D01*
X157645000Y-107315000D02*
X157900000Y-107060000D01*
X154785000Y-107315000D02*
X157645000Y-107315000D01*
X154785000Y-107315000D02*
X154785000Y-105890000D01*
X154785000Y-105890000D02*
X154305000Y-105410000D01*
X153887500Y-105015000D02*
X153887500Y-104140000D01*
X154282500Y-105410000D02*
X153887500Y-105015000D01*
X154305000Y-105410000D02*
X154282500Y-105410000D01*
X144350000Y-103675000D02*
X144350000Y-102400000D01*
X144350000Y-100887000D02*
X144399000Y-100838000D01*
X144350000Y-100916000D02*
X144350000Y-98425000D01*
X144350000Y-102400000D02*
X144350000Y-100916000D01*
X144350000Y-100887000D02*
X144350000Y-100916000D01*
D19*
X158750000Y-100965000D02*
X158750000Y-98860000D01*
X159027500Y-104140000D02*
X159385000Y-104497500D01*
X158750000Y-103227500D02*
X158392500Y-102870000D01*
X158750000Y-103940000D02*
X158750000Y-103227500D01*
X157480000Y-102870000D02*
X156210000Y-101600000D01*
X158392500Y-102870000D02*
X157480000Y-102870000D01*
X146050000Y-103675000D02*
X146050000Y-98425000D01*
X147955000Y-98425000D02*
X148590000Y-99060000D01*
X146050000Y-98425000D02*
X147955000Y-98425000D01*
M02*
