G04 #@! TF.GenerationSoftware,KiCad,Pcbnew,(5.1.5)-3*
G04 #@! TF.CreationDate,2020-04-06T18:45:54+02:00*
G04 #@! TF.ProjectId,Capteur_Hall_I2C,43617074-6575-4725-9f48-616c6c5f4932,0.1*
G04 #@! TF.SameCoordinates,Original*
G04 #@! TF.FileFunction,Soldermask,Bot*
G04 #@! TF.FilePolarity,Negative*
%FSLAX46Y46*%
G04 Gerber Fmt 4.6, Leading zero omitted, Abs format (unit mm)*
G04 Created by KiCad (PCBNEW (5.1.5)-3) date 2020-04-06 18:45:54*
%MOMM*%
%LPD*%
G04 APERTURE LIST*
%ADD10C,0.050000*%
%ADD11C,0.100000*%
G04 APERTURE END LIST*
D10*
X163400000Y-102870000D02*
G75*
G03X163400000Y-102870000I-11000000J0D01*
G01*
D11*
G36*
X152775256Y-108151298D02*
G01*
X152881579Y-108172447D01*
X153182042Y-108296903D01*
X153452451Y-108477585D01*
X153682415Y-108707549D01*
X153863097Y-108977958D01*
X153987553Y-109278421D01*
X154051000Y-109597391D01*
X154051000Y-109922609D01*
X153987553Y-110241579D01*
X153863097Y-110542042D01*
X153682415Y-110812451D01*
X153452451Y-111042415D01*
X153182042Y-111223097D01*
X152881579Y-111347553D01*
X152775256Y-111368702D01*
X152562611Y-111411000D01*
X152237389Y-111411000D01*
X152024744Y-111368702D01*
X151918421Y-111347553D01*
X151617958Y-111223097D01*
X151347549Y-111042415D01*
X151117585Y-110812451D01*
X150936903Y-110542042D01*
X150812447Y-110241579D01*
X150749000Y-109922609D01*
X150749000Y-109597391D01*
X150812447Y-109278421D01*
X150936903Y-108977958D01*
X151117585Y-108707549D01*
X151347549Y-108477585D01*
X151617958Y-108296903D01*
X151918421Y-108172447D01*
X152024744Y-108151298D01*
X152237389Y-108109000D01*
X152562611Y-108109000D01*
X152775256Y-108151298D01*
G37*
G36*
X158275256Y-105451298D02*
G01*
X158381579Y-105472447D01*
X158682042Y-105596903D01*
X158952451Y-105777585D01*
X159182415Y-106007549D01*
X159363097Y-106277958D01*
X159487553Y-106578421D01*
X159551000Y-106897391D01*
X159551000Y-107222609D01*
X159487553Y-107541579D01*
X159363097Y-107842042D01*
X159182415Y-108112451D01*
X158952451Y-108342415D01*
X158682042Y-108523097D01*
X158381579Y-108647553D01*
X158275256Y-108668702D01*
X158062611Y-108711000D01*
X157737389Y-108711000D01*
X157524744Y-108668702D01*
X157418421Y-108647553D01*
X157117958Y-108523097D01*
X156847549Y-108342415D01*
X156617585Y-108112451D01*
X156436903Y-107842042D01*
X156312447Y-107541579D01*
X156249000Y-107222609D01*
X156249000Y-106897391D01*
X156312447Y-106578421D01*
X156436903Y-106277958D01*
X156617585Y-106007549D01*
X156847549Y-105777585D01*
X157117958Y-105596903D01*
X157418421Y-105472447D01*
X157524744Y-105451298D01*
X157737389Y-105409000D01*
X158062611Y-105409000D01*
X158275256Y-105451298D01*
G37*
G36*
X147275256Y-105451298D02*
G01*
X147381579Y-105472447D01*
X147682042Y-105596903D01*
X147952451Y-105777585D01*
X148182415Y-106007549D01*
X148363097Y-106277958D01*
X148487553Y-106578421D01*
X148551000Y-106897391D01*
X148551000Y-107222609D01*
X148487553Y-107541579D01*
X148363097Y-107842042D01*
X148182415Y-108112451D01*
X147952451Y-108342415D01*
X147682042Y-108523097D01*
X147381579Y-108647553D01*
X147275256Y-108668702D01*
X147062611Y-108711000D01*
X146737389Y-108711000D01*
X146524744Y-108668702D01*
X146418421Y-108647553D01*
X146117958Y-108523097D01*
X145847549Y-108342415D01*
X145617585Y-108112451D01*
X145436903Y-107842042D01*
X145312447Y-107541579D01*
X145249000Y-107222609D01*
X145249000Y-106897391D01*
X145312447Y-106578421D01*
X145436903Y-106277958D01*
X145617585Y-106007549D01*
X145847549Y-105777585D01*
X146117958Y-105596903D01*
X146418421Y-105472447D01*
X146524744Y-105451298D01*
X146737389Y-105409000D01*
X147062611Y-105409000D01*
X147275256Y-105451298D01*
G37*
G36*
X148838228Y-103321703D02*
G01*
X148993100Y-103385853D01*
X149132481Y-103478985D01*
X149251015Y-103597519D01*
X149344147Y-103736900D01*
X149408297Y-103891772D01*
X149441000Y-104056184D01*
X149441000Y-104223816D01*
X149408297Y-104388228D01*
X149344147Y-104543100D01*
X149251015Y-104682481D01*
X149132481Y-104801015D01*
X148993100Y-104894147D01*
X148838228Y-104958297D01*
X148673816Y-104991000D01*
X148506184Y-104991000D01*
X148341772Y-104958297D01*
X148186900Y-104894147D01*
X148047519Y-104801015D01*
X147928985Y-104682481D01*
X147835853Y-104543100D01*
X147771703Y-104388228D01*
X147739000Y-104223816D01*
X147739000Y-104056184D01*
X147771703Y-103891772D01*
X147835853Y-103736900D01*
X147928985Y-103597519D01*
X148047519Y-103478985D01*
X148186900Y-103385853D01*
X148341772Y-103321703D01*
X148506184Y-103289000D01*
X148673816Y-103289000D01*
X148838228Y-103321703D01*
G37*
G36*
X157061000Y-104991000D02*
G01*
X155359000Y-104991000D01*
X155359000Y-103289000D01*
X157061000Y-103289000D01*
X157061000Y-104991000D01*
G37*
G36*
X148838228Y-100781703D02*
G01*
X148993100Y-100845853D01*
X149132481Y-100938985D01*
X149251015Y-101057519D01*
X149344147Y-101196900D01*
X149408297Y-101351772D01*
X149441000Y-101516184D01*
X149441000Y-101683816D01*
X149408297Y-101848228D01*
X149344147Y-102003100D01*
X149251015Y-102142481D01*
X149132481Y-102261015D01*
X148993100Y-102354147D01*
X148838228Y-102418297D01*
X148673816Y-102451000D01*
X148506184Y-102451000D01*
X148341772Y-102418297D01*
X148186900Y-102354147D01*
X148047519Y-102261015D01*
X147928985Y-102142481D01*
X147835853Y-102003100D01*
X147771703Y-101848228D01*
X147739000Y-101683816D01*
X147739000Y-101516184D01*
X147771703Y-101351772D01*
X147835853Y-101196900D01*
X147928985Y-101057519D01*
X148047519Y-100938985D01*
X148186900Y-100845853D01*
X148341772Y-100781703D01*
X148506184Y-100749000D01*
X148673816Y-100749000D01*
X148838228Y-100781703D01*
G37*
G36*
X156458228Y-100781703D02*
G01*
X156613100Y-100845853D01*
X156752481Y-100938985D01*
X156871015Y-101057519D01*
X156964147Y-101196900D01*
X157028297Y-101351772D01*
X157061000Y-101516184D01*
X157061000Y-101683816D01*
X157028297Y-101848228D01*
X156964147Y-102003100D01*
X156871015Y-102142481D01*
X156752481Y-102261015D01*
X156613100Y-102354147D01*
X156458228Y-102418297D01*
X156293816Y-102451000D01*
X156126184Y-102451000D01*
X155961772Y-102418297D01*
X155806900Y-102354147D01*
X155667519Y-102261015D01*
X155548985Y-102142481D01*
X155455853Y-102003100D01*
X155391703Y-101848228D01*
X155359000Y-101683816D01*
X155359000Y-101516184D01*
X155391703Y-101351772D01*
X155455853Y-101196900D01*
X155548985Y-101057519D01*
X155667519Y-100938985D01*
X155806900Y-100845853D01*
X155961772Y-100781703D01*
X156126184Y-100749000D01*
X156293816Y-100749000D01*
X156458228Y-100781703D01*
G37*
G36*
X148838228Y-98241703D02*
G01*
X148993100Y-98305853D01*
X149132481Y-98398985D01*
X149251015Y-98517519D01*
X149344147Y-98656900D01*
X149408297Y-98811772D01*
X149441000Y-98976184D01*
X149441000Y-99143816D01*
X149408297Y-99308228D01*
X149344147Y-99463100D01*
X149251015Y-99602481D01*
X149132481Y-99721015D01*
X148993100Y-99814147D01*
X148838228Y-99878297D01*
X148673816Y-99911000D01*
X148506184Y-99911000D01*
X148341772Y-99878297D01*
X148186900Y-99814147D01*
X148047519Y-99721015D01*
X147928985Y-99602481D01*
X147835853Y-99463100D01*
X147771703Y-99308228D01*
X147739000Y-99143816D01*
X147739000Y-98976184D01*
X147771703Y-98811772D01*
X147835853Y-98656900D01*
X147928985Y-98517519D01*
X148047519Y-98398985D01*
X148186900Y-98305853D01*
X148341772Y-98241703D01*
X148506184Y-98209000D01*
X148673816Y-98209000D01*
X148838228Y-98241703D01*
G37*
G36*
X156458228Y-98241703D02*
G01*
X156613100Y-98305853D01*
X156752481Y-98398985D01*
X156871015Y-98517519D01*
X156964147Y-98656900D01*
X157028297Y-98811772D01*
X157061000Y-98976184D01*
X157061000Y-99143816D01*
X157028297Y-99308228D01*
X156964147Y-99463100D01*
X156871015Y-99602481D01*
X156752481Y-99721015D01*
X156613100Y-99814147D01*
X156458228Y-99878297D01*
X156293816Y-99911000D01*
X156126184Y-99911000D01*
X155961772Y-99878297D01*
X155806900Y-99814147D01*
X155667519Y-99721015D01*
X155548985Y-99602481D01*
X155455853Y-99463100D01*
X155391703Y-99308228D01*
X155359000Y-99143816D01*
X155359000Y-98976184D01*
X155391703Y-98811772D01*
X155455853Y-98656900D01*
X155548985Y-98517519D01*
X155667519Y-98398985D01*
X155806900Y-98305853D01*
X155961772Y-98241703D01*
X156126184Y-98209000D01*
X156293816Y-98209000D01*
X156458228Y-98241703D01*
G37*
G36*
X156458228Y-95701703D02*
G01*
X156613100Y-95765853D01*
X156752481Y-95858985D01*
X156871015Y-95977519D01*
X156964147Y-96116900D01*
X157028297Y-96271772D01*
X157061000Y-96436184D01*
X157061000Y-96603816D01*
X157028297Y-96768228D01*
X156964147Y-96923100D01*
X156871015Y-97062481D01*
X156752481Y-97181015D01*
X156613100Y-97274147D01*
X156458228Y-97338297D01*
X156293816Y-97371000D01*
X156126184Y-97371000D01*
X155961772Y-97338297D01*
X155806900Y-97274147D01*
X155667519Y-97181015D01*
X155548985Y-97062481D01*
X155455853Y-96923100D01*
X155391703Y-96768228D01*
X155359000Y-96603816D01*
X155359000Y-96436184D01*
X155391703Y-96271772D01*
X155455853Y-96116900D01*
X155548985Y-95977519D01*
X155667519Y-95858985D01*
X155806900Y-95765853D01*
X155961772Y-95701703D01*
X156126184Y-95669000D01*
X156293816Y-95669000D01*
X156458228Y-95701703D01*
G37*
G36*
X148838228Y-95701703D02*
G01*
X148993100Y-95765853D01*
X149132481Y-95858985D01*
X149251015Y-95977519D01*
X149344147Y-96116900D01*
X149408297Y-96271772D01*
X149441000Y-96436184D01*
X149441000Y-96603816D01*
X149408297Y-96768228D01*
X149344147Y-96923100D01*
X149251015Y-97062481D01*
X149132481Y-97181015D01*
X148993100Y-97274147D01*
X148838228Y-97338297D01*
X148673816Y-97371000D01*
X148506184Y-97371000D01*
X148341772Y-97338297D01*
X148186900Y-97274147D01*
X148047519Y-97181015D01*
X147928985Y-97062481D01*
X147835853Y-96923100D01*
X147771703Y-96768228D01*
X147739000Y-96603816D01*
X147739000Y-96436184D01*
X147771703Y-96271772D01*
X147835853Y-96116900D01*
X147928985Y-95977519D01*
X148047519Y-95858985D01*
X148186900Y-95765853D01*
X148341772Y-95701703D01*
X148506184Y-95669000D01*
X148673816Y-95669000D01*
X148838228Y-95701703D01*
G37*
G36*
X154059473Y-92815413D02*
G01*
X154155040Y-92824825D01*
X154400280Y-92899218D01*
X154626294Y-93020025D01*
X154677899Y-93062376D01*
X154824397Y-93182603D01*
X154944624Y-93329101D01*
X154986975Y-93380706D01*
X155107782Y-93606720D01*
X155182175Y-93851960D01*
X155207294Y-94107000D01*
X155182175Y-94362040D01*
X155107782Y-94607280D01*
X154986975Y-94833294D01*
X154944624Y-94884899D01*
X154824397Y-95031397D01*
X154677899Y-95151624D01*
X154626294Y-95193975D01*
X154400280Y-95314782D01*
X154155040Y-95389175D01*
X154059473Y-95398587D01*
X153963906Y-95408000D01*
X150836094Y-95408000D01*
X150740527Y-95398587D01*
X150644960Y-95389175D01*
X150399720Y-95314782D01*
X150173706Y-95193975D01*
X150122101Y-95151624D01*
X149975603Y-95031397D01*
X149855376Y-94884899D01*
X149813025Y-94833294D01*
X149692218Y-94607280D01*
X149617825Y-94362040D01*
X149592706Y-94107000D01*
X149617825Y-93851960D01*
X149692218Y-93606720D01*
X149813025Y-93380706D01*
X149855376Y-93329101D01*
X149975603Y-93182603D01*
X150122101Y-93062376D01*
X150173706Y-93020025D01*
X150399720Y-92899218D01*
X150644960Y-92824825D01*
X150740527Y-92815413D01*
X150836094Y-92806000D01*
X153963906Y-92806000D01*
X154059473Y-92815413D01*
G37*
M02*
