G04 #@! TF.GenerationSoftware,KiCad,Pcbnew,(5.1.5)-3*
G04 #@! TF.CreationDate,2020-03-15T09:51:23+01:00*
G04 #@! TF.ProjectId,Capteur_Hall_I2C,43617074-6575-4725-9f48-616c6c5f4932,0.1*
G04 #@! TF.SameCoordinates,Original*
G04 #@! TF.FileFunction,Soldermask,Bot*
G04 #@! TF.FilePolarity,Negative*
%FSLAX46Y46*%
G04 Gerber Fmt 4.6, Leading zero omitted, Abs format (unit mm)*
G04 Created by KiCad (PCBNEW (5.1.5)-3) date 2020-03-15 09:51:23*
%MOMM*%
%LPD*%
G04 APERTURE LIST*
%ADD10C,0.100000*%
G04 APERTURE END LIST*
D10*
G36*
X152775256Y-110151298D02*
G01*
X152881579Y-110172447D01*
X153182042Y-110296903D01*
X153452451Y-110477585D01*
X153682415Y-110707549D01*
X153863097Y-110977958D01*
X153987553Y-111278421D01*
X154051000Y-111597391D01*
X154051000Y-111922609D01*
X153987553Y-112241579D01*
X153863097Y-112542042D01*
X153682415Y-112812451D01*
X153452451Y-113042415D01*
X153182042Y-113223097D01*
X152881579Y-113347553D01*
X152775256Y-113368702D01*
X152562611Y-113411000D01*
X152237389Y-113411000D01*
X152024744Y-113368702D01*
X151918421Y-113347553D01*
X151617958Y-113223097D01*
X151347549Y-113042415D01*
X151117585Y-112812451D01*
X150936903Y-112542042D01*
X150812447Y-112241579D01*
X150749000Y-111922609D01*
X150749000Y-111597391D01*
X150812447Y-111278421D01*
X150936903Y-110977958D01*
X151117585Y-110707549D01*
X151347549Y-110477585D01*
X151617958Y-110296903D01*
X151918421Y-110172447D01*
X152024744Y-110151298D01*
X152237389Y-110109000D01*
X152562611Y-110109000D01*
X152775256Y-110151298D01*
G37*
G36*
X157855256Y-106341298D02*
G01*
X157961579Y-106362447D01*
X158262042Y-106486903D01*
X158532451Y-106667585D01*
X158762415Y-106897549D01*
X158943097Y-107167958D01*
X159067553Y-107468421D01*
X159131000Y-107787391D01*
X159131000Y-108112609D01*
X159067553Y-108431579D01*
X158943097Y-108732042D01*
X158762415Y-109002451D01*
X158532451Y-109232415D01*
X158262042Y-109413097D01*
X157961579Y-109537553D01*
X157855256Y-109558702D01*
X157642611Y-109601000D01*
X157317389Y-109601000D01*
X157104744Y-109558702D01*
X156998421Y-109537553D01*
X156697958Y-109413097D01*
X156427549Y-109232415D01*
X156197585Y-109002451D01*
X156016903Y-108732042D01*
X155892447Y-108431579D01*
X155829000Y-108112609D01*
X155829000Y-107787391D01*
X155892447Y-107468421D01*
X156016903Y-107167958D01*
X156197585Y-106897549D01*
X156427549Y-106667585D01*
X156697958Y-106486903D01*
X156998421Y-106362447D01*
X157104744Y-106341298D01*
X157317389Y-106299000D01*
X157642611Y-106299000D01*
X157855256Y-106341298D01*
G37*
G36*
X147695256Y-106341298D02*
G01*
X147801579Y-106362447D01*
X148102042Y-106486903D01*
X148372451Y-106667585D01*
X148602415Y-106897549D01*
X148783097Y-107167958D01*
X148907553Y-107468421D01*
X148971000Y-107787391D01*
X148971000Y-108112609D01*
X148907553Y-108431579D01*
X148783097Y-108732042D01*
X148602415Y-109002451D01*
X148372451Y-109232415D01*
X148102042Y-109413097D01*
X147801579Y-109537553D01*
X147695256Y-109558702D01*
X147482611Y-109601000D01*
X147157389Y-109601000D01*
X146944744Y-109558702D01*
X146838421Y-109537553D01*
X146537958Y-109413097D01*
X146267549Y-109232415D01*
X146037585Y-109002451D01*
X145856903Y-108732042D01*
X145732447Y-108431579D01*
X145669000Y-108112609D01*
X145669000Y-107787391D01*
X145732447Y-107468421D01*
X145856903Y-107167958D01*
X146037585Y-106897549D01*
X146267549Y-106667585D01*
X146537958Y-106486903D01*
X146838421Y-106362447D01*
X146944744Y-106341298D01*
X147157389Y-106299000D01*
X147482611Y-106299000D01*
X147695256Y-106341298D01*
G37*
G36*
X146316000Y-97421000D02*
G01*
X144514000Y-97421000D01*
X144514000Y-95619000D01*
X146316000Y-95619000D01*
X146316000Y-97421000D01*
G37*
G36*
X160286000Y-97421000D02*
G01*
X158484000Y-97421000D01*
X158484000Y-95619000D01*
X160286000Y-95619000D01*
X160286000Y-97421000D01*
G37*
G36*
X157111000Y-95771000D02*
G01*
X155309000Y-95771000D01*
X155309000Y-93969000D01*
X157111000Y-93969000D01*
X157111000Y-95771000D01*
G37*
G36*
X153783512Y-93973927D02*
G01*
X153932812Y-94003624D01*
X154096784Y-94071544D01*
X154244354Y-94170147D01*
X154369853Y-94295646D01*
X154468456Y-94443216D01*
X154536376Y-94607188D01*
X154571000Y-94781259D01*
X154571000Y-94958741D01*
X154536376Y-95132812D01*
X154468456Y-95296784D01*
X154369853Y-95444354D01*
X154244354Y-95569853D01*
X154096784Y-95668456D01*
X153932812Y-95736376D01*
X153783512Y-95766073D01*
X153758742Y-95771000D01*
X153581258Y-95771000D01*
X153556488Y-95766073D01*
X153407188Y-95736376D01*
X153243216Y-95668456D01*
X153095646Y-95569853D01*
X152970147Y-95444354D01*
X152871544Y-95296784D01*
X152803624Y-95132812D01*
X152769000Y-94958741D01*
X152769000Y-94781259D01*
X152803624Y-94607188D01*
X152871544Y-94443216D01*
X152970147Y-94295646D01*
X153095646Y-94170147D01*
X153243216Y-94071544D01*
X153407188Y-94003624D01*
X153556488Y-93973927D01*
X153581258Y-93969000D01*
X153758742Y-93969000D01*
X153783512Y-93973927D01*
G37*
G36*
X151243512Y-93973927D02*
G01*
X151392812Y-94003624D01*
X151556784Y-94071544D01*
X151704354Y-94170147D01*
X151829853Y-94295646D01*
X151928456Y-94443216D01*
X151996376Y-94607188D01*
X152031000Y-94781259D01*
X152031000Y-94958741D01*
X151996376Y-95132812D01*
X151928456Y-95296784D01*
X151829853Y-95444354D01*
X151704354Y-95569853D01*
X151556784Y-95668456D01*
X151392812Y-95736376D01*
X151243512Y-95766073D01*
X151218742Y-95771000D01*
X151041258Y-95771000D01*
X151016488Y-95766073D01*
X150867188Y-95736376D01*
X150703216Y-95668456D01*
X150555646Y-95569853D01*
X150430147Y-95444354D01*
X150331544Y-95296784D01*
X150263624Y-95132812D01*
X150229000Y-94958741D01*
X150229000Y-94781259D01*
X150263624Y-94607188D01*
X150331544Y-94443216D01*
X150430147Y-94295646D01*
X150555646Y-94170147D01*
X150703216Y-94071544D01*
X150867188Y-94003624D01*
X151016488Y-93973927D01*
X151041258Y-93969000D01*
X151218742Y-93969000D01*
X151243512Y-93973927D01*
G37*
G36*
X148703512Y-93973927D02*
G01*
X148852812Y-94003624D01*
X149016784Y-94071544D01*
X149164354Y-94170147D01*
X149289853Y-94295646D01*
X149388456Y-94443216D01*
X149456376Y-94607188D01*
X149491000Y-94781259D01*
X149491000Y-94958741D01*
X149456376Y-95132812D01*
X149388456Y-95296784D01*
X149289853Y-95444354D01*
X149164354Y-95569853D01*
X149016784Y-95668456D01*
X148852812Y-95736376D01*
X148703512Y-95766073D01*
X148678742Y-95771000D01*
X148501258Y-95771000D01*
X148476488Y-95766073D01*
X148327188Y-95736376D01*
X148163216Y-95668456D01*
X148015646Y-95569853D01*
X147890147Y-95444354D01*
X147791544Y-95296784D01*
X147723624Y-95132812D01*
X147689000Y-94958741D01*
X147689000Y-94781259D01*
X147723624Y-94607188D01*
X147791544Y-94443216D01*
X147890147Y-94295646D01*
X148015646Y-94170147D01*
X148163216Y-94071544D01*
X148327188Y-94003624D01*
X148476488Y-93973927D01*
X148501258Y-93969000D01*
X148678742Y-93969000D01*
X148703512Y-93973927D01*
G37*
M02*
