G04 #@! TF.GenerationSoftware,KiCad,Pcbnew,(5.1.5)-3*
G04 #@! TF.CreationDate,2020-03-15T09:51:23+01:00*
G04 #@! TF.ProjectId,Capteur_Hall_I2C,43617074-6575-4725-9f48-616c6c5f4932,0.1*
G04 #@! TF.SameCoordinates,Original*
G04 #@! TF.FileFunction,Copper,L2,Bot*
G04 #@! TF.FilePolarity,Positive*
%FSLAX46Y46*%
G04 Gerber Fmt 4.6, Leading zero omitted, Abs format (unit mm)*
G04 Created by KiCad (PCBNEW (5.1.5)-3) date 2020-03-15 09:51:23*
%MOMM*%
%LPD*%
G04 APERTURE LIST*
%ADD10C,0.300000*%
%ADD11C,3.200000*%
%ADD12R,1.700000X1.700000*%
%ADD13O,1.700000X1.700000*%
%ADD14C,1.000000*%
%ADD15C,0.500000*%
%ADD16C,0.310000*%
%ADD17C,0.254000*%
G04 APERTURE END LIST*
D10*
X151578571Y-98683571D02*
X151578571Y-98969285D01*
X151650000Y-99112142D01*
X151792857Y-99255000D01*
X152078571Y-99326428D01*
X152578571Y-99326428D01*
X152864285Y-99255000D01*
X153007142Y-99112142D01*
X153078571Y-98969285D01*
X153078571Y-98683571D01*
X153007142Y-98540714D01*
X152864285Y-98397857D01*
X152578571Y-98326428D01*
X152078571Y-98326428D01*
X151792857Y-98397857D01*
X151650000Y-98540714D01*
X151578571Y-98683571D01*
X152078571Y-99969285D02*
X153578571Y-99969285D01*
X152150000Y-99969285D02*
X152078571Y-100112142D01*
X152078571Y-100397857D01*
X152150000Y-100540714D01*
X152221428Y-100612142D01*
X152364285Y-100683571D01*
X152792857Y-100683571D01*
X152935714Y-100612142D01*
X153007142Y-100540714D01*
X153078571Y-100397857D01*
X153078571Y-100112142D01*
X153007142Y-99969285D01*
X153007142Y-101897857D02*
X153078571Y-101755000D01*
X153078571Y-101469285D01*
X153007142Y-101326428D01*
X152864285Y-101255000D01*
X152292857Y-101255000D01*
X152150000Y-101326428D01*
X152078571Y-101469285D01*
X152078571Y-101755000D01*
X152150000Y-101897857D01*
X152292857Y-101969285D01*
X152435714Y-101969285D01*
X152578571Y-101255000D01*
X152078571Y-102612142D02*
X153078571Y-102612142D01*
X152221428Y-102612142D02*
X152150000Y-102683571D01*
X152078571Y-102826428D01*
X152078571Y-103040714D01*
X152150000Y-103183571D01*
X152292857Y-103255000D01*
X153078571Y-103255000D01*
X152650000Y-103897857D02*
X152650000Y-104612142D01*
X153078571Y-103755000D02*
X151578571Y-104255000D01*
X153078571Y-104755000D01*
X151578571Y-105040714D02*
X153078571Y-105540714D01*
X151578571Y-106040714D01*
X153078571Y-107397857D02*
X152364285Y-106897857D01*
X153078571Y-106540714D02*
X151578571Y-106540714D01*
X151578571Y-107112142D01*
X151650000Y-107255000D01*
X151721428Y-107326428D01*
X151864285Y-107397857D01*
X152078571Y-107397857D01*
X152221428Y-107326428D01*
X152292857Y-107255000D01*
X152364285Y-107112142D01*
X152364285Y-106540714D01*
X153007142Y-108683571D02*
X153078571Y-108540714D01*
X153078571Y-108255000D01*
X153007142Y-108112142D01*
X152935714Y-108040714D01*
X152792857Y-107969285D01*
X152364285Y-107969285D01*
X152221428Y-108040714D01*
X152150000Y-108112142D01*
X152078571Y-108255000D01*
X152078571Y-108540714D01*
X152150000Y-108683571D01*
D11*
X152400000Y-111760000D03*
X157480000Y-107950000D03*
X147320000Y-107950000D03*
D12*
X156210000Y-94870000D03*
D13*
X153670000Y-94870000D03*
X151130000Y-94870000D03*
X148590000Y-94870000D03*
D12*
X145415000Y-96520000D03*
X159385000Y-96520000D03*
D14*
X161290000Y-102235000D03*
X149225000Y-103505000D03*
X150495000Y-100924997D03*
D15*
X156210000Y-97663000D02*
X156210000Y-94870000D01*
X157480000Y-98933000D02*
X156210000Y-97663000D01*
X157480000Y-107950000D02*
X157480000Y-98933000D01*
D16*
X150495000Y-109855000D02*
X152400000Y-111760000D01*
X150495000Y-100924997D02*
X150495000Y-109855000D01*
D17*
G36*
X154263837Y-92699370D02*
G01*
X155476182Y-92998186D01*
X156488024Y-93381928D01*
X155360000Y-93381928D01*
X155235518Y-93394188D01*
X155115820Y-93430498D01*
X155005506Y-93489463D01*
X154908815Y-93568815D01*
X154829463Y-93665506D01*
X154770498Y-93775820D01*
X154748487Y-93848380D01*
X154616632Y-93716525D01*
X154373411Y-93554010D01*
X154103158Y-93442068D01*
X153816260Y-93385000D01*
X153523740Y-93385000D01*
X153236842Y-93442068D01*
X152966589Y-93554010D01*
X152723368Y-93716525D01*
X152516525Y-93923368D01*
X152400000Y-94097760D01*
X152283475Y-93923368D01*
X152076632Y-93716525D01*
X151833411Y-93554010D01*
X151563158Y-93442068D01*
X151276260Y-93385000D01*
X150983740Y-93385000D01*
X150696842Y-93442068D01*
X150426589Y-93554010D01*
X150183368Y-93716525D01*
X149976525Y-93923368D01*
X149854805Y-94105534D01*
X149785178Y-93988645D01*
X149590269Y-93772412D01*
X149356920Y-93598359D01*
X149094099Y-93473175D01*
X148946890Y-93428524D01*
X148717000Y-93549845D01*
X148717000Y-94743000D01*
X148737000Y-94743000D01*
X148737000Y-94997000D01*
X148717000Y-94997000D01*
X148717000Y-96190155D01*
X148946890Y-96311476D01*
X149094099Y-96266825D01*
X149356920Y-96141641D01*
X149590269Y-95967588D01*
X149785178Y-95751355D01*
X149854805Y-95634466D01*
X149976525Y-95816632D01*
X150183368Y-96023475D01*
X150426589Y-96185990D01*
X150696842Y-96297932D01*
X150983740Y-96355000D01*
X151276260Y-96355000D01*
X151563158Y-96297932D01*
X151833411Y-96185990D01*
X152076632Y-96023475D01*
X152283475Y-95816632D01*
X152400000Y-95642240D01*
X152516525Y-95816632D01*
X152723368Y-96023475D01*
X152966589Y-96185990D01*
X153236842Y-96297932D01*
X153523740Y-96355000D01*
X153816260Y-96355000D01*
X154103158Y-96297932D01*
X154373411Y-96185990D01*
X154616632Y-96023475D01*
X154748487Y-95891620D01*
X154770498Y-95964180D01*
X154829463Y-96074494D01*
X154908815Y-96171185D01*
X155005506Y-96250537D01*
X155115820Y-96309502D01*
X155235518Y-96345812D01*
X155325000Y-96354625D01*
X155325000Y-97619531D01*
X155320719Y-97663000D01*
X155325000Y-97706469D01*
X155325000Y-97706476D01*
X155337805Y-97836489D01*
X155388411Y-98003312D01*
X155470589Y-98157058D01*
X155581183Y-98291817D01*
X155614956Y-98319534D01*
X156595001Y-99299580D01*
X156595000Y-105897433D01*
X156421331Y-105969369D01*
X156055271Y-106213962D01*
X155743962Y-106525271D01*
X155499369Y-106891331D01*
X155330890Y-107298075D01*
X155245000Y-107729872D01*
X155245000Y-108170128D01*
X155330890Y-108601925D01*
X155499369Y-109008669D01*
X155743962Y-109374729D01*
X156055271Y-109686038D01*
X156421331Y-109930631D01*
X156828075Y-110099110D01*
X157259872Y-110185000D01*
X157700128Y-110185000D01*
X158131925Y-110099110D01*
X158538669Y-109930631D01*
X158904729Y-109686038D01*
X159216038Y-109374729D01*
X159460631Y-109008669D01*
X159629110Y-108601925D01*
X159715000Y-108170128D01*
X159715000Y-107729872D01*
X159629110Y-107298075D01*
X159460631Y-106891331D01*
X159216038Y-106525271D01*
X158904729Y-106213962D01*
X158538669Y-105969369D01*
X158365000Y-105897433D01*
X158365000Y-98976465D01*
X158369281Y-98932999D01*
X158365000Y-98889533D01*
X158365000Y-98889523D01*
X158352195Y-98759510D01*
X158301589Y-98592687D01*
X158219411Y-98438941D01*
X158108817Y-98304183D01*
X158075049Y-98276470D01*
X157095000Y-97296422D01*
X157095000Y-96354625D01*
X157184482Y-96345812D01*
X157304180Y-96309502D01*
X157414494Y-96250537D01*
X157511185Y-96171185D01*
X157590537Y-96074494D01*
X157649502Y-95964180D01*
X157685812Y-95844482D01*
X157698072Y-95720000D01*
X157698072Y-94020000D01*
X157695408Y-93992952D01*
X157749273Y-94021222D01*
X158776873Y-94730523D01*
X159117089Y-95031928D01*
X158535000Y-95031928D01*
X158410518Y-95044188D01*
X158290820Y-95080498D01*
X158180506Y-95139463D01*
X158083815Y-95218815D01*
X158004463Y-95315506D01*
X157945498Y-95425820D01*
X157909188Y-95545518D01*
X157896928Y-95670000D01*
X157896928Y-97370000D01*
X157909188Y-97494482D01*
X157945498Y-97614180D01*
X158004463Y-97724494D01*
X158083815Y-97821185D01*
X158180506Y-97900537D01*
X158290820Y-97959502D01*
X158410518Y-97995812D01*
X158535000Y-98008072D01*
X160235000Y-98008072D01*
X160359482Y-97995812D01*
X160479180Y-97959502D01*
X160589494Y-97900537D01*
X160686185Y-97821185D01*
X160765537Y-97724494D01*
X160824502Y-97614180D01*
X160860812Y-97494482D01*
X160873072Y-97370000D01*
X160873072Y-96976423D01*
X161248778Y-97520727D01*
X161829044Y-98626332D01*
X162271814Y-99793818D01*
X162570630Y-101006163D01*
X162721135Y-102245686D01*
X162721135Y-103494314D01*
X162570630Y-104733837D01*
X162271814Y-105946182D01*
X161829044Y-107113668D01*
X161248778Y-108219273D01*
X160539477Y-109246873D01*
X159711484Y-110181484D01*
X158776873Y-111009477D01*
X157749273Y-111718778D01*
X156643668Y-112299044D01*
X155476182Y-112741814D01*
X154263837Y-113040630D01*
X154229539Y-113044795D01*
X154380631Y-112818669D01*
X154549110Y-112411925D01*
X154635000Y-111980128D01*
X154635000Y-111539872D01*
X154549110Y-111108075D01*
X154380631Y-110701331D01*
X154136038Y-110335271D01*
X153824729Y-110023962D01*
X153458669Y-109779369D01*
X153398111Y-109754285D01*
X154430000Y-109754285D01*
X154430000Y-97255714D01*
X150610000Y-97255714D01*
X150610000Y-99790636D01*
X150606788Y-99789997D01*
X150383212Y-99789997D01*
X150163933Y-99833614D01*
X149957376Y-99919173D01*
X149771480Y-100043385D01*
X149613388Y-100201477D01*
X149489176Y-100387373D01*
X149403617Y-100593930D01*
X149360000Y-100813209D01*
X149360000Y-101036785D01*
X149403617Y-101256064D01*
X149489176Y-101462621D01*
X149613388Y-101648517D01*
X149705000Y-101740129D01*
X149705001Y-109816185D01*
X149701178Y-109855000D01*
X149716431Y-110009866D01*
X149761604Y-110158782D01*
X149773739Y-110181484D01*
X149834962Y-110296024D01*
X149933684Y-110416317D01*
X149963825Y-110441053D01*
X150362177Y-110839405D01*
X150250890Y-111108075D01*
X150165000Y-111539872D01*
X150165000Y-111980128D01*
X150250890Y-112411925D01*
X150419369Y-112818669D01*
X150570461Y-113044795D01*
X150536163Y-113040630D01*
X149323818Y-112741814D01*
X148156332Y-112299044D01*
X147050727Y-111718778D01*
X146023127Y-111009477D01*
X145088516Y-110181484D01*
X144496154Y-109512845D01*
X145936761Y-109512845D01*
X146104802Y-109838643D01*
X146496607Y-110039426D01*
X146920055Y-110159914D01*
X147358873Y-110195476D01*
X147796197Y-110144746D01*
X148215221Y-110009674D01*
X148535198Y-109838643D01*
X148703239Y-109512845D01*
X147320000Y-108129605D01*
X145936761Y-109512845D01*
X144496154Y-109512845D01*
X144260523Y-109246873D01*
X143551222Y-108219273D01*
X143430299Y-107988873D01*
X145074524Y-107988873D01*
X145125254Y-108426197D01*
X145260326Y-108845221D01*
X145431357Y-109165198D01*
X145757155Y-109333239D01*
X147140395Y-107950000D01*
X147499605Y-107950000D01*
X148882845Y-109333239D01*
X149208643Y-109165198D01*
X149409426Y-108773393D01*
X149529914Y-108349945D01*
X149565476Y-107911127D01*
X149514746Y-107473803D01*
X149379674Y-107054779D01*
X149208643Y-106734802D01*
X148882845Y-106566761D01*
X147499605Y-107950000D01*
X147140395Y-107950000D01*
X145757155Y-106566761D01*
X145431357Y-106734802D01*
X145230574Y-107126607D01*
X145110086Y-107550055D01*
X145074524Y-107988873D01*
X143430299Y-107988873D01*
X142970956Y-107113668D01*
X142695426Y-106387155D01*
X145936761Y-106387155D01*
X147320000Y-107770395D01*
X148703239Y-106387155D01*
X148535198Y-106061357D01*
X148143393Y-105860574D01*
X147719945Y-105740086D01*
X147281127Y-105704524D01*
X146843803Y-105755254D01*
X146424779Y-105890326D01*
X146104802Y-106061357D01*
X145936761Y-106387155D01*
X142695426Y-106387155D01*
X142528186Y-105946182D01*
X142229370Y-104733837D01*
X142078865Y-103494314D01*
X142078865Y-102245686D01*
X142229370Y-101006163D01*
X142528186Y-99793818D01*
X142970956Y-98626332D01*
X143551222Y-97520727D01*
X143926928Y-96976423D01*
X143926928Y-97370000D01*
X143939188Y-97494482D01*
X143975498Y-97614180D01*
X144034463Y-97724494D01*
X144113815Y-97821185D01*
X144210506Y-97900537D01*
X144320820Y-97959502D01*
X144440518Y-97995812D01*
X144565000Y-98008072D01*
X146265000Y-98008072D01*
X146389482Y-97995812D01*
X146509180Y-97959502D01*
X146619494Y-97900537D01*
X146716185Y-97821185D01*
X146795537Y-97724494D01*
X146854502Y-97614180D01*
X146890812Y-97494482D01*
X146903072Y-97370000D01*
X146903072Y-95670000D01*
X146890812Y-95545518D01*
X146854502Y-95425820D01*
X146795537Y-95315506D01*
X146722813Y-95226891D01*
X147148519Y-95226891D01*
X147245843Y-95501252D01*
X147394822Y-95751355D01*
X147589731Y-95967588D01*
X147823080Y-96141641D01*
X148085901Y-96266825D01*
X148233110Y-96311476D01*
X148463000Y-96190155D01*
X148463000Y-94997000D01*
X147269186Y-94997000D01*
X147148519Y-95226891D01*
X146722813Y-95226891D01*
X146716185Y-95218815D01*
X146619494Y-95139463D01*
X146509180Y-95080498D01*
X146389482Y-95044188D01*
X146265000Y-95031928D01*
X145682911Y-95031928D01*
X146023127Y-94730523D01*
X147050727Y-94021222D01*
X147743908Y-93657413D01*
X147589731Y-93772412D01*
X147394822Y-93988645D01*
X147245843Y-94238748D01*
X147148519Y-94513109D01*
X147269186Y-94743000D01*
X148463000Y-94743000D01*
X148463000Y-93549845D01*
X148233110Y-93428524D01*
X148107325Y-93466677D01*
X148156332Y-93440956D01*
X149323818Y-92998186D01*
X150536163Y-92699370D01*
X151775686Y-92548865D01*
X153024314Y-92548865D01*
X154263837Y-92699370D01*
G37*
X154263837Y-92699370D02*
X155476182Y-92998186D01*
X156488024Y-93381928D01*
X155360000Y-93381928D01*
X155235518Y-93394188D01*
X155115820Y-93430498D01*
X155005506Y-93489463D01*
X154908815Y-93568815D01*
X154829463Y-93665506D01*
X154770498Y-93775820D01*
X154748487Y-93848380D01*
X154616632Y-93716525D01*
X154373411Y-93554010D01*
X154103158Y-93442068D01*
X153816260Y-93385000D01*
X153523740Y-93385000D01*
X153236842Y-93442068D01*
X152966589Y-93554010D01*
X152723368Y-93716525D01*
X152516525Y-93923368D01*
X152400000Y-94097760D01*
X152283475Y-93923368D01*
X152076632Y-93716525D01*
X151833411Y-93554010D01*
X151563158Y-93442068D01*
X151276260Y-93385000D01*
X150983740Y-93385000D01*
X150696842Y-93442068D01*
X150426589Y-93554010D01*
X150183368Y-93716525D01*
X149976525Y-93923368D01*
X149854805Y-94105534D01*
X149785178Y-93988645D01*
X149590269Y-93772412D01*
X149356920Y-93598359D01*
X149094099Y-93473175D01*
X148946890Y-93428524D01*
X148717000Y-93549845D01*
X148717000Y-94743000D01*
X148737000Y-94743000D01*
X148737000Y-94997000D01*
X148717000Y-94997000D01*
X148717000Y-96190155D01*
X148946890Y-96311476D01*
X149094099Y-96266825D01*
X149356920Y-96141641D01*
X149590269Y-95967588D01*
X149785178Y-95751355D01*
X149854805Y-95634466D01*
X149976525Y-95816632D01*
X150183368Y-96023475D01*
X150426589Y-96185990D01*
X150696842Y-96297932D01*
X150983740Y-96355000D01*
X151276260Y-96355000D01*
X151563158Y-96297932D01*
X151833411Y-96185990D01*
X152076632Y-96023475D01*
X152283475Y-95816632D01*
X152400000Y-95642240D01*
X152516525Y-95816632D01*
X152723368Y-96023475D01*
X152966589Y-96185990D01*
X153236842Y-96297932D01*
X153523740Y-96355000D01*
X153816260Y-96355000D01*
X154103158Y-96297932D01*
X154373411Y-96185990D01*
X154616632Y-96023475D01*
X154748487Y-95891620D01*
X154770498Y-95964180D01*
X154829463Y-96074494D01*
X154908815Y-96171185D01*
X155005506Y-96250537D01*
X155115820Y-96309502D01*
X155235518Y-96345812D01*
X155325000Y-96354625D01*
X155325000Y-97619531D01*
X155320719Y-97663000D01*
X155325000Y-97706469D01*
X155325000Y-97706476D01*
X155337805Y-97836489D01*
X155388411Y-98003312D01*
X155470589Y-98157058D01*
X155581183Y-98291817D01*
X155614956Y-98319534D01*
X156595001Y-99299580D01*
X156595000Y-105897433D01*
X156421331Y-105969369D01*
X156055271Y-106213962D01*
X155743962Y-106525271D01*
X155499369Y-106891331D01*
X155330890Y-107298075D01*
X155245000Y-107729872D01*
X155245000Y-108170128D01*
X155330890Y-108601925D01*
X155499369Y-109008669D01*
X155743962Y-109374729D01*
X156055271Y-109686038D01*
X156421331Y-109930631D01*
X156828075Y-110099110D01*
X157259872Y-110185000D01*
X157700128Y-110185000D01*
X158131925Y-110099110D01*
X158538669Y-109930631D01*
X158904729Y-109686038D01*
X159216038Y-109374729D01*
X159460631Y-109008669D01*
X159629110Y-108601925D01*
X159715000Y-108170128D01*
X159715000Y-107729872D01*
X159629110Y-107298075D01*
X159460631Y-106891331D01*
X159216038Y-106525271D01*
X158904729Y-106213962D01*
X158538669Y-105969369D01*
X158365000Y-105897433D01*
X158365000Y-98976465D01*
X158369281Y-98932999D01*
X158365000Y-98889533D01*
X158365000Y-98889523D01*
X158352195Y-98759510D01*
X158301589Y-98592687D01*
X158219411Y-98438941D01*
X158108817Y-98304183D01*
X158075049Y-98276470D01*
X157095000Y-97296422D01*
X157095000Y-96354625D01*
X157184482Y-96345812D01*
X157304180Y-96309502D01*
X157414494Y-96250537D01*
X157511185Y-96171185D01*
X157590537Y-96074494D01*
X157649502Y-95964180D01*
X157685812Y-95844482D01*
X157698072Y-95720000D01*
X157698072Y-94020000D01*
X157695408Y-93992952D01*
X157749273Y-94021222D01*
X158776873Y-94730523D01*
X159117089Y-95031928D01*
X158535000Y-95031928D01*
X158410518Y-95044188D01*
X158290820Y-95080498D01*
X158180506Y-95139463D01*
X158083815Y-95218815D01*
X158004463Y-95315506D01*
X157945498Y-95425820D01*
X157909188Y-95545518D01*
X157896928Y-95670000D01*
X157896928Y-97370000D01*
X157909188Y-97494482D01*
X157945498Y-97614180D01*
X158004463Y-97724494D01*
X158083815Y-97821185D01*
X158180506Y-97900537D01*
X158290820Y-97959502D01*
X158410518Y-97995812D01*
X158535000Y-98008072D01*
X160235000Y-98008072D01*
X160359482Y-97995812D01*
X160479180Y-97959502D01*
X160589494Y-97900537D01*
X160686185Y-97821185D01*
X160765537Y-97724494D01*
X160824502Y-97614180D01*
X160860812Y-97494482D01*
X160873072Y-97370000D01*
X160873072Y-96976423D01*
X161248778Y-97520727D01*
X161829044Y-98626332D01*
X162271814Y-99793818D01*
X162570630Y-101006163D01*
X162721135Y-102245686D01*
X162721135Y-103494314D01*
X162570630Y-104733837D01*
X162271814Y-105946182D01*
X161829044Y-107113668D01*
X161248778Y-108219273D01*
X160539477Y-109246873D01*
X159711484Y-110181484D01*
X158776873Y-111009477D01*
X157749273Y-111718778D01*
X156643668Y-112299044D01*
X155476182Y-112741814D01*
X154263837Y-113040630D01*
X154229539Y-113044795D01*
X154380631Y-112818669D01*
X154549110Y-112411925D01*
X154635000Y-111980128D01*
X154635000Y-111539872D01*
X154549110Y-111108075D01*
X154380631Y-110701331D01*
X154136038Y-110335271D01*
X153824729Y-110023962D01*
X153458669Y-109779369D01*
X153398111Y-109754285D01*
X154430000Y-109754285D01*
X154430000Y-97255714D01*
X150610000Y-97255714D01*
X150610000Y-99790636D01*
X150606788Y-99789997D01*
X150383212Y-99789997D01*
X150163933Y-99833614D01*
X149957376Y-99919173D01*
X149771480Y-100043385D01*
X149613388Y-100201477D01*
X149489176Y-100387373D01*
X149403617Y-100593930D01*
X149360000Y-100813209D01*
X149360000Y-101036785D01*
X149403617Y-101256064D01*
X149489176Y-101462621D01*
X149613388Y-101648517D01*
X149705000Y-101740129D01*
X149705001Y-109816185D01*
X149701178Y-109855000D01*
X149716431Y-110009866D01*
X149761604Y-110158782D01*
X149773739Y-110181484D01*
X149834962Y-110296024D01*
X149933684Y-110416317D01*
X149963825Y-110441053D01*
X150362177Y-110839405D01*
X150250890Y-111108075D01*
X150165000Y-111539872D01*
X150165000Y-111980128D01*
X150250890Y-112411925D01*
X150419369Y-112818669D01*
X150570461Y-113044795D01*
X150536163Y-113040630D01*
X149323818Y-112741814D01*
X148156332Y-112299044D01*
X147050727Y-111718778D01*
X146023127Y-111009477D01*
X145088516Y-110181484D01*
X144496154Y-109512845D01*
X145936761Y-109512845D01*
X146104802Y-109838643D01*
X146496607Y-110039426D01*
X146920055Y-110159914D01*
X147358873Y-110195476D01*
X147796197Y-110144746D01*
X148215221Y-110009674D01*
X148535198Y-109838643D01*
X148703239Y-109512845D01*
X147320000Y-108129605D01*
X145936761Y-109512845D01*
X144496154Y-109512845D01*
X144260523Y-109246873D01*
X143551222Y-108219273D01*
X143430299Y-107988873D01*
X145074524Y-107988873D01*
X145125254Y-108426197D01*
X145260326Y-108845221D01*
X145431357Y-109165198D01*
X145757155Y-109333239D01*
X147140395Y-107950000D01*
X147499605Y-107950000D01*
X148882845Y-109333239D01*
X149208643Y-109165198D01*
X149409426Y-108773393D01*
X149529914Y-108349945D01*
X149565476Y-107911127D01*
X149514746Y-107473803D01*
X149379674Y-107054779D01*
X149208643Y-106734802D01*
X148882845Y-106566761D01*
X147499605Y-107950000D01*
X147140395Y-107950000D01*
X145757155Y-106566761D01*
X145431357Y-106734802D01*
X145230574Y-107126607D01*
X145110086Y-107550055D01*
X145074524Y-107988873D01*
X143430299Y-107988873D01*
X142970956Y-107113668D01*
X142695426Y-106387155D01*
X145936761Y-106387155D01*
X147320000Y-107770395D01*
X148703239Y-106387155D01*
X148535198Y-106061357D01*
X148143393Y-105860574D01*
X147719945Y-105740086D01*
X147281127Y-105704524D01*
X146843803Y-105755254D01*
X146424779Y-105890326D01*
X146104802Y-106061357D01*
X145936761Y-106387155D01*
X142695426Y-106387155D01*
X142528186Y-105946182D01*
X142229370Y-104733837D01*
X142078865Y-103494314D01*
X142078865Y-102245686D01*
X142229370Y-101006163D01*
X142528186Y-99793818D01*
X142970956Y-98626332D01*
X143551222Y-97520727D01*
X143926928Y-96976423D01*
X143926928Y-97370000D01*
X143939188Y-97494482D01*
X143975498Y-97614180D01*
X144034463Y-97724494D01*
X144113815Y-97821185D01*
X144210506Y-97900537D01*
X144320820Y-97959502D01*
X144440518Y-97995812D01*
X144565000Y-98008072D01*
X146265000Y-98008072D01*
X146389482Y-97995812D01*
X146509180Y-97959502D01*
X146619494Y-97900537D01*
X146716185Y-97821185D01*
X146795537Y-97724494D01*
X146854502Y-97614180D01*
X146890812Y-97494482D01*
X146903072Y-97370000D01*
X146903072Y-95670000D01*
X146890812Y-95545518D01*
X146854502Y-95425820D01*
X146795537Y-95315506D01*
X146722813Y-95226891D01*
X147148519Y-95226891D01*
X147245843Y-95501252D01*
X147394822Y-95751355D01*
X147589731Y-95967588D01*
X147823080Y-96141641D01*
X148085901Y-96266825D01*
X148233110Y-96311476D01*
X148463000Y-96190155D01*
X148463000Y-94997000D01*
X147269186Y-94997000D01*
X147148519Y-95226891D01*
X146722813Y-95226891D01*
X146716185Y-95218815D01*
X146619494Y-95139463D01*
X146509180Y-95080498D01*
X146389482Y-95044188D01*
X146265000Y-95031928D01*
X145682911Y-95031928D01*
X146023127Y-94730523D01*
X147050727Y-94021222D01*
X147743908Y-93657413D01*
X147589731Y-93772412D01*
X147394822Y-93988645D01*
X147245843Y-94238748D01*
X147148519Y-94513109D01*
X147269186Y-94743000D01*
X148463000Y-94743000D01*
X148463000Y-93549845D01*
X148233110Y-93428524D01*
X148107325Y-93466677D01*
X148156332Y-93440956D01*
X149323818Y-92998186D01*
X150536163Y-92699370D01*
X151775686Y-92548865D01*
X153024314Y-92548865D01*
X154263837Y-92699370D01*
M02*
