G04 #@! TF.GenerationSoftware,KiCad,Pcbnew,(5.0.2)-1*
G04 #@! TF.CreationDate,2018-12-20T14:21:34+01:00*
G04 #@! TF.ProjectId,MutltiSwitch_Sw8,4d75746c-7469-4537-9769-7463685f5377,0.1*
G04 #@! TF.SameCoordinates,Original*
G04 #@! TF.FileFunction,Legend,Top*
G04 #@! TF.FilePolarity,Positive*
%FSLAX46Y46*%
G04 Gerber Fmt 4.6, Leading zero omitted, Abs format (unit mm)*
G04 Created by KiCad (PCBNEW (5.0.2)-1) date 20/12/2018 14:21:34*
%MOMM*%
%LPD*%
G01*
G04 APERTURE LIST*
%ADD10C,0.200000*%
%ADD11C,0.150000*%
%ADD12C,0.100000*%
%ADD13C,0.120000*%
G04 APERTURE END LIST*
D10*
X144780000Y-108712000D02*
X144780000Y-110236000D01*
X144653000Y-108712000D02*
X144653000Y-110236000D01*
X135890000Y-111887000D02*
X135890000Y-113665000D01*
X135763000Y-111887000D02*
X135763000Y-113665000D01*
D11*
X162989142Y-115149380D02*
X163322476Y-116149380D01*
X163655809Y-115149380D01*
X163989142Y-115625571D02*
X164322476Y-115625571D01*
X164465333Y-116149380D02*
X163989142Y-116149380D01*
X163989142Y-115149380D01*
X164465333Y-115149380D01*
X164798666Y-116149380D02*
X165322476Y-115482714D01*
X164798666Y-115482714D02*
X165322476Y-116149380D01*
X165560571Y-115482714D02*
X165941523Y-115482714D01*
X165703428Y-115149380D02*
X165703428Y-116006523D01*
X165751047Y-116101761D01*
X165846285Y-116149380D01*
X165941523Y-116149380D01*
X169084380Y-115197000D02*
X168989142Y-115149380D01*
X168846285Y-115149380D01*
X168703428Y-115197000D01*
X168608190Y-115292238D01*
X168560571Y-115387476D01*
X168512952Y-115577952D01*
X168512952Y-115720809D01*
X168560571Y-115911285D01*
X168608190Y-116006523D01*
X168703428Y-116101761D01*
X168846285Y-116149380D01*
X168941523Y-116149380D01*
X169084380Y-116101761D01*
X169132000Y-116054142D01*
X169132000Y-115720809D01*
X168941523Y-115720809D01*
X169560571Y-116149380D02*
X169560571Y-115149380D01*
X170132000Y-116149380D01*
X170132000Y-115149380D01*
X170608190Y-116149380D02*
X170608190Y-115149380D01*
X170846285Y-115149380D01*
X170989142Y-115197000D01*
X171084380Y-115292238D01*
X171132000Y-115387476D01*
X171179619Y-115577952D01*
X171179619Y-115720809D01*
X171132000Y-115911285D01*
X171084380Y-116006523D01*
X170989142Y-116101761D01*
X170846285Y-116149380D01*
X170608190Y-116149380D01*
D12*
G04 #@! TO.C,P10*
X168148000Y-108585000D02*
X168148000Y-110744000D01*
X168148000Y-110744000D02*
X170942000Y-110744000D01*
X170942000Y-110744000D02*
X170942000Y-108585000D01*
X168148000Y-108585000D02*
X168148000Y-92710000D01*
X170942000Y-108585000D02*
X170942000Y-90043000D01*
D13*
X170935000Y-92710000D02*
X168155000Y-92710000D01*
X168155000Y-91440000D02*
X168155000Y-90050000D01*
X168155000Y-90050000D02*
X169545000Y-90050000D01*
D12*
G04 #@! TO.C,P7*
X165608000Y-108585000D02*
X165608000Y-110744000D01*
X165608000Y-110744000D02*
X168402000Y-110744000D01*
X168402000Y-110744000D02*
X168402000Y-108585000D01*
X165608000Y-108585000D02*
X165608000Y-92710000D01*
X168402000Y-108585000D02*
X168402000Y-90043000D01*
D13*
X168395000Y-92710000D02*
X165615000Y-92710000D01*
X165615000Y-91440000D02*
X165615000Y-90050000D01*
X165615000Y-90050000D02*
X167005000Y-90050000D01*
G04 #@! TO.C,IC1*
X144415000Y-90050000D02*
X143045000Y-90050000D01*
X143045000Y-90050000D02*
X143045000Y-108070000D01*
X143045000Y-108070000D02*
X147785000Y-108070000D01*
X147785000Y-108070000D02*
X147785000Y-90050000D01*
X147785000Y-90050000D02*
X146415000Y-90050000D01*
X146415000Y-90050000D02*
G75*
G02X144415000Y-90050000I-1000000J0D01*
G01*
D12*
G04 #@! TO.C,P6*
X162941000Y-118745000D02*
X162179000Y-118745000D01*
X162179000Y-118745000D02*
X162179000Y-117475000D01*
X162179000Y-117475000D02*
X162941000Y-117475000D01*
X165989000Y-118745000D02*
X166751000Y-118745000D01*
X166751000Y-118745000D02*
X166751000Y-117475000D01*
X166751000Y-117475000D02*
X165989000Y-117475000D01*
X168021000Y-118745000D02*
X167259000Y-118745000D01*
X167259000Y-118745000D02*
X167259000Y-117475000D01*
X167259000Y-117475000D02*
X168021000Y-117475000D01*
X171069000Y-118745000D02*
X171831000Y-118745000D01*
X171831000Y-118745000D02*
X171831000Y-117475000D01*
X171831000Y-117475000D02*
X171069000Y-117475000D01*
G04 #@! TO.C,P5*
X163068000Y-108585000D02*
X163068000Y-110744000D01*
X163068000Y-110744000D02*
X165862000Y-110744000D01*
X165862000Y-110744000D02*
X165862000Y-108585000D01*
X163068000Y-108585000D02*
X163068000Y-92710000D01*
X165862000Y-108585000D02*
X165862000Y-90043000D01*
D13*
X165855000Y-92710000D02*
X163075000Y-92710000D01*
X163075000Y-91440000D02*
X163075000Y-90050000D01*
X163075000Y-90050000D02*
X164465000Y-90050000D01*
G04 #@! TO.C,D1*
X146645000Y-110324000D02*
X146645000Y-108624000D01*
X146595000Y-108624000D02*
X142545000Y-108624000D01*
X146595000Y-110324000D02*
X142545000Y-110324000D01*
G04 #@! TO.C,IC2*
X155845000Y-90050000D02*
X154475000Y-90050000D01*
X154475000Y-90050000D02*
X154475000Y-113150000D01*
X154475000Y-113150000D02*
X159215000Y-113150000D01*
X159215000Y-113150000D02*
X159215000Y-90050000D01*
X159215000Y-90050000D02*
X157845000Y-90050000D01*
X157845000Y-90050000D02*
G75*
G02X155845000Y-90050000I-1000000J0D01*
G01*
G04 #@! TO.C,P1*
X146050000Y-119500000D02*
X151250000Y-119500000D01*
X151250000Y-119500000D02*
X151250000Y-116720000D01*
X151250000Y-116720000D02*
X146050000Y-116720000D01*
X146050000Y-116720000D02*
X146050000Y-119500000D01*
X144780000Y-119500000D02*
X143390000Y-119500000D01*
X143390000Y-119500000D02*
X143390000Y-118110000D01*
G04 #@! TO.C,P2*
X134373000Y-104775000D02*
X134373000Y-109975000D01*
X134373000Y-109975000D02*
X137153000Y-109975000D01*
X137153000Y-109975000D02*
X137153000Y-104775000D01*
X137153000Y-104775000D02*
X134373000Y-104775000D01*
X134373000Y-103505000D02*
X134373000Y-102115000D01*
X134373000Y-102115000D02*
X135763000Y-102115000D01*
G04 #@! TO.C,P3*
X144145000Y-113531000D02*
X149345000Y-113531000D01*
X149345000Y-113531000D02*
X149345000Y-110751000D01*
X149345000Y-110751000D02*
X144145000Y-110751000D01*
X144145000Y-110751000D02*
X144145000Y-113531000D01*
X142875000Y-113531000D02*
X141485000Y-113531000D01*
X141485000Y-113531000D02*
X141485000Y-112141000D01*
G04 #@! TO.C,P4*
X165735000Y-114420000D02*
X170935000Y-114420000D01*
X170935000Y-114420000D02*
X170935000Y-111640000D01*
X170935000Y-111640000D02*
X165735000Y-111640000D01*
X165735000Y-111640000D02*
X165735000Y-114420000D01*
X164465000Y-114420000D02*
X163075000Y-114420000D01*
X163075000Y-114420000D02*
X163075000Y-113030000D01*
G04 #@! TO.C,D3*
X134402000Y-111776000D02*
X134402000Y-113776000D01*
X134402000Y-113776000D02*
X138302000Y-113776000D01*
X134402000Y-111776000D02*
X138302000Y-111776000D01*
G04 #@! TO.C,P8*
X155448000Y-119500000D02*
X160648000Y-119500000D01*
X160648000Y-119500000D02*
X160648000Y-116720000D01*
X160648000Y-116720000D02*
X155448000Y-116720000D01*
X155448000Y-116720000D02*
X155448000Y-119500000D01*
X154178000Y-119500000D02*
X152788000Y-119500000D01*
X152788000Y-119500000D02*
X152788000Y-118110000D01*
G04 #@! TO.C,R4*
X143780000Y-114627000D02*
X145780000Y-114627000D01*
X145780000Y-116767000D02*
X143780000Y-116767000D01*
G04 #@! TO.C,P9*
X137160000Y-116840000D02*
X142367000Y-116840000D01*
X137160000Y-119500000D02*
X142360000Y-119500000D01*
X142360000Y-119500000D02*
X142360000Y-114180000D01*
X142360000Y-114180000D02*
X134500000Y-114180000D01*
X134500000Y-114180000D02*
X134500000Y-116840000D01*
X134500000Y-116840000D02*
X137160000Y-116840000D01*
X137160000Y-116840000D02*
X137160000Y-119500000D01*
X135890000Y-119500000D02*
X134500000Y-119500000D01*
X134500000Y-119500000D02*
X134500000Y-118110000D01*
G04 #@! TO.C,P10*
D11*
X168457714Y-89860380D02*
X168457714Y-88860380D01*
X168838666Y-88860380D01*
X168933904Y-88908000D01*
X168981523Y-88955619D01*
X169029142Y-89050857D01*
X169029142Y-89193714D01*
X168981523Y-89288952D01*
X168933904Y-89336571D01*
X168838666Y-89384190D01*
X168457714Y-89384190D01*
X169981523Y-89860380D02*
X169410095Y-89860380D01*
X169695809Y-89860380D02*
X169695809Y-88860380D01*
X169600571Y-89003238D01*
X169505333Y-89098476D01*
X169410095Y-89146095D01*
X170600571Y-88860380D02*
X170695809Y-88860380D01*
X170791047Y-88908000D01*
X170838666Y-88955619D01*
X170886285Y-89050857D01*
X170933904Y-89241333D01*
X170933904Y-89479428D01*
X170886285Y-89669904D01*
X170838666Y-89765142D01*
X170791047Y-89812761D01*
X170695809Y-89860380D01*
X170600571Y-89860380D01*
X170505333Y-89812761D01*
X170457714Y-89765142D01*
X170410095Y-89669904D01*
X170362476Y-89479428D01*
X170362476Y-89241333D01*
X170410095Y-89050857D01*
X170457714Y-88955619D01*
X170505333Y-88908000D01*
X170600571Y-88860380D01*
G04 #@! TO.C,P7*
X166266904Y-89860380D02*
X166266904Y-88860380D01*
X166647857Y-88860380D01*
X166743095Y-88908000D01*
X166790714Y-88955619D01*
X166838333Y-89050857D01*
X166838333Y-89193714D01*
X166790714Y-89288952D01*
X166743095Y-89336571D01*
X166647857Y-89384190D01*
X166266904Y-89384190D01*
X167171666Y-88860380D02*
X167838333Y-88860380D01*
X167409761Y-89860380D01*
G04 #@! TO.C,IC1*
X144565809Y-89860380D02*
X144565809Y-88860380D01*
X145613428Y-89765142D02*
X145565809Y-89812761D01*
X145422952Y-89860380D01*
X145327714Y-89860380D01*
X145184857Y-89812761D01*
X145089619Y-89717523D01*
X145042000Y-89622285D01*
X144994380Y-89431809D01*
X144994380Y-89288952D01*
X145042000Y-89098476D01*
X145089619Y-89003238D01*
X145184857Y-88908000D01*
X145327714Y-88860380D01*
X145422952Y-88860380D01*
X145565809Y-88908000D01*
X145613428Y-88955619D01*
X146565809Y-89860380D02*
X145994380Y-89860380D01*
X146280095Y-89860380D02*
X146280095Y-88860380D01*
X146184857Y-89003238D01*
X146089619Y-89098476D01*
X145994380Y-89146095D01*
G04 #@! TO.C,P6*
X166266904Y-120213380D02*
X166266904Y-119213380D01*
X166647857Y-119213380D01*
X166743095Y-119261000D01*
X166790714Y-119308619D01*
X166838333Y-119403857D01*
X166838333Y-119546714D01*
X166790714Y-119641952D01*
X166743095Y-119689571D01*
X166647857Y-119737190D01*
X166266904Y-119737190D01*
X167695476Y-119213380D02*
X167505000Y-119213380D01*
X167409761Y-119261000D01*
X167362142Y-119308619D01*
X167266904Y-119451476D01*
X167219285Y-119641952D01*
X167219285Y-120022904D01*
X167266904Y-120118142D01*
X167314523Y-120165761D01*
X167409761Y-120213380D01*
X167600238Y-120213380D01*
X167695476Y-120165761D01*
X167743095Y-120118142D01*
X167790714Y-120022904D01*
X167790714Y-119784809D01*
X167743095Y-119689571D01*
X167695476Y-119641952D01*
X167600238Y-119594333D01*
X167409761Y-119594333D01*
X167314523Y-119641952D01*
X167266904Y-119689571D01*
X167219285Y-119784809D01*
G04 #@! TO.C,P5*
X163726904Y-89860380D02*
X163726904Y-88860380D01*
X164107857Y-88860380D01*
X164203095Y-88908000D01*
X164250714Y-88955619D01*
X164298333Y-89050857D01*
X164298333Y-89193714D01*
X164250714Y-89288952D01*
X164203095Y-89336571D01*
X164107857Y-89384190D01*
X163726904Y-89384190D01*
X165203095Y-88860380D02*
X164726904Y-88860380D01*
X164679285Y-89336571D01*
X164726904Y-89288952D01*
X164822142Y-89241333D01*
X165060238Y-89241333D01*
X165155476Y-89288952D01*
X165203095Y-89336571D01*
X165250714Y-89431809D01*
X165250714Y-89669904D01*
X165203095Y-89765142D01*
X165155476Y-89812761D01*
X165060238Y-89860380D01*
X164822142Y-89860380D01*
X164726904Y-89812761D01*
X164679285Y-89765142D01*
G04 #@! TO.C,X1*
X138509476Y-88987380D02*
X139176142Y-89987380D01*
X139176142Y-88987380D02*
X138509476Y-89987380D01*
X140080904Y-89987380D02*
X139509476Y-89987380D01*
X139795190Y-89987380D02*
X139795190Y-88987380D01*
X139699952Y-89130238D01*
X139604714Y-89225476D01*
X139509476Y-89273095D01*
G04 #@! TO.C,D1*
X139850904Y-109926380D02*
X139850904Y-108926380D01*
X140089000Y-108926380D01*
X140231857Y-108974000D01*
X140327095Y-109069238D01*
X140374714Y-109164476D01*
X140422333Y-109354952D01*
X140422333Y-109497809D01*
X140374714Y-109688285D01*
X140327095Y-109783523D01*
X140231857Y-109878761D01*
X140089000Y-109926380D01*
X139850904Y-109926380D01*
X141374714Y-109926380D02*
X140803285Y-109926380D01*
X141089000Y-109926380D02*
X141089000Y-108926380D01*
X140993761Y-109069238D01*
X140898523Y-109164476D01*
X140803285Y-109212095D01*
G04 #@! TO.C,IC2*
X155868809Y-89733380D02*
X155868809Y-88733380D01*
X156916428Y-89638142D02*
X156868809Y-89685761D01*
X156725952Y-89733380D01*
X156630714Y-89733380D01*
X156487857Y-89685761D01*
X156392619Y-89590523D01*
X156345000Y-89495285D01*
X156297380Y-89304809D01*
X156297380Y-89161952D01*
X156345000Y-88971476D01*
X156392619Y-88876238D01*
X156487857Y-88781000D01*
X156630714Y-88733380D01*
X156725952Y-88733380D01*
X156868809Y-88781000D01*
X156916428Y-88828619D01*
X157297380Y-88828619D02*
X157345000Y-88781000D01*
X157440238Y-88733380D01*
X157678333Y-88733380D01*
X157773571Y-88781000D01*
X157821190Y-88828619D01*
X157868809Y-88923857D01*
X157868809Y-89019095D01*
X157821190Y-89161952D01*
X157249761Y-89733380D01*
X157868809Y-89733380D01*
G04 #@! TO.C,P1*
X150010904Y-116403380D02*
X150010904Y-115403380D01*
X150391857Y-115403380D01*
X150487095Y-115451000D01*
X150534714Y-115498619D01*
X150582333Y-115593857D01*
X150582333Y-115736714D01*
X150534714Y-115831952D01*
X150487095Y-115879571D01*
X150391857Y-115927190D01*
X150010904Y-115927190D01*
X151534714Y-116403380D02*
X150963285Y-116403380D01*
X151249000Y-116403380D02*
X151249000Y-115403380D01*
X151153761Y-115546238D01*
X151058523Y-115641476D01*
X150963285Y-115689095D01*
G04 #@! TO.C,P2*
X138501380Y-104243095D02*
X137501380Y-104243095D01*
X137501380Y-103862142D01*
X137549000Y-103766904D01*
X137596619Y-103719285D01*
X137691857Y-103671666D01*
X137834714Y-103671666D01*
X137929952Y-103719285D01*
X137977571Y-103766904D01*
X138025190Y-103862142D01*
X138025190Y-104243095D01*
X137596619Y-103290714D02*
X137549000Y-103243095D01*
X137501380Y-103147857D01*
X137501380Y-102909761D01*
X137549000Y-102814523D01*
X137596619Y-102766904D01*
X137691857Y-102719285D01*
X137787095Y-102719285D01*
X137929952Y-102766904D01*
X138501380Y-103338333D01*
X138501380Y-102719285D01*
G04 #@! TO.C,P3*
X149629904Y-112593380D02*
X149629904Y-111593380D01*
X150010857Y-111593380D01*
X150106095Y-111641000D01*
X150153714Y-111688619D01*
X150201333Y-111783857D01*
X150201333Y-111926714D01*
X150153714Y-112021952D01*
X150106095Y-112069571D01*
X150010857Y-112117190D01*
X149629904Y-112117190D01*
X150534666Y-111593380D02*
X151153714Y-111593380D01*
X150820380Y-111974333D01*
X150963238Y-111974333D01*
X151058476Y-112021952D01*
X151106095Y-112069571D01*
X151153714Y-112164809D01*
X151153714Y-112402904D01*
X151106095Y-112498142D01*
X151058476Y-112545761D01*
X150963238Y-112593380D01*
X150677523Y-112593380D01*
X150582285Y-112545761D01*
X150534666Y-112498142D01*
G04 #@! TO.C,P4*
X161186904Y-114371380D02*
X161186904Y-113371380D01*
X161567857Y-113371380D01*
X161663095Y-113419000D01*
X161710714Y-113466619D01*
X161758333Y-113561857D01*
X161758333Y-113704714D01*
X161710714Y-113799952D01*
X161663095Y-113847571D01*
X161567857Y-113895190D01*
X161186904Y-113895190D01*
X162615476Y-113704714D02*
X162615476Y-114371380D01*
X162377380Y-113323761D02*
X162139285Y-114038047D01*
X162758333Y-114038047D01*
G04 #@! TO.C,D3*
X135532904Y-111450380D02*
X135532904Y-110450380D01*
X135771000Y-110450380D01*
X135913857Y-110498000D01*
X136009095Y-110593238D01*
X136056714Y-110688476D01*
X136104333Y-110878952D01*
X136104333Y-111021809D01*
X136056714Y-111212285D01*
X136009095Y-111307523D01*
X135913857Y-111402761D01*
X135771000Y-111450380D01*
X135532904Y-111450380D01*
X136437666Y-110450380D02*
X137056714Y-110450380D01*
X136723380Y-110831333D01*
X136866238Y-110831333D01*
X136961476Y-110878952D01*
X137009095Y-110926571D01*
X137056714Y-111021809D01*
X137056714Y-111259904D01*
X137009095Y-111355142D01*
X136961476Y-111402761D01*
X136866238Y-111450380D01*
X136580523Y-111450380D01*
X136485285Y-111402761D01*
X136437666Y-111355142D01*
G04 #@! TO.C,P8*
X156487904Y-116403380D02*
X156487904Y-115403380D01*
X156868857Y-115403380D01*
X156964095Y-115451000D01*
X157011714Y-115498619D01*
X157059333Y-115593857D01*
X157059333Y-115736714D01*
X157011714Y-115831952D01*
X156964095Y-115879571D01*
X156868857Y-115927190D01*
X156487904Y-115927190D01*
X157630761Y-115831952D02*
X157535523Y-115784333D01*
X157487904Y-115736714D01*
X157440285Y-115641476D01*
X157440285Y-115593857D01*
X157487904Y-115498619D01*
X157535523Y-115451000D01*
X157630761Y-115403380D01*
X157821238Y-115403380D01*
X157916476Y-115451000D01*
X157964095Y-115498619D01*
X158011714Y-115593857D01*
X158011714Y-115641476D01*
X157964095Y-115736714D01*
X157916476Y-115784333D01*
X157821238Y-115831952D01*
X157630761Y-115831952D01*
X157535523Y-115879571D01*
X157487904Y-115927190D01*
X157440285Y-116022428D01*
X157440285Y-116212904D01*
X157487904Y-116308142D01*
X157535523Y-116355761D01*
X157630761Y-116403380D01*
X157821238Y-116403380D01*
X157916476Y-116355761D01*
X157964095Y-116308142D01*
X158011714Y-116212904D01*
X158011714Y-116022428D01*
X157964095Y-115927190D01*
X157916476Y-115879571D01*
X157821238Y-115831952D01*
G04 #@! TO.C,R4*
X147788333Y-116149380D02*
X147455000Y-115673190D01*
X147216904Y-116149380D02*
X147216904Y-115149380D01*
X147597857Y-115149380D01*
X147693095Y-115197000D01*
X147740714Y-115244619D01*
X147788333Y-115339857D01*
X147788333Y-115482714D01*
X147740714Y-115577952D01*
X147693095Y-115625571D01*
X147597857Y-115673190D01*
X147216904Y-115673190D01*
X148645476Y-115482714D02*
X148645476Y-116149380D01*
X148407380Y-115101761D02*
X148169285Y-115816047D01*
X148788333Y-115816047D01*
G04 #@! TO.C,P9*
X139596904Y-113863380D02*
X139596904Y-112863380D01*
X139977857Y-112863380D01*
X140073095Y-112911000D01*
X140120714Y-112958619D01*
X140168333Y-113053857D01*
X140168333Y-113196714D01*
X140120714Y-113291952D01*
X140073095Y-113339571D01*
X139977857Y-113387190D01*
X139596904Y-113387190D01*
X140644523Y-113863380D02*
X140835000Y-113863380D01*
X140930238Y-113815761D01*
X140977857Y-113768142D01*
X141073095Y-113625285D01*
X141120714Y-113434809D01*
X141120714Y-113053857D01*
X141073095Y-112958619D01*
X141025476Y-112911000D01*
X140930238Y-112863380D01*
X140739761Y-112863380D01*
X140644523Y-112911000D01*
X140596904Y-112958619D01*
X140549285Y-113053857D01*
X140549285Y-113291952D01*
X140596904Y-113387190D01*
X140644523Y-113434809D01*
X140739761Y-113482428D01*
X140930238Y-113482428D01*
X141025476Y-113434809D01*
X141073095Y-113387190D01*
X141120714Y-113291952D01*
G04 #@! TD*
M02*
