G04 #@! TF.GenerationSoftware,KiCad,Pcbnew,(5.0.2)-1*
G04 #@! TF.CreationDate,2018-12-20T14:21:33+01:00*
G04 #@! TF.ProjectId,MutltiSwitch_Sw8,4d75746c-7469-4537-9769-7463685f5377,0.1*
G04 #@! TF.SameCoordinates,Original*
G04 #@! TF.FileFunction,Copper,L1,Top*
G04 #@! TF.FilePolarity,Positive*
%FSLAX46Y46*%
G04 Gerber Fmt 4.6, Leading zero omitted, Abs format (unit mm)*
G04 Created by KiCad (PCBNEW (5.0.2)-1) date 20/12/2018 14:21:33*
%MOMM*%
%LPD*%
G01*
G04 APERTURE LIST*
G04 #@! TA.AperFunction,NonConductor*
%ADD10C,0.300000*%
G04 #@! TD*
G04 #@! TA.AperFunction,ComponentPad*
%ADD11R,1.800000X1.500000*%
G04 #@! TD*
G04 #@! TA.AperFunction,ComponentPad*
%ADD12O,1.800000X1.500000*%
G04 #@! TD*
G04 #@! TA.AperFunction,ComponentPad*
%ADD13R,2.400000X1.600000*%
G04 #@! TD*
G04 #@! TA.AperFunction,ComponentPad*
%ADD14O,2.400000X1.600000*%
G04 #@! TD*
G04 #@! TA.AperFunction,ComponentPad*
%ADD15C,3.000000*%
G04 #@! TD*
G04 #@! TA.AperFunction,ComponentPad*
%ADD16C,1.800000*%
G04 #@! TD*
G04 #@! TA.AperFunction,SMDPad,CuDef*
%ADD17R,1.500000X1.500000*%
G04 #@! TD*
G04 #@! TA.AperFunction,ComponentPad*
%ADD18R,1.700000X1.700000*%
G04 #@! TD*
G04 #@! TA.AperFunction,ComponentPad*
%ADD19O,1.700000X1.700000*%
G04 #@! TD*
G04 #@! TA.AperFunction,ComponentPad*
%ADD20C,1.600000*%
G04 #@! TD*
G04 #@! TA.AperFunction,SMDPad,CuDef*
%ADD21R,0.900000X1.200000*%
G04 #@! TD*
G04 #@! TA.AperFunction,SMDPad,CuDef*
%ADD22R,0.900000X1.700000*%
G04 #@! TD*
G04 #@! TA.AperFunction,ViaPad*
%ADD23C,0.800000*%
G04 #@! TD*
G04 #@! TA.AperFunction,Conductor*
%ADD24C,0.500000*%
G04 #@! TD*
G04 #@! TA.AperFunction,Conductor*
%ADD25C,0.310000*%
G04 #@! TD*
G04 #@! TA.AperFunction,Conductor*
%ADD26C,1.000000*%
G04 #@! TD*
G04 APERTURE END LIST*
D10*
X158539571Y-106746714D02*
X157039571Y-106746714D01*
X158111000Y-106246714D01*
X157039571Y-105746714D01*
X158539571Y-105746714D01*
X158468142Y-105103857D02*
X158539571Y-104889571D01*
X158539571Y-104532428D01*
X158468142Y-104389571D01*
X158396714Y-104318142D01*
X158253857Y-104246714D01*
X158111000Y-104246714D01*
X157968142Y-104318142D01*
X157896714Y-104389571D01*
X157825285Y-104532428D01*
X157753857Y-104818142D01*
X157682428Y-104961000D01*
X157611000Y-105032428D01*
X157468142Y-105103857D01*
X157325285Y-105103857D01*
X157182428Y-105032428D01*
X157111000Y-104961000D01*
X157039571Y-104818142D01*
X157039571Y-104461000D01*
X157111000Y-104246714D01*
X157682428Y-103389571D02*
X157611000Y-103532428D01*
X157539571Y-103603857D01*
X157396714Y-103675285D01*
X157325285Y-103675285D01*
X157182428Y-103603857D01*
X157111000Y-103532428D01*
X157039571Y-103389571D01*
X157039571Y-103103857D01*
X157111000Y-102961000D01*
X157182428Y-102889571D01*
X157325285Y-102818142D01*
X157396714Y-102818142D01*
X157539571Y-102889571D01*
X157611000Y-102961000D01*
X157682428Y-103103857D01*
X157682428Y-103389571D01*
X157753857Y-103532428D01*
X157825285Y-103603857D01*
X157968142Y-103675285D01*
X158253857Y-103675285D01*
X158396714Y-103603857D01*
X158468142Y-103532428D01*
X158539571Y-103389571D01*
X158539571Y-103103857D01*
X158468142Y-102961000D01*
X158396714Y-102889571D01*
X158253857Y-102818142D01*
X157968142Y-102818142D01*
X157825285Y-102889571D01*
X157753857Y-102961000D01*
X157682428Y-103103857D01*
X157039571Y-101175285D02*
X158539571Y-100175285D01*
X157039571Y-100175285D02*
X158539571Y-101175285D01*
X157968142Y-99603857D02*
X157968142Y-98461000D01*
X158111000Y-97818142D02*
X158111000Y-97103857D01*
X158539571Y-97961000D02*
X157039571Y-97461000D01*
X158539571Y-96961000D01*
X157539571Y-96461000D02*
X158539571Y-96461000D01*
X157682428Y-96461000D02*
X157611000Y-96389571D01*
X157539571Y-96246714D01*
X157539571Y-96032428D01*
X157611000Y-95889571D01*
X157753857Y-95818142D01*
X158539571Y-95818142D01*
X157539571Y-95246714D02*
X158539571Y-94889571D01*
X157539571Y-94532428D02*
X158539571Y-94889571D01*
X158896714Y-95032428D01*
X158968142Y-95103857D01*
X159039571Y-95246714D01*
X155666285Y-111159571D02*
X155594857Y-111231000D01*
X155523428Y-111373857D01*
X155523428Y-111516714D01*
X155594857Y-111659571D01*
X155666285Y-111731000D01*
X155809142Y-111802428D01*
X155952000Y-111802428D01*
X156094857Y-111731000D01*
X156166285Y-111659571D01*
X156237714Y-111516714D01*
X156237714Y-111373857D01*
X156166285Y-111231000D01*
X156094857Y-111159571D01*
X155523428Y-111159571D02*
X156094857Y-111159571D01*
X156166285Y-111088142D01*
X156166285Y-111016714D01*
X156094857Y-110873857D01*
X155952000Y-110802428D01*
X155594857Y-110802428D01*
X155380571Y-110945285D01*
X155237714Y-111159571D01*
X155166285Y-111445285D01*
X155237714Y-111731000D01*
X155380571Y-111945285D01*
X155594857Y-112088142D01*
X155880571Y-112159571D01*
X156166285Y-112088142D01*
X156380571Y-111945285D01*
X156523428Y-111731000D01*
X156594857Y-111445285D01*
X156523428Y-111159571D01*
X156380571Y-110945285D01*
X154880571Y-108731000D02*
X154880571Y-108445285D01*
X154952000Y-108302428D01*
X155094857Y-108159571D01*
X155380571Y-108088142D01*
X155880571Y-108088142D01*
X156166285Y-108159571D01*
X156309142Y-108302428D01*
X156380571Y-108445285D01*
X156380571Y-108731000D01*
X156309142Y-108873857D01*
X156166285Y-109016714D01*
X155880571Y-109088142D01*
X155380571Y-109088142D01*
X155094857Y-109016714D01*
X154952000Y-108873857D01*
X154880571Y-108731000D01*
X155380571Y-107445285D02*
X156880571Y-107445285D01*
X155452000Y-107445285D02*
X155380571Y-107302428D01*
X155380571Y-107016714D01*
X155452000Y-106873857D01*
X155523428Y-106802428D01*
X155666285Y-106731000D01*
X156094857Y-106731000D01*
X156237714Y-106802428D01*
X156309142Y-106873857D01*
X156380571Y-107016714D01*
X156380571Y-107302428D01*
X156309142Y-107445285D01*
X156309142Y-105516714D02*
X156380571Y-105659571D01*
X156380571Y-105945285D01*
X156309142Y-106088142D01*
X156166285Y-106159571D01*
X155594857Y-106159571D01*
X155452000Y-106088142D01*
X155380571Y-105945285D01*
X155380571Y-105659571D01*
X155452000Y-105516714D01*
X155594857Y-105445285D01*
X155737714Y-105445285D01*
X155880571Y-106159571D01*
X155380571Y-104802428D02*
X156380571Y-104802428D01*
X155523428Y-104802428D02*
X155452000Y-104731000D01*
X155380571Y-104588142D01*
X155380571Y-104373857D01*
X155452000Y-104231000D01*
X155594857Y-104159571D01*
X156380571Y-104159571D01*
X155952000Y-103516714D02*
X155952000Y-102802428D01*
X156380571Y-103659571D02*
X154880571Y-103159571D01*
X156380571Y-102659571D01*
X154880571Y-102373857D02*
X156380571Y-101873857D01*
X154880571Y-101373857D01*
X156380571Y-100016714D02*
X155666285Y-100516714D01*
X156380571Y-100873857D02*
X154880571Y-100873857D01*
X154880571Y-100302428D01*
X154952000Y-100159571D01*
X155023428Y-100088142D01*
X155166285Y-100016714D01*
X155380571Y-100016714D01*
X155523428Y-100088142D01*
X155594857Y-100159571D01*
X155666285Y-100302428D01*
X155666285Y-100873857D01*
X156309142Y-98731000D02*
X156380571Y-98873857D01*
X156380571Y-99159571D01*
X156309142Y-99302428D01*
X156237714Y-99373857D01*
X156094857Y-99445285D01*
X155666285Y-99445285D01*
X155523428Y-99373857D01*
X155452000Y-99302428D01*
X155380571Y-99159571D01*
X155380571Y-98873857D01*
X155452000Y-98731000D01*
X154880571Y-97159571D02*
X154880571Y-96302428D01*
X156380571Y-96731000D02*
X154880571Y-96731000D01*
X156309142Y-95231000D02*
X156380571Y-95373857D01*
X156380571Y-95659571D01*
X156309142Y-95802428D01*
X156166285Y-95873857D01*
X155594857Y-95873857D01*
X155452000Y-95802428D01*
X155380571Y-95659571D01*
X155380571Y-95373857D01*
X155452000Y-95231000D01*
X155594857Y-95159571D01*
X155737714Y-95159571D01*
X155880571Y-95873857D01*
X156380571Y-93873857D02*
X155594857Y-93873857D01*
X155452000Y-93945285D01*
X155380571Y-94088142D01*
X155380571Y-94373857D01*
X155452000Y-94516714D01*
X156309142Y-93873857D02*
X156380571Y-94016714D01*
X156380571Y-94373857D01*
X156309142Y-94516714D01*
X156166285Y-94588142D01*
X156023428Y-94588142D01*
X155880571Y-94516714D01*
X155809142Y-94373857D01*
X155809142Y-94016714D01*
X155737714Y-93873857D01*
X156380571Y-93159571D02*
X155380571Y-93159571D01*
X155523428Y-93159571D02*
X155452000Y-93088142D01*
X155380571Y-92945285D01*
X155380571Y-92731000D01*
X155452000Y-92588142D01*
X155594857Y-92516714D01*
X156380571Y-92516714D01*
X155594857Y-92516714D02*
X155452000Y-92445285D01*
X155380571Y-92302428D01*
X155380571Y-92088142D01*
X155452000Y-91945285D01*
X155594857Y-91873857D01*
X156380571Y-91873857D01*
D11*
G04 #@! TO.P,P10,1*
G04 #@! TO.N,GND*
X169545000Y-91440000D03*
D12*
G04 #@! TO.P,P10,2*
X169545000Y-93980000D03*
G04 #@! TO.P,P10,3*
X169545000Y-96520000D03*
G04 #@! TO.P,P10,4*
X169545000Y-99060000D03*
G04 #@! TO.P,P10,5*
X169545000Y-101600000D03*
G04 #@! TO.P,P10,6*
X169545000Y-104140000D03*
G04 #@! TO.P,P10,7*
X169545000Y-106680000D03*
G04 #@! TO.P,P10,8*
X169545000Y-109220000D03*
G04 #@! TD*
D11*
G04 #@! TO.P,P7,1*
G04 #@! TO.N,Net-(P4-Pad2)*
X167005000Y-91440000D03*
D12*
G04 #@! TO.P,P7,2*
X167005000Y-93980000D03*
G04 #@! TO.P,P7,3*
X167005000Y-96520000D03*
G04 #@! TO.P,P7,4*
X167005000Y-99060000D03*
G04 #@! TO.P,P7,5*
X167005000Y-101600000D03*
G04 #@! TO.P,P7,6*
X167005000Y-104140000D03*
G04 #@! TO.P,P7,7*
X167005000Y-106680000D03*
G04 #@! TO.P,P7,8*
X167005000Y-109220000D03*
G04 #@! TD*
D13*
G04 #@! TO.P,IC1,1*
G04 #@! TO.N,+5V*
X141605000Y-91440000D03*
D14*
G04 #@! TO.P,IC1,8*
G04 #@! TO.N,Net-(IC1-Pad8)*
X149225000Y-106680000D03*
G04 #@! TO.P,IC1,2*
G04 #@! TO.N,Net-(C3-Pad1)*
X141605000Y-93980000D03*
G04 #@! TO.P,IC1,9*
G04 #@! TO.N,Net-(IC1-Pad9)*
X149225000Y-104140000D03*
G04 #@! TO.P,IC1,3*
G04 #@! TO.N,Net-(C2-Pad1)*
X141605000Y-96520000D03*
G04 #@! TO.P,IC1,10*
G04 #@! TO.N,Net-(IC1-Pad10)*
X149225000Y-101600000D03*
G04 #@! TO.P,IC1,4*
G04 #@! TO.N,Net-(IC1-Pad4)*
X141605000Y-99060000D03*
G04 #@! TO.P,IC1,11*
G04 #@! TO.N,Net-(IC1-Pad11)*
X149225000Y-99060000D03*
G04 #@! TO.P,IC1,5*
G04 #@! TO.N,Net-(IC1-Pad5)*
X141605000Y-101600000D03*
G04 #@! TO.P,IC1,12*
G04 #@! TO.N,Net-(IC1-Pad12)*
X149225000Y-96520000D03*
G04 #@! TO.P,IC1,6*
G04 #@! TO.N,Net-(IC1-Pad6)*
X141605000Y-104140000D03*
G04 #@! TO.P,IC1,13*
G04 #@! TO.N,Net-(IC1-Pad13)*
X149225000Y-93980000D03*
G04 #@! TO.P,IC1,7*
G04 #@! TO.N,Net-(IC1-Pad7)*
X141605000Y-106680000D03*
G04 #@! TO.P,IC1,14*
G04 #@! TO.N,GND*
X149225000Y-91440000D03*
G04 #@! TD*
D15*
G04 #@! TO.P,P6,2*
G04 #@! TO.N,+12C*
X164465000Y-118110000D03*
G04 #@! TO.P,P6,1*
G04 #@! TO.N,GND*
X169545000Y-118110000D03*
G04 #@! TD*
D11*
G04 #@! TO.P,P5,1*
G04 #@! TO.N,Net-(IC2-Pad18)*
X164465000Y-91440000D03*
D12*
G04 #@! TO.P,P5,2*
G04 #@! TO.N,Net-(IC2-Pad17)*
X164465000Y-93980000D03*
G04 #@! TO.P,P5,3*
G04 #@! TO.N,Net-(IC2-Pad16)*
X164465000Y-96520000D03*
G04 #@! TO.P,P5,4*
G04 #@! TO.N,Net-(IC2-Pad15)*
X164465000Y-99060000D03*
G04 #@! TO.P,P5,5*
G04 #@! TO.N,Net-(IC2-Pad14)*
X164465000Y-101600000D03*
G04 #@! TO.P,P5,6*
G04 #@! TO.N,Net-(IC2-Pad13)*
X164465000Y-104140000D03*
G04 #@! TO.P,P5,7*
G04 #@! TO.N,Net-(IC2-Pad12)*
X164465000Y-106680000D03*
G04 #@! TO.P,P5,8*
G04 #@! TO.N,Net-(IC2-Pad11)*
X164465000Y-109220000D03*
G04 #@! TD*
D16*
G04 #@! TO.P,X1,1*
G04 #@! TO.N,Net-(C3-Pad1)*
X136525000Y-92810000D03*
G04 #@! TO.P,X1,2*
G04 #@! TO.N,Net-(C2-Pad1)*
X136525000Y-97690000D03*
G04 #@! TD*
D17*
G04 #@! TO.P,D1,2*
G04 #@! TO.N,GND*
X142495000Y-109474000D03*
G04 #@! TO.P,D1,1*
G04 #@! TO.N,Net-(D1-Pad1)*
X145795000Y-109474000D03*
G04 #@! TD*
D13*
G04 #@! TO.P,IC2,1*
G04 #@! TO.N,Net-(IC1-Pad13)*
X153035000Y-91440000D03*
D14*
G04 #@! TO.P,IC2,10*
G04 #@! TO.N,Net-(IC2-Pad10)*
X160655000Y-111760000D03*
G04 #@! TO.P,IC2,2*
G04 #@! TO.N,Net-(IC1-Pad12)*
X153035000Y-93980000D03*
G04 #@! TO.P,IC2,11*
G04 #@! TO.N,Net-(IC2-Pad11)*
X160655000Y-109220000D03*
G04 #@! TO.P,IC2,3*
G04 #@! TO.N,Net-(IC1-Pad11)*
X153035000Y-96520000D03*
G04 #@! TO.P,IC2,12*
G04 #@! TO.N,Net-(IC2-Pad12)*
X160655000Y-106680000D03*
G04 #@! TO.P,IC2,4*
G04 #@! TO.N,Net-(IC1-Pad10)*
X153035000Y-99060000D03*
G04 #@! TO.P,IC2,13*
G04 #@! TO.N,Net-(IC2-Pad13)*
X160655000Y-104140000D03*
G04 #@! TO.P,IC2,5*
G04 #@! TO.N,Net-(IC1-Pad9)*
X153035000Y-101600000D03*
G04 #@! TO.P,IC2,14*
G04 #@! TO.N,Net-(IC2-Pad14)*
X160655000Y-101600000D03*
G04 #@! TO.P,IC2,6*
G04 #@! TO.N,Net-(IC1-Pad8)*
X153035000Y-104140000D03*
G04 #@! TO.P,IC2,15*
G04 #@! TO.N,Net-(IC2-Pad15)*
X160655000Y-99060000D03*
G04 #@! TO.P,IC2,7*
G04 #@! TO.N,Net-(IC1-Pad7)*
X153035000Y-106680000D03*
G04 #@! TO.P,IC2,16*
G04 #@! TO.N,Net-(IC2-Pad16)*
X160655000Y-96520000D03*
G04 #@! TO.P,IC2,8*
G04 #@! TO.N,Net-(IC1-Pad6)*
X153035000Y-109220000D03*
G04 #@! TO.P,IC2,17*
G04 #@! TO.N,Net-(IC2-Pad17)*
X160655000Y-93980000D03*
G04 #@! TO.P,IC2,9*
G04 #@! TO.N,GND*
X153035000Y-111760000D03*
G04 #@! TO.P,IC2,18*
G04 #@! TO.N,Net-(IC2-Pad18)*
X160655000Y-91440000D03*
G04 #@! TD*
D18*
G04 #@! TO.P,P1,1*
G04 #@! TO.N,+5V*
X144780000Y-118110000D03*
D19*
G04 #@! TO.P,P1,2*
X147320000Y-118110000D03*
G04 #@! TO.P,P1,3*
G04 #@! TO.N,+VRx*
X149860000Y-118110000D03*
G04 #@! TD*
D18*
G04 #@! TO.P,P2,1*
G04 #@! TO.N,Net-(P2-Pad1)*
X135763000Y-103505000D03*
D19*
G04 #@! TO.P,P2,2*
G04 #@! TO.N,+VRx*
X135763000Y-106045000D03*
G04 #@! TO.P,P2,3*
G04 #@! TO.N,GND*
X135763000Y-108585000D03*
G04 #@! TD*
D18*
G04 #@! TO.P,P3,1*
G04 #@! TO.N,Net-(IC1-Pad4)*
X142875000Y-112141000D03*
D20*
G04 #@! TO.P,P3,2*
G04 #@! TO.N,+VRx*
X145415000Y-112141000D03*
G04 #@! TO.P,P3,3*
G04 #@! TO.N,GND*
X147955000Y-112141000D03*
G04 #@! TD*
D18*
G04 #@! TO.P,P4,1*
G04 #@! TO.N,Net-(IC2-Pad10)*
X164465000Y-113030000D03*
D19*
G04 #@! TO.P,P4,2*
G04 #@! TO.N,Net-(P4-Pad2)*
X167005000Y-113030000D03*
G04 #@! TO.P,P4,3*
X169545000Y-113030000D03*
G04 #@! TD*
D21*
G04 #@! TO.P,D3,1*
G04 #@! TO.N,Net-(D3-Pad1)*
X135002000Y-112776000D03*
G04 #@! TO.P,D3,2*
G04 #@! TO.N,Net-(D3-Pad2)*
X138302000Y-112776000D03*
G04 #@! TD*
D18*
G04 #@! TO.P,P8,1*
G04 #@! TO.N,+VRx*
X154178000Y-118110000D03*
D19*
G04 #@! TO.P,P8,2*
G04 #@! TO.N,Net-(P4-Pad2)*
X156718000Y-118110000D03*
G04 #@! TO.P,P8,3*
G04 #@! TO.N,+12C*
X159258000Y-118110000D03*
G04 #@! TD*
D22*
G04 #@! TO.P,R4,1*
G04 #@! TO.N,+5V*
X146230000Y-115697000D03*
G04 #@! TO.P,R4,2*
G04 #@! TO.N,Net-(P2-Pad1)*
X143330000Y-115697000D03*
G04 #@! TD*
D18*
G04 #@! TO.P,P9,1*
G04 #@! TO.N,N/C*
X135890000Y-118110000D03*
D20*
G04 #@! TO.P,P9,2*
G04 #@! TO.N,Net-(D3-Pad1)*
X135890000Y-115570000D03*
D19*
G04 #@! TO.P,P9,3*
G04 #@! TO.N,Net-(D3-Pad2)*
X138430000Y-118110000D03*
D20*
G04 #@! TO.P,P9,4*
G04 #@! TO.N,+5V*
X138430000Y-115570000D03*
D19*
G04 #@! TO.P,P9,5*
G04 #@! TO.N,N/C*
X140970000Y-118110000D03*
G04 #@! TO.P,P9,6*
G04 #@! TO.N,GND*
X140970000Y-115570000D03*
G04 #@! TD*
D23*
G04 #@! TO.N,GND*
X143002000Y-107823000D03*
G04 #@! TO.N,Net-(IC1-Pad4)*
X144272000Y-107696000D03*
G04 #@! TO.N,Net-(IC1-Pad6)*
X148844000Y-109220000D03*
X147066000Y-104140000D03*
G04 #@! TO.N,Net-(P2-Pad1)*
X140208000Y-112776000D03*
G04 #@! TO.N,Net-(D1-Pad1)*
X147574000Y-109220000D03*
G04 #@! TD*
D24*
G04 #@! TO.N,GND*
X142495000Y-109474000D02*
X142495000Y-108330000D01*
X142495000Y-108330000D02*
X143002000Y-107823000D01*
G04 #@! TO.N,+5V*
X146230000Y-115697000D02*
X146230000Y-117020000D01*
X146230000Y-117020000D02*
X147320000Y-118110000D01*
D25*
G04 #@! TO.N,Net-(IC1-Pad8)*
X149225000Y-106680000D02*
X150495000Y-106680000D01*
X150495000Y-106680000D02*
X153035000Y-104140000D01*
G04 #@! TO.N,Net-(IC1-Pad9)*
X149225000Y-104140000D02*
X150495000Y-104140000D01*
X150495000Y-104140000D02*
X153035000Y-101600000D01*
G04 #@! TO.N,Net-(IC1-Pad10)*
X149225000Y-101600000D02*
X150495000Y-101600000D01*
X150495000Y-101600000D02*
X153035000Y-99060000D01*
G04 #@! TO.N,Net-(IC1-Pad4)*
X144272000Y-110871000D02*
X142875000Y-112141000D01*
X144272000Y-107696000D02*
X144272000Y-110871000D01*
G04 #@! TO.N,Net-(IC1-Pad11)*
X149225000Y-99060000D02*
X150495000Y-99060000D01*
X150495000Y-99060000D02*
X153035000Y-96520000D01*
G04 #@! TO.N,Net-(IC1-Pad12)*
X149225000Y-96520000D02*
X150495000Y-96520000D01*
X150495000Y-96520000D02*
X153035000Y-93980000D01*
G04 #@! TO.N,Net-(IC1-Pad6)*
X141605000Y-104140000D02*
X147066000Y-104140000D01*
X148844000Y-109220000D02*
X153035000Y-109220000D01*
G04 #@! TO.N,Net-(IC1-Pad13)*
X149225000Y-93980000D02*
X150495000Y-93980000D01*
X150495000Y-93980000D02*
X153035000Y-91440000D01*
G04 #@! TO.N,Net-(IC1-Pad7)*
X141605000Y-106680000D02*
X146431000Y-106680000D01*
X146431000Y-106680000D02*
X147764500Y-108013500D01*
X151701500Y-108013500D02*
X147764500Y-108013500D01*
X151701500Y-108013500D02*
X153035000Y-106680000D01*
D26*
G04 #@! TO.N,Net-(IC2-Pad10)*
X160655000Y-111760000D02*
X163195000Y-111760000D01*
X163195000Y-111760000D02*
X164465000Y-113030000D01*
G04 #@! TO.N,Net-(IC2-Pad11)*
X164465000Y-109220000D02*
X160655000Y-109220000D01*
G04 #@! TO.N,Net-(IC2-Pad12)*
X164465000Y-106680000D02*
X160655000Y-106680000D01*
G04 #@! TO.N,Net-(IC2-Pad13)*
X164465000Y-104140000D02*
X160655000Y-104140000D01*
G04 #@! TO.N,Net-(IC2-Pad14)*
X164465000Y-101600000D02*
X160655000Y-101600000D01*
G04 #@! TO.N,Net-(IC2-Pad15)*
X164465000Y-99060000D02*
X160655000Y-99060000D01*
G04 #@! TO.N,Net-(IC2-Pad16)*
X164465000Y-96520000D02*
X160655000Y-96520000D01*
G04 #@! TO.N,Net-(IC2-Pad17)*
X160655000Y-93980000D02*
X164465000Y-93980000D01*
G04 #@! TO.N,Net-(IC2-Pad18)*
X160655000Y-91440000D02*
X164465000Y-91440000D01*
D25*
G04 #@! TO.N,Net-(P2-Pad1)*
X142113000Y-114173000D02*
X141605000Y-114173000D01*
X141605000Y-114173000D02*
X140208000Y-112776000D01*
X143330000Y-114628000D02*
X143330000Y-115697000D01*
X142875000Y-114173000D02*
X143330000Y-114628000D01*
X142113000Y-114173000D02*
X142875000Y-114173000D01*
X140208000Y-112776000D02*
X140208000Y-107950000D01*
X140208000Y-107950000D02*
X135763000Y-103505000D01*
X143330000Y-115697000D02*
X143002000Y-115697000D01*
D26*
G04 #@! TO.N,Net-(P4-Pad2)*
X167005000Y-113030000D02*
X167005000Y-109220000D01*
X167005000Y-113030000D02*
X169545000Y-113030000D01*
X156718000Y-118110000D02*
X156718000Y-116713000D01*
X167005000Y-114681000D02*
X167005000Y-113030000D01*
X166243000Y-115443000D02*
X167005000Y-114681000D01*
X157988000Y-115443000D02*
X166243000Y-115443000D01*
X156718000Y-116713000D02*
X157988000Y-115443000D01*
X167005000Y-93980000D02*
X167005000Y-91440000D01*
X167005000Y-96520000D02*
X167005000Y-93980000D01*
X167005000Y-99060000D02*
X167005000Y-96520000D01*
X167005000Y-101600000D02*
X167005000Y-99060000D01*
X167005000Y-104140000D02*
X167005000Y-101600000D01*
X167005000Y-106680000D02*
X167005000Y-104140000D01*
X167005000Y-109220000D02*
X167005000Y-106680000D01*
G04 #@! TO.N,+VRx*
X147256500Y-114236500D02*
X148145500Y-114236500D01*
X148336000Y-114427000D02*
X148336000Y-115062000D01*
X148145500Y-114236500D02*
X148336000Y-114427000D01*
X147256500Y-114236500D02*
X145415000Y-112395000D01*
X145415000Y-112395000D02*
X145415000Y-112141000D01*
X148336000Y-116586000D02*
X148336000Y-115062000D01*
X148336000Y-116586000D02*
X149860000Y-118110000D01*
X154178000Y-118110000D02*
X149860000Y-118110000D01*
D25*
G04 #@! TO.N,Net-(D3-Pad1)*
X135002000Y-112776000D02*
X135002000Y-114682000D01*
X135002000Y-114682000D02*
X135890000Y-115570000D01*
G04 #@! TO.N,Net-(D3-Pad2)*
X137160000Y-114554000D02*
X137160000Y-116840000D01*
X137795000Y-112776000D02*
X137160000Y-113411000D01*
X137160000Y-113411000D02*
X137160000Y-114554000D01*
X138302000Y-112776000D02*
X137795000Y-112776000D01*
X137160000Y-116840000D02*
X138430000Y-118110000D01*
D26*
G04 #@! TO.N,+12C*
X159258000Y-118110000D02*
X164465000Y-118110000D01*
D25*
G04 #@! TO.N,Net-(D1-Pad1)*
X145795000Y-109474000D02*
X147320000Y-109474000D01*
X147320000Y-109474000D02*
X147574000Y-109220000D01*
G04 #@! TD*
M02*
