G04 #@! TF.GenerationSoftware,KiCad,Pcbnew,(5.0.2)-1*
G04 #@! TF.CreationDate,2018-12-20T14:21:34+01:00*
G04 #@! TF.ProjectId,MutltiSwitch_Sw8,4d75746c-7469-4537-9769-7463685f5377,0.1*
G04 #@! TF.SameCoordinates,Original*
G04 #@! TF.FileFunction,Legend,Bot*
G04 #@! TF.FilePolarity,Positive*
%FSLAX46Y46*%
G04 Gerber Fmt 4.6, Leading zero omitted, Abs format (unit mm)*
G04 Created by KiCad (PCBNEW (5.0.2)-1) date 20/12/2018 14:21:34*
%MOMM*%
%LPD*%
G01*
G04 APERTURE LIST*
%ADD10C,0.200000*%
%ADD11C,0.150000*%
%ADD12C,0.120000*%
G04 APERTURE END LIST*
D10*
X149860000Y-114681000D02*
X149860000Y-116459000D01*
X149987000Y-116459000D02*
X149987000Y-114681000D01*
D11*
X158868809Y-89542952D02*
X158964047Y-89495333D01*
X159011666Y-89447714D01*
X159059285Y-89352476D01*
X159059285Y-89304857D01*
X159011666Y-89209619D01*
X158964047Y-89162000D01*
X158868809Y-89114380D01*
X158678333Y-89114380D01*
X158583095Y-89162000D01*
X158535476Y-89209619D01*
X158487857Y-89304857D01*
X158487857Y-89352476D01*
X158535476Y-89447714D01*
X158583095Y-89495333D01*
X158678333Y-89542952D01*
X158868809Y-89542952D01*
X158964047Y-89590571D01*
X159011666Y-89638190D01*
X159059285Y-89733428D01*
X159059285Y-89923904D01*
X159011666Y-90019142D01*
X158964047Y-90066761D01*
X158868809Y-90114380D01*
X158678333Y-90114380D01*
X158583095Y-90066761D01*
X158535476Y-90019142D01*
X158487857Y-89923904D01*
X158487857Y-89733428D01*
X158535476Y-89638190D01*
X158583095Y-89590571D01*
X158678333Y-89542952D01*
X158154523Y-89114380D02*
X157487857Y-90114380D01*
X157487857Y-89114380D02*
X158154523Y-90114380D01*
X156583095Y-90114380D02*
X157154523Y-90114380D01*
X156868809Y-90114380D02*
X156868809Y-89114380D01*
X156964047Y-89257238D01*
X157059285Y-89352476D01*
X157154523Y-89400095D01*
X155964047Y-89114380D02*
X155868809Y-89114380D01*
X155773571Y-89162000D01*
X155725952Y-89209619D01*
X155678333Y-89304857D01*
X155630714Y-89495333D01*
X155630714Y-89733428D01*
X155678333Y-89923904D01*
X155725952Y-90019142D01*
X155773571Y-90066761D01*
X155868809Y-90114380D01*
X155964047Y-90114380D01*
X156059285Y-90066761D01*
X156106904Y-90019142D01*
X156154523Y-89923904D01*
X156202142Y-89733428D01*
X156202142Y-89495333D01*
X156154523Y-89304857D01*
X156106904Y-89209619D01*
X156059285Y-89162000D01*
X155964047Y-89114380D01*
X155202142Y-90114380D02*
X155202142Y-89114380D01*
X154630714Y-90114380D02*
X155059285Y-89542952D01*
X154630714Y-89114380D02*
X155202142Y-89685809D01*
D12*
G04 #@! TO.C,C1*
X146415000Y-92460000D02*
X144415000Y-92460000D01*
X144415000Y-90420000D02*
X146415000Y-90420000D01*
G04 #@! TO.C,C2*
X138160000Y-101350000D02*
X136160000Y-101350000D01*
X136160000Y-99310000D02*
X138160000Y-99310000D01*
G04 #@! TO.C,C3*
X138160000Y-91190000D02*
X136160000Y-91190000D01*
X136160000Y-89150000D02*
X138160000Y-89150000D01*
G04 #@! TO.C,R2*
X146415000Y-97990000D02*
X144415000Y-97990000D01*
X144415000Y-100130000D02*
X146415000Y-100130000D01*
G04 #@! TO.C,R1*
X137995000Y-103140000D02*
X137995000Y-105140000D01*
X140135000Y-105140000D02*
X140135000Y-103140000D01*
G04 #@! TO.C,D2*
X151348000Y-114570000D02*
X151348000Y-116570000D01*
X151348000Y-116570000D02*
X147448000Y-116570000D01*
X151348000Y-114570000D02*
X147448000Y-114570000D01*
G04 #@! TO.C,R3*
X137525000Y-111706000D02*
X135525000Y-111706000D01*
X135525000Y-113846000D02*
X137525000Y-113846000D01*
G04 #@! TO.C,R5*
X137995000Y-94250000D02*
X137995000Y-96250000D01*
X140135000Y-96250000D02*
X140135000Y-94250000D01*
G04 #@! TO.C,R6*
X157845000Y-90370000D02*
X155845000Y-90370000D01*
X155845000Y-92510000D02*
X157845000Y-92510000D01*
G04 #@! TO.C,R7*
X157792000Y-92910000D02*
X155792000Y-92910000D01*
X155792000Y-95050000D02*
X157792000Y-95050000D01*
G04 #@! TO.C,R8*
X157718000Y-95450000D02*
X155718000Y-95450000D01*
X155718000Y-97590000D02*
X157718000Y-97590000D01*
G04 #@! TO.C,R9*
X157845000Y-97990000D02*
X155845000Y-97990000D01*
X155845000Y-100130000D02*
X157845000Y-100130000D01*
G04 #@! TO.C,R10*
X157845000Y-100530000D02*
X155845000Y-100530000D01*
X155845000Y-102670000D02*
X157845000Y-102670000D01*
G04 #@! TO.C,R11*
X157845000Y-103070000D02*
X155845000Y-103070000D01*
X155845000Y-105210000D02*
X157845000Y-105210000D01*
G04 #@! TO.C,R12*
X157845000Y-105610000D02*
X155845000Y-105610000D01*
X155845000Y-107750000D02*
X157845000Y-107750000D01*
G04 #@! TO.C,R13*
X157845000Y-108150000D02*
X155845000Y-108150000D01*
X155845000Y-110290000D02*
X157845000Y-110290000D01*
G04 #@! TO.C,C1*
D11*
X145581666Y-93547142D02*
X145629285Y-93594761D01*
X145772142Y-93642380D01*
X145867380Y-93642380D01*
X146010238Y-93594761D01*
X146105476Y-93499523D01*
X146153095Y-93404285D01*
X146200714Y-93213809D01*
X146200714Y-93070952D01*
X146153095Y-92880476D01*
X146105476Y-92785238D01*
X146010238Y-92690000D01*
X145867380Y-92642380D01*
X145772142Y-92642380D01*
X145629285Y-92690000D01*
X145581666Y-92737619D01*
X144629285Y-93642380D02*
X145200714Y-93642380D01*
X144915000Y-93642380D02*
X144915000Y-92642380D01*
X145010238Y-92785238D01*
X145105476Y-92880476D01*
X145200714Y-92928095D01*
G04 #@! TO.C,C2*
X138723666Y-98909142D02*
X138771285Y-98956761D01*
X138914142Y-99004380D01*
X139009380Y-99004380D01*
X139152238Y-98956761D01*
X139247476Y-98861523D01*
X139295095Y-98766285D01*
X139342714Y-98575809D01*
X139342714Y-98432952D01*
X139295095Y-98242476D01*
X139247476Y-98147238D01*
X139152238Y-98052000D01*
X139009380Y-98004380D01*
X138914142Y-98004380D01*
X138771285Y-98052000D01*
X138723666Y-98099619D01*
X138342714Y-98099619D02*
X138295095Y-98052000D01*
X138199857Y-98004380D01*
X137961761Y-98004380D01*
X137866523Y-98052000D01*
X137818904Y-98099619D01*
X137771285Y-98194857D01*
X137771285Y-98290095D01*
X137818904Y-98432952D01*
X138390333Y-99004380D01*
X137771285Y-99004380D01*
G04 #@! TO.C,C3*
X139104666Y-92559142D02*
X139152285Y-92606761D01*
X139295142Y-92654380D01*
X139390380Y-92654380D01*
X139533238Y-92606761D01*
X139628476Y-92511523D01*
X139676095Y-92416285D01*
X139723714Y-92225809D01*
X139723714Y-92082952D01*
X139676095Y-91892476D01*
X139628476Y-91797238D01*
X139533238Y-91702000D01*
X139390380Y-91654380D01*
X139295142Y-91654380D01*
X139152285Y-91702000D01*
X139104666Y-91749619D01*
X138771333Y-91654380D02*
X138152285Y-91654380D01*
X138485619Y-92035333D01*
X138342761Y-92035333D01*
X138247523Y-92082952D01*
X138199904Y-92130571D01*
X138152285Y-92225809D01*
X138152285Y-92463904D01*
X138199904Y-92559142D01*
X138247523Y-92606761D01*
X138342761Y-92654380D01*
X138628476Y-92654380D01*
X138723714Y-92606761D01*
X138771333Y-92559142D01*
G04 #@! TO.C,R2*
X145581666Y-101362380D02*
X145915000Y-100886190D01*
X146153095Y-101362380D02*
X146153095Y-100362380D01*
X145772142Y-100362380D01*
X145676904Y-100410000D01*
X145629285Y-100457619D01*
X145581666Y-100552857D01*
X145581666Y-100695714D01*
X145629285Y-100790952D01*
X145676904Y-100838571D01*
X145772142Y-100886190D01*
X146153095Y-100886190D01*
X145200714Y-100457619D02*
X145153095Y-100410000D01*
X145057857Y-100362380D01*
X144819761Y-100362380D01*
X144724523Y-100410000D01*
X144676904Y-100457619D01*
X144629285Y-100552857D01*
X144629285Y-100648095D01*
X144676904Y-100790952D01*
X145248333Y-101362380D01*
X144629285Y-101362380D01*
G04 #@! TO.C,R1*
X139104666Y-107640380D02*
X139438000Y-107164190D01*
X139676095Y-107640380D02*
X139676095Y-106640380D01*
X139295142Y-106640380D01*
X139199904Y-106688000D01*
X139152285Y-106735619D01*
X139104666Y-106830857D01*
X139104666Y-106973714D01*
X139152285Y-107068952D01*
X139199904Y-107116571D01*
X139295142Y-107164190D01*
X139676095Y-107164190D01*
X138152285Y-107640380D02*
X138723714Y-107640380D01*
X138438000Y-107640380D02*
X138438000Y-106640380D01*
X138533238Y-106783238D01*
X138628476Y-106878476D01*
X138723714Y-106926095D01*
G04 #@! TO.C,D2*
X153392095Y-116022380D02*
X153392095Y-115022380D01*
X153154000Y-115022380D01*
X153011142Y-115070000D01*
X152915904Y-115165238D01*
X152868285Y-115260476D01*
X152820666Y-115450952D01*
X152820666Y-115593809D01*
X152868285Y-115784285D01*
X152915904Y-115879523D01*
X153011142Y-115974761D01*
X153154000Y-116022380D01*
X153392095Y-116022380D01*
X152439714Y-115117619D02*
X152392095Y-115070000D01*
X152296857Y-115022380D01*
X152058761Y-115022380D01*
X151963523Y-115070000D01*
X151915904Y-115117619D01*
X151868285Y-115212857D01*
X151868285Y-115308095D01*
X151915904Y-115450952D01*
X152487333Y-116022380D01*
X151868285Y-116022380D01*
G04 #@! TO.C,R3*
X136818666Y-111450380D02*
X137152000Y-110974190D01*
X137390095Y-111450380D02*
X137390095Y-110450380D01*
X137009142Y-110450380D01*
X136913904Y-110498000D01*
X136866285Y-110545619D01*
X136818666Y-110640857D01*
X136818666Y-110783714D01*
X136866285Y-110878952D01*
X136913904Y-110926571D01*
X137009142Y-110974190D01*
X137390095Y-110974190D01*
X136485333Y-110450380D02*
X135866285Y-110450380D01*
X136199619Y-110831333D01*
X136056761Y-110831333D01*
X135961523Y-110878952D01*
X135913904Y-110926571D01*
X135866285Y-111021809D01*
X135866285Y-111259904D01*
X135913904Y-111355142D01*
X135961523Y-111402761D01*
X136056761Y-111450380D01*
X136342476Y-111450380D01*
X136437714Y-111402761D01*
X136485333Y-111355142D01*
G04 #@! TO.C,R5*
X137612380Y-94956333D02*
X137136190Y-94623000D01*
X137612380Y-94384904D02*
X136612380Y-94384904D01*
X136612380Y-94765857D01*
X136660000Y-94861095D01*
X136707619Y-94908714D01*
X136802857Y-94956333D01*
X136945714Y-94956333D01*
X137040952Y-94908714D01*
X137088571Y-94861095D01*
X137136190Y-94765857D01*
X137136190Y-94384904D01*
X136612380Y-95861095D02*
X136612380Y-95384904D01*
X137088571Y-95337285D01*
X137040952Y-95384904D01*
X136993333Y-95480142D01*
X136993333Y-95718238D01*
X137040952Y-95813476D01*
X137088571Y-95861095D01*
X137183809Y-95908714D01*
X137421904Y-95908714D01*
X137517142Y-95861095D01*
X137564761Y-95813476D01*
X137612380Y-95718238D01*
X137612380Y-95480142D01*
X137564761Y-95384904D01*
X137517142Y-95337285D01*
G04 #@! TD*
M02*
