%FSLAX45Y45*%
G04 Gerber Fmt 4.5, Leading zero omitted, Abs format (unit mm)*
G04 Created by KiCad (PCBNEW (5.0.2)-1) date 20/12/2018 14:20:54*
%MOMM*%
%LPD*%
G01*
G04 APERTURE LIST*
%ADD10C,0.150000*%
%ADD11C,0.200000*%
%ADD12C,0.300000*%
G04 APERTURE END LIST*
D10*
X13335000Y-12065000D02*
X13335000Y-8826500D01*
X17208500Y-12065000D02*
X17208500Y-8826500D01*
X17208500Y-8826500D02*
X13335000Y-8826500D01*
X13335000Y-12065000D02*
X17208500Y-12065000D01*
D11*
D12*
X13613928Y-12538214D02*
X13613928Y-12238214D01*
X13685357Y-12238214D01*
X13728214Y-12252500D01*
X13756786Y-12281071D01*
X13771071Y-12309643D01*
X13785357Y-12366786D01*
X13785357Y-12409643D01*
X13771071Y-12466786D01*
X13756786Y-12495357D01*
X13728214Y-12523929D01*
X13685357Y-12538214D01*
X13613928Y-12538214D01*
X13913928Y-12538214D02*
X13913928Y-12338214D01*
X13913928Y-12395357D02*
X13928214Y-12366786D01*
X13942500Y-12352500D01*
X13971071Y-12338214D01*
X13999643Y-12338214D01*
X14099643Y-12538214D02*
X14099643Y-12338214D01*
X14099643Y-12238214D02*
X14085357Y-12252500D01*
X14099643Y-12266786D01*
X14113928Y-12252500D01*
X14099643Y-12238214D01*
X14099643Y-12266786D01*
X14285357Y-12538214D02*
X14256786Y-12523929D01*
X14242500Y-12495357D01*
X14242500Y-12238214D01*
X14442500Y-12538214D02*
X14413928Y-12523929D01*
X14399643Y-12495357D01*
X14399643Y-12238214D01*
X14785357Y-12538214D02*
X14785357Y-12238214D01*
X14885357Y-12452500D01*
X14985357Y-12238214D01*
X14985357Y-12538214D01*
X15256786Y-12538214D02*
X15256786Y-12381071D01*
X15242500Y-12352500D01*
X15213928Y-12338214D01*
X15156786Y-12338214D01*
X15128214Y-12352500D01*
X15256786Y-12523929D02*
X15228214Y-12538214D01*
X15156786Y-12538214D01*
X15128214Y-12523929D01*
X15113928Y-12495357D01*
X15113928Y-12466786D01*
X15128214Y-12438214D01*
X15156786Y-12423929D01*
X15228214Y-12423929D01*
X15256786Y-12409643D01*
X15399643Y-12338214D02*
X15399643Y-12638214D01*
X15399643Y-12352500D02*
X15428214Y-12338214D01*
X15485357Y-12338214D01*
X15513928Y-12352500D01*
X15528214Y-12366786D01*
X15542500Y-12395357D01*
X15542500Y-12481071D01*
X15528214Y-12509643D01*
X15513928Y-12523929D01*
X15485357Y-12538214D01*
X15428214Y-12538214D01*
X15399643Y-12523929D01*
X15671071Y-12509643D02*
X15685357Y-12523929D01*
X15671071Y-12538214D01*
X15656786Y-12523929D01*
X15671071Y-12509643D01*
X15671071Y-12538214D01*
X15671071Y-12352500D02*
X15685357Y-12366786D01*
X15671071Y-12381071D01*
X15656786Y-12366786D01*
X15671071Y-12352500D01*
X15671071Y-12381071D01*
M02*
