%FSLAX45Y45*%
G04 Gerber Fmt 4.5, Leading zero omitted, Abs format (unit mm)*
G04 Created by KiCad (PCBNEW (5.0.2)-1) date 20/12/2018 14:20:54*
%MOMM*%
%LPD*%
G01*
G04 APERTURE LIST*
%ADD10C,0.150000*%
%ADD11C,0.200000*%
%ADD12C,0.300000*%
G04 APERTURE END LIST*
D10*
X13335000Y-12065000D02*
X13335000Y-8826500D01*
X17208500Y-12065000D02*
X17208500Y-8826500D01*
X17208500Y-8826500D02*
X13335000Y-8826500D01*
X13335000Y-12065000D02*
X17208500Y-12065000D01*
D11*
X13990800Y-11247600D02*
X14050800Y-11307600D01*
X14050800Y-11247600D02*
X13990800Y-11307600D01*
X14270200Y-10752300D02*
X14330200Y-10812300D01*
X14330200Y-10752300D02*
X14270200Y-10812300D01*
X14397200Y-10739600D02*
X14457200Y-10799600D01*
X14457200Y-10739600D02*
X14397200Y-10799600D01*
X14676600Y-10384000D02*
X14736600Y-10444000D01*
X14736600Y-10384000D02*
X14676600Y-10444000D01*
X14727400Y-10892000D02*
X14787400Y-10952000D01*
X14787400Y-10892000D02*
X14727400Y-10952000D01*
X14854400Y-10892000D02*
X14914400Y-10952000D01*
X14914400Y-10892000D02*
X14854400Y-10952000D01*
X16994500Y-9144000D02*
G75*
G03X16994500Y-9144000I-40000J0D01*
G01*
X16994500Y-9398000D02*
G75*
G03X16994500Y-9398000I-40000J0D01*
G01*
X16994500Y-9652000D02*
G75*
G03X16994500Y-9652000I-40000J0D01*
G01*
X16994500Y-9906000D02*
G75*
G03X16994500Y-9906000I-40000J0D01*
G01*
X16994500Y-10160000D02*
G75*
G03X16994500Y-10160000I-40000J0D01*
G01*
X16994500Y-10414000D02*
G75*
G03X16994500Y-10414000I-40000J0D01*
G01*
X16994500Y-10668000D02*
G75*
G03X16994500Y-10668000I-40000J0D01*
G01*
X16994500Y-10922000D02*
G75*
G03X16994500Y-10922000I-40000J0D01*
G01*
X16740500Y-9144000D02*
G75*
G03X16740500Y-9144000I-40000J0D01*
G01*
X16740500Y-9398000D02*
G75*
G03X16740500Y-9398000I-40000J0D01*
G01*
X16740500Y-9652000D02*
G75*
G03X16740500Y-9652000I-40000J0D01*
G01*
X16740500Y-9906000D02*
G75*
G03X16740500Y-9906000I-40000J0D01*
G01*
X16740500Y-10160000D02*
G75*
G03X16740500Y-10160000I-40000J0D01*
G01*
X16740500Y-10414000D02*
G75*
G03X16740500Y-10414000I-40000J0D01*
G01*
X16740500Y-10668000D02*
G75*
G03X16740500Y-10668000I-40000J0D01*
G01*
X16740500Y-10922000D02*
G75*
G03X16740500Y-10922000I-40000J0D01*
G01*
X14200500Y-9144000D02*
G75*
G03X14200500Y-9144000I-40000J0D01*
G01*
X14200500Y-9398000D02*
G75*
G03X14200500Y-9398000I-40000J0D01*
G01*
X14200500Y-9652000D02*
G75*
G03X14200500Y-9652000I-40000J0D01*
G01*
X14200500Y-9906000D02*
G75*
G03X14200500Y-9906000I-40000J0D01*
G01*
X14200500Y-10160000D02*
G75*
G03X14200500Y-10160000I-40000J0D01*
G01*
X14200500Y-10414000D02*
G75*
G03X14200500Y-10414000I-40000J0D01*
G01*
X14200500Y-10668000D02*
G75*
G03X14200500Y-10668000I-40000J0D01*
G01*
X14962500Y-9144000D02*
G75*
G03X14962500Y-9144000I-40000J0D01*
G01*
X14962500Y-9398000D02*
G75*
G03X14962500Y-9398000I-40000J0D01*
G01*
X14962500Y-9652000D02*
G75*
G03X14962500Y-9652000I-40000J0D01*
G01*
X14962500Y-9906000D02*
G75*
G03X14962500Y-9906000I-40000J0D01*
G01*
X14962500Y-10160000D02*
G75*
G03X14962500Y-10160000I-40000J0D01*
G01*
X14962500Y-10414000D02*
G75*
G03X14962500Y-10414000I-40000J0D01*
G01*
X14962500Y-10668000D02*
G75*
G03X14962500Y-10668000I-40000J0D01*
G01*
X16486500Y-9144000D02*
G75*
G03X16486500Y-9144000I-40000J0D01*
G01*
X16486500Y-9398000D02*
G75*
G03X16486500Y-9398000I-40000J0D01*
G01*
X16486500Y-9652000D02*
G75*
G03X16486500Y-9652000I-40000J0D01*
G01*
X16486500Y-9906000D02*
G75*
G03X16486500Y-9906000I-40000J0D01*
G01*
X16486500Y-10160000D02*
G75*
G03X16486500Y-10160000I-40000J0D01*
G01*
X16486500Y-10414000D02*
G75*
G03X16486500Y-10414000I-40000J0D01*
G01*
X16486500Y-10668000D02*
G75*
G03X16486500Y-10668000I-40000J0D01*
G01*
X16486500Y-10922000D02*
G75*
G03X16486500Y-10922000I-40000J0D01*
G01*
X13692500Y-9281000D02*
G75*
G03X13692500Y-9281000I-40000J0D01*
G01*
X13692500Y-9769000D02*
G75*
G03X13692500Y-9769000I-40000J0D01*
G01*
X15343500Y-9144000D02*
G75*
G03X15343500Y-9144000I-40000J0D01*
G01*
X15343500Y-9398000D02*
G75*
G03X15343500Y-9398000I-40000J0D01*
G01*
X15343500Y-9652000D02*
G75*
G03X15343500Y-9652000I-40000J0D01*
G01*
X15343500Y-9906000D02*
G75*
G03X15343500Y-9906000I-40000J0D01*
G01*
X15343500Y-10160000D02*
G75*
G03X15343500Y-10160000I-40000J0D01*
G01*
X15343500Y-10414000D02*
G75*
G03X15343500Y-10414000I-40000J0D01*
G01*
X15343500Y-10668000D02*
G75*
G03X15343500Y-10668000I-40000J0D01*
G01*
X15343500Y-10922000D02*
G75*
G03X15343500Y-10922000I-40000J0D01*
G01*
X15343500Y-11176000D02*
G75*
G03X15343500Y-11176000I-40000J0D01*
G01*
X16105500Y-9144000D02*
G75*
G03X16105500Y-9144000I-40000J0D01*
G01*
X16105500Y-9398000D02*
G75*
G03X16105500Y-9398000I-40000J0D01*
G01*
X16105500Y-9652000D02*
G75*
G03X16105500Y-9652000I-40000J0D01*
G01*
X16105500Y-9906000D02*
G75*
G03X16105500Y-9906000I-40000J0D01*
G01*
X16105500Y-10160000D02*
G75*
G03X16105500Y-10160000I-40000J0D01*
G01*
X16105500Y-10414000D02*
G75*
G03X16105500Y-10414000I-40000J0D01*
G01*
X16105500Y-10668000D02*
G75*
G03X16105500Y-10668000I-40000J0D01*
G01*
X16105500Y-10922000D02*
G75*
G03X16105500Y-10922000I-40000J0D01*
G01*
X16105500Y-11176000D02*
G75*
G03X16105500Y-11176000I-40000J0D01*
G01*
X14478000Y-11761000D02*
X14478000Y-11861000D01*
X14428000Y-11811000D02*
X14528000Y-11811000D01*
X14732000Y-11761000D02*
X14732000Y-11861000D01*
X14682000Y-11811000D02*
X14782000Y-11811000D01*
X14986000Y-11761000D02*
X14986000Y-11861000D01*
X14936000Y-11811000D02*
X15036000Y-11811000D01*
X13576300Y-10300500D02*
X13576300Y-10400500D01*
X13526300Y-10350500D02*
X13626300Y-10350500D01*
X13576300Y-10554500D02*
X13576300Y-10654500D01*
X13526300Y-10604500D02*
X13626300Y-10604500D01*
X13576300Y-10808500D02*
X13576300Y-10908500D01*
X13526300Y-10858500D02*
X13626300Y-10858500D01*
X14287500Y-11164100D02*
X14287500Y-11264100D01*
X14237500Y-11214100D02*
X14337500Y-11214100D01*
X14541500Y-11164100D02*
X14541500Y-11264100D01*
X14491500Y-11214100D02*
X14591500Y-11214100D01*
X14795500Y-11164100D02*
X14795500Y-11264100D01*
X14745500Y-11214100D02*
X14845500Y-11214100D01*
X16446500Y-11253000D02*
X16446500Y-11353000D01*
X16396500Y-11303000D02*
X16496500Y-11303000D01*
X16700500Y-11253000D02*
X16700500Y-11353000D01*
X16650500Y-11303000D02*
X16750500Y-11303000D01*
X16954500Y-11253000D02*
X16954500Y-11353000D01*
X16904500Y-11303000D02*
X17004500Y-11303000D01*
X15417800Y-11761000D02*
X15417800Y-11861000D01*
X15367800Y-11811000D02*
X15467800Y-11811000D01*
X15671800Y-11761000D02*
X15671800Y-11861000D01*
X15621800Y-11811000D02*
X15721800Y-11811000D01*
X15925800Y-11761000D02*
X15925800Y-11861000D01*
X15875800Y-11811000D02*
X15975800Y-11811000D01*
X13589000Y-11507000D02*
X13589000Y-11607000D01*
X13539000Y-11557000D02*
X13639000Y-11557000D01*
X13589000Y-11761000D02*
X13589000Y-11861000D01*
X13539000Y-11811000D02*
X13639000Y-11811000D01*
X13843000Y-11507000D02*
X13843000Y-11607000D01*
X13793000Y-11557000D02*
X13893000Y-11557000D01*
X13843000Y-11761000D02*
X13843000Y-11861000D01*
X13793000Y-11811000D02*
X13893000Y-11811000D01*
X14097000Y-11507000D02*
X14097000Y-11607000D01*
X14047000Y-11557000D02*
X14147000Y-11557000D01*
X14097000Y-11761000D02*
X14097000Y-11861000D01*
X14047000Y-11811000D02*
X14147000Y-11811000D01*
X16499533Y-11864033D02*
X16499533Y-11757966D01*
X16393466Y-11757966D01*
X16393466Y-11864033D01*
X16499533Y-11864033D01*
X17007534Y-11864033D02*
X17007534Y-11757966D01*
X16901467Y-11757966D01*
X16901467Y-11864033D01*
X17007534Y-11864033D01*
D12*
X13613928Y-12538214D02*
X13613928Y-12238214D01*
X13685357Y-12238214D01*
X13728214Y-12252500D01*
X13756786Y-12281071D01*
X13771071Y-12309643D01*
X13785357Y-12366786D01*
X13785357Y-12409643D01*
X13771071Y-12466786D01*
X13756786Y-12495357D01*
X13728214Y-12523929D01*
X13685357Y-12538214D01*
X13613928Y-12538214D01*
X13913928Y-12538214D02*
X13913928Y-12338214D01*
X13913928Y-12395357D02*
X13928214Y-12366786D01*
X13942500Y-12352500D01*
X13971071Y-12338214D01*
X13999643Y-12338214D01*
X14099643Y-12538214D02*
X14099643Y-12338214D01*
X14099643Y-12238214D02*
X14085357Y-12252500D01*
X14099643Y-12266786D01*
X14113928Y-12252500D01*
X14099643Y-12238214D01*
X14099643Y-12266786D01*
X14285357Y-12538214D02*
X14256786Y-12523929D01*
X14242500Y-12495357D01*
X14242500Y-12238214D01*
X14442500Y-12538214D02*
X14413928Y-12523929D01*
X14399643Y-12495357D01*
X14399643Y-12238214D01*
X14785357Y-12538214D02*
X14785357Y-12238214D01*
X14885357Y-12452500D01*
X14985357Y-12238214D01*
X14985357Y-12538214D01*
X15256786Y-12538214D02*
X15256786Y-12381071D01*
X15242500Y-12352500D01*
X15213928Y-12338214D01*
X15156786Y-12338214D01*
X15128214Y-12352500D01*
X15256786Y-12523929D02*
X15228214Y-12538214D01*
X15156786Y-12538214D01*
X15128214Y-12523929D01*
X15113928Y-12495357D01*
X15113928Y-12466786D01*
X15128214Y-12438214D01*
X15156786Y-12423929D01*
X15228214Y-12423929D01*
X15256786Y-12409643D01*
X15399643Y-12338214D02*
X15399643Y-12638214D01*
X15399643Y-12352500D02*
X15428214Y-12338214D01*
X15485357Y-12338214D01*
X15513928Y-12352500D01*
X15528214Y-12366786D01*
X15542500Y-12395357D01*
X15542500Y-12481071D01*
X15528214Y-12509643D01*
X15513928Y-12523929D01*
X15485357Y-12538214D01*
X15428214Y-12538214D01*
X15399643Y-12523929D01*
X15671071Y-12509643D02*
X15685357Y-12523929D01*
X15671071Y-12538214D01*
X15656786Y-12523929D01*
X15671071Y-12509643D01*
X15671071Y-12538214D01*
X15671071Y-12352500D02*
X15685357Y-12366786D01*
X15671071Y-12381071D01*
X15656786Y-12366786D01*
X15671071Y-12352500D01*
X15671071Y-12381071D01*
X13267500Y-13002500D02*
X13327500Y-13062500D01*
X13327500Y-13002500D02*
X13267500Y-13062500D01*
X13671071Y-12868214D02*
X13699643Y-12868214D01*
X13728214Y-12882500D01*
X13742500Y-12896786D01*
X13756786Y-12925357D01*
X13771071Y-12982500D01*
X13771071Y-13053929D01*
X13756786Y-13111071D01*
X13742500Y-13139643D01*
X13728214Y-13153929D01*
X13699643Y-13168214D01*
X13671071Y-13168214D01*
X13642500Y-13153929D01*
X13628214Y-13139643D01*
X13613928Y-13111071D01*
X13599643Y-13053929D01*
X13599643Y-12982500D01*
X13613928Y-12925357D01*
X13628214Y-12896786D01*
X13642500Y-12882500D01*
X13671071Y-12868214D01*
X13899643Y-13139643D02*
X13913928Y-13153929D01*
X13899643Y-13168214D01*
X13885357Y-13153929D01*
X13899643Y-13139643D01*
X13899643Y-13168214D01*
X14171071Y-12868214D02*
X14113928Y-12868214D01*
X14085357Y-12882500D01*
X14071071Y-12896786D01*
X14042500Y-12939643D01*
X14028214Y-12996786D01*
X14028214Y-13111071D01*
X14042500Y-13139643D01*
X14056786Y-13153929D01*
X14085357Y-13168214D01*
X14142500Y-13168214D01*
X14171071Y-13153929D01*
X14185357Y-13139643D01*
X14199643Y-13111071D01*
X14199643Y-13039643D01*
X14185357Y-13011071D01*
X14171071Y-12996786D01*
X14142500Y-12982500D01*
X14085357Y-12982500D01*
X14056786Y-12996786D01*
X14042500Y-13011071D01*
X14028214Y-13039643D01*
X14385357Y-12868214D02*
X14413928Y-12868214D01*
X14442500Y-12882500D01*
X14456786Y-12896786D01*
X14471071Y-12925357D01*
X14485357Y-12982500D01*
X14485357Y-13053929D01*
X14471071Y-13111071D01*
X14456786Y-13139643D01*
X14442500Y-13153929D01*
X14413928Y-13168214D01*
X14385357Y-13168214D01*
X14356786Y-13153929D01*
X14342500Y-13139643D01*
X14328214Y-13111071D01*
X14313928Y-13053929D01*
X14313928Y-12982500D01*
X14328214Y-12925357D01*
X14342500Y-12896786D01*
X14356786Y-12882500D01*
X14385357Y-12868214D01*
X14613928Y-13168214D02*
X14613928Y-12968214D01*
X14613928Y-12996786D02*
X14628214Y-12982500D01*
X14656786Y-12968214D01*
X14699643Y-12968214D01*
X14728214Y-12982500D01*
X14742500Y-13011071D01*
X14742500Y-13168214D01*
X14742500Y-13011071D02*
X14756786Y-12982500D01*
X14785357Y-12968214D01*
X14828214Y-12968214D01*
X14856786Y-12982500D01*
X14871071Y-13011071D01*
X14871071Y-13168214D01*
X15013928Y-13168214D02*
X15013928Y-12968214D01*
X15013928Y-12996786D02*
X15028214Y-12982500D01*
X15056786Y-12968214D01*
X15099643Y-12968214D01*
X15128214Y-12982500D01*
X15142500Y-13011071D01*
X15142500Y-13168214D01*
X15142500Y-13011071D02*
X15156786Y-12982500D01*
X15185357Y-12968214D01*
X15228214Y-12968214D01*
X15256786Y-12982500D01*
X15271071Y-13011071D01*
X15271071Y-13168214D01*
X15856786Y-12853929D02*
X15599643Y-13239643D01*
X16242500Y-12868214D02*
X16271071Y-12868214D01*
X16299643Y-12882500D01*
X16313928Y-12896786D01*
X16328214Y-12925357D01*
X16342500Y-12982500D01*
X16342500Y-13053929D01*
X16328214Y-13111071D01*
X16313928Y-13139643D01*
X16299643Y-13153929D01*
X16271071Y-13168214D01*
X16242500Y-13168214D01*
X16213928Y-13153929D01*
X16199643Y-13139643D01*
X16185357Y-13111071D01*
X16171071Y-13053929D01*
X16171071Y-12982500D01*
X16185357Y-12925357D01*
X16199643Y-12896786D01*
X16213928Y-12882500D01*
X16242500Y-12868214D01*
X16471071Y-13139643D02*
X16485357Y-13153929D01*
X16471071Y-13168214D01*
X16456786Y-13153929D01*
X16471071Y-13139643D01*
X16471071Y-13168214D01*
X16671071Y-12868214D02*
X16699643Y-12868214D01*
X16728214Y-12882500D01*
X16742500Y-12896786D01*
X16756786Y-12925357D01*
X16771071Y-12982500D01*
X16771071Y-13053929D01*
X16756786Y-13111071D01*
X16742500Y-13139643D01*
X16728214Y-13153929D01*
X16699643Y-13168214D01*
X16671071Y-13168214D01*
X16642500Y-13153929D01*
X16628214Y-13139643D01*
X16613928Y-13111071D01*
X16599643Y-13053929D01*
X16599643Y-12982500D01*
X16613928Y-12925357D01*
X16628214Y-12896786D01*
X16642500Y-12882500D01*
X16671071Y-12868214D01*
X16885357Y-12896786D02*
X16899643Y-12882500D01*
X16928214Y-12868214D01*
X16999643Y-12868214D01*
X17028214Y-12882500D01*
X17042500Y-12896786D01*
X17056786Y-12925357D01*
X17056786Y-12953929D01*
X17042500Y-12996786D01*
X16871071Y-13168214D01*
X17056786Y-13168214D01*
X17313928Y-12968214D02*
X17313928Y-13168214D01*
X17242500Y-12853929D02*
X17171071Y-13068214D01*
X17356786Y-13068214D01*
X17456786Y-12868214D02*
X17456786Y-12925357D01*
X17571071Y-12868214D02*
X17571071Y-12925357D01*
X18013928Y-13282500D02*
X17999643Y-13268214D01*
X17971071Y-13225357D01*
X17956786Y-13196786D01*
X17942500Y-13153929D01*
X17928214Y-13082500D01*
X17928214Y-13025357D01*
X17942500Y-12953929D01*
X17956786Y-12911071D01*
X17971071Y-12882500D01*
X17999643Y-12839643D01*
X18013928Y-12825357D01*
X18256786Y-12868214D02*
X18199643Y-12868214D01*
X18171071Y-12882500D01*
X18156786Y-12896786D01*
X18128214Y-12939643D01*
X18113928Y-12996786D01*
X18113928Y-13111071D01*
X18128214Y-13139643D01*
X18142500Y-13153929D01*
X18171071Y-13168214D01*
X18228214Y-13168214D01*
X18256786Y-13153929D01*
X18271071Y-13139643D01*
X18285357Y-13111071D01*
X18285357Y-13039643D01*
X18271071Y-13011071D01*
X18256786Y-12996786D01*
X18228214Y-12982500D01*
X18171071Y-12982500D01*
X18142500Y-12996786D01*
X18128214Y-13011071D01*
X18113928Y-13039643D01*
X18642500Y-13168214D02*
X18642500Y-12868214D01*
X18771071Y-13168214D02*
X18771071Y-13011071D01*
X18756786Y-12982500D01*
X18728214Y-12968214D01*
X18685357Y-12968214D01*
X18656786Y-12982500D01*
X18642500Y-12996786D01*
X18956786Y-13168214D02*
X18928214Y-13153929D01*
X18913928Y-13139643D01*
X18899643Y-13111071D01*
X18899643Y-13025357D01*
X18913928Y-12996786D01*
X18928214Y-12982500D01*
X18956786Y-12968214D01*
X18999643Y-12968214D01*
X19028214Y-12982500D01*
X19042500Y-12996786D01*
X19056786Y-13025357D01*
X19056786Y-13111071D01*
X19042500Y-13139643D01*
X19028214Y-13153929D01*
X18999643Y-13168214D01*
X18956786Y-13168214D01*
X19228214Y-13168214D02*
X19199643Y-13153929D01*
X19185357Y-13125357D01*
X19185357Y-12868214D01*
X19456786Y-13153929D02*
X19428214Y-13168214D01*
X19371071Y-13168214D01*
X19342500Y-13153929D01*
X19328214Y-13125357D01*
X19328214Y-13011071D01*
X19342500Y-12982500D01*
X19371071Y-12968214D01*
X19428214Y-12968214D01*
X19456786Y-12982500D01*
X19471071Y-13011071D01*
X19471071Y-13039643D01*
X19328214Y-13068214D01*
X19585357Y-13153929D02*
X19613928Y-13168214D01*
X19671071Y-13168214D01*
X19699643Y-13153929D01*
X19713928Y-13125357D01*
X19713928Y-13111071D01*
X19699643Y-13082500D01*
X19671071Y-13068214D01*
X19628214Y-13068214D01*
X19599643Y-13053929D01*
X19585357Y-13025357D01*
X19585357Y-13011071D01*
X19599643Y-12982500D01*
X19628214Y-12968214D01*
X19671071Y-12968214D01*
X19699643Y-12982500D01*
X19813928Y-13282500D02*
X19828214Y-13268214D01*
X19856786Y-13225357D01*
X19871071Y-13196786D01*
X19885357Y-13153929D01*
X19899643Y-13082500D01*
X19899643Y-13025357D01*
X19885357Y-12953929D01*
X19871071Y-12911071D01*
X19856786Y-12882500D01*
X19828214Y-12839643D01*
X19813928Y-12825357D01*
X13327500Y-13428500D02*
G75*
G03X13327500Y-13428500I-40000J0D01*
G01*
X13671071Y-13264214D02*
X13699643Y-13264214D01*
X13728214Y-13278500D01*
X13742500Y-13292786D01*
X13756786Y-13321357D01*
X13771071Y-13378500D01*
X13771071Y-13449929D01*
X13756786Y-13507071D01*
X13742500Y-13535643D01*
X13728214Y-13549929D01*
X13699643Y-13564214D01*
X13671071Y-13564214D01*
X13642500Y-13549929D01*
X13628214Y-13535643D01*
X13613928Y-13507071D01*
X13599643Y-13449929D01*
X13599643Y-13378500D01*
X13613928Y-13321357D01*
X13628214Y-13292786D01*
X13642500Y-13278500D01*
X13671071Y-13264214D01*
X13899643Y-13535643D02*
X13913928Y-13549929D01*
X13899643Y-13564214D01*
X13885357Y-13549929D01*
X13899643Y-13535643D01*
X13899643Y-13564214D01*
X14085357Y-13392786D02*
X14056786Y-13378500D01*
X14042500Y-13364214D01*
X14028214Y-13335643D01*
X14028214Y-13321357D01*
X14042500Y-13292786D01*
X14056786Y-13278500D01*
X14085357Y-13264214D01*
X14142500Y-13264214D01*
X14171071Y-13278500D01*
X14185357Y-13292786D01*
X14199643Y-13321357D01*
X14199643Y-13335643D01*
X14185357Y-13364214D01*
X14171071Y-13378500D01*
X14142500Y-13392786D01*
X14085357Y-13392786D01*
X14056786Y-13407071D01*
X14042500Y-13421357D01*
X14028214Y-13449929D01*
X14028214Y-13507071D01*
X14042500Y-13535643D01*
X14056786Y-13549929D01*
X14085357Y-13564214D01*
X14142500Y-13564214D01*
X14171071Y-13549929D01*
X14185357Y-13535643D01*
X14199643Y-13507071D01*
X14199643Y-13449929D01*
X14185357Y-13421357D01*
X14171071Y-13407071D01*
X14142500Y-13392786D01*
X14385357Y-13264214D02*
X14413928Y-13264214D01*
X14442500Y-13278500D01*
X14456786Y-13292786D01*
X14471071Y-13321357D01*
X14485357Y-13378500D01*
X14485357Y-13449929D01*
X14471071Y-13507071D01*
X14456786Y-13535643D01*
X14442500Y-13549929D01*
X14413928Y-13564214D01*
X14385357Y-13564214D01*
X14356786Y-13549929D01*
X14342500Y-13535643D01*
X14328214Y-13507071D01*
X14313928Y-13449929D01*
X14313928Y-13378500D01*
X14328214Y-13321357D01*
X14342500Y-13292786D01*
X14356786Y-13278500D01*
X14385357Y-13264214D01*
X14613928Y-13564214D02*
X14613928Y-13364214D01*
X14613928Y-13392786D02*
X14628214Y-13378500D01*
X14656786Y-13364214D01*
X14699643Y-13364214D01*
X14728214Y-13378500D01*
X14742500Y-13407071D01*
X14742500Y-13564214D01*
X14742500Y-13407071D02*
X14756786Y-13378500D01*
X14785357Y-13364214D01*
X14828214Y-13364214D01*
X14856786Y-13378500D01*
X14871071Y-13407071D01*
X14871071Y-13564214D01*
X15013928Y-13564214D02*
X15013928Y-13364214D01*
X15013928Y-13392786D02*
X15028214Y-13378500D01*
X15056786Y-13364214D01*
X15099643Y-13364214D01*
X15128214Y-13378500D01*
X15142500Y-13407071D01*
X15142500Y-13564214D01*
X15142500Y-13407071D02*
X15156786Y-13378500D01*
X15185357Y-13364214D01*
X15228214Y-13364214D01*
X15256786Y-13378500D01*
X15271071Y-13407071D01*
X15271071Y-13564214D01*
X15856786Y-13249929D02*
X15599643Y-13635643D01*
X16242500Y-13264214D02*
X16271071Y-13264214D01*
X16299643Y-13278500D01*
X16313928Y-13292786D01*
X16328214Y-13321357D01*
X16342500Y-13378500D01*
X16342500Y-13449929D01*
X16328214Y-13507071D01*
X16313928Y-13535643D01*
X16299643Y-13549929D01*
X16271071Y-13564214D01*
X16242500Y-13564214D01*
X16213928Y-13549929D01*
X16199643Y-13535643D01*
X16185357Y-13507071D01*
X16171071Y-13449929D01*
X16171071Y-13378500D01*
X16185357Y-13321357D01*
X16199643Y-13292786D01*
X16213928Y-13278500D01*
X16242500Y-13264214D01*
X16471071Y-13535643D02*
X16485357Y-13549929D01*
X16471071Y-13564214D01*
X16456786Y-13549929D01*
X16471071Y-13535643D01*
X16471071Y-13564214D01*
X16671071Y-13264214D02*
X16699643Y-13264214D01*
X16728214Y-13278500D01*
X16742500Y-13292786D01*
X16756786Y-13321357D01*
X16771071Y-13378500D01*
X16771071Y-13449929D01*
X16756786Y-13507071D01*
X16742500Y-13535643D01*
X16728214Y-13549929D01*
X16699643Y-13564214D01*
X16671071Y-13564214D01*
X16642500Y-13549929D01*
X16628214Y-13535643D01*
X16613928Y-13507071D01*
X16599643Y-13449929D01*
X16599643Y-13378500D01*
X16613928Y-13321357D01*
X16628214Y-13292786D01*
X16642500Y-13278500D01*
X16671071Y-13264214D01*
X16871071Y-13264214D02*
X17056786Y-13264214D01*
X16956786Y-13378500D01*
X16999643Y-13378500D01*
X17028214Y-13392786D01*
X17042500Y-13407071D01*
X17056786Y-13435643D01*
X17056786Y-13507071D01*
X17042500Y-13535643D01*
X17028214Y-13549929D01*
X16999643Y-13564214D01*
X16913928Y-13564214D01*
X16885357Y-13549929D01*
X16871071Y-13535643D01*
X17342500Y-13564214D02*
X17171071Y-13564214D01*
X17256786Y-13564214D02*
X17256786Y-13264214D01*
X17228214Y-13307071D01*
X17199643Y-13335643D01*
X17171071Y-13349929D01*
X17456786Y-13264214D02*
X17456786Y-13321357D01*
X17571071Y-13264214D02*
X17571071Y-13321357D01*
X18013928Y-13678500D02*
X17999643Y-13664214D01*
X17971071Y-13621357D01*
X17956786Y-13592786D01*
X17942500Y-13549929D01*
X17928214Y-13478500D01*
X17928214Y-13421357D01*
X17942500Y-13349929D01*
X17956786Y-13307071D01*
X17971071Y-13278500D01*
X17999643Y-13235643D01*
X18013928Y-13221357D01*
X18271071Y-13264214D02*
X18128214Y-13264214D01*
X18113928Y-13407071D01*
X18128214Y-13392786D01*
X18156786Y-13378500D01*
X18228214Y-13378500D01*
X18256786Y-13392786D01*
X18271071Y-13407071D01*
X18285357Y-13435643D01*
X18285357Y-13507071D01*
X18271071Y-13535643D01*
X18256786Y-13549929D01*
X18228214Y-13564214D01*
X18156786Y-13564214D01*
X18128214Y-13549929D01*
X18113928Y-13535643D01*
X18456786Y-13392786D02*
X18428214Y-13378500D01*
X18413928Y-13364214D01*
X18399643Y-13335643D01*
X18399643Y-13321357D01*
X18413928Y-13292786D01*
X18428214Y-13278500D01*
X18456786Y-13264214D01*
X18513928Y-13264214D01*
X18542500Y-13278500D01*
X18556786Y-13292786D01*
X18571071Y-13321357D01*
X18571071Y-13335643D01*
X18556786Y-13364214D01*
X18542500Y-13378500D01*
X18513928Y-13392786D01*
X18456786Y-13392786D01*
X18428214Y-13407071D01*
X18413928Y-13421357D01*
X18399643Y-13449929D01*
X18399643Y-13507071D01*
X18413928Y-13535643D01*
X18428214Y-13549929D01*
X18456786Y-13564214D01*
X18513928Y-13564214D01*
X18542500Y-13549929D01*
X18556786Y-13535643D01*
X18571071Y-13507071D01*
X18571071Y-13449929D01*
X18556786Y-13421357D01*
X18542500Y-13407071D01*
X18513928Y-13392786D01*
X18928214Y-13564214D02*
X18928214Y-13264214D01*
X19056786Y-13564214D02*
X19056786Y-13407071D01*
X19042500Y-13378500D01*
X19013928Y-13364214D01*
X18971071Y-13364214D01*
X18942500Y-13378500D01*
X18928214Y-13392786D01*
X19242500Y-13564214D02*
X19213928Y-13549929D01*
X19199643Y-13535643D01*
X19185357Y-13507071D01*
X19185357Y-13421357D01*
X19199643Y-13392786D01*
X19213928Y-13378500D01*
X19242500Y-13364214D01*
X19285357Y-13364214D01*
X19313928Y-13378500D01*
X19328214Y-13392786D01*
X19342500Y-13421357D01*
X19342500Y-13507071D01*
X19328214Y-13535643D01*
X19313928Y-13549929D01*
X19285357Y-13564214D01*
X19242500Y-13564214D01*
X19513928Y-13564214D02*
X19485357Y-13549929D01*
X19471071Y-13521357D01*
X19471071Y-13264214D01*
X19742500Y-13549929D02*
X19713928Y-13564214D01*
X19656786Y-13564214D01*
X19628214Y-13549929D01*
X19613928Y-13521357D01*
X19613928Y-13407071D01*
X19628214Y-13378500D01*
X19656786Y-13364214D01*
X19713928Y-13364214D01*
X19742500Y-13378500D01*
X19756786Y-13407071D01*
X19756786Y-13435643D01*
X19613928Y-13464214D01*
X19871071Y-13549929D02*
X19899643Y-13564214D01*
X19956786Y-13564214D01*
X19985357Y-13549929D01*
X19999643Y-13521357D01*
X19999643Y-13507071D01*
X19985357Y-13478500D01*
X19956786Y-13464214D01*
X19913928Y-13464214D01*
X19885357Y-13449929D01*
X19871071Y-13421357D01*
X19871071Y-13407071D01*
X19885357Y-13378500D01*
X19913928Y-13364214D01*
X19956786Y-13364214D01*
X19985357Y-13378500D01*
X20099643Y-13678500D02*
X20113928Y-13664214D01*
X20142500Y-13621357D01*
X20156786Y-13592786D01*
X20171071Y-13549929D01*
X20185357Y-13478500D01*
X20185357Y-13421357D01*
X20171071Y-13349929D01*
X20156786Y-13307071D01*
X20142500Y-13278500D01*
X20113928Y-13235643D01*
X20099643Y-13221357D01*
X13277500Y-13774500D02*
X13277500Y-13874500D01*
X13227500Y-13824500D02*
X13327500Y-13824500D01*
X13771071Y-13960214D02*
X13599643Y-13960214D01*
X13685357Y-13960214D02*
X13685357Y-13660214D01*
X13656786Y-13703071D01*
X13628214Y-13731643D01*
X13599643Y-13745929D01*
X13899643Y-13931643D02*
X13913928Y-13945929D01*
X13899643Y-13960214D01*
X13885357Y-13945929D01*
X13899643Y-13931643D01*
X13899643Y-13960214D01*
X14099643Y-13660214D02*
X14128214Y-13660214D01*
X14156786Y-13674500D01*
X14171071Y-13688786D01*
X14185357Y-13717357D01*
X14199643Y-13774500D01*
X14199643Y-13845929D01*
X14185357Y-13903071D01*
X14171071Y-13931643D01*
X14156786Y-13945929D01*
X14128214Y-13960214D01*
X14099643Y-13960214D01*
X14071071Y-13945929D01*
X14056786Y-13931643D01*
X14042500Y-13903071D01*
X14028214Y-13845929D01*
X14028214Y-13774500D01*
X14042500Y-13717357D01*
X14056786Y-13688786D01*
X14071071Y-13674500D01*
X14099643Y-13660214D01*
X14385357Y-13660214D02*
X14413928Y-13660214D01*
X14442500Y-13674500D01*
X14456786Y-13688786D01*
X14471071Y-13717357D01*
X14485357Y-13774500D01*
X14485357Y-13845929D01*
X14471071Y-13903071D01*
X14456786Y-13931643D01*
X14442500Y-13945929D01*
X14413928Y-13960214D01*
X14385357Y-13960214D01*
X14356786Y-13945929D01*
X14342500Y-13931643D01*
X14328214Y-13903071D01*
X14313928Y-13845929D01*
X14313928Y-13774500D01*
X14328214Y-13717357D01*
X14342500Y-13688786D01*
X14356786Y-13674500D01*
X14385357Y-13660214D01*
X14613928Y-13960214D02*
X14613928Y-13760214D01*
X14613928Y-13788786D02*
X14628214Y-13774500D01*
X14656786Y-13760214D01*
X14699643Y-13760214D01*
X14728214Y-13774500D01*
X14742500Y-13803071D01*
X14742500Y-13960214D01*
X14742500Y-13803071D02*
X14756786Y-13774500D01*
X14785357Y-13760214D01*
X14828214Y-13760214D01*
X14856786Y-13774500D01*
X14871071Y-13803071D01*
X14871071Y-13960214D01*
X15013928Y-13960214D02*
X15013928Y-13760214D01*
X15013928Y-13788786D02*
X15028214Y-13774500D01*
X15056786Y-13760214D01*
X15099643Y-13760214D01*
X15128214Y-13774500D01*
X15142500Y-13803071D01*
X15142500Y-13960214D01*
X15142500Y-13803071D02*
X15156786Y-13774500D01*
X15185357Y-13760214D01*
X15228214Y-13760214D01*
X15256786Y-13774500D01*
X15271071Y-13803071D01*
X15271071Y-13960214D01*
X15856786Y-13645929D02*
X15599643Y-14031643D01*
X16242500Y-13660214D02*
X16271071Y-13660214D01*
X16299643Y-13674500D01*
X16313928Y-13688786D01*
X16328214Y-13717357D01*
X16342500Y-13774500D01*
X16342500Y-13845929D01*
X16328214Y-13903071D01*
X16313928Y-13931643D01*
X16299643Y-13945929D01*
X16271071Y-13960214D01*
X16242500Y-13960214D01*
X16213928Y-13945929D01*
X16199643Y-13931643D01*
X16185357Y-13903071D01*
X16171071Y-13845929D01*
X16171071Y-13774500D01*
X16185357Y-13717357D01*
X16199643Y-13688786D01*
X16213928Y-13674500D01*
X16242500Y-13660214D01*
X16471071Y-13931643D02*
X16485357Y-13945929D01*
X16471071Y-13960214D01*
X16456786Y-13945929D01*
X16471071Y-13931643D01*
X16471071Y-13960214D01*
X16671071Y-13660214D02*
X16699643Y-13660214D01*
X16728214Y-13674500D01*
X16742500Y-13688786D01*
X16756786Y-13717357D01*
X16771071Y-13774500D01*
X16771071Y-13845929D01*
X16756786Y-13903071D01*
X16742500Y-13931643D01*
X16728214Y-13945929D01*
X16699643Y-13960214D01*
X16671071Y-13960214D01*
X16642500Y-13945929D01*
X16628214Y-13931643D01*
X16613928Y-13903071D01*
X16599643Y-13845929D01*
X16599643Y-13774500D01*
X16613928Y-13717357D01*
X16628214Y-13688786D01*
X16642500Y-13674500D01*
X16671071Y-13660214D01*
X16871071Y-13660214D02*
X17056786Y-13660214D01*
X16956786Y-13774500D01*
X16999643Y-13774500D01*
X17028214Y-13788786D01*
X17042500Y-13803071D01*
X17056786Y-13831643D01*
X17056786Y-13903071D01*
X17042500Y-13931643D01*
X17028214Y-13945929D01*
X16999643Y-13960214D01*
X16913928Y-13960214D01*
X16885357Y-13945929D01*
X16871071Y-13931643D01*
X17199643Y-13960214D02*
X17256786Y-13960214D01*
X17285357Y-13945929D01*
X17299643Y-13931643D01*
X17328214Y-13888786D01*
X17342500Y-13831643D01*
X17342500Y-13717357D01*
X17328214Y-13688786D01*
X17313928Y-13674500D01*
X17285357Y-13660214D01*
X17228214Y-13660214D01*
X17199643Y-13674500D01*
X17185357Y-13688786D01*
X17171071Y-13717357D01*
X17171071Y-13788786D01*
X17185357Y-13817357D01*
X17199643Y-13831643D01*
X17228214Y-13845929D01*
X17285357Y-13845929D01*
X17313928Y-13831643D01*
X17328214Y-13817357D01*
X17342500Y-13788786D01*
X17456786Y-13660214D02*
X17456786Y-13717357D01*
X17571071Y-13660214D02*
X17571071Y-13717357D01*
X18013928Y-14074500D02*
X17999643Y-14060214D01*
X17971071Y-14017357D01*
X17956786Y-13988786D01*
X17942500Y-13945929D01*
X17928214Y-13874500D01*
X17928214Y-13817357D01*
X17942500Y-13745929D01*
X17956786Y-13703071D01*
X17971071Y-13674500D01*
X17999643Y-13631643D01*
X18013928Y-13617357D01*
X18113928Y-13688786D02*
X18128214Y-13674500D01*
X18156786Y-13660214D01*
X18228214Y-13660214D01*
X18256786Y-13674500D01*
X18271071Y-13688786D01*
X18285357Y-13717357D01*
X18285357Y-13745929D01*
X18271071Y-13788786D01*
X18099643Y-13960214D01*
X18285357Y-13960214D01*
X18571071Y-13960214D02*
X18399643Y-13960214D01*
X18485357Y-13960214D02*
X18485357Y-13660214D01*
X18456786Y-13703071D01*
X18428214Y-13731643D01*
X18399643Y-13745929D01*
X18928214Y-13960214D02*
X18928214Y-13660214D01*
X19056786Y-13960214D02*
X19056786Y-13803071D01*
X19042500Y-13774500D01*
X19013928Y-13760214D01*
X18971071Y-13760214D01*
X18942500Y-13774500D01*
X18928214Y-13788786D01*
X19242500Y-13960214D02*
X19213928Y-13945929D01*
X19199643Y-13931643D01*
X19185357Y-13903071D01*
X19185357Y-13817357D01*
X19199643Y-13788786D01*
X19213928Y-13774500D01*
X19242500Y-13760214D01*
X19285357Y-13760214D01*
X19313928Y-13774500D01*
X19328214Y-13788786D01*
X19342500Y-13817357D01*
X19342500Y-13903071D01*
X19328214Y-13931643D01*
X19313928Y-13945929D01*
X19285357Y-13960214D01*
X19242500Y-13960214D01*
X19513928Y-13960214D02*
X19485357Y-13945929D01*
X19471071Y-13917357D01*
X19471071Y-13660214D01*
X19742500Y-13945929D02*
X19713928Y-13960214D01*
X19656786Y-13960214D01*
X19628214Y-13945929D01*
X19613928Y-13917357D01*
X19613928Y-13803071D01*
X19628214Y-13774500D01*
X19656786Y-13760214D01*
X19713928Y-13760214D01*
X19742500Y-13774500D01*
X19756786Y-13803071D01*
X19756786Y-13831643D01*
X19613928Y-13860214D01*
X19871071Y-13945929D02*
X19899643Y-13960214D01*
X19956786Y-13960214D01*
X19985357Y-13945929D01*
X19999643Y-13917357D01*
X19999643Y-13903071D01*
X19985357Y-13874500D01*
X19956786Y-13860214D01*
X19913928Y-13860214D01*
X19885357Y-13845929D01*
X19871071Y-13817357D01*
X19871071Y-13803071D01*
X19885357Y-13774500D01*
X19913928Y-13760214D01*
X19956786Y-13760214D01*
X19985357Y-13774500D01*
X20099643Y-14074500D02*
X20113928Y-14060214D01*
X20142500Y-14017357D01*
X20156786Y-13988786D01*
X20171071Y-13945929D01*
X20185357Y-13874500D01*
X20185357Y-13817357D01*
X20171071Y-13745929D01*
X20156786Y-13703071D01*
X20142500Y-13674500D01*
X20113928Y-13631643D01*
X20099643Y-13617357D01*
X13305533Y-14273534D02*
X13305533Y-14167467D01*
X13199466Y-14167467D01*
X13199466Y-14273534D01*
X13305533Y-14273534D01*
X13771071Y-14356214D02*
X13599643Y-14356214D01*
X13685357Y-14356214D02*
X13685357Y-14056214D01*
X13656786Y-14099071D01*
X13628214Y-14127643D01*
X13599643Y-14141929D01*
X13899643Y-14327643D02*
X13913928Y-14341929D01*
X13899643Y-14356214D01*
X13885357Y-14341929D01*
X13899643Y-14327643D01*
X13899643Y-14356214D01*
X14185357Y-14056214D02*
X14042500Y-14056214D01*
X14028214Y-14199071D01*
X14042500Y-14184786D01*
X14071071Y-14170500D01*
X14142500Y-14170500D01*
X14171071Y-14184786D01*
X14185357Y-14199071D01*
X14199643Y-14227643D01*
X14199643Y-14299071D01*
X14185357Y-14327643D01*
X14171071Y-14341929D01*
X14142500Y-14356214D01*
X14071071Y-14356214D01*
X14042500Y-14341929D01*
X14028214Y-14327643D01*
X14385357Y-14056214D02*
X14413928Y-14056214D01*
X14442500Y-14070500D01*
X14456786Y-14084786D01*
X14471071Y-14113357D01*
X14485357Y-14170500D01*
X14485357Y-14241929D01*
X14471071Y-14299071D01*
X14456786Y-14327643D01*
X14442500Y-14341929D01*
X14413928Y-14356214D01*
X14385357Y-14356214D01*
X14356786Y-14341929D01*
X14342500Y-14327643D01*
X14328214Y-14299071D01*
X14313928Y-14241929D01*
X14313928Y-14170500D01*
X14328214Y-14113357D01*
X14342500Y-14084786D01*
X14356786Y-14070500D01*
X14385357Y-14056214D01*
X14613928Y-14356214D02*
X14613928Y-14156214D01*
X14613928Y-14184786D02*
X14628214Y-14170500D01*
X14656786Y-14156214D01*
X14699643Y-14156214D01*
X14728214Y-14170500D01*
X14742500Y-14199071D01*
X14742500Y-14356214D01*
X14742500Y-14199071D02*
X14756786Y-14170500D01*
X14785357Y-14156214D01*
X14828214Y-14156214D01*
X14856786Y-14170500D01*
X14871071Y-14199071D01*
X14871071Y-14356214D01*
X15013928Y-14356214D02*
X15013928Y-14156214D01*
X15013928Y-14184786D02*
X15028214Y-14170500D01*
X15056786Y-14156214D01*
X15099643Y-14156214D01*
X15128214Y-14170500D01*
X15142500Y-14199071D01*
X15142500Y-14356214D01*
X15142500Y-14199071D02*
X15156786Y-14170500D01*
X15185357Y-14156214D01*
X15228214Y-14156214D01*
X15256786Y-14170500D01*
X15271071Y-14199071D01*
X15271071Y-14356214D01*
X15856786Y-14041929D02*
X15599643Y-14427643D01*
X16242500Y-14056214D02*
X16271071Y-14056214D01*
X16299643Y-14070500D01*
X16313928Y-14084786D01*
X16328214Y-14113357D01*
X16342500Y-14170500D01*
X16342500Y-14241929D01*
X16328214Y-14299071D01*
X16313928Y-14327643D01*
X16299643Y-14341929D01*
X16271071Y-14356214D01*
X16242500Y-14356214D01*
X16213928Y-14341929D01*
X16199643Y-14327643D01*
X16185357Y-14299071D01*
X16171071Y-14241929D01*
X16171071Y-14170500D01*
X16185357Y-14113357D01*
X16199643Y-14084786D01*
X16213928Y-14070500D01*
X16242500Y-14056214D01*
X16471071Y-14327643D02*
X16485357Y-14341929D01*
X16471071Y-14356214D01*
X16456786Y-14341929D01*
X16471071Y-14327643D01*
X16471071Y-14356214D01*
X16671071Y-14056214D02*
X16699643Y-14056214D01*
X16728214Y-14070500D01*
X16742500Y-14084786D01*
X16756786Y-14113357D01*
X16771071Y-14170500D01*
X16771071Y-14241929D01*
X16756786Y-14299071D01*
X16742500Y-14327643D01*
X16728214Y-14341929D01*
X16699643Y-14356214D01*
X16671071Y-14356214D01*
X16642500Y-14341929D01*
X16628214Y-14327643D01*
X16613928Y-14299071D01*
X16599643Y-14241929D01*
X16599643Y-14170500D01*
X16613928Y-14113357D01*
X16628214Y-14084786D01*
X16642500Y-14070500D01*
X16671071Y-14056214D01*
X17042500Y-14056214D02*
X16899643Y-14056214D01*
X16885357Y-14199071D01*
X16899643Y-14184786D01*
X16928214Y-14170500D01*
X16999643Y-14170500D01*
X17028214Y-14184786D01*
X17042500Y-14199071D01*
X17056786Y-14227643D01*
X17056786Y-14299071D01*
X17042500Y-14327643D01*
X17028214Y-14341929D01*
X16999643Y-14356214D01*
X16928214Y-14356214D01*
X16899643Y-14341929D01*
X16885357Y-14327643D01*
X17199643Y-14356214D02*
X17256786Y-14356214D01*
X17285357Y-14341929D01*
X17299643Y-14327643D01*
X17328214Y-14284786D01*
X17342500Y-14227643D01*
X17342500Y-14113357D01*
X17328214Y-14084786D01*
X17313928Y-14070500D01*
X17285357Y-14056214D01*
X17228214Y-14056214D01*
X17199643Y-14070500D01*
X17185357Y-14084786D01*
X17171071Y-14113357D01*
X17171071Y-14184786D01*
X17185357Y-14213357D01*
X17199643Y-14227643D01*
X17228214Y-14241929D01*
X17285357Y-14241929D01*
X17313928Y-14227643D01*
X17328214Y-14213357D01*
X17342500Y-14184786D01*
X17456786Y-14056214D02*
X17456786Y-14113357D01*
X17571071Y-14056214D02*
X17571071Y-14113357D01*
X18013928Y-14470500D02*
X17999643Y-14456214D01*
X17971071Y-14413357D01*
X17956786Y-14384786D01*
X17942500Y-14341929D01*
X17928214Y-14270500D01*
X17928214Y-14213357D01*
X17942500Y-14141929D01*
X17956786Y-14099071D01*
X17971071Y-14070500D01*
X17999643Y-14027643D01*
X18013928Y-14013357D01*
X18113928Y-14084786D02*
X18128214Y-14070500D01*
X18156786Y-14056214D01*
X18228214Y-14056214D01*
X18256786Y-14070500D01*
X18271071Y-14084786D01*
X18285357Y-14113357D01*
X18285357Y-14141929D01*
X18271071Y-14184786D01*
X18099643Y-14356214D01*
X18285357Y-14356214D01*
X18642500Y-14356214D02*
X18642500Y-14056214D01*
X18771071Y-14356214D02*
X18771071Y-14199071D01*
X18756786Y-14170500D01*
X18728214Y-14156214D01*
X18685357Y-14156214D01*
X18656786Y-14170500D01*
X18642500Y-14184786D01*
X18956786Y-14356214D02*
X18928214Y-14341929D01*
X18913928Y-14327643D01*
X18899643Y-14299071D01*
X18899643Y-14213357D01*
X18913928Y-14184786D01*
X18928214Y-14170500D01*
X18956786Y-14156214D01*
X18999643Y-14156214D01*
X19028214Y-14170500D01*
X19042500Y-14184786D01*
X19056786Y-14213357D01*
X19056786Y-14299071D01*
X19042500Y-14327643D01*
X19028214Y-14341929D01*
X18999643Y-14356214D01*
X18956786Y-14356214D01*
X19228214Y-14356214D02*
X19199643Y-14341929D01*
X19185357Y-14313357D01*
X19185357Y-14056214D01*
X19456786Y-14341929D02*
X19428214Y-14356214D01*
X19371071Y-14356214D01*
X19342500Y-14341929D01*
X19328214Y-14313357D01*
X19328214Y-14199071D01*
X19342500Y-14170500D01*
X19371071Y-14156214D01*
X19428214Y-14156214D01*
X19456786Y-14170500D01*
X19471071Y-14199071D01*
X19471071Y-14227643D01*
X19328214Y-14256214D01*
X19585357Y-14341929D02*
X19613928Y-14356214D01*
X19671071Y-14356214D01*
X19699643Y-14341929D01*
X19713928Y-14313357D01*
X19713928Y-14299071D01*
X19699643Y-14270500D01*
X19671071Y-14256214D01*
X19628214Y-14256214D01*
X19599643Y-14241929D01*
X19585357Y-14213357D01*
X19585357Y-14199071D01*
X19599643Y-14170500D01*
X19628214Y-14156214D01*
X19671071Y-14156214D01*
X19699643Y-14170500D01*
X19813928Y-14470500D02*
X19828214Y-14456214D01*
X19856786Y-14413357D01*
X19871071Y-14384786D01*
X19885357Y-14341929D01*
X19899643Y-14270500D01*
X19899643Y-14213357D01*
X19885357Y-14141929D01*
X19871071Y-14099071D01*
X19856786Y-14070500D01*
X19828214Y-14027643D01*
X19813928Y-14013357D01*
M02*
