M48
;DRILL file {KiCad (5.0.2)-1} date 23/12/2018 18:59:07
;FORMAT={-:-/ absolute / metric / decimal}
FMAT,2
METRIC,TZ
T1C0.600
T2C0.700
T3C0.800
T4C0.900
T5C1.000
T6C1.520
%
G90
G05
T1
X110.49Y-35.56
X111.76Y-35.56
X113.03Y-35.56
X121.285Y-40.005
X122.555Y-40.005
X123.825Y-40.005
X110.49Y-58.42
X111.76Y-58.42
X113.03Y-58.42
X121.285Y-62.865
X122.555Y-62.865
X123.825Y-62.865
X151.13Y-34.925
X152.4Y-34.925
X153.67Y-34.925
X140.335Y-40.64
X141.605Y-40.64
X142.875Y-40.64
X110.49Y-46.99
X111.76Y-46.99
X113.03Y-46.99
X121.285Y-51.435
X122.555Y-51.435
X123.825Y-51.435
X110.49Y-69.85
X111.76Y-69.85
X113.03Y-69.85
X121.285Y-74.295
X122.555Y-74.295
X123.825Y-74.295
X151.13Y-46.355
X152.4Y-46.355
X153.67Y-46.355
X140.335Y-52.07
X141.605Y-52.07
X142.875Y-52.07
X151.13Y-57.785
X152.4Y-57.785
X153.67Y-57.785
X140.335Y-63.5
X141.605Y-63.5
X142.875Y-63.5
X151.13Y-69.215
X152.4Y-69.215
X153.67Y-69.215
X140.335Y-74.93
X141.605Y-74.93
X142.875Y-74.93
T2
X118.745Y-33.655
X118.745Y-36.195
X116.205Y-33.655
X116.205Y-36.195
X107.315Y-33.655
X107.315Y-36.195
X118.745Y-45.085
X118.745Y-47.625
X116.205Y-45.085
X116.205Y-47.625
X107.315Y-45.085
X107.315Y-47.625
X118.745Y-56.515
X118.745Y-59.055
X116.205Y-56.515
X116.205Y-59.055
X107.315Y-56.515
X107.315Y-59.055
X116.205Y-67.945
X116.205Y-70.485
X107.315Y-67.945
X107.315Y-70.485
X145.415Y-33.655
X145.415Y-36.195
X147.955Y-33.655
X147.955Y-36.195
X156.845Y-33.655
X156.845Y-36.195
X145.415Y-45.085
X145.415Y-47.625
X147.955Y-45.085
X147.955Y-47.625
X156.845Y-45.085
X156.845Y-47.625
X145.415Y-56.515
X145.415Y-59.055
X147.955Y-56.515
X147.955Y-59.055
X156.845Y-56.515
X156.845Y-59.055
X145.415Y-67.945
X145.415Y-70.485
X147.955Y-67.945
X147.955Y-70.485
X156.845Y-67.945
X156.845Y-70.485
X118.745Y-67.945
X118.745Y-70.485
T3
X121.92Y-80.01
X124.46Y-80.01
X127.Y-80.01
X129.54Y-80.01
X132.08Y-80.01
X134.62Y-80.01
X137.16Y-80.01
X139.7Y-80.01
X121.92Y-82.55
X124.46Y-82.55
X127.Y-82.55
X129.54Y-82.55
X132.08Y-82.55
X134.62Y-82.55
X137.16Y-82.55
X139.7Y-82.55
T4
X122.555Y-33.655
X122.555Y-36.195
X122.555Y-45.085
X122.555Y-47.625
X122.555Y-56.515
X122.555Y-59.055
X122.555Y-67.945
X122.555Y-70.485
X141.605Y-33.655
X141.605Y-36.195
X141.605Y-45.085
X141.605Y-47.625
X141.605Y-56.515
X141.605Y-59.055
X141.605Y-67.945
X141.605Y-70.485
T5
X126.365Y-38.735
X127.635Y-48.895
X128.905Y-60.325
X130.175Y-71.755
X134.62Y-48.895
X134.62Y-60.325
X135.89Y-71.755
X137.795Y-38.1
X111.76Y-40.64
X114.3Y-40.64
X116.84Y-40.64
X147.32Y-40.005
X149.86Y-40.005
X152.4Y-40.005
X111.76Y-63.5
X114.3Y-63.5
X116.84Y-63.5
X111.76Y-52.07
X114.3Y-52.07
X116.84Y-52.07
X111.76Y-74.93
X114.3Y-74.93
X116.84Y-74.93
X147.32Y-51.435
X149.86Y-51.435
X152.4Y-51.435
X147.32Y-62.865
X149.86Y-62.865
X152.4Y-62.865
X147.32Y-74.295
X149.86Y-74.295
X152.4Y-74.295
T6
X101.6Y-35.56
X101.6Y-40.64
X101.6Y-46.99
X101.6Y-52.07
X101.6Y-58.42
X101.6Y-63.5
X101.6Y-69.85
X101.6Y-74.93
X162.56Y-35.56
X162.56Y-40.64
X162.56Y-46.99
X162.56Y-52.07
X162.56Y-58.42
X162.56Y-63.5
X162.56Y-69.85
X162.56Y-74.93
X129.54Y-36.195
X134.62Y-36.195
T0
M30
