G04 #@! TF.GenerationSoftware,KiCad,Pcbnew,(5.0.2)-1*
G04 #@! TF.CreationDate,2018-12-23T18:59:38+01:00*
G04 #@! TF.ProjectId,MultiSwitch_MosFet,4d756c74-6953-4776-9974-63685f4d6f73,0.1*
G04 #@! TF.SameCoordinates,Original*
G04 #@! TF.FileFunction,Copper,L2,Bot*
G04 #@! TF.FilePolarity,Positive*
%FSLAX46Y46*%
G04 Gerber Fmt 4.6, Leading zero omitted, Abs format (unit mm)*
G04 Created by KiCad (PCBNEW (5.0.2)-1) date 23/12/2018 18:59:38*
%MOMM*%
%LPD*%
G01*
G04 APERTURE LIST*
G04 #@! TA.AperFunction,ComponentPad*
%ADD10O,1.800000X1.800000*%
G04 #@! TD*
G04 #@! TA.AperFunction,ComponentPad*
%ADD11R,1.800000X1.800000*%
G04 #@! TD*
G04 #@! TA.AperFunction,ComponentPad*
%ADD12O,0.900000X1.500000*%
G04 #@! TD*
G04 #@! TA.AperFunction,ComponentPad*
%ADD13R,0.900000X1.500000*%
G04 #@! TD*
G04 #@! TA.AperFunction,ComponentPad*
%ADD14R,3.000000X3.000000*%
G04 #@! TD*
G04 #@! TA.AperFunction,ComponentPad*
%ADD15C,3.000000*%
G04 #@! TD*
G04 #@! TA.AperFunction,ComponentPad*
%ADD16C,1.800000*%
G04 #@! TD*
G04 #@! TA.AperFunction,ComponentPad*
%ADD17R,1.500000X1.800000*%
G04 #@! TD*
G04 #@! TA.AperFunction,ComponentPad*
%ADD18O,1.500000X1.800000*%
G04 #@! TD*
G04 #@! TA.AperFunction,ComponentPad*
%ADD19O,1.400000X1.400000*%
G04 #@! TD*
G04 #@! TA.AperFunction,ComponentPad*
%ADD20C,1.400000*%
G04 #@! TD*
G04 #@! TA.AperFunction,ViaPad*
%ADD21C,1.500000*%
G04 #@! TD*
G04 #@! TA.AperFunction,Conductor*
%ADD22C,1.000000*%
G04 #@! TD*
G04 #@! TA.AperFunction,Conductor*
%ADD23C,0.310000*%
G04 #@! TD*
G04 #@! TA.AperFunction,Conductor*
%ADD24C,0.254000*%
G04 #@! TD*
G04 APERTURE END LIST*
D10*
G04 #@! TO.P,Q2,3*
G04 #@! TO.N,GND*
X116840000Y-40640000D03*
G04 #@! TO.P,Q2,2*
G04 #@! TO.N,Net-(J1-Pad1)*
X114300000Y-40640000D03*
D11*
G04 #@! TO.P,Q2,1*
G04 #@! TO.N,Net-(Q1-Pad1)*
X111760000Y-40640000D03*
G04 #@! TD*
G04 #@! TO.P,Q14,1*
G04 #@! TO.N,Net-(Q13-Pad1)*
X152400000Y-40005000D03*
D10*
G04 #@! TO.P,Q14,2*
G04 #@! TO.N,Net-(J5-Pad2)*
X149860000Y-40005000D03*
G04 #@! TO.P,Q14,3*
G04 #@! TO.N,GND*
X147320000Y-40005000D03*
G04 #@! TD*
D12*
G04 #@! TO.P,Q1,2*
G04 #@! TO.N,Net-(Q1-Pad2)*
X111760000Y-35560000D03*
G04 #@! TO.P,Q1,3*
G04 #@! TO.N,GND*
X113030000Y-35560000D03*
D13*
G04 #@! TO.P,Q1,1*
G04 #@! TO.N,Net-(Q1-Pad1)*
X110490000Y-35560000D03*
G04 #@! TD*
D11*
G04 #@! TO.P,Q8,1*
G04 #@! TO.N,Net-(Q7-Pad1)*
X111760000Y-63500000D03*
D10*
G04 #@! TO.P,Q8,2*
G04 #@! TO.N,Net-(J3-Pad1)*
X114300000Y-63500000D03*
G04 #@! TO.P,Q8,3*
G04 #@! TO.N,GND*
X116840000Y-63500000D03*
G04 #@! TD*
D12*
G04 #@! TO.P,Q3,2*
G04 #@! TO.N,Net-(J1-Pad1)*
X122555000Y-40005000D03*
G04 #@! TO.P,Q3,3*
X121285000Y-40005000D03*
D13*
G04 #@! TO.P,Q3,1*
G04 #@! TO.N,Net-(D1-Pad1)*
X123825000Y-40005000D03*
G04 #@! TD*
D12*
G04 #@! TO.P,Q7,2*
G04 #@! TO.N,Net-(Q7-Pad2)*
X111760000Y-58420000D03*
G04 #@! TO.P,Q7,3*
G04 #@! TO.N,GND*
X113030000Y-58420000D03*
D13*
G04 #@! TO.P,Q7,1*
G04 #@! TO.N,Net-(Q7-Pad1)*
X110490000Y-58420000D03*
G04 #@! TD*
D12*
G04 #@! TO.P,Q9,2*
G04 #@! TO.N,Net-(J3-Pad1)*
X122555000Y-62865000D03*
G04 #@! TO.P,Q9,3*
X121285000Y-62865000D03*
D13*
G04 #@! TO.P,Q9,1*
G04 #@! TO.N,Net-(D3-Pad1)*
X123825000Y-62865000D03*
G04 #@! TD*
D12*
G04 #@! TO.P,Q13,2*
G04 #@! TO.N,Net-(Q13-Pad2)*
X152400000Y-34925000D03*
G04 #@! TO.P,Q13,3*
G04 #@! TO.N,GND*
X151130000Y-34925000D03*
D13*
G04 #@! TO.P,Q13,1*
G04 #@! TO.N,Net-(Q13-Pad1)*
X153670000Y-34925000D03*
G04 #@! TD*
G04 #@! TO.P,Q15,1*
G04 #@! TO.N,Net-(D5-Pad1)*
X140335000Y-40640000D03*
D12*
G04 #@! TO.P,Q15,3*
G04 #@! TO.N,Net-(J5-Pad2)*
X142875000Y-40640000D03*
G04 #@! TO.P,Q15,2*
X141605000Y-40640000D03*
G04 #@! TD*
D13*
G04 #@! TO.P,Q4,1*
G04 #@! TO.N,Net-(Q4-Pad1)*
X110490000Y-46990000D03*
D12*
G04 #@! TO.P,Q4,3*
G04 #@! TO.N,GND*
X113030000Y-46990000D03*
G04 #@! TO.P,Q4,2*
G04 #@! TO.N,Net-(Q4-Pad2)*
X111760000Y-46990000D03*
G04 #@! TD*
D10*
G04 #@! TO.P,Q5,3*
G04 #@! TO.N,GND*
X116840000Y-52070000D03*
G04 #@! TO.P,Q5,2*
G04 #@! TO.N,Net-(J2-Pad1)*
X114300000Y-52070000D03*
D11*
G04 #@! TO.P,Q5,1*
G04 #@! TO.N,Net-(Q4-Pad1)*
X111760000Y-52070000D03*
G04 #@! TD*
D12*
G04 #@! TO.P,Q6,2*
G04 #@! TO.N,Net-(J2-Pad1)*
X122555000Y-51435000D03*
G04 #@! TO.P,Q6,3*
X121285000Y-51435000D03*
D13*
G04 #@! TO.P,Q6,1*
G04 #@! TO.N,Net-(D2-Pad1)*
X123825000Y-51435000D03*
G04 #@! TD*
G04 #@! TO.P,Q10,1*
G04 #@! TO.N,Net-(Q10-Pad1)*
X110490000Y-69850000D03*
D12*
G04 #@! TO.P,Q10,3*
G04 #@! TO.N,GND*
X113030000Y-69850000D03*
G04 #@! TO.P,Q10,2*
G04 #@! TO.N,Net-(Q10-Pad2)*
X111760000Y-69850000D03*
G04 #@! TD*
D10*
G04 #@! TO.P,Q11,3*
G04 #@! TO.N,GND*
X116840000Y-74930000D03*
G04 #@! TO.P,Q11,2*
G04 #@! TO.N,Net-(J4-Pad1)*
X114300000Y-74930000D03*
D11*
G04 #@! TO.P,Q11,1*
G04 #@! TO.N,Net-(Q10-Pad1)*
X111760000Y-74930000D03*
G04 #@! TD*
D12*
G04 #@! TO.P,Q12,2*
G04 #@! TO.N,Net-(J4-Pad1)*
X122555000Y-74295000D03*
G04 #@! TO.P,Q12,3*
X121285000Y-74295000D03*
D13*
G04 #@! TO.P,Q12,1*
G04 #@! TO.N,Net-(D4-Pad1)*
X123825000Y-74295000D03*
G04 #@! TD*
D12*
G04 #@! TO.P,Q16,2*
G04 #@! TO.N,Net-(Q16-Pad2)*
X152400000Y-46355000D03*
G04 #@! TO.P,Q16,3*
G04 #@! TO.N,GND*
X151130000Y-46355000D03*
D13*
G04 #@! TO.P,Q16,1*
G04 #@! TO.N,Net-(Q16-Pad1)*
X153670000Y-46355000D03*
G04 #@! TD*
D11*
G04 #@! TO.P,Q17,1*
G04 #@! TO.N,Net-(Q16-Pad1)*
X152400000Y-51435000D03*
D10*
G04 #@! TO.P,Q17,2*
G04 #@! TO.N,Net-(J6-Pad2)*
X149860000Y-51435000D03*
G04 #@! TO.P,Q17,3*
G04 #@! TO.N,GND*
X147320000Y-51435000D03*
G04 #@! TD*
D13*
G04 #@! TO.P,Q18,1*
G04 #@! TO.N,Net-(D6-Pad1)*
X140335000Y-52070000D03*
D12*
G04 #@! TO.P,Q18,3*
G04 #@! TO.N,Net-(J6-Pad2)*
X142875000Y-52070000D03*
G04 #@! TO.P,Q18,2*
X141605000Y-52070000D03*
G04 #@! TD*
G04 #@! TO.P,Q19,2*
G04 #@! TO.N,Net-(Q19-Pad2)*
X152400000Y-57785000D03*
G04 #@! TO.P,Q19,3*
G04 #@! TO.N,GND*
X151130000Y-57785000D03*
D13*
G04 #@! TO.P,Q19,1*
G04 #@! TO.N,Net-(Q19-Pad1)*
X153670000Y-57785000D03*
G04 #@! TD*
D11*
G04 #@! TO.P,Q20,1*
G04 #@! TO.N,Net-(Q19-Pad1)*
X152400000Y-62865000D03*
D10*
G04 #@! TO.P,Q20,2*
G04 #@! TO.N,Net-(J7-Pad2)*
X149860000Y-62865000D03*
G04 #@! TO.P,Q20,3*
G04 #@! TO.N,GND*
X147320000Y-62865000D03*
G04 #@! TD*
D13*
G04 #@! TO.P,Q21,1*
G04 #@! TO.N,Net-(D7-Pad1)*
X140335000Y-63500000D03*
D12*
G04 #@! TO.P,Q21,3*
G04 #@! TO.N,Net-(J7-Pad2)*
X142875000Y-63500000D03*
G04 #@! TO.P,Q21,2*
X141605000Y-63500000D03*
G04 #@! TD*
G04 #@! TO.P,Q22,2*
G04 #@! TO.N,Net-(Q22-Pad2)*
X152400000Y-69215000D03*
G04 #@! TO.P,Q22,3*
G04 #@! TO.N,GND*
X151130000Y-69215000D03*
D13*
G04 #@! TO.P,Q22,1*
G04 #@! TO.N,Net-(Q22-Pad1)*
X153670000Y-69215000D03*
G04 #@! TD*
D11*
G04 #@! TO.P,Q23,1*
G04 #@! TO.N,Net-(Q22-Pad1)*
X152400000Y-74295000D03*
D10*
G04 #@! TO.P,Q23,2*
G04 #@! TO.N,Net-(J8-Pad2)*
X149860000Y-74295000D03*
G04 #@! TO.P,Q23,3*
G04 #@! TO.N,GND*
X147320000Y-74295000D03*
G04 #@! TD*
D13*
G04 #@! TO.P,Q24,1*
G04 #@! TO.N,Net-(D8-Pad1)*
X140335000Y-74930000D03*
D12*
G04 #@! TO.P,Q24,3*
G04 #@! TO.N,Net-(J8-Pad2)*
X142875000Y-74930000D03*
G04 #@! TO.P,Q24,2*
X141605000Y-74930000D03*
G04 #@! TD*
D14*
G04 #@! TO.P,J1,1*
G04 #@! TO.N,Net-(J1-Pad1)*
X101600000Y-40640000D03*
D15*
G04 #@! TO.P,J1,2*
G04 #@! TO.N,+VExt*
X101600000Y-35560000D03*
G04 #@! TD*
G04 #@! TO.P,J2,2*
G04 #@! TO.N,+VExt*
X101600000Y-46990000D03*
D14*
G04 #@! TO.P,J2,1*
G04 #@! TO.N,Net-(J2-Pad1)*
X101600000Y-52070000D03*
G04 #@! TD*
D15*
G04 #@! TO.P,J3,2*
G04 #@! TO.N,+VExt*
X101600000Y-58420000D03*
D14*
G04 #@! TO.P,J3,1*
G04 #@! TO.N,Net-(J3-Pad1)*
X101600000Y-63500000D03*
G04 #@! TD*
D15*
G04 #@! TO.P,J4,2*
G04 #@! TO.N,+VExt*
X101600000Y-69850000D03*
D14*
G04 #@! TO.P,J4,1*
G04 #@! TO.N,Net-(J4-Pad1)*
X101600000Y-74930000D03*
G04 #@! TD*
D15*
G04 #@! TO.P,J5,2*
G04 #@! TO.N,Net-(J5-Pad2)*
X162560000Y-40640000D03*
D14*
G04 #@! TO.P,J5,1*
G04 #@! TO.N,+VExt*
X162560000Y-35560000D03*
G04 #@! TD*
G04 #@! TO.P,J6,1*
G04 #@! TO.N,+VExt*
X162560000Y-46990000D03*
D15*
G04 #@! TO.P,J6,2*
G04 #@! TO.N,Net-(J6-Pad2)*
X162560000Y-52070000D03*
G04 #@! TD*
D14*
G04 #@! TO.P,J7,1*
G04 #@! TO.N,+VExt*
X162560000Y-58420000D03*
D15*
G04 #@! TO.P,J7,2*
G04 #@! TO.N,Net-(J7-Pad2)*
X162560000Y-63500000D03*
G04 #@! TD*
D14*
G04 #@! TO.P,J8,1*
G04 #@! TO.N,+VExt*
X162560000Y-69850000D03*
D15*
G04 #@! TO.P,J8,2*
G04 #@! TO.N,Net-(J8-Pad2)*
X162560000Y-74930000D03*
G04 #@! TD*
D14*
G04 #@! TO.P,J11,1*
G04 #@! TO.N,GND*
X129540000Y-36195000D03*
D15*
G04 #@! TO.P,J11,2*
G04 #@! TO.N,+VExt*
X134620000Y-36195000D03*
G04 #@! TD*
D16*
G04 #@! TO.P,D1,2*
G04 #@! TO.N,+VExt*
X122555000Y-33655000D03*
D11*
G04 #@! TO.P,D1,1*
G04 #@! TO.N,Net-(D1-Pad1)*
X122555000Y-36195000D03*
G04 #@! TD*
G04 #@! TO.P,D2,1*
G04 #@! TO.N,Net-(D2-Pad1)*
X122555000Y-47625000D03*
D16*
G04 #@! TO.P,D2,2*
G04 #@! TO.N,+VExt*
X122555000Y-45085000D03*
G04 #@! TD*
G04 #@! TO.P,D3,2*
G04 #@! TO.N,+VExt*
X122555000Y-56515000D03*
D11*
G04 #@! TO.P,D3,1*
G04 #@! TO.N,Net-(D3-Pad1)*
X122555000Y-59055000D03*
G04 #@! TD*
G04 #@! TO.P,D4,1*
G04 #@! TO.N,Net-(D4-Pad1)*
X122555000Y-70485000D03*
D16*
G04 #@! TO.P,D4,2*
G04 #@! TO.N,+VExt*
X122555000Y-67945000D03*
G04 #@! TD*
G04 #@! TO.P,D5,2*
G04 #@! TO.N,+VExt*
X141605000Y-33655000D03*
D11*
G04 #@! TO.P,D5,1*
G04 #@! TO.N,Net-(D5-Pad1)*
X141605000Y-36195000D03*
G04 #@! TD*
G04 #@! TO.P,D6,1*
G04 #@! TO.N,Net-(D6-Pad1)*
X141605000Y-47625000D03*
D16*
G04 #@! TO.P,D6,2*
G04 #@! TO.N,+VExt*
X141605000Y-45085000D03*
G04 #@! TD*
G04 #@! TO.P,D7,2*
G04 #@! TO.N,+VExt*
X141605000Y-56515000D03*
D11*
G04 #@! TO.P,D7,1*
G04 #@! TO.N,Net-(D7-Pad1)*
X141605000Y-59055000D03*
G04 #@! TD*
G04 #@! TO.P,D8,1*
G04 #@! TO.N,Net-(D8-Pad1)*
X141605000Y-70485000D03*
D16*
G04 #@! TO.P,D8,2*
G04 #@! TO.N,+VExt*
X141605000Y-67945000D03*
G04 #@! TD*
D17*
G04 #@! TO.P,J9,1*
G04 #@! TO.N,Net-(J9-Pad1)*
X121920000Y-80010000D03*
D18*
G04 #@! TO.P,J9,2*
G04 #@! TO.N,Net-(J9-Pad2)*
X124460000Y-80010000D03*
G04 #@! TO.P,J9,3*
G04 #@! TO.N,Net-(J9-Pad3)*
X127000000Y-80010000D03*
G04 #@! TO.P,J9,4*
G04 #@! TO.N,Net-(J9-Pad4)*
X129540000Y-80010000D03*
G04 #@! TO.P,J9,5*
G04 #@! TO.N,Net-(J9-Pad5)*
X132080000Y-80010000D03*
G04 #@! TO.P,J9,6*
G04 #@! TO.N,Net-(J9-Pad6)*
X134620000Y-80010000D03*
G04 #@! TO.P,J9,7*
G04 #@! TO.N,Net-(J9-Pad7)*
X137160000Y-80010000D03*
G04 #@! TO.P,J9,8*
G04 #@! TO.N,Net-(J9-Pad8)*
X139700000Y-80010000D03*
G04 #@! TD*
G04 #@! TO.P,J10,8*
G04 #@! TO.N,GND*
X139700000Y-82550000D03*
G04 #@! TO.P,J10,7*
X137160000Y-82550000D03*
G04 #@! TO.P,J10,6*
X134620000Y-82550000D03*
G04 #@! TO.P,J10,5*
X132080000Y-82550000D03*
G04 #@! TO.P,J10,4*
X129540000Y-82550000D03*
G04 #@! TO.P,J10,3*
X127000000Y-82550000D03*
G04 #@! TO.P,J10,2*
X124460000Y-82550000D03*
D17*
G04 #@! TO.P,J10,1*
X121920000Y-82550000D03*
G04 #@! TD*
D19*
G04 #@! TO.P,R1,2*
G04 #@! TO.N,+VExt*
X118745000Y-33655000D03*
D20*
G04 #@! TO.P,R1,1*
G04 #@! TO.N,Net-(J9-Pad1)*
X118745000Y-36195000D03*
G04 #@! TD*
G04 #@! TO.P,R2,1*
G04 #@! TO.N,Net-(Q1-Pad2)*
X116205000Y-33655000D03*
D19*
G04 #@! TO.P,R2,2*
G04 #@! TO.N,Net-(J9-Pad1)*
X116205000Y-36195000D03*
G04 #@! TD*
G04 #@! TO.P,R3,2*
G04 #@! TO.N,+VExt*
X107315000Y-33655000D03*
D20*
G04 #@! TO.P,R3,1*
G04 #@! TO.N,Net-(Q1-Pad1)*
X107315000Y-36195000D03*
G04 #@! TD*
G04 #@! TO.P,R4,1*
G04 #@! TO.N,Net-(J9-Pad2)*
X118745000Y-47625000D03*
D19*
G04 #@! TO.P,R4,2*
G04 #@! TO.N,+VExt*
X118745000Y-45085000D03*
G04 #@! TD*
D20*
G04 #@! TO.P,R5,1*
G04 #@! TO.N,Net-(Q4-Pad2)*
X116205000Y-45085000D03*
D19*
G04 #@! TO.P,R5,2*
G04 #@! TO.N,Net-(J9-Pad2)*
X116205000Y-47625000D03*
G04 #@! TD*
G04 #@! TO.P,R6,2*
G04 #@! TO.N,+VExt*
X107315000Y-45085000D03*
D20*
G04 #@! TO.P,R6,1*
G04 #@! TO.N,Net-(Q4-Pad1)*
X107315000Y-47625000D03*
G04 #@! TD*
G04 #@! TO.P,R7,1*
G04 #@! TO.N,Net-(J9-Pad3)*
X118745000Y-59055000D03*
D19*
G04 #@! TO.P,R7,2*
G04 #@! TO.N,+VExt*
X118745000Y-56515000D03*
G04 #@! TD*
D20*
G04 #@! TO.P,R8,1*
G04 #@! TO.N,Net-(Q7-Pad2)*
X116205000Y-56515000D03*
D19*
G04 #@! TO.P,R8,2*
G04 #@! TO.N,Net-(J9-Pad3)*
X116205000Y-59055000D03*
G04 #@! TD*
G04 #@! TO.P,R9,2*
G04 #@! TO.N,+VExt*
X107315000Y-56515000D03*
D20*
G04 #@! TO.P,R9,1*
G04 #@! TO.N,Net-(Q7-Pad1)*
X107315000Y-59055000D03*
G04 #@! TD*
D19*
G04 #@! TO.P,R11,2*
G04 #@! TO.N,Net-(J9-Pad4)*
X116205000Y-70485000D03*
D20*
G04 #@! TO.P,R11,1*
G04 #@! TO.N,Net-(Q10-Pad2)*
X116205000Y-67945000D03*
G04 #@! TD*
G04 #@! TO.P,R12,1*
G04 #@! TO.N,Net-(Q10-Pad1)*
X107315000Y-70485000D03*
D19*
G04 #@! TO.P,R12,2*
G04 #@! TO.N,+VExt*
X107315000Y-67945000D03*
G04 #@! TD*
G04 #@! TO.P,R13,2*
G04 #@! TO.N,+VExt*
X145415000Y-33655000D03*
D20*
G04 #@! TO.P,R13,1*
G04 #@! TO.N,Net-(J9-Pad5)*
X145415000Y-36195000D03*
G04 #@! TD*
G04 #@! TO.P,R14,1*
G04 #@! TO.N,Net-(Q13-Pad2)*
X147955000Y-33655000D03*
D19*
G04 #@! TO.P,R14,2*
G04 #@! TO.N,Net-(J9-Pad5)*
X147955000Y-36195000D03*
G04 #@! TD*
G04 #@! TO.P,R15,2*
G04 #@! TO.N,+VExt*
X156845000Y-33655000D03*
D20*
G04 #@! TO.P,R15,1*
G04 #@! TO.N,Net-(Q13-Pad1)*
X156845000Y-36195000D03*
G04 #@! TD*
D19*
G04 #@! TO.P,R16,2*
G04 #@! TO.N,+VExt*
X145415000Y-45085000D03*
D20*
G04 #@! TO.P,R16,1*
G04 #@! TO.N,Net-(J9-Pad6)*
X145415000Y-47625000D03*
G04 #@! TD*
G04 #@! TO.P,R17,1*
G04 #@! TO.N,Net-(Q16-Pad2)*
X147955000Y-45085000D03*
D19*
G04 #@! TO.P,R17,2*
G04 #@! TO.N,Net-(J9-Pad6)*
X147955000Y-47625000D03*
G04 #@! TD*
G04 #@! TO.P,R18,2*
G04 #@! TO.N,+VExt*
X156845000Y-45085000D03*
D20*
G04 #@! TO.P,R18,1*
G04 #@! TO.N,Net-(Q16-Pad1)*
X156845000Y-47625000D03*
G04 #@! TD*
G04 #@! TO.P,R19,1*
G04 #@! TO.N,Net-(J9-Pad7)*
X145415000Y-59055000D03*
D19*
G04 #@! TO.P,R19,2*
G04 #@! TO.N,+VExt*
X145415000Y-56515000D03*
G04 #@! TD*
G04 #@! TO.P,R20,2*
G04 #@! TO.N,Net-(J9-Pad7)*
X147955000Y-59055000D03*
D20*
G04 #@! TO.P,R20,1*
G04 #@! TO.N,Net-(Q19-Pad2)*
X147955000Y-56515000D03*
G04 #@! TD*
D19*
G04 #@! TO.P,R21,2*
G04 #@! TO.N,+VExt*
X156845000Y-56515000D03*
D20*
G04 #@! TO.P,R21,1*
G04 #@! TO.N,Net-(Q19-Pad1)*
X156845000Y-59055000D03*
G04 #@! TD*
G04 #@! TO.P,R22,1*
G04 #@! TO.N,Net-(J9-Pad8)*
X145415000Y-70485000D03*
D19*
G04 #@! TO.P,R22,2*
G04 #@! TO.N,+VExt*
X145415000Y-67945000D03*
G04 #@! TD*
D20*
G04 #@! TO.P,R23,1*
G04 #@! TO.N,Net-(Q22-Pad2)*
X147955000Y-67945000D03*
D19*
G04 #@! TO.P,R23,2*
G04 #@! TO.N,Net-(J9-Pad8)*
X147955000Y-70485000D03*
G04 #@! TD*
D20*
G04 #@! TO.P,R24,1*
G04 #@! TO.N,Net-(Q22-Pad1)*
X156845000Y-70485000D03*
D19*
G04 #@! TO.P,R24,2*
G04 #@! TO.N,+VExt*
X156845000Y-67945000D03*
G04 #@! TD*
D20*
G04 #@! TO.P,R10,1*
G04 #@! TO.N,Net-(J9-Pad4)*
X118745000Y-70485000D03*
D19*
G04 #@! TO.P,R10,2*
G04 #@! TO.N,+VExt*
X118745000Y-67945000D03*
G04 #@! TD*
D21*
G04 #@! TO.N,Net-(J9-Pad1)*
X126365000Y-38735000D03*
G04 #@! TO.N,Net-(J9-Pad2)*
X127635000Y-48895000D03*
G04 #@! TO.N,Net-(J9-Pad3)*
X128905000Y-60325000D03*
G04 #@! TO.N,Net-(J9-Pad4)*
X130175000Y-71755000D03*
G04 #@! TO.N,Net-(J9-Pad5)*
X137795000Y-38100000D03*
G04 #@! TO.N,Net-(J9-Pad6)*
X134620000Y-48895000D03*
G04 #@! TO.N,Net-(J9-Pad7)*
X134620000Y-60325000D03*
G04 #@! TO.N,Net-(J9-Pad8)*
X135890000Y-71755000D03*
G04 #@! TD*
D22*
G04 #@! TO.N,+VExt*
X116840000Y-43180000D02*
X118745000Y-45085000D01*
X107315000Y-45085000D02*
X109220000Y-43180000D01*
X109220000Y-43180000D02*
X116840000Y-43180000D01*
X116840000Y-54610000D02*
X118745000Y-56515000D01*
X107315000Y-56515000D02*
X109220000Y-54610000D01*
X109220000Y-54610000D02*
X116840000Y-54610000D01*
X116840000Y-66040000D02*
X118745000Y-67945000D01*
X107315000Y-67945000D02*
X109220000Y-66040000D01*
X109220000Y-66040000D02*
X116840000Y-66040000D01*
X147320000Y-43180000D02*
X145415000Y-45085000D01*
X156845000Y-45085000D02*
X154940000Y-43180000D01*
X154940000Y-43180000D02*
X147320000Y-43180000D01*
X147320000Y-54610000D02*
X145415000Y-56515000D01*
X156845000Y-56515000D02*
X154940000Y-54610000D01*
X154940000Y-54610000D02*
X147320000Y-54610000D01*
X147320000Y-66040000D02*
X145415000Y-67945000D01*
X156845000Y-67945000D02*
X154940000Y-66040000D01*
X154940000Y-66040000D02*
X147320000Y-66040000D01*
D23*
G04 #@! TO.N,Net-(J9-Pad1)*
X125730000Y-38100000D02*
X126365000Y-38735000D01*
X118745000Y-36195000D02*
X120650000Y-38100000D01*
X120650000Y-38100000D02*
X125730000Y-38100000D01*
G04 #@! TO.N,Net-(J9-Pad2)*
X120650000Y-49530000D02*
X118745000Y-47625000D01*
X123825000Y-49530000D02*
X120650000Y-49530000D01*
X127635000Y-48895000D02*
X124460000Y-48895000D01*
X124460000Y-48895000D02*
X123825000Y-49530000D01*
G04 #@! TO.N,Net-(J9-Pad3)*
X118745000Y-59055000D02*
X120650000Y-60960000D01*
X125730000Y-60325000D02*
X125095000Y-60960000D01*
X128905000Y-60325000D02*
X125730000Y-60325000D01*
X120650000Y-60960000D02*
X125095000Y-60960000D01*
G04 #@! TO.N,Net-(J9-Pad4)*
X118745000Y-70485000D02*
X120650000Y-72390000D01*
X120650000Y-72390000D02*
X125095000Y-72390000D01*
X125095000Y-72390000D02*
X125730000Y-71755000D01*
X125730000Y-71755000D02*
X130175000Y-71755000D01*
G04 #@! TO.N,Net-(J9-Pad5)*
X145415000Y-36195000D02*
X143510000Y-38100000D01*
X143510000Y-38100000D02*
X137795000Y-38100000D01*
G04 #@! TO.N,Net-(J9-Pad6)*
X135255000Y-49530000D02*
X134620000Y-48895000D01*
X145415000Y-47625000D02*
X143510000Y-49530000D01*
X143510000Y-49530000D02*
X135255000Y-49530000D01*
G04 #@! TO.N,Net-(J9-Pad7)*
X135255000Y-60960000D02*
X134620000Y-60325000D01*
X145415000Y-59055000D02*
X143510000Y-60960000D01*
X143510000Y-60960000D02*
X135255000Y-60960000D01*
G04 #@! TO.N,Net-(J9-Pad8)*
X145415000Y-70485000D02*
X143510000Y-72390000D01*
X136525000Y-72390000D02*
X135890000Y-71755000D01*
X143510000Y-72390000D02*
X136525000Y-72390000D01*
G04 #@! TD*
D24*
G04 #@! TO.N,GND*
G36*
X173863000Y-84963000D02*
X90297000Y-84963000D01*
X90297000Y-80835431D01*
X91745000Y-80835431D01*
X91745000Y-81724569D01*
X92085259Y-82546026D01*
X92713974Y-83174741D01*
X93535431Y-83515000D01*
X94424569Y-83515000D01*
X95246026Y-83174741D01*
X95585017Y-82835750D01*
X120535000Y-82835750D01*
X120535000Y-83576309D01*
X120631673Y-83809698D01*
X120810301Y-83988327D01*
X121043690Y-84085000D01*
X121634250Y-84085000D01*
X121793000Y-83926250D01*
X121793000Y-82677000D01*
X122047000Y-82677000D01*
X122047000Y-83926250D01*
X122205750Y-84085000D01*
X122796310Y-84085000D01*
X123029699Y-83988327D01*
X123208327Y-83809698D01*
X123305000Y-83576309D01*
X123305000Y-83448019D01*
X123626692Y-83807820D01*
X124118815Y-84042318D01*
X124333000Y-83919656D01*
X124333000Y-82677000D01*
X124587000Y-82677000D01*
X124587000Y-83919656D01*
X124801185Y-84042318D01*
X125293308Y-83807820D01*
X125653821Y-83404599D01*
X125730000Y-83187057D01*
X125806179Y-83404599D01*
X126166692Y-83807820D01*
X126658815Y-84042318D01*
X126873000Y-83919656D01*
X126873000Y-82677000D01*
X127127000Y-82677000D01*
X127127000Y-83919656D01*
X127341185Y-84042318D01*
X127833308Y-83807820D01*
X128193821Y-83404599D01*
X128270000Y-83187057D01*
X128346179Y-83404599D01*
X128706692Y-83807820D01*
X129198815Y-84042318D01*
X129413000Y-83919656D01*
X129413000Y-82677000D01*
X129667000Y-82677000D01*
X129667000Y-83919656D01*
X129881185Y-84042318D01*
X130373308Y-83807820D01*
X130733821Y-83404599D01*
X130810000Y-83187057D01*
X130886179Y-83404599D01*
X131246692Y-83807820D01*
X131738815Y-84042318D01*
X131953000Y-83919656D01*
X131953000Y-82677000D01*
X132207000Y-82677000D01*
X132207000Y-83919656D01*
X132421185Y-84042318D01*
X132913308Y-83807820D01*
X133273821Y-83404599D01*
X133350000Y-83187057D01*
X133426179Y-83404599D01*
X133786692Y-83807820D01*
X134278815Y-84042318D01*
X134493000Y-83919656D01*
X134493000Y-82677000D01*
X134747000Y-82677000D01*
X134747000Y-83919656D01*
X134961185Y-84042318D01*
X135453308Y-83807820D01*
X135813821Y-83404599D01*
X135890000Y-83187057D01*
X135966179Y-83404599D01*
X136326692Y-83807820D01*
X136818815Y-84042318D01*
X137033000Y-83919656D01*
X137033000Y-82677000D01*
X137287000Y-82677000D01*
X137287000Y-83919656D01*
X137501185Y-84042318D01*
X137993308Y-83807820D01*
X138353821Y-83404599D01*
X138430000Y-83187057D01*
X138506179Y-83404599D01*
X138866692Y-83807820D01*
X139358815Y-84042318D01*
X139573000Y-83919656D01*
X139573000Y-82677000D01*
X139827000Y-82677000D01*
X139827000Y-83919656D01*
X140041185Y-84042318D01*
X140533308Y-83807820D01*
X140893821Y-83404599D01*
X141072585Y-82894109D01*
X140927302Y-82677000D01*
X139827000Y-82677000D01*
X139573000Y-82677000D01*
X138472698Y-82677000D01*
X138430000Y-82740807D01*
X138387302Y-82677000D01*
X137287000Y-82677000D01*
X137033000Y-82677000D01*
X135932698Y-82677000D01*
X135890000Y-82740807D01*
X135847302Y-82677000D01*
X134747000Y-82677000D01*
X134493000Y-82677000D01*
X133392698Y-82677000D01*
X133350000Y-82740807D01*
X133307302Y-82677000D01*
X132207000Y-82677000D01*
X131953000Y-82677000D01*
X130852698Y-82677000D01*
X130810000Y-82740807D01*
X130767302Y-82677000D01*
X129667000Y-82677000D01*
X129413000Y-82677000D01*
X128312698Y-82677000D01*
X128270000Y-82740807D01*
X128227302Y-82677000D01*
X127127000Y-82677000D01*
X126873000Y-82677000D01*
X125772698Y-82677000D01*
X125730000Y-82740807D01*
X125687302Y-82677000D01*
X124587000Y-82677000D01*
X124333000Y-82677000D01*
X123232698Y-82677000D01*
X123198041Y-82728791D01*
X123146250Y-82677000D01*
X122047000Y-82677000D01*
X121793000Y-82677000D01*
X120693750Y-82677000D01*
X120535000Y-82835750D01*
X95585017Y-82835750D01*
X95874741Y-82546026D01*
X96215000Y-81724569D01*
X96215000Y-80835431D01*
X95874741Y-80013974D01*
X95246026Y-79385259D01*
X94581493Y-79110000D01*
X120522560Y-79110000D01*
X120522560Y-80910000D01*
X120571843Y-81157765D01*
X120648895Y-81273080D01*
X120631673Y-81290302D01*
X120535000Y-81523691D01*
X120535000Y-82264250D01*
X120693750Y-82423000D01*
X121793000Y-82423000D01*
X121793000Y-82403000D01*
X122047000Y-82403000D01*
X122047000Y-82423000D01*
X123146250Y-82423000D01*
X123198041Y-82371209D01*
X123232698Y-82423000D01*
X124333000Y-82423000D01*
X124333000Y-82403000D01*
X124587000Y-82403000D01*
X124587000Y-82423000D01*
X125687302Y-82423000D01*
X125730000Y-82359193D01*
X125772698Y-82423000D01*
X126873000Y-82423000D01*
X126873000Y-82403000D01*
X127127000Y-82403000D01*
X127127000Y-82423000D01*
X128227302Y-82423000D01*
X128270000Y-82359193D01*
X128312698Y-82423000D01*
X129413000Y-82423000D01*
X129413000Y-82403000D01*
X129667000Y-82403000D01*
X129667000Y-82423000D01*
X130767302Y-82423000D01*
X130810000Y-82359193D01*
X130852698Y-82423000D01*
X131953000Y-82423000D01*
X131953000Y-82403000D01*
X132207000Y-82403000D01*
X132207000Y-82423000D01*
X133307302Y-82423000D01*
X133350000Y-82359193D01*
X133392698Y-82423000D01*
X134493000Y-82423000D01*
X134493000Y-82403000D01*
X134747000Y-82403000D01*
X134747000Y-82423000D01*
X135847302Y-82423000D01*
X135890000Y-82359193D01*
X135932698Y-82423000D01*
X137033000Y-82423000D01*
X137033000Y-82403000D01*
X137287000Y-82403000D01*
X137287000Y-82423000D01*
X138387302Y-82423000D01*
X138430000Y-82359193D01*
X138472698Y-82423000D01*
X139573000Y-82423000D01*
X139573000Y-82403000D01*
X139827000Y-82403000D01*
X139827000Y-82423000D01*
X140927302Y-82423000D01*
X141072585Y-82205891D01*
X140893821Y-81695401D01*
X140533308Y-81292180D01*
X140512993Y-81282500D01*
X140698529Y-81158529D01*
X140914415Y-80835431D01*
X167945000Y-80835431D01*
X167945000Y-81724569D01*
X168285259Y-82546026D01*
X168913974Y-83174741D01*
X169735431Y-83515000D01*
X170624569Y-83515000D01*
X171446026Y-83174741D01*
X172074741Y-82546026D01*
X172415000Y-81724569D01*
X172415000Y-80835431D01*
X172074741Y-80013974D01*
X171446026Y-79385259D01*
X170624569Y-79045000D01*
X169735431Y-79045000D01*
X168913974Y-79385259D01*
X168285259Y-80013974D01*
X167945000Y-80835431D01*
X140914415Y-80835431D01*
X141004641Y-80700399D01*
X141085000Y-80296406D01*
X141085000Y-79723593D01*
X141004641Y-79319600D01*
X140698528Y-78861471D01*
X140240399Y-78555359D01*
X139700000Y-78447867D01*
X139159600Y-78555359D01*
X138701471Y-78861472D01*
X138430000Y-79267757D01*
X138158528Y-78861471D01*
X137700399Y-78555359D01*
X137160000Y-78447867D01*
X136619600Y-78555359D01*
X136161471Y-78861472D01*
X135890000Y-79267757D01*
X135618528Y-78861471D01*
X135160399Y-78555359D01*
X134620000Y-78447867D01*
X134079600Y-78555359D01*
X133621471Y-78861472D01*
X133350000Y-79267757D01*
X133078528Y-78861471D01*
X132620399Y-78555359D01*
X132080000Y-78447867D01*
X131539600Y-78555359D01*
X131081471Y-78861472D01*
X130810000Y-79267757D01*
X130538528Y-78861471D01*
X130080399Y-78555359D01*
X129540000Y-78447867D01*
X128999600Y-78555359D01*
X128541471Y-78861472D01*
X128270000Y-79267757D01*
X127998528Y-78861471D01*
X127540399Y-78555359D01*
X127000000Y-78447867D01*
X126459600Y-78555359D01*
X126001471Y-78861472D01*
X125730000Y-79267757D01*
X125458528Y-78861471D01*
X125000399Y-78555359D01*
X124460000Y-78447867D01*
X123919600Y-78555359D01*
X123461471Y-78861472D01*
X123312386Y-79084593D01*
X123268157Y-78862235D01*
X123127809Y-78652191D01*
X122917765Y-78511843D01*
X122670000Y-78462560D01*
X121170000Y-78462560D01*
X120922235Y-78511843D01*
X120712191Y-78652191D01*
X120571843Y-78862235D01*
X120522560Y-79110000D01*
X94581493Y-79110000D01*
X94424569Y-79045000D01*
X93535431Y-79045000D01*
X92713974Y-79385259D01*
X92085259Y-80013974D01*
X91745000Y-80835431D01*
X90297000Y-80835431D01*
X90297000Y-73430000D01*
X99452560Y-73430000D01*
X99452560Y-76430000D01*
X99501843Y-76677765D01*
X99642191Y-76887809D01*
X99852235Y-77028157D01*
X100100000Y-77077440D01*
X103100000Y-77077440D01*
X103347765Y-77028157D01*
X103557809Y-76887809D01*
X103698157Y-76677765D01*
X103747440Y-76430000D01*
X103747440Y-74030000D01*
X110212560Y-74030000D01*
X110212560Y-75830000D01*
X110261843Y-76077765D01*
X110402191Y-76287809D01*
X110612235Y-76428157D01*
X110860000Y-76477440D01*
X112660000Y-76477440D01*
X112907765Y-76428157D01*
X113117809Y-76287809D01*
X113257129Y-76079304D01*
X113701073Y-76375938D01*
X114148818Y-76465000D01*
X114451182Y-76465000D01*
X114898927Y-76375938D01*
X115406673Y-76036673D01*
X115577624Y-75780826D01*
X115932424Y-76167966D01*
X116475258Y-76421046D01*
X116713000Y-76300997D01*
X116713000Y-75057000D01*
X116967000Y-75057000D01*
X116967000Y-76300997D01*
X117204742Y-76421046D01*
X117747576Y-76167966D01*
X118152240Y-75726417D01*
X118331036Y-75294740D01*
X118210378Y-75057000D01*
X116967000Y-75057000D01*
X116713000Y-75057000D01*
X116693000Y-75057000D01*
X116693000Y-74803000D01*
X116713000Y-74803000D01*
X116713000Y-73559003D01*
X116967000Y-73559003D01*
X116967000Y-74803000D01*
X118210378Y-74803000D01*
X118331036Y-74565260D01*
X118152240Y-74133583D01*
X117747576Y-73692034D01*
X117204742Y-73438954D01*
X116967000Y-73559003D01*
X116713000Y-73559003D01*
X116475258Y-73438954D01*
X115932424Y-73692034D01*
X115577624Y-74079174D01*
X115406673Y-73823327D01*
X114898927Y-73484062D01*
X114451182Y-73395000D01*
X114148818Y-73395000D01*
X113701073Y-73484062D01*
X113257129Y-73780696D01*
X113117809Y-73572191D01*
X112907765Y-73431843D01*
X112660000Y-73382560D01*
X110860000Y-73382560D01*
X110612235Y-73431843D01*
X110402191Y-73572191D01*
X110261843Y-73782235D01*
X110212560Y-74030000D01*
X103747440Y-74030000D01*
X103747440Y-73430000D01*
X103698157Y-73182235D01*
X103557809Y-72972191D01*
X103347765Y-72831843D01*
X103100000Y-72782560D01*
X100100000Y-72782560D01*
X99852235Y-72831843D01*
X99642191Y-72972191D01*
X99501843Y-73182235D01*
X99452560Y-73430000D01*
X90297000Y-73430000D01*
X90297000Y-69425322D01*
X99465000Y-69425322D01*
X99465000Y-70274678D01*
X99790034Y-71059380D01*
X100390620Y-71659966D01*
X101175322Y-71985000D01*
X102024678Y-71985000D01*
X102809380Y-71659966D01*
X103409966Y-71059380D01*
X103735000Y-70274678D01*
X103735000Y-69425322D01*
X103409966Y-68640620D01*
X102809380Y-68040034D01*
X102579948Y-67945000D01*
X105953846Y-67945000D01*
X106057458Y-68465891D01*
X106352519Y-68907481D01*
X106794109Y-69202542D01*
X106880918Y-69219809D01*
X106558783Y-69353242D01*
X106183242Y-69728783D01*
X105980000Y-70219452D01*
X105980000Y-70750548D01*
X106183242Y-71241217D01*
X106558783Y-71616758D01*
X107049452Y-71820000D01*
X107580548Y-71820000D01*
X108071217Y-71616758D01*
X108446758Y-71241217D01*
X108650000Y-70750548D01*
X108650000Y-70219452D01*
X108446758Y-69728783D01*
X108071217Y-69353242D01*
X107749082Y-69219809D01*
X107835891Y-69202542D01*
X107989355Y-69100000D01*
X109392560Y-69100000D01*
X109392560Y-70600000D01*
X109441843Y-70847765D01*
X109582191Y-71057809D01*
X109792235Y-71198157D01*
X110040000Y-71247440D01*
X110940000Y-71247440D01*
X111187765Y-71198157D01*
X111281747Y-71135360D01*
X111336654Y-71172047D01*
X111760000Y-71256256D01*
X112183345Y-71172047D01*
X112397492Y-71028959D01*
X112735999Y-71194408D01*
X112903000Y-71067502D01*
X112903000Y-69977000D01*
X113157000Y-69977000D01*
X113157000Y-71067502D01*
X113324001Y-71194408D01*
X113707408Y-71007013D01*
X113983808Y-70682544D01*
X114115000Y-70277000D01*
X114115000Y-69977000D01*
X113157000Y-69977000D01*
X112903000Y-69977000D01*
X112883000Y-69977000D01*
X112883000Y-69723000D01*
X112903000Y-69723000D01*
X112903000Y-68632498D01*
X113157000Y-68632498D01*
X113157000Y-69723000D01*
X114115000Y-69723000D01*
X114115000Y-69423000D01*
X113983808Y-69017456D01*
X113707408Y-68692987D01*
X113324001Y-68505592D01*
X113157000Y-68632498D01*
X112903000Y-68632498D01*
X112735999Y-68505592D01*
X112397493Y-68671041D01*
X112183346Y-68527953D01*
X111760000Y-68443744D01*
X111336655Y-68527953D01*
X111281748Y-68564641D01*
X111187765Y-68501843D01*
X110940000Y-68452560D01*
X110040000Y-68452560D01*
X109792235Y-68501843D01*
X109582191Y-68642191D01*
X109441843Y-68852235D01*
X109392560Y-69100000D01*
X107989355Y-69100000D01*
X108277481Y-68907481D01*
X108572542Y-68465891D01*
X108615573Y-68249558D01*
X109690132Y-67175000D01*
X115087025Y-67175000D01*
X115073242Y-67188783D01*
X114870000Y-67679452D01*
X114870000Y-68210548D01*
X115073242Y-68701217D01*
X115448783Y-69076758D01*
X115770918Y-69210191D01*
X115684109Y-69227458D01*
X115242519Y-69522519D01*
X114947458Y-69964109D01*
X114843846Y-70485000D01*
X114947458Y-71005891D01*
X115242519Y-71447481D01*
X115684109Y-71742542D01*
X116073515Y-71820000D01*
X116336485Y-71820000D01*
X116725891Y-71742542D01*
X117167481Y-71447481D01*
X117462542Y-71005891D01*
X117479809Y-70919082D01*
X117613242Y-71241217D01*
X117988783Y-71616758D01*
X118479452Y-71820000D01*
X118962772Y-71820000D01*
X120036366Y-72893594D01*
X120080442Y-72959558D01*
X120341757Y-73134164D01*
X120556467Y-73176872D01*
X120502759Y-73212759D01*
X120262953Y-73571655D01*
X120200000Y-73888140D01*
X120200000Y-74701861D01*
X120262954Y-75018346D01*
X120502760Y-75377241D01*
X120861655Y-75617047D01*
X121285000Y-75701256D01*
X121708346Y-75617047D01*
X121920001Y-75475624D01*
X122131655Y-75617047D01*
X122555000Y-75701256D01*
X122978346Y-75617047D01*
X123033253Y-75580360D01*
X123127235Y-75643157D01*
X123375000Y-75692440D01*
X124275000Y-75692440D01*
X124522765Y-75643157D01*
X124732809Y-75502809D01*
X124873157Y-75292765D01*
X124922440Y-75045000D01*
X124922440Y-74180000D01*
X139237560Y-74180000D01*
X139237560Y-75680000D01*
X139286843Y-75927765D01*
X139427191Y-76137809D01*
X139637235Y-76278157D01*
X139885000Y-76327440D01*
X140785000Y-76327440D01*
X141032765Y-76278157D01*
X141126747Y-76215360D01*
X141181654Y-76252047D01*
X141605000Y-76336256D01*
X142028345Y-76252047D01*
X142240000Y-76110624D01*
X142451654Y-76252047D01*
X142875000Y-76336256D01*
X143298345Y-76252047D01*
X143657241Y-76012241D01*
X143897047Y-75653346D01*
X143960000Y-75336861D01*
X143960000Y-74659740D01*
X145828964Y-74659740D01*
X146007760Y-75091417D01*
X146412424Y-75532966D01*
X146955258Y-75786046D01*
X147193000Y-75665997D01*
X147193000Y-74422000D01*
X145949622Y-74422000D01*
X145828964Y-74659740D01*
X143960000Y-74659740D01*
X143960000Y-74523140D01*
X143897047Y-74206655D01*
X143712367Y-73930260D01*
X145828964Y-73930260D01*
X145949622Y-74168000D01*
X147193000Y-74168000D01*
X147193000Y-72924003D01*
X147447000Y-72924003D01*
X147447000Y-74168000D01*
X147467000Y-74168000D01*
X147467000Y-74422000D01*
X147447000Y-74422000D01*
X147447000Y-75665997D01*
X147684742Y-75786046D01*
X148227576Y-75532966D01*
X148582376Y-75145826D01*
X148753327Y-75401673D01*
X149261073Y-75740938D01*
X149708818Y-75830000D01*
X150011182Y-75830000D01*
X150458927Y-75740938D01*
X150902871Y-75444304D01*
X151042191Y-75652809D01*
X151252235Y-75793157D01*
X151500000Y-75842440D01*
X153300000Y-75842440D01*
X153547765Y-75793157D01*
X153757809Y-75652809D01*
X153898157Y-75442765D01*
X153947440Y-75195000D01*
X153947440Y-74505322D01*
X160425000Y-74505322D01*
X160425000Y-75354678D01*
X160750034Y-76139380D01*
X161350620Y-76739966D01*
X162135322Y-77065000D01*
X162984678Y-77065000D01*
X163769380Y-76739966D01*
X164369966Y-76139380D01*
X164695000Y-75354678D01*
X164695000Y-74505322D01*
X164369966Y-73720620D01*
X163769380Y-73120034D01*
X162984678Y-72795000D01*
X162135322Y-72795000D01*
X161350620Y-73120034D01*
X160750034Y-73720620D01*
X160425000Y-74505322D01*
X153947440Y-74505322D01*
X153947440Y-73395000D01*
X153898157Y-73147235D01*
X153757809Y-72937191D01*
X153547765Y-72796843D01*
X153300000Y-72747560D01*
X151500000Y-72747560D01*
X151252235Y-72796843D01*
X151042191Y-72937191D01*
X150902871Y-73145696D01*
X150458927Y-72849062D01*
X150011182Y-72760000D01*
X149708818Y-72760000D01*
X149261073Y-72849062D01*
X148753327Y-73188327D01*
X148582376Y-73444174D01*
X148227576Y-73057034D01*
X147684742Y-72803954D01*
X147447000Y-72924003D01*
X147193000Y-72924003D01*
X146955258Y-72803954D01*
X146412424Y-73057034D01*
X146007760Y-73498583D01*
X145828964Y-73930260D01*
X143712367Y-73930260D01*
X143657241Y-73847759D01*
X143298346Y-73607953D01*
X142875000Y-73523744D01*
X142451655Y-73607953D01*
X142240001Y-73749376D01*
X142028346Y-73607953D01*
X141605000Y-73523744D01*
X141181655Y-73607953D01*
X141126748Y-73644641D01*
X141032765Y-73581843D01*
X140785000Y-73532560D01*
X139885000Y-73532560D01*
X139637235Y-73581843D01*
X139427191Y-73722191D01*
X139286843Y-73932235D01*
X139237560Y-74180000D01*
X124922440Y-74180000D01*
X124922440Y-73545000D01*
X124873157Y-73297235D01*
X124794822Y-73180000D01*
X125017195Y-73180000D01*
X125095000Y-73195476D01*
X125172805Y-73180000D01*
X125172809Y-73180000D01*
X125403243Y-73134164D01*
X125664558Y-72959558D01*
X125708634Y-72893594D01*
X126057228Y-72545000D01*
X129006313Y-72545000D01*
X129390460Y-72929147D01*
X129899506Y-73140000D01*
X130450494Y-73140000D01*
X130959540Y-72929147D01*
X131349147Y-72539540D01*
X131560000Y-72030494D01*
X131560000Y-71479506D01*
X134505000Y-71479506D01*
X134505000Y-72030494D01*
X134715853Y-72539540D01*
X135105460Y-72929147D01*
X135614506Y-73140000D01*
X136165494Y-73140000D01*
X136202531Y-73124659D01*
X136216757Y-73134164D01*
X136447191Y-73180000D01*
X136447195Y-73180000D01*
X136525000Y-73195476D01*
X136602805Y-73180000D01*
X143432195Y-73180000D01*
X143510000Y-73195476D01*
X143587805Y-73180000D01*
X143587809Y-73180000D01*
X143818243Y-73134164D01*
X144079558Y-72959558D01*
X144123634Y-72893594D01*
X145197228Y-71820000D01*
X145680548Y-71820000D01*
X146171217Y-71616758D01*
X146546758Y-71241217D01*
X146680191Y-70919082D01*
X146697458Y-71005891D01*
X146992519Y-71447481D01*
X147434109Y-71742542D01*
X147823515Y-71820000D01*
X148086485Y-71820000D01*
X148475891Y-71742542D01*
X148917481Y-71447481D01*
X149212542Y-71005891D01*
X149316154Y-70485000D01*
X149212542Y-69964109D01*
X148917481Y-69522519D01*
X148647316Y-69342000D01*
X150045000Y-69342000D01*
X150045000Y-69642000D01*
X150176192Y-70047544D01*
X150452592Y-70372013D01*
X150835999Y-70559408D01*
X151003000Y-70432502D01*
X151003000Y-69342000D01*
X150045000Y-69342000D01*
X148647316Y-69342000D01*
X148475891Y-69227458D01*
X148389082Y-69210191D01*
X148711217Y-69076758D01*
X148999975Y-68788000D01*
X150045000Y-68788000D01*
X150045000Y-69088000D01*
X151003000Y-69088000D01*
X151003000Y-67997498D01*
X151257000Y-67997498D01*
X151257000Y-69088000D01*
X151277000Y-69088000D01*
X151277000Y-69342000D01*
X151257000Y-69342000D01*
X151257000Y-70432502D01*
X151424001Y-70559408D01*
X151762508Y-70393958D01*
X151976655Y-70537047D01*
X152400000Y-70621256D01*
X152823346Y-70537047D01*
X152878253Y-70500360D01*
X152972235Y-70563157D01*
X153220000Y-70612440D01*
X154120000Y-70612440D01*
X154367765Y-70563157D01*
X154577809Y-70422809D01*
X154718157Y-70212765D01*
X154767440Y-69965000D01*
X154767440Y-68465000D01*
X154718157Y-68217235D01*
X154577809Y-68007191D01*
X154367765Y-67866843D01*
X154120000Y-67817560D01*
X153220000Y-67817560D01*
X152972235Y-67866843D01*
X152878252Y-67929641D01*
X152823345Y-67892953D01*
X152400000Y-67808744D01*
X151976654Y-67892953D01*
X151762507Y-68036041D01*
X151424001Y-67870592D01*
X151257000Y-67997498D01*
X151003000Y-67997498D01*
X150835999Y-67870592D01*
X150452592Y-68057987D01*
X150176192Y-68382456D01*
X150045000Y-68788000D01*
X148999975Y-68788000D01*
X149086758Y-68701217D01*
X149290000Y-68210548D01*
X149290000Y-67679452D01*
X149086758Y-67188783D01*
X149072975Y-67175000D01*
X154469869Y-67175000D01*
X155544427Y-68249558D01*
X155587458Y-68465891D01*
X155882519Y-68907481D01*
X156324109Y-69202542D01*
X156410918Y-69219809D01*
X156088783Y-69353242D01*
X155713242Y-69728783D01*
X155510000Y-70219452D01*
X155510000Y-70750548D01*
X155713242Y-71241217D01*
X156088783Y-71616758D01*
X156579452Y-71820000D01*
X157110548Y-71820000D01*
X157601217Y-71616758D01*
X157976758Y-71241217D01*
X158180000Y-70750548D01*
X158180000Y-70219452D01*
X157976758Y-69728783D01*
X157601217Y-69353242D01*
X157279082Y-69219809D01*
X157365891Y-69202542D01*
X157807481Y-68907481D01*
X158102542Y-68465891D01*
X158125594Y-68350000D01*
X160412560Y-68350000D01*
X160412560Y-71350000D01*
X160461843Y-71597765D01*
X160602191Y-71807809D01*
X160812235Y-71948157D01*
X161060000Y-71997440D01*
X164060000Y-71997440D01*
X164307765Y-71948157D01*
X164517809Y-71807809D01*
X164658157Y-71597765D01*
X164707440Y-71350000D01*
X164707440Y-68350000D01*
X164658157Y-68102235D01*
X164517809Y-67892191D01*
X164307765Y-67751843D01*
X164060000Y-67702560D01*
X161060000Y-67702560D01*
X160812235Y-67751843D01*
X160602191Y-67892191D01*
X160461843Y-68102235D01*
X160412560Y-68350000D01*
X158125594Y-68350000D01*
X158206154Y-67945000D01*
X158102542Y-67424109D01*
X157807481Y-66982519D01*
X157365891Y-66687458D01*
X157149558Y-66644427D01*
X155821613Y-65316482D01*
X155758289Y-65221711D01*
X155382855Y-64970854D01*
X155051783Y-64905000D01*
X154940000Y-64882765D01*
X154828217Y-64905000D01*
X147431783Y-64905000D01*
X147320000Y-64882765D01*
X147002407Y-64945938D01*
X146877145Y-64970854D01*
X146501711Y-65221711D01*
X146438389Y-65316479D01*
X145110442Y-66644426D01*
X144894109Y-66687458D01*
X144452519Y-66982519D01*
X144157458Y-67424109D01*
X144053846Y-67945000D01*
X144157458Y-68465891D01*
X144452519Y-68907481D01*
X144894109Y-69202542D01*
X144980918Y-69219809D01*
X144658783Y-69353242D01*
X144283242Y-69728783D01*
X144080000Y-70219452D01*
X144080000Y-70702772D01*
X143182772Y-71600000D01*
X143109674Y-71600000D01*
X143152440Y-71385000D01*
X143152440Y-69585000D01*
X143103157Y-69337235D01*
X142962809Y-69127191D01*
X142752765Y-68986843D01*
X142737092Y-68983725D01*
X142906310Y-68814507D01*
X143140000Y-68250330D01*
X143140000Y-67639670D01*
X142906310Y-67075493D01*
X142474507Y-66643690D01*
X141910330Y-66410000D01*
X141299670Y-66410000D01*
X140735493Y-66643690D01*
X140303690Y-67075493D01*
X140070000Y-67639670D01*
X140070000Y-68250330D01*
X140303690Y-68814507D01*
X140472908Y-68983725D01*
X140457235Y-68986843D01*
X140247191Y-69127191D01*
X140106843Y-69337235D01*
X140057560Y-69585000D01*
X140057560Y-71385000D01*
X140100326Y-71600000D01*
X137275000Y-71600000D01*
X137275000Y-71479506D01*
X137064147Y-70970460D01*
X136674540Y-70580853D01*
X136165494Y-70370000D01*
X135614506Y-70370000D01*
X135105460Y-70580853D01*
X134715853Y-70970460D01*
X134505000Y-71479506D01*
X131560000Y-71479506D01*
X131349147Y-70970460D01*
X130959540Y-70580853D01*
X130450494Y-70370000D01*
X129899506Y-70370000D01*
X129390460Y-70580853D01*
X129006313Y-70965000D01*
X125807805Y-70965000D01*
X125730000Y-70949524D01*
X125652195Y-70965000D01*
X125652191Y-70965000D01*
X125421757Y-71010836D01*
X125160442Y-71185442D01*
X125116366Y-71251406D01*
X124767772Y-71600000D01*
X124059674Y-71600000D01*
X124102440Y-71385000D01*
X124102440Y-69585000D01*
X124053157Y-69337235D01*
X123912809Y-69127191D01*
X123702765Y-68986843D01*
X123687092Y-68983725D01*
X123856310Y-68814507D01*
X124090000Y-68250330D01*
X124090000Y-67639670D01*
X123856310Y-67075493D01*
X123424507Y-66643690D01*
X122860330Y-66410000D01*
X122249670Y-66410000D01*
X121685493Y-66643690D01*
X121253690Y-67075493D01*
X121020000Y-67639670D01*
X121020000Y-68250330D01*
X121253690Y-68814507D01*
X121422908Y-68983725D01*
X121407235Y-68986843D01*
X121197191Y-69127191D01*
X121056843Y-69337235D01*
X121007560Y-69585000D01*
X121007560Y-71385000D01*
X121050326Y-71600000D01*
X120977228Y-71600000D01*
X120080000Y-70702772D01*
X120080000Y-70219452D01*
X119876758Y-69728783D01*
X119501217Y-69353242D01*
X119179082Y-69219809D01*
X119265891Y-69202542D01*
X119707481Y-68907481D01*
X120002542Y-68465891D01*
X120106154Y-67945000D01*
X120002542Y-67424109D01*
X119707481Y-66982519D01*
X119265891Y-66687458D01*
X119049558Y-66644427D01*
X117721613Y-65316482D01*
X117658289Y-65221711D01*
X117282855Y-64970854D01*
X117258460Y-64966002D01*
X117747576Y-64737966D01*
X118152240Y-64296417D01*
X118331036Y-63864740D01*
X118210378Y-63627000D01*
X116967000Y-63627000D01*
X116967000Y-63647000D01*
X116713000Y-63647000D01*
X116713000Y-63627000D01*
X116693000Y-63627000D01*
X116693000Y-63373000D01*
X116713000Y-63373000D01*
X116713000Y-62129003D01*
X116967000Y-62129003D01*
X116967000Y-63373000D01*
X118210378Y-63373000D01*
X118331036Y-63135260D01*
X118152240Y-62703583D01*
X117747576Y-62262034D01*
X117204742Y-62008954D01*
X116967000Y-62129003D01*
X116713000Y-62129003D01*
X116475258Y-62008954D01*
X115932424Y-62262034D01*
X115577624Y-62649174D01*
X115406673Y-62393327D01*
X114898927Y-62054062D01*
X114451182Y-61965000D01*
X114148818Y-61965000D01*
X113701073Y-62054062D01*
X113257129Y-62350696D01*
X113117809Y-62142191D01*
X112907765Y-62001843D01*
X112660000Y-61952560D01*
X110860000Y-61952560D01*
X110612235Y-62001843D01*
X110402191Y-62142191D01*
X110261843Y-62352235D01*
X110212560Y-62600000D01*
X110212560Y-64400000D01*
X110261843Y-64647765D01*
X110402191Y-64857809D01*
X110472817Y-64905000D01*
X109331783Y-64905000D01*
X109220000Y-64882765D01*
X108902407Y-64945938D01*
X108777145Y-64970854D01*
X108401711Y-65221711D01*
X108338389Y-65316479D01*
X107010442Y-66644426D01*
X106794109Y-66687458D01*
X106352519Y-66982519D01*
X106057458Y-67424109D01*
X105953846Y-67945000D01*
X102579948Y-67945000D01*
X102024678Y-67715000D01*
X101175322Y-67715000D01*
X100390620Y-68040034D01*
X99790034Y-68640620D01*
X99465000Y-69425322D01*
X90297000Y-69425322D01*
X90297000Y-62000000D01*
X99452560Y-62000000D01*
X99452560Y-65000000D01*
X99501843Y-65247765D01*
X99642191Y-65457809D01*
X99852235Y-65598157D01*
X100100000Y-65647440D01*
X103100000Y-65647440D01*
X103347765Y-65598157D01*
X103557809Y-65457809D01*
X103698157Y-65247765D01*
X103747440Y-65000000D01*
X103747440Y-62000000D01*
X103698157Y-61752235D01*
X103557809Y-61542191D01*
X103347765Y-61401843D01*
X103100000Y-61352560D01*
X100100000Y-61352560D01*
X99852235Y-61401843D01*
X99642191Y-61542191D01*
X99501843Y-61752235D01*
X99452560Y-62000000D01*
X90297000Y-62000000D01*
X90297000Y-57995322D01*
X99465000Y-57995322D01*
X99465000Y-58844678D01*
X99790034Y-59629380D01*
X100390620Y-60229966D01*
X101175322Y-60555000D01*
X102024678Y-60555000D01*
X102809380Y-60229966D01*
X103409966Y-59629380D01*
X103735000Y-58844678D01*
X103735000Y-57995322D01*
X103409966Y-57210620D01*
X102809380Y-56610034D01*
X102579948Y-56515000D01*
X105953846Y-56515000D01*
X106057458Y-57035891D01*
X106352519Y-57477481D01*
X106794109Y-57772542D01*
X106880918Y-57789809D01*
X106558783Y-57923242D01*
X106183242Y-58298783D01*
X105980000Y-58789452D01*
X105980000Y-59320548D01*
X106183242Y-59811217D01*
X106558783Y-60186758D01*
X107049452Y-60390000D01*
X107580548Y-60390000D01*
X108071217Y-60186758D01*
X108446758Y-59811217D01*
X108650000Y-59320548D01*
X108650000Y-58789452D01*
X108446758Y-58298783D01*
X108071217Y-57923242D01*
X107749082Y-57789809D01*
X107835891Y-57772542D01*
X107989355Y-57670000D01*
X109392560Y-57670000D01*
X109392560Y-59170000D01*
X109441843Y-59417765D01*
X109582191Y-59627809D01*
X109792235Y-59768157D01*
X110040000Y-59817440D01*
X110940000Y-59817440D01*
X111187765Y-59768157D01*
X111281747Y-59705360D01*
X111336654Y-59742047D01*
X111760000Y-59826256D01*
X112183345Y-59742047D01*
X112397492Y-59598959D01*
X112735999Y-59764408D01*
X112903000Y-59637502D01*
X112903000Y-58547000D01*
X113157000Y-58547000D01*
X113157000Y-59637502D01*
X113324001Y-59764408D01*
X113707408Y-59577013D01*
X113983808Y-59252544D01*
X114115000Y-58847000D01*
X114115000Y-58547000D01*
X113157000Y-58547000D01*
X112903000Y-58547000D01*
X112883000Y-58547000D01*
X112883000Y-58293000D01*
X112903000Y-58293000D01*
X112903000Y-57202498D01*
X113157000Y-57202498D01*
X113157000Y-58293000D01*
X114115000Y-58293000D01*
X114115000Y-57993000D01*
X113983808Y-57587456D01*
X113707408Y-57262987D01*
X113324001Y-57075592D01*
X113157000Y-57202498D01*
X112903000Y-57202498D01*
X112735999Y-57075592D01*
X112397493Y-57241041D01*
X112183346Y-57097953D01*
X111760000Y-57013744D01*
X111336655Y-57097953D01*
X111281748Y-57134641D01*
X111187765Y-57071843D01*
X110940000Y-57022560D01*
X110040000Y-57022560D01*
X109792235Y-57071843D01*
X109582191Y-57212191D01*
X109441843Y-57422235D01*
X109392560Y-57670000D01*
X107989355Y-57670000D01*
X108277481Y-57477481D01*
X108572542Y-57035891D01*
X108615573Y-56819558D01*
X109690132Y-55745000D01*
X115087025Y-55745000D01*
X115073242Y-55758783D01*
X114870000Y-56249452D01*
X114870000Y-56780548D01*
X115073242Y-57271217D01*
X115448783Y-57646758D01*
X115770918Y-57780191D01*
X115684109Y-57797458D01*
X115242519Y-58092519D01*
X114947458Y-58534109D01*
X114843846Y-59055000D01*
X114947458Y-59575891D01*
X115242519Y-60017481D01*
X115684109Y-60312542D01*
X116073515Y-60390000D01*
X116336485Y-60390000D01*
X116725891Y-60312542D01*
X117167481Y-60017481D01*
X117462542Y-59575891D01*
X117479809Y-59489082D01*
X117613242Y-59811217D01*
X117988783Y-60186758D01*
X118479452Y-60390000D01*
X118962772Y-60390000D01*
X120036366Y-61463594D01*
X120080442Y-61529558D01*
X120341757Y-61704164D01*
X120556467Y-61746872D01*
X120502759Y-61782759D01*
X120262953Y-62141655D01*
X120200000Y-62458140D01*
X120200000Y-63271861D01*
X120262954Y-63588346D01*
X120502760Y-63947241D01*
X120861655Y-64187047D01*
X121285000Y-64271256D01*
X121708346Y-64187047D01*
X121920001Y-64045624D01*
X122131655Y-64187047D01*
X122555000Y-64271256D01*
X122978346Y-64187047D01*
X123033253Y-64150360D01*
X123127235Y-64213157D01*
X123375000Y-64262440D01*
X124275000Y-64262440D01*
X124522765Y-64213157D01*
X124732809Y-64072809D01*
X124873157Y-63862765D01*
X124922440Y-63615000D01*
X124922440Y-62750000D01*
X139237560Y-62750000D01*
X139237560Y-64250000D01*
X139286843Y-64497765D01*
X139427191Y-64707809D01*
X139637235Y-64848157D01*
X139885000Y-64897440D01*
X140785000Y-64897440D01*
X141032765Y-64848157D01*
X141126747Y-64785360D01*
X141181654Y-64822047D01*
X141605000Y-64906256D01*
X142028345Y-64822047D01*
X142240000Y-64680624D01*
X142451654Y-64822047D01*
X142875000Y-64906256D01*
X143298345Y-64822047D01*
X143657241Y-64582241D01*
X143897047Y-64223346D01*
X143960000Y-63906861D01*
X143960000Y-63229740D01*
X145828964Y-63229740D01*
X146007760Y-63661417D01*
X146412424Y-64102966D01*
X146955258Y-64356046D01*
X147193000Y-64235997D01*
X147193000Y-62992000D01*
X145949622Y-62992000D01*
X145828964Y-63229740D01*
X143960000Y-63229740D01*
X143960000Y-63093140D01*
X143897047Y-62776655D01*
X143712367Y-62500260D01*
X145828964Y-62500260D01*
X145949622Y-62738000D01*
X147193000Y-62738000D01*
X147193000Y-61494003D01*
X147447000Y-61494003D01*
X147447000Y-62738000D01*
X147467000Y-62738000D01*
X147467000Y-62992000D01*
X147447000Y-62992000D01*
X147447000Y-64235997D01*
X147684742Y-64356046D01*
X148227576Y-64102966D01*
X148582376Y-63715826D01*
X148753327Y-63971673D01*
X149261073Y-64310938D01*
X149708818Y-64400000D01*
X150011182Y-64400000D01*
X150458927Y-64310938D01*
X150902871Y-64014304D01*
X151042191Y-64222809D01*
X151252235Y-64363157D01*
X151500000Y-64412440D01*
X153300000Y-64412440D01*
X153547765Y-64363157D01*
X153757809Y-64222809D01*
X153898157Y-64012765D01*
X153947440Y-63765000D01*
X153947440Y-63075322D01*
X160425000Y-63075322D01*
X160425000Y-63924678D01*
X160750034Y-64709380D01*
X161350620Y-65309966D01*
X162135322Y-65635000D01*
X162984678Y-65635000D01*
X163769380Y-65309966D01*
X164369966Y-64709380D01*
X164695000Y-63924678D01*
X164695000Y-63075322D01*
X164369966Y-62290620D01*
X163769380Y-61690034D01*
X162984678Y-61365000D01*
X162135322Y-61365000D01*
X161350620Y-61690034D01*
X160750034Y-62290620D01*
X160425000Y-63075322D01*
X153947440Y-63075322D01*
X153947440Y-61965000D01*
X153898157Y-61717235D01*
X153757809Y-61507191D01*
X153547765Y-61366843D01*
X153300000Y-61317560D01*
X151500000Y-61317560D01*
X151252235Y-61366843D01*
X151042191Y-61507191D01*
X150902871Y-61715696D01*
X150458927Y-61419062D01*
X150011182Y-61330000D01*
X149708818Y-61330000D01*
X149261073Y-61419062D01*
X148753327Y-61758327D01*
X148582376Y-62014174D01*
X148227576Y-61627034D01*
X147684742Y-61373954D01*
X147447000Y-61494003D01*
X147193000Y-61494003D01*
X146955258Y-61373954D01*
X146412424Y-61627034D01*
X146007760Y-62068583D01*
X145828964Y-62500260D01*
X143712367Y-62500260D01*
X143657241Y-62417759D01*
X143298346Y-62177953D01*
X142875000Y-62093744D01*
X142451655Y-62177953D01*
X142240001Y-62319376D01*
X142028346Y-62177953D01*
X141605000Y-62093744D01*
X141181655Y-62177953D01*
X141126748Y-62214641D01*
X141032765Y-62151843D01*
X140785000Y-62102560D01*
X139885000Y-62102560D01*
X139637235Y-62151843D01*
X139427191Y-62292191D01*
X139286843Y-62502235D01*
X139237560Y-62750000D01*
X124922440Y-62750000D01*
X124922440Y-62115000D01*
X124873157Y-61867235D01*
X124794822Y-61750000D01*
X125017195Y-61750000D01*
X125095000Y-61765476D01*
X125172805Y-61750000D01*
X125172809Y-61750000D01*
X125403243Y-61704164D01*
X125664558Y-61529558D01*
X125708634Y-61463594D01*
X126057228Y-61115000D01*
X127736313Y-61115000D01*
X128120460Y-61499147D01*
X128629506Y-61710000D01*
X129180494Y-61710000D01*
X129689540Y-61499147D01*
X130079147Y-61109540D01*
X130290000Y-60600494D01*
X130290000Y-60049506D01*
X133235000Y-60049506D01*
X133235000Y-60600494D01*
X133445853Y-61109540D01*
X133835460Y-61499147D01*
X134344506Y-61710000D01*
X134895494Y-61710000D01*
X134932531Y-61694659D01*
X134946757Y-61704164D01*
X135177191Y-61750000D01*
X135177195Y-61750000D01*
X135255000Y-61765476D01*
X135332805Y-61750000D01*
X143432195Y-61750000D01*
X143510000Y-61765476D01*
X143587805Y-61750000D01*
X143587809Y-61750000D01*
X143818243Y-61704164D01*
X144079558Y-61529558D01*
X144123634Y-61463594D01*
X145197228Y-60390000D01*
X145680548Y-60390000D01*
X146171217Y-60186758D01*
X146546758Y-59811217D01*
X146680191Y-59489082D01*
X146697458Y-59575891D01*
X146992519Y-60017481D01*
X147434109Y-60312542D01*
X147823515Y-60390000D01*
X148086485Y-60390000D01*
X148475891Y-60312542D01*
X148917481Y-60017481D01*
X149212542Y-59575891D01*
X149316154Y-59055000D01*
X149212542Y-58534109D01*
X148917481Y-58092519D01*
X148647316Y-57912000D01*
X150045000Y-57912000D01*
X150045000Y-58212000D01*
X150176192Y-58617544D01*
X150452592Y-58942013D01*
X150835999Y-59129408D01*
X151003000Y-59002502D01*
X151003000Y-57912000D01*
X150045000Y-57912000D01*
X148647316Y-57912000D01*
X148475891Y-57797458D01*
X148389082Y-57780191D01*
X148711217Y-57646758D01*
X148999975Y-57358000D01*
X150045000Y-57358000D01*
X150045000Y-57658000D01*
X151003000Y-57658000D01*
X151003000Y-56567498D01*
X151257000Y-56567498D01*
X151257000Y-57658000D01*
X151277000Y-57658000D01*
X151277000Y-57912000D01*
X151257000Y-57912000D01*
X151257000Y-59002502D01*
X151424001Y-59129408D01*
X151762508Y-58963958D01*
X151976655Y-59107047D01*
X152400000Y-59191256D01*
X152823346Y-59107047D01*
X152878253Y-59070360D01*
X152972235Y-59133157D01*
X153220000Y-59182440D01*
X154120000Y-59182440D01*
X154367765Y-59133157D01*
X154577809Y-58992809D01*
X154718157Y-58782765D01*
X154767440Y-58535000D01*
X154767440Y-57035000D01*
X154718157Y-56787235D01*
X154577809Y-56577191D01*
X154367765Y-56436843D01*
X154120000Y-56387560D01*
X153220000Y-56387560D01*
X152972235Y-56436843D01*
X152878252Y-56499641D01*
X152823345Y-56462953D01*
X152400000Y-56378744D01*
X151976654Y-56462953D01*
X151762507Y-56606041D01*
X151424001Y-56440592D01*
X151257000Y-56567498D01*
X151003000Y-56567498D01*
X150835999Y-56440592D01*
X150452592Y-56627987D01*
X150176192Y-56952456D01*
X150045000Y-57358000D01*
X148999975Y-57358000D01*
X149086758Y-57271217D01*
X149290000Y-56780548D01*
X149290000Y-56249452D01*
X149086758Y-55758783D01*
X149072975Y-55745000D01*
X154469869Y-55745000D01*
X155544427Y-56819558D01*
X155587458Y-57035891D01*
X155882519Y-57477481D01*
X156324109Y-57772542D01*
X156410918Y-57789809D01*
X156088783Y-57923242D01*
X155713242Y-58298783D01*
X155510000Y-58789452D01*
X155510000Y-59320548D01*
X155713242Y-59811217D01*
X156088783Y-60186758D01*
X156579452Y-60390000D01*
X157110548Y-60390000D01*
X157601217Y-60186758D01*
X157976758Y-59811217D01*
X158180000Y-59320548D01*
X158180000Y-58789452D01*
X157976758Y-58298783D01*
X157601217Y-57923242D01*
X157279082Y-57789809D01*
X157365891Y-57772542D01*
X157807481Y-57477481D01*
X158102542Y-57035891D01*
X158125594Y-56920000D01*
X160412560Y-56920000D01*
X160412560Y-59920000D01*
X160461843Y-60167765D01*
X160602191Y-60377809D01*
X160812235Y-60518157D01*
X161060000Y-60567440D01*
X164060000Y-60567440D01*
X164307765Y-60518157D01*
X164517809Y-60377809D01*
X164658157Y-60167765D01*
X164707440Y-59920000D01*
X164707440Y-56920000D01*
X164658157Y-56672235D01*
X164517809Y-56462191D01*
X164307765Y-56321843D01*
X164060000Y-56272560D01*
X161060000Y-56272560D01*
X160812235Y-56321843D01*
X160602191Y-56462191D01*
X160461843Y-56672235D01*
X160412560Y-56920000D01*
X158125594Y-56920000D01*
X158206154Y-56515000D01*
X158102542Y-55994109D01*
X157807481Y-55552519D01*
X157365891Y-55257458D01*
X157149558Y-55214427D01*
X155821613Y-53886482D01*
X155758289Y-53791711D01*
X155382855Y-53540854D01*
X155051783Y-53475000D01*
X154940000Y-53452765D01*
X154828217Y-53475000D01*
X147431783Y-53475000D01*
X147320000Y-53452765D01*
X147002407Y-53515938D01*
X146877145Y-53540854D01*
X146501711Y-53791711D01*
X146438389Y-53886479D01*
X145110442Y-55214426D01*
X144894109Y-55257458D01*
X144452519Y-55552519D01*
X144157458Y-55994109D01*
X144053846Y-56515000D01*
X144157458Y-57035891D01*
X144452519Y-57477481D01*
X144894109Y-57772542D01*
X144980918Y-57789809D01*
X144658783Y-57923242D01*
X144283242Y-58298783D01*
X144080000Y-58789452D01*
X144080000Y-59272772D01*
X143182772Y-60170000D01*
X143109674Y-60170000D01*
X143152440Y-59955000D01*
X143152440Y-58155000D01*
X143103157Y-57907235D01*
X142962809Y-57697191D01*
X142752765Y-57556843D01*
X142737092Y-57553725D01*
X142906310Y-57384507D01*
X143140000Y-56820330D01*
X143140000Y-56209670D01*
X142906310Y-55645493D01*
X142474507Y-55213690D01*
X141910330Y-54980000D01*
X141299670Y-54980000D01*
X140735493Y-55213690D01*
X140303690Y-55645493D01*
X140070000Y-56209670D01*
X140070000Y-56820330D01*
X140303690Y-57384507D01*
X140472908Y-57553725D01*
X140457235Y-57556843D01*
X140247191Y-57697191D01*
X140106843Y-57907235D01*
X140057560Y-58155000D01*
X140057560Y-59955000D01*
X140100326Y-60170000D01*
X136005000Y-60170000D01*
X136005000Y-60049506D01*
X135794147Y-59540460D01*
X135404540Y-59150853D01*
X134895494Y-58940000D01*
X134344506Y-58940000D01*
X133835460Y-59150853D01*
X133445853Y-59540460D01*
X133235000Y-60049506D01*
X130290000Y-60049506D01*
X130079147Y-59540460D01*
X129689540Y-59150853D01*
X129180494Y-58940000D01*
X128629506Y-58940000D01*
X128120460Y-59150853D01*
X127736313Y-59535000D01*
X125807805Y-59535000D01*
X125730000Y-59519524D01*
X125652195Y-59535000D01*
X125652191Y-59535000D01*
X125421757Y-59580836D01*
X125160442Y-59755442D01*
X125116366Y-59821406D01*
X124767772Y-60170000D01*
X124059674Y-60170000D01*
X124102440Y-59955000D01*
X124102440Y-58155000D01*
X124053157Y-57907235D01*
X123912809Y-57697191D01*
X123702765Y-57556843D01*
X123687092Y-57553725D01*
X123856310Y-57384507D01*
X124090000Y-56820330D01*
X124090000Y-56209670D01*
X123856310Y-55645493D01*
X123424507Y-55213690D01*
X122860330Y-54980000D01*
X122249670Y-54980000D01*
X121685493Y-55213690D01*
X121253690Y-55645493D01*
X121020000Y-56209670D01*
X121020000Y-56820330D01*
X121253690Y-57384507D01*
X121422908Y-57553725D01*
X121407235Y-57556843D01*
X121197191Y-57697191D01*
X121056843Y-57907235D01*
X121007560Y-58155000D01*
X121007560Y-59955000D01*
X121050326Y-60170000D01*
X120977228Y-60170000D01*
X120080000Y-59272772D01*
X120080000Y-58789452D01*
X119876758Y-58298783D01*
X119501217Y-57923242D01*
X119179082Y-57789809D01*
X119265891Y-57772542D01*
X119707481Y-57477481D01*
X120002542Y-57035891D01*
X120106154Y-56515000D01*
X120002542Y-55994109D01*
X119707481Y-55552519D01*
X119265891Y-55257458D01*
X119049558Y-55214427D01*
X117721613Y-53886482D01*
X117658289Y-53791711D01*
X117282855Y-53540854D01*
X117258460Y-53536002D01*
X117747576Y-53307966D01*
X118152240Y-52866417D01*
X118331036Y-52434740D01*
X118210378Y-52197000D01*
X116967000Y-52197000D01*
X116967000Y-52217000D01*
X116713000Y-52217000D01*
X116713000Y-52197000D01*
X116693000Y-52197000D01*
X116693000Y-51943000D01*
X116713000Y-51943000D01*
X116713000Y-50699003D01*
X116967000Y-50699003D01*
X116967000Y-51943000D01*
X118210378Y-51943000D01*
X118331036Y-51705260D01*
X118152240Y-51273583D01*
X117747576Y-50832034D01*
X117204742Y-50578954D01*
X116967000Y-50699003D01*
X116713000Y-50699003D01*
X116475258Y-50578954D01*
X115932424Y-50832034D01*
X115577624Y-51219174D01*
X115406673Y-50963327D01*
X114898927Y-50624062D01*
X114451182Y-50535000D01*
X114148818Y-50535000D01*
X113701073Y-50624062D01*
X113257129Y-50920696D01*
X113117809Y-50712191D01*
X112907765Y-50571843D01*
X112660000Y-50522560D01*
X110860000Y-50522560D01*
X110612235Y-50571843D01*
X110402191Y-50712191D01*
X110261843Y-50922235D01*
X110212560Y-51170000D01*
X110212560Y-52970000D01*
X110261843Y-53217765D01*
X110402191Y-53427809D01*
X110472817Y-53475000D01*
X109331783Y-53475000D01*
X109220000Y-53452765D01*
X108902407Y-53515938D01*
X108777145Y-53540854D01*
X108401711Y-53791711D01*
X108338389Y-53886479D01*
X107010442Y-55214426D01*
X106794109Y-55257458D01*
X106352519Y-55552519D01*
X106057458Y-55994109D01*
X105953846Y-56515000D01*
X102579948Y-56515000D01*
X102024678Y-56285000D01*
X101175322Y-56285000D01*
X100390620Y-56610034D01*
X99790034Y-57210620D01*
X99465000Y-57995322D01*
X90297000Y-57995322D01*
X90297000Y-50570000D01*
X99452560Y-50570000D01*
X99452560Y-53570000D01*
X99501843Y-53817765D01*
X99642191Y-54027809D01*
X99852235Y-54168157D01*
X100100000Y-54217440D01*
X103100000Y-54217440D01*
X103347765Y-54168157D01*
X103557809Y-54027809D01*
X103698157Y-53817765D01*
X103747440Y-53570000D01*
X103747440Y-50570000D01*
X103698157Y-50322235D01*
X103557809Y-50112191D01*
X103347765Y-49971843D01*
X103100000Y-49922560D01*
X100100000Y-49922560D01*
X99852235Y-49971843D01*
X99642191Y-50112191D01*
X99501843Y-50322235D01*
X99452560Y-50570000D01*
X90297000Y-50570000D01*
X90297000Y-46565322D01*
X99465000Y-46565322D01*
X99465000Y-47414678D01*
X99790034Y-48199380D01*
X100390620Y-48799966D01*
X101175322Y-49125000D01*
X102024678Y-49125000D01*
X102809380Y-48799966D01*
X103409966Y-48199380D01*
X103735000Y-47414678D01*
X103735000Y-46565322D01*
X103409966Y-45780620D01*
X102809380Y-45180034D01*
X102579948Y-45085000D01*
X105953846Y-45085000D01*
X106057458Y-45605891D01*
X106352519Y-46047481D01*
X106794109Y-46342542D01*
X106880918Y-46359809D01*
X106558783Y-46493242D01*
X106183242Y-46868783D01*
X105980000Y-47359452D01*
X105980000Y-47890548D01*
X106183242Y-48381217D01*
X106558783Y-48756758D01*
X107049452Y-48960000D01*
X107580548Y-48960000D01*
X108071217Y-48756758D01*
X108446758Y-48381217D01*
X108650000Y-47890548D01*
X108650000Y-47359452D01*
X108446758Y-46868783D01*
X108071217Y-46493242D01*
X107749082Y-46359809D01*
X107835891Y-46342542D01*
X107989355Y-46240000D01*
X109392560Y-46240000D01*
X109392560Y-47740000D01*
X109441843Y-47987765D01*
X109582191Y-48197809D01*
X109792235Y-48338157D01*
X110040000Y-48387440D01*
X110940000Y-48387440D01*
X111187765Y-48338157D01*
X111281747Y-48275360D01*
X111336654Y-48312047D01*
X111760000Y-48396256D01*
X112183345Y-48312047D01*
X112397492Y-48168959D01*
X112735999Y-48334408D01*
X112903000Y-48207502D01*
X112903000Y-47117000D01*
X113157000Y-47117000D01*
X113157000Y-48207502D01*
X113324001Y-48334408D01*
X113707408Y-48147013D01*
X113983808Y-47822544D01*
X114115000Y-47417000D01*
X114115000Y-47117000D01*
X113157000Y-47117000D01*
X112903000Y-47117000D01*
X112883000Y-47117000D01*
X112883000Y-46863000D01*
X112903000Y-46863000D01*
X112903000Y-45772498D01*
X113157000Y-45772498D01*
X113157000Y-46863000D01*
X114115000Y-46863000D01*
X114115000Y-46563000D01*
X113983808Y-46157456D01*
X113707408Y-45832987D01*
X113324001Y-45645592D01*
X113157000Y-45772498D01*
X112903000Y-45772498D01*
X112735999Y-45645592D01*
X112397493Y-45811041D01*
X112183346Y-45667953D01*
X111760000Y-45583744D01*
X111336655Y-45667953D01*
X111281748Y-45704641D01*
X111187765Y-45641843D01*
X110940000Y-45592560D01*
X110040000Y-45592560D01*
X109792235Y-45641843D01*
X109582191Y-45782191D01*
X109441843Y-45992235D01*
X109392560Y-46240000D01*
X107989355Y-46240000D01*
X108277481Y-46047481D01*
X108572542Y-45605891D01*
X108615573Y-45389558D01*
X109690132Y-44315000D01*
X115087025Y-44315000D01*
X115073242Y-44328783D01*
X114870000Y-44819452D01*
X114870000Y-45350548D01*
X115073242Y-45841217D01*
X115448783Y-46216758D01*
X115770918Y-46350191D01*
X115684109Y-46367458D01*
X115242519Y-46662519D01*
X114947458Y-47104109D01*
X114843846Y-47625000D01*
X114947458Y-48145891D01*
X115242519Y-48587481D01*
X115684109Y-48882542D01*
X116073515Y-48960000D01*
X116336485Y-48960000D01*
X116725891Y-48882542D01*
X117167481Y-48587481D01*
X117462542Y-48145891D01*
X117479809Y-48059082D01*
X117613242Y-48381217D01*
X117988783Y-48756758D01*
X118479452Y-48960000D01*
X118962772Y-48960000D01*
X120036366Y-50033594D01*
X120080442Y-50099558D01*
X120341757Y-50274164D01*
X120556467Y-50316872D01*
X120502759Y-50352759D01*
X120262953Y-50711655D01*
X120200000Y-51028140D01*
X120200000Y-51841861D01*
X120262954Y-52158346D01*
X120502760Y-52517241D01*
X120861655Y-52757047D01*
X121285000Y-52841256D01*
X121708346Y-52757047D01*
X121920001Y-52615624D01*
X122131655Y-52757047D01*
X122555000Y-52841256D01*
X122978346Y-52757047D01*
X123033253Y-52720360D01*
X123127235Y-52783157D01*
X123375000Y-52832440D01*
X124275000Y-52832440D01*
X124522765Y-52783157D01*
X124732809Y-52642809D01*
X124873157Y-52432765D01*
X124922440Y-52185000D01*
X124922440Y-51320000D01*
X139237560Y-51320000D01*
X139237560Y-52820000D01*
X139286843Y-53067765D01*
X139427191Y-53277809D01*
X139637235Y-53418157D01*
X139885000Y-53467440D01*
X140785000Y-53467440D01*
X141032765Y-53418157D01*
X141126747Y-53355360D01*
X141181654Y-53392047D01*
X141605000Y-53476256D01*
X142028345Y-53392047D01*
X142240000Y-53250624D01*
X142451654Y-53392047D01*
X142875000Y-53476256D01*
X143298345Y-53392047D01*
X143657241Y-53152241D01*
X143897047Y-52793346D01*
X143960000Y-52476861D01*
X143960000Y-51799740D01*
X145828964Y-51799740D01*
X146007760Y-52231417D01*
X146412424Y-52672966D01*
X146955258Y-52926046D01*
X147193000Y-52805997D01*
X147193000Y-51562000D01*
X145949622Y-51562000D01*
X145828964Y-51799740D01*
X143960000Y-51799740D01*
X143960000Y-51663140D01*
X143897047Y-51346655D01*
X143712367Y-51070260D01*
X145828964Y-51070260D01*
X145949622Y-51308000D01*
X147193000Y-51308000D01*
X147193000Y-50064003D01*
X147447000Y-50064003D01*
X147447000Y-51308000D01*
X147467000Y-51308000D01*
X147467000Y-51562000D01*
X147447000Y-51562000D01*
X147447000Y-52805997D01*
X147684742Y-52926046D01*
X148227576Y-52672966D01*
X148582376Y-52285826D01*
X148753327Y-52541673D01*
X149261073Y-52880938D01*
X149708818Y-52970000D01*
X150011182Y-52970000D01*
X150458927Y-52880938D01*
X150902871Y-52584304D01*
X151042191Y-52792809D01*
X151252235Y-52933157D01*
X151500000Y-52982440D01*
X153300000Y-52982440D01*
X153547765Y-52933157D01*
X153757809Y-52792809D01*
X153898157Y-52582765D01*
X153947440Y-52335000D01*
X153947440Y-51645322D01*
X160425000Y-51645322D01*
X160425000Y-52494678D01*
X160750034Y-53279380D01*
X161350620Y-53879966D01*
X162135322Y-54205000D01*
X162984678Y-54205000D01*
X163769380Y-53879966D01*
X164369966Y-53279380D01*
X164695000Y-52494678D01*
X164695000Y-51645322D01*
X164369966Y-50860620D01*
X163769380Y-50260034D01*
X162984678Y-49935000D01*
X162135322Y-49935000D01*
X161350620Y-50260034D01*
X160750034Y-50860620D01*
X160425000Y-51645322D01*
X153947440Y-51645322D01*
X153947440Y-50535000D01*
X153898157Y-50287235D01*
X153757809Y-50077191D01*
X153547765Y-49936843D01*
X153300000Y-49887560D01*
X151500000Y-49887560D01*
X151252235Y-49936843D01*
X151042191Y-50077191D01*
X150902871Y-50285696D01*
X150458927Y-49989062D01*
X150011182Y-49900000D01*
X149708818Y-49900000D01*
X149261073Y-49989062D01*
X148753327Y-50328327D01*
X148582376Y-50584174D01*
X148227576Y-50197034D01*
X147684742Y-49943954D01*
X147447000Y-50064003D01*
X147193000Y-50064003D01*
X146955258Y-49943954D01*
X146412424Y-50197034D01*
X146007760Y-50638583D01*
X145828964Y-51070260D01*
X143712367Y-51070260D01*
X143657241Y-50987759D01*
X143298346Y-50747953D01*
X142875000Y-50663744D01*
X142451655Y-50747953D01*
X142240001Y-50889376D01*
X142028346Y-50747953D01*
X141605000Y-50663744D01*
X141181655Y-50747953D01*
X141126748Y-50784641D01*
X141032765Y-50721843D01*
X140785000Y-50672560D01*
X139885000Y-50672560D01*
X139637235Y-50721843D01*
X139427191Y-50862191D01*
X139286843Y-51072235D01*
X139237560Y-51320000D01*
X124922440Y-51320000D01*
X124922440Y-50685000D01*
X124873157Y-50437235D01*
X124732809Y-50227191D01*
X124522765Y-50086843D01*
X124417098Y-50065825D01*
X124438634Y-50033594D01*
X124787228Y-49685000D01*
X126466313Y-49685000D01*
X126850460Y-50069147D01*
X127359506Y-50280000D01*
X127910494Y-50280000D01*
X128419540Y-50069147D01*
X128809147Y-49679540D01*
X129020000Y-49170494D01*
X129020000Y-48619506D01*
X133235000Y-48619506D01*
X133235000Y-49170494D01*
X133445853Y-49679540D01*
X133835460Y-50069147D01*
X134344506Y-50280000D01*
X134895494Y-50280000D01*
X134932531Y-50264659D01*
X134946757Y-50274164D01*
X135177191Y-50320000D01*
X135177195Y-50320000D01*
X135255000Y-50335476D01*
X135332805Y-50320000D01*
X143432195Y-50320000D01*
X143510000Y-50335476D01*
X143587805Y-50320000D01*
X143587809Y-50320000D01*
X143818243Y-50274164D01*
X144079558Y-50099558D01*
X144123634Y-50033594D01*
X145197228Y-48960000D01*
X145680548Y-48960000D01*
X146171217Y-48756758D01*
X146546758Y-48381217D01*
X146680191Y-48059082D01*
X146697458Y-48145891D01*
X146992519Y-48587481D01*
X147434109Y-48882542D01*
X147823515Y-48960000D01*
X148086485Y-48960000D01*
X148475891Y-48882542D01*
X148917481Y-48587481D01*
X149212542Y-48145891D01*
X149316154Y-47625000D01*
X149212542Y-47104109D01*
X148917481Y-46662519D01*
X148647316Y-46482000D01*
X150045000Y-46482000D01*
X150045000Y-46782000D01*
X150176192Y-47187544D01*
X150452592Y-47512013D01*
X150835999Y-47699408D01*
X151003000Y-47572502D01*
X151003000Y-46482000D01*
X150045000Y-46482000D01*
X148647316Y-46482000D01*
X148475891Y-46367458D01*
X148389082Y-46350191D01*
X148711217Y-46216758D01*
X148999975Y-45928000D01*
X150045000Y-45928000D01*
X150045000Y-46228000D01*
X151003000Y-46228000D01*
X151003000Y-45137498D01*
X151257000Y-45137498D01*
X151257000Y-46228000D01*
X151277000Y-46228000D01*
X151277000Y-46482000D01*
X151257000Y-46482000D01*
X151257000Y-47572502D01*
X151424001Y-47699408D01*
X151762508Y-47533958D01*
X151976655Y-47677047D01*
X152400000Y-47761256D01*
X152823346Y-47677047D01*
X152878253Y-47640360D01*
X152972235Y-47703157D01*
X153220000Y-47752440D01*
X154120000Y-47752440D01*
X154367765Y-47703157D01*
X154577809Y-47562809D01*
X154718157Y-47352765D01*
X154767440Y-47105000D01*
X154767440Y-45605000D01*
X154718157Y-45357235D01*
X154577809Y-45147191D01*
X154367765Y-45006843D01*
X154120000Y-44957560D01*
X153220000Y-44957560D01*
X152972235Y-45006843D01*
X152878252Y-45069641D01*
X152823345Y-45032953D01*
X152400000Y-44948744D01*
X151976654Y-45032953D01*
X151762507Y-45176041D01*
X151424001Y-45010592D01*
X151257000Y-45137498D01*
X151003000Y-45137498D01*
X150835999Y-45010592D01*
X150452592Y-45197987D01*
X150176192Y-45522456D01*
X150045000Y-45928000D01*
X148999975Y-45928000D01*
X149086758Y-45841217D01*
X149290000Y-45350548D01*
X149290000Y-44819452D01*
X149086758Y-44328783D01*
X149072975Y-44315000D01*
X154469869Y-44315000D01*
X155544427Y-45389558D01*
X155587458Y-45605891D01*
X155882519Y-46047481D01*
X156324109Y-46342542D01*
X156410918Y-46359809D01*
X156088783Y-46493242D01*
X155713242Y-46868783D01*
X155510000Y-47359452D01*
X155510000Y-47890548D01*
X155713242Y-48381217D01*
X156088783Y-48756758D01*
X156579452Y-48960000D01*
X157110548Y-48960000D01*
X157601217Y-48756758D01*
X157976758Y-48381217D01*
X158180000Y-47890548D01*
X158180000Y-47359452D01*
X157976758Y-46868783D01*
X157601217Y-46493242D01*
X157279082Y-46359809D01*
X157365891Y-46342542D01*
X157807481Y-46047481D01*
X158102542Y-45605891D01*
X158125594Y-45490000D01*
X160412560Y-45490000D01*
X160412560Y-48490000D01*
X160461843Y-48737765D01*
X160602191Y-48947809D01*
X160812235Y-49088157D01*
X161060000Y-49137440D01*
X164060000Y-49137440D01*
X164307765Y-49088157D01*
X164517809Y-48947809D01*
X164658157Y-48737765D01*
X164707440Y-48490000D01*
X164707440Y-45490000D01*
X164658157Y-45242235D01*
X164517809Y-45032191D01*
X164307765Y-44891843D01*
X164060000Y-44842560D01*
X161060000Y-44842560D01*
X160812235Y-44891843D01*
X160602191Y-45032191D01*
X160461843Y-45242235D01*
X160412560Y-45490000D01*
X158125594Y-45490000D01*
X158206154Y-45085000D01*
X158102542Y-44564109D01*
X157807481Y-44122519D01*
X157365891Y-43827458D01*
X157149558Y-43784427D01*
X155821613Y-42456482D01*
X155758289Y-42361711D01*
X155382855Y-42110854D01*
X155051783Y-42045000D01*
X154940000Y-42022765D01*
X154828217Y-42045000D01*
X147431783Y-42045000D01*
X147320000Y-42022765D01*
X147002407Y-42085938D01*
X146877145Y-42110854D01*
X146501711Y-42361711D01*
X146438389Y-42456479D01*
X145110442Y-43784426D01*
X144894109Y-43827458D01*
X144452519Y-44122519D01*
X144157458Y-44564109D01*
X144053846Y-45085000D01*
X144157458Y-45605891D01*
X144452519Y-46047481D01*
X144894109Y-46342542D01*
X144980918Y-46359809D01*
X144658783Y-46493242D01*
X144283242Y-46868783D01*
X144080000Y-47359452D01*
X144080000Y-47842772D01*
X143182772Y-48740000D01*
X143109674Y-48740000D01*
X143152440Y-48525000D01*
X143152440Y-46725000D01*
X143103157Y-46477235D01*
X142962809Y-46267191D01*
X142752765Y-46126843D01*
X142737092Y-46123725D01*
X142906310Y-45954507D01*
X143140000Y-45390330D01*
X143140000Y-44779670D01*
X142906310Y-44215493D01*
X142474507Y-43783690D01*
X141910330Y-43550000D01*
X141299670Y-43550000D01*
X140735493Y-43783690D01*
X140303690Y-44215493D01*
X140070000Y-44779670D01*
X140070000Y-45390330D01*
X140303690Y-45954507D01*
X140472908Y-46123725D01*
X140457235Y-46126843D01*
X140247191Y-46267191D01*
X140106843Y-46477235D01*
X140057560Y-46725000D01*
X140057560Y-48525000D01*
X140100326Y-48740000D01*
X136005000Y-48740000D01*
X136005000Y-48619506D01*
X135794147Y-48110460D01*
X135404540Y-47720853D01*
X134895494Y-47510000D01*
X134344506Y-47510000D01*
X133835460Y-47720853D01*
X133445853Y-48110460D01*
X133235000Y-48619506D01*
X129020000Y-48619506D01*
X128809147Y-48110460D01*
X128419540Y-47720853D01*
X127910494Y-47510000D01*
X127359506Y-47510000D01*
X126850460Y-47720853D01*
X126466313Y-48105000D01*
X124537805Y-48105000D01*
X124460000Y-48089524D01*
X124382195Y-48105000D01*
X124382191Y-48105000D01*
X124151757Y-48150836D01*
X124102440Y-48183789D01*
X124102440Y-46725000D01*
X124053157Y-46477235D01*
X123912809Y-46267191D01*
X123702765Y-46126843D01*
X123687092Y-46123725D01*
X123856310Y-45954507D01*
X124090000Y-45390330D01*
X124090000Y-44779670D01*
X123856310Y-44215493D01*
X123424507Y-43783690D01*
X122860330Y-43550000D01*
X122249670Y-43550000D01*
X121685493Y-43783690D01*
X121253690Y-44215493D01*
X121020000Y-44779670D01*
X121020000Y-45390330D01*
X121253690Y-45954507D01*
X121422908Y-46123725D01*
X121407235Y-46126843D01*
X121197191Y-46267191D01*
X121056843Y-46477235D01*
X121007560Y-46725000D01*
X121007560Y-48525000D01*
X121050326Y-48740000D01*
X120977228Y-48740000D01*
X120080000Y-47842772D01*
X120080000Y-47359452D01*
X119876758Y-46868783D01*
X119501217Y-46493242D01*
X119179082Y-46359809D01*
X119265891Y-46342542D01*
X119707481Y-46047481D01*
X120002542Y-45605891D01*
X120106154Y-45085000D01*
X120002542Y-44564109D01*
X119707481Y-44122519D01*
X119265891Y-43827458D01*
X119049558Y-43784427D01*
X117721613Y-42456482D01*
X117658289Y-42361711D01*
X117282855Y-42110854D01*
X117258460Y-42106002D01*
X117747576Y-41877966D01*
X118152240Y-41436417D01*
X118331036Y-41004740D01*
X118210378Y-40767000D01*
X116967000Y-40767000D01*
X116967000Y-40787000D01*
X116713000Y-40787000D01*
X116713000Y-40767000D01*
X116693000Y-40767000D01*
X116693000Y-40513000D01*
X116713000Y-40513000D01*
X116713000Y-39269003D01*
X116967000Y-39269003D01*
X116967000Y-40513000D01*
X118210378Y-40513000D01*
X118331036Y-40275260D01*
X118152240Y-39843583D01*
X117747576Y-39402034D01*
X117204742Y-39148954D01*
X116967000Y-39269003D01*
X116713000Y-39269003D01*
X116475258Y-39148954D01*
X115932424Y-39402034D01*
X115577624Y-39789174D01*
X115406673Y-39533327D01*
X114898927Y-39194062D01*
X114451182Y-39105000D01*
X114148818Y-39105000D01*
X113701073Y-39194062D01*
X113257129Y-39490696D01*
X113117809Y-39282191D01*
X112907765Y-39141843D01*
X112660000Y-39092560D01*
X110860000Y-39092560D01*
X110612235Y-39141843D01*
X110402191Y-39282191D01*
X110261843Y-39492235D01*
X110212560Y-39740000D01*
X110212560Y-41540000D01*
X110261843Y-41787765D01*
X110402191Y-41997809D01*
X110472817Y-42045000D01*
X109331783Y-42045000D01*
X109220000Y-42022765D01*
X108902407Y-42085938D01*
X108777145Y-42110854D01*
X108401711Y-42361711D01*
X108338389Y-42456479D01*
X107010442Y-43784426D01*
X106794109Y-43827458D01*
X106352519Y-44122519D01*
X106057458Y-44564109D01*
X105953846Y-45085000D01*
X102579948Y-45085000D01*
X102024678Y-44855000D01*
X101175322Y-44855000D01*
X100390620Y-45180034D01*
X99790034Y-45780620D01*
X99465000Y-46565322D01*
X90297000Y-46565322D01*
X90297000Y-39140000D01*
X99452560Y-39140000D01*
X99452560Y-42140000D01*
X99501843Y-42387765D01*
X99642191Y-42597809D01*
X99852235Y-42738157D01*
X100100000Y-42787440D01*
X103100000Y-42787440D01*
X103347765Y-42738157D01*
X103557809Y-42597809D01*
X103698157Y-42387765D01*
X103747440Y-42140000D01*
X103747440Y-39140000D01*
X103698157Y-38892235D01*
X103557809Y-38682191D01*
X103347765Y-38541843D01*
X103100000Y-38492560D01*
X100100000Y-38492560D01*
X99852235Y-38541843D01*
X99642191Y-38682191D01*
X99501843Y-38892235D01*
X99452560Y-39140000D01*
X90297000Y-39140000D01*
X90297000Y-35135322D01*
X99465000Y-35135322D01*
X99465000Y-35984678D01*
X99790034Y-36769380D01*
X100390620Y-37369966D01*
X101175322Y-37695000D01*
X102024678Y-37695000D01*
X102809380Y-37369966D01*
X103409966Y-36769380D01*
X103735000Y-35984678D01*
X103735000Y-35135322D01*
X103409966Y-34350620D01*
X102809380Y-33750034D01*
X102579948Y-33655000D01*
X105953846Y-33655000D01*
X106057458Y-34175891D01*
X106352519Y-34617481D01*
X106794109Y-34912542D01*
X106880918Y-34929809D01*
X106558783Y-35063242D01*
X106183242Y-35438783D01*
X105980000Y-35929452D01*
X105980000Y-36460548D01*
X106183242Y-36951217D01*
X106558783Y-37326758D01*
X107049452Y-37530000D01*
X107580548Y-37530000D01*
X108071217Y-37326758D01*
X108446758Y-36951217D01*
X108650000Y-36460548D01*
X108650000Y-35929452D01*
X108446758Y-35438783D01*
X108071217Y-35063242D01*
X107749082Y-34929809D01*
X107835891Y-34912542D01*
X107989355Y-34810000D01*
X109392560Y-34810000D01*
X109392560Y-36310000D01*
X109441843Y-36557765D01*
X109582191Y-36767809D01*
X109792235Y-36908157D01*
X110040000Y-36957440D01*
X110940000Y-36957440D01*
X111187765Y-36908157D01*
X111281747Y-36845360D01*
X111336654Y-36882047D01*
X111760000Y-36966256D01*
X112183345Y-36882047D01*
X112397492Y-36738959D01*
X112735999Y-36904408D01*
X112903000Y-36777502D01*
X112903000Y-35687000D01*
X113157000Y-35687000D01*
X113157000Y-36777502D01*
X113324001Y-36904408D01*
X113707408Y-36717013D01*
X113983808Y-36392544D01*
X114047712Y-36195000D01*
X114843846Y-36195000D01*
X114947458Y-36715891D01*
X115242519Y-37157481D01*
X115684109Y-37452542D01*
X116073515Y-37530000D01*
X116336485Y-37530000D01*
X116725891Y-37452542D01*
X117167481Y-37157481D01*
X117462542Y-36715891D01*
X117479809Y-36629082D01*
X117613242Y-36951217D01*
X117988783Y-37326758D01*
X118479452Y-37530000D01*
X118962772Y-37530000D01*
X120036366Y-38603594D01*
X120080442Y-38669558D01*
X120341757Y-38844164D01*
X120556467Y-38886872D01*
X120502759Y-38922759D01*
X120262953Y-39281655D01*
X120200000Y-39598140D01*
X120200000Y-40411861D01*
X120262954Y-40728346D01*
X120502760Y-41087241D01*
X120861655Y-41327047D01*
X121285000Y-41411256D01*
X121708346Y-41327047D01*
X121920001Y-41185624D01*
X122131655Y-41327047D01*
X122555000Y-41411256D01*
X122978346Y-41327047D01*
X123033253Y-41290360D01*
X123127235Y-41353157D01*
X123375000Y-41402440D01*
X124275000Y-41402440D01*
X124522765Y-41353157D01*
X124732809Y-41212809D01*
X124873157Y-41002765D01*
X124922440Y-40755000D01*
X124922440Y-39255000D01*
X124873157Y-39007235D01*
X124794822Y-38890000D01*
X124980000Y-38890000D01*
X124980000Y-39010494D01*
X125190853Y-39519540D01*
X125580460Y-39909147D01*
X126089506Y-40120000D01*
X126640494Y-40120000D01*
X127149540Y-39909147D01*
X127168687Y-39890000D01*
X139237560Y-39890000D01*
X139237560Y-41390000D01*
X139286843Y-41637765D01*
X139427191Y-41847809D01*
X139637235Y-41988157D01*
X139885000Y-42037440D01*
X140785000Y-42037440D01*
X141032765Y-41988157D01*
X141126747Y-41925360D01*
X141181654Y-41962047D01*
X141605000Y-42046256D01*
X142028345Y-41962047D01*
X142240000Y-41820624D01*
X142451654Y-41962047D01*
X142875000Y-42046256D01*
X143298345Y-41962047D01*
X143657241Y-41722241D01*
X143897047Y-41363346D01*
X143960000Y-41046861D01*
X143960000Y-40369740D01*
X145828964Y-40369740D01*
X146007760Y-40801417D01*
X146412424Y-41242966D01*
X146955258Y-41496046D01*
X147193000Y-41375997D01*
X147193000Y-40132000D01*
X145949622Y-40132000D01*
X145828964Y-40369740D01*
X143960000Y-40369740D01*
X143960000Y-40233140D01*
X143897047Y-39916655D01*
X143712367Y-39640260D01*
X145828964Y-39640260D01*
X145949622Y-39878000D01*
X147193000Y-39878000D01*
X147193000Y-38634003D01*
X147447000Y-38634003D01*
X147447000Y-39878000D01*
X147467000Y-39878000D01*
X147467000Y-40132000D01*
X147447000Y-40132000D01*
X147447000Y-41375997D01*
X147684742Y-41496046D01*
X148227576Y-41242966D01*
X148582376Y-40855826D01*
X148753327Y-41111673D01*
X149261073Y-41450938D01*
X149708818Y-41540000D01*
X150011182Y-41540000D01*
X150458927Y-41450938D01*
X150902871Y-41154304D01*
X151042191Y-41362809D01*
X151252235Y-41503157D01*
X151500000Y-41552440D01*
X153300000Y-41552440D01*
X153547765Y-41503157D01*
X153757809Y-41362809D01*
X153898157Y-41152765D01*
X153947440Y-40905000D01*
X153947440Y-40215322D01*
X160425000Y-40215322D01*
X160425000Y-41064678D01*
X160750034Y-41849380D01*
X161350620Y-42449966D01*
X162135322Y-42775000D01*
X162984678Y-42775000D01*
X163769380Y-42449966D01*
X164369966Y-41849380D01*
X164695000Y-41064678D01*
X164695000Y-40215322D01*
X164369966Y-39430620D01*
X163769380Y-38830034D01*
X162984678Y-38505000D01*
X162135322Y-38505000D01*
X161350620Y-38830034D01*
X160750034Y-39430620D01*
X160425000Y-40215322D01*
X153947440Y-40215322D01*
X153947440Y-39105000D01*
X153898157Y-38857235D01*
X153757809Y-38647191D01*
X153547765Y-38506843D01*
X153300000Y-38457560D01*
X151500000Y-38457560D01*
X151252235Y-38506843D01*
X151042191Y-38647191D01*
X150902871Y-38855696D01*
X150458927Y-38559062D01*
X150011182Y-38470000D01*
X149708818Y-38470000D01*
X149261073Y-38559062D01*
X148753327Y-38898327D01*
X148582376Y-39154174D01*
X148227576Y-38767034D01*
X147684742Y-38513954D01*
X147447000Y-38634003D01*
X147193000Y-38634003D01*
X146955258Y-38513954D01*
X146412424Y-38767034D01*
X146007760Y-39208583D01*
X145828964Y-39640260D01*
X143712367Y-39640260D01*
X143657241Y-39557759D01*
X143298346Y-39317953D01*
X142875000Y-39233744D01*
X142451655Y-39317953D01*
X142240001Y-39459376D01*
X142028346Y-39317953D01*
X141605000Y-39233744D01*
X141181655Y-39317953D01*
X141126748Y-39354641D01*
X141032765Y-39291843D01*
X140785000Y-39242560D01*
X139885000Y-39242560D01*
X139637235Y-39291843D01*
X139427191Y-39432191D01*
X139286843Y-39642235D01*
X139237560Y-39890000D01*
X127168687Y-39890000D01*
X127539147Y-39519540D01*
X127750000Y-39010494D01*
X127750000Y-38459506D01*
X127639352Y-38192377D01*
X127680302Y-38233327D01*
X127913691Y-38330000D01*
X129254250Y-38330000D01*
X129413000Y-38171250D01*
X129413000Y-36322000D01*
X129667000Y-36322000D01*
X129667000Y-38171250D01*
X129825750Y-38330000D01*
X131166309Y-38330000D01*
X131399698Y-38233327D01*
X131578327Y-38054699D01*
X131675000Y-37821310D01*
X131675000Y-36480750D01*
X131516250Y-36322000D01*
X129667000Y-36322000D01*
X129413000Y-36322000D01*
X127563750Y-36322000D01*
X127405000Y-36480750D01*
X127405000Y-37816313D01*
X127149540Y-37560853D01*
X126640494Y-37350000D01*
X126089506Y-37350000D01*
X126052469Y-37365341D01*
X126038243Y-37355836D01*
X125807809Y-37310000D01*
X125807805Y-37310000D01*
X125730000Y-37294524D01*
X125652195Y-37310000D01*
X124059674Y-37310000D01*
X124102440Y-37095000D01*
X124102440Y-35295000D01*
X124053157Y-35047235D01*
X123912809Y-34837191D01*
X123702765Y-34696843D01*
X123687092Y-34693725D01*
X123812127Y-34568690D01*
X127405000Y-34568690D01*
X127405000Y-35909250D01*
X127563750Y-36068000D01*
X129413000Y-36068000D01*
X129413000Y-34218750D01*
X129667000Y-34218750D01*
X129667000Y-36068000D01*
X131516250Y-36068000D01*
X131675000Y-35909250D01*
X131675000Y-35770322D01*
X132485000Y-35770322D01*
X132485000Y-36619678D01*
X132810034Y-37404380D01*
X133410620Y-38004966D01*
X134195322Y-38330000D01*
X135044678Y-38330000D01*
X135829380Y-38004966D01*
X136009840Y-37824506D01*
X136410000Y-37824506D01*
X136410000Y-38375494D01*
X136620853Y-38884540D01*
X137010460Y-39274147D01*
X137519506Y-39485000D01*
X138070494Y-39485000D01*
X138579540Y-39274147D01*
X138963687Y-38890000D01*
X143432195Y-38890000D01*
X143510000Y-38905476D01*
X143587805Y-38890000D01*
X143587809Y-38890000D01*
X143818243Y-38844164D01*
X144079558Y-38669558D01*
X144123634Y-38603594D01*
X145197228Y-37530000D01*
X145680548Y-37530000D01*
X146171217Y-37326758D01*
X146546758Y-36951217D01*
X146680191Y-36629082D01*
X146697458Y-36715891D01*
X146992519Y-37157481D01*
X147434109Y-37452542D01*
X147823515Y-37530000D01*
X148086485Y-37530000D01*
X148475891Y-37452542D01*
X148917481Y-37157481D01*
X149212542Y-36715891D01*
X149316154Y-36195000D01*
X149212542Y-35674109D01*
X148917481Y-35232519D01*
X148647316Y-35052000D01*
X150045000Y-35052000D01*
X150045000Y-35352000D01*
X150176192Y-35757544D01*
X150452592Y-36082013D01*
X150835999Y-36269408D01*
X151003000Y-36142502D01*
X151003000Y-35052000D01*
X150045000Y-35052000D01*
X148647316Y-35052000D01*
X148475891Y-34937458D01*
X148389082Y-34920191D01*
X148711217Y-34786758D01*
X148999975Y-34498000D01*
X150045000Y-34498000D01*
X150045000Y-34798000D01*
X151003000Y-34798000D01*
X151003000Y-33707498D01*
X151257000Y-33707498D01*
X151257000Y-34798000D01*
X151277000Y-34798000D01*
X151277000Y-35052000D01*
X151257000Y-35052000D01*
X151257000Y-36142502D01*
X151424001Y-36269408D01*
X151762508Y-36103958D01*
X151976655Y-36247047D01*
X152400000Y-36331256D01*
X152823346Y-36247047D01*
X152878253Y-36210360D01*
X152972235Y-36273157D01*
X153220000Y-36322440D01*
X154120000Y-36322440D01*
X154367765Y-36273157D01*
X154577809Y-36132809D01*
X154718157Y-35922765D01*
X154767440Y-35675000D01*
X154767440Y-34175000D01*
X154718157Y-33927235D01*
X154577809Y-33717191D01*
X154484735Y-33655000D01*
X155483846Y-33655000D01*
X155587458Y-34175891D01*
X155882519Y-34617481D01*
X156324109Y-34912542D01*
X156410918Y-34929809D01*
X156088783Y-35063242D01*
X155713242Y-35438783D01*
X155510000Y-35929452D01*
X155510000Y-36460548D01*
X155713242Y-36951217D01*
X156088783Y-37326758D01*
X156579452Y-37530000D01*
X157110548Y-37530000D01*
X157601217Y-37326758D01*
X157976758Y-36951217D01*
X158180000Y-36460548D01*
X158180000Y-35929452D01*
X157976758Y-35438783D01*
X157601217Y-35063242D01*
X157279082Y-34929809D01*
X157365891Y-34912542D01*
X157807481Y-34617481D01*
X158102542Y-34175891D01*
X158125594Y-34060000D01*
X160412560Y-34060000D01*
X160412560Y-37060000D01*
X160461843Y-37307765D01*
X160602191Y-37517809D01*
X160812235Y-37658157D01*
X161060000Y-37707440D01*
X164060000Y-37707440D01*
X164307765Y-37658157D01*
X164517809Y-37517809D01*
X164658157Y-37307765D01*
X164707440Y-37060000D01*
X164707440Y-34060000D01*
X164658157Y-33812235D01*
X164517809Y-33602191D01*
X164307765Y-33461843D01*
X164060000Y-33412560D01*
X161060000Y-33412560D01*
X160812235Y-33461843D01*
X160602191Y-33602191D01*
X160461843Y-33812235D01*
X160412560Y-34060000D01*
X158125594Y-34060000D01*
X158206154Y-33655000D01*
X158102542Y-33134109D01*
X157807481Y-32692519D01*
X157365891Y-32397458D01*
X156976485Y-32320000D01*
X156713515Y-32320000D01*
X156324109Y-32397458D01*
X155882519Y-32692519D01*
X155587458Y-33134109D01*
X155483846Y-33655000D01*
X154484735Y-33655000D01*
X154367765Y-33576843D01*
X154120000Y-33527560D01*
X153220000Y-33527560D01*
X152972235Y-33576843D01*
X152878252Y-33639641D01*
X152823345Y-33602953D01*
X152400000Y-33518744D01*
X151976654Y-33602953D01*
X151762507Y-33746041D01*
X151424001Y-33580592D01*
X151257000Y-33707498D01*
X151003000Y-33707498D01*
X150835999Y-33580592D01*
X150452592Y-33767987D01*
X150176192Y-34092456D01*
X150045000Y-34498000D01*
X148999975Y-34498000D01*
X149086758Y-34411217D01*
X149290000Y-33920548D01*
X149290000Y-33389452D01*
X149086758Y-32898783D01*
X148711217Y-32523242D01*
X148220548Y-32320000D01*
X147689452Y-32320000D01*
X147198783Y-32523242D01*
X146823242Y-32898783D01*
X146689809Y-33220918D01*
X146672542Y-33134109D01*
X146377481Y-32692519D01*
X145935891Y-32397458D01*
X145546485Y-32320000D01*
X145283515Y-32320000D01*
X144894109Y-32397458D01*
X144452519Y-32692519D01*
X144157458Y-33134109D01*
X144053846Y-33655000D01*
X144157458Y-34175891D01*
X144452519Y-34617481D01*
X144894109Y-34912542D01*
X144980918Y-34929809D01*
X144658783Y-35063242D01*
X144283242Y-35438783D01*
X144080000Y-35929452D01*
X144080000Y-36412772D01*
X143182772Y-37310000D01*
X143109674Y-37310000D01*
X143152440Y-37095000D01*
X143152440Y-35295000D01*
X143103157Y-35047235D01*
X142962809Y-34837191D01*
X142752765Y-34696843D01*
X142737092Y-34693725D01*
X142906310Y-34524507D01*
X143140000Y-33960330D01*
X143140000Y-33349670D01*
X142906310Y-32785493D01*
X142474507Y-32353690D01*
X141910330Y-32120000D01*
X141299670Y-32120000D01*
X140735493Y-32353690D01*
X140303690Y-32785493D01*
X140070000Y-33349670D01*
X140070000Y-33960330D01*
X140303690Y-34524507D01*
X140472908Y-34693725D01*
X140457235Y-34696843D01*
X140247191Y-34837191D01*
X140106843Y-35047235D01*
X140057560Y-35295000D01*
X140057560Y-37095000D01*
X140100326Y-37310000D01*
X138963687Y-37310000D01*
X138579540Y-36925853D01*
X138070494Y-36715000D01*
X137519506Y-36715000D01*
X137010460Y-36925853D01*
X136620853Y-37315460D01*
X136410000Y-37824506D01*
X136009840Y-37824506D01*
X136429966Y-37404380D01*
X136755000Y-36619678D01*
X136755000Y-35770322D01*
X136429966Y-34985620D01*
X135829380Y-34385034D01*
X135044678Y-34060000D01*
X134195322Y-34060000D01*
X133410620Y-34385034D01*
X132810034Y-34985620D01*
X132485000Y-35770322D01*
X131675000Y-35770322D01*
X131675000Y-34568690D01*
X131578327Y-34335301D01*
X131399698Y-34156673D01*
X131166309Y-34060000D01*
X129825750Y-34060000D01*
X129667000Y-34218750D01*
X129413000Y-34218750D01*
X129254250Y-34060000D01*
X127913691Y-34060000D01*
X127680302Y-34156673D01*
X127501673Y-34335301D01*
X127405000Y-34568690D01*
X123812127Y-34568690D01*
X123856310Y-34524507D01*
X124090000Y-33960330D01*
X124090000Y-33349670D01*
X123856310Y-32785493D01*
X123424507Y-32353690D01*
X122860330Y-32120000D01*
X122249670Y-32120000D01*
X121685493Y-32353690D01*
X121253690Y-32785493D01*
X121020000Y-33349670D01*
X121020000Y-33960330D01*
X121253690Y-34524507D01*
X121422908Y-34693725D01*
X121407235Y-34696843D01*
X121197191Y-34837191D01*
X121056843Y-35047235D01*
X121007560Y-35295000D01*
X121007560Y-37095000D01*
X121050326Y-37310000D01*
X120977228Y-37310000D01*
X120080000Y-36412772D01*
X120080000Y-35929452D01*
X119876758Y-35438783D01*
X119501217Y-35063242D01*
X119179082Y-34929809D01*
X119265891Y-34912542D01*
X119707481Y-34617481D01*
X120002542Y-34175891D01*
X120106154Y-33655000D01*
X120002542Y-33134109D01*
X119707481Y-32692519D01*
X119265891Y-32397458D01*
X118876485Y-32320000D01*
X118613515Y-32320000D01*
X118224109Y-32397458D01*
X117782519Y-32692519D01*
X117487458Y-33134109D01*
X117470191Y-33220918D01*
X117336758Y-32898783D01*
X116961217Y-32523242D01*
X116470548Y-32320000D01*
X115939452Y-32320000D01*
X115448783Y-32523242D01*
X115073242Y-32898783D01*
X114870000Y-33389452D01*
X114870000Y-33920548D01*
X115073242Y-34411217D01*
X115448783Y-34786758D01*
X115770918Y-34920191D01*
X115684109Y-34937458D01*
X115242519Y-35232519D01*
X114947458Y-35674109D01*
X114843846Y-36195000D01*
X114047712Y-36195000D01*
X114115000Y-35987000D01*
X114115000Y-35687000D01*
X113157000Y-35687000D01*
X112903000Y-35687000D01*
X112883000Y-35687000D01*
X112883000Y-35433000D01*
X112903000Y-35433000D01*
X112903000Y-34342498D01*
X113157000Y-34342498D01*
X113157000Y-35433000D01*
X114115000Y-35433000D01*
X114115000Y-35133000D01*
X113983808Y-34727456D01*
X113707408Y-34402987D01*
X113324001Y-34215592D01*
X113157000Y-34342498D01*
X112903000Y-34342498D01*
X112735999Y-34215592D01*
X112397493Y-34381041D01*
X112183346Y-34237953D01*
X111760000Y-34153744D01*
X111336655Y-34237953D01*
X111281748Y-34274641D01*
X111187765Y-34211843D01*
X110940000Y-34162560D01*
X110040000Y-34162560D01*
X109792235Y-34211843D01*
X109582191Y-34352191D01*
X109441843Y-34562235D01*
X109392560Y-34810000D01*
X107989355Y-34810000D01*
X108277481Y-34617481D01*
X108572542Y-34175891D01*
X108676154Y-33655000D01*
X108572542Y-33134109D01*
X108277481Y-32692519D01*
X107835891Y-32397458D01*
X107446485Y-32320000D01*
X107183515Y-32320000D01*
X106794109Y-32397458D01*
X106352519Y-32692519D01*
X106057458Y-33134109D01*
X105953846Y-33655000D01*
X102579948Y-33655000D01*
X102024678Y-33425000D01*
X101175322Y-33425000D01*
X100390620Y-33750034D01*
X99790034Y-34350620D01*
X99465000Y-35135322D01*
X90297000Y-35135322D01*
X90297000Y-30035431D01*
X91745000Y-30035431D01*
X91745000Y-30924569D01*
X92085259Y-31746026D01*
X92713974Y-32374741D01*
X93535431Y-32715000D01*
X94424569Y-32715000D01*
X95246026Y-32374741D01*
X95874741Y-31746026D01*
X96215000Y-30924569D01*
X96215000Y-30035431D01*
X167945000Y-30035431D01*
X167945000Y-30924569D01*
X168285259Y-31746026D01*
X168913974Y-32374741D01*
X169735431Y-32715000D01*
X170624569Y-32715000D01*
X171446026Y-32374741D01*
X172074741Y-31746026D01*
X172415000Y-30924569D01*
X172415000Y-30035431D01*
X172074741Y-29213974D01*
X171446026Y-28585259D01*
X170624569Y-28245000D01*
X169735431Y-28245000D01*
X168913974Y-28585259D01*
X168285259Y-29213974D01*
X167945000Y-30035431D01*
X96215000Y-30035431D01*
X95874741Y-29213974D01*
X95246026Y-28585259D01*
X94424569Y-28245000D01*
X93535431Y-28245000D01*
X92713974Y-28585259D01*
X92085259Y-29213974D01*
X91745000Y-30035431D01*
X90297000Y-30035431D01*
X90297000Y-26797000D01*
X173863000Y-26797000D01*
X173863000Y-84963000D01*
X173863000Y-84963000D01*
G37*
X173863000Y-84963000D02*
X90297000Y-84963000D01*
X90297000Y-80835431D01*
X91745000Y-80835431D01*
X91745000Y-81724569D01*
X92085259Y-82546026D01*
X92713974Y-83174741D01*
X93535431Y-83515000D01*
X94424569Y-83515000D01*
X95246026Y-83174741D01*
X95585017Y-82835750D01*
X120535000Y-82835750D01*
X120535000Y-83576309D01*
X120631673Y-83809698D01*
X120810301Y-83988327D01*
X121043690Y-84085000D01*
X121634250Y-84085000D01*
X121793000Y-83926250D01*
X121793000Y-82677000D01*
X122047000Y-82677000D01*
X122047000Y-83926250D01*
X122205750Y-84085000D01*
X122796310Y-84085000D01*
X123029699Y-83988327D01*
X123208327Y-83809698D01*
X123305000Y-83576309D01*
X123305000Y-83448019D01*
X123626692Y-83807820D01*
X124118815Y-84042318D01*
X124333000Y-83919656D01*
X124333000Y-82677000D01*
X124587000Y-82677000D01*
X124587000Y-83919656D01*
X124801185Y-84042318D01*
X125293308Y-83807820D01*
X125653821Y-83404599D01*
X125730000Y-83187057D01*
X125806179Y-83404599D01*
X126166692Y-83807820D01*
X126658815Y-84042318D01*
X126873000Y-83919656D01*
X126873000Y-82677000D01*
X127127000Y-82677000D01*
X127127000Y-83919656D01*
X127341185Y-84042318D01*
X127833308Y-83807820D01*
X128193821Y-83404599D01*
X128270000Y-83187057D01*
X128346179Y-83404599D01*
X128706692Y-83807820D01*
X129198815Y-84042318D01*
X129413000Y-83919656D01*
X129413000Y-82677000D01*
X129667000Y-82677000D01*
X129667000Y-83919656D01*
X129881185Y-84042318D01*
X130373308Y-83807820D01*
X130733821Y-83404599D01*
X130810000Y-83187057D01*
X130886179Y-83404599D01*
X131246692Y-83807820D01*
X131738815Y-84042318D01*
X131953000Y-83919656D01*
X131953000Y-82677000D01*
X132207000Y-82677000D01*
X132207000Y-83919656D01*
X132421185Y-84042318D01*
X132913308Y-83807820D01*
X133273821Y-83404599D01*
X133350000Y-83187057D01*
X133426179Y-83404599D01*
X133786692Y-83807820D01*
X134278815Y-84042318D01*
X134493000Y-83919656D01*
X134493000Y-82677000D01*
X134747000Y-82677000D01*
X134747000Y-83919656D01*
X134961185Y-84042318D01*
X135453308Y-83807820D01*
X135813821Y-83404599D01*
X135890000Y-83187057D01*
X135966179Y-83404599D01*
X136326692Y-83807820D01*
X136818815Y-84042318D01*
X137033000Y-83919656D01*
X137033000Y-82677000D01*
X137287000Y-82677000D01*
X137287000Y-83919656D01*
X137501185Y-84042318D01*
X137993308Y-83807820D01*
X138353821Y-83404599D01*
X138430000Y-83187057D01*
X138506179Y-83404599D01*
X138866692Y-83807820D01*
X139358815Y-84042318D01*
X139573000Y-83919656D01*
X139573000Y-82677000D01*
X139827000Y-82677000D01*
X139827000Y-83919656D01*
X140041185Y-84042318D01*
X140533308Y-83807820D01*
X140893821Y-83404599D01*
X141072585Y-82894109D01*
X140927302Y-82677000D01*
X139827000Y-82677000D01*
X139573000Y-82677000D01*
X138472698Y-82677000D01*
X138430000Y-82740807D01*
X138387302Y-82677000D01*
X137287000Y-82677000D01*
X137033000Y-82677000D01*
X135932698Y-82677000D01*
X135890000Y-82740807D01*
X135847302Y-82677000D01*
X134747000Y-82677000D01*
X134493000Y-82677000D01*
X133392698Y-82677000D01*
X133350000Y-82740807D01*
X133307302Y-82677000D01*
X132207000Y-82677000D01*
X131953000Y-82677000D01*
X130852698Y-82677000D01*
X130810000Y-82740807D01*
X130767302Y-82677000D01*
X129667000Y-82677000D01*
X129413000Y-82677000D01*
X128312698Y-82677000D01*
X128270000Y-82740807D01*
X128227302Y-82677000D01*
X127127000Y-82677000D01*
X126873000Y-82677000D01*
X125772698Y-82677000D01*
X125730000Y-82740807D01*
X125687302Y-82677000D01*
X124587000Y-82677000D01*
X124333000Y-82677000D01*
X123232698Y-82677000D01*
X123198041Y-82728791D01*
X123146250Y-82677000D01*
X122047000Y-82677000D01*
X121793000Y-82677000D01*
X120693750Y-82677000D01*
X120535000Y-82835750D01*
X95585017Y-82835750D01*
X95874741Y-82546026D01*
X96215000Y-81724569D01*
X96215000Y-80835431D01*
X95874741Y-80013974D01*
X95246026Y-79385259D01*
X94581493Y-79110000D01*
X120522560Y-79110000D01*
X120522560Y-80910000D01*
X120571843Y-81157765D01*
X120648895Y-81273080D01*
X120631673Y-81290302D01*
X120535000Y-81523691D01*
X120535000Y-82264250D01*
X120693750Y-82423000D01*
X121793000Y-82423000D01*
X121793000Y-82403000D01*
X122047000Y-82403000D01*
X122047000Y-82423000D01*
X123146250Y-82423000D01*
X123198041Y-82371209D01*
X123232698Y-82423000D01*
X124333000Y-82423000D01*
X124333000Y-82403000D01*
X124587000Y-82403000D01*
X124587000Y-82423000D01*
X125687302Y-82423000D01*
X125730000Y-82359193D01*
X125772698Y-82423000D01*
X126873000Y-82423000D01*
X126873000Y-82403000D01*
X127127000Y-82403000D01*
X127127000Y-82423000D01*
X128227302Y-82423000D01*
X128270000Y-82359193D01*
X128312698Y-82423000D01*
X129413000Y-82423000D01*
X129413000Y-82403000D01*
X129667000Y-82403000D01*
X129667000Y-82423000D01*
X130767302Y-82423000D01*
X130810000Y-82359193D01*
X130852698Y-82423000D01*
X131953000Y-82423000D01*
X131953000Y-82403000D01*
X132207000Y-82403000D01*
X132207000Y-82423000D01*
X133307302Y-82423000D01*
X133350000Y-82359193D01*
X133392698Y-82423000D01*
X134493000Y-82423000D01*
X134493000Y-82403000D01*
X134747000Y-82403000D01*
X134747000Y-82423000D01*
X135847302Y-82423000D01*
X135890000Y-82359193D01*
X135932698Y-82423000D01*
X137033000Y-82423000D01*
X137033000Y-82403000D01*
X137287000Y-82403000D01*
X137287000Y-82423000D01*
X138387302Y-82423000D01*
X138430000Y-82359193D01*
X138472698Y-82423000D01*
X139573000Y-82423000D01*
X139573000Y-82403000D01*
X139827000Y-82403000D01*
X139827000Y-82423000D01*
X140927302Y-82423000D01*
X141072585Y-82205891D01*
X140893821Y-81695401D01*
X140533308Y-81292180D01*
X140512993Y-81282500D01*
X140698529Y-81158529D01*
X140914415Y-80835431D01*
X167945000Y-80835431D01*
X167945000Y-81724569D01*
X168285259Y-82546026D01*
X168913974Y-83174741D01*
X169735431Y-83515000D01*
X170624569Y-83515000D01*
X171446026Y-83174741D01*
X172074741Y-82546026D01*
X172415000Y-81724569D01*
X172415000Y-80835431D01*
X172074741Y-80013974D01*
X171446026Y-79385259D01*
X170624569Y-79045000D01*
X169735431Y-79045000D01*
X168913974Y-79385259D01*
X168285259Y-80013974D01*
X167945000Y-80835431D01*
X140914415Y-80835431D01*
X141004641Y-80700399D01*
X141085000Y-80296406D01*
X141085000Y-79723593D01*
X141004641Y-79319600D01*
X140698528Y-78861471D01*
X140240399Y-78555359D01*
X139700000Y-78447867D01*
X139159600Y-78555359D01*
X138701471Y-78861472D01*
X138430000Y-79267757D01*
X138158528Y-78861471D01*
X137700399Y-78555359D01*
X137160000Y-78447867D01*
X136619600Y-78555359D01*
X136161471Y-78861472D01*
X135890000Y-79267757D01*
X135618528Y-78861471D01*
X135160399Y-78555359D01*
X134620000Y-78447867D01*
X134079600Y-78555359D01*
X133621471Y-78861472D01*
X133350000Y-79267757D01*
X133078528Y-78861471D01*
X132620399Y-78555359D01*
X132080000Y-78447867D01*
X131539600Y-78555359D01*
X131081471Y-78861472D01*
X130810000Y-79267757D01*
X130538528Y-78861471D01*
X130080399Y-78555359D01*
X129540000Y-78447867D01*
X128999600Y-78555359D01*
X128541471Y-78861472D01*
X128270000Y-79267757D01*
X127998528Y-78861471D01*
X127540399Y-78555359D01*
X127000000Y-78447867D01*
X126459600Y-78555359D01*
X126001471Y-78861472D01*
X125730000Y-79267757D01*
X125458528Y-78861471D01*
X125000399Y-78555359D01*
X124460000Y-78447867D01*
X123919600Y-78555359D01*
X123461471Y-78861472D01*
X123312386Y-79084593D01*
X123268157Y-78862235D01*
X123127809Y-78652191D01*
X122917765Y-78511843D01*
X122670000Y-78462560D01*
X121170000Y-78462560D01*
X120922235Y-78511843D01*
X120712191Y-78652191D01*
X120571843Y-78862235D01*
X120522560Y-79110000D01*
X94581493Y-79110000D01*
X94424569Y-79045000D01*
X93535431Y-79045000D01*
X92713974Y-79385259D01*
X92085259Y-80013974D01*
X91745000Y-80835431D01*
X90297000Y-80835431D01*
X90297000Y-73430000D01*
X99452560Y-73430000D01*
X99452560Y-76430000D01*
X99501843Y-76677765D01*
X99642191Y-76887809D01*
X99852235Y-77028157D01*
X100100000Y-77077440D01*
X103100000Y-77077440D01*
X103347765Y-77028157D01*
X103557809Y-76887809D01*
X103698157Y-76677765D01*
X103747440Y-76430000D01*
X103747440Y-74030000D01*
X110212560Y-74030000D01*
X110212560Y-75830000D01*
X110261843Y-76077765D01*
X110402191Y-76287809D01*
X110612235Y-76428157D01*
X110860000Y-76477440D01*
X112660000Y-76477440D01*
X112907765Y-76428157D01*
X113117809Y-76287809D01*
X113257129Y-76079304D01*
X113701073Y-76375938D01*
X114148818Y-76465000D01*
X114451182Y-76465000D01*
X114898927Y-76375938D01*
X115406673Y-76036673D01*
X115577624Y-75780826D01*
X115932424Y-76167966D01*
X116475258Y-76421046D01*
X116713000Y-76300997D01*
X116713000Y-75057000D01*
X116967000Y-75057000D01*
X116967000Y-76300997D01*
X117204742Y-76421046D01*
X117747576Y-76167966D01*
X118152240Y-75726417D01*
X118331036Y-75294740D01*
X118210378Y-75057000D01*
X116967000Y-75057000D01*
X116713000Y-75057000D01*
X116693000Y-75057000D01*
X116693000Y-74803000D01*
X116713000Y-74803000D01*
X116713000Y-73559003D01*
X116967000Y-73559003D01*
X116967000Y-74803000D01*
X118210378Y-74803000D01*
X118331036Y-74565260D01*
X118152240Y-74133583D01*
X117747576Y-73692034D01*
X117204742Y-73438954D01*
X116967000Y-73559003D01*
X116713000Y-73559003D01*
X116475258Y-73438954D01*
X115932424Y-73692034D01*
X115577624Y-74079174D01*
X115406673Y-73823327D01*
X114898927Y-73484062D01*
X114451182Y-73395000D01*
X114148818Y-73395000D01*
X113701073Y-73484062D01*
X113257129Y-73780696D01*
X113117809Y-73572191D01*
X112907765Y-73431843D01*
X112660000Y-73382560D01*
X110860000Y-73382560D01*
X110612235Y-73431843D01*
X110402191Y-73572191D01*
X110261843Y-73782235D01*
X110212560Y-74030000D01*
X103747440Y-74030000D01*
X103747440Y-73430000D01*
X103698157Y-73182235D01*
X103557809Y-72972191D01*
X103347765Y-72831843D01*
X103100000Y-72782560D01*
X100100000Y-72782560D01*
X99852235Y-72831843D01*
X99642191Y-72972191D01*
X99501843Y-73182235D01*
X99452560Y-73430000D01*
X90297000Y-73430000D01*
X90297000Y-69425322D01*
X99465000Y-69425322D01*
X99465000Y-70274678D01*
X99790034Y-71059380D01*
X100390620Y-71659966D01*
X101175322Y-71985000D01*
X102024678Y-71985000D01*
X102809380Y-71659966D01*
X103409966Y-71059380D01*
X103735000Y-70274678D01*
X103735000Y-69425322D01*
X103409966Y-68640620D01*
X102809380Y-68040034D01*
X102579948Y-67945000D01*
X105953846Y-67945000D01*
X106057458Y-68465891D01*
X106352519Y-68907481D01*
X106794109Y-69202542D01*
X106880918Y-69219809D01*
X106558783Y-69353242D01*
X106183242Y-69728783D01*
X105980000Y-70219452D01*
X105980000Y-70750548D01*
X106183242Y-71241217D01*
X106558783Y-71616758D01*
X107049452Y-71820000D01*
X107580548Y-71820000D01*
X108071217Y-71616758D01*
X108446758Y-71241217D01*
X108650000Y-70750548D01*
X108650000Y-70219452D01*
X108446758Y-69728783D01*
X108071217Y-69353242D01*
X107749082Y-69219809D01*
X107835891Y-69202542D01*
X107989355Y-69100000D01*
X109392560Y-69100000D01*
X109392560Y-70600000D01*
X109441843Y-70847765D01*
X109582191Y-71057809D01*
X109792235Y-71198157D01*
X110040000Y-71247440D01*
X110940000Y-71247440D01*
X111187765Y-71198157D01*
X111281747Y-71135360D01*
X111336654Y-71172047D01*
X111760000Y-71256256D01*
X112183345Y-71172047D01*
X112397492Y-71028959D01*
X112735999Y-71194408D01*
X112903000Y-71067502D01*
X112903000Y-69977000D01*
X113157000Y-69977000D01*
X113157000Y-71067502D01*
X113324001Y-71194408D01*
X113707408Y-71007013D01*
X113983808Y-70682544D01*
X114115000Y-70277000D01*
X114115000Y-69977000D01*
X113157000Y-69977000D01*
X112903000Y-69977000D01*
X112883000Y-69977000D01*
X112883000Y-69723000D01*
X112903000Y-69723000D01*
X112903000Y-68632498D01*
X113157000Y-68632498D01*
X113157000Y-69723000D01*
X114115000Y-69723000D01*
X114115000Y-69423000D01*
X113983808Y-69017456D01*
X113707408Y-68692987D01*
X113324001Y-68505592D01*
X113157000Y-68632498D01*
X112903000Y-68632498D01*
X112735999Y-68505592D01*
X112397493Y-68671041D01*
X112183346Y-68527953D01*
X111760000Y-68443744D01*
X111336655Y-68527953D01*
X111281748Y-68564641D01*
X111187765Y-68501843D01*
X110940000Y-68452560D01*
X110040000Y-68452560D01*
X109792235Y-68501843D01*
X109582191Y-68642191D01*
X109441843Y-68852235D01*
X109392560Y-69100000D01*
X107989355Y-69100000D01*
X108277481Y-68907481D01*
X108572542Y-68465891D01*
X108615573Y-68249558D01*
X109690132Y-67175000D01*
X115087025Y-67175000D01*
X115073242Y-67188783D01*
X114870000Y-67679452D01*
X114870000Y-68210548D01*
X115073242Y-68701217D01*
X115448783Y-69076758D01*
X115770918Y-69210191D01*
X115684109Y-69227458D01*
X115242519Y-69522519D01*
X114947458Y-69964109D01*
X114843846Y-70485000D01*
X114947458Y-71005891D01*
X115242519Y-71447481D01*
X115684109Y-71742542D01*
X116073515Y-71820000D01*
X116336485Y-71820000D01*
X116725891Y-71742542D01*
X117167481Y-71447481D01*
X117462542Y-71005891D01*
X117479809Y-70919082D01*
X117613242Y-71241217D01*
X117988783Y-71616758D01*
X118479452Y-71820000D01*
X118962772Y-71820000D01*
X120036366Y-72893594D01*
X120080442Y-72959558D01*
X120341757Y-73134164D01*
X120556467Y-73176872D01*
X120502759Y-73212759D01*
X120262953Y-73571655D01*
X120200000Y-73888140D01*
X120200000Y-74701861D01*
X120262954Y-75018346D01*
X120502760Y-75377241D01*
X120861655Y-75617047D01*
X121285000Y-75701256D01*
X121708346Y-75617047D01*
X121920001Y-75475624D01*
X122131655Y-75617047D01*
X122555000Y-75701256D01*
X122978346Y-75617047D01*
X123033253Y-75580360D01*
X123127235Y-75643157D01*
X123375000Y-75692440D01*
X124275000Y-75692440D01*
X124522765Y-75643157D01*
X124732809Y-75502809D01*
X124873157Y-75292765D01*
X124922440Y-75045000D01*
X124922440Y-74180000D01*
X139237560Y-74180000D01*
X139237560Y-75680000D01*
X139286843Y-75927765D01*
X139427191Y-76137809D01*
X139637235Y-76278157D01*
X139885000Y-76327440D01*
X140785000Y-76327440D01*
X141032765Y-76278157D01*
X141126747Y-76215360D01*
X141181654Y-76252047D01*
X141605000Y-76336256D01*
X142028345Y-76252047D01*
X142240000Y-76110624D01*
X142451654Y-76252047D01*
X142875000Y-76336256D01*
X143298345Y-76252047D01*
X143657241Y-76012241D01*
X143897047Y-75653346D01*
X143960000Y-75336861D01*
X143960000Y-74659740D01*
X145828964Y-74659740D01*
X146007760Y-75091417D01*
X146412424Y-75532966D01*
X146955258Y-75786046D01*
X147193000Y-75665997D01*
X147193000Y-74422000D01*
X145949622Y-74422000D01*
X145828964Y-74659740D01*
X143960000Y-74659740D01*
X143960000Y-74523140D01*
X143897047Y-74206655D01*
X143712367Y-73930260D01*
X145828964Y-73930260D01*
X145949622Y-74168000D01*
X147193000Y-74168000D01*
X147193000Y-72924003D01*
X147447000Y-72924003D01*
X147447000Y-74168000D01*
X147467000Y-74168000D01*
X147467000Y-74422000D01*
X147447000Y-74422000D01*
X147447000Y-75665997D01*
X147684742Y-75786046D01*
X148227576Y-75532966D01*
X148582376Y-75145826D01*
X148753327Y-75401673D01*
X149261073Y-75740938D01*
X149708818Y-75830000D01*
X150011182Y-75830000D01*
X150458927Y-75740938D01*
X150902871Y-75444304D01*
X151042191Y-75652809D01*
X151252235Y-75793157D01*
X151500000Y-75842440D01*
X153300000Y-75842440D01*
X153547765Y-75793157D01*
X153757809Y-75652809D01*
X153898157Y-75442765D01*
X153947440Y-75195000D01*
X153947440Y-74505322D01*
X160425000Y-74505322D01*
X160425000Y-75354678D01*
X160750034Y-76139380D01*
X161350620Y-76739966D01*
X162135322Y-77065000D01*
X162984678Y-77065000D01*
X163769380Y-76739966D01*
X164369966Y-76139380D01*
X164695000Y-75354678D01*
X164695000Y-74505322D01*
X164369966Y-73720620D01*
X163769380Y-73120034D01*
X162984678Y-72795000D01*
X162135322Y-72795000D01*
X161350620Y-73120034D01*
X160750034Y-73720620D01*
X160425000Y-74505322D01*
X153947440Y-74505322D01*
X153947440Y-73395000D01*
X153898157Y-73147235D01*
X153757809Y-72937191D01*
X153547765Y-72796843D01*
X153300000Y-72747560D01*
X151500000Y-72747560D01*
X151252235Y-72796843D01*
X151042191Y-72937191D01*
X150902871Y-73145696D01*
X150458927Y-72849062D01*
X150011182Y-72760000D01*
X149708818Y-72760000D01*
X149261073Y-72849062D01*
X148753327Y-73188327D01*
X148582376Y-73444174D01*
X148227576Y-73057034D01*
X147684742Y-72803954D01*
X147447000Y-72924003D01*
X147193000Y-72924003D01*
X146955258Y-72803954D01*
X146412424Y-73057034D01*
X146007760Y-73498583D01*
X145828964Y-73930260D01*
X143712367Y-73930260D01*
X143657241Y-73847759D01*
X143298346Y-73607953D01*
X142875000Y-73523744D01*
X142451655Y-73607953D01*
X142240001Y-73749376D01*
X142028346Y-73607953D01*
X141605000Y-73523744D01*
X141181655Y-73607953D01*
X141126748Y-73644641D01*
X141032765Y-73581843D01*
X140785000Y-73532560D01*
X139885000Y-73532560D01*
X139637235Y-73581843D01*
X139427191Y-73722191D01*
X139286843Y-73932235D01*
X139237560Y-74180000D01*
X124922440Y-74180000D01*
X124922440Y-73545000D01*
X124873157Y-73297235D01*
X124794822Y-73180000D01*
X125017195Y-73180000D01*
X125095000Y-73195476D01*
X125172805Y-73180000D01*
X125172809Y-73180000D01*
X125403243Y-73134164D01*
X125664558Y-72959558D01*
X125708634Y-72893594D01*
X126057228Y-72545000D01*
X129006313Y-72545000D01*
X129390460Y-72929147D01*
X129899506Y-73140000D01*
X130450494Y-73140000D01*
X130959540Y-72929147D01*
X131349147Y-72539540D01*
X131560000Y-72030494D01*
X131560000Y-71479506D01*
X134505000Y-71479506D01*
X134505000Y-72030494D01*
X134715853Y-72539540D01*
X135105460Y-72929147D01*
X135614506Y-73140000D01*
X136165494Y-73140000D01*
X136202531Y-73124659D01*
X136216757Y-73134164D01*
X136447191Y-73180000D01*
X136447195Y-73180000D01*
X136525000Y-73195476D01*
X136602805Y-73180000D01*
X143432195Y-73180000D01*
X143510000Y-73195476D01*
X143587805Y-73180000D01*
X143587809Y-73180000D01*
X143818243Y-73134164D01*
X144079558Y-72959558D01*
X144123634Y-72893594D01*
X145197228Y-71820000D01*
X145680548Y-71820000D01*
X146171217Y-71616758D01*
X146546758Y-71241217D01*
X146680191Y-70919082D01*
X146697458Y-71005891D01*
X146992519Y-71447481D01*
X147434109Y-71742542D01*
X147823515Y-71820000D01*
X148086485Y-71820000D01*
X148475891Y-71742542D01*
X148917481Y-71447481D01*
X149212542Y-71005891D01*
X149316154Y-70485000D01*
X149212542Y-69964109D01*
X148917481Y-69522519D01*
X148647316Y-69342000D01*
X150045000Y-69342000D01*
X150045000Y-69642000D01*
X150176192Y-70047544D01*
X150452592Y-70372013D01*
X150835999Y-70559408D01*
X151003000Y-70432502D01*
X151003000Y-69342000D01*
X150045000Y-69342000D01*
X148647316Y-69342000D01*
X148475891Y-69227458D01*
X148389082Y-69210191D01*
X148711217Y-69076758D01*
X148999975Y-68788000D01*
X150045000Y-68788000D01*
X150045000Y-69088000D01*
X151003000Y-69088000D01*
X151003000Y-67997498D01*
X151257000Y-67997498D01*
X151257000Y-69088000D01*
X151277000Y-69088000D01*
X151277000Y-69342000D01*
X151257000Y-69342000D01*
X151257000Y-70432502D01*
X151424001Y-70559408D01*
X151762508Y-70393958D01*
X151976655Y-70537047D01*
X152400000Y-70621256D01*
X152823346Y-70537047D01*
X152878253Y-70500360D01*
X152972235Y-70563157D01*
X153220000Y-70612440D01*
X154120000Y-70612440D01*
X154367765Y-70563157D01*
X154577809Y-70422809D01*
X154718157Y-70212765D01*
X154767440Y-69965000D01*
X154767440Y-68465000D01*
X154718157Y-68217235D01*
X154577809Y-68007191D01*
X154367765Y-67866843D01*
X154120000Y-67817560D01*
X153220000Y-67817560D01*
X152972235Y-67866843D01*
X152878252Y-67929641D01*
X152823345Y-67892953D01*
X152400000Y-67808744D01*
X151976654Y-67892953D01*
X151762507Y-68036041D01*
X151424001Y-67870592D01*
X151257000Y-67997498D01*
X151003000Y-67997498D01*
X150835999Y-67870592D01*
X150452592Y-68057987D01*
X150176192Y-68382456D01*
X150045000Y-68788000D01*
X148999975Y-68788000D01*
X149086758Y-68701217D01*
X149290000Y-68210548D01*
X149290000Y-67679452D01*
X149086758Y-67188783D01*
X149072975Y-67175000D01*
X154469869Y-67175000D01*
X155544427Y-68249558D01*
X155587458Y-68465891D01*
X155882519Y-68907481D01*
X156324109Y-69202542D01*
X156410918Y-69219809D01*
X156088783Y-69353242D01*
X155713242Y-69728783D01*
X155510000Y-70219452D01*
X155510000Y-70750548D01*
X155713242Y-71241217D01*
X156088783Y-71616758D01*
X156579452Y-71820000D01*
X157110548Y-71820000D01*
X157601217Y-71616758D01*
X157976758Y-71241217D01*
X158180000Y-70750548D01*
X158180000Y-70219452D01*
X157976758Y-69728783D01*
X157601217Y-69353242D01*
X157279082Y-69219809D01*
X157365891Y-69202542D01*
X157807481Y-68907481D01*
X158102542Y-68465891D01*
X158125594Y-68350000D01*
X160412560Y-68350000D01*
X160412560Y-71350000D01*
X160461843Y-71597765D01*
X160602191Y-71807809D01*
X160812235Y-71948157D01*
X161060000Y-71997440D01*
X164060000Y-71997440D01*
X164307765Y-71948157D01*
X164517809Y-71807809D01*
X164658157Y-71597765D01*
X164707440Y-71350000D01*
X164707440Y-68350000D01*
X164658157Y-68102235D01*
X164517809Y-67892191D01*
X164307765Y-67751843D01*
X164060000Y-67702560D01*
X161060000Y-67702560D01*
X160812235Y-67751843D01*
X160602191Y-67892191D01*
X160461843Y-68102235D01*
X160412560Y-68350000D01*
X158125594Y-68350000D01*
X158206154Y-67945000D01*
X158102542Y-67424109D01*
X157807481Y-66982519D01*
X157365891Y-66687458D01*
X157149558Y-66644427D01*
X155821613Y-65316482D01*
X155758289Y-65221711D01*
X155382855Y-64970854D01*
X155051783Y-64905000D01*
X154940000Y-64882765D01*
X154828217Y-64905000D01*
X147431783Y-64905000D01*
X147320000Y-64882765D01*
X147002407Y-64945938D01*
X146877145Y-64970854D01*
X146501711Y-65221711D01*
X146438389Y-65316479D01*
X145110442Y-66644426D01*
X144894109Y-66687458D01*
X144452519Y-66982519D01*
X144157458Y-67424109D01*
X144053846Y-67945000D01*
X144157458Y-68465891D01*
X144452519Y-68907481D01*
X144894109Y-69202542D01*
X144980918Y-69219809D01*
X144658783Y-69353242D01*
X144283242Y-69728783D01*
X144080000Y-70219452D01*
X144080000Y-70702772D01*
X143182772Y-71600000D01*
X143109674Y-71600000D01*
X143152440Y-71385000D01*
X143152440Y-69585000D01*
X143103157Y-69337235D01*
X142962809Y-69127191D01*
X142752765Y-68986843D01*
X142737092Y-68983725D01*
X142906310Y-68814507D01*
X143140000Y-68250330D01*
X143140000Y-67639670D01*
X142906310Y-67075493D01*
X142474507Y-66643690D01*
X141910330Y-66410000D01*
X141299670Y-66410000D01*
X140735493Y-66643690D01*
X140303690Y-67075493D01*
X140070000Y-67639670D01*
X140070000Y-68250330D01*
X140303690Y-68814507D01*
X140472908Y-68983725D01*
X140457235Y-68986843D01*
X140247191Y-69127191D01*
X140106843Y-69337235D01*
X140057560Y-69585000D01*
X140057560Y-71385000D01*
X140100326Y-71600000D01*
X137275000Y-71600000D01*
X137275000Y-71479506D01*
X137064147Y-70970460D01*
X136674540Y-70580853D01*
X136165494Y-70370000D01*
X135614506Y-70370000D01*
X135105460Y-70580853D01*
X134715853Y-70970460D01*
X134505000Y-71479506D01*
X131560000Y-71479506D01*
X131349147Y-70970460D01*
X130959540Y-70580853D01*
X130450494Y-70370000D01*
X129899506Y-70370000D01*
X129390460Y-70580853D01*
X129006313Y-70965000D01*
X125807805Y-70965000D01*
X125730000Y-70949524D01*
X125652195Y-70965000D01*
X125652191Y-70965000D01*
X125421757Y-71010836D01*
X125160442Y-71185442D01*
X125116366Y-71251406D01*
X124767772Y-71600000D01*
X124059674Y-71600000D01*
X124102440Y-71385000D01*
X124102440Y-69585000D01*
X124053157Y-69337235D01*
X123912809Y-69127191D01*
X123702765Y-68986843D01*
X123687092Y-68983725D01*
X123856310Y-68814507D01*
X124090000Y-68250330D01*
X124090000Y-67639670D01*
X123856310Y-67075493D01*
X123424507Y-66643690D01*
X122860330Y-66410000D01*
X122249670Y-66410000D01*
X121685493Y-66643690D01*
X121253690Y-67075493D01*
X121020000Y-67639670D01*
X121020000Y-68250330D01*
X121253690Y-68814507D01*
X121422908Y-68983725D01*
X121407235Y-68986843D01*
X121197191Y-69127191D01*
X121056843Y-69337235D01*
X121007560Y-69585000D01*
X121007560Y-71385000D01*
X121050326Y-71600000D01*
X120977228Y-71600000D01*
X120080000Y-70702772D01*
X120080000Y-70219452D01*
X119876758Y-69728783D01*
X119501217Y-69353242D01*
X119179082Y-69219809D01*
X119265891Y-69202542D01*
X119707481Y-68907481D01*
X120002542Y-68465891D01*
X120106154Y-67945000D01*
X120002542Y-67424109D01*
X119707481Y-66982519D01*
X119265891Y-66687458D01*
X119049558Y-66644427D01*
X117721613Y-65316482D01*
X117658289Y-65221711D01*
X117282855Y-64970854D01*
X117258460Y-64966002D01*
X117747576Y-64737966D01*
X118152240Y-64296417D01*
X118331036Y-63864740D01*
X118210378Y-63627000D01*
X116967000Y-63627000D01*
X116967000Y-63647000D01*
X116713000Y-63647000D01*
X116713000Y-63627000D01*
X116693000Y-63627000D01*
X116693000Y-63373000D01*
X116713000Y-63373000D01*
X116713000Y-62129003D01*
X116967000Y-62129003D01*
X116967000Y-63373000D01*
X118210378Y-63373000D01*
X118331036Y-63135260D01*
X118152240Y-62703583D01*
X117747576Y-62262034D01*
X117204742Y-62008954D01*
X116967000Y-62129003D01*
X116713000Y-62129003D01*
X116475258Y-62008954D01*
X115932424Y-62262034D01*
X115577624Y-62649174D01*
X115406673Y-62393327D01*
X114898927Y-62054062D01*
X114451182Y-61965000D01*
X114148818Y-61965000D01*
X113701073Y-62054062D01*
X113257129Y-62350696D01*
X113117809Y-62142191D01*
X112907765Y-62001843D01*
X112660000Y-61952560D01*
X110860000Y-61952560D01*
X110612235Y-62001843D01*
X110402191Y-62142191D01*
X110261843Y-62352235D01*
X110212560Y-62600000D01*
X110212560Y-64400000D01*
X110261843Y-64647765D01*
X110402191Y-64857809D01*
X110472817Y-64905000D01*
X109331783Y-64905000D01*
X109220000Y-64882765D01*
X108902407Y-64945938D01*
X108777145Y-64970854D01*
X108401711Y-65221711D01*
X108338389Y-65316479D01*
X107010442Y-66644426D01*
X106794109Y-66687458D01*
X106352519Y-66982519D01*
X106057458Y-67424109D01*
X105953846Y-67945000D01*
X102579948Y-67945000D01*
X102024678Y-67715000D01*
X101175322Y-67715000D01*
X100390620Y-68040034D01*
X99790034Y-68640620D01*
X99465000Y-69425322D01*
X90297000Y-69425322D01*
X90297000Y-62000000D01*
X99452560Y-62000000D01*
X99452560Y-65000000D01*
X99501843Y-65247765D01*
X99642191Y-65457809D01*
X99852235Y-65598157D01*
X100100000Y-65647440D01*
X103100000Y-65647440D01*
X103347765Y-65598157D01*
X103557809Y-65457809D01*
X103698157Y-65247765D01*
X103747440Y-65000000D01*
X103747440Y-62000000D01*
X103698157Y-61752235D01*
X103557809Y-61542191D01*
X103347765Y-61401843D01*
X103100000Y-61352560D01*
X100100000Y-61352560D01*
X99852235Y-61401843D01*
X99642191Y-61542191D01*
X99501843Y-61752235D01*
X99452560Y-62000000D01*
X90297000Y-62000000D01*
X90297000Y-57995322D01*
X99465000Y-57995322D01*
X99465000Y-58844678D01*
X99790034Y-59629380D01*
X100390620Y-60229966D01*
X101175322Y-60555000D01*
X102024678Y-60555000D01*
X102809380Y-60229966D01*
X103409966Y-59629380D01*
X103735000Y-58844678D01*
X103735000Y-57995322D01*
X103409966Y-57210620D01*
X102809380Y-56610034D01*
X102579948Y-56515000D01*
X105953846Y-56515000D01*
X106057458Y-57035891D01*
X106352519Y-57477481D01*
X106794109Y-57772542D01*
X106880918Y-57789809D01*
X106558783Y-57923242D01*
X106183242Y-58298783D01*
X105980000Y-58789452D01*
X105980000Y-59320548D01*
X106183242Y-59811217D01*
X106558783Y-60186758D01*
X107049452Y-60390000D01*
X107580548Y-60390000D01*
X108071217Y-60186758D01*
X108446758Y-59811217D01*
X108650000Y-59320548D01*
X108650000Y-58789452D01*
X108446758Y-58298783D01*
X108071217Y-57923242D01*
X107749082Y-57789809D01*
X107835891Y-57772542D01*
X107989355Y-57670000D01*
X109392560Y-57670000D01*
X109392560Y-59170000D01*
X109441843Y-59417765D01*
X109582191Y-59627809D01*
X109792235Y-59768157D01*
X110040000Y-59817440D01*
X110940000Y-59817440D01*
X111187765Y-59768157D01*
X111281747Y-59705360D01*
X111336654Y-59742047D01*
X111760000Y-59826256D01*
X112183345Y-59742047D01*
X112397492Y-59598959D01*
X112735999Y-59764408D01*
X112903000Y-59637502D01*
X112903000Y-58547000D01*
X113157000Y-58547000D01*
X113157000Y-59637502D01*
X113324001Y-59764408D01*
X113707408Y-59577013D01*
X113983808Y-59252544D01*
X114115000Y-58847000D01*
X114115000Y-58547000D01*
X113157000Y-58547000D01*
X112903000Y-58547000D01*
X112883000Y-58547000D01*
X112883000Y-58293000D01*
X112903000Y-58293000D01*
X112903000Y-57202498D01*
X113157000Y-57202498D01*
X113157000Y-58293000D01*
X114115000Y-58293000D01*
X114115000Y-57993000D01*
X113983808Y-57587456D01*
X113707408Y-57262987D01*
X113324001Y-57075592D01*
X113157000Y-57202498D01*
X112903000Y-57202498D01*
X112735999Y-57075592D01*
X112397493Y-57241041D01*
X112183346Y-57097953D01*
X111760000Y-57013744D01*
X111336655Y-57097953D01*
X111281748Y-57134641D01*
X111187765Y-57071843D01*
X110940000Y-57022560D01*
X110040000Y-57022560D01*
X109792235Y-57071843D01*
X109582191Y-57212191D01*
X109441843Y-57422235D01*
X109392560Y-57670000D01*
X107989355Y-57670000D01*
X108277481Y-57477481D01*
X108572542Y-57035891D01*
X108615573Y-56819558D01*
X109690132Y-55745000D01*
X115087025Y-55745000D01*
X115073242Y-55758783D01*
X114870000Y-56249452D01*
X114870000Y-56780548D01*
X115073242Y-57271217D01*
X115448783Y-57646758D01*
X115770918Y-57780191D01*
X115684109Y-57797458D01*
X115242519Y-58092519D01*
X114947458Y-58534109D01*
X114843846Y-59055000D01*
X114947458Y-59575891D01*
X115242519Y-60017481D01*
X115684109Y-60312542D01*
X116073515Y-60390000D01*
X116336485Y-60390000D01*
X116725891Y-60312542D01*
X117167481Y-60017481D01*
X117462542Y-59575891D01*
X117479809Y-59489082D01*
X117613242Y-59811217D01*
X117988783Y-60186758D01*
X118479452Y-60390000D01*
X118962772Y-60390000D01*
X120036366Y-61463594D01*
X120080442Y-61529558D01*
X120341757Y-61704164D01*
X120556467Y-61746872D01*
X120502759Y-61782759D01*
X120262953Y-62141655D01*
X120200000Y-62458140D01*
X120200000Y-63271861D01*
X120262954Y-63588346D01*
X120502760Y-63947241D01*
X120861655Y-64187047D01*
X121285000Y-64271256D01*
X121708346Y-64187047D01*
X121920001Y-64045624D01*
X122131655Y-64187047D01*
X122555000Y-64271256D01*
X122978346Y-64187047D01*
X123033253Y-64150360D01*
X123127235Y-64213157D01*
X123375000Y-64262440D01*
X124275000Y-64262440D01*
X124522765Y-64213157D01*
X124732809Y-64072809D01*
X124873157Y-63862765D01*
X124922440Y-63615000D01*
X124922440Y-62750000D01*
X139237560Y-62750000D01*
X139237560Y-64250000D01*
X139286843Y-64497765D01*
X139427191Y-64707809D01*
X139637235Y-64848157D01*
X139885000Y-64897440D01*
X140785000Y-64897440D01*
X141032765Y-64848157D01*
X141126747Y-64785360D01*
X141181654Y-64822047D01*
X141605000Y-64906256D01*
X142028345Y-64822047D01*
X142240000Y-64680624D01*
X142451654Y-64822047D01*
X142875000Y-64906256D01*
X143298345Y-64822047D01*
X143657241Y-64582241D01*
X143897047Y-64223346D01*
X143960000Y-63906861D01*
X143960000Y-63229740D01*
X145828964Y-63229740D01*
X146007760Y-63661417D01*
X146412424Y-64102966D01*
X146955258Y-64356046D01*
X147193000Y-64235997D01*
X147193000Y-62992000D01*
X145949622Y-62992000D01*
X145828964Y-63229740D01*
X143960000Y-63229740D01*
X143960000Y-63093140D01*
X143897047Y-62776655D01*
X143712367Y-62500260D01*
X145828964Y-62500260D01*
X145949622Y-62738000D01*
X147193000Y-62738000D01*
X147193000Y-61494003D01*
X147447000Y-61494003D01*
X147447000Y-62738000D01*
X147467000Y-62738000D01*
X147467000Y-62992000D01*
X147447000Y-62992000D01*
X147447000Y-64235997D01*
X147684742Y-64356046D01*
X148227576Y-64102966D01*
X148582376Y-63715826D01*
X148753327Y-63971673D01*
X149261073Y-64310938D01*
X149708818Y-64400000D01*
X150011182Y-64400000D01*
X150458927Y-64310938D01*
X150902871Y-64014304D01*
X151042191Y-64222809D01*
X151252235Y-64363157D01*
X151500000Y-64412440D01*
X153300000Y-64412440D01*
X153547765Y-64363157D01*
X153757809Y-64222809D01*
X153898157Y-64012765D01*
X153947440Y-63765000D01*
X153947440Y-63075322D01*
X160425000Y-63075322D01*
X160425000Y-63924678D01*
X160750034Y-64709380D01*
X161350620Y-65309966D01*
X162135322Y-65635000D01*
X162984678Y-65635000D01*
X163769380Y-65309966D01*
X164369966Y-64709380D01*
X164695000Y-63924678D01*
X164695000Y-63075322D01*
X164369966Y-62290620D01*
X163769380Y-61690034D01*
X162984678Y-61365000D01*
X162135322Y-61365000D01*
X161350620Y-61690034D01*
X160750034Y-62290620D01*
X160425000Y-63075322D01*
X153947440Y-63075322D01*
X153947440Y-61965000D01*
X153898157Y-61717235D01*
X153757809Y-61507191D01*
X153547765Y-61366843D01*
X153300000Y-61317560D01*
X151500000Y-61317560D01*
X151252235Y-61366843D01*
X151042191Y-61507191D01*
X150902871Y-61715696D01*
X150458927Y-61419062D01*
X150011182Y-61330000D01*
X149708818Y-61330000D01*
X149261073Y-61419062D01*
X148753327Y-61758327D01*
X148582376Y-62014174D01*
X148227576Y-61627034D01*
X147684742Y-61373954D01*
X147447000Y-61494003D01*
X147193000Y-61494003D01*
X146955258Y-61373954D01*
X146412424Y-61627034D01*
X146007760Y-62068583D01*
X145828964Y-62500260D01*
X143712367Y-62500260D01*
X143657241Y-62417759D01*
X143298346Y-62177953D01*
X142875000Y-62093744D01*
X142451655Y-62177953D01*
X142240001Y-62319376D01*
X142028346Y-62177953D01*
X141605000Y-62093744D01*
X141181655Y-62177953D01*
X141126748Y-62214641D01*
X141032765Y-62151843D01*
X140785000Y-62102560D01*
X139885000Y-62102560D01*
X139637235Y-62151843D01*
X139427191Y-62292191D01*
X139286843Y-62502235D01*
X139237560Y-62750000D01*
X124922440Y-62750000D01*
X124922440Y-62115000D01*
X124873157Y-61867235D01*
X124794822Y-61750000D01*
X125017195Y-61750000D01*
X125095000Y-61765476D01*
X125172805Y-61750000D01*
X125172809Y-61750000D01*
X125403243Y-61704164D01*
X125664558Y-61529558D01*
X125708634Y-61463594D01*
X126057228Y-61115000D01*
X127736313Y-61115000D01*
X128120460Y-61499147D01*
X128629506Y-61710000D01*
X129180494Y-61710000D01*
X129689540Y-61499147D01*
X130079147Y-61109540D01*
X130290000Y-60600494D01*
X130290000Y-60049506D01*
X133235000Y-60049506D01*
X133235000Y-60600494D01*
X133445853Y-61109540D01*
X133835460Y-61499147D01*
X134344506Y-61710000D01*
X134895494Y-61710000D01*
X134932531Y-61694659D01*
X134946757Y-61704164D01*
X135177191Y-61750000D01*
X135177195Y-61750000D01*
X135255000Y-61765476D01*
X135332805Y-61750000D01*
X143432195Y-61750000D01*
X143510000Y-61765476D01*
X143587805Y-61750000D01*
X143587809Y-61750000D01*
X143818243Y-61704164D01*
X144079558Y-61529558D01*
X144123634Y-61463594D01*
X145197228Y-60390000D01*
X145680548Y-60390000D01*
X146171217Y-60186758D01*
X146546758Y-59811217D01*
X146680191Y-59489082D01*
X146697458Y-59575891D01*
X146992519Y-60017481D01*
X147434109Y-60312542D01*
X147823515Y-60390000D01*
X148086485Y-60390000D01*
X148475891Y-60312542D01*
X148917481Y-60017481D01*
X149212542Y-59575891D01*
X149316154Y-59055000D01*
X149212542Y-58534109D01*
X148917481Y-58092519D01*
X148647316Y-57912000D01*
X150045000Y-57912000D01*
X150045000Y-58212000D01*
X150176192Y-58617544D01*
X150452592Y-58942013D01*
X150835999Y-59129408D01*
X151003000Y-59002502D01*
X151003000Y-57912000D01*
X150045000Y-57912000D01*
X148647316Y-57912000D01*
X148475891Y-57797458D01*
X148389082Y-57780191D01*
X148711217Y-57646758D01*
X148999975Y-57358000D01*
X150045000Y-57358000D01*
X150045000Y-57658000D01*
X151003000Y-57658000D01*
X151003000Y-56567498D01*
X151257000Y-56567498D01*
X151257000Y-57658000D01*
X151277000Y-57658000D01*
X151277000Y-57912000D01*
X151257000Y-57912000D01*
X151257000Y-59002502D01*
X151424001Y-59129408D01*
X151762508Y-58963958D01*
X151976655Y-59107047D01*
X152400000Y-59191256D01*
X152823346Y-59107047D01*
X152878253Y-59070360D01*
X152972235Y-59133157D01*
X153220000Y-59182440D01*
X154120000Y-59182440D01*
X154367765Y-59133157D01*
X154577809Y-58992809D01*
X154718157Y-58782765D01*
X154767440Y-58535000D01*
X154767440Y-57035000D01*
X154718157Y-56787235D01*
X154577809Y-56577191D01*
X154367765Y-56436843D01*
X154120000Y-56387560D01*
X153220000Y-56387560D01*
X152972235Y-56436843D01*
X152878252Y-56499641D01*
X152823345Y-56462953D01*
X152400000Y-56378744D01*
X151976654Y-56462953D01*
X151762507Y-56606041D01*
X151424001Y-56440592D01*
X151257000Y-56567498D01*
X151003000Y-56567498D01*
X150835999Y-56440592D01*
X150452592Y-56627987D01*
X150176192Y-56952456D01*
X150045000Y-57358000D01*
X148999975Y-57358000D01*
X149086758Y-57271217D01*
X149290000Y-56780548D01*
X149290000Y-56249452D01*
X149086758Y-55758783D01*
X149072975Y-55745000D01*
X154469869Y-55745000D01*
X155544427Y-56819558D01*
X155587458Y-57035891D01*
X155882519Y-57477481D01*
X156324109Y-57772542D01*
X156410918Y-57789809D01*
X156088783Y-57923242D01*
X155713242Y-58298783D01*
X155510000Y-58789452D01*
X155510000Y-59320548D01*
X155713242Y-59811217D01*
X156088783Y-60186758D01*
X156579452Y-60390000D01*
X157110548Y-60390000D01*
X157601217Y-60186758D01*
X157976758Y-59811217D01*
X158180000Y-59320548D01*
X158180000Y-58789452D01*
X157976758Y-58298783D01*
X157601217Y-57923242D01*
X157279082Y-57789809D01*
X157365891Y-57772542D01*
X157807481Y-57477481D01*
X158102542Y-57035891D01*
X158125594Y-56920000D01*
X160412560Y-56920000D01*
X160412560Y-59920000D01*
X160461843Y-60167765D01*
X160602191Y-60377809D01*
X160812235Y-60518157D01*
X161060000Y-60567440D01*
X164060000Y-60567440D01*
X164307765Y-60518157D01*
X164517809Y-60377809D01*
X164658157Y-60167765D01*
X164707440Y-59920000D01*
X164707440Y-56920000D01*
X164658157Y-56672235D01*
X164517809Y-56462191D01*
X164307765Y-56321843D01*
X164060000Y-56272560D01*
X161060000Y-56272560D01*
X160812235Y-56321843D01*
X160602191Y-56462191D01*
X160461843Y-56672235D01*
X160412560Y-56920000D01*
X158125594Y-56920000D01*
X158206154Y-56515000D01*
X158102542Y-55994109D01*
X157807481Y-55552519D01*
X157365891Y-55257458D01*
X157149558Y-55214427D01*
X155821613Y-53886482D01*
X155758289Y-53791711D01*
X155382855Y-53540854D01*
X155051783Y-53475000D01*
X154940000Y-53452765D01*
X154828217Y-53475000D01*
X147431783Y-53475000D01*
X147320000Y-53452765D01*
X147002407Y-53515938D01*
X146877145Y-53540854D01*
X146501711Y-53791711D01*
X146438389Y-53886479D01*
X145110442Y-55214426D01*
X144894109Y-55257458D01*
X144452519Y-55552519D01*
X144157458Y-55994109D01*
X144053846Y-56515000D01*
X144157458Y-57035891D01*
X144452519Y-57477481D01*
X144894109Y-57772542D01*
X144980918Y-57789809D01*
X144658783Y-57923242D01*
X144283242Y-58298783D01*
X144080000Y-58789452D01*
X144080000Y-59272772D01*
X143182772Y-60170000D01*
X143109674Y-60170000D01*
X143152440Y-59955000D01*
X143152440Y-58155000D01*
X143103157Y-57907235D01*
X142962809Y-57697191D01*
X142752765Y-57556843D01*
X142737092Y-57553725D01*
X142906310Y-57384507D01*
X143140000Y-56820330D01*
X143140000Y-56209670D01*
X142906310Y-55645493D01*
X142474507Y-55213690D01*
X141910330Y-54980000D01*
X141299670Y-54980000D01*
X140735493Y-55213690D01*
X140303690Y-55645493D01*
X140070000Y-56209670D01*
X140070000Y-56820330D01*
X140303690Y-57384507D01*
X140472908Y-57553725D01*
X140457235Y-57556843D01*
X140247191Y-57697191D01*
X140106843Y-57907235D01*
X140057560Y-58155000D01*
X140057560Y-59955000D01*
X140100326Y-60170000D01*
X136005000Y-60170000D01*
X136005000Y-60049506D01*
X135794147Y-59540460D01*
X135404540Y-59150853D01*
X134895494Y-58940000D01*
X134344506Y-58940000D01*
X133835460Y-59150853D01*
X133445853Y-59540460D01*
X133235000Y-60049506D01*
X130290000Y-60049506D01*
X130079147Y-59540460D01*
X129689540Y-59150853D01*
X129180494Y-58940000D01*
X128629506Y-58940000D01*
X128120460Y-59150853D01*
X127736313Y-59535000D01*
X125807805Y-59535000D01*
X125730000Y-59519524D01*
X125652195Y-59535000D01*
X125652191Y-59535000D01*
X125421757Y-59580836D01*
X125160442Y-59755442D01*
X125116366Y-59821406D01*
X124767772Y-60170000D01*
X124059674Y-60170000D01*
X124102440Y-59955000D01*
X124102440Y-58155000D01*
X124053157Y-57907235D01*
X123912809Y-57697191D01*
X123702765Y-57556843D01*
X123687092Y-57553725D01*
X123856310Y-57384507D01*
X124090000Y-56820330D01*
X124090000Y-56209670D01*
X123856310Y-55645493D01*
X123424507Y-55213690D01*
X122860330Y-54980000D01*
X122249670Y-54980000D01*
X121685493Y-55213690D01*
X121253690Y-55645493D01*
X121020000Y-56209670D01*
X121020000Y-56820330D01*
X121253690Y-57384507D01*
X121422908Y-57553725D01*
X121407235Y-57556843D01*
X121197191Y-57697191D01*
X121056843Y-57907235D01*
X121007560Y-58155000D01*
X121007560Y-59955000D01*
X121050326Y-60170000D01*
X120977228Y-60170000D01*
X120080000Y-59272772D01*
X120080000Y-58789452D01*
X119876758Y-58298783D01*
X119501217Y-57923242D01*
X119179082Y-57789809D01*
X119265891Y-57772542D01*
X119707481Y-57477481D01*
X120002542Y-57035891D01*
X120106154Y-56515000D01*
X120002542Y-55994109D01*
X119707481Y-55552519D01*
X119265891Y-55257458D01*
X119049558Y-55214427D01*
X117721613Y-53886482D01*
X117658289Y-53791711D01*
X117282855Y-53540854D01*
X117258460Y-53536002D01*
X117747576Y-53307966D01*
X118152240Y-52866417D01*
X118331036Y-52434740D01*
X118210378Y-52197000D01*
X116967000Y-52197000D01*
X116967000Y-52217000D01*
X116713000Y-52217000D01*
X116713000Y-52197000D01*
X116693000Y-52197000D01*
X116693000Y-51943000D01*
X116713000Y-51943000D01*
X116713000Y-50699003D01*
X116967000Y-50699003D01*
X116967000Y-51943000D01*
X118210378Y-51943000D01*
X118331036Y-51705260D01*
X118152240Y-51273583D01*
X117747576Y-50832034D01*
X117204742Y-50578954D01*
X116967000Y-50699003D01*
X116713000Y-50699003D01*
X116475258Y-50578954D01*
X115932424Y-50832034D01*
X115577624Y-51219174D01*
X115406673Y-50963327D01*
X114898927Y-50624062D01*
X114451182Y-50535000D01*
X114148818Y-50535000D01*
X113701073Y-50624062D01*
X113257129Y-50920696D01*
X113117809Y-50712191D01*
X112907765Y-50571843D01*
X112660000Y-50522560D01*
X110860000Y-50522560D01*
X110612235Y-50571843D01*
X110402191Y-50712191D01*
X110261843Y-50922235D01*
X110212560Y-51170000D01*
X110212560Y-52970000D01*
X110261843Y-53217765D01*
X110402191Y-53427809D01*
X110472817Y-53475000D01*
X109331783Y-53475000D01*
X109220000Y-53452765D01*
X108902407Y-53515938D01*
X108777145Y-53540854D01*
X108401711Y-53791711D01*
X108338389Y-53886479D01*
X107010442Y-55214426D01*
X106794109Y-55257458D01*
X106352519Y-55552519D01*
X106057458Y-55994109D01*
X105953846Y-56515000D01*
X102579948Y-56515000D01*
X102024678Y-56285000D01*
X101175322Y-56285000D01*
X100390620Y-56610034D01*
X99790034Y-57210620D01*
X99465000Y-57995322D01*
X90297000Y-57995322D01*
X90297000Y-50570000D01*
X99452560Y-50570000D01*
X99452560Y-53570000D01*
X99501843Y-53817765D01*
X99642191Y-54027809D01*
X99852235Y-54168157D01*
X100100000Y-54217440D01*
X103100000Y-54217440D01*
X103347765Y-54168157D01*
X103557809Y-54027809D01*
X103698157Y-53817765D01*
X103747440Y-53570000D01*
X103747440Y-50570000D01*
X103698157Y-50322235D01*
X103557809Y-50112191D01*
X103347765Y-49971843D01*
X103100000Y-49922560D01*
X100100000Y-49922560D01*
X99852235Y-49971843D01*
X99642191Y-50112191D01*
X99501843Y-50322235D01*
X99452560Y-50570000D01*
X90297000Y-50570000D01*
X90297000Y-46565322D01*
X99465000Y-46565322D01*
X99465000Y-47414678D01*
X99790034Y-48199380D01*
X100390620Y-48799966D01*
X101175322Y-49125000D01*
X102024678Y-49125000D01*
X102809380Y-48799966D01*
X103409966Y-48199380D01*
X103735000Y-47414678D01*
X103735000Y-46565322D01*
X103409966Y-45780620D01*
X102809380Y-45180034D01*
X102579948Y-45085000D01*
X105953846Y-45085000D01*
X106057458Y-45605891D01*
X106352519Y-46047481D01*
X106794109Y-46342542D01*
X106880918Y-46359809D01*
X106558783Y-46493242D01*
X106183242Y-46868783D01*
X105980000Y-47359452D01*
X105980000Y-47890548D01*
X106183242Y-48381217D01*
X106558783Y-48756758D01*
X107049452Y-48960000D01*
X107580548Y-48960000D01*
X108071217Y-48756758D01*
X108446758Y-48381217D01*
X108650000Y-47890548D01*
X108650000Y-47359452D01*
X108446758Y-46868783D01*
X108071217Y-46493242D01*
X107749082Y-46359809D01*
X107835891Y-46342542D01*
X107989355Y-46240000D01*
X109392560Y-46240000D01*
X109392560Y-47740000D01*
X109441843Y-47987765D01*
X109582191Y-48197809D01*
X109792235Y-48338157D01*
X110040000Y-48387440D01*
X110940000Y-48387440D01*
X111187765Y-48338157D01*
X111281747Y-48275360D01*
X111336654Y-48312047D01*
X111760000Y-48396256D01*
X112183345Y-48312047D01*
X112397492Y-48168959D01*
X112735999Y-48334408D01*
X112903000Y-48207502D01*
X112903000Y-47117000D01*
X113157000Y-47117000D01*
X113157000Y-48207502D01*
X113324001Y-48334408D01*
X113707408Y-48147013D01*
X113983808Y-47822544D01*
X114115000Y-47417000D01*
X114115000Y-47117000D01*
X113157000Y-47117000D01*
X112903000Y-47117000D01*
X112883000Y-47117000D01*
X112883000Y-46863000D01*
X112903000Y-46863000D01*
X112903000Y-45772498D01*
X113157000Y-45772498D01*
X113157000Y-46863000D01*
X114115000Y-46863000D01*
X114115000Y-46563000D01*
X113983808Y-46157456D01*
X113707408Y-45832987D01*
X113324001Y-45645592D01*
X113157000Y-45772498D01*
X112903000Y-45772498D01*
X112735999Y-45645592D01*
X112397493Y-45811041D01*
X112183346Y-45667953D01*
X111760000Y-45583744D01*
X111336655Y-45667953D01*
X111281748Y-45704641D01*
X111187765Y-45641843D01*
X110940000Y-45592560D01*
X110040000Y-45592560D01*
X109792235Y-45641843D01*
X109582191Y-45782191D01*
X109441843Y-45992235D01*
X109392560Y-46240000D01*
X107989355Y-46240000D01*
X108277481Y-46047481D01*
X108572542Y-45605891D01*
X108615573Y-45389558D01*
X109690132Y-44315000D01*
X115087025Y-44315000D01*
X115073242Y-44328783D01*
X114870000Y-44819452D01*
X114870000Y-45350548D01*
X115073242Y-45841217D01*
X115448783Y-46216758D01*
X115770918Y-46350191D01*
X115684109Y-46367458D01*
X115242519Y-46662519D01*
X114947458Y-47104109D01*
X114843846Y-47625000D01*
X114947458Y-48145891D01*
X115242519Y-48587481D01*
X115684109Y-48882542D01*
X116073515Y-48960000D01*
X116336485Y-48960000D01*
X116725891Y-48882542D01*
X117167481Y-48587481D01*
X117462542Y-48145891D01*
X117479809Y-48059082D01*
X117613242Y-48381217D01*
X117988783Y-48756758D01*
X118479452Y-48960000D01*
X118962772Y-48960000D01*
X120036366Y-50033594D01*
X120080442Y-50099558D01*
X120341757Y-50274164D01*
X120556467Y-50316872D01*
X120502759Y-50352759D01*
X120262953Y-50711655D01*
X120200000Y-51028140D01*
X120200000Y-51841861D01*
X120262954Y-52158346D01*
X120502760Y-52517241D01*
X120861655Y-52757047D01*
X121285000Y-52841256D01*
X121708346Y-52757047D01*
X121920001Y-52615624D01*
X122131655Y-52757047D01*
X122555000Y-52841256D01*
X122978346Y-52757047D01*
X123033253Y-52720360D01*
X123127235Y-52783157D01*
X123375000Y-52832440D01*
X124275000Y-52832440D01*
X124522765Y-52783157D01*
X124732809Y-52642809D01*
X124873157Y-52432765D01*
X124922440Y-52185000D01*
X124922440Y-51320000D01*
X139237560Y-51320000D01*
X139237560Y-52820000D01*
X139286843Y-53067765D01*
X139427191Y-53277809D01*
X139637235Y-53418157D01*
X139885000Y-53467440D01*
X140785000Y-53467440D01*
X141032765Y-53418157D01*
X141126747Y-53355360D01*
X141181654Y-53392047D01*
X141605000Y-53476256D01*
X142028345Y-53392047D01*
X142240000Y-53250624D01*
X142451654Y-53392047D01*
X142875000Y-53476256D01*
X143298345Y-53392047D01*
X143657241Y-53152241D01*
X143897047Y-52793346D01*
X143960000Y-52476861D01*
X143960000Y-51799740D01*
X145828964Y-51799740D01*
X146007760Y-52231417D01*
X146412424Y-52672966D01*
X146955258Y-52926046D01*
X147193000Y-52805997D01*
X147193000Y-51562000D01*
X145949622Y-51562000D01*
X145828964Y-51799740D01*
X143960000Y-51799740D01*
X143960000Y-51663140D01*
X143897047Y-51346655D01*
X143712367Y-51070260D01*
X145828964Y-51070260D01*
X145949622Y-51308000D01*
X147193000Y-51308000D01*
X147193000Y-50064003D01*
X147447000Y-50064003D01*
X147447000Y-51308000D01*
X147467000Y-51308000D01*
X147467000Y-51562000D01*
X147447000Y-51562000D01*
X147447000Y-52805997D01*
X147684742Y-52926046D01*
X148227576Y-52672966D01*
X148582376Y-52285826D01*
X148753327Y-52541673D01*
X149261073Y-52880938D01*
X149708818Y-52970000D01*
X150011182Y-52970000D01*
X150458927Y-52880938D01*
X150902871Y-52584304D01*
X151042191Y-52792809D01*
X151252235Y-52933157D01*
X151500000Y-52982440D01*
X153300000Y-52982440D01*
X153547765Y-52933157D01*
X153757809Y-52792809D01*
X153898157Y-52582765D01*
X153947440Y-52335000D01*
X153947440Y-51645322D01*
X160425000Y-51645322D01*
X160425000Y-52494678D01*
X160750034Y-53279380D01*
X161350620Y-53879966D01*
X162135322Y-54205000D01*
X162984678Y-54205000D01*
X163769380Y-53879966D01*
X164369966Y-53279380D01*
X164695000Y-52494678D01*
X164695000Y-51645322D01*
X164369966Y-50860620D01*
X163769380Y-50260034D01*
X162984678Y-49935000D01*
X162135322Y-49935000D01*
X161350620Y-50260034D01*
X160750034Y-50860620D01*
X160425000Y-51645322D01*
X153947440Y-51645322D01*
X153947440Y-50535000D01*
X153898157Y-50287235D01*
X153757809Y-50077191D01*
X153547765Y-49936843D01*
X153300000Y-49887560D01*
X151500000Y-49887560D01*
X151252235Y-49936843D01*
X151042191Y-50077191D01*
X150902871Y-50285696D01*
X150458927Y-49989062D01*
X150011182Y-49900000D01*
X149708818Y-49900000D01*
X149261073Y-49989062D01*
X148753327Y-50328327D01*
X148582376Y-50584174D01*
X148227576Y-50197034D01*
X147684742Y-49943954D01*
X147447000Y-50064003D01*
X147193000Y-50064003D01*
X146955258Y-49943954D01*
X146412424Y-50197034D01*
X146007760Y-50638583D01*
X145828964Y-51070260D01*
X143712367Y-51070260D01*
X143657241Y-50987759D01*
X143298346Y-50747953D01*
X142875000Y-50663744D01*
X142451655Y-50747953D01*
X142240001Y-50889376D01*
X142028346Y-50747953D01*
X141605000Y-50663744D01*
X141181655Y-50747953D01*
X141126748Y-50784641D01*
X141032765Y-50721843D01*
X140785000Y-50672560D01*
X139885000Y-50672560D01*
X139637235Y-50721843D01*
X139427191Y-50862191D01*
X139286843Y-51072235D01*
X139237560Y-51320000D01*
X124922440Y-51320000D01*
X124922440Y-50685000D01*
X124873157Y-50437235D01*
X124732809Y-50227191D01*
X124522765Y-50086843D01*
X124417098Y-50065825D01*
X124438634Y-50033594D01*
X124787228Y-49685000D01*
X126466313Y-49685000D01*
X126850460Y-50069147D01*
X127359506Y-50280000D01*
X127910494Y-50280000D01*
X128419540Y-50069147D01*
X128809147Y-49679540D01*
X129020000Y-49170494D01*
X129020000Y-48619506D01*
X133235000Y-48619506D01*
X133235000Y-49170494D01*
X133445853Y-49679540D01*
X133835460Y-50069147D01*
X134344506Y-50280000D01*
X134895494Y-50280000D01*
X134932531Y-50264659D01*
X134946757Y-50274164D01*
X135177191Y-50320000D01*
X135177195Y-50320000D01*
X135255000Y-50335476D01*
X135332805Y-50320000D01*
X143432195Y-50320000D01*
X143510000Y-50335476D01*
X143587805Y-50320000D01*
X143587809Y-50320000D01*
X143818243Y-50274164D01*
X144079558Y-50099558D01*
X144123634Y-50033594D01*
X145197228Y-48960000D01*
X145680548Y-48960000D01*
X146171217Y-48756758D01*
X146546758Y-48381217D01*
X146680191Y-48059082D01*
X146697458Y-48145891D01*
X146992519Y-48587481D01*
X147434109Y-48882542D01*
X147823515Y-48960000D01*
X148086485Y-48960000D01*
X148475891Y-48882542D01*
X148917481Y-48587481D01*
X149212542Y-48145891D01*
X149316154Y-47625000D01*
X149212542Y-47104109D01*
X148917481Y-46662519D01*
X148647316Y-46482000D01*
X150045000Y-46482000D01*
X150045000Y-46782000D01*
X150176192Y-47187544D01*
X150452592Y-47512013D01*
X150835999Y-47699408D01*
X151003000Y-47572502D01*
X151003000Y-46482000D01*
X150045000Y-46482000D01*
X148647316Y-46482000D01*
X148475891Y-46367458D01*
X148389082Y-46350191D01*
X148711217Y-46216758D01*
X148999975Y-45928000D01*
X150045000Y-45928000D01*
X150045000Y-46228000D01*
X151003000Y-46228000D01*
X151003000Y-45137498D01*
X151257000Y-45137498D01*
X151257000Y-46228000D01*
X151277000Y-46228000D01*
X151277000Y-46482000D01*
X151257000Y-46482000D01*
X151257000Y-47572502D01*
X151424001Y-47699408D01*
X151762508Y-47533958D01*
X151976655Y-47677047D01*
X152400000Y-47761256D01*
X152823346Y-47677047D01*
X152878253Y-47640360D01*
X152972235Y-47703157D01*
X153220000Y-47752440D01*
X154120000Y-47752440D01*
X154367765Y-47703157D01*
X154577809Y-47562809D01*
X154718157Y-47352765D01*
X154767440Y-47105000D01*
X154767440Y-45605000D01*
X154718157Y-45357235D01*
X154577809Y-45147191D01*
X154367765Y-45006843D01*
X154120000Y-44957560D01*
X153220000Y-44957560D01*
X152972235Y-45006843D01*
X152878252Y-45069641D01*
X152823345Y-45032953D01*
X152400000Y-44948744D01*
X151976654Y-45032953D01*
X151762507Y-45176041D01*
X151424001Y-45010592D01*
X151257000Y-45137498D01*
X151003000Y-45137498D01*
X150835999Y-45010592D01*
X150452592Y-45197987D01*
X150176192Y-45522456D01*
X150045000Y-45928000D01*
X148999975Y-45928000D01*
X149086758Y-45841217D01*
X149290000Y-45350548D01*
X149290000Y-44819452D01*
X149086758Y-44328783D01*
X149072975Y-44315000D01*
X154469869Y-44315000D01*
X155544427Y-45389558D01*
X155587458Y-45605891D01*
X155882519Y-46047481D01*
X156324109Y-46342542D01*
X156410918Y-46359809D01*
X156088783Y-46493242D01*
X155713242Y-46868783D01*
X155510000Y-47359452D01*
X155510000Y-47890548D01*
X155713242Y-48381217D01*
X156088783Y-48756758D01*
X156579452Y-48960000D01*
X157110548Y-48960000D01*
X157601217Y-48756758D01*
X157976758Y-48381217D01*
X158180000Y-47890548D01*
X158180000Y-47359452D01*
X157976758Y-46868783D01*
X157601217Y-46493242D01*
X157279082Y-46359809D01*
X157365891Y-46342542D01*
X157807481Y-46047481D01*
X158102542Y-45605891D01*
X158125594Y-45490000D01*
X160412560Y-45490000D01*
X160412560Y-48490000D01*
X160461843Y-48737765D01*
X160602191Y-48947809D01*
X160812235Y-49088157D01*
X161060000Y-49137440D01*
X164060000Y-49137440D01*
X164307765Y-49088157D01*
X164517809Y-48947809D01*
X164658157Y-48737765D01*
X164707440Y-48490000D01*
X164707440Y-45490000D01*
X164658157Y-45242235D01*
X164517809Y-45032191D01*
X164307765Y-44891843D01*
X164060000Y-44842560D01*
X161060000Y-44842560D01*
X160812235Y-44891843D01*
X160602191Y-45032191D01*
X160461843Y-45242235D01*
X160412560Y-45490000D01*
X158125594Y-45490000D01*
X158206154Y-45085000D01*
X158102542Y-44564109D01*
X157807481Y-44122519D01*
X157365891Y-43827458D01*
X157149558Y-43784427D01*
X155821613Y-42456482D01*
X155758289Y-42361711D01*
X155382855Y-42110854D01*
X155051783Y-42045000D01*
X154940000Y-42022765D01*
X154828217Y-42045000D01*
X147431783Y-42045000D01*
X147320000Y-42022765D01*
X147002407Y-42085938D01*
X146877145Y-42110854D01*
X146501711Y-42361711D01*
X146438389Y-42456479D01*
X145110442Y-43784426D01*
X144894109Y-43827458D01*
X144452519Y-44122519D01*
X144157458Y-44564109D01*
X144053846Y-45085000D01*
X144157458Y-45605891D01*
X144452519Y-46047481D01*
X144894109Y-46342542D01*
X144980918Y-46359809D01*
X144658783Y-46493242D01*
X144283242Y-46868783D01*
X144080000Y-47359452D01*
X144080000Y-47842772D01*
X143182772Y-48740000D01*
X143109674Y-48740000D01*
X143152440Y-48525000D01*
X143152440Y-46725000D01*
X143103157Y-46477235D01*
X142962809Y-46267191D01*
X142752765Y-46126843D01*
X142737092Y-46123725D01*
X142906310Y-45954507D01*
X143140000Y-45390330D01*
X143140000Y-44779670D01*
X142906310Y-44215493D01*
X142474507Y-43783690D01*
X141910330Y-43550000D01*
X141299670Y-43550000D01*
X140735493Y-43783690D01*
X140303690Y-44215493D01*
X140070000Y-44779670D01*
X140070000Y-45390330D01*
X140303690Y-45954507D01*
X140472908Y-46123725D01*
X140457235Y-46126843D01*
X140247191Y-46267191D01*
X140106843Y-46477235D01*
X140057560Y-46725000D01*
X140057560Y-48525000D01*
X140100326Y-48740000D01*
X136005000Y-48740000D01*
X136005000Y-48619506D01*
X135794147Y-48110460D01*
X135404540Y-47720853D01*
X134895494Y-47510000D01*
X134344506Y-47510000D01*
X133835460Y-47720853D01*
X133445853Y-48110460D01*
X133235000Y-48619506D01*
X129020000Y-48619506D01*
X128809147Y-48110460D01*
X128419540Y-47720853D01*
X127910494Y-47510000D01*
X127359506Y-47510000D01*
X126850460Y-47720853D01*
X126466313Y-48105000D01*
X124537805Y-48105000D01*
X124460000Y-48089524D01*
X124382195Y-48105000D01*
X124382191Y-48105000D01*
X124151757Y-48150836D01*
X124102440Y-48183789D01*
X124102440Y-46725000D01*
X124053157Y-46477235D01*
X123912809Y-46267191D01*
X123702765Y-46126843D01*
X123687092Y-46123725D01*
X123856310Y-45954507D01*
X124090000Y-45390330D01*
X124090000Y-44779670D01*
X123856310Y-44215493D01*
X123424507Y-43783690D01*
X122860330Y-43550000D01*
X122249670Y-43550000D01*
X121685493Y-43783690D01*
X121253690Y-44215493D01*
X121020000Y-44779670D01*
X121020000Y-45390330D01*
X121253690Y-45954507D01*
X121422908Y-46123725D01*
X121407235Y-46126843D01*
X121197191Y-46267191D01*
X121056843Y-46477235D01*
X121007560Y-46725000D01*
X121007560Y-48525000D01*
X121050326Y-48740000D01*
X120977228Y-48740000D01*
X120080000Y-47842772D01*
X120080000Y-47359452D01*
X119876758Y-46868783D01*
X119501217Y-46493242D01*
X119179082Y-46359809D01*
X119265891Y-46342542D01*
X119707481Y-46047481D01*
X120002542Y-45605891D01*
X120106154Y-45085000D01*
X120002542Y-44564109D01*
X119707481Y-44122519D01*
X119265891Y-43827458D01*
X119049558Y-43784427D01*
X117721613Y-42456482D01*
X117658289Y-42361711D01*
X117282855Y-42110854D01*
X117258460Y-42106002D01*
X117747576Y-41877966D01*
X118152240Y-41436417D01*
X118331036Y-41004740D01*
X118210378Y-40767000D01*
X116967000Y-40767000D01*
X116967000Y-40787000D01*
X116713000Y-40787000D01*
X116713000Y-40767000D01*
X116693000Y-40767000D01*
X116693000Y-40513000D01*
X116713000Y-40513000D01*
X116713000Y-39269003D01*
X116967000Y-39269003D01*
X116967000Y-40513000D01*
X118210378Y-40513000D01*
X118331036Y-40275260D01*
X118152240Y-39843583D01*
X117747576Y-39402034D01*
X117204742Y-39148954D01*
X116967000Y-39269003D01*
X116713000Y-39269003D01*
X116475258Y-39148954D01*
X115932424Y-39402034D01*
X115577624Y-39789174D01*
X115406673Y-39533327D01*
X114898927Y-39194062D01*
X114451182Y-39105000D01*
X114148818Y-39105000D01*
X113701073Y-39194062D01*
X113257129Y-39490696D01*
X113117809Y-39282191D01*
X112907765Y-39141843D01*
X112660000Y-39092560D01*
X110860000Y-39092560D01*
X110612235Y-39141843D01*
X110402191Y-39282191D01*
X110261843Y-39492235D01*
X110212560Y-39740000D01*
X110212560Y-41540000D01*
X110261843Y-41787765D01*
X110402191Y-41997809D01*
X110472817Y-42045000D01*
X109331783Y-42045000D01*
X109220000Y-42022765D01*
X108902407Y-42085938D01*
X108777145Y-42110854D01*
X108401711Y-42361711D01*
X108338389Y-42456479D01*
X107010442Y-43784426D01*
X106794109Y-43827458D01*
X106352519Y-44122519D01*
X106057458Y-44564109D01*
X105953846Y-45085000D01*
X102579948Y-45085000D01*
X102024678Y-44855000D01*
X101175322Y-44855000D01*
X100390620Y-45180034D01*
X99790034Y-45780620D01*
X99465000Y-46565322D01*
X90297000Y-46565322D01*
X90297000Y-39140000D01*
X99452560Y-39140000D01*
X99452560Y-42140000D01*
X99501843Y-42387765D01*
X99642191Y-42597809D01*
X99852235Y-42738157D01*
X100100000Y-42787440D01*
X103100000Y-42787440D01*
X103347765Y-42738157D01*
X103557809Y-42597809D01*
X103698157Y-42387765D01*
X103747440Y-42140000D01*
X103747440Y-39140000D01*
X103698157Y-38892235D01*
X103557809Y-38682191D01*
X103347765Y-38541843D01*
X103100000Y-38492560D01*
X100100000Y-38492560D01*
X99852235Y-38541843D01*
X99642191Y-38682191D01*
X99501843Y-38892235D01*
X99452560Y-39140000D01*
X90297000Y-39140000D01*
X90297000Y-35135322D01*
X99465000Y-35135322D01*
X99465000Y-35984678D01*
X99790034Y-36769380D01*
X100390620Y-37369966D01*
X101175322Y-37695000D01*
X102024678Y-37695000D01*
X102809380Y-37369966D01*
X103409966Y-36769380D01*
X103735000Y-35984678D01*
X103735000Y-35135322D01*
X103409966Y-34350620D01*
X102809380Y-33750034D01*
X102579948Y-33655000D01*
X105953846Y-33655000D01*
X106057458Y-34175891D01*
X106352519Y-34617481D01*
X106794109Y-34912542D01*
X106880918Y-34929809D01*
X106558783Y-35063242D01*
X106183242Y-35438783D01*
X105980000Y-35929452D01*
X105980000Y-36460548D01*
X106183242Y-36951217D01*
X106558783Y-37326758D01*
X107049452Y-37530000D01*
X107580548Y-37530000D01*
X108071217Y-37326758D01*
X108446758Y-36951217D01*
X108650000Y-36460548D01*
X108650000Y-35929452D01*
X108446758Y-35438783D01*
X108071217Y-35063242D01*
X107749082Y-34929809D01*
X107835891Y-34912542D01*
X107989355Y-34810000D01*
X109392560Y-34810000D01*
X109392560Y-36310000D01*
X109441843Y-36557765D01*
X109582191Y-36767809D01*
X109792235Y-36908157D01*
X110040000Y-36957440D01*
X110940000Y-36957440D01*
X111187765Y-36908157D01*
X111281747Y-36845360D01*
X111336654Y-36882047D01*
X111760000Y-36966256D01*
X112183345Y-36882047D01*
X112397492Y-36738959D01*
X112735999Y-36904408D01*
X112903000Y-36777502D01*
X112903000Y-35687000D01*
X113157000Y-35687000D01*
X113157000Y-36777502D01*
X113324001Y-36904408D01*
X113707408Y-36717013D01*
X113983808Y-36392544D01*
X114047712Y-36195000D01*
X114843846Y-36195000D01*
X114947458Y-36715891D01*
X115242519Y-37157481D01*
X115684109Y-37452542D01*
X116073515Y-37530000D01*
X116336485Y-37530000D01*
X116725891Y-37452542D01*
X117167481Y-37157481D01*
X117462542Y-36715891D01*
X117479809Y-36629082D01*
X117613242Y-36951217D01*
X117988783Y-37326758D01*
X118479452Y-37530000D01*
X118962772Y-37530000D01*
X120036366Y-38603594D01*
X120080442Y-38669558D01*
X120341757Y-38844164D01*
X120556467Y-38886872D01*
X120502759Y-38922759D01*
X120262953Y-39281655D01*
X120200000Y-39598140D01*
X120200000Y-40411861D01*
X120262954Y-40728346D01*
X120502760Y-41087241D01*
X120861655Y-41327047D01*
X121285000Y-41411256D01*
X121708346Y-41327047D01*
X121920001Y-41185624D01*
X122131655Y-41327047D01*
X122555000Y-41411256D01*
X122978346Y-41327047D01*
X123033253Y-41290360D01*
X123127235Y-41353157D01*
X123375000Y-41402440D01*
X124275000Y-41402440D01*
X124522765Y-41353157D01*
X124732809Y-41212809D01*
X124873157Y-41002765D01*
X124922440Y-40755000D01*
X124922440Y-39255000D01*
X124873157Y-39007235D01*
X124794822Y-38890000D01*
X124980000Y-38890000D01*
X124980000Y-39010494D01*
X125190853Y-39519540D01*
X125580460Y-39909147D01*
X126089506Y-40120000D01*
X126640494Y-40120000D01*
X127149540Y-39909147D01*
X127168687Y-39890000D01*
X139237560Y-39890000D01*
X139237560Y-41390000D01*
X139286843Y-41637765D01*
X139427191Y-41847809D01*
X139637235Y-41988157D01*
X139885000Y-42037440D01*
X140785000Y-42037440D01*
X141032765Y-41988157D01*
X141126747Y-41925360D01*
X141181654Y-41962047D01*
X141605000Y-42046256D01*
X142028345Y-41962047D01*
X142240000Y-41820624D01*
X142451654Y-41962047D01*
X142875000Y-42046256D01*
X143298345Y-41962047D01*
X143657241Y-41722241D01*
X143897047Y-41363346D01*
X143960000Y-41046861D01*
X143960000Y-40369740D01*
X145828964Y-40369740D01*
X146007760Y-40801417D01*
X146412424Y-41242966D01*
X146955258Y-41496046D01*
X147193000Y-41375997D01*
X147193000Y-40132000D01*
X145949622Y-40132000D01*
X145828964Y-40369740D01*
X143960000Y-40369740D01*
X143960000Y-40233140D01*
X143897047Y-39916655D01*
X143712367Y-39640260D01*
X145828964Y-39640260D01*
X145949622Y-39878000D01*
X147193000Y-39878000D01*
X147193000Y-38634003D01*
X147447000Y-38634003D01*
X147447000Y-39878000D01*
X147467000Y-39878000D01*
X147467000Y-40132000D01*
X147447000Y-40132000D01*
X147447000Y-41375997D01*
X147684742Y-41496046D01*
X148227576Y-41242966D01*
X148582376Y-40855826D01*
X148753327Y-41111673D01*
X149261073Y-41450938D01*
X149708818Y-41540000D01*
X150011182Y-41540000D01*
X150458927Y-41450938D01*
X150902871Y-41154304D01*
X151042191Y-41362809D01*
X151252235Y-41503157D01*
X151500000Y-41552440D01*
X153300000Y-41552440D01*
X153547765Y-41503157D01*
X153757809Y-41362809D01*
X153898157Y-41152765D01*
X153947440Y-40905000D01*
X153947440Y-40215322D01*
X160425000Y-40215322D01*
X160425000Y-41064678D01*
X160750034Y-41849380D01*
X161350620Y-42449966D01*
X162135322Y-42775000D01*
X162984678Y-42775000D01*
X163769380Y-42449966D01*
X164369966Y-41849380D01*
X164695000Y-41064678D01*
X164695000Y-40215322D01*
X164369966Y-39430620D01*
X163769380Y-38830034D01*
X162984678Y-38505000D01*
X162135322Y-38505000D01*
X161350620Y-38830034D01*
X160750034Y-39430620D01*
X160425000Y-40215322D01*
X153947440Y-40215322D01*
X153947440Y-39105000D01*
X153898157Y-38857235D01*
X153757809Y-38647191D01*
X153547765Y-38506843D01*
X153300000Y-38457560D01*
X151500000Y-38457560D01*
X151252235Y-38506843D01*
X151042191Y-38647191D01*
X150902871Y-38855696D01*
X150458927Y-38559062D01*
X150011182Y-38470000D01*
X149708818Y-38470000D01*
X149261073Y-38559062D01*
X148753327Y-38898327D01*
X148582376Y-39154174D01*
X148227576Y-38767034D01*
X147684742Y-38513954D01*
X147447000Y-38634003D01*
X147193000Y-38634003D01*
X146955258Y-38513954D01*
X146412424Y-38767034D01*
X146007760Y-39208583D01*
X145828964Y-39640260D01*
X143712367Y-39640260D01*
X143657241Y-39557759D01*
X143298346Y-39317953D01*
X142875000Y-39233744D01*
X142451655Y-39317953D01*
X142240001Y-39459376D01*
X142028346Y-39317953D01*
X141605000Y-39233744D01*
X141181655Y-39317953D01*
X141126748Y-39354641D01*
X141032765Y-39291843D01*
X140785000Y-39242560D01*
X139885000Y-39242560D01*
X139637235Y-39291843D01*
X139427191Y-39432191D01*
X139286843Y-39642235D01*
X139237560Y-39890000D01*
X127168687Y-39890000D01*
X127539147Y-39519540D01*
X127750000Y-39010494D01*
X127750000Y-38459506D01*
X127639352Y-38192377D01*
X127680302Y-38233327D01*
X127913691Y-38330000D01*
X129254250Y-38330000D01*
X129413000Y-38171250D01*
X129413000Y-36322000D01*
X129667000Y-36322000D01*
X129667000Y-38171250D01*
X129825750Y-38330000D01*
X131166309Y-38330000D01*
X131399698Y-38233327D01*
X131578327Y-38054699D01*
X131675000Y-37821310D01*
X131675000Y-36480750D01*
X131516250Y-36322000D01*
X129667000Y-36322000D01*
X129413000Y-36322000D01*
X127563750Y-36322000D01*
X127405000Y-36480750D01*
X127405000Y-37816313D01*
X127149540Y-37560853D01*
X126640494Y-37350000D01*
X126089506Y-37350000D01*
X126052469Y-37365341D01*
X126038243Y-37355836D01*
X125807809Y-37310000D01*
X125807805Y-37310000D01*
X125730000Y-37294524D01*
X125652195Y-37310000D01*
X124059674Y-37310000D01*
X124102440Y-37095000D01*
X124102440Y-35295000D01*
X124053157Y-35047235D01*
X123912809Y-34837191D01*
X123702765Y-34696843D01*
X123687092Y-34693725D01*
X123812127Y-34568690D01*
X127405000Y-34568690D01*
X127405000Y-35909250D01*
X127563750Y-36068000D01*
X129413000Y-36068000D01*
X129413000Y-34218750D01*
X129667000Y-34218750D01*
X129667000Y-36068000D01*
X131516250Y-36068000D01*
X131675000Y-35909250D01*
X131675000Y-35770322D01*
X132485000Y-35770322D01*
X132485000Y-36619678D01*
X132810034Y-37404380D01*
X133410620Y-38004966D01*
X134195322Y-38330000D01*
X135044678Y-38330000D01*
X135829380Y-38004966D01*
X136009840Y-37824506D01*
X136410000Y-37824506D01*
X136410000Y-38375494D01*
X136620853Y-38884540D01*
X137010460Y-39274147D01*
X137519506Y-39485000D01*
X138070494Y-39485000D01*
X138579540Y-39274147D01*
X138963687Y-38890000D01*
X143432195Y-38890000D01*
X143510000Y-38905476D01*
X143587805Y-38890000D01*
X143587809Y-38890000D01*
X143818243Y-38844164D01*
X144079558Y-38669558D01*
X144123634Y-38603594D01*
X145197228Y-37530000D01*
X145680548Y-37530000D01*
X146171217Y-37326758D01*
X146546758Y-36951217D01*
X146680191Y-36629082D01*
X146697458Y-36715891D01*
X146992519Y-37157481D01*
X147434109Y-37452542D01*
X147823515Y-37530000D01*
X148086485Y-37530000D01*
X148475891Y-37452542D01*
X148917481Y-37157481D01*
X149212542Y-36715891D01*
X149316154Y-36195000D01*
X149212542Y-35674109D01*
X148917481Y-35232519D01*
X148647316Y-35052000D01*
X150045000Y-35052000D01*
X150045000Y-35352000D01*
X150176192Y-35757544D01*
X150452592Y-36082013D01*
X150835999Y-36269408D01*
X151003000Y-36142502D01*
X151003000Y-35052000D01*
X150045000Y-35052000D01*
X148647316Y-35052000D01*
X148475891Y-34937458D01*
X148389082Y-34920191D01*
X148711217Y-34786758D01*
X148999975Y-34498000D01*
X150045000Y-34498000D01*
X150045000Y-34798000D01*
X151003000Y-34798000D01*
X151003000Y-33707498D01*
X151257000Y-33707498D01*
X151257000Y-34798000D01*
X151277000Y-34798000D01*
X151277000Y-35052000D01*
X151257000Y-35052000D01*
X151257000Y-36142502D01*
X151424001Y-36269408D01*
X151762508Y-36103958D01*
X151976655Y-36247047D01*
X152400000Y-36331256D01*
X152823346Y-36247047D01*
X152878253Y-36210360D01*
X152972235Y-36273157D01*
X153220000Y-36322440D01*
X154120000Y-36322440D01*
X154367765Y-36273157D01*
X154577809Y-36132809D01*
X154718157Y-35922765D01*
X154767440Y-35675000D01*
X154767440Y-34175000D01*
X154718157Y-33927235D01*
X154577809Y-33717191D01*
X154484735Y-33655000D01*
X155483846Y-33655000D01*
X155587458Y-34175891D01*
X155882519Y-34617481D01*
X156324109Y-34912542D01*
X156410918Y-34929809D01*
X156088783Y-35063242D01*
X155713242Y-35438783D01*
X155510000Y-35929452D01*
X155510000Y-36460548D01*
X155713242Y-36951217D01*
X156088783Y-37326758D01*
X156579452Y-37530000D01*
X157110548Y-37530000D01*
X157601217Y-37326758D01*
X157976758Y-36951217D01*
X158180000Y-36460548D01*
X158180000Y-35929452D01*
X157976758Y-35438783D01*
X157601217Y-35063242D01*
X157279082Y-34929809D01*
X157365891Y-34912542D01*
X157807481Y-34617481D01*
X158102542Y-34175891D01*
X158125594Y-34060000D01*
X160412560Y-34060000D01*
X160412560Y-37060000D01*
X160461843Y-37307765D01*
X160602191Y-37517809D01*
X160812235Y-37658157D01*
X161060000Y-37707440D01*
X164060000Y-37707440D01*
X164307765Y-37658157D01*
X164517809Y-37517809D01*
X164658157Y-37307765D01*
X164707440Y-37060000D01*
X164707440Y-34060000D01*
X164658157Y-33812235D01*
X164517809Y-33602191D01*
X164307765Y-33461843D01*
X164060000Y-33412560D01*
X161060000Y-33412560D01*
X160812235Y-33461843D01*
X160602191Y-33602191D01*
X160461843Y-33812235D01*
X160412560Y-34060000D01*
X158125594Y-34060000D01*
X158206154Y-33655000D01*
X158102542Y-33134109D01*
X157807481Y-32692519D01*
X157365891Y-32397458D01*
X156976485Y-32320000D01*
X156713515Y-32320000D01*
X156324109Y-32397458D01*
X155882519Y-32692519D01*
X155587458Y-33134109D01*
X155483846Y-33655000D01*
X154484735Y-33655000D01*
X154367765Y-33576843D01*
X154120000Y-33527560D01*
X153220000Y-33527560D01*
X152972235Y-33576843D01*
X152878252Y-33639641D01*
X152823345Y-33602953D01*
X152400000Y-33518744D01*
X151976654Y-33602953D01*
X151762507Y-33746041D01*
X151424001Y-33580592D01*
X151257000Y-33707498D01*
X151003000Y-33707498D01*
X150835999Y-33580592D01*
X150452592Y-33767987D01*
X150176192Y-34092456D01*
X150045000Y-34498000D01*
X148999975Y-34498000D01*
X149086758Y-34411217D01*
X149290000Y-33920548D01*
X149290000Y-33389452D01*
X149086758Y-32898783D01*
X148711217Y-32523242D01*
X148220548Y-32320000D01*
X147689452Y-32320000D01*
X147198783Y-32523242D01*
X146823242Y-32898783D01*
X146689809Y-33220918D01*
X146672542Y-33134109D01*
X146377481Y-32692519D01*
X145935891Y-32397458D01*
X145546485Y-32320000D01*
X145283515Y-32320000D01*
X144894109Y-32397458D01*
X144452519Y-32692519D01*
X144157458Y-33134109D01*
X144053846Y-33655000D01*
X144157458Y-34175891D01*
X144452519Y-34617481D01*
X144894109Y-34912542D01*
X144980918Y-34929809D01*
X144658783Y-35063242D01*
X144283242Y-35438783D01*
X144080000Y-35929452D01*
X144080000Y-36412772D01*
X143182772Y-37310000D01*
X143109674Y-37310000D01*
X143152440Y-37095000D01*
X143152440Y-35295000D01*
X143103157Y-35047235D01*
X142962809Y-34837191D01*
X142752765Y-34696843D01*
X142737092Y-34693725D01*
X142906310Y-34524507D01*
X143140000Y-33960330D01*
X143140000Y-33349670D01*
X142906310Y-32785493D01*
X142474507Y-32353690D01*
X141910330Y-32120000D01*
X141299670Y-32120000D01*
X140735493Y-32353690D01*
X140303690Y-32785493D01*
X140070000Y-33349670D01*
X140070000Y-33960330D01*
X140303690Y-34524507D01*
X140472908Y-34693725D01*
X140457235Y-34696843D01*
X140247191Y-34837191D01*
X140106843Y-35047235D01*
X140057560Y-35295000D01*
X140057560Y-37095000D01*
X140100326Y-37310000D01*
X138963687Y-37310000D01*
X138579540Y-36925853D01*
X138070494Y-36715000D01*
X137519506Y-36715000D01*
X137010460Y-36925853D01*
X136620853Y-37315460D01*
X136410000Y-37824506D01*
X136009840Y-37824506D01*
X136429966Y-37404380D01*
X136755000Y-36619678D01*
X136755000Y-35770322D01*
X136429966Y-34985620D01*
X135829380Y-34385034D01*
X135044678Y-34060000D01*
X134195322Y-34060000D01*
X133410620Y-34385034D01*
X132810034Y-34985620D01*
X132485000Y-35770322D01*
X131675000Y-35770322D01*
X131675000Y-34568690D01*
X131578327Y-34335301D01*
X131399698Y-34156673D01*
X131166309Y-34060000D01*
X129825750Y-34060000D01*
X129667000Y-34218750D01*
X129413000Y-34218750D01*
X129254250Y-34060000D01*
X127913691Y-34060000D01*
X127680302Y-34156673D01*
X127501673Y-34335301D01*
X127405000Y-34568690D01*
X123812127Y-34568690D01*
X123856310Y-34524507D01*
X124090000Y-33960330D01*
X124090000Y-33349670D01*
X123856310Y-32785493D01*
X123424507Y-32353690D01*
X122860330Y-32120000D01*
X122249670Y-32120000D01*
X121685493Y-32353690D01*
X121253690Y-32785493D01*
X121020000Y-33349670D01*
X121020000Y-33960330D01*
X121253690Y-34524507D01*
X121422908Y-34693725D01*
X121407235Y-34696843D01*
X121197191Y-34837191D01*
X121056843Y-35047235D01*
X121007560Y-35295000D01*
X121007560Y-37095000D01*
X121050326Y-37310000D01*
X120977228Y-37310000D01*
X120080000Y-36412772D01*
X120080000Y-35929452D01*
X119876758Y-35438783D01*
X119501217Y-35063242D01*
X119179082Y-34929809D01*
X119265891Y-34912542D01*
X119707481Y-34617481D01*
X120002542Y-34175891D01*
X120106154Y-33655000D01*
X120002542Y-33134109D01*
X119707481Y-32692519D01*
X119265891Y-32397458D01*
X118876485Y-32320000D01*
X118613515Y-32320000D01*
X118224109Y-32397458D01*
X117782519Y-32692519D01*
X117487458Y-33134109D01*
X117470191Y-33220918D01*
X117336758Y-32898783D01*
X116961217Y-32523242D01*
X116470548Y-32320000D01*
X115939452Y-32320000D01*
X115448783Y-32523242D01*
X115073242Y-32898783D01*
X114870000Y-33389452D01*
X114870000Y-33920548D01*
X115073242Y-34411217D01*
X115448783Y-34786758D01*
X115770918Y-34920191D01*
X115684109Y-34937458D01*
X115242519Y-35232519D01*
X114947458Y-35674109D01*
X114843846Y-36195000D01*
X114047712Y-36195000D01*
X114115000Y-35987000D01*
X114115000Y-35687000D01*
X113157000Y-35687000D01*
X112903000Y-35687000D01*
X112883000Y-35687000D01*
X112883000Y-35433000D01*
X112903000Y-35433000D01*
X112903000Y-34342498D01*
X113157000Y-34342498D01*
X113157000Y-35433000D01*
X114115000Y-35433000D01*
X114115000Y-35133000D01*
X113983808Y-34727456D01*
X113707408Y-34402987D01*
X113324001Y-34215592D01*
X113157000Y-34342498D01*
X112903000Y-34342498D01*
X112735999Y-34215592D01*
X112397493Y-34381041D01*
X112183346Y-34237953D01*
X111760000Y-34153744D01*
X111336655Y-34237953D01*
X111281748Y-34274641D01*
X111187765Y-34211843D01*
X110940000Y-34162560D01*
X110040000Y-34162560D01*
X109792235Y-34211843D01*
X109582191Y-34352191D01*
X109441843Y-34562235D01*
X109392560Y-34810000D01*
X107989355Y-34810000D01*
X108277481Y-34617481D01*
X108572542Y-34175891D01*
X108676154Y-33655000D01*
X108572542Y-33134109D01*
X108277481Y-32692519D01*
X107835891Y-32397458D01*
X107446485Y-32320000D01*
X107183515Y-32320000D01*
X106794109Y-32397458D01*
X106352519Y-32692519D01*
X106057458Y-33134109D01*
X105953846Y-33655000D01*
X102579948Y-33655000D01*
X102024678Y-33425000D01*
X101175322Y-33425000D01*
X100390620Y-33750034D01*
X99790034Y-34350620D01*
X99465000Y-35135322D01*
X90297000Y-35135322D01*
X90297000Y-30035431D01*
X91745000Y-30035431D01*
X91745000Y-30924569D01*
X92085259Y-31746026D01*
X92713974Y-32374741D01*
X93535431Y-32715000D01*
X94424569Y-32715000D01*
X95246026Y-32374741D01*
X95874741Y-31746026D01*
X96215000Y-30924569D01*
X96215000Y-30035431D01*
X167945000Y-30035431D01*
X167945000Y-30924569D01*
X168285259Y-31746026D01*
X168913974Y-32374741D01*
X169735431Y-32715000D01*
X170624569Y-32715000D01*
X171446026Y-32374741D01*
X172074741Y-31746026D01*
X172415000Y-30924569D01*
X172415000Y-30035431D01*
X172074741Y-29213974D01*
X171446026Y-28585259D01*
X170624569Y-28245000D01*
X169735431Y-28245000D01*
X168913974Y-28585259D01*
X168285259Y-29213974D01*
X167945000Y-30035431D01*
X96215000Y-30035431D01*
X95874741Y-29213974D01*
X95246026Y-28585259D01*
X94424569Y-28245000D01*
X93535431Y-28245000D01*
X92713974Y-28585259D01*
X92085259Y-29213974D01*
X91745000Y-30035431D01*
X90297000Y-30035431D01*
X90297000Y-26797000D01*
X173863000Y-26797000D01*
X173863000Y-84963000D01*
G04 #@! TD*
M02*
