%FSLAX45Y45*%
G04 Gerber Fmt 4.5, Leading zero omitted, Abs format (unit mm)*
G04 Created by KiCad (PCBNEW (5.0.2)-1) date 09/11/2019 15:08:38*
%MOMM*%
%LPD*%
G01*
G04 APERTURE LIST*
%ADD10C,0.150000*%
%ADD11C,0.200000*%
%ADD12C,0.300000*%
G04 APERTURE END LIST*
D10*
X9398000Y-2794000D02*
X9398000Y-8509000D01*
X17018000Y-2794000D02*
X9398000Y-2794000D01*
X17018000Y-8509000D02*
X17018000Y-2794000D01*
X9398000Y-8509000D02*
X17018000Y-8509000D01*
D11*
X9619000Y-7968000D02*
X9939000Y-8288000D01*
X9939000Y-7968000D02*
X9619000Y-8288000D01*
X9619000Y-3015000D02*
X9939000Y-3335000D01*
X9939000Y-3015000D02*
X9619000Y-3335000D01*
X16477000Y-3015000D02*
X16797000Y-3335000D01*
X16797000Y-3015000D02*
X16477000Y-3335000D01*
X16477000Y-7968000D02*
X16797000Y-8288000D01*
X16797000Y-7968000D02*
X16477000Y-8288000D01*
D12*
X9676928Y-8982214D02*
X9676928Y-8682214D01*
X9748357Y-8682214D01*
X9791214Y-8696500D01*
X9819786Y-8725072D01*
X9834071Y-8753643D01*
X9848357Y-8810786D01*
X9848357Y-8853643D01*
X9834071Y-8910786D01*
X9819786Y-8939357D01*
X9791214Y-8967929D01*
X9748357Y-8982214D01*
X9676928Y-8982214D01*
X9976928Y-8982214D02*
X9976928Y-8782214D01*
X9976928Y-8839357D02*
X9991214Y-8810786D01*
X10005500Y-8796500D01*
X10034071Y-8782214D01*
X10062643Y-8782214D01*
X10162643Y-8982214D02*
X10162643Y-8782214D01*
X10162643Y-8682214D02*
X10148357Y-8696500D01*
X10162643Y-8710786D01*
X10176928Y-8696500D01*
X10162643Y-8682214D01*
X10162643Y-8710786D01*
X10348357Y-8982214D02*
X10319786Y-8967929D01*
X10305500Y-8939357D01*
X10305500Y-8682214D01*
X10505500Y-8982214D02*
X10476928Y-8967929D01*
X10462643Y-8939357D01*
X10462643Y-8682214D01*
X10848357Y-8982214D02*
X10848357Y-8682214D01*
X10948357Y-8896500D01*
X11048357Y-8682214D01*
X11048357Y-8982214D01*
X11319786Y-8982214D02*
X11319786Y-8825072D01*
X11305500Y-8796500D01*
X11276928Y-8782214D01*
X11219786Y-8782214D01*
X11191214Y-8796500D01*
X11319786Y-8967929D02*
X11291214Y-8982214D01*
X11219786Y-8982214D01*
X11191214Y-8967929D01*
X11176928Y-8939357D01*
X11176928Y-8910786D01*
X11191214Y-8882214D01*
X11219786Y-8867929D01*
X11291214Y-8867929D01*
X11319786Y-8853643D01*
X11462643Y-8782214D02*
X11462643Y-9082214D01*
X11462643Y-8796500D02*
X11491214Y-8782214D01*
X11548357Y-8782214D01*
X11576928Y-8796500D01*
X11591214Y-8810786D01*
X11605500Y-8839357D01*
X11605500Y-8925072D01*
X11591214Y-8953643D01*
X11576928Y-8967929D01*
X11548357Y-8982214D01*
X11491214Y-8982214D01*
X11462643Y-8967929D01*
X11734071Y-8953643D02*
X11748357Y-8967929D01*
X11734071Y-8982214D01*
X11719786Y-8967929D01*
X11734071Y-8953643D01*
X11734071Y-8982214D01*
X11734071Y-8796500D02*
X11748357Y-8810786D01*
X11734071Y-8825072D01*
X11719786Y-8810786D01*
X11734071Y-8796500D01*
X11734071Y-8825072D01*
X9070500Y-9316500D02*
X9390500Y-9636500D01*
X9390500Y-9316500D02*
X9070500Y-9636500D01*
X9648357Y-9312214D02*
X9834071Y-9312214D01*
X9734071Y-9426500D01*
X9776928Y-9426500D01*
X9805500Y-9440786D01*
X9819786Y-9455072D01*
X9834071Y-9483643D01*
X9834071Y-9555072D01*
X9819786Y-9583643D01*
X9805500Y-9597929D01*
X9776928Y-9612214D01*
X9691214Y-9612214D01*
X9662643Y-9597929D01*
X9648357Y-9583643D01*
X9962643Y-9583643D02*
X9976928Y-9597929D01*
X9962643Y-9612214D01*
X9948357Y-9597929D01*
X9962643Y-9583643D01*
X9962643Y-9612214D01*
X10091214Y-9340786D02*
X10105500Y-9326500D01*
X10134071Y-9312214D01*
X10205500Y-9312214D01*
X10234071Y-9326500D01*
X10248357Y-9340786D01*
X10262643Y-9369357D01*
X10262643Y-9397929D01*
X10248357Y-9440786D01*
X10076928Y-9612214D01*
X10262643Y-9612214D01*
X10448357Y-9312214D02*
X10476928Y-9312214D01*
X10505500Y-9326500D01*
X10519786Y-9340786D01*
X10534071Y-9369357D01*
X10548357Y-9426500D01*
X10548357Y-9497929D01*
X10534071Y-9555072D01*
X10519786Y-9583643D01*
X10505500Y-9597929D01*
X10476928Y-9612214D01*
X10448357Y-9612214D01*
X10419786Y-9597929D01*
X10405500Y-9583643D01*
X10391214Y-9555072D01*
X10376928Y-9497929D01*
X10376928Y-9426500D01*
X10391214Y-9369357D01*
X10405500Y-9340786D01*
X10419786Y-9326500D01*
X10448357Y-9312214D01*
X10676928Y-9612214D02*
X10676928Y-9412214D01*
X10676928Y-9440786D02*
X10691214Y-9426500D01*
X10719786Y-9412214D01*
X10762643Y-9412214D01*
X10791214Y-9426500D01*
X10805500Y-9455072D01*
X10805500Y-9612214D01*
X10805500Y-9455072D02*
X10819786Y-9426500D01*
X10848357Y-9412214D01*
X10891214Y-9412214D01*
X10919786Y-9426500D01*
X10934071Y-9455072D01*
X10934071Y-9612214D01*
X11076928Y-9612214D02*
X11076928Y-9412214D01*
X11076928Y-9440786D02*
X11091214Y-9426500D01*
X11119786Y-9412214D01*
X11162643Y-9412214D01*
X11191214Y-9426500D01*
X11205500Y-9455072D01*
X11205500Y-9612214D01*
X11205500Y-9455072D02*
X11219786Y-9426500D01*
X11248357Y-9412214D01*
X11291214Y-9412214D01*
X11319786Y-9426500D01*
X11334071Y-9455072D01*
X11334071Y-9612214D01*
X11919786Y-9297929D02*
X11662643Y-9683643D01*
X12305500Y-9312214D02*
X12334071Y-9312214D01*
X12362643Y-9326500D01*
X12376928Y-9340786D01*
X12391214Y-9369357D01*
X12405500Y-9426500D01*
X12405500Y-9497929D01*
X12391214Y-9555072D01*
X12376928Y-9583643D01*
X12362643Y-9597929D01*
X12334071Y-9612214D01*
X12305500Y-9612214D01*
X12276928Y-9597929D01*
X12262643Y-9583643D01*
X12248357Y-9555072D01*
X12234071Y-9497929D01*
X12234071Y-9426500D01*
X12248357Y-9369357D01*
X12262643Y-9340786D01*
X12276928Y-9326500D01*
X12305500Y-9312214D01*
X12534071Y-9583643D02*
X12548357Y-9597929D01*
X12534071Y-9612214D01*
X12519786Y-9597929D01*
X12534071Y-9583643D01*
X12534071Y-9612214D01*
X12834071Y-9612214D02*
X12662643Y-9612214D01*
X12748357Y-9612214D02*
X12748357Y-9312214D01*
X12719786Y-9355072D01*
X12691214Y-9383643D01*
X12662643Y-9397929D01*
X12948357Y-9340786D02*
X12962643Y-9326500D01*
X12991214Y-9312214D01*
X13062643Y-9312214D01*
X13091214Y-9326500D01*
X13105500Y-9340786D01*
X13119786Y-9369357D01*
X13119786Y-9397929D01*
X13105500Y-9440786D01*
X12934071Y-9612214D01*
X13119786Y-9612214D01*
X13376928Y-9312214D02*
X13319786Y-9312214D01*
X13291214Y-9326500D01*
X13276928Y-9340786D01*
X13248357Y-9383643D01*
X13234071Y-9440786D01*
X13234071Y-9555072D01*
X13248357Y-9583643D01*
X13262643Y-9597929D01*
X13291214Y-9612214D01*
X13348357Y-9612214D01*
X13376928Y-9597929D01*
X13391214Y-9583643D01*
X13405500Y-9555072D01*
X13405500Y-9483643D01*
X13391214Y-9455072D01*
X13376928Y-9440786D01*
X13348357Y-9426500D01*
X13291214Y-9426500D01*
X13262643Y-9440786D01*
X13248357Y-9455072D01*
X13234071Y-9483643D01*
X13519786Y-9312214D02*
X13519786Y-9369357D01*
X13634071Y-9312214D02*
X13634071Y-9369357D01*
X14076928Y-9726500D02*
X14062643Y-9712214D01*
X14034071Y-9669357D01*
X14019786Y-9640786D01*
X14005500Y-9597929D01*
X13991214Y-9526500D01*
X13991214Y-9469357D01*
X14005500Y-9397929D01*
X14019786Y-9355072D01*
X14034071Y-9326500D01*
X14062643Y-9283643D01*
X14076928Y-9269357D01*
X14319786Y-9412214D02*
X14319786Y-9612214D01*
X14248357Y-9297929D02*
X14176928Y-9512214D01*
X14362643Y-9512214D01*
X14705500Y-9612214D02*
X14705500Y-9312214D01*
X14834071Y-9612214D02*
X14834071Y-9455072D01*
X14819786Y-9426500D01*
X14791214Y-9412214D01*
X14748357Y-9412214D01*
X14719786Y-9426500D01*
X14705500Y-9440786D01*
X15019786Y-9612214D02*
X14991214Y-9597929D01*
X14976928Y-9583643D01*
X14962643Y-9555072D01*
X14962643Y-9469357D01*
X14976928Y-9440786D01*
X14991214Y-9426500D01*
X15019786Y-9412214D01*
X15062643Y-9412214D01*
X15091214Y-9426500D01*
X15105500Y-9440786D01*
X15119786Y-9469357D01*
X15119786Y-9555072D01*
X15105500Y-9583643D01*
X15091214Y-9597929D01*
X15062643Y-9612214D01*
X15019786Y-9612214D01*
X15291214Y-9612214D02*
X15262643Y-9597929D01*
X15248357Y-9569357D01*
X15248357Y-9312214D01*
X15519786Y-9597929D02*
X15491214Y-9612214D01*
X15434071Y-9612214D01*
X15405500Y-9597929D01*
X15391214Y-9569357D01*
X15391214Y-9455072D01*
X15405500Y-9426500D01*
X15434071Y-9412214D01*
X15491214Y-9412214D01*
X15519786Y-9426500D01*
X15534071Y-9455072D01*
X15534071Y-9483643D01*
X15391214Y-9512214D01*
X15648357Y-9597929D02*
X15676928Y-9612214D01*
X15734071Y-9612214D01*
X15762643Y-9597929D01*
X15776928Y-9569357D01*
X15776928Y-9555072D01*
X15762643Y-9526500D01*
X15734071Y-9512214D01*
X15691214Y-9512214D01*
X15662643Y-9497929D01*
X15648357Y-9469357D01*
X15648357Y-9455072D01*
X15662643Y-9426500D01*
X15691214Y-9412214D01*
X15734071Y-9412214D01*
X15762643Y-9426500D01*
X15876928Y-9726500D02*
X15891214Y-9712214D01*
X15919786Y-9669357D01*
X15934071Y-9640786D01*
X15948357Y-9597929D01*
X15962643Y-9526500D01*
X15962643Y-9469357D01*
X15948357Y-9397929D01*
X15934071Y-9355072D01*
X15919786Y-9326500D01*
X15891214Y-9283643D01*
X15876928Y-9269357D01*
X16419786Y-9726500D02*
X16405500Y-9712214D01*
X16376928Y-9669357D01*
X16362643Y-9640786D01*
X16348357Y-9597929D01*
X16334071Y-9526500D01*
X16334071Y-9469357D01*
X16348357Y-9397929D01*
X16362643Y-9355072D01*
X16376928Y-9326500D01*
X16405500Y-9283643D01*
X16419786Y-9269357D01*
X16534071Y-9412214D02*
X16534071Y-9612214D01*
X16534071Y-9440786D02*
X16548357Y-9426500D01*
X16576928Y-9412214D01*
X16619786Y-9412214D01*
X16648357Y-9426500D01*
X16662643Y-9455072D01*
X16662643Y-9612214D01*
X16848357Y-9612214D02*
X16819786Y-9597929D01*
X16805500Y-9583643D01*
X16791214Y-9555072D01*
X16791214Y-9469357D01*
X16805500Y-9440786D01*
X16819786Y-9426500D01*
X16848357Y-9412214D01*
X16891214Y-9412214D01*
X16919786Y-9426500D01*
X16934071Y-9440786D01*
X16948357Y-9469357D01*
X16948357Y-9555072D01*
X16934071Y-9583643D01*
X16919786Y-9597929D01*
X16891214Y-9612214D01*
X16848357Y-9612214D01*
X17034071Y-9412214D02*
X17148357Y-9412214D01*
X17076928Y-9312214D02*
X17076928Y-9569357D01*
X17091214Y-9597929D01*
X17119786Y-9612214D01*
X17148357Y-9612214D01*
X17476928Y-9412214D02*
X17476928Y-9712214D01*
X17476928Y-9426500D02*
X17505500Y-9412214D01*
X17562643Y-9412214D01*
X17591214Y-9426500D01*
X17605500Y-9440786D01*
X17619786Y-9469357D01*
X17619786Y-9555072D01*
X17605500Y-9583643D01*
X17591214Y-9597929D01*
X17562643Y-9612214D01*
X17505500Y-9612214D01*
X17476928Y-9597929D01*
X17791214Y-9612214D02*
X17762643Y-9597929D01*
X17748357Y-9569357D01*
X17748357Y-9312214D01*
X18034071Y-9612214D02*
X18034071Y-9455072D01*
X18019786Y-9426500D01*
X17991214Y-9412214D01*
X17934071Y-9412214D01*
X17905500Y-9426500D01*
X18034071Y-9597929D02*
X18005500Y-9612214D01*
X17934071Y-9612214D01*
X17905500Y-9597929D01*
X17891214Y-9569357D01*
X17891214Y-9540786D01*
X17905500Y-9512214D01*
X17934071Y-9497929D01*
X18005500Y-9497929D01*
X18034071Y-9483643D01*
X18134071Y-9412214D02*
X18248357Y-9412214D01*
X18176928Y-9312214D02*
X18176928Y-9569357D01*
X18191214Y-9597929D01*
X18219786Y-9612214D01*
X18248357Y-9612214D01*
X18462643Y-9597929D02*
X18434071Y-9612214D01*
X18376928Y-9612214D01*
X18348357Y-9597929D01*
X18334071Y-9569357D01*
X18334071Y-9455072D01*
X18348357Y-9426500D01*
X18376928Y-9412214D01*
X18434071Y-9412214D01*
X18462643Y-9426500D01*
X18476928Y-9455072D01*
X18476928Y-9483643D01*
X18334071Y-9512214D01*
X18734071Y-9612214D02*
X18734071Y-9312214D01*
X18734071Y-9597929D02*
X18705500Y-9612214D01*
X18648357Y-9612214D01*
X18619786Y-9597929D01*
X18605500Y-9583643D01*
X18591214Y-9555072D01*
X18591214Y-9469357D01*
X18605500Y-9440786D01*
X18619786Y-9426500D01*
X18648357Y-9412214D01*
X18705500Y-9412214D01*
X18734071Y-9426500D01*
X18848357Y-9726500D02*
X18862643Y-9712214D01*
X18891214Y-9669357D01*
X18905500Y-9640786D01*
X18919786Y-9597929D01*
X18934071Y-9526500D01*
X18934071Y-9469357D01*
X18919786Y-9397929D01*
X18905500Y-9355072D01*
X18891214Y-9326500D01*
X18862643Y-9283643D01*
X18848357Y-9269357D01*
M02*
