G04 #@! TF.GenerationSoftware,KiCad,Pcbnew,(5.0.2)-1*
G04 #@! TF.CreationDate,2018-12-23T18:59:39+01:00*
G04 #@! TF.ProjectId,MultiSwitch_MosFet,4d756c74-6953-4776-9974-63685f4d6f73,0.1*
G04 #@! TF.SameCoordinates,Original*
G04 #@! TF.FileFunction,Soldermask,Bot*
G04 #@! TF.FilePolarity,Negative*
%FSLAX46Y46*%
G04 Gerber Fmt 4.6, Leading zero omitted, Abs format (unit mm)*
G04 Created by KiCad (PCBNEW (5.0.2)-1) date 23/12/2018 18:59:39*
%MOMM*%
%LPD*%
G01*
G04 APERTURE LIST*
%ADD10C,0.100000*%
G04 APERTURE END LIST*
D10*
G36*
X139857024Y-81610590D02*
X140008011Y-81656392D01*
X140147161Y-81730768D01*
X140208148Y-81780819D01*
X140269133Y-81830867D01*
X140269134Y-81830869D01*
X140269136Y-81830870D01*
X140369230Y-81952835D01*
X140443608Y-82091988D01*
X140489410Y-82242975D01*
X140501000Y-82360654D01*
X140501000Y-82739345D01*
X140489410Y-82857024D01*
X140443608Y-83008013D01*
X140369230Y-83147165D01*
X140269133Y-83269133D01*
X140147165Y-83369230D01*
X140008012Y-83443608D01*
X139857025Y-83489410D01*
X139700000Y-83504875D01*
X139542976Y-83489410D01*
X139391989Y-83443608D01*
X139252836Y-83369230D01*
X139167624Y-83299298D01*
X139130867Y-83269133D01*
X139080819Y-83208149D01*
X139030770Y-83147165D01*
X138956392Y-83008012D01*
X138910590Y-82857025D01*
X138899000Y-82739346D01*
X138899000Y-82360655D01*
X138910590Y-82242976D01*
X138956392Y-82091989D01*
X139030768Y-81952839D01*
X139130865Y-81830870D01*
X139130867Y-81830867D01*
X139130869Y-81830866D01*
X139130870Y-81830864D01*
X139252835Y-81730770D01*
X139391988Y-81656392D01*
X139542975Y-81610590D01*
X139700000Y-81595125D01*
X139857024Y-81610590D01*
X139857024Y-81610590D01*
G37*
G36*
X127157024Y-81610590D02*
X127308011Y-81656392D01*
X127447161Y-81730768D01*
X127508148Y-81780819D01*
X127569133Y-81830867D01*
X127569134Y-81830869D01*
X127569136Y-81830870D01*
X127669230Y-81952835D01*
X127743608Y-82091988D01*
X127789410Y-82242975D01*
X127801000Y-82360654D01*
X127801000Y-82739345D01*
X127789410Y-82857024D01*
X127743608Y-83008013D01*
X127669230Y-83147165D01*
X127569133Y-83269133D01*
X127447165Y-83369230D01*
X127308012Y-83443608D01*
X127157025Y-83489410D01*
X127000000Y-83504875D01*
X126842976Y-83489410D01*
X126691989Y-83443608D01*
X126552836Y-83369230D01*
X126467624Y-83299298D01*
X126430867Y-83269133D01*
X126380819Y-83208149D01*
X126330770Y-83147165D01*
X126256392Y-83008012D01*
X126210590Y-82857025D01*
X126199000Y-82739346D01*
X126199000Y-82360655D01*
X126210590Y-82242976D01*
X126256392Y-82091989D01*
X126330768Y-81952839D01*
X126430865Y-81830870D01*
X126430867Y-81830867D01*
X126430869Y-81830866D01*
X126430870Y-81830864D01*
X126552835Y-81730770D01*
X126691988Y-81656392D01*
X126842975Y-81610590D01*
X127000000Y-81595125D01*
X127157024Y-81610590D01*
X127157024Y-81610590D01*
G37*
G36*
X124617024Y-81610590D02*
X124768011Y-81656392D01*
X124907161Y-81730768D01*
X124968148Y-81780819D01*
X125029133Y-81830867D01*
X125029134Y-81830869D01*
X125029136Y-81830870D01*
X125129230Y-81952835D01*
X125203608Y-82091988D01*
X125249410Y-82242975D01*
X125261000Y-82360654D01*
X125261000Y-82739345D01*
X125249410Y-82857024D01*
X125203608Y-83008013D01*
X125129230Y-83147165D01*
X125029133Y-83269133D01*
X124907165Y-83369230D01*
X124768012Y-83443608D01*
X124617025Y-83489410D01*
X124460000Y-83504875D01*
X124302976Y-83489410D01*
X124151989Y-83443608D01*
X124012836Y-83369230D01*
X123927624Y-83299298D01*
X123890867Y-83269133D01*
X123840819Y-83208149D01*
X123790770Y-83147165D01*
X123716392Y-83008012D01*
X123670590Y-82857025D01*
X123659000Y-82739346D01*
X123659000Y-82360655D01*
X123670590Y-82242976D01*
X123716392Y-82091989D01*
X123790768Y-81952839D01*
X123890865Y-81830870D01*
X123890867Y-81830867D01*
X123890869Y-81830866D01*
X123890870Y-81830864D01*
X124012835Y-81730770D01*
X124151988Y-81656392D01*
X124302975Y-81610590D01*
X124460000Y-81595125D01*
X124617024Y-81610590D01*
X124617024Y-81610590D01*
G37*
G36*
X129697024Y-81610590D02*
X129848011Y-81656392D01*
X129987161Y-81730768D01*
X130048148Y-81780819D01*
X130109133Y-81830867D01*
X130109134Y-81830869D01*
X130109136Y-81830870D01*
X130209230Y-81952835D01*
X130283608Y-82091988D01*
X130329410Y-82242975D01*
X130341000Y-82360654D01*
X130341000Y-82739345D01*
X130329410Y-82857024D01*
X130283608Y-83008013D01*
X130209230Y-83147165D01*
X130109133Y-83269133D01*
X129987165Y-83369230D01*
X129848012Y-83443608D01*
X129697025Y-83489410D01*
X129540000Y-83504875D01*
X129382976Y-83489410D01*
X129231989Y-83443608D01*
X129092836Y-83369230D01*
X129007624Y-83299298D01*
X128970867Y-83269133D01*
X128920819Y-83208149D01*
X128870770Y-83147165D01*
X128796392Y-83008012D01*
X128750590Y-82857025D01*
X128739000Y-82739346D01*
X128739000Y-82360655D01*
X128750590Y-82242976D01*
X128796392Y-82091989D01*
X128870768Y-81952839D01*
X128970865Y-81830870D01*
X128970867Y-81830867D01*
X128970869Y-81830866D01*
X128970870Y-81830864D01*
X129092835Y-81730770D01*
X129231988Y-81656392D01*
X129382975Y-81610590D01*
X129540000Y-81595125D01*
X129697024Y-81610590D01*
X129697024Y-81610590D01*
G37*
G36*
X134777024Y-81610590D02*
X134928011Y-81656392D01*
X135067161Y-81730768D01*
X135128148Y-81780819D01*
X135189133Y-81830867D01*
X135189134Y-81830869D01*
X135189136Y-81830870D01*
X135289230Y-81952835D01*
X135363608Y-82091988D01*
X135409410Y-82242975D01*
X135421000Y-82360654D01*
X135421000Y-82739345D01*
X135409410Y-82857024D01*
X135363608Y-83008013D01*
X135289230Y-83147165D01*
X135189133Y-83269133D01*
X135067165Y-83369230D01*
X134928012Y-83443608D01*
X134777025Y-83489410D01*
X134620000Y-83504875D01*
X134462976Y-83489410D01*
X134311989Y-83443608D01*
X134172836Y-83369230D01*
X134087624Y-83299298D01*
X134050867Y-83269133D01*
X134000819Y-83208149D01*
X133950770Y-83147165D01*
X133876392Y-83008012D01*
X133830590Y-82857025D01*
X133819000Y-82739346D01*
X133819000Y-82360655D01*
X133830590Y-82242976D01*
X133876392Y-82091989D01*
X133950768Y-81952839D01*
X134050865Y-81830870D01*
X134050867Y-81830867D01*
X134050869Y-81830866D01*
X134050870Y-81830864D01*
X134172835Y-81730770D01*
X134311988Y-81656392D01*
X134462975Y-81610590D01*
X134620000Y-81595125D01*
X134777024Y-81610590D01*
X134777024Y-81610590D01*
G37*
G36*
X132237024Y-81610590D02*
X132388011Y-81656392D01*
X132527161Y-81730768D01*
X132588148Y-81780819D01*
X132649133Y-81830867D01*
X132649134Y-81830869D01*
X132649136Y-81830870D01*
X132749230Y-81952835D01*
X132823608Y-82091988D01*
X132869410Y-82242975D01*
X132881000Y-82360654D01*
X132881000Y-82739345D01*
X132869410Y-82857024D01*
X132823608Y-83008013D01*
X132749230Y-83147165D01*
X132649133Y-83269133D01*
X132527165Y-83369230D01*
X132388012Y-83443608D01*
X132237025Y-83489410D01*
X132080000Y-83504875D01*
X131922976Y-83489410D01*
X131771989Y-83443608D01*
X131632836Y-83369230D01*
X131547624Y-83299298D01*
X131510867Y-83269133D01*
X131460819Y-83208149D01*
X131410770Y-83147165D01*
X131336392Y-83008012D01*
X131290590Y-82857025D01*
X131279000Y-82739346D01*
X131279000Y-82360655D01*
X131290590Y-82242976D01*
X131336392Y-82091989D01*
X131410768Y-81952839D01*
X131510865Y-81830870D01*
X131510867Y-81830867D01*
X131510869Y-81830866D01*
X131510870Y-81830864D01*
X131632835Y-81730770D01*
X131771988Y-81656392D01*
X131922975Y-81610590D01*
X132080000Y-81595125D01*
X132237024Y-81610590D01*
X132237024Y-81610590D01*
G37*
G36*
X137317024Y-81610590D02*
X137468011Y-81656392D01*
X137607161Y-81730768D01*
X137668148Y-81780819D01*
X137729133Y-81830867D01*
X137729134Y-81830869D01*
X137729136Y-81830870D01*
X137829230Y-81952835D01*
X137903608Y-82091988D01*
X137949410Y-82242975D01*
X137961000Y-82360654D01*
X137961000Y-82739345D01*
X137949410Y-82857024D01*
X137903608Y-83008013D01*
X137829230Y-83147165D01*
X137729133Y-83269133D01*
X137607165Y-83369230D01*
X137468012Y-83443608D01*
X137317025Y-83489410D01*
X137160000Y-83504875D01*
X137002976Y-83489410D01*
X136851989Y-83443608D01*
X136712836Y-83369230D01*
X136627624Y-83299298D01*
X136590867Y-83269133D01*
X136540819Y-83208149D01*
X136490770Y-83147165D01*
X136416392Y-83008012D01*
X136370590Y-82857025D01*
X136359000Y-82739346D01*
X136359000Y-82360655D01*
X136370590Y-82242976D01*
X136416392Y-82091989D01*
X136490768Y-81952839D01*
X136590865Y-81830870D01*
X136590867Y-81830867D01*
X136590869Y-81830866D01*
X136590870Y-81830864D01*
X136712835Y-81730770D01*
X136851988Y-81656392D01*
X137002975Y-81610590D01*
X137160000Y-81595125D01*
X137317024Y-81610590D01*
X137317024Y-81610590D01*
G37*
G36*
X122721000Y-83501000D02*
X121119000Y-83501000D01*
X121119000Y-81599000D01*
X122721000Y-81599000D01*
X122721000Y-83501000D01*
X122721000Y-83501000D01*
G37*
G36*
X170792547Y-79260701D02*
X171174722Y-79419003D01*
X171174723Y-79419004D01*
X171518672Y-79648823D01*
X171811177Y-79941328D01*
X171964390Y-80170627D01*
X172040997Y-80285278D01*
X172199299Y-80667453D01*
X172280000Y-81073167D01*
X172280000Y-81486833D01*
X172199299Y-81892547D01*
X172040997Y-82274722D01*
X171964390Y-82389373D01*
X171811177Y-82618672D01*
X171518672Y-82911177D01*
X171373748Y-83008012D01*
X171174722Y-83140997D01*
X170792547Y-83299299D01*
X170386833Y-83380000D01*
X169973167Y-83380000D01*
X169567453Y-83299299D01*
X169185278Y-83140997D01*
X168986252Y-83008012D01*
X168841328Y-82911177D01*
X168548823Y-82618672D01*
X168395610Y-82389373D01*
X168319003Y-82274722D01*
X168160701Y-81892547D01*
X168080000Y-81486833D01*
X168080000Y-81073167D01*
X168160701Y-80667453D01*
X168319003Y-80285278D01*
X168395610Y-80170627D01*
X168548823Y-79941328D01*
X168841328Y-79648823D01*
X169185277Y-79419004D01*
X169185278Y-79419003D01*
X169567453Y-79260701D01*
X169973167Y-79180000D01*
X170386833Y-79180000D01*
X170792547Y-79260701D01*
X170792547Y-79260701D01*
G37*
G36*
X94592547Y-79260701D02*
X94974722Y-79419003D01*
X94974723Y-79419004D01*
X95318672Y-79648823D01*
X95611177Y-79941328D01*
X95764390Y-80170627D01*
X95840997Y-80285278D01*
X95999299Y-80667453D01*
X96080000Y-81073167D01*
X96080000Y-81486833D01*
X95999299Y-81892547D01*
X95840997Y-82274722D01*
X95764390Y-82389373D01*
X95611177Y-82618672D01*
X95318672Y-82911177D01*
X95173748Y-83008012D01*
X94974722Y-83140997D01*
X94592547Y-83299299D01*
X94186833Y-83380000D01*
X93773167Y-83380000D01*
X93367453Y-83299299D01*
X92985278Y-83140997D01*
X92786252Y-83008012D01*
X92641328Y-82911177D01*
X92348823Y-82618672D01*
X92195610Y-82389373D01*
X92119003Y-82274722D01*
X91960701Y-81892547D01*
X91880000Y-81486833D01*
X91880000Y-81073167D01*
X91960701Y-80667453D01*
X92119003Y-80285278D01*
X92195610Y-80170627D01*
X92348823Y-79941328D01*
X92641328Y-79648823D01*
X92985277Y-79419004D01*
X92985278Y-79419003D01*
X93367453Y-79260701D01*
X93773167Y-79180000D01*
X94186833Y-79180000D01*
X94592547Y-79260701D01*
X94592547Y-79260701D01*
G37*
G36*
X124617024Y-79070590D02*
X124768011Y-79116392D01*
X124907161Y-79190768D01*
X124968148Y-79240819D01*
X125029133Y-79290867D01*
X125029134Y-79290869D01*
X125029136Y-79290870D01*
X125129230Y-79412835D01*
X125203608Y-79551988D01*
X125249410Y-79702975D01*
X125261000Y-79820654D01*
X125261000Y-80199345D01*
X125249410Y-80317024D01*
X125203608Y-80468013D01*
X125129230Y-80607165D01*
X125029133Y-80729133D01*
X124907165Y-80829230D01*
X124768012Y-80903608D01*
X124617025Y-80949410D01*
X124460000Y-80964875D01*
X124302976Y-80949410D01*
X124151989Y-80903608D01*
X124012836Y-80829230D01*
X123945845Y-80774252D01*
X123890867Y-80729133D01*
X123840248Y-80667453D01*
X123790770Y-80607165D01*
X123716392Y-80468012D01*
X123670590Y-80317025D01*
X123659000Y-80199346D01*
X123659000Y-79820655D01*
X123670590Y-79702976D01*
X123716392Y-79551989D01*
X123790768Y-79412839D01*
X123890865Y-79290870D01*
X123890867Y-79290867D01*
X123890869Y-79290866D01*
X123890870Y-79290864D01*
X124012835Y-79190770D01*
X124151988Y-79116392D01*
X124302975Y-79070590D01*
X124460000Y-79055125D01*
X124617024Y-79070590D01*
X124617024Y-79070590D01*
G37*
G36*
X127157024Y-79070590D02*
X127308011Y-79116392D01*
X127447161Y-79190768D01*
X127508148Y-79240819D01*
X127569133Y-79290867D01*
X127569134Y-79290869D01*
X127569136Y-79290870D01*
X127669230Y-79412835D01*
X127743608Y-79551988D01*
X127789410Y-79702975D01*
X127801000Y-79820654D01*
X127801000Y-80199345D01*
X127789410Y-80317024D01*
X127743608Y-80468013D01*
X127669230Y-80607165D01*
X127569133Y-80729133D01*
X127447165Y-80829230D01*
X127308012Y-80903608D01*
X127157025Y-80949410D01*
X127000000Y-80964875D01*
X126842976Y-80949410D01*
X126691989Y-80903608D01*
X126552836Y-80829230D01*
X126485845Y-80774252D01*
X126430867Y-80729133D01*
X126380248Y-80667453D01*
X126330770Y-80607165D01*
X126256392Y-80468012D01*
X126210590Y-80317025D01*
X126199000Y-80199346D01*
X126199000Y-79820655D01*
X126210590Y-79702976D01*
X126256392Y-79551989D01*
X126330768Y-79412839D01*
X126430865Y-79290870D01*
X126430867Y-79290867D01*
X126430869Y-79290866D01*
X126430870Y-79290864D01*
X126552835Y-79190770D01*
X126691988Y-79116392D01*
X126842975Y-79070590D01*
X127000000Y-79055125D01*
X127157024Y-79070590D01*
X127157024Y-79070590D01*
G37*
G36*
X129697024Y-79070590D02*
X129848011Y-79116392D01*
X129987161Y-79190768D01*
X130048148Y-79240819D01*
X130109133Y-79290867D01*
X130109134Y-79290869D01*
X130109136Y-79290870D01*
X130209230Y-79412835D01*
X130283608Y-79551988D01*
X130329410Y-79702975D01*
X130341000Y-79820654D01*
X130341000Y-80199345D01*
X130329410Y-80317024D01*
X130283608Y-80468013D01*
X130209230Y-80607165D01*
X130109133Y-80729133D01*
X129987165Y-80829230D01*
X129848012Y-80903608D01*
X129697025Y-80949410D01*
X129540000Y-80964875D01*
X129382976Y-80949410D01*
X129231989Y-80903608D01*
X129092836Y-80829230D01*
X129025845Y-80774252D01*
X128970867Y-80729133D01*
X128920248Y-80667453D01*
X128870770Y-80607165D01*
X128796392Y-80468012D01*
X128750590Y-80317025D01*
X128739000Y-80199346D01*
X128739000Y-79820655D01*
X128750590Y-79702976D01*
X128796392Y-79551989D01*
X128870768Y-79412839D01*
X128970865Y-79290870D01*
X128970867Y-79290867D01*
X128970869Y-79290866D01*
X128970870Y-79290864D01*
X129092835Y-79190770D01*
X129231988Y-79116392D01*
X129382975Y-79070590D01*
X129540000Y-79055125D01*
X129697024Y-79070590D01*
X129697024Y-79070590D01*
G37*
G36*
X132237024Y-79070590D02*
X132388011Y-79116392D01*
X132527161Y-79190768D01*
X132588148Y-79240819D01*
X132649133Y-79290867D01*
X132649134Y-79290869D01*
X132649136Y-79290870D01*
X132749230Y-79412835D01*
X132823608Y-79551988D01*
X132869410Y-79702975D01*
X132881000Y-79820654D01*
X132881000Y-80199345D01*
X132869410Y-80317024D01*
X132823608Y-80468013D01*
X132749230Y-80607165D01*
X132649133Y-80729133D01*
X132527165Y-80829230D01*
X132388012Y-80903608D01*
X132237025Y-80949410D01*
X132080000Y-80964875D01*
X131922976Y-80949410D01*
X131771989Y-80903608D01*
X131632836Y-80829230D01*
X131565845Y-80774252D01*
X131510867Y-80729133D01*
X131460248Y-80667453D01*
X131410770Y-80607165D01*
X131336392Y-80468012D01*
X131290590Y-80317025D01*
X131279000Y-80199346D01*
X131279000Y-79820655D01*
X131290590Y-79702976D01*
X131336392Y-79551989D01*
X131410768Y-79412839D01*
X131510865Y-79290870D01*
X131510867Y-79290867D01*
X131510869Y-79290866D01*
X131510870Y-79290864D01*
X131632835Y-79190770D01*
X131771988Y-79116392D01*
X131922975Y-79070590D01*
X132080000Y-79055125D01*
X132237024Y-79070590D01*
X132237024Y-79070590D01*
G37*
G36*
X134777024Y-79070590D02*
X134928011Y-79116392D01*
X135067161Y-79190768D01*
X135128148Y-79240819D01*
X135189133Y-79290867D01*
X135189134Y-79290869D01*
X135189136Y-79290870D01*
X135289230Y-79412835D01*
X135363608Y-79551988D01*
X135409410Y-79702975D01*
X135421000Y-79820654D01*
X135421000Y-80199345D01*
X135409410Y-80317024D01*
X135363608Y-80468013D01*
X135289230Y-80607165D01*
X135189133Y-80729133D01*
X135067165Y-80829230D01*
X134928012Y-80903608D01*
X134777025Y-80949410D01*
X134620000Y-80964875D01*
X134462976Y-80949410D01*
X134311989Y-80903608D01*
X134172836Y-80829230D01*
X134105845Y-80774252D01*
X134050867Y-80729133D01*
X134000248Y-80667453D01*
X133950770Y-80607165D01*
X133876392Y-80468012D01*
X133830590Y-80317025D01*
X133819000Y-80199346D01*
X133819000Y-79820655D01*
X133830590Y-79702976D01*
X133876392Y-79551989D01*
X133950768Y-79412839D01*
X134050865Y-79290870D01*
X134050867Y-79290867D01*
X134050869Y-79290866D01*
X134050870Y-79290864D01*
X134172835Y-79190770D01*
X134311988Y-79116392D01*
X134462975Y-79070590D01*
X134620000Y-79055125D01*
X134777024Y-79070590D01*
X134777024Y-79070590D01*
G37*
G36*
X137317024Y-79070590D02*
X137468011Y-79116392D01*
X137607161Y-79190768D01*
X137668148Y-79240819D01*
X137729133Y-79290867D01*
X137729134Y-79290869D01*
X137729136Y-79290870D01*
X137829230Y-79412835D01*
X137903608Y-79551988D01*
X137949410Y-79702975D01*
X137961000Y-79820654D01*
X137961000Y-80199345D01*
X137949410Y-80317024D01*
X137903608Y-80468013D01*
X137829230Y-80607165D01*
X137729133Y-80729133D01*
X137607165Y-80829230D01*
X137468012Y-80903608D01*
X137317025Y-80949410D01*
X137160000Y-80964875D01*
X137002976Y-80949410D01*
X136851989Y-80903608D01*
X136712836Y-80829230D01*
X136645845Y-80774252D01*
X136590867Y-80729133D01*
X136540248Y-80667453D01*
X136490770Y-80607165D01*
X136416392Y-80468012D01*
X136370590Y-80317025D01*
X136359000Y-80199346D01*
X136359000Y-79820655D01*
X136370590Y-79702976D01*
X136416392Y-79551989D01*
X136490768Y-79412839D01*
X136590865Y-79290870D01*
X136590867Y-79290867D01*
X136590869Y-79290866D01*
X136590870Y-79290864D01*
X136712835Y-79190770D01*
X136851988Y-79116392D01*
X137002975Y-79070590D01*
X137160000Y-79055125D01*
X137317024Y-79070590D01*
X137317024Y-79070590D01*
G37*
G36*
X139857024Y-79070590D02*
X140008011Y-79116392D01*
X140147161Y-79190768D01*
X140208148Y-79240819D01*
X140269133Y-79290867D01*
X140269134Y-79290869D01*
X140269136Y-79290870D01*
X140369230Y-79412835D01*
X140443608Y-79551988D01*
X140489410Y-79702975D01*
X140501000Y-79820654D01*
X140501000Y-80199345D01*
X140489410Y-80317024D01*
X140443608Y-80468013D01*
X140369230Y-80607165D01*
X140269133Y-80729133D01*
X140147165Y-80829230D01*
X140008012Y-80903608D01*
X139857025Y-80949410D01*
X139700000Y-80964875D01*
X139542976Y-80949410D01*
X139391989Y-80903608D01*
X139252836Y-80829230D01*
X139185845Y-80774252D01*
X139130867Y-80729133D01*
X139080248Y-80667453D01*
X139030770Y-80607165D01*
X138956392Y-80468012D01*
X138910590Y-80317025D01*
X138899000Y-80199346D01*
X138899000Y-79820655D01*
X138910590Y-79702976D01*
X138956392Y-79551989D01*
X139030768Y-79412839D01*
X139130865Y-79290870D01*
X139130867Y-79290867D01*
X139130869Y-79290866D01*
X139130870Y-79290864D01*
X139252835Y-79190770D01*
X139391988Y-79116392D01*
X139542975Y-79070590D01*
X139700000Y-79055125D01*
X139857024Y-79070590D01*
X139857024Y-79070590D01*
G37*
G36*
X122721000Y-80961000D02*
X121119000Y-80961000D01*
X121119000Y-79059000D01*
X122721000Y-79059000D01*
X122721000Y-80961000D01*
X122721000Y-80961000D01*
G37*
G36*
X103151000Y-76481000D02*
X100049000Y-76481000D01*
X100049000Y-73379000D01*
X103151000Y-73379000D01*
X103151000Y-76481000D01*
X103151000Y-76481000D01*
G37*
G36*
X162912527Y-73418736D02*
X163012410Y-73438604D01*
X163294674Y-73555521D01*
X163548705Y-73725259D01*
X163764741Y-73941295D01*
X163934479Y-74195326D01*
X164051396Y-74477590D01*
X164062176Y-74531787D01*
X164111000Y-74777238D01*
X164111000Y-75082762D01*
X164081267Y-75232239D01*
X164051396Y-75382410D01*
X163934479Y-75664674D01*
X163764741Y-75918705D01*
X163548705Y-76134741D01*
X163294674Y-76304479D01*
X163012410Y-76421396D01*
X162912527Y-76441264D01*
X162712762Y-76481000D01*
X162407238Y-76481000D01*
X162207473Y-76441264D01*
X162107590Y-76421396D01*
X161825326Y-76304479D01*
X161571295Y-76134741D01*
X161355259Y-75918705D01*
X161185521Y-75664674D01*
X161068604Y-75382410D01*
X161038733Y-75232239D01*
X161009000Y-75082762D01*
X161009000Y-74777238D01*
X161057824Y-74531787D01*
X161068604Y-74477590D01*
X161185521Y-74195326D01*
X161355259Y-73941295D01*
X161571295Y-73725259D01*
X161825326Y-73555521D01*
X162107590Y-73438604D01*
X162207473Y-73418736D01*
X162407238Y-73379000D01*
X162712762Y-73379000D01*
X162912527Y-73418736D01*
X162912527Y-73418736D01*
G37*
G36*
X117026425Y-73992760D02*
X117026428Y-73992761D01*
X117026429Y-73992761D01*
X117205693Y-74047140D01*
X117205695Y-74047141D01*
X117370905Y-74135448D01*
X117515712Y-74254288D01*
X117634552Y-74399095D01*
X117678561Y-74481429D01*
X117722860Y-74564307D01*
X117761963Y-74693213D01*
X117777240Y-74743575D01*
X117795601Y-74930000D01*
X117777240Y-75116425D01*
X117777239Y-75116428D01*
X117777239Y-75116429D01*
X117735322Y-75254612D01*
X117722859Y-75295695D01*
X117634552Y-75460905D01*
X117515712Y-75605712D01*
X117370905Y-75724552D01*
X117354307Y-75733424D01*
X117205693Y-75812860D01*
X117026429Y-75867239D01*
X117026428Y-75867239D01*
X117026425Y-75867240D01*
X116886718Y-75881000D01*
X116793282Y-75881000D01*
X116653575Y-75867240D01*
X116653572Y-75867239D01*
X116653571Y-75867239D01*
X116474307Y-75812860D01*
X116325693Y-75733424D01*
X116309095Y-75724552D01*
X116164288Y-75605712D01*
X116045448Y-75460905D01*
X115957141Y-75295695D01*
X115944679Y-75254612D01*
X115902761Y-75116429D01*
X115902761Y-75116428D01*
X115902760Y-75116425D01*
X115884399Y-74930000D01*
X115902760Y-74743575D01*
X115918037Y-74693213D01*
X115957140Y-74564307D01*
X116001439Y-74481429D01*
X116045448Y-74399095D01*
X116164288Y-74254288D01*
X116309095Y-74135448D01*
X116474305Y-74047141D01*
X116474307Y-74047140D01*
X116653571Y-73992761D01*
X116653572Y-73992761D01*
X116653575Y-73992760D01*
X116793282Y-73979000D01*
X116886718Y-73979000D01*
X117026425Y-73992760D01*
X117026425Y-73992760D01*
G37*
G36*
X114486425Y-73992760D02*
X114486428Y-73992761D01*
X114486429Y-73992761D01*
X114665693Y-74047140D01*
X114665695Y-74047141D01*
X114830905Y-74135448D01*
X114975712Y-74254288D01*
X115094552Y-74399095D01*
X115138561Y-74481429D01*
X115182860Y-74564307D01*
X115221963Y-74693213D01*
X115237240Y-74743575D01*
X115255601Y-74930000D01*
X115237240Y-75116425D01*
X115237239Y-75116428D01*
X115237239Y-75116429D01*
X115195322Y-75254612D01*
X115182859Y-75295695D01*
X115094552Y-75460905D01*
X114975712Y-75605712D01*
X114830905Y-75724552D01*
X114814307Y-75733424D01*
X114665693Y-75812860D01*
X114486429Y-75867239D01*
X114486428Y-75867239D01*
X114486425Y-75867240D01*
X114346718Y-75881000D01*
X114253282Y-75881000D01*
X114113575Y-75867240D01*
X114113572Y-75867239D01*
X114113571Y-75867239D01*
X113934307Y-75812860D01*
X113785693Y-75733424D01*
X113769095Y-75724552D01*
X113624288Y-75605712D01*
X113505448Y-75460905D01*
X113417141Y-75295695D01*
X113404679Y-75254612D01*
X113362761Y-75116429D01*
X113362761Y-75116428D01*
X113362760Y-75116425D01*
X113344399Y-74930000D01*
X113362760Y-74743575D01*
X113378037Y-74693213D01*
X113417140Y-74564307D01*
X113461439Y-74481429D01*
X113505448Y-74399095D01*
X113624288Y-74254288D01*
X113769095Y-74135448D01*
X113934305Y-74047141D01*
X113934307Y-74047140D01*
X114113571Y-73992761D01*
X114113572Y-73992761D01*
X114113575Y-73992760D01*
X114253282Y-73979000D01*
X114346718Y-73979000D01*
X114486425Y-73992760D01*
X114486425Y-73992760D01*
G37*
G36*
X112711000Y-75881000D02*
X110809000Y-75881000D01*
X110809000Y-73979000D01*
X112711000Y-73979000D01*
X112711000Y-75881000D01*
X112711000Y-75881000D01*
G37*
G36*
X141703213Y-74136249D02*
X141797652Y-74164897D01*
X141884687Y-74211418D01*
X141960975Y-74274025D01*
X142023582Y-74350313D01*
X142070103Y-74437348D01*
X142098751Y-74531787D01*
X142106000Y-74605388D01*
X142106000Y-75254612D01*
X142098751Y-75328213D01*
X142070103Y-75422652D01*
X142023582Y-75509687D01*
X141960975Y-75585975D01*
X141884687Y-75648582D01*
X141797651Y-75695103D01*
X141703212Y-75723751D01*
X141605000Y-75733424D01*
X141506787Y-75723751D01*
X141412348Y-75695103D01*
X141325313Y-75648582D01*
X141249025Y-75585975D01*
X141186418Y-75509687D01*
X141139897Y-75422651D01*
X141111249Y-75328212D01*
X141104000Y-75254611D01*
X141104000Y-74605398D01*
X141111250Y-74531789D01*
X141111250Y-74531787D01*
X141139898Y-74437348D01*
X141139898Y-74437347D01*
X141186420Y-74350312D01*
X141249026Y-74274025D01*
X141325314Y-74211418D01*
X141412349Y-74164897D01*
X141506788Y-74136249D01*
X141605000Y-74126576D01*
X141703213Y-74136249D01*
X141703213Y-74136249D01*
G37*
G36*
X142973213Y-74136249D02*
X143067652Y-74164897D01*
X143154687Y-74211418D01*
X143230975Y-74274025D01*
X143293582Y-74350313D01*
X143340103Y-74437348D01*
X143368751Y-74531787D01*
X143376000Y-74605388D01*
X143376000Y-75254612D01*
X143368751Y-75328213D01*
X143340103Y-75422652D01*
X143293582Y-75509687D01*
X143230975Y-75585975D01*
X143154687Y-75648582D01*
X143067651Y-75695103D01*
X142973212Y-75723751D01*
X142875000Y-75733424D01*
X142776787Y-75723751D01*
X142682348Y-75695103D01*
X142595313Y-75648582D01*
X142519025Y-75585975D01*
X142456418Y-75509687D01*
X142409897Y-75422651D01*
X142381249Y-75328212D01*
X142374000Y-75254611D01*
X142374000Y-74605398D01*
X142381250Y-74531789D01*
X142381250Y-74531787D01*
X142409898Y-74437348D01*
X142409898Y-74437347D01*
X142456420Y-74350312D01*
X142519026Y-74274025D01*
X142595314Y-74211418D01*
X142682349Y-74164897D01*
X142776788Y-74136249D01*
X142875000Y-74126576D01*
X142973213Y-74136249D01*
X142973213Y-74136249D01*
G37*
G36*
X140836000Y-75731000D02*
X139834000Y-75731000D01*
X139834000Y-74129000D01*
X140836000Y-74129000D01*
X140836000Y-75731000D01*
X140836000Y-75731000D01*
G37*
G36*
X150046425Y-73357760D02*
X150046428Y-73357761D01*
X150046429Y-73357761D01*
X150225693Y-73412140D01*
X150225695Y-73412141D01*
X150390905Y-73500448D01*
X150535712Y-73619288D01*
X150654552Y-73764095D01*
X150654553Y-73764097D01*
X150742860Y-73929307D01*
X150778604Y-74047140D01*
X150797240Y-74108575D01*
X150815601Y-74295000D01*
X150797240Y-74481425D01*
X150797239Y-74481428D01*
X150797239Y-74481429D01*
X150755322Y-74619612D01*
X150742859Y-74660695D01*
X150654552Y-74825905D01*
X150535712Y-74970712D01*
X150390905Y-75089552D01*
X150374307Y-75098424D01*
X150225693Y-75177860D01*
X150046429Y-75232239D01*
X150046428Y-75232239D01*
X150046425Y-75232240D01*
X149906718Y-75246000D01*
X149813282Y-75246000D01*
X149673575Y-75232240D01*
X149673572Y-75232239D01*
X149673571Y-75232239D01*
X149494307Y-75177860D01*
X149345693Y-75098424D01*
X149329095Y-75089552D01*
X149184288Y-74970712D01*
X149065448Y-74825905D01*
X148977141Y-74660695D01*
X148964679Y-74619612D01*
X148922761Y-74481429D01*
X148922761Y-74481428D01*
X148922760Y-74481425D01*
X148904399Y-74295000D01*
X148922760Y-74108575D01*
X148941396Y-74047140D01*
X148977140Y-73929307D01*
X149065447Y-73764097D01*
X149065448Y-73764095D01*
X149184288Y-73619288D01*
X149329095Y-73500448D01*
X149494305Y-73412141D01*
X149494307Y-73412140D01*
X149673571Y-73357761D01*
X149673572Y-73357761D01*
X149673575Y-73357760D01*
X149813282Y-73344000D01*
X149906718Y-73344000D01*
X150046425Y-73357760D01*
X150046425Y-73357760D01*
G37*
G36*
X147506425Y-73357760D02*
X147506428Y-73357761D01*
X147506429Y-73357761D01*
X147685693Y-73412140D01*
X147685695Y-73412141D01*
X147850905Y-73500448D01*
X147995712Y-73619288D01*
X148114552Y-73764095D01*
X148114553Y-73764097D01*
X148202860Y-73929307D01*
X148238604Y-74047140D01*
X148257240Y-74108575D01*
X148275601Y-74295000D01*
X148257240Y-74481425D01*
X148257239Y-74481428D01*
X148257239Y-74481429D01*
X148215322Y-74619612D01*
X148202859Y-74660695D01*
X148114552Y-74825905D01*
X147995712Y-74970712D01*
X147850905Y-75089552D01*
X147834307Y-75098424D01*
X147685693Y-75177860D01*
X147506429Y-75232239D01*
X147506428Y-75232239D01*
X147506425Y-75232240D01*
X147366718Y-75246000D01*
X147273282Y-75246000D01*
X147133575Y-75232240D01*
X147133572Y-75232239D01*
X147133571Y-75232239D01*
X146954307Y-75177860D01*
X146805693Y-75098424D01*
X146789095Y-75089552D01*
X146644288Y-74970712D01*
X146525448Y-74825905D01*
X146437141Y-74660695D01*
X146424679Y-74619612D01*
X146382761Y-74481429D01*
X146382761Y-74481428D01*
X146382760Y-74481425D01*
X146364399Y-74295000D01*
X146382760Y-74108575D01*
X146401396Y-74047140D01*
X146437140Y-73929307D01*
X146525447Y-73764097D01*
X146525448Y-73764095D01*
X146644288Y-73619288D01*
X146789095Y-73500448D01*
X146954305Y-73412141D01*
X146954307Y-73412140D01*
X147133571Y-73357761D01*
X147133572Y-73357761D01*
X147133575Y-73357760D01*
X147273282Y-73344000D01*
X147366718Y-73344000D01*
X147506425Y-73357760D01*
X147506425Y-73357760D01*
G37*
G36*
X153351000Y-75246000D02*
X151449000Y-75246000D01*
X151449000Y-73344000D01*
X153351000Y-73344000D01*
X153351000Y-75246000D01*
X153351000Y-75246000D01*
G37*
G36*
X122653212Y-73501249D02*
X122747651Y-73529897D01*
X122834687Y-73576418D01*
X122910975Y-73639025D01*
X122973582Y-73715313D01*
X123020103Y-73802348D01*
X123048751Y-73896787D01*
X123056000Y-73970388D01*
X123056000Y-74619612D01*
X123048751Y-74693213D01*
X123020103Y-74787652D01*
X122973582Y-74874687D01*
X122910975Y-74950975D01*
X122834687Y-75013582D01*
X122747652Y-75060103D01*
X122653213Y-75088751D01*
X122555000Y-75098424D01*
X122456788Y-75088751D01*
X122362349Y-75060103D01*
X122275314Y-75013582D01*
X122199026Y-74950975D01*
X122136419Y-74874687D01*
X122114764Y-74834174D01*
X122089898Y-74787653D01*
X122076526Y-74743571D01*
X122061250Y-74693213D01*
X122054001Y-74619612D01*
X122054000Y-74619602D01*
X122054000Y-73970389D01*
X122061249Y-73896788D01*
X122089897Y-73802349D01*
X122136418Y-73715313D01*
X122199025Y-73639025D01*
X122275313Y-73576418D01*
X122362348Y-73529897D01*
X122456787Y-73501249D01*
X122555000Y-73491576D01*
X122653212Y-73501249D01*
X122653212Y-73501249D01*
G37*
G36*
X121383212Y-73501249D02*
X121477651Y-73529897D01*
X121564687Y-73576418D01*
X121640975Y-73639025D01*
X121703582Y-73715313D01*
X121750103Y-73802348D01*
X121778751Y-73896787D01*
X121786000Y-73970388D01*
X121786000Y-74619612D01*
X121778751Y-74693213D01*
X121750103Y-74787652D01*
X121703582Y-74874687D01*
X121640975Y-74950975D01*
X121564687Y-75013582D01*
X121477652Y-75060103D01*
X121383213Y-75088751D01*
X121285000Y-75098424D01*
X121186788Y-75088751D01*
X121092349Y-75060103D01*
X121005314Y-75013582D01*
X120929026Y-74950975D01*
X120866419Y-74874687D01*
X120844764Y-74834174D01*
X120819898Y-74787653D01*
X120806526Y-74743571D01*
X120791250Y-74693213D01*
X120784001Y-74619612D01*
X120784000Y-74619602D01*
X120784000Y-73970389D01*
X120791249Y-73896788D01*
X120819897Y-73802349D01*
X120866418Y-73715313D01*
X120929025Y-73639025D01*
X121005313Y-73576418D01*
X121092348Y-73529897D01*
X121186787Y-73501249D01*
X121285000Y-73491576D01*
X121383212Y-73501249D01*
X121383212Y-73501249D01*
G37*
G36*
X124326000Y-75096000D02*
X123324000Y-75096000D01*
X123324000Y-73494000D01*
X124326000Y-73494000D01*
X124326000Y-75096000D01*
X124326000Y-75096000D01*
G37*
G36*
X123506000Y-71436000D02*
X121604000Y-71436000D01*
X121604000Y-69534000D01*
X123506000Y-69534000D01*
X123506000Y-71436000D01*
X123506000Y-71436000D01*
G37*
G36*
X142556000Y-71436000D02*
X140654000Y-71436000D01*
X140654000Y-69534000D01*
X142556000Y-69534000D01*
X142556000Y-71436000D01*
X142556000Y-71436000D01*
G37*
G36*
X164111000Y-71401000D02*
X161009000Y-71401000D01*
X161009000Y-68299000D01*
X164111000Y-68299000D01*
X164111000Y-71401000D01*
X164111000Y-71401000D01*
G37*
G36*
X101952527Y-68338736D02*
X102052410Y-68358604D01*
X102334674Y-68475521D01*
X102588705Y-68645259D01*
X102804741Y-68861295D01*
X102974479Y-69115326D01*
X103074727Y-69357348D01*
X103091396Y-69397591D01*
X103151000Y-69697238D01*
X103151000Y-70002762D01*
X103138471Y-70065747D01*
X103091396Y-70302410D01*
X102974479Y-70584674D01*
X102804741Y-70838705D01*
X102588705Y-71054741D01*
X102334674Y-71224479D01*
X102052410Y-71341396D01*
X101952527Y-71361264D01*
X101752762Y-71401000D01*
X101447238Y-71401000D01*
X101247473Y-71361264D01*
X101147590Y-71341396D01*
X100865326Y-71224479D01*
X100611295Y-71054741D01*
X100395259Y-70838705D01*
X100225521Y-70584674D01*
X100108604Y-70302410D01*
X100061529Y-70065747D01*
X100049000Y-70002762D01*
X100049000Y-69697238D01*
X100108604Y-69397591D01*
X100125273Y-69357348D01*
X100225521Y-69115326D01*
X100395259Y-68861295D01*
X100611295Y-68645259D01*
X100865326Y-68475521D01*
X101147590Y-68358604D01*
X101247473Y-68338736D01*
X101447238Y-68299000D01*
X101752762Y-68299000D01*
X101952527Y-68338736D01*
X101952527Y-68338736D01*
G37*
G36*
X118873600Y-69744867D02*
X118964059Y-69762860D01*
X119100732Y-69819472D01*
X119222079Y-69900554D01*
X119223738Y-69901662D01*
X119328338Y-70006262D01*
X119328340Y-70006265D01*
X119410528Y-70129268D01*
X119467140Y-70265941D01*
X119474394Y-70302410D01*
X119496000Y-70411031D01*
X119496000Y-70558969D01*
X119490887Y-70584672D01*
X119467140Y-70704059D01*
X119410528Y-70840732D01*
X119329446Y-70962079D01*
X119328338Y-70963738D01*
X119223738Y-71068338D01*
X119223735Y-71068340D01*
X119100732Y-71150528D01*
X118964059Y-71207140D01*
X118877004Y-71224456D01*
X118818969Y-71236000D01*
X118671031Y-71236000D01*
X118612996Y-71224456D01*
X118525941Y-71207140D01*
X118389268Y-71150528D01*
X118266265Y-71068340D01*
X118266262Y-71068338D01*
X118161662Y-70963738D01*
X118160554Y-70962079D01*
X118079472Y-70840732D01*
X118022860Y-70704059D01*
X117999113Y-70584672D01*
X117994000Y-70558969D01*
X117994000Y-70411031D01*
X118015606Y-70302410D01*
X118022860Y-70265941D01*
X118079472Y-70129268D01*
X118161660Y-70006265D01*
X118161662Y-70006262D01*
X118266262Y-69901662D01*
X118267921Y-69900554D01*
X118389268Y-69819472D01*
X118525941Y-69762860D01*
X118616400Y-69744867D01*
X118671031Y-69734000D01*
X118818969Y-69734000D01*
X118873600Y-69744867D01*
X118873600Y-69744867D01*
G37*
G36*
X107443600Y-69744867D02*
X107534059Y-69762860D01*
X107670732Y-69819472D01*
X107792079Y-69900554D01*
X107793738Y-69901662D01*
X107898338Y-70006262D01*
X107898340Y-70006265D01*
X107980528Y-70129268D01*
X108037140Y-70265941D01*
X108044394Y-70302410D01*
X108066000Y-70411031D01*
X108066000Y-70558969D01*
X108060887Y-70584672D01*
X108037140Y-70704059D01*
X107980528Y-70840732D01*
X107899446Y-70962079D01*
X107898338Y-70963738D01*
X107793738Y-71068338D01*
X107793735Y-71068340D01*
X107670732Y-71150528D01*
X107534059Y-71207140D01*
X107447004Y-71224456D01*
X107388969Y-71236000D01*
X107241031Y-71236000D01*
X107182996Y-71224456D01*
X107095941Y-71207140D01*
X106959268Y-71150528D01*
X106836265Y-71068340D01*
X106836262Y-71068338D01*
X106731662Y-70963738D01*
X106730554Y-70962079D01*
X106649472Y-70840732D01*
X106592860Y-70704059D01*
X106569113Y-70584672D01*
X106564000Y-70558969D01*
X106564000Y-70411031D01*
X106585606Y-70302410D01*
X106592860Y-70265941D01*
X106649472Y-70129268D01*
X106731660Y-70006265D01*
X106731662Y-70006262D01*
X106836262Y-69901662D01*
X106837921Y-69900554D01*
X106959268Y-69819472D01*
X107095941Y-69762860D01*
X107186400Y-69744867D01*
X107241031Y-69734000D01*
X107388969Y-69734000D01*
X107443600Y-69744867D01*
X107443600Y-69744867D01*
G37*
G36*
X148028665Y-69737622D02*
X148102222Y-69744867D01*
X148243786Y-69787810D01*
X148374252Y-69857546D01*
X148488606Y-69951394D01*
X148582454Y-70065748D01*
X148652190Y-70196214D01*
X148695133Y-70337778D01*
X148709633Y-70485000D01*
X148695133Y-70632222D01*
X148652190Y-70773786D01*
X148582454Y-70904252D01*
X148488606Y-71018606D01*
X148374252Y-71112454D01*
X148243786Y-71182190D01*
X148102222Y-71225133D01*
X148028665Y-71232378D01*
X147991888Y-71236000D01*
X147918112Y-71236000D01*
X147881335Y-71232378D01*
X147807778Y-71225133D01*
X147666214Y-71182190D01*
X147535748Y-71112454D01*
X147421394Y-71018606D01*
X147327546Y-70904252D01*
X147257810Y-70773786D01*
X147214867Y-70632222D01*
X147200367Y-70485000D01*
X147214867Y-70337778D01*
X147257810Y-70196214D01*
X147327546Y-70065748D01*
X147421394Y-69951394D01*
X147535748Y-69857546D01*
X147666214Y-69787810D01*
X147807778Y-69744867D01*
X147881335Y-69737622D01*
X147918112Y-69734000D01*
X147991888Y-69734000D01*
X148028665Y-69737622D01*
X148028665Y-69737622D01*
G37*
G36*
X145543600Y-69744867D02*
X145634059Y-69762860D01*
X145770732Y-69819472D01*
X145892079Y-69900554D01*
X145893738Y-69901662D01*
X145998338Y-70006262D01*
X145998340Y-70006265D01*
X146080528Y-70129268D01*
X146137140Y-70265941D01*
X146144394Y-70302410D01*
X146166000Y-70411031D01*
X146166000Y-70558969D01*
X146160887Y-70584672D01*
X146137140Y-70704059D01*
X146080528Y-70840732D01*
X145999446Y-70962079D01*
X145998338Y-70963738D01*
X145893738Y-71068338D01*
X145893735Y-71068340D01*
X145770732Y-71150528D01*
X145634059Y-71207140D01*
X145547004Y-71224456D01*
X145488969Y-71236000D01*
X145341031Y-71236000D01*
X145282996Y-71224456D01*
X145195941Y-71207140D01*
X145059268Y-71150528D01*
X144936265Y-71068340D01*
X144936262Y-71068338D01*
X144831662Y-70963738D01*
X144830554Y-70962079D01*
X144749472Y-70840732D01*
X144692860Y-70704059D01*
X144669113Y-70584672D01*
X144664000Y-70558969D01*
X144664000Y-70411031D01*
X144685606Y-70302410D01*
X144692860Y-70265941D01*
X144749472Y-70129268D01*
X144831660Y-70006265D01*
X144831662Y-70006262D01*
X144936262Y-69901662D01*
X144937921Y-69900554D01*
X145059268Y-69819472D01*
X145195941Y-69762860D01*
X145286400Y-69744867D01*
X145341031Y-69734000D01*
X145488969Y-69734000D01*
X145543600Y-69744867D01*
X145543600Y-69744867D01*
G37*
G36*
X116278665Y-69737622D02*
X116352222Y-69744867D01*
X116493786Y-69787810D01*
X116624252Y-69857546D01*
X116738606Y-69951394D01*
X116832454Y-70065748D01*
X116902190Y-70196214D01*
X116945133Y-70337778D01*
X116959633Y-70485000D01*
X116945133Y-70632222D01*
X116902190Y-70773786D01*
X116832454Y-70904252D01*
X116738606Y-71018606D01*
X116624252Y-71112454D01*
X116493786Y-71182190D01*
X116352222Y-71225133D01*
X116278665Y-71232378D01*
X116241888Y-71236000D01*
X116168112Y-71236000D01*
X116131335Y-71232378D01*
X116057778Y-71225133D01*
X115916214Y-71182190D01*
X115785748Y-71112454D01*
X115671394Y-71018606D01*
X115577546Y-70904252D01*
X115507810Y-70773786D01*
X115464867Y-70632222D01*
X115450367Y-70485000D01*
X115464867Y-70337778D01*
X115507810Y-70196214D01*
X115577546Y-70065748D01*
X115671394Y-69951394D01*
X115785748Y-69857546D01*
X115916214Y-69787810D01*
X116057778Y-69744867D01*
X116131335Y-69737622D01*
X116168112Y-69734000D01*
X116241888Y-69734000D01*
X116278665Y-69737622D01*
X116278665Y-69737622D01*
G37*
G36*
X156973600Y-69744867D02*
X157064059Y-69762860D01*
X157200732Y-69819472D01*
X157322079Y-69900554D01*
X157323738Y-69901662D01*
X157428338Y-70006262D01*
X157428340Y-70006265D01*
X157510528Y-70129268D01*
X157567140Y-70265941D01*
X157574394Y-70302410D01*
X157596000Y-70411031D01*
X157596000Y-70558969D01*
X157590887Y-70584672D01*
X157567140Y-70704059D01*
X157510528Y-70840732D01*
X157429446Y-70962079D01*
X157428338Y-70963738D01*
X157323738Y-71068338D01*
X157323735Y-71068340D01*
X157200732Y-71150528D01*
X157064059Y-71207140D01*
X156977004Y-71224456D01*
X156918969Y-71236000D01*
X156771031Y-71236000D01*
X156712996Y-71224456D01*
X156625941Y-71207140D01*
X156489268Y-71150528D01*
X156366265Y-71068340D01*
X156366262Y-71068338D01*
X156261662Y-70963738D01*
X156260554Y-70962079D01*
X156179472Y-70840732D01*
X156122860Y-70704059D01*
X156099113Y-70584672D01*
X156094000Y-70558969D01*
X156094000Y-70411031D01*
X156115606Y-70302410D01*
X156122860Y-70265941D01*
X156179472Y-70129268D01*
X156261660Y-70006265D01*
X156261662Y-70006262D01*
X156366262Y-69901662D01*
X156367921Y-69900554D01*
X156489268Y-69819472D01*
X156625941Y-69762860D01*
X156716400Y-69744867D01*
X156771031Y-69734000D01*
X156918969Y-69734000D01*
X156973600Y-69744867D01*
X156973600Y-69744867D01*
G37*
G36*
X113128213Y-69056249D02*
X113222652Y-69084897D01*
X113309687Y-69131418D01*
X113385975Y-69194025D01*
X113448582Y-69270313D01*
X113495103Y-69357348D01*
X113523751Y-69451787D01*
X113531000Y-69525388D01*
X113531000Y-70174612D01*
X113523751Y-70248213D01*
X113495103Y-70342652D01*
X113448582Y-70429687D01*
X113385975Y-70505975D01*
X113309687Y-70568582D01*
X113222651Y-70615103D01*
X113128212Y-70643751D01*
X113030000Y-70653424D01*
X112931787Y-70643751D01*
X112837348Y-70615103D01*
X112750313Y-70568582D01*
X112674025Y-70505975D01*
X112611418Y-70429687D01*
X112564897Y-70342651D01*
X112536249Y-70248212D01*
X112529000Y-70174611D01*
X112529000Y-69525398D01*
X112536250Y-69451789D01*
X112536250Y-69451787D01*
X112564898Y-69357348D01*
X112564898Y-69357347D01*
X112611420Y-69270312D01*
X112674026Y-69194025D01*
X112750314Y-69131418D01*
X112837349Y-69084897D01*
X112931788Y-69056249D01*
X113030000Y-69046576D01*
X113128213Y-69056249D01*
X113128213Y-69056249D01*
G37*
G36*
X111858213Y-69056249D02*
X111952652Y-69084897D01*
X112039687Y-69131418D01*
X112115975Y-69194025D01*
X112178582Y-69270313D01*
X112225103Y-69357348D01*
X112253751Y-69451787D01*
X112261000Y-69525388D01*
X112261000Y-70174612D01*
X112253751Y-70248213D01*
X112225103Y-70342652D01*
X112178582Y-70429687D01*
X112115975Y-70505975D01*
X112039687Y-70568582D01*
X111952651Y-70615103D01*
X111858212Y-70643751D01*
X111760000Y-70653424D01*
X111661787Y-70643751D01*
X111567348Y-70615103D01*
X111480313Y-70568582D01*
X111404025Y-70505975D01*
X111341418Y-70429687D01*
X111294897Y-70342651D01*
X111266249Y-70248212D01*
X111259000Y-70174611D01*
X111259000Y-69525398D01*
X111266250Y-69451789D01*
X111266250Y-69451787D01*
X111294898Y-69357348D01*
X111294898Y-69357347D01*
X111341420Y-69270312D01*
X111404026Y-69194025D01*
X111480314Y-69131418D01*
X111567349Y-69084897D01*
X111661788Y-69056249D01*
X111760000Y-69046576D01*
X111858213Y-69056249D01*
X111858213Y-69056249D01*
G37*
G36*
X110991000Y-70651000D02*
X109989000Y-70651000D01*
X109989000Y-69049000D01*
X110991000Y-69049000D01*
X110991000Y-70651000D01*
X110991000Y-70651000D01*
G37*
G36*
X151228212Y-68421249D02*
X151322651Y-68449897D01*
X151409687Y-68496418D01*
X151485975Y-68559025D01*
X151548582Y-68635313D01*
X151595103Y-68722348D01*
X151623751Y-68816787D01*
X151631000Y-68890388D01*
X151631000Y-69539612D01*
X151623751Y-69613213D01*
X151595103Y-69707652D01*
X151548582Y-69794687D01*
X151485975Y-69870975D01*
X151409687Y-69933582D01*
X151322652Y-69980103D01*
X151228213Y-70008751D01*
X151130000Y-70018424D01*
X151031788Y-70008751D01*
X150937349Y-69980103D01*
X150850314Y-69933582D01*
X150774026Y-69870975D01*
X150711419Y-69794687D01*
X150678981Y-69734000D01*
X150664898Y-69707653D01*
X150655349Y-69676172D01*
X150636250Y-69613213D01*
X150629001Y-69539612D01*
X150629000Y-69539602D01*
X150629000Y-68890389D01*
X150636249Y-68816788D01*
X150664897Y-68722349D01*
X150711418Y-68635313D01*
X150774025Y-68559025D01*
X150850313Y-68496418D01*
X150937348Y-68449897D01*
X151031787Y-68421249D01*
X151130000Y-68411576D01*
X151228212Y-68421249D01*
X151228212Y-68421249D01*
G37*
G36*
X152498212Y-68421249D02*
X152592651Y-68449897D01*
X152679687Y-68496418D01*
X152755975Y-68559025D01*
X152818582Y-68635313D01*
X152865103Y-68722348D01*
X152893751Y-68816787D01*
X152901000Y-68890388D01*
X152901000Y-69539612D01*
X152893751Y-69613213D01*
X152865103Y-69707652D01*
X152818582Y-69794687D01*
X152755975Y-69870975D01*
X152679687Y-69933582D01*
X152592652Y-69980103D01*
X152498213Y-70008751D01*
X152400000Y-70018424D01*
X152301788Y-70008751D01*
X152207349Y-69980103D01*
X152120314Y-69933582D01*
X152044026Y-69870975D01*
X151981419Y-69794687D01*
X151948981Y-69734000D01*
X151934898Y-69707653D01*
X151925349Y-69676172D01*
X151906250Y-69613213D01*
X151899001Y-69539612D01*
X151899000Y-69539602D01*
X151899000Y-68890389D01*
X151906249Y-68816788D01*
X151934897Y-68722349D01*
X151981418Y-68635313D01*
X152044025Y-68559025D01*
X152120313Y-68496418D01*
X152207348Y-68449897D01*
X152301787Y-68421249D01*
X152400000Y-68411576D01*
X152498212Y-68421249D01*
X152498212Y-68421249D01*
G37*
G36*
X154171000Y-70016000D02*
X153169000Y-70016000D01*
X153169000Y-68414000D01*
X154171000Y-68414000D01*
X154171000Y-70016000D01*
X154171000Y-70016000D01*
G37*
G36*
X122832396Y-67030546D02*
X123005466Y-67102234D01*
X123161230Y-67206312D01*
X123293688Y-67338770D01*
X123397766Y-67494534D01*
X123469454Y-67667604D01*
X123506000Y-67851333D01*
X123506000Y-68038667D01*
X123469454Y-68222396D01*
X123397766Y-68395466D01*
X123293688Y-68551230D01*
X123161230Y-68683688D01*
X123005466Y-68787766D01*
X122832396Y-68859454D01*
X122648667Y-68896000D01*
X122461333Y-68896000D01*
X122277604Y-68859454D01*
X122104534Y-68787766D01*
X121948770Y-68683688D01*
X121816312Y-68551230D01*
X121712234Y-68395466D01*
X121640546Y-68222396D01*
X121604000Y-68038667D01*
X121604000Y-67851333D01*
X121640546Y-67667604D01*
X121712234Y-67494534D01*
X121816312Y-67338770D01*
X121948770Y-67206312D01*
X122104534Y-67102234D01*
X122277604Y-67030546D01*
X122461333Y-66994000D01*
X122648667Y-66994000D01*
X122832396Y-67030546D01*
X122832396Y-67030546D01*
G37*
G36*
X141882396Y-67030546D02*
X142055466Y-67102234D01*
X142211230Y-67206312D01*
X142343688Y-67338770D01*
X142447766Y-67494534D01*
X142519454Y-67667604D01*
X142556000Y-67851333D01*
X142556000Y-68038667D01*
X142519454Y-68222396D01*
X142447766Y-68395466D01*
X142343688Y-68551230D01*
X142211230Y-68683688D01*
X142055466Y-68787766D01*
X141882396Y-68859454D01*
X141698667Y-68896000D01*
X141511333Y-68896000D01*
X141327604Y-68859454D01*
X141154534Y-68787766D01*
X140998770Y-68683688D01*
X140866312Y-68551230D01*
X140762234Y-68395466D01*
X140690546Y-68222396D01*
X140654000Y-68038667D01*
X140654000Y-67851333D01*
X140690546Y-67667604D01*
X140762234Y-67494534D01*
X140866312Y-67338770D01*
X140998770Y-67206312D01*
X141154534Y-67102234D01*
X141327604Y-67030546D01*
X141511333Y-66994000D01*
X141698667Y-66994000D01*
X141882396Y-67030546D01*
X141882396Y-67030546D01*
G37*
G36*
X116333600Y-67204867D02*
X116424059Y-67222860D01*
X116560732Y-67279472D01*
X116617715Y-67317547D01*
X116683738Y-67361662D01*
X116788338Y-67466262D01*
X116788340Y-67466265D01*
X116870528Y-67589268D01*
X116927140Y-67725941D01*
X116956000Y-67871033D01*
X116956000Y-68018967D01*
X116927140Y-68164059D01*
X116870528Y-68300732D01*
X116807229Y-68395466D01*
X116788338Y-68423738D01*
X116683738Y-68528338D01*
X116683735Y-68528340D01*
X116560732Y-68610528D01*
X116424059Y-68667140D01*
X116340865Y-68683688D01*
X116278969Y-68696000D01*
X116131031Y-68696000D01*
X116069135Y-68683688D01*
X115985941Y-68667140D01*
X115849268Y-68610528D01*
X115726265Y-68528340D01*
X115726262Y-68528338D01*
X115621662Y-68423738D01*
X115602771Y-68395466D01*
X115539472Y-68300732D01*
X115482860Y-68164059D01*
X115454000Y-68018967D01*
X115454000Y-67871033D01*
X115482860Y-67725941D01*
X115539472Y-67589268D01*
X115621660Y-67466265D01*
X115621662Y-67466262D01*
X115726262Y-67361662D01*
X115792285Y-67317547D01*
X115849268Y-67279472D01*
X115985941Y-67222860D01*
X116076400Y-67204867D01*
X116131031Y-67194000D01*
X116278969Y-67194000D01*
X116333600Y-67204867D01*
X116333600Y-67204867D01*
G37*
G36*
X156918665Y-67197622D02*
X156992222Y-67204867D01*
X157133786Y-67247810D01*
X157264252Y-67317546D01*
X157378606Y-67411394D01*
X157472454Y-67525748D01*
X157542190Y-67656214D01*
X157585133Y-67797778D01*
X157599633Y-67945000D01*
X157585133Y-68092222D01*
X157542190Y-68233786D01*
X157472454Y-68364252D01*
X157378606Y-68478606D01*
X157264252Y-68572454D01*
X157133786Y-68642190D01*
X156992222Y-68685133D01*
X156918665Y-68692378D01*
X156881888Y-68696000D01*
X156808112Y-68696000D01*
X156771335Y-68692378D01*
X156697778Y-68685133D01*
X156556214Y-68642190D01*
X156425748Y-68572454D01*
X156311394Y-68478606D01*
X156217546Y-68364252D01*
X156147810Y-68233786D01*
X156104867Y-68092222D01*
X156090367Y-67945000D01*
X156104867Y-67797778D01*
X156147810Y-67656214D01*
X156217546Y-67525748D01*
X156311394Y-67411394D01*
X156425748Y-67317546D01*
X156556214Y-67247810D01*
X156697778Y-67204867D01*
X156771335Y-67197622D01*
X156808112Y-67194000D01*
X156881888Y-67194000D01*
X156918665Y-67197622D01*
X156918665Y-67197622D01*
G37*
G36*
X148083600Y-67204867D02*
X148174059Y-67222860D01*
X148310732Y-67279472D01*
X148367715Y-67317547D01*
X148433738Y-67361662D01*
X148538338Y-67466262D01*
X148538340Y-67466265D01*
X148620528Y-67589268D01*
X148677140Y-67725941D01*
X148706000Y-67871033D01*
X148706000Y-68018967D01*
X148677140Y-68164059D01*
X148620528Y-68300732D01*
X148557229Y-68395466D01*
X148538338Y-68423738D01*
X148433738Y-68528338D01*
X148433735Y-68528340D01*
X148310732Y-68610528D01*
X148174059Y-68667140D01*
X148090865Y-68683688D01*
X148028969Y-68696000D01*
X147881031Y-68696000D01*
X147819135Y-68683688D01*
X147735941Y-68667140D01*
X147599268Y-68610528D01*
X147476265Y-68528340D01*
X147476262Y-68528338D01*
X147371662Y-68423738D01*
X147352771Y-68395466D01*
X147289472Y-68300732D01*
X147232860Y-68164059D01*
X147204000Y-68018967D01*
X147204000Y-67871033D01*
X147232860Y-67725941D01*
X147289472Y-67589268D01*
X147371660Y-67466265D01*
X147371662Y-67466262D01*
X147476262Y-67361662D01*
X147542285Y-67317547D01*
X147599268Y-67279472D01*
X147735941Y-67222860D01*
X147826400Y-67204867D01*
X147881031Y-67194000D01*
X148028969Y-67194000D01*
X148083600Y-67204867D01*
X148083600Y-67204867D01*
G37*
G36*
X145488665Y-67197622D02*
X145562222Y-67204867D01*
X145703786Y-67247810D01*
X145834252Y-67317546D01*
X145948606Y-67411394D01*
X146042454Y-67525748D01*
X146112190Y-67656214D01*
X146155133Y-67797778D01*
X146169633Y-67945000D01*
X146155133Y-68092222D01*
X146112190Y-68233786D01*
X146042454Y-68364252D01*
X145948606Y-68478606D01*
X145834252Y-68572454D01*
X145703786Y-68642190D01*
X145562222Y-68685133D01*
X145488665Y-68692378D01*
X145451888Y-68696000D01*
X145378112Y-68696000D01*
X145341335Y-68692378D01*
X145267778Y-68685133D01*
X145126214Y-68642190D01*
X144995748Y-68572454D01*
X144881394Y-68478606D01*
X144787546Y-68364252D01*
X144717810Y-68233786D01*
X144674867Y-68092222D01*
X144660367Y-67945000D01*
X144674867Y-67797778D01*
X144717810Y-67656214D01*
X144787546Y-67525748D01*
X144881394Y-67411394D01*
X144995748Y-67317546D01*
X145126214Y-67247810D01*
X145267778Y-67204867D01*
X145341335Y-67197622D01*
X145378112Y-67194000D01*
X145451888Y-67194000D01*
X145488665Y-67197622D01*
X145488665Y-67197622D01*
G37*
G36*
X107388665Y-67197622D02*
X107462222Y-67204867D01*
X107603786Y-67247810D01*
X107734252Y-67317546D01*
X107848606Y-67411394D01*
X107942454Y-67525748D01*
X108012190Y-67656214D01*
X108055133Y-67797778D01*
X108069633Y-67945000D01*
X108055133Y-68092222D01*
X108012190Y-68233786D01*
X107942454Y-68364252D01*
X107848606Y-68478606D01*
X107734252Y-68572454D01*
X107603786Y-68642190D01*
X107462222Y-68685133D01*
X107388665Y-68692378D01*
X107351888Y-68696000D01*
X107278112Y-68696000D01*
X107241335Y-68692378D01*
X107167778Y-68685133D01*
X107026214Y-68642190D01*
X106895748Y-68572454D01*
X106781394Y-68478606D01*
X106687546Y-68364252D01*
X106617810Y-68233786D01*
X106574867Y-68092222D01*
X106560367Y-67945000D01*
X106574867Y-67797778D01*
X106617810Y-67656214D01*
X106687546Y-67525748D01*
X106781394Y-67411394D01*
X106895748Y-67317546D01*
X107026214Y-67247810D01*
X107167778Y-67204867D01*
X107241335Y-67197622D01*
X107278112Y-67194000D01*
X107351888Y-67194000D01*
X107388665Y-67197622D01*
X107388665Y-67197622D01*
G37*
G36*
X118818665Y-67197622D02*
X118892222Y-67204867D01*
X119033786Y-67247810D01*
X119164252Y-67317546D01*
X119278606Y-67411394D01*
X119372454Y-67525748D01*
X119442190Y-67656214D01*
X119485133Y-67797778D01*
X119499633Y-67945000D01*
X119485133Y-68092222D01*
X119442190Y-68233786D01*
X119372454Y-68364252D01*
X119278606Y-68478606D01*
X119164252Y-68572454D01*
X119033786Y-68642190D01*
X118892222Y-68685133D01*
X118818665Y-68692378D01*
X118781888Y-68696000D01*
X118708112Y-68696000D01*
X118671335Y-68692378D01*
X118597778Y-68685133D01*
X118456214Y-68642190D01*
X118325748Y-68572454D01*
X118211394Y-68478606D01*
X118117546Y-68364252D01*
X118047810Y-68233786D01*
X118004867Y-68092222D01*
X117990367Y-67945000D01*
X118004867Y-67797778D01*
X118047810Y-67656214D01*
X118117546Y-67525748D01*
X118211394Y-67411394D01*
X118325748Y-67317546D01*
X118456214Y-67247810D01*
X118597778Y-67204867D01*
X118671335Y-67197622D01*
X118708112Y-67194000D01*
X118781888Y-67194000D01*
X118818665Y-67197622D01*
X118818665Y-67197622D01*
G37*
G36*
X162912527Y-61988736D02*
X163012410Y-62008604D01*
X163294674Y-62125521D01*
X163548705Y-62295259D01*
X163764741Y-62511295D01*
X163934479Y-62765326D01*
X164051396Y-63047590D01*
X164062176Y-63101787D01*
X164111000Y-63347238D01*
X164111000Y-63652762D01*
X164081267Y-63802239D01*
X164051396Y-63952410D01*
X163934479Y-64234674D01*
X163764741Y-64488705D01*
X163548705Y-64704741D01*
X163294674Y-64874479D01*
X163012410Y-64991396D01*
X162912527Y-65011264D01*
X162712762Y-65051000D01*
X162407238Y-65051000D01*
X162207473Y-65011264D01*
X162107590Y-64991396D01*
X161825326Y-64874479D01*
X161571295Y-64704741D01*
X161355259Y-64488705D01*
X161185521Y-64234674D01*
X161068604Y-63952410D01*
X161038733Y-63802239D01*
X161009000Y-63652762D01*
X161009000Y-63347238D01*
X161057824Y-63101787D01*
X161068604Y-63047590D01*
X161185521Y-62765326D01*
X161355259Y-62511295D01*
X161571295Y-62295259D01*
X161825326Y-62125521D01*
X162107590Y-62008604D01*
X162207473Y-61988736D01*
X162407238Y-61949000D01*
X162712762Y-61949000D01*
X162912527Y-61988736D01*
X162912527Y-61988736D01*
G37*
G36*
X103151000Y-65051000D02*
X100049000Y-65051000D01*
X100049000Y-61949000D01*
X103151000Y-61949000D01*
X103151000Y-65051000D01*
X103151000Y-65051000D01*
G37*
G36*
X112711000Y-64451000D02*
X110809000Y-64451000D01*
X110809000Y-62549000D01*
X112711000Y-62549000D01*
X112711000Y-64451000D01*
X112711000Y-64451000D01*
G37*
G36*
X117026425Y-62562760D02*
X117026428Y-62562761D01*
X117026429Y-62562761D01*
X117205693Y-62617140D01*
X117205695Y-62617141D01*
X117370905Y-62705448D01*
X117515712Y-62824288D01*
X117634552Y-62969095D01*
X117678561Y-63051429D01*
X117722860Y-63134307D01*
X117761963Y-63263213D01*
X117777240Y-63313575D01*
X117795601Y-63500000D01*
X117777240Y-63686425D01*
X117777239Y-63686428D01*
X117777239Y-63686429D01*
X117735322Y-63824612D01*
X117722859Y-63865695D01*
X117634552Y-64030905D01*
X117515712Y-64175712D01*
X117370905Y-64294552D01*
X117354307Y-64303424D01*
X117205693Y-64382860D01*
X117026429Y-64437239D01*
X117026428Y-64437239D01*
X117026425Y-64437240D01*
X116886718Y-64451000D01*
X116793282Y-64451000D01*
X116653575Y-64437240D01*
X116653572Y-64437239D01*
X116653571Y-64437239D01*
X116474307Y-64382860D01*
X116325693Y-64303424D01*
X116309095Y-64294552D01*
X116164288Y-64175712D01*
X116045448Y-64030905D01*
X115957141Y-63865695D01*
X115944679Y-63824612D01*
X115902761Y-63686429D01*
X115902761Y-63686428D01*
X115902760Y-63686425D01*
X115884399Y-63500000D01*
X115902760Y-63313575D01*
X115918037Y-63263213D01*
X115957140Y-63134307D01*
X116001439Y-63051429D01*
X116045448Y-62969095D01*
X116164288Y-62824288D01*
X116309095Y-62705448D01*
X116474305Y-62617141D01*
X116474307Y-62617140D01*
X116653571Y-62562761D01*
X116653572Y-62562761D01*
X116653575Y-62562760D01*
X116793282Y-62549000D01*
X116886718Y-62549000D01*
X117026425Y-62562760D01*
X117026425Y-62562760D01*
G37*
G36*
X114486425Y-62562760D02*
X114486428Y-62562761D01*
X114486429Y-62562761D01*
X114665693Y-62617140D01*
X114665695Y-62617141D01*
X114830905Y-62705448D01*
X114975712Y-62824288D01*
X115094552Y-62969095D01*
X115138561Y-63051429D01*
X115182860Y-63134307D01*
X115221963Y-63263213D01*
X115237240Y-63313575D01*
X115255601Y-63500000D01*
X115237240Y-63686425D01*
X115237239Y-63686428D01*
X115237239Y-63686429D01*
X115195322Y-63824612D01*
X115182859Y-63865695D01*
X115094552Y-64030905D01*
X114975712Y-64175712D01*
X114830905Y-64294552D01*
X114814307Y-64303424D01*
X114665693Y-64382860D01*
X114486429Y-64437239D01*
X114486428Y-64437239D01*
X114486425Y-64437240D01*
X114346718Y-64451000D01*
X114253282Y-64451000D01*
X114113575Y-64437240D01*
X114113572Y-64437239D01*
X114113571Y-64437239D01*
X113934307Y-64382860D01*
X113785693Y-64303424D01*
X113769095Y-64294552D01*
X113624288Y-64175712D01*
X113505448Y-64030905D01*
X113417141Y-63865695D01*
X113404679Y-63824612D01*
X113362761Y-63686429D01*
X113362761Y-63686428D01*
X113362760Y-63686425D01*
X113344399Y-63500000D01*
X113362760Y-63313575D01*
X113378037Y-63263213D01*
X113417140Y-63134307D01*
X113461439Y-63051429D01*
X113505448Y-62969095D01*
X113624288Y-62824288D01*
X113769095Y-62705448D01*
X113934305Y-62617141D01*
X113934307Y-62617140D01*
X114113571Y-62562761D01*
X114113572Y-62562761D01*
X114113575Y-62562760D01*
X114253282Y-62549000D01*
X114346718Y-62549000D01*
X114486425Y-62562760D01*
X114486425Y-62562760D01*
G37*
G36*
X142973213Y-62706249D02*
X143067652Y-62734897D01*
X143154687Y-62781418D01*
X143230975Y-62844025D01*
X143293582Y-62920313D01*
X143340103Y-63007348D01*
X143368751Y-63101787D01*
X143376000Y-63175388D01*
X143376000Y-63824612D01*
X143368751Y-63898213D01*
X143340103Y-63992652D01*
X143293582Y-64079687D01*
X143230975Y-64155975D01*
X143154687Y-64218582D01*
X143067651Y-64265103D01*
X142973212Y-64293751D01*
X142875000Y-64303424D01*
X142776787Y-64293751D01*
X142682348Y-64265103D01*
X142595313Y-64218582D01*
X142519025Y-64155975D01*
X142456418Y-64079687D01*
X142409897Y-63992651D01*
X142381249Y-63898212D01*
X142374000Y-63824611D01*
X142374000Y-63175398D01*
X142381250Y-63101789D01*
X142381250Y-63101787D01*
X142409898Y-63007348D01*
X142409898Y-63007347D01*
X142456420Y-62920312D01*
X142519026Y-62844025D01*
X142595314Y-62781418D01*
X142682349Y-62734897D01*
X142776788Y-62706249D01*
X142875000Y-62696576D01*
X142973213Y-62706249D01*
X142973213Y-62706249D01*
G37*
G36*
X141703213Y-62706249D02*
X141797652Y-62734897D01*
X141884687Y-62781418D01*
X141960975Y-62844025D01*
X142023582Y-62920313D01*
X142070103Y-63007348D01*
X142098751Y-63101787D01*
X142106000Y-63175388D01*
X142106000Y-63824612D01*
X142098751Y-63898213D01*
X142070103Y-63992652D01*
X142023582Y-64079687D01*
X141960975Y-64155975D01*
X141884687Y-64218582D01*
X141797651Y-64265103D01*
X141703212Y-64293751D01*
X141605000Y-64303424D01*
X141506787Y-64293751D01*
X141412348Y-64265103D01*
X141325313Y-64218582D01*
X141249025Y-64155975D01*
X141186418Y-64079687D01*
X141139897Y-63992651D01*
X141111249Y-63898212D01*
X141104000Y-63824611D01*
X141104000Y-63175398D01*
X141111250Y-63101789D01*
X141111250Y-63101787D01*
X141139898Y-63007348D01*
X141139898Y-63007347D01*
X141186420Y-62920312D01*
X141249026Y-62844025D01*
X141325314Y-62781418D01*
X141412349Y-62734897D01*
X141506788Y-62706249D01*
X141605000Y-62696576D01*
X141703213Y-62706249D01*
X141703213Y-62706249D01*
G37*
G36*
X140836000Y-64301000D02*
X139834000Y-64301000D01*
X139834000Y-62699000D01*
X140836000Y-62699000D01*
X140836000Y-64301000D01*
X140836000Y-64301000D01*
G37*
G36*
X147506425Y-61927760D02*
X147506428Y-61927761D01*
X147506429Y-61927761D01*
X147685693Y-61982140D01*
X147685695Y-61982141D01*
X147850905Y-62070448D01*
X147995712Y-62189288D01*
X148114552Y-62334095D01*
X148114553Y-62334097D01*
X148202860Y-62499307D01*
X148238604Y-62617140D01*
X148257240Y-62678575D01*
X148275601Y-62865000D01*
X148257240Y-63051425D01*
X148257239Y-63051428D01*
X148257239Y-63051429D01*
X148215322Y-63189612D01*
X148202859Y-63230695D01*
X148114552Y-63395905D01*
X147995712Y-63540712D01*
X147850905Y-63659552D01*
X147834307Y-63668424D01*
X147685693Y-63747860D01*
X147506429Y-63802239D01*
X147506428Y-63802239D01*
X147506425Y-63802240D01*
X147366718Y-63816000D01*
X147273282Y-63816000D01*
X147133575Y-63802240D01*
X147133572Y-63802239D01*
X147133571Y-63802239D01*
X146954307Y-63747860D01*
X146805693Y-63668424D01*
X146789095Y-63659552D01*
X146644288Y-63540712D01*
X146525448Y-63395905D01*
X146437141Y-63230695D01*
X146424679Y-63189612D01*
X146382761Y-63051429D01*
X146382761Y-63051428D01*
X146382760Y-63051425D01*
X146364399Y-62865000D01*
X146382760Y-62678575D01*
X146401396Y-62617140D01*
X146437140Y-62499307D01*
X146525447Y-62334097D01*
X146525448Y-62334095D01*
X146644288Y-62189288D01*
X146789095Y-62070448D01*
X146954305Y-61982141D01*
X146954307Y-61982140D01*
X147133571Y-61927761D01*
X147133572Y-61927761D01*
X147133575Y-61927760D01*
X147273282Y-61914000D01*
X147366718Y-61914000D01*
X147506425Y-61927760D01*
X147506425Y-61927760D01*
G37*
G36*
X153351000Y-63816000D02*
X151449000Y-63816000D01*
X151449000Y-61914000D01*
X153351000Y-61914000D01*
X153351000Y-63816000D01*
X153351000Y-63816000D01*
G37*
G36*
X150046425Y-61927760D02*
X150046428Y-61927761D01*
X150046429Y-61927761D01*
X150225693Y-61982140D01*
X150225695Y-61982141D01*
X150390905Y-62070448D01*
X150535712Y-62189288D01*
X150654552Y-62334095D01*
X150654553Y-62334097D01*
X150742860Y-62499307D01*
X150778604Y-62617140D01*
X150797240Y-62678575D01*
X150815601Y-62865000D01*
X150797240Y-63051425D01*
X150797239Y-63051428D01*
X150797239Y-63051429D01*
X150755322Y-63189612D01*
X150742859Y-63230695D01*
X150654552Y-63395905D01*
X150535712Y-63540712D01*
X150390905Y-63659552D01*
X150374307Y-63668424D01*
X150225693Y-63747860D01*
X150046429Y-63802239D01*
X150046428Y-63802239D01*
X150046425Y-63802240D01*
X149906718Y-63816000D01*
X149813282Y-63816000D01*
X149673575Y-63802240D01*
X149673572Y-63802239D01*
X149673571Y-63802239D01*
X149494307Y-63747860D01*
X149345693Y-63668424D01*
X149329095Y-63659552D01*
X149184288Y-63540712D01*
X149065448Y-63395905D01*
X148977141Y-63230695D01*
X148964679Y-63189612D01*
X148922761Y-63051429D01*
X148922761Y-63051428D01*
X148922760Y-63051425D01*
X148904399Y-62865000D01*
X148922760Y-62678575D01*
X148941396Y-62617140D01*
X148977140Y-62499307D01*
X149065447Y-62334097D01*
X149065448Y-62334095D01*
X149184288Y-62189288D01*
X149329095Y-62070448D01*
X149494305Y-61982141D01*
X149494307Y-61982140D01*
X149673571Y-61927761D01*
X149673572Y-61927761D01*
X149673575Y-61927760D01*
X149813282Y-61914000D01*
X149906718Y-61914000D01*
X150046425Y-61927760D01*
X150046425Y-61927760D01*
G37*
G36*
X122653212Y-62071249D02*
X122747651Y-62099897D01*
X122834687Y-62146418D01*
X122910975Y-62209025D01*
X122973582Y-62285313D01*
X123020103Y-62372348D01*
X123048751Y-62466787D01*
X123056000Y-62540388D01*
X123056000Y-63189612D01*
X123048751Y-63263213D01*
X123020103Y-63357652D01*
X122973582Y-63444687D01*
X122910975Y-63520975D01*
X122834687Y-63583582D01*
X122747652Y-63630103D01*
X122653213Y-63658751D01*
X122555000Y-63668424D01*
X122456788Y-63658751D01*
X122362349Y-63630103D01*
X122275314Y-63583582D01*
X122199026Y-63520975D01*
X122136419Y-63444687D01*
X122114764Y-63404174D01*
X122089898Y-63357653D01*
X122076526Y-63313571D01*
X122061250Y-63263213D01*
X122054001Y-63189612D01*
X122054000Y-63189602D01*
X122054000Y-62540389D01*
X122061249Y-62466788D01*
X122089897Y-62372349D01*
X122136418Y-62285313D01*
X122199025Y-62209025D01*
X122275313Y-62146418D01*
X122362348Y-62099897D01*
X122456787Y-62071249D01*
X122555000Y-62061576D01*
X122653212Y-62071249D01*
X122653212Y-62071249D01*
G37*
G36*
X121383212Y-62071249D02*
X121477651Y-62099897D01*
X121564687Y-62146418D01*
X121640975Y-62209025D01*
X121703582Y-62285313D01*
X121750103Y-62372348D01*
X121778751Y-62466787D01*
X121786000Y-62540388D01*
X121786000Y-63189612D01*
X121778751Y-63263213D01*
X121750103Y-63357652D01*
X121703582Y-63444687D01*
X121640975Y-63520975D01*
X121564687Y-63583582D01*
X121477652Y-63630103D01*
X121383213Y-63658751D01*
X121285000Y-63668424D01*
X121186788Y-63658751D01*
X121092349Y-63630103D01*
X121005314Y-63583582D01*
X120929026Y-63520975D01*
X120866419Y-63444687D01*
X120844764Y-63404174D01*
X120819898Y-63357653D01*
X120806526Y-63313571D01*
X120791250Y-63263213D01*
X120784001Y-63189612D01*
X120784000Y-63189602D01*
X120784000Y-62540389D01*
X120791249Y-62466788D01*
X120819897Y-62372349D01*
X120866418Y-62285313D01*
X120929025Y-62209025D01*
X121005313Y-62146418D01*
X121092348Y-62099897D01*
X121186787Y-62071249D01*
X121285000Y-62061576D01*
X121383212Y-62071249D01*
X121383212Y-62071249D01*
G37*
G36*
X124326000Y-63666000D02*
X123324000Y-63666000D01*
X123324000Y-62064000D01*
X124326000Y-62064000D01*
X124326000Y-63666000D01*
X124326000Y-63666000D01*
G37*
G36*
X142556000Y-60006000D02*
X140654000Y-60006000D01*
X140654000Y-58104000D01*
X142556000Y-58104000D01*
X142556000Y-60006000D01*
X142556000Y-60006000D01*
G37*
G36*
X123506000Y-60006000D02*
X121604000Y-60006000D01*
X121604000Y-58104000D01*
X123506000Y-58104000D01*
X123506000Y-60006000D01*
X123506000Y-60006000D01*
G37*
G36*
X101952527Y-56908736D02*
X102052410Y-56928604D01*
X102334674Y-57045521D01*
X102588705Y-57215259D01*
X102804741Y-57431295D01*
X102974479Y-57685326D01*
X103074727Y-57927348D01*
X103091396Y-57967591D01*
X103151000Y-58267238D01*
X103151000Y-58572762D01*
X103138471Y-58635747D01*
X103091396Y-58872410D01*
X102974479Y-59154674D01*
X102804741Y-59408705D01*
X102588705Y-59624741D01*
X102334674Y-59794479D01*
X102052410Y-59911396D01*
X101952527Y-59931264D01*
X101752762Y-59971000D01*
X101447238Y-59971000D01*
X101247473Y-59931264D01*
X101147590Y-59911396D01*
X100865326Y-59794479D01*
X100611295Y-59624741D01*
X100395259Y-59408705D01*
X100225521Y-59154674D01*
X100108604Y-58872410D01*
X100061529Y-58635747D01*
X100049000Y-58572762D01*
X100049000Y-58267238D01*
X100108604Y-57967591D01*
X100125273Y-57927348D01*
X100225521Y-57685326D01*
X100395259Y-57431295D01*
X100611295Y-57215259D01*
X100865326Y-57045521D01*
X101147590Y-56928604D01*
X101247473Y-56908736D01*
X101447238Y-56869000D01*
X101752762Y-56869000D01*
X101952527Y-56908736D01*
X101952527Y-56908736D01*
G37*
G36*
X164111000Y-59971000D02*
X161009000Y-59971000D01*
X161009000Y-56869000D01*
X164111000Y-56869000D01*
X164111000Y-59971000D01*
X164111000Y-59971000D01*
G37*
G36*
X156973600Y-58314867D02*
X157064059Y-58332860D01*
X157200732Y-58389472D01*
X157322079Y-58470554D01*
X157323738Y-58471662D01*
X157428338Y-58576262D01*
X157428340Y-58576265D01*
X157510528Y-58699268D01*
X157567140Y-58835941D01*
X157574394Y-58872410D01*
X157596000Y-58981031D01*
X157596000Y-59128969D01*
X157590887Y-59154672D01*
X157567140Y-59274059D01*
X157510528Y-59410732D01*
X157429446Y-59532079D01*
X157428338Y-59533738D01*
X157323738Y-59638338D01*
X157323735Y-59638340D01*
X157200732Y-59720528D01*
X157064059Y-59777140D01*
X156977004Y-59794456D01*
X156918969Y-59806000D01*
X156771031Y-59806000D01*
X156712996Y-59794456D01*
X156625941Y-59777140D01*
X156489268Y-59720528D01*
X156366265Y-59638340D01*
X156366262Y-59638338D01*
X156261662Y-59533738D01*
X156260554Y-59532079D01*
X156179472Y-59410732D01*
X156122860Y-59274059D01*
X156099113Y-59154672D01*
X156094000Y-59128969D01*
X156094000Y-58981031D01*
X156115606Y-58872410D01*
X156122860Y-58835941D01*
X156179472Y-58699268D01*
X156261660Y-58576265D01*
X156261662Y-58576262D01*
X156366262Y-58471662D01*
X156367921Y-58470554D01*
X156489268Y-58389472D01*
X156625941Y-58332860D01*
X156716400Y-58314867D01*
X156771031Y-58304000D01*
X156918969Y-58304000D01*
X156973600Y-58314867D01*
X156973600Y-58314867D01*
G37*
G36*
X118873600Y-58314867D02*
X118964059Y-58332860D01*
X119100732Y-58389472D01*
X119222079Y-58470554D01*
X119223738Y-58471662D01*
X119328338Y-58576262D01*
X119328340Y-58576265D01*
X119410528Y-58699268D01*
X119467140Y-58835941D01*
X119474394Y-58872410D01*
X119496000Y-58981031D01*
X119496000Y-59128969D01*
X119490887Y-59154672D01*
X119467140Y-59274059D01*
X119410528Y-59410732D01*
X119329446Y-59532079D01*
X119328338Y-59533738D01*
X119223738Y-59638338D01*
X119223735Y-59638340D01*
X119100732Y-59720528D01*
X118964059Y-59777140D01*
X118877004Y-59794456D01*
X118818969Y-59806000D01*
X118671031Y-59806000D01*
X118612996Y-59794456D01*
X118525941Y-59777140D01*
X118389268Y-59720528D01*
X118266265Y-59638340D01*
X118266262Y-59638338D01*
X118161662Y-59533738D01*
X118160554Y-59532079D01*
X118079472Y-59410732D01*
X118022860Y-59274059D01*
X117999113Y-59154672D01*
X117994000Y-59128969D01*
X117994000Y-58981031D01*
X118015606Y-58872410D01*
X118022860Y-58835941D01*
X118079472Y-58699268D01*
X118161660Y-58576265D01*
X118161662Y-58576262D01*
X118266262Y-58471662D01*
X118267921Y-58470554D01*
X118389268Y-58389472D01*
X118525941Y-58332860D01*
X118616400Y-58314867D01*
X118671031Y-58304000D01*
X118818969Y-58304000D01*
X118873600Y-58314867D01*
X118873600Y-58314867D01*
G37*
G36*
X145543600Y-58314867D02*
X145634059Y-58332860D01*
X145770732Y-58389472D01*
X145892079Y-58470554D01*
X145893738Y-58471662D01*
X145998338Y-58576262D01*
X145998340Y-58576265D01*
X146080528Y-58699268D01*
X146137140Y-58835941D01*
X146144394Y-58872410D01*
X146166000Y-58981031D01*
X146166000Y-59128969D01*
X146160887Y-59154672D01*
X146137140Y-59274059D01*
X146080528Y-59410732D01*
X145999446Y-59532079D01*
X145998338Y-59533738D01*
X145893738Y-59638338D01*
X145893735Y-59638340D01*
X145770732Y-59720528D01*
X145634059Y-59777140D01*
X145547004Y-59794456D01*
X145488969Y-59806000D01*
X145341031Y-59806000D01*
X145282996Y-59794456D01*
X145195941Y-59777140D01*
X145059268Y-59720528D01*
X144936265Y-59638340D01*
X144936262Y-59638338D01*
X144831662Y-59533738D01*
X144830554Y-59532079D01*
X144749472Y-59410732D01*
X144692860Y-59274059D01*
X144669113Y-59154672D01*
X144664000Y-59128969D01*
X144664000Y-58981031D01*
X144685606Y-58872410D01*
X144692860Y-58835941D01*
X144749472Y-58699268D01*
X144831660Y-58576265D01*
X144831662Y-58576262D01*
X144936262Y-58471662D01*
X144937921Y-58470554D01*
X145059268Y-58389472D01*
X145195941Y-58332860D01*
X145286400Y-58314867D01*
X145341031Y-58304000D01*
X145488969Y-58304000D01*
X145543600Y-58314867D01*
X145543600Y-58314867D01*
G37*
G36*
X148028665Y-58307622D02*
X148102222Y-58314867D01*
X148243786Y-58357810D01*
X148374252Y-58427546D01*
X148488606Y-58521394D01*
X148582454Y-58635748D01*
X148652190Y-58766214D01*
X148695133Y-58907778D01*
X148709633Y-59055000D01*
X148695133Y-59202222D01*
X148652190Y-59343786D01*
X148582454Y-59474252D01*
X148488606Y-59588606D01*
X148374252Y-59682454D01*
X148243786Y-59752190D01*
X148102222Y-59795133D01*
X148028665Y-59802378D01*
X147991888Y-59806000D01*
X147918112Y-59806000D01*
X147881335Y-59802378D01*
X147807778Y-59795133D01*
X147666214Y-59752190D01*
X147535748Y-59682454D01*
X147421394Y-59588606D01*
X147327546Y-59474252D01*
X147257810Y-59343786D01*
X147214867Y-59202222D01*
X147200367Y-59055000D01*
X147214867Y-58907778D01*
X147257810Y-58766214D01*
X147327546Y-58635748D01*
X147421394Y-58521394D01*
X147535748Y-58427546D01*
X147666214Y-58357810D01*
X147807778Y-58314867D01*
X147881335Y-58307622D01*
X147918112Y-58304000D01*
X147991888Y-58304000D01*
X148028665Y-58307622D01*
X148028665Y-58307622D01*
G37*
G36*
X107443600Y-58314867D02*
X107534059Y-58332860D01*
X107670732Y-58389472D01*
X107792079Y-58470554D01*
X107793738Y-58471662D01*
X107898338Y-58576262D01*
X107898340Y-58576265D01*
X107980528Y-58699268D01*
X108037140Y-58835941D01*
X108044394Y-58872410D01*
X108066000Y-58981031D01*
X108066000Y-59128969D01*
X108060887Y-59154672D01*
X108037140Y-59274059D01*
X107980528Y-59410732D01*
X107899446Y-59532079D01*
X107898338Y-59533738D01*
X107793738Y-59638338D01*
X107793735Y-59638340D01*
X107670732Y-59720528D01*
X107534059Y-59777140D01*
X107447004Y-59794456D01*
X107388969Y-59806000D01*
X107241031Y-59806000D01*
X107182996Y-59794456D01*
X107095941Y-59777140D01*
X106959268Y-59720528D01*
X106836265Y-59638340D01*
X106836262Y-59638338D01*
X106731662Y-59533738D01*
X106730554Y-59532079D01*
X106649472Y-59410732D01*
X106592860Y-59274059D01*
X106569113Y-59154672D01*
X106564000Y-59128969D01*
X106564000Y-58981031D01*
X106585606Y-58872410D01*
X106592860Y-58835941D01*
X106649472Y-58699268D01*
X106731660Y-58576265D01*
X106731662Y-58576262D01*
X106836262Y-58471662D01*
X106837921Y-58470554D01*
X106959268Y-58389472D01*
X107095941Y-58332860D01*
X107186400Y-58314867D01*
X107241031Y-58304000D01*
X107388969Y-58304000D01*
X107443600Y-58314867D01*
X107443600Y-58314867D01*
G37*
G36*
X116278665Y-58307622D02*
X116352222Y-58314867D01*
X116493786Y-58357810D01*
X116624252Y-58427546D01*
X116738606Y-58521394D01*
X116832454Y-58635748D01*
X116902190Y-58766214D01*
X116945133Y-58907778D01*
X116959633Y-59055000D01*
X116945133Y-59202222D01*
X116902190Y-59343786D01*
X116832454Y-59474252D01*
X116738606Y-59588606D01*
X116624252Y-59682454D01*
X116493786Y-59752190D01*
X116352222Y-59795133D01*
X116278665Y-59802378D01*
X116241888Y-59806000D01*
X116168112Y-59806000D01*
X116131335Y-59802378D01*
X116057778Y-59795133D01*
X115916214Y-59752190D01*
X115785748Y-59682454D01*
X115671394Y-59588606D01*
X115577546Y-59474252D01*
X115507810Y-59343786D01*
X115464867Y-59202222D01*
X115450367Y-59055000D01*
X115464867Y-58907778D01*
X115507810Y-58766214D01*
X115577546Y-58635748D01*
X115671394Y-58521394D01*
X115785748Y-58427546D01*
X115916214Y-58357810D01*
X116057778Y-58314867D01*
X116131335Y-58307622D01*
X116168112Y-58304000D01*
X116241888Y-58304000D01*
X116278665Y-58307622D01*
X116278665Y-58307622D01*
G37*
G36*
X113128213Y-57626249D02*
X113222652Y-57654897D01*
X113309687Y-57701418D01*
X113385975Y-57764025D01*
X113448582Y-57840313D01*
X113495103Y-57927348D01*
X113523751Y-58021787D01*
X113531000Y-58095388D01*
X113531000Y-58744612D01*
X113523751Y-58818213D01*
X113495103Y-58912652D01*
X113448582Y-58999687D01*
X113385975Y-59075975D01*
X113309687Y-59138582D01*
X113222651Y-59185103D01*
X113128212Y-59213751D01*
X113030000Y-59223424D01*
X112931787Y-59213751D01*
X112837348Y-59185103D01*
X112750313Y-59138582D01*
X112674025Y-59075975D01*
X112611418Y-58999687D01*
X112564897Y-58912651D01*
X112536249Y-58818212D01*
X112529000Y-58744611D01*
X112529000Y-58095398D01*
X112536250Y-58021789D01*
X112536250Y-58021787D01*
X112564898Y-57927348D01*
X112564898Y-57927347D01*
X112611420Y-57840312D01*
X112674026Y-57764025D01*
X112750314Y-57701418D01*
X112837349Y-57654897D01*
X112931788Y-57626249D01*
X113030000Y-57616576D01*
X113128213Y-57626249D01*
X113128213Y-57626249D01*
G37*
G36*
X111858213Y-57626249D02*
X111952652Y-57654897D01*
X112039687Y-57701418D01*
X112115975Y-57764025D01*
X112178582Y-57840313D01*
X112225103Y-57927348D01*
X112253751Y-58021787D01*
X112261000Y-58095388D01*
X112261000Y-58744612D01*
X112253751Y-58818213D01*
X112225103Y-58912652D01*
X112178582Y-58999687D01*
X112115975Y-59075975D01*
X112039687Y-59138582D01*
X111952651Y-59185103D01*
X111858212Y-59213751D01*
X111760000Y-59223424D01*
X111661787Y-59213751D01*
X111567348Y-59185103D01*
X111480313Y-59138582D01*
X111404025Y-59075975D01*
X111341418Y-58999687D01*
X111294897Y-58912651D01*
X111266249Y-58818212D01*
X111259000Y-58744611D01*
X111259000Y-58095398D01*
X111266250Y-58021789D01*
X111266250Y-58021787D01*
X111294898Y-57927348D01*
X111294898Y-57927347D01*
X111341420Y-57840312D01*
X111404026Y-57764025D01*
X111480314Y-57701418D01*
X111567349Y-57654897D01*
X111661788Y-57626249D01*
X111760000Y-57616576D01*
X111858213Y-57626249D01*
X111858213Y-57626249D01*
G37*
G36*
X110991000Y-59221000D02*
X109989000Y-59221000D01*
X109989000Y-57619000D01*
X110991000Y-57619000D01*
X110991000Y-59221000D01*
X110991000Y-59221000D01*
G37*
G36*
X152498212Y-56991249D02*
X152592651Y-57019897D01*
X152679687Y-57066418D01*
X152755975Y-57129025D01*
X152818582Y-57205313D01*
X152865103Y-57292348D01*
X152893751Y-57386787D01*
X152901000Y-57460388D01*
X152901000Y-58109612D01*
X152893751Y-58183213D01*
X152865103Y-58277652D01*
X152818582Y-58364687D01*
X152755975Y-58440975D01*
X152679687Y-58503582D01*
X152592652Y-58550103D01*
X152498213Y-58578751D01*
X152400000Y-58588424D01*
X152301788Y-58578751D01*
X152207349Y-58550103D01*
X152120314Y-58503582D01*
X152044026Y-58440975D01*
X151981419Y-58364687D01*
X151948981Y-58304000D01*
X151934898Y-58277653D01*
X151925349Y-58246172D01*
X151906250Y-58183213D01*
X151899001Y-58109612D01*
X151899000Y-58109602D01*
X151899000Y-57460389D01*
X151906249Y-57386788D01*
X151934897Y-57292349D01*
X151981418Y-57205313D01*
X152044025Y-57129025D01*
X152120313Y-57066418D01*
X152207348Y-57019897D01*
X152301787Y-56991249D01*
X152400000Y-56981576D01*
X152498212Y-56991249D01*
X152498212Y-56991249D01*
G37*
G36*
X151228212Y-56991249D02*
X151322651Y-57019897D01*
X151409687Y-57066418D01*
X151485975Y-57129025D01*
X151548582Y-57205313D01*
X151595103Y-57292348D01*
X151623751Y-57386787D01*
X151631000Y-57460388D01*
X151631000Y-58109612D01*
X151623751Y-58183213D01*
X151595103Y-58277652D01*
X151548582Y-58364687D01*
X151485975Y-58440975D01*
X151409687Y-58503582D01*
X151322652Y-58550103D01*
X151228213Y-58578751D01*
X151130000Y-58588424D01*
X151031788Y-58578751D01*
X150937349Y-58550103D01*
X150850314Y-58503582D01*
X150774026Y-58440975D01*
X150711419Y-58364687D01*
X150678981Y-58304000D01*
X150664898Y-58277653D01*
X150655349Y-58246172D01*
X150636250Y-58183213D01*
X150629001Y-58109612D01*
X150629000Y-58109602D01*
X150629000Y-57460389D01*
X150636249Y-57386788D01*
X150664897Y-57292349D01*
X150711418Y-57205313D01*
X150774025Y-57129025D01*
X150850313Y-57066418D01*
X150937348Y-57019897D01*
X151031787Y-56991249D01*
X151130000Y-56981576D01*
X151228212Y-56991249D01*
X151228212Y-56991249D01*
G37*
G36*
X154171000Y-58586000D02*
X153169000Y-58586000D01*
X153169000Y-56984000D01*
X154171000Y-56984000D01*
X154171000Y-58586000D01*
X154171000Y-58586000D01*
G37*
G36*
X122832396Y-55600546D02*
X123005466Y-55672234D01*
X123161230Y-55776312D01*
X123293688Y-55908770D01*
X123397766Y-56064534D01*
X123469454Y-56237604D01*
X123506000Y-56421333D01*
X123506000Y-56608667D01*
X123469454Y-56792396D01*
X123397766Y-56965466D01*
X123293688Y-57121230D01*
X123161230Y-57253688D01*
X123005466Y-57357766D01*
X122832396Y-57429454D01*
X122648667Y-57466000D01*
X122461333Y-57466000D01*
X122277604Y-57429454D01*
X122104534Y-57357766D01*
X121948770Y-57253688D01*
X121816312Y-57121230D01*
X121712234Y-56965466D01*
X121640546Y-56792396D01*
X121604000Y-56608667D01*
X121604000Y-56421333D01*
X121640546Y-56237604D01*
X121712234Y-56064534D01*
X121816312Y-55908770D01*
X121948770Y-55776312D01*
X122104534Y-55672234D01*
X122277604Y-55600546D01*
X122461333Y-55564000D01*
X122648667Y-55564000D01*
X122832396Y-55600546D01*
X122832396Y-55600546D01*
G37*
G36*
X141882396Y-55600546D02*
X142055466Y-55672234D01*
X142211230Y-55776312D01*
X142343688Y-55908770D01*
X142447766Y-56064534D01*
X142519454Y-56237604D01*
X142556000Y-56421333D01*
X142556000Y-56608667D01*
X142519454Y-56792396D01*
X142447766Y-56965466D01*
X142343688Y-57121230D01*
X142211230Y-57253688D01*
X142055466Y-57357766D01*
X141882396Y-57429454D01*
X141698667Y-57466000D01*
X141511333Y-57466000D01*
X141327604Y-57429454D01*
X141154534Y-57357766D01*
X140998770Y-57253688D01*
X140866312Y-57121230D01*
X140762234Y-56965466D01*
X140690546Y-56792396D01*
X140654000Y-56608667D01*
X140654000Y-56421333D01*
X140690546Y-56237604D01*
X140762234Y-56064534D01*
X140866312Y-55908770D01*
X140998770Y-55776312D01*
X141154534Y-55672234D01*
X141327604Y-55600546D01*
X141511333Y-55564000D01*
X141698667Y-55564000D01*
X141882396Y-55600546D01*
X141882396Y-55600546D01*
G37*
G36*
X116333600Y-55774867D02*
X116424059Y-55792860D01*
X116560732Y-55849472D01*
X116617715Y-55887547D01*
X116683738Y-55931662D01*
X116788338Y-56036262D01*
X116788340Y-56036265D01*
X116870528Y-56159268D01*
X116927140Y-56295941D01*
X116956000Y-56441033D01*
X116956000Y-56588967D01*
X116927140Y-56734059D01*
X116870528Y-56870732D01*
X116807229Y-56965466D01*
X116788338Y-56993738D01*
X116683738Y-57098338D01*
X116683735Y-57098340D01*
X116560732Y-57180528D01*
X116424059Y-57237140D01*
X116340865Y-57253688D01*
X116278969Y-57266000D01*
X116131031Y-57266000D01*
X116069135Y-57253688D01*
X115985941Y-57237140D01*
X115849268Y-57180528D01*
X115726265Y-57098340D01*
X115726262Y-57098338D01*
X115621662Y-56993738D01*
X115602771Y-56965466D01*
X115539472Y-56870732D01*
X115482860Y-56734059D01*
X115454000Y-56588967D01*
X115454000Y-56441033D01*
X115482860Y-56295941D01*
X115539472Y-56159268D01*
X115621660Y-56036265D01*
X115621662Y-56036262D01*
X115726262Y-55931662D01*
X115792285Y-55887547D01*
X115849268Y-55849472D01*
X115985941Y-55792860D01*
X116076400Y-55774867D01*
X116131031Y-55764000D01*
X116278969Y-55764000D01*
X116333600Y-55774867D01*
X116333600Y-55774867D01*
G37*
G36*
X145488665Y-55767622D02*
X145562222Y-55774867D01*
X145703786Y-55817810D01*
X145834252Y-55887546D01*
X145948606Y-55981394D01*
X146042454Y-56095748D01*
X146112190Y-56226214D01*
X146155133Y-56367778D01*
X146169633Y-56515000D01*
X146155133Y-56662222D01*
X146112190Y-56803786D01*
X146042454Y-56934252D01*
X145948606Y-57048606D01*
X145834252Y-57142454D01*
X145703786Y-57212190D01*
X145562222Y-57255133D01*
X145488665Y-57262378D01*
X145451888Y-57266000D01*
X145378112Y-57266000D01*
X145341335Y-57262378D01*
X145267778Y-57255133D01*
X145126214Y-57212190D01*
X144995748Y-57142454D01*
X144881394Y-57048606D01*
X144787546Y-56934252D01*
X144717810Y-56803786D01*
X144674867Y-56662222D01*
X144660367Y-56515000D01*
X144674867Y-56367778D01*
X144717810Y-56226214D01*
X144787546Y-56095748D01*
X144881394Y-55981394D01*
X144995748Y-55887546D01*
X145126214Y-55817810D01*
X145267778Y-55774867D01*
X145341335Y-55767622D01*
X145378112Y-55764000D01*
X145451888Y-55764000D01*
X145488665Y-55767622D01*
X145488665Y-55767622D01*
G37*
G36*
X148083600Y-55774867D02*
X148174059Y-55792860D01*
X148310732Y-55849472D01*
X148367715Y-55887547D01*
X148433738Y-55931662D01*
X148538338Y-56036262D01*
X148538340Y-56036265D01*
X148620528Y-56159268D01*
X148677140Y-56295941D01*
X148706000Y-56441033D01*
X148706000Y-56588967D01*
X148677140Y-56734059D01*
X148620528Y-56870732D01*
X148557229Y-56965466D01*
X148538338Y-56993738D01*
X148433738Y-57098338D01*
X148433735Y-57098340D01*
X148310732Y-57180528D01*
X148174059Y-57237140D01*
X148090865Y-57253688D01*
X148028969Y-57266000D01*
X147881031Y-57266000D01*
X147819135Y-57253688D01*
X147735941Y-57237140D01*
X147599268Y-57180528D01*
X147476265Y-57098340D01*
X147476262Y-57098338D01*
X147371662Y-56993738D01*
X147352771Y-56965466D01*
X147289472Y-56870732D01*
X147232860Y-56734059D01*
X147204000Y-56588967D01*
X147204000Y-56441033D01*
X147232860Y-56295941D01*
X147289472Y-56159268D01*
X147371660Y-56036265D01*
X147371662Y-56036262D01*
X147476262Y-55931662D01*
X147542285Y-55887547D01*
X147599268Y-55849472D01*
X147735941Y-55792860D01*
X147826400Y-55774867D01*
X147881031Y-55764000D01*
X148028969Y-55764000D01*
X148083600Y-55774867D01*
X148083600Y-55774867D01*
G37*
G36*
X107388665Y-55767622D02*
X107462222Y-55774867D01*
X107603786Y-55817810D01*
X107734252Y-55887546D01*
X107848606Y-55981394D01*
X107942454Y-56095748D01*
X108012190Y-56226214D01*
X108055133Y-56367778D01*
X108069633Y-56515000D01*
X108055133Y-56662222D01*
X108012190Y-56803786D01*
X107942454Y-56934252D01*
X107848606Y-57048606D01*
X107734252Y-57142454D01*
X107603786Y-57212190D01*
X107462222Y-57255133D01*
X107388665Y-57262378D01*
X107351888Y-57266000D01*
X107278112Y-57266000D01*
X107241335Y-57262378D01*
X107167778Y-57255133D01*
X107026214Y-57212190D01*
X106895748Y-57142454D01*
X106781394Y-57048606D01*
X106687546Y-56934252D01*
X106617810Y-56803786D01*
X106574867Y-56662222D01*
X106560367Y-56515000D01*
X106574867Y-56367778D01*
X106617810Y-56226214D01*
X106687546Y-56095748D01*
X106781394Y-55981394D01*
X106895748Y-55887546D01*
X107026214Y-55817810D01*
X107167778Y-55774867D01*
X107241335Y-55767622D01*
X107278112Y-55764000D01*
X107351888Y-55764000D01*
X107388665Y-55767622D01*
X107388665Y-55767622D01*
G37*
G36*
X118818665Y-55767622D02*
X118892222Y-55774867D01*
X119033786Y-55817810D01*
X119164252Y-55887546D01*
X119278606Y-55981394D01*
X119372454Y-56095748D01*
X119442190Y-56226214D01*
X119485133Y-56367778D01*
X119499633Y-56515000D01*
X119485133Y-56662222D01*
X119442190Y-56803786D01*
X119372454Y-56934252D01*
X119278606Y-57048606D01*
X119164252Y-57142454D01*
X119033786Y-57212190D01*
X118892222Y-57255133D01*
X118818665Y-57262378D01*
X118781888Y-57266000D01*
X118708112Y-57266000D01*
X118671335Y-57262378D01*
X118597778Y-57255133D01*
X118456214Y-57212190D01*
X118325748Y-57142454D01*
X118211394Y-57048606D01*
X118117546Y-56934252D01*
X118047810Y-56803786D01*
X118004867Y-56662222D01*
X117990367Y-56515000D01*
X118004867Y-56367778D01*
X118047810Y-56226214D01*
X118117546Y-56095748D01*
X118211394Y-55981394D01*
X118325748Y-55887546D01*
X118456214Y-55817810D01*
X118597778Y-55774867D01*
X118671335Y-55767622D01*
X118708112Y-55764000D01*
X118781888Y-55764000D01*
X118818665Y-55767622D01*
X118818665Y-55767622D01*
G37*
G36*
X156918665Y-55767622D02*
X156992222Y-55774867D01*
X157133786Y-55817810D01*
X157264252Y-55887546D01*
X157378606Y-55981394D01*
X157472454Y-56095748D01*
X157542190Y-56226214D01*
X157585133Y-56367778D01*
X157599633Y-56515000D01*
X157585133Y-56662222D01*
X157542190Y-56803786D01*
X157472454Y-56934252D01*
X157378606Y-57048606D01*
X157264252Y-57142454D01*
X157133786Y-57212190D01*
X156992222Y-57255133D01*
X156918665Y-57262378D01*
X156881888Y-57266000D01*
X156808112Y-57266000D01*
X156771335Y-57262378D01*
X156697778Y-57255133D01*
X156556214Y-57212190D01*
X156425748Y-57142454D01*
X156311394Y-57048606D01*
X156217546Y-56934252D01*
X156147810Y-56803786D01*
X156104867Y-56662222D01*
X156090367Y-56515000D01*
X156104867Y-56367778D01*
X156147810Y-56226214D01*
X156217546Y-56095748D01*
X156311394Y-55981394D01*
X156425748Y-55887546D01*
X156556214Y-55817810D01*
X156697778Y-55774867D01*
X156771335Y-55767622D01*
X156808112Y-55764000D01*
X156881888Y-55764000D01*
X156918665Y-55767622D01*
X156918665Y-55767622D01*
G37*
G36*
X103151000Y-53621000D02*
X100049000Y-53621000D01*
X100049000Y-50519000D01*
X103151000Y-50519000D01*
X103151000Y-53621000D01*
X103151000Y-53621000D01*
G37*
G36*
X162912527Y-50558736D02*
X163012410Y-50578604D01*
X163294674Y-50695521D01*
X163548705Y-50865259D01*
X163764741Y-51081295D01*
X163934479Y-51335326D01*
X164051396Y-51617590D01*
X164062176Y-51671787D01*
X164111000Y-51917238D01*
X164111000Y-52222762D01*
X164081267Y-52372239D01*
X164051396Y-52522410D01*
X163934479Y-52804674D01*
X163764741Y-53058705D01*
X163548705Y-53274741D01*
X163294674Y-53444479D01*
X163012410Y-53561396D01*
X162912527Y-53581264D01*
X162712762Y-53621000D01*
X162407238Y-53621000D01*
X162207473Y-53581264D01*
X162107590Y-53561396D01*
X161825326Y-53444479D01*
X161571295Y-53274741D01*
X161355259Y-53058705D01*
X161185521Y-52804674D01*
X161068604Y-52522410D01*
X161038733Y-52372239D01*
X161009000Y-52222762D01*
X161009000Y-51917238D01*
X161057824Y-51671787D01*
X161068604Y-51617590D01*
X161185521Y-51335326D01*
X161355259Y-51081295D01*
X161571295Y-50865259D01*
X161825326Y-50695521D01*
X162107590Y-50578604D01*
X162207473Y-50558736D01*
X162407238Y-50519000D01*
X162712762Y-50519000D01*
X162912527Y-50558736D01*
X162912527Y-50558736D01*
G37*
G36*
X112711000Y-53021000D02*
X110809000Y-53021000D01*
X110809000Y-51119000D01*
X112711000Y-51119000D01*
X112711000Y-53021000D01*
X112711000Y-53021000D01*
G37*
G36*
X114486425Y-51132760D02*
X114486428Y-51132761D01*
X114486429Y-51132761D01*
X114665693Y-51187140D01*
X114665695Y-51187141D01*
X114830905Y-51275448D01*
X114975712Y-51394288D01*
X115094552Y-51539095D01*
X115138561Y-51621429D01*
X115182860Y-51704307D01*
X115221963Y-51833213D01*
X115237240Y-51883575D01*
X115255601Y-52070000D01*
X115237240Y-52256425D01*
X115237239Y-52256428D01*
X115237239Y-52256429D01*
X115195322Y-52394612D01*
X115182859Y-52435695D01*
X115094552Y-52600905D01*
X114975712Y-52745712D01*
X114830905Y-52864552D01*
X114814307Y-52873424D01*
X114665693Y-52952860D01*
X114486429Y-53007239D01*
X114486428Y-53007239D01*
X114486425Y-53007240D01*
X114346718Y-53021000D01*
X114253282Y-53021000D01*
X114113575Y-53007240D01*
X114113572Y-53007239D01*
X114113571Y-53007239D01*
X113934307Y-52952860D01*
X113785693Y-52873424D01*
X113769095Y-52864552D01*
X113624288Y-52745712D01*
X113505448Y-52600905D01*
X113417141Y-52435695D01*
X113404679Y-52394612D01*
X113362761Y-52256429D01*
X113362761Y-52256428D01*
X113362760Y-52256425D01*
X113344399Y-52070000D01*
X113362760Y-51883575D01*
X113378037Y-51833213D01*
X113417140Y-51704307D01*
X113461439Y-51621429D01*
X113505448Y-51539095D01*
X113624288Y-51394288D01*
X113769095Y-51275448D01*
X113934305Y-51187141D01*
X113934307Y-51187140D01*
X114113571Y-51132761D01*
X114113572Y-51132761D01*
X114113575Y-51132760D01*
X114253282Y-51119000D01*
X114346718Y-51119000D01*
X114486425Y-51132760D01*
X114486425Y-51132760D01*
G37*
G36*
X117026425Y-51132760D02*
X117026428Y-51132761D01*
X117026429Y-51132761D01*
X117205693Y-51187140D01*
X117205695Y-51187141D01*
X117370905Y-51275448D01*
X117515712Y-51394288D01*
X117634552Y-51539095D01*
X117678561Y-51621429D01*
X117722860Y-51704307D01*
X117761963Y-51833213D01*
X117777240Y-51883575D01*
X117795601Y-52070000D01*
X117777240Y-52256425D01*
X117777239Y-52256428D01*
X117777239Y-52256429D01*
X117735322Y-52394612D01*
X117722859Y-52435695D01*
X117634552Y-52600905D01*
X117515712Y-52745712D01*
X117370905Y-52864552D01*
X117354307Y-52873424D01*
X117205693Y-52952860D01*
X117026429Y-53007239D01*
X117026428Y-53007239D01*
X117026425Y-53007240D01*
X116886718Y-53021000D01*
X116793282Y-53021000D01*
X116653575Y-53007240D01*
X116653572Y-53007239D01*
X116653571Y-53007239D01*
X116474307Y-52952860D01*
X116325693Y-52873424D01*
X116309095Y-52864552D01*
X116164288Y-52745712D01*
X116045448Y-52600905D01*
X115957141Y-52435695D01*
X115944679Y-52394612D01*
X115902761Y-52256429D01*
X115902761Y-52256428D01*
X115902760Y-52256425D01*
X115884399Y-52070000D01*
X115902760Y-51883575D01*
X115918037Y-51833213D01*
X115957140Y-51704307D01*
X116001439Y-51621429D01*
X116045448Y-51539095D01*
X116164288Y-51394288D01*
X116309095Y-51275448D01*
X116474305Y-51187141D01*
X116474307Y-51187140D01*
X116653571Y-51132761D01*
X116653572Y-51132761D01*
X116653575Y-51132760D01*
X116793282Y-51119000D01*
X116886718Y-51119000D01*
X117026425Y-51132760D01*
X117026425Y-51132760D01*
G37*
G36*
X142973213Y-51276249D02*
X143067652Y-51304897D01*
X143154687Y-51351418D01*
X143230975Y-51414025D01*
X143293582Y-51490313D01*
X143340103Y-51577348D01*
X143368751Y-51671787D01*
X143376000Y-51745388D01*
X143376000Y-52394612D01*
X143368751Y-52468213D01*
X143340103Y-52562652D01*
X143293582Y-52649687D01*
X143230975Y-52725975D01*
X143154687Y-52788582D01*
X143067651Y-52835103D01*
X142973212Y-52863751D01*
X142875000Y-52873424D01*
X142776787Y-52863751D01*
X142682348Y-52835103D01*
X142595313Y-52788582D01*
X142519025Y-52725975D01*
X142456418Y-52649687D01*
X142409897Y-52562651D01*
X142381249Y-52468212D01*
X142374000Y-52394611D01*
X142374000Y-51745398D01*
X142381250Y-51671789D01*
X142381250Y-51671787D01*
X142409898Y-51577348D01*
X142409898Y-51577347D01*
X142456420Y-51490312D01*
X142519026Y-51414025D01*
X142595314Y-51351418D01*
X142682349Y-51304897D01*
X142776788Y-51276249D01*
X142875000Y-51266576D01*
X142973213Y-51276249D01*
X142973213Y-51276249D01*
G37*
G36*
X141703213Y-51276249D02*
X141797652Y-51304897D01*
X141884687Y-51351418D01*
X141960975Y-51414025D01*
X142023582Y-51490313D01*
X142070103Y-51577348D01*
X142098751Y-51671787D01*
X142106000Y-51745388D01*
X142106000Y-52394612D01*
X142098751Y-52468213D01*
X142070103Y-52562652D01*
X142023582Y-52649687D01*
X141960975Y-52725975D01*
X141884687Y-52788582D01*
X141797651Y-52835103D01*
X141703212Y-52863751D01*
X141605000Y-52873424D01*
X141506787Y-52863751D01*
X141412348Y-52835103D01*
X141325313Y-52788582D01*
X141249025Y-52725975D01*
X141186418Y-52649687D01*
X141139897Y-52562651D01*
X141111249Y-52468212D01*
X141104000Y-52394611D01*
X141104000Y-51745398D01*
X141111250Y-51671789D01*
X141111250Y-51671787D01*
X141139898Y-51577348D01*
X141139898Y-51577347D01*
X141186420Y-51490312D01*
X141249026Y-51414025D01*
X141325314Y-51351418D01*
X141412349Y-51304897D01*
X141506788Y-51276249D01*
X141605000Y-51266576D01*
X141703213Y-51276249D01*
X141703213Y-51276249D01*
G37*
G36*
X140836000Y-52871000D02*
X139834000Y-52871000D01*
X139834000Y-51269000D01*
X140836000Y-51269000D01*
X140836000Y-52871000D01*
X140836000Y-52871000D01*
G37*
G36*
X147506425Y-50497760D02*
X147506428Y-50497761D01*
X147506429Y-50497761D01*
X147685693Y-50552140D01*
X147685695Y-50552141D01*
X147850905Y-50640448D01*
X147995712Y-50759288D01*
X148114552Y-50904095D01*
X148114553Y-50904097D01*
X148202860Y-51069307D01*
X148238604Y-51187140D01*
X148257240Y-51248575D01*
X148275601Y-51435000D01*
X148257240Y-51621425D01*
X148257239Y-51621428D01*
X148257239Y-51621429D01*
X148215322Y-51759612D01*
X148202859Y-51800695D01*
X148114552Y-51965905D01*
X147995712Y-52110712D01*
X147850905Y-52229552D01*
X147834307Y-52238424D01*
X147685693Y-52317860D01*
X147506429Y-52372239D01*
X147506428Y-52372239D01*
X147506425Y-52372240D01*
X147366718Y-52386000D01*
X147273282Y-52386000D01*
X147133575Y-52372240D01*
X147133572Y-52372239D01*
X147133571Y-52372239D01*
X146954307Y-52317860D01*
X146805693Y-52238424D01*
X146789095Y-52229552D01*
X146644288Y-52110712D01*
X146525448Y-51965905D01*
X146437141Y-51800695D01*
X146424679Y-51759612D01*
X146382761Y-51621429D01*
X146382761Y-51621428D01*
X146382760Y-51621425D01*
X146364399Y-51435000D01*
X146382760Y-51248575D01*
X146401396Y-51187140D01*
X146437140Y-51069307D01*
X146525447Y-50904097D01*
X146525448Y-50904095D01*
X146644288Y-50759288D01*
X146789095Y-50640448D01*
X146954305Y-50552141D01*
X146954307Y-50552140D01*
X147133571Y-50497761D01*
X147133572Y-50497761D01*
X147133575Y-50497760D01*
X147273282Y-50484000D01*
X147366718Y-50484000D01*
X147506425Y-50497760D01*
X147506425Y-50497760D01*
G37*
G36*
X150046425Y-50497760D02*
X150046428Y-50497761D01*
X150046429Y-50497761D01*
X150225693Y-50552140D01*
X150225695Y-50552141D01*
X150390905Y-50640448D01*
X150535712Y-50759288D01*
X150654552Y-50904095D01*
X150654553Y-50904097D01*
X150742860Y-51069307D01*
X150778604Y-51187140D01*
X150797240Y-51248575D01*
X150815601Y-51435000D01*
X150797240Y-51621425D01*
X150797239Y-51621428D01*
X150797239Y-51621429D01*
X150755322Y-51759612D01*
X150742859Y-51800695D01*
X150654552Y-51965905D01*
X150535712Y-52110712D01*
X150390905Y-52229552D01*
X150374307Y-52238424D01*
X150225693Y-52317860D01*
X150046429Y-52372239D01*
X150046428Y-52372239D01*
X150046425Y-52372240D01*
X149906718Y-52386000D01*
X149813282Y-52386000D01*
X149673575Y-52372240D01*
X149673572Y-52372239D01*
X149673571Y-52372239D01*
X149494307Y-52317860D01*
X149345693Y-52238424D01*
X149329095Y-52229552D01*
X149184288Y-52110712D01*
X149065448Y-51965905D01*
X148977141Y-51800695D01*
X148964679Y-51759612D01*
X148922761Y-51621429D01*
X148922761Y-51621428D01*
X148922760Y-51621425D01*
X148904399Y-51435000D01*
X148922760Y-51248575D01*
X148941396Y-51187140D01*
X148977140Y-51069307D01*
X149065447Y-50904097D01*
X149065448Y-50904095D01*
X149184288Y-50759288D01*
X149329095Y-50640448D01*
X149494305Y-50552141D01*
X149494307Y-50552140D01*
X149673571Y-50497761D01*
X149673572Y-50497761D01*
X149673575Y-50497760D01*
X149813282Y-50484000D01*
X149906718Y-50484000D01*
X150046425Y-50497760D01*
X150046425Y-50497760D01*
G37*
G36*
X153351000Y-52386000D02*
X151449000Y-52386000D01*
X151449000Y-50484000D01*
X153351000Y-50484000D01*
X153351000Y-52386000D01*
X153351000Y-52386000D01*
G37*
G36*
X121383212Y-50641249D02*
X121477651Y-50669897D01*
X121564687Y-50716418D01*
X121640975Y-50779025D01*
X121703582Y-50855313D01*
X121750103Y-50942348D01*
X121778751Y-51036787D01*
X121786000Y-51110388D01*
X121786000Y-51759612D01*
X121778751Y-51833213D01*
X121750103Y-51927652D01*
X121703582Y-52014687D01*
X121640975Y-52090975D01*
X121564687Y-52153582D01*
X121477652Y-52200103D01*
X121383213Y-52228751D01*
X121285000Y-52238424D01*
X121186788Y-52228751D01*
X121092349Y-52200103D01*
X121005314Y-52153582D01*
X120929026Y-52090975D01*
X120866419Y-52014687D01*
X120844764Y-51974174D01*
X120819898Y-51927653D01*
X120806526Y-51883571D01*
X120791250Y-51833213D01*
X120784001Y-51759612D01*
X120784000Y-51759602D01*
X120784000Y-51110389D01*
X120791249Y-51036788D01*
X120819897Y-50942349D01*
X120866418Y-50855313D01*
X120929025Y-50779025D01*
X121005313Y-50716418D01*
X121092348Y-50669897D01*
X121186787Y-50641249D01*
X121285000Y-50631576D01*
X121383212Y-50641249D01*
X121383212Y-50641249D01*
G37*
G36*
X122653212Y-50641249D02*
X122747651Y-50669897D01*
X122834687Y-50716418D01*
X122910975Y-50779025D01*
X122973582Y-50855313D01*
X123020103Y-50942348D01*
X123048751Y-51036787D01*
X123056000Y-51110388D01*
X123056000Y-51759612D01*
X123048751Y-51833213D01*
X123020103Y-51927652D01*
X122973582Y-52014687D01*
X122910975Y-52090975D01*
X122834687Y-52153582D01*
X122747652Y-52200103D01*
X122653213Y-52228751D01*
X122555000Y-52238424D01*
X122456788Y-52228751D01*
X122362349Y-52200103D01*
X122275314Y-52153582D01*
X122199026Y-52090975D01*
X122136419Y-52014687D01*
X122114764Y-51974174D01*
X122089898Y-51927653D01*
X122076526Y-51883571D01*
X122061250Y-51833213D01*
X122054001Y-51759612D01*
X122054000Y-51759602D01*
X122054000Y-51110389D01*
X122061249Y-51036788D01*
X122089897Y-50942349D01*
X122136418Y-50855313D01*
X122199025Y-50779025D01*
X122275313Y-50716418D01*
X122362348Y-50669897D01*
X122456787Y-50641249D01*
X122555000Y-50631576D01*
X122653212Y-50641249D01*
X122653212Y-50641249D01*
G37*
G36*
X124326000Y-52236000D02*
X123324000Y-52236000D01*
X123324000Y-50634000D01*
X124326000Y-50634000D01*
X124326000Y-52236000D01*
X124326000Y-52236000D01*
G37*
G36*
X142556000Y-48576000D02*
X140654000Y-48576000D01*
X140654000Y-46674000D01*
X142556000Y-46674000D01*
X142556000Y-48576000D01*
X142556000Y-48576000D01*
G37*
G36*
X123506000Y-48576000D02*
X121604000Y-48576000D01*
X121604000Y-46674000D01*
X123506000Y-46674000D01*
X123506000Y-48576000D01*
X123506000Y-48576000D01*
G37*
G36*
X101952527Y-45478736D02*
X102052410Y-45498604D01*
X102334674Y-45615521D01*
X102588705Y-45785259D01*
X102804741Y-46001295D01*
X102974479Y-46255326D01*
X103074727Y-46497348D01*
X103091396Y-46537591D01*
X103151000Y-46837238D01*
X103151000Y-47142762D01*
X103138471Y-47205747D01*
X103091396Y-47442410D01*
X102974479Y-47724674D01*
X102804741Y-47978705D01*
X102588705Y-48194741D01*
X102334674Y-48364479D01*
X102052410Y-48481396D01*
X101952527Y-48501264D01*
X101752762Y-48541000D01*
X101447238Y-48541000D01*
X101247473Y-48501264D01*
X101147590Y-48481396D01*
X100865326Y-48364479D01*
X100611295Y-48194741D01*
X100395259Y-47978705D01*
X100225521Y-47724674D01*
X100108604Y-47442410D01*
X100061529Y-47205747D01*
X100049000Y-47142762D01*
X100049000Y-46837238D01*
X100108604Y-46537591D01*
X100125273Y-46497348D01*
X100225521Y-46255326D01*
X100395259Y-46001295D01*
X100611295Y-45785259D01*
X100865326Y-45615521D01*
X101147590Y-45498604D01*
X101247473Y-45478736D01*
X101447238Y-45439000D01*
X101752762Y-45439000D01*
X101952527Y-45478736D01*
X101952527Y-45478736D01*
G37*
G36*
X164111000Y-48541000D02*
X161009000Y-48541000D01*
X161009000Y-45439000D01*
X164111000Y-45439000D01*
X164111000Y-48541000D01*
X164111000Y-48541000D01*
G37*
G36*
X145543600Y-46884867D02*
X145634059Y-46902860D01*
X145770732Y-46959472D01*
X145892079Y-47040554D01*
X145893738Y-47041662D01*
X145998338Y-47146262D01*
X145998340Y-47146265D01*
X146080528Y-47269268D01*
X146137140Y-47405941D01*
X146144394Y-47442410D01*
X146166000Y-47551031D01*
X146166000Y-47698969D01*
X146160887Y-47724672D01*
X146137140Y-47844059D01*
X146080528Y-47980732D01*
X145999446Y-48102079D01*
X145998338Y-48103738D01*
X145893738Y-48208338D01*
X145893735Y-48208340D01*
X145770732Y-48290528D01*
X145634059Y-48347140D01*
X145547004Y-48364456D01*
X145488969Y-48376000D01*
X145341031Y-48376000D01*
X145282996Y-48364456D01*
X145195941Y-48347140D01*
X145059268Y-48290528D01*
X144936265Y-48208340D01*
X144936262Y-48208338D01*
X144831662Y-48103738D01*
X144830554Y-48102079D01*
X144749472Y-47980732D01*
X144692860Y-47844059D01*
X144669113Y-47724672D01*
X144664000Y-47698969D01*
X144664000Y-47551031D01*
X144685606Y-47442410D01*
X144692860Y-47405941D01*
X144749472Y-47269268D01*
X144831660Y-47146265D01*
X144831662Y-47146262D01*
X144936262Y-47041662D01*
X144937921Y-47040554D01*
X145059268Y-46959472D01*
X145195941Y-46902860D01*
X145286400Y-46884867D01*
X145341031Y-46874000D01*
X145488969Y-46874000D01*
X145543600Y-46884867D01*
X145543600Y-46884867D01*
G37*
G36*
X107443600Y-46884867D02*
X107534059Y-46902860D01*
X107670732Y-46959472D01*
X107792079Y-47040554D01*
X107793738Y-47041662D01*
X107898338Y-47146262D01*
X107898340Y-47146265D01*
X107980528Y-47269268D01*
X108037140Y-47405941D01*
X108044394Y-47442410D01*
X108066000Y-47551031D01*
X108066000Y-47698969D01*
X108060887Y-47724672D01*
X108037140Y-47844059D01*
X107980528Y-47980732D01*
X107899446Y-48102079D01*
X107898338Y-48103738D01*
X107793738Y-48208338D01*
X107793735Y-48208340D01*
X107670732Y-48290528D01*
X107534059Y-48347140D01*
X107447004Y-48364456D01*
X107388969Y-48376000D01*
X107241031Y-48376000D01*
X107182996Y-48364456D01*
X107095941Y-48347140D01*
X106959268Y-48290528D01*
X106836265Y-48208340D01*
X106836262Y-48208338D01*
X106731662Y-48103738D01*
X106730554Y-48102079D01*
X106649472Y-47980732D01*
X106592860Y-47844059D01*
X106569113Y-47724672D01*
X106564000Y-47698969D01*
X106564000Y-47551031D01*
X106585606Y-47442410D01*
X106592860Y-47405941D01*
X106649472Y-47269268D01*
X106731660Y-47146265D01*
X106731662Y-47146262D01*
X106836262Y-47041662D01*
X106837921Y-47040554D01*
X106959268Y-46959472D01*
X107095941Y-46902860D01*
X107186400Y-46884867D01*
X107241031Y-46874000D01*
X107388969Y-46874000D01*
X107443600Y-46884867D01*
X107443600Y-46884867D01*
G37*
G36*
X116278665Y-46877622D02*
X116352222Y-46884867D01*
X116493786Y-46927810D01*
X116624252Y-46997546D01*
X116738606Y-47091394D01*
X116832454Y-47205748D01*
X116902190Y-47336214D01*
X116945133Y-47477778D01*
X116959633Y-47625000D01*
X116945133Y-47772222D01*
X116902190Y-47913786D01*
X116832454Y-48044252D01*
X116738606Y-48158606D01*
X116624252Y-48252454D01*
X116493786Y-48322190D01*
X116352222Y-48365133D01*
X116278665Y-48372378D01*
X116241888Y-48376000D01*
X116168112Y-48376000D01*
X116131335Y-48372378D01*
X116057778Y-48365133D01*
X115916214Y-48322190D01*
X115785748Y-48252454D01*
X115671394Y-48158606D01*
X115577546Y-48044252D01*
X115507810Y-47913786D01*
X115464867Y-47772222D01*
X115450367Y-47625000D01*
X115464867Y-47477778D01*
X115507810Y-47336214D01*
X115577546Y-47205748D01*
X115671394Y-47091394D01*
X115785748Y-46997546D01*
X115916214Y-46927810D01*
X116057778Y-46884867D01*
X116131335Y-46877622D01*
X116168112Y-46874000D01*
X116241888Y-46874000D01*
X116278665Y-46877622D01*
X116278665Y-46877622D01*
G37*
G36*
X118873600Y-46884867D02*
X118964059Y-46902860D01*
X119100732Y-46959472D01*
X119222079Y-47040554D01*
X119223738Y-47041662D01*
X119328338Y-47146262D01*
X119328340Y-47146265D01*
X119410528Y-47269268D01*
X119467140Y-47405941D01*
X119474394Y-47442410D01*
X119496000Y-47551031D01*
X119496000Y-47698969D01*
X119490887Y-47724672D01*
X119467140Y-47844059D01*
X119410528Y-47980732D01*
X119329446Y-48102079D01*
X119328338Y-48103738D01*
X119223738Y-48208338D01*
X119223735Y-48208340D01*
X119100732Y-48290528D01*
X118964059Y-48347140D01*
X118877004Y-48364456D01*
X118818969Y-48376000D01*
X118671031Y-48376000D01*
X118612996Y-48364456D01*
X118525941Y-48347140D01*
X118389268Y-48290528D01*
X118266265Y-48208340D01*
X118266262Y-48208338D01*
X118161662Y-48103738D01*
X118160554Y-48102079D01*
X118079472Y-47980732D01*
X118022860Y-47844059D01*
X117999113Y-47724672D01*
X117994000Y-47698969D01*
X117994000Y-47551031D01*
X118015606Y-47442410D01*
X118022860Y-47405941D01*
X118079472Y-47269268D01*
X118161660Y-47146265D01*
X118161662Y-47146262D01*
X118266262Y-47041662D01*
X118267921Y-47040554D01*
X118389268Y-46959472D01*
X118525941Y-46902860D01*
X118616400Y-46884867D01*
X118671031Y-46874000D01*
X118818969Y-46874000D01*
X118873600Y-46884867D01*
X118873600Y-46884867D01*
G37*
G36*
X148028665Y-46877622D02*
X148102222Y-46884867D01*
X148243786Y-46927810D01*
X148374252Y-46997546D01*
X148488606Y-47091394D01*
X148582454Y-47205748D01*
X148652190Y-47336214D01*
X148695133Y-47477778D01*
X148709633Y-47625000D01*
X148695133Y-47772222D01*
X148652190Y-47913786D01*
X148582454Y-48044252D01*
X148488606Y-48158606D01*
X148374252Y-48252454D01*
X148243786Y-48322190D01*
X148102222Y-48365133D01*
X148028665Y-48372378D01*
X147991888Y-48376000D01*
X147918112Y-48376000D01*
X147881335Y-48372378D01*
X147807778Y-48365133D01*
X147666214Y-48322190D01*
X147535748Y-48252454D01*
X147421394Y-48158606D01*
X147327546Y-48044252D01*
X147257810Y-47913786D01*
X147214867Y-47772222D01*
X147200367Y-47625000D01*
X147214867Y-47477778D01*
X147257810Y-47336214D01*
X147327546Y-47205748D01*
X147421394Y-47091394D01*
X147535748Y-46997546D01*
X147666214Y-46927810D01*
X147807778Y-46884867D01*
X147881335Y-46877622D01*
X147918112Y-46874000D01*
X147991888Y-46874000D01*
X148028665Y-46877622D01*
X148028665Y-46877622D01*
G37*
G36*
X156973600Y-46884867D02*
X157064059Y-46902860D01*
X157200732Y-46959472D01*
X157322079Y-47040554D01*
X157323738Y-47041662D01*
X157428338Y-47146262D01*
X157428340Y-47146265D01*
X157510528Y-47269268D01*
X157567140Y-47405941D01*
X157574394Y-47442410D01*
X157596000Y-47551031D01*
X157596000Y-47698969D01*
X157590887Y-47724672D01*
X157567140Y-47844059D01*
X157510528Y-47980732D01*
X157429446Y-48102079D01*
X157428338Y-48103738D01*
X157323738Y-48208338D01*
X157323735Y-48208340D01*
X157200732Y-48290528D01*
X157064059Y-48347140D01*
X156977004Y-48364456D01*
X156918969Y-48376000D01*
X156771031Y-48376000D01*
X156712996Y-48364456D01*
X156625941Y-48347140D01*
X156489268Y-48290528D01*
X156366265Y-48208340D01*
X156366262Y-48208338D01*
X156261662Y-48103738D01*
X156260554Y-48102079D01*
X156179472Y-47980732D01*
X156122860Y-47844059D01*
X156099113Y-47724672D01*
X156094000Y-47698969D01*
X156094000Y-47551031D01*
X156115606Y-47442410D01*
X156122860Y-47405941D01*
X156179472Y-47269268D01*
X156261660Y-47146265D01*
X156261662Y-47146262D01*
X156366262Y-47041662D01*
X156367921Y-47040554D01*
X156489268Y-46959472D01*
X156625941Y-46902860D01*
X156716400Y-46884867D01*
X156771031Y-46874000D01*
X156918969Y-46874000D01*
X156973600Y-46884867D01*
X156973600Y-46884867D01*
G37*
G36*
X113128213Y-46196249D02*
X113222652Y-46224897D01*
X113309687Y-46271418D01*
X113385975Y-46334025D01*
X113448582Y-46410313D01*
X113495103Y-46497348D01*
X113523751Y-46591787D01*
X113531000Y-46665388D01*
X113531000Y-47314612D01*
X113523751Y-47388213D01*
X113495103Y-47482652D01*
X113448582Y-47569687D01*
X113385975Y-47645975D01*
X113309687Y-47708582D01*
X113222651Y-47755103D01*
X113128212Y-47783751D01*
X113030000Y-47793424D01*
X112931787Y-47783751D01*
X112837348Y-47755103D01*
X112750313Y-47708582D01*
X112674025Y-47645975D01*
X112611418Y-47569687D01*
X112564897Y-47482651D01*
X112536249Y-47388212D01*
X112529000Y-47314611D01*
X112529000Y-46665398D01*
X112536250Y-46591789D01*
X112536250Y-46591787D01*
X112564898Y-46497348D01*
X112564898Y-46497347D01*
X112611420Y-46410312D01*
X112674026Y-46334025D01*
X112750314Y-46271418D01*
X112837349Y-46224897D01*
X112931788Y-46196249D01*
X113030000Y-46186576D01*
X113128213Y-46196249D01*
X113128213Y-46196249D01*
G37*
G36*
X111858213Y-46196249D02*
X111952652Y-46224897D01*
X112039687Y-46271418D01*
X112115975Y-46334025D01*
X112178582Y-46410313D01*
X112225103Y-46497348D01*
X112253751Y-46591787D01*
X112261000Y-46665388D01*
X112261000Y-47314612D01*
X112253751Y-47388213D01*
X112225103Y-47482652D01*
X112178582Y-47569687D01*
X112115975Y-47645975D01*
X112039687Y-47708582D01*
X111952651Y-47755103D01*
X111858212Y-47783751D01*
X111760000Y-47793424D01*
X111661787Y-47783751D01*
X111567348Y-47755103D01*
X111480313Y-47708582D01*
X111404025Y-47645975D01*
X111341418Y-47569687D01*
X111294897Y-47482651D01*
X111266249Y-47388212D01*
X111259000Y-47314611D01*
X111259000Y-46665398D01*
X111266250Y-46591789D01*
X111266250Y-46591787D01*
X111294898Y-46497348D01*
X111294898Y-46497347D01*
X111341420Y-46410312D01*
X111404026Y-46334025D01*
X111480314Y-46271418D01*
X111567349Y-46224897D01*
X111661788Y-46196249D01*
X111760000Y-46186576D01*
X111858213Y-46196249D01*
X111858213Y-46196249D01*
G37*
G36*
X110991000Y-47791000D02*
X109989000Y-47791000D01*
X109989000Y-46189000D01*
X110991000Y-46189000D01*
X110991000Y-47791000D01*
X110991000Y-47791000D01*
G37*
G36*
X152498212Y-45561249D02*
X152592651Y-45589897D01*
X152679687Y-45636418D01*
X152755975Y-45699025D01*
X152818582Y-45775313D01*
X152865103Y-45862348D01*
X152893751Y-45956787D01*
X152901000Y-46030388D01*
X152901000Y-46679612D01*
X152893751Y-46753213D01*
X152865103Y-46847652D01*
X152818582Y-46934687D01*
X152755975Y-47010975D01*
X152679687Y-47073582D01*
X152592652Y-47120103D01*
X152498213Y-47148751D01*
X152400000Y-47158424D01*
X152301788Y-47148751D01*
X152207349Y-47120103D01*
X152120314Y-47073582D01*
X152044026Y-47010975D01*
X151981419Y-46934687D01*
X151948981Y-46874000D01*
X151934898Y-46847653D01*
X151925349Y-46816172D01*
X151906250Y-46753213D01*
X151899001Y-46679612D01*
X151899000Y-46679602D01*
X151899000Y-46030389D01*
X151906249Y-45956788D01*
X151934897Y-45862349D01*
X151981418Y-45775313D01*
X152044025Y-45699025D01*
X152120313Y-45636418D01*
X152207348Y-45589897D01*
X152301787Y-45561249D01*
X152400000Y-45551576D01*
X152498212Y-45561249D01*
X152498212Y-45561249D01*
G37*
G36*
X151228212Y-45561249D02*
X151322651Y-45589897D01*
X151409687Y-45636418D01*
X151485975Y-45699025D01*
X151548582Y-45775313D01*
X151595103Y-45862348D01*
X151623751Y-45956787D01*
X151631000Y-46030388D01*
X151631000Y-46679612D01*
X151623751Y-46753213D01*
X151595103Y-46847652D01*
X151548582Y-46934687D01*
X151485975Y-47010975D01*
X151409687Y-47073582D01*
X151322652Y-47120103D01*
X151228213Y-47148751D01*
X151130000Y-47158424D01*
X151031788Y-47148751D01*
X150937349Y-47120103D01*
X150850314Y-47073582D01*
X150774026Y-47010975D01*
X150711419Y-46934687D01*
X150678981Y-46874000D01*
X150664898Y-46847653D01*
X150655349Y-46816172D01*
X150636250Y-46753213D01*
X150629001Y-46679612D01*
X150629000Y-46679602D01*
X150629000Y-46030389D01*
X150636249Y-45956788D01*
X150664897Y-45862349D01*
X150711418Y-45775313D01*
X150774025Y-45699025D01*
X150850313Y-45636418D01*
X150937348Y-45589897D01*
X151031787Y-45561249D01*
X151130000Y-45551576D01*
X151228212Y-45561249D01*
X151228212Y-45561249D01*
G37*
G36*
X154171000Y-47156000D02*
X153169000Y-47156000D01*
X153169000Y-45554000D01*
X154171000Y-45554000D01*
X154171000Y-47156000D01*
X154171000Y-47156000D01*
G37*
G36*
X141882396Y-44170546D02*
X142055466Y-44242234D01*
X142211230Y-44346312D01*
X142343688Y-44478770D01*
X142447766Y-44634534D01*
X142519454Y-44807604D01*
X142556000Y-44991333D01*
X142556000Y-45178667D01*
X142519454Y-45362396D01*
X142447766Y-45535466D01*
X142343688Y-45691230D01*
X142211230Y-45823688D01*
X142055466Y-45927766D01*
X141882396Y-45999454D01*
X141698667Y-46036000D01*
X141511333Y-46036000D01*
X141327604Y-45999454D01*
X141154534Y-45927766D01*
X140998770Y-45823688D01*
X140866312Y-45691230D01*
X140762234Y-45535466D01*
X140690546Y-45362396D01*
X140654000Y-45178667D01*
X140654000Y-44991333D01*
X140690546Y-44807604D01*
X140762234Y-44634534D01*
X140866312Y-44478770D01*
X140998770Y-44346312D01*
X141154534Y-44242234D01*
X141327604Y-44170546D01*
X141511333Y-44134000D01*
X141698667Y-44134000D01*
X141882396Y-44170546D01*
X141882396Y-44170546D01*
G37*
G36*
X122832396Y-44170546D02*
X123005466Y-44242234D01*
X123161230Y-44346312D01*
X123293688Y-44478770D01*
X123397766Y-44634534D01*
X123469454Y-44807604D01*
X123506000Y-44991333D01*
X123506000Y-45178667D01*
X123469454Y-45362396D01*
X123397766Y-45535466D01*
X123293688Y-45691230D01*
X123161230Y-45823688D01*
X123005466Y-45927766D01*
X122832396Y-45999454D01*
X122648667Y-46036000D01*
X122461333Y-46036000D01*
X122277604Y-45999454D01*
X122104534Y-45927766D01*
X121948770Y-45823688D01*
X121816312Y-45691230D01*
X121712234Y-45535466D01*
X121640546Y-45362396D01*
X121604000Y-45178667D01*
X121604000Y-44991333D01*
X121640546Y-44807604D01*
X121712234Y-44634534D01*
X121816312Y-44478770D01*
X121948770Y-44346312D01*
X122104534Y-44242234D01*
X122277604Y-44170546D01*
X122461333Y-44134000D01*
X122648667Y-44134000D01*
X122832396Y-44170546D01*
X122832396Y-44170546D01*
G37*
G36*
X116333600Y-44344867D02*
X116424059Y-44362860D01*
X116560732Y-44419472D01*
X116617715Y-44457547D01*
X116683738Y-44501662D01*
X116788338Y-44606262D01*
X116788340Y-44606265D01*
X116870528Y-44729268D01*
X116927140Y-44865941D01*
X116956000Y-45011033D01*
X116956000Y-45158967D01*
X116927140Y-45304059D01*
X116870528Y-45440732D01*
X116807229Y-45535466D01*
X116788338Y-45563738D01*
X116683738Y-45668338D01*
X116683735Y-45668340D01*
X116560732Y-45750528D01*
X116424059Y-45807140D01*
X116340865Y-45823688D01*
X116278969Y-45836000D01*
X116131031Y-45836000D01*
X116069135Y-45823688D01*
X115985941Y-45807140D01*
X115849268Y-45750528D01*
X115726265Y-45668340D01*
X115726262Y-45668338D01*
X115621662Y-45563738D01*
X115602771Y-45535466D01*
X115539472Y-45440732D01*
X115482860Y-45304059D01*
X115454000Y-45158967D01*
X115454000Y-45011033D01*
X115482860Y-44865941D01*
X115539472Y-44729268D01*
X115621660Y-44606265D01*
X115621662Y-44606262D01*
X115726262Y-44501662D01*
X115792285Y-44457547D01*
X115849268Y-44419472D01*
X115985941Y-44362860D01*
X116076400Y-44344867D01*
X116131031Y-44334000D01*
X116278969Y-44334000D01*
X116333600Y-44344867D01*
X116333600Y-44344867D01*
G37*
G36*
X118818665Y-44337622D02*
X118892222Y-44344867D01*
X119033786Y-44387810D01*
X119164252Y-44457546D01*
X119278606Y-44551394D01*
X119372454Y-44665748D01*
X119442190Y-44796214D01*
X119485133Y-44937778D01*
X119499633Y-45085000D01*
X119485133Y-45232222D01*
X119442190Y-45373786D01*
X119372454Y-45504252D01*
X119278606Y-45618606D01*
X119164252Y-45712454D01*
X119033786Y-45782190D01*
X118892222Y-45825133D01*
X118818665Y-45832378D01*
X118781888Y-45836000D01*
X118708112Y-45836000D01*
X118671335Y-45832378D01*
X118597778Y-45825133D01*
X118456214Y-45782190D01*
X118325748Y-45712454D01*
X118211394Y-45618606D01*
X118117546Y-45504252D01*
X118047810Y-45373786D01*
X118004867Y-45232222D01*
X117990367Y-45085000D01*
X118004867Y-44937778D01*
X118047810Y-44796214D01*
X118117546Y-44665748D01*
X118211394Y-44551394D01*
X118325748Y-44457546D01*
X118456214Y-44387810D01*
X118597778Y-44344867D01*
X118671335Y-44337622D01*
X118708112Y-44334000D01*
X118781888Y-44334000D01*
X118818665Y-44337622D01*
X118818665Y-44337622D01*
G37*
G36*
X107388665Y-44337622D02*
X107462222Y-44344867D01*
X107603786Y-44387810D01*
X107734252Y-44457546D01*
X107848606Y-44551394D01*
X107942454Y-44665748D01*
X108012190Y-44796214D01*
X108055133Y-44937778D01*
X108069633Y-45085000D01*
X108055133Y-45232222D01*
X108012190Y-45373786D01*
X107942454Y-45504252D01*
X107848606Y-45618606D01*
X107734252Y-45712454D01*
X107603786Y-45782190D01*
X107462222Y-45825133D01*
X107388665Y-45832378D01*
X107351888Y-45836000D01*
X107278112Y-45836000D01*
X107241335Y-45832378D01*
X107167778Y-45825133D01*
X107026214Y-45782190D01*
X106895748Y-45712454D01*
X106781394Y-45618606D01*
X106687546Y-45504252D01*
X106617810Y-45373786D01*
X106574867Y-45232222D01*
X106560367Y-45085000D01*
X106574867Y-44937778D01*
X106617810Y-44796214D01*
X106687546Y-44665748D01*
X106781394Y-44551394D01*
X106895748Y-44457546D01*
X107026214Y-44387810D01*
X107167778Y-44344867D01*
X107241335Y-44337622D01*
X107278112Y-44334000D01*
X107351888Y-44334000D01*
X107388665Y-44337622D01*
X107388665Y-44337622D01*
G37*
G36*
X156918665Y-44337622D02*
X156992222Y-44344867D01*
X157133786Y-44387810D01*
X157264252Y-44457546D01*
X157378606Y-44551394D01*
X157472454Y-44665748D01*
X157542190Y-44796214D01*
X157585133Y-44937778D01*
X157599633Y-45085000D01*
X157585133Y-45232222D01*
X157542190Y-45373786D01*
X157472454Y-45504252D01*
X157378606Y-45618606D01*
X157264252Y-45712454D01*
X157133786Y-45782190D01*
X156992222Y-45825133D01*
X156918665Y-45832378D01*
X156881888Y-45836000D01*
X156808112Y-45836000D01*
X156771335Y-45832378D01*
X156697778Y-45825133D01*
X156556214Y-45782190D01*
X156425748Y-45712454D01*
X156311394Y-45618606D01*
X156217546Y-45504252D01*
X156147810Y-45373786D01*
X156104867Y-45232222D01*
X156090367Y-45085000D01*
X156104867Y-44937778D01*
X156147810Y-44796214D01*
X156217546Y-44665748D01*
X156311394Y-44551394D01*
X156425748Y-44457546D01*
X156556214Y-44387810D01*
X156697778Y-44344867D01*
X156771335Y-44337622D01*
X156808112Y-44334000D01*
X156881888Y-44334000D01*
X156918665Y-44337622D01*
X156918665Y-44337622D01*
G37*
G36*
X148083600Y-44344867D02*
X148174059Y-44362860D01*
X148310732Y-44419472D01*
X148367715Y-44457547D01*
X148433738Y-44501662D01*
X148538338Y-44606262D01*
X148538340Y-44606265D01*
X148620528Y-44729268D01*
X148677140Y-44865941D01*
X148706000Y-45011033D01*
X148706000Y-45158967D01*
X148677140Y-45304059D01*
X148620528Y-45440732D01*
X148557229Y-45535466D01*
X148538338Y-45563738D01*
X148433738Y-45668338D01*
X148433735Y-45668340D01*
X148310732Y-45750528D01*
X148174059Y-45807140D01*
X148090865Y-45823688D01*
X148028969Y-45836000D01*
X147881031Y-45836000D01*
X147819135Y-45823688D01*
X147735941Y-45807140D01*
X147599268Y-45750528D01*
X147476265Y-45668340D01*
X147476262Y-45668338D01*
X147371662Y-45563738D01*
X147352771Y-45535466D01*
X147289472Y-45440732D01*
X147232860Y-45304059D01*
X147204000Y-45158967D01*
X147204000Y-45011033D01*
X147232860Y-44865941D01*
X147289472Y-44729268D01*
X147371660Y-44606265D01*
X147371662Y-44606262D01*
X147476262Y-44501662D01*
X147542285Y-44457547D01*
X147599268Y-44419472D01*
X147735941Y-44362860D01*
X147826400Y-44344867D01*
X147881031Y-44334000D01*
X148028969Y-44334000D01*
X148083600Y-44344867D01*
X148083600Y-44344867D01*
G37*
G36*
X145488665Y-44337622D02*
X145562222Y-44344867D01*
X145703786Y-44387810D01*
X145834252Y-44457546D01*
X145948606Y-44551394D01*
X146042454Y-44665748D01*
X146112190Y-44796214D01*
X146155133Y-44937778D01*
X146169633Y-45085000D01*
X146155133Y-45232222D01*
X146112190Y-45373786D01*
X146042454Y-45504252D01*
X145948606Y-45618606D01*
X145834252Y-45712454D01*
X145703786Y-45782190D01*
X145562222Y-45825133D01*
X145488665Y-45832378D01*
X145451888Y-45836000D01*
X145378112Y-45836000D01*
X145341335Y-45832378D01*
X145267778Y-45825133D01*
X145126214Y-45782190D01*
X144995748Y-45712454D01*
X144881394Y-45618606D01*
X144787546Y-45504252D01*
X144717810Y-45373786D01*
X144674867Y-45232222D01*
X144660367Y-45085000D01*
X144674867Y-44937778D01*
X144717810Y-44796214D01*
X144787546Y-44665748D01*
X144881394Y-44551394D01*
X144995748Y-44457546D01*
X145126214Y-44387810D01*
X145267778Y-44344867D01*
X145341335Y-44337622D01*
X145378112Y-44334000D01*
X145451888Y-44334000D01*
X145488665Y-44337622D01*
X145488665Y-44337622D01*
G37*
G36*
X162912527Y-39128736D02*
X163012410Y-39148604D01*
X163294674Y-39265521D01*
X163548705Y-39435259D01*
X163764741Y-39651295D01*
X163934479Y-39905326D01*
X164051396Y-40187590D01*
X164062176Y-40241787D01*
X164111000Y-40487238D01*
X164111000Y-40792762D01*
X164081267Y-40942239D01*
X164051396Y-41092410D01*
X163934479Y-41374674D01*
X163764741Y-41628705D01*
X163548705Y-41844741D01*
X163294674Y-42014479D01*
X163012410Y-42131396D01*
X162912527Y-42151264D01*
X162712762Y-42191000D01*
X162407238Y-42191000D01*
X162207473Y-42151264D01*
X162107590Y-42131396D01*
X161825326Y-42014479D01*
X161571295Y-41844741D01*
X161355259Y-41628705D01*
X161185521Y-41374674D01*
X161068604Y-41092410D01*
X161038733Y-40942239D01*
X161009000Y-40792762D01*
X161009000Y-40487238D01*
X161057824Y-40241787D01*
X161068604Y-40187590D01*
X161185521Y-39905326D01*
X161355259Y-39651295D01*
X161571295Y-39435259D01*
X161825326Y-39265521D01*
X162107590Y-39148604D01*
X162207473Y-39128736D01*
X162407238Y-39089000D01*
X162712762Y-39089000D01*
X162912527Y-39128736D01*
X162912527Y-39128736D01*
G37*
G36*
X103151000Y-42191000D02*
X100049000Y-42191000D01*
X100049000Y-39089000D01*
X103151000Y-39089000D01*
X103151000Y-42191000D01*
X103151000Y-42191000D01*
G37*
G36*
X117026425Y-39702760D02*
X117026428Y-39702761D01*
X117026429Y-39702761D01*
X117205693Y-39757140D01*
X117205695Y-39757141D01*
X117370905Y-39845448D01*
X117515712Y-39964288D01*
X117634552Y-40109095D01*
X117678561Y-40191429D01*
X117722860Y-40274307D01*
X117761963Y-40403213D01*
X117777240Y-40453575D01*
X117795601Y-40640000D01*
X117777240Y-40826425D01*
X117777239Y-40826428D01*
X117777239Y-40826429D01*
X117735322Y-40964612D01*
X117722859Y-41005695D01*
X117634552Y-41170905D01*
X117515712Y-41315712D01*
X117370905Y-41434552D01*
X117354307Y-41443424D01*
X117205693Y-41522860D01*
X117026429Y-41577239D01*
X117026428Y-41577239D01*
X117026425Y-41577240D01*
X116886718Y-41591000D01*
X116793282Y-41591000D01*
X116653575Y-41577240D01*
X116653572Y-41577239D01*
X116653571Y-41577239D01*
X116474307Y-41522860D01*
X116325693Y-41443424D01*
X116309095Y-41434552D01*
X116164288Y-41315712D01*
X116045448Y-41170905D01*
X115957141Y-41005695D01*
X115944679Y-40964612D01*
X115902761Y-40826429D01*
X115902761Y-40826428D01*
X115902760Y-40826425D01*
X115884399Y-40640000D01*
X115902760Y-40453575D01*
X115918037Y-40403213D01*
X115957140Y-40274307D01*
X116001439Y-40191429D01*
X116045448Y-40109095D01*
X116164288Y-39964288D01*
X116309095Y-39845448D01*
X116474305Y-39757141D01*
X116474307Y-39757140D01*
X116653571Y-39702761D01*
X116653572Y-39702761D01*
X116653575Y-39702760D01*
X116793282Y-39689000D01*
X116886718Y-39689000D01*
X117026425Y-39702760D01*
X117026425Y-39702760D01*
G37*
G36*
X112711000Y-41591000D02*
X110809000Y-41591000D01*
X110809000Y-39689000D01*
X112711000Y-39689000D01*
X112711000Y-41591000D01*
X112711000Y-41591000D01*
G37*
G36*
X114486425Y-39702760D02*
X114486428Y-39702761D01*
X114486429Y-39702761D01*
X114665693Y-39757140D01*
X114665695Y-39757141D01*
X114830905Y-39845448D01*
X114975712Y-39964288D01*
X115094552Y-40109095D01*
X115138561Y-40191429D01*
X115182860Y-40274307D01*
X115221963Y-40403213D01*
X115237240Y-40453575D01*
X115255601Y-40640000D01*
X115237240Y-40826425D01*
X115237239Y-40826428D01*
X115237239Y-40826429D01*
X115195322Y-40964612D01*
X115182859Y-41005695D01*
X115094552Y-41170905D01*
X114975712Y-41315712D01*
X114830905Y-41434552D01*
X114814307Y-41443424D01*
X114665693Y-41522860D01*
X114486429Y-41577239D01*
X114486428Y-41577239D01*
X114486425Y-41577240D01*
X114346718Y-41591000D01*
X114253282Y-41591000D01*
X114113575Y-41577240D01*
X114113572Y-41577239D01*
X114113571Y-41577239D01*
X113934307Y-41522860D01*
X113785693Y-41443424D01*
X113769095Y-41434552D01*
X113624288Y-41315712D01*
X113505448Y-41170905D01*
X113417141Y-41005695D01*
X113404679Y-40964612D01*
X113362761Y-40826429D01*
X113362761Y-40826428D01*
X113362760Y-40826425D01*
X113344399Y-40640000D01*
X113362760Y-40453575D01*
X113378037Y-40403213D01*
X113417140Y-40274307D01*
X113461439Y-40191429D01*
X113505448Y-40109095D01*
X113624288Y-39964288D01*
X113769095Y-39845448D01*
X113934305Y-39757141D01*
X113934307Y-39757140D01*
X114113571Y-39702761D01*
X114113572Y-39702761D01*
X114113575Y-39702760D01*
X114253282Y-39689000D01*
X114346718Y-39689000D01*
X114486425Y-39702760D01*
X114486425Y-39702760D01*
G37*
G36*
X141703213Y-39846249D02*
X141797652Y-39874897D01*
X141884687Y-39921418D01*
X141960975Y-39984025D01*
X142023582Y-40060313D01*
X142070103Y-40147348D01*
X142098751Y-40241787D01*
X142106000Y-40315388D01*
X142106000Y-40964612D01*
X142098751Y-41038213D01*
X142070103Y-41132652D01*
X142023582Y-41219687D01*
X141960975Y-41295975D01*
X141884687Y-41358582D01*
X141797651Y-41405103D01*
X141703212Y-41433751D01*
X141605000Y-41443424D01*
X141506787Y-41433751D01*
X141412348Y-41405103D01*
X141325313Y-41358582D01*
X141249025Y-41295975D01*
X141186418Y-41219687D01*
X141139897Y-41132651D01*
X141111249Y-41038212D01*
X141104000Y-40964611D01*
X141104000Y-40315398D01*
X141111250Y-40241789D01*
X141111250Y-40241787D01*
X141139898Y-40147348D01*
X141139898Y-40147347D01*
X141186420Y-40060312D01*
X141249026Y-39984025D01*
X141325314Y-39921418D01*
X141412349Y-39874897D01*
X141506788Y-39846249D01*
X141605000Y-39836576D01*
X141703213Y-39846249D01*
X141703213Y-39846249D01*
G37*
G36*
X142973213Y-39846249D02*
X143067652Y-39874897D01*
X143154687Y-39921418D01*
X143230975Y-39984025D01*
X143293582Y-40060313D01*
X143340103Y-40147348D01*
X143368751Y-40241787D01*
X143376000Y-40315388D01*
X143376000Y-40964612D01*
X143368751Y-41038213D01*
X143340103Y-41132652D01*
X143293582Y-41219687D01*
X143230975Y-41295975D01*
X143154687Y-41358582D01*
X143067651Y-41405103D01*
X142973212Y-41433751D01*
X142875000Y-41443424D01*
X142776787Y-41433751D01*
X142682348Y-41405103D01*
X142595313Y-41358582D01*
X142519025Y-41295975D01*
X142456418Y-41219687D01*
X142409897Y-41132651D01*
X142381249Y-41038212D01*
X142374000Y-40964611D01*
X142374000Y-40315398D01*
X142381250Y-40241789D01*
X142381250Y-40241787D01*
X142409898Y-40147348D01*
X142409898Y-40147347D01*
X142456420Y-40060312D01*
X142519026Y-39984025D01*
X142595314Y-39921418D01*
X142682349Y-39874897D01*
X142776788Y-39846249D01*
X142875000Y-39836576D01*
X142973213Y-39846249D01*
X142973213Y-39846249D01*
G37*
G36*
X140836000Y-41441000D02*
X139834000Y-41441000D01*
X139834000Y-39839000D01*
X140836000Y-39839000D01*
X140836000Y-41441000D01*
X140836000Y-41441000D01*
G37*
G36*
X147506425Y-39067760D02*
X147506428Y-39067761D01*
X147506429Y-39067761D01*
X147685693Y-39122140D01*
X147685695Y-39122141D01*
X147850905Y-39210448D01*
X147995712Y-39329288D01*
X148114552Y-39474095D01*
X148114553Y-39474097D01*
X148202860Y-39639307D01*
X148238604Y-39757140D01*
X148257240Y-39818575D01*
X148275601Y-40005000D01*
X148257240Y-40191425D01*
X148257239Y-40191428D01*
X148257239Y-40191429D01*
X148215322Y-40329612D01*
X148202859Y-40370695D01*
X148114552Y-40535905D01*
X147995712Y-40680712D01*
X147850905Y-40799552D01*
X147834307Y-40808424D01*
X147685693Y-40887860D01*
X147506429Y-40942239D01*
X147506428Y-40942239D01*
X147506425Y-40942240D01*
X147366718Y-40956000D01*
X147273282Y-40956000D01*
X147133575Y-40942240D01*
X147133572Y-40942239D01*
X147133571Y-40942239D01*
X146954307Y-40887860D01*
X146805693Y-40808424D01*
X146789095Y-40799552D01*
X146644288Y-40680712D01*
X146525448Y-40535905D01*
X146437141Y-40370695D01*
X146424679Y-40329612D01*
X146382761Y-40191429D01*
X146382761Y-40191428D01*
X146382760Y-40191425D01*
X146364399Y-40005000D01*
X146382760Y-39818575D01*
X146401396Y-39757140D01*
X146437140Y-39639307D01*
X146525447Y-39474097D01*
X146525448Y-39474095D01*
X146644288Y-39329288D01*
X146789095Y-39210448D01*
X146954305Y-39122141D01*
X146954307Y-39122140D01*
X147133571Y-39067761D01*
X147133572Y-39067761D01*
X147133575Y-39067760D01*
X147273282Y-39054000D01*
X147366718Y-39054000D01*
X147506425Y-39067760D01*
X147506425Y-39067760D01*
G37*
G36*
X153351000Y-40956000D02*
X151449000Y-40956000D01*
X151449000Y-39054000D01*
X153351000Y-39054000D01*
X153351000Y-40956000D01*
X153351000Y-40956000D01*
G37*
G36*
X150046425Y-39067760D02*
X150046428Y-39067761D01*
X150046429Y-39067761D01*
X150225693Y-39122140D01*
X150225695Y-39122141D01*
X150390905Y-39210448D01*
X150535712Y-39329288D01*
X150654552Y-39474095D01*
X150654553Y-39474097D01*
X150742860Y-39639307D01*
X150778604Y-39757140D01*
X150797240Y-39818575D01*
X150815601Y-40005000D01*
X150797240Y-40191425D01*
X150797239Y-40191428D01*
X150797239Y-40191429D01*
X150755322Y-40329612D01*
X150742859Y-40370695D01*
X150654552Y-40535905D01*
X150535712Y-40680712D01*
X150390905Y-40799552D01*
X150374307Y-40808424D01*
X150225693Y-40887860D01*
X150046429Y-40942239D01*
X150046428Y-40942239D01*
X150046425Y-40942240D01*
X149906718Y-40956000D01*
X149813282Y-40956000D01*
X149673575Y-40942240D01*
X149673572Y-40942239D01*
X149673571Y-40942239D01*
X149494307Y-40887860D01*
X149345693Y-40808424D01*
X149329095Y-40799552D01*
X149184288Y-40680712D01*
X149065448Y-40535905D01*
X148977141Y-40370695D01*
X148964679Y-40329612D01*
X148922761Y-40191429D01*
X148922761Y-40191428D01*
X148922760Y-40191425D01*
X148904399Y-40005000D01*
X148922760Y-39818575D01*
X148941396Y-39757140D01*
X148977140Y-39639307D01*
X149065447Y-39474097D01*
X149065448Y-39474095D01*
X149184288Y-39329288D01*
X149329095Y-39210448D01*
X149494305Y-39122141D01*
X149494307Y-39122140D01*
X149673571Y-39067761D01*
X149673572Y-39067761D01*
X149673575Y-39067760D01*
X149813282Y-39054000D01*
X149906718Y-39054000D01*
X150046425Y-39067760D01*
X150046425Y-39067760D01*
G37*
G36*
X122653212Y-39211249D02*
X122747651Y-39239897D01*
X122834687Y-39286418D01*
X122910975Y-39349025D01*
X122973582Y-39425313D01*
X123020103Y-39512348D01*
X123048751Y-39606787D01*
X123056000Y-39680388D01*
X123056000Y-40329612D01*
X123048751Y-40403213D01*
X123020103Y-40497652D01*
X122973582Y-40584687D01*
X122910975Y-40660975D01*
X122834687Y-40723582D01*
X122747652Y-40770103D01*
X122653213Y-40798751D01*
X122555000Y-40808424D01*
X122456788Y-40798751D01*
X122362349Y-40770103D01*
X122275314Y-40723582D01*
X122199026Y-40660975D01*
X122136419Y-40584687D01*
X122114764Y-40544174D01*
X122089898Y-40497653D01*
X122076526Y-40453571D01*
X122061250Y-40403213D01*
X122054001Y-40329612D01*
X122054000Y-40329602D01*
X122054000Y-39680389D01*
X122061249Y-39606788D01*
X122089897Y-39512349D01*
X122136418Y-39425313D01*
X122199025Y-39349025D01*
X122275313Y-39286418D01*
X122362348Y-39239897D01*
X122456787Y-39211249D01*
X122555000Y-39201576D01*
X122653212Y-39211249D01*
X122653212Y-39211249D01*
G37*
G36*
X121383212Y-39211249D02*
X121477651Y-39239897D01*
X121564687Y-39286418D01*
X121640975Y-39349025D01*
X121703582Y-39425313D01*
X121750103Y-39512348D01*
X121778751Y-39606787D01*
X121786000Y-39680388D01*
X121786000Y-40329612D01*
X121778751Y-40403213D01*
X121750103Y-40497652D01*
X121703582Y-40584687D01*
X121640975Y-40660975D01*
X121564687Y-40723582D01*
X121477652Y-40770103D01*
X121383213Y-40798751D01*
X121285000Y-40808424D01*
X121186788Y-40798751D01*
X121092349Y-40770103D01*
X121005314Y-40723582D01*
X120929026Y-40660975D01*
X120866419Y-40584687D01*
X120844764Y-40544174D01*
X120819898Y-40497653D01*
X120806526Y-40453571D01*
X120791250Y-40403213D01*
X120784001Y-40329612D01*
X120784000Y-40329602D01*
X120784000Y-39680389D01*
X120791249Y-39606788D01*
X120819897Y-39512349D01*
X120866418Y-39425313D01*
X120929025Y-39349025D01*
X121005313Y-39286418D01*
X121092348Y-39239897D01*
X121186787Y-39211249D01*
X121285000Y-39201576D01*
X121383212Y-39211249D01*
X121383212Y-39211249D01*
G37*
G36*
X124326000Y-40806000D02*
X123324000Y-40806000D01*
X123324000Y-39204000D01*
X124326000Y-39204000D01*
X124326000Y-40806000D01*
X124326000Y-40806000D01*
G37*
G36*
X131091000Y-37746000D02*
X127989000Y-37746000D01*
X127989000Y-34644000D01*
X131091000Y-34644000D01*
X131091000Y-37746000D01*
X131091000Y-37746000D01*
G37*
G36*
X134972527Y-34683736D02*
X135072410Y-34703604D01*
X135354674Y-34820521D01*
X135608705Y-34990259D01*
X135824741Y-35206295D01*
X135994479Y-35460326D01*
X136111396Y-35742590D01*
X136130626Y-35839267D01*
X136171000Y-36042238D01*
X136171000Y-36347762D01*
X136143943Y-36483786D01*
X136111396Y-36647410D01*
X135994479Y-36929674D01*
X135824741Y-37183705D01*
X135608705Y-37399741D01*
X135354674Y-37569479D01*
X135072410Y-37686396D01*
X134972527Y-37706264D01*
X134772762Y-37746000D01*
X134467238Y-37746000D01*
X134267473Y-37706264D01*
X134167590Y-37686396D01*
X133885326Y-37569479D01*
X133631295Y-37399741D01*
X133415259Y-37183705D01*
X133245521Y-36929674D01*
X133128604Y-36647410D01*
X133096057Y-36483786D01*
X133069000Y-36347762D01*
X133069000Y-36042238D01*
X133109374Y-35839267D01*
X133128604Y-35742590D01*
X133245521Y-35460326D01*
X133415259Y-35206295D01*
X133631295Y-34990259D01*
X133885326Y-34820521D01*
X134167590Y-34703604D01*
X134267473Y-34683736D01*
X134467238Y-34644000D01*
X134772762Y-34644000D01*
X134972527Y-34683736D01*
X134972527Y-34683736D01*
G37*
G36*
X142556000Y-37146000D02*
X140654000Y-37146000D01*
X140654000Y-35244000D01*
X142556000Y-35244000D01*
X142556000Y-37146000D01*
X142556000Y-37146000D01*
G37*
G36*
X123506000Y-37146000D02*
X121604000Y-37146000D01*
X121604000Y-35244000D01*
X123506000Y-35244000D01*
X123506000Y-37146000D01*
X123506000Y-37146000D01*
G37*
G36*
X164111000Y-37111000D02*
X161009000Y-37111000D01*
X161009000Y-34009000D01*
X164111000Y-34009000D01*
X164111000Y-37111000D01*
X164111000Y-37111000D01*
G37*
G36*
X101952527Y-34048736D02*
X102052410Y-34068604D01*
X102334674Y-34185521D01*
X102588705Y-34355259D01*
X102804741Y-34571295D01*
X102974479Y-34825326D01*
X103074727Y-35067348D01*
X103091396Y-35107591D01*
X103151000Y-35407238D01*
X103151000Y-35712762D01*
X103138471Y-35775747D01*
X103091396Y-36012410D01*
X102974479Y-36294674D01*
X102804741Y-36548705D01*
X102588705Y-36764741D01*
X102334674Y-36934479D01*
X102052410Y-37051396D01*
X101952527Y-37071264D01*
X101752762Y-37111000D01*
X101447238Y-37111000D01*
X101247473Y-37071264D01*
X101147590Y-37051396D01*
X100865326Y-36934479D01*
X100611295Y-36764741D01*
X100395259Y-36548705D01*
X100225521Y-36294674D01*
X100108604Y-36012410D01*
X100061529Y-35775747D01*
X100049000Y-35712762D01*
X100049000Y-35407238D01*
X100108604Y-35107591D01*
X100125273Y-35067348D01*
X100225521Y-34825326D01*
X100395259Y-34571295D01*
X100611295Y-34355259D01*
X100865326Y-34185521D01*
X101147590Y-34068604D01*
X101247473Y-34048736D01*
X101447238Y-34009000D01*
X101752762Y-34009000D01*
X101952527Y-34048736D01*
X101952527Y-34048736D01*
G37*
G36*
X148028665Y-35447622D02*
X148102222Y-35454867D01*
X148243786Y-35497810D01*
X148374252Y-35567546D01*
X148488606Y-35661394D01*
X148582454Y-35775748D01*
X148652190Y-35906214D01*
X148695133Y-36047778D01*
X148709633Y-36195000D01*
X148695133Y-36342222D01*
X148652190Y-36483786D01*
X148582454Y-36614252D01*
X148488606Y-36728606D01*
X148374252Y-36822454D01*
X148243786Y-36892190D01*
X148102222Y-36935133D01*
X148028665Y-36942378D01*
X147991888Y-36946000D01*
X147918112Y-36946000D01*
X147881335Y-36942378D01*
X147807778Y-36935133D01*
X147666214Y-36892190D01*
X147535748Y-36822454D01*
X147421394Y-36728606D01*
X147327546Y-36614252D01*
X147257810Y-36483786D01*
X147214867Y-36342222D01*
X147200367Y-36195000D01*
X147214867Y-36047778D01*
X147257810Y-35906214D01*
X147327546Y-35775748D01*
X147421394Y-35661394D01*
X147535748Y-35567546D01*
X147666214Y-35497810D01*
X147807778Y-35454867D01*
X147881335Y-35447622D01*
X147918112Y-35444000D01*
X147991888Y-35444000D01*
X148028665Y-35447622D01*
X148028665Y-35447622D01*
G37*
G36*
X145543600Y-35454867D02*
X145634059Y-35472860D01*
X145770732Y-35529472D01*
X145892079Y-35610554D01*
X145893738Y-35611662D01*
X145998338Y-35716262D01*
X145998340Y-35716265D01*
X146080528Y-35839268D01*
X146137140Y-35975941D01*
X146144394Y-36012410D01*
X146166000Y-36121031D01*
X146166000Y-36268969D01*
X146160887Y-36294672D01*
X146137140Y-36414059D01*
X146080528Y-36550732D01*
X146015930Y-36647409D01*
X145998338Y-36673738D01*
X145893738Y-36778338D01*
X145893735Y-36778340D01*
X145770732Y-36860528D01*
X145634059Y-36917140D01*
X145547004Y-36934456D01*
X145488969Y-36946000D01*
X145341031Y-36946000D01*
X145282996Y-36934456D01*
X145195941Y-36917140D01*
X145059268Y-36860528D01*
X144936265Y-36778340D01*
X144936262Y-36778338D01*
X144831662Y-36673738D01*
X144814070Y-36647409D01*
X144749472Y-36550732D01*
X144692860Y-36414059D01*
X144669113Y-36294672D01*
X144664000Y-36268969D01*
X144664000Y-36121031D01*
X144685606Y-36012410D01*
X144692860Y-35975941D01*
X144749472Y-35839268D01*
X144831660Y-35716265D01*
X144831662Y-35716262D01*
X144936262Y-35611662D01*
X144937921Y-35610554D01*
X145059268Y-35529472D01*
X145195941Y-35472860D01*
X145286400Y-35454867D01*
X145341031Y-35444000D01*
X145488969Y-35444000D01*
X145543600Y-35454867D01*
X145543600Y-35454867D01*
G37*
G36*
X156973600Y-35454867D02*
X157064059Y-35472860D01*
X157200732Y-35529472D01*
X157322079Y-35610554D01*
X157323738Y-35611662D01*
X157428338Y-35716262D01*
X157428340Y-35716265D01*
X157510528Y-35839268D01*
X157567140Y-35975941D01*
X157574394Y-36012410D01*
X157596000Y-36121031D01*
X157596000Y-36268969D01*
X157590887Y-36294672D01*
X157567140Y-36414059D01*
X157510528Y-36550732D01*
X157445930Y-36647409D01*
X157428338Y-36673738D01*
X157323738Y-36778338D01*
X157323735Y-36778340D01*
X157200732Y-36860528D01*
X157064059Y-36917140D01*
X156977004Y-36934456D01*
X156918969Y-36946000D01*
X156771031Y-36946000D01*
X156712996Y-36934456D01*
X156625941Y-36917140D01*
X156489268Y-36860528D01*
X156366265Y-36778340D01*
X156366262Y-36778338D01*
X156261662Y-36673738D01*
X156244070Y-36647409D01*
X156179472Y-36550732D01*
X156122860Y-36414059D01*
X156099113Y-36294672D01*
X156094000Y-36268969D01*
X156094000Y-36121031D01*
X156115606Y-36012410D01*
X156122860Y-35975941D01*
X156179472Y-35839268D01*
X156261660Y-35716265D01*
X156261662Y-35716262D01*
X156366262Y-35611662D01*
X156367921Y-35610554D01*
X156489268Y-35529472D01*
X156625941Y-35472860D01*
X156716400Y-35454867D01*
X156771031Y-35444000D01*
X156918969Y-35444000D01*
X156973600Y-35454867D01*
X156973600Y-35454867D01*
G37*
G36*
X107443600Y-35454867D02*
X107534059Y-35472860D01*
X107670732Y-35529472D01*
X107792079Y-35610554D01*
X107793738Y-35611662D01*
X107898338Y-35716262D01*
X107898340Y-35716265D01*
X107980528Y-35839268D01*
X108037140Y-35975941D01*
X108044394Y-36012410D01*
X108066000Y-36121031D01*
X108066000Y-36268969D01*
X108060887Y-36294672D01*
X108037140Y-36414059D01*
X107980528Y-36550732D01*
X107915930Y-36647409D01*
X107898338Y-36673738D01*
X107793738Y-36778338D01*
X107793735Y-36778340D01*
X107670732Y-36860528D01*
X107534059Y-36917140D01*
X107447004Y-36934456D01*
X107388969Y-36946000D01*
X107241031Y-36946000D01*
X107182996Y-36934456D01*
X107095941Y-36917140D01*
X106959268Y-36860528D01*
X106836265Y-36778340D01*
X106836262Y-36778338D01*
X106731662Y-36673738D01*
X106714070Y-36647409D01*
X106649472Y-36550732D01*
X106592860Y-36414059D01*
X106569113Y-36294672D01*
X106564000Y-36268969D01*
X106564000Y-36121031D01*
X106585606Y-36012410D01*
X106592860Y-35975941D01*
X106649472Y-35839268D01*
X106731660Y-35716265D01*
X106731662Y-35716262D01*
X106836262Y-35611662D01*
X106837921Y-35610554D01*
X106959268Y-35529472D01*
X107095941Y-35472860D01*
X107186400Y-35454867D01*
X107241031Y-35444000D01*
X107388969Y-35444000D01*
X107443600Y-35454867D01*
X107443600Y-35454867D01*
G37*
G36*
X116278665Y-35447622D02*
X116352222Y-35454867D01*
X116493786Y-35497810D01*
X116624252Y-35567546D01*
X116738606Y-35661394D01*
X116832454Y-35775748D01*
X116902190Y-35906214D01*
X116945133Y-36047778D01*
X116959633Y-36195000D01*
X116945133Y-36342222D01*
X116902190Y-36483786D01*
X116832454Y-36614252D01*
X116738606Y-36728606D01*
X116624252Y-36822454D01*
X116493786Y-36892190D01*
X116352222Y-36935133D01*
X116278665Y-36942378D01*
X116241888Y-36946000D01*
X116168112Y-36946000D01*
X116131335Y-36942378D01*
X116057778Y-36935133D01*
X115916214Y-36892190D01*
X115785748Y-36822454D01*
X115671394Y-36728606D01*
X115577546Y-36614252D01*
X115507810Y-36483786D01*
X115464867Y-36342222D01*
X115450367Y-36195000D01*
X115464867Y-36047778D01*
X115507810Y-35906214D01*
X115577546Y-35775748D01*
X115671394Y-35661394D01*
X115785748Y-35567546D01*
X115916214Y-35497810D01*
X116057778Y-35454867D01*
X116131335Y-35447622D01*
X116168112Y-35444000D01*
X116241888Y-35444000D01*
X116278665Y-35447622D01*
X116278665Y-35447622D01*
G37*
G36*
X118873600Y-35454867D02*
X118964059Y-35472860D01*
X119100732Y-35529472D01*
X119222079Y-35610554D01*
X119223738Y-35611662D01*
X119328338Y-35716262D01*
X119328340Y-35716265D01*
X119410528Y-35839268D01*
X119467140Y-35975941D01*
X119474394Y-36012410D01*
X119496000Y-36121031D01*
X119496000Y-36268969D01*
X119490887Y-36294672D01*
X119467140Y-36414059D01*
X119410528Y-36550732D01*
X119345930Y-36647409D01*
X119328338Y-36673738D01*
X119223738Y-36778338D01*
X119223735Y-36778340D01*
X119100732Y-36860528D01*
X118964059Y-36917140D01*
X118877004Y-36934456D01*
X118818969Y-36946000D01*
X118671031Y-36946000D01*
X118612996Y-36934456D01*
X118525941Y-36917140D01*
X118389268Y-36860528D01*
X118266265Y-36778340D01*
X118266262Y-36778338D01*
X118161662Y-36673738D01*
X118144070Y-36647409D01*
X118079472Y-36550732D01*
X118022860Y-36414059D01*
X117999113Y-36294672D01*
X117994000Y-36268969D01*
X117994000Y-36121031D01*
X118015606Y-36012410D01*
X118022860Y-35975941D01*
X118079472Y-35839268D01*
X118161660Y-35716265D01*
X118161662Y-35716262D01*
X118266262Y-35611662D01*
X118267921Y-35610554D01*
X118389268Y-35529472D01*
X118525941Y-35472860D01*
X118616400Y-35454867D01*
X118671031Y-35444000D01*
X118818969Y-35444000D01*
X118873600Y-35454867D01*
X118873600Y-35454867D01*
G37*
G36*
X113128213Y-34766249D02*
X113222652Y-34794897D01*
X113309687Y-34841418D01*
X113385975Y-34904025D01*
X113448582Y-34980313D01*
X113495103Y-35067348D01*
X113523751Y-35161787D01*
X113531000Y-35235388D01*
X113531000Y-35884612D01*
X113523751Y-35958213D01*
X113495103Y-36052652D01*
X113448582Y-36139687D01*
X113385975Y-36215975D01*
X113309687Y-36278582D01*
X113222651Y-36325103D01*
X113128212Y-36353751D01*
X113030000Y-36363424D01*
X112931787Y-36353751D01*
X112837348Y-36325103D01*
X112750313Y-36278582D01*
X112674025Y-36215975D01*
X112611418Y-36139687D01*
X112564897Y-36052651D01*
X112536249Y-35958212D01*
X112529000Y-35884611D01*
X112529000Y-35235398D01*
X112536250Y-35161789D01*
X112536250Y-35161787D01*
X112564898Y-35067348D01*
X112564898Y-35067347D01*
X112589764Y-35020826D01*
X112611419Y-34980313D01*
X112674026Y-34904025D01*
X112750314Y-34841418D01*
X112837349Y-34794897D01*
X112931788Y-34766249D01*
X113030000Y-34756576D01*
X113128213Y-34766249D01*
X113128213Y-34766249D01*
G37*
G36*
X111858213Y-34766249D02*
X111952652Y-34794897D01*
X112039687Y-34841418D01*
X112115975Y-34904025D01*
X112178582Y-34980313D01*
X112225103Y-35067348D01*
X112253751Y-35161787D01*
X112261000Y-35235388D01*
X112261000Y-35884612D01*
X112253751Y-35958213D01*
X112225103Y-36052652D01*
X112178582Y-36139687D01*
X112115975Y-36215975D01*
X112039687Y-36278582D01*
X111952651Y-36325103D01*
X111858212Y-36353751D01*
X111760000Y-36363424D01*
X111661787Y-36353751D01*
X111567348Y-36325103D01*
X111480313Y-36278582D01*
X111404025Y-36215975D01*
X111341418Y-36139687D01*
X111294897Y-36052651D01*
X111266249Y-35958212D01*
X111259000Y-35884611D01*
X111259000Y-35235398D01*
X111266250Y-35161789D01*
X111266250Y-35161787D01*
X111294898Y-35067348D01*
X111294898Y-35067347D01*
X111319764Y-35020826D01*
X111341419Y-34980313D01*
X111404026Y-34904025D01*
X111480314Y-34841418D01*
X111567349Y-34794897D01*
X111661788Y-34766249D01*
X111760000Y-34756576D01*
X111858213Y-34766249D01*
X111858213Y-34766249D01*
G37*
G36*
X110991000Y-36361000D02*
X109989000Y-36361000D01*
X109989000Y-34759000D01*
X110991000Y-34759000D01*
X110991000Y-36361000D01*
X110991000Y-36361000D01*
G37*
G36*
X151228212Y-34131249D02*
X151322651Y-34159897D01*
X151409687Y-34206418D01*
X151485975Y-34269025D01*
X151548582Y-34345313D01*
X151595103Y-34432348D01*
X151623751Y-34526787D01*
X151631000Y-34600388D01*
X151631000Y-35249612D01*
X151623751Y-35323213D01*
X151595103Y-35417652D01*
X151548582Y-35504687D01*
X151485975Y-35580975D01*
X151409687Y-35643582D01*
X151322652Y-35690103D01*
X151228213Y-35718751D01*
X151130000Y-35728424D01*
X151031788Y-35718751D01*
X150937349Y-35690103D01*
X150850314Y-35643582D01*
X150774026Y-35580975D01*
X150711419Y-35504687D01*
X150678981Y-35444000D01*
X150664898Y-35417653D01*
X150655349Y-35386172D01*
X150636250Y-35323213D01*
X150629001Y-35249612D01*
X150629000Y-35249602D01*
X150629000Y-34600389D01*
X150636249Y-34526788D01*
X150664897Y-34432349D01*
X150711418Y-34345313D01*
X150774025Y-34269025D01*
X150850313Y-34206418D01*
X150937348Y-34159897D01*
X151031787Y-34131249D01*
X151130000Y-34121576D01*
X151228212Y-34131249D01*
X151228212Y-34131249D01*
G37*
G36*
X152498212Y-34131249D02*
X152592651Y-34159897D01*
X152679687Y-34206418D01*
X152755975Y-34269025D01*
X152818582Y-34345313D01*
X152865103Y-34432348D01*
X152893751Y-34526787D01*
X152901000Y-34600388D01*
X152901000Y-35249612D01*
X152893751Y-35323213D01*
X152865103Y-35417652D01*
X152818582Y-35504687D01*
X152755975Y-35580975D01*
X152679687Y-35643582D01*
X152592652Y-35690103D01*
X152498213Y-35718751D01*
X152400000Y-35728424D01*
X152301788Y-35718751D01*
X152207349Y-35690103D01*
X152120314Y-35643582D01*
X152044026Y-35580975D01*
X151981419Y-35504687D01*
X151948981Y-35444000D01*
X151934898Y-35417653D01*
X151925349Y-35386172D01*
X151906250Y-35323213D01*
X151899001Y-35249612D01*
X151899000Y-35249602D01*
X151899000Y-34600389D01*
X151906249Y-34526788D01*
X151934897Y-34432349D01*
X151981418Y-34345313D01*
X152044025Y-34269025D01*
X152120313Y-34206418D01*
X152207348Y-34159897D01*
X152301787Y-34131249D01*
X152400000Y-34121576D01*
X152498212Y-34131249D01*
X152498212Y-34131249D01*
G37*
G36*
X154171000Y-35726000D02*
X153169000Y-35726000D01*
X153169000Y-34124000D01*
X154171000Y-34124000D01*
X154171000Y-35726000D01*
X154171000Y-35726000D01*
G37*
G36*
X122832396Y-32740546D02*
X123005466Y-32812234D01*
X123161230Y-32916312D01*
X123293688Y-33048770D01*
X123397766Y-33204534D01*
X123469454Y-33377604D01*
X123506000Y-33561333D01*
X123506000Y-33748667D01*
X123469454Y-33932396D01*
X123397766Y-34105466D01*
X123293688Y-34261230D01*
X123161230Y-34393688D01*
X123005466Y-34497766D01*
X122832396Y-34569454D01*
X122648667Y-34606000D01*
X122461333Y-34606000D01*
X122277604Y-34569454D01*
X122104534Y-34497766D01*
X121948770Y-34393688D01*
X121816312Y-34261230D01*
X121712234Y-34105466D01*
X121640546Y-33932396D01*
X121604000Y-33748667D01*
X121604000Y-33561333D01*
X121640546Y-33377604D01*
X121712234Y-33204534D01*
X121816312Y-33048770D01*
X121948770Y-32916312D01*
X122104534Y-32812234D01*
X122277604Y-32740546D01*
X122461333Y-32704000D01*
X122648667Y-32704000D01*
X122832396Y-32740546D01*
X122832396Y-32740546D01*
G37*
G36*
X141882396Y-32740546D02*
X142055466Y-32812234D01*
X142211230Y-32916312D01*
X142343688Y-33048770D01*
X142447766Y-33204534D01*
X142519454Y-33377604D01*
X142556000Y-33561333D01*
X142556000Y-33748667D01*
X142519454Y-33932396D01*
X142447766Y-34105466D01*
X142343688Y-34261230D01*
X142211230Y-34393688D01*
X142055466Y-34497766D01*
X141882396Y-34569454D01*
X141698667Y-34606000D01*
X141511333Y-34606000D01*
X141327604Y-34569454D01*
X141154534Y-34497766D01*
X140998770Y-34393688D01*
X140866312Y-34261230D01*
X140762234Y-34105466D01*
X140690546Y-33932396D01*
X140654000Y-33748667D01*
X140654000Y-33561333D01*
X140690546Y-33377604D01*
X140762234Y-33204534D01*
X140866312Y-33048770D01*
X140998770Y-32916312D01*
X141154534Y-32812234D01*
X141327604Y-32740546D01*
X141511333Y-32704000D01*
X141698667Y-32704000D01*
X141882396Y-32740546D01*
X141882396Y-32740546D01*
G37*
G36*
X145488665Y-32907622D02*
X145562222Y-32914867D01*
X145703786Y-32957810D01*
X145834252Y-33027546D01*
X145948606Y-33121394D01*
X146042454Y-33235748D01*
X146112190Y-33366214D01*
X146155133Y-33507778D01*
X146169633Y-33655000D01*
X146155133Y-33802222D01*
X146112190Y-33943786D01*
X146042454Y-34074252D01*
X145948606Y-34188606D01*
X145834252Y-34282454D01*
X145703786Y-34352190D01*
X145562222Y-34395133D01*
X145488665Y-34402378D01*
X145451888Y-34406000D01*
X145378112Y-34406000D01*
X145341335Y-34402378D01*
X145267778Y-34395133D01*
X145126214Y-34352190D01*
X144995748Y-34282454D01*
X144881394Y-34188606D01*
X144787546Y-34074252D01*
X144717810Y-33943786D01*
X144674867Y-33802222D01*
X144660367Y-33655000D01*
X144674867Y-33507778D01*
X144717810Y-33366214D01*
X144787546Y-33235748D01*
X144881394Y-33121394D01*
X144995748Y-33027546D01*
X145126214Y-32957810D01*
X145267778Y-32914867D01*
X145341335Y-32907622D01*
X145378112Y-32904000D01*
X145451888Y-32904000D01*
X145488665Y-32907622D01*
X145488665Y-32907622D01*
G37*
G36*
X118818665Y-32907622D02*
X118892222Y-32914867D01*
X119033786Y-32957810D01*
X119164252Y-33027546D01*
X119278606Y-33121394D01*
X119372454Y-33235748D01*
X119442190Y-33366214D01*
X119485133Y-33507778D01*
X119499633Y-33655000D01*
X119485133Y-33802222D01*
X119442190Y-33943786D01*
X119372454Y-34074252D01*
X119278606Y-34188606D01*
X119164252Y-34282454D01*
X119033786Y-34352190D01*
X118892222Y-34395133D01*
X118818665Y-34402378D01*
X118781888Y-34406000D01*
X118708112Y-34406000D01*
X118671335Y-34402378D01*
X118597778Y-34395133D01*
X118456214Y-34352190D01*
X118325748Y-34282454D01*
X118211394Y-34188606D01*
X118117546Y-34074252D01*
X118047810Y-33943786D01*
X118004867Y-33802222D01*
X117990367Y-33655000D01*
X118004867Y-33507778D01*
X118047810Y-33366214D01*
X118117546Y-33235748D01*
X118211394Y-33121394D01*
X118325748Y-33027546D01*
X118456214Y-32957810D01*
X118597778Y-32914867D01*
X118671335Y-32907622D01*
X118708112Y-32904000D01*
X118781888Y-32904000D01*
X118818665Y-32907622D01*
X118818665Y-32907622D01*
G37*
G36*
X156918665Y-32907622D02*
X156992222Y-32914867D01*
X157133786Y-32957810D01*
X157264252Y-33027546D01*
X157378606Y-33121394D01*
X157472454Y-33235748D01*
X157542190Y-33366214D01*
X157585133Y-33507778D01*
X157599633Y-33655000D01*
X157585133Y-33802222D01*
X157542190Y-33943786D01*
X157472454Y-34074252D01*
X157378606Y-34188606D01*
X157264252Y-34282454D01*
X157133786Y-34352190D01*
X156992222Y-34395133D01*
X156918665Y-34402378D01*
X156881888Y-34406000D01*
X156808112Y-34406000D01*
X156771335Y-34402378D01*
X156697778Y-34395133D01*
X156556214Y-34352190D01*
X156425748Y-34282454D01*
X156311394Y-34188606D01*
X156217546Y-34074252D01*
X156147810Y-33943786D01*
X156104867Y-33802222D01*
X156090367Y-33655000D01*
X156104867Y-33507778D01*
X156147810Y-33366214D01*
X156217546Y-33235748D01*
X156311394Y-33121394D01*
X156425748Y-33027546D01*
X156556214Y-32957810D01*
X156697778Y-32914867D01*
X156771335Y-32907622D01*
X156808112Y-32904000D01*
X156881888Y-32904000D01*
X156918665Y-32907622D01*
X156918665Y-32907622D01*
G37*
G36*
X148083600Y-32914867D02*
X148174059Y-32932860D01*
X148310732Y-32989472D01*
X148367715Y-33027547D01*
X148433738Y-33071662D01*
X148538338Y-33176262D01*
X148538340Y-33176265D01*
X148620528Y-33299268D01*
X148677140Y-33435941D01*
X148706000Y-33581033D01*
X148706000Y-33728967D01*
X148677140Y-33874059D01*
X148620528Y-34010732D01*
X148557229Y-34105466D01*
X148538338Y-34133738D01*
X148433738Y-34238338D01*
X148433735Y-34238340D01*
X148310732Y-34320528D01*
X148174059Y-34377140D01*
X148090865Y-34393688D01*
X148028969Y-34406000D01*
X147881031Y-34406000D01*
X147819135Y-34393688D01*
X147735941Y-34377140D01*
X147599268Y-34320528D01*
X147476265Y-34238340D01*
X147476262Y-34238338D01*
X147371662Y-34133738D01*
X147352771Y-34105466D01*
X147289472Y-34010732D01*
X147232860Y-33874059D01*
X147204000Y-33728967D01*
X147204000Y-33581033D01*
X147232860Y-33435941D01*
X147289472Y-33299268D01*
X147371660Y-33176265D01*
X147371662Y-33176262D01*
X147476262Y-33071662D01*
X147542285Y-33027547D01*
X147599268Y-32989472D01*
X147735941Y-32932860D01*
X147826400Y-32914867D01*
X147881031Y-32904000D01*
X148028969Y-32904000D01*
X148083600Y-32914867D01*
X148083600Y-32914867D01*
G37*
G36*
X116333600Y-32914867D02*
X116424059Y-32932860D01*
X116560732Y-32989472D01*
X116617715Y-33027547D01*
X116683738Y-33071662D01*
X116788338Y-33176262D01*
X116788340Y-33176265D01*
X116870528Y-33299268D01*
X116927140Y-33435941D01*
X116956000Y-33581033D01*
X116956000Y-33728967D01*
X116927140Y-33874059D01*
X116870528Y-34010732D01*
X116807229Y-34105466D01*
X116788338Y-34133738D01*
X116683738Y-34238338D01*
X116683735Y-34238340D01*
X116560732Y-34320528D01*
X116424059Y-34377140D01*
X116340865Y-34393688D01*
X116278969Y-34406000D01*
X116131031Y-34406000D01*
X116069135Y-34393688D01*
X115985941Y-34377140D01*
X115849268Y-34320528D01*
X115726265Y-34238340D01*
X115726262Y-34238338D01*
X115621662Y-34133738D01*
X115602771Y-34105466D01*
X115539472Y-34010732D01*
X115482860Y-33874059D01*
X115454000Y-33728967D01*
X115454000Y-33581033D01*
X115482860Y-33435941D01*
X115539472Y-33299268D01*
X115621660Y-33176265D01*
X115621662Y-33176262D01*
X115726262Y-33071662D01*
X115792285Y-33027547D01*
X115849268Y-32989472D01*
X115985941Y-32932860D01*
X116076400Y-32914867D01*
X116131031Y-32904000D01*
X116278969Y-32904000D01*
X116333600Y-32914867D01*
X116333600Y-32914867D01*
G37*
G36*
X107388665Y-32907622D02*
X107462222Y-32914867D01*
X107603786Y-32957810D01*
X107734252Y-33027546D01*
X107848606Y-33121394D01*
X107942454Y-33235748D01*
X108012190Y-33366214D01*
X108055133Y-33507778D01*
X108069633Y-33655000D01*
X108055133Y-33802222D01*
X108012190Y-33943786D01*
X107942454Y-34074252D01*
X107848606Y-34188606D01*
X107734252Y-34282454D01*
X107603786Y-34352190D01*
X107462222Y-34395133D01*
X107388665Y-34402378D01*
X107351888Y-34406000D01*
X107278112Y-34406000D01*
X107241335Y-34402378D01*
X107167778Y-34395133D01*
X107026214Y-34352190D01*
X106895748Y-34282454D01*
X106781394Y-34188606D01*
X106687546Y-34074252D01*
X106617810Y-33943786D01*
X106574867Y-33802222D01*
X106560367Y-33655000D01*
X106574867Y-33507778D01*
X106617810Y-33366214D01*
X106687546Y-33235748D01*
X106781394Y-33121394D01*
X106895748Y-33027546D01*
X107026214Y-32957810D01*
X107167778Y-32914867D01*
X107241335Y-32907622D01*
X107278112Y-32904000D01*
X107351888Y-32904000D01*
X107388665Y-32907622D01*
X107388665Y-32907622D01*
G37*
G36*
X170792547Y-28460701D02*
X171174722Y-28619003D01*
X171174723Y-28619004D01*
X171518672Y-28848823D01*
X171811177Y-29141328D01*
X171964390Y-29370627D01*
X172040997Y-29485278D01*
X172199299Y-29867453D01*
X172280000Y-30273167D01*
X172280000Y-30686833D01*
X172199299Y-31092547D01*
X172040997Y-31474722D01*
X172040996Y-31474723D01*
X171811177Y-31818672D01*
X171518672Y-32111177D01*
X171289373Y-32264390D01*
X171174722Y-32340997D01*
X170792547Y-32499299D01*
X170386833Y-32580000D01*
X169973167Y-32580000D01*
X169567453Y-32499299D01*
X169185278Y-32340997D01*
X169070627Y-32264390D01*
X168841328Y-32111177D01*
X168548823Y-31818672D01*
X168319004Y-31474723D01*
X168319003Y-31474722D01*
X168160701Y-31092547D01*
X168080000Y-30686833D01*
X168080000Y-30273167D01*
X168160701Y-29867453D01*
X168319003Y-29485278D01*
X168395610Y-29370627D01*
X168548823Y-29141328D01*
X168841328Y-28848823D01*
X169185277Y-28619004D01*
X169185278Y-28619003D01*
X169567453Y-28460701D01*
X169973167Y-28380000D01*
X170386833Y-28380000D01*
X170792547Y-28460701D01*
X170792547Y-28460701D01*
G37*
G36*
X94592547Y-28460701D02*
X94974722Y-28619003D01*
X94974723Y-28619004D01*
X95318672Y-28848823D01*
X95611177Y-29141328D01*
X95764390Y-29370627D01*
X95840997Y-29485278D01*
X95999299Y-29867453D01*
X96080000Y-30273167D01*
X96080000Y-30686833D01*
X95999299Y-31092547D01*
X95840997Y-31474722D01*
X95840996Y-31474723D01*
X95611177Y-31818672D01*
X95318672Y-32111177D01*
X95089373Y-32264390D01*
X94974722Y-32340997D01*
X94592547Y-32499299D01*
X94186833Y-32580000D01*
X93773167Y-32580000D01*
X93367453Y-32499299D01*
X92985278Y-32340997D01*
X92870627Y-32264390D01*
X92641328Y-32111177D01*
X92348823Y-31818672D01*
X92119004Y-31474723D01*
X92119003Y-31474722D01*
X91960701Y-31092547D01*
X91880000Y-30686833D01*
X91880000Y-30273167D01*
X91960701Y-29867453D01*
X92119003Y-29485278D01*
X92195610Y-29370627D01*
X92348823Y-29141328D01*
X92641328Y-28848823D01*
X92985277Y-28619004D01*
X92985278Y-28619003D01*
X93367453Y-28460701D01*
X93773167Y-28380000D01*
X94186833Y-28380000D01*
X94592547Y-28460701D01*
X94592547Y-28460701D01*
G37*
M02*
