%FSLAX45Y45*%
G04 Gerber Fmt 4.5, Leading zero omitted, Abs format (unit mm)*
G04 Created by KiCad (PCBNEW (5.0.2)-1) date 23/12/2018 18:59:04*
%MOMM*%
%LPD*%
G01*
G04 APERTURE LIST*
%ADD10C,0.150000*%
%ADD11C,0.200000*%
%ADD12C,0.300000*%
G04 APERTURE END LIST*
D10*
X8890000Y-2540000D02*
X8890000Y-8636000D01*
X17526000Y-2540000D02*
X8890000Y-2540000D01*
X17526000Y-8636000D02*
X17526000Y-2540000D01*
X8890000Y-8636000D02*
X17526000Y-8636000D01*
D11*
X11019000Y-3526000D02*
X11079000Y-3586000D01*
X11079000Y-3526000D02*
X11019000Y-3586000D01*
X11146000Y-3526000D02*
X11206000Y-3586000D01*
X11206000Y-3526000D02*
X11146000Y-3586000D01*
X11273000Y-3526000D02*
X11333000Y-3586000D01*
X11333000Y-3526000D02*
X11273000Y-3586000D01*
X12098500Y-3970500D02*
X12158500Y-4030500D01*
X12158500Y-3970500D02*
X12098500Y-4030500D01*
X12225500Y-3970500D02*
X12285500Y-4030500D01*
X12285500Y-3970500D02*
X12225500Y-4030500D01*
X12352500Y-3970500D02*
X12412500Y-4030500D01*
X12412500Y-3970500D02*
X12352500Y-4030500D01*
X11019000Y-5812000D02*
X11079000Y-5872000D01*
X11079000Y-5812000D02*
X11019000Y-5872000D01*
X11146000Y-5812000D02*
X11206000Y-5872000D01*
X11206000Y-5812000D02*
X11146000Y-5872000D01*
X11273000Y-5812000D02*
X11333000Y-5872000D01*
X11333000Y-5812000D02*
X11273000Y-5872000D01*
X12098500Y-6256500D02*
X12158500Y-6316500D01*
X12158500Y-6256500D02*
X12098500Y-6316500D01*
X12225500Y-6256500D02*
X12285500Y-6316500D01*
X12285500Y-6256500D02*
X12225500Y-6316500D01*
X12352500Y-6256500D02*
X12412500Y-6316500D01*
X12412500Y-6256500D02*
X12352500Y-6316500D01*
X15083000Y-3462500D02*
X15143000Y-3522500D01*
X15143000Y-3462500D02*
X15083000Y-3522500D01*
X15210000Y-3462500D02*
X15270000Y-3522500D01*
X15270000Y-3462500D02*
X15210000Y-3522500D01*
X15337000Y-3462500D02*
X15397000Y-3522500D01*
X15397000Y-3462500D02*
X15337000Y-3522500D01*
X14003500Y-4034000D02*
X14063500Y-4094000D01*
X14063500Y-4034000D02*
X14003500Y-4094000D01*
X14130500Y-4034000D02*
X14190500Y-4094000D01*
X14190500Y-4034000D02*
X14130500Y-4094000D01*
X14257500Y-4034000D02*
X14317500Y-4094000D01*
X14317500Y-4034000D02*
X14257500Y-4094000D01*
X11019000Y-4669000D02*
X11079000Y-4729000D01*
X11079000Y-4669000D02*
X11019000Y-4729000D01*
X11146000Y-4669000D02*
X11206000Y-4729000D01*
X11206000Y-4669000D02*
X11146000Y-4729000D01*
X11273000Y-4669000D02*
X11333000Y-4729000D01*
X11333000Y-4669000D02*
X11273000Y-4729000D01*
X12098500Y-5113500D02*
X12158500Y-5173500D01*
X12158500Y-5113500D02*
X12098500Y-5173500D01*
X12225500Y-5113500D02*
X12285500Y-5173500D01*
X12285500Y-5113500D02*
X12225500Y-5173500D01*
X12352500Y-5113500D02*
X12412500Y-5173500D01*
X12412500Y-5113500D02*
X12352500Y-5173500D01*
X11019000Y-6955000D02*
X11079000Y-7015000D01*
X11079000Y-6955000D02*
X11019000Y-7015000D01*
X11146000Y-6955000D02*
X11206000Y-7015000D01*
X11206000Y-6955000D02*
X11146000Y-7015000D01*
X11273000Y-6955000D02*
X11333000Y-7015000D01*
X11333000Y-6955000D02*
X11273000Y-7015000D01*
X12098500Y-7399500D02*
X12158500Y-7459500D01*
X12158500Y-7399500D02*
X12098500Y-7459500D01*
X12225500Y-7399500D02*
X12285500Y-7459500D01*
X12285500Y-7399500D02*
X12225500Y-7459500D01*
X12352500Y-7399500D02*
X12412500Y-7459500D01*
X12412500Y-7399500D02*
X12352500Y-7459500D01*
X15083000Y-4605500D02*
X15143000Y-4665500D01*
X15143000Y-4605500D02*
X15083000Y-4665500D01*
X15210000Y-4605500D02*
X15270000Y-4665500D01*
X15270000Y-4605500D02*
X15210000Y-4665500D01*
X15337000Y-4605500D02*
X15397000Y-4665500D01*
X15397000Y-4605500D02*
X15337000Y-4665500D01*
X14003500Y-5177000D02*
X14063500Y-5237000D01*
X14063500Y-5177000D02*
X14003500Y-5237000D01*
X14130500Y-5177000D02*
X14190500Y-5237000D01*
X14190500Y-5177000D02*
X14130500Y-5237000D01*
X14257500Y-5177000D02*
X14317500Y-5237000D01*
X14317500Y-5177000D02*
X14257500Y-5237000D01*
X15083000Y-5748500D02*
X15143000Y-5808500D01*
X15143000Y-5748500D02*
X15083000Y-5808500D01*
X15210000Y-5748500D02*
X15270000Y-5808500D01*
X15270000Y-5748500D02*
X15210000Y-5808500D01*
X15337000Y-5748500D02*
X15397000Y-5808500D01*
X15397000Y-5748500D02*
X15337000Y-5808500D01*
X14003500Y-6320000D02*
X14063500Y-6380000D01*
X14063500Y-6320000D02*
X14003500Y-6380000D01*
X14130500Y-6320000D02*
X14190500Y-6380000D01*
X14190500Y-6320000D02*
X14130500Y-6380000D01*
X14257500Y-6320000D02*
X14317500Y-6380000D01*
X14317500Y-6320000D02*
X14257500Y-6380000D01*
X15083000Y-6891500D02*
X15143000Y-6951500D01*
X15143000Y-6891500D02*
X15083000Y-6951500D01*
X15210000Y-6891500D02*
X15270000Y-6951500D01*
X15270000Y-6891500D02*
X15210000Y-6951500D01*
X15337000Y-6891500D02*
X15397000Y-6951500D01*
X15397000Y-6891500D02*
X15337000Y-6951500D01*
X14003500Y-7463000D02*
X14063500Y-7523000D01*
X14063500Y-7463000D02*
X14003500Y-7523000D01*
X14130500Y-7463000D02*
X14190500Y-7523000D01*
X14190500Y-7463000D02*
X14130500Y-7523000D01*
X14257500Y-7463000D02*
X14317500Y-7523000D01*
X14317500Y-7463000D02*
X14257500Y-7523000D01*
X11909500Y-3365500D02*
G75*
G03X11909500Y-3365500I-35000J0D01*
G01*
X11909500Y-3619500D02*
G75*
G03X11909500Y-3619500I-35000J0D01*
G01*
X11655500Y-3365500D02*
G75*
G03X11655500Y-3365500I-35000J0D01*
G01*
X11655500Y-3619500D02*
G75*
G03X11655500Y-3619500I-35000J0D01*
G01*
X10766500Y-3365500D02*
G75*
G03X10766500Y-3365500I-35000J0D01*
G01*
X10766500Y-3619500D02*
G75*
G03X10766500Y-3619500I-35000J0D01*
G01*
X11909500Y-4508500D02*
G75*
G03X11909500Y-4508500I-35000J0D01*
G01*
X11909500Y-4762500D02*
G75*
G03X11909500Y-4762500I-35000J0D01*
G01*
X11655500Y-4508500D02*
G75*
G03X11655500Y-4508500I-35000J0D01*
G01*
X11655500Y-4762500D02*
G75*
G03X11655500Y-4762500I-35000J0D01*
G01*
X10766500Y-4508500D02*
G75*
G03X10766500Y-4508500I-35000J0D01*
G01*
X10766500Y-4762500D02*
G75*
G03X10766500Y-4762500I-35000J0D01*
G01*
X11909500Y-5651500D02*
G75*
G03X11909500Y-5651500I-35000J0D01*
G01*
X11909500Y-5905500D02*
G75*
G03X11909500Y-5905500I-35000J0D01*
G01*
X11655500Y-5651500D02*
G75*
G03X11655500Y-5651500I-35000J0D01*
G01*
X11655500Y-5905500D02*
G75*
G03X11655500Y-5905500I-35000J0D01*
G01*
X10766500Y-5651500D02*
G75*
G03X10766500Y-5651500I-35000J0D01*
G01*
X10766500Y-5905500D02*
G75*
G03X10766500Y-5905500I-35000J0D01*
G01*
X11655500Y-6794500D02*
G75*
G03X11655500Y-6794500I-35000J0D01*
G01*
X11655500Y-7048500D02*
G75*
G03X11655500Y-7048500I-35000J0D01*
G01*
X10766500Y-6794500D02*
G75*
G03X10766500Y-6794500I-35000J0D01*
G01*
X10766500Y-7048500D02*
G75*
G03X10766500Y-7048500I-35000J0D01*
G01*
X14576500Y-3365500D02*
G75*
G03X14576500Y-3365500I-35000J0D01*
G01*
X14576500Y-3619500D02*
G75*
G03X14576500Y-3619500I-35000J0D01*
G01*
X14830500Y-3365500D02*
G75*
G03X14830500Y-3365500I-35000J0D01*
G01*
X14830500Y-3619500D02*
G75*
G03X14830500Y-3619500I-35000J0D01*
G01*
X15719500Y-3365500D02*
G75*
G03X15719500Y-3365500I-35000J0D01*
G01*
X15719500Y-3619500D02*
G75*
G03X15719500Y-3619500I-35000J0D01*
G01*
X14576500Y-4508500D02*
G75*
G03X14576500Y-4508500I-35000J0D01*
G01*
X14576500Y-4762500D02*
G75*
G03X14576500Y-4762500I-35000J0D01*
G01*
X14830500Y-4508500D02*
G75*
G03X14830500Y-4508500I-35000J0D01*
G01*
X14830500Y-4762500D02*
G75*
G03X14830500Y-4762500I-35000J0D01*
G01*
X15719500Y-4508500D02*
G75*
G03X15719500Y-4508500I-35000J0D01*
G01*
X15719500Y-4762500D02*
G75*
G03X15719500Y-4762500I-35000J0D01*
G01*
X14576500Y-5651500D02*
G75*
G03X14576500Y-5651500I-35000J0D01*
G01*
X14576500Y-5905500D02*
G75*
G03X14576500Y-5905500I-35000J0D01*
G01*
X14830500Y-5651500D02*
G75*
G03X14830500Y-5651500I-35000J0D01*
G01*
X14830500Y-5905500D02*
G75*
G03X14830500Y-5905500I-35000J0D01*
G01*
X15719500Y-5651500D02*
G75*
G03X15719500Y-5651500I-35000J0D01*
G01*
X15719500Y-5905500D02*
G75*
G03X15719500Y-5905500I-35000J0D01*
G01*
X14576500Y-6794500D02*
G75*
G03X14576500Y-6794500I-35000J0D01*
G01*
X14576500Y-7048500D02*
G75*
G03X14576500Y-7048500I-35000J0D01*
G01*
X14830500Y-6794500D02*
G75*
G03X14830500Y-6794500I-35000J0D01*
G01*
X14830500Y-7048500D02*
G75*
G03X14830500Y-7048500I-35000J0D01*
G01*
X15719500Y-6794500D02*
G75*
G03X15719500Y-6794500I-35000J0D01*
G01*
X15719500Y-7048500D02*
G75*
G03X15719500Y-7048500I-35000J0D01*
G01*
X11909500Y-6794500D02*
G75*
G03X11909500Y-6794500I-35000J0D01*
G01*
X11909500Y-7048500D02*
G75*
G03X11909500Y-7048500I-35000J0D01*
G01*
X12192000Y-7961000D02*
X12192000Y-8041000D01*
X12152000Y-8001000D02*
X12232000Y-8001000D01*
X12446000Y-7961000D02*
X12446000Y-8041000D01*
X12406000Y-8001000D02*
X12486000Y-8001000D01*
X12700000Y-7961000D02*
X12700000Y-8041000D01*
X12660000Y-8001000D02*
X12740000Y-8001000D01*
X12954000Y-7961000D02*
X12954000Y-8041000D01*
X12914000Y-8001000D02*
X12994000Y-8001000D01*
X13208000Y-7961000D02*
X13208000Y-8041000D01*
X13168000Y-8001000D02*
X13248000Y-8001000D01*
X13462000Y-7961000D02*
X13462000Y-8041000D01*
X13422000Y-8001000D02*
X13502000Y-8001000D01*
X13716000Y-7961000D02*
X13716000Y-8041000D01*
X13676000Y-8001000D02*
X13756000Y-8001000D01*
X13970000Y-7961000D02*
X13970000Y-8041000D01*
X13930000Y-8001000D02*
X14010000Y-8001000D01*
X12192000Y-8215000D02*
X12192000Y-8295000D01*
X12152000Y-8255000D02*
X12232000Y-8255000D01*
X12446000Y-8215000D02*
X12446000Y-8295000D01*
X12406000Y-8255000D02*
X12486000Y-8255000D01*
X12700000Y-8215000D02*
X12700000Y-8295000D01*
X12660000Y-8255000D02*
X12740000Y-8255000D01*
X12954000Y-8215000D02*
X12954000Y-8295000D01*
X12914000Y-8255000D02*
X12994000Y-8255000D01*
X13208000Y-8215000D02*
X13208000Y-8295000D01*
X13168000Y-8255000D02*
X13248000Y-8255000D01*
X13462000Y-8215000D02*
X13462000Y-8295000D01*
X13422000Y-8255000D02*
X13502000Y-8255000D01*
X13716000Y-8215000D02*
X13716000Y-8295000D01*
X13676000Y-8255000D02*
X13756000Y-8255000D01*
X13970000Y-8215000D02*
X13970000Y-8295000D01*
X13930000Y-8255000D02*
X14010000Y-8255000D01*
X12287320Y-3397320D02*
X12287320Y-3333680D01*
X12223680Y-3333680D01*
X12223680Y-3397320D01*
X12287320Y-3397320D01*
X12287320Y-3651320D02*
X12287320Y-3587680D01*
X12223680Y-3587680D01*
X12223680Y-3651320D01*
X12287320Y-3651320D01*
X12287320Y-4540320D02*
X12287320Y-4476680D01*
X12223680Y-4476680D01*
X12223680Y-4540320D01*
X12287320Y-4540320D01*
X12287320Y-4794320D02*
X12287320Y-4730680D01*
X12223680Y-4730680D01*
X12223680Y-4794320D01*
X12287320Y-4794320D01*
X12287320Y-5683320D02*
X12287320Y-5619680D01*
X12223680Y-5619680D01*
X12223680Y-5683320D01*
X12287320Y-5683320D01*
X12287320Y-5937320D02*
X12287320Y-5873680D01*
X12223680Y-5873680D01*
X12223680Y-5937320D01*
X12287320Y-5937320D01*
X12287320Y-6826320D02*
X12287320Y-6762680D01*
X12223680Y-6762680D01*
X12223680Y-6826320D01*
X12287320Y-6826320D01*
X12287320Y-7080320D02*
X12287320Y-7016680D01*
X12223680Y-7016680D01*
X12223680Y-7080320D01*
X12287320Y-7080320D01*
X14192320Y-3397320D02*
X14192320Y-3333680D01*
X14128680Y-3333680D01*
X14128680Y-3397320D01*
X14192320Y-3397320D01*
X14192320Y-3651320D02*
X14192320Y-3587680D01*
X14128680Y-3587680D01*
X14128680Y-3651320D01*
X14192320Y-3651320D01*
X14192320Y-4540320D02*
X14192320Y-4476680D01*
X14128680Y-4476680D01*
X14128680Y-4540320D01*
X14192320Y-4540320D01*
X14192320Y-4794320D02*
X14192320Y-4730680D01*
X14128680Y-4730680D01*
X14128680Y-4794320D01*
X14192320Y-4794320D01*
X14192320Y-5683320D02*
X14192320Y-5619680D01*
X14128680Y-5619680D01*
X14128680Y-5683320D01*
X14192320Y-5683320D01*
X14192320Y-5937320D02*
X14192320Y-5873680D01*
X14128680Y-5873680D01*
X14128680Y-5937320D01*
X14192320Y-5937320D01*
X14192320Y-6826320D02*
X14192320Y-6762680D01*
X14128680Y-6762680D01*
X14128680Y-6826320D01*
X14192320Y-6826320D01*
X14192320Y-7080320D02*
X14192320Y-7016680D01*
X14128680Y-7016680D01*
X14128680Y-7080320D01*
X14192320Y-7080320D01*
X12636500Y-3923500D02*
X12686500Y-3873500D01*
X12636500Y-3823500D01*
X12586500Y-3873500D01*
X12636500Y-3923500D01*
X12763500Y-4939500D02*
X12813500Y-4889500D01*
X12763500Y-4839500D01*
X12713500Y-4889500D01*
X12763500Y-4939500D01*
X12890500Y-6082500D02*
X12940500Y-6032500D01*
X12890500Y-5982500D01*
X12840500Y-6032500D01*
X12890500Y-6082500D01*
X13017500Y-7225500D02*
X13067500Y-7175500D01*
X13017500Y-7125500D01*
X12967500Y-7175500D01*
X13017500Y-7225500D01*
X13462000Y-4939500D02*
X13512000Y-4889500D01*
X13462000Y-4839500D01*
X13412000Y-4889500D01*
X13462000Y-4939500D01*
X13462000Y-6082500D02*
X13512000Y-6032500D01*
X13462000Y-5982500D01*
X13412000Y-6032500D01*
X13462000Y-6082500D01*
X13589000Y-7225500D02*
X13639000Y-7175500D01*
X13589000Y-7125500D01*
X13539000Y-7175500D01*
X13589000Y-7225500D01*
X13779500Y-3860000D02*
X13829500Y-3810000D01*
X13779500Y-3760000D01*
X13729500Y-3810000D01*
X13779500Y-3860000D01*
X11176000Y-4114000D02*
X11226000Y-4064000D01*
X11176000Y-4014000D01*
X11126000Y-4064000D01*
X11176000Y-4114000D01*
X11430000Y-4114000D02*
X11480000Y-4064000D01*
X11430000Y-4014000D01*
X11380000Y-4064000D01*
X11430000Y-4114000D01*
X11684000Y-4114000D02*
X11734000Y-4064000D01*
X11684000Y-4014000D01*
X11634000Y-4064000D01*
X11684000Y-4114000D01*
X14732000Y-4050500D02*
X14782000Y-4000500D01*
X14732000Y-3950500D01*
X14682000Y-4000500D01*
X14732000Y-4050500D01*
X14986000Y-4050500D02*
X15036000Y-4000500D01*
X14986000Y-3950500D01*
X14936000Y-4000500D01*
X14986000Y-4050500D01*
X15240000Y-4050500D02*
X15290000Y-4000500D01*
X15240000Y-3950500D01*
X15190000Y-4000500D01*
X15240000Y-4050500D01*
X11176000Y-6400000D02*
X11226000Y-6350000D01*
X11176000Y-6300000D01*
X11126000Y-6350000D01*
X11176000Y-6400000D01*
X11430000Y-6400000D02*
X11480000Y-6350000D01*
X11430000Y-6300000D01*
X11380000Y-6350000D01*
X11430000Y-6400000D01*
X11684000Y-6400000D02*
X11734000Y-6350000D01*
X11684000Y-6300000D01*
X11634000Y-6350000D01*
X11684000Y-6400000D01*
X11176000Y-5257000D02*
X11226000Y-5207000D01*
X11176000Y-5157000D01*
X11126000Y-5207000D01*
X11176000Y-5257000D01*
X11430000Y-5257000D02*
X11480000Y-5207000D01*
X11430000Y-5157000D01*
X11380000Y-5207000D01*
X11430000Y-5257000D01*
X11684000Y-5257000D02*
X11734000Y-5207000D01*
X11684000Y-5157000D01*
X11634000Y-5207000D01*
X11684000Y-5257000D01*
X11176000Y-7543000D02*
X11226000Y-7493000D01*
X11176000Y-7443000D01*
X11126000Y-7493000D01*
X11176000Y-7543000D01*
X11430000Y-7543000D02*
X11480000Y-7493000D01*
X11430000Y-7443000D01*
X11380000Y-7493000D01*
X11430000Y-7543000D01*
X11684000Y-7543000D02*
X11734000Y-7493000D01*
X11684000Y-7443000D01*
X11634000Y-7493000D01*
X11684000Y-7543000D01*
X14732000Y-5193500D02*
X14782000Y-5143500D01*
X14732000Y-5093500D01*
X14682000Y-5143500D01*
X14732000Y-5193500D01*
X14986000Y-5193500D02*
X15036000Y-5143500D01*
X14986000Y-5093500D01*
X14936000Y-5143500D01*
X14986000Y-5193500D01*
X15240000Y-5193500D02*
X15290000Y-5143500D01*
X15240000Y-5093500D01*
X15190000Y-5143500D01*
X15240000Y-5193500D01*
X14732000Y-6336500D02*
X14782000Y-6286500D01*
X14732000Y-6236500D01*
X14682000Y-6286500D01*
X14732000Y-6336500D01*
X14986000Y-6336500D02*
X15036000Y-6286500D01*
X14986000Y-6236500D01*
X14936000Y-6286500D01*
X14986000Y-6336500D01*
X15240000Y-6336500D02*
X15290000Y-6286500D01*
X15240000Y-6236500D01*
X15190000Y-6286500D01*
X15240000Y-6336500D01*
X14732000Y-7479500D02*
X14782000Y-7429500D01*
X14732000Y-7379500D01*
X14682000Y-7429500D01*
X14732000Y-7479500D01*
X14986000Y-7479500D02*
X15036000Y-7429500D01*
X14986000Y-7379500D01*
X14936000Y-7429500D01*
X14986000Y-7479500D01*
X15240000Y-7479500D02*
X15290000Y-7429500D01*
X15240000Y-7379500D01*
X15190000Y-7429500D01*
X15240000Y-7479500D01*
X10084000Y-3480000D02*
X10236000Y-3632000D01*
X10236000Y-3480000D02*
X10084000Y-3632000D01*
X10236000Y-3556000D02*
G75*
G03X10236000Y-3556000I-76000J0D01*
G01*
X10084000Y-3988000D02*
X10236000Y-4140000D01*
X10236000Y-3988000D02*
X10084000Y-4140000D01*
X10236000Y-4064000D02*
G75*
G03X10236000Y-4064000I-76000J0D01*
G01*
X10084000Y-4623000D02*
X10236000Y-4775000D01*
X10236000Y-4623000D02*
X10084000Y-4775000D01*
X10236000Y-4699000D02*
G75*
G03X10236000Y-4699000I-76000J0D01*
G01*
X10084000Y-5131000D02*
X10236000Y-5283000D01*
X10236000Y-5131000D02*
X10084000Y-5283000D01*
X10236000Y-5207000D02*
G75*
G03X10236000Y-5207000I-76000J0D01*
G01*
X10084000Y-5766000D02*
X10236000Y-5918000D01*
X10236000Y-5766000D02*
X10084000Y-5918000D01*
X10236000Y-5842000D02*
G75*
G03X10236000Y-5842000I-76000J0D01*
G01*
X10084000Y-6274000D02*
X10236000Y-6426000D01*
X10236000Y-6274000D02*
X10084000Y-6426000D01*
X10236000Y-6350000D02*
G75*
G03X10236000Y-6350000I-76000J0D01*
G01*
X10084000Y-6909000D02*
X10236000Y-7061000D01*
X10236000Y-6909000D02*
X10084000Y-7061000D01*
X10236000Y-6985000D02*
G75*
G03X10236000Y-6985000I-76000J0D01*
G01*
X10084000Y-7417000D02*
X10236000Y-7569000D01*
X10236000Y-7417000D02*
X10084000Y-7569000D01*
X10236000Y-7493000D02*
G75*
G03X10236000Y-7493000I-76000J0D01*
G01*
X16180000Y-3480000D02*
X16332000Y-3632000D01*
X16332000Y-3480000D02*
X16180000Y-3632000D01*
X16332000Y-3556000D02*
G75*
G03X16332000Y-3556000I-76000J0D01*
G01*
X16180000Y-3988000D02*
X16332000Y-4140000D01*
X16332000Y-3988000D02*
X16180000Y-4140000D01*
X16332000Y-4064000D02*
G75*
G03X16332000Y-4064000I-76000J0D01*
G01*
X16180000Y-4623000D02*
X16332000Y-4775000D01*
X16332000Y-4623000D02*
X16180000Y-4775000D01*
X16332000Y-4699000D02*
G75*
G03X16332000Y-4699000I-76000J0D01*
G01*
X16180000Y-5131000D02*
X16332000Y-5283000D01*
X16332000Y-5131000D02*
X16180000Y-5283000D01*
X16332000Y-5207000D02*
G75*
G03X16332000Y-5207000I-76000J0D01*
G01*
X16180000Y-5766000D02*
X16332000Y-5918000D01*
X16332000Y-5766000D02*
X16180000Y-5918000D01*
X16332000Y-5842000D02*
G75*
G03X16332000Y-5842000I-76000J0D01*
G01*
X16180000Y-6274000D02*
X16332000Y-6426000D01*
X16332000Y-6274000D02*
X16180000Y-6426000D01*
X16332000Y-6350000D02*
G75*
G03X16332000Y-6350000I-76000J0D01*
G01*
X16180000Y-6909000D02*
X16332000Y-7061000D01*
X16332000Y-6909000D02*
X16180000Y-7061000D01*
X16332000Y-6985000D02*
G75*
G03X16332000Y-6985000I-76000J0D01*
G01*
X16180000Y-7417000D02*
X16332000Y-7569000D01*
X16332000Y-7417000D02*
X16180000Y-7569000D01*
X16332000Y-7493000D02*
G75*
G03X16332000Y-7493000I-76000J0D01*
G01*
X12878000Y-3543500D02*
X13030000Y-3695500D01*
X13030000Y-3543500D02*
X12878000Y-3695500D01*
X13030000Y-3619500D02*
G75*
G03X13030000Y-3619500I-76000J0D01*
G01*
X13386000Y-3543500D02*
X13538000Y-3695500D01*
X13538000Y-3543500D02*
X13386000Y-3695500D01*
X13538000Y-3619500D02*
G75*
G03X13538000Y-3619500I-76000J0D01*
G01*
D12*
X9168928Y-9109214D02*
X9168928Y-8809214D01*
X9240357Y-8809214D01*
X9283214Y-8823500D01*
X9311786Y-8852072D01*
X9326071Y-8880643D01*
X9340357Y-8937786D01*
X9340357Y-8980643D01*
X9326071Y-9037786D01*
X9311786Y-9066357D01*
X9283214Y-9094929D01*
X9240357Y-9109214D01*
X9168928Y-9109214D01*
X9468928Y-9109214D02*
X9468928Y-8909214D01*
X9468928Y-8966357D02*
X9483214Y-8937786D01*
X9497500Y-8923500D01*
X9526071Y-8909214D01*
X9554643Y-8909214D01*
X9654643Y-9109214D02*
X9654643Y-8909214D01*
X9654643Y-8809214D02*
X9640357Y-8823500D01*
X9654643Y-8837786D01*
X9668928Y-8823500D01*
X9654643Y-8809214D01*
X9654643Y-8837786D01*
X9840357Y-9109214D02*
X9811786Y-9094929D01*
X9797500Y-9066357D01*
X9797500Y-8809214D01*
X9997500Y-9109214D02*
X9968928Y-9094929D01*
X9954643Y-9066357D01*
X9954643Y-8809214D01*
X10340357Y-9109214D02*
X10340357Y-8809214D01*
X10440357Y-9023500D01*
X10540357Y-8809214D01*
X10540357Y-9109214D01*
X10811786Y-9109214D02*
X10811786Y-8952072D01*
X10797500Y-8923500D01*
X10768928Y-8909214D01*
X10711786Y-8909214D01*
X10683214Y-8923500D01*
X10811786Y-9094929D02*
X10783214Y-9109214D01*
X10711786Y-9109214D01*
X10683214Y-9094929D01*
X10668928Y-9066357D01*
X10668928Y-9037786D01*
X10683214Y-9009214D01*
X10711786Y-8994929D01*
X10783214Y-8994929D01*
X10811786Y-8980643D01*
X10954643Y-8909214D02*
X10954643Y-9209214D01*
X10954643Y-8923500D02*
X10983214Y-8909214D01*
X11040357Y-8909214D01*
X11068928Y-8923500D01*
X11083214Y-8937786D01*
X11097500Y-8966357D01*
X11097500Y-9052072D01*
X11083214Y-9080643D01*
X11068928Y-9094929D01*
X11040357Y-9109214D01*
X10983214Y-9109214D01*
X10954643Y-9094929D01*
X11226071Y-9080643D02*
X11240357Y-9094929D01*
X11226071Y-9109214D01*
X11211786Y-9094929D01*
X11226071Y-9080643D01*
X11226071Y-9109214D01*
X11226071Y-8923500D02*
X11240357Y-8937786D01*
X11226071Y-8952072D01*
X11211786Y-8937786D01*
X11226071Y-8923500D01*
X11226071Y-8952072D01*
X8822500Y-9573500D02*
X8882500Y-9633500D01*
X8882500Y-9573500D02*
X8822500Y-9633500D01*
X9226071Y-9439214D02*
X9254643Y-9439214D01*
X9283214Y-9453500D01*
X9297500Y-9467786D01*
X9311786Y-9496357D01*
X9326071Y-9553500D01*
X9326071Y-9624929D01*
X9311786Y-9682072D01*
X9297500Y-9710643D01*
X9283214Y-9724929D01*
X9254643Y-9739214D01*
X9226071Y-9739214D01*
X9197500Y-9724929D01*
X9183214Y-9710643D01*
X9168928Y-9682072D01*
X9154643Y-9624929D01*
X9154643Y-9553500D01*
X9168928Y-9496357D01*
X9183214Y-9467786D01*
X9197500Y-9453500D01*
X9226071Y-9439214D01*
X9454643Y-9710643D02*
X9468928Y-9724929D01*
X9454643Y-9739214D01*
X9440357Y-9724929D01*
X9454643Y-9710643D01*
X9454643Y-9739214D01*
X9726071Y-9439214D02*
X9668928Y-9439214D01*
X9640357Y-9453500D01*
X9626071Y-9467786D01*
X9597500Y-9510643D01*
X9583214Y-9567786D01*
X9583214Y-9682072D01*
X9597500Y-9710643D01*
X9611786Y-9724929D01*
X9640357Y-9739214D01*
X9697500Y-9739214D01*
X9726071Y-9724929D01*
X9740357Y-9710643D01*
X9754643Y-9682072D01*
X9754643Y-9610643D01*
X9740357Y-9582072D01*
X9726071Y-9567786D01*
X9697500Y-9553500D01*
X9640357Y-9553500D01*
X9611786Y-9567786D01*
X9597500Y-9582072D01*
X9583214Y-9610643D01*
X9940357Y-9439214D02*
X9968928Y-9439214D01*
X9997500Y-9453500D01*
X10011786Y-9467786D01*
X10026071Y-9496357D01*
X10040357Y-9553500D01*
X10040357Y-9624929D01*
X10026071Y-9682072D01*
X10011786Y-9710643D01*
X9997500Y-9724929D01*
X9968928Y-9739214D01*
X9940357Y-9739214D01*
X9911786Y-9724929D01*
X9897500Y-9710643D01*
X9883214Y-9682072D01*
X9868928Y-9624929D01*
X9868928Y-9553500D01*
X9883214Y-9496357D01*
X9897500Y-9467786D01*
X9911786Y-9453500D01*
X9940357Y-9439214D01*
X10168928Y-9739214D02*
X10168928Y-9539214D01*
X10168928Y-9567786D02*
X10183214Y-9553500D01*
X10211786Y-9539214D01*
X10254643Y-9539214D01*
X10283214Y-9553500D01*
X10297500Y-9582072D01*
X10297500Y-9739214D01*
X10297500Y-9582072D02*
X10311786Y-9553500D01*
X10340357Y-9539214D01*
X10383214Y-9539214D01*
X10411786Y-9553500D01*
X10426071Y-9582072D01*
X10426071Y-9739214D01*
X10568928Y-9739214D02*
X10568928Y-9539214D01*
X10568928Y-9567786D02*
X10583214Y-9553500D01*
X10611786Y-9539214D01*
X10654643Y-9539214D01*
X10683214Y-9553500D01*
X10697500Y-9582072D01*
X10697500Y-9739214D01*
X10697500Y-9582072D02*
X10711786Y-9553500D01*
X10740357Y-9539214D01*
X10783214Y-9539214D01*
X10811786Y-9553500D01*
X10826071Y-9582072D01*
X10826071Y-9739214D01*
X11411786Y-9424929D02*
X11154643Y-9810643D01*
X11797500Y-9439214D02*
X11826071Y-9439214D01*
X11854643Y-9453500D01*
X11868928Y-9467786D01*
X11883214Y-9496357D01*
X11897500Y-9553500D01*
X11897500Y-9624929D01*
X11883214Y-9682072D01*
X11868928Y-9710643D01*
X11854643Y-9724929D01*
X11826071Y-9739214D01*
X11797500Y-9739214D01*
X11768928Y-9724929D01*
X11754643Y-9710643D01*
X11740357Y-9682072D01*
X11726071Y-9624929D01*
X11726071Y-9553500D01*
X11740357Y-9496357D01*
X11754643Y-9467786D01*
X11768928Y-9453500D01*
X11797500Y-9439214D01*
X12026071Y-9710643D02*
X12040357Y-9724929D01*
X12026071Y-9739214D01*
X12011786Y-9724929D01*
X12026071Y-9710643D01*
X12026071Y-9739214D01*
X12226071Y-9439214D02*
X12254643Y-9439214D01*
X12283214Y-9453500D01*
X12297500Y-9467786D01*
X12311786Y-9496357D01*
X12326071Y-9553500D01*
X12326071Y-9624929D01*
X12311786Y-9682072D01*
X12297500Y-9710643D01*
X12283214Y-9724929D01*
X12254643Y-9739214D01*
X12226071Y-9739214D01*
X12197500Y-9724929D01*
X12183214Y-9710643D01*
X12168928Y-9682072D01*
X12154643Y-9624929D01*
X12154643Y-9553500D01*
X12168928Y-9496357D01*
X12183214Y-9467786D01*
X12197500Y-9453500D01*
X12226071Y-9439214D01*
X12440357Y-9467786D02*
X12454643Y-9453500D01*
X12483214Y-9439214D01*
X12554643Y-9439214D01*
X12583214Y-9453500D01*
X12597500Y-9467786D01*
X12611786Y-9496357D01*
X12611786Y-9524929D01*
X12597500Y-9567786D01*
X12426071Y-9739214D01*
X12611786Y-9739214D01*
X12868928Y-9539214D02*
X12868928Y-9739214D01*
X12797500Y-9424929D02*
X12726071Y-9639214D01*
X12911786Y-9639214D01*
X13011786Y-9439214D02*
X13011786Y-9496357D01*
X13126071Y-9439214D02*
X13126071Y-9496357D01*
X13568928Y-9853500D02*
X13554643Y-9839214D01*
X13526071Y-9796357D01*
X13511786Y-9767786D01*
X13497500Y-9724929D01*
X13483214Y-9653500D01*
X13483214Y-9596357D01*
X13497500Y-9524929D01*
X13511786Y-9482072D01*
X13526071Y-9453500D01*
X13554643Y-9410643D01*
X13568928Y-9396357D01*
X13811786Y-9539214D02*
X13811786Y-9739214D01*
X13740357Y-9424929D02*
X13668928Y-9639214D01*
X13854643Y-9639214D01*
X14011786Y-9567786D02*
X13983214Y-9553500D01*
X13968928Y-9539214D01*
X13954643Y-9510643D01*
X13954643Y-9496357D01*
X13968928Y-9467786D01*
X13983214Y-9453500D01*
X14011786Y-9439214D01*
X14068928Y-9439214D01*
X14097500Y-9453500D01*
X14111786Y-9467786D01*
X14126071Y-9496357D01*
X14126071Y-9510643D01*
X14111786Y-9539214D01*
X14097500Y-9553500D01*
X14068928Y-9567786D01*
X14011786Y-9567786D01*
X13983214Y-9582072D01*
X13968928Y-9596357D01*
X13954643Y-9624929D01*
X13954643Y-9682072D01*
X13968928Y-9710643D01*
X13983214Y-9724929D01*
X14011786Y-9739214D01*
X14068928Y-9739214D01*
X14097500Y-9724929D01*
X14111786Y-9710643D01*
X14126071Y-9682072D01*
X14126071Y-9624929D01*
X14111786Y-9596357D01*
X14097500Y-9582072D01*
X14068928Y-9567786D01*
X14483214Y-9739214D02*
X14483214Y-9439214D01*
X14611786Y-9739214D02*
X14611786Y-9582072D01*
X14597500Y-9553500D01*
X14568928Y-9539214D01*
X14526071Y-9539214D01*
X14497500Y-9553500D01*
X14483214Y-9567786D01*
X14797500Y-9739214D02*
X14768928Y-9724929D01*
X14754643Y-9710643D01*
X14740357Y-9682072D01*
X14740357Y-9596357D01*
X14754643Y-9567786D01*
X14768928Y-9553500D01*
X14797500Y-9539214D01*
X14840357Y-9539214D01*
X14868928Y-9553500D01*
X14883214Y-9567786D01*
X14897500Y-9596357D01*
X14897500Y-9682072D01*
X14883214Y-9710643D01*
X14868928Y-9724929D01*
X14840357Y-9739214D01*
X14797500Y-9739214D01*
X15068928Y-9739214D02*
X15040357Y-9724929D01*
X15026071Y-9696357D01*
X15026071Y-9439214D01*
X15297500Y-9724929D02*
X15268928Y-9739214D01*
X15211786Y-9739214D01*
X15183214Y-9724929D01*
X15168928Y-9696357D01*
X15168928Y-9582072D01*
X15183214Y-9553500D01*
X15211786Y-9539214D01*
X15268928Y-9539214D01*
X15297500Y-9553500D01*
X15311786Y-9582072D01*
X15311786Y-9610643D01*
X15168928Y-9639214D01*
X15426071Y-9724929D02*
X15454643Y-9739214D01*
X15511786Y-9739214D01*
X15540357Y-9724929D01*
X15554643Y-9696357D01*
X15554643Y-9682072D01*
X15540357Y-9653500D01*
X15511786Y-9639214D01*
X15468928Y-9639214D01*
X15440357Y-9624929D01*
X15426071Y-9596357D01*
X15426071Y-9582072D01*
X15440357Y-9553500D01*
X15468928Y-9539214D01*
X15511786Y-9539214D01*
X15540357Y-9553500D01*
X15654643Y-9853500D02*
X15668928Y-9839214D01*
X15697500Y-9796357D01*
X15711786Y-9767786D01*
X15726071Y-9724929D01*
X15740357Y-9653500D01*
X15740357Y-9596357D01*
X15726071Y-9524929D01*
X15711786Y-9482072D01*
X15697500Y-9453500D01*
X15668928Y-9410643D01*
X15654643Y-9396357D01*
X8882500Y-9999500D02*
G75*
G03X8882500Y-9999500I-35000J0D01*
G01*
X9226071Y-9835214D02*
X9254643Y-9835214D01*
X9283214Y-9849500D01*
X9297500Y-9863786D01*
X9311786Y-9892357D01*
X9326071Y-9949500D01*
X9326071Y-10020929D01*
X9311786Y-10078072D01*
X9297500Y-10106643D01*
X9283214Y-10120929D01*
X9254643Y-10135214D01*
X9226071Y-10135214D01*
X9197500Y-10120929D01*
X9183214Y-10106643D01*
X9168928Y-10078072D01*
X9154643Y-10020929D01*
X9154643Y-9949500D01*
X9168928Y-9892357D01*
X9183214Y-9863786D01*
X9197500Y-9849500D01*
X9226071Y-9835214D01*
X9454643Y-10106643D02*
X9468928Y-10120929D01*
X9454643Y-10135214D01*
X9440357Y-10120929D01*
X9454643Y-10106643D01*
X9454643Y-10135214D01*
X9568928Y-9835214D02*
X9768928Y-9835214D01*
X9640357Y-10135214D01*
X9940357Y-9835214D02*
X9968928Y-9835214D01*
X9997500Y-9849500D01*
X10011786Y-9863786D01*
X10026071Y-9892357D01*
X10040357Y-9949500D01*
X10040357Y-10020929D01*
X10026071Y-10078072D01*
X10011786Y-10106643D01*
X9997500Y-10120929D01*
X9968928Y-10135214D01*
X9940357Y-10135214D01*
X9911786Y-10120929D01*
X9897500Y-10106643D01*
X9883214Y-10078072D01*
X9868928Y-10020929D01*
X9868928Y-9949500D01*
X9883214Y-9892357D01*
X9897500Y-9863786D01*
X9911786Y-9849500D01*
X9940357Y-9835214D01*
X10168928Y-10135214D02*
X10168928Y-9935214D01*
X10168928Y-9963786D02*
X10183214Y-9949500D01*
X10211786Y-9935214D01*
X10254643Y-9935214D01*
X10283214Y-9949500D01*
X10297500Y-9978072D01*
X10297500Y-10135214D01*
X10297500Y-9978072D02*
X10311786Y-9949500D01*
X10340357Y-9935214D01*
X10383214Y-9935214D01*
X10411786Y-9949500D01*
X10426071Y-9978072D01*
X10426071Y-10135214D01*
X10568928Y-10135214D02*
X10568928Y-9935214D01*
X10568928Y-9963786D02*
X10583214Y-9949500D01*
X10611786Y-9935214D01*
X10654643Y-9935214D01*
X10683214Y-9949500D01*
X10697500Y-9978072D01*
X10697500Y-10135214D01*
X10697500Y-9978072D02*
X10711786Y-9949500D01*
X10740357Y-9935214D01*
X10783214Y-9935214D01*
X10811786Y-9949500D01*
X10826071Y-9978072D01*
X10826071Y-10135214D01*
X11411786Y-9820929D02*
X11154643Y-10206643D01*
X11797500Y-9835214D02*
X11826071Y-9835214D01*
X11854643Y-9849500D01*
X11868928Y-9863786D01*
X11883214Y-9892357D01*
X11897500Y-9949500D01*
X11897500Y-10020929D01*
X11883214Y-10078072D01*
X11868928Y-10106643D01*
X11854643Y-10120929D01*
X11826071Y-10135214D01*
X11797500Y-10135214D01*
X11768928Y-10120929D01*
X11754643Y-10106643D01*
X11740357Y-10078072D01*
X11726071Y-10020929D01*
X11726071Y-9949500D01*
X11740357Y-9892357D01*
X11754643Y-9863786D01*
X11768928Y-9849500D01*
X11797500Y-9835214D01*
X12026071Y-10106643D02*
X12040357Y-10120929D01*
X12026071Y-10135214D01*
X12011786Y-10120929D01*
X12026071Y-10106643D01*
X12026071Y-10135214D01*
X12226071Y-9835214D02*
X12254643Y-9835214D01*
X12283214Y-9849500D01*
X12297500Y-9863786D01*
X12311786Y-9892357D01*
X12326071Y-9949500D01*
X12326071Y-10020929D01*
X12311786Y-10078072D01*
X12297500Y-10106643D01*
X12283214Y-10120929D01*
X12254643Y-10135214D01*
X12226071Y-10135214D01*
X12197500Y-10120929D01*
X12183214Y-10106643D01*
X12168928Y-10078072D01*
X12154643Y-10020929D01*
X12154643Y-9949500D01*
X12168928Y-9892357D01*
X12183214Y-9863786D01*
X12197500Y-9849500D01*
X12226071Y-9835214D01*
X12440357Y-9863786D02*
X12454643Y-9849500D01*
X12483214Y-9835214D01*
X12554643Y-9835214D01*
X12583214Y-9849500D01*
X12597500Y-9863786D01*
X12611786Y-9892357D01*
X12611786Y-9920929D01*
X12597500Y-9963786D01*
X12426071Y-10135214D01*
X12611786Y-10135214D01*
X12783214Y-9963786D02*
X12754643Y-9949500D01*
X12740357Y-9935214D01*
X12726071Y-9906643D01*
X12726071Y-9892357D01*
X12740357Y-9863786D01*
X12754643Y-9849500D01*
X12783214Y-9835214D01*
X12840357Y-9835214D01*
X12868928Y-9849500D01*
X12883214Y-9863786D01*
X12897500Y-9892357D01*
X12897500Y-9906643D01*
X12883214Y-9935214D01*
X12868928Y-9949500D01*
X12840357Y-9963786D01*
X12783214Y-9963786D01*
X12754643Y-9978072D01*
X12740357Y-9992357D01*
X12726071Y-10020929D01*
X12726071Y-10078072D01*
X12740357Y-10106643D01*
X12754643Y-10120929D01*
X12783214Y-10135214D01*
X12840357Y-10135214D01*
X12868928Y-10120929D01*
X12883214Y-10106643D01*
X12897500Y-10078072D01*
X12897500Y-10020929D01*
X12883214Y-9992357D01*
X12868928Y-9978072D01*
X12840357Y-9963786D01*
X13011786Y-9835214D02*
X13011786Y-9892357D01*
X13126071Y-9835214D02*
X13126071Y-9892357D01*
X13568928Y-10249500D02*
X13554643Y-10235214D01*
X13526071Y-10192357D01*
X13511786Y-10163786D01*
X13497500Y-10120929D01*
X13483214Y-10049500D01*
X13483214Y-9992357D01*
X13497500Y-9920929D01*
X13511786Y-9878072D01*
X13526071Y-9849500D01*
X13554643Y-9806643D01*
X13568928Y-9792357D01*
X13811786Y-9935214D02*
X13811786Y-10135214D01*
X13740357Y-9820929D02*
X13668928Y-10035214D01*
X13854643Y-10035214D01*
X14011786Y-9963786D02*
X13983214Y-9949500D01*
X13968928Y-9935214D01*
X13954643Y-9906643D01*
X13954643Y-9892357D01*
X13968928Y-9863786D01*
X13983214Y-9849500D01*
X14011786Y-9835214D01*
X14068928Y-9835214D01*
X14097500Y-9849500D01*
X14111786Y-9863786D01*
X14126071Y-9892357D01*
X14126071Y-9906643D01*
X14111786Y-9935214D01*
X14097500Y-9949500D01*
X14068928Y-9963786D01*
X14011786Y-9963786D01*
X13983214Y-9978072D01*
X13968928Y-9992357D01*
X13954643Y-10020929D01*
X13954643Y-10078072D01*
X13968928Y-10106643D01*
X13983214Y-10120929D01*
X14011786Y-10135214D01*
X14068928Y-10135214D01*
X14097500Y-10120929D01*
X14111786Y-10106643D01*
X14126071Y-10078072D01*
X14126071Y-10020929D01*
X14111786Y-9992357D01*
X14097500Y-9978072D01*
X14068928Y-9963786D01*
X14483214Y-10135214D02*
X14483214Y-9835214D01*
X14611786Y-10135214D02*
X14611786Y-9978072D01*
X14597500Y-9949500D01*
X14568928Y-9935214D01*
X14526071Y-9935214D01*
X14497500Y-9949500D01*
X14483214Y-9963786D01*
X14797500Y-10135214D02*
X14768928Y-10120929D01*
X14754643Y-10106643D01*
X14740357Y-10078072D01*
X14740357Y-9992357D01*
X14754643Y-9963786D01*
X14768928Y-9949500D01*
X14797500Y-9935214D01*
X14840357Y-9935214D01*
X14868928Y-9949500D01*
X14883214Y-9963786D01*
X14897500Y-9992357D01*
X14897500Y-10078072D01*
X14883214Y-10106643D01*
X14868928Y-10120929D01*
X14840357Y-10135214D01*
X14797500Y-10135214D01*
X15068928Y-10135214D02*
X15040357Y-10120929D01*
X15026071Y-10092357D01*
X15026071Y-9835214D01*
X15297500Y-10120929D02*
X15268928Y-10135214D01*
X15211786Y-10135214D01*
X15183214Y-10120929D01*
X15168928Y-10092357D01*
X15168928Y-9978072D01*
X15183214Y-9949500D01*
X15211786Y-9935214D01*
X15268928Y-9935214D01*
X15297500Y-9949500D01*
X15311786Y-9978072D01*
X15311786Y-10006643D01*
X15168928Y-10035214D01*
X15426071Y-10120929D02*
X15454643Y-10135214D01*
X15511786Y-10135214D01*
X15540357Y-10120929D01*
X15554643Y-10092357D01*
X15554643Y-10078072D01*
X15540357Y-10049500D01*
X15511786Y-10035214D01*
X15468928Y-10035214D01*
X15440357Y-10020929D01*
X15426071Y-9992357D01*
X15426071Y-9978072D01*
X15440357Y-9949500D01*
X15468928Y-9935214D01*
X15511786Y-9935214D01*
X15540357Y-9949500D01*
X15654643Y-10249500D02*
X15668928Y-10235214D01*
X15697500Y-10192357D01*
X15711786Y-10163786D01*
X15726071Y-10120929D01*
X15740357Y-10049500D01*
X15740357Y-9992357D01*
X15726071Y-9920929D01*
X15711786Y-9878072D01*
X15697500Y-9849500D01*
X15668928Y-9806643D01*
X15654643Y-9792357D01*
X8842500Y-10355500D02*
X8842500Y-10435500D01*
X8802500Y-10395500D02*
X8882500Y-10395500D01*
X9226071Y-10231214D02*
X9254643Y-10231214D01*
X9283214Y-10245500D01*
X9297500Y-10259786D01*
X9311786Y-10288357D01*
X9326071Y-10345500D01*
X9326071Y-10416929D01*
X9311786Y-10474072D01*
X9297500Y-10502643D01*
X9283214Y-10516929D01*
X9254643Y-10531214D01*
X9226071Y-10531214D01*
X9197500Y-10516929D01*
X9183214Y-10502643D01*
X9168928Y-10474072D01*
X9154643Y-10416929D01*
X9154643Y-10345500D01*
X9168928Y-10288357D01*
X9183214Y-10259786D01*
X9197500Y-10245500D01*
X9226071Y-10231214D01*
X9454643Y-10502643D02*
X9468928Y-10516929D01*
X9454643Y-10531214D01*
X9440357Y-10516929D01*
X9454643Y-10502643D01*
X9454643Y-10531214D01*
X9640357Y-10359786D02*
X9611786Y-10345500D01*
X9597500Y-10331214D01*
X9583214Y-10302643D01*
X9583214Y-10288357D01*
X9597500Y-10259786D01*
X9611786Y-10245500D01*
X9640357Y-10231214D01*
X9697500Y-10231214D01*
X9726071Y-10245500D01*
X9740357Y-10259786D01*
X9754643Y-10288357D01*
X9754643Y-10302643D01*
X9740357Y-10331214D01*
X9726071Y-10345500D01*
X9697500Y-10359786D01*
X9640357Y-10359786D01*
X9611786Y-10374072D01*
X9597500Y-10388357D01*
X9583214Y-10416929D01*
X9583214Y-10474072D01*
X9597500Y-10502643D01*
X9611786Y-10516929D01*
X9640357Y-10531214D01*
X9697500Y-10531214D01*
X9726071Y-10516929D01*
X9740357Y-10502643D01*
X9754643Y-10474072D01*
X9754643Y-10416929D01*
X9740357Y-10388357D01*
X9726071Y-10374072D01*
X9697500Y-10359786D01*
X9940357Y-10231214D02*
X9968928Y-10231214D01*
X9997500Y-10245500D01*
X10011786Y-10259786D01*
X10026071Y-10288357D01*
X10040357Y-10345500D01*
X10040357Y-10416929D01*
X10026071Y-10474072D01*
X10011786Y-10502643D01*
X9997500Y-10516929D01*
X9968928Y-10531214D01*
X9940357Y-10531214D01*
X9911786Y-10516929D01*
X9897500Y-10502643D01*
X9883214Y-10474072D01*
X9868928Y-10416929D01*
X9868928Y-10345500D01*
X9883214Y-10288357D01*
X9897500Y-10259786D01*
X9911786Y-10245500D01*
X9940357Y-10231214D01*
X10168928Y-10531214D02*
X10168928Y-10331214D01*
X10168928Y-10359786D02*
X10183214Y-10345500D01*
X10211786Y-10331214D01*
X10254643Y-10331214D01*
X10283214Y-10345500D01*
X10297500Y-10374072D01*
X10297500Y-10531214D01*
X10297500Y-10374072D02*
X10311786Y-10345500D01*
X10340357Y-10331214D01*
X10383214Y-10331214D01*
X10411786Y-10345500D01*
X10426071Y-10374072D01*
X10426071Y-10531214D01*
X10568928Y-10531214D02*
X10568928Y-10331214D01*
X10568928Y-10359786D02*
X10583214Y-10345500D01*
X10611786Y-10331214D01*
X10654643Y-10331214D01*
X10683214Y-10345500D01*
X10697500Y-10374072D01*
X10697500Y-10531214D01*
X10697500Y-10374072D02*
X10711786Y-10345500D01*
X10740357Y-10331214D01*
X10783214Y-10331214D01*
X10811786Y-10345500D01*
X10826071Y-10374072D01*
X10826071Y-10531214D01*
X11411786Y-10216929D02*
X11154643Y-10602643D01*
X11797500Y-10231214D02*
X11826071Y-10231214D01*
X11854643Y-10245500D01*
X11868928Y-10259786D01*
X11883214Y-10288357D01*
X11897500Y-10345500D01*
X11897500Y-10416929D01*
X11883214Y-10474072D01*
X11868928Y-10502643D01*
X11854643Y-10516929D01*
X11826071Y-10531214D01*
X11797500Y-10531214D01*
X11768928Y-10516929D01*
X11754643Y-10502643D01*
X11740357Y-10474072D01*
X11726071Y-10416929D01*
X11726071Y-10345500D01*
X11740357Y-10288357D01*
X11754643Y-10259786D01*
X11768928Y-10245500D01*
X11797500Y-10231214D01*
X12026071Y-10502643D02*
X12040357Y-10516929D01*
X12026071Y-10531214D01*
X12011786Y-10516929D01*
X12026071Y-10502643D01*
X12026071Y-10531214D01*
X12226071Y-10231214D02*
X12254643Y-10231214D01*
X12283214Y-10245500D01*
X12297500Y-10259786D01*
X12311786Y-10288357D01*
X12326071Y-10345500D01*
X12326071Y-10416929D01*
X12311786Y-10474072D01*
X12297500Y-10502643D01*
X12283214Y-10516929D01*
X12254643Y-10531214D01*
X12226071Y-10531214D01*
X12197500Y-10516929D01*
X12183214Y-10502643D01*
X12168928Y-10474072D01*
X12154643Y-10416929D01*
X12154643Y-10345500D01*
X12168928Y-10288357D01*
X12183214Y-10259786D01*
X12197500Y-10245500D01*
X12226071Y-10231214D01*
X12426071Y-10231214D02*
X12611786Y-10231214D01*
X12511786Y-10345500D01*
X12554643Y-10345500D01*
X12583214Y-10359786D01*
X12597500Y-10374072D01*
X12611786Y-10402643D01*
X12611786Y-10474072D01*
X12597500Y-10502643D01*
X12583214Y-10516929D01*
X12554643Y-10531214D01*
X12468928Y-10531214D01*
X12440357Y-10516929D01*
X12426071Y-10502643D01*
X12897500Y-10531214D02*
X12726071Y-10531214D01*
X12811786Y-10531214D02*
X12811786Y-10231214D01*
X12783214Y-10274072D01*
X12754643Y-10302643D01*
X12726071Y-10316929D01*
X13011786Y-10231214D02*
X13011786Y-10288357D01*
X13126071Y-10231214D02*
X13126071Y-10288357D01*
X13568928Y-10645500D02*
X13554643Y-10631214D01*
X13526071Y-10588357D01*
X13511786Y-10559786D01*
X13497500Y-10516929D01*
X13483214Y-10445500D01*
X13483214Y-10388357D01*
X13497500Y-10316929D01*
X13511786Y-10274072D01*
X13526071Y-10245500D01*
X13554643Y-10202643D01*
X13568928Y-10188357D01*
X13840357Y-10531214D02*
X13668928Y-10531214D01*
X13754643Y-10531214D02*
X13754643Y-10231214D01*
X13726071Y-10274072D01*
X13697500Y-10302643D01*
X13668928Y-10316929D01*
X14097500Y-10231214D02*
X14040357Y-10231214D01*
X14011786Y-10245500D01*
X13997500Y-10259786D01*
X13968928Y-10302643D01*
X13954643Y-10359786D01*
X13954643Y-10474072D01*
X13968928Y-10502643D01*
X13983214Y-10516929D01*
X14011786Y-10531214D01*
X14068928Y-10531214D01*
X14097500Y-10516929D01*
X14111786Y-10502643D01*
X14126071Y-10474072D01*
X14126071Y-10402643D01*
X14111786Y-10374072D01*
X14097500Y-10359786D01*
X14068928Y-10345500D01*
X14011786Y-10345500D01*
X13983214Y-10359786D01*
X13968928Y-10374072D01*
X13954643Y-10402643D01*
X14483214Y-10531214D02*
X14483214Y-10231214D01*
X14611786Y-10531214D02*
X14611786Y-10374072D01*
X14597500Y-10345500D01*
X14568928Y-10331214D01*
X14526071Y-10331214D01*
X14497500Y-10345500D01*
X14483214Y-10359786D01*
X14797500Y-10531214D02*
X14768928Y-10516929D01*
X14754643Y-10502643D01*
X14740357Y-10474072D01*
X14740357Y-10388357D01*
X14754643Y-10359786D01*
X14768928Y-10345500D01*
X14797500Y-10331214D01*
X14840357Y-10331214D01*
X14868928Y-10345500D01*
X14883214Y-10359786D01*
X14897500Y-10388357D01*
X14897500Y-10474072D01*
X14883214Y-10502643D01*
X14868928Y-10516929D01*
X14840357Y-10531214D01*
X14797500Y-10531214D01*
X15068928Y-10531214D02*
X15040357Y-10516929D01*
X15026071Y-10488357D01*
X15026071Y-10231214D01*
X15297500Y-10516929D02*
X15268928Y-10531214D01*
X15211786Y-10531214D01*
X15183214Y-10516929D01*
X15168928Y-10488357D01*
X15168928Y-10374072D01*
X15183214Y-10345500D01*
X15211786Y-10331214D01*
X15268928Y-10331214D01*
X15297500Y-10345500D01*
X15311786Y-10374072D01*
X15311786Y-10402643D01*
X15168928Y-10431214D01*
X15426071Y-10516929D02*
X15454643Y-10531214D01*
X15511786Y-10531214D01*
X15540357Y-10516929D01*
X15554643Y-10488357D01*
X15554643Y-10474072D01*
X15540357Y-10445500D01*
X15511786Y-10431214D01*
X15468928Y-10431214D01*
X15440357Y-10416929D01*
X15426071Y-10388357D01*
X15426071Y-10374072D01*
X15440357Y-10345500D01*
X15468928Y-10331214D01*
X15511786Y-10331214D01*
X15540357Y-10345500D01*
X15654643Y-10645500D02*
X15668928Y-10631214D01*
X15697500Y-10588357D01*
X15711786Y-10559786D01*
X15726071Y-10516929D01*
X15740357Y-10445500D01*
X15740357Y-10388357D01*
X15726071Y-10316929D01*
X15711786Y-10274072D01*
X15697500Y-10245500D01*
X15668928Y-10202643D01*
X15654643Y-10188357D01*
X8869320Y-10823320D02*
X8869320Y-10759680D01*
X8805680Y-10759680D01*
X8805680Y-10823320D01*
X8869320Y-10823320D01*
X9226071Y-10627214D02*
X9254643Y-10627214D01*
X9283214Y-10641500D01*
X9297500Y-10655786D01*
X9311786Y-10684357D01*
X9326071Y-10741500D01*
X9326071Y-10812929D01*
X9311786Y-10870072D01*
X9297500Y-10898643D01*
X9283214Y-10912929D01*
X9254643Y-10927214D01*
X9226071Y-10927214D01*
X9197500Y-10912929D01*
X9183214Y-10898643D01*
X9168928Y-10870072D01*
X9154643Y-10812929D01*
X9154643Y-10741500D01*
X9168928Y-10684357D01*
X9183214Y-10655786D01*
X9197500Y-10641500D01*
X9226071Y-10627214D01*
X9454643Y-10898643D02*
X9468928Y-10912929D01*
X9454643Y-10927214D01*
X9440357Y-10912929D01*
X9454643Y-10898643D01*
X9454643Y-10927214D01*
X9611786Y-10927214D02*
X9668928Y-10927214D01*
X9697500Y-10912929D01*
X9711786Y-10898643D01*
X9740357Y-10855786D01*
X9754643Y-10798643D01*
X9754643Y-10684357D01*
X9740357Y-10655786D01*
X9726071Y-10641500D01*
X9697500Y-10627214D01*
X9640357Y-10627214D01*
X9611786Y-10641500D01*
X9597500Y-10655786D01*
X9583214Y-10684357D01*
X9583214Y-10755786D01*
X9597500Y-10784357D01*
X9611786Y-10798643D01*
X9640357Y-10812929D01*
X9697500Y-10812929D01*
X9726071Y-10798643D01*
X9740357Y-10784357D01*
X9754643Y-10755786D01*
X9940357Y-10627214D02*
X9968928Y-10627214D01*
X9997500Y-10641500D01*
X10011786Y-10655786D01*
X10026071Y-10684357D01*
X10040357Y-10741500D01*
X10040357Y-10812929D01*
X10026071Y-10870072D01*
X10011786Y-10898643D01*
X9997500Y-10912929D01*
X9968928Y-10927214D01*
X9940357Y-10927214D01*
X9911786Y-10912929D01*
X9897500Y-10898643D01*
X9883214Y-10870072D01*
X9868928Y-10812929D01*
X9868928Y-10741500D01*
X9883214Y-10684357D01*
X9897500Y-10655786D01*
X9911786Y-10641500D01*
X9940357Y-10627214D01*
X10168928Y-10927214D02*
X10168928Y-10727214D01*
X10168928Y-10755786D02*
X10183214Y-10741500D01*
X10211786Y-10727214D01*
X10254643Y-10727214D01*
X10283214Y-10741500D01*
X10297500Y-10770072D01*
X10297500Y-10927214D01*
X10297500Y-10770072D02*
X10311786Y-10741500D01*
X10340357Y-10727214D01*
X10383214Y-10727214D01*
X10411786Y-10741500D01*
X10426071Y-10770072D01*
X10426071Y-10927214D01*
X10568928Y-10927214D02*
X10568928Y-10727214D01*
X10568928Y-10755786D02*
X10583214Y-10741500D01*
X10611786Y-10727214D01*
X10654643Y-10727214D01*
X10683214Y-10741500D01*
X10697500Y-10770072D01*
X10697500Y-10927214D01*
X10697500Y-10770072D02*
X10711786Y-10741500D01*
X10740357Y-10727214D01*
X10783214Y-10727214D01*
X10811786Y-10741500D01*
X10826071Y-10770072D01*
X10826071Y-10927214D01*
X11411786Y-10612929D02*
X11154643Y-10998643D01*
X11797500Y-10627214D02*
X11826071Y-10627214D01*
X11854643Y-10641500D01*
X11868928Y-10655786D01*
X11883214Y-10684357D01*
X11897500Y-10741500D01*
X11897500Y-10812929D01*
X11883214Y-10870072D01*
X11868928Y-10898643D01*
X11854643Y-10912929D01*
X11826071Y-10927214D01*
X11797500Y-10927214D01*
X11768928Y-10912929D01*
X11754643Y-10898643D01*
X11740357Y-10870072D01*
X11726071Y-10812929D01*
X11726071Y-10741500D01*
X11740357Y-10684357D01*
X11754643Y-10655786D01*
X11768928Y-10641500D01*
X11797500Y-10627214D01*
X12026071Y-10898643D02*
X12040357Y-10912929D01*
X12026071Y-10927214D01*
X12011786Y-10912929D01*
X12026071Y-10898643D01*
X12026071Y-10927214D01*
X12226071Y-10627214D02*
X12254643Y-10627214D01*
X12283214Y-10641500D01*
X12297500Y-10655786D01*
X12311786Y-10684357D01*
X12326071Y-10741500D01*
X12326071Y-10812929D01*
X12311786Y-10870072D01*
X12297500Y-10898643D01*
X12283214Y-10912929D01*
X12254643Y-10927214D01*
X12226071Y-10927214D01*
X12197500Y-10912929D01*
X12183214Y-10898643D01*
X12168928Y-10870072D01*
X12154643Y-10812929D01*
X12154643Y-10741500D01*
X12168928Y-10684357D01*
X12183214Y-10655786D01*
X12197500Y-10641500D01*
X12226071Y-10627214D01*
X12426071Y-10627214D02*
X12611786Y-10627214D01*
X12511786Y-10741500D01*
X12554643Y-10741500D01*
X12583214Y-10755786D01*
X12597500Y-10770072D01*
X12611786Y-10798643D01*
X12611786Y-10870072D01*
X12597500Y-10898643D01*
X12583214Y-10912929D01*
X12554643Y-10927214D01*
X12468928Y-10927214D01*
X12440357Y-10912929D01*
X12426071Y-10898643D01*
X12883214Y-10627214D02*
X12740357Y-10627214D01*
X12726071Y-10770072D01*
X12740357Y-10755786D01*
X12768928Y-10741500D01*
X12840357Y-10741500D01*
X12868928Y-10755786D01*
X12883214Y-10770072D01*
X12897500Y-10798643D01*
X12897500Y-10870072D01*
X12883214Y-10898643D01*
X12868928Y-10912929D01*
X12840357Y-10927214D01*
X12768928Y-10927214D01*
X12740357Y-10912929D01*
X12726071Y-10898643D01*
X13011786Y-10627214D02*
X13011786Y-10684357D01*
X13126071Y-10627214D02*
X13126071Y-10684357D01*
X13568928Y-11041500D02*
X13554643Y-11027214D01*
X13526071Y-10984357D01*
X13511786Y-10955786D01*
X13497500Y-10912929D01*
X13483214Y-10841500D01*
X13483214Y-10784357D01*
X13497500Y-10712929D01*
X13511786Y-10670072D01*
X13526071Y-10641500D01*
X13554643Y-10598643D01*
X13568928Y-10584357D01*
X13840357Y-10927214D02*
X13668928Y-10927214D01*
X13754643Y-10927214D02*
X13754643Y-10627214D01*
X13726071Y-10670072D01*
X13697500Y-10698643D01*
X13668928Y-10712929D01*
X14097500Y-10627214D02*
X14040357Y-10627214D01*
X14011786Y-10641500D01*
X13997500Y-10655786D01*
X13968928Y-10698643D01*
X13954643Y-10755786D01*
X13954643Y-10870072D01*
X13968928Y-10898643D01*
X13983214Y-10912929D01*
X14011786Y-10927214D01*
X14068928Y-10927214D01*
X14097500Y-10912929D01*
X14111786Y-10898643D01*
X14126071Y-10870072D01*
X14126071Y-10798643D01*
X14111786Y-10770072D01*
X14097500Y-10755786D01*
X14068928Y-10741500D01*
X14011786Y-10741500D01*
X13983214Y-10755786D01*
X13968928Y-10770072D01*
X13954643Y-10798643D01*
X14483214Y-10927214D02*
X14483214Y-10627214D01*
X14611786Y-10927214D02*
X14611786Y-10770072D01*
X14597500Y-10741500D01*
X14568928Y-10727214D01*
X14526071Y-10727214D01*
X14497500Y-10741500D01*
X14483214Y-10755786D01*
X14797500Y-10927214D02*
X14768928Y-10912929D01*
X14754643Y-10898643D01*
X14740357Y-10870072D01*
X14740357Y-10784357D01*
X14754643Y-10755786D01*
X14768928Y-10741500D01*
X14797500Y-10727214D01*
X14840357Y-10727214D01*
X14868928Y-10741500D01*
X14883214Y-10755786D01*
X14897500Y-10784357D01*
X14897500Y-10870072D01*
X14883214Y-10898643D01*
X14868928Y-10912929D01*
X14840357Y-10927214D01*
X14797500Y-10927214D01*
X15068928Y-10927214D02*
X15040357Y-10912929D01*
X15026071Y-10884357D01*
X15026071Y-10627214D01*
X15297500Y-10912929D02*
X15268928Y-10927214D01*
X15211786Y-10927214D01*
X15183214Y-10912929D01*
X15168928Y-10884357D01*
X15168928Y-10770072D01*
X15183214Y-10741500D01*
X15211786Y-10727214D01*
X15268928Y-10727214D01*
X15297500Y-10741500D01*
X15311786Y-10770072D01*
X15311786Y-10798643D01*
X15168928Y-10827214D01*
X15426071Y-10912929D02*
X15454643Y-10927214D01*
X15511786Y-10927214D01*
X15540357Y-10912929D01*
X15554643Y-10884357D01*
X15554643Y-10870072D01*
X15540357Y-10841500D01*
X15511786Y-10827214D01*
X15468928Y-10827214D01*
X15440357Y-10812929D01*
X15426071Y-10784357D01*
X15426071Y-10770072D01*
X15440357Y-10741500D01*
X15468928Y-10727214D01*
X15511786Y-10727214D01*
X15540357Y-10741500D01*
X15654643Y-11041500D02*
X15668928Y-11027214D01*
X15697500Y-10984357D01*
X15711786Y-10955786D01*
X15726071Y-10912929D01*
X15740357Y-10841500D01*
X15740357Y-10784357D01*
X15726071Y-10712929D01*
X15711786Y-10670072D01*
X15697500Y-10641500D01*
X15668928Y-10598643D01*
X15654643Y-10584357D01*
X8832500Y-11237500D02*
X8882500Y-11187500D01*
X8832500Y-11137500D01*
X8782500Y-11187500D01*
X8832500Y-11237500D01*
X9326071Y-11323214D02*
X9154643Y-11323214D01*
X9240357Y-11323214D02*
X9240357Y-11023214D01*
X9211786Y-11066072D01*
X9183214Y-11094643D01*
X9154643Y-11108929D01*
X9454643Y-11294643D02*
X9468928Y-11308929D01*
X9454643Y-11323214D01*
X9440357Y-11308929D01*
X9454643Y-11294643D01*
X9454643Y-11323214D01*
X9654643Y-11023214D02*
X9683214Y-11023214D01*
X9711786Y-11037500D01*
X9726071Y-11051786D01*
X9740357Y-11080357D01*
X9754643Y-11137500D01*
X9754643Y-11208929D01*
X9740357Y-11266071D01*
X9726071Y-11294643D01*
X9711786Y-11308929D01*
X9683214Y-11323214D01*
X9654643Y-11323214D01*
X9626071Y-11308929D01*
X9611786Y-11294643D01*
X9597500Y-11266071D01*
X9583214Y-11208929D01*
X9583214Y-11137500D01*
X9597500Y-11080357D01*
X9611786Y-11051786D01*
X9626071Y-11037500D01*
X9654643Y-11023214D01*
X9940357Y-11023214D02*
X9968928Y-11023214D01*
X9997500Y-11037500D01*
X10011786Y-11051786D01*
X10026071Y-11080357D01*
X10040357Y-11137500D01*
X10040357Y-11208929D01*
X10026071Y-11266071D01*
X10011786Y-11294643D01*
X9997500Y-11308929D01*
X9968928Y-11323214D01*
X9940357Y-11323214D01*
X9911786Y-11308929D01*
X9897500Y-11294643D01*
X9883214Y-11266071D01*
X9868928Y-11208929D01*
X9868928Y-11137500D01*
X9883214Y-11080357D01*
X9897500Y-11051786D01*
X9911786Y-11037500D01*
X9940357Y-11023214D01*
X10168928Y-11323214D02*
X10168928Y-11123214D01*
X10168928Y-11151786D02*
X10183214Y-11137500D01*
X10211786Y-11123214D01*
X10254643Y-11123214D01*
X10283214Y-11137500D01*
X10297500Y-11166072D01*
X10297500Y-11323214D01*
X10297500Y-11166072D02*
X10311786Y-11137500D01*
X10340357Y-11123214D01*
X10383214Y-11123214D01*
X10411786Y-11137500D01*
X10426071Y-11166072D01*
X10426071Y-11323214D01*
X10568928Y-11323214D02*
X10568928Y-11123214D01*
X10568928Y-11151786D02*
X10583214Y-11137500D01*
X10611786Y-11123214D01*
X10654643Y-11123214D01*
X10683214Y-11137500D01*
X10697500Y-11166072D01*
X10697500Y-11323214D01*
X10697500Y-11166072D02*
X10711786Y-11137500D01*
X10740357Y-11123214D01*
X10783214Y-11123214D01*
X10811786Y-11137500D01*
X10826071Y-11166072D01*
X10826071Y-11323214D01*
X11411786Y-11008929D02*
X11154643Y-11394643D01*
X11797500Y-11023214D02*
X11826071Y-11023214D01*
X11854643Y-11037500D01*
X11868928Y-11051786D01*
X11883214Y-11080357D01*
X11897500Y-11137500D01*
X11897500Y-11208929D01*
X11883214Y-11266071D01*
X11868928Y-11294643D01*
X11854643Y-11308929D01*
X11826071Y-11323214D01*
X11797500Y-11323214D01*
X11768928Y-11308929D01*
X11754643Y-11294643D01*
X11740357Y-11266071D01*
X11726071Y-11208929D01*
X11726071Y-11137500D01*
X11740357Y-11080357D01*
X11754643Y-11051786D01*
X11768928Y-11037500D01*
X11797500Y-11023214D01*
X12026071Y-11294643D02*
X12040357Y-11308929D01*
X12026071Y-11323214D01*
X12011786Y-11308929D01*
X12026071Y-11294643D01*
X12026071Y-11323214D01*
X12226071Y-11023214D02*
X12254643Y-11023214D01*
X12283214Y-11037500D01*
X12297500Y-11051786D01*
X12311786Y-11080357D01*
X12326071Y-11137500D01*
X12326071Y-11208929D01*
X12311786Y-11266071D01*
X12297500Y-11294643D01*
X12283214Y-11308929D01*
X12254643Y-11323214D01*
X12226071Y-11323214D01*
X12197500Y-11308929D01*
X12183214Y-11294643D01*
X12168928Y-11266071D01*
X12154643Y-11208929D01*
X12154643Y-11137500D01*
X12168928Y-11080357D01*
X12183214Y-11051786D01*
X12197500Y-11037500D01*
X12226071Y-11023214D01*
X12426071Y-11023214D02*
X12611786Y-11023214D01*
X12511786Y-11137500D01*
X12554643Y-11137500D01*
X12583214Y-11151786D01*
X12597500Y-11166072D01*
X12611786Y-11194643D01*
X12611786Y-11266071D01*
X12597500Y-11294643D01*
X12583214Y-11308929D01*
X12554643Y-11323214D01*
X12468928Y-11323214D01*
X12440357Y-11308929D01*
X12426071Y-11294643D01*
X12754643Y-11323214D02*
X12811786Y-11323214D01*
X12840357Y-11308929D01*
X12854643Y-11294643D01*
X12883214Y-11251786D01*
X12897500Y-11194643D01*
X12897500Y-11080357D01*
X12883214Y-11051786D01*
X12868928Y-11037500D01*
X12840357Y-11023214D01*
X12783214Y-11023214D01*
X12754643Y-11037500D01*
X12740357Y-11051786D01*
X12726071Y-11080357D01*
X12726071Y-11151786D01*
X12740357Y-11180357D01*
X12754643Y-11194643D01*
X12783214Y-11208929D01*
X12840357Y-11208929D01*
X12868928Y-11194643D01*
X12883214Y-11180357D01*
X12897500Y-11151786D01*
X13011786Y-11023214D02*
X13011786Y-11080357D01*
X13126071Y-11023214D02*
X13126071Y-11080357D01*
X13568928Y-11437500D02*
X13554643Y-11423214D01*
X13526071Y-11380357D01*
X13511786Y-11351786D01*
X13497500Y-11308929D01*
X13483214Y-11237500D01*
X13483214Y-11180357D01*
X13497500Y-11108929D01*
X13511786Y-11066072D01*
X13526071Y-11037500D01*
X13554643Y-10994643D01*
X13568928Y-10980357D01*
X13654643Y-11023214D02*
X13840357Y-11023214D01*
X13740357Y-11137500D01*
X13783214Y-11137500D01*
X13811786Y-11151786D01*
X13826071Y-11166072D01*
X13840357Y-11194643D01*
X13840357Y-11266071D01*
X13826071Y-11294643D01*
X13811786Y-11308929D01*
X13783214Y-11323214D01*
X13697500Y-11323214D01*
X13668928Y-11308929D01*
X13654643Y-11294643D01*
X13954643Y-11051786D02*
X13968928Y-11037500D01*
X13997500Y-11023214D01*
X14068928Y-11023214D01*
X14097500Y-11037500D01*
X14111786Y-11051786D01*
X14126071Y-11080357D01*
X14126071Y-11108929D01*
X14111786Y-11151786D01*
X13940357Y-11323214D01*
X14126071Y-11323214D01*
X14483214Y-11323214D02*
X14483214Y-11023214D01*
X14611786Y-11323214D02*
X14611786Y-11166072D01*
X14597500Y-11137500D01*
X14568928Y-11123214D01*
X14526071Y-11123214D01*
X14497500Y-11137500D01*
X14483214Y-11151786D01*
X14797500Y-11323214D02*
X14768928Y-11308929D01*
X14754643Y-11294643D01*
X14740357Y-11266071D01*
X14740357Y-11180357D01*
X14754643Y-11151786D01*
X14768928Y-11137500D01*
X14797500Y-11123214D01*
X14840357Y-11123214D01*
X14868928Y-11137500D01*
X14883214Y-11151786D01*
X14897500Y-11180357D01*
X14897500Y-11266071D01*
X14883214Y-11294643D01*
X14868928Y-11308929D01*
X14840357Y-11323214D01*
X14797500Y-11323214D01*
X15068928Y-11323214D02*
X15040357Y-11308929D01*
X15026071Y-11280357D01*
X15026071Y-11023214D01*
X15297500Y-11308929D02*
X15268928Y-11323214D01*
X15211786Y-11323214D01*
X15183214Y-11308929D01*
X15168928Y-11280357D01*
X15168928Y-11166072D01*
X15183214Y-11137500D01*
X15211786Y-11123214D01*
X15268928Y-11123214D01*
X15297500Y-11137500D01*
X15311786Y-11166072D01*
X15311786Y-11194643D01*
X15168928Y-11223214D01*
X15426071Y-11308929D02*
X15454643Y-11323214D01*
X15511786Y-11323214D01*
X15540357Y-11308929D01*
X15554643Y-11280357D01*
X15554643Y-11266071D01*
X15540357Y-11237500D01*
X15511786Y-11223214D01*
X15468928Y-11223214D01*
X15440357Y-11208929D01*
X15426071Y-11180357D01*
X15426071Y-11166072D01*
X15440357Y-11137500D01*
X15468928Y-11123214D01*
X15511786Y-11123214D01*
X15540357Y-11137500D01*
X15654643Y-11437500D02*
X15668928Y-11423214D01*
X15697500Y-11380357D01*
X15711786Y-11351786D01*
X15726071Y-11308929D01*
X15740357Y-11237500D01*
X15740357Y-11180357D01*
X15726071Y-11108929D01*
X15711786Y-11066072D01*
X15697500Y-11037500D01*
X15668928Y-10994643D01*
X15654643Y-10980357D01*
X8730500Y-11507500D02*
X8882500Y-11659500D01*
X8882500Y-11507500D02*
X8730500Y-11659500D01*
X8882500Y-11583500D02*
G75*
G03X8882500Y-11583500I-76000J0D01*
G01*
X9326071Y-11719214D02*
X9154643Y-11719214D01*
X9240357Y-11719214D02*
X9240357Y-11419214D01*
X9211786Y-11462071D01*
X9183214Y-11490643D01*
X9154643Y-11504929D01*
X9454643Y-11690643D02*
X9468928Y-11704929D01*
X9454643Y-11719214D01*
X9440357Y-11704929D01*
X9454643Y-11690643D01*
X9454643Y-11719214D01*
X9740357Y-11419214D02*
X9597500Y-11419214D01*
X9583214Y-11562071D01*
X9597500Y-11547786D01*
X9626071Y-11533500D01*
X9697500Y-11533500D01*
X9726071Y-11547786D01*
X9740357Y-11562071D01*
X9754643Y-11590643D01*
X9754643Y-11662071D01*
X9740357Y-11690643D01*
X9726071Y-11704929D01*
X9697500Y-11719214D01*
X9626071Y-11719214D01*
X9597500Y-11704929D01*
X9583214Y-11690643D01*
X9868928Y-11447786D02*
X9883214Y-11433500D01*
X9911786Y-11419214D01*
X9983214Y-11419214D01*
X10011786Y-11433500D01*
X10026071Y-11447786D01*
X10040357Y-11476357D01*
X10040357Y-11504929D01*
X10026071Y-11547786D01*
X9854643Y-11719214D01*
X10040357Y-11719214D01*
X10168928Y-11719214D02*
X10168928Y-11519214D01*
X10168928Y-11547786D02*
X10183214Y-11533500D01*
X10211786Y-11519214D01*
X10254643Y-11519214D01*
X10283214Y-11533500D01*
X10297500Y-11562071D01*
X10297500Y-11719214D01*
X10297500Y-11562071D02*
X10311786Y-11533500D01*
X10340357Y-11519214D01*
X10383214Y-11519214D01*
X10411786Y-11533500D01*
X10426071Y-11562071D01*
X10426071Y-11719214D01*
X10568928Y-11719214D02*
X10568928Y-11519214D01*
X10568928Y-11547786D02*
X10583214Y-11533500D01*
X10611786Y-11519214D01*
X10654643Y-11519214D01*
X10683214Y-11533500D01*
X10697500Y-11562071D01*
X10697500Y-11719214D01*
X10697500Y-11562071D02*
X10711786Y-11533500D01*
X10740357Y-11519214D01*
X10783214Y-11519214D01*
X10811786Y-11533500D01*
X10826071Y-11562071D01*
X10826071Y-11719214D01*
X11411786Y-11404929D02*
X11154643Y-11790643D01*
X11797500Y-11419214D02*
X11826071Y-11419214D01*
X11854643Y-11433500D01*
X11868928Y-11447786D01*
X11883214Y-11476357D01*
X11897500Y-11533500D01*
X11897500Y-11604929D01*
X11883214Y-11662071D01*
X11868928Y-11690643D01*
X11854643Y-11704929D01*
X11826071Y-11719214D01*
X11797500Y-11719214D01*
X11768928Y-11704929D01*
X11754643Y-11690643D01*
X11740357Y-11662071D01*
X11726071Y-11604929D01*
X11726071Y-11533500D01*
X11740357Y-11476357D01*
X11754643Y-11447786D01*
X11768928Y-11433500D01*
X11797500Y-11419214D01*
X12026071Y-11690643D02*
X12040357Y-11704929D01*
X12026071Y-11719214D01*
X12011786Y-11704929D01*
X12026071Y-11690643D01*
X12026071Y-11719214D01*
X12226071Y-11419214D02*
X12254643Y-11419214D01*
X12283214Y-11433500D01*
X12297500Y-11447786D01*
X12311786Y-11476357D01*
X12326071Y-11533500D01*
X12326071Y-11604929D01*
X12311786Y-11662071D01*
X12297500Y-11690643D01*
X12283214Y-11704929D01*
X12254643Y-11719214D01*
X12226071Y-11719214D01*
X12197500Y-11704929D01*
X12183214Y-11690643D01*
X12168928Y-11662071D01*
X12154643Y-11604929D01*
X12154643Y-11533500D01*
X12168928Y-11476357D01*
X12183214Y-11447786D01*
X12197500Y-11433500D01*
X12226071Y-11419214D01*
X12583214Y-11419214D02*
X12526071Y-11419214D01*
X12497500Y-11433500D01*
X12483214Y-11447786D01*
X12454643Y-11490643D01*
X12440357Y-11547786D01*
X12440357Y-11662071D01*
X12454643Y-11690643D01*
X12468928Y-11704929D01*
X12497500Y-11719214D01*
X12554643Y-11719214D01*
X12583214Y-11704929D01*
X12597500Y-11690643D01*
X12611786Y-11662071D01*
X12611786Y-11590643D01*
X12597500Y-11562071D01*
X12583214Y-11547786D01*
X12554643Y-11533500D01*
X12497500Y-11533500D01*
X12468928Y-11547786D01*
X12454643Y-11562071D01*
X12440357Y-11590643D01*
X12797500Y-11419214D02*
X12826071Y-11419214D01*
X12854643Y-11433500D01*
X12868928Y-11447786D01*
X12883214Y-11476357D01*
X12897500Y-11533500D01*
X12897500Y-11604929D01*
X12883214Y-11662071D01*
X12868928Y-11690643D01*
X12854643Y-11704929D01*
X12826071Y-11719214D01*
X12797500Y-11719214D01*
X12768928Y-11704929D01*
X12754643Y-11690643D01*
X12740357Y-11662071D01*
X12726071Y-11604929D01*
X12726071Y-11533500D01*
X12740357Y-11476357D01*
X12754643Y-11447786D01*
X12768928Y-11433500D01*
X12797500Y-11419214D01*
X13011786Y-11419214D02*
X13011786Y-11476357D01*
X13126071Y-11419214D02*
X13126071Y-11476357D01*
X13568928Y-11833500D02*
X13554643Y-11819214D01*
X13526071Y-11776357D01*
X13511786Y-11747786D01*
X13497500Y-11704929D01*
X13483214Y-11633500D01*
X13483214Y-11576357D01*
X13497500Y-11504929D01*
X13511786Y-11462071D01*
X13526071Y-11433500D01*
X13554643Y-11390643D01*
X13568928Y-11376357D01*
X13840357Y-11719214D02*
X13668928Y-11719214D01*
X13754643Y-11719214D02*
X13754643Y-11419214D01*
X13726071Y-11462071D01*
X13697500Y-11490643D01*
X13668928Y-11504929D01*
X14011786Y-11547786D02*
X13983214Y-11533500D01*
X13968928Y-11519214D01*
X13954643Y-11490643D01*
X13954643Y-11476357D01*
X13968928Y-11447786D01*
X13983214Y-11433500D01*
X14011786Y-11419214D01*
X14068928Y-11419214D01*
X14097500Y-11433500D01*
X14111786Y-11447786D01*
X14126071Y-11476357D01*
X14126071Y-11490643D01*
X14111786Y-11519214D01*
X14097500Y-11533500D01*
X14068928Y-11547786D01*
X14011786Y-11547786D01*
X13983214Y-11562071D01*
X13968928Y-11576357D01*
X13954643Y-11604929D01*
X13954643Y-11662071D01*
X13968928Y-11690643D01*
X13983214Y-11704929D01*
X14011786Y-11719214D01*
X14068928Y-11719214D01*
X14097500Y-11704929D01*
X14111786Y-11690643D01*
X14126071Y-11662071D01*
X14126071Y-11604929D01*
X14111786Y-11576357D01*
X14097500Y-11562071D01*
X14068928Y-11547786D01*
X14483214Y-11719214D02*
X14483214Y-11419214D01*
X14611786Y-11719214D02*
X14611786Y-11562071D01*
X14597500Y-11533500D01*
X14568928Y-11519214D01*
X14526071Y-11519214D01*
X14497500Y-11533500D01*
X14483214Y-11547786D01*
X14797500Y-11719214D02*
X14768928Y-11704929D01*
X14754643Y-11690643D01*
X14740357Y-11662071D01*
X14740357Y-11576357D01*
X14754643Y-11547786D01*
X14768928Y-11533500D01*
X14797500Y-11519214D01*
X14840357Y-11519214D01*
X14868928Y-11533500D01*
X14883214Y-11547786D01*
X14897500Y-11576357D01*
X14897500Y-11662071D01*
X14883214Y-11690643D01*
X14868928Y-11704929D01*
X14840357Y-11719214D01*
X14797500Y-11719214D01*
X15068928Y-11719214D02*
X15040357Y-11704929D01*
X15026071Y-11676357D01*
X15026071Y-11419214D01*
X15297500Y-11704929D02*
X15268928Y-11719214D01*
X15211786Y-11719214D01*
X15183214Y-11704929D01*
X15168928Y-11676357D01*
X15168928Y-11562071D01*
X15183214Y-11533500D01*
X15211786Y-11519214D01*
X15268928Y-11519214D01*
X15297500Y-11533500D01*
X15311786Y-11562071D01*
X15311786Y-11590643D01*
X15168928Y-11619214D01*
X15426071Y-11704929D02*
X15454643Y-11719214D01*
X15511786Y-11719214D01*
X15540357Y-11704929D01*
X15554643Y-11676357D01*
X15554643Y-11662071D01*
X15540357Y-11633500D01*
X15511786Y-11619214D01*
X15468928Y-11619214D01*
X15440357Y-11604929D01*
X15426071Y-11576357D01*
X15426071Y-11562071D01*
X15440357Y-11533500D01*
X15468928Y-11519214D01*
X15511786Y-11519214D01*
X15540357Y-11533500D01*
X15654643Y-11833500D02*
X15668928Y-11819214D01*
X15697500Y-11776357D01*
X15711786Y-11747786D01*
X15726071Y-11704929D01*
X15740357Y-11633500D01*
X15740357Y-11576357D01*
X15726071Y-11504929D01*
X15711786Y-11462071D01*
X15697500Y-11433500D01*
X15668928Y-11390643D01*
X15654643Y-11376357D01*
M02*
