G04 #@! TF.GenerationSoftware,KiCad,Pcbnew,(5.0.2)-1*
G04 #@! TF.CreationDate,2018-12-23T19:12:52+01:00*
G04 #@! TF.ProjectId,MultiSwitch_MosFet,4d756c74-6953-4776-9974-63685f4d6f73,0.1*
G04 #@! TF.SameCoordinates,Original*
G04 #@! TF.FileFunction,Other,Fab,Top*
%FSLAX46Y46*%
G04 Gerber Fmt 4.6, Leading zero omitted, Abs format (unit mm)*
G04 Created by KiCad (PCBNEW (5.0.2)-1) date 23/12/2018 19:12:52*
%MOMM*%
%LPD*%
G01*
G04 APERTURE LIST*
%ADD10C,0.200000*%
%ADD11C,0.100000*%
%ADD12C,0.150000*%
G04 APERTURE END LIST*
D10*
X88900000Y-86360000D02*
X88900000Y-25400000D01*
X175260000Y-86360000D02*
X88900000Y-86360000D01*
X175260000Y-25400000D02*
X175260000Y-86360000D01*
X88900000Y-25400000D02*
X175260000Y-25400000D01*
D11*
G04 #@! TO.C,Q2*
X116150000Y-38140000D02*
X116150000Y-39410000D01*
X112450000Y-38140000D02*
X112450000Y-39410000D01*
X109300000Y-39410000D02*
X119300000Y-39410000D01*
X119300000Y-38140000D02*
X109300000Y-38140000D01*
X119300000Y-42540000D02*
X119300000Y-38140000D01*
X109300000Y-42540000D02*
X119300000Y-42540000D01*
X109300000Y-38140000D02*
X109300000Y-42540000D01*
G04 #@! TO.C,Q14*
X154860000Y-42505000D02*
X154860000Y-38105000D01*
X154860000Y-38105000D02*
X144860000Y-38105000D01*
X144860000Y-38105000D02*
X144860000Y-42505000D01*
X144860000Y-42505000D02*
X154860000Y-42505000D01*
X154860000Y-41235000D02*
X144860000Y-41235000D01*
X151710000Y-42505000D02*
X151710000Y-41235000D01*
X148010000Y-42505000D02*
X148010000Y-41235000D01*
G04 #@! TO.C,Q1*
X109990000Y-37310000D02*
X113490000Y-37310000D01*
X113513625Y-37313625D02*
G75*
G03X111760000Y-33080000I-1753625J1753625D01*
G01*
X110006375Y-37313625D02*
G75*
G02X111760000Y-33080000I1753625J1753625D01*
G01*
G04 #@! TO.C,Q8*
X109300000Y-61000000D02*
X109300000Y-65400000D01*
X109300000Y-65400000D02*
X119300000Y-65400000D01*
X119300000Y-65400000D02*
X119300000Y-61000000D01*
X119300000Y-61000000D02*
X109300000Y-61000000D01*
X109300000Y-62270000D02*
X119300000Y-62270000D01*
X112450000Y-61000000D02*
X112450000Y-62270000D01*
X116150000Y-61000000D02*
X116150000Y-62270000D01*
G04 #@! TO.C,Q3*
X124325000Y-38255000D02*
X120825000Y-38255000D01*
X120801375Y-38251375D02*
G75*
G03X122555000Y-42485000I1753625J-1753625D01*
G01*
X124308625Y-38251375D02*
G75*
G02X122555000Y-42485000I-1753625J-1753625D01*
G01*
G04 #@! TO.C,Q7*
X109990000Y-60170000D02*
X113490000Y-60170000D01*
X113513625Y-60173625D02*
G75*
G03X111760000Y-55940000I-1753625J1753625D01*
G01*
X110006375Y-60173625D02*
G75*
G02X111760000Y-55940000I1753625J1753625D01*
G01*
G04 #@! TO.C,Q9*
X124325000Y-61115000D02*
X120825000Y-61115000D01*
X120801375Y-61111375D02*
G75*
G03X122555000Y-65345000I1753625J-1753625D01*
G01*
X124308625Y-61111375D02*
G75*
G02X122555000Y-65345000I-1753625J-1753625D01*
G01*
G04 #@! TO.C,Q13*
X154170000Y-33175000D02*
X150670000Y-33175000D01*
X150646375Y-33171375D02*
G75*
G03X152400000Y-37405000I1753625J-1753625D01*
G01*
X154153625Y-33171375D02*
G75*
G02X152400000Y-37405000I-1753625J-1753625D01*
G01*
G04 #@! TO.C,Q15*
X139851375Y-42393625D02*
G75*
G02X141605000Y-38160000I1753625J1753625D01*
G01*
X143358625Y-42393625D02*
G75*
G03X141605000Y-38160000I-1753625J1753625D01*
G01*
X139835000Y-42390000D02*
X143335000Y-42390000D01*
G04 #@! TO.C,Q4*
X110006375Y-48743625D02*
G75*
G02X111760000Y-44510000I1753625J1753625D01*
G01*
X113513625Y-48743625D02*
G75*
G03X111760000Y-44510000I-1753625J1753625D01*
G01*
X109990000Y-48740000D02*
X113490000Y-48740000D01*
G04 #@! TO.C,Q5*
X116150000Y-49570000D02*
X116150000Y-50840000D01*
X112450000Y-49570000D02*
X112450000Y-50840000D01*
X109300000Y-50840000D02*
X119300000Y-50840000D01*
X119300000Y-49570000D02*
X109300000Y-49570000D01*
X119300000Y-53970000D02*
X119300000Y-49570000D01*
X109300000Y-53970000D02*
X119300000Y-53970000D01*
X109300000Y-49570000D02*
X109300000Y-53970000D01*
G04 #@! TO.C,Q6*
X124325000Y-49685000D02*
X120825000Y-49685000D01*
X120801375Y-49681375D02*
G75*
G03X122555000Y-53915000I1753625J-1753625D01*
G01*
X124308625Y-49681375D02*
G75*
G02X122555000Y-53915000I-1753625J-1753625D01*
G01*
G04 #@! TO.C,Q10*
X110006375Y-71603625D02*
G75*
G02X111760000Y-67370000I1753625J1753625D01*
G01*
X113513625Y-71603625D02*
G75*
G03X111760000Y-67370000I-1753625J1753625D01*
G01*
X109990000Y-71600000D02*
X113490000Y-71600000D01*
G04 #@! TO.C,Q11*
X116150000Y-72430000D02*
X116150000Y-73700000D01*
X112450000Y-72430000D02*
X112450000Y-73700000D01*
X109300000Y-73700000D02*
X119300000Y-73700000D01*
X119300000Y-72430000D02*
X109300000Y-72430000D01*
X119300000Y-76830000D02*
X119300000Y-72430000D01*
X109300000Y-76830000D02*
X119300000Y-76830000D01*
X109300000Y-72430000D02*
X109300000Y-76830000D01*
G04 #@! TO.C,Q12*
X124325000Y-72545000D02*
X120825000Y-72545000D01*
X120801375Y-72541375D02*
G75*
G03X122555000Y-76775000I1753625J-1753625D01*
G01*
X124308625Y-72541375D02*
G75*
G02X122555000Y-76775000I-1753625J-1753625D01*
G01*
G04 #@! TO.C,Q16*
X154170000Y-44605000D02*
X150670000Y-44605000D01*
X150646375Y-44601375D02*
G75*
G03X152400000Y-48835000I1753625J-1753625D01*
G01*
X154153625Y-44601375D02*
G75*
G02X152400000Y-48835000I-1753625J-1753625D01*
G01*
G04 #@! TO.C,Q17*
X154860000Y-53935000D02*
X154860000Y-49535000D01*
X154860000Y-49535000D02*
X144860000Y-49535000D01*
X144860000Y-49535000D02*
X144860000Y-53935000D01*
X144860000Y-53935000D02*
X154860000Y-53935000D01*
X154860000Y-52665000D02*
X144860000Y-52665000D01*
X151710000Y-53935000D02*
X151710000Y-52665000D01*
X148010000Y-53935000D02*
X148010000Y-52665000D01*
G04 #@! TO.C,Q18*
X139851375Y-53823625D02*
G75*
G02X141605000Y-49590000I1753625J1753625D01*
G01*
X143358625Y-53823625D02*
G75*
G03X141605000Y-49590000I-1753625J1753625D01*
G01*
X139835000Y-53820000D02*
X143335000Y-53820000D01*
G04 #@! TO.C,Q19*
X154170000Y-56035000D02*
X150670000Y-56035000D01*
X150646375Y-56031375D02*
G75*
G03X152400000Y-60265000I1753625J-1753625D01*
G01*
X154153625Y-56031375D02*
G75*
G02X152400000Y-60265000I-1753625J-1753625D01*
G01*
G04 #@! TO.C,Q20*
X154860000Y-65365000D02*
X154860000Y-60965000D01*
X154860000Y-60965000D02*
X144860000Y-60965000D01*
X144860000Y-60965000D02*
X144860000Y-65365000D01*
X144860000Y-65365000D02*
X154860000Y-65365000D01*
X154860000Y-64095000D02*
X144860000Y-64095000D01*
X151710000Y-65365000D02*
X151710000Y-64095000D01*
X148010000Y-65365000D02*
X148010000Y-64095000D01*
G04 #@! TO.C,Q21*
X139851375Y-65253625D02*
G75*
G02X141605000Y-61020000I1753625J1753625D01*
G01*
X143358625Y-65253625D02*
G75*
G03X141605000Y-61020000I-1753625J1753625D01*
G01*
X139835000Y-65250000D02*
X143335000Y-65250000D01*
G04 #@! TO.C,Q22*
X154170000Y-67465000D02*
X150670000Y-67465000D01*
X150646375Y-67461375D02*
G75*
G03X152400000Y-71695000I1753625J-1753625D01*
G01*
X154153625Y-67461375D02*
G75*
G02X152400000Y-71695000I-1753625J-1753625D01*
G01*
G04 #@! TO.C,Q23*
X154860000Y-76795000D02*
X154860000Y-72395000D01*
X154860000Y-72395000D02*
X144860000Y-72395000D01*
X144860000Y-72395000D02*
X144860000Y-76795000D01*
X144860000Y-76795000D02*
X154860000Y-76795000D01*
X154860000Y-75525000D02*
X144860000Y-75525000D01*
X151710000Y-76795000D02*
X151710000Y-75525000D01*
X148010000Y-76795000D02*
X148010000Y-75525000D01*
G04 #@! TO.C,Q24*
X139851375Y-76683625D02*
G75*
G02X141605000Y-72450000I1753625J1753625D01*
G01*
X143358625Y-76683625D02*
G75*
G03X141605000Y-72450000I-1753625J1753625D01*
G01*
X139835000Y-76680000D02*
X143335000Y-76680000D01*
G04 #@! TO.C,J1*
X104150000Y-43050000D02*
X104150000Y-33150000D01*
X97850000Y-43100000D02*
X105350000Y-43100000D01*
X105350000Y-43100000D02*
X105350000Y-33100000D01*
X105350000Y-33100000D02*
X97850000Y-33100000D01*
X97850000Y-33100000D02*
X97850000Y-43100000D01*
G04 #@! TO.C,J2*
X97850000Y-44530000D02*
X97850000Y-54530000D01*
X105350000Y-44530000D02*
X97850000Y-44530000D01*
X105350000Y-54530000D02*
X105350000Y-44530000D01*
X97850000Y-54530000D02*
X105350000Y-54530000D01*
X104150000Y-54480000D02*
X104150000Y-44580000D01*
G04 #@! TO.C,J3*
X97850000Y-55960000D02*
X97850000Y-65960000D01*
X105350000Y-55960000D02*
X97850000Y-55960000D01*
X105350000Y-65960000D02*
X105350000Y-55960000D01*
X97850000Y-65960000D02*
X105350000Y-65960000D01*
X104150000Y-65910000D02*
X104150000Y-56010000D01*
G04 #@! TO.C,J4*
X97850000Y-67390000D02*
X97850000Y-77390000D01*
X105350000Y-67390000D02*
X97850000Y-67390000D01*
X105350000Y-77390000D02*
X105350000Y-67390000D01*
X97850000Y-77390000D02*
X105350000Y-77390000D01*
X104150000Y-77340000D02*
X104150000Y-67440000D01*
G04 #@! TO.C,J5*
X166310000Y-43100000D02*
X166310000Y-33100000D01*
X158810000Y-43100000D02*
X166310000Y-43100000D01*
X158810000Y-33100000D02*
X158810000Y-43100000D01*
X166310000Y-33100000D02*
X158810000Y-33100000D01*
X160010000Y-33150000D02*
X160010000Y-43050000D01*
G04 #@! TO.C,J6*
X160010000Y-44580000D02*
X160010000Y-54480000D01*
X166310000Y-44530000D02*
X158810000Y-44530000D01*
X158810000Y-44530000D02*
X158810000Y-54530000D01*
X158810000Y-54530000D02*
X166310000Y-54530000D01*
X166310000Y-54530000D02*
X166310000Y-44530000D01*
G04 #@! TO.C,J7*
X160010000Y-56010000D02*
X160010000Y-65910000D01*
X166310000Y-55960000D02*
X158810000Y-55960000D01*
X158810000Y-55960000D02*
X158810000Y-65960000D01*
X158810000Y-65960000D02*
X166310000Y-65960000D01*
X166310000Y-65960000D02*
X166310000Y-55960000D01*
G04 #@! TO.C,J8*
X160010000Y-67440000D02*
X160010000Y-77340000D01*
X166310000Y-67390000D02*
X158810000Y-67390000D01*
X158810000Y-67390000D02*
X158810000Y-77390000D01*
X158810000Y-77390000D02*
X166310000Y-77390000D01*
X166310000Y-77390000D02*
X166310000Y-67390000D01*
G04 #@! TO.C,J11*
X127130000Y-38745000D02*
X137030000Y-38745000D01*
X127080000Y-32445000D02*
X127080000Y-39945000D01*
X127080000Y-39945000D02*
X137080000Y-39945000D01*
X137080000Y-39945000D02*
X137080000Y-32445000D01*
X137080000Y-32445000D02*
X127080000Y-32445000D01*
G04 #@! TO.C,D1*
X121388810Y-36425000D02*
X123721190Y-36425000D01*
X124055000Y-34925000D02*
G75*
G03X124055000Y-34925000I-1500000J0D01*
G01*
X123720476Y-36425555D02*
G75*
G03X121388810Y-36425000I-1165476J1500555D01*
G01*
G04 #@! TO.C,D2*
X123720476Y-47855555D02*
G75*
G03X121388810Y-47855000I-1165476J1500555D01*
G01*
X124055000Y-46355000D02*
G75*
G03X124055000Y-46355000I-1500000J0D01*
G01*
X121388810Y-47855000D02*
X123721190Y-47855000D01*
G04 #@! TO.C,D3*
X121388810Y-59285000D02*
X123721190Y-59285000D01*
X124055000Y-57785000D02*
G75*
G03X124055000Y-57785000I-1500000J0D01*
G01*
X123720476Y-59285555D02*
G75*
G03X121388810Y-59285000I-1165476J1500555D01*
G01*
G04 #@! TO.C,D4*
X123720476Y-70715555D02*
G75*
G03X121388810Y-70715000I-1165476J1500555D01*
G01*
X124055000Y-69215000D02*
G75*
G03X124055000Y-69215000I-1500000J0D01*
G01*
X121388810Y-70715000D02*
X123721190Y-70715000D01*
G04 #@! TO.C,D5*
X140438810Y-36425000D02*
X142771190Y-36425000D01*
X143105000Y-34925000D02*
G75*
G03X143105000Y-34925000I-1500000J0D01*
G01*
X142770476Y-36425555D02*
G75*
G03X140438810Y-36425000I-1165476J1500555D01*
G01*
G04 #@! TO.C,D6*
X142770476Y-47855555D02*
G75*
G03X140438810Y-47855000I-1165476J1500555D01*
G01*
X143105000Y-46355000D02*
G75*
G03X143105000Y-46355000I-1500000J0D01*
G01*
X140438810Y-47855000D02*
X142771190Y-47855000D01*
G04 #@! TO.C,D7*
X140438810Y-59285000D02*
X142771190Y-59285000D01*
X143105000Y-57785000D02*
G75*
G03X143105000Y-57785000I-1500000J0D01*
G01*
X142770476Y-59285555D02*
G75*
G03X140438810Y-59285000I-1165476J1500555D01*
G01*
G04 #@! TO.C,D8*
X142770476Y-70715555D02*
G75*
G03X140438810Y-70715000I-1165476J1500555D01*
G01*
X143105000Y-69215000D02*
G75*
G03X143105000Y-69215000I-1500000J0D01*
G01*
X140438810Y-70715000D02*
X142771190Y-70715000D01*
G04 #@! TO.C,J9*
X139065000Y-81280000D02*
X140970000Y-81280000D01*
X140970000Y-81280000D02*
X140970000Y-78740000D01*
X140970000Y-78740000D02*
X139065000Y-78740000D01*
X120650000Y-78740000D02*
X139065000Y-78740000D01*
X139065000Y-81280000D02*
X120650000Y-81280000D01*
X120650000Y-78740000D02*
X120650000Y-81280000D01*
G04 #@! TO.C,J10*
X120650000Y-81280000D02*
X120650000Y-83820000D01*
X139065000Y-83820000D02*
X120650000Y-83820000D01*
X120650000Y-81280000D02*
X139065000Y-81280000D01*
X140970000Y-81280000D02*
X139065000Y-81280000D01*
X140970000Y-83820000D02*
X140970000Y-81280000D01*
X139065000Y-83820000D02*
X140970000Y-83820000D01*
G04 #@! TO.C,R1*
X118745000Y-36195000D02*
X118745000Y-33655000D01*
X119545000Y-36195000D02*
G75*
G03X119545000Y-36195000I-800000J0D01*
G01*
G04 #@! TO.C,R2*
X117005000Y-33655000D02*
G75*
G03X117005000Y-33655000I-800000J0D01*
G01*
X116205000Y-33655000D02*
X116205000Y-36195000D01*
G04 #@! TO.C,R3*
X107315000Y-36195000D02*
X107315000Y-33655000D01*
X108115000Y-36195000D02*
G75*
G03X108115000Y-36195000I-800000J0D01*
G01*
G04 #@! TO.C,R4*
X119545000Y-47625000D02*
G75*
G03X119545000Y-47625000I-800000J0D01*
G01*
X118745000Y-47625000D02*
X118745000Y-45085000D01*
G04 #@! TO.C,R5*
X117005000Y-45085000D02*
G75*
G03X117005000Y-45085000I-800000J0D01*
G01*
X116205000Y-45085000D02*
X116205000Y-47625000D01*
G04 #@! TO.C,R6*
X107315000Y-47625000D02*
X107315000Y-45085000D01*
X108115000Y-47625000D02*
G75*
G03X108115000Y-47625000I-800000J0D01*
G01*
G04 #@! TO.C,R7*
X119545000Y-59055000D02*
G75*
G03X119545000Y-59055000I-800000J0D01*
G01*
X118745000Y-59055000D02*
X118745000Y-56515000D01*
G04 #@! TO.C,R8*
X117005000Y-56515000D02*
G75*
G03X117005000Y-56515000I-800000J0D01*
G01*
X116205000Y-56515000D02*
X116205000Y-59055000D01*
G04 #@! TO.C,R9*
X107315000Y-59055000D02*
X107315000Y-56515000D01*
X108115000Y-59055000D02*
G75*
G03X108115000Y-59055000I-800000J0D01*
G01*
G04 #@! TO.C,R11*
X116205000Y-67945000D02*
X116205000Y-70485000D01*
X117005000Y-67945000D02*
G75*
G03X117005000Y-67945000I-800000J0D01*
G01*
G04 #@! TO.C,R12*
X108115000Y-70485000D02*
G75*
G03X108115000Y-70485000I-800000J0D01*
G01*
X107315000Y-70485000D02*
X107315000Y-67945000D01*
G04 #@! TO.C,R13*
X145415000Y-36195000D02*
X145415000Y-33655000D01*
X146215000Y-36195000D02*
G75*
G03X146215000Y-36195000I-800000J0D01*
G01*
G04 #@! TO.C,R14*
X148755000Y-33655000D02*
G75*
G03X148755000Y-33655000I-800000J0D01*
G01*
X147955000Y-33655000D02*
X147955000Y-36195000D01*
G04 #@! TO.C,R15*
X156845000Y-36195000D02*
X156845000Y-33655000D01*
X157645000Y-36195000D02*
G75*
G03X157645000Y-36195000I-800000J0D01*
G01*
G04 #@! TO.C,R16*
X145415000Y-47625000D02*
X145415000Y-45085000D01*
X146215000Y-47625000D02*
G75*
G03X146215000Y-47625000I-800000J0D01*
G01*
G04 #@! TO.C,R17*
X148755000Y-45085000D02*
G75*
G03X148755000Y-45085000I-800000J0D01*
G01*
X147955000Y-45085000D02*
X147955000Y-47625000D01*
G04 #@! TO.C,R18*
X156845000Y-47625000D02*
X156845000Y-45085000D01*
X157645000Y-47625000D02*
G75*
G03X157645000Y-47625000I-800000J0D01*
G01*
G04 #@! TO.C,R19*
X146215000Y-59055000D02*
G75*
G03X146215000Y-59055000I-800000J0D01*
G01*
X145415000Y-59055000D02*
X145415000Y-56515000D01*
G04 #@! TO.C,R20*
X147955000Y-56515000D02*
X147955000Y-59055000D01*
X148755000Y-56515000D02*
G75*
G03X148755000Y-56515000I-800000J0D01*
G01*
G04 #@! TO.C,R21*
X156845000Y-59055000D02*
X156845000Y-56515000D01*
X157645000Y-59055000D02*
G75*
G03X157645000Y-59055000I-800000J0D01*
G01*
G04 #@! TO.C,R22*
X146215000Y-70485000D02*
G75*
G03X146215000Y-70485000I-800000J0D01*
G01*
X145415000Y-70485000D02*
X145415000Y-67945000D01*
G04 #@! TO.C,R23*
X148755000Y-67945000D02*
G75*
G03X148755000Y-67945000I-800000J0D01*
G01*
X147955000Y-67945000D02*
X147955000Y-70485000D01*
G04 #@! TO.C,R24*
X157645000Y-70485000D02*
G75*
G03X157645000Y-70485000I-800000J0D01*
G01*
X156845000Y-70485000D02*
X156845000Y-67945000D01*
G04 #@! TO.C,R10*
X119545000Y-70485000D02*
G75*
G03X119545000Y-70485000I-800000J0D01*
G01*
X118745000Y-70485000D02*
X118745000Y-67945000D01*
G04 #@! TD*
G04 #@! TO.C,Q2*
D12*
X110966666Y-42108380D02*
X110966666Y-41108380D01*
X112014285Y-42108380D02*
X111680952Y-41632190D01*
X111442857Y-42108380D02*
X111442857Y-41108380D01*
X111823809Y-41108380D01*
X111919047Y-41156000D01*
X111966666Y-41203619D01*
X112014285Y-41298857D01*
X112014285Y-41441714D01*
X111966666Y-41536952D01*
X111919047Y-41584571D01*
X111823809Y-41632190D01*
X111442857Y-41632190D01*
X112919047Y-42108380D02*
X112442857Y-42108380D01*
X112442857Y-41108380D01*
X113204761Y-41203619D02*
X113252380Y-41156000D01*
X113347619Y-41108380D01*
X113585714Y-41108380D01*
X113680952Y-41156000D01*
X113728571Y-41203619D01*
X113776190Y-41298857D01*
X113776190Y-41394095D01*
X113728571Y-41536952D01*
X113157142Y-42108380D01*
X113776190Y-42108380D01*
X114157142Y-41203619D02*
X114204761Y-41156000D01*
X114300000Y-41108380D01*
X114538095Y-41108380D01*
X114633333Y-41156000D01*
X114680952Y-41203619D01*
X114728571Y-41298857D01*
X114728571Y-41394095D01*
X114680952Y-41536952D01*
X114109523Y-42108380D01*
X114728571Y-42108380D01*
X115347619Y-41108380D02*
X115442857Y-41108380D01*
X115538095Y-41156000D01*
X115585714Y-41203619D01*
X115633333Y-41298857D01*
X115680952Y-41489333D01*
X115680952Y-41727428D01*
X115633333Y-41917904D01*
X115585714Y-42013142D01*
X115538095Y-42060761D01*
X115442857Y-42108380D01*
X115347619Y-42108380D01*
X115252380Y-42060761D01*
X115204761Y-42013142D01*
X115157142Y-41917904D01*
X115109523Y-41727428D01*
X115109523Y-41489333D01*
X115157142Y-41298857D01*
X115204761Y-41203619D01*
X115252380Y-41156000D01*
X115347619Y-41108380D01*
X116014285Y-41108380D02*
X116633333Y-41108380D01*
X116300000Y-41489333D01*
X116442857Y-41489333D01*
X116538095Y-41536952D01*
X116585714Y-41584571D01*
X116633333Y-41679809D01*
X116633333Y-41917904D01*
X116585714Y-42013142D01*
X116538095Y-42060761D01*
X116442857Y-42108380D01*
X116157142Y-42108380D01*
X116061904Y-42060761D01*
X116014285Y-42013142D01*
X117061904Y-42108380D02*
X117061904Y-41108380D01*
X117633333Y-42108380D01*
X117633333Y-41108380D01*
X114204761Y-40806619D02*
X114109523Y-40759000D01*
X114014285Y-40663761D01*
X113871428Y-40520904D01*
X113776190Y-40473285D01*
X113680952Y-40473285D01*
X113728571Y-40711380D02*
X113633333Y-40663761D01*
X113538095Y-40568523D01*
X113490476Y-40378047D01*
X113490476Y-40044714D01*
X113538095Y-39854238D01*
X113633333Y-39759000D01*
X113728571Y-39711380D01*
X113919047Y-39711380D01*
X114014285Y-39759000D01*
X114109523Y-39854238D01*
X114157142Y-40044714D01*
X114157142Y-40378047D01*
X114109523Y-40568523D01*
X114014285Y-40663761D01*
X113919047Y-40711380D01*
X113728571Y-40711380D01*
X114538095Y-39806619D02*
X114585714Y-39759000D01*
X114680952Y-39711380D01*
X114919047Y-39711380D01*
X115014285Y-39759000D01*
X115061904Y-39806619D01*
X115109523Y-39901857D01*
X115109523Y-39997095D01*
X115061904Y-40139952D01*
X114490476Y-40711380D01*
X115109523Y-40711380D01*
G04 #@! TO.C,Q14*
X146780666Y-40838380D02*
X146780666Y-39838380D01*
X147828285Y-40838380D02*
X147494952Y-40362190D01*
X147256857Y-40838380D02*
X147256857Y-39838380D01*
X147637809Y-39838380D01*
X147733047Y-39886000D01*
X147780666Y-39933619D01*
X147828285Y-40028857D01*
X147828285Y-40171714D01*
X147780666Y-40266952D01*
X147733047Y-40314571D01*
X147637809Y-40362190D01*
X147256857Y-40362190D01*
X148733047Y-40838380D02*
X148256857Y-40838380D01*
X148256857Y-39838380D01*
X149018761Y-39933619D02*
X149066380Y-39886000D01*
X149161619Y-39838380D01*
X149399714Y-39838380D01*
X149494952Y-39886000D01*
X149542571Y-39933619D01*
X149590190Y-40028857D01*
X149590190Y-40124095D01*
X149542571Y-40266952D01*
X148971142Y-40838380D01*
X149590190Y-40838380D01*
X149971142Y-39933619D02*
X150018761Y-39886000D01*
X150114000Y-39838380D01*
X150352095Y-39838380D01*
X150447333Y-39886000D01*
X150494952Y-39933619D01*
X150542571Y-40028857D01*
X150542571Y-40124095D01*
X150494952Y-40266952D01*
X149923523Y-40838380D01*
X150542571Y-40838380D01*
X151161619Y-39838380D02*
X151256857Y-39838380D01*
X151352095Y-39886000D01*
X151399714Y-39933619D01*
X151447333Y-40028857D01*
X151494952Y-40219333D01*
X151494952Y-40457428D01*
X151447333Y-40647904D01*
X151399714Y-40743142D01*
X151352095Y-40790761D01*
X151256857Y-40838380D01*
X151161619Y-40838380D01*
X151066380Y-40790761D01*
X151018761Y-40743142D01*
X150971142Y-40647904D01*
X150923523Y-40457428D01*
X150923523Y-40219333D01*
X150971142Y-40028857D01*
X151018761Y-39933619D01*
X151066380Y-39886000D01*
X151161619Y-39838380D01*
X151828285Y-39838380D02*
X152447333Y-39838380D01*
X152114000Y-40219333D01*
X152256857Y-40219333D01*
X152352095Y-40266952D01*
X152399714Y-40314571D01*
X152447333Y-40409809D01*
X152447333Y-40647904D01*
X152399714Y-40743142D01*
X152352095Y-40790761D01*
X152256857Y-40838380D01*
X151971142Y-40838380D01*
X151875904Y-40790761D01*
X151828285Y-40743142D01*
X152875904Y-40838380D02*
X152875904Y-39838380D01*
X153447333Y-40838380D01*
X153447333Y-39838380D01*
X149034571Y-39536619D02*
X148939333Y-39489000D01*
X148844095Y-39393761D01*
X148701238Y-39250904D01*
X148606000Y-39203285D01*
X148510761Y-39203285D01*
X148558380Y-39441380D02*
X148463142Y-39393761D01*
X148367904Y-39298523D01*
X148320285Y-39108047D01*
X148320285Y-38774714D01*
X148367904Y-38584238D01*
X148463142Y-38489000D01*
X148558380Y-38441380D01*
X148748857Y-38441380D01*
X148844095Y-38489000D01*
X148939333Y-38584238D01*
X148986952Y-38774714D01*
X148986952Y-39108047D01*
X148939333Y-39298523D01*
X148844095Y-39393761D01*
X148748857Y-39441380D01*
X148558380Y-39441380D01*
X149939333Y-39441380D02*
X149367904Y-39441380D01*
X149653619Y-39441380D02*
X149653619Y-38441380D01*
X149558380Y-38584238D01*
X149463142Y-38679476D01*
X149367904Y-38727095D01*
X150796476Y-38774714D02*
X150796476Y-39441380D01*
X150558380Y-38393761D02*
X150320285Y-39108047D01*
X150939333Y-39108047D01*
G04 #@! TO.C,Q1*
X107910761Y-32583380D02*
X107910761Y-31583380D01*
X108291714Y-31583380D01*
X108386952Y-31631000D01*
X108434571Y-31678619D01*
X108482190Y-31773857D01*
X108482190Y-31916714D01*
X108434571Y-32011952D01*
X108386952Y-32059571D01*
X108291714Y-32107190D01*
X107910761Y-32107190D01*
X108863142Y-31678619D02*
X108910761Y-31631000D01*
X109006000Y-31583380D01*
X109244095Y-31583380D01*
X109339333Y-31631000D01*
X109386952Y-31678619D01*
X109434571Y-31773857D01*
X109434571Y-31869095D01*
X109386952Y-32011952D01*
X108815523Y-32583380D01*
X109434571Y-32583380D01*
X109863142Y-32583380D02*
X109863142Y-31583380D01*
X110434571Y-32583380D01*
X110434571Y-31583380D01*
X110863142Y-31678619D02*
X110910761Y-31631000D01*
X111006000Y-31583380D01*
X111244095Y-31583380D01*
X111339333Y-31631000D01*
X111386952Y-31678619D01*
X111434571Y-31773857D01*
X111434571Y-31869095D01*
X111386952Y-32011952D01*
X110815523Y-32583380D01*
X111434571Y-32583380D01*
X111815523Y-31678619D02*
X111863142Y-31631000D01*
X111958380Y-31583380D01*
X112196476Y-31583380D01*
X112291714Y-31631000D01*
X112339333Y-31678619D01*
X112386952Y-31773857D01*
X112386952Y-31869095D01*
X112339333Y-32011952D01*
X111767904Y-32583380D01*
X112386952Y-32583380D01*
X112767904Y-31678619D02*
X112815523Y-31631000D01*
X112910761Y-31583380D01*
X113148857Y-31583380D01*
X113244095Y-31631000D01*
X113291714Y-31678619D01*
X113339333Y-31773857D01*
X113339333Y-31869095D01*
X113291714Y-32011952D01*
X112720285Y-32583380D01*
X113339333Y-32583380D01*
X113720285Y-31678619D02*
X113767904Y-31631000D01*
X113863142Y-31583380D01*
X114101238Y-31583380D01*
X114196476Y-31631000D01*
X114244095Y-31678619D01*
X114291714Y-31773857D01*
X114291714Y-31869095D01*
X114244095Y-32011952D01*
X113672666Y-32583380D01*
X114291714Y-32583380D01*
X114672666Y-32297666D02*
X115148857Y-32297666D01*
X114577428Y-32583380D02*
X114910761Y-31583380D01*
X115244095Y-32583380D01*
X111664761Y-35980619D02*
X111569523Y-35933000D01*
X111474285Y-35837761D01*
X111331428Y-35694904D01*
X111236190Y-35647285D01*
X111140952Y-35647285D01*
X111188571Y-35885380D02*
X111093333Y-35837761D01*
X110998095Y-35742523D01*
X110950476Y-35552047D01*
X110950476Y-35218714D01*
X110998095Y-35028238D01*
X111093333Y-34933000D01*
X111188571Y-34885380D01*
X111379047Y-34885380D01*
X111474285Y-34933000D01*
X111569523Y-35028238D01*
X111617142Y-35218714D01*
X111617142Y-35552047D01*
X111569523Y-35742523D01*
X111474285Y-35837761D01*
X111379047Y-35885380D01*
X111188571Y-35885380D01*
X112569523Y-35885380D02*
X111998095Y-35885380D01*
X112283809Y-35885380D02*
X112283809Y-34885380D01*
X112188571Y-35028238D01*
X112093333Y-35123476D01*
X111998095Y-35171095D01*
G04 #@! TO.C,Q8*
X110966666Y-64968380D02*
X110966666Y-63968380D01*
X112014285Y-64968380D02*
X111680952Y-64492190D01*
X111442857Y-64968380D02*
X111442857Y-63968380D01*
X111823809Y-63968380D01*
X111919047Y-64016000D01*
X111966666Y-64063619D01*
X112014285Y-64158857D01*
X112014285Y-64301714D01*
X111966666Y-64396952D01*
X111919047Y-64444571D01*
X111823809Y-64492190D01*
X111442857Y-64492190D01*
X112919047Y-64968380D02*
X112442857Y-64968380D01*
X112442857Y-63968380D01*
X113204761Y-64063619D02*
X113252380Y-64016000D01*
X113347619Y-63968380D01*
X113585714Y-63968380D01*
X113680952Y-64016000D01*
X113728571Y-64063619D01*
X113776190Y-64158857D01*
X113776190Y-64254095D01*
X113728571Y-64396952D01*
X113157142Y-64968380D01*
X113776190Y-64968380D01*
X114157142Y-64063619D02*
X114204761Y-64016000D01*
X114300000Y-63968380D01*
X114538095Y-63968380D01*
X114633333Y-64016000D01*
X114680952Y-64063619D01*
X114728571Y-64158857D01*
X114728571Y-64254095D01*
X114680952Y-64396952D01*
X114109523Y-64968380D01*
X114728571Y-64968380D01*
X115347619Y-63968380D02*
X115442857Y-63968380D01*
X115538095Y-64016000D01*
X115585714Y-64063619D01*
X115633333Y-64158857D01*
X115680952Y-64349333D01*
X115680952Y-64587428D01*
X115633333Y-64777904D01*
X115585714Y-64873142D01*
X115538095Y-64920761D01*
X115442857Y-64968380D01*
X115347619Y-64968380D01*
X115252380Y-64920761D01*
X115204761Y-64873142D01*
X115157142Y-64777904D01*
X115109523Y-64587428D01*
X115109523Y-64349333D01*
X115157142Y-64158857D01*
X115204761Y-64063619D01*
X115252380Y-64016000D01*
X115347619Y-63968380D01*
X116014285Y-63968380D02*
X116633333Y-63968380D01*
X116300000Y-64349333D01*
X116442857Y-64349333D01*
X116538095Y-64396952D01*
X116585714Y-64444571D01*
X116633333Y-64539809D01*
X116633333Y-64777904D01*
X116585714Y-64873142D01*
X116538095Y-64920761D01*
X116442857Y-64968380D01*
X116157142Y-64968380D01*
X116061904Y-64920761D01*
X116014285Y-64873142D01*
X117061904Y-64968380D02*
X117061904Y-63968380D01*
X117633333Y-64968380D01*
X117633333Y-63968380D01*
X114204761Y-63539619D02*
X114109523Y-63492000D01*
X114014285Y-63396761D01*
X113871428Y-63253904D01*
X113776190Y-63206285D01*
X113680952Y-63206285D01*
X113728571Y-63444380D02*
X113633333Y-63396761D01*
X113538095Y-63301523D01*
X113490476Y-63111047D01*
X113490476Y-62777714D01*
X113538095Y-62587238D01*
X113633333Y-62492000D01*
X113728571Y-62444380D01*
X113919047Y-62444380D01*
X114014285Y-62492000D01*
X114109523Y-62587238D01*
X114157142Y-62777714D01*
X114157142Y-63111047D01*
X114109523Y-63301523D01*
X114014285Y-63396761D01*
X113919047Y-63444380D01*
X113728571Y-63444380D01*
X114728571Y-62872952D02*
X114633333Y-62825333D01*
X114585714Y-62777714D01*
X114538095Y-62682476D01*
X114538095Y-62634857D01*
X114585714Y-62539619D01*
X114633333Y-62492000D01*
X114728571Y-62444380D01*
X114919047Y-62444380D01*
X115014285Y-62492000D01*
X115061904Y-62539619D01*
X115109523Y-62634857D01*
X115109523Y-62682476D01*
X115061904Y-62777714D01*
X115014285Y-62825333D01*
X114919047Y-62872952D01*
X114728571Y-62872952D01*
X114633333Y-62920571D01*
X114585714Y-62968190D01*
X114538095Y-63063428D01*
X114538095Y-63253904D01*
X114585714Y-63349142D01*
X114633333Y-63396761D01*
X114728571Y-63444380D01*
X114919047Y-63444380D01*
X115014285Y-63396761D01*
X115061904Y-63349142D01*
X115109523Y-63253904D01*
X115109523Y-63063428D01*
X115061904Y-62968190D01*
X115014285Y-62920571D01*
X114919047Y-62872952D01*
G04 #@! TO.C,Q3*
X120650285Y-43489571D02*
X120793142Y-43537190D01*
X120840761Y-43584809D01*
X120888380Y-43680047D01*
X120888380Y-43822904D01*
X120840761Y-43918142D01*
X120793142Y-43965761D01*
X120697904Y-44013380D01*
X120316952Y-44013380D01*
X120316952Y-43013380D01*
X120650285Y-43013380D01*
X120745523Y-43061000D01*
X120793142Y-43108619D01*
X120840761Y-43203857D01*
X120840761Y-43299095D01*
X120793142Y-43394333D01*
X120745523Y-43441952D01*
X120650285Y-43489571D01*
X120316952Y-43489571D01*
X121650285Y-43489571D02*
X121316952Y-43489571D01*
X121316952Y-44013380D02*
X121316952Y-43013380D01*
X121793142Y-43013380D01*
X122126476Y-43108619D02*
X122174095Y-43061000D01*
X122269333Y-43013380D01*
X122507428Y-43013380D01*
X122602666Y-43061000D01*
X122650285Y-43108619D01*
X122697904Y-43203857D01*
X122697904Y-43299095D01*
X122650285Y-43441952D01*
X122078857Y-44013380D01*
X122697904Y-44013380D01*
X123555047Y-43346714D02*
X123555047Y-44013380D01*
X123316952Y-42965761D02*
X123078857Y-43680047D01*
X123697904Y-43680047D01*
X124507428Y-43346714D02*
X124507428Y-44013380D01*
X124269333Y-42965761D02*
X124031238Y-43680047D01*
X124650285Y-43680047D01*
X125364571Y-43489571D02*
X125507428Y-43537190D01*
X125555047Y-43584809D01*
X125602666Y-43680047D01*
X125602666Y-43822904D01*
X125555047Y-43918142D01*
X125507428Y-43965761D01*
X125412190Y-44013380D01*
X125031238Y-44013380D01*
X125031238Y-43013380D01*
X125364571Y-43013380D01*
X125459809Y-43061000D01*
X125507428Y-43108619D01*
X125555047Y-43203857D01*
X125555047Y-43299095D01*
X125507428Y-43394333D01*
X125459809Y-43441952D01*
X125364571Y-43489571D01*
X125031238Y-43489571D01*
X122459761Y-41060619D02*
X122364523Y-41013000D01*
X122269285Y-40917761D01*
X122126428Y-40774904D01*
X122031190Y-40727285D01*
X121935952Y-40727285D01*
X121983571Y-40965380D02*
X121888333Y-40917761D01*
X121793095Y-40822523D01*
X121745476Y-40632047D01*
X121745476Y-40298714D01*
X121793095Y-40108238D01*
X121888333Y-40013000D01*
X121983571Y-39965380D01*
X122174047Y-39965380D01*
X122269285Y-40013000D01*
X122364523Y-40108238D01*
X122412142Y-40298714D01*
X122412142Y-40632047D01*
X122364523Y-40822523D01*
X122269285Y-40917761D01*
X122174047Y-40965380D01*
X121983571Y-40965380D01*
X122745476Y-39965380D02*
X123364523Y-39965380D01*
X123031190Y-40346333D01*
X123174047Y-40346333D01*
X123269285Y-40393952D01*
X123316904Y-40441571D01*
X123364523Y-40536809D01*
X123364523Y-40774904D01*
X123316904Y-40870142D01*
X123269285Y-40917761D01*
X123174047Y-40965380D01*
X122888333Y-40965380D01*
X122793095Y-40917761D01*
X122745476Y-40870142D01*
G04 #@! TO.C,Q7*
X107783761Y-55570380D02*
X107783761Y-54570380D01*
X108164714Y-54570380D01*
X108259952Y-54618000D01*
X108307571Y-54665619D01*
X108355190Y-54760857D01*
X108355190Y-54903714D01*
X108307571Y-54998952D01*
X108259952Y-55046571D01*
X108164714Y-55094190D01*
X107783761Y-55094190D01*
X108736142Y-54665619D02*
X108783761Y-54618000D01*
X108879000Y-54570380D01*
X109117095Y-54570380D01*
X109212333Y-54618000D01*
X109259952Y-54665619D01*
X109307571Y-54760857D01*
X109307571Y-54856095D01*
X109259952Y-54998952D01*
X108688523Y-55570380D01*
X109307571Y-55570380D01*
X109736142Y-55570380D02*
X109736142Y-54570380D01*
X110307571Y-55570380D01*
X110307571Y-54570380D01*
X110736142Y-54665619D02*
X110783761Y-54618000D01*
X110879000Y-54570380D01*
X111117095Y-54570380D01*
X111212333Y-54618000D01*
X111259952Y-54665619D01*
X111307571Y-54760857D01*
X111307571Y-54856095D01*
X111259952Y-54998952D01*
X110688523Y-55570380D01*
X111307571Y-55570380D01*
X111688523Y-54665619D02*
X111736142Y-54618000D01*
X111831380Y-54570380D01*
X112069476Y-54570380D01*
X112164714Y-54618000D01*
X112212333Y-54665619D01*
X112259952Y-54760857D01*
X112259952Y-54856095D01*
X112212333Y-54998952D01*
X111640904Y-55570380D01*
X112259952Y-55570380D01*
X112640904Y-54665619D02*
X112688523Y-54618000D01*
X112783761Y-54570380D01*
X113021857Y-54570380D01*
X113117095Y-54618000D01*
X113164714Y-54665619D01*
X113212333Y-54760857D01*
X113212333Y-54856095D01*
X113164714Y-54998952D01*
X112593285Y-55570380D01*
X113212333Y-55570380D01*
X113593285Y-54665619D02*
X113640904Y-54618000D01*
X113736142Y-54570380D01*
X113974238Y-54570380D01*
X114069476Y-54618000D01*
X114117095Y-54665619D01*
X114164714Y-54760857D01*
X114164714Y-54856095D01*
X114117095Y-54998952D01*
X113545666Y-55570380D01*
X114164714Y-55570380D01*
X114545666Y-55284666D02*
X115021857Y-55284666D01*
X114450428Y-55570380D02*
X114783761Y-54570380D01*
X115117095Y-55570380D01*
X111791761Y-58586619D02*
X111696523Y-58539000D01*
X111601285Y-58443761D01*
X111458428Y-58300904D01*
X111363190Y-58253285D01*
X111267952Y-58253285D01*
X111315571Y-58491380D02*
X111220333Y-58443761D01*
X111125095Y-58348523D01*
X111077476Y-58158047D01*
X111077476Y-57824714D01*
X111125095Y-57634238D01*
X111220333Y-57539000D01*
X111315571Y-57491380D01*
X111506047Y-57491380D01*
X111601285Y-57539000D01*
X111696523Y-57634238D01*
X111744142Y-57824714D01*
X111744142Y-58158047D01*
X111696523Y-58348523D01*
X111601285Y-58443761D01*
X111506047Y-58491380D01*
X111315571Y-58491380D01*
X112077476Y-57491380D02*
X112744142Y-57491380D01*
X112315571Y-58491380D01*
G04 #@! TO.C,Q9*
X120650285Y-66222571D02*
X120793142Y-66270190D01*
X120840761Y-66317809D01*
X120888380Y-66413047D01*
X120888380Y-66555904D01*
X120840761Y-66651142D01*
X120793142Y-66698761D01*
X120697904Y-66746380D01*
X120316952Y-66746380D01*
X120316952Y-65746380D01*
X120650285Y-65746380D01*
X120745523Y-65794000D01*
X120793142Y-65841619D01*
X120840761Y-65936857D01*
X120840761Y-66032095D01*
X120793142Y-66127333D01*
X120745523Y-66174952D01*
X120650285Y-66222571D01*
X120316952Y-66222571D01*
X121650285Y-66222571D02*
X121316952Y-66222571D01*
X121316952Y-66746380D02*
X121316952Y-65746380D01*
X121793142Y-65746380D01*
X122126476Y-65841619D02*
X122174095Y-65794000D01*
X122269333Y-65746380D01*
X122507428Y-65746380D01*
X122602666Y-65794000D01*
X122650285Y-65841619D01*
X122697904Y-65936857D01*
X122697904Y-66032095D01*
X122650285Y-66174952D01*
X122078857Y-66746380D01*
X122697904Y-66746380D01*
X123555047Y-66079714D02*
X123555047Y-66746380D01*
X123316952Y-65698761D02*
X123078857Y-66413047D01*
X123697904Y-66413047D01*
X124507428Y-66079714D02*
X124507428Y-66746380D01*
X124269333Y-65698761D02*
X124031238Y-66413047D01*
X124650285Y-66413047D01*
X125364571Y-66222571D02*
X125507428Y-66270190D01*
X125555047Y-66317809D01*
X125602666Y-66413047D01*
X125602666Y-66555904D01*
X125555047Y-66651142D01*
X125507428Y-66698761D01*
X125412190Y-66746380D01*
X125031238Y-66746380D01*
X125031238Y-65746380D01*
X125364571Y-65746380D01*
X125459809Y-65794000D01*
X125507428Y-65841619D01*
X125555047Y-65936857D01*
X125555047Y-66032095D01*
X125507428Y-66127333D01*
X125459809Y-66174952D01*
X125364571Y-66222571D01*
X125031238Y-66222571D01*
X122459761Y-62777619D02*
X122364523Y-62730000D01*
X122269285Y-62634761D01*
X122126428Y-62491904D01*
X122031190Y-62444285D01*
X121935952Y-62444285D01*
X121983571Y-62682380D02*
X121888333Y-62634761D01*
X121793095Y-62539523D01*
X121745476Y-62349047D01*
X121745476Y-62015714D01*
X121793095Y-61825238D01*
X121888333Y-61730000D01*
X121983571Y-61682380D01*
X122174047Y-61682380D01*
X122269285Y-61730000D01*
X122364523Y-61825238D01*
X122412142Y-62015714D01*
X122412142Y-62349047D01*
X122364523Y-62539523D01*
X122269285Y-62634761D01*
X122174047Y-62682380D01*
X121983571Y-62682380D01*
X122888333Y-62682380D02*
X123078809Y-62682380D01*
X123174047Y-62634761D01*
X123221666Y-62587142D01*
X123316904Y-62444285D01*
X123364523Y-62253809D01*
X123364523Y-61872857D01*
X123316904Y-61777619D01*
X123269285Y-61730000D01*
X123174047Y-61682380D01*
X122983571Y-61682380D01*
X122888333Y-61730000D01*
X122840714Y-61777619D01*
X122793095Y-61872857D01*
X122793095Y-62110952D01*
X122840714Y-62206190D01*
X122888333Y-62253809D01*
X122983571Y-62301428D01*
X123174047Y-62301428D01*
X123269285Y-62253809D01*
X123316904Y-62206190D01*
X123364523Y-62110952D01*
G04 #@! TO.C,Q13*
X148423761Y-32583380D02*
X148423761Y-31583380D01*
X148804714Y-31583380D01*
X148899952Y-31631000D01*
X148947571Y-31678619D01*
X148995190Y-31773857D01*
X148995190Y-31916714D01*
X148947571Y-32011952D01*
X148899952Y-32059571D01*
X148804714Y-32107190D01*
X148423761Y-32107190D01*
X149376142Y-31678619D02*
X149423761Y-31631000D01*
X149519000Y-31583380D01*
X149757095Y-31583380D01*
X149852333Y-31631000D01*
X149899952Y-31678619D01*
X149947571Y-31773857D01*
X149947571Y-31869095D01*
X149899952Y-32011952D01*
X149328523Y-32583380D01*
X149947571Y-32583380D01*
X150376142Y-32583380D02*
X150376142Y-31583380D01*
X150947571Y-32583380D01*
X150947571Y-31583380D01*
X151376142Y-31678619D02*
X151423761Y-31631000D01*
X151519000Y-31583380D01*
X151757095Y-31583380D01*
X151852333Y-31631000D01*
X151899952Y-31678619D01*
X151947571Y-31773857D01*
X151947571Y-31869095D01*
X151899952Y-32011952D01*
X151328523Y-32583380D01*
X151947571Y-32583380D01*
X152328523Y-31678619D02*
X152376142Y-31631000D01*
X152471380Y-31583380D01*
X152709476Y-31583380D01*
X152804714Y-31631000D01*
X152852333Y-31678619D01*
X152899952Y-31773857D01*
X152899952Y-31869095D01*
X152852333Y-32011952D01*
X152280904Y-32583380D01*
X152899952Y-32583380D01*
X153280904Y-31678619D02*
X153328523Y-31631000D01*
X153423761Y-31583380D01*
X153661857Y-31583380D01*
X153757095Y-31631000D01*
X153804714Y-31678619D01*
X153852333Y-31773857D01*
X153852333Y-31869095D01*
X153804714Y-32011952D01*
X153233285Y-32583380D01*
X153852333Y-32583380D01*
X154233285Y-31678619D02*
X154280904Y-31631000D01*
X154376142Y-31583380D01*
X154614238Y-31583380D01*
X154709476Y-31631000D01*
X154757095Y-31678619D01*
X154804714Y-31773857D01*
X154804714Y-31869095D01*
X154757095Y-32011952D01*
X154185666Y-32583380D01*
X154804714Y-32583380D01*
X155185666Y-32297666D02*
X155661857Y-32297666D01*
X155090428Y-32583380D02*
X155423761Y-31583380D01*
X155757095Y-32583380D01*
X151701571Y-35599619D02*
X151606333Y-35552000D01*
X151511095Y-35456761D01*
X151368238Y-35313904D01*
X151273000Y-35266285D01*
X151177761Y-35266285D01*
X151225380Y-35504380D02*
X151130142Y-35456761D01*
X151034904Y-35361523D01*
X150987285Y-35171047D01*
X150987285Y-34837714D01*
X151034904Y-34647238D01*
X151130142Y-34552000D01*
X151225380Y-34504380D01*
X151415857Y-34504380D01*
X151511095Y-34552000D01*
X151606333Y-34647238D01*
X151653952Y-34837714D01*
X151653952Y-35171047D01*
X151606333Y-35361523D01*
X151511095Y-35456761D01*
X151415857Y-35504380D01*
X151225380Y-35504380D01*
X152606333Y-35504380D02*
X152034904Y-35504380D01*
X152320619Y-35504380D02*
X152320619Y-34504380D01*
X152225380Y-34647238D01*
X152130142Y-34742476D01*
X152034904Y-34790095D01*
X152939666Y-34504380D02*
X153558714Y-34504380D01*
X153225380Y-34885333D01*
X153368238Y-34885333D01*
X153463476Y-34932952D01*
X153511095Y-34980571D01*
X153558714Y-35075809D01*
X153558714Y-35313904D01*
X153511095Y-35409142D01*
X153463476Y-35456761D01*
X153368238Y-35504380D01*
X153082523Y-35504380D01*
X152987285Y-35456761D01*
X152939666Y-35409142D01*
G04 #@! TO.C,Q15*
X139192285Y-43108571D02*
X139335142Y-43156190D01*
X139382761Y-43203809D01*
X139430380Y-43299047D01*
X139430380Y-43441904D01*
X139382761Y-43537142D01*
X139335142Y-43584761D01*
X139239904Y-43632380D01*
X138858952Y-43632380D01*
X138858952Y-42632380D01*
X139192285Y-42632380D01*
X139287523Y-42680000D01*
X139335142Y-42727619D01*
X139382761Y-42822857D01*
X139382761Y-42918095D01*
X139335142Y-43013333D01*
X139287523Y-43060952D01*
X139192285Y-43108571D01*
X138858952Y-43108571D01*
X140192285Y-43108571D02*
X139858952Y-43108571D01*
X139858952Y-43632380D02*
X139858952Y-42632380D01*
X140335142Y-42632380D01*
X140668476Y-42727619D02*
X140716095Y-42680000D01*
X140811333Y-42632380D01*
X141049428Y-42632380D01*
X141144666Y-42680000D01*
X141192285Y-42727619D01*
X141239904Y-42822857D01*
X141239904Y-42918095D01*
X141192285Y-43060952D01*
X140620857Y-43632380D01*
X141239904Y-43632380D01*
X142097047Y-42965714D02*
X142097047Y-43632380D01*
X141858952Y-42584761D02*
X141620857Y-43299047D01*
X142239904Y-43299047D01*
X143049428Y-42965714D02*
X143049428Y-43632380D01*
X142811333Y-42584761D02*
X142573238Y-43299047D01*
X143192285Y-43299047D01*
X143906571Y-43108571D02*
X144049428Y-43156190D01*
X144097047Y-43203809D01*
X144144666Y-43299047D01*
X144144666Y-43441904D01*
X144097047Y-43537142D01*
X144049428Y-43584761D01*
X143954190Y-43632380D01*
X143573238Y-43632380D01*
X143573238Y-42632380D01*
X143906571Y-42632380D01*
X144001809Y-42680000D01*
X144049428Y-42727619D01*
X144097047Y-42822857D01*
X144097047Y-42918095D01*
X144049428Y-43013333D01*
X144001809Y-43060952D01*
X143906571Y-43108571D01*
X143573238Y-43108571D01*
X141033571Y-39917619D02*
X140938333Y-39870000D01*
X140843095Y-39774761D01*
X140700238Y-39631904D01*
X140605000Y-39584285D01*
X140509761Y-39584285D01*
X140557380Y-39822380D02*
X140462142Y-39774761D01*
X140366904Y-39679523D01*
X140319285Y-39489047D01*
X140319285Y-39155714D01*
X140366904Y-38965238D01*
X140462142Y-38870000D01*
X140557380Y-38822380D01*
X140747857Y-38822380D01*
X140843095Y-38870000D01*
X140938333Y-38965238D01*
X140985952Y-39155714D01*
X140985952Y-39489047D01*
X140938333Y-39679523D01*
X140843095Y-39774761D01*
X140747857Y-39822380D01*
X140557380Y-39822380D01*
X141938333Y-39822380D02*
X141366904Y-39822380D01*
X141652619Y-39822380D02*
X141652619Y-38822380D01*
X141557380Y-38965238D01*
X141462142Y-39060476D01*
X141366904Y-39108095D01*
X142843095Y-38822380D02*
X142366904Y-38822380D01*
X142319285Y-39298571D01*
X142366904Y-39250952D01*
X142462142Y-39203333D01*
X142700238Y-39203333D01*
X142795476Y-39250952D01*
X142843095Y-39298571D01*
X142890714Y-39393809D01*
X142890714Y-39631904D01*
X142843095Y-39727142D01*
X142795476Y-39774761D01*
X142700238Y-39822380D01*
X142462142Y-39822380D01*
X142366904Y-39774761D01*
X142319285Y-39727142D01*
G04 #@! TO.C,Q4*
X108037761Y-44013380D02*
X108037761Y-43013380D01*
X108418714Y-43013380D01*
X108513952Y-43061000D01*
X108561571Y-43108619D01*
X108609190Y-43203857D01*
X108609190Y-43346714D01*
X108561571Y-43441952D01*
X108513952Y-43489571D01*
X108418714Y-43537190D01*
X108037761Y-43537190D01*
X108990142Y-43108619D02*
X109037761Y-43061000D01*
X109133000Y-43013380D01*
X109371095Y-43013380D01*
X109466333Y-43061000D01*
X109513952Y-43108619D01*
X109561571Y-43203857D01*
X109561571Y-43299095D01*
X109513952Y-43441952D01*
X108942523Y-44013380D01*
X109561571Y-44013380D01*
X109990142Y-44013380D02*
X109990142Y-43013380D01*
X110561571Y-44013380D01*
X110561571Y-43013380D01*
X110990142Y-43108619D02*
X111037761Y-43061000D01*
X111133000Y-43013380D01*
X111371095Y-43013380D01*
X111466333Y-43061000D01*
X111513952Y-43108619D01*
X111561571Y-43203857D01*
X111561571Y-43299095D01*
X111513952Y-43441952D01*
X110942523Y-44013380D01*
X111561571Y-44013380D01*
X111942523Y-43108619D02*
X111990142Y-43061000D01*
X112085380Y-43013380D01*
X112323476Y-43013380D01*
X112418714Y-43061000D01*
X112466333Y-43108619D01*
X112513952Y-43203857D01*
X112513952Y-43299095D01*
X112466333Y-43441952D01*
X111894904Y-44013380D01*
X112513952Y-44013380D01*
X112894904Y-43108619D02*
X112942523Y-43061000D01*
X113037761Y-43013380D01*
X113275857Y-43013380D01*
X113371095Y-43061000D01*
X113418714Y-43108619D01*
X113466333Y-43203857D01*
X113466333Y-43299095D01*
X113418714Y-43441952D01*
X112847285Y-44013380D01*
X113466333Y-44013380D01*
X113847285Y-43108619D02*
X113894904Y-43061000D01*
X113990142Y-43013380D01*
X114228238Y-43013380D01*
X114323476Y-43061000D01*
X114371095Y-43108619D01*
X114418714Y-43203857D01*
X114418714Y-43299095D01*
X114371095Y-43441952D01*
X113799666Y-44013380D01*
X114418714Y-44013380D01*
X114799666Y-43727666D02*
X115275857Y-43727666D01*
X114704428Y-44013380D02*
X115037761Y-43013380D01*
X115371095Y-44013380D01*
X111664761Y-47410619D02*
X111569523Y-47363000D01*
X111474285Y-47267761D01*
X111331428Y-47124904D01*
X111236190Y-47077285D01*
X111140952Y-47077285D01*
X111188571Y-47315380D02*
X111093333Y-47267761D01*
X110998095Y-47172523D01*
X110950476Y-46982047D01*
X110950476Y-46648714D01*
X110998095Y-46458238D01*
X111093333Y-46363000D01*
X111188571Y-46315380D01*
X111379047Y-46315380D01*
X111474285Y-46363000D01*
X111569523Y-46458238D01*
X111617142Y-46648714D01*
X111617142Y-46982047D01*
X111569523Y-47172523D01*
X111474285Y-47267761D01*
X111379047Y-47315380D01*
X111188571Y-47315380D01*
X112474285Y-46648714D02*
X112474285Y-47315380D01*
X112236190Y-46267761D02*
X111998095Y-46982047D01*
X112617142Y-46982047D01*
G04 #@! TO.C,Q5*
X110966666Y-53665380D02*
X110966666Y-52665380D01*
X112014285Y-53665380D02*
X111680952Y-53189190D01*
X111442857Y-53665380D02*
X111442857Y-52665380D01*
X111823809Y-52665380D01*
X111919047Y-52713000D01*
X111966666Y-52760619D01*
X112014285Y-52855857D01*
X112014285Y-52998714D01*
X111966666Y-53093952D01*
X111919047Y-53141571D01*
X111823809Y-53189190D01*
X111442857Y-53189190D01*
X112919047Y-53665380D02*
X112442857Y-53665380D01*
X112442857Y-52665380D01*
X113204761Y-52760619D02*
X113252380Y-52713000D01*
X113347619Y-52665380D01*
X113585714Y-52665380D01*
X113680952Y-52713000D01*
X113728571Y-52760619D01*
X113776190Y-52855857D01*
X113776190Y-52951095D01*
X113728571Y-53093952D01*
X113157142Y-53665380D01*
X113776190Y-53665380D01*
X114157142Y-52760619D02*
X114204761Y-52713000D01*
X114300000Y-52665380D01*
X114538095Y-52665380D01*
X114633333Y-52713000D01*
X114680952Y-52760619D01*
X114728571Y-52855857D01*
X114728571Y-52951095D01*
X114680952Y-53093952D01*
X114109523Y-53665380D01*
X114728571Y-53665380D01*
X115347619Y-52665380D02*
X115442857Y-52665380D01*
X115538095Y-52713000D01*
X115585714Y-52760619D01*
X115633333Y-52855857D01*
X115680952Y-53046333D01*
X115680952Y-53284428D01*
X115633333Y-53474904D01*
X115585714Y-53570142D01*
X115538095Y-53617761D01*
X115442857Y-53665380D01*
X115347619Y-53665380D01*
X115252380Y-53617761D01*
X115204761Y-53570142D01*
X115157142Y-53474904D01*
X115109523Y-53284428D01*
X115109523Y-53046333D01*
X115157142Y-52855857D01*
X115204761Y-52760619D01*
X115252380Y-52713000D01*
X115347619Y-52665380D01*
X116014285Y-52665380D02*
X116633333Y-52665380D01*
X116300000Y-53046333D01*
X116442857Y-53046333D01*
X116538095Y-53093952D01*
X116585714Y-53141571D01*
X116633333Y-53236809D01*
X116633333Y-53474904D01*
X116585714Y-53570142D01*
X116538095Y-53617761D01*
X116442857Y-53665380D01*
X116157142Y-53665380D01*
X116061904Y-53617761D01*
X116014285Y-53570142D01*
X117061904Y-53665380D02*
X117061904Y-52665380D01*
X117633333Y-53665380D01*
X117633333Y-52665380D01*
X114077761Y-52236619D02*
X113982523Y-52189000D01*
X113887285Y-52093761D01*
X113744428Y-51950904D01*
X113649190Y-51903285D01*
X113553952Y-51903285D01*
X113601571Y-52141380D02*
X113506333Y-52093761D01*
X113411095Y-51998523D01*
X113363476Y-51808047D01*
X113363476Y-51474714D01*
X113411095Y-51284238D01*
X113506333Y-51189000D01*
X113601571Y-51141380D01*
X113792047Y-51141380D01*
X113887285Y-51189000D01*
X113982523Y-51284238D01*
X114030142Y-51474714D01*
X114030142Y-51808047D01*
X113982523Y-51998523D01*
X113887285Y-52093761D01*
X113792047Y-52141380D01*
X113601571Y-52141380D01*
X114934904Y-51141380D02*
X114458714Y-51141380D01*
X114411095Y-51617571D01*
X114458714Y-51569952D01*
X114553952Y-51522333D01*
X114792047Y-51522333D01*
X114887285Y-51569952D01*
X114934904Y-51617571D01*
X114982523Y-51712809D01*
X114982523Y-51950904D01*
X114934904Y-52046142D01*
X114887285Y-52093761D01*
X114792047Y-52141380D01*
X114553952Y-52141380D01*
X114458714Y-52093761D01*
X114411095Y-52046142D01*
G04 #@! TO.C,Q6*
X120523285Y-54665571D02*
X120666142Y-54713190D01*
X120713761Y-54760809D01*
X120761380Y-54856047D01*
X120761380Y-54998904D01*
X120713761Y-55094142D01*
X120666142Y-55141761D01*
X120570904Y-55189380D01*
X120189952Y-55189380D01*
X120189952Y-54189380D01*
X120523285Y-54189380D01*
X120618523Y-54237000D01*
X120666142Y-54284619D01*
X120713761Y-54379857D01*
X120713761Y-54475095D01*
X120666142Y-54570333D01*
X120618523Y-54617952D01*
X120523285Y-54665571D01*
X120189952Y-54665571D01*
X121523285Y-54665571D02*
X121189952Y-54665571D01*
X121189952Y-55189380D02*
X121189952Y-54189380D01*
X121666142Y-54189380D01*
X121999476Y-54284619D02*
X122047095Y-54237000D01*
X122142333Y-54189380D01*
X122380428Y-54189380D01*
X122475666Y-54237000D01*
X122523285Y-54284619D01*
X122570904Y-54379857D01*
X122570904Y-54475095D01*
X122523285Y-54617952D01*
X121951857Y-55189380D01*
X122570904Y-55189380D01*
X123428047Y-54522714D02*
X123428047Y-55189380D01*
X123189952Y-54141761D02*
X122951857Y-54856047D01*
X123570904Y-54856047D01*
X124380428Y-54522714D02*
X124380428Y-55189380D01*
X124142333Y-54141761D02*
X123904238Y-54856047D01*
X124523285Y-54856047D01*
X125237571Y-54665571D02*
X125380428Y-54713190D01*
X125428047Y-54760809D01*
X125475666Y-54856047D01*
X125475666Y-54998904D01*
X125428047Y-55094142D01*
X125380428Y-55141761D01*
X125285190Y-55189380D01*
X124904238Y-55189380D01*
X124904238Y-54189380D01*
X125237571Y-54189380D01*
X125332809Y-54237000D01*
X125380428Y-54284619D01*
X125428047Y-54379857D01*
X125428047Y-54475095D01*
X125380428Y-54570333D01*
X125332809Y-54617952D01*
X125237571Y-54665571D01*
X124904238Y-54665571D01*
X122459761Y-51347619D02*
X122364523Y-51300000D01*
X122269285Y-51204761D01*
X122126428Y-51061904D01*
X122031190Y-51014285D01*
X121935952Y-51014285D01*
X121983571Y-51252380D02*
X121888333Y-51204761D01*
X121793095Y-51109523D01*
X121745476Y-50919047D01*
X121745476Y-50585714D01*
X121793095Y-50395238D01*
X121888333Y-50300000D01*
X121983571Y-50252380D01*
X122174047Y-50252380D01*
X122269285Y-50300000D01*
X122364523Y-50395238D01*
X122412142Y-50585714D01*
X122412142Y-50919047D01*
X122364523Y-51109523D01*
X122269285Y-51204761D01*
X122174047Y-51252380D01*
X121983571Y-51252380D01*
X123269285Y-50252380D02*
X123078809Y-50252380D01*
X122983571Y-50300000D01*
X122935952Y-50347619D01*
X122840714Y-50490476D01*
X122793095Y-50680952D01*
X122793095Y-51061904D01*
X122840714Y-51157142D01*
X122888333Y-51204761D01*
X122983571Y-51252380D01*
X123174047Y-51252380D01*
X123269285Y-51204761D01*
X123316904Y-51157142D01*
X123364523Y-51061904D01*
X123364523Y-50823809D01*
X123316904Y-50728571D01*
X123269285Y-50680952D01*
X123174047Y-50633333D01*
X122983571Y-50633333D01*
X122888333Y-50680952D01*
X122840714Y-50728571D01*
X122793095Y-50823809D01*
G04 #@! TO.C,Q10*
X108164761Y-67127380D02*
X108164761Y-66127380D01*
X108545714Y-66127380D01*
X108640952Y-66175000D01*
X108688571Y-66222619D01*
X108736190Y-66317857D01*
X108736190Y-66460714D01*
X108688571Y-66555952D01*
X108640952Y-66603571D01*
X108545714Y-66651190D01*
X108164761Y-66651190D01*
X109117142Y-66222619D02*
X109164761Y-66175000D01*
X109260000Y-66127380D01*
X109498095Y-66127380D01*
X109593333Y-66175000D01*
X109640952Y-66222619D01*
X109688571Y-66317857D01*
X109688571Y-66413095D01*
X109640952Y-66555952D01*
X109069523Y-67127380D01*
X109688571Y-67127380D01*
X110117142Y-67127380D02*
X110117142Y-66127380D01*
X110688571Y-67127380D01*
X110688571Y-66127380D01*
X111117142Y-66222619D02*
X111164761Y-66175000D01*
X111260000Y-66127380D01*
X111498095Y-66127380D01*
X111593333Y-66175000D01*
X111640952Y-66222619D01*
X111688571Y-66317857D01*
X111688571Y-66413095D01*
X111640952Y-66555952D01*
X111069523Y-67127380D01*
X111688571Y-67127380D01*
X112069523Y-66222619D02*
X112117142Y-66175000D01*
X112212380Y-66127380D01*
X112450476Y-66127380D01*
X112545714Y-66175000D01*
X112593333Y-66222619D01*
X112640952Y-66317857D01*
X112640952Y-66413095D01*
X112593333Y-66555952D01*
X112021904Y-67127380D01*
X112640952Y-67127380D01*
X113021904Y-66222619D02*
X113069523Y-66175000D01*
X113164761Y-66127380D01*
X113402857Y-66127380D01*
X113498095Y-66175000D01*
X113545714Y-66222619D01*
X113593333Y-66317857D01*
X113593333Y-66413095D01*
X113545714Y-66555952D01*
X112974285Y-67127380D01*
X113593333Y-67127380D01*
X113974285Y-66222619D02*
X114021904Y-66175000D01*
X114117142Y-66127380D01*
X114355238Y-66127380D01*
X114450476Y-66175000D01*
X114498095Y-66222619D01*
X114545714Y-66317857D01*
X114545714Y-66413095D01*
X114498095Y-66555952D01*
X113926666Y-67127380D01*
X114545714Y-67127380D01*
X114926666Y-66841666D02*
X115402857Y-66841666D01*
X114831428Y-67127380D02*
X115164761Y-66127380D01*
X115498095Y-67127380D01*
X111315571Y-70016619D02*
X111220333Y-69969000D01*
X111125095Y-69873761D01*
X110982238Y-69730904D01*
X110887000Y-69683285D01*
X110791761Y-69683285D01*
X110839380Y-69921380D02*
X110744142Y-69873761D01*
X110648904Y-69778523D01*
X110601285Y-69588047D01*
X110601285Y-69254714D01*
X110648904Y-69064238D01*
X110744142Y-68969000D01*
X110839380Y-68921380D01*
X111029857Y-68921380D01*
X111125095Y-68969000D01*
X111220333Y-69064238D01*
X111267952Y-69254714D01*
X111267952Y-69588047D01*
X111220333Y-69778523D01*
X111125095Y-69873761D01*
X111029857Y-69921380D01*
X110839380Y-69921380D01*
X112220333Y-69921380D02*
X111648904Y-69921380D01*
X111934619Y-69921380D02*
X111934619Y-68921380D01*
X111839380Y-69064238D01*
X111744142Y-69159476D01*
X111648904Y-69207095D01*
X112839380Y-68921380D02*
X112934619Y-68921380D01*
X113029857Y-68969000D01*
X113077476Y-69016619D01*
X113125095Y-69111857D01*
X113172714Y-69302333D01*
X113172714Y-69540428D01*
X113125095Y-69730904D01*
X113077476Y-69826142D01*
X113029857Y-69873761D01*
X112934619Y-69921380D01*
X112839380Y-69921380D01*
X112744142Y-69873761D01*
X112696523Y-69826142D01*
X112648904Y-69730904D01*
X112601285Y-69540428D01*
X112601285Y-69302333D01*
X112648904Y-69111857D01*
X112696523Y-69016619D01*
X112744142Y-68969000D01*
X112839380Y-68921380D01*
G04 #@! TO.C,Q11*
X110966666Y-76525380D02*
X110966666Y-75525380D01*
X112014285Y-76525380D02*
X111680952Y-76049190D01*
X111442857Y-76525380D02*
X111442857Y-75525380D01*
X111823809Y-75525380D01*
X111919047Y-75573000D01*
X111966666Y-75620619D01*
X112014285Y-75715857D01*
X112014285Y-75858714D01*
X111966666Y-75953952D01*
X111919047Y-76001571D01*
X111823809Y-76049190D01*
X111442857Y-76049190D01*
X112919047Y-76525380D02*
X112442857Y-76525380D01*
X112442857Y-75525380D01*
X113204761Y-75620619D02*
X113252380Y-75573000D01*
X113347619Y-75525380D01*
X113585714Y-75525380D01*
X113680952Y-75573000D01*
X113728571Y-75620619D01*
X113776190Y-75715857D01*
X113776190Y-75811095D01*
X113728571Y-75953952D01*
X113157142Y-76525380D01*
X113776190Y-76525380D01*
X114157142Y-75620619D02*
X114204761Y-75573000D01*
X114300000Y-75525380D01*
X114538095Y-75525380D01*
X114633333Y-75573000D01*
X114680952Y-75620619D01*
X114728571Y-75715857D01*
X114728571Y-75811095D01*
X114680952Y-75953952D01*
X114109523Y-76525380D01*
X114728571Y-76525380D01*
X115347619Y-75525380D02*
X115442857Y-75525380D01*
X115538095Y-75573000D01*
X115585714Y-75620619D01*
X115633333Y-75715857D01*
X115680952Y-75906333D01*
X115680952Y-76144428D01*
X115633333Y-76334904D01*
X115585714Y-76430142D01*
X115538095Y-76477761D01*
X115442857Y-76525380D01*
X115347619Y-76525380D01*
X115252380Y-76477761D01*
X115204761Y-76430142D01*
X115157142Y-76334904D01*
X115109523Y-76144428D01*
X115109523Y-75906333D01*
X115157142Y-75715857D01*
X115204761Y-75620619D01*
X115252380Y-75573000D01*
X115347619Y-75525380D01*
X116014285Y-75525380D02*
X116633333Y-75525380D01*
X116300000Y-75906333D01*
X116442857Y-75906333D01*
X116538095Y-75953952D01*
X116585714Y-76001571D01*
X116633333Y-76096809D01*
X116633333Y-76334904D01*
X116585714Y-76430142D01*
X116538095Y-76477761D01*
X116442857Y-76525380D01*
X116157142Y-76525380D01*
X116061904Y-76477761D01*
X116014285Y-76430142D01*
X117061904Y-76525380D02*
X117061904Y-75525380D01*
X117633333Y-76525380D01*
X117633333Y-75525380D01*
X113728571Y-75096619D02*
X113633333Y-75049000D01*
X113538095Y-74953761D01*
X113395238Y-74810904D01*
X113300000Y-74763285D01*
X113204761Y-74763285D01*
X113252380Y-75001380D02*
X113157142Y-74953761D01*
X113061904Y-74858523D01*
X113014285Y-74668047D01*
X113014285Y-74334714D01*
X113061904Y-74144238D01*
X113157142Y-74049000D01*
X113252380Y-74001380D01*
X113442857Y-74001380D01*
X113538095Y-74049000D01*
X113633333Y-74144238D01*
X113680952Y-74334714D01*
X113680952Y-74668047D01*
X113633333Y-74858523D01*
X113538095Y-74953761D01*
X113442857Y-75001380D01*
X113252380Y-75001380D01*
X114633333Y-75001380D02*
X114061904Y-75001380D01*
X114347619Y-75001380D02*
X114347619Y-74001380D01*
X114252380Y-74144238D01*
X114157142Y-74239476D01*
X114061904Y-74287095D01*
X115585714Y-75001380D02*
X115014285Y-75001380D01*
X115300000Y-75001380D02*
X115300000Y-74001380D01*
X115204761Y-74144238D01*
X115109523Y-74239476D01*
X115014285Y-74287095D01*
G04 #@! TO.C,Q12*
X120396285Y-77652571D02*
X120539142Y-77700190D01*
X120586761Y-77747809D01*
X120634380Y-77843047D01*
X120634380Y-77985904D01*
X120586761Y-78081142D01*
X120539142Y-78128761D01*
X120443904Y-78176380D01*
X120062952Y-78176380D01*
X120062952Y-77176380D01*
X120396285Y-77176380D01*
X120491523Y-77224000D01*
X120539142Y-77271619D01*
X120586761Y-77366857D01*
X120586761Y-77462095D01*
X120539142Y-77557333D01*
X120491523Y-77604952D01*
X120396285Y-77652571D01*
X120062952Y-77652571D01*
X121396285Y-77652571D02*
X121062952Y-77652571D01*
X121062952Y-78176380D02*
X121062952Y-77176380D01*
X121539142Y-77176380D01*
X121872476Y-77271619D02*
X121920095Y-77224000D01*
X122015333Y-77176380D01*
X122253428Y-77176380D01*
X122348666Y-77224000D01*
X122396285Y-77271619D01*
X122443904Y-77366857D01*
X122443904Y-77462095D01*
X122396285Y-77604952D01*
X121824857Y-78176380D01*
X122443904Y-78176380D01*
X123301047Y-77509714D02*
X123301047Y-78176380D01*
X123062952Y-77128761D02*
X122824857Y-77843047D01*
X123443904Y-77843047D01*
X124253428Y-77509714D02*
X124253428Y-78176380D01*
X124015333Y-77128761D02*
X123777238Y-77843047D01*
X124396285Y-77843047D01*
X125110571Y-77652571D02*
X125253428Y-77700190D01*
X125301047Y-77747809D01*
X125348666Y-77843047D01*
X125348666Y-77985904D01*
X125301047Y-78081142D01*
X125253428Y-78128761D01*
X125158190Y-78176380D01*
X124777238Y-78176380D01*
X124777238Y-77176380D01*
X125110571Y-77176380D01*
X125205809Y-77224000D01*
X125253428Y-77271619D01*
X125301047Y-77366857D01*
X125301047Y-77462095D01*
X125253428Y-77557333D01*
X125205809Y-77604952D01*
X125110571Y-77652571D01*
X124777238Y-77652571D01*
X121983571Y-74207619D02*
X121888333Y-74160000D01*
X121793095Y-74064761D01*
X121650238Y-73921904D01*
X121555000Y-73874285D01*
X121459761Y-73874285D01*
X121507380Y-74112380D02*
X121412142Y-74064761D01*
X121316904Y-73969523D01*
X121269285Y-73779047D01*
X121269285Y-73445714D01*
X121316904Y-73255238D01*
X121412142Y-73160000D01*
X121507380Y-73112380D01*
X121697857Y-73112380D01*
X121793095Y-73160000D01*
X121888333Y-73255238D01*
X121935952Y-73445714D01*
X121935952Y-73779047D01*
X121888333Y-73969523D01*
X121793095Y-74064761D01*
X121697857Y-74112380D01*
X121507380Y-74112380D01*
X122888333Y-74112380D02*
X122316904Y-74112380D01*
X122602619Y-74112380D02*
X122602619Y-73112380D01*
X122507380Y-73255238D01*
X122412142Y-73350476D01*
X122316904Y-73398095D01*
X123269285Y-73207619D02*
X123316904Y-73160000D01*
X123412142Y-73112380D01*
X123650238Y-73112380D01*
X123745476Y-73160000D01*
X123793095Y-73207619D01*
X123840714Y-73302857D01*
X123840714Y-73398095D01*
X123793095Y-73540952D01*
X123221666Y-74112380D01*
X123840714Y-74112380D01*
G04 #@! TO.C,Q16*
X148804761Y-44140380D02*
X148804761Y-43140380D01*
X149185714Y-43140380D01*
X149280952Y-43188000D01*
X149328571Y-43235619D01*
X149376190Y-43330857D01*
X149376190Y-43473714D01*
X149328571Y-43568952D01*
X149280952Y-43616571D01*
X149185714Y-43664190D01*
X148804761Y-43664190D01*
X149757142Y-43235619D02*
X149804761Y-43188000D01*
X149900000Y-43140380D01*
X150138095Y-43140380D01*
X150233333Y-43188000D01*
X150280952Y-43235619D01*
X150328571Y-43330857D01*
X150328571Y-43426095D01*
X150280952Y-43568952D01*
X149709523Y-44140380D01*
X150328571Y-44140380D01*
X150757142Y-44140380D02*
X150757142Y-43140380D01*
X151328571Y-44140380D01*
X151328571Y-43140380D01*
X151757142Y-43235619D02*
X151804761Y-43188000D01*
X151900000Y-43140380D01*
X152138095Y-43140380D01*
X152233333Y-43188000D01*
X152280952Y-43235619D01*
X152328571Y-43330857D01*
X152328571Y-43426095D01*
X152280952Y-43568952D01*
X151709523Y-44140380D01*
X152328571Y-44140380D01*
X152709523Y-43235619D02*
X152757142Y-43188000D01*
X152852380Y-43140380D01*
X153090476Y-43140380D01*
X153185714Y-43188000D01*
X153233333Y-43235619D01*
X153280952Y-43330857D01*
X153280952Y-43426095D01*
X153233333Y-43568952D01*
X152661904Y-44140380D01*
X153280952Y-44140380D01*
X153661904Y-43235619D02*
X153709523Y-43188000D01*
X153804761Y-43140380D01*
X154042857Y-43140380D01*
X154138095Y-43188000D01*
X154185714Y-43235619D01*
X154233333Y-43330857D01*
X154233333Y-43426095D01*
X154185714Y-43568952D01*
X153614285Y-44140380D01*
X154233333Y-44140380D01*
X154614285Y-43235619D02*
X154661904Y-43188000D01*
X154757142Y-43140380D01*
X154995238Y-43140380D01*
X155090476Y-43188000D01*
X155138095Y-43235619D01*
X155185714Y-43330857D01*
X155185714Y-43426095D01*
X155138095Y-43568952D01*
X154566666Y-44140380D01*
X155185714Y-44140380D01*
X155566666Y-43854666D02*
X156042857Y-43854666D01*
X155471428Y-44140380D02*
X155804761Y-43140380D01*
X156138095Y-44140380D01*
X151828571Y-47029619D02*
X151733333Y-46982000D01*
X151638095Y-46886761D01*
X151495238Y-46743904D01*
X151400000Y-46696285D01*
X151304761Y-46696285D01*
X151352380Y-46934380D02*
X151257142Y-46886761D01*
X151161904Y-46791523D01*
X151114285Y-46601047D01*
X151114285Y-46267714D01*
X151161904Y-46077238D01*
X151257142Y-45982000D01*
X151352380Y-45934380D01*
X151542857Y-45934380D01*
X151638095Y-45982000D01*
X151733333Y-46077238D01*
X151780952Y-46267714D01*
X151780952Y-46601047D01*
X151733333Y-46791523D01*
X151638095Y-46886761D01*
X151542857Y-46934380D01*
X151352380Y-46934380D01*
X152733333Y-46934380D02*
X152161904Y-46934380D01*
X152447619Y-46934380D02*
X152447619Y-45934380D01*
X152352380Y-46077238D01*
X152257142Y-46172476D01*
X152161904Y-46220095D01*
X153590476Y-45934380D02*
X153400000Y-45934380D01*
X153304761Y-45982000D01*
X153257142Y-46029619D01*
X153161904Y-46172476D01*
X153114285Y-46362952D01*
X153114285Y-46743904D01*
X153161904Y-46839142D01*
X153209523Y-46886761D01*
X153304761Y-46934380D01*
X153495238Y-46934380D01*
X153590476Y-46886761D01*
X153638095Y-46839142D01*
X153685714Y-46743904D01*
X153685714Y-46505809D01*
X153638095Y-46410571D01*
X153590476Y-46362952D01*
X153495238Y-46315333D01*
X153304761Y-46315333D01*
X153209523Y-46362952D01*
X153161904Y-46410571D01*
X153114285Y-46505809D01*
G04 #@! TO.C,Q17*
X146780666Y-52395380D02*
X146780666Y-51395380D01*
X147828285Y-52395380D02*
X147494952Y-51919190D01*
X147256857Y-52395380D02*
X147256857Y-51395380D01*
X147637809Y-51395380D01*
X147733047Y-51443000D01*
X147780666Y-51490619D01*
X147828285Y-51585857D01*
X147828285Y-51728714D01*
X147780666Y-51823952D01*
X147733047Y-51871571D01*
X147637809Y-51919190D01*
X147256857Y-51919190D01*
X148733047Y-52395380D02*
X148256857Y-52395380D01*
X148256857Y-51395380D01*
X149018761Y-51490619D02*
X149066380Y-51443000D01*
X149161619Y-51395380D01*
X149399714Y-51395380D01*
X149494952Y-51443000D01*
X149542571Y-51490619D01*
X149590190Y-51585857D01*
X149590190Y-51681095D01*
X149542571Y-51823952D01*
X148971142Y-52395380D01*
X149590190Y-52395380D01*
X149971142Y-51490619D02*
X150018761Y-51443000D01*
X150114000Y-51395380D01*
X150352095Y-51395380D01*
X150447333Y-51443000D01*
X150494952Y-51490619D01*
X150542571Y-51585857D01*
X150542571Y-51681095D01*
X150494952Y-51823952D01*
X149923523Y-52395380D01*
X150542571Y-52395380D01*
X151161619Y-51395380D02*
X151256857Y-51395380D01*
X151352095Y-51443000D01*
X151399714Y-51490619D01*
X151447333Y-51585857D01*
X151494952Y-51776333D01*
X151494952Y-52014428D01*
X151447333Y-52204904D01*
X151399714Y-52300142D01*
X151352095Y-52347761D01*
X151256857Y-52395380D01*
X151161619Y-52395380D01*
X151066380Y-52347761D01*
X151018761Y-52300142D01*
X150971142Y-52204904D01*
X150923523Y-52014428D01*
X150923523Y-51776333D01*
X150971142Y-51585857D01*
X151018761Y-51490619D01*
X151066380Y-51443000D01*
X151161619Y-51395380D01*
X151828285Y-51395380D02*
X152447333Y-51395380D01*
X152114000Y-51776333D01*
X152256857Y-51776333D01*
X152352095Y-51823952D01*
X152399714Y-51871571D01*
X152447333Y-51966809D01*
X152447333Y-52204904D01*
X152399714Y-52300142D01*
X152352095Y-52347761D01*
X152256857Y-52395380D01*
X151971142Y-52395380D01*
X151875904Y-52347761D01*
X151828285Y-52300142D01*
X152875904Y-52395380D02*
X152875904Y-51395380D01*
X153447333Y-52395380D01*
X153447333Y-51395380D01*
X149161571Y-50966619D02*
X149066333Y-50919000D01*
X148971095Y-50823761D01*
X148828238Y-50680904D01*
X148733000Y-50633285D01*
X148637761Y-50633285D01*
X148685380Y-50871380D02*
X148590142Y-50823761D01*
X148494904Y-50728523D01*
X148447285Y-50538047D01*
X148447285Y-50204714D01*
X148494904Y-50014238D01*
X148590142Y-49919000D01*
X148685380Y-49871380D01*
X148875857Y-49871380D01*
X148971095Y-49919000D01*
X149066333Y-50014238D01*
X149113952Y-50204714D01*
X149113952Y-50538047D01*
X149066333Y-50728523D01*
X148971095Y-50823761D01*
X148875857Y-50871380D01*
X148685380Y-50871380D01*
X150066333Y-50871380D02*
X149494904Y-50871380D01*
X149780619Y-50871380D02*
X149780619Y-49871380D01*
X149685380Y-50014238D01*
X149590142Y-50109476D01*
X149494904Y-50157095D01*
X150399666Y-49871380D02*
X151066333Y-49871380D01*
X150637761Y-50871380D01*
G04 #@! TO.C,Q18*
X139192285Y-54665571D02*
X139335142Y-54713190D01*
X139382761Y-54760809D01*
X139430380Y-54856047D01*
X139430380Y-54998904D01*
X139382761Y-55094142D01*
X139335142Y-55141761D01*
X139239904Y-55189380D01*
X138858952Y-55189380D01*
X138858952Y-54189380D01*
X139192285Y-54189380D01*
X139287523Y-54237000D01*
X139335142Y-54284619D01*
X139382761Y-54379857D01*
X139382761Y-54475095D01*
X139335142Y-54570333D01*
X139287523Y-54617952D01*
X139192285Y-54665571D01*
X138858952Y-54665571D01*
X140192285Y-54665571D02*
X139858952Y-54665571D01*
X139858952Y-55189380D02*
X139858952Y-54189380D01*
X140335142Y-54189380D01*
X140668476Y-54284619D02*
X140716095Y-54237000D01*
X140811333Y-54189380D01*
X141049428Y-54189380D01*
X141144666Y-54237000D01*
X141192285Y-54284619D01*
X141239904Y-54379857D01*
X141239904Y-54475095D01*
X141192285Y-54617952D01*
X140620857Y-55189380D01*
X141239904Y-55189380D01*
X142097047Y-54522714D02*
X142097047Y-55189380D01*
X141858952Y-54141761D02*
X141620857Y-54856047D01*
X142239904Y-54856047D01*
X143049428Y-54522714D02*
X143049428Y-55189380D01*
X142811333Y-54141761D02*
X142573238Y-54856047D01*
X143192285Y-54856047D01*
X143906571Y-54665571D02*
X144049428Y-54713190D01*
X144097047Y-54760809D01*
X144144666Y-54856047D01*
X144144666Y-54998904D01*
X144097047Y-55094142D01*
X144049428Y-55141761D01*
X143954190Y-55189380D01*
X143573238Y-55189380D01*
X143573238Y-54189380D01*
X143906571Y-54189380D01*
X144001809Y-54237000D01*
X144049428Y-54284619D01*
X144097047Y-54379857D01*
X144097047Y-54475095D01*
X144049428Y-54570333D01*
X144001809Y-54617952D01*
X143906571Y-54665571D01*
X143573238Y-54665571D01*
X141033571Y-51347619D02*
X140938333Y-51300000D01*
X140843095Y-51204761D01*
X140700238Y-51061904D01*
X140605000Y-51014285D01*
X140509761Y-51014285D01*
X140557380Y-51252380D02*
X140462142Y-51204761D01*
X140366904Y-51109523D01*
X140319285Y-50919047D01*
X140319285Y-50585714D01*
X140366904Y-50395238D01*
X140462142Y-50300000D01*
X140557380Y-50252380D01*
X140747857Y-50252380D01*
X140843095Y-50300000D01*
X140938333Y-50395238D01*
X140985952Y-50585714D01*
X140985952Y-50919047D01*
X140938333Y-51109523D01*
X140843095Y-51204761D01*
X140747857Y-51252380D01*
X140557380Y-51252380D01*
X141938333Y-51252380D02*
X141366904Y-51252380D01*
X141652619Y-51252380D02*
X141652619Y-50252380D01*
X141557380Y-50395238D01*
X141462142Y-50490476D01*
X141366904Y-50538095D01*
X142509761Y-50680952D02*
X142414523Y-50633333D01*
X142366904Y-50585714D01*
X142319285Y-50490476D01*
X142319285Y-50442857D01*
X142366904Y-50347619D01*
X142414523Y-50300000D01*
X142509761Y-50252380D01*
X142700238Y-50252380D01*
X142795476Y-50300000D01*
X142843095Y-50347619D01*
X142890714Y-50442857D01*
X142890714Y-50490476D01*
X142843095Y-50585714D01*
X142795476Y-50633333D01*
X142700238Y-50680952D01*
X142509761Y-50680952D01*
X142414523Y-50728571D01*
X142366904Y-50776190D01*
X142319285Y-50871428D01*
X142319285Y-51061904D01*
X142366904Y-51157142D01*
X142414523Y-51204761D01*
X142509761Y-51252380D01*
X142700238Y-51252380D01*
X142795476Y-51204761D01*
X142843095Y-51157142D01*
X142890714Y-51061904D01*
X142890714Y-50871428D01*
X142843095Y-50776190D01*
X142795476Y-50728571D01*
X142700238Y-50680952D01*
G04 #@! TO.C,Q19*
X148804761Y-55570380D02*
X148804761Y-54570380D01*
X149185714Y-54570380D01*
X149280952Y-54618000D01*
X149328571Y-54665619D01*
X149376190Y-54760857D01*
X149376190Y-54903714D01*
X149328571Y-54998952D01*
X149280952Y-55046571D01*
X149185714Y-55094190D01*
X148804761Y-55094190D01*
X149757142Y-54665619D02*
X149804761Y-54618000D01*
X149900000Y-54570380D01*
X150138095Y-54570380D01*
X150233333Y-54618000D01*
X150280952Y-54665619D01*
X150328571Y-54760857D01*
X150328571Y-54856095D01*
X150280952Y-54998952D01*
X149709523Y-55570380D01*
X150328571Y-55570380D01*
X150757142Y-55570380D02*
X150757142Y-54570380D01*
X151328571Y-55570380D01*
X151328571Y-54570380D01*
X151757142Y-54665619D02*
X151804761Y-54618000D01*
X151900000Y-54570380D01*
X152138095Y-54570380D01*
X152233333Y-54618000D01*
X152280952Y-54665619D01*
X152328571Y-54760857D01*
X152328571Y-54856095D01*
X152280952Y-54998952D01*
X151709523Y-55570380D01*
X152328571Y-55570380D01*
X152709523Y-54665619D02*
X152757142Y-54618000D01*
X152852380Y-54570380D01*
X153090476Y-54570380D01*
X153185714Y-54618000D01*
X153233333Y-54665619D01*
X153280952Y-54760857D01*
X153280952Y-54856095D01*
X153233333Y-54998952D01*
X152661904Y-55570380D01*
X153280952Y-55570380D01*
X153661904Y-54665619D02*
X153709523Y-54618000D01*
X153804761Y-54570380D01*
X154042857Y-54570380D01*
X154138095Y-54618000D01*
X154185714Y-54665619D01*
X154233333Y-54760857D01*
X154233333Y-54856095D01*
X154185714Y-54998952D01*
X153614285Y-55570380D01*
X154233333Y-55570380D01*
X154614285Y-54665619D02*
X154661904Y-54618000D01*
X154757142Y-54570380D01*
X154995238Y-54570380D01*
X155090476Y-54618000D01*
X155138095Y-54665619D01*
X155185714Y-54760857D01*
X155185714Y-54856095D01*
X155138095Y-54998952D01*
X154566666Y-55570380D01*
X155185714Y-55570380D01*
X155566666Y-55284666D02*
X156042857Y-55284666D01*
X155471428Y-55570380D02*
X155804761Y-54570380D01*
X156138095Y-55570380D01*
X151955571Y-58459619D02*
X151860333Y-58412000D01*
X151765095Y-58316761D01*
X151622238Y-58173904D01*
X151527000Y-58126285D01*
X151431761Y-58126285D01*
X151479380Y-58364380D02*
X151384142Y-58316761D01*
X151288904Y-58221523D01*
X151241285Y-58031047D01*
X151241285Y-57697714D01*
X151288904Y-57507238D01*
X151384142Y-57412000D01*
X151479380Y-57364380D01*
X151669857Y-57364380D01*
X151765095Y-57412000D01*
X151860333Y-57507238D01*
X151907952Y-57697714D01*
X151907952Y-58031047D01*
X151860333Y-58221523D01*
X151765095Y-58316761D01*
X151669857Y-58364380D01*
X151479380Y-58364380D01*
X152860333Y-58364380D02*
X152288904Y-58364380D01*
X152574619Y-58364380D02*
X152574619Y-57364380D01*
X152479380Y-57507238D01*
X152384142Y-57602476D01*
X152288904Y-57650095D01*
X153336523Y-58364380D02*
X153527000Y-58364380D01*
X153622238Y-58316761D01*
X153669857Y-58269142D01*
X153765095Y-58126285D01*
X153812714Y-57935809D01*
X153812714Y-57554857D01*
X153765095Y-57459619D01*
X153717476Y-57412000D01*
X153622238Y-57364380D01*
X153431761Y-57364380D01*
X153336523Y-57412000D01*
X153288904Y-57459619D01*
X153241285Y-57554857D01*
X153241285Y-57792952D01*
X153288904Y-57888190D01*
X153336523Y-57935809D01*
X153431761Y-57983428D01*
X153622238Y-57983428D01*
X153717476Y-57935809D01*
X153765095Y-57888190D01*
X153812714Y-57792952D01*
G04 #@! TO.C,Q20*
X146526666Y-63698380D02*
X146526666Y-62698380D01*
X147574285Y-63698380D02*
X147240952Y-63222190D01*
X147002857Y-63698380D02*
X147002857Y-62698380D01*
X147383809Y-62698380D01*
X147479047Y-62746000D01*
X147526666Y-62793619D01*
X147574285Y-62888857D01*
X147574285Y-63031714D01*
X147526666Y-63126952D01*
X147479047Y-63174571D01*
X147383809Y-63222190D01*
X147002857Y-63222190D01*
X148479047Y-63698380D02*
X148002857Y-63698380D01*
X148002857Y-62698380D01*
X148764761Y-62793619D02*
X148812380Y-62746000D01*
X148907619Y-62698380D01*
X149145714Y-62698380D01*
X149240952Y-62746000D01*
X149288571Y-62793619D01*
X149336190Y-62888857D01*
X149336190Y-62984095D01*
X149288571Y-63126952D01*
X148717142Y-63698380D01*
X149336190Y-63698380D01*
X149717142Y-62793619D02*
X149764761Y-62746000D01*
X149860000Y-62698380D01*
X150098095Y-62698380D01*
X150193333Y-62746000D01*
X150240952Y-62793619D01*
X150288571Y-62888857D01*
X150288571Y-62984095D01*
X150240952Y-63126952D01*
X149669523Y-63698380D01*
X150288571Y-63698380D01*
X150907619Y-62698380D02*
X151002857Y-62698380D01*
X151098095Y-62746000D01*
X151145714Y-62793619D01*
X151193333Y-62888857D01*
X151240952Y-63079333D01*
X151240952Y-63317428D01*
X151193333Y-63507904D01*
X151145714Y-63603142D01*
X151098095Y-63650761D01*
X151002857Y-63698380D01*
X150907619Y-63698380D01*
X150812380Y-63650761D01*
X150764761Y-63603142D01*
X150717142Y-63507904D01*
X150669523Y-63317428D01*
X150669523Y-63079333D01*
X150717142Y-62888857D01*
X150764761Y-62793619D01*
X150812380Y-62746000D01*
X150907619Y-62698380D01*
X151574285Y-62698380D02*
X152193333Y-62698380D01*
X151860000Y-63079333D01*
X152002857Y-63079333D01*
X152098095Y-63126952D01*
X152145714Y-63174571D01*
X152193333Y-63269809D01*
X152193333Y-63507904D01*
X152145714Y-63603142D01*
X152098095Y-63650761D01*
X152002857Y-63698380D01*
X151717142Y-63698380D01*
X151621904Y-63650761D01*
X151574285Y-63603142D01*
X152621904Y-63698380D02*
X152621904Y-62698380D01*
X153193333Y-63698380D01*
X153193333Y-62698380D01*
X149288571Y-62396619D02*
X149193333Y-62349000D01*
X149098095Y-62253761D01*
X148955238Y-62110904D01*
X148860000Y-62063285D01*
X148764761Y-62063285D01*
X148812380Y-62301380D02*
X148717142Y-62253761D01*
X148621904Y-62158523D01*
X148574285Y-61968047D01*
X148574285Y-61634714D01*
X148621904Y-61444238D01*
X148717142Y-61349000D01*
X148812380Y-61301380D01*
X149002857Y-61301380D01*
X149098095Y-61349000D01*
X149193333Y-61444238D01*
X149240952Y-61634714D01*
X149240952Y-61968047D01*
X149193333Y-62158523D01*
X149098095Y-62253761D01*
X149002857Y-62301380D01*
X148812380Y-62301380D01*
X149621904Y-61396619D02*
X149669523Y-61349000D01*
X149764761Y-61301380D01*
X150002857Y-61301380D01*
X150098095Y-61349000D01*
X150145714Y-61396619D01*
X150193333Y-61491857D01*
X150193333Y-61587095D01*
X150145714Y-61729952D01*
X149574285Y-62301380D01*
X150193333Y-62301380D01*
X150812380Y-61301380D02*
X150907619Y-61301380D01*
X151002857Y-61349000D01*
X151050476Y-61396619D01*
X151098095Y-61491857D01*
X151145714Y-61682333D01*
X151145714Y-61920428D01*
X151098095Y-62110904D01*
X151050476Y-62206142D01*
X151002857Y-62253761D01*
X150907619Y-62301380D01*
X150812380Y-62301380D01*
X150717142Y-62253761D01*
X150669523Y-62206142D01*
X150621904Y-62110904D01*
X150574285Y-61920428D01*
X150574285Y-61682333D01*
X150621904Y-61491857D01*
X150669523Y-61396619D01*
X150717142Y-61349000D01*
X150812380Y-61301380D01*
G04 #@! TO.C,Q21*
X139319285Y-66095571D02*
X139462142Y-66143190D01*
X139509761Y-66190809D01*
X139557380Y-66286047D01*
X139557380Y-66428904D01*
X139509761Y-66524142D01*
X139462142Y-66571761D01*
X139366904Y-66619380D01*
X138985952Y-66619380D01*
X138985952Y-65619380D01*
X139319285Y-65619380D01*
X139414523Y-65667000D01*
X139462142Y-65714619D01*
X139509761Y-65809857D01*
X139509761Y-65905095D01*
X139462142Y-66000333D01*
X139414523Y-66047952D01*
X139319285Y-66095571D01*
X138985952Y-66095571D01*
X140319285Y-66095571D02*
X139985952Y-66095571D01*
X139985952Y-66619380D02*
X139985952Y-65619380D01*
X140462142Y-65619380D01*
X140795476Y-65714619D02*
X140843095Y-65667000D01*
X140938333Y-65619380D01*
X141176428Y-65619380D01*
X141271666Y-65667000D01*
X141319285Y-65714619D01*
X141366904Y-65809857D01*
X141366904Y-65905095D01*
X141319285Y-66047952D01*
X140747857Y-66619380D01*
X141366904Y-66619380D01*
X142224047Y-65952714D02*
X142224047Y-66619380D01*
X141985952Y-65571761D02*
X141747857Y-66286047D01*
X142366904Y-66286047D01*
X143176428Y-65952714D02*
X143176428Y-66619380D01*
X142938333Y-65571761D02*
X142700238Y-66286047D01*
X143319285Y-66286047D01*
X144033571Y-66095571D02*
X144176428Y-66143190D01*
X144224047Y-66190809D01*
X144271666Y-66286047D01*
X144271666Y-66428904D01*
X144224047Y-66524142D01*
X144176428Y-66571761D01*
X144081190Y-66619380D01*
X143700238Y-66619380D01*
X143700238Y-65619380D01*
X144033571Y-65619380D01*
X144128809Y-65667000D01*
X144176428Y-65714619D01*
X144224047Y-65809857D01*
X144224047Y-65905095D01*
X144176428Y-66000333D01*
X144128809Y-66047952D01*
X144033571Y-66095571D01*
X143700238Y-66095571D01*
X141033571Y-62777619D02*
X140938333Y-62730000D01*
X140843095Y-62634761D01*
X140700238Y-62491904D01*
X140605000Y-62444285D01*
X140509761Y-62444285D01*
X140557380Y-62682380D02*
X140462142Y-62634761D01*
X140366904Y-62539523D01*
X140319285Y-62349047D01*
X140319285Y-62015714D01*
X140366904Y-61825238D01*
X140462142Y-61730000D01*
X140557380Y-61682380D01*
X140747857Y-61682380D01*
X140843095Y-61730000D01*
X140938333Y-61825238D01*
X140985952Y-62015714D01*
X140985952Y-62349047D01*
X140938333Y-62539523D01*
X140843095Y-62634761D01*
X140747857Y-62682380D01*
X140557380Y-62682380D01*
X141366904Y-61777619D02*
X141414523Y-61730000D01*
X141509761Y-61682380D01*
X141747857Y-61682380D01*
X141843095Y-61730000D01*
X141890714Y-61777619D01*
X141938333Y-61872857D01*
X141938333Y-61968095D01*
X141890714Y-62110952D01*
X141319285Y-62682380D01*
X141938333Y-62682380D01*
X142890714Y-62682380D02*
X142319285Y-62682380D01*
X142605000Y-62682380D02*
X142605000Y-61682380D01*
X142509761Y-61825238D01*
X142414523Y-61920476D01*
X142319285Y-61968095D01*
G04 #@! TO.C,Q22*
X148931761Y-67000380D02*
X148931761Y-66000380D01*
X149312714Y-66000380D01*
X149407952Y-66048000D01*
X149455571Y-66095619D01*
X149503190Y-66190857D01*
X149503190Y-66333714D01*
X149455571Y-66428952D01*
X149407952Y-66476571D01*
X149312714Y-66524190D01*
X148931761Y-66524190D01*
X149884142Y-66095619D02*
X149931761Y-66048000D01*
X150027000Y-66000380D01*
X150265095Y-66000380D01*
X150360333Y-66048000D01*
X150407952Y-66095619D01*
X150455571Y-66190857D01*
X150455571Y-66286095D01*
X150407952Y-66428952D01*
X149836523Y-67000380D01*
X150455571Y-67000380D01*
X150884142Y-67000380D02*
X150884142Y-66000380D01*
X151455571Y-67000380D01*
X151455571Y-66000380D01*
X151884142Y-66095619D02*
X151931761Y-66048000D01*
X152027000Y-66000380D01*
X152265095Y-66000380D01*
X152360333Y-66048000D01*
X152407952Y-66095619D01*
X152455571Y-66190857D01*
X152455571Y-66286095D01*
X152407952Y-66428952D01*
X151836523Y-67000380D01*
X152455571Y-67000380D01*
X152836523Y-66095619D02*
X152884142Y-66048000D01*
X152979380Y-66000380D01*
X153217476Y-66000380D01*
X153312714Y-66048000D01*
X153360333Y-66095619D01*
X153407952Y-66190857D01*
X153407952Y-66286095D01*
X153360333Y-66428952D01*
X152788904Y-67000380D01*
X153407952Y-67000380D01*
X153788904Y-66095619D02*
X153836523Y-66048000D01*
X153931761Y-66000380D01*
X154169857Y-66000380D01*
X154265095Y-66048000D01*
X154312714Y-66095619D01*
X154360333Y-66190857D01*
X154360333Y-66286095D01*
X154312714Y-66428952D01*
X153741285Y-67000380D01*
X154360333Y-67000380D01*
X154741285Y-66095619D02*
X154788904Y-66048000D01*
X154884142Y-66000380D01*
X155122238Y-66000380D01*
X155217476Y-66048000D01*
X155265095Y-66095619D01*
X155312714Y-66190857D01*
X155312714Y-66286095D01*
X155265095Y-66428952D01*
X154693666Y-67000380D01*
X155312714Y-67000380D01*
X155693666Y-66714666D02*
X156169857Y-66714666D01*
X155598428Y-67000380D02*
X155931761Y-66000380D01*
X156265095Y-67000380D01*
X151828571Y-70016619D02*
X151733333Y-69969000D01*
X151638095Y-69873761D01*
X151495238Y-69730904D01*
X151400000Y-69683285D01*
X151304761Y-69683285D01*
X151352380Y-69921380D02*
X151257142Y-69873761D01*
X151161904Y-69778523D01*
X151114285Y-69588047D01*
X151114285Y-69254714D01*
X151161904Y-69064238D01*
X151257142Y-68969000D01*
X151352380Y-68921380D01*
X151542857Y-68921380D01*
X151638095Y-68969000D01*
X151733333Y-69064238D01*
X151780952Y-69254714D01*
X151780952Y-69588047D01*
X151733333Y-69778523D01*
X151638095Y-69873761D01*
X151542857Y-69921380D01*
X151352380Y-69921380D01*
X152161904Y-69016619D02*
X152209523Y-68969000D01*
X152304761Y-68921380D01*
X152542857Y-68921380D01*
X152638095Y-68969000D01*
X152685714Y-69016619D01*
X152733333Y-69111857D01*
X152733333Y-69207095D01*
X152685714Y-69349952D01*
X152114285Y-69921380D01*
X152733333Y-69921380D01*
X153114285Y-69016619D02*
X153161904Y-68969000D01*
X153257142Y-68921380D01*
X153495238Y-68921380D01*
X153590476Y-68969000D01*
X153638095Y-69016619D01*
X153685714Y-69111857D01*
X153685714Y-69207095D01*
X153638095Y-69349952D01*
X153066666Y-69921380D01*
X153685714Y-69921380D01*
G04 #@! TO.C,Q23*
X146780666Y-75128380D02*
X146780666Y-74128380D01*
X147828285Y-75128380D02*
X147494952Y-74652190D01*
X147256857Y-75128380D02*
X147256857Y-74128380D01*
X147637809Y-74128380D01*
X147733047Y-74176000D01*
X147780666Y-74223619D01*
X147828285Y-74318857D01*
X147828285Y-74461714D01*
X147780666Y-74556952D01*
X147733047Y-74604571D01*
X147637809Y-74652190D01*
X147256857Y-74652190D01*
X148733047Y-75128380D02*
X148256857Y-75128380D01*
X148256857Y-74128380D01*
X149018761Y-74223619D02*
X149066380Y-74176000D01*
X149161619Y-74128380D01*
X149399714Y-74128380D01*
X149494952Y-74176000D01*
X149542571Y-74223619D01*
X149590190Y-74318857D01*
X149590190Y-74414095D01*
X149542571Y-74556952D01*
X148971142Y-75128380D01*
X149590190Y-75128380D01*
X149971142Y-74223619D02*
X150018761Y-74176000D01*
X150114000Y-74128380D01*
X150352095Y-74128380D01*
X150447333Y-74176000D01*
X150494952Y-74223619D01*
X150542571Y-74318857D01*
X150542571Y-74414095D01*
X150494952Y-74556952D01*
X149923523Y-75128380D01*
X150542571Y-75128380D01*
X151161619Y-74128380D02*
X151256857Y-74128380D01*
X151352095Y-74176000D01*
X151399714Y-74223619D01*
X151447333Y-74318857D01*
X151494952Y-74509333D01*
X151494952Y-74747428D01*
X151447333Y-74937904D01*
X151399714Y-75033142D01*
X151352095Y-75080761D01*
X151256857Y-75128380D01*
X151161619Y-75128380D01*
X151066380Y-75080761D01*
X151018761Y-75033142D01*
X150971142Y-74937904D01*
X150923523Y-74747428D01*
X150923523Y-74509333D01*
X150971142Y-74318857D01*
X151018761Y-74223619D01*
X151066380Y-74176000D01*
X151161619Y-74128380D01*
X151828285Y-74128380D02*
X152447333Y-74128380D01*
X152114000Y-74509333D01*
X152256857Y-74509333D01*
X152352095Y-74556952D01*
X152399714Y-74604571D01*
X152447333Y-74699809D01*
X152447333Y-74937904D01*
X152399714Y-75033142D01*
X152352095Y-75080761D01*
X152256857Y-75128380D01*
X151971142Y-75128380D01*
X151875904Y-75080761D01*
X151828285Y-75033142D01*
X152875904Y-75128380D02*
X152875904Y-74128380D01*
X153447333Y-75128380D01*
X153447333Y-74128380D01*
X149034571Y-73826619D02*
X148939333Y-73779000D01*
X148844095Y-73683761D01*
X148701238Y-73540904D01*
X148606000Y-73493285D01*
X148510761Y-73493285D01*
X148558380Y-73731380D02*
X148463142Y-73683761D01*
X148367904Y-73588523D01*
X148320285Y-73398047D01*
X148320285Y-73064714D01*
X148367904Y-72874238D01*
X148463142Y-72779000D01*
X148558380Y-72731380D01*
X148748857Y-72731380D01*
X148844095Y-72779000D01*
X148939333Y-72874238D01*
X148986952Y-73064714D01*
X148986952Y-73398047D01*
X148939333Y-73588523D01*
X148844095Y-73683761D01*
X148748857Y-73731380D01*
X148558380Y-73731380D01*
X149367904Y-72826619D02*
X149415523Y-72779000D01*
X149510761Y-72731380D01*
X149748857Y-72731380D01*
X149844095Y-72779000D01*
X149891714Y-72826619D01*
X149939333Y-72921857D01*
X149939333Y-73017095D01*
X149891714Y-73159952D01*
X149320285Y-73731380D01*
X149939333Y-73731380D01*
X150272666Y-72731380D02*
X150891714Y-72731380D01*
X150558380Y-73112333D01*
X150701238Y-73112333D01*
X150796476Y-73159952D01*
X150844095Y-73207571D01*
X150891714Y-73302809D01*
X150891714Y-73540904D01*
X150844095Y-73636142D01*
X150796476Y-73683761D01*
X150701238Y-73731380D01*
X150415523Y-73731380D01*
X150320285Y-73683761D01*
X150272666Y-73636142D01*
G04 #@! TO.C,Q24*
X138938285Y-77525571D02*
X139081142Y-77573190D01*
X139128761Y-77620809D01*
X139176380Y-77716047D01*
X139176380Y-77858904D01*
X139128761Y-77954142D01*
X139081142Y-78001761D01*
X138985904Y-78049380D01*
X138604952Y-78049380D01*
X138604952Y-77049380D01*
X138938285Y-77049380D01*
X139033523Y-77097000D01*
X139081142Y-77144619D01*
X139128761Y-77239857D01*
X139128761Y-77335095D01*
X139081142Y-77430333D01*
X139033523Y-77477952D01*
X138938285Y-77525571D01*
X138604952Y-77525571D01*
X139938285Y-77525571D02*
X139604952Y-77525571D01*
X139604952Y-78049380D02*
X139604952Y-77049380D01*
X140081142Y-77049380D01*
X140414476Y-77144619D02*
X140462095Y-77097000D01*
X140557333Y-77049380D01*
X140795428Y-77049380D01*
X140890666Y-77097000D01*
X140938285Y-77144619D01*
X140985904Y-77239857D01*
X140985904Y-77335095D01*
X140938285Y-77477952D01*
X140366857Y-78049380D01*
X140985904Y-78049380D01*
X141843047Y-77382714D02*
X141843047Y-78049380D01*
X141604952Y-77001761D02*
X141366857Y-77716047D01*
X141985904Y-77716047D01*
X142795428Y-77382714D02*
X142795428Y-78049380D01*
X142557333Y-77001761D02*
X142319238Y-77716047D01*
X142938285Y-77716047D01*
X143652571Y-77525571D02*
X143795428Y-77573190D01*
X143843047Y-77620809D01*
X143890666Y-77716047D01*
X143890666Y-77858904D01*
X143843047Y-77954142D01*
X143795428Y-78001761D01*
X143700190Y-78049380D01*
X143319238Y-78049380D01*
X143319238Y-77049380D01*
X143652571Y-77049380D01*
X143747809Y-77097000D01*
X143795428Y-77144619D01*
X143843047Y-77239857D01*
X143843047Y-77335095D01*
X143795428Y-77430333D01*
X143747809Y-77477952D01*
X143652571Y-77525571D01*
X143319238Y-77525571D01*
X141033571Y-74207619D02*
X140938333Y-74160000D01*
X140843095Y-74064761D01*
X140700238Y-73921904D01*
X140605000Y-73874285D01*
X140509761Y-73874285D01*
X140557380Y-74112380D02*
X140462142Y-74064761D01*
X140366904Y-73969523D01*
X140319285Y-73779047D01*
X140319285Y-73445714D01*
X140366904Y-73255238D01*
X140462142Y-73160000D01*
X140557380Y-73112380D01*
X140747857Y-73112380D01*
X140843095Y-73160000D01*
X140938333Y-73255238D01*
X140985952Y-73445714D01*
X140985952Y-73779047D01*
X140938333Y-73969523D01*
X140843095Y-74064761D01*
X140747857Y-74112380D01*
X140557380Y-74112380D01*
X141366904Y-73207619D02*
X141414523Y-73160000D01*
X141509761Y-73112380D01*
X141747857Y-73112380D01*
X141843095Y-73160000D01*
X141890714Y-73207619D01*
X141938333Y-73302857D01*
X141938333Y-73398095D01*
X141890714Y-73540952D01*
X141319285Y-74112380D01*
X141938333Y-74112380D01*
X142795476Y-73445714D02*
X142795476Y-74112380D01*
X142557380Y-73064761D02*
X142319285Y-73779047D01*
X142938333Y-73779047D01*
G04 #@! TO.C,J1*
X95607142Y-43933333D02*
X95654761Y-43980952D01*
X95702380Y-44123809D01*
X95702380Y-44219047D01*
X95654761Y-44361904D01*
X95559523Y-44457142D01*
X95464285Y-44504761D01*
X95273809Y-44552380D01*
X95130952Y-44552380D01*
X94940476Y-44504761D01*
X94845238Y-44457142D01*
X94750000Y-44361904D01*
X94702380Y-44219047D01*
X94702380Y-44123809D01*
X94750000Y-43980952D01*
X94797619Y-43933333D01*
X95702380Y-43361904D02*
X95654761Y-43457142D01*
X95607142Y-43504761D01*
X95511904Y-43552380D01*
X95226190Y-43552380D01*
X95130952Y-43504761D01*
X95083333Y-43457142D01*
X95035714Y-43361904D01*
X95035714Y-43219047D01*
X95083333Y-43123809D01*
X95130952Y-43076190D01*
X95226190Y-43028571D01*
X95511904Y-43028571D01*
X95607142Y-43076190D01*
X95654761Y-43123809D01*
X95702380Y-43219047D01*
X95702380Y-43361904D01*
X95035714Y-42600000D02*
X95702380Y-42600000D01*
X95130952Y-42600000D02*
X95083333Y-42552380D01*
X95035714Y-42457142D01*
X95035714Y-42314285D01*
X95083333Y-42219047D01*
X95178571Y-42171428D01*
X95702380Y-42171428D01*
X95035714Y-41695238D02*
X95702380Y-41695238D01*
X95130952Y-41695238D02*
X95083333Y-41647619D01*
X95035714Y-41552380D01*
X95035714Y-41409523D01*
X95083333Y-41314285D01*
X95178571Y-41266666D01*
X95702380Y-41266666D01*
X95797619Y-41028571D02*
X95797619Y-40266666D01*
X94702380Y-39838095D02*
X94702380Y-39742857D01*
X94750000Y-39647619D01*
X94797619Y-39600000D01*
X94892857Y-39552380D01*
X95083333Y-39504761D01*
X95321428Y-39504761D01*
X95511904Y-39552380D01*
X95607142Y-39600000D01*
X95654761Y-39647619D01*
X95702380Y-39742857D01*
X95702380Y-39838095D01*
X95654761Y-39933333D01*
X95607142Y-39980952D01*
X95511904Y-40028571D01*
X95321428Y-40076190D01*
X95083333Y-40076190D01*
X94892857Y-40028571D01*
X94797619Y-39980952D01*
X94750000Y-39933333D01*
X94702380Y-39838095D01*
X95702380Y-38552380D02*
X95702380Y-39123809D01*
X95702380Y-38838095D02*
X94702380Y-38838095D01*
X94845238Y-38933333D01*
X94940476Y-39028571D01*
X94988095Y-39123809D01*
X95702380Y-38219047D02*
X95035714Y-37695238D01*
X95035714Y-38219047D02*
X95702380Y-37695238D01*
X94702380Y-37123809D02*
X94702380Y-37028571D01*
X94750000Y-36933333D01*
X94797619Y-36885714D01*
X94892857Y-36838095D01*
X95083333Y-36790476D01*
X95321428Y-36790476D01*
X95511904Y-36838095D01*
X95607142Y-36885714D01*
X95654761Y-36933333D01*
X95702380Y-37028571D01*
X95702380Y-37123809D01*
X95654761Y-37219047D01*
X95607142Y-37266666D01*
X95511904Y-37314285D01*
X95321428Y-37361904D01*
X95083333Y-37361904D01*
X94892857Y-37314285D01*
X94797619Y-37266666D01*
X94750000Y-37219047D01*
X94702380Y-37123809D01*
X94797619Y-36409523D02*
X94750000Y-36361904D01*
X94702380Y-36266666D01*
X94702380Y-36028571D01*
X94750000Y-35933333D01*
X94797619Y-35885714D01*
X94892857Y-35838095D01*
X94988095Y-35838095D01*
X95130952Y-35885714D01*
X95702380Y-36457142D01*
X95702380Y-35838095D01*
X95797619Y-35647619D02*
X95797619Y-34885714D01*
X95702380Y-34647619D02*
X94702380Y-34647619D01*
X95416666Y-34314285D01*
X94702380Y-33980952D01*
X95702380Y-33980952D01*
X95702380Y-33076190D02*
X95178571Y-33076190D01*
X95083333Y-33123809D01*
X95035714Y-33219047D01*
X95035714Y-33409523D01*
X95083333Y-33504761D01*
X95654761Y-33076190D02*
X95702380Y-33171428D01*
X95702380Y-33409523D01*
X95654761Y-33504761D01*
X95559523Y-33552380D01*
X95464285Y-33552380D01*
X95369047Y-33504761D01*
X95321428Y-33409523D01*
X95321428Y-33171428D01*
X95273809Y-33076190D01*
X95702380Y-32457142D02*
X95654761Y-32552380D01*
X95559523Y-32600000D01*
X94702380Y-32600000D01*
X95654761Y-31695238D02*
X95702380Y-31790476D01*
X95702380Y-31980952D01*
X95654761Y-32076190D01*
X95559523Y-32123809D01*
X95178571Y-32123809D01*
X95083333Y-32076190D01*
X95035714Y-31980952D01*
X95035714Y-31790476D01*
X95083333Y-31695238D01*
X95178571Y-31647619D01*
X95273809Y-31647619D01*
X95369047Y-32123809D01*
G04 #@! TO.C,J2*
X95607142Y-55363333D02*
X95654761Y-55410952D01*
X95702380Y-55553809D01*
X95702380Y-55649047D01*
X95654761Y-55791904D01*
X95559523Y-55887142D01*
X95464285Y-55934761D01*
X95273809Y-55982380D01*
X95130952Y-55982380D01*
X94940476Y-55934761D01*
X94845238Y-55887142D01*
X94750000Y-55791904D01*
X94702380Y-55649047D01*
X94702380Y-55553809D01*
X94750000Y-55410952D01*
X94797619Y-55363333D01*
X95702380Y-54791904D02*
X95654761Y-54887142D01*
X95607142Y-54934761D01*
X95511904Y-54982380D01*
X95226190Y-54982380D01*
X95130952Y-54934761D01*
X95083333Y-54887142D01*
X95035714Y-54791904D01*
X95035714Y-54649047D01*
X95083333Y-54553809D01*
X95130952Y-54506190D01*
X95226190Y-54458571D01*
X95511904Y-54458571D01*
X95607142Y-54506190D01*
X95654761Y-54553809D01*
X95702380Y-54649047D01*
X95702380Y-54791904D01*
X95035714Y-54030000D02*
X95702380Y-54030000D01*
X95130952Y-54030000D02*
X95083333Y-53982380D01*
X95035714Y-53887142D01*
X95035714Y-53744285D01*
X95083333Y-53649047D01*
X95178571Y-53601428D01*
X95702380Y-53601428D01*
X95035714Y-53125238D02*
X95702380Y-53125238D01*
X95130952Y-53125238D02*
X95083333Y-53077619D01*
X95035714Y-52982380D01*
X95035714Y-52839523D01*
X95083333Y-52744285D01*
X95178571Y-52696666D01*
X95702380Y-52696666D01*
X95797619Y-52458571D02*
X95797619Y-51696666D01*
X94702380Y-51268095D02*
X94702380Y-51172857D01*
X94750000Y-51077619D01*
X94797619Y-51030000D01*
X94892857Y-50982380D01*
X95083333Y-50934761D01*
X95321428Y-50934761D01*
X95511904Y-50982380D01*
X95607142Y-51030000D01*
X95654761Y-51077619D01*
X95702380Y-51172857D01*
X95702380Y-51268095D01*
X95654761Y-51363333D01*
X95607142Y-51410952D01*
X95511904Y-51458571D01*
X95321428Y-51506190D01*
X95083333Y-51506190D01*
X94892857Y-51458571D01*
X94797619Y-51410952D01*
X94750000Y-51363333D01*
X94702380Y-51268095D01*
X95702380Y-49982380D02*
X95702380Y-50553809D01*
X95702380Y-50268095D02*
X94702380Y-50268095D01*
X94845238Y-50363333D01*
X94940476Y-50458571D01*
X94988095Y-50553809D01*
X95702380Y-49649047D02*
X95035714Y-49125238D01*
X95035714Y-49649047D02*
X95702380Y-49125238D01*
X94702380Y-48553809D02*
X94702380Y-48458571D01*
X94750000Y-48363333D01*
X94797619Y-48315714D01*
X94892857Y-48268095D01*
X95083333Y-48220476D01*
X95321428Y-48220476D01*
X95511904Y-48268095D01*
X95607142Y-48315714D01*
X95654761Y-48363333D01*
X95702380Y-48458571D01*
X95702380Y-48553809D01*
X95654761Y-48649047D01*
X95607142Y-48696666D01*
X95511904Y-48744285D01*
X95321428Y-48791904D01*
X95083333Y-48791904D01*
X94892857Y-48744285D01*
X94797619Y-48696666D01*
X94750000Y-48649047D01*
X94702380Y-48553809D01*
X94797619Y-47839523D02*
X94750000Y-47791904D01*
X94702380Y-47696666D01*
X94702380Y-47458571D01*
X94750000Y-47363333D01*
X94797619Y-47315714D01*
X94892857Y-47268095D01*
X94988095Y-47268095D01*
X95130952Y-47315714D01*
X95702380Y-47887142D01*
X95702380Y-47268095D01*
X95797619Y-47077619D02*
X95797619Y-46315714D01*
X95702380Y-46077619D02*
X94702380Y-46077619D01*
X95416666Y-45744285D01*
X94702380Y-45410952D01*
X95702380Y-45410952D01*
X95702380Y-44506190D02*
X95178571Y-44506190D01*
X95083333Y-44553809D01*
X95035714Y-44649047D01*
X95035714Y-44839523D01*
X95083333Y-44934761D01*
X95654761Y-44506190D02*
X95702380Y-44601428D01*
X95702380Y-44839523D01*
X95654761Y-44934761D01*
X95559523Y-44982380D01*
X95464285Y-44982380D01*
X95369047Y-44934761D01*
X95321428Y-44839523D01*
X95321428Y-44601428D01*
X95273809Y-44506190D01*
X95702380Y-43887142D02*
X95654761Y-43982380D01*
X95559523Y-44030000D01*
X94702380Y-44030000D01*
X95654761Y-43125238D02*
X95702380Y-43220476D01*
X95702380Y-43410952D01*
X95654761Y-43506190D01*
X95559523Y-43553809D01*
X95178571Y-43553809D01*
X95083333Y-43506190D01*
X95035714Y-43410952D01*
X95035714Y-43220476D01*
X95083333Y-43125238D01*
X95178571Y-43077619D01*
X95273809Y-43077619D01*
X95369047Y-43553809D01*
G04 #@! TO.C,J3*
X95607142Y-67428333D02*
X95654761Y-67475952D01*
X95702380Y-67618809D01*
X95702380Y-67714047D01*
X95654761Y-67856904D01*
X95559523Y-67952142D01*
X95464285Y-67999761D01*
X95273809Y-68047380D01*
X95130952Y-68047380D01*
X94940476Y-67999761D01*
X94845238Y-67952142D01*
X94750000Y-67856904D01*
X94702380Y-67714047D01*
X94702380Y-67618809D01*
X94750000Y-67475952D01*
X94797619Y-67428333D01*
X95702380Y-66856904D02*
X95654761Y-66952142D01*
X95607142Y-66999761D01*
X95511904Y-67047380D01*
X95226190Y-67047380D01*
X95130952Y-66999761D01*
X95083333Y-66952142D01*
X95035714Y-66856904D01*
X95035714Y-66714047D01*
X95083333Y-66618809D01*
X95130952Y-66571190D01*
X95226190Y-66523571D01*
X95511904Y-66523571D01*
X95607142Y-66571190D01*
X95654761Y-66618809D01*
X95702380Y-66714047D01*
X95702380Y-66856904D01*
X95035714Y-66095000D02*
X95702380Y-66095000D01*
X95130952Y-66095000D02*
X95083333Y-66047380D01*
X95035714Y-65952142D01*
X95035714Y-65809285D01*
X95083333Y-65714047D01*
X95178571Y-65666428D01*
X95702380Y-65666428D01*
X95035714Y-65190238D02*
X95702380Y-65190238D01*
X95130952Y-65190238D02*
X95083333Y-65142619D01*
X95035714Y-65047380D01*
X95035714Y-64904523D01*
X95083333Y-64809285D01*
X95178571Y-64761666D01*
X95702380Y-64761666D01*
X95797619Y-64523571D02*
X95797619Y-63761666D01*
X94702380Y-63333095D02*
X94702380Y-63237857D01*
X94750000Y-63142619D01*
X94797619Y-63095000D01*
X94892857Y-63047380D01*
X95083333Y-62999761D01*
X95321428Y-62999761D01*
X95511904Y-63047380D01*
X95607142Y-63095000D01*
X95654761Y-63142619D01*
X95702380Y-63237857D01*
X95702380Y-63333095D01*
X95654761Y-63428333D01*
X95607142Y-63475952D01*
X95511904Y-63523571D01*
X95321428Y-63571190D01*
X95083333Y-63571190D01*
X94892857Y-63523571D01*
X94797619Y-63475952D01*
X94750000Y-63428333D01*
X94702380Y-63333095D01*
X95702380Y-62047380D02*
X95702380Y-62618809D01*
X95702380Y-62333095D02*
X94702380Y-62333095D01*
X94845238Y-62428333D01*
X94940476Y-62523571D01*
X94988095Y-62618809D01*
X95702380Y-61714047D02*
X95035714Y-61190238D01*
X95035714Y-61714047D02*
X95702380Y-61190238D01*
X94702380Y-60618809D02*
X94702380Y-60523571D01*
X94750000Y-60428333D01*
X94797619Y-60380714D01*
X94892857Y-60333095D01*
X95083333Y-60285476D01*
X95321428Y-60285476D01*
X95511904Y-60333095D01*
X95607142Y-60380714D01*
X95654761Y-60428333D01*
X95702380Y-60523571D01*
X95702380Y-60618809D01*
X95654761Y-60714047D01*
X95607142Y-60761666D01*
X95511904Y-60809285D01*
X95321428Y-60856904D01*
X95083333Y-60856904D01*
X94892857Y-60809285D01*
X94797619Y-60761666D01*
X94750000Y-60714047D01*
X94702380Y-60618809D01*
X94797619Y-59904523D02*
X94750000Y-59856904D01*
X94702380Y-59761666D01*
X94702380Y-59523571D01*
X94750000Y-59428333D01*
X94797619Y-59380714D01*
X94892857Y-59333095D01*
X94988095Y-59333095D01*
X95130952Y-59380714D01*
X95702380Y-59952142D01*
X95702380Y-59333095D01*
X95797619Y-59142619D02*
X95797619Y-58380714D01*
X95702380Y-58142619D02*
X94702380Y-58142619D01*
X95416666Y-57809285D01*
X94702380Y-57475952D01*
X95702380Y-57475952D01*
X95702380Y-56571190D02*
X95178571Y-56571190D01*
X95083333Y-56618809D01*
X95035714Y-56714047D01*
X95035714Y-56904523D01*
X95083333Y-56999761D01*
X95654761Y-56571190D02*
X95702380Y-56666428D01*
X95702380Y-56904523D01*
X95654761Y-56999761D01*
X95559523Y-57047380D01*
X95464285Y-57047380D01*
X95369047Y-56999761D01*
X95321428Y-56904523D01*
X95321428Y-56666428D01*
X95273809Y-56571190D01*
X95702380Y-55952142D02*
X95654761Y-56047380D01*
X95559523Y-56095000D01*
X94702380Y-56095000D01*
X95654761Y-55190238D02*
X95702380Y-55285476D01*
X95702380Y-55475952D01*
X95654761Y-55571190D01*
X95559523Y-55618809D01*
X95178571Y-55618809D01*
X95083333Y-55571190D01*
X95035714Y-55475952D01*
X95035714Y-55285476D01*
X95083333Y-55190238D01*
X95178571Y-55142619D01*
X95273809Y-55142619D01*
X95369047Y-55618809D01*
G04 #@! TO.C,J4*
X95607142Y-77588333D02*
X95654761Y-77635952D01*
X95702380Y-77778809D01*
X95702380Y-77874047D01*
X95654761Y-78016904D01*
X95559523Y-78112142D01*
X95464285Y-78159761D01*
X95273809Y-78207380D01*
X95130952Y-78207380D01*
X94940476Y-78159761D01*
X94845238Y-78112142D01*
X94750000Y-78016904D01*
X94702380Y-77874047D01*
X94702380Y-77778809D01*
X94750000Y-77635952D01*
X94797619Y-77588333D01*
X95702380Y-77016904D02*
X95654761Y-77112142D01*
X95607142Y-77159761D01*
X95511904Y-77207380D01*
X95226190Y-77207380D01*
X95130952Y-77159761D01*
X95083333Y-77112142D01*
X95035714Y-77016904D01*
X95035714Y-76874047D01*
X95083333Y-76778809D01*
X95130952Y-76731190D01*
X95226190Y-76683571D01*
X95511904Y-76683571D01*
X95607142Y-76731190D01*
X95654761Y-76778809D01*
X95702380Y-76874047D01*
X95702380Y-77016904D01*
X95035714Y-76255000D02*
X95702380Y-76255000D01*
X95130952Y-76255000D02*
X95083333Y-76207380D01*
X95035714Y-76112142D01*
X95035714Y-75969285D01*
X95083333Y-75874047D01*
X95178571Y-75826428D01*
X95702380Y-75826428D01*
X95035714Y-75350238D02*
X95702380Y-75350238D01*
X95130952Y-75350238D02*
X95083333Y-75302619D01*
X95035714Y-75207380D01*
X95035714Y-75064523D01*
X95083333Y-74969285D01*
X95178571Y-74921666D01*
X95702380Y-74921666D01*
X95797619Y-74683571D02*
X95797619Y-73921666D01*
X94702380Y-73493095D02*
X94702380Y-73397857D01*
X94750000Y-73302619D01*
X94797619Y-73255000D01*
X94892857Y-73207380D01*
X95083333Y-73159761D01*
X95321428Y-73159761D01*
X95511904Y-73207380D01*
X95607142Y-73255000D01*
X95654761Y-73302619D01*
X95702380Y-73397857D01*
X95702380Y-73493095D01*
X95654761Y-73588333D01*
X95607142Y-73635952D01*
X95511904Y-73683571D01*
X95321428Y-73731190D01*
X95083333Y-73731190D01*
X94892857Y-73683571D01*
X94797619Y-73635952D01*
X94750000Y-73588333D01*
X94702380Y-73493095D01*
X95702380Y-72207380D02*
X95702380Y-72778809D01*
X95702380Y-72493095D02*
X94702380Y-72493095D01*
X94845238Y-72588333D01*
X94940476Y-72683571D01*
X94988095Y-72778809D01*
X95702380Y-71874047D02*
X95035714Y-71350238D01*
X95035714Y-71874047D02*
X95702380Y-71350238D01*
X94702380Y-70778809D02*
X94702380Y-70683571D01*
X94750000Y-70588333D01*
X94797619Y-70540714D01*
X94892857Y-70493095D01*
X95083333Y-70445476D01*
X95321428Y-70445476D01*
X95511904Y-70493095D01*
X95607142Y-70540714D01*
X95654761Y-70588333D01*
X95702380Y-70683571D01*
X95702380Y-70778809D01*
X95654761Y-70874047D01*
X95607142Y-70921666D01*
X95511904Y-70969285D01*
X95321428Y-71016904D01*
X95083333Y-71016904D01*
X94892857Y-70969285D01*
X94797619Y-70921666D01*
X94750000Y-70874047D01*
X94702380Y-70778809D01*
X94797619Y-70064523D02*
X94750000Y-70016904D01*
X94702380Y-69921666D01*
X94702380Y-69683571D01*
X94750000Y-69588333D01*
X94797619Y-69540714D01*
X94892857Y-69493095D01*
X94988095Y-69493095D01*
X95130952Y-69540714D01*
X95702380Y-70112142D01*
X95702380Y-69493095D01*
X95797619Y-69302619D02*
X95797619Y-68540714D01*
X95702380Y-68302619D02*
X94702380Y-68302619D01*
X95416666Y-67969285D01*
X94702380Y-67635952D01*
X95702380Y-67635952D01*
X95702380Y-66731190D02*
X95178571Y-66731190D01*
X95083333Y-66778809D01*
X95035714Y-66874047D01*
X95035714Y-67064523D01*
X95083333Y-67159761D01*
X95654761Y-66731190D02*
X95702380Y-66826428D01*
X95702380Y-67064523D01*
X95654761Y-67159761D01*
X95559523Y-67207380D01*
X95464285Y-67207380D01*
X95369047Y-67159761D01*
X95321428Y-67064523D01*
X95321428Y-66826428D01*
X95273809Y-66731190D01*
X95702380Y-66112142D02*
X95654761Y-66207380D01*
X95559523Y-66255000D01*
X94702380Y-66255000D01*
X95654761Y-65350238D02*
X95702380Y-65445476D01*
X95702380Y-65635952D01*
X95654761Y-65731190D01*
X95559523Y-65778809D01*
X95178571Y-65778809D01*
X95083333Y-65731190D01*
X95035714Y-65635952D01*
X95035714Y-65445476D01*
X95083333Y-65350238D01*
X95178571Y-65302619D01*
X95273809Y-65302619D01*
X95369047Y-65778809D01*
G04 #@! TO.C,J5*
X167997142Y-43933333D02*
X168044761Y-43980952D01*
X168092380Y-44123809D01*
X168092380Y-44219047D01*
X168044761Y-44361904D01*
X167949523Y-44457142D01*
X167854285Y-44504761D01*
X167663809Y-44552380D01*
X167520952Y-44552380D01*
X167330476Y-44504761D01*
X167235238Y-44457142D01*
X167140000Y-44361904D01*
X167092380Y-44219047D01*
X167092380Y-44123809D01*
X167140000Y-43980952D01*
X167187619Y-43933333D01*
X168092380Y-43361904D02*
X168044761Y-43457142D01*
X167997142Y-43504761D01*
X167901904Y-43552380D01*
X167616190Y-43552380D01*
X167520952Y-43504761D01*
X167473333Y-43457142D01*
X167425714Y-43361904D01*
X167425714Y-43219047D01*
X167473333Y-43123809D01*
X167520952Y-43076190D01*
X167616190Y-43028571D01*
X167901904Y-43028571D01*
X167997142Y-43076190D01*
X168044761Y-43123809D01*
X168092380Y-43219047D01*
X168092380Y-43361904D01*
X167425714Y-42600000D02*
X168092380Y-42600000D01*
X167520952Y-42600000D02*
X167473333Y-42552380D01*
X167425714Y-42457142D01*
X167425714Y-42314285D01*
X167473333Y-42219047D01*
X167568571Y-42171428D01*
X168092380Y-42171428D01*
X167425714Y-41695238D02*
X168092380Y-41695238D01*
X167520952Y-41695238D02*
X167473333Y-41647619D01*
X167425714Y-41552380D01*
X167425714Y-41409523D01*
X167473333Y-41314285D01*
X167568571Y-41266666D01*
X168092380Y-41266666D01*
X168187619Y-41028571D02*
X168187619Y-40266666D01*
X167092380Y-39838095D02*
X167092380Y-39742857D01*
X167140000Y-39647619D01*
X167187619Y-39600000D01*
X167282857Y-39552380D01*
X167473333Y-39504761D01*
X167711428Y-39504761D01*
X167901904Y-39552380D01*
X167997142Y-39600000D01*
X168044761Y-39647619D01*
X168092380Y-39742857D01*
X168092380Y-39838095D01*
X168044761Y-39933333D01*
X167997142Y-39980952D01*
X167901904Y-40028571D01*
X167711428Y-40076190D01*
X167473333Y-40076190D01*
X167282857Y-40028571D01*
X167187619Y-39980952D01*
X167140000Y-39933333D01*
X167092380Y-39838095D01*
X168092380Y-38552380D02*
X168092380Y-39123809D01*
X168092380Y-38838095D02*
X167092380Y-38838095D01*
X167235238Y-38933333D01*
X167330476Y-39028571D01*
X167378095Y-39123809D01*
X168092380Y-38219047D02*
X167425714Y-37695238D01*
X167425714Y-38219047D02*
X168092380Y-37695238D01*
X167092380Y-37123809D02*
X167092380Y-37028571D01*
X167140000Y-36933333D01*
X167187619Y-36885714D01*
X167282857Y-36838095D01*
X167473333Y-36790476D01*
X167711428Y-36790476D01*
X167901904Y-36838095D01*
X167997142Y-36885714D01*
X168044761Y-36933333D01*
X168092380Y-37028571D01*
X168092380Y-37123809D01*
X168044761Y-37219047D01*
X167997142Y-37266666D01*
X167901904Y-37314285D01*
X167711428Y-37361904D01*
X167473333Y-37361904D01*
X167282857Y-37314285D01*
X167187619Y-37266666D01*
X167140000Y-37219047D01*
X167092380Y-37123809D01*
X167187619Y-36409523D02*
X167140000Y-36361904D01*
X167092380Y-36266666D01*
X167092380Y-36028571D01*
X167140000Y-35933333D01*
X167187619Y-35885714D01*
X167282857Y-35838095D01*
X167378095Y-35838095D01*
X167520952Y-35885714D01*
X168092380Y-36457142D01*
X168092380Y-35838095D01*
X168187619Y-35647619D02*
X168187619Y-34885714D01*
X168092380Y-34647619D02*
X167092380Y-34647619D01*
X167806666Y-34314285D01*
X167092380Y-33980952D01*
X168092380Y-33980952D01*
X168092380Y-33076190D02*
X167568571Y-33076190D01*
X167473333Y-33123809D01*
X167425714Y-33219047D01*
X167425714Y-33409523D01*
X167473333Y-33504761D01*
X168044761Y-33076190D02*
X168092380Y-33171428D01*
X168092380Y-33409523D01*
X168044761Y-33504761D01*
X167949523Y-33552380D01*
X167854285Y-33552380D01*
X167759047Y-33504761D01*
X167711428Y-33409523D01*
X167711428Y-33171428D01*
X167663809Y-33076190D01*
X168092380Y-32457142D02*
X168044761Y-32552380D01*
X167949523Y-32600000D01*
X167092380Y-32600000D01*
X168044761Y-31695238D02*
X168092380Y-31790476D01*
X168092380Y-31980952D01*
X168044761Y-32076190D01*
X167949523Y-32123809D01*
X167568571Y-32123809D01*
X167473333Y-32076190D01*
X167425714Y-31980952D01*
X167425714Y-31790476D01*
X167473333Y-31695238D01*
X167568571Y-31647619D01*
X167663809Y-31647619D01*
X167759047Y-32123809D01*
G04 #@! TO.C,J6*
X167997142Y-55998333D02*
X168044761Y-56045952D01*
X168092380Y-56188809D01*
X168092380Y-56284047D01*
X168044761Y-56426904D01*
X167949523Y-56522142D01*
X167854285Y-56569761D01*
X167663809Y-56617380D01*
X167520952Y-56617380D01*
X167330476Y-56569761D01*
X167235238Y-56522142D01*
X167140000Y-56426904D01*
X167092380Y-56284047D01*
X167092380Y-56188809D01*
X167140000Y-56045952D01*
X167187619Y-55998333D01*
X168092380Y-55426904D02*
X168044761Y-55522142D01*
X167997142Y-55569761D01*
X167901904Y-55617380D01*
X167616190Y-55617380D01*
X167520952Y-55569761D01*
X167473333Y-55522142D01*
X167425714Y-55426904D01*
X167425714Y-55284047D01*
X167473333Y-55188809D01*
X167520952Y-55141190D01*
X167616190Y-55093571D01*
X167901904Y-55093571D01*
X167997142Y-55141190D01*
X168044761Y-55188809D01*
X168092380Y-55284047D01*
X168092380Y-55426904D01*
X167425714Y-54665000D02*
X168092380Y-54665000D01*
X167520952Y-54665000D02*
X167473333Y-54617380D01*
X167425714Y-54522142D01*
X167425714Y-54379285D01*
X167473333Y-54284047D01*
X167568571Y-54236428D01*
X168092380Y-54236428D01*
X167425714Y-53760238D02*
X168092380Y-53760238D01*
X167520952Y-53760238D02*
X167473333Y-53712619D01*
X167425714Y-53617380D01*
X167425714Y-53474523D01*
X167473333Y-53379285D01*
X167568571Y-53331666D01*
X168092380Y-53331666D01*
X168187619Y-53093571D02*
X168187619Y-52331666D01*
X167092380Y-51903095D02*
X167092380Y-51807857D01*
X167140000Y-51712619D01*
X167187619Y-51665000D01*
X167282857Y-51617380D01*
X167473333Y-51569761D01*
X167711428Y-51569761D01*
X167901904Y-51617380D01*
X167997142Y-51665000D01*
X168044761Y-51712619D01*
X168092380Y-51807857D01*
X168092380Y-51903095D01*
X168044761Y-51998333D01*
X167997142Y-52045952D01*
X167901904Y-52093571D01*
X167711428Y-52141190D01*
X167473333Y-52141190D01*
X167282857Y-52093571D01*
X167187619Y-52045952D01*
X167140000Y-51998333D01*
X167092380Y-51903095D01*
X168092380Y-50617380D02*
X168092380Y-51188809D01*
X168092380Y-50903095D02*
X167092380Y-50903095D01*
X167235238Y-50998333D01*
X167330476Y-51093571D01*
X167378095Y-51188809D01*
X168092380Y-50284047D02*
X167425714Y-49760238D01*
X167425714Y-50284047D02*
X168092380Y-49760238D01*
X167092380Y-49188809D02*
X167092380Y-49093571D01*
X167140000Y-48998333D01*
X167187619Y-48950714D01*
X167282857Y-48903095D01*
X167473333Y-48855476D01*
X167711428Y-48855476D01*
X167901904Y-48903095D01*
X167997142Y-48950714D01*
X168044761Y-48998333D01*
X168092380Y-49093571D01*
X168092380Y-49188809D01*
X168044761Y-49284047D01*
X167997142Y-49331666D01*
X167901904Y-49379285D01*
X167711428Y-49426904D01*
X167473333Y-49426904D01*
X167282857Y-49379285D01*
X167187619Y-49331666D01*
X167140000Y-49284047D01*
X167092380Y-49188809D01*
X167187619Y-48474523D02*
X167140000Y-48426904D01*
X167092380Y-48331666D01*
X167092380Y-48093571D01*
X167140000Y-47998333D01*
X167187619Y-47950714D01*
X167282857Y-47903095D01*
X167378095Y-47903095D01*
X167520952Y-47950714D01*
X168092380Y-48522142D01*
X168092380Y-47903095D01*
X168187619Y-47712619D02*
X168187619Y-46950714D01*
X168092380Y-46712619D02*
X167092380Y-46712619D01*
X167806666Y-46379285D01*
X167092380Y-46045952D01*
X168092380Y-46045952D01*
X168092380Y-45141190D02*
X167568571Y-45141190D01*
X167473333Y-45188809D01*
X167425714Y-45284047D01*
X167425714Y-45474523D01*
X167473333Y-45569761D01*
X168044761Y-45141190D02*
X168092380Y-45236428D01*
X168092380Y-45474523D01*
X168044761Y-45569761D01*
X167949523Y-45617380D01*
X167854285Y-45617380D01*
X167759047Y-45569761D01*
X167711428Y-45474523D01*
X167711428Y-45236428D01*
X167663809Y-45141190D01*
X168092380Y-44522142D02*
X168044761Y-44617380D01*
X167949523Y-44665000D01*
X167092380Y-44665000D01*
X168044761Y-43760238D02*
X168092380Y-43855476D01*
X168092380Y-44045952D01*
X168044761Y-44141190D01*
X167949523Y-44188809D01*
X167568571Y-44188809D01*
X167473333Y-44141190D01*
X167425714Y-44045952D01*
X167425714Y-43855476D01*
X167473333Y-43760238D01*
X167568571Y-43712619D01*
X167663809Y-43712619D01*
X167759047Y-44188809D01*
G04 #@! TO.C,J7*
X167997142Y-66158333D02*
X168044761Y-66205952D01*
X168092380Y-66348809D01*
X168092380Y-66444047D01*
X168044761Y-66586904D01*
X167949523Y-66682142D01*
X167854285Y-66729761D01*
X167663809Y-66777380D01*
X167520952Y-66777380D01*
X167330476Y-66729761D01*
X167235238Y-66682142D01*
X167140000Y-66586904D01*
X167092380Y-66444047D01*
X167092380Y-66348809D01*
X167140000Y-66205952D01*
X167187619Y-66158333D01*
X168092380Y-65586904D02*
X168044761Y-65682142D01*
X167997142Y-65729761D01*
X167901904Y-65777380D01*
X167616190Y-65777380D01*
X167520952Y-65729761D01*
X167473333Y-65682142D01*
X167425714Y-65586904D01*
X167425714Y-65444047D01*
X167473333Y-65348809D01*
X167520952Y-65301190D01*
X167616190Y-65253571D01*
X167901904Y-65253571D01*
X167997142Y-65301190D01*
X168044761Y-65348809D01*
X168092380Y-65444047D01*
X168092380Y-65586904D01*
X167425714Y-64825000D02*
X168092380Y-64825000D01*
X167520952Y-64825000D02*
X167473333Y-64777380D01*
X167425714Y-64682142D01*
X167425714Y-64539285D01*
X167473333Y-64444047D01*
X167568571Y-64396428D01*
X168092380Y-64396428D01*
X167425714Y-63920238D02*
X168092380Y-63920238D01*
X167520952Y-63920238D02*
X167473333Y-63872619D01*
X167425714Y-63777380D01*
X167425714Y-63634523D01*
X167473333Y-63539285D01*
X167568571Y-63491666D01*
X168092380Y-63491666D01*
X168187619Y-63253571D02*
X168187619Y-62491666D01*
X167092380Y-62063095D02*
X167092380Y-61967857D01*
X167140000Y-61872619D01*
X167187619Y-61825000D01*
X167282857Y-61777380D01*
X167473333Y-61729761D01*
X167711428Y-61729761D01*
X167901904Y-61777380D01*
X167997142Y-61825000D01*
X168044761Y-61872619D01*
X168092380Y-61967857D01*
X168092380Y-62063095D01*
X168044761Y-62158333D01*
X167997142Y-62205952D01*
X167901904Y-62253571D01*
X167711428Y-62301190D01*
X167473333Y-62301190D01*
X167282857Y-62253571D01*
X167187619Y-62205952D01*
X167140000Y-62158333D01*
X167092380Y-62063095D01*
X168092380Y-60777380D02*
X168092380Y-61348809D01*
X168092380Y-61063095D02*
X167092380Y-61063095D01*
X167235238Y-61158333D01*
X167330476Y-61253571D01*
X167378095Y-61348809D01*
X168092380Y-60444047D02*
X167425714Y-59920238D01*
X167425714Y-60444047D02*
X168092380Y-59920238D01*
X167092380Y-59348809D02*
X167092380Y-59253571D01*
X167140000Y-59158333D01*
X167187619Y-59110714D01*
X167282857Y-59063095D01*
X167473333Y-59015476D01*
X167711428Y-59015476D01*
X167901904Y-59063095D01*
X167997142Y-59110714D01*
X168044761Y-59158333D01*
X168092380Y-59253571D01*
X168092380Y-59348809D01*
X168044761Y-59444047D01*
X167997142Y-59491666D01*
X167901904Y-59539285D01*
X167711428Y-59586904D01*
X167473333Y-59586904D01*
X167282857Y-59539285D01*
X167187619Y-59491666D01*
X167140000Y-59444047D01*
X167092380Y-59348809D01*
X167187619Y-58634523D02*
X167140000Y-58586904D01*
X167092380Y-58491666D01*
X167092380Y-58253571D01*
X167140000Y-58158333D01*
X167187619Y-58110714D01*
X167282857Y-58063095D01*
X167378095Y-58063095D01*
X167520952Y-58110714D01*
X168092380Y-58682142D01*
X168092380Y-58063095D01*
X168187619Y-57872619D02*
X168187619Y-57110714D01*
X168092380Y-56872619D02*
X167092380Y-56872619D01*
X167806666Y-56539285D01*
X167092380Y-56205952D01*
X168092380Y-56205952D01*
X168092380Y-55301190D02*
X167568571Y-55301190D01*
X167473333Y-55348809D01*
X167425714Y-55444047D01*
X167425714Y-55634523D01*
X167473333Y-55729761D01*
X168044761Y-55301190D02*
X168092380Y-55396428D01*
X168092380Y-55634523D01*
X168044761Y-55729761D01*
X167949523Y-55777380D01*
X167854285Y-55777380D01*
X167759047Y-55729761D01*
X167711428Y-55634523D01*
X167711428Y-55396428D01*
X167663809Y-55301190D01*
X168092380Y-54682142D02*
X168044761Y-54777380D01*
X167949523Y-54825000D01*
X167092380Y-54825000D01*
X168044761Y-53920238D02*
X168092380Y-54015476D01*
X168092380Y-54205952D01*
X168044761Y-54301190D01*
X167949523Y-54348809D01*
X167568571Y-54348809D01*
X167473333Y-54301190D01*
X167425714Y-54205952D01*
X167425714Y-54015476D01*
X167473333Y-53920238D01*
X167568571Y-53872619D01*
X167663809Y-53872619D01*
X167759047Y-54348809D01*
G04 #@! TO.C,J8*
X167997142Y-78223333D02*
X168044761Y-78270952D01*
X168092380Y-78413809D01*
X168092380Y-78509047D01*
X168044761Y-78651904D01*
X167949523Y-78747142D01*
X167854285Y-78794761D01*
X167663809Y-78842380D01*
X167520952Y-78842380D01*
X167330476Y-78794761D01*
X167235238Y-78747142D01*
X167140000Y-78651904D01*
X167092380Y-78509047D01*
X167092380Y-78413809D01*
X167140000Y-78270952D01*
X167187619Y-78223333D01*
X168092380Y-77651904D02*
X168044761Y-77747142D01*
X167997142Y-77794761D01*
X167901904Y-77842380D01*
X167616190Y-77842380D01*
X167520952Y-77794761D01*
X167473333Y-77747142D01*
X167425714Y-77651904D01*
X167425714Y-77509047D01*
X167473333Y-77413809D01*
X167520952Y-77366190D01*
X167616190Y-77318571D01*
X167901904Y-77318571D01*
X167997142Y-77366190D01*
X168044761Y-77413809D01*
X168092380Y-77509047D01*
X168092380Y-77651904D01*
X167425714Y-76890000D02*
X168092380Y-76890000D01*
X167520952Y-76890000D02*
X167473333Y-76842380D01*
X167425714Y-76747142D01*
X167425714Y-76604285D01*
X167473333Y-76509047D01*
X167568571Y-76461428D01*
X168092380Y-76461428D01*
X167425714Y-75985238D02*
X168092380Y-75985238D01*
X167520952Y-75985238D02*
X167473333Y-75937619D01*
X167425714Y-75842380D01*
X167425714Y-75699523D01*
X167473333Y-75604285D01*
X167568571Y-75556666D01*
X168092380Y-75556666D01*
X168187619Y-75318571D02*
X168187619Y-74556666D01*
X167092380Y-74128095D02*
X167092380Y-74032857D01*
X167140000Y-73937619D01*
X167187619Y-73890000D01*
X167282857Y-73842380D01*
X167473333Y-73794761D01*
X167711428Y-73794761D01*
X167901904Y-73842380D01*
X167997142Y-73890000D01*
X168044761Y-73937619D01*
X168092380Y-74032857D01*
X168092380Y-74128095D01*
X168044761Y-74223333D01*
X167997142Y-74270952D01*
X167901904Y-74318571D01*
X167711428Y-74366190D01*
X167473333Y-74366190D01*
X167282857Y-74318571D01*
X167187619Y-74270952D01*
X167140000Y-74223333D01*
X167092380Y-74128095D01*
X168092380Y-72842380D02*
X168092380Y-73413809D01*
X168092380Y-73128095D02*
X167092380Y-73128095D01*
X167235238Y-73223333D01*
X167330476Y-73318571D01*
X167378095Y-73413809D01*
X168092380Y-72509047D02*
X167425714Y-71985238D01*
X167425714Y-72509047D02*
X168092380Y-71985238D01*
X167092380Y-71413809D02*
X167092380Y-71318571D01*
X167140000Y-71223333D01*
X167187619Y-71175714D01*
X167282857Y-71128095D01*
X167473333Y-71080476D01*
X167711428Y-71080476D01*
X167901904Y-71128095D01*
X167997142Y-71175714D01*
X168044761Y-71223333D01*
X168092380Y-71318571D01*
X168092380Y-71413809D01*
X168044761Y-71509047D01*
X167997142Y-71556666D01*
X167901904Y-71604285D01*
X167711428Y-71651904D01*
X167473333Y-71651904D01*
X167282857Y-71604285D01*
X167187619Y-71556666D01*
X167140000Y-71509047D01*
X167092380Y-71413809D01*
X167187619Y-70699523D02*
X167140000Y-70651904D01*
X167092380Y-70556666D01*
X167092380Y-70318571D01*
X167140000Y-70223333D01*
X167187619Y-70175714D01*
X167282857Y-70128095D01*
X167378095Y-70128095D01*
X167520952Y-70175714D01*
X168092380Y-70747142D01*
X168092380Y-70128095D01*
X168187619Y-69937619D02*
X168187619Y-69175714D01*
X168092380Y-68937619D02*
X167092380Y-68937619D01*
X167806666Y-68604285D01*
X167092380Y-68270952D01*
X168092380Y-68270952D01*
X168092380Y-67366190D02*
X167568571Y-67366190D01*
X167473333Y-67413809D01*
X167425714Y-67509047D01*
X167425714Y-67699523D01*
X167473333Y-67794761D01*
X168044761Y-67366190D02*
X168092380Y-67461428D01*
X168092380Y-67699523D01*
X168044761Y-67794761D01*
X167949523Y-67842380D01*
X167854285Y-67842380D01*
X167759047Y-67794761D01*
X167711428Y-67699523D01*
X167711428Y-67461428D01*
X167663809Y-67366190D01*
X168092380Y-66747142D02*
X168044761Y-66842380D01*
X167949523Y-66890000D01*
X167092380Y-66890000D01*
X168044761Y-65985238D02*
X168092380Y-66080476D01*
X168092380Y-66270952D01*
X168044761Y-66366190D01*
X167949523Y-66413809D01*
X167568571Y-66413809D01*
X167473333Y-66366190D01*
X167425714Y-66270952D01*
X167425714Y-66080476D01*
X167473333Y-65985238D01*
X167568571Y-65937619D01*
X167663809Y-65937619D01*
X167759047Y-66413809D01*
G04 #@! TO.C,J11*
X126373666Y-31599142D02*
X126326047Y-31646761D01*
X126183190Y-31694380D01*
X126087952Y-31694380D01*
X125945095Y-31646761D01*
X125849857Y-31551523D01*
X125802238Y-31456285D01*
X125754619Y-31265809D01*
X125754619Y-31122952D01*
X125802238Y-30932476D01*
X125849857Y-30837238D01*
X125945095Y-30742000D01*
X126087952Y-30694380D01*
X126183190Y-30694380D01*
X126326047Y-30742000D01*
X126373666Y-30789619D01*
X126945095Y-31694380D02*
X126849857Y-31646761D01*
X126802238Y-31599142D01*
X126754619Y-31503904D01*
X126754619Y-31218190D01*
X126802238Y-31122952D01*
X126849857Y-31075333D01*
X126945095Y-31027714D01*
X127087952Y-31027714D01*
X127183190Y-31075333D01*
X127230809Y-31122952D01*
X127278428Y-31218190D01*
X127278428Y-31503904D01*
X127230809Y-31599142D01*
X127183190Y-31646761D01*
X127087952Y-31694380D01*
X126945095Y-31694380D01*
X127707000Y-31027714D02*
X127707000Y-31694380D01*
X127707000Y-31122952D02*
X127754619Y-31075333D01*
X127849857Y-31027714D01*
X127992714Y-31027714D01*
X128087952Y-31075333D01*
X128135571Y-31170571D01*
X128135571Y-31694380D01*
X128611761Y-31027714D02*
X128611761Y-31694380D01*
X128611761Y-31122952D02*
X128659380Y-31075333D01*
X128754619Y-31027714D01*
X128897476Y-31027714D01*
X128992714Y-31075333D01*
X129040333Y-31170571D01*
X129040333Y-31694380D01*
X129278428Y-31789619D02*
X130040333Y-31789619D01*
X130468904Y-30694380D02*
X130564142Y-30694380D01*
X130659380Y-30742000D01*
X130707000Y-30789619D01*
X130754619Y-30884857D01*
X130802238Y-31075333D01*
X130802238Y-31313428D01*
X130754619Y-31503904D01*
X130707000Y-31599142D01*
X130659380Y-31646761D01*
X130564142Y-31694380D01*
X130468904Y-31694380D01*
X130373666Y-31646761D01*
X130326047Y-31599142D01*
X130278428Y-31503904D01*
X130230809Y-31313428D01*
X130230809Y-31075333D01*
X130278428Y-30884857D01*
X130326047Y-30789619D01*
X130373666Y-30742000D01*
X130468904Y-30694380D01*
X131754619Y-31694380D02*
X131183190Y-31694380D01*
X131468904Y-31694380D02*
X131468904Y-30694380D01*
X131373666Y-30837238D01*
X131278428Y-30932476D01*
X131183190Y-30980095D01*
X132087952Y-31694380D02*
X132611761Y-31027714D01*
X132087952Y-31027714D02*
X132611761Y-31694380D01*
X133183190Y-30694380D02*
X133278428Y-30694380D01*
X133373666Y-30742000D01*
X133421285Y-30789619D01*
X133468904Y-30884857D01*
X133516523Y-31075333D01*
X133516523Y-31313428D01*
X133468904Y-31503904D01*
X133421285Y-31599142D01*
X133373666Y-31646761D01*
X133278428Y-31694380D01*
X133183190Y-31694380D01*
X133087952Y-31646761D01*
X133040333Y-31599142D01*
X132992714Y-31503904D01*
X132945095Y-31313428D01*
X132945095Y-31075333D01*
X132992714Y-30884857D01*
X133040333Y-30789619D01*
X133087952Y-30742000D01*
X133183190Y-30694380D01*
X133897476Y-30789619D02*
X133945095Y-30742000D01*
X134040333Y-30694380D01*
X134278428Y-30694380D01*
X134373666Y-30742000D01*
X134421285Y-30789619D01*
X134468904Y-30884857D01*
X134468904Y-30980095D01*
X134421285Y-31122952D01*
X133849857Y-31694380D01*
X134468904Y-31694380D01*
X134659380Y-31789619D02*
X135421285Y-31789619D01*
X135659380Y-31694380D02*
X135659380Y-30694380D01*
X135992714Y-31408666D01*
X136326047Y-30694380D01*
X136326047Y-31694380D01*
X137230809Y-31694380D02*
X137230809Y-31170571D01*
X137183190Y-31075333D01*
X137087952Y-31027714D01*
X136897476Y-31027714D01*
X136802238Y-31075333D01*
X137230809Y-31646761D02*
X137135571Y-31694380D01*
X136897476Y-31694380D01*
X136802238Y-31646761D01*
X136754619Y-31551523D01*
X136754619Y-31456285D01*
X136802238Y-31361047D01*
X136897476Y-31313428D01*
X137135571Y-31313428D01*
X137230809Y-31265809D01*
X137849857Y-31694380D02*
X137754619Y-31646761D01*
X137707000Y-31551523D01*
X137707000Y-30694380D01*
X138611761Y-31646761D02*
X138516523Y-31694380D01*
X138326047Y-31694380D01*
X138230809Y-31646761D01*
X138183190Y-31551523D01*
X138183190Y-31170571D01*
X138230809Y-31075333D01*
X138326047Y-31027714D01*
X138516523Y-31027714D01*
X138611761Y-31075333D01*
X138659380Y-31170571D01*
X138659380Y-31265809D01*
X138183190Y-31361047D01*
G04 #@! TO.C,D1*
X125967380Y-35567857D02*
X125967380Y-36044047D01*
X124967380Y-36044047D01*
X125443571Y-35234523D02*
X125443571Y-34901190D01*
X125967380Y-34758333D02*
X125967380Y-35234523D01*
X124967380Y-35234523D01*
X124967380Y-34758333D01*
X125967380Y-34329761D02*
X124967380Y-34329761D01*
X124967380Y-34091666D01*
X125015000Y-33948809D01*
X125110238Y-33853571D01*
X125205476Y-33805952D01*
X125395952Y-33758333D01*
X125538809Y-33758333D01*
X125729285Y-33805952D01*
X125824523Y-33853571D01*
X125919761Y-33948809D01*
X125967380Y-34091666D01*
X125967380Y-34329761D01*
G04 #@! TO.C,D2*
X125967380Y-46997857D02*
X125967380Y-47474047D01*
X124967380Y-47474047D01*
X125443571Y-46664523D02*
X125443571Y-46331190D01*
X125967380Y-46188333D02*
X125967380Y-46664523D01*
X124967380Y-46664523D01*
X124967380Y-46188333D01*
X125967380Y-45759761D02*
X124967380Y-45759761D01*
X124967380Y-45521666D01*
X125015000Y-45378809D01*
X125110238Y-45283571D01*
X125205476Y-45235952D01*
X125395952Y-45188333D01*
X125538809Y-45188333D01*
X125729285Y-45235952D01*
X125824523Y-45283571D01*
X125919761Y-45378809D01*
X125967380Y-45521666D01*
X125967380Y-45759761D01*
G04 #@! TO.C,D3*
X125967380Y-58427857D02*
X125967380Y-58904047D01*
X124967380Y-58904047D01*
X125443571Y-58094523D02*
X125443571Y-57761190D01*
X125967380Y-57618333D02*
X125967380Y-58094523D01*
X124967380Y-58094523D01*
X124967380Y-57618333D01*
X125967380Y-57189761D02*
X124967380Y-57189761D01*
X124967380Y-56951666D01*
X125015000Y-56808809D01*
X125110238Y-56713571D01*
X125205476Y-56665952D01*
X125395952Y-56618333D01*
X125538809Y-56618333D01*
X125729285Y-56665952D01*
X125824523Y-56713571D01*
X125919761Y-56808809D01*
X125967380Y-56951666D01*
X125967380Y-57189761D01*
G04 #@! TO.C,D4*
X125967380Y-69857857D02*
X125967380Y-70334047D01*
X124967380Y-70334047D01*
X125443571Y-69524523D02*
X125443571Y-69191190D01*
X125967380Y-69048333D02*
X125967380Y-69524523D01*
X124967380Y-69524523D01*
X124967380Y-69048333D01*
X125967380Y-68619761D02*
X124967380Y-68619761D01*
X124967380Y-68381666D01*
X125015000Y-68238809D01*
X125110238Y-68143571D01*
X125205476Y-68095952D01*
X125395952Y-68048333D01*
X125538809Y-68048333D01*
X125729285Y-68095952D01*
X125824523Y-68143571D01*
X125919761Y-68238809D01*
X125967380Y-68381666D01*
X125967380Y-68619761D01*
G04 #@! TO.C,D5*
X138882380Y-35567857D02*
X138882380Y-36044047D01*
X137882380Y-36044047D01*
X138358571Y-35234523D02*
X138358571Y-34901190D01*
X138882380Y-34758333D02*
X138882380Y-35234523D01*
X137882380Y-35234523D01*
X137882380Y-34758333D01*
X138882380Y-34329761D02*
X137882380Y-34329761D01*
X137882380Y-34091666D01*
X137930000Y-33948809D01*
X138025238Y-33853571D01*
X138120476Y-33805952D01*
X138310952Y-33758333D01*
X138453809Y-33758333D01*
X138644285Y-33805952D01*
X138739523Y-33853571D01*
X138834761Y-33948809D01*
X138882380Y-34091666D01*
X138882380Y-34329761D01*
G04 #@! TO.C,D6*
X138882380Y-46997857D02*
X138882380Y-47474047D01*
X137882380Y-47474047D01*
X138358571Y-46664523D02*
X138358571Y-46331190D01*
X138882380Y-46188333D02*
X138882380Y-46664523D01*
X137882380Y-46664523D01*
X137882380Y-46188333D01*
X138882380Y-45759761D02*
X137882380Y-45759761D01*
X137882380Y-45521666D01*
X137930000Y-45378809D01*
X138025238Y-45283571D01*
X138120476Y-45235952D01*
X138310952Y-45188333D01*
X138453809Y-45188333D01*
X138644285Y-45235952D01*
X138739523Y-45283571D01*
X138834761Y-45378809D01*
X138882380Y-45521666D01*
X138882380Y-45759761D01*
G04 #@! TO.C,D7*
X138882380Y-58427857D02*
X138882380Y-58904047D01*
X137882380Y-58904047D01*
X138358571Y-58094523D02*
X138358571Y-57761190D01*
X138882380Y-57618333D02*
X138882380Y-58094523D01*
X137882380Y-58094523D01*
X137882380Y-57618333D01*
X138882380Y-57189761D02*
X137882380Y-57189761D01*
X137882380Y-56951666D01*
X137930000Y-56808809D01*
X138025238Y-56713571D01*
X138120476Y-56665952D01*
X138310952Y-56618333D01*
X138453809Y-56618333D01*
X138644285Y-56665952D01*
X138739523Y-56713571D01*
X138834761Y-56808809D01*
X138882380Y-56951666D01*
X138882380Y-57189761D01*
G04 #@! TO.C,D8*
X138882380Y-69857857D02*
X138882380Y-70334047D01*
X137882380Y-70334047D01*
X138358571Y-69524523D02*
X138358571Y-69191190D01*
X138882380Y-69048333D02*
X138882380Y-69524523D01*
X137882380Y-69524523D01*
X137882380Y-69048333D01*
X138882380Y-68619761D02*
X137882380Y-68619761D01*
X137882380Y-68381666D01*
X137930000Y-68238809D01*
X138025238Y-68143571D01*
X138120476Y-68095952D01*
X138310952Y-68048333D01*
X138453809Y-68048333D01*
X138644285Y-68095952D01*
X138739523Y-68143571D01*
X138834761Y-68238809D01*
X138882380Y-68381666D01*
X138882380Y-68619761D01*
G04 #@! TO.C,J9*
X124976666Y-80367142D02*
X124929047Y-80414761D01*
X124786190Y-80462380D01*
X124690952Y-80462380D01*
X124548095Y-80414761D01*
X124452857Y-80319523D01*
X124405238Y-80224285D01*
X124357619Y-80033809D01*
X124357619Y-79890952D01*
X124405238Y-79700476D01*
X124452857Y-79605238D01*
X124548095Y-79510000D01*
X124690952Y-79462380D01*
X124786190Y-79462380D01*
X124929047Y-79510000D01*
X124976666Y-79557619D01*
X125548095Y-80462380D02*
X125452857Y-80414761D01*
X125405238Y-80367142D01*
X125357619Y-80271904D01*
X125357619Y-79986190D01*
X125405238Y-79890952D01*
X125452857Y-79843333D01*
X125548095Y-79795714D01*
X125690952Y-79795714D01*
X125786190Y-79843333D01*
X125833809Y-79890952D01*
X125881428Y-79986190D01*
X125881428Y-80271904D01*
X125833809Y-80367142D01*
X125786190Y-80414761D01*
X125690952Y-80462380D01*
X125548095Y-80462380D01*
X126310000Y-79795714D02*
X126310000Y-80462380D01*
X126310000Y-79890952D02*
X126357619Y-79843333D01*
X126452857Y-79795714D01*
X126595714Y-79795714D01*
X126690952Y-79843333D01*
X126738571Y-79938571D01*
X126738571Y-80462380D01*
X127214761Y-79795714D02*
X127214761Y-80462380D01*
X127214761Y-79890952D02*
X127262380Y-79843333D01*
X127357619Y-79795714D01*
X127500476Y-79795714D01*
X127595714Y-79843333D01*
X127643333Y-79938571D01*
X127643333Y-80462380D01*
X127881428Y-80557619D02*
X128643333Y-80557619D01*
X129071904Y-79462380D02*
X129167142Y-79462380D01*
X129262380Y-79510000D01*
X129310000Y-79557619D01*
X129357619Y-79652857D01*
X129405238Y-79843333D01*
X129405238Y-80081428D01*
X129357619Y-80271904D01*
X129310000Y-80367142D01*
X129262380Y-80414761D01*
X129167142Y-80462380D01*
X129071904Y-80462380D01*
X128976666Y-80414761D01*
X128929047Y-80367142D01*
X128881428Y-80271904D01*
X128833809Y-80081428D01*
X128833809Y-79843333D01*
X128881428Y-79652857D01*
X128929047Y-79557619D01*
X128976666Y-79510000D01*
X129071904Y-79462380D01*
X130357619Y-80462380D02*
X129786190Y-80462380D01*
X130071904Y-80462380D02*
X130071904Y-79462380D01*
X129976666Y-79605238D01*
X129881428Y-79700476D01*
X129786190Y-79748095D01*
X130690952Y-80462380D02*
X131214761Y-79795714D01*
X130690952Y-79795714D02*
X131214761Y-80462380D01*
X131786190Y-79462380D02*
X131881428Y-79462380D01*
X131976666Y-79510000D01*
X132024285Y-79557619D01*
X132071904Y-79652857D01*
X132119523Y-79843333D01*
X132119523Y-80081428D01*
X132071904Y-80271904D01*
X132024285Y-80367142D01*
X131976666Y-80414761D01*
X131881428Y-80462380D01*
X131786190Y-80462380D01*
X131690952Y-80414761D01*
X131643333Y-80367142D01*
X131595714Y-80271904D01*
X131548095Y-80081428D01*
X131548095Y-79843333D01*
X131595714Y-79652857D01*
X131643333Y-79557619D01*
X131690952Y-79510000D01*
X131786190Y-79462380D01*
X132690952Y-79890952D02*
X132595714Y-79843333D01*
X132548095Y-79795714D01*
X132500476Y-79700476D01*
X132500476Y-79652857D01*
X132548095Y-79557619D01*
X132595714Y-79510000D01*
X132690952Y-79462380D01*
X132881428Y-79462380D01*
X132976666Y-79510000D01*
X133024285Y-79557619D01*
X133071904Y-79652857D01*
X133071904Y-79700476D01*
X133024285Y-79795714D01*
X132976666Y-79843333D01*
X132881428Y-79890952D01*
X132690952Y-79890952D01*
X132595714Y-79938571D01*
X132548095Y-79986190D01*
X132500476Y-80081428D01*
X132500476Y-80271904D01*
X132548095Y-80367142D01*
X132595714Y-80414761D01*
X132690952Y-80462380D01*
X132881428Y-80462380D01*
X132976666Y-80414761D01*
X133024285Y-80367142D01*
X133071904Y-80271904D01*
X133071904Y-80081428D01*
X133024285Y-79986190D01*
X132976666Y-79938571D01*
X132881428Y-79890952D01*
X133262380Y-80557619D02*
X134024285Y-80557619D01*
X134262380Y-80462380D02*
X134262380Y-79462380D01*
X134595714Y-80176666D01*
X134929047Y-79462380D01*
X134929047Y-80462380D01*
X135833809Y-80462380D02*
X135833809Y-79938571D01*
X135786190Y-79843333D01*
X135690952Y-79795714D01*
X135500476Y-79795714D01*
X135405238Y-79843333D01*
X135833809Y-80414761D02*
X135738571Y-80462380D01*
X135500476Y-80462380D01*
X135405238Y-80414761D01*
X135357619Y-80319523D01*
X135357619Y-80224285D01*
X135405238Y-80129047D01*
X135500476Y-80081428D01*
X135738571Y-80081428D01*
X135833809Y-80033809D01*
X136452857Y-80462380D02*
X136357619Y-80414761D01*
X136310000Y-80319523D01*
X136310000Y-79462380D01*
X137214761Y-80414761D02*
X137119523Y-80462380D01*
X136929047Y-80462380D01*
X136833809Y-80414761D01*
X136786190Y-80319523D01*
X136786190Y-79938571D01*
X136833809Y-79843333D01*
X136929047Y-79795714D01*
X137119523Y-79795714D01*
X137214761Y-79843333D01*
X137262380Y-79938571D01*
X137262380Y-80033809D01*
X136786190Y-80129047D01*
G04 #@! TO.C,J10*
X124976666Y-82907142D02*
X124929047Y-82954761D01*
X124786190Y-83002380D01*
X124690952Y-83002380D01*
X124548095Y-82954761D01*
X124452857Y-82859523D01*
X124405238Y-82764285D01*
X124357619Y-82573809D01*
X124357619Y-82430952D01*
X124405238Y-82240476D01*
X124452857Y-82145238D01*
X124548095Y-82050000D01*
X124690952Y-82002380D01*
X124786190Y-82002380D01*
X124929047Y-82050000D01*
X124976666Y-82097619D01*
X125548095Y-83002380D02*
X125452857Y-82954761D01*
X125405238Y-82907142D01*
X125357619Y-82811904D01*
X125357619Y-82526190D01*
X125405238Y-82430952D01*
X125452857Y-82383333D01*
X125548095Y-82335714D01*
X125690952Y-82335714D01*
X125786190Y-82383333D01*
X125833809Y-82430952D01*
X125881428Y-82526190D01*
X125881428Y-82811904D01*
X125833809Y-82907142D01*
X125786190Y-82954761D01*
X125690952Y-83002380D01*
X125548095Y-83002380D01*
X126310000Y-82335714D02*
X126310000Y-83002380D01*
X126310000Y-82430952D02*
X126357619Y-82383333D01*
X126452857Y-82335714D01*
X126595714Y-82335714D01*
X126690952Y-82383333D01*
X126738571Y-82478571D01*
X126738571Y-83002380D01*
X127214761Y-82335714D02*
X127214761Y-83002380D01*
X127214761Y-82430952D02*
X127262380Y-82383333D01*
X127357619Y-82335714D01*
X127500476Y-82335714D01*
X127595714Y-82383333D01*
X127643333Y-82478571D01*
X127643333Y-83002380D01*
X127881428Y-83097619D02*
X128643333Y-83097619D01*
X129071904Y-82002380D02*
X129167142Y-82002380D01*
X129262380Y-82050000D01*
X129310000Y-82097619D01*
X129357619Y-82192857D01*
X129405238Y-82383333D01*
X129405238Y-82621428D01*
X129357619Y-82811904D01*
X129310000Y-82907142D01*
X129262380Y-82954761D01*
X129167142Y-83002380D01*
X129071904Y-83002380D01*
X128976666Y-82954761D01*
X128929047Y-82907142D01*
X128881428Y-82811904D01*
X128833809Y-82621428D01*
X128833809Y-82383333D01*
X128881428Y-82192857D01*
X128929047Y-82097619D01*
X128976666Y-82050000D01*
X129071904Y-82002380D01*
X130357619Y-83002380D02*
X129786190Y-83002380D01*
X130071904Y-83002380D02*
X130071904Y-82002380D01*
X129976666Y-82145238D01*
X129881428Y-82240476D01*
X129786190Y-82288095D01*
X130690952Y-83002380D02*
X131214761Y-82335714D01*
X130690952Y-82335714D02*
X131214761Y-83002380D01*
X131786190Y-82002380D02*
X131881428Y-82002380D01*
X131976666Y-82050000D01*
X132024285Y-82097619D01*
X132071904Y-82192857D01*
X132119523Y-82383333D01*
X132119523Y-82621428D01*
X132071904Y-82811904D01*
X132024285Y-82907142D01*
X131976666Y-82954761D01*
X131881428Y-83002380D01*
X131786190Y-83002380D01*
X131690952Y-82954761D01*
X131643333Y-82907142D01*
X131595714Y-82811904D01*
X131548095Y-82621428D01*
X131548095Y-82383333D01*
X131595714Y-82192857D01*
X131643333Y-82097619D01*
X131690952Y-82050000D01*
X131786190Y-82002380D01*
X132690952Y-82430952D02*
X132595714Y-82383333D01*
X132548095Y-82335714D01*
X132500476Y-82240476D01*
X132500476Y-82192857D01*
X132548095Y-82097619D01*
X132595714Y-82050000D01*
X132690952Y-82002380D01*
X132881428Y-82002380D01*
X132976666Y-82050000D01*
X133024285Y-82097619D01*
X133071904Y-82192857D01*
X133071904Y-82240476D01*
X133024285Y-82335714D01*
X132976666Y-82383333D01*
X132881428Y-82430952D01*
X132690952Y-82430952D01*
X132595714Y-82478571D01*
X132548095Y-82526190D01*
X132500476Y-82621428D01*
X132500476Y-82811904D01*
X132548095Y-82907142D01*
X132595714Y-82954761D01*
X132690952Y-83002380D01*
X132881428Y-83002380D01*
X132976666Y-82954761D01*
X133024285Y-82907142D01*
X133071904Y-82811904D01*
X133071904Y-82621428D01*
X133024285Y-82526190D01*
X132976666Y-82478571D01*
X132881428Y-82430952D01*
X133262380Y-83097619D02*
X134024285Y-83097619D01*
X134262380Y-83002380D02*
X134262380Y-82002380D01*
X134595714Y-82716666D01*
X134929047Y-82002380D01*
X134929047Y-83002380D01*
X135833809Y-83002380D02*
X135833809Y-82478571D01*
X135786190Y-82383333D01*
X135690952Y-82335714D01*
X135500476Y-82335714D01*
X135405238Y-82383333D01*
X135833809Y-82954761D02*
X135738571Y-83002380D01*
X135500476Y-83002380D01*
X135405238Y-82954761D01*
X135357619Y-82859523D01*
X135357619Y-82764285D01*
X135405238Y-82669047D01*
X135500476Y-82621428D01*
X135738571Y-82621428D01*
X135833809Y-82573809D01*
X136452857Y-83002380D02*
X136357619Y-82954761D01*
X136310000Y-82859523D01*
X136310000Y-82002380D01*
X137214761Y-82954761D02*
X137119523Y-83002380D01*
X136929047Y-83002380D01*
X136833809Y-82954761D01*
X136786190Y-82859523D01*
X136786190Y-82478571D01*
X136833809Y-82383333D01*
X136929047Y-82335714D01*
X137119523Y-82335714D01*
X137214761Y-82383333D01*
X137262380Y-82478571D01*
X137262380Y-82573809D01*
X136786190Y-82669047D01*
G04 #@! TO.C,R1*
X118308380Y-34218476D02*
X118308380Y-34789904D01*
X118308380Y-34504190D02*
X117308380Y-34504190D01*
X117451238Y-34599428D01*
X117546476Y-34694666D01*
X117594095Y-34789904D01*
X117308380Y-33599428D02*
X117308380Y-33504190D01*
X117356000Y-33408952D01*
X117403619Y-33361333D01*
X117498857Y-33313714D01*
X117689333Y-33266095D01*
X117927428Y-33266095D01*
X118117904Y-33313714D01*
X118213142Y-33361333D01*
X118260761Y-33408952D01*
X118308380Y-33504190D01*
X118308380Y-33599428D01*
X118260761Y-33694666D01*
X118213142Y-33742285D01*
X118117904Y-33789904D01*
X117927428Y-33837523D01*
X117689333Y-33837523D01*
X117498857Y-33789904D01*
X117403619Y-33742285D01*
X117356000Y-33694666D01*
X117308380Y-33599428D01*
X118308380Y-32837523D02*
X117308380Y-32837523D01*
X118308380Y-32266095D02*
X117736952Y-32694666D01*
X117308380Y-32266095D02*
X117879809Y-32837523D01*
G04 #@! TO.C,R2*
X115768380Y-36885476D02*
X115768380Y-37456904D01*
X115768380Y-37171190D02*
X114768380Y-37171190D01*
X114911238Y-37266428D01*
X115006476Y-37361666D01*
X115054095Y-37456904D01*
X114768380Y-36266428D02*
X114768380Y-36171190D01*
X114816000Y-36075952D01*
X114863619Y-36028333D01*
X114958857Y-35980714D01*
X115149333Y-35933095D01*
X115387428Y-35933095D01*
X115577904Y-35980714D01*
X115673142Y-36028333D01*
X115720761Y-36075952D01*
X115768380Y-36171190D01*
X115768380Y-36266428D01*
X115720761Y-36361666D01*
X115673142Y-36409285D01*
X115577904Y-36456904D01*
X115387428Y-36504523D01*
X115149333Y-36504523D01*
X114958857Y-36456904D01*
X114863619Y-36409285D01*
X114816000Y-36361666D01*
X114768380Y-36266428D01*
X115768380Y-35504523D02*
X114768380Y-35504523D01*
X115768380Y-34933095D02*
X115196952Y-35361666D01*
X114768380Y-34933095D02*
X115339809Y-35504523D01*
G04 #@! TO.C,R3*
X106878380Y-34599476D02*
X106878380Y-35170904D01*
X106878380Y-34885190D02*
X105878380Y-34885190D01*
X106021238Y-34980428D01*
X106116476Y-35075666D01*
X106164095Y-35170904D01*
X105878380Y-33980428D02*
X105878380Y-33885190D01*
X105926000Y-33789952D01*
X105973619Y-33742333D01*
X106068857Y-33694714D01*
X106259333Y-33647095D01*
X106497428Y-33647095D01*
X106687904Y-33694714D01*
X106783142Y-33742333D01*
X106830761Y-33789952D01*
X106878380Y-33885190D01*
X106878380Y-33980428D01*
X106830761Y-34075666D01*
X106783142Y-34123285D01*
X106687904Y-34170904D01*
X106497428Y-34218523D01*
X106259333Y-34218523D01*
X106068857Y-34170904D01*
X105973619Y-34123285D01*
X105926000Y-34075666D01*
X105878380Y-33980428D01*
X106878380Y-33218523D02*
X105878380Y-33218523D01*
X106878380Y-32647095D02*
X106306952Y-33075666D01*
X105878380Y-32647095D02*
X106449809Y-33218523D01*
G04 #@! TO.C,R4*
X118435380Y-45775476D02*
X118435380Y-46346904D01*
X118435380Y-46061190D02*
X117435380Y-46061190D01*
X117578238Y-46156428D01*
X117673476Y-46251666D01*
X117721095Y-46346904D01*
X117435380Y-45156428D02*
X117435380Y-45061190D01*
X117483000Y-44965952D01*
X117530619Y-44918333D01*
X117625857Y-44870714D01*
X117816333Y-44823095D01*
X118054428Y-44823095D01*
X118244904Y-44870714D01*
X118340142Y-44918333D01*
X118387761Y-44965952D01*
X118435380Y-45061190D01*
X118435380Y-45156428D01*
X118387761Y-45251666D01*
X118340142Y-45299285D01*
X118244904Y-45346904D01*
X118054428Y-45394523D01*
X117816333Y-45394523D01*
X117625857Y-45346904D01*
X117530619Y-45299285D01*
X117483000Y-45251666D01*
X117435380Y-45156428D01*
X118435380Y-44394523D02*
X117435380Y-44394523D01*
X118435380Y-43823095D02*
X117863952Y-44251666D01*
X117435380Y-43823095D02*
X118006809Y-44394523D01*
G04 #@! TO.C,R5*
X115895380Y-48442476D02*
X115895380Y-49013904D01*
X115895380Y-48728190D02*
X114895380Y-48728190D01*
X115038238Y-48823428D01*
X115133476Y-48918666D01*
X115181095Y-49013904D01*
X114895380Y-47823428D02*
X114895380Y-47728190D01*
X114943000Y-47632952D01*
X114990619Y-47585333D01*
X115085857Y-47537714D01*
X115276333Y-47490095D01*
X115514428Y-47490095D01*
X115704904Y-47537714D01*
X115800142Y-47585333D01*
X115847761Y-47632952D01*
X115895380Y-47728190D01*
X115895380Y-47823428D01*
X115847761Y-47918666D01*
X115800142Y-47966285D01*
X115704904Y-48013904D01*
X115514428Y-48061523D01*
X115276333Y-48061523D01*
X115085857Y-48013904D01*
X114990619Y-47966285D01*
X114943000Y-47918666D01*
X114895380Y-47823428D01*
X115895380Y-47061523D02*
X114895380Y-47061523D01*
X115895380Y-46490095D02*
X115323952Y-46918666D01*
X114895380Y-46490095D02*
X115466809Y-47061523D01*
G04 #@! TO.C,R6*
X106878380Y-45775476D02*
X106878380Y-46346904D01*
X106878380Y-46061190D02*
X105878380Y-46061190D01*
X106021238Y-46156428D01*
X106116476Y-46251666D01*
X106164095Y-46346904D01*
X105878380Y-45156428D02*
X105878380Y-45061190D01*
X105926000Y-44965952D01*
X105973619Y-44918333D01*
X106068857Y-44870714D01*
X106259333Y-44823095D01*
X106497428Y-44823095D01*
X106687904Y-44870714D01*
X106783142Y-44918333D01*
X106830761Y-44965952D01*
X106878380Y-45061190D01*
X106878380Y-45156428D01*
X106830761Y-45251666D01*
X106783142Y-45299285D01*
X106687904Y-45346904D01*
X106497428Y-45394523D01*
X106259333Y-45394523D01*
X106068857Y-45346904D01*
X105973619Y-45299285D01*
X105926000Y-45251666D01*
X105878380Y-45156428D01*
X106878380Y-44394523D02*
X105878380Y-44394523D01*
X106878380Y-43823095D02*
X106306952Y-44251666D01*
X105878380Y-43823095D02*
X106449809Y-44394523D01*
G04 #@! TO.C,R7*
X118435380Y-57332476D02*
X118435380Y-57903904D01*
X118435380Y-57618190D02*
X117435380Y-57618190D01*
X117578238Y-57713428D01*
X117673476Y-57808666D01*
X117721095Y-57903904D01*
X117435380Y-56713428D02*
X117435380Y-56618190D01*
X117483000Y-56522952D01*
X117530619Y-56475333D01*
X117625857Y-56427714D01*
X117816333Y-56380095D01*
X118054428Y-56380095D01*
X118244904Y-56427714D01*
X118340142Y-56475333D01*
X118387761Y-56522952D01*
X118435380Y-56618190D01*
X118435380Y-56713428D01*
X118387761Y-56808666D01*
X118340142Y-56856285D01*
X118244904Y-56903904D01*
X118054428Y-56951523D01*
X117816333Y-56951523D01*
X117625857Y-56903904D01*
X117530619Y-56856285D01*
X117483000Y-56808666D01*
X117435380Y-56713428D01*
X118435380Y-55951523D02*
X117435380Y-55951523D01*
X118435380Y-55380095D02*
X117863952Y-55808666D01*
X117435380Y-55380095D02*
X118006809Y-55951523D01*
G04 #@! TO.C,R8*
X115895380Y-59745476D02*
X115895380Y-60316904D01*
X115895380Y-60031190D02*
X114895380Y-60031190D01*
X115038238Y-60126428D01*
X115133476Y-60221666D01*
X115181095Y-60316904D01*
X114895380Y-59126428D02*
X114895380Y-59031190D01*
X114943000Y-58935952D01*
X114990619Y-58888333D01*
X115085857Y-58840714D01*
X115276333Y-58793095D01*
X115514428Y-58793095D01*
X115704904Y-58840714D01*
X115800142Y-58888333D01*
X115847761Y-58935952D01*
X115895380Y-59031190D01*
X115895380Y-59126428D01*
X115847761Y-59221666D01*
X115800142Y-59269285D01*
X115704904Y-59316904D01*
X115514428Y-59364523D01*
X115276333Y-59364523D01*
X115085857Y-59316904D01*
X114990619Y-59269285D01*
X114943000Y-59221666D01*
X114895380Y-59126428D01*
X115895380Y-58364523D02*
X114895380Y-58364523D01*
X115895380Y-57793095D02*
X115323952Y-58221666D01*
X114895380Y-57793095D02*
X115466809Y-58364523D01*
G04 #@! TO.C,R9*
X106878380Y-57205476D02*
X106878380Y-57776904D01*
X106878380Y-57491190D02*
X105878380Y-57491190D01*
X106021238Y-57586428D01*
X106116476Y-57681666D01*
X106164095Y-57776904D01*
X105878380Y-56586428D02*
X105878380Y-56491190D01*
X105926000Y-56395952D01*
X105973619Y-56348333D01*
X106068857Y-56300714D01*
X106259333Y-56253095D01*
X106497428Y-56253095D01*
X106687904Y-56300714D01*
X106783142Y-56348333D01*
X106830761Y-56395952D01*
X106878380Y-56491190D01*
X106878380Y-56586428D01*
X106830761Y-56681666D01*
X106783142Y-56729285D01*
X106687904Y-56776904D01*
X106497428Y-56824523D01*
X106259333Y-56824523D01*
X106068857Y-56776904D01*
X105973619Y-56729285D01*
X105926000Y-56681666D01*
X105878380Y-56586428D01*
X106878380Y-55824523D02*
X105878380Y-55824523D01*
X106878380Y-55253095D02*
X106306952Y-55681666D01*
X105878380Y-55253095D02*
X106449809Y-55824523D01*
G04 #@! TO.C,R11*
X115895380Y-71429476D02*
X115895380Y-72000904D01*
X115895380Y-71715190D02*
X114895380Y-71715190D01*
X115038238Y-71810428D01*
X115133476Y-71905666D01*
X115181095Y-72000904D01*
X114895380Y-70810428D02*
X114895380Y-70715190D01*
X114943000Y-70619952D01*
X114990619Y-70572333D01*
X115085857Y-70524714D01*
X115276333Y-70477095D01*
X115514428Y-70477095D01*
X115704904Y-70524714D01*
X115800142Y-70572333D01*
X115847761Y-70619952D01*
X115895380Y-70715190D01*
X115895380Y-70810428D01*
X115847761Y-70905666D01*
X115800142Y-70953285D01*
X115704904Y-71000904D01*
X115514428Y-71048523D01*
X115276333Y-71048523D01*
X115085857Y-71000904D01*
X114990619Y-70953285D01*
X114943000Y-70905666D01*
X114895380Y-70810428D01*
X115895380Y-70048523D02*
X114895380Y-70048523D01*
X115895380Y-69477095D02*
X115323952Y-69905666D01*
X114895380Y-69477095D02*
X115466809Y-70048523D01*
G04 #@! TO.C,R12*
X106878380Y-68635476D02*
X106878380Y-69206904D01*
X106878380Y-68921190D02*
X105878380Y-68921190D01*
X106021238Y-69016428D01*
X106116476Y-69111666D01*
X106164095Y-69206904D01*
X105878380Y-68016428D02*
X105878380Y-67921190D01*
X105926000Y-67825952D01*
X105973619Y-67778333D01*
X106068857Y-67730714D01*
X106259333Y-67683095D01*
X106497428Y-67683095D01*
X106687904Y-67730714D01*
X106783142Y-67778333D01*
X106830761Y-67825952D01*
X106878380Y-67921190D01*
X106878380Y-68016428D01*
X106830761Y-68111666D01*
X106783142Y-68159285D01*
X106687904Y-68206904D01*
X106497428Y-68254523D01*
X106259333Y-68254523D01*
X106068857Y-68206904D01*
X105973619Y-68159285D01*
X105926000Y-68111666D01*
X105878380Y-68016428D01*
X106878380Y-67254523D02*
X105878380Y-67254523D01*
X106878380Y-66683095D02*
X106306952Y-67111666D01*
X105878380Y-66683095D02*
X106449809Y-67254523D01*
G04 #@! TO.C,R13*
X144978380Y-34726476D02*
X144978380Y-35297904D01*
X144978380Y-35012190D02*
X143978380Y-35012190D01*
X144121238Y-35107428D01*
X144216476Y-35202666D01*
X144264095Y-35297904D01*
X143978380Y-34107428D02*
X143978380Y-34012190D01*
X144026000Y-33916952D01*
X144073619Y-33869333D01*
X144168857Y-33821714D01*
X144359333Y-33774095D01*
X144597428Y-33774095D01*
X144787904Y-33821714D01*
X144883142Y-33869333D01*
X144930761Y-33916952D01*
X144978380Y-34012190D01*
X144978380Y-34107428D01*
X144930761Y-34202666D01*
X144883142Y-34250285D01*
X144787904Y-34297904D01*
X144597428Y-34345523D01*
X144359333Y-34345523D01*
X144168857Y-34297904D01*
X144073619Y-34250285D01*
X144026000Y-34202666D01*
X143978380Y-34107428D01*
X144978380Y-33345523D02*
X143978380Y-33345523D01*
X144978380Y-32774095D02*
X144406952Y-33202666D01*
X143978380Y-32774095D02*
X144549809Y-33345523D01*
G04 #@! TO.C,R14*
X147645380Y-36885476D02*
X147645380Y-37456904D01*
X147645380Y-37171190D02*
X146645380Y-37171190D01*
X146788238Y-37266428D01*
X146883476Y-37361666D01*
X146931095Y-37456904D01*
X146645380Y-36266428D02*
X146645380Y-36171190D01*
X146693000Y-36075952D01*
X146740619Y-36028333D01*
X146835857Y-35980714D01*
X147026333Y-35933095D01*
X147264428Y-35933095D01*
X147454904Y-35980714D01*
X147550142Y-36028333D01*
X147597761Y-36075952D01*
X147645380Y-36171190D01*
X147645380Y-36266428D01*
X147597761Y-36361666D01*
X147550142Y-36409285D01*
X147454904Y-36456904D01*
X147264428Y-36504523D01*
X147026333Y-36504523D01*
X146835857Y-36456904D01*
X146740619Y-36409285D01*
X146693000Y-36361666D01*
X146645380Y-36266428D01*
X147645380Y-35504523D02*
X146645380Y-35504523D01*
X147645380Y-34933095D02*
X147073952Y-35361666D01*
X146645380Y-34933095D02*
X147216809Y-35504523D01*
G04 #@! TO.C,R15*
X158313380Y-34345476D02*
X158313380Y-34916904D01*
X158313380Y-34631190D02*
X157313380Y-34631190D01*
X157456238Y-34726428D01*
X157551476Y-34821666D01*
X157599095Y-34916904D01*
X157313380Y-33726428D02*
X157313380Y-33631190D01*
X157361000Y-33535952D01*
X157408619Y-33488333D01*
X157503857Y-33440714D01*
X157694333Y-33393095D01*
X157932428Y-33393095D01*
X158122904Y-33440714D01*
X158218142Y-33488333D01*
X158265761Y-33535952D01*
X158313380Y-33631190D01*
X158313380Y-33726428D01*
X158265761Y-33821666D01*
X158218142Y-33869285D01*
X158122904Y-33916904D01*
X157932428Y-33964523D01*
X157694333Y-33964523D01*
X157503857Y-33916904D01*
X157408619Y-33869285D01*
X157361000Y-33821666D01*
X157313380Y-33726428D01*
X158313380Y-32964523D02*
X157313380Y-32964523D01*
X158313380Y-32393095D02*
X157741952Y-32821666D01*
X157313380Y-32393095D02*
X157884809Y-32964523D01*
G04 #@! TO.C,R16*
X145105380Y-45902476D02*
X145105380Y-46473904D01*
X145105380Y-46188190D02*
X144105380Y-46188190D01*
X144248238Y-46283428D01*
X144343476Y-46378666D01*
X144391095Y-46473904D01*
X144105380Y-45283428D02*
X144105380Y-45188190D01*
X144153000Y-45092952D01*
X144200619Y-45045333D01*
X144295857Y-44997714D01*
X144486333Y-44950095D01*
X144724428Y-44950095D01*
X144914904Y-44997714D01*
X145010142Y-45045333D01*
X145057761Y-45092952D01*
X145105380Y-45188190D01*
X145105380Y-45283428D01*
X145057761Y-45378666D01*
X145010142Y-45426285D01*
X144914904Y-45473904D01*
X144724428Y-45521523D01*
X144486333Y-45521523D01*
X144295857Y-45473904D01*
X144200619Y-45426285D01*
X144153000Y-45378666D01*
X144105380Y-45283428D01*
X145105380Y-44521523D02*
X144105380Y-44521523D01*
X145105380Y-43950095D02*
X144533952Y-44378666D01*
X144105380Y-43950095D02*
X144676809Y-44521523D01*
G04 #@! TO.C,R17*
X147772380Y-48188476D02*
X147772380Y-48759904D01*
X147772380Y-48474190D02*
X146772380Y-48474190D01*
X146915238Y-48569428D01*
X147010476Y-48664666D01*
X147058095Y-48759904D01*
X146772380Y-47569428D02*
X146772380Y-47474190D01*
X146820000Y-47378952D01*
X146867619Y-47331333D01*
X146962857Y-47283714D01*
X147153333Y-47236095D01*
X147391428Y-47236095D01*
X147581904Y-47283714D01*
X147677142Y-47331333D01*
X147724761Y-47378952D01*
X147772380Y-47474190D01*
X147772380Y-47569428D01*
X147724761Y-47664666D01*
X147677142Y-47712285D01*
X147581904Y-47759904D01*
X147391428Y-47807523D01*
X147153333Y-47807523D01*
X146962857Y-47759904D01*
X146867619Y-47712285D01*
X146820000Y-47664666D01*
X146772380Y-47569428D01*
X147772380Y-46807523D02*
X146772380Y-46807523D01*
X147772380Y-46236095D02*
X147200952Y-46664666D01*
X146772380Y-46236095D02*
X147343809Y-46807523D01*
G04 #@! TO.C,R18*
X158059380Y-45775476D02*
X158059380Y-46346904D01*
X158059380Y-46061190D02*
X157059380Y-46061190D01*
X157202238Y-46156428D01*
X157297476Y-46251666D01*
X157345095Y-46346904D01*
X157059380Y-45156428D02*
X157059380Y-45061190D01*
X157107000Y-44965952D01*
X157154619Y-44918333D01*
X157249857Y-44870714D01*
X157440333Y-44823095D01*
X157678428Y-44823095D01*
X157868904Y-44870714D01*
X157964142Y-44918333D01*
X158011761Y-44965952D01*
X158059380Y-45061190D01*
X158059380Y-45156428D01*
X158011761Y-45251666D01*
X157964142Y-45299285D01*
X157868904Y-45346904D01*
X157678428Y-45394523D01*
X157440333Y-45394523D01*
X157249857Y-45346904D01*
X157154619Y-45299285D01*
X157107000Y-45251666D01*
X157059380Y-45156428D01*
X158059380Y-44394523D02*
X157059380Y-44394523D01*
X158059380Y-43823095D02*
X157487952Y-44251666D01*
X157059380Y-43823095D02*
X157630809Y-44394523D01*
G04 #@! TO.C,R19*
X145232380Y-57459476D02*
X145232380Y-58030904D01*
X145232380Y-57745190D02*
X144232380Y-57745190D01*
X144375238Y-57840428D01*
X144470476Y-57935666D01*
X144518095Y-58030904D01*
X144232380Y-56840428D02*
X144232380Y-56745190D01*
X144280000Y-56649952D01*
X144327619Y-56602333D01*
X144422857Y-56554714D01*
X144613333Y-56507095D01*
X144851428Y-56507095D01*
X145041904Y-56554714D01*
X145137142Y-56602333D01*
X145184761Y-56649952D01*
X145232380Y-56745190D01*
X145232380Y-56840428D01*
X145184761Y-56935666D01*
X145137142Y-56983285D01*
X145041904Y-57030904D01*
X144851428Y-57078523D01*
X144613333Y-57078523D01*
X144422857Y-57030904D01*
X144327619Y-56983285D01*
X144280000Y-56935666D01*
X144232380Y-56840428D01*
X145232380Y-56078523D02*
X144232380Y-56078523D01*
X145232380Y-55507095D02*
X144660952Y-55935666D01*
X144232380Y-55507095D02*
X144803809Y-56078523D01*
G04 #@! TO.C,R20*
X147645380Y-59618476D02*
X147645380Y-60189904D01*
X147645380Y-59904190D02*
X146645380Y-59904190D01*
X146788238Y-59999428D01*
X146883476Y-60094666D01*
X146931095Y-60189904D01*
X146645380Y-58999428D02*
X146645380Y-58904190D01*
X146693000Y-58808952D01*
X146740619Y-58761333D01*
X146835857Y-58713714D01*
X147026333Y-58666095D01*
X147264428Y-58666095D01*
X147454904Y-58713714D01*
X147550142Y-58761333D01*
X147597761Y-58808952D01*
X147645380Y-58904190D01*
X147645380Y-58999428D01*
X147597761Y-59094666D01*
X147550142Y-59142285D01*
X147454904Y-59189904D01*
X147264428Y-59237523D01*
X147026333Y-59237523D01*
X146835857Y-59189904D01*
X146740619Y-59142285D01*
X146693000Y-59094666D01*
X146645380Y-58999428D01*
X147645380Y-58237523D02*
X146645380Y-58237523D01*
X147645380Y-57666095D02*
X147073952Y-58094666D01*
X146645380Y-57666095D02*
X147216809Y-58237523D01*
G04 #@! TO.C,R21*
X158186380Y-57332476D02*
X158186380Y-57903904D01*
X158186380Y-57618190D02*
X157186380Y-57618190D01*
X157329238Y-57713428D01*
X157424476Y-57808666D01*
X157472095Y-57903904D01*
X157186380Y-56713428D02*
X157186380Y-56618190D01*
X157234000Y-56522952D01*
X157281619Y-56475333D01*
X157376857Y-56427714D01*
X157567333Y-56380095D01*
X157805428Y-56380095D01*
X157995904Y-56427714D01*
X158091142Y-56475333D01*
X158138761Y-56522952D01*
X158186380Y-56618190D01*
X158186380Y-56713428D01*
X158138761Y-56808666D01*
X158091142Y-56856285D01*
X157995904Y-56903904D01*
X157805428Y-56951523D01*
X157567333Y-56951523D01*
X157376857Y-56903904D01*
X157281619Y-56856285D01*
X157234000Y-56808666D01*
X157186380Y-56713428D01*
X158186380Y-55951523D02*
X157186380Y-55951523D01*
X158186380Y-55380095D02*
X157614952Y-55808666D01*
X157186380Y-55380095D02*
X157757809Y-55951523D01*
G04 #@! TO.C,R22*
X145105380Y-68889476D02*
X145105380Y-69460904D01*
X145105380Y-69175190D02*
X144105380Y-69175190D01*
X144248238Y-69270428D01*
X144343476Y-69365666D01*
X144391095Y-69460904D01*
X144105380Y-68270428D02*
X144105380Y-68175190D01*
X144153000Y-68079952D01*
X144200619Y-68032333D01*
X144295857Y-67984714D01*
X144486333Y-67937095D01*
X144724428Y-67937095D01*
X144914904Y-67984714D01*
X145010142Y-68032333D01*
X145057761Y-68079952D01*
X145105380Y-68175190D01*
X145105380Y-68270428D01*
X145057761Y-68365666D01*
X145010142Y-68413285D01*
X144914904Y-68460904D01*
X144724428Y-68508523D01*
X144486333Y-68508523D01*
X144295857Y-68460904D01*
X144200619Y-68413285D01*
X144153000Y-68365666D01*
X144105380Y-68270428D01*
X145105380Y-67508523D02*
X144105380Y-67508523D01*
X145105380Y-66937095D02*
X144533952Y-67365666D01*
X144105380Y-66937095D02*
X144676809Y-67508523D01*
G04 #@! TO.C,R23*
X147645380Y-71302476D02*
X147645380Y-71873904D01*
X147645380Y-71588190D02*
X146645380Y-71588190D01*
X146788238Y-71683428D01*
X146883476Y-71778666D01*
X146931095Y-71873904D01*
X146645380Y-70683428D02*
X146645380Y-70588190D01*
X146693000Y-70492952D01*
X146740619Y-70445333D01*
X146835857Y-70397714D01*
X147026333Y-70350095D01*
X147264428Y-70350095D01*
X147454904Y-70397714D01*
X147550142Y-70445333D01*
X147597761Y-70492952D01*
X147645380Y-70588190D01*
X147645380Y-70683428D01*
X147597761Y-70778666D01*
X147550142Y-70826285D01*
X147454904Y-70873904D01*
X147264428Y-70921523D01*
X147026333Y-70921523D01*
X146835857Y-70873904D01*
X146740619Y-70826285D01*
X146693000Y-70778666D01*
X146645380Y-70683428D01*
X147645380Y-69921523D02*
X146645380Y-69921523D01*
X147645380Y-69350095D02*
X147073952Y-69778666D01*
X146645380Y-69350095D02*
X147216809Y-69921523D01*
G04 #@! TO.C,R24*
X158186380Y-68889476D02*
X158186380Y-69460904D01*
X158186380Y-69175190D02*
X157186380Y-69175190D01*
X157329238Y-69270428D01*
X157424476Y-69365666D01*
X157472095Y-69460904D01*
X157186380Y-68270428D02*
X157186380Y-68175190D01*
X157234000Y-68079952D01*
X157281619Y-68032333D01*
X157376857Y-67984714D01*
X157567333Y-67937095D01*
X157805428Y-67937095D01*
X157995904Y-67984714D01*
X158091142Y-68032333D01*
X158138761Y-68079952D01*
X158186380Y-68175190D01*
X158186380Y-68270428D01*
X158138761Y-68365666D01*
X158091142Y-68413285D01*
X157995904Y-68460904D01*
X157805428Y-68508523D01*
X157567333Y-68508523D01*
X157376857Y-68460904D01*
X157281619Y-68413285D01*
X157234000Y-68365666D01*
X157186380Y-68270428D01*
X158186380Y-67508523D02*
X157186380Y-67508523D01*
X158186380Y-66937095D02*
X157614952Y-67365666D01*
X157186380Y-66937095D02*
X157757809Y-67508523D01*
G04 #@! TO.C,R10*
X118308380Y-68889476D02*
X118308380Y-69460904D01*
X118308380Y-69175190D02*
X117308380Y-69175190D01*
X117451238Y-69270428D01*
X117546476Y-69365666D01*
X117594095Y-69460904D01*
X117308380Y-68270428D02*
X117308380Y-68175190D01*
X117356000Y-68079952D01*
X117403619Y-68032333D01*
X117498857Y-67984714D01*
X117689333Y-67937095D01*
X117927428Y-67937095D01*
X118117904Y-67984714D01*
X118213142Y-68032333D01*
X118260761Y-68079952D01*
X118308380Y-68175190D01*
X118308380Y-68270428D01*
X118260761Y-68365666D01*
X118213142Y-68413285D01*
X118117904Y-68460904D01*
X117927428Y-68508523D01*
X117689333Y-68508523D01*
X117498857Y-68460904D01*
X117403619Y-68413285D01*
X117356000Y-68365666D01*
X117308380Y-68270428D01*
X118308380Y-67508523D02*
X117308380Y-67508523D01*
X118308380Y-66937095D02*
X117736952Y-67365666D01*
X117308380Y-66937095D02*
X117879809Y-67508523D01*
G04 #@! TD*
M02*
