%FSLAX45Y45*%
G04 Gerber Fmt 4.5, Leading zero omitted, Abs format (unit mm)*
G04 Created by KiCad (PCBNEW (5.1.5)-3) date 2020-05-24 17:47:19*
%MOMM*%
%LPD*%
G04 APERTURE LIST*
%TA.AperFunction,Profile*%
%ADD10C,0.050000*%
%TD*%
%ADD11C,0.200000*%
%ADD12C,0.300000*%
G04 APERTURE END LIST*
D10*
X11176000Y-7112000D02*
X20383500Y-7112000D01*
X20383500Y-13081000D02*
X11176000Y-13081000D01*
X11176000Y-7112000D02*
X11176000Y-13081000D01*
X20383500Y-13081000D02*
X20383500Y-7112000D01*
D11*
X15586000Y-9363000D02*
X15656000Y-9433000D01*
X15656000Y-9363000D02*
X15586000Y-9433000D01*
X15078000Y-9617000D02*
X15148000Y-9687000D01*
X15148000Y-9617000D02*
X15078000Y-9687000D01*
X12157000Y-9744000D02*
X12227000Y-9814000D01*
X12227000Y-9744000D02*
X12157000Y-9814000D01*
X12157000Y-10506000D02*
X12227000Y-10576000D01*
X12227000Y-10506000D02*
X12157000Y-10576000D01*
X15332000Y-9363000D02*
X15402000Y-9433000D01*
X15402000Y-9363000D02*
X15332000Y-9433000D01*
X15332000Y-9617000D02*
X15402000Y-9687000D01*
X15402000Y-9617000D02*
X15332000Y-9687000D01*
X15586000Y-9617000D02*
X15656000Y-9687000D01*
X15656000Y-9617000D02*
X15586000Y-9687000D01*
X11585500Y-10760000D02*
X11655500Y-10830000D01*
X11655500Y-10760000D02*
X11585500Y-10830000D01*
X11585500Y-11522000D02*
X11655500Y-11592000D01*
X11655500Y-11522000D02*
X11585500Y-11592000D01*
X15078000Y-9363000D02*
X15148000Y-9433000D01*
X15148000Y-9363000D02*
X15078000Y-9433000D01*
X16039500Y-9398000D02*
G75*
G03X16039500Y-9398000I-37500J0D01*
G01*
X16039500Y-9525000D02*
G75*
G03X16039500Y-9525000I-37500J0D01*
G01*
X16039500Y-9652000D02*
G75*
G03X16039500Y-9652000I-37500J0D01*
G01*
X14922500Y-7647500D02*
X14922500Y-7727500D01*
X14882500Y-7687500D02*
X14962500Y-7687500D01*
X14922500Y-7897500D02*
X14922500Y-7977500D01*
X14882500Y-7937500D02*
X14962500Y-7937500D01*
X12069000Y-8723000D02*
X12069000Y-8803000D01*
X12029000Y-8763000D02*
X12109000Y-8763000D01*
X12319000Y-8723000D02*
X12319000Y-8803000D01*
X12279000Y-8763000D02*
X12359000Y-8763000D01*
X12446000Y-11009000D02*
X12446000Y-11089000D01*
X12406000Y-11049000D02*
X12486000Y-11049000D01*
X12446000Y-11771000D02*
X12446000Y-11851000D01*
X12406000Y-11811000D02*
X12486000Y-11811000D01*
X12700000Y-11009000D02*
X12700000Y-11089000D01*
X12660000Y-11049000D02*
X12740000Y-11049000D01*
X12700000Y-11771000D02*
X12700000Y-11851000D01*
X12660000Y-11811000D02*
X12740000Y-11811000D01*
X12954000Y-11009000D02*
X12954000Y-11089000D01*
X12914000Y-11049000D02*
X12994000Y-11049000D01*
X12954000Y-11771000D02*
X12954000Y-11851000D01*
X12914000Y-11811000D02*
X12994000Y-11811000D01*
X13208000Y-11009000D02*
X13208000Y-11089000D01*
X13168000Y-11049000D02*
X13248000Y-11049000D01*
X13208000Y-11771000D02*
X13208000Y-11851000D01*
X13168000Y-11811000D02*
X13248000Y-11811000D01*
X13462000Y-11009000D02*
X13462000Y-11089000D01*
X13422000Y-11049000D02*
X13502000Y-11049000D01*
X13462000Y-11771000D02*
X13462000Y-11851000D01*
X13422000Y-11811000D02*
X13502000Y-11811000D01*
X13716000Y-11009000D02*
X13716000Y-11089000D01*
X13676000Y-11049000D02*
X13756000Y-11049000D01*
X13716000Y-11771000D02*
X13716000Y-11851000D01*
X13676000Y-11811000D02*
X13756000Y-11811000D01*
X13970000Y-11009000D02*
X13970000Y-11089000D01*
X13930000Y-11049000D02*
X14010000Y-11049000D01*
X13970000Y-11771000D02*
X13970000Y-11851000D01*
X13930000Y-11811000D02*
X14010000Y-11811000D01*
X14224000Y-11009000D02*
X14224000Y-11089000D01*
X14184000Y-11049000D02*
X14264000Y-11049000D01*
X14224000Y-11771000D02*
X14224000Y-11851000D01*
X14184000Y-11811000D02*
X14264000Y-11811000D01*
X14478000Y-11009000D02*
X14478000Y-11089000D01*
X14438000Y-11049000D02*
X14518000Y-11049000D01*
X14478000Y-11771000D02*
X14478000Y-11851000D01*
X14438000Y-11811000D02*
X14518000Y-11811000D01*
X14986000Y-12025000D02*
X14986000Y-12105000D01*
X14946000Y-12065000D02*
X15026000Y-12065000D01*
X14986000Y-12275000D02*
X14986000Y-12355000D01*
X14946000Y-12315000D02*
X15026000Y-12315000D01*
X12700000Y-8215000D02*
X12700000Y-8295000D01*
X12660000Y-8255000D02*
X12740000Y-8255000D01*
X12700000Y-8977000D02*
X12700000Y-9057000D01*
X12660000Y-9017000D02*
X12740000Y-9017000D01*
X12954000Y-8215000D02*
X12954000Y-8295000D01*
X12914000Y-8255000D02*
X12994000Y-8255000D01*
X12954000Y-8977000D02*
X12954000Y-9057000D01*
X12914000Y-9017000D02*
X12994000Y-9017000D01*
X13208000Y-8215000D02*
X13208000Y-8295000D01*
X13168000Y-8255000D02*
X13248000Y-8255000D01*
X13208000Y-8977000D02*
X13208000Y-9057000D01*
X13168000Y-9017000D02*
X13248000Y-9017000D01*
X13462000Y-8215000D02*
X13462000Y-8295000D01*
X13422000Y-8255000D02*
X13502000Y-8255000D01*
X13462000Y-8977000D02*
X13462000Y-9057000D01*
X13422000Y-9017000D02*
X13502000Y-9017000D01*
X13716000Y-8215000D02*
X13716000Y-8295000D01*
X13676000Y-8255000D02*
X13756000Y-8255000D01*
X13716000Y-8977000D02*
X13716000Y-9057000D01*
X13676000Y-9017000D02*
X13756000Y-9017000D01*
X13970000Y-8215000D02*
X13970000Y-8295000D01*
X13930000Y-8255000D02*
X14010000Y-8255000D01*
X13970000Y-8977000D02*
X13970000Y-9057000D01*
X13930000Y-9017000D02*
X14010000Y-9017000D01*
X14224000Y-8215000D02*
X14224000Y-8295000D01*
X14184000Y-8255000D02*
X14264000Y-8255000D01*
X14224000Y-8977000D02*
X14224000Y-9057000D01*
X14184000Y-9017000D02*
X14264000Y-9017000D01*
X14478000Y-8215000D02*
X14478000Y-8295000D01*
X14438000Y-8255000D02*
X14518000Y-8255000D01*
X14478000Y-8977000D02*
X14478000Y-9057000D01*
X14438000Y-9017000D02*
X14518000Y-9017000D01*
X14732000Y-8215000D02*
X14732000Y-8295000D01*
X14692000Y-8255000D02*
X14772000Y-8255000D01*
X14732000Y-8977000D02*
X14732000Y-9057000D01*
X14692000Y-9017000D02*
X14772000Y-9017000D01*
X11588820Y-11969820D02*
X11588820Y-11906180D01*
X11525180Y-11906180D01*
X11525180Y-11969820D01*
X11588820Y-11969820D01*
X11588820Y-12223820D02*
X11588820Y-12160180D01*
X11525180Y-12160180D01*
X11525180Y-12223820D01*
X11588820Y-12223820D01*
X19075400Y-8178000D02*
X19125400Y-8128000D01*
X19075400Y-8078000D01*
X19025400Y-8128000D01*
X19075400Y-8178000D01*
X19075400Y-12242000D02*
X19125400Y-12192000D01*
X19075400Y-12142000D01*
X19025400Y-12192000D01*
X19075400Y-12242000D01*
X19431000Y-8178000D02*
X19481000Y-8128000D01*
X19431000Y-8078000D01*
X19381000Y-8128000D01*
X19431000Y-8178000D01*
X19431000Y-12242000D02*
X19481000Y-12192000D01*
X19431000Y-12142000D01*
X19381000Y-12192000D01*
X19431000Y-12242000D01*
X15367000Y-12623000D02*
X15417000Y-12573000D01*
X15367000Y-12523000D01*
X15317000Y-12573000D01*
X15367000Y-12623000D01*
X15367000Y-12877000D02*
X15417000Y-12827000D01*
X15367000Y-12777000D01*
X15317000Y-12827000D01*
X15367000Y-12877000D01*
X15621000Y-12623000D02*
X15671000Y-12573000D01*
X15621000Y-12523000D01*
X15571000Y-12573000D01*
X15621000Y-12623000D01*
X15621000Y-12877000D02*
X15671000Y-12827000D01*
X15621000Y-12777000D01*
X15571000Y-12827000D01*
X15621000Y-12877000D01*
X12446000Y-7924000D02*
X12496000Y-7874000D01*
X12446000Y-7824000D01*
X12396000Y-7874000D01*
X12446000Y-7924000D01*
X12700000Y-7924000D02*
X12750000Y-7874000D01*
X12700000Y-7824000D01*
X12650000Y-7874000D01*
X12700000Y-7924000D01*
X12954000Y-7924000D02*
X13004000Y-7874000D01*
X12954000Y-7824000D01*
X12904000Y-7874000D01*
X12954000Y-7924000D01*
X13208000Y-7924000D02*
X13258000Y-7874000D01*
X13208000Y-7824000D01*
X13158000Y-7874000D01*
X13208000Y-7924000D01*
X13462000Y-7924000D02*
X13512000Y-7874000D01*
X13462000Y-7824000D01*
X13412000Y-7874000D01*
X13462000Y-7924000D01*
X13716000Y-7924000D02*
X13766000Y-7874000D01*
X13716000Y-7824000D01*
X13666000Y-7874000D01*
X13716000Y-7924000D01*
X13970000Y-7924000D02*
X14020000Y-7874000D01*
X13970000Y-7824000D01*
X13920000Y-7874000D01*
X13970000Y-7924000D01*
X14224000Y-7924000D02*
X14274000Y-7874000D01*
X14224000Y-7824000D01*
X14174000Y-7874000D01*
X14224000Y-7924000D01*
X12446000Y-7416000D02*
X12496000Y-7366000D01*
X12446000Y-7316000D01*
X12396000Y-7366000D01*
X12446000Y-7416000D01*
X12700000Y-7416000D02*
X12750000Y-7366000D01*
X12700000Y-7316000D01*
X12650000Y-7366000D01*
X12700000Y-7416000D01*
X12954000Y-7416000D02*
X13004000Y-7366000D01*
X12954000Y-7316000D01*
X12904000Y-7366000D01*
X12954000Y-7416000D01*
X13208000Y-7416000D02*
X13258000Y-7366000D01*
X13208000Y-7316000D01*
X13158000Y-7366000D01*
X13208000Y-7416000D01*
X13462000Y-7416000D02*
X13512000Y-7366000D01*
X13462000Y-7316000D01*
X13412000Y-7366000D01*
X13462000Y-7416000D01*
X13716000Y-7416000D02*
X13766000Y-7366000D01*
X13716000Y-7316000D01*
X13666000Y-7366000D01*
X13716000Y-7416000D01*
X13970000Y-7416000D02*
X14020000Y-7366000D01*
X13970000Y-7316000D01*
X13920000Y-7366000D01*
X13970000Y-7416000D01*
X14224000Y-7416000D02*
X14274000Y-7366000D01*
X14224000Y-7316000D01*
X14174000Y-7366000D01*
X14224000Y-7416000D01*
X15113000Y-11353000D02*
X15163000Y-11303000D01*
X15113000Y-11253000D01*
X15063000Y-11303000D01*
X15113000Y-11353000D01*
X15367000Y-11353000D02*
X15417000Y-11303000D01*
X15367000Y-11253000D01*
X15317000Y-11303000D01*
X15367000Y-11353000D01*
X15621000Y-11353000D02*
X15671000Y-11303000D01*
X15621000Y-11253000D01*
X15571000Y-11303000D01*
X15621000Y-11353000D01*
X19177000Y-12623000D02*
X19227000Y-12573000D01*
X19177000Y-12523000D01*
X19127000Y-12573000D01*
X19177000Y-12623000D01*
X19177000Y-12877000D02*
X19227000Y-12827000D01*
X19177000Y-12777000D01*
X19127000Y-12827000D01*
X19177000Y-12877000D01*
X19431000Y-12623000D02*
X19481000Y-12573000D01*
X19431000Y-12523000D01*
X19381000Y-12573000D01*
X19431000Y-12623000D01*
X19431000Y-12877000D02*
X19481000Y-12827000D01*
X19431000Y-12777000D01*
X19381000Y-12827000D01*
X19431000Y-12877000D01*
X15113000Y-10210000D02*
X15163000Y-10160000D01*
X15113000Y-10110000D01*
X15063000Y-10160000D01*
X15113000Y-10210000D01*
X15113000Y-10464000D02*
X15163000Y-10414000D01*
X15113000Y-10364000D01*
X15063000Y-10414000D01*
X15113000Y-10464000D01*
X15113000Y-10718000D02*
X15163000Y-10668000D01*
X15113000Y-10618000D01*
X15063000Y-10668000D01*
X15113000Y-10718000D01*
X15113000Y-10972000D02*
X15163000Y-10922000D01*
X15113000Y-10872000D01*
X15063000Y-10922000D01*
X15113000Y-10972000D01*
X12446000Y-12496000D02*
X12496000Y-12446000D01*
X12446000Y-12396000D01*
X12396000Y-12446000D01*
X12446000Y-12496000D01*
X12700000Y-12496000D02*
X12750000Y-12446000D01*
X12700000Y-12396000D01*
X12650000Y-12446000D01*
X12700000Y-12496000D01*
X12954000Y-12496000D02*
X13004000Y-12446000D01*
X12954000Y-12396000D01*
X12904000Y-12446000D01*
X12954000Y-12496000D01*
X13208000Y-12496000D02*
X13258000Y-12446000D01*
X13208000Y-12396000D01*
X13158000Y-12446000D01*
X13208000Y-12496000D01*
X13462000Y-12496000D02*
X13512000Y-12446000D01*
X13462000Y-12396000D01*
X13412000Y-12446000D01*
X13462000Y-12496000D01*
X13716000Y-12496000D02*
X13766000Y-12446000D01*
X13716000Y-12396000D01*
X13666000Y-12446000D01*
X13716000Y-12496000D01*
X13970000Y-12496000D02*
X14020000Y-12446000D01*
X13970000Y-12396000D01*
X13920000Y-12446000D01*
X13970000Y-12496000D01*
X14224000Y-12496000D02*
X14274000Y-12446000D01*
X14224000Y-12396000D01*
X14174000Y-12446000D01*
X14224000Y-12496000D01*
X12446000Y-12750000D02*
X12496000Y-12700000D01*
X12446000Y-12650000D01*
X12396000Y-12700000D01*
X12446000Y-12750000D01*
X12700000Y-12750000D02*
X12750000Y-12700000D01*
X12700000Y-12650000D01*
X12650000Y-12700000D01*
X12700000Y-12750000D01*
X12954000Y-12750000D02*
X13004000Y-12700000D01*
X12954000Y-12650000D01*
X12904000Y-12700000D01*
X12954000Y-12750000D01*
X13208000Y-12750000D02*
X13258000Y-12700000D01*
X13208000Y-12650000D01*
X13158000Y-12700000D01*
X13208000Y-12750000D01*
X13462000Y-12750000D02*
X13512000Y-12700000D01*
X13462000Y-12650000D01*
X13412000Y-12700000D01*
X13462000Y-12750000D01*
X13716000Y-12750000D02*
X13766000Y-12700000D01*
X13716000Y-12650000D01*
X13666000Y-12700000D01*
X13716000Y-12750000D01*
X13970000Y-12750000D02*
X14020000Y-12700000D01*
X13970000Y-12650000D01*
X13920000Y-12700000D01*
X13970000Y-12750000D01*
X14224000Y-12750000D02*
X14274000Y-12700000D01*
X14224000Y-12650000D01*
X14174000Y-12700000D01*
X14224000Y-12750000D01*
X17018000Y-12623000D02*
X17068000Y-12573000D01*
X17018000Y-12523000D01*
X16968000Y-12573000D01*
X17018000Y-12623000D01*
X17018000Y-12877000D02*
X17068000Y-12827000D01*
X17018000Y-12777000D01*
X16968000Y-12827000D01*
X17018000Y-12877000D01*
X17272000Y-12623000D02*
X17322000Y-12573000D01*
X17272000Y-12523000D01*
X17222000Y-12573000D01*
X17272000Y-12623000D01*
X17272000Y-12877000D02*
X17322000Y-12827000D01*
X17272000Y-12777000D01*
X17222000Y-12827000D01*
X17272000Y-12877000D01*
X16891000Y-8178000D02*
X16941000Y-8128000D01*
X16891000Y-8078000D01*
X16841000Y-8128000D01*
X16891000Y-8178000D01*
X16891000Y-12242000D02*
X16941000Y-12192000D01*
X16891000Y-12142000D01*
X16841000Y-12192000D01*
X16891000Y-12242000D01*
X17246600Y-8178000D02*
X17296600Y-8128000D01*
X17246600Y-8078000D01*
X17196600Y-8128000D01*
X17246600Y-8178000D01*
X17246600Y-12242000D02*
X17296600Y-12192000D01*
X17246600Y-12142000D01*
X17196600Y-12192000D01*
X17246600Y-12242000D01*
X17526000Y-12623000D02*
X17576000Y-12573000D01*
X17526000Y-12523000D01*
X17476000Y-12573000D01*
X17526000Y-12623000D01*
X17526000Y-12877000D02*
X17576000Y-12827000D01*
X17526000Y-12777000D01*
X17476000Y-12827000D01*
X17526000Y-12877000D01*
X17780000Y-12623000D02*
X17830000Y-12573000D01*
X17780000Y-12523000D01*
X17730000Y-12573000D01*
X17780000Y-12623000D01*
X17780000Y-12877000D02*
X17830000Y-12827000D01*
X17780000Y-12777000D01*
X17730000Y-12827000D01*
X17780000Y-12877000D01*
X19177000Y-7416000D02*
X19227000Y-7366000D01*
X19177000Y-7316000D01*
X19127000Y-7366000D01*
X19177000Y-7416000D01*
X19177000Y-7670000D02*
X19227000Y-7620000D01*
X19177000Y-7570000D01*
X19127000Y-7620000D01*
X19177000Y-7670000D01*
X19431000Y-7416000D02*
X19481000Y-7366000D01*
X19431000Y-7316000D01*
X19381000Y-7366000D01*
X19431000Y-7416000D01*
X19431000Y-7670000D02*
X19481000Y-7620000D01*
X19431000Y-7570000D01*
X19381000Y-7620000D01*
X19431000Y-7670000D01*
X12446000Y-7670000D02*
X12496000Y-7620000D01*
X12446000Y-7570000D01*
X12396000Y-7620000D01*
X12446000Y-7670000D01*
X12700000Y-7670000D02*
X12750000Y-7620000D01*
X12700000Y-7570000D01*
X12650000Y-7620000D01*
X12700000Y-7670000D01*
X12954000Y-7670000D02*
X13004000Y-7620000D01*
X12954000Y-7570000D01*
X12904000Y-7620000D01*
X12954000Y-7670000D01*
X13208000Y-7670000D02*
X13258000Y-7620000D01*
X13208000Y-7570000D01*
X13158000Y-7620000D01*
X13208000Y-7670000D01*
X13462000Y-7670000D02*
X13512000Y-7620000D01*
X13462000Y-7570000D01*
X13412000Y-7620000D01*
X13462000Y-7670000D01*
X13716000Y-7670000D02*
X13766000Y-7620000D01*
X13716000Y-7570000D01*
X13666000Y-7620000D01*
X13716000Y-7670000D01*
X13970000Y-7670000D02*
X14020000Y-7620000D01*
X13970000Y-7570000D01*
X13920000Y-7620000D01*
X13970000Y-7670000D01*
X14224000Y-7670000D02*
X14274000Y-7620000D01*
X14224000Y-7570000D01*
X14174000Y-7620000D01*
X14224000Y-7670000D01*
X12446000Y-12242000D02*
X12496000Y-12192000D01*
X12446000Y-12142000D01*
X12396000Y-12192000D01*
X12446000Y-12242000D01*
X12700000Y-12242000D02*
X12750000Y-12192000D01*
X12700000Y-12142000D01*
X12650000Y-12192000D01*
X12700000Y-12242000D01*
X12954000Y-12242000D02*
X13004000Y-12192000D01*
X12954000Y-12142000D01*
X12904000Y-12192000D01*
X12954000Y-12242000D01*
X13208000Y-12242000D02*
X13258000Y-12192000D01*
X13208000Y-12142000D01*
X13158000Y-12192000D01*
X13208000Y-12242000D01*
X13462000Y-12242000D02*
X13512000Y-12192000D01*
X13462000Y-12142000D01*
X13412000Y-12192000D01*
X13462000Y-12242000D01*
X13716000Y-12242000D02*
X13766000Y-12192000D01*
X13716000Y-12142000D01*
X13666000Y-12192000D01*
X13716000Y-12242000D01*
X13970000Y-12242000D02*
X14020000Y-12192000D01*
X13970000Y-12142000D01*
X13920000Y-12192000D01*
X13970000Y-12242000D01*
X14224000Y-12242000D02*
X14274000Y-12192000D01*
X14224000Y-12142000D01*
X14174000Y-12192000D01*
X14224000Y-12242000D01*
X15113000Y-8432000D02*
X15163000Y-8382000D01*
X15113000Y-8332000D01*
X15063000Y-8382000D01*
X15113000Y-8432000D01*
X15367000Y-8432000D02*
X15417000Y-8382000D01*
X15367000Y-8332000D01*
X15317000Y-8382000D01*
X15367000Y-8432000D01*
X15621000Y-8432000D02*
X15671000Y-8382000D01*
X15621000Y-8332000D01*
X15571000Y-8382000D01*
X15621000Y-8432000D01*
X11938000Y-10845000D02*
X11988000Y-10795000D01*
X11938000Y-10745000D01*
X11888000Y-10795000D01*
X11938000Y-10845000D01*
X12192000Y-10845000D02*
X12242000Y-10795000D01*
X12192000Y-10745000D01*
X12142000Y-10795000D01*
X12192000Y-10845000D01*
X12446000Y-10845000D02*
X12496000Y-10795000D01*
X12446000Y-10745000D01*
X12396000Y-10795000D01*
X12446000Y-10845000D01*
X12700000Y-10845000D02*
X12750000Y-10795000D01*
X12700000Y-10745000D01*
X12650000Y-10795000D01*
X12700000Y-10845000D01*
X12954000Y-10845000D02*
X13004000Y-10795000D01*
X12954000Y-10745000D01*
X12904000Y-10795000D01*
X12954000Y-10845000D01*
X13208000Y-10845000D02*
X13258000Y-10795000D01*
X13208000Y-10745000D01*
X13158000Y-10795000D01*
X13208000Y-10845000D01*
X13462000Y-10845000D02*
X13512000Y-10795000D01*
X13462000Y-10745000D01*
X13412000Y-10795000D01*
X13462000Y-10845000D01*
X13716000Y-10845000D02*
X13766000Y-10795000D01*
X13716000Y-10745000D01*
X13666000Y-10795000D01*
X13716000Y-10845000D01*
X13970000Y-10845000D02*
X14020000Y-10795000D01*
X13970000Y-10745000D01*
X13920000Y-10795000D01*
X13970000Y-10845000D01*
X14224000Y-10845000D02*
X14274000Y-10795000D01*
X14224000Y-10745000D01*
X14174000Y-10795000D01*
X14224000Y-10845000D01*
X14478000Y-10845000D02*
X14528000Y-10795000D01*
X14478000Y-10745000D01*
X14428000Y-10795000D01*
X14478000Y-10845000D01*
X14732000Y-10845000D02*
X14782000Y-10795000D01*
X14732000Y-10745000D01*
X14682000Y-10795000D01*
X14732000Y-10845000D01*
X17526000Y-7416000D02*
X17576000Y-7366000D01*
X17526000Y-7316000D01*
X17476000Y-7366000D01*
X17526000Y-7416000D01*
X17526000Y-7670000D02*
X17576000Y-7620000D01*
X17526000Y-7570000D01*
X17476000Y-7620000D01*
X17526000Y-7670000D01*
X17780000Y-7416000D02*
X17830000Y-7366000D01*
X17780000Y-7316000D01*
X17730000Y-7366000D01*
X17780000Y-7416000D01*
X17780000Y-7670000D02*
X17830000Y-7620000D01*
X17780000Y-7570000D01*
X17730000Y-7620000D01*
X17780000Y-7670000D01*
X15621000Y-10210000D02*
X15671000Y-10160000D01*
X15621000Y-10110000D01*
X15571000Y-10160000D01*
X15621000Y-10210000D01*
X15621000Y-10464000D02*
X15671000Y-10414000D01*
X15621000Y-10364000D01*
X15571000Y-10414000D01*
X15621000Y-10464000D01*
X15621000Y-10718000D02*
X15671000Y-10668000D01*
X15621000Y-10618000D01*
X15571000Y-10668000D01*
X15621000Y-10718000D01*
X15621000Y-10972000D02*
X15671000Y-10922000D01*
X15621000Y-10872000D01*
X15571000Y-10922000D01*
X15621000Y-10972000D01*
X15113000Y-11734000D02*
X15163000Y-11684000D01*
X15113000Y-11634000D01*
X15063000Y-11684000D01*
X15113000Y-11734000D01*
X15367000Y-11734000D02*
X15417000Y-11684000D01*
X15367000Y-11634000D01*
X15317000Y-11684000D01*
X15367000Y-11734000D01*
X15621000Y-11734000D02*
X15671000Y-11684000D01*
X15621000Y-11634000D01*
X15571000Y-11684000D01*
X15621000Y-11734000D01*
X17018000Y-7416000D02*
X17068000Y-7366000D01*
X17018000Y-7316000D01*
X16968000Y-7366000D01*
X17018000Y-7416000D01*
X17018000Y-7670000D02*
X17068000Y-7620000D01*
X17018000Y-7570000D01*
X16968000Y-7620000D01*
X17018000Y-7670000D01*
X17272000Y-7416000D02*
X17322000Y-7366000D01*
X17272000Y-7316000D01*
X17222000Y-7366000D01*
X17272000Y-7416000D01*
X17272000Y-7670000D02*
X17322000Y-7620000D01*
X17272000Y-7570000D01*
X17222000Y-7620000D01*
X17272000Y-7670000D01*
X11938000Y-11353000D02*
X11988000Y-11303000D01*
X11938000Y-11253000D01*
X11888000Y-11303000D01*
X11938000Y-11353000D01*
X11938000Y-11607000D02*
X11988000Y-11557000D01*
X11938000Y-11507000D01*
X11888000Y-11557000D01*
X11938000Y-11607000D01*
X11938000Y-11861000D02*
X11988000Y-11811000D01*
X11938000Y-11761000D01*
X11888000Y-11811000D01*
X11938000Y-11861000D01*
X15367000Y-7416000D02*
X15417000Y-7366000D01*
X15367000Y-7316000D01*
X15317000Y-7366000D01*
X15367000Y-7416000D01*
X15367000Y-7670000D02*
X15417000Y-7620000D01*
X15367000Y-7570000D01*
X15317000Y-7620000D01*
X15367000Y-7670000D01*
X15621000Y-7416000D02*
X15671000Y-7366000D01*
X15621000Y-7316000D01*
X15571000Y-7366000D01*
X15621000Y-7416000D01*
X15621000Y-7670000D02*
X15671000Y-7620000D01*
X15621000Y-7570000D01*
X15571000Y-7620000D01*
X15621000Y-7670000D01*
X11557000Y-8432000D02*
X11607000Y-8382000D01*
X11557000Y-8332000D01*
X11507000Y-8382000D01*
X11557000Y-8432000D01*
X11557000Y-8686000D02*
X11607000Y-8636000D01*
X11557000Y-8586000D01*
X11507000Y-8636000D01*
X11557000Y-8686000D01*
X11557000Y-8940000D02*
X11607000Y-8890000D01*
X11557000Y-8840000D01*
X11507000Y-8890000D01*
X11557000Y-8940000D01*
X15367000Y-10210000D02*
X15417000Y-10160000D01*
X15367000Y-10110000D01*
X15317000Y-10160000D01*
X15367000Y-10210000D01*
X15367000Y-10464000D02*
X15417000Y-10414000D01*
X15367000Y-10364000D01*
X15317000Y-10414000D01*
X15367000Y-10464000D01*
X15367000Y-10718000D02*
X15417000Y-10668000D01*
X15367000Y-10618000D01*
X15317000Y-10668000D01*
X15367000Y-10718000D01*
X15367000Y-10972000D02*
X15417000Y-10922000D01*
X15367000Y-10872000D01*
X15317000Y-10922000D01*
X15367000Y-10972000D01*
X11938000Y-9321000D02*
X11988000Y-9271000D01*
X11938000Y-9221000D01*
X11888000Y-9271000D01*
X11938000Y-9321000D01*
X12192000Y-9321000D02*
X12242000Y-9271000D01*
X12192000Y-9221000D01*
X12142000Y-9271000D01*
X12192000Y-9321000D01*
X12446000Y-9321000D02*
X12496000Y-9271000D01*
X12446000Y-9221000D01*
X12396000Y-9271000D01*
X12446000Y-9321000D01*
X12700000Y-9321000D02*
X12750000Y-9271000D01*
X12700000Y-9221000D01*
X12650000Y-9271000D01*
X12700000Y-9321000D01*
X12954000Y-9321000D02*
X13004000Y-9271000D01*
X12954000Y-9221000D01*
X12904000Y-9271000D01*
X12954000Y-9321000D01*
X13208000Y-9321000D02*
X13258000Y-9271000D01*
X13208000Y-9221000D01*
X13158000Y-9271000D01*
X13208000Y-9321000D01*
X13462000Y-9321000D02*
X13512000Y-9271000D01*
X13462000Y-9221000D01*
X13412000Y-9271000D01*
X13462000Y-9321000D01*
X13716000Y-9321000D02*
X13766000Y-9271000D01*
X13716000Y-9221000D01*
X13666000Y-9271000D01*
X13716000Y-9321000D01*
X13970000Y-9321000D02*
X14020000Y-9271000D01*
X13970000Y-9221000D01*
X13920000Y-9271000D01*
X13970000Y-9321000D01*
X14224000Y-9321000D02*
X14274000Y-9271000D01*
X14224000Y-9221000D01*
X14174000Y-9271000D01*
X14224000Y-9321000D01*
X14478000Y-9321000D02*
X14528000Y-9271000D01*
X14478000Y-9221000D01*
X14428000Y-9271000D01*
X14478000Y-9321000D01*
X14732000Y-9321000D02*
X14782000Y-9271000D01*
X14732000Y-9221000D01*
X14682000Y-9271000D01*
X14732000Y-9321000D01*
X15113000Y-8813000D02*
X15163000Y-8763000D01*
X15113000Y-8713000D01*
X15063000Y-8763000D01*
X15113000Y-8813000D01*
X15367000Y-8813000D02*
X15417000Y-8763000D01*
X15367000Y-8713000D01*
X15317000Y-8763000D01*
X15367000Y-8813000D01*
X15621000Y-8813000D02*
X15671000Y-8763000D01*
X15621000Y-8713000D01*
X15571000Y-8763000D01*
X15621000Y-8813000D01*
X11758500Y-8148000D02*
X11859500Y-8249000D01*
X11859500Y-8148000D02*
X11758500Y-8249000D01*
X11859500Y-8198500D02*
G75*
G03X11859500Y-8198500I-50500J0D01*
G01*
X12268500Y-8268000D02*
X12369500Y-8369000D01*
X12369500Y-8268000D02*
X12268500Y-8369000D01*
X12369500Y-8318500D02*
G75*
G03X12369500Y-8318500I-50500J0D01*
G01*
X18032500Y-9015500D02*
X18162500Y-9145500D01*
X18162500Y-9015500D02*
X18032500Y-9145500D01*
X18097500Y-9015500D02*
X18097500Y-9145500D01*
X18032500Y-9080500D02*
X18162500Y-9080500D01*
X18032500Y-9523500D02*
X18162500Y-9653500D01*
X18162500Y-9523500D02*
X18032500Y-9653500D01*
X18097500Y-9523500D02*
X18097500Y-9653500D01*
X18032500Y-9588500D02*
X18162500Y-9588500D01*
X16096000Y-7968000D02*
X16416000Y-8288000D01*
X16416000Y-7968000D02*
X16096000Y-8288000D01*
X16369138Y-8241138D02*
X16369138Y-8014862D01*
X16142862Y-8014862D01*
X16142862Y-8241138D01*
X16369138Y-8241138D01*
X11397000Y-12540000D02*
X11717000Y-12860000D01*
X11717000Y-12540000D02*
X11397000Y-12860000D01*
X11670138Y-12813138D02*
X11670138Y-12586862D01*
X11443862Y-12586862D01*
X11443862Y-12813138D01*
X11670138Y-12813138D01*
X18191500Y-7968000D02*
X18511500Y-8288000D01*
X18511500Y-7968000D02*
X18191500Y-8288000D01*
X18464638Y-8241138D02*
X18464638Y-8014862D01*
X18238362Y-8014862D01*
X18238362Y-8241138D01*
X18464638Y-8241138D01*
X11397000Y-7333000D02*
X11717000Y-7653000D01*
X11717000Y-7333000D02*
X11397000Y-7653000D01*
X11670138Y-7606138D02*
X11670138Y-7379862D01*
X11443862Y-7379862D01*
X11443862Y-7606138D01*
X11670138Y-7606138D01*
X16096000Y-11905000D02*
X16416000Y-12225000D01*
X16416000Y-11905000D02*
X16096000Y-12225000D01*
X16369138Y-12178138D02*
X16369138Y-11951862D01*
X16142862Y-11951862D01*
X16142862Y-12178138D01*
X16369138Y-12178138D01*
X18191500Y-11905000D02*
X18511500Y-12225000D01*
X18511500Y-11905000D02*
X18191500Y-12225000D01*
X18464638Y-12178138D02*
X18464638Y-11951862D01*
X18238362Y-11951862D01*
X18238362Y-12178138D01*
X18464638Y-12178138D01*
X19842500Y-11016000D02*
X20162500Y-11336000D01*
X20162500Y-11016000D02*
X19842500Y-11336000D01*
X20115638Y-11289138D02*
X20115638Y-11062862D01*
X19889362Y-11062862D01*
X19889362Y-11289138D01*
X20115638Y-11289138D01*
X19842500Y-7333000D02*
X20162500Y-7653000D01*
X20162500Y-7333000D02*
X19842500Y-7653000D01*
X20115638Y-7606138D02*
X20115638Y-7379862D01*
X19889362Y-7379862D01*
X19889362Y-7606138D01*
X20115638Y-7606138D01*
D12*
X11459928Y-13549214D02*
X11459928Y-13249214D01*
X11531357Y-13249214D01*
X11574214Y-13263500D01*
X11602786Y-13292071D01*
X11617071Y-13320643D01*
X11631357Y-13377786D01*
X11631357Y-13420643D01*
X11617071Y-13477786D01*
X11602786Y-13506357D01*
X11574214Y-13534929D01*
X11531357Y-13549214D01*
X11459928Y-13549214D01*
X11759928Y-13549214D02*
X11759928Y-13349214D01*
X11759928Y-13406357D02*
X11774214Y-13377786D01*
X11788500Y-13363500D01*
X11817071Y-13349214D01*
X11845643Y-13349214D01*
X11945643Y-13549214D02*
X11945643Y-13349214D01*
X11945643Y-13249214D02*
X11931357Y-13263500D01*
X11945643Y-13277786D01*
X11959928Y-13263500D01*
X11945643Y-13249214D01*
X11945643Y-13277786D01*
X12131357Y-13549214D02*
X12102786Y-13534929D01*
X12088500Y-13506357D01*
X12088500Y-13249214D01*
X12288500Y-13549214D02*
X12259928Y-13534929D01*
X12245643Y-13506357D01*
X12245643Y-13249214D01*
X12631357Y-13549214D02*
X12631357Y-13249214D01*
X12731357Y-13463500D01*
X12831357Y-13249214D01*
X12831357Y-13549214D01*
X13102786Y-13549214D02*
X13102786Y-13392071D01*
X13088500Y-13363500D01*
X13059928Y-13349214D01*
X13002786Y-13349214D01*
X12974214Y-13363500D01*
X13102786Y-13534929D02*
X13074214Y-13549214D01*
X13002786Y-13549214D01*
X12974214Y-13534929D01*
X12959928Y-13506357D01*
X12959928Y-13477786D01*
X12974214Y-13449214D01*
X13002786Y-13434929D01*
X13074214Y-13434929D01*
X13102786Y-13420643D01*
X13245643Y-13349214D02*
X13245643Y-13649214D01*
X13245643Y-13363500D02*
X13274214Y-13349214D01*
X13331357Y-13349214D01*
X13359928Y-13363500D01*
X13374214Y-13377786D01*
X13388500Y-13406357D01*
X13388500Y-13492071D01*
X13374214Y-13520643D01*
X13359928Y-13534929D01*
X13331357Y-13549214D01*
X13274214Y-13549214D01*
X13245643Y-13534929D01*
X13517071Y-13520643D02*
X13531357Y-13534929D01*
X13517071Y-13549214D01*
X13502786Y-13534929D01*
X13517071Y-13520643D01*
X13517071Y-13549214D01*
X13517071Y-13363500D02*
X13531357Y-13377786D01*
X13517071Y-13392071D01*
X13502786Y-13377786D01*
X13517071Y-13363500D01*
X13517071Y-13392071D01*
X11103500Y-14008500D02*
X11173500Y-14078500D01*
X11173500Y-14008500D02*
X11103500Y-14078500D01*
X11517071Y-13879214D02*
X11545643Y-13879214D01*
X11574214Y-13893500D01*
X11588500Y-13907786D01*
X11602786Y-13936357D01*
X11617071Y-13993500D01*
X11617071Y-14064929D01*
X11602786Y-14122071D01*
X11588500Y-14150643D01*
X11574214Y-14164929D01*
X11545643Y-14179214D01*
X11517071Y-14179214D01*
X11488500Y-14164929D01*
X11474214Y-14150643D01*
X11459928Y-14122071D01*
X11445643Y-14064929D01*
X11445643Y-13993500D01*
X11459928Y-13936357D01*
X11474214Y-13907786D01*
X11488500Y-13893500D01*
X11517071Y-13879214D01*
X11745643Y-14150643D02*
X11759928Y-14164929D01*
X11745643Y-14179214D01*
X11731357Y-14164929D01*
X11745643Y-14150643D01*
X11745643Y-14179214D01*
X11859928Y-13879214D02*
X12059928Y-13879214D01*
X11931357Y-14179214D01*
X12231357Y-13879214D02*
X12259928Y-13879214D01*
X12288500Y-13893500D01*
X12302786Y-13907786D01*
X12317071Y-13936357D01*
X12331357Y-13993500D01*
X12331357Y-14064929D01*
X12317071Y-14122071D01*
X12302786Y-14150643D01*
X12288500Y-14164929D01*
X12259928Y-14179214D01*
X12231357Y-14179214D01*
X12202786Y-14164929D01*
X12188500Y-14150643D01*
X12174214Y-14122071D01*
X12159928Y-14064929D01*
X12159928Y-13993500D01*
X12174214Y-13936357D01*
X12188500Y-13907786D01*
X12202786Y-13893500D01*
X12231357Y-13879214D01*
X12459928Y-14179214D02*
X12459928Y-13979214D01*
X12459928Y-14007786D02*
X12474214Y-13993500D01*
X12502786Y-13979214D01*
X12545643Y-13979214D01*
X12574214Y-13993500D01*
X12588500Y-14022071D01*
X12588500Y-14179214D01*
X12588500Y-14022071D02*
X12602786Y-13993500D01*
X12631357Y-13979214D01*
X12674214Y-13979214D01*
X12702786Y-13993500D01*
X12717071Y-14022071D01*
X12717071Y-14179214D01*
X12859928Y-14179214D02*
X12859928Y-13979214D01*
X12859928Y-14007786D02*
X12874214Y-13993500D01*
X12902786Y-13979214D01*
X12945643Y-13979214D01*
X12974214Y-13993500D01*
X12988500Y-14022071D01*
X12988500Y-14179214D01*
X12988500Y-14022071D02*
X13002786Y-13993500D01*
X13031357Y-13979214D01*
X13074214Y-13979214D01*
X13102786Y-13993500D01*
X13117071Y-14022071D01*
X13117071Y-14179214D01*
X13702786Y-13864929D02*
X13445643Y-14250643D01*
X14088500Y-13879214D02*
X14117071Y-13879214D01*
X14145643Y-13893500D01*
X14159928Y-13907786D01*
X14174214Y-13936357D01*
X14188500Y-13993500D01*
X14188500Y-14064929D01*
X14174214Y-14122071D01*
X14159928Y-14150643D01*
X14145643Y-14164929D01*
X14117071Y-14179214D01*
X14088500Y-14179214D01*
X14059928Y-14164929D01*
X14045643Y-14150643D01*
X14031357Y-14122071D01*
X14017071Y-14064929D01*
X14017071Y-13993500D01*
X14031357Y-13936357D01*
X14045643Y-13907786D01*
X14059928Y-13893500D01*
X14088500Y-13879214D01*
X14317071Y-14150643D02*
X14331357Y-14164929D01*
X14317071Y-14179214D01*
X14302786Y-14164929D01*
X14317071Y-14150643D01*
X14317071Y-14179214D01*
X14517071Y-13879214D02*
X14545643Y-13879214D01*
X14574214Y-13893500D01*
X14588500Y-13907786D01*
X14602786Y-13936357D01*
X14617071Y-13993500D01*
X14617071Y-14064929D01*
X14602786Y-14122071D01*
X14588500Y-14150643D01*
X14574214Y-14164929D01*
X14545643Y-14179214D01*
X14517071Y-14179214D01*
X14488500Y-14164929D01*
X14474214Y-14150643D01*
X14459928Y-14122071D01*
X14445643Y-14064929D01*
X14445643Y-13993500D01*
X14459928Y-13936357D01*
X14474214Y-13907786D01*
X14488500Y-13893500D01*
X14517071Y-13879214D01*
X14731357Y-13907786D02*
X14745643Y-13893500D01*
X14774214Y-13879214D01*
X14845643Y-13879214D01*
X14874214Y-13893500D01*
X14888500Y-13907786D01*
X14902786Y-13936357D01*
X14902786Y-13964929D01*
X14888500Y-14007786D01*
X14717071Y-14179214D01*
X14902786Y-14179214D01*
X15074214Y-14007786D02*
X15045643Y-13993500D01*
X15031357Y-13979214D01*
X15017071Y-13950643D01*
X15017071Y-13936357D01*
X15031357Y-13907786D01*
X15045643Y-13893500D01*
X15074214Y-13879214D01*
X15131357Y-13879214D01*
X15159928Y-13893500D01*
X15174214Y-13907786D01*
X15188500Y-13936357D01*
X15188500Y-13950643D01*
X15174214Y-13979214D01*
X15159928Y-13993500D01*
X15131357Y-14007786D01*
X15074214Y-14007786D01*
X15045643Y-14022071D01*
X15031357Y-14036357D01*
X15017071Y-14064929D01*
X15017071Y-14122071D01*
X15031357Y-14150643D01*
X15045643Y-14164929D01*
X15074214Y-14179214D01*
X15131357Y-14179214D01*
X15159928Y-14164929D01*
X15174214Y-14150643D01*
X15188500Y-14122071D01*
X15188500Y-14064929D01*
X15174214Y-14036357D01*
X15159928Y-14022071D01*
X15131357Y-14007786D01*
X15302786Y-13879214D02*
X15302786Y-13936357D01*
X15417071Y-13879214D02*
X15417071Y-13936357D01*
X15859928Y-14293500D02*
X15845643Y-14279214D01*
X15817071Y-14236357D01*
X15802786Y-14207786D01*
X15788500Y-14164929D01*
X15774214Y-14093500D01*
X15774214Y-14036357D01*
X15788500Y-13964929D01*
X15802786Y-13922071D01*
X15817071Y-13893500D01*
X15845643Y-13850643D01*
X15859928Y-13836357D01*
X16131357Y-14179214D02*
X15959928Y-14179214D01*
X16045643Y-14179214D02*
X16045643Y-13879214D01*
X16017071Y-13922071D01*
X15988500Y-13950643D01*
X15959928Y-13964929D01*
X16317071Y-13879214D02*
X16345643Y-13879214D01*
X16374214Y-13893500D01*
X16388500Y-13907786D01*
X16402786Y-13936357D01*
X16417071Y-13993500D01*
X16417071Y-14064929D01*
X16402786Y-14122071D01*
X16388500Y-14150643D01*
X16374214Y-14164929D01*
X16345643Y-14179214D01*
X16317071Y-14179214D01*
X16288500Y-14164929D01*
X16274214Y-14150643D01*
X16259928Y-14122071D01*
X16245643Y-14064929D01*
X16245643Y-13993500D01*
X16259928Y-13936357D01*
X16274214Y-13907786D01*
X16288500Y-13893500D01*
X16317071Y-13879214D01*
X16774214Y-14179214D02*
X16774214Y-13879214D01*
X16902786Y-14179214D02*
X16902786Y-14022071D01*
X16888500Y-13993500D01*
X16859928Y-13979214D01*
X16817071Y-13979214D01*
X16788500Y-13993500D01*
X16774214Y-14007786D01*
X17088500Y-14179214D02*
X17059928Y-14164929D01*
X17045643Y-14150643D01*
X17031357Y-14122071D01*
X17031357Y-14036357D01*
X17045643Y-14007786D01*
X17059928Y-13993500D01*
X17088500Y-13979214D01*
X17131357Y-13979214D01*
X17159928Y-13993500D01*
X17174214Y-14007786D01*
X17188500Y-14036357D01*
X17188500Y-14122071D01*
X17174214Y-14150643D01*
X17159928Y-14164929D01*
X17131357Y-14179214D01*
X17088500Y-14179214D01*
X17359928Y-14179214D02*
X17331357Y-14164929D01*
X17317071Y-14136357D01*
X17317071Y-13879214D01*
X17588500Y-14164929D02*
X17559928Y-14179214D01*
X17502786Y-14179214D01*
X17474214Y-14164929D01*
X17459928Y-14136357D01*
X17459928Y-14022071D01*
X17474214Y-13993500D01*
X17502786Y-13979214D01*
X17559928Y-13979214D01*
X17588500Y-13993500D01*
X17602786Y-14022071D01*
X17602786Y-14050643D01*
X17459928Y-14079214D01*
X17717071Y-14164929D02*
X17745643Y-14179214D01*
X17802786Y-14179214D01*
X17831357Y-14164929D01*
X17845643Y-14136357D01*
X17845643Y-14122071D01*
X17831357Y-14093500D01*
X17802786Y-14079214D01*
X17759928Y-14079214D01*
X17731357Y-14064929D01*
X17717071Y-14036357D01*
X17717071Y-14022071D01*
X17731357Y-13993500D01*
X17759928Y-13979214D01*
X17802786Y-13979214D01*
X17831357Y-13993500D01*
X17945643Y-14293500D02*
X17959928Y-14279214D01*
X17988500Y-14236357D01*
X18002786Y-14207786D01*
X18017071Y-14164929D01*
X18031357Y-14093500D01*
X18031357Y-14036357D01*
X18017071Y-13964929D01*
X18002786Y-13922071D01*
X17988500Y-13893500D01*
X17959928Y-13850643D01*
X17945643Y-13836357D01*
X11173500Y-14439500D02*
G75*
G03X11173500Y-14439500I-37500J0D01*
G01*
X11517071Y-14275214D02*
X11545643Y-14275214D01*
X11574214Y-14289500D01*
X11588500Y-14303786D01*
X11602786Y-14332357D01*
X11617071Y-14389500D01*
X11617071Y-14460929D01*
X11602786Y-14518071D01*
X11588500Y-14546643D01*
X11574214Y-14560929D01*
X11545643Y-14575214D01*
X11517071Y-14575214D01*
X11488500Y-14560929D01*
X11474214Y-14546643D01*
X11459928Y-14518071D01*
X11445643Y-14460929D01*
X11445643Y-14389500D01*
X11459928Y-14332357D01*
X11474214Y-14303786D01*
X11488500Y-14289500D01*
X11517071Y-14275214D01*
X11745643Y-14546643D02*
X11759928Y-14560929D01*
X11745643Y-14575214D01*
X11731357Y-14560929D01*
X11745643Y-14546643D01*
X11745643Y-14575214D01*
X11859928Y-14275214D02*
X12059928Y-14275214D01*
X11931357Y-14575214D01*
X12317071Y-14275214D02*
X12174214Y-14275214D01*
X12159928Y-14418071D01*
X12174214Y-14403786D01*
X12202786Y-14389500D01*
X12274214Y-14389500D01*
X12302786Y-14403786D01*
X12317071Y-14418071D01*
X12331357Y-14446643D01*
X12331357Y-14518071D01*
X12317071Y-14546643D01*
X12302786Y-14560929D01*
X12274214Y-14575214D01*
X12202786Y-14575214D01*
X12174214Y-14560929D01*
X12159928Y-14546643D01*
X12459928Y-14575214D02*
X12459928Y-14375214D01*
X12459928Y-14403786D02*
X12474214Y-14389500D01*
X12502786Y-14375214D01*
X12545643Y-14375214D01*
X12574214Y-14389500D01*
X12588500Y-14418071D01*
X12588500Y-14575214D01*
X12588500Y-14418071D02*
X12602786Y-14389500D01*
X12631357Y-14375214D01*
X12674214Y-14375214D01*
X12702786Y-14389500D01*
X12717071Y-14418071D01*
X12717071Y-14575214D01*
X12859928Y-14575214D02*
X12859928Y-14375214D01*
X12859928Y-14403786D02*
X12874214Y-14389500D01*
X12902786Y-14375214D01*
X12945643Y-14375214D01*
X12974214Y-14389500D01*
X12988500Y-14418071D01*
X12988500Y-14575214D01*
X12988500Y-14418071D02*
X13002786Y-14389500D01*
X13031357Y-14375214D01*
X13074214Y-14375214D01*
X13102786Y-14389500D01*
X13117071Y-14418071D01*
X13117071Y-14575214D01*
X13702786Y-14260929D02*
X13445643Y-14646643D01*
X14088500Y-14275214D02*
X14117071Y-14275214D01*
X14145643Y-14289500D01*
X14159928Y-14303786D01*
X14174214Y-14332357D01*
X14188500Y-14389500D01*
X14188500Y-14460929D01*
X14174214Y-14518071D01*
X14159928Y-14546643D01*
X14145643Y-14560929D01*
X14117071Y-14575214D01*
X14088500Y-14575214D01*
X14059928Y-14560929D01*
X14045643Y-14546643D01*
X14031357Y-14518071D01*
X14017071Y-14460929D01*
X14017071Y-14389500D01*
X14031357Y-14332357D01*
X14045643Y-14303786D01*
X14059928Y-14289500D01*
X14088500Y-14275214D01*
X14317071Y-14546643D02*
X14331357Y-14560929D01*
X14317071Y-14575214D01*
X14302786Y-14560929D01*
X14317071Y-14546643D01*
X14317071Y-14575214D01*
X14517071Y-14275214D02*
X14545643Y-14275214D01*
X14574214Y-14289500D01*
X14588500Y-14303786D01*
X14602786Y-14332357D01*
X14617071Y-14389500D01*
X14617071Y-14460929D01*
X14602786Y-14518071D01*
X14588500Y-14546643D01*
X14574214Y-14560929D01*
X14545643Y-14575214D01*
X14517071Y-14575214D01*
X14488500Y-14560929D01*
X14474214Y-14546643D01*
X14459928Y-14518071D01*
X14445643Y-14460929D01*
X14445643Y-14389500D01*
X14459928Y-14332357D01*
X14474214Y-14303786D01*
X14488500Y-14289500D01*
X14517071Y-14275214D01*
X14717071Y-14275214D02*
X14902786Y-14275214D01*
X14802786Y-14389500D01*
X14845643Y-14389500D01*
X14874214Y-14403786D01*
X14888500Y-14418071D01*
X14902786Y-14446643D01*
X14902786Y-14518071D01*
X14888500Y-14546643D01*
X14874214Y-14560929D01*
X14845643Y-14575214D01*
X14759928Y-14575214D01*
X14731357Y-14560929D01*
X14717071Y-14546643D01*
X15088500Y-14275214D02*
X15117071Y-14275214D01*
X15145643Y-14289500D01*
X15159928Y-14303786D01*
X15174214Y-14332357D01*
X15188500Y-14389500D01*
X15188500Y-14460929D01*
X15174214Y-14518071D01*
X15159928Y-14546643D01*
X15145643Y-14560929D01*
X15117071Y-14575214D01*
X15088500Y-14575214D01*
X15059928Y-14560929D01*
X15045643Y-14546643D01*
X15031357Y-14518071D01*
X15017071Y-14460929D01*
X15017071Y-14389500D01*
X15031357Y-14332357D01*
X15045643Y-14303786D01*
X15059928Y-14289500D01*
X15088500Y-14275214D01*
X15302786Y-14275214D02*
X15302786Y-14332357D01*
X15417071Y-14275214D02*
X15417071Y-14332357D01*
X15859928Y-14689500D02*
X15845643Y-14675214D01*
X15817071Y-14632357D01*
X15802786Y-14603786D01*
X15788500Y-14560929D01*
X15774214Y-14489500D01*
X15774214Y-14432357D01*
X15788500Y-14360929D01*
X15802786Y-14318071D01*
X15817071Y-14289500D01*
X15845643Y-14246643D01*
X15859928Y-14232357D01*
X15945643Y-14275214D02*
X16131357Y-14275214D01*
X16031357Y-14389500D01*
X16074214Y-14389500D01*
X16102786Y-14403786D01*
X16117071Y-14418071D01*
X16131357Y-14446643D01*
X16131357Y-14518071D01*
X16117071Y-14546643D01*
X16102786Y-14560929D01*
X16074214Y-14575214D01*
X15988500Y-14575214D01*
X15959928Y-14560929D01*
X15945643Y-14546643D01*
X16488500Y-14575214D02*
X16488500Y-14275214D01*
X16617071Y-14575214D02*
X16617071Y-14418071D01*
X16602786Y-14389500D01*
X16574214Y-14375214D01*
X16531357Y-14375214D01*
X16502786Y-14389500D01*
X16488500Y-14403786D01*
X16802786Y-14575214D02*
X16774214Y-14560929D01*
X16759928Y-14546643D01*
X16745643Y-14518071D01*
X16745643Y-14432357D01*
X16759928Y-14403786D01*
X16774214Y-14389500D01*
X16802786Y-14375214D01*
X16845643Y-14375214D01*
X16874214Y-14389500D01*
X16888500Y-14403786D01*
X16902786Y-14432357D01*
X16902786Y-14518071D01*
X16888500Y-14546643D01*
X16874214Y-14560929D01*
X16845643Y-14575214D01*
X16802786Y-14575214D01*
X17074214Y-14575214D02*
X17045643Y-14560929D01*
X17031357Y-14532357D01*
X17031357Y-14275214D01*
X17302786Y-14560929D02*
X17274214Y-14575214D01*
X17217071Y-14575214D01*
X17188500Y-14560929D01*
X17174214Y-14532357D01*
X17174214Y-14418071D01*
X17188500Y-14389500D01*
X17217071Y-14375214D01*
X17274214Y-14375214D01*
X17302786Y-14389500D01*
X17317071Y-14418071D01*
X17317071Y-14446643D01*
X17174214Y-14475214D01*
X17431357Y-14560929D02*
X17459928Y-14575214D01*
X17517071Y-14575214D01*
X17545643Y-14560929D01*
X17559928Y-14532357D01*
X17559928Y-14518071D01*
X17545643Y-14489500D01*
X17517071Y-14475214D01*
X17474214Y-14475214D01*
X17445643Y-14460929D01*
X17431357Y-14432357D01*
X17431357Y-14418071D01*
X17445643Y-14389500D01*
X17474214Y-14375214D01*
X17517071Y-14375214D01*
X17545643Y-14389500D01*
X17659928Y-14689500D02*
X17674214Y-14675214D01*
X17702786Y-14632357D01*
X17717071Y-14603786D01*
X17731357Y-14560929D01*
X17745643Y-14489500D01*
X17745643Y-14432357D01*
X17731357Y-14360929D01*
X17717071Y-14318071D01*
X17702786Y-14289500D01*
X17674214Y-14246643D01*
X17659928Y-14232357D01*
X11133500Y-14795500D02*
X11133500Y-14875500D01*
X11093500Y-14835500D02*
X11173500Y-14835500D01*
X11517071Y-14671214D02*
X11545643Y-14671214D01*
X11574214Y-14685500D01*
X11588500Y-14699786D01*
X11602786Y-14728357D01*
X11617071Y-14785500D01*
X11617071Y-14856929D01*
X11602786Y-14914071D01*
X11588500Y-14942643D01*
X11574214Y-14956929D01*
X11545643Y-14971214D01*
X11517071Y-14971214D01*
X11488500Y-14956929D01*
X11474214Y-14942643D01*
X11459928Y-14914071D01*
X11445643Y-14856929D01*
X11445643Y-14785500D01*
X11459928Y-14728357D01*
X11474214Y-14699786D01*
X11488500Y-14685500D01*
X11517071Y-14671214D01*
X11745643Y-14942643D02*
X11759928Y-14956929D01*
X11745643Y-14971214D01*
X11731357Y-14956929D01*
X11745643Y-14942643D01*
X11745643Y-14971214D01*
X11931357Y-14799786D02*
X11902786Y-14785500D01*
X11888500Y-14771214D01*
X11874214Y-14742643D01*
X11874214Y-14728357D01*
X11888500Y-14699786D01*
X11902786Y-14685500D01*
X11931357Y-14671214D01*
X11988500Y-14671214D01*
X12017071Y-14685500D01*
X12031357Y-14699786D01*
X12045643Y-14728357D01*
X12045643Y-14742643D01*
X12031357Y-14771214D01*
X12017071Y-14785500D01*
X11988500Y-14799786D01*
X11931357Y-14799786D01*
X11902786Y-14814071D01*
X11888500Y-14828357D01*
X11874214Y-14856929D01*
X11874214Y-14914071D01*
X11888500Y-14942643D01*
X11902786Y-14956929D01*
X11931357Y-14971214D01*
X11988500Y-14971214D01*
X12017071Y-14956929D01*
X12031357Y-14942643D01*
X12045643Y-14914071D01*
X12045643Y-14856929D01*
X12031357Y-14828357D01*
X12017071Y-14814071D01*
X11988500Y-14799786D01*
X12231357Y-14671214D02*
X12259928Y-14671214D01*
X12288500Y-14685500D01*
X12302786Y-14699786D01*
X12317071Y-14728357D01*
X12331357Y-14785500D01*
X12331357Y-14856929D01*
X12317071Y-14914071D01*
X12302786Y-14942643D01*
X12288500Y-14956929D01*
X12259928Y-14971214D01*
X12231357Y-14971214D01*
X12202786Y-14956929D01*
X12188500Y-14942643D01*
X12174214Y-14914071D01*
X12159928Y-14856929D01*
X12159928Y-14785500D01*
X12174214Y-14728357D01*
X12188500Y-14699786D01*
X12202786Y-14685500D01*
X12231357Y-14671214D01*
X12459928Y-14971214D02*
X12459928Y-14771214D01*
X12459928Y-14799786D02*
X12474214Y-14785500D01*
X12502786Y-14771214D01*
X12545643Y-14771214D01*
X12574214Y-14785500D01*
X12588500Y-14814071D01*
X12588500Y-14971214D01*
X12588500Y-14814071D02*
X12602786Y-14785500D01*
X12631357Y-14771214D01*
X12674214Y-14771214D01*
X12702786Y-14785500D01*
X12717071Y-14814071D01*
X12717071Y-14971214D01*
X12859928Y-14971214D02*
X12859928Y-14771214D01*
X12859928Y-14799786D02*
X12874214Y-14785500D01*
X12902786Y-14771214D01*
X12945643Y-14771214D01*
X12974214Y-14785500D01*
X12988500Y-14814071D01*
X12988500Y-14971214D01*
X12988500Y-14814071D02*
X13002786Y-14785500D01*
X13031357Y-14771214D01*
X13074214Y-14771214D01*
X13102786Y-14785500D01*
X13117071Y-14814071D01*
X13117071Y-14971214D01*
X13702786Y-14656929D02*
X13445643Y-15042643D01*
X14088500Y-14671214D02*
X14117071Y-14671214D01*
X14145643Y-14685500D01*
X14159928Y-14699786D01*
X14174214Y-14728357D01*
X14188500Y-14785500D01*
X14188500Y-14856929D01*
X14174214Y-14914071D01*
X14159928Y-14942643D01*
X14145643Y-14956929D01*
X14117071Y-14971214D01*
X14088500Y-14971214D01*
X14059928Y-14956929D01*
X14045643Y-14942643D01*
X14031357Y-14914071D01*
X14017071Y-14856929D01*
X14017071Y-14785500D01*
X14031357Y-14728357D01*
X14045643Y-14699786D01*
X14059928Y-14685500D01*
X14088500Y-14671214D01*
X14317071Y-14942643D02*
X14331357Y-14956929D01*
X14317071Y-14971214D01*
X14302786Y-14956929D01*
X14317071Y-14942643D01*
X14317071Y-14971214D01*
X14517071Y-14671214D02*
X14545643Y-14671214D01*
X14574214Y-14685500D01*
X14588500Y-14699786D01*
X14602786Y-14728357D01*
X14617071Y-14785500D01*
X14617071Y-14856929D01*
X14602786Y-14914071D01*
X14588500Y-14942643D01*
X14574214Y-14956929D01*
X14545643Y-14971214D01*
X14517071Y-14971214D01*
X14488500Y-14956929D01*
X14474214Y-14942643D01*
X14459928Y-14914071D01*
X14445643Y-14856929D01*
X14445643Y-14785500D01*
X14459928Y-14728357D01*
X14474214Y-14699786D01*
X14488500Y-14685500D01*
X14517071Y-14671214D01*
X14717071Y-14671214D02*
X14902786Y-14671214D01*
X14802786Y-14785500D01*
X14845643Y-14785500D01*
X14874214Y-14799786D01*
X14888500Y-14814071D01*
X14902786Y-14842643D01*
X14902786Y-14914071D01*
X14888500Y-14942643D01*
X14874214Y-14956929D01*
X14845643Y-14971214D01*
X14759928Y-14971214D01*
X14731357Y-14956929D01*
X14717071Y-14942643D01*
X15188500Y-14971214D02*
X15017071Y-14971214D01*
X15102786Y-14971214D02*
X15102786Y-14671214D01*
X15074214Y-14714071D01*
X15045643Y-14742643D01*
X15017071Y-14756929D01*
X15302786Y-14671214D02*
X15302786Y-14728357D01*
X15417071Y-14671214D02*
X15417071Y-14728357D01*
X15859928Y-15085500D02*
X15845643Y-15071214D01*
X15817071Y-15028357D01*
X15802786Y-14999786D01*
X15788500Y-14956929D01*
X15774214Y-14885500D01*
X15774214Y-14828357D01*
X15788500Y-14756929D01*
X15802786Y-14714071D01*
X15817071Y-14685500D01*
X15845643Y-14642643D01*
X15859928Y-14628357D01*
X16102786Y-14771214D02*
X16102786Y-14971214D01*
X16031357Y-14656929D02*
X15959928Y-14871214D01*
X16145643Y-14871214D01*
X16245643Y-14699786D02*
X16259928Y-14685500D01*
X16288500Y-14671214D01*
X16359928Y-14671214D01*
X16388500Y-14685500D01*
X16402786Y-14699786D01*
X16417071Y-14728357D01*
X16417071Y-14756929D01*
X16402786Y-14799786D01*
X16231357Y-14971214D01*
X16417071Y-14971214D01*
X16774214Y-14971214D02*
X16774214Y-14671214D01*
X16902786Y-14971214D02*
X16902786Y-14814071D01*
X16888500Y-14785500D01*
X16859928Y-14771214D01*
X16817071Y-14771214D01*
X16788500Y-14785500D01*
X16774214Y-14799786D01*
X17088500Y-14971214D02*
X17059928Y-14956929D01*
X17045643Y-14942643D01*
X17031357Y-14914071D01*
X17031357Y-14828357D01*
X17045643Y-14799786D01*
X17059928Y-14785500D01*
X17088500Y-14771214D01*
X17131357Y-14771214D01*
X17159928Y-14785500D01*
X17174214Y-14799786D01*
X17188500Y-14828357D01*
X17188500Y-14914071D01*
X17174214Y-14942643D01*
X17159928Y-14956929D01*
X17131357Y-14971214D01*
X17088500Y-14971214D01*
X17359928Y-14971214D02*
X17331357Y-14956929D01*
X17317071Y-14928357D01*
X17317071Y-14671214D01*
X17588500Y-14956929D02*
X17559928Y-14971214D01*
X17502786Y-14971214D01*
X17474214Y-14956929D01*
X17459928Y-14928357D01*
X17459928Y-14814071D01*
X17474214Y-14785500D01*
X17502786Y-14771214D01*
X17559928Y-14771214D01*
X17588500Y-14785500D01*
X17602786Y-14814071D01*
X17602786Y-14842643D01*
X17459928Y-14871214D01*
X17717071Y-14956929D02*
X17745643Y-14971214D01*
X17802786Y-14971214D01*
X17831357Y-14956929D01*
X17845643Y-14928357D01*
X17845643Y-14914071D01*
X17831357Y-14885500D01*
X17802786Y-14871214D01*
X17759928Y-14871214D01*
X17731357Y-14856929D01*
X17717071Y-14828357D01*
X17717071Y-14814071D01*
X17731357Y-14785500D01*
X17759928Y-14771214D01*
X17802786Y-14771214D01*
X17831357Y-14785500D01*
X17945643Y-15085500D02*
X17959928Y-15071214D01*
X17988500Y-15028357D01*
X18002786Y-14999786D01*
X18017071Y-14956929D01*
X18031357Y-14885500D01*
X18031357Y-14828357D01*
X18017071Y-14756929D01*
X18002786Y-14714071D01*
X17988500Y-14685500D01*
X17959928Y-14642643D01*
X17945643Y-14628357D01*
X11160320Y-15263320D02*
X11160320Y-15199680D01*
X11096680Y-15199680D01*
X11096680Y-15263320D01*
X11160320Y-15263320D01*
X11517071Y-15067214D02*
X11545643Y-15067214D01*
X11574214Y-15081500D01*
X11588500Y-15095786D01*
X11602786Y-15124357D01*
X11617071Y-15181500D01*
X11617071Y-15252929D01*
X11602786Y-15310071D01*
X11588500Y-15338643D01*
X11574214Y-15352929D01*
X11545643Y-15367214D01*
X11517071Y-15367214D01*
X11488500Y-15352929D01*
X11474214Y-15338643D01*
X11459928Y-15310071D01*
X11445643Y-15252929D01*
X11445643Y-15181500D01*
X11459928Y-15124357D01*
X11474214Y-15095786D01*
X11488500Y-15081500D01*
X11517071Y-15067214D01*
X11745643Y-15338643D02*
X11759928Y-15352929D01*
X11745643Y-15367214D01*
X11731357Y-15352929D01*
X11745643Y-15338643D01*
X11745643Y-15367214D01*
X11902786Y-15367214D02*
X11959928Y-15367214D01*
X11988500Y-15352929D01*
X12002786Y-15338643D01*
X12031357Y-15295786D01*
X12045643Y-15238643D01*
X12045643Y-15124357D01*
X12031357Y-15095786D01*
X12017071Y-15081500D01*
X11988500Y-15067214D01*
X11931357Y-15067214D01*
X11902786Y-15081500D01*
X11888500Y-15095786D01*
X11874214Y-15124357D01*
X11874214Y-15195786D01*
X11888500Y-15224357D01*
X11902786Y-15238643D01*
X11931357Y-15252929D01*
X11988500Y-15252929D01*
X12017071Y-15238643D01*
X12031357Y-15224357D01*
X12045643Y-15195786D01*
X12231357Y-15067214D02*
X12259928Y-15067214D01*
X12288500Y-15081500D01*
X12302786Y-15095786D01*
X12317071Y-15124357D01*
X12331357Y-15181500D01*
X12331357Y-15252929D01*
X12317071Y-15310071D01*
X12302786Y-15338643D01*
X12288500Y-15352929D01*
X12259928Y-15367214D01*
X12231357Y-15367214D01*
X12202786Y-15352929D01*
X12188500Y-15338643D01*
X12174214Y-15310071D01*
X12159928Y-15252929D01*
X12159928Y-15181500D01*
X12174214Y-15124357D01*
X12188500Y-15095786D01*
X12202786Y-15081500D01*
X12231357Y-15067214D01*
X12459928Y-15367214D02*
X12459928Y-15167214D01*
X12459928Y-15195786D02*
X12474214Y-15181500D01*
X12502786Y-15167214D01*
X12545643Y-15167214D01*
X12574214Y-15181500D01*
X12588500Y-15210071D01*
X12588500Y-15367214D01*
X12588500Y-15210071D02*
X12602786Y-15181500D01*
X12631357Y-15167214D01*
X12674214Y-15167214D01*
X12702786Y-15181500D01*
X12717071Y-15210071D01*
X12717071Y-15367214D01*
X12859928Y-15367214D02*
X12859928Y-15167214D01*
X12859928Y-15195786D02*
X12874214Y-15181500D01*
X12902786Y-15167214D01*
X12945643Y-15167214D01*
X12974214Y-15181500D01*
X12988500Y-15210071D01*
X12988500Y-15367214D01*
X12988500Y-15210071D02*
X13002786Y-15181500D01*
X13031357Y-15167214D01*
X13074214Y-15167214D01*
X13102786Y-15181500D01*
X13117071Y-15210071D01*
X13117071Y-15367214D01*
X13702786Y-15052929D02*
X13445643Y-15438643D01*
X14088500Y-15067214D02*
X14117071Y-15067214D01*
X14145643Y-15081500D01*
X14159928Y-15095786D01*
X14174214Y-15124357D01*
X14188500Y-15181500D01*
X14188500Y-15252929D01*
X14174214Y-15310071D01*
X14159928Y-15338643D01*
X14145643Y-15352929D01*
X14117071Y-15367214D01*
X14088500Y-15367214D01*
X14059928Y-15352929D01*
X14045643Y-15338643D01*
X14031357Y-15310071D01*
X14017071Y-15252929D01*
X14017071Y-15181500D01*
X14031357Y-15124357D01*
X14045643Y-15095786D01*
X14059928Y-15081500D01*
X14088500Y-15067214D01*
X14317071Y-15338643D02*
X14331357Y-15352929D01*
X14317071Y-15367214D01*
X14302786Y-15352929D01*
X14317071Y-15338643D01*
X14317071Y-15367214D01*
X14517071Y-15067214D02*
X14545643Y-15067214D01*
X14574214Y-15081500D01*
X14588500Y-15095786D01*
X14602786Y-15124357D01*
X14617071Y-15181500D01*
X14617071Y-15252929D01*
X14602786Y-15310071D01*
X14588500Y-15338643D01*
X14574214Y-15352929D01*
X14545643Y-15367214D01*
X14517071Y-15367214D01*
X14488500Y-15352929D01*
X14474214Y-15338643D01*
X14459928Y-15310071D01*
X14445643Y-15252929D01*
X14445643Y-15181500D01*
X14459928Y-15124357D01*
X14474214Y-15095786D01*
X14488500Y-15081500D01*
X14517071Y-15067214D01*
X14717071Y-15067214D02*
X14902786Y-15067214D01*
X14802786Y-15181500D01*
X14845643Y-15181500D01*
X14874214Y-15195786D01*
X14888500Y-15210071D01*
X14902786Y-15238643D01*
X14902786Y-15310071D01*
X14888500Y-15338643D01*
X14874214Y-15352929D01*
X14845643Y-15367214D01*
X14759928Y-15367214D01*
X14731357Y-15352929D01*
X14717071Y-15338643D01*
X15174214Y-15067214D02*
X15031357Y-15067214D01*
X15017071Y-15210071D01*
X15031357Y-15195786D01*
X15059928Y-15181500D01*
X15131357Y-15181500D01*
X15159928Y-15195786D01*
X15174214Y-15210071D01*
X15188500Y-15238643D01*
X15188500Y-15310071D01*
X15174214Y-15338643D01*
X15159928Y-15352929D01*
X15131357Y-15367214D01*
X15059928Y-15367214D01*
X15031357Y-15352929D01*
X15017071Y-15338643D01*
X15302786Y-15067214D02*
X15302786Y-15124357D01*
X15417071Y-15067214D02*
X15417071Y-15124357D01*
X15859928Y-15481500D02*
X15845643Y-15467214D01*
X15817071Y-15424357D01*
X15802786Y-15395786D01*
X15788500Y-15352929D01*
X15774214Y-15281500D01*
X15774214Y-15224357D01*
X15788500Y-15152929D01*
X15802786Y-15110071D01*
X15817071Y-15081500D01*
X15845643Y-15038643D01*
X15859928Y-15024357D01*
X15959928Y-15095786D02*
X15974214Y-15081500D01*
X16002786Y-15067214D01*
X16074214Y-15067214D01*
X16102786Y-15081500D01*
X16117071Y-15095786D01*
X16131357Y-15124357D01*
X16131357Y-15152929D01*
X16117071Y-15195786D01*
X15945643Y-15367214D01*
X16131357Y-15367214D01*
X16488500Y-15367214D02*
X16488500Y-15067214D01*
X16617071Y-15367214D02*
X16617071Y-15210071D01*
X16602786Y-15181500D01*
X16574214Y-15167214D01*
X16531357Y-15167214D01*
X16502786Y-15181500D01*
X16488500Y-15195786D01*
X16802786Y-15367214D02*
X16774214Y-15352929D01*
X16759928Y-15338643D01*
X16745643Y-15310071D01*
X16745643Y-15224357D01*
X16759928Y-15195786D01*
X16774214Y-15181500D01*
X16802786Y-15167214D01*
X16845643Y-15167214D01*
X16874214Y-15181500D01*
X16888500Y-15195786D01*
X16902786Y-15224357D01*
X16902786Y-15310071D01*
X16888500Y-15338643D01*
X16874214Y-15352929D01*
X16845643Y-15367214D01*
X16802786Y-15367214D01*
X17074214Y-15367214D02*
X17045643Y-15352929D01*
X17031357Y-15324357D01*
X17031357Y-15067214D01*
X17302786Y-15352929D02*
X17274214Y-15367214D01*
X17217071Y-15367214D01*
X17188500Y-15352929D01*
X17174214Y-15324357D01*
X17174214Y-15210071D01*
X17188500Y-15181500D01*
X17217071Y-15167214D01*
X17274214Y-15167214D01*
X17302786Y-15181500D01*
X17317071Y-15210071D01*
X17317071Y-15238643D01*
X17174214Y-15267214D01*
X17431357Y-15352929D02*
X17459928Y-15367214D01*
X17517071Y-15367214D01*
X17545643Y-15352929D01*
X17559928Y-15324357D01*
X17559928Y-15310071D01*
X17545643Y-15281500D01*
X17517071Y-15267214D01*
X17474214Y-15267214D01*
X17445643Y-15252929D01*
X17431357Y-15224357D01*
X17431357Y-15210071D01*
X17445643Y-15181500D01*
X17474214Y-15167214D01*
X17517071Y-15167214D01*
X17545643Y-15181500D01*
X17659928Y-15481500D02*
X17674214Y-15467214D01*
X17702786Y-15424357D01*
X17717071Y-15395786D01*
X17731357Y-15352929D01*
X17745643Y-15281500D01*
X17745643Y-15224357D01*
X17731357Y-15152929D01*
X17717071Y-15110071D01*
X17702786Y-15081500D01*
X17674214Y-15038643D01*
X17659928Y-15024357D01*
X11123500Y-15677500D02*
X11173500Y-15627500D01*
X11123500Y-15577500D01*
X11073500Y-15627500D01*
X11123500Y-15677500D01*
X11617071Y-15763214D02*
X11445643Y-15763214D01*
X11531357Y-15763214D02*
X11531357Y-15463214D01*
X11502786Y-15506071D01*
X11474214Y-15534643D01*
X11445643Y-15548929D01*
X11745643Y-15734643D02*
X11759928Y-15748929D01*
X11745643Y-15763214D01*
X11731357Y-15748929D01*
X11745643Y-15734643D01*
X11745643Y-15763214D01*
X11945643Y-15463214D02*
X11974214Y-15463214D01*
X12002786Y-15477500D01*
X12017071Y-15491786D01*
X12031357Y-15520357D01*
X12045643Y-15577500D01*
X12045643Y-15648929D01*
X12031357Y-15706071D01*
X12017071Y-15734643D01*
X12002786Y-15748929D01*
X11974214Y-15763214D01*
X11945643Y-15763214D01*
X11917071Y-15748929D01*
X11902786Y-15734643D01*
X11888500Y-15706071D01*
X11874214Y-15648929D01*
X11874214Y-15577500D01*
X11888500Y-15520357D01*
X11902786Y-15491786D01*
X11917071Y-15477500D01*
X11945643Y-15463214D01*
X12231357Y-15463214D02*
X12259928Y-15463214D01*
X12288500Y-15477500D01*
X12302786Y-15491786D01*
X12317071Y-15520357D01*
X12331357Y-15577500D01*
X12331357Y-15648929D01*
X12317071Y-15706071D01*
X12302786Y-15734643D01*
X12288500Y-15748929D01*
X12259928Y-15763214D01*
X12231357Y-15763214D01*
X12202786Y-15748929D01*
X12188500Y-15734643D01*
X12174214Y-15706071D01*
X12159928Y-15648929D01*
X12159928Y-15577500D01*
X12174214Y-15520357D01*
X12188500Y-15491786D01*
X12202786Y-15477500D01*
X12231357Y-15463214D01*
X12459928Y-15763214D02*
X12459928Y-15563214D01*
X12459928Y-15591786D02*
X12474214Y-15577500D01*
X12502786Y-15563214D01*
X12545643Y-15563214D01*
X12574214Y-15577500D01*
X12588500Y-15606071D01*
X12588500Y-15763214D01*
X12588500Y-15606071D02*
X12602786Y-15577500D01*
X12631357Y-15563214D01*
X12674214Y-15563214D01*
X12702786Y-15577500D01*
X12717071Y-15606071D01*
X12717071Y-15763214D01*
X12859928Y-15763214D02*
X12859928Y-15563214D01*
X12859928Y-15591786D02*
X12874214Y-15577500D01*
X12902786Y-15563214D01*
X12945643Y-15563214D01*
X12974214Y-15577500D01*
X12988500Y-15606071D01*
X12988500Y-15763214D01*
X12988500Y-15606071D02*
X13002786Y-15577500D01*
X13031357Y-15563214D01*
X13074214Y-15563214D01*
X13102786Y-15577500D01*
X13117071Y-15606071D01*
X13117071Y-15763214D01*
X13702786Y-15448929D02*
X13445643Y-15834643D01*
X14088500Y-15463214D02*
X14117071Y-15463214D01*
X14145643Y-15477500D01*
X14159928Y-15491786D01*
X14174214Y-15520357D01*
X14188500Y-15577500D01*
X14188500Y-15648929D01*
X14174214Y-15706071D01*
X14159928Y-15734643D01*
X14145643Y-15748929D01*
X14117071Y-15763214D01*
X14088500Y-15763214D01*
X14059928Y-15748929D01*
X14045643Y-15734643D01*
X14031357Y-15706071D01*
X14017071Y-15648929D01*
X14017071Y-15577500D01*
X14031357Y-15520357D01*
X14045643Y-15491786D01*
X14059928Y-15477500D01*
X14088500Y-15463214D01*
X14317071Y-15734643D02*
X14331357Y-15748929D01*
X14317071Y-15763214D01*
X14302786Y-15748929D01*
X14317071Y-15734643D01*
X14317071Y-15763214D01*
X14517071Y-15463214D02*
X14545643Y-15463214D01*
X14574214Y-15477500D01*
X14588500Y-15491786D01*
X14602786Y-15520357D01*
X14617071Y-15577500D01*
X14617071Y-15648929D01*
X14602786Y-15706071D01*
X14588500Y-15734643D01*
X14574214Y-15748929D01*
X14545643Y-15763214D01*
X14517071Y-15763214D01*
X14488500Y-15748929D01*
X14474214Y-15734643D01*
X14459928Y-15706071D01*
X14445643Y-15648929D01*
X14445643Y-15577500D01*
X14459928Y-15520357D01*
X14474214Y-15491786D01*
X14488500Y-15477500D01*
X14517071Y-15463214D01*
X14717071Y-15463214D02*
X14902786Y-15463214D01*
X14802786Y-15577500D01*
X14845643Y-15577500D01*
X14874214Y-15591786D01*
X14888500Y-15606071D01*
X14902786Y-15634643D01*
X14902786Y-15706071D01*
X14888500Y-15734643D01*
X14874214Y-15748929D01*
X14845643Y-15763214D01*
X14759928Y-15763214D01*
X14731357Y-15748929D01*
X14717071Y-15734643D01*
X15045643Y-15763214D02*
X15102786Y-15763214D01*
X15131357Y-15748929D01*
X15145643Y-15734643D01*
X15174214Y-15691786D01*
X15188500Y-15634643D01*
X15188500Y-15520357D01*
X15174214Y-15491786D01*
X15159928Y-15477500D01*
X15131357Y-15463214D01*
X15074214Y-15463214D01*
X15045643Y-15477500D01*
X15031357Y-15491786D01*
X15017071Y-15520357D01*
X15017071Y-15591786D01*
X15031357Y-15620357D01*
X15045643Y-15634643D01*
X15074214Y-15648929D01*
X15131357Y-15648929D01*
X15159928Y-15634643D01*
X15174214Y-15620357D01*
X15188500Y-15591786D01*
X15302786Y-15463214D02*
X15302786Y-15520357D01*
X15417071Y-15463214D02*
X15417071Y-15520357D01*
X15859928Y-15877500D02*
X15845643Y-15863214D01*
X15817071Y-15820357D01*
X15802786Y-15791786D01*
X15788500Y-15748929D01*
X15774214Y-15677500D01*
X15774214Y-15620357D01*
X15788500Y-15548929D01*
X15802786Y-15506071D01*
X15817071Y-15477500D01*
X15845643Y-15434643D01*
X15859928Y-15420357D01*
X16131357Y-15763214D02*
X15959928Y-15763214D01*
X16045643Y-15763214D02*
X16045643Y-15463214D01*
X16017071Y-15506071D01*
X15988500Y-15534643D01*
X15959928Y-15548929D01*
X16388500Y-15563214D02*
X16388500Y-15763214D01*
X16317071Y-15448929D02*
X16245643Y-15663214D01*
X16431357Y-15663214D01*
X16531357Y-15491786D02*
X16545643Y-15477500D01*
X16574214Y-15463214D01*
X16645643Y-15463214D01*
X16674214Y-15477500D01*
X16688500Y-15491786D01*
X16702786Y-15520357D01*
X16702786Y-15548929D01*
X16688500Y-15591786D01*
X16517071Y-15763214D01*
X16702786Y-15763214D01*
X17059928Y-15763214D02*
X17059928Y-15463214D01*
X17188500Y-15763214D02*
X17188500Y-15606071D01*
X17174214Y-15577500D01*
X17145643Y-15563214D01*
X17102786Y-15563214D01*
X17074214Y-15577500D01*
X17059928Y-15591786D01*
X17374214Y-15763214D02*
X17345643Y-15748929D01*
X17331357Y-15734643D01*
X17317071Y-15706071D01*
X17317071Y-15620357D01*
X17331357Y-15591786D01*
X17345643Y-15577500D01*
X17374214Y-15563214D01*
X17417071Y-15563214D01*
X17445643Y-15577500D01*
X17459928Y-15591786D01*
X17474214Y-15620357D01*
X17474214Y-15706071D01*
X17459928Y-15734643D01*
X17445643Y-15748929D01*
X17417071Y-15763214D01*
X17374214Y-15763214D01*
X17645643Y-15763214D02*
X17617071Y-15748929D01*
X17602786Y-15720357D01*
X17602786Y-15463214D01*
X17874214Y-15748929D02*
X17845643Y-15763214D01*
X17788500Y-15763214D01*
X17759928Y-15748929D01*
X17745643Y-15720357D01*
X17745643Y-15606071D01*
X17759928Y-15577500D01*
X17788500Y-15563214D01*
X17845643Y-15563214D01*
X17874214Y-15577500D01*
X17888500Y-15606071D01*
X17888500Y-15634643D01*
X17745643Y-15663214D01*
X18002786Y-15748929D02*
X18031357Y-15763214D01*
X18088500Y-15763214D01*
X18117071Y-15748929D01*
X18131357Y-15720357D01*
X18131357Y-15706071D01*
X18117071Y-15677500D01*
X18088500Y-15663214D01*
X18045643Y-15663214D01*
X18017071Y-15648929D01*
X18002786Y-15620357D01*
X18002786Y-15606071D01*
X18017071Y-15577500D01*
X18045643Y-15563214D01*
X18088500Y-15563214D01*
X18117071Y-15577500D01*
X18231357Y-15877500D02*
X18245643Y-15863214D01*
X18274214Y-15820357D01*
X18288500Y-15791786D01*
X18302786Y-15748929D01*
X18317071Y-15677500D01*
X18317071Y-15620357D01*
X18302786Y-15548929D01*
X18288500Y-15506071D01*
X18274214Y-15477500D01*
X18245643Y-15434643D01*
X18231357Y-15420357D01*
X11072500Y-15973000D02*
X11173500Y-16074000D01*
X11173500Y-15973000D02*
X11072500Y-16074000D01*
X11173500Y-16023500D02*
G75*
G03X11173500Y-16023500I-50500J0D01*
G01*
X11617071Y-16159214D02*
X11445643Y-16159214D01*
X11531357Y-16159214D02*
X11531357Y-15859214D01*
X11502786Y-15902071D01*
X11474214Y-15930643D01*
X11445643Y-15944929D01*
X11745643Y-16130643D02*
X11759928Y-16144929D01*
X11745643Y-16159214D01*
X11731357Y-16144929D01*
X11745643Y-16130643D01*
X11745643Y-16159214D01*
X11945643Y-15859214D02*
X11974214Y-15859214D01*
X12002786Y-15873500D01*
X12017071Y-15887786D01*
X12031357Y-15916357D01*
X12045643Y-15973500D01*
X12045643Y-16044929D01*
X12031357Y-16102071D01*
X12017071Y-16130643D01*
X12002786Y-16144929D01*
X11974214Y-16159214D01*
X11945643Y-16159214D01*
X11917071Y-16144929D01*
X11902786Y-16130643D01*
X11888500Y-16102071D01*
X11874214Y-16044929D01*
X11874214Y-15973500D01*
X11888500Y-15916357D01*
X11902786Y-15887786D01*
X11917071Y-15873500D01*
X11945643Y-15859214D01*
X12331357Y-16159214D02*
X12159928Y-16159214D01*
X12245643Y-16159214D02*
X12245643Y-15859214D01*
X12217071Y-15902071D01*
X12188500Y-15930643D01*
X12159928Y-15944929D01*
X12459928Y-16159214D02*
X12459928Y-15959214D01*
X12459928Y-15987786D02*
X12474214Y-15973500D01*
X12502786Y-15959214D01*
X12545643Y-15959214D01*
X12574214Y-15973500D01*
X12588500Y-16002071D01*
X12588500Y-16159214D01*
X12588500Y-16002071D02*
X12602786Y-15973500D01*
X12631357Y-15959214D01*
X12674214Y-15959214D01*
X12702786Y-15973500D01*
X12717071Y-16002071D01*
X12717071Y-16159214D01*
X12859928Y-16159214D02*
X12859928Y-15959214D01*
X12859928Y-15987786D02*
X12874214Y-15973500D01*
X12902786Y-15959214D01*
X12945643Y-15959214D01*
X12974214Y-15973500D01*
X12988500Y-16002071D01*
X12988500Y-16159214D01*
X12988500Y-16002071D02*
X13002786Y-15973500D01*
X13031357Y-15959214D01*
X13074214Y-15959214D01*
X13102786Y-15973500D01*
X13117071Y-16002071D01*
X13117071Y-16159214D01*
X13702786Y-15844929D02*
X13445643Y-16230643D01*
X14088500Y-15859214D02*
X14117071Y-15859214D01*
X14145643Y-15873500D01*
X14159928Y-15887786D01*
X14174214Y-15916357D01*
X14188500Y-15973500D01*
X14188500Y-16044929D01*
X14174214Y-16102071D01*
X14159928Y-16130643D01*
X14145643Y-16144929D01*
X14117071Y-16159214D01*
X14088500Y-16159214D01*
X14059928Y-16144929D01*
X14045643Y-16130643D01*
X14031357Y-16102071D01*
X14017071Y-16044929D01*
X14017071Y-15973500D01*
X14031357Y-15916357D01*
X14045643Y-15887786D01*
X14059928Y-15873500D01*
X14088500Y-15859214D01*
X14317071Y-16130643D02*
X14331357Y-16144929D01*
X14317071Y-16159214D01*
X14302786Y-16144929D01*
X14317071Y-16130643D01*
X14317071Y-16159214D01*
X14517071Y-15859214D02*
X14545643Y-15859214D01*
X14574214Y-15873500D01*
X14588500Y-15887786D01*
X14602786Y-15916357D01*
X14617071Y-15973500D01*
X14617071Y-16044929D01*
X14602786Y-16102071D01*
X14588500Y-16130643D01*
X14574214Y-16144929D01*
X14545643Y-16159214D01*
X14517071Y-16159214D01*
X14488500Y-16144929D01*
X14474214Y-16130643D01*
X14459928Y-16102071D01*
X14445643Y-16044929D01*
X14445643Y-15973500D01*
X14459928Y-15916357D01*
X14474214Y-15887786D01*
X14488500Y-15873500D01*
X14517071Y-15859214D01*
X14874214Y-15959214D02*
X14874214Y-16159214D01*
X14802786Y-15844929D02*
X14731357Y-16059214D01*
X14917071Y-16059214D01*
X15088500Y-15859214D02*
X15117071Y-15859214D01*
X15145643Y-15873500D01*
X15159928Y-15887786D01*
X15174214Y-15916357D01*
X15188500Y-15973500D01*
X15188500Y-16044929D01*
X15174214Y-16102071D01*
X15159928Y-16130643D01*
X15145643Y-16144929D01*
X15117071Y-16159214D01*
X15088500Y-16159214D01*
X15059928Y-16144929D01*
X15045643Y-16130643D01*
X15031357Y-16102071D01*
X15017071Y-16044929D01*
X15017071Y-15973500D01*
X15031357Y-15916357D01*
X15045643Y-15887786D01*
X15059928Y-15873500D01*
X15088500Y-15859214D01*
X15302786Y-15859214D02*
X15302786Y-15916357D01*
X15417071Y-15859214D02*
X15417071Y-15916357D01*
X15859928Y-16273500D02*
X15845643Y-16259214D01*
X15817071Y-16216357D01*
X15802786Y-16187786D01*
X15788500Y-16144929D01*
X15774214Y-16073500D01*
X15774214Y-16016357D01*
X15788500Y-15944929D01*
X15802786Y-15902071D01*
X15817071Y-15873500D01*
X15845643Y-15830643D01*
X15859928Y-15816357D01*
X15959928Y-15887786D02*
X15974214Y-15873500D01*
X16002786Y-15859214D01*
X16074214Y-15859214D01*
X16102786Y-15873500D01*
X16117071Y-15887786D01*
X16131357Y-15916357D01*
X16131357Y-15944929D01*
X16117071Y-15987786D01*
X15945643Y-16159214D01*
X16131357Y-16159214D01*
X16488500Y-16159214D02*
X16488500Y-15859214D01*
X16617071Y-16159214D02*
X16617071Y-16002071D01*
X16602786Y-15973500D01*
X16574214Y-15959214D01*
X16531357Y-15959214D01*
X16502786Y-15973500D01*
X16488500Y-15987786D01*
X16802786Y-16159214D02*
X16774214Y-16144929D01*
X16759928Y-16130643D01*
X16745643Y-16102071D01*
X16745643Y-16016357D01*
X16759928Y-15987786D01*
X16774214Y-15973500D01*
X16802786Y-15959214D01*
X16845643Y-15959214D01*
X16874214Y-15973500D01*
X16888500Y-15987786D01*
X16902786Y-16016357D01*
X16902786Y-16102071D01*
X16888500Y-16130643D01*
X16874214Y-16144929D01*
X16845643Y-16159214D01*
X16802786Y-16159214D01*
X17074214Y-16159214D02*
X17045643Y-16144929D01*
X17031357Y-16116357D01*
X17031357Y-15859214D01*
X17302786Y-16144929D02*
X17274214Y-16159214D01*
X17217071Y-16159214D01*
X17188500Y-16144929D01*
X17174214Y-16116357D01*
X17174214Y-16002071D01*
X17188500Y-15973500D01*
X17217071Y-15959214D01*
X17274214Y-15959214D01*
X17302786Y-15973500D01*
X17317071Y-16002071D01*
X17317071Y-16030643D01*
X17174214Y-16059214D01*
X17431357Y-16144929D02*
X17459928Y-16159214D01*
X17517071Y-16159214D01*
X17545643Y-16144929D01*
X17559928Y-16116357D01*
X17559928Y-16102071D01*
X17545643Y-16073500D01*
X17517071Y-16059214D01*
X17474214Y-16059214D01*
X17445643Y-16044929D01*
X17431357Y-16016357D01*
X17431357Y-16002071D01*
X17445643Y-15973500D01*
X17474214Y-15959214D01*
X17517071Y-15959214D01*
X17545643Y-15973500D01*
X17659928Y-16273500D02*
X17674214Y-16259214D01*
X17702786Y-16216357D01*
X17717071Y-16187786D01*
X17731357Y-16144929D01*
X17745643Y-16073500D01*
X17745643Y-16016357D01*
X17731357Y-15944929D01*
X17717071Y-15902071D01*
X17702786Y-15873500D01*
X17674214Y-15830643D01*
X17659928Y-15816357D01*
X11043500Y-16354500D02*
X11173500Y-16484500D01*
X11173500Y-16354500D02*
X11043500Y-16484500D01*
X11108500Y-16354500D02*
X11108500Y-16484500D01*
X11043500Y-16419500D02*
X11173500Y-16419500D01*
X11617071Y-16555214D02*
X11445643Y-16555214D01*
X11531357Y-16555214D02*
X11531357Y-16255214D01*
X11502786Y-16298071D01*
X11474214Y-16326643D01*
X11445643Y-16340929D01*
X11745643Y-16526643D02*
X11759928Y-16540929D01*
X11745643Y-16555214D01*
X11731357Y-16540929D01*
X11745643Y-16526643D01*
X11745643Y-16555214D01*
X11859928Y-16255214D02*
X12045643Y-16255214D01*
X11945643Y-16369500D01*
X11988500Y-16369500D01*
X12017071Y-16383786D01*
X12031357Y-16398071D01*
X12045643Y-16426643D01*
X12045643Y-16498071D01*
X12031357Y-16526643D01*
X12017071Y-16540929D01*
X11988500Y-16555214D01*
X11902786Y-16555214D01*
X11874214Y-16540929D01*
X11859928Y-16526643D01*
X12231357Y-16255214D02*
X12259928Y-16255214D01*
X12288500Y-16269500D01*
X12302786Y-16283786D01*
X12317071Y-16312357D01*
X12331357Y-16369500D01*
X12331357Y-16440929D01*
X12317071Y-16498071D01*
X12302786Y-16526643D01*
X12288500Y-16540929D01*
X12259928Y-16555214D01*
X12231357Y-16555214D01*
X12202786Y-16540929D01*
X12188500Y-16526643D01*
X12174214Y-16498071D01*
X12159928Y-16440929D01*
X12159928Y-16369500D01*
X12174214Y-16312357D01*
X12188500Y-16283786D01*
X12202786Y-16269500D01*
X12231357Y-16255214D01*
X12459928Y-16555214D02*
X12459928Y-16355214D01*
X12459928Y-16383786D02*
X12474214Y-16369500D01*
X12502786Y-16355214D01*
X12545643Y-16355214D01*
X12574214Y-16369500D01*
X12588500Y-16398071D01*
X12588500Y-16555214D01*
X12588500Y-16398071D02*
X12602786Y-16369500D01*
X12631357Y-16355214D01*
X12674214Y-16355214D01*
X12702786Y-16369500D01*
X12717071Y-16398071D01*
X12717071Y-16555214D01*
X12859928Y-16555214D02*
X12859928Y-16355214D01*
X12859928Y-16383786D02*
X12874214Y-16369500D01*
X12902786Y-16355214D01*
X12945643Y-16355214D01*
X12974214Y-16369500D01*
X12988500Y-16398071D01*
X12988500Y-16555214D01*
X12988500Y-16398071D02*
X13002786Y-16369500D01*
X13031357Y-16355214D01*
X13074214Y-16355214D01*
X13102786Y-16369500D01*
X13117071Y-16398071D01*
X13117071Y-16555214D01*
X13702786Y-16240929D02*
X13445643Y-16626643D01*
X14088500Y-16255214D02*
X14117071Y-16255214D01*
X14145643Y-16269500D01*
X14159928Y-16283786D01*
X14174214Y-16312357D01*
X14188500Y-16369500D01*
X14188500Y-16440929D01*
X14174214Y-16498071D01*
X14159928Y-16526643D01*
X14145643Y-16540929D01*
X14117071Y-16555214D01*
X14088500Y-16555214D01*
X14059928Y-16540929D01*
X14045643Y-16526643D01*
X14031357Y-16498071D01*
X14017071Y-16440929D01*
X14017071Y-16369500D01*
X14031357Y-16312357D01*
X14045643Y-16283786D01*
X14059928Y-16269500D01*
X14088500Y-16255214D01*
X14317071Y-16526643D02*
X14331357Y-16540929D01*
X14317071Y-16555214D01*
X14302786Y-16540929D01*
X14317071Y-16526643D01*
X14317071Y-16555214D01*
X14517071Y-16255214D02*
X14545643Y-16255214D01*
X14574214Y-16269500D01*
X14588500Y-16283786D01*
X14602786Y-16312357D01*
X14617071Y-16369500D01*
X14617071Y-16440929D01*
X14602786Y-16498071D01*
X14588500Y-16526643D01*
X14574214Y-16540929D01*
X14545643Y-16555214D01*
X14517071Y-16555214D01*
X14488500Y-16540929D01*
X14474214Y-16526643D01*
X14459928Y-16498071D01*
X14445643Y-16440929D01*
X14445643Y-16369500D01*
X14459928Y-16312357D01*
X14474214Y-16283786D01*
X14488500Y-16269500D01*
X14517071Y-16255214D01*
X14888500Y-16255214D02*
X14745643Y-16255214D01*
X14731357Y-16398071D01*
X14745643Y-16383786D01*
X14774214Y-16369500D01*
X14845643Y-16369500D01*
X14874214Y-16383786D01*
X14888500Y-16398071D01*
X14902786Y-16426643D01*
X14902786Y-16498071D01*
X14888500Y-16526643D01*
X14874214Y-16540929D01*
X14845643Y-16555214D01*
X14774214Y-16555214D01*
X14745643Y-16540929D01*
X14731357Y-16526643D01*
X15188500Y-16555214D02*
X15017071Y-16555214D01*
X15102786Y-16555214D02*
X15102786Y-16255214D01*
X15074214Y-16298071D01*
X15045643Y-16326643D01*
X15017071Y-16340929D01*
X15302786Y-16255214D02*
X15302786Y-16312357D01*
X15417071Y-16255214D02*
X15417071Y-16312357D01*
X15859928Y-16669500D02*
X15845643Y-16655214D01*
X15817071Y-16612357D01*
X15802786Y-16583786D01*
X15788500Y-16540929D01*
X15774214Y-16469500D01*
X15774214Y-16412357D01*
X15788500Y-16340929D01*
X15802786Y-16298071D01*
X15817071Y-16269500D01*
X15845643Y-16226643D01*
X15859928Y-16212357D01*
X15959928Y-16283786D02*
X15974214Y-16269500D01*
X16002786Y-16255214D01*
X16074214Y-16255214D01*
X16102786Y-16269500D01*
X16117071Y-16283786D01*
X16131357Y-16312357D01*
X16131357Y-16340929D01*
X16117071Y-16383786D01*
X15945643Y-16555214D01*
X16131357Y-16555214D01*
X16488500Y-16555214D02*
X16488500Y-16255214D01*
X16617071Y-16555214D02*
X16617071Y-16398071D01*
X16602786Y-16369500D01*
X16574214Y-16355214D01*
X16531357Y-16355214D01*
X16502786Y-16369500D01*
X16488500Y-16383786D01*
X16802786Y-16555214D02*
X16774214Y-16540929D01*
X16759928Y-16526643D01*
X16745643Y-16498071D01*
X16745643Y-16412357D01*
X16759928Y-16383786D01*
X16774214Y-16369500D01*
X16802786Y-16355214D01*
X16845643Y-16355214D01*
X16874214Y-16369500D01*
X16888500Y-16383786D01*
X16902786Y-16412357D01*
X16902786Y-16498071D01*
X16888500Y-16526643D01*
X16874214Y-16540929D01*
X16845643Y-16555214D01*
X16802786Y-16555214D01*
X17074214Y-16555214D02*
X17045643Y-16540929D01*
X17031357Y-16512357D01*
X17031357Y-16255214D01*
X17302786Y-16540929D02*
X17274214Y-16555214D01*
X17217071Y-16555214D01*
X17188500Y-16540929D01*
X17174214Y-16512357D01*
X17174214Y-16398071D01*
X17188500Y-16369500D01*
X17217071Y-16355214D01*
X17274214Y-16355214D01*
X17302786Y-16369500D01*
X17317071Y-16398071D01*
X17317071Y-16426643D01*
X17174214Y-16455214D01*
X17431357Y-16540929D02*
X17459928Y-16555214D01*
X17517071Y-16555214D01*
X17545643Y-16540929D01*
X17559928Y-16512357D01*
X17559928Y-16498071D01*
X17545643Y-16469500D01*
X17517071Y-16455214D01*
X17474214Y-16455214D01*
X17445643Y-16440929D01*
X17431357Y-16412357D01*
X17431357Y-16398071D01*
X17445643Y-16369500D01*
X17474214Y-16355214D01*
X17517071Y-16355214D01*
X17545643Y-16369500D01*
X17659928Y-16669500D02*
X17674214Y-16655214D01*
X17702786Y-16612357D01*
X17717071Y-16583786D01*
X17731357Y-16540929D01*
X17745643Y-16469500D01*
X17745643Y-16412357D01*
X17731357Y-16340929D01*
X17717071Y-16298071D01*
X17702786Y-16269500D01*
X17674214Y-16226643D01*
X17659928Y-16212357D01*
X10853500Y-16655500D02*
X11173500Y-16975500D01*
X11173500Y-16655500D02*
X10853500Y-16975500D01*
X11126638Y-16928638D02*
X11126638Y-16702362D01*
X10900362Y-16702362D01*
X10900362Y-16928638D01*
X11126638Y-16928638D01*
X11431357Y-16651214D02*
X11617071Y-16651214D01*
X11517071Y-16765500D01*
X11559928Y-16765500D01*
X11588500Y-16779786D01*
X11602786Y-16794072D01*
X11617071Y-16822643D01*
X11617071Y-16894072D01*
X11602786Y-16922643D01*
X11588500Y-16936929D01*
X11559928Y-16951214D01*
X11474214Y-16951214D01*
X11445643Y-16936929D01*
X11431357Y-16922643D01*
X11745643Y-16922643D02*
X11759928Y-16936929D01*
X11745643Y-16951214D01*
X11731357Y-16936929D01*
X11745643Y-16922643D01*
X11745643Y-16951214D01*
X11874214Y-16679786D02*
X11888500Y-16665500D01*
X11917071Y-16651214D01*
X11988500Y-16651214D01*
X12017071Y-16665500D01*
X12031357Y-16679786D01*
X12045643Y-16708357D01*
X12045643Y-16736929D01*
X12031357Y-16779786D01*
X11859928Y-16951214D01*
X12045643Y-16951214D01*
X12231357Y-16651214D02*
X12259928Y-16651214D01*
X12288500Y-16665500D01*
X12302786Y-16679786D01*
X12317071Y-16708357D01*
X12331357Y-16765500D01*
X12331357Y-16836929D01*
X12317071Y-16894072D01*
X12302786Y-16922643D01*
X12288500Y-16936929D01*
X12259928Y-16951214D01*
X12231357Y-16951214D01*
X12202786Y-16936929D01*
X12188500Y-16922643D01*
X12174214Y-16894072D01*
X12159928Y-16836929D01*
X12159928Y-16765500D01*
X12174214Y-16708357D01*
X12188500Y-16679786D01*
X12202786Y-16665500D01*
X12231357Y-16651214D01*
X12459928Y-16951214D02*
X12459928Y-16751214D01*
X12459928Y-16779786D02*
X12474214Y-16765500D01*
X12502786Y-16751214D01*
X12545643Y-16751214D01*
X12574214Y-16765500D01*
X12588500Y-16794072D01*
X12588500Y-16951214D01*
X12588500Y-16794072D02*
X12602786Y-16765500D01*
X12631357Y-16751214D01*
X12674214Y-16751214D01*
X12702786Y-16765500D01*
X12717071Y-16794072D01*
X12717071Y-16951214D01*
X12859928Y-16951214D02*
X12859928Y-16751214D01*
X12859928Y-16779786D02*
X12874214Y-16765500D01*
X12902786Y-16751214D01*
X12945643Y-16751214D01*
X12974214Y-16765500D01*
X12988500Y-16794072D01*
X12988500Y-16951214D01*
X12988500Y-16794072D02*
X13002786Y-16765500D01*
X13031357Y-16751214D01*
X13074214Y-16751214D01*
X13102786Y-16765500D01*
X13117071Y-16794072D01*
X13117071Y-16951214D01*
X13702786Y-16636929D02*
X13445643Y-17022643D01*
X14088500Y-16651214D02*
X14117071Y-16651214D01*
X14145643Y-16665500D01*
X14159928Y-16679786D01*
X14174214Y-16708357D01*
X14188500Y-16765500D01*
X14188500Y-16836929D01*
X14174214Y-16894072D01*
X14159928Y-16922643D01*
X14145643Y-16936929D01*
X14117071Y-16951214D01*
X14088500Y-16951214D01*
X14059928Y-16936929D01*
X14045643Y-16922643D01*
X14031357Y-16894072D01*
X14017071Y-16836929D01*
X14017071Y-16765500D01*
X14031357Y-16708357D01*
X14045643Y-16679786D01*
X14059928Y-16665500D01*
X14088500Y-16651214D01*
X14317071Y-16922643D02*
X14331357Y-16936929D01*
X14317071Y-16951214D01*
X14302786Y-16936929D01*
X14317071Y-16922643D01*
X14317071Y-16951214D01*
X14617071Y-16951214D02*
X14445643Y-16951214D01*
X14531357Y-16951214D02*
X14531357Y-16651214D01*
X14502786Y-16694071D01*
X14474214Y-16722643D01*
X14445643Y-16736929D01*
X14731357Y-16679786D02*
X14745643Y-16665500D01*
X14774214Y-16651214D01*
X14845643Y-16651214D01*
X14874214Y-16665500D01*
X14888500Y-16679786D01*
X14902786Y-16708357D01*
X14902786Y-16736929D01*
X14888500Y-16779786D01*
X14717071Y-16951214D01*
X14902786Y-16951214D01*
X15159928Y-16651214D02*
X15102786Y-16651214D01*
X15074214Y-16665500D01*
X15059928Y-16679786D01*
X15031357Y-16722643D01*
X15017071Y-16779786D01*
X15017071Y-16894072D01*
X15031357Y-16922643D01*
X15045643Y-16936929D01*
X15074214Y-16951214D01*
X15131357Y-16951214D01*
X15159928Y-16936929D01*
X15174214Y-16922643D01*
X15188500Y-16894072D01*
X15188500Y-16822643D01*
X15174214Y-16794072D01*
X15159928Y-16779786D01*
X15131357Y-16765500D01*
X15074214Y-16765500D01*
X15045643Y-16779786D01*
X15031357Y-16794072D01*
X15017071Y-16822643D01*
X15302786Y-16651214D02*
X15302786Y-16708357D01*
X15417071Y-16651214D02*
X15417071Y-16708357D01*
X15859928Y-17065500D02*
X15845643Y-17051214D01*
X15817071Y-17008357D01*
X15802786Y-16979786D01*
X15788500Y-16936929D01*
X15774214Y-16865500D01*
X15774214Y-16808357D01*
X15788500Y-16736929D01*
X15802786Y-16694071D01*
X15817071Y-16665500D01*
X15845643Y-16622643D01*
X15859928Y-16608357D01*
X16017071Y-16779786D02*
X15988500Y-16765500D01*
X15974214Y-16751214D01*
X15959928Y-16722643D01*
X15959928Y-16708357D01*
X15974214Y-16679786D01*
X15988500Y-16665500D01*
X16017071Y-16651214D01*
X16074214Y-16651214D01*
X16102786Y-16665500D01*
X16117071Y-16679786D01*
X16131357Y-16708357D01*
X16131357Y-16722643D01*
X16117071Y-16751214D01*
X16102786Y-16765500D01*
X16074214Y-16779786D01*
X16017071Y-16779786D01*
X15988500Y-16794072D01*
X15974214Y-16808357D01*
X15959928Y-16836929D01*
X15959928Y-16894072D01*
X15974214Y-16922643D01*
X15988500Y-16936929D01*
X16017071Y-16951214D01*
X16074214Y-16951214D01*
X16102786Y-16936929D01*
X16117071Y-16922643D01*
X16131357Y-16894072D01*
X16131357Y-16836929D01*
X16117071Y-16808357D01*
X16102786Y-16794072D01*
X16074214Y-16779786D01*
X16488500Y-16951214D02*
X16488500Y-16651214D01*
X16617071Y-16951214D02*
X16617071Y-16794072D01*
X16602786Y-16765500D01*
X16574214Y-16751214D01*
X16531357Y-16751214D01*
X16502786Y-16765500D01*
X16488500Y-16779786D01*
X16802786Y-16951214D02*
X16774214Y-16936929D01*
X16759928Y-16922643D01*
X16745643Y-16894072D01*
X16745643Y-16808357D01*
X16759928Y-16779786D01*
X16774214Y-16765500D01*
X16802786Y-16751214D01*
X16845643Y-16751214D01*
X16874214Y-16765500D01*
X16888500Y-16779786D01*
X16902786Y-16808357D01*
X16902786Y-16894072D01*
X16888500Y-16922643D01*
X16874214Y-16936929D01*
X16845643Y-16951214D01*
X16802786Y-16951214D01*
X17074214Y-16951214D02*
X17045643Y-16936929D01*
X17031357Y-16908357D01*
X17031357Y-16651214D01*
X17302786Y-16936929D02*
X17274214Y-16951214D01*
X17217071Y-16951214D01*
X17188500Y-16936929D01*
X17174214Y-16908357D01*
X17174214Y-16794072D01*
X17188500Y-16765500D01*
X17217071Y-16751214D01*
X17274214Y-16751214D01*
X17302786Y-16765500D01*
X17317071Y-16794072D01*
X17317071Y-16822643D01*
X17174214Y-16851214D01*
X17431357Y-16936929D02*
X17459928Y-16951214D01*
X17517071Y-16951214D01*
X17545643Y-16936929D01*
X17559928Y-16908357D01*
X17559928Y-16894072D01*
X17545643Y-16865500D01*
X17517071Y-16851214D01*
X17474214Y-16851214D01*
X17445643Y-16836929D01*
X17431357Y-16808357D01*
X17431357Y-16794072D01*
X17445643Y-16765500D01*
X17474214Y-16751214D01*
X17517071Y-16751214D01*
X17545643Y-16765500D01*
X17659928Y-17065500D02*
X17674214Y-17051214D01*
X17702786Y-17008357D01*
X17717071Y-16979786D01*
X17731357Y-16936929D01*
X17745643Y-16865500D01*
X17745643Y-16808357D01*
X17731357Y-16736929D01*
X17717071Y-16694071D01*
X17702786Y-16665500D01*
X17674214Y-16622643D01*
X17659928Y-16608357D01*
M02*
