G04 #@! TF.GenerationSoftware,KiCad,Pcbnew,(5.1.5)-3*
G04 #@! TF.CreationDate,2020-05-24T17:55:25+02:00*
G04 #@! TF.ProjectId,MultiSwitch_Sw16_ProMicro,4d756c74-6953-4776-9974-63685f537731,V1.0*
G04 #@! TF.SameCoordinates,Original*
G04 #@! TF.FileFunction,Other,Fab,Bot*
%FSLAX46Y46*%
G04 Gerber Fmt 4.6, Leading zero omitted, Abs format (unit mm)*
G04 Created by KiCad (PCBNEW (5.1.5)-3) date 2020-05-24 17:55:25*
%MOMM*%
%LPD*%
G04 APERTURE LIST*
%ADD10C,0.100000*%
%ADD11C,0.150000*%
%ADD12C,0.120000*%
G04 APERTURE END LIST*
D10*
X126200000Y-84723500D02*
X126200000Y-87923500D01*
X127800000Y-84723500D02*
X126200000Y-84723500D01*
X127800000Y-87923500D02*
X127800000Y-84723500D01*
X126200000Y-87923500D02*
X127800000Y-87923500D01*
X128740000Y-87923500D02*
X130340000Y-87923500D01*
X130340000Y-87923500D02*
X130340000Y-84723500D01*
X130340000Y-84723500D02*
X128740000Y-84723500D01*
X128740000Y-84723500D02*
X128740000Y-87923500D01*
X131280000Y-84723500D02*
X131280000Y-87923500D01*
X132880000Y-84723500D02*
X131280000Y-84723500D01*
X132880000Y-87923500D02*
X132880000Y-84723500D01*
X131280000Y-87923500D02*
X132880000Y-87923500D01*
X133820000Y-87923500D02*
X135420000Y-87923500D01*
X135420000Y-87923500D02*
X135420000Y-84723500D01*
X135420000Y-84723500D02*
X133820000Y-84723500D01*
X133820000Y-84723500D02*
X133820000Y-87923500D01*
X136360000Y-84723500D02*
X136360000Y-87923500D01*
X137960000Y-84723500D02*
X136360000Y-84723500D01*
X137960000Y-87923500D02*
X137960000Y-84723500D01*
X136360000Y-87923500D02*
X137960000Y-87923500D01*
X138900000Y-87923500D02*
X140500000Y-87923500D01*
X140500000Y-87923500D02*
X140500000Y-84723500D01*
X140500000Y-84723500D02*
X138900000Y-84723500D01*
X138900000Y-84723500D02*
X138900000Y-87923500D01*
X141440000Y-84760000D02*
X141440000Y-87960000D01*
X143040000Y-84760000D02*
X141440000Y-84760000D01*
X143040000Y-87960000D02*
X143040000Y-84760000D01*
X141440000Y-87960000D02*
X143040000Y-87960000D01*
X143980000Y-87960000D02*
X145580000Y-87960000D01*
X145580000Y-87960000D02*
X145580000Y-84760000D01*
X145580000Y-84760000D02*
X143980000Y-84760000D01*
X143980000Y-84760000D02*
X143980000Y-87960000D01*
X145580000Y-112736500D02*
X143980000Y-112736500D01*
X143980000Y-112736500D02*
X143980000Y-115936500D01*
X143980000Y-115936500D02*
X145580000Y-115936500D01*
X145580000Y-115936500D02*
X145580000Y-112736500D01*
X143040000Y-115936500D02*
X143040000Y-112736500D01*
X141440000Y-115936500D02*
X143040000Y-115936500D01*
X141440000Y-112736500D02*
X141440000Y-115936500D01*
X143040000Y-112736500D02*
X141440000Y-112736500D01*
X140500000Y-112700000D02*
X138900000Y-112700000D01*
X138900000Y-112700000D02*
X138900000Y-115900000D01*
X138900000Y-115900000D02*
X140500000Y-115900000D01*
X140500000Y-115900000D02*
X140500000Y-112700000D01*
X137960000Y-115863500D02*
X137960000Y-112663500D01*
X136360000Y-115863500D02*
X137960000Y-115863500D01*
X136360000Y-112663500D02*
X136360000Y-115863500D01*
X137960000Y-112663500D02*
X136360000Y-112663500D01*
X135420000Y-112700000D02*
X133820000Y-112700000D01*
X133820000Y-112700000D02*
X133820000Y-115900000D01*
X133820000Y-115900000D02*
X135420000Y-115900000D01*
X135420000Y-115900000D02*
X135420000Y-112700000D01*
X132880000Y-115900000D02*
X132880000Y-112700000D01*
X131280000Y-115900000D02*
X132880000Y-115900000D01*
X131280000Y-112700000D02*
X131280000Y-115900000D01*
X132880000Y-112700000D02*
X131280000Y-112700000D01*
X130340000Y-112736500D02*
X128740000Y-112736500D01*
X128740000Y-112736500D02*
X128740000Y-115936500D01*
X128740000Y-115936500D02*
X130340000Y-115936500D01*
X130340000Y-115936500D02*
X130340000Y-112736500D01*
X127800000Y-115900000D02*
X127800000Y-112700000D01*
X126200000Y-115900000D02*
X127800000Y-115900000D01*
X126200000Y-112700000D02*
X126200000Y-115900000D01*
X127800000Y-112700000D02*
X126200000Y-112700000D01*
D11*
X127452380Y-82494523D02*
X127452380Y-81923095D01*
X127452380Y-82208809D02*
X126452380Y-82208809D01*
X126595238Y-82113571D01*
X126690476Y-82018333D01*
X126738095Y-81923095D01*
X126452380Y-83113571D02*
X126452380Y-83208809D01*
X126500000Y-83304047D01*
X126547619Y-83351666D01*
X126642857Y-83399285D01*
X126833333Y-83446904D01*
X127071428Y-83446904D01*
X127261904Y-83399285D01*
X127357142Y-83351666D01*
X127404761Y-83304047D01*
X127452380Y-83208809D01*
X127452380Y-83113571D01*
X127404761Y-83018333D01*
X127357142Y-82970714D01*
X127261904Y-82923095D01*
X127071428Y-82875476D01*
X126833333Y-82875476D01*
X126642857Y-82923095D01*
X126547619Y-82970714D01*
X126500000Y-83018333D01*
X126452380Y-83113571D01*
X127452380Y-83875476D02*
X126452380Y-83875476D01*
X127452380Y-84446904D02*
X126880952Y-84018333D01*
X126452380Y-84446904D02*
X127023809Y-83875476D01*
D12*
X127361904Y-86190166D02*
X126980952Y-85923500D01*
X127361904Y-85733023D02*
X126561904Y-85733023D01*
X126561904Y-86037785D01*
X126600000Y-86113976D01*
X126638095Y-86152071D01*
X126714285Y-86190166D01*
X126828571Y-86190166D01*
X126904761Y-86152071D01*
X126942857Y-86113976D01*
X126980952Y-86037785D01*
X126980952Y-85733023D01*
X126561904Y-86913976D02*
X126561904Y-86533023D01*
X126942857Y-86494928D01*
X126904761Y-86533023D01*
X126866666Y-86609214D01*
X126866666Y-86799690D01*
X126904761Y-86875880D01*
X126942857Y-86913976D01*
X127019047Y-86952071D01*
X127209523Y-86952071D01*
X127285714Y-86913976D01*
X127323809Y-86875880D01*
X127361904Y-86799690D01*
X127361904Y-86609214D01*
X127323809Y-86533023D01*
X127285714Y-86494928D01*
D11*
X129992380Y-82494523D02*
X129992380Y-81923095D01*
X129992380Y-82208809D02*
X128992380Y-82208809D01*
X129135238Y-82113571D01*
X129230476Y-82018333D01*
X129278095Y-81923095D01*
X128992380Y-83113571D02*
X128992380Y-83208809D01*
X129040000Y-83304047D01*
X129087619Y-83351666D01*
X129182857Y-83399285D01*
X129373333Y-83446904D01*
X129611428Y-83446904D01*
X129801904Y-83399285D01*
X129897142Y-83351666D01*
X129944761Y-83304047D01*
X129992380Y-83208809D01*
X129992380Y-83113571D01*
X129944761Y-83018333D01*
X129897142Y-82970714D01*
X129801904Y-82923095D01*
X129611428Y-82875476D01*
X129373333Y-82875476D01*
X129182857Y-82923095D01*
X129087619Y-82970714D01*
X129040000Y-83018333D01*
X128992380Y-83113571D01*
X129992380Y-83875476D02*
X128992380Y-83875476D01*
X129992380Y-84446904D02*
X129420952Y-84018333D01*
X128992380Y-84446904D02*
X129563809Y-83875476D01*
D12*
X129901904Y-86190166D02*
X129520952Y-85923500D01*
X129901904Y-85733023D02*
X129101904Y-85733023D01*
X129101904Y-86037785D01*
X129140000Y-86113976D01*
X129178095Y-86152071D01*
X129254285Y-86190166D01*
X129368571Y-86190166D01*
X129444761Y-86152071D01*
X129482857Y-86113976D01*
X129520952Y-86037785D01*
X129520952Y-85733023D01*
X129101904Y-86875880D02*
X129101904Y-86723500D01*
X129140000Y-86647309D01*
X129178095Y-86609214D01*
X129292380Y-86533023D01*
X129444761Y-86494928D01*
X129749523Y-86494928D01*
X129825714Y-86533023D01*
X129863809Y-86571119D01*
X129901904Y-86647309D01*
X129901904Y-86799690D01*
X129863809Y-86875880D01*
X129825714Y-86913976D01*
X129749523Y-86952071D01*
X129559047Y-86952071D01*
X129482857Y-86913976D01*
X129444761Y-86875880D01*
X129406666Y-86799690D01*
X129406666Y-86647309D01*
X129444761Y-86571119D01*
X129482857Y-86533023D01*
X129559047Y-86494928D01*
D11*
X132532380Y-82494523D02*
X132532380Y-81923095D01*
X132532380Y-82208809D02*
X131532380Y-82208809D01*
X131675238Y-82113571D01*
X131770476Y-82018333D01*
X131818095Y-81923095D01*
X131532380Y-83113571D02*
X131532380Y-83208809D01*
X131580000Y-83304047D01*
X131627619Y-83351666D01*
X131722857Y-83399285D01*
X131913333Y-83446904D01*
X132151428Y-83446904D01*
X132341904Y-83399285D01*
X132437142Y-83351666D01*
X132484761Y-83304047D01*
X132532380Y-83208809D01*
X132532380Y-83113571D01*
X132484761Y-83018333D01*
X132437142Y-82970714D01*
X132341904Y-82923095D01*
X132151428Y-82875476D01*
X131913333Y-82875476D01*
X131722857Y-82923095D01*
X131627619Y-82970714D01*
X131580000Y-83018333D01*
X131532380Y-83113571D01*
X132532380Y-83875476D02*
X131532380Y-83875476D01*
X132532380Y-84446904D02*
X131960952Y-84018333D01*
X131532380Y-84446904D02*
X132103809Y-83875476D01*
D12*
X132441904Y-86190166D02*
X132060952Y-85923500D01*
X132441904Y-85733023D02*
X131641904Y-85733023D01*
X131641904Y-86037785D01*
X131680000Y-86113976D01*
X131718095Y-86152071D01*
X131794285Y-86190166D01*
X131908571Y-86190166D01*
X131984761Y-86152071D01*
X132022857Y-86113976D01*
X132060952Y-86037785D01*
X132060952Y-85733023D01*
X131641904Y-86456833D02*
X131641904Y-86990166D01*
X132441904Y-86647309D01*
D11*
X135072380Y-82494523D02*
X135072380Y-81923095D01*
X135072380Y-82208809D02*
X134072380Y-82208809D01*
X134215238Y-82113571D01*
X134310476Y-82018333D01*
X134358095Y-81923095D01*
X134072380Y-83113571D02*
X134072380Y-83208809D01*
X134120000Y-83304047D01*
X134167619Y-83351666D01*
X134262857Y-83399285D01*
X134453333Y-83446904D01*
X134691428Y-83446904D01*
X134881904Y-83399285D01*
X134977142Y-83351666D01*
X135024761Y-83304047D01*
X135072380Y-83208809D01*
X135072380Y-83113571D01*
X135024761Y-83018333D01*
X134977142Y-82970714D01*
X134881904Y-82923095D01*
X134691428Y-82875476D01*
X134453333Y-82875476D01*
X134262857Y-82923095D01*
X134167619Y-82970714D01*
X134120000Y-83018333D01*
X134072380Y-83113571D01*
X135072380Y-83875476D02*
X134072380Y-83875476D01*
X135072380Y-84446904D02*
X134500952Y-84018333D01*
X134072380Y-84446904D02*
X134643809Y-83875476D01*
D12*
X134981904Y-86190166D02*
X134600952Y-85923500D01*
X134981904Y-85733023D02*
X134181904Y-85733023D01*
X134181904Y-86037785D01*
X134220000Y-86113976D01*
X134258095Y-86152071D01*
X134334285Y-86190166D01*
X134448571Y-86190166D01*
X134524761Y-86152071D01*
X134562857Y-86113976D01*
X134600952Y-86037785D01*
X134600952Y-85733023D01*
X134524761Y-86647309D02*
X134486666Y-86571119D01*
X134448571Y-86533023D01*
X134372380Y-86494928D01*
X134334285Y-86494928D01*
X134258095Y-86533023D01*
X134220000Y-86571119D01*
X134181904Y-86647309D01*
X134181904Y-86799690D01*
X134220000Y-86875880D01*
X134258095Y-86913976D01*
X134334285Y-86952071D01*
X134372380Y-86952071D01*
X134448571Y-86913976D01*
X134486666Y-86875880D01*
X134524761Y-86799690D01*
X134524761Y-86647309D01*
X134562857Y-86571119D01*
X134600952Y-86533023D01*
X134677142Y-86494928D01*
X134829523Y-86494928D01*
X134905714Y-86533023D01*
X134943809Y-86571119D01*
X134981904Y-86647309D01*
X134981904Y-86799690D01*
X134943809Y-86875880D01*
X134905714Y-86913976D01*
X134829523Y-86952071D01*
X134677142Y-86952071D01*
X134600952Y-86913976D01*
X134562857Y-86875880D01*
X134524761Y-86799690D01*
D11*
X137612380Y-82494523D02*
X137612380Y-81923095D01*
X137612380Y-82208809D02*
X136612380Y-82208809D01*
X136755238Y-82113571D01*
X136850476Y-82018333D01*
X136898095Y-81923095D01*
X136612380Y-83113571D02*
X136612380Y-83208809D01*
X136660000Y-83304047D01*
X136707619Y-83351666D01*
X136802857Y-83399285D01*
X136993333Y-83446904D01*
X137231428Y-83446904D01*
X137421904Y-83399285D01*
X137517142Y-83351666D01*
X137564761Y-83304047D01*
X137612380Y-83208809D01*
X137612380Y-83113571D01*
X137564761Y-83018333D01*
X137517142Y-82970714D01*
X137421904Y-82923095D01*
X137231428Y-82875476D01*
X136993333Y-82875476D01*
X136802857Y-82923095D01*
X136707619Y-82970714D01*
X136660000Y-83018333D01*
X136612380Y-83113571D01*
X137612380Y-83875476D02*
X136612380Y-83875476D01*
X137612380Y-84446904D02*
X137040952Y-84018333D01*
X136612380Y-84446904D02*
X137183809Y-83875476D01*
D12*
X137521904Y-86190166D02*
X137140952Y-85923500D01*
X137521904Y-85733023D02*
X136721904Y-85733023D01*
X136721904Y-86037785D01*
X136760000Y-86113976D01*
X136798095Y-86152071D01*
X136874285Y-86190166D01*
X136988571Y-86190166D01*
X137064761Y-86152071D01*
X137102857Y-86113976D01*
X137140952Y-86037785D01*
X137140952Y-85733023D01*
X137521904Y-86571119D02*
X137521904Y-86723500D01*
X137483809Y-86799690D01*
X137445714Y-86837785D01*
X137331428Y-86913976D01*
X137179047Y-86952071D01*
X136874285Y-86952071D01*
X136798095Y-86913976D01*
X136760000Y-86875880D01*
X136721904Y-86799690D01*
X136721904Y-86647309D01*
X136760000Y-86571119D01*
X136798095Y-86533023D01*
X136874285Y-86494928D01*
X137064761Y-86494928D01*
X137140952Y-86533023D01*
X137179047Y-86571119D01*
X137217142Y-86647309D01*
X137217142Y-86799690D01*
X137179047Y-86875880D01*
X137140952Y-86913976D01*
X137064761Y-86952071D01*
D11*
X140152380Y-82494523D02*
X140152380Y-81923095D01*
X140152380Y-82208809D02*
X139152380Y-82208809D01*
X139295238Y-82113571D01*
X139390476Y-82018333D01*
X139438095Y-81923095D01*
X139152380Y-83113571D02*
X139152380Y-83208809D01*
X139200000Y-83304047D01*
X139247619Y-83351666D01*
X139342857Y-83399285D01*
X139533333Y-83446904D01*
X139771428Y-83446904D01*
X139961904Y-83399285D01*
X140057142Y-83351666D01*
X140104761Y-83304047D01*
X140152380Y-83208809D01*
X140152380Y-83113571D01*
X140104761Y-83018333D01*
X140057142Y-82970714D01*
X139961904Y-82923095D01*
X139771428Y-82875476D01*
X139533333Y-82875476D01*
X139342857Y-82923095D01*
X139247619Y-82970714D01*
X139200000Y-83018333D01*
X139152380Y-83113571D01*
X140152380Y-83875476D02*
X139152380Y-83875476D01*
X140152380Y-84446904D02*
X139580952Y-84018333D01*
X139152380Y-84446904D02*
X139723809Y-83875476D01*
D12*
X140061904Y-85809214D02*
X139680952Y-85542547D01*
X140061904Y-85352071D02*
X139261904Y-85352071D01*
X139261904Y-85656833D01*
X139300000Y-85733023D01*
X139338095Y-85771119D01*
X139414285Y-85809214D01*
X139528571Y-85809214D01*
X139604761Y-85771119D01*
X139642857Y-85733023D01*
X139680952Y-85656833D01*
X139680952Y-85352071D01*
X140061904Y-86571119D02*
X140061904Y-86113976D01*
X140061904Y-86342547D02*
X139261904Y-86342547D01*
X139376190Y-86266357D01*
X139452380Y-86190166D01*
X139490476Y-86113976D01*
X139261904Y-87066357D02*
X139261904Y-87142547D01*
X139300000Y-87218738D01*
X139338095Y-87256833D01*
X139414285Y-87294928D01*
X139566666Y-87333023D01*
X139757142Y-87333023D01*
X139909523Y-87294928D01*
X139985714Y-87256833D01*
X140023809Y-87218738D01*
X140061904Y-87142547D01*
X140061904Y-87066357D01*
X140023809Y-86990166D01*
X139985714Y-86952071D01*
X139909523Y-86913976D01*
X139757142Y-86875880D01*
X139566666Y-86875880D01*
X139414285Y-86913976D01*
X139338095Y-86952071D01*
X139300000Y-86990166D01*
X139261904Y-87066357D01*
D11*
X142692380Y-82494523D02*
X142692380Y-81923095D01*
X142692380Y-82208809D02*
X141692380Y-82208809D01*
X141835238Y-82113571D01*
X141930476Y-82018333D01*
X141978095Y-81923095D01*
X141692380Y-83113571D02*
X141692380Y-83208809D01*
X141740000Y-83304047D01*
X141787619Y-83351666D01*
X141882857Y-83399285D01*
X142073333Y-83446904D01*
X142311428Y-83446904D01*
X142501904Y-83399285D01*
X142597142Y-83351666D01*
X142644761Y-83304047D01*
X142692380Y-83208809D01*
X142692380Y-83113571D01*
X142644761Y-83018333D01*
X142597142Y-82970714D01*
X142501904Y-82923095D01*
X142311428Y-82875476D01*
X142073333Y-82875476D01*
X141882857Y-82923095D01*
X141787619Y-82970714D01*
X141740000Y-83018333D01*
X141692380Y-83113571D01*
X142692380Y-83875476D02*
X141692380Y-83875476D01*
X142692380Y-84446904D02*
X142120952Y-84018333D01*
X141692380Y-84446904D02*
X142263809Y-83875476D01*
D12*
X142601904Y-85845714D02*
X142220952Y-85579047D01*
X142601904Y-85388571D02*
X141801904Y-85388571D01*
X141801904Y-85693333D01*
X141840000Y-85769523D01*
X141878095Y-85807619D01*
X141954285Y-85845714D01*
X142068571Y-85845714D01*
X142144761Y-85807619D01*
X142182857Y-85769523D01*
X142220952Y-85693333D01*
X142220952Y-85388571D01*
X142601904Y-86607619D02*
X142601904Y-86150476D01*
X142601904Y-86379047D02*
X141801904Y-86379047D01*
X141916190Y-86302857D01*
X141992380Y-86226666D01*
X142030476Y-86150476D01*
X142601904Y-87369523D02*
X142601904Y-86912380D01*
X142601904Y-87140952D02*
X141801904Y-87140952D01*
X141916190Y-87064761D01*
X141992380Y-86988571D01*
X142030476Y-86912380D01*
D11*
X145232380Y-82494523D02*
X145232380Y-81923095D01*
X145232380Y-82208809D02*
X144232380Y-82208809D01*
X144375238Y-82113571D01*
X144470476Y-82018333D01*
X144518095Y-81923095D01*
X144232380Y-83113571D02*
X144232380Y-83208809D01*
X144280000Y-83304047D01*
X144327619Y-83351666D01*
X144422857Y-83399285D01*
X144613333Y-83446904D01*
X144851428Y-83446904D01*
X145041904Y-83399285D01*
X145137142Y-83351666D01*
X145184761Y-83304047D01*
X145232380Y-83208809D01*
X145232380Y-83113571D01*
X145184761Y-83018333D01*
X145137142Y-82970714D01*
X145041904Y-82923095D01*
X144851428Y-82875476D01*
X144613333Y-82875476D01*
X144422857Y-82923095D01*
X144327619Y-82970714D01*
X144280000Y-83018333D01*
X144232380Y-83113571D01*
X145232380Y-83875476D02*
X144232380Y-83875476D01*
X145232380Y-84446904D02*
X144660952Y-84018333D01*
X144232380Y-84446904D02*
X144803809Y-83875476D01*
D12*
X145141904Y-85845714D02*
X144760952Y-85579047D01*
X145141904Y-85388571D02*
X144341904Y-85388571D01*
X144341904Y-85693333D01*
X144380000Y-85769523D01*
X144418095Y-85807619D01*
X144494285Y-85845714D01*
X144608571Y-85845714D01*
X144684761Y-85807619D01*
X144722857Y-85769523D01*
X144760952Y-85693333D01*
X144760952Y-85388571D01*
X145141904Y-86607619D02*
X145141904Y-86150476D01*
X145141904Y-86379047D02*
X144341904Y-86379047D01*
X144456190Y-86302857D01*
X144532380Y-86226666D01*
X144570476Y-86150476D01*
X144418095Y-86912380D02*
X144380000Y-86950476D01*
X144341904Y-87026666D01*
X144341904Y-87217142D01*
X144380000Y-87293333D01*
X144418095Y-87331428D01*
X144494285Y-87369523D01*
X144570476Y-87369523D01*
X144684761Y-87331428D01*
X145141904Y-86874285D01*
X145141904Y-87369523D01*
D11*
X145232380Y-110434523D02*
X145232380Y-109863095D01*
X145232380Y-110148809D02*
X144232380Y-110148809D01*
X144375238Y-110053571D01*
X144470476Y-109958333D01*
X144518095Y-109863095D01*
X144232380Y-111053571D02*
X144232380Y-111148809D01*
X144280000Y-111244047D01*
X144327619Y-111291666D01*
X144422857Y-111339285D01*
X144613333Y-111386904D01*
X144851428Y-111386904D01*
X145041904Y-111339285D01*
X145137142Y-111291666D01*
X145184761Y-111244047D01*
X145232380Y-111148809D01*
X145232380Y-111053571D01*
X145184761Y-110958333D01*
X145137142Y-110910714D01*
X145041904Y-110863095D01*
X144851428Y-110815476D01*
X144613333Y-110815476D01*
X144422857Y-110863095D01*
X144327619Y-110910714D01*
X144280000Y-110958333D01*
X144232380Y-111053571D01*
X145232380Y-111815476D02*
X144232380Y-111815476D01*
X145232380Y-112386904D02*
X144660952Y-111958333D01*
X144232380Y-112386904D02*
X144803809Y-111815476D01*
D12*
X145141904Y-113822214D02*
X144760952Y-113555547D01*
X145141904Y-113365071D02*
X144341904Y-113365071D01*
X144341904Y-113669833D01*
X144380000Y-113746023D01*
X144418095Y-113784119D01*
X144494285Y-113822214D01*
X144608571Y-113822214D01*
X144684761Y-113784119D01*
X144722857Y-113746023D01*
X144760952Y-113669833D01*
X144760952Y-113365071D01*
X145141904Y-114584119D02*
X145141904Y-114126976D01*
X145141904Y-114355547D02*
X144341904Y-114355547D01*
X144456190Y-114279357D01*
X144532380Y-114203166D01*
X144570476Y-114126976D01*
X144341904Y-114850785D02*
X144341904Y-115346023D01*
X144646666Y-115079357D01*
X144646666Y-115193642D01*
X144684761Y-115269833D01*
X144722857Y-115307928D01*
X144799047Y-115346023D01*
X144989523Y-115346023D01*
X145065714Y-115307928D01*
X145103809Y-115269833D01*
X145141904Y-115193642D01*
X145141904Y-114965071D01*
X145103809Y-114888880D01*
X145065714Y-114850785D01*
D11*
X142692380Y-110434523D02*
X142692380Y-109863095D01*
X142692380Y-110148809D02*
X141692380Y-110148809D01*
X141835238Y-110053571D01*
X141930476Y-109958333D01*
X141978095Y-109863095D01*
X141692380Y-111053571D02*
X141692380Y-111148809D01*
X141740000Y-111244047D01*
X141787619Y-111291666D01*
X141882857Y-111339285D01*
X142073333Y-111386904D01*
X142311428Y-111386904D01*
X142501904Y-111339285D01*
X142597142Y-111291666D01*
X142644761Y-111244047D01*
X142692380Y-111148809D01*
X142692380Y-111053571D01*
X142644761Y-110958333D01*
X142597142Y-110910714D01*
X142501904Y-110863095D01*
X142311428Y-110815476D01*
X142073333Y-110815476D01*
X141882857Y-110863095D01*
X141787619Y-110910714D01*
X141740000Y-110958333D01*
X141692380Y-111053571D01*
X142692380Y-111815476D02*
X141692380Y-111815476D01*
X142692380Y-112386904D02*
X142120952Y-111958333D01*
X141692380Y-112386904D02*
X142263809Y-111815476D01*
D12*
X142601904Y-113822214D02*
X142220952Y-113555547D01*
X142601904Y-113365071D02*
X141801904Y-113365071D01*
X141801904Y-113669833D01*
X141840000Y-113746023D01*
X141878095Y-113784119D01*
X141954285Y-113822214D01*
X142068571Y-113822214D01*
X142144761Y-113784119D01*
X142182857Y-113746023D01*
X142220952Y-113669833D01*
X142220952Y-113365071D01*
X142601904Y-114584119D02*
X142601904Y-114126976D01*
X142601904Y-114355547D02*
X141801904Y-114355547D01*
X141916190Y-114279357D01*
X141992380Y-114203166D01*
X142030476Y-114126976D01*
X142068571Y-115269833D02*
X142601904Y-115269833D01*
X141763809Y-115079357D02*
X142335238Y-114888880D01*
X142335238Y-115384119D01*
D11*
X140152380Y-110434523D02*
X140152380Y-109863095D01*
X140152380Y-110148809D02*
X139152380Y-110148809D01*
X139295238Y-110053571D01*
X139390476Y-109958333D01*
X139438095Y-109863095D01*
X139152380Y-111053571D02*
X139152380Y-111148809D01*
X139200000Y-111244047D01*
X139247619Y-111291666D01*
X139342857Y-111339285D01*
X139533333Y-111386904D01*
X139771428Y-111386904D01*
X139961904Y-111339285D01*
X140057142Y-111291666D01*
X140104761Y-111244047D01*
X140152380Y-111148809D01*
X140152380Y-111053571D01*
X140104761Y-110958333D01*
X140057142Y-110910714D01*
X139961904Y-110863095D01*
X139771428Y-110815476D01*
X139533333Y-110815476D01*
X139342857Y-110863095D01*
X139247619Y-110910714D01*
X139200000Y-110958333D01*
X139152380Y-111053571D01*
X140152380Y-111815476D02*
X139152380Y-111815476D01*
X140152380Y-112386904D02*
X139580952Y-111958333D01*
X139152380Y-112386904D02*
X139723809Y-111815476D01*
D12*
X140061904Y-113785714D02*
X139680952Y-113519047D01*
X140061904Y-113328571D02*
X139261904Y-113328571D01*
X139261904Y-113633333D01*
X139300000Y-113709523D01*
X139338095Y-113747619D01*
X139414285Y-113785714D01*
X139528571Y-113785714D01*
X139604761Y-113747619D01*
X139642857Y-113709523D01*
X139680952Y-113633333D01*
X139680952Y-113328571D01*
X140061904Y-114547619D02*
X140061904Y-114090476D01*
X140061904Y-114319047D02*
X139261904Y-114319047D01*
X139376190Y-114242857D01*
X139452380Y-114166666D01*
X139490476Y-114090476D01*
X139261904Y-115271428D02*
X139261904Y-114890476D01*
X139642857Y-114852380D01*
X139604761Y-114890476D01*
X139566666Y-114966666D01*
X139566666Y-115157142D01*
X139604761Y-115233333D01*
X139642857Y-115271428D01*
X139719047Y-115309523D01*
X139909523Y-115309523D01*
X139985714Y-115271428D01*
X140023809Y-115233333D01*
X140061904Y-115157142D01*
X140061904Y-114966666D01*
X140023809Y-114890476D01*
X139985714Y-114852380D01*
D11*
X137612380Y-110434523D02*
X137612380Y-109863095D01*
X137612380Y-110148809D02*
X136612380Y-110148809D01*
X136755238Y-110053571D01*
X136850476Y-109958333D01*
X136898095Y-109863095D01*
X136612380Y-111053571D02*
X136612380Y-111148809D01*
X136660000Y-111244047D01*
X136707619Y-111291666D01*
X136802857Y-111339285D01*
X136993333Y-111386904D01*
X137231428Y-111386904D01*
X137421904Y-111339285D01*
X137517142Y-111291666D01*
X137564761Y-111244047D01*
X137612380Y-111148809D01*
X137612380Y-111053571D01*
X137564761Y-110958333D01*
X137517142Y-110910714D01*
X137421904Y-110863095D01*
X137231428Y-110815476D01*
X136993333Y-110815476D01*
X136802857Y-110863095D01*
X136707619Y-110910714D01*
X136660000Y-110958333D01*
X136612380Y-111053571D01*
X137612380Y-111815476D02*
X136612380Y-111815476D01*
X137612380Y-112386904D02*
X137040952Y-111958333D01*
X136612380Y-112386904D02*
X137183809Y-111815476D01*
D12*
X137521904Y-113749214D02*
X137140952Y-113482547D01*
X137521904Y-113292071D02*
X136721904Y-113292071D01*
X136721904Y-113596833D01*
X136760000Y-113673023D01*
X136798095Y-113711119D01*
X136874285Y-113749214D01*
X136988571Y-113749214D01*
X137064761Y-113711119D01*
X137102857Y-113673023D01*
X137140952Y-113596833D01*
X137140952Y-113292071D01*
X137521904Y-114511119D02*
X137521904Y-114053976D01*
X137521904Y-114282547D02*
X136721904Y-114282547D01*
X136836190Y-114206357D01*
X136912380Y-114130166D01*
X136950476Y-114053976D01*
X136721904Y-115196833D02*
X136721904Y-115044452D01*
X136760000Y-114968261D01*
X136798095Y-114930166D01*
X136912380Y-114853976D01*
X137064761Y-114815880D01*
X137369523Y-114815880D01*
X137445714Y-114853976D01*
X137483809Y-114892071D01*
X137521904Y-114968261D01*
X137521904Y-115120642D01*
X137483809Y-115196833D01*
X137445714Y-115234928D01*
X137369523Y-115273023D01*
X137179047Y-115273023D01*
X137102857Y-115234928D01*
X137064761Y-115196833D01*
X137026666Y-115120642D01*
X137026666Y-114968261D01*
X137064761Y-114892071D01*
X137102857Y-114853976D01*
X137179047Y-114815880D01*
D11*
X135072380Y-110434523D02*
X135072380Y-109863095D01*
X135072380Y-110148809D02*
X134072380Y-110148809D01*
X134215238Y-110053571D01*
X134310476Y-109958333D01*
X134358095Y-109863095D01*
X134072380Y-111053571D02*
X134072380Y-111148809D01*
X134120000Y-111244047D01*
X134167619Y-111291666D01*
X134262857Y-111339285D01*
X134453333Y-111386904D01*
X134691428Y-111386904D01*
X134881904Y-111339285D01*
X134977142Y-111291666D01*
X135024761Y-111244047D01*
X135072380Y-111148809D01*
X135072380Y-111053571D01*
X135024761Y-110958333D01*
X134977142Y-110910714D01*
X134881904Y-110863095D01*
X134691428Y-110815476D01*
X134453333Y-110815476D01*
X134262857Y-110863095D01*
X134167619Y-110910714D01*
X134120000Y-110958333D01*
X134072380Y-111053571D01*
X135072380Y-111815476D02*
X134072380Y-111815476D01*
X135072380Y-112386904D02*
X134500952Y-111958333D01*
X134072380Y-112386904D02*
X134643809Y-111815476D01*
D12*
X134981904Y-113785714D02*
X134600952Y-113519047D01*
X134981904Y-113328571D02*
X134181904Y-113328571D01*
X134181904Y-113633333D01*
X134220000Y-113709523D01*
X134258095Y-113747619D01*
X134334285Y-113785714D01*
X134448571Y-113785714D01*
X134524761Y-113747619D01*
X134562857Y-113709523D01*
X134600952Y-113633333D01*
X134600952Y-113328571D01*
X134981904Y-114547619D02*
X134981904Y-114090476D01*
X134981904Y-114319047D02*
X134181904Y-114319047D01*
X134296190Y-114242857D01*
X134372380Y-114166666D01*
X134410476Y-114090476D01*
X134181904Y-114814285D02*
X134181904Y-115347619D01*
X134981904Y-115004761D01*
D11*
X132532380Y-110434523D02*
X132532380Y-109863095D01*
X132532380Y-110148809D02*
X131532380Y-110148809D01*
X131675238Y-110053571D01*
X131770476Y-109958333D01*
X131818095Y-109863095D01*
X131532380Y-111053571D02*
X131532380Y-111148809D01*
X131580000Y-111244047D01*
X131627619Y-111291666D01*
X131722857Y-111339285D01*
X131913333Y-111386904D01*
X132151428Y-111386904D01*
X132341904Y-111339285D01*
X132437142Y-111291666D01*
X132484761Y-111244047D01*
X132532380Y-111148809D01*
X132532380Y-111053571D01*
X132484761Y-110958333D01*
X132437142Y-110910714D01*
X132341904Y-110863095D01*
X132151428Y-110815476D01*
X131913333Y-110815476D01*
X131722857Y-110863095D01*
X131627619Y-110910714D01*
X131580000Y-110958333D01*
X131532380Y-111053571D01*
X132532380Y-111815476D02*
X131532380Y-111815476D01*
X132532380Y-112386904D02*
X131960952Y-111958333D01*
X131532380Y-112386904D02*
X132103809Y-111815476D01*
D12*
X132441904Y-113785714D02*
X132060952Y-113519047D01*
X132441904Y-113328571D02*
X131641904Y-113328571D01*
X131641904Y-113633333D01*
X131680000Y-113709523D01*
X131718095Y-113747619D01*
X131794285Y-113785714D01*
X131908571Y-113785714D01*
X131984761Y-113747619D01*
X132022857Y-113709523D01*
X132060952Y-113633333D01*
X132060952Y-113328571D01*
X132441904Y-114547619D02*
X132441904Y-114090476D01*
X132441904Y-114319047D02*
X131641904Y-114319047D01*
X131756190Y-114242857D01*
X131832380Y-114166666D01*
X131870476Y-114090476D01*
X131984761Y-115004761D02*
X131946666Y-114928571D01*
X131908571Y-114890476D01*
X131832380Y-114852380D01*
X131794285Y-114852380D01*
X131718095Y-114890476D01*
X131680000Y-114928571D01*
X131641904Y-115004761D01*
X131641904Y-115157142D01*
X131680000Y-115233333D01*
X131718095Y-115271428D01*
X131794285Y-115309523D01*
X131832380Y-115309523D01*
X131908571Y-115271428D01*
X131946666Y-115233333D01*
X131984761Y-115157142D01*
X131984761Y-115004761D01*
X132022857Y-114928571D01*
X132060952Y-114890476D01*
X132137142Y-114852380D01*
X132289523Y-114852380D01*
X132365714Y-114890476D01*
X132403809Y-114928571D01*
X132441904Y-115004761D01*
X132441904Y-115157142D01*
X132403809Y-115233333D01*
X132365714Y-115271428D01*
X132289523Y-115309523D01*
X132137142Y-115309523D01*
X132060952Y-115271428D01*
X132022857Y-115233333D01*
X131984761Y-115157142D01*
D11*
X129992380Y-110434523D02*
X129992380Y-109863095D01*
X129992380Y-110148809D02*
X128992380Y-110148809D01*
X129135238Y-110053571D01*
X129230476Y-109958333D01*
X129278095Y-109863095D01*
X128992380Y-111053571D02*
X128992380Y-111148809D01*
X129040000Y-111244047D01*
X129087619Y-111291666D01*
X129182857Y-111339285D01*
X129373333Y-111386904D01*
X129611428Y-111386904D01*
X129801904Y-111339285D01*
X129897142Y-111291666D01*
X129944761Y-111244047D01*
X129992380Y-111148809D01*
X129992380Y-111053571D01*
X129944761Y-110958333D01*
X129897142Y-110910714D01*
X129801904Y-110863095D01*
X129611428Y-110815476D01*
X129373333Y-110815476D01*
X129182857Y-110863095D01*
X129087619Y-110910714D01*
X129040000Y-110958333D01*
X128992380Y-111053571D01*
X129992380Y-111815476D02*
X128992380Y-111815476D01*
X129992380Y-112386904D02*
X129420952Y-111958333D01*
X128992380Y-112386904D02*
X129563809Y-111815476D01*
D12*
X129901904Y-113822214D02*
X129520952Y-113555547D01*
X129901904Y-113365071D02*
X129101904Y-113365071D01*
X129101904Y-113669833D01*
X129140000Y-113746023D01*
X129178095Y-113784119D01*
X129254285Y-113822214D01*
X129368571Y-113822214D01*
X129444761Y-113784119D01*
X129482857Y-113746023D01*
X129520952Y-113669833D01*
X129520952Y-113365071D01*
X129901904Y-114584119D02*
X129901904Y-114126976D01*
X129901904Y-114355547D02*
X129101904Y-114355547D01*
X129216190Y-114279357D01*
X129292380Y-114203166D01*
X129330476Y-114126976D01*
X129901904Y-114965071D02*
X129901904Y-115117452D01*
X129863809Y-115193642D01*
X129825714Y-115231738D01*
X129711428Y-115307928D01*
X129559047Y-115346023D01*
X129254285Y-115346023D01*
X129178095Y-115307928D01*
X129140000Y-115269833D01*
X129101904Y-115193642D01*
X129101904Y-115041261D01*
X129140000Y-114965071D01*
X129178095Y-114926976D01*
X129254285Y-114888880D01*
X129444761Y-114888880D01*
X129520952Y-114926976D01*
X129559047Y-114965071D01*
X129597142Y-115041261D01*
X129597142Y-115193642D01*
X129559047Y-115269833D01*
X129520952Y-115307928D01*
X129444761Y-115346023D01*
D11*
X127452380Y-110434523D02*
X127452380Y-109863095D01*
X127452380Y-110148809D02*
X126452380Y-110148809D01*
X126595238Y-110053571D01*
X126690476Y-109958333D01*
X126738095Y-109863095D01*
X126452380Y-111053571D02*
X126452380Y-111148809D01*
X126500000Y-111244047D01*
X126547619Y-111291666D01*
X126642857Y-111339285D01*
X126833333Y-111386904D01*
X127071428Y-111386904D01*
X127261904Y-111339285D01*
X127357142Y-111291666D01*
X127404761Y-111244047D01*
X127452380Y-111148809D01*
X127452380Y-111053571D01*
X127404761Y-110958333D01*
X127357142Y-110910714D01*
X127261904Y-110863095D01*
X127071428Y-110815476D01*
X126833333Y-110815476D01*
X126642857Y-110863095D01*
X126547619Y-110910714D01*
X126500000Y-110958333D01*
X126452380Y-111053571D01*
X127452380Y-111815476D02*
X126452380Y-111815476D01*
X127452380Y-112386904D02*
X126880952Y-111958333D01*
X126452380Y-112386904D02*
X127023809Y-111815476D01*
D12*
X127361904Y-113785714D02*
X126980952Y-113519047D01*
X127361904Y-113328571D02*
X126561904Y-113328571D01*
X126561904Y-113633333D01*
X126600000Y-113709523D01*
X126638095Y-113747619D01*
X126714285Y-113785714D01*
X126828571Y-113785714D01*
X126904761Y-113747619D01*
X126942857Y-113709523D01*
X126980952Y-113633333D01*
X126980952Y-113328571D01*
X126638095Y-114090476D02*
X126600000Y-114128571D01*
X126561904Y-114204761D01*
X126561904Y-114395238D01*
X126600000Y-114471428D01*
X126638095Y-114509523D01*
X126714285Y-114547619D01*
X126790476Y-114547619D01*
X126904761Y-114509523D01*
X127361904Y-114052380D01*
X127361904Y-114547619D01*
X126561904Y-115042857D02*
X126561904Y-115119047D01*
X126600000Y-115195238D01*
X126638095Y-115233333D01*
X126714285Y-115271428D01*
X126866666Y-115309523D01*
X127057142Y-115309523D01*
X127209523Y-115271428D01*
X127285714Y-115233333D01*
X127323809Y-115195238D01*
X127361904Y-115119047D01*
X127361904Y-115042857D01*
X127323809Y-114966666D01*
X127285714Y-114928571D01*
X127209523Y-114890476D01*
X127057142Y-114852380D01*
X126866666Y-114852380D01*
X126714285Y-114890476D01*
X126638095Y-114928571D01*
X126600000Y-114966666D01*
X126561904Y-115042857D01*
M02*
