M48
; DRILL file {KiCad (5.1.5)-3} date 24/05/2020 17:47:25
; FORMAT={-:-/ absolute / inch / decimal}
; #@! TF.CreationDate,2020-05-24T17:47:25+02:00
; #@! TF.GenerationSoftware,Kicad,Pcbnew,(5.1.5)-3
; #@! TF.FileFunction,Plated,1,2,PTH
FMAT,2
INCH
T1C0.0276
T2C0.0295
T3C0.0315
T4C0.0354
T5C0.0394
T6C0.0398
T7C0.0512
T8C0.1260
%
G90
G05
T1
X6.15Y-3.7
X5.95Y-3.8
X4.8Y-3.85
X4.8Y-4.15
X6.05Y-3.7
X6.05Y-3.8
X6.15Y-3.8
X4.575Y-4.25
X4.575Y-4.55
X5.95Y-3.7
T2
X6.3Y-3.7
X6.3Y-3.75
X6.3Y-3.8
T3
X5.875Y-3.0266
X5.875Y-3.125
X4.7516Y-3.45
X4.85Y-3.45
X4.9Y-4.35
X4.9Y-4.65
X5.0Y-4.35
X5.0Y-4.65
X5.1Y-4.35
X5.1Y-4.65
X5.2Y-4.35
X5.2Y-4.65
X5.3Y-4.35
X5.3Y-4.65
X5.4Y-4.35
X5.4Y-4.65
X5.5Y-4.35
X5.5Y-4.65
X5.6Y-4.35
X5.6Y-4.65
X5.7Y-4.35
X5.7Y-4.65
X5.9Y-4.75
X5.9Y-4.8484
X5.0Y-3.25
X5.0Y-3.55
X5.1Y-3.25
X5.1Y-3.55
X5.2Y-3.25
X5.2Y-3.55
X5.3Y-3.25
X5.3Y-3.55
X5.4Y-3.25
X5.4Y-3.55
X5.5Y-3.25
X5.5Y-3.55
X5.6Y-3.25
X5.6Y-3.55
X5.7Y-3.25
X5.7Y-3.55
X5.8Y-3.25
X5.8Y-3.55
T4
X4.55Y-4.7
X4.55Y-4.8
T5
X7.51Y-3.2
X7.51Y-4.8
X7.65Y-3.2
X7.65Y-4.8
X6.05Y-4.95
X6.05Y-5.05
X6.15Y-4.95
X6.15Y-5.05
X4.9Y-3.1
X5.0Y-3.1
X5.1Y-3.1
X5.2Y-3.1
X5.3Y-3.1
X5.4Y-3.1
X5.5Y-3.1
X5.6Y-3.1
X4.9Y-2.9
X5.0Y-2.9
X5.1Y-2.9
X5.2Y-2.9
X5.3Y-2.9
X5.4Y-2.9
X5.5Y-2.9
X5.6Y-2.9
X5.95Y-4.45
X6.05Y-4.45
X6.15Y-4.45
X7.55Y-4.95
X7.55Y-5.05
X7.65Y-4.95
X7.65Y-5.05
X5.95Y-4.0
X5.95Y-4.1
X5.95Y-4.2
X5.95Y-4.3
X4.9Y-4.9
X5.0Y-4.9
X5.1Y-4.9
X5.2Y-4.9
X5.3Y-4.9
X5.4Y-4.9
X5.5Y-4.9
X5.6Y-4.9
X4.9Y-5.0
X5.0Y-5.0
X5.1Y-5.0
X5.2Y-5.0
X5.3Y-5.0
X5.4Y-5.0
X5.5Y-5.0
X5.6Y-5.0
X6.7Y-4.95
X6.7Y-5.05
X6.8Y-4.95
X6.8Y-5.05
X6.65Y-3.2
X6.65Y-4.8
X6.79Y-3.2
X6.79Y-4.8
X6.9Y-4.95
X6.9Y-5.05
X7.0Y-4.95
X7.0Y-5.05
X7.55Y-2.9
X7.55Y-3.0
X7.65Y-2.9
X7.65Y-3.0
X4.9Y-3.0
X5.0Y-3.0
X5.1Y-3.0
X5.2Y-3.0
X5.3Y-3.0
X5.4Y-3.0
X5.5Y-3.0
X5.6Y-3.0
X4.9Y-4.8
X5.0Y-4.8
X5.1Y-4.8
X5.2Y-4.8
X5.3Y-4.8
X5.4Y-4.8
X5.5Y-4.8
X5.6Y-4.8
X5.95Y-3.3
X6.05Y-3.3
X6.15Y-3.3
X4.7Y-4.25
X4.8Y-4.25
X4.9Y-4.25
X5.0Y-4.25
X5.1Y-4.25
X5.2Y-4.25
X5.3Y-4.25
X5.4Y-4.25
X5.5Y-4.25
X5.6Y-4.25
X5.7Y-4.25
X5.8Y-4.25
X6.9Y-2.9
X6.9Y-3.0
X7.0Y-2.9
X7.0Y-3.0
X6.15Y-4.0
X6.15Y-4.1
X6.15Y-4.2
X6.15Y-4.3
X5.95Y-4.6
X6.05Y-4.6
X6.15Y-4.6
X6.7Y-2.9
X6.7Y-3.0
X6.8Y-2.9
X6.8Y-3.0
X4.7Y-4.45
X4.7Y-4.55
X4.7Y-4.65
X6.05Y-2.9
X6.05Y-3.0
X6.15Y-2.9
X6.15Y-3.0
X4.55Y-3.3
X4.55Y-3.4
X4.55Y-3.5
X6.05Y-4.0
X6.05Y-4.1
X6.05Y-4.2
X6.05Y-4.3
X4.7Y-3.65
X4.8Y-3.65
X4.9Y-3.65
X5.0Y-3.65
X5.1Y-3.65
X5.2Y-3.65
X5.3Y-3.65
X5.4Y-3.65
X5.5Y-3.65
X5.6Y-3.65
X5.7Y-3.65
X5.8Y-3.65
X5.95Y-3.45
X6.05Y-3.45
X6.15Y-3.45
T6
X4.6492Y-3.2278
X4.85Y-3.275
T7
X7.125Y-3.575
X7.125Y-3.775
T8
X6.4Y-3.2
X4.55Y-5.0
X7.225Y-3.2
X4.55Y-2.95
X6.4Y-4.75
X7.225Y-4.75
X7.875Y-4.4
X7.875Y-2.95
T0
M30
