G04 #@! TF.GenerationSoftware,KiCad,Pcbnew,(5.1.5)-3*
G04 #@! TF.CreationDate,2020-05-30T20:03:18+02:00*
G04 #@! TF.ProjectId,MultiSwitch_Sw16_ProMicro,4d756c74-6953-4776-9974-63685f537731,V1.0*
G04 #@! TF.SameCoordinates,Original*
G04 #@! TF.FileFunction,Legend,Top*
G04 #@! TF.FilePolarity,Positive*
%FSLAX46Y46*%
G04 Gerber Fmt 4.6, Leading zero omitted, Abs format (unit mm)*
G04 Created by KiCad (PCBNEW (5.1.5)-3) date 2020-05-30 20:03:18*
%MOMM*%
%LPD*%
G04 APERTURE LIST*
%ADD10C,0.300000*%
%ADD11C,0.150000*%
%ADD12C,0.120000*%
G04 APERTURE END LIST*
D10*
X115820000Y-117832142D02*
X115820000Y-117117857D01*
X116248571Y-117975000D02*
X114748571Y-117475000D01*
X116248571Y-116975000D01*
X118534571Y-123836857D02*
X117034571Y-123836857D01*
X118534571Y-122979714D02*
X117677428Y-123622571D01*
X117034571Y-122979714D02*
X117891714Y-123836857D01*
D11*
X153590809Y-89368380D02*
X153924142Y-90368380D01*
X154257476Y-89368380D01*
X154590809Y-89844571D02*
X154924142Y-89844571D01*
X155067000Y-90368380D02*
X154590809Y-90368380D01*
X154590809Y-89368380D01*
X155067000Y-89368380D01*
X155400333Y-90368380D02*
X155924142Y-89701714D01*
X155400333Y-89701714D02*
X155924142Y-90368380D01*
X156162238Y-89701714D02*
X156543190Y-89701714D01*
X156305095Y-89368380D02*
X156305095Y-90225523D01*
X156352714Y-90320761D01*
X156447952Y-90368380D01*
X156543190Y-90368380D01*
X153590809Y-114387380D02*
X153924142Y-115387380D01*
X154257476Y-114387380D01*
X154590809Y-114863571D02*
X154924142Y-114863571D01*
X155067000Y-115387380D02*
X154590809Y-115387380D01*
X154590809Y-114387380D01*
X155067000Y-114387380D01*
X155400333Y-115387380D02*
X155924142Y-114720714D01*
X155400333Y-114720714D02*
X155924142Y-115387380D01*
X156162238Y-114720714D02*
X156543190Y-114720714D01*
X156305095Y-114387380D02*
X156305095Y-115244523D01*
X156352714Y-115339761D01*
X156447952Y-115387380D01*
X156543190Y-115387380D01*
X152963809Y-119578380D02*
X152963809Y-118578380D01*
X153201904Y-118578380D01*
X153344761Y-118626000D01*
X153440000Y-118721238D01*
X153487619Y-118816476D01*
X153535238Y-119006952D01*
X153535238Y-119149809D01*
X153487619Y-119340285D01*
X153440000Y-119435523D01*
X153344761Y-119530761D01*
X153201904Y-119578380D01*
X152963809Y-119578380D01*
X153963809Y-119578380D02*
X153963809Y-118578380D01*
X154630476Y-118578380D02*
X154820952Y-118578380D01*
X154916190Y-118626000D01*
X155011428Y-118721238D01*
X155059047Y-118911714D01*
X155059047Y-119245047D01*
X155011428Y-119435523D01*
X154916190Y-119530761D01*
X154820952Y-119578380D01*
X154630476Y-119578380D01*
X154535238Y-119530761D01*
X154440000Y-119435523D01*
X154392380Y-119245047D01*
X154392380Y-118911714D01*
X154440000Y-118721238D01*
X154535238Y-118626000D01*
X154630476Y-118578380D01*
X155487619Y-119578380D02*
X155487619Y-118578380D01*
X155725714Y-118578380D01*
X155868571Y-118626000D01*
X155963809Y-118721238D01*
X156011428Y-118816476D01*
X156059047Y-119006952D01*
X156059047Y-119149809D01*
X156011428Y-119340285D01*
X155963809Y-119435523D01*
X155868571Y-119530761D01*
X155725714Y-119578380D01*
X155487619Y-119578380D01*
X156487619Y-119054571D02*
X156820952Y-119054571D01*
X156963809Y-119578380D02*
X156487619Y-119578380D01*
X156487619Y-118578380D01*
X156963809Y-118578380D01*
X153471809Y-82113380D02*
X153471809Y-81113380D01*
X153709904Y-81113380D01*
X153852761Y-81161000D01*
X153948000Y-81256238D01*
X153995619Y-81351476D01*
X154043238Y-81541952D01*
X154043238Y-81684809D01*
X153995619Y-81875285D01*
X153948000Y-81970523D01*
X153852761Y-82065761D01*
X153709904Y-82113380D01*
X153471809Y-82113380D01*
X154471809Y-82113380D02*
X154471809Y-81113380D01*
X155138476Y-81113380D02*
X155328952Y-81113380D01*
X155424190Y-81161000D01*
X155519428Y-81256238D01*
X155567047Y-81446714D01*
X155567047Y-81780047D01*
X155519428Y-81970523D01*
X155424190Y-82065761D01*
X155328952Y-82113380D01*
X155138476Y-82113380D01*
X155043238Y-82065761D01*
X154948000Y-81970523D01*
X154900380Y-81780047D01*
X154900380Y-81446714D01*
X154948000Y-81256238D01*
X155043238Y-81161000D01*
X155138476Y-81113380D01*
X155995619Y-82113380D02*
X155995619Y-81113380D01*
X156233714Y-81113380D01*
X156376571Y-81161000D01*
X156471809Y-81256238D01*
X156519428Y-81351476D01*
X156567047Y-81541952D01*
X156567047Y-81684809D01*
X156519428Y-81875285D01*
X156471809Y-81970523D01*
X156376571Y-82065761D01*
X156233714Y-82113380D01*
X155995619Y-82113380D01*
X156995619Y-81589571D02*
X157328952Y-81589571D01*
X157471809Y-82113380D02*
X156995619Y-82113380D01*
X156995619Y-81113380D01*
X157471809Y-81113380D01*
X113188904Y-81319714D02*
X112427000Y-81605428D01*
X113188904Y-81891142D01*
X114141285Y-80986380D02*
X113665095Y-80986380D01*
X113617476Y-81462571D01*
X113665095Y-81414952D01*
X113760333Y-81367333D01*
X113998428Y-81367333D01*
X114093666Y-81414952D01*
X114141285Y-81462571D01*
X114188904Y-81557809D01*
X114188904Y-81795904D01*
X114141285Y-81891142D01*
X114093666Y-81938761D01*
X113998428Y-81986380D01*
X113760333Y-81986380D01*
X113665095Y-81938761D01*
X113617476Y-81891142D01*
X114617476Y-81891142D02*
X114665095Y-81938761D01*
X114617476Y-81986380D01*
X114569857Y-81938761D01*
X114617476Y-81891142D01*
X114617476Y-81986380D01*
X115569857Y-80986380D02*
X115093666Y-80986380D01*
X115046047Y-81462571D01*
X115093666Y-81414952D01*
X115188904Y-81367333D01*
X115427000Y-81367333D01*
X115522238Y-81414952D01*
X115569857Y-81462571D01*
X115617476Y-81557809D01*
X115617476Y-81795904D01*
X115569857Y-81891142D01*
X115522238Y-81938761D01*
X115427000Y-81986380D01*
X115188904Y-81986380D01*
X115093666Y-81938761D01*
X115046047Y-81891142D01*
X115903190Y-80986380D02*
X116236523Y-81986380D01*
X116569857Y-80986380D01*
X112554000Y-91225714D02*
X113315904Y-91511428D01*
X112554000Y-91797142D01*
X114268285Y-90892380D02*
X113792095Y-90892380D01*
X113744476Y-91368571D01*
X113792095Y-91320952D01*
X113887333Y-91273333D01*
X114125428Y-91273333D01*
X114220666Y-91320952D01*
X114268285Y-91368571D01*
X114315904Y-91463809D01*
X114315904Y-91701904D01*
X114268285Y-91797142D01*
X114220666Y-91844761D01*
X114125428Y-91892380D01*
X113887333Y-91892380D01*
X113792095Y-91844761D01*
X113744476Y-91797142D01*
X114744476Y-91797142D02*
X114792095Y-91844761D01*
X114744476Y-91892380D01*
X114696857Y-91844761D01*
X114744476Y-91797142D01*
X114744476Y-91892380D01*
X115696857Y-90892380D02*
X115220666Y-90892380D01*
X115173047Y-91368571D01*
X115220666Y-91320952D01*
X115315904Y-91273333D01*
X115554000Y-91273333D01*
X115649238Y-91320952D01*
X115696857Y-91368571D01*
X115744476Y-91463809D01*
X115744476Y-91701904D01*
X115696857Y-91797142D01*
X115649238Y-91844761D01*
X115554000Y-91892380D01*
X115315904Y-91892380D01*
X115220666Y-91844761D01*
X115173047Y-91797142D01*
X116030190Y-90892380D02*
X116363523Y-91892380D01*
X116696857Y-90892380D01*
X151693571Y-72898047D02*
X151693571Y-73659952D01*
X155829047Y-78049428D02*
X156590952Y-78049428D01*
X156210000Y-78430380D02*
X156210000Y-77668476D01*
X152018952Y-128325571D02*
X151257047Y-128325571D01*
X151257047Y-125801428D02*
X152018952Y-125801428D01*
X151638000Y-126182380D02*
X151638000Y-125420476D01*
X145057761Y-79930476D02*
X145105380Y-79787619D01*
X145105380Y-79549523D01*
X145057761Y-79454285D01*
X145010142Y-79406666D01*
X144914904Y-79359047D01*
X144819666Y-79359047D01*
X144724428Y-79406666D01*
X144676809Y-79454285D01*
X144629190Y-79549523D01*
X144581571Y-79740000D01*
X144533952Y-79835238D01*
X144486333Y-79882857D01*
X144391095Y-79930476D01*
X144295857Y-79930476D01*
X144200619Y-79882857D01*
X144153000Y-79835238D01*
X144105380Y-79740000D01*
X144105380Y-79501904D01*
X144153000Y-79359047D01*
X144057761Y-78216190D02*
X145343476Y-79073333D01*
X144105380Y-78025714D02*
X144105380Y-77454285D01*
X145105380Y-77740000D02*
X144105380Y-77740000D01*
X144272047Y-76144428D02*
X145033952Y-76144428D01*
X144653000Y-76525380D02*
X144653000Y-75763476D01*
X144581571Y-73025047D02*
X144581571Y-73786952D01*
X144526047Y-124531428D02*
X145287952Y-124531428D01*
X144907000Y-124912380D02*
X144907000Y-124150476D01*
X145287952Y-126928571D02*
X144526047Y-126928571D01*
X145311761Y-123110476D02*
X145359380Y-122967619D01*
X145359380Y-122729523D01*
X145311761Y-122634285D01*
X145264142Y-122586666D01*
X145168904Y-122539047D01*
X145073666Y-122539047D01*
X144978428Y-122586666D01*
X144930809Y-122634285D01*
X144883190Y-122729523D01*
X144835571Y-122920000D01*
X144787952Y-123015238D01*
X144740333Y-123062857D01*
X144645095Y-123110476D01*
X144549857Y-123110476D01*
X144454619Y-123062857D01*
X144407000Y-123015238D01*
X144359380Y-122920000D01*
X144359380Y-122681904D01*
X144407000Y-122539047D01*
X144311761Y-121396190D02*
X145597476Y-122253333D01*
X144359380Y-121205714D02*
X144359380Y-120634285D01*
X145359380Y-120920000D02*
X144359380Y-120920000D01*
D12*
X157861000Y-109220000D02*
X154051000Y-109220000D01*
D11*
X159202380Y-103822380D02*
X158202380Y-103822380D01*
X159202380Y-103346190D02*
X158202380Y-103346190D01*
X159202380Y-102774761D01*
X158202380Y-102774761D01*
X158202380Y-102441428D02*
X159202380Y-102108095D01*
X158202380Y-101774761D01*
X159202380Y-108950000D02*
X158202380Y-108950000D01*
X158202380Y-108711904D01*
X158250000Y-108569047D01*
X158345238Y-108473809D01*
X158440476Y-108426190D01*
X158630952Y-108378571D01*
X158773809Y-108378571D01*
X158964285Y-108426190D01*
X159059523Y-108473809D01*
X159154761Y-108569047D01*
X159202380Y-108711904D01*
X159202380Y-108950000D01*
X159202380Y-107950000D02*
X158202380Y-107950000D01*
X159202380Y-106902380D02*
X158726190Y-107235714D01*
X159202380Y-107473809D02*
X158202380Y-107473809D01*
X158202380Y-107092857D01*
X158250000Y-106997619D01*
X158297619Y-106950000D01*
X158392857Y-106902380D01*
X158535714Y-106902380D01*
X158630952Y-106950000D01*
X158678571Y-106997619D01*
X158726190Y-107092857D01*
X158726190Y-107473809D01*
X156614761Y-99345714D02*
X156662380Y-99202857D01*
X156662380Y-98964761D01*
X156614761Y-98869523D01*
X156567142Y-98821904D01*
X156471904Y-98774285D01*
X156376666Y-98774285D01*
X156281428Y-98821904D01*
X156233809Y-98869523D01*
X156186190Y-98964761D01*
X156138571Y-99155238D01*
X156090952Y-99250476D01*
X156043333Y-99298095D01*
X155948095Y-99345714D01*
X155852857Y-99345714D01*
X155757619Y-99298095D01*
X155710000Y-99250476D01*
X155662380Y-99155238D01*
X155662380Y-98917142D01*
X155710000Y-98774285D01*
X153289047Y-99131428D02*
X154050952Y-99131428D01*
X153670000Y-99512380D02*
X153670000Y-98750476D01*
X151074428Y-99440952D02*
X151074428Y-98679047D01*
X122070761Y-116935095D02*
X122118380Y-116792238D01*
X122118380Y-116554142D01*
X122070761Y-116458904D01*
X122023142Y-116411285D01*
X121927904Y-116363666D01*
X121832666Y-116363666D01*
X121737428Y-116411285D01*
X121689809Y-116458904D01*
X121642190Y-116554142D01*
X121594571Y-116744619D01*
X121546952Y-116839857D01*
X121499333Y-116887476D01*
X121404095Y-116935095D01*
X121308857Y-116935095D01*
X121213619Y-116887476D01*
X121166000Y-116839857D01*
X121118380Y-116744619D01*
X121118380Y-116506523D01*
X121166000Y-116363666D01*
X121118380Y-115744619D02*
X121118380Y-115649380D01*
X121166000Y-115554142D01*
X121213619Y-115506523D01*
X121308857Y-115458904D01*
X121499333Y-115411285D01*
X121737428Y-115411285D01*
X121927904Y-115458904D01*
X122023142Y-115506523D01*
X122070761Y-115554142D01*
X122118380Y-115649380D01*
X122118380Y-115744619D01*
X122070761Y-115839857D01*
X122023142Y-115887476D01*
X121927904Y-115935095D01*
X121737428Y-115982714D01*
X121499333Y-115982714D01*
X121308857Y-115935095D01*
X121213619Y-115887476D01*
X121166000Y-115839857D01*
X121118380Y-115744619D01*
X121118380Y-114792238D02*
X121118380Y-114697000D01*
X121166000Y-114601761D01*
X121213619Y-114554142D01*
X121308857Y-114506523D01*
X121499333Y-114458904D01*
X121737428Y-114458904D01*
X121927904Y-114506523D01*
X122023142Y-114554142D01*
X122070761Y-114601761D01*
X122118380Y-114697000D01*
X122118380Y-114792238D01*
X122070761Y-114887476D01*
X122023142Y-114935095D01*
X121927904Y-114982714D01*
X121737428Y-115030333D01*
X121499333Y-115030333D01*
X121308857Y-114982714D01*
X121213619Y-114935095D01*
X121166000Y-114887476D01*
X121118380Y-114792238D01*
X188436428Y-77811380D02*
X188769761Y-78811380D01*
X189103095Y-77811380D01*
X189388809Y-77906619D02*
X189436428Y-77859000D01*
X189531666Y-77811380D01*
X189769761Y-77811380D01*
X189865000Y-77859000D01*
X189912619Y-77906619D01*
X189960238Y-78001857D01*
X189960238Y-78097095D01*
X189912619Y-78239952D01*
X189341190Y-78811380D01*
X189960238Y-78811380D01*
X190388809Y-78430428D02*
X191150714Y-78430428D01*
X190769761Y-78811380D02*
X190769761Y-78049476D01*
X188436428Y-71207380D02*
X188769761Y-72207380D01*
X189103095Y-71207380D01*
X189388809Y-71302619D02*
X189436428Y-71255000D01*
X189531666Y-71207380D01*
X189769761Y-71207380D01*
X189865000Y-71255000D01*
X189912619Y-71302619D01*
X189960238Y-71397857D01*
X189960238Y-71493095D01*
X189912619Y-71635952D01*
X189341190Y-72207380D01*
X189960238Y-72207380D01*
X190388809Y-71826428D02*
X191150714Y-71826428D01*
X186523380Y-97980238D02*
X187523380Y-97646904D01*
X186523380Y-97313571D01*
X186999571Y-96980238D02*
X186999571Y-96646904D01*
X187523380Y-96504047D02*
X187523380Y-96980238D01*
X186523380Y-96980238D01*
X186523380Y-96504047D01*
X187523380Y-96170714D02*
X186856714Y-95646904D01*
X186856714Y-96170714D02*
X187523380Y-95646904D01*
X186856714Y-95408809D02*
X186856714Y-95027857D01*
X186523380Y-95265952D02*
X187380523Y-95265952D01*
X187475761Y-95218333D01*
X187523380Y-95123095D01*
X187523380Y-95027857D01*
X187142428Y-94694523D02*
X187142428Y-93932619D01*
X186523380Y-92265238D02*
X187523380Y-91931904D01*
X186523380Y-91598571D01*
X186999571Y-91265238D02*
X186999571Y-90931904D01*
X187523380Y-90789047D02*
X187523380Y-91265238D01*
X186523380Y-91265238D01*
X186523380Y-90789047D01*
X187523380Y-90455714D02*
X186856714Y-89931904D01*
X186856714Y-90455714D02*
X187523380Y-89931904D01*
X186856714Y-89693809D02*
X186856714Y-89312857D01*
X186523380Y-89550952D02*
X187380523Y-89550952D01*
X187475761Y-89503333D01*
X187523380Y-89408095D01*
X187523380Y-89312857D01*
X187142428Y-88979523D02*
X187142428Y-88217619D01*
X187523380Y-88598571D02*
X186761476Y-88598571D01*
X170148428Y-123531380D02*
X170481761Y-124531380D01*
X170815095Y-123531380D01*
X171672238Y-124531380D02*
X171100809Y-124531380D01*
X171386523Y-124531380D02*
X171386523Y-123531380D01*
X171291285Y-123674238D01*
X171196047Y-123769476D01*
X171100809Y-123817095D01*
X172100809Y-124150428D02*
X172862714Y-124150428D01*
X172481761Y-124531380D02*
X172481761Y-123769476D01*
X170021428Y-129627380D02*
X170354761Y-130627380D01*
X170688095Y-129627380D01*
X171545238Y-130627380D02*
X170973809Y-130627380D01*
X171259523Y-130627380D02*
X171259523Y-129627380D01*
X171164285Y-129770238D01*
X171069047Y-129865476D01*
X170973809Y-129913095D01*
X171973809Y-130246428D02*
X172735714Y-130246428D01*
X113053761Y-123792904D02*
X113101380Y-123650047D01*
X113101380Y-123411952D01*
X113053761Y-123316714D01*
X113006142Y-123269095D01*
X112910904Y-123221476D01*
X112815666Y-123221476D01*
X112720428Y-123269095D01*
X112672809Y-123316714D01*
X112625190Y-123411952D01*
X112577571Y-123602428D01*
X112529952Y-123697666D01*
X112482333Y-123745285D01*
X112387095Y-123792904D01*
X112291857Y-123792904D01*
X112196619Y-123745285D01*
X112149000Y-123697666D01*
X112101380Y-123602428D01*
X112101380Y-123364333D01*
X112149000Y-123221476D01*
X113101380Y-122792904D02*
X112434714Y-122792904D01*
X112101380Y-122792904D02*
X112149000Y-122840523D01*
X112196619Y-122792904D01*
X112149000Y-122745285D01*
X112101380Y-122792904D01*
X112196619Y-122792904D01*
X112434714Y-121888142D02*
X113244238Y-121888142D01*
X113339476Y-121935761D01*
X113387095Y-121983380D01*
X113434714Y-122078619D01*
X113434714Y-122221476D01*
X113387095Y-122316714D01*
X113053761Y-121888142D02*
X113101380Y-121983380D01*
X113101380Y-122173857D01*
X113053761Y-122269095D01*
X113006142Y-122316714D01*
X112910904Y-122364333D01*
X112625190Y-122364333D01*
X112529952Y-122316714D01*
X112482333Y-122269095D01*
X112434714Y-122173857D01*
X112434714Y-121983380D01*
X112482333Y-121888142D01*
X113006142Y-121411952D02*
X113053761Y-121364333D01*
X113101380Y-121411952D01*
X113053761Y-121459571D01*
X113006142Y-121411952D01*
X113101380Y-121411952D01*
X113101380Y-120459571D02*
X113101380Y-120935761D01*
X112101380Y-120935761D01*
X113101380Y-119983380D02*
X113053761Y-120078619D01*
X113006142Y-120126238D01*
X112910904Y-120173857D01*
X112625190Y-120173857D01*
X112529952Y-120126238D01*
X112482333Y-120078619D01*
X112434714Y-119983380D01*
X112434714Y-119840523D01*
X112482333Y-119745285D01*
X112529952Y-119697666D01*
X112625190Y-119650047D01*
X112910904Y-119650047D01*
X113006142Y-119697666D01*
X113053761Y-119745285D01*
X113101380Y-119840523D01*
X113101380Y-119983380D01*
X113053761Y-119269095D02*
X113101380Y-119173857D01*
X113101380Y-118983380D01*
X113053761Y-118888142D01*
X112958523Y-118840523D01*
X112910904Y-118840523D01*
X112815666Y-118888142D01*
X112768047Y-118983380D01*
X112768047Y-119126238D01*
X112720428Y-119221476D01*
X112625190Y-119269095D01*
X112577571Y-119269095D01*
X112482333Y-119221476D01*
X112434714Y-119126238D01*
X112434714Y-118983380D01*
X112482333Y-118888142D01*
X112434714Y-118554809D02*
X112434714Y-118173857D01*
X112101380Y-118411952D02*
X112958523Y-118411952D01*
X113053761Y-118364333D01*
X113101380Y-118269095D01*
X113101380Y-118173857D01*
X141001904Y-129944761D02*
X141144761Y-129992380D01*
X141382857Y-129992380D01*
X141478095Y-129944761D01*
X141525714Y-129897142D01*
X141573333Y-129801904D01*
X141573333Y-129706666D01*
X141525714Y-129611428D01*
X141478095Y-129563809D01*
X141382857Y-129516190D01*
X141192380Y-129468571D01*
X141097142Y-129420952D01*
X141049523Y-129373333D01*
X141001904Y-129278095D01*
X141001904Y-129182857D01*
X141049523Y-129087619D01*
X141097142Y-129040000D01*
X141192380Y-128992380D01*
X141430476Y-128992380D01*
X141573333Y-129040000D01*
X142192380Y-128992380D02*
X142287619Y-128992380D01*
X142382857Y-129040000D01*
X142430476Y-129087619D01*
X142478095Y-129182857D01*
X142525714Y-129373333D01*
X142525714Y-129611428D01*
X142478095Y-129801904D01*
X142430476Y-129897142D01*
X142382857Y-129944761D01*
X142287619Y-129992380D01*
X142192380Y-129992380D01*
X142097142Y-129944761D01*
X142049523Y-129897142D01*
X142001904Y-129801904D01*
X141954285Y-129611428D01*
X141954285Y-129373333D01*
X142001904Y-129182857D01*
X142049523Y-129087619D01*
X142097142Y-129040000D01*
X142192380Y-128992380D01*
X143097142Y-129420952D02*
X143001904Y-129373333D01*
X142954285Y-129325714D01*
X142906666Y-129230476D01*
X142906666Y-129182857D01*
X142954285Y-129087619D01*
X143001904Y-129040000D01*
X143097142Y-128992380D01*
X143287619Y-128992380D01*
X143382857Y-129040000D01*
X143430476Y-129087619D01*
X143478095Y-129182857D01*
X143478095Y-129230476D01*
X143430476Y-129325714D01*
X143382857Y-129373333D01*
X143287619Y-129420952D01*
X143097142Y-129420952D01*
X143001904Y-129468571D01*
X142954285Y-129516190D01*
X142906666Y-129611428D01*
X142906666Y-129801904D01*
X142954285Y-129897142D01*
X143001904Y-129944761D01*
X143097142Y-129992380D01*
X143287619Y-129992380D01*
X143382857Y-129944761D01*
X143430476Y-129897142D01*
X143478095Y-129801904D01*
X143478095Y-129611428D01*
X143430476Y-129516190D01*
X143382857Y-129468571D01*
X143287619Y-129420952D01*
X138461904Y-120419761D02*
X138604761Y-120467380D01*
X138842857Y-120467380D01*
X138938095Y-120419761D01*
X138985714Y-120372142D01*
X139033333Y-120276904D01*
X139033333Y-120181666D01*
X138985714Y-120086428D01*
X138938095Y-120038809D01*
X138842857Y-119991190D01*
X138652380Y-119943571D01*
X138557142Y-119895952D01*
X138509523Y-119848333D01*
X138461904Y-119753095D01*
X138461904Y-119657857D01*
X138509523Y-119562619D01*
X138557142Y-119515000D01*
X138652380Y-119467380D01*
X138890476Y-119467380D01*
X139033333Y-119515000D01*
X139652380Y-119467380D02*
X139747619Y-119467380D01*
X139842857Y-119515000D01*
X139890476Y-119562619D01*
X139938095Y-119657857D01*
X139985714Y-119848333D01*
X139985714Y-120086428D01*
X139938095Y-120276904D01*
X139890476Y-120372142D01*
X139842857Y-120419761D01*
X139747619Y-120467380D01*
X139652380Y-120467380D01*
X139557142Y-120419761D01*
X139509523Y-120372142D01*
X139461904Y-120276904D01*
X139414285Y-120086428D01*
X139414285Y-119848333D01*
X139461904Y-119657857D01*
X139509523Y-119562619D01*
X139557142Y-119515000D01*
X139652380Y-119467380D01*
X140319047Y-119467380D02*
X140985714Y-119467380D01*
X140557142Y-120467380D01*
X135921904Y-129944761D02*
X136064761Y-129992380D01*
X136302857Y-129992380D01*
X136398095Y-129944761D01*
X136445714Y-129897142D01*
X136493333Y-129801904D01*
X136493333Y-129706666D01*
X136445714Y-129611428D01*
X136398095Y-129563809D01*
X136302857Y-129516190D01*
X136112380Y-129468571D01*
X136017142Y-129420952D01*
X135969523Y-129373333D01*
X135921904Y-129278095D01*
X135921904Y-129182857D01*
X135969523Y-129087619D01*
X136017142Y-129040000D01*
X136112380Y-128992380D01*
X136350476Y-128992380D01*
X136493333Y-129040000D01*
X137112380Y-128992380D02*
X137207619Y-128992380D01*
X137302857Y-129040000D01*
X137350476Y-129087619D01*
X137398095Y-129182857D01*
X137445714Y-129373333D01*
X137445714Y-129611428D01*
X137398095Y-129801904D01*
X137350476Y-129897142D01*
X137302857Y-129944761D01*
X137207619Y-129992380D01*
X137112380Y-129992380D01*
X137017142Y-129944761D01*
X136969523Y-129897142D01*
X136921904Y-129801904D01*
X136874285Y-129611428D01*
X136874285Y-129373333D01*
X136921904Y-129182857D01*
X136969523Y-129087619D01*
X137017142Y-129040000D01*
X137112380Y-128992380D01*
X138302857Y-128992380D02*
X138112380Y-128992380D01*
X138017142Y-129040000D01*
X137969523Y-129087619D01*
X137874285Y-129230476D01*
X137826666Y-129420952D01*
X137826666Y-129801904D01*
X137874285Y-129897142D01*
X137921904Y-129944761D01*
X138017142Y-129992380D01*
X138207619Y-129992380D01*
X138302857Y-129944761D01*
X138350476Y-129897142D01*
X138398095Y-129801904D01*
X138398095Y-129563809D01*
X138350476Y-129468571D01*
X138302857Y-129420952D01*
X138207619Y-129373333D01*
X138017142Y-129373333D01*
X137921904Y-129420952D01*
X137874285Y-129468571D01*
X137826666Y-129563809D01*
X133381904Y-120292761D02*
X133524761Y-120340380D01*
X133762857Y-120340380D01*
X133858095Y-120292761D01*
X133905714Y-120245142D01*
X133953333Y-120149904D01*
X133953333Y-120054666D01*
X133905714Y-119959428D01*
X133858095Y-119911809D01*
X133762857Y-119864190D01*
X133572380Y-119816571D01*
X133477142Y-119768952D01*
X133429523Y-119721333D01*
X133381904Y-119626095D01*
X133381904Y-119530857D01*
X133429523Y-119435619D01*
X133477142Y-119388000D01*
X133572380Y-119340380D01*
X133810476Y-119340380D01*
X133953333Y-119388000D01*
X134572380Y-119340380D02*
X134667619Y-119340380D01*
X134762857Y-119388000D01*
X134810476Y-119435619D01*
X134858095Y-119530857D01*
X134905714Y-119721333D01*
X134905714Y-119959428D01*
X134858095Y-120149904D01*
X134810476Y-120245142D01*
X134762857Y-120292761D01*
X134667619Y-120340380D01*
X134572380Y-120340380D01*
X134477142Y-120292761D01*
X134429523Y-120245142D01*
X134381904Y-120149904D01*
X134334285Y-119959428D01*
X134334285Y-119721333D01*
X134381904Y-119530857D01*
X134429523Y-119435619D01*
X134477142Y-119388000D01*
X134572380Y-119340380D01*
X135810476Y-119340380D02*
X135334285Y-119340380D01*
X135286666Y-119816571D01*
X135334285Y-119768952D01*
X135429523Y-119721333D01*
X135667619Y-119721333D01*
X135762857Y-119768952D01*
X135810476Y-119816571D01*
X135858095Y-119911809D01*
X135858095Y-120149904D01*
X135810476Y-120245142D01*
X135762857Y-120292761D01*
X135667619Y-120340380D01*
X135429523Y-120340380D01*
X135334285Y-120292761D01*
X135286666Y-120245142D01*
X130841904Y-129944761D02*
X130984761Y-129992380D01*
X131222857Y-129992380D01*
X131318095Y-129944761D01*
X131365714Y-129897142D01*
X131413333Y-129801904D01*
X131413333Y-129706666D01*
X131365714Y-129611428D01*
X131318095Y-129563809D01*
X131222857Y-129516190D01*
X131032380Y-129468571D01*
X130937142Y-129420952D01*
X130889523Y-129373333D01*
X130841904Y-129278095D01*
X130841904Y-129182857D01*
X130889523Y-129087619D01*
X130937142Y-129040000D01*
X131032380Y-128992380D01*
X131270476Y-128992380D01*
X131413333Y-129040000D01*
X132032380Y-128992380D02*
X132127619Y-128992380D01*
X132222857Y-129040000D01*
X132270476Y-129087619D01*
X132318095Y-129182857D01*
X132365714Y-129373333D01*
X132365714Y-129611428D01*
X132318095Y-129801904D01*
X132270476Y-129897142D01*
X132222857Y-129944761D01*
X132127619Y-129992380D01*
X132032380Y-129992380D01*
X131937142Y-129944761D01*
X131889523Y-129897142D01*
X131841904Y-129801904D01*
X131794285Y-129611428D01*
X131794285Y-129373333D01*
X131841904Y-129182857D01*
X131889523Y-129087619D01*
X131937142Y-129040000D01*
X132032380Y-128992380D01*
X133222857Y-129325714D02*
X133222857Y-129992380D01*
X132984761Y-128944761D02*
X132746666Y-129659047D01*
X133365714Y-129659047D01*
X128301904Y-120419761D02*
X128444761Y-120467380D01*
X128682857Y-120467380D01*
X128778095Y-120419761D01*
X128825714Y-120372142D01*
X128873333Y-120276904D01*
X128873333Y-120181666D01*
X128825714Y-120086428D01*
X128778095Y-120038809D01*
X128682857Y-119991190D01*
X128492380Y-119943571D01*
X128397142Y-119895952D01*
X128349523Y-119848333D01*
X128301904Y-119753095D01*
X128301904Y-119657857D01*
X128349523Y-119562619D01*
X128397142Y-119515000D01*
X128492380Y-119467380D01*
X128730476Y-119467380D01*
X128873333Y-119515000D01*
X129492380Y-119467380D02*
X129587619Y-119467380D01*
X129682857Y-119515000D01*
X129730476Y-119562619D01*
X129778095Y-119657857D01*
X129825714Y-119848333D01*
X129825714Y-120086428D01*
X129778095Y-120276904D01*
X129730476Y-120372142D01*
X129682857Y-120419761D01*
X129587619Y-120467380D01*
X129492380Y-120467380D01*
X129397142Y-120419761D01*
X129349523Y-120372142D01*
X129301904Y-120276904D01*
X129254285Y-120086428D01*
X129254285Y-119848333D01*
X129301904Y-119657857D01*
X129349523Y-119562619D01*
X129397142Y-119515000D01*
X129492380Y-119467380D01*
X130159047Y-119467380D02*
X130778095Y-119467380D01*
X130444761Y-119848333D01*
X130587619Y-119848333D01*
X130682857Y-119895952D01*
X130730476Y-119943571D01*
X130778095Y-120038809D01*
X130778095Y-120276904D01*
X130730476Y-120372142D01*
X130682857Y-120419761D01*
X130587619Y-120467380D01*
X130301904Y-120467380D01*
X130206666Y-120419761D01*
X130159047Y-120372142D01*
X125761904Y-129944761D02*
X125904761Y-129992380D01*
X126142857Y-129992380D01*
X126238095Y-129944761D01*
X126285714Y-129897142D01*
X126333333Y-129801904D01*
X126333333Y-129706666D01*
X126285714Y-129611428D01*
X126238095Y-129563809D01*
X126142857Y-129516190D01*
X125952380Y-129468571D01*
X125857142Y-129420952D01*
X125809523Y-129373333D01*
X125761904Y-129278095D01*
X125761904Y-129182857D01*
X125809523Y-129087619D01*
X125857142Y-129040000D01*
X125952380Y-128992380D01*
X126190476Y-128992380D01*
X126333333Y-129040000D01*
X126952380Y-128992380D02*
X127047619Y-128992380D01*
X127142857Y-129040000D01*
X127190476Y-129087619D01*
X127238095Y-129182857D01*
X127285714Y-129373333D01*
X127285714Y-129611428D01*
X127238095Y-129801904D01*
X127190476Y-129897142D01*
X127142857Y-129944761D01*
X127047619Y-129992380D01*
X126952380Y-129992380D01*
X126857142Y-129944761D01*
X126809523Y-129897142D01*
X126761904Y-129801904D01*
X126714285Y-129611428D01*
X126714285Y-129373333D01*
X126761904Y-129182857D01*
X126809523Y-129087619D01*
X126857142Y-129040000D01*
X126952380Y-128992380D01*
X127666666Y-129087619D02*
X127714285Y-129040000D01*
X127809523Y-128992380D01*
X128047619Y-128992380D01*
X128142857Y-129040000D01*
X128190476Y-129087619D01*
X128238095Y-129182857D01*
X128238095Y-129278095D01*
X128190476Y-129420952D01*
X127619047Y-129992380D01*
X128238095Y-129992380D01*
X123221904Y-120292761D02*
X123364761Y-120340380D01*
X123602857Y-120340380D01*
X123698095Y-120292761D01*
X123745714Y-120245142D01*
X123793333Y-120149904D01*
X123793333Y-120054666D01*
X123745714Y-119959428D01*
X123698095Y-119911809D01*
X123602857Y-119864190D01*
X123412380Y-119816571D01*
X123317142Y-119768952D01*
X123269523Y-119721333D01*
X123221904Y-119626095D01*
X123221904Y-119530857D01*
X123269523Y-119435619D01*
X123317142Y-119388000D01*
X123412380Y-119340380D01*
X123650476Y-119340380D01*
X123793333Y-119388000D01*
X124412380Y-119340380D02*
X124507619Y-119340380D01*
X124602857Y-119388000D01*
X124650476Y-119435619D01*
X124698095Y-119530857D01*
X124745714Y-119721333D01*
X124745714Y-119959428D01*
X124698095Y-120149904D01*
X124650476Y-120245142D01*
X124602857Y-120292761D01*
X124507619Y-120340380D01*
X124412380Y-120340380D01*
X124317142Y-120292761D01*
X124269523Y-120245142D01*
X124221904Y-120149904D01*
X124174285Y-119959428D01*
X124174285Y-119721333D01*
X124221904Y-119530857D01*
X124269523Y-119435619D01*
X124317142Y-119388000D01*
X124412380Y-119340380D01*
X125698095Y-120340380D02*
X125126666Y-120340380D01*
X125412380Y-120340380D02*
X125412380Y-119340380D01*
X125317142Y-119483238D01*
X125221904Y-119578476D01*
X125126666Y-119626095D01*
X123094904Y-72159761D02*
X123237761Y-72207380D01*
X123475857Y-72207380D01*
X123571095Y-72159761D01*
X123618714Y-72112142D01*
X123666333Y-72016904D01*
X123666333Y-71921666D01*
X123618714Y-71826428D01*
X123571095Y-71778809D01*
X123475857Y-71731190D01*
X123285380Y-71683571D01*
X123190142Y-71635952D01*
X123142523Y-71588333D01*
X123094904Y-71493095D01*
X123094904Y-71397857D01*
X123142523Y-71302619D01*
X123190142Y-71255000D01*
X123285380Y-71207380D01*
X123523476Y-71207380D01*
X123666333Y-71255000D01*
X124618714Y-72207380D02*
X124047285Y-72207380D01*
X124333000Y-72207380D02*
X124333000Y-71207380D01*
X124237761Y-71350238D01*
X124142523Y-71445476D01*
X124047285Y-71493095D01*
X125475857Y-71207380D02*
X125285380Y-71207380D01*
X125190142Y-71255000D01*
X125142523Y-71302619D01*
X125047285Y-71445476D01*
X124999666Y-71635952D01*
X124999666Y-72016904D01*
X125047285Y-72112142D01*
X125094904Y-72159761D01*
X125190142Y-72207380D01*
X125380619Y-72207380D01*
X125475857Y-72159761D01*
X125523476Y-72112142D01*
X125571095Y-72016904D01*
X125571095Y-71778809D01*
X125523476Y-71683571D01*
X125475857Y-71635952D01*
X125380619Y-71588333D01*
X125190142Y-71588333D01*
X125094904Y-71635952D01*
X125047285Y-71683571D01*
X124999666Y-71778809D01*
X125761904Y-81176761D02*
X125904761Y-81224380D01*
X126142857Y-81224380D01*
X126238095Y-81176761D01*
X126285714Y-81129142D01*
X126333333Y-81033904D01*
X126333333Y-80938666D01*
X126285714Y-80843428D01*
X126238095Y-80795809D01*
X126142857Y-80748190D01*
X125952380Y-80700571D01*
X125857142Y-80652952D01*
X125809523Y-80605333D01*
X125761904Y-80510095D01*
X125761904Y-80414857D01*
X125809523Y-80319619D01*
X125857142Y-80272000D01*
X125952380Y-80224380D01*
X126190476Y-80224380D01*
X126333333Y-80272000D01*
X127285714Y-81224380D02*
X126714285Y-81224380D01*
X127000000Y-81224380D02*
X127000000Y-80224380D01*
X126904761Y-80367238D01*
X126809523Y-80462476D01*
X126714285Y-80510095D01*
X128190476Y-80224380D02*
X127714285Y-80224380D01*
X127666666Y-80700571D01*
X127714285Y-80652952D01*
X127809523Y-80605333D01*
X128047619Y-80605333D01*
X128142857Y-80652952D01*
X128190476Y-80700571D01*
X128238095Y-80795809D01*
X128238095Y-81033904D01*
X128190476Y-81129142D01*
X128142857Y-81176761D01*
X128047619Y-81224380D01*
X127809523Y-81224380D01*
X127714285Y-81176761D01*
X127666666Y-81129142D01*
X128174904Y-72159761D02*
X128317761Y-72207380D01*
X128555857Y-72207380D01*
X128651095Y-72159761D01*
X128698714Y-72112142D01*
X128746333Y-72016904D01*
X128746333Y-71921666D01*
X128698714Y-71826428D01*
X128651095Y-71778809D01*
X128555857Y-71731190D01*
X128365380Y-71683571D01*
X128270142Y-71635952D01*
X128222523Y-71588333D01*
X128174904Y-71493095D01*
X128174904Y-71397857D01*
X128222523Y-71302619D01*
X128270142Y-71255000D01*
X128365380Y-71207380D01*
X128603476Y-71207380D01*
X128746333Y-71255000D01*
X129698714Y-72207380D02*
X129127285Y-72207380D01*
X129413000Y-72207380D02*
X129413000Y-71207380D01*
X129317761Y-71350238D01*
X129222523Y-71445476D01*
X129127285Y-71493095D01*
X130555857Y-71540714D02*
X130555857Y-72207380D01*
X130317761Y-71159761D02*
X130079666Y-71874047D01*
X130698714Y-71874047D01*
X130841904Y-81176761D02*
X130984761Y-81224380D01*
X131222857Y-81224380D01*
X131318095Y-81176761D01*
X131365714Y-81129142D01*
X131413333Y-81033904D01*
X131413333Y-80938666D01*
X131365714Y-80843428D01*
X131318095Y-80795809D01*
X131222857Y-80748190D01*
X131032380Y-80700571D01*
X130937142Y-80652952D01*
X130889523Y-80605333D01*
X130841904Y-80510095D01*
X130841904Y-80414857D01*
X130889523Y-80319619D01*
X130937142Y-80272000D01*
X131032380Y-80224380D01*
X131270476Y-80224380D01*
X131413333Y-80272000D01*
X132365714Y-81224380D02*
X131794285Y-81224380D01*
X132080000Y-81224380D02*
X132080000Y-80224380D01*
X131984761Y-80367238D01*
X131889523Y-80462476D01*
X131794285Y-80510095D01*
X132699047Y-80224380D02*
X133318095Y-80224380D01*
X132984761Y-80605333D01*
X133127619Y-80605333D01*
X133222857Y-80652952D01*
X133270476Y-80700571D01*
X133318095Y-80795809D01*
X133318095Y-81033904D01*
X133270476Y-81129142D01*
X133222857Y-81176761D01*
X133127619Y-81224380D01*
X132841904Y-81224380D01*
X132746666Y-81176761D01*
X132699047Y-81129142D01*
X133381904Y-72159761D02*
X133524761Y-72207380D01*
X133762857Y-72207380D01*
X133858095Y-72159761D01*
X133905714Y-72112142D01*
X133953333Y-72016904D01*
X133953333Y-71921666D01*
X133905714Y-71826428D01*
X133858095Y-71778809D01*
X133762857Y-71731190D01*
X133572380Y-71683571D01*
X133477142Y-71635952D01*
X133429523Y-71588333D01*
X133381904Y-71493095D01*
X133381904Y-71397857D01*
X133429523Y-71302619D01*
X133477142Y-71255000D01*
X133572380Y-71207380D01*
X133810476Y-71207380D01*
X133953333Y-71255000D01*
X134905714Y-72207380D02*
X134334285Y-72207380D01*
X134620000Y-72207380D02*
X134620000Y-71207380D01*
X134524761Y-71350238D01*
X134429523Y-71445476D01*
X134334285Y-71493095D01*
X135286666Y-71302619D02*
X135334285Y-71255000D01*
X135429523Y-71207380D01*
X135667619Y-71207380D01*
X135762857Y-71255000D01*
X135810476Y-71302619D01*
X135858095Y-71397857D01*
X135858095Y-71493095D01*
X135810476Y-71635952D01*
X135239047Y-72207380D01*
X135858095Y-72207380D01*
X136048904Y-81176761D02*
X136191761Y-81224380D01*
X136429857Y-81224380D01*
X136525095Y-81176761D01*
X136572714Y-81129142D01*
X136620333Y-81033904D01*
X136620333Y-80938666D01*
X136572714Y-80843428D01*
X136525095Y-80795809D01*
X136429857Y-80748190D01*
X136239380Y-80700571D01*
X136144142Y-80652952D01*
X136096523Y-80605333D01*
X136048904Y-80510095D01*
X136048904Y-80414857D01*
X136096523Y-80319619D01*
X136144142Y-80272000D01*
X136239380Y-80224380D01*
X136477476Y-80224380D01*
X136620333Y-80272000D01*
X137572714Y-81224380D02*
X137001285Y-81224380D01*
X137287000Y-81224380D02*
X137287000Y-80224380D01*
X137191761Y-80367238D01*
X137096523Y-80462476D01*
X137001285Y-80510095D01*
X138525095Y-81224380D02*
X137953666Y-81224380D01*
X138239380Y-81224380D02*
X138239380Y-80224380D01*
X138144142Y-80367238D01*
X138048904Y-80462476D01*
X137953666Y-80510095D01*
X138461904Y-72159761D02*
X138604761Y-72207380D01*
X138842857Y-72207380D01*
X138938095Y-72159761D01*
X138985714Y-72112142D01*
X139033333Y-72016904D01*
X139033333Y-71921666D01*
X138985714Y-71826428D01*
X138938095Y-71778809D01*
X138842857Y-71731190D01*
X138652380Y-71683571D01*
X138557142Y-71635952D01*
X138509523Y-71588333D01*
X138461904Y-71493095D01*
X138461904Y-71397857D01*
X138509523Y-71302619D01*
X138557142Y-71255000D01*
X138652380Y-71207380D01*
X138890476Y-71207380D01*
X139033333Y-71255000D01*
X139985714Y-72207380D02*
X139414285Y-72207380D01*
X139700000Y-72207380D02*
X139700000Y-71207380D01*
X139604761Y-71350238D01*
X139509523Y-71445476D01*
X139414285Y-71493095D01*
X140604761Y-71207380D02*
X140700000Y-71207380D01*
X140795238Y-71255000D01*
X140842857Y-71302619D01*
X140890476Y-71397857D01*
X140938095Y-71588333D01*
X140938095Y-71826428D01*
X140890476Y-72016904D01*
X140842857Y-72112142D01*
X140795238Y-72159761D01*
X140700000Y-72207380D01*
X140604761Y-72207380D01*
X140509523Y-72159761D01*
X140461904Y-72112142D01*
X140414285Y-72016904D01*
X140366666Y-71826428D01*
X140366666Y-71588333D01*
X140414285Y-71397857D01*
X140461904Y-71302619D01*
X140509523Y-71255000D01*
X140604761Y-71207380D01*
X140874904Y-81303761D02*
X141017761Y-81351380D01*
X141255857Y-81351380D01*
X141351095Y-81303761D01*
X141398714Y-81256142D01*
X141446333Y-81160904D01*
X141446333Y-81065666D01*
X141398714Y-80970428D01*
X141351095Y-80922809D01*
X141255857Y-80875190D01*
X141065380Y-80827571D01*
X140970142Y-80779952D01*
X140922523Y-80732333D01*
X140874904Y-80637095D01*
X140874904Y-80541857D01*
X140922523Y-80446619D01*
X140970142Y-80399000D01*
X141065380Y-80351380D01*
X141303476Y-80351380D01*
X141446333Y-80399000D01*
X142065380Y-80351380D02*
X142160619Y-80351380D01*
X142255857Y-80399000D01*
X142303476Y-80446619D01*
X142351095Y-80541857D01*
X142398714Y-80732333D01*
X142398714Y-80970428D01*
X142351095Y-81160904D01*
X142303476Y-81256142D01*
X142255857Y-81303761D01*
X142160619Y-81351380D01*
X142065380Y-81351380D01*
X141970142Y-81303761D01*
X141922523Y-81256142D01*
X141874904Y-81160904D01*
X141827285Y-80970428D01*
X141827285Y-80732333D01*
X141874904Y-80541857D01*
X141922523Y-80446619D01*
X141970142Y-80399000D01*
X142065380Y-80351380D01*
X142874904Y-81351380D02*
X143065380Y-81351380D01*
X143160619Y-81303761D01*
X143208238Y-81256142D01*
X143303476Y-81113285D01*
X143351095Y-80922809D01*
X143351095Y-80541857D01*
X143303476Y-80446619D01*
X143255857Y-80399000D01*
X143160619Y-80351380D01*
X142970142Y-80351380D01*
X142874904Y-80399000D01*
X142827285Y-80446619D01*
X142779666Y-80541857D01*
X142779666Y-80779952D01*
X142827285Y-80875190D01*
X142874904Y-80922809D01*
X142970142Y-80970428D01*
X143160619Y-80970428D01*
X143255857Y-80922809D01*
X143303476Y-80875190D01*
X143351095Y-80779952D01*
D12*
X187960000Y-130810000D02*
X187960000Y-72390000D01*
X166370000Y-72390000D02*
X166370000Y-130810000D01*
X148650000Y-106620000D02*
X148650000Y-94040000D01*
X143570000Y-128330000D02*
X143570000Y-125670000D01*
X125730000Y-128330000D02*
X143570000Y-128330000D01*
X125730000Y-125670000D02*
X143570000Y-125670000D01*
X125730000Y-128330000D02*
X125730000Y-125670000D01*
X124460000Y-128330000D02*
X123130000Y-128330000D01*
X123130000Y-128330000D02*
X123130000Y-127000000D01*
X143570000Y-125790000D02*
X143570000Y-123130000D01*
X125730000Y-125790000D02*
X143570000Y-125790000D01*
X125730000Y-123130000D02*
X143570000Y-123130000D01*
X125730000Y-125790000D02*
X125730000Y-123130000D01*
X124460000Y-125790000D02*
X123130000Y-125790000D01*
X123130000Y-125790000D02*
X123130000Y-124460000D01*
X193810000Y-123420000D02*
X193810000Y-126920000D01*
X193810000Y-126920000D02*
X191810000Y-126920000D01*
X191810000Y-126920000D02*
X191810000Y-123420000D01*
X193810000Y-126920000D02*
X201810000Y-126920000D01*
X201810000Y-126920000D02*
X201810000Y-116920000D01*
X201810000Y-116920000D02*
X193810000Y-116920000D01*
X193810000Y-120420000D02*
X193810000Y-82920000D01*
X193810000Y-79920000D02*
X193810000Y-77420000D01*
X193810000Y-77420000D02*
X191810000Y-77420000D01*
X191810000Y-77420000D02*
X191810000Y-80420000D01*
X191810000Y-82420000D02*
X191810000Y-120420000D01*
X193810000Y-102920000D02*
X205310000Y-102920000D01*
X205310000Y-102920000D02*
X205310000Y-87920000D01*
X205310000Y-87920000D02*
X193810000Y-87920000D01*
X193810000Y-87420000D02*
X201810000Y-87420000D01*
X201810000Y-87420000D02*
X201810000Y-77420000D01*
X201810000Y-77420000D02*
X193810000Y-77420000D01*
X179966000Y-125780000D02*
X171966000Y-125780000D01*
X179966000Y-115780000D02*
X179966000Y-125780000D01*
X171966000Y-115780000D02*
X179966000Y-115780000D01*
X183466000Y-115280000D02*
X171966000Y-115280000D01*
X183466000Y-100280000D02*
X183466000Y-115280000D01*
X171966000Y-100280000D02*
X183466000Y-100280000D01*
X169966000Y-120780000D02*
X169966000Y-82780000D01*
X169966000Y-125780000D02*
X169966000Y-122780000D01*
X171966000Y-125780000D02*
X169966000Y-125780000D01*
X171966000Y-123280000D02*
X171966000Y-125780000D01*
X171966000Y-82780000D02*
X171966000Y-120280000D01*
X179966000Y-86280000D02*
X171966000Y-86280000D01*
X179966000Y-76280000D02*
X179966000Y-86280000D01*
X171966000Y-76280000D02*
X179966000Y-76280000D01*
X169966000Y-76280000D02*
X169966000Y-79780000D01*
X171966000Y-76280000D02*
X169966000Y-76280000D01*
X171966000Y-76280000D02*
X171966000Y-79780000D01*
X166300000Y-77410000D02*
X157670000Y-77410000D01*
X166300000Y-77291905D02*
X157670000Y-77291905D01*
X166300000Y-77173810D02*
X157670000Y-77173810D01*
X166300000Y-77055715D02*
X157670000Y-77055715D01*
X166300000Y-76937620D02*
X157670000Y-76937620D01*
X166300000Y-76819525D02*
X157670000Y-76819525D01*
X166300000Y-76701430D02*
X157670000Y-76701430D01*
X166300000Y-76583335D02*
X157670000Y-76583335D01*
X166300000Y-76465240D02*
X157670000Y-76465240D01*
X166300000Y-76347145D02*
X157670000Y-76347145D01*
X166300000Y-76229050D02*
X157670000Y-76229050D01*
X166300000Y-76110955D02*
X157670000Y-76110955D01*
X166300000Y-75992860D02*
X157670000Y-75992860D01*
X166300000Y-75874765D02*
X157670000Y-75874765D01*
X166300000Y-75756670D02*
X157670000Y-75756670D01*
X166300000Y-75638575D02*
X157670000Y-75638575D01*
X166300000Y-75520480D02*
X157670000Y-75520480D01*
X166300000Y-75402385D02*
X157670000Y-75402385D01*
X166300000Y-75284290D02*
X157670000Y-75284290D01*
X166300000Y-75166195D02*
X157670000Y-75166195D01*
X166300000Y-75048100D02*
X157670000Y-75048100D01*
X157670000Y-76560000D02*
X157260000Y-76560000D01*
X155160000Y-76560000D02*
X154780000Y-76560000D01*
X157670000Y-75840000D02*
X157260000Y-75840000D01*
X155160000Y-75840000D02*
X154780000Y-75840000D01*
X157670000Y-74020000D02*
X157260000Y-74020000D01*
X155160000Y-74020000D02*
X154720000Y-74020000D01*
X157670000Y-73300000D02*
X157260000Y-73300000D01*
X155160000Y-73300000D02*
X154720000Y-73300000D01*
X166300000Y-74930000D02*
X157670000Y-74930000D01*
X166300000Y-77530000D02*
X157670000Y-77530000D01*
X157670000Y-77530000D02*
X157670000Y-72330000D01*
X166300000Y-72330000D02*
X157670000Y-72330000D01*
X166300000Y-77530000D02*
X166300000Y-72330000D01*
X152560000Y-77530000D02*
X152560000Y-76200000D01*
X153670000Y-77530000D02*
X152560000Y-77530000D01*
X187890000Y-77410000D02*
X179260000Y-77410000D01*
X187890000Y-77291905D02*
X179260000Y-77291905D01*
X187890000Y-77173810D02*
X179260000Y-77173810D01*
X187890000Y-77055715D02*
X179260000Y-77055715D01*
X187890000Y-76937620D02*
X179260000Y-76937620D01*
X187890000Y-76819525D02*
X179260000Y-76819525D01*
X187890000Y-76701430D02*
X179260000Y-76701430D01*
X187890000Y-76583335D02*
X179260000Y-76583335D01*
X187890000Y-76465240D02*
X179260000Y-76465240D01*
X187890000Y-76347145D02*
X179260000Y-76347145D01*
X187890000Y-76229050D02*
X179260000Y-76229050D01*
X187890000Y-76110955D02*
X179260000Y-76110955D01*
X187890000Y-75992860D02*
X179260000Y-75992860D01*
X187890000Y-75874765D02*
X179260000Y-75874765D01*
X187890000Y-75756670D02*
X179260000Y-75756670D01*
X187890000Y-75638575D02*
X179260000Y-75638575D01*
X187890000Y-75520480D02*
X179260000Y-75520480D01*
X187890000Y-75402385D02*
X179260000Y-75402385D01*
X187890000Y-75284290D02*
X179260000Y-75284290D01*
X187890000Y-75166195D02*
X179260000Y-75166195D01*
X187890000Y-75048100D02*
X179260000Y-75048100D01*
X179260000Y-76560000D02*
X178850000Y-76560000D01*
X176750000Y-76560000D02*
X176370000Y-76560000D01*
X179260000Y-75840000D02*
X178850000Y-75840000D01*
X176750000Y-75840000D02*
X176370000Y-75840000D01*
X179260000Y-74020000D02*
X178850000Y-74020000D01*
X176750000Y-74020000D02*
X176310000Y-74020000D01*
X179260000Y-73300000D02*
X178850000Y-73300000D01*
X176750000Y-73300000D02*
X176310000Y-73300000D01*
X187890000Y-74930000D02*
X179260000Y-74930000D01*
X187890000Y-77530000D02*
X179260000Y-77530000D01*
X179260000Y-77530000D02*
X179260000Y-72330000D01*
X187890000Y-72330000D02*
X179260000Y-72330000D01*
X187890000Y-77530000D02*
X187890000Y-72330000D01*
X174150000Y-77530000D02*
X174150000Y-76200000D01*
X175260000Y-77530000D02*
X174150000Y-77530000D01*
X185991500Y-99695000D02*
X185991500Y-87312500D01*
X175958500Y-87312500D02*
X175958500Y-99695000D01*
X175975000Y-87305000D02*
X185975000Y-87305000D01*
X175975000Y-99695000D02*
X185975000Y-99695000D01*
X118050000Y-92710000D02*
X118050000Y-91380000D01*
X118050000Y-91380000D02*
X119380000Y-91380000D01*
X120650000Y-91380000D02*
X148650000Y-91380000D01*
X148650000Y-94040000D02*
X148650000Y-91380000D01*
X120650000Y-94040000D02*
X148650000Y-94040000D01*
X120650000Y-94040000D02*
X120650000Y-91380000D01*
X118050000Y-107950000D02*
X118050000Y-106620000D01*
X118050000Y-106620000D02*
X119380000Y-106620000D01*
X120650000Y-106620000D02*
X148650000Y-106620000D01*
X148650000Y-109280000D02*
X148650000Y-106620000D01*
X120650000Y-109280000D02*
X148650000Y-109280000D01*
X120650000Y-109280000D02*
X120650000Y-106620000D01*
X158170000Y-93450000D02*
X158170000Y-97050000D01*
X158181522Y-93411522D02*
G75*
G02X162620000Y-95250000I1838478J-1838478D01*
G01*
X158181522Y-97088478D02*
G75*
G03X162620000Y-95250000I1838478J1838478D01*
G01*
X146110000Y-115300000D02*
G75*
G02X146110000Y-113300000I0J1000000D01*
G01*
X146110000Y-113300000D02*
X146110000Y-111650000D01*
X146110000Y-111650000D02*
X123130000Y-111650000D01*
X123130000Y-111650000D02*
X123130000Y-116950000D01*
X123130000Y-116950000D02*
X146110000Y-116950000D01*
X146110000Y-116950000D02*
X146110000Y-115300000D01*
X152460000Y-100270000D02*
X149800000Y-100270000D01*
X152460000Y-107950000D02*
X152460000Y-100270000D01*
X149800000Y-107950000D02*
X149800000Y-100270000D01*
X152460000Y-107950000D02*
X149800000Y-107950000D01*
X152460000Y-109220000D02*
X152460000Y-110550000D01*
X152460000Y-110550000D02*
X151130000Y-110550000D01*
X155000000Y-110550000D02*
X153670000Y-110550000D01*
X155000000Y-109220000D02*
X155000000Y-110550000D01*
X155000000Y-107950000D02*
X152340000Y-107950000D01*
X152340000Y-107950000D02*
X152340000Y-100270000D01*
X155000000Y-107950000D02*
X155000000Y-100270000D01*
X155000000Y-100270000D02*
X152340000Y-100270000D01*
X157540000Y-100270000D02*
X154880000Y-100270000D01*
X157540000Y-107950000D02*
X157540000Y-100270000D01*
X154880000Y-107950000D02*
X154880000Y-100270000D01*
X157540000Y-107950000D02*
X154880000Y-107950000D01*
X157540000Y-109220000D02*
X157540000Y-110550000D01*
X157540000Y-110550000D02*
X156210000Y-110550000D01*
X123130000Y-123250000D02*
X123130000Y-121920000D01*
X124460000Y-123250000D02*
X123130000Y-123250000D01*
X125730000Y-123250000D02*
X125730000Y-120590000D01*
X125730000Y-120590000D02*
X143570000Y-120590000D01*
X125730000Y-123250000D02*
X143570000Y-123250000D01*
X143570000Y-123250000D02*
X143570000Y-120590000D01*
X123130000Y-77410000D02*
X123130000Y-80070000D01*
X140970000Y-77410000D02*
X123130000Y-77410000D01*
X140970000Y-80070000D02*
X123130000Y-80070000D01*
X140970000Y-77410000D02*
X140970000Y-80070000D01*
X142240000Y-77410000D02*
X143570000Y-77410000D01*
X143570000Y-77410000D02*
X143570000Y-78740000D01*
X143570000Y-74870000D02*
X143570000Y-76200000D01*
X142240000Y-74870000D02*
X143570000Y-74870000D01*
X140970000Y-74870000D02*
X140970000Y-77530000D01*
X140970000Y-77530000D02*
X123130000Y-77530000D01*
X140970000Y-74870000D02*
X123130000Y-74870000D01*
X123130000Y-74870000D02*
X123130000Y-77530000D01*
X123130000Y-72330000D02*
X123130000Y-74990000D01*
X140970000Y-72330000D02*
X123130000Y-72330000D01*
X140970000Y-74990000D02*
X123130000Y-74990000D01*
X140970000Y-72330000D02*
X140970000Y-74990000D01*
X142240000Y-72330000D02*
X143570000Y-72330000D01*
X143570000Y-72330000D02*
X143570000Y-73660000D01*
X157130000Y-96520000D02*
G75*
G03X157130000Y-96520000I-920000J0D01*
G01*
X156210000Y-95600000D02*
X156210000Y-94980000D01*
X152050000Y-96520000D02*
G75*
G03X152050000Y-96520000I-920000J0D01*
G01*
X151130000Y-95600000D02*
X151130000Y-94980000D01*
X153670000Y-95600000D02*
X153670000Y-94980000D01*
X154590000Y-96520000D02*
G75*
G03X154590000Y-96520000I-920000J0D01*
G01*
X153130000Y-121900000D02*
G75*
G03X153130000Y-121900000I-3270000J0D01*
G01*
X153090000Y-121900000D02*
X146630000Y-121900000D01*
X153090000Y-121940000D02*
X146630000Y-121940000D01*
X153090000Y-121980000D02*
X146630000Y-121980000D01*
X153088000Y-122020000D02*
X146632000Y-122020000D01*
X153087000Y-122060000D02*
X146633000Y-122060000D01*
X153084000Y-122100000D02*
X146636000Y-122100000D01*
X153082000Y-122140000D02*
X150900000Y-122140000D01*
X148820000Y-122140000D02*
X146638000Y-122140000D01*
X153078000Y-122180000D02*
X150900000Y-122180000D01*
X148820000Y-122180000D02*
X146642000Y-122180000D01*
X153075000Y-122220000D02*
X150900000Y-122220000D01*
X148820000Y-122220000D02*
X146645000Y-122220000D01*
X153071000Y-122260000D02*
X150900000Y-122260000D01*
X148820000Y-122260000D02*
X146649000Y-122260000D01*
X153066000Y-122300000D02*
X150900000Y-122300000D01*
X148820000Y-122300000D02*
X146654000Y-122300000D01*
X153061000Y-122340000D02*
X150900000Y-122340000D01*
X148820000Y-122340000D02*
X146659000Y-122340000D01*
X153055000Y-122380000D02*
X150900000Y-122380000D01*
X148820000Y-122380000D02*
X146665000Y-122380000D01*
X153049000Y-122420000D02*
X150900000Y-122420000D01*
X148820000Y-122420000D02*
X146671000Y-122420000D01*
X153042000Y-122460000D02*
X150900000Y-122460000D01*
X148820000Y-122460000D02*
X146678000Y-122460000D01*
X153035000Y-122500000D02*
X150900000Y-122500000D01*
X148820000Y-122500000D02*
X146685000Y-122500000D01*
X153027000Y-122540000D02*
X150900000Y-122540000D01*
X148820000Y-122540000D02*
X146693000Y-122540000D01*
X153019000Y-122580000D02*
X150900000Y-122580000D01*
X148820000Y-122580000D02*
X146701000Y-122580000D01*
X153010000Y-122621000D02*
X150900000Y-122621000D01*
X148820000Y-122621000D02*
X146710000Y-122621000D01*
X153001000Y-122661000D02*
X150900000Y-122661000D01*
X148820000Y-122661000D02*
X146719000Y-122661000D01*
X152991000Y-122701000D02*
X150900000Y-122701000D01*
X148820000Y-122701000D02*
X146729000Y-122701000D01*
X152981000Y-122741000D02*
X150900000Y-122741000D01*
X148820000Y-122741000D02*
X146739000Y-122741000D01*
X152970000Y-122781000D02*
X150900000Y-122781000D01*
X148820000Y-122781000D02*
X146750000Y-122781000D01*
X152958000Y-122821000D02*
X150900000Y-122821000D01*
X148820000Y-122821000D02*
X146762000Y-122821000D01*
X152946000Y-122861000D02*
X150900000Y-122861000D01*
X148820000Y-122861000D02*
X146774000Y-122861000D01*
X152934000Y-122901000D02*
X150900000Y-122901000D01*
X148820000Y-122901000D02*
X146786000Y-122901000D01*
X152921000Y-122941000D02*
X150900000Y-122941000D01*
X148820000Y-122941000D02*
X146799000Y-122941000D01*
X152907000Y-122981000D02*
X150900000Y-122981000D01*
X148820000Y-122981000D02*
X146813000Y-122981000D01*
X152893000Y-123021000D02*
X150900000Y-123021000D01*
X148820000Y-123021000D02*
X146827000Y-123021000D01*
X152878000Y-123061000D02*
X150900000Y-123061000D01*
X148820000Y-123061000D02*
X146842000Y-123061000D01*
X152862000Y-123101000D02*
X150900000Y-123101000D01*
X148820000Y-123101000D02*
X146858000Y-123101000D01*
X152846000Y-123141000D02*
X150900000Y-123141000D01*
X148820000Y-123141000D02*
X146874000Y-123141000D01*
X152830000Y-123181000D02*
X150900000Y-123181000D01*
X148820000Y-123181000D02*
X146890000Y-123181000D01*
X152812000Y-123221000D02*
X150900000Y-123221000D01*
X148820000Y-123221000D02*
X146908000Y-123221000D01*
X152794000Y-123261000D02*
X150900000Y-123261000D01*
X148820000Y-123261000D02*
X146926000Y-123261000D01*
X152776000Y-123301000D02*
X150900000Y-123301000D01*
X148820000Y-123301000D02*
X146944000Y-123301000D01*
X152756000Y-123341000D02*
X150900000Y-123341000D01*
X148820000Y-123341000D02*
X146964000Y-123341000D01*
X152736000Y-123381000D02*
X150900000Y-123381000D01*
X148820000Y-123381000D02*
X146984000Y-123381000D01*
X152716000Y-123421000D02*
X150900000Y-123421000D01*
X148820000Y-123421000D02*
X147004000Y-123421000D01*
X152694000Y-123461000D02*
X150900000Y-123461000D01*
X148820000Y-123461000D02*
X147026000Y-123461000D01*
X152672000Y-123501000D02*
X150900000Y-123501000D01*
X148820000Y-123501000D02*
X147048000Y-123501000D01*
X152650000Y-123541000D02*
X150900000Y-123541000D01*
X148820000Y-123541000D02*
X147070000Y-123541000D01*
X152626000Y-123581000D02*
X150900000Y-123581000D01*
X148820000Y-123581000D02*
X147094000Y-123581000D01*
X152602000Y-123621000D02*
X150900000Y-123621000D01*
X148820000Y-123621000D02*
X147118000Y-123621000D01*
X152576000Y-123661000D02*
X150900000Y-123661000D01*
X148820000Y-123661000D02*
X147144000Y-123661000D01*
X152550000Y-123701000D02*
X150900000Y-123701000D01*
X148820000Y-123701000D02*
X147170000Y-123701000D01*
X152524000Y-123741000D02*
X150900000Y-123741000D01*
X148820000Y-123741000D02*
X147196000Y-123741000D01*
X152496000Y-123781000D02*
X150900000Y-123781000D01*
X148820000Y-123781000D02*
X147224000Y-123781000D01*
X152467000Y-123821000D02*
X150900000Y-123821000D01*
X148820000Y-123821000D02*
X147253000Y-123821000D01*
X152438000Y-123861000D02*
X150900000Y-123861000D01*
X148820000Y-123861000D02*
X147282000Y-123861000D01*
X152408000Y-123901000D02*
X150900000Y-123901000D01*
X148820000Y-123901000D02*
X147312000Y-123901000D01*
X152376000Y-123941000D02*
X150900000Y-123941000D01*
X148820000Y-123941000D02*
X147344000Y-123941000D01*
X152344000Y-123981000D02*
X150900000Y-123981000D01*
X148820000Y-123981000D02*
X147376000Y-123981000D01*
X152310000Y-124021000D02*
X150900000Y-124021000D01*
X148820000Y-124021000D02*
X147410000Y-124021000D01*
X152276000Y-124061000D02*
X150900000Y-124061000D01*
X148820000Y-124061000D02*
X147444000Y-124061000D01*
X152240000Y-124101000D02*
X150900000Y-124101000D01*
X148820000Y-124101000D02*
X147480000Y-124101000D01*
X152203000Y-124141000D02*
X150900000Y-124141000D01*
X148820000Y-124141000D02*
X147517000Y-124141000D01*
X152165000Y-124181000D02*
X150900000Y-124181000D01*
X148820000Y-124181000D02*
X147555000Y-124181000D01*
X152125000Y-124221000D02*
X147595000Y-124221000D01*
X152084000Y-124261000D02*
X147636000Y-124261000D01*
X152042000Y-124301000D02*
X147678000Y-124301000D01*
X151997000Y-124341000D02*
X147723000Y-124341000D01*
X151952000Y-124381000D02*
X147768000Y-124381000D01*
X151904000Y-124421000D02*
X147816000Y-124421000D01*
X151855000Y-124461000D02*
X147865000Y-124461000D01*
X151804000Y-124501000D02*
X147916000Y-124501000D01*
X151750000Y-124541000D02*
X147970000Y-124541000D01*
X151694000Y-124581000D02*
X148026000Y-124581000D01*
X151636000Y-124621000D02*
X148084000Y-124621000D01*
X151574000Y-124661000D02*
X148146000Y-124661000D01*
X151510000Y-124701000D02*
X148210000Y-124701000D01*
X151441000Y-124741000D02*
X148279000Y-124741000D01*
X151369000Y-124781000D02*
X148351000Y-124781000D01*
X151292000Y-124821000D02*
X148428000Y-124821000D01*
X151210000Y-124861000D02*
X148510000Y-124861000D01*
X151122000Y-124901000D02*
X148598000Y-124901000D01*
X151025000Y-124941000D02*
X148695000Y-124941000D01*
X150919000Y-124981000D02*
X148801000Y-124981000D01*
X150800000Y-125021000D02*
X148920000Y-125021000D01*
X150662000Y-125061000D02*
X149058000Y-125061000D01*
X150493000Y-125101000D02*
X149227000Y-125101000D01*
X150262000Y-125141000D02*
X149458000Y-125141000D01*
X151699000Y-118399759D02*
X151699000Y-119029759D01*
X152014000Y-118714759D02*
X151384000Y-118714759D01*
X149800000Y-85150000D02*
X149800000Y-83820000D01*
X151130000Y-85150000D02*
X149800000Y-85150000D01*
X152400000Y-85150000D02*
X152400000Y-82490000D01*
X152400000Y-82490000D02*
X157540000Y-82490000D01*
X152400000Y-85150000D02*
X157540000Y-85150000D01*
X157540000Y-85150000D02*
X157540000Y-82490000D01*
X149800000Y-88960000D02*
X149800000Y-87630000D01*
X151130000Y-88960000D02*
X149800000Y-88960000D01*
X152400000Y-88960000D02*
X152400000Y-86300000D01*
X152400000Y-86300000D02*
X157540000Y-86300000D01*
X152400000Y-88960000D02*
X157540000Y-88960000D01*
X157540000Y-88960000D02*
X157540000Y-86300000D01*
X157540000Y-114360000D02*
X157540000Y-111700000D01*
X152400000Y-114360000D02*
X157540000Y-114360000D01*
X152400000Y-111700000D02*
X157540000Y-111700000D01*
X152400000Y-114360000D02*
X152400000Y-111700000D01*
X151130000Y-114360000D02*
X149800000Y-114360000D01*
X149800000Y-114360000D02*
X149800000Y-113030000D01*
X157540000Y-118170000D02*
X157540000Y-115510000D01*
X152400000Y-118170000D02*
X157540000Y-118170000D01*
X152400000Y-115510000D02*
X157540000Y-115510000D01*
X152400000Y-118170000D02*
X152400000Y-115510000D01*
X151130000Y-118170000D02*
X149800000Y-118170000D01*
X149800000Y-118170000D02*
X149800000Y-116840000D01*
X125670000Y-85360000D02*
G75*
G02X125670000Y-87360000I0J-1000000D01*
G01*
X125670000Y-87360000D02*
X125670000Y-89010000D01*
X125670000Y-89010000D02*
X148650000Y-89010000D01*
X148650000Y-89010000D02*
X148650000Y-83710000D01*
X148650000Y-83710000D02*
X125670000Y-83710000D01*
X125670000Y-83710000D02*
X125670000Y-85360000D01*
X125210000Y-87630000D02*
G75*
G03X125210000Y-87630000I-3270000J0D01*
G01*
X121940000Y-90860000D02*
X121940000Y-84400000D01*
X121900000Y-90860000D02*
X121900000Y-84400000D01*
X121860000Y-90860000D02*
X121860000Y-84400000D01*
X121820000Y-90858000D02*
X121820000Y-84402000D01*
X121780000Y-90857000D02*
X121780000Y-84403000D01*
X121740000Y-90854000D02*
X121740000Y-84406000D01*
X121700000Y-90852000D02*
X121700000Y-88670000D01*
X121700000Y-86590000D02*
X121700000Y-84408000D01*
X121660000Y-90848000D02*
X121660000Y-88670000D01*
X121660000Y-86590000D02*
X121660000Y-84412000D01*
X121620000Y-90845000D02*
X121620000Y-88670000D01*
X121620000Y-86590000D02*
X121620000Y-84415000D01*
X121580000Y-90841000D02*
X121580000Y-88670000D01*
X121580000Y-86590000D02*
X121580000Y-84419000D01*
X121540000Y-90836000D02*
X121540000Y-88670000D01*
X121540000Y-86590000D02*
X121540000Y-84424000D01*
X121500000Y-90831000D02*
X121500000Y-88670000D01*
X121500000Y-86590000D02*
X121500000Y-84429000D01*
X121460000Y-90825000D02*
X121460000Y-88670000D01*
X121460000Y-86590000D02*
X121460000Y-84435000D01*
X121420000Y-90819000D02*
X121420000Y-88670000D01*
X121420000Y-86590000D02*
X121420000Y-84441000D01*
X121380000Y-90812000D02*
X121380000Y-88670000D01*
X121380000Y-86590000D02*
X121380000Y-84448000D01*
X121340000Y-90805000D02*
X121340000Y-88670000D01*
X121340000Y-86590000D02*
X121340000Y-84455000D01*
X121300000Y-90797000D02*
X121300000Y-88670000D01*
X121300000Y-86590000D02*
X121300000Y-84463000D01*
X121260000Y-90789000D02*
X121260000Y-88670000D01*
X121260000Y-86590000D02*
X121260000Y-84471000D01*
X121219000Y-90780000D02*
X121219000Y-88670000D01*
X121219000Y-86590000D02*
X121219000Y-84480000D01*
X121179000Y-90771000D02*
X121179000Y-88670000D01*
X121179000Y-86590000D02*
X121179000Y-84489000D01*
X121139000Y-90761000D02*
X121139000Y-88670000D01*
X121139000Y-86590000D02*
X121139000Y-84499000D01*
X121099000Y-90751000D02*
X121099000Y-88670000D01*
X121099000Y-86590000D02*
X121099000Y-84509000D01*
X121059000Y-90740000D02*
X121059000Y-88670000D01*
X121059000Y-86590000D02*
X121059000Y-84520000D01*
X121019000Y-90728000D02*
X121019000Y-88670000D01*
X121019000Y-86590000D02*
X121019000Y-84532000D01*
X120979000Y-90716000D02*
X120979000Y-88670000D01*
X120979000Y-86590000D02*
X120979000Y-84544000D01*
X120939000Y-90704000D02*
X120939000Y-88670000D01*
X120939000Y-86590000D02*
X120939000Y-84556000D01*
X120899000Y-90691000D02*
X120899000Y-88670000D01*
X120899000Y-86590000D02*
X120899000Y-84569000D01*
X120859000Y-90677000D02*
X120859000Y-88670000D01*
X120859000Y-86590000D02*
X120859000Y-84583000D01*
X120819000Y-90663000D02*
X120819000Y-88670000D01*
X120819000Y-86590000D02*
X120819000Y-84597000D01*
X120779000Y-90648000D02*
X120779000Y-88670000D01*
X120779000Y-86590000D02*
X120779000Y-84612000D01*
X120739000Y-90632000D02*
X120739000Y-88670000D01*
X120739000Y-86590000D02*
X120739000Y-84628000D01*
X120699000Y-90616000D02*
X120699000Y-88670000D01*
X120699000Y-86590000D02*
X120699000Y-84644000D01*
X120659000Y-90600000D02*
X120659000Y-88670000D01*
X120659000Y-86590000D02*
X120659000Y-84660000D01*
X120619000Y-90582000D02*
X120619000Y-88670000D01*
X120619000Y-86590000D02*
X120619000Y-84678000D01*
X120579000Y-90564000D02*
X120579000Y-88670000D01*
X120579000Y-86590000D02*
X120579000Y-84696000D01*
X120539000Y-90546000D02*
X120539000Y-88670000D01*
X120539000Y-86590000D02*
X120539000Y-84714000D01*
X120499000Y-90526000D02*
X120499000Y-88670000D01*
X120499000Y-86590000D02*
X120499000Y-84734000D01*
X120459000Y-90506000D02*
X120459000Y-88670000D01*
X120459000Y-86590000D02*
X120459000Y-84754000D01*
X120419000Y-90486000D02*
X120419000Y-88670000D01*
X120419000Y-86590000D02*
X120419000Y-84774000D01*
X120379000Y-90464000D02*
X120379000Y-88670000D01*
X120379000Y-86590000D02*
X120379000Y-84796000D01*
X120339000Y-90442000D02*
X120339000Y-88670000D01*
X120339000Y-86590000D02*
X120339000Y-84818000D01*
X120299000Y-90420000D02*
X120299000Y-88670000D01*
X120299000Y-86590000D02*
X120299000Y-84840000D01*
X120259000Y-90396000D02*
X120259000Y-88670000D01*
X120259000Y-86590000D02*
X120259000Y-84864000D01*
X120219000Y-90372000D02*
X120219000Y-88670000D01*
X120219000Y-86590000D02*
X120219000Y-84888000D01*
X120179000Y-90346000D02*
X120179000Y-88670000D01*
X120179000Y-86590000D02*
X120179000Y-84914000D01*
X120139000Y-90320000D02*
X120139000Y-88670000D01*
X120139000Y-86590000D02*
X120139000Y-84940000D01*
X120099000Y-90294000D02*
X120099000Y-88670000D01*
X120099000Y-86590000D02*
X120099000Y-84966000D01*
X120059000Y-90266000D02*
X120059000Y-88670000D01*
X120059000Y-86590000D02*
X120059000Y-84994000D01*
X120019000Y-90237000D02*
X120019000Y-88670000D01*
X120019000Y-86590000D02*
X120019000Y-85023000D01*
X119979000Y-90208000D02*
X119979000Y-88670000D01*
X119979000Y-86590000D02*
X119979000Y-85052000D01*
X119939000Y-90178000D02*
X119939000Y-88670000D01*
X119939000Y-86590000D02*
X119939000Y-85082000D01*
X119899000Y-90146000D02*
X119899000Y-88670000D01*
X119899000Y-86590000D02*
X119899000Y-85114000D01*
X119859000Y-90114000D02*
X119859000Y-88670000D01*
X119859000Y-86590000D02*
X119859000Y-85146000D01*
X119819000Y-90080000D02*
X119819000Y-88670000D01*
X119819000Y-86590000D02*
X119819000Y-85180000D01*
X119779000Y-90046000D02*
X119779000Y-88670000D01*
X119779000Y-86590000D02*
X119779000Y-85214000D01*
X119739000Y-90010000D02*
X119739000Y-88670000D01*
X119739000Y-86590000D02*
X119739000Y-85250000D01*
X119699000Y-89973000D02*
X119699000Y-88670000D01*
X119699000Y-86590000D02*
X119699000Y-85287000D01*
X119659000Y-89935000D02*
X119659000Y-88670000D01*
X119659000Y-86590000D02*
X119659000Y-85325000D01*
X119619000Y-89895000D02*
X119619000Y-85365000D01*
X119579000Y-89854000D02*
X119579000Y-85406000D01*
X119539000Y-89812000D02*
X119539000Y-85448000D01*
X119499000Y-89767000D02*
X119499000Y-85493000D01*
X119459000Y-89722000D02*
X119459000Y-85538000D01*
X119419000Y-89674000D02*
X119419000Y-85586000D01*
X119379000Y-89625000D02*
X119379000Y-85635000D01*
X119339000Y-89574000D02*
X119339000Y-85686000D01*
X119299000Y-89520000D02*
X119299000Y-85740000D01*
X119259000Y-89464000D02*
X119259000Y-85796000D01*
X119219000Y-89406000D02*
X119219000Y-85854000D01*
X119179000Y-89344000D02*
X119179000Y-85916000D01*
X119139000Y-89280000D02*
X119139000Y-85980000D01*
X119099000Y-89211000D02*
X119099000Y-86049000D01*
X119059000Y-89139000D02*
X119059000Y-86121000D01*
X119019000Y-89062000D02*
X119019000Y-86198000D01*
X118979000Y-88980000D02*
X118979000Y-86280000D01*
X118939000Y-88892000D02*
X118939000Y-86368000D01*
X118899000Y-88795000D02*
X118899000Y-86465000D01*
X118859000Y-88689000D02*
X118859000Y-86571000D01*
X118819000Y-88570000D02*
X118819000Y-86690000D01*
X118779000Y-88432000D02*
X118779000Y-86828000D01*
X118739000Y-88263000D02*
X118739000Y-86997000D01*
X118699000Y-88032000D02*
X118699000Y-87228000D01*
X125440241Y-89469000D02*
X124810241Y-89469000D01*
X125125241Y-89784000D02*
X125125241Y-89154000D01*
X152495000Y-78125000D02*
G75*
G03X152495000Y-78125000I-3270000J0D01*
G01*
X145995000Y-78125000D02*
X152455000Y-78125000D01*
X145995000Y-78085000D02*
X152455000Y-78085000D01*
X145995000Y-78045000D02*
X152455000Y-78045000D01*
X145997000Y-78005000D02*
X152453000Y-78005000D01*
X145998000Y-77965000D02*
X152452000Y-77965000D01*
X146001000Y-77925000D02*
X152449000Y-77925000D01*
X146003000Y-77885000D02*
X148185000Y-77885000D01*
X150265000Y-77885000D02*
X152447000Y-77885000D01*
X146007000Y-77845000D02*
X148185000Y-77845000D01*
X150265000Y-77845000D02*
X152443000Y-77845000D01*
X146010000Y-77805000D02*
X148185000Y-77805000D01*
X150265000Y-77805000D02*
X152440000Y-77805000D01*
X146014000Y-77765000D02*
X148185000Y-77765000D01*
X150265000Y-77765000D02*
X152436000Y-77765000D01*
X146019000Y-77725000D02*
X148185000Y-77725000D01*
X150265000Y-77725000D02*
X152431000Y-77725000D01*
X146024000Y-77685000D02*
X148185000Y-77685000D01*
X150265000Y-77685000D02*
X152426000Y-77685000D01*
X146030000Y-77645000D02*
X148185000Y-77645000D01*
X150265000Y-77645000D02*
X152420000Y-77645000D01*
X146036000Y-77605000D02*
X148185000Y-77605000D01*
X150265000Y-77605000D02*
X152414000Y-77605000D01*
X146043000Y-77565000D02*
X148185000Y-77565000D01*
X150265000Y-77565000D02*
X152407000Y-77565000D01*
X146050000Y-77525000D02*
X148185000Y-77525000D01*
X150265000Y-77525000D02*
X152400000Y-77525000D01*
X146058000Y-77485000D02*
X148185000Y-77485000D01*
X150265000Y-77485000D02*
X152392000Y-77485000D01*
X146066000Y-77445000D02*
X148185000Y-77445000D01*
X150265000Y-77445000D02*
X152384000Y-77445000D01*
X146075000Y-77404000D02*
X148185000Y-77404000D01*
X150265000Y-77404000D02*
X152375000Y-77404000D01*
X146084000Y-77364000D02*
X148185000Y-77364000D01*
X150265000Y-77364000D02*
X152366000Y-77364000D01*
X146094000Y-77324000D02*
X148185000Y-77324000D01*
X150265000Y-77324000D02*
X152356000Y-77324000D01*
X146104000Y-77284000D02*
X148185000Y-77284000D01*
X150265000Y-77284000D02*
X152346000Y-77284000D01*
X146115000Y-77244000D02*
X148185000Y-77244000D01*
X150265000Y-77244000D02*
X152335000Y-77244000D01*
X146127000Y-77204000D02*
X148185000Y-77204000D01*
X150265000Y-77204000D02*
X152323000Y-77204000D01*
X146139000Y-77164000D02*
X148185000Y-77164000D01*
X150265000Y-77164000D02*
X152311000Y-77164000D01*
X146151000Y-77124000D02*
X148185000Y-77124000D01*
X150265000Y-77124000D02*
X152299000Y-77124000D01*
X146164000Y-77084000D02*
X148185000Y-77084000D01*
X150265000Y-77084000D02*
X152286000Y-77084000D01*
X146178000Y-77044000D02*
X148185000Y-77044000D01*
X150265000Y-77044000D02*
X152272000Y-77044000D01*
X146192000Y-77004000D02*
X148185000Y-77004000D01*
X150265000Y-77004000D02*
X152258000Y-77004000D01*
X146207000Y-76964000D02*
X148185000Y-76964000D01*
X150265000Y-76964000D02*
X152243000Y-76964000D01*
X146223000Y-76924000D02*
X148185000Y-76924000D01*
X150265000Y-76924000D02*
X152227000Y-76924000D01*
X146239000Y-76884000D02*
X148185000Y-76884000D01*
X150265000Y-76884000D02*
X152211000Y-76884000D01*
X146255000Y-76844000D02*
X148185000Y-76844000D01*
X150265000Y-76844000D02*
X152195000Y-76844000D01*
X146273000Y-76804000D02*
X148185000Y-76804000D01*
X150265000Y-76804000D02*
X152177000Y-76804000D01*
X146291000Y-76764000D02*
X148185000Y-76764000D01*
X150265000Y-76764000D02*
X152159000Y-76764000D01*
X146309000Y-76724000D02*
X148185000Y-76724000D01*
X150265000Y-76724000D02*
X152141000Y-76724000D01*
X146329000Y-76684000D02*
X148185000Y-76684000D01*
X150265000Y-76684000D02*
X152121000Y-76684000D01*
X146349000Y-76644000D02*
X148185000Y-76644000D01*
X150265000Y-76644000D02*
X152101000Y-76644000D01*
X146369000Y-76604000D02*
X148185000Y-76604000D01*
X150265000Y-76604000D02*
X152081000Y-76604000D01*
X146391000Y-76564000D02*
X148185000Y-76564000D01*
X150265000Y-76564000D02*
X152059000Y-76564000D01*
X146413000Y-76524000D02*
X148185000Y-76524000D01*
X150265000Y-76524000D02*
X152037000Y-76524000D01*
X146435000Y-76484000D02*
X148185000Y-76484000D01*
X150265000Y-76484000D02*
X152015000Y-76484000D01*
X146459000Y-76444000D02*
X148185000Y-76444000D01*
X150265000Y-76444000D02*
X151991000Y-76444000D01*
X146483000Y-76404000D02*
X148185000Y-76404000D01*
X150265000Y-76404000D02*
X151967000Y-76404000D01*
X146509000Y-76364000D02*
X148185000Y-76364000D01*
X150265000Y-76364000D02*
X151941000Y-76364000D01*
X146535000Y-76324000D02*
X148185000Y-76324000D01*
X150265000Y-76324000D02*
X151915000Y-76324000D01*
X146561000Y-76284000D02*
X148185000Y-76284000D01*
X150265000Y-76284000D02*
X151889000Y-76284000D01*
X146589000Y-76244000D02*
X148185000Y-76244000D01*
X150265000Y-76244000D02*
X151861000Y-76244000D01*
X146618000Y-76204000D02*
X148185000Y-76204000D01*
X150265000Y-76204000D02*
X151832000Y-76204000D01*
X146647000Y-76164000D02*
X148185000Y-76164000D01*
X150265000Y-76164000D02*
X151803000Y-76164000D01*
X146677000Y-76124000D02*
X148185000Y-76124000D01*
X150265000Y-76124000D02*
X151773000Y-76124000D01*
X146709000Y-76084000D02*
X148185000Y-76084000D01*
X150265000Y-76084000D02*
X151741000Y-76084000D01*
X146741000Y-76044000D02*
X148185000Y-76044000D01*
X150265000Y-76044000D02*
X151709000Y-76044000D01*
X146775000Y-76004000D02*
X148185000Y-76004000D01*
X150265000Y-76004000D02*
X151675000Y-76004000D01*
X146809000Y-75964000D02*
X148185000Y-75964000D01*
X150265000Y-75964000D02*
X151641000Y-75964000D01*
X146845000Y-75924000D02*
X148185000Y-75924000D01*
X150265000Y-75924000D02*
X151605000Y-75924000D01*
X146882000Y-75884000D02*
X148185000Y-75884000D01*
X150265000Y-75884000D02*
X151568000Y-75884000D01*
X146920000Y-75844000D02*
X148185000Y-75844000D01*
X150265000Y-75844000D02*
X151530000Y-75844000D01*
X146960000Y-75804000D02*
X151490000Y-75804000D01*
X147001000Y-75764000D02*
X151449000Y-75764000D01*
X147043000Y-75724000D02*
X151407000Y-75724000D01*
X147088000Y-75684000D02*
X151362000Y-75684000D01*
X147133000Y-75644000D02*
X151317000Y-75644000D01*
X147181000Y-75604000D02*
X151269000Y-75604000D01*
X147230000Y-75564000D02*
X151220000Y-75564000D01*
X147281000Y-75524000D02*
X151169000Y-75524000D01*
X147335000Y-75484000D02*
X151115000Y-75484000D01*
X147391000Y-75444000D02*
X151059000Y-75444000D01*
X147449000Y-75404000D02*
X151001000Y-75404000D01*
X147511000Y-75364000D02*
X150939000Y-75364000D01*
X147575000Y-75324000D02*
X150875000Y-75324000D01*
X147644000Y-75284000D02*
X150806000Y-75284000D01*
X147716000Y-75244000D02*
X150734000Y-75244000D01*
X147793000Y-75204000D02*
X150657000Y-75204000D01*
X147875000Y-75164000D02*
X150575000Y-75164000D01*
X147963000Y-75124000D02*
X150487000Y-75124000D01*
X148060000Y-75084000D02*
X150390000Y-75084000D01*
X148166000Y-75044000D02*
X150284000Y-75044000D01*
X148285000Y-75004000D02*
X150165000Y-75004000D01*
X148423000Y-74964000D02*
X150027000Y-74964000D01*
X148592000Y-74924000D02*
X149858000Y-74924000D01*
X148823000Y-74884000D02*
X149627000Y-74884000D01*
X147386000Y-81625241D02*
X147386000Y-80995241D01*
X147071000Y-81310241D02*
X147701000Y-81310241D01*
X120710000Y-119440000D02*
X119380000Y-119440000D01*
X120710000Y-118110000D02*
X120710000Y-119440000D01*
X120710000Y-116840000D02*
X118050000Y-116840000D01*
X118050000Y-116840000D02*
X118050000Y-111700000D01*
X120710000Y-116840000D02*
X120710000Y-111700000D01*
X120710000Y-111700000D02*
X118050000Y-111700000D01*
X114240000Y-90230000D02*
X116900000Y-90230000D01*
X114240000Y-85090000D02*
X114240000Y-90230000D01*
X116900000Y-85090000D02*
X116900000Y-90230000D01*
X114240000Y-85090000D02*
X116900000Y-85090000D01*
X114240000Y-83820000D02*
X114240000Y-82490000D01*
X114240000Y-82490000D02*
X115570000Y-82490000D01*
X114491392Y-118977665D02*
G75*
G03X114334484Y-122210000I1078608J-1672335D01*
G01*
X116648608Y-118977665D02*
G75*
G02X116805516Y-122210000I-1078608J-1672335D01*
G01*
X114490163Y-119608870D02*
G75*
G03X114490000Y-121690961I1079837J-1041130D01*
G01*
X116649837Y-119608870D02*
G75*
G02X116650000Y-121690961I-1079837J-1041130D01*
G01*
X114334000Y-122210000D02*
X114490000Y-122210000D01*
X116650000Y-122210000D02*
X116806000Y-122210000D01*
X124290000Y-84185000D02*
X124069000Y-84185000D01*
X122311000Y-84185000D02*
X116990000Y-84185000D01*
X124290000Y-80985000D02*
X118968000Y-80985000D01*
X117211000Y-80985000D02*
X116990000Y-80985000D01*
X124290000Y-84185000D02*
X124290000Y-83935000D01*
X124290000Y-82435000D02*
X124290000Y-80985000D01*
X116990000Y-84185000D02*
X116990000Y-82734000D01*
X116990000Y-81235000D02*
X116990000Y-80985000D01*
X121920000Y-104470000D02*
X121920000Y-103520000D01*
X121920000Y-98730000D02*
X121920000Y-99680000D01*
X122840000Y-103520000D02*
X122840000Y-99680000D01*
X121000000Y-103520000D02*
X122840000Y-103520000D01*
X121000000Y-99680000D02*
X121000000Y-103520000D01*
X122840000Y-99680000D02*
X121000000Y-99680000D01*
X117125000Y-109840000D02*
X115285000Y-109840000D01*
X115285000Y-109840000D02*
X115285000Y-113680000D01*
X115285000Y-113680000D02*
X117125000Y-113680000D01*
X117125000Y-113680000D02*
X117125000Y-109840000D01*
X116205000Y-108890000D02*
X116205000Y-109840000D01*
X116205000Y-114630000D02*
X116205000Y-113680000D01*
X168740000Y-129600000D02*
X168740000Y-124400000D01*
X168740000Y-124400000D02*
X166080000Y-124400000D01*
X166080000Y-124400000D02*
X166080000Y-129600000D01*
X166080000Y-129600000D02*
X168740000Y-129600000D01*
X166080000Y-128650000D02*
X160080000Y-128650000D01*
X160080000Y-128650000D02*
X160080000Y-127890000D01*
X160080000Y-127890000D02*
X166080000Y-127890000D01*
X166080000Y-128590000D02*
X160080000Y-128590000D01*
X166080000Y-128470000D02*
X160080000Y-128470000D01*
X166080000Y-128350000D02*
X160080000Y-128350000D01*
X166080000Y-128230000D02*
X160080000Y-128230000D01*
X166080000Y-128110000D02*
X160080000Y-128110000D01*
X166080000Y-127990000D02*
X160080000Y-127990000D01*
X169137071Y-128650000D02*
X168740000Y-128650000D01*
X169137071Y-127890000D02*
X168740000Y-127890000D01*
X171610000Y-128650000D02*
X171222929Y-128650000D01*
X171610000Y-127890000D02*
X171222929Y-127890000D01*
X168740000Y-127000000D02*
X166080000Y-127000000D01*
X166080000Y-126110000D02*
X160080000Y-126110000D01*
X160080000Y-126110000D02*
X160080000Y-125350000D01*
X160080000Y-125350000D02*
X166080000Y-125350000D01*
X169137071Y-126110000D02*
X168740000Y-126110000D01*
X169137071Y-125350000D02*
X168740000Y-125350000D01*
X171677071Y-126110000D02*
X171222929Y-126110000D01*
X171677071Y-125350000D02*
X171222929Y-125350000D01*
X173990000Y-128270000D02*
X173990000Y-129540000D01*
X173990000Y-129540000D02*
X172720000Y-129540000D01*
X166300000Y-129480000D02*
X157670000Y-129480000D01*
X166300000Y-129361905D02*
X157670000Y-129361905D01*
X166300000Y-129243810D02*
X157670000Y-129243810D01*
X166300000Y-129125715D02*
X157670000Y-129125715D01*
X166300000Y-129007620D02*
X157670000Y-129007620D01*
X166300000Y-128889525D02*
X157670000Y-128889525D01*
X166300000Y-128771430D02*
X157670000Y-128771430D01*
X166300000Y-128653335D02*
X157670000Y-128653335D01*
X166300000Y-128535240D02*
X157670000Y-128535240D01*
X166300000Y-128417145D02*
X157670000Y-128417145D01*
X166300000Y-128299050D02*
X157670000Y-128299050D01*
X166300000Y-128180955D02*
X157670000Y-128180955D01*
X166300000Y-128062860D02*
X157670000Y-128062860D01*
X166300000Y-127944765D02*
X157670000Y-127944765D01*
X166300000Y-127826670D02*
X157670000Y-127826670D01*
X166300000Y-127708575D02*
X157670000Y-127708575D01*
X166300000Y-127590480D02*
X157670000Y-127590480D01*
X166300000Y-127472385D02*
X157670000Y-127472385D01*
X166300000Y-127354290D02*
X157670000Y-127354290D01*
X166300000Y-127236195D02*
X157670000Y-127236195D01*
X166300000Y-127118100D02*
X157670000Y-127118100D01*
X157670000Y-128630000D02*
X157260000Y-128630000D01*
X155160000Y-128630000D02*
X154780000Y-128630000D01*
X157670000Y-127910000D02*
X157260000Y-127910000D01*
X155160000Y-127910000D02*
X154780000Y-127910000D01*
X157670000Y-126090000D02*
X157260000Y-126090000D01*
X155160000Y-126090000D02*
X154720000Y-126090000D01*
X157670000Y-125370000D02*
X157260000Y-125370000D01*
X155160000Y-125370000D02*
X154720000Y-125370000D01*
X166300000Y-127000000D02*
X157670000Y-127000000D01*
X166300000Y-129600000D02*
X157670000Y-129600000D01*
X157670000Y-129600000D02*
X157670000Y-124400000D01*
X166300000Y-124400000D02*
X157670000Y-124400000D01*
X166300000Y-129600000D02*
X166300000Y-124400000D01*
X152560000Y-129600000D02*
X152560000Y-128270000D01*
X153670000Y-129600000D02*
X152560000Y-129600000D01*
X168740000Y-77530000D02*
X168740000Y-72330000D01*
X168740000Y-72330000D02*
X166080000Y-72330000D01*
X166080000Y-72330000D02*
X166080000Y-77530000D01*
X166080000Y-77530000D02*
X168740000Y-77530000D01*
X166080000Y-76580000D02*
X160080000Y-76580000D01*
X160080000Y-76580000D02*
X160080000Y-75820000D01*
X160080000Y-75820000D02*
X166080000Y-75820000D01*
X166080000Y-76520000D02*
X160080000Y-76520000D01*
X166080000Y-76400000D02*
X160080000Y-76400000D01*
X166080000Y-76280000D02*
X160080000Y-76280000D01*
X166080000Y-76160000D02*
X160080000Y-76160000D01*
X166080000Y-76040000D02*
X160080000Y-76040000D01*
X166080000Y-75920000D02*
X160080000Y-75920000D01*
X169137071Y-76580000D02*
X168740000Y-76580000D01*
X169137071Y-75820000D02*
X168740000Y-75820000D01*
X171610000Y-76580000D02*
X171222929Y-76580000D01*
X171610000Y-75820000D02*
X171222929Y-75820000D01*
X168740000Y-74930000D02*
X166080000Y-74930000D01*
X166080000Y-74040000D02*
X160080000Y-74040000D01*
X160080000Y-74040000D02*
X160080000Y-73280000D01*
X160080000Y-73280000D02*
X166080000Y-73280000D01*
X169137071Y-74040000D02*
X168740000Y-74040000D01*
X169137071Y-73280000D02*
X168740000Y-73280000D01*
X171677071Y-74040000D02*
X171222929Y-74040000D01*
X171677071Y-73280000D02*
X171222929Y-73280000D01*
X173990000Y-76200000D02*
X173990000Y-77470000D01*
X173990000Y-77470000D02*
X172720000Y-77470000D01*
X187890000Y-129480000D02*
X179260000Y-129480000D01*
X187890000Y-129361905D02*
X179260000Y-129361905D01*
X187890000Y-129243810D02*
X179260000Y-129243810D01*
X187890000Y-129125715D02*
X179260000Y-129125715D01*
X187890000Y-129007620D02*
X179260000Y-129007620D01*
X187890000Y-128889525D02*
X179260000Y-128889525D01*
X187890000Y-128771430D02*
X179260000Y-128771430D01*
X187890000Y-128653335D02*
X179260000Y-128653335D01*
X187890000Y-128535240D02*
X179260000Y-128535240D01*
X187890000Y-128417145D02*
X179260000Y-128417145D01*
X187890000Y-128299050D02*
X179260000Y-128299050D01*
X187890000Y-128180955D02*
X179260000Y-128180955D01*
X187890000Y-128062860D02*
X179260000Y-128062860D01*
X187890000Y-127944765D02*
X179260000Y-127944765D01*
X187890000Y-127826670D02*
X179260000Y-127826670D01*
X187890000Y-127708575D02*
X179260000Y-127708575D01*
X187890000Y-127590480D02*
X179260000Y-127590480D01*
X187890000Y-127472385D02*
X179260000Y-127472385D01*
X187890000Y-127354290D02*
X179260000Y-127354290D01*
X187890000Y-127236195D02*
X179260000Y-127236195D01*
X187890000Y-127118100D02*
X179260000Y-127118100D01*
X179260000Y-128630000D02*
X178850000Y-128630000D01*
X176750000Y-128630000D02*
X176370000Y-128630000D01*
X179260000Y-127910000D02*
X178850000Y-127910000D01*
X176750000Y-127910000D02*
X176370000Y-127910000D01*
X179260000Y-126090000D02*
X178850000Y-126090000D01*
X176750000Y-126090000D02*
X176310000Y-126090000D01*
X179260000Y-125370000D02*
X178850000Y-125370000D01*
X176750000Y-125370000D02*
X176310000Y-125370000D01*
X187890000Y-127000000D02*
X179260000Y-127000000D01*
X187890000Y-129600000D02*
X179260000Y-129600000D01*
X179260000Y-129600000D02*
X179260000Y-124400000D01*
X187890000Y-124400000D02*
X179260000Y-124400000D01*
X187890000Y-129600000D02*
X187890000Y-124400000D01*
X174150000Y-129600000D02*
X174150000Y-128270000D01*
X175260000Y-129600000D02*
X174150000Y-129600000D01*
X190330000Y-129600000D02*
X190330000Y-124400000D01*
X190330000Y-124400000D02*
X187670000Y-124400000D01*
X187670000Y-124400000D02*
X187670000Y-129600000D01*
X187670000Y-129600000D02*
X190330000Y-129600000D01*
X187670000Y-128650000D02*
X181670000Y-128650000D01*
X181670000Y-128650000D02*
X181670000Y-127890000D01*
X181670000Y-127890000D02*
X187670000Y-127890000D01*
X187670000Y-128590000D02*
X181670000Y-128590000D01*
X187670000Y-128470000D02*
X181670000Y-128470000D01*
X187670000Y-128350000D02*
X181670000Y-128350000D01*
X187670000Y-128230000D02*
X181670000Y-128230000D01*
X187670000Y-128110000D02*
X181670000Y-128110000D01*
X187670000Y-127990000D02*
X181670000Y-127990000D01*
X190727071Y-128650000D02*
X190330000Y-128650000D01*
X190727071Y-127890000D02*
X190330000Y-127890000D01*
X193200000Y-128650000D02*
X192812929Y-128650000D01*
X193200000Y-127890000D02*
X192812929Y-127890000D01*
X190330000Y-127000000D02*
X187670000Y-127000000D01*
X187670000Y-126110000D02*
X181670000Y-126110000D01*
X181670000Y-126110000D02*
X181670000Y-125350000D01*
X181670000Y-125350000D02*
X187670000Y-125350000D01*
X190727071Y-126110000D02*
X190330000Y-126110000D01*
X190727071Y-125350000D02*
X190330000Y-125350000D01*
X193267071Y-126110000D02*
X192812929Y-126110000D01*
X193267071Y-125350000D02*
X192812929Y-125350000D01*
X195580000Y-128270000D02*
X195580000Y-129540000D01*
X195580000Y-129540000D02*
X194310000Y-129540000D01*
X190330000Y-77530000D02*
X190330000Y-72330000D01*
X190330000Y-72330000D02*
X187670000Y-72330000D01*
X187670000Y-72330000D02*
X187670000Y-77530000D01*
X187670000Y-77530000D02*
X190330000Y-77530000D01*
X187670000Y-76580000D02*
X181670000Y-76580000D01*
X181670000Y-76580000D02*
X181670000Y-75820000D01*
X181670000Y-75820000D02*
X187670000Y-75820000D01*
X187670000Y-76520000D02*
X181670000Y-76520000D01*
X187670000Y-76400000D02*
X181670000Y-76400000D01*
X187670000Y-76280000D02*
X181670000Y-76280000D01*
X187670000Y-76160000D02*
X181670000Y-76160000D01*
X187670000Y-76040000D02*
X181670000Y-76040000D01*
X187670000Y-75920000D02*
X181670000Y-75920000D01*
X190727071Y-76580000D02*
X190330000Y-76580000D01*
X190727071Y-75820000D02*
X190330000Y-75820000D01*
X193200000Y-76580000D02*
X192812929Y-76580000D01*
X193200000Y-75820000D02*
X192812929Y-75820000D01*
X190330000Y-74930000D02*
X187670000Y-74930000D01*
X187670000Y-74040000D02*
X181670000Y-74040000D01*
X181670000Y-74040000D02*
X181670000Y-73280000D01*
X181670000Y-73280000D02*
X187670000Y-73280000D01*
X190727071Y-74040000D02*
X190330000Y-74040000D01*
X190727071Y-73280000D02*
X190330000Y-73280000D01*
X193267071Y-74040000D02*
X192812929Y-74040000D01*
X193267071Y-73280000D02*
X192812929Y-73280000D01*
X195580000Y-76200000D02*
X195580000Y-77470000D01*
X195580000Y-77470000D02*
X194310000Y-77470000D01*
D11*
X121586666Y-126452380D02*
X121586666Y-127166666D01*
X121539047Y-127309523D01*
X121443809Y-127404761D01*
X121300952Y-127452380D01*
X121205714Y-127452380D01*
X122491428Y-126785714D02*
X122491428Y-127452380D01*
X122253333Y-126404761D02*
X122015238Y-127119047D01*
X122634285Y-127119047D01*
X121713666Y-123912380D02*
X121713666Y-124626666D01*
X121666047Y-124769523D01*
X121570809Y-124864761D01*
X121427952Y-124912380D01*
X121332714Y-124912380D01*
X122666047Y-123912380D02*
X122189857Y-123912380D01*
X122142238Y-124388571D01*
X122189857Y-124340952D01*
X122285095Y-124293333D01*
X122523190Y-124293333D01*
X122618428Y-124340952D01*
X122666047Y-124388571D01*
X122713666Y-124483809D01*
X122713666Y-124721904D01*
X122666047Y-124817142D01*
X122618428Y-124864761D01*
X122523190Y-124912380D01*
X122285095Y-124912380D01*
X122189857Y-124864761D01*
X122142238Y-124817142D01*
X189738095Y-101052380D02*
X189738095Y-101861904D01*
X189785714Y-101957142D01*
X189833333Y-102004761D01*
X189928571Y-102052380D01*
X190119047Y-102052380D01*
X190214285Y-102004761D01*
X190261904Y-101957142D01*
X190309523Y-101861904D01*
X190309523Y-101052380D01*
X191214285Y-101385714D02*
X191214285Y-102052380D01*
X190976190Y-101004761D02*
X190738095Y-101719047D01*
X191357142Y-101719047D01*
X168148095Y-100417380D02*
X168148095Y-101226904D01*
X168195714Y-101322142D01*
X168243333Y-101369761D01*
X168338571Y-101417380D01*
X168529047Y-101417380D01*
X168624285Y-101369761D01*
X168671904Y-101322142D01*
X168719523Y-101226904D01*
X168719523Y-100417380D01*
X169100476Y-100417380D02*
X169719523Y-100417380D01*
X169386190Y-100798333D01*
X169529047Y-100798333D01*
X169624285Y-100845952D01*
X169671904Y-100893571D01*
X169719523Y-100988809D01*
X169719523Y-101226904D01*
X169671904Y-101322142D01*
X169624285Y-101369761D01*
X169529047Y-101417380D01*
X169243333Y-101417380D01*
X169148095Y-101369761D01*
X169100476Y-101322142D01*
X153495476Y-78065380D02*
X153495476Y-78779666D01*
X153447857Y-78922523D01*
X153352619Y-79017761D01*
X153209761Y-79065380D01*
X153114523Y-79065380D01*
X153924047Y-78160619D02*
X153971666Y-78113000D01*
X154066904Y-78065380D01*
X154305000Y-78065380D01*
X154400238Y-78113000D01*
X154447857Y-78160619D01*
X154495476Y-78255857D01*
X154495476Y-78351095D01*
X154447857Y-78493952D01*
X153876428Y-79065380D01*
X154495476Y-79065380D01*
X154876428Y-78160619D02*
X154924047Y-78113000D01*
X155019285Y-78065380D01*
X155257380Y-78065380D01*
X155352619Y-78113000D01*
X155400238Y-78160619D01*
X155447857Y-78255857D01*
X155447857Y-78351095D01*
X155400238Y-78493952D01*
X154828809Y-79065380D01*
X155447857Y-79065380D01*
X175085476Y-78192380D02*
X175085476Y-78906666D01*
X175037857Y-79049523D01*
X174942619Y-79144761D01*
X174799761Y-79192380D01*
X174704523Y-79192380D01*
X175514047Y-78287619D02*
X175561666Y-78240000D01*
X175656904Y-78192380D01*
X175895000Y-78192380D01*
X175990238Y-78240000D01*
X176037857Y-78287619D01*
X176085476Y-78382857D01*
X176085476Y-78478095D01*
X176037857Y-78620952D01*
X175466428Y-79192380D01*
X176085476Y-79192380D01*
X176418809Y-78192380D02*
X177037857Y-78192380D01*
X176704523Y-78573333D01*
X176847380Y-78573333D01*
X176942619Y-78620952D01*
X176990238Y-78668571D01*
X177037857Y-78763809D01*
X177037857Y-79001904D01*
X176990238Y-79097142D01*
X176942619Y-79144761D01*
X176847380Y-79192380D01*
X176561666Y-79192380D01*
X176466428Y-79144761D01*
X176418809Y-79097142D01*
X174585380Y-94662523D02*
X175299666Y-94662523D01*
X175442523Y-94710142D01*
X175537761Y-94805380D01*
X175585380Y-94948238D01*
X175585380Y-95043476D01*
X175585380Y-93662523D02*
X175585380Y-94233952D01*
X175585380Y-93948238D02*
X174585380Y-93948238D01*
X174728238Y-94043476D01*
X174823476Y-94138714D01*
X174871095Y-94233952D01*
X174585380Y-92805380D02*
X174585380Y-92995857D01*
X174633000Y-93091095D01*
X174680619Y-93138714D01*
X174823476Y-93233952D01*
X175013952Y-93281571D01*
X175394904Y-93281571D01*
X175490142Y-93233952D01*
X175537761Y-93186333D01*
X175585380Y-93091095D01*
X175585380Y-92900619D01*
X175537761Y-92805380D01*
X175490142Y-92757761D01*
X175394904Y-92710142D01*
X175156809Y-92710142D01*
X175061571Y-92757761D01*
X175013952Y-92805380D01*
X174966333Y-92900619D01*
X174966333Y-93091095D01*
X175013952Y-93186333D01*
X175061571Y-93233952D01*
X175156809Y-93281571D01*
X119324380Y-95861095D02*
X118324380Y-95861095D01*
X118324380Y-95480142D01*
X118372000Y-95384904D01*
X118419619Y-95337285D01*
X118514857Y-95289666D01*
X118657714Y-95289666D01*
X118752952Y-95337285D01*
X118800571Y-95384904D01*
X118848190Y-95480142D01*
X118848190Y-95861095D01*
X118419619Y-94908714D02*
X118372000Y-94861095D01*
X118324380Y-94765857D01*
X118324380Y-94527761D01*
X118372000Y-94432523D01*
X118419619Y-94384904D01*
X118514857Y-94337285D01*
X118610095Y-94337285D01*
X118752952Y-94384904D01*
X119324380Y-94956333D01*
X119324380Y-94337285D01*
X119324380Y-106021095D02*
X118324380Y-106021095D01*
X118324380Y-105640142D01*
X118372000Y-105544904D01*
X118419619Y-105497285D01*
X118514857Y-105449666D01*
X118657714Y-105449666D01*
X118752952Y-105497285D01*
X118800571Y-105544904D01*
X118848190Y-105640142D01*
X118848190Y-106021095D01*
X119324380Y-104497285D02*
X119324380Y-105068714D01*
X119324380Y-104783000D02*
X118324380Y-104783000D01*
X118467238Y-104878238D01*
X118562476Y-104973476D01*
X118610095Y-105068714D01*
X160694619Y-91408238D02*
X160647000Y-91503476D01*
X160551761Y-91598714D01*
X160408904Y-91741571D01*
X160361285Y-91836809D01*
X160361285Y-91932047D01*
X160599380Y-91884428D02*
X160551761Y-91979666D01*
X160456523Y-92074904D01*
X160266047Y-92122523D01*
X159932714Y-92122523D01*
X159742238Y-92074904D01*
X159647000Y-91979666D01*
X159599380Y-91884428D01*
X159599380Y-91693952D01*
X159647000Y-91598714D01*
X159742238Y-91503476D01*
X159932714Y-91455857D01*
X160266047Y-91455857D01*
X160456523Y-91503476D01*
X160551761Y-91598714D01*
X160599380Y-91693952D01*
X160599380Y-91884428D01*
X160599380Y-90503476D02*
X160599380Y-91074904D01*
X160599380Y-90789190D02*
X159599380Y-90789190D01*
X159742238Y-90884428D01*
X159837476Y-90979666D01*
X159885095Y-91074904D01*
X146685095Y-113879380D02*
X146685095Y-114688904D01*
X146732714Y-114784142D01*
X146780333Y-114831761D01*
X146875571Y-114879380D01*
X147066047Y-114879380D01*
X147161285Y-114831761D01*
X147208904Y-114784142D01*
X147256523Y-114688904D01*
X147256523Y-113879380D01*
X148256523Y-114879380D02*
X147685095Y-114879380D01*
X147970809Y-114879380D02*
X147970809Y-113879380D01*
X147875571Y-114022238D01*
X147780333Y-114117476D01*
X147685095Y-114165095D01*
X150796666Y-110577380D02*
X150796666Y-111291666D01*
X150749047Y-111434523D01*
X150653809Y-111529761D01*
X150510952Y-111577380D01*
X150415714Y-111577380D01*
X151796666Y-111577380D02*
X151225238Y-111577380D01*
X151510952Y-111577380D02*
X151510952Y-110577380D01*
X151415714Y-110720238D01*
X151320476Y-110815476D01*
X151225238Y-110863095D01*
X153336666Y-110577380D02*
X153336666Y-111291666D01*
X153289047Y-111434523D01*
X153193809Y-111529761D01*
X153050952Y-111577380D01*
X152955714Y-111577380D01*
X153765238Y-110672619D02*
X153812857Y-110625000D01*
X153908095Y-110577380D01*
X154146190Y-110577380D01*
X154241428Y-110625000D01*
X154289047Y-110672619D01*
X154336666Y-110767857D01*
X154336666Y-110863095D01*
X154289047Y-111005952D01*
X153717619Y-111577380D01*
X154336666Y-111577380D01*
X155876666Y-110577380D02*
X155876666Y-111291666D01*
X155829047Y-111434523D01*
X155733809Y-111529761D01*
X155590952Y-111577380D01*
X155495714Y-111577380D01*
X156257619Y-110577380D02*
X156876666Y-110577380D01*
X156543333Y-110958333D01*
X156686190Y-110958333D01*
X156781428Y-111005952D01*
X156829047Y-111053571D01*
X156876666Y-111148809D01*
X156876666Y-111386904D01*
X156829047Y-111482142D01*
X156781428Y-111529761D01*
X156686190Y-111577380D01*
X156400476Y-111577380D01*
X156305238Y-111529761D01*
X156257619Y-111482142D01*
X121713666Y-121372380D02*
X121713666Y-122086666D01*
X121666047Y-122229523D01*
X121570809Y-122324761D01*
X121427952Y-122372380D01*
X121332714Y-122372380D01*
X122618428Y-121372380D02*
X122427952Y-121372380D01*
X122332714Y-121420000D01*
X122285095Y-121467619D01*
X122189857Y-121610476D01*
X122142238Y-121800952D01*
X122142238Y-122181904D01*
X122189857Y-122277142D01*
X122237476Y-122324761D01*
X122332714Y-122372380D01*
X122523190Y-122372380D01*
X122618428Y-122324761D01*
X122666047Y-122277142D01*
X122713666Y-122181904D01*
X122713666Y-121943809D01*
X122666047Y-121848571D01*
X122618428Y-121800952D01*
X122523190Y-121753333D01*
X122332714Y-121753333D01*
X122237476Y-121800952D01*
X122189857Y-121848571D01*
X122142238Y-121943809D01*
X120729476Y-78192380D02*
X120729476Y-78906666D01*
X120681857Y-79049523D01*
X120586619Y-79144761D01*
X120443761Y-79192380D01*
X120348523Y-79192380D01*
X121729476Y-79192380D02*
X121158047Y-79192380D01*
X121443761Y-79192380D02*
X121443761Y-78192380D01*
X121348523Y-78335238D01*
X121253285Y-78430476D01*
X121158047Y-78478095D01*
X122348523Y-78192380D02*
X122443761Y-78192380D01*
X122539000Y-78240000D01*
X122586619Y-78287619D01*
X122634238Y-78382857D01*
X122681857Y-78573333D01*
X122681857Y-78811428D01*
X122634238Y-79001904D01*
X122586619Y-79097142D01*
X122539000Y-79144761D01*
X122443761Y-79192380D01*
X122348523Y-79192380D01*
X122253285Y-79144761D01*
X122205666Y-79097142D01*
X122158047Y-79001904D01*
X122110428Y-78811428D01*
X122110428Y-78573333D01*
X122158047Y-78382857D01*
X122205666Y-78287619D01*
X122253285Y-78240000D01*
X122348523Y-78192380D01*
X120856476Y-75652380D02*
X120856476Y-76366666D01*
X120808857Y-76509523D01*
X120713619Y-76604761D01*
X120570761Y-76652380D01*
X120475523Y-76652380D01*
X121856476Y-76652380D02*
X121285047Y-76652380D01*
X121570761Y-76652380D02*
X121570761Y-75652380D01*
X121475523Y-75795238D01*
X121380285Y-75890476D01*
X121285047Y-75938095D01*
X122808857Y-76652380D02*
X122237428Y-76652380D01*
X122523142Y-76652380D02*
X122523142Y-75652380D01*
X122427904Y-75795238D01*
X122332666Y-75890476D01*
X122237428Y-75938095D01*
X120729476Y-73112380D02*
X120729476Y-73826666D01*
X120681857Y-73969523D01*
X120586619Y-74064761D01*
X120443761Y-74112380D01*
X120348523Y-74112380D01*
X121729476Y-74112380D02*
X121158047Y-74112380D01*
X121443761Y-74112380D02*
X121443761Y-73112380D01*
X121348523Y-73255238D01*
X121253285Y-73350476D01*
X121158047Y-73398095D01*
X122110428Y-73207619D02*
X122158047Y-73160000D01*
X122253285Y-73112380D01*
X122491380Y-73112380D01*
X122586619Y-73160000D01*
X122634238Y-73207619D01*
X122681857Y-73302857D01*
X122681857Y-73398095D01*
X122634238Y-73540952D01*
X122062809Y-74112380D01*
X122681857Y-74112380D01*
X156043333Y-92908380D02*
X155710000Y-92432190D01*
X155471904Y-92908380D02*
X155471904Y-91908380D01*
X155852857Y-91908380D01*
X155948095Y-91956000D01*
X155995714Y-92003619D01*
X156043333Y-92098857D01*
X156043333Y-92241714D01*
X155995714Y-92336952D01*
X155948095Y-92384571D01*
X155852857Y-92432190D01*
X155471904Y-92432190D01*
X156995714Y-92908380D02*
X156424285Y-92908380D01*
X156710000Y-92908380D02*
X156710000Y-91908380D01*
X156614761Y-92051238D01*
X156519523Y-92146476D01*
X156424285Y-92194095D01*
X150963333Y-92908380D02*
X150630000Y-92432190D01*
X150391904Y-92908380D02*
X150391904Y-91908380D01*
X150772857Y-91908380D01*
X150868095Y-91956000D01*
X150915714Y-92003619D01*
X150963333Y-92098857D01*
X150963333Y-92241714D01*
X150915714Y-92336952D01*
X150868095Y-92384571D01*
X150772857Y-92432190D01*
X150391904Y-92432190D01*
X151344285Y-92003619D02*
X151391904Y-91956000D01*
X151487142Y-91908380D01*
X151725238Y-91908380D01*
X151820476Y-91956000D01*
X151868095Y-92003619D01*
X151915714Y-92098857D01*
X151915714Y-92194095D01*
X151868095Y-92336952D01*
X151296666Y-92908380D01*
X151915714Y-92908380D01*
X153503333Y-92908380D02*
X153170000Y-92432190D01*
X152931904Y-92908380D02*
X152931904Y-91908380D01*
X153312857Y-91908380D01*
X153408095Y-91956000D01*
X153455714Y-92003619D01*
X153503333Y-92098857D01*
X153503333Y-92241714D01*
X153455714Y-92336952D01*
X153408095Y-92384571D01*
X153312857Y-92432190D01*
X152931904Y-92432190D01*
X153836666Y-91908380D02*
X154455714Y-91908380D01*
X154122380Y-92289333D01*
X154265238Y-92289333D01*
X154360476Y-92336952D01*
X154408095Y-92384571D01*
X154455714Y-92479809D01*
X154455714Y-92717904D01*
X154408095Y-92813142D01*
X154360476Y-92860761D01*
X154265238Y-92908380D01*
X153979523Y-92908380D01*
X153884285Y-92860761D01*
X153836666Y-92813142D01*
X147661333Y-126214142D02*
X147613714Y-126261761D01*
X147470857Y-126309380D01*
X147375619Y-126309380D01*
X147232761Y-126261761D01*
X147137523Y-126166523D01*
X147089904Y-126071285D01*
X147042285Y-125880809D01*
X147042285Y-125737952D01*
X147089904Y-125547476D01*
X147137523Y-125452238D01*
X147232761Y-125357000D01*
X147375619Y-125309380D01*
X147470857Y-125309380D01*
X147613714Y-125357000D01*
X147661333Y-125404619D01*
X148613714Y-126309380D02*
X148042285Y-126309380D01*
X148328000Y-126309380D02*
X148328000Y-125309380D01*
X148232761Y-125452238D01*
X148137523Y-125547476D01*
X148042285Y-125595095D01*
X158194476Y-83272380D02*
X158194476Y-83986666D01*
X158146857Y-84129523D01*
X158051619Y-84224761D01*
X157908761Y-84272380D01*
X157813523Y-84272380D01*
X159194476Y-84272380D02*
X158623047Y-84272380D01*
X158908761Y-84272380D02*
X158908761Y-83272380D01*
X158813523Y-83415238D01*
X158718285Y-83510476D01*
X158623047Y-83558095D01*
X159527809Y-83272380D02*
X160146857Y-83272380D01*
X159813523Y-83653333D01*
X159956380Y-83653333D01*
X160051619Y-83700952D01*
X160099238Y-83748571D01*
X160146857Y-83843809D01*
X160146857Y-84081904D01*
X160099238Y-84177142D01*
X160051619Y-84224761D01*
X159956380Y-84272380D01*
X159670666Y-84272380D01*
X159575428Y-84224761D01*
X159527809Y-84177142D01*
X158321476Y-86955380D02*
X158321476Y-87669666D01*
X158273857Y-87812523D01*
X158178619Y-87907761D01*
X158035761Y-87955380D01*
X157940523Y-87955380D01*
X159321476Y-87955380D02*
X158750047Y-87955380D01*
X159035761Y-87955380D02*
X159035761Y-86955380D01*
X158940523Y-87098238D01*
X158845285Y-87193476D01*
X158750047Y-87241095D01*
X160178619Y-87288714D02*
X160178619Y-87955380D01*
X159940523Y-86907761D02*
X159702428Y-87622047D01*
X160321476Y-87622047D01*
X158289666Y-112609380D02*
X158289666Y-113323666D01*
X158242047Y-113466523D01*
X158146809Y-113561761D01*
X158003952Y-113609380D01*
X157908714Y-113609380D01*
X158670619Y-112609380D02*
X159337285Y-112609380D01*
X158908714Y-113609380D01*
X158289666Y-116419380D02*
X158289666Y-117133666D01*
X158242047Y-117276523D01*
X158146809Y-117371761D01*
X158003952Y-117419380D01*
X157908714Y-117419380D01*
X158813476Y-117419380D02*
X159003952Y-117419380D01*
X159099190Y-117371761D01*
X159146809Y-117324142D01*
X159242047Y-117181285D01*
X159289666Y-116990809D01*
X159289666Y-116609857D01*
X159242047Y-116514619D01*
X159194428Y-116467000D01*
X159099190Y-116419380D01*
X158908714Y-116419380D01*
X158813476Y-116467000D01*
X158765857Y-116514619D01*
X158718238Y-116609857D01*
X158718238Y-116847952D01*
X158765857Y-116943190D01*
X158813476Y-116990809D01*
X158908714Y-117038428D01*
X159099190Y-117038428D01*
X159194428Y-116990809D01*
X159242047Y-116943190D01*
X159289666Y-116847952D01*
X148971095Y-85558380D02*
X148971095Y-86367904D01*
X149018714Y-86463142D01*
X149066333Y-86510761D01*
X149161571Y-86558380D01*
X149352047Y-86558380D01*
X149447285Y-86510761D01*
X149494904Y-86463142D01*
X149542523Y-86367904D01*
X149542523Y-85558380D01*
X149971095Y-85653619D02*
X150018714Y-85606000D01*
X150113952Y-85558380D01*
X150352047Y-85558380D01*
X150447285Y-85606000D01*
X150494904Y-85653619D01*
X150542523Y-85748857D01*
X150542523Y-85844095D01*
X150494904Y-85986952D01*
X149923476Y-86558380D01*
X150542523Y-86558380D01*
X118086142Y-87542666D02*
X118133761Y-87590285D01*
X118181380Y-87733142D01*
X118181380Y-87828380D01*
X118133761Y-87971238D01*
X118038523Y-88066476D01*
X117943285Y-88114095D01*
X117752809Y-88161714D01*
X117609952Y-88161714D01*
X117419476Y-88114095D01*
X117324238Y-88066476D01*
X117229000Y-87971238D01*
X117181380Y-87828380D01*
X117181380Y-87733142D01*
X117229000Y-87590285D01*
X117276619Y-87542666D01*
X117276619Y-87161714D02*
X117229000Y-87114095D01*
X117181380Y-87018857D01*
X117181380Y-86780761D01*
X117229000Y-86685523D01*
X117276619Y-86637904D01*
X117371857Y-86590285D01*
X117467095Y-86590285D01*
X117609952Y-86637904D01*
X118181380Y-87209333D01*
X118181380Y-86590285D01*
X149058333Y-74398142D02*
X149010714Y-74445761D01*
X148867857Y-74493380D01*
X148772619Y-74493380D01*
X148629761Y-74445761D01*
X148534523Y-74350523D01*
X148486904Y-74255285D01*
X148439285Y-74064809D01*
X148439285Y-73921952D01*
X148486904Y-73731476D01*
X148534523Y-73636238D01*
X148629761Y-73541000D01*
X148772619Y-73493380D01*
X148867857Y-73493380D01*
X149010714Y-73541000D01*
X149058333Y-73588619D01*
X149391666Y-73493380D02*
X150010714Y-73493380D01*
X149677380Y-73874333D01*
X149820238Y-73874333D01*
X149915476Y-73921952D01*
X149963095Y-73969571D01*
X150010714Y-74064809D01*
X150010714Y-74302904D01*
X149963095Y-74398142D01*
X149915476Y-74445761D01*
X149820238Y-74493380D01*
X149534523Y-74493380D01*
X149439285Y-74445761D01*
X149391666Y-74398142D01*
X121118380Y-113363333D02*
X121832666Y-113363333D01*
X121975523Y-113410952D01*
X122070761Y-113506190D01*
X122118380Y-113649047D01*
X122118380Y-113744285D01*
X121546952Y-112744285D02*
X121499333Y-112839523D01*
X121451714Y-112887142D01*
X121356476Y-112934761D01*
X121308857Y-112934761D01*
X121213619Y-112887142D01*
X121166000Y-112839523D01*
X121118380Y-112744285D01*
X121118380Y-112553809D01*
X121166000Y-112458571D01*
X121213619Y-112410952D01*
X121308857Y-112363333D01*
X121356476Y-112363333D01*
X121451714Y-112410952D01*
X121499333Y-112458571D01*
X121546952Y-112553809D01*
X121546952Y-112744285D01*
X121594571Y-112839523D01*
X121642190Y-112887142D01*
X121737428Y-112934761D01*
X121927904Y-112934761D01*
X122023142Y-112887142D01*
X122070761Y-112839523D01*
X122118380Y-112744285D01*
X122118380Y-112553809D01*
X122070761Y-112458571D01*
X122023142Y-112410952D01*
X121927904Y-112363333D01*
X121737428Y-112363333D01*
X121642190Y-112410952D01*
X121594571Y-112458571D01*
X121546952Y-112553809D01*
X112863380Y-87931523D02*
X113577666Y-87931523D01*
X113720523Y-87979142D01*
X113815761Y-88074380D01*
X113863380Y-88217238D01*
X113863380Y-88312476D01*
X113863380Y-86931523D02*
X113863380Y-87502952D01*
X113863380Y-87217238D02*
X112863380Y-87217238D01*
X113006238Y-87312476D01*
X113101476Y-87407714D01*
X113149095Y-87502952D01*
X112863380Y-86026761D02*
X112863380Y-86502952D01*
X113339571Y-86550571D01*
X113291952Y-86502952D01*
X113244333Y-86407714D01*
X113244333Y-86169619D01*
X113291952Y-86074380D01*
X113339571Y-86026761D01*
X113434809Y-85979142D01*
X113672904Y-85979142D01*
X113768142Y-86026761D01*
X113815761Y-86074380D01*
X113863380Y-86169619D01*
X113863380Y-86407714D01*
X113815761Y-86502952D01*
X113768142Y-86550571D01*
X119197380Y-121388095D02*
X118197380Y-121388095D01*
X118197380Y-121150000D01*
X118245000Y-121007142D01*
X118340238Y-120911904D01*
X118435476Y-120864285D01*
X118625952Y-120816666D01*
X118768809Y-120816666D01*
X118959285Y-120864285D01*
X119054523Y-120911904D01*
X119149761Y-121007142D01*
X119197380Y-121150000D01*
X119197380Y-121388095D01*
X119197380Y-119864285D02*
X119197380Y-120435714D01*
X119197380Y-120150000D02*
X118197380Y-120150000D01*
X118340238Y-120245238D01*
X118435476Y-120340476D01*
X118483095Y-120435714D01*
X118030666Y-79811571D02*
X117697333Y-79811571D01*
X117697333Y-80335380D02*
X117697333Y-79335380D01*
X118173523Y-79335380D01*
X119078285Y-80335380D02*
X118506857Y-80335380D01*
X118792571Y-80335380D02*
X118792571Y-79335380D01*
X118697333Y-79478238D01*
X118602095Y-79573476D01*
X118506857Y-79621095D01*
X123912333Y-102052380D02*
X123579000Y-101576190D01*
X123340904Y-102052380D02*
X123340904Y-101052380D01*
X123721857Y-101052380D01*
X123817095Y-101100000D01*
X123864714Y-101147619D01*
X123912333Y-101242857D01*
X123912333Y-101385714D01*
X123864714Y-101480952D01*
X123817095Y-101528571D01*
X123721857Y-101576190D01*
X123340904Y-101576190D01*
X124769476Y-101385714D02*
X124769476Y-102052380D01*
X124531380Y-101004761D02*
X124293285Y-101719047D01*
X124912333Y-101719047D01*
X114879380Y-112402857D02*
X114403190Y-112736190D01*
X114879380Y-112974285D02*
X113879380Y-112974285D01*
X113879380Y-112593333D01*
X113927000Y-112498095D01*
X113974619Y-112450476D01*
X114069857Y-112402857D01*
X114212714Y-112402857D01*
X114307952Y-112450476D01*
X114355571Y-112498095D01*
X114403190Y-112593333D01*
X114403190Y-112974285D01*
X113974619Y-112021904D02*
X113927000Y-111974285D01*
X113879380Y-111879047D01*
X113879380Y-111640952D01*
X113927000Y-111545714D01*
X113974619Y-111498095D01*
X114069857Y-111450476D01*
X114165095Y-111450476D01*
X114307952Y-111498095D01*
X114879380Y-112069523D01*
X114879380Y-111450476D01*
X114879380Y-110498095D02*
X114879380Y-111069523D01*
X114879380Y-110783809D02*
X113879380Y-110783809D01*
X114022238Y-110879047D01*
X114117476Y-110974285D01*
X114165095Y-111069523D01*
X166830476Y-123277380D02*
X166830476Y-123991666D01*
X166782857Y-124134523D01*
X166687619Y-124229761D01*
X166544761Y-124277380D01*
X166449523Y-124277380D01*
X167830476Y-124277380D02*
X167259047Y-124277380D01*
X167544761Y-124277380D02*
X167544761Y-123277380D01*
X167449523Y-123420238D01*
X167354285Y-123515476D01*
X167259047Y-123563095D01*
X168163809Y-123277380D02*
X168830476Y-123277380D01*
X168401904Y-124277380D01*
X154130476Y-123277380D02*
X154130476Y-123991666D01*
X154082857Y-124134523D01*
X153987619Y-124229761D01*
X153844761Y-124277380D01*
X153749523Y-124277380D01*
X155130476Y-124277380D02*
X154559047Y-124277380D01*
X154844761Y-124277380D02*
X154844761Y-123277380D01*
X154749523Y-123420238D01*
X154654285Y-123515476D01*
X154559047Y-123563095D01*
X155701904Y-123705952D02*
X155606666Y-123658333D01*
X155559047Y-123610714D01*
X155511428Y-123515476D01*
X155511428Y-123467857D01*
X155559047Y-123372619D01*
X155606666Y-123325000D01*
X155701904Y-123277380D01*
X155892380Y-123277380D01*
X155987619Y-123325000D01*
X156035238Y-123372619D01*
X156082857Y-123467857D01*
X156082857Y-123515476D01*
X156035238Y-123610714D01*
X155987619Y-123658333D01*
X155892380Y-123705952D01*
X155701904Y-123705952D01*
X155606666Y-123753571D01*
X155559047Y-123801190D01*
X155511428Y-123896428D01*
X155511428Y-124086904D01*
X155559047Y-124182142D01*
X155606666Y-124229761D01*
X155701904Y-124277380D01*
X155892380Y-124277380D01*
X155987619Y-124229761D01*
X156035238Y-124182142D01*
X156082857Y-124086904D01*
X156082857Y-123896428D01*
X156035238Y-123801190D01*
X155987619Y-123753571D01*
X155892380Y-123705952D01*
X167465476Y-78192380D02*
X167465476Y-78906666D01*
X167417857Y-79049523D01*
X167322619Y-79144761D01*
X167179761Y-79192380D01*
X167084523Y-79192380D01*
X168465476Y-79192380D02*
X167894047Y-79192380D01*
X168179761Y-79192380D02*
X168179761Y-78192380D01*
X168084523Y-78335238D01*
X167989285Y-78430476D01*
X167894047Y-78478095D01*
X168941666Y-79192380D02*
X169132142Y-79192380D01*
X169227380Y-79144761D01*
X169275000Y-79097142D01*
X169370238Y-78954285D01*
X169417857Y-78763809D01*
X169417857Y-78382857D01*
X169370238Y-78287619D01*
X169322619Y-78240000D01*
X169227380Y-78192380D01*
X169036904Y-78192380D01*
X168941666Y-78240000D01*
X168894047Y-78287619D01*
X168846428Y-78382857D01*
X168846428Y-78620952D01*
X168894047Y-78716190D01*
X168941666Y-78763809D01*
X169036904Y-78811428D01*
X169227380Y-78811428D01*
X169322619Y-78763809D01*
X169370238Y-78716190D01*
X169417857Y-78620952D01*
X180165476Y-123277380D02*
X180165476Y-123991666D01*
X180117857Y-124134523D01*
X180022619Y-124229761D01*
X179879761Y-124277380D01*
X179784523Y-124277380D01*
X180594047Y-123372619D02*
X180641666Y-123325000D01*
X180736904Y-123277380D01*
X180975000Y-123277380D01*
X181070238Y-123325000D01*
X181117857Y-123372619D01*
X181165476Y-123467857D01*
X181165476Y-123563095D01*
X181117857Y-123705952D01*
X180546428Y-124277380D01*
X181165476Y-124277380D01*
X181784523Y-123277380D02*
X181879761Y-123277380D01*
X181975000Y-123325000D01*
X182022619Y-123372619D01*
X182070238Y-123467857D01*
X182117857Y-123658333D01*
X182117857Y-123896428D01*
X182070238Y-124086904D01*
X182022619Y-124182142D01*
X181975000Y-124229761D01*
X181879761Y-124277380D01*
X181784523Y-124277380D01*
X181689285Y-124229761D01*
X181641666Y-124182142D01*
X181594047Y-124086904D01*
X181546428Y-123896428D01*
X181546428Y-123658333D01*
X181594047Y-123467857D01*
X181641666Y-123372619D01*
X181689285Y-123325000D01*
X181784523Y-123277380D01*
X196675476Y-127722380D02*
X196675476Y-128436666D01*
X196627857Y-128579523D01*
X196532619Y-128674761D01*
X196389761Y-128722380D01*
X196294523Y-128722380D01*
X197104047Y-127817619D02*
X197151666Y-127770000D01*
X197246904Y-127722380D01*
X197485000Y-127722380D01*
X197580238Y-127770000D01*
X197627857Y-127817619D01*
X197675476Y-127912857D01*
X197675476Y-128008095D01*
X197627857Y-128150952D01*
X197056428Y-128722380D01*
X197675476Y-128722380D01*
X198627857Y-128722380D02*
X198056428Y-128722380D01*
X198342142Y-128722380D02*
X198342142Y-127722380D01*
X198246904Y-127865238D01*
X198151666Y-127960476D01*
X198056428Y-128008095D01*
X195659476Y-71715380D02*
X195659476Y-72429666D01*
X195611857Y-72572523D01*
X195516619Y-72667761D01*
X195373761Y-72715380D01*
X195278523Y-72715380D01*
X196088047Y-71810619D02*
X196135666Y-71763000D01*
X196230904Y-71715380D01*
X196469000Y-71715380D01*
X196564238Y-71763000D01*
X196611857Y-71810619D01*
X196659476Y-71905857D01*
X196659476Y-72001095D01*
X196611857Y-72143952D01*
X196040428Y-72715380D01*
X196659476Y-72715380D01*
X197564238Y-71715380D02*
X197088047Y-71715380D01*
X197040428Y-72191571D01*
X197088047Y-72143952D01*
X197183285Y-72096333D01*
X197421380Y-72096333D01*
X197516619Y-72143952D01*
X197564238Y-72191571D01*
X197611857Y-72286809D01*
X197611857Y-72524904D01*
X197564238Y-72620142D01*
X197516619Y-72667761D01*
X197421380Y-72715380D01*
X197183285Y-72715380D01*
X197088047Y-72667761D01*
X197040428Y-72620142D01*
M02*
