G04 #@! TF.FileFunction,Paste,Top*
%FSLAX46Y46*%
G04 Gerber Fmt 4.6, Leading zero omitted, Abs format (unit mm)*
G04 Created by KiCad (PCBNEW 4.0.6) date 07/04/17 10:51:02*
%MOMM*%
%LPD*%
G01*
G04 APERTURE LIST*
%ADD10C,0.100000*%
%ADD11C,0.300000*%
%ADD12R,1.600000X1.000000*%
%ADD13R,1.000000X1.600000*%
%ADD14R,0.900000X1.200000*%
%ADD15R,0.900000X1.700000*%
%ADD16R,1.700000X0.900000*%
%ADD17R,1.200000X0.900000*%
%ADD18R,1.597660X0.698500*%
%ADD19R,3.500000X1.600000*%
%ADD20R,1.600000X3.500000*%
G04 APERTURE END LIST*
D10*
D11*
X164425378Y-58113051D02*
X164425378Y-56613051D01*
X164925378Y-57684480D01*
X165425378Y-56613051D01*
X165425378Y-58113051D01*
X166711092Y-58041623D02*
X166568235Y-58113051D01*
X166282521Y-58113051D01*
X166139664Y-58041623D01*
X166068235Y-57898766D01*
X166068235Y-57327337D01*
X166139664Y-57184480D01*
X166282521Y-57113051D01*
X166568235Y-57113051D01*
X166711092Y-57184480D01*
X166782521Y-57327337D01*
X166782521Y-57470194D01*
X166068235Y-57613051D01*
X168068235Y-57113051D02*
X168068235Y-58327337D01*
X167996806Y-58470194D01*
X167925378Y-58541623D01*
X167782521Y-58613051D01*
X167568235Y-58613051D01*
X167425378Y-58541623D01*
X168068235Y-58041623D02*
X167925378Y-58113051D01*
X167639664Y-58113051D01*
X167496806Y-58041623D01*
X167425378Y-57970194D01*
X167353949Y-57827337D01*
X167353949Y-57398766D01*
X167425378Y-57255909D01*
X167496806Y-57184480D01*
X167639664Y-57113051D01*
X167925378Y-57113051D01*
X168068235Y-57184480D01*
X169425378Y-58113051D02*
X169425378Y-57327337D01*
X169353949Y-57184480D01*
X169211092Y-57113051D01*
X168925378Y-57113051D01*
X168782521Y-57184480D01*
X169425378Y-58041623D02*
X169282521Y-58113051D01*
X168925378Y-58113051D01*
X168782521Y-58041623D01*
X168711092Y-57898766D01*
X168711092Y-57755909D01*
X168782521Y-57613051D01*
X168925378Y-57541623D01*
X169282521Y-57541623D01*
X169425378Y-57470194D01*
X172139664Y-57970194D02*
X172068235Y-58041623D01*
X171853949Y-58113051D01*
X171711092Y-58113051D01*
X171496807Y-58041623D01*
X171353949Y-57898766D01*
X171282521Y-57755909D01*
X171211092Y-57470194D01*
X171211092Y-57255909D01*
X171282521Y-56970194D01*
X171353949Y-56827337D01*
X171496807Y-56684480D01*
X171711092Y-56613051D01*
X171853949Y-56613051D01*
X172068235Y-56684480D01*
X172139664Y-56755909D01*
X172996807Y-58113051D02*
X172853949Y-58041623D01*
X172782521Y-57970194D01*
X172711092Y-57827337D01*
X172711092Y-57398766D01*
X172782521Y-57255909D01*
X172853949Y-57184480D01*
X172996807Y-57113051D01*
X173211092Y-57113051D01*
X173353949Y-57184480D01*
X173425378Y-57255909D01*
X173496807Y-57398766D01*
X173496807Y-57827337D01*
X173425378Y-57970194D01*
X173353949Y-58041623D01*
X173211092Y-58113051D01*
X172996807Y-58113051D01*
X174139664Y-58113051D02*
X174139664Y-57113051D01*
X174139664Y-57398766D02*
X174211092Y-57255909D01*
X174282521Y-57184480D01*
X174425378Y-57113051D01*
X174568235Y-57113051D01*
X175639663Y-58041623D02*
X175496806Y-58113051D01*
X175211092Y-58113051D01*
X175068235Y-58041623D01*
X174996806Y-57898766D01*
X174996806Y-57327337D01*
X175068235Y-57184480D01*
X175211092Y-57113051D01*
X175496806Y-57113051D01*
X175639663Y-57184480D01*
X175711092Y-57327337D01*
X175711092Y-57470194D01*
X174996806Y-57613051D01*
X177425377Y-56755909D02*
X177496806Y-56684480D01*
X177639663Y-56613051D01*
X177996806Y-56613051D01*
X178139663Y-56684480D01*
X178211092Y-56755909D01*
X178282520Y-56898766D01*
X178282520Y-57041623D01*
X178211092Y-57255909D01*
X177353949Y-58113051D01*
X178282520Y-58113051D01*
X179639663Y-56613051D02*
X178925377Y-56613051D01*
X178853948Y-57327337D01*
X178925377Y-57255909D01*
X179068234Y-57184480D01*
X179425377Y-57184480D01*
X179568234Y-57255909D01*
X179639663Y-57327337D01*
X179711091Y-57470194D01*
X179711091Y-57827337D01*
X179639663Y-57970194D01*
X179568234Y-58041623D01*
X179425377Y-58113051D01*
X179068234Y-58113051D01*
X178925377Y-58041623D01*
X178853948Y-57970194D01*
X180996805Y-56613051D02*
X180711091Y-56613051D01*
X180568234Y-56684480D01*
X180496805Y-56755909D01*
X180353948Y-56970194D01*
X180282519Y-57255909D01*
X180282519Y-57827337D01*
X180353948Y-57970194D01*
X180425376Y-58041623D01*
X180568234Y-58113051D01*
X180853948Y-58113051D01*
X180996805Y-58041623D01*
X181068234Y-57970194D01*
X181139662Y-57827337D01*
X181139662Y-57470194D01*
X181068234Y-57327337D01*
X180996805Y-57255909D01*
X180853948Y-57184480D01*
X180568234Y-57184480D01*
X180425376Y-57255909D01*
X180353948Y-57327337D01*
X180282519Y-57470194D01*
X182068233Y-56613051D02*
X182211090Y-56613051D01*
X182353947Y-56684480D01*
X182425376Y-56755909D01*
X182496805Y-56898766D01*
X182568233Y-57184480D01*
X182568233Y-57541623D01*
X182496805Y-57827337D01*
X182425376Y-57970194D01*
X182353947Y-58041623D01*
X182211090Y-58113051D01*
X182068233Y-58113051D01*
X181925376Y-58041623D01*
X181853947Y-57970194D01*
X181782519Y-57827337D01*
X181711090Y-57541623D01*
X181711090Y-57184480D01*
X181782519Y-56898766D01*
X181853947Y-56755909D01*
X181925376Y-56684480D01*
X182068233Y-56613051D01*
X184282518Y-58041623D02*
X184425375Y-58113051D01*
X184711090Y-58113051D01*
X184853947Y-58041623D01*
X184925375Y-57898766D01*
X184925375Y-57827337D01*
X184853947Y-57684480D01*
X184711090Y-57613051D01*
X184496804Y-57613051D01*
X184353947Y-57541623D01*
X184282518Y-57398766D01*
X184282518Y-57327337D01*
X184353947Y-57184480D01*
X184496804Y-57113051D01*
X184711090Y-57113051D01*
X184853947Y-57184480D01*
X185568233Y-58113051D02*
X185568233Y-56613051D01*
X186211090Y-58113051D02*
X186211090Y-57327337D01*
X186139661Y-57184480D01*
X185996804Y-57113051D01*
X185782519Y-57113051D01*
X185639661Y-57184480D01*
X185568233Y-57255909D01*
X186925376Y-58113051D02*
X186925376Y-57113051D01*
X186925376Y-56613051D02*
X186853947Y-56684480D01*
X186925376Y-56755909D01*
X186996804Y-56684480D01*
X186925376Y-56613051D01*
X186925376Y-56755909D01*
X188211090Y-58041623D02*
X188068233Y-58113051D01*
X187782519Y-58113051D01*
X187639662Y-58041623D01*
X187568233Y-57898766D01*
X187568233Y-57327337D01*
X187639662Y-57184480D01*
X187782519Y-57113051D01*
X188068233Y-57113051D01*
X188211090Y-57184480D01*
X188282519Y-57327337D01*
X188282519Y-57470194D01*
X187568233Y-57613051D01*
X189139662Y-58113051D02*
X188996804Y-58041623D01*
X188925376Y-57898766D01*
X188925376Y-56613051D01*
X190353947Y-58113051D02*
X190353947Y-56613051D01*
X190353947Y-58041623D02*
X190211090Y-58113051D01*
X189925376Y-58113051D01*
X189782518Y-58041623D01*
X189711090Y-57970194D01*
X189639661Y-57827337D01*
X189639661Y-57398766D01*
X189711090Y-57255909D01*
X189782518Y-57184480D01*
X189925376Y-57113051D01*
X190211090Y-57113051D01*
X190353947Y-57184480D01*
X192211090Y-58113051D02*
X192211090Y-56613051D01*
X192782518Y-56613051D01*
X192925376Y-56684480D01*
X192996804Y-56755909D01*
X193068233Y-56898766D01*
X193068233Y-57113051D01*
X192996804Y-57255909D01*
X192925376Y-57327337D01*
X192782518Y-57398766D01*
X192211090Y-57398766D01*
X194353947Y-58113051D02*
X194353947Y-57327337D01*
X194282518Y-57184480D01*
X194139661Y-57113051D01*
X193853947Y-57113051D01*
X193711090Y-57184480D01*
X194353947Y-58041623D02*
X194211090Y-58113051D01*
X193853947Y-58113051D01*
X193711090Y-58041623D01*
X193639661Y-57898766D01*
X193639661Y-57755909D01*
X193711090Y-57613051D01*
X193853947Y-57541623D01*
X194211090Y-57541623D01*
X194353947Y-57470194D01*
X194996804Y-58041623D02*
X195139661Y-58113051D01*
X195425376Y-58113051D01*
X195568233Y-58041623D01*
X195639661Y-57898766D01*
X195639661Y-57827337D01*
X195568233Y-57684480D01*
X195425376Y-57613051D01*
X195211090Y-57613051D01*
X195068233Y-57541623D01*
X194996804Y-57398766D01*
X194996804Y-57327337D01*
X195068233Y-57184480D01*
X195211090Y-57113051D01*
X195425376Y-57113051D01*
X195568233Y-57184480D01*
X196068233Y-57113051D02*
X196639662Y-57113051D01*
X196282519Y-56613051D02*
X196282519Y-57898766D01*
X196353947Y-58041623D01*
X196496805Y-58113051D01*
X196639662Y-58113051D01*
X198282519Y-58113051D02*
X198282519Y-56613051D01*
X198782519Y-57684480D01*
X199282519Y-56613051D01*
X199282519Y-58113051D01*
X200639662Y-58113051D02*
X200639662Y-57327337D01*
X200568233Y-57184480D01*
X200425376Y-57113051D01*
X200139662Y-57113051D01*
X199996805Y-57184480D01*
X200639662Y-58041623D02*
X200496805Y-58113051D01*
X200139662Y-58113051D01*
X199996805Y-58041623D01*
X199925376Y-57898766D01*
X199925376Y-57755909D01*
X199996805Y-57613051D01*
X200139662Y-57541623D01*
X200496805Y-57541623D01*
X200639662Y-57470194D01*
X201282519Y-58041623D02*
X201425376Y-58113051D01*
X201711091Y-58113051D01*
X201853948Y-58041623D01*
X201925376Y-57898766D01*
X201925376Y-57827337D01*
X201853948Y-57684480D01*
X201711091Y-57613051D01*
X201496805Y-57613051D01*
X201353948Y-57541623D01*
X201282519Y-57398766D01*
X201282519Y-57327337D01*
X201353948Y-57184480D01*
X201496805Y-57113051D01*
X201711091Y-57113051D01*
X201853948Y-57184480D01*
X202568234Y-58113051D02*
X202568234Y-56613051D01*
X202711091Y-57541623D02*
X203139662Y-58113051D01*
X203139662Y-57113051D02*
X202568234Y-57684480D01*
X205711091Y-58113051D02*
X204853948Y-58113051D01*
X205282520Y-58113051D02*
X205282520Y-56613051D01*
X205139663Y-56827337D01*
X204996805Y-56970194D01*
X204853948Y-57041623D01*
X207425376Y-56541623D02*
X206139662Y-58470194D01*
X207853948Y-56755909D02*
X207925377Y-56684480D01*
X208068234Y-56613051D01*
X208425377Y-56613051D01*
X208568234Y-56684480D01*
X208639663Y-56755909D01*
X208711091Y-56898766D01*
X208711091Y-57041623D01*
X208639663Y-57255909D01*
X207782520Y-58113051D01*
X208711091Y-58113051D01*
D12*
X215107520Y-116719480D03*
X215107520Y-113719480D03*
D13*
X224227520Y-107599480D03*
X221227520Y-107599480D03*
X224227520Y-110139480D03*
X221227520Y-110139480D03*
X224227520Y-112679480D03*
X221227520Y-112679480D03*
D12*
X212567520Y-116719480D03*
X212567520Y-113719480D03*
X210027520Y-116719480D03*
X210027520Y-113719480D03*
D13*
X148027520Y-77119480D03*
X145027520Y-77119480D03*
X148027520Y-74579480D03*
X145027520Y-74579480D03*
D12*
X208757520Y-75444480D03*
X208757520Y-72444480D03*
D13*
X192477520Y-84104480D03*
X189477520Y-84104480D03*
D12*
X208122520Y-90859480D03*
X208122520Y-93859480D03*
D14*
X208502520Y-88549480D03*
X205202520Y-88549480D03*
D15*
X201952520Y-64419480D03*
X199052520Y-64419480D03*
X201952520Y-66959480D03*
X199052520Y-66959480D03*
D16*
X178912520Y-107779480D03*
X178912520Y-104879480D03*
D15*
X183177520Y-101884480D03*
X186077520Y-101884480D03*
X196237520Y-108869480D03*
X193337520Y-108869480D03*
D16*
X188437520Y-90274480D03*
X188437520Y-93174480D03*
X183357520Y-90274480D03*
X183357520Y-93174480D03*
X143352520Y-90634480D03*
X143352520Y-87734480D03*
X143352520Y-85554480D03*
X143352520Y-82654480D03*
D17*
X211932520Y-67214480D03*
X211932520Y-70514480D03*
D18*
X183149240Y-103792020D03*
X183149240Y-105062020D03*
X183149240Y-106332020D03*
X183149240Y-107599480D03*
X183149240Y-108866940D03*
X183149240Y-110136940D03*
X183149240Y-111406940D03*
X188645800Y-111406940D03*
X188645800Y-110136940D03*
X188645800Y-108866940D03*
X188645800Y-107599480D03*
X188645800Y-106332020D03*
X188645800Y-105062020D03*
X188645800Y-103792020D03*
X146954240Y-86012020D03*
X146954240Y-87282020D03*
X146954240Y-88552020D03*
X146954240Y-89819480D03*
X146954240Y-91086940D03*
X146954240Y-92356940D03*
X146954240Y-93626940D03*
X152450800Y-93626940D03*
X152450800Y-92356940D03*
X152450800Y-91086940D03*
X152450800Y-89819480D03*
X152450800Y-88552020D03*
X152450800Y-87282020D03*
X152450800Y-86012020D03*
D15*
X177187520Y-111409480D03*
X174287520Y-111409480D03*
D19*
X215582520Y-67594480D03*
X220982520Y-67594480D03*
D12*
X176372520Y-107829480D03*
X176372520Y-104829480D03*
D20*
X220187520Y-74419480D03*
X220187520Y-79819480D03*
X213202520Y-74419480D03*
X213202520Y-79819480D03*
M02*
