G04 #@! TF.FileFunction,Other,Fab,Top*
%FSLAX46Y46*%
G04 Gerber Fmt 4.6, Leading zero omitted, Abs format (unit mm)*
G04 Created by KiCad (PCBNEW 4.0.6) date 07/04/17 10:51:02*
%MOMM*%
%LPD*%
G01*
G04 APERTURE LIST*
%ADD10C,0.100000*%
%ADD11C,0.150000*%
G04 APERTURE END LIST*
D10*
X209392520Y-102519480D02*
X209392520Y-110139480D01*
X209392520Y-110139480D02*
X211932520Y-110139480D01*
X211932520Y-110139480D02*
X211932520Y-102519480D01*
X211932520Y-102519480D02*
X209392520Y-102519480D01*
X156197520Y-115099480D02*
G75*
G03X156197520Y-115099480I-1095000J0D01*
G01*
X146842520Y-111539480D02*
X146842520Y-116369480D01*
X146842520Y-116369480D02*
X156372520Y-116369480D01*
X156372520Y-116369480D02*
X156372520Y-111539480D01*
X156372520Y-111539480D02*
X146842520Y-111539480D01*
X155933520Y-114403480D02*
X154406520Y-115930480D01*
X155799520Y-114269480D02*
X154272520Y-115796480D01*
X209392520Y-87279480D02*
X209392520Y-77119480D01*
X209392520Y-77119480D02*
X204312520Y-77119480D01*
X204312520Y-77119480D02*
X204312520Y-87279480D01*
X204312520Y-87279480D02*
X209392520Y-87279480D01*
X154600520Y-80741480D02*
G75*
G03X154600520Y-80741480I-1095000J0D01*
G01*
X157065520Y-72481480D02*
X152235520Y-72481480D01*
X152235520Y-72481480D02*
X152235520Y-82011480D01*
X152235520Y-82011480D02*
X157065520Y-82011480D01*
X157065520Y-82011480D02*
X157065520Y-72481480D01*
X154201520Y-81572480D02*
X152674520Y-80045480D01*
X154335520Y-81438480D02*
X152808520Y-79911480D01*
X160002520Y-105179480D02*
G75*
G03X160002520Y-105179480I-1095000J0D01*
G01*
X167167520Y-108739480D02*
X167167520Y-103909480D01*
X167167520Y-103909480D02*
X157637520Y-103909480D01*
X157637520Y-103909480D02*
X157637520Y-108739480D01*
X157637520Y-108739480D02*
X167167520Y-108739480D01*
X158076520Y-105875480D02*
X159603520Y-104348480D01*
X158210520Y-106009480D02*
X159737520Y-104482480D01*
X146527520Y-120299480D02*
X146527520Y-94899480D01*
X146527520Y-94899480D02*
X141447520Y-94899480D01*
X141447520Y-94899480D02*
X141447520Y-120299480D01*
X141447520Y-120299480D02*
X146527520Y-120299480D01*
X160002520Y-70889480D02*
G75*
G03X160002520Y-70889480I-1095000J0D01*
G01*
X167167520Y-74449480D02*
X167167520Y-69619480D01*
X167167520Y-69619480D02*
X157637520Y-69619480D01*
X157637520Y-69619480D02*
X157637520Y-74449480D01*
X157637520Y-74449480D02*
X167167520Y-74449480D01*
X158076520Y-71585480D02*
X159603520Y-70058480D01*
X158210520Y-71719480D02*
X159737520Y-70192480D01*
X213202520Y-101249480D02*
X213202520Y-111409480D01*
X213202520Y-111409480D02*
X215742520Y-111409480D01*
X215742520Y-111409480D02*
X215742520Y-101249480D01*
X215742520Y-101249480D02*
X213202520Y-101249480D01*
X141447520Y-70769480D02*
X141447520Y-80929480D01*
X141447520Y-80929480D02*
X143987520Y-80929480D01*
X143987520Y-80929480D02*
X143987520Y-70769480D01*
X143987520Y-70769480D02*
X141447520Y-70769480D01*
X206852520Y-99979480D02*
X206852520Y-89819480D01*
X206852520Y-89819480D02*
X204312520Y-89819480D01*
X204312520Y-89819480D02*
X204312520Y-99979480D01*
X204312520Y-99979480D02*
X206852520Y-99979480D01*
X170022520Y-68229480D02*
X182722520Y-68229480D01*
X182722520Y-68229480D02*
X182722520Y-63149480D01*
X182722520Y-63149480D02*
X170022520Y-63149480D01*
X170022520Y-63149480D02*
X170022520Y-68229480D01*
X183357520Y-68229480D02*
X196057520Y-68229480D01*
X196057520Y-68229480D02*
X196057520Y-63149480D01*
X196057520Y-63149480D02*
X183357520Y-63149480D01*
X183357520Y-63149480D02*
X183357520Y-68229480D01*
X215907520Y-116819480D02*
X214307520Y-116819480D01*
X215907520Y-113619480D02*
X215907520Y-116819480D01*
X214307520Y-113619480D02*
X215907520Y-113619480D01*
X214307520Y-116819480D02*
X214307520Y-113619480D01*
X224327520Y-106799480D02*
X224327520Y-108399480D01*
X221127520Y-106799480D02*
X224327520Y-106799480D01*
X221127520Y-108399480D02*
X221127520Y-106799480D01*
X224327520Y-108399480D02*
X221127520Y-108399480D01*
X224327520Y-109339480D02*
X224327520Y-110939480D01*
X221127520Y-109339480D02*
X224327520Y-109339480D01*
X221127520Y-110939480D02*
X221127520Y-109339480D01*
X224327520Y-110939480D02*
X221127520Y-110939480D01*
X224327520Y-111879480D02*
X224327520Y-113479480D01*
X221127520Y-111879480D02*
X224327520Y-111879480D01*
X221127520Y-113479480D02*
X221127520Y-111879480D01*
X224327520Y-113479480D02*
X221127520Y-113479480D01*
X213367520Y-116819480D02*
X211767520Y-116819480D01*
X213367520Y-113619480D02*
X213367520Y-116819480D01*
X211767520Y-113619480D02*
X213367520Y-113619480D01*
X211767520Y-116819480D02*
X211767520Y-113619480D01*
X210827520Y-116819480D02*
X209227520Y-116819480D01*
X210827520Y-113619480D02*
X210827520Y-116819480D01*
X209227520Y-113619480D02*
X210827520Y-113619480D01*
X209227520Y-116819480D02*
X209227520Y-113619480D01*
X148127520Y-76319480D02*
X148127520Y-77919480D01*
X144927520Y-76319480D02*
X148127520Y-76319480D01*
X144927520Y-77919480D02*
X144927520Y-76319480D01*
X148127520Y-77919480D02*
X144927520Y-77919480D01*
X148127520Y-73779480D02*
X148127520Y-75379480D01*
X144927520Y-73779480D02*
X148127520Y-73779480D01*
X144927520Y-75379480D02*
X144927520Y-73779480D01*
X148127520Y-75379480D02*
X144927520Y-75379480D01*
X209557520Y-75544480D02*
X207957520Y-75544480D01*
X209557520Y-72344480D02*
X209557520Y-75544480D01*
X207957520Y-72344480D02*
X209557520Y-72344480D01*
X207957520Y-75544480D02*
X207957520Y-72344480D01*
X192577520Y-83304480D02*
X192577520Y-84904480D01*
X189377520Y-83304480D02*
X192577520Y-83304480D01*
X189377520Y-84904480D02*
X189377520Y-83304480D01*
X192577520Y-84904480D02*
X189377520Y-84904480D01*
X207322520Y-90759480D02*
X208922520Y-90759480D01*
X207322520Y-93959480D02*
X207322520Y-90759480D01*
X208922520Y-93959480D02*
X207322520Y-93959480D01*
X208922520Y-90759480D02*
X208922520Y-93959480D01*
X206602520Y-88549480D02*
X206102520Y-88549480D01*
X206602520Y-88149480D02*
X207202520Y-88549480D01*
X206602520Y-88949480D02*
X206602520Y-88149480D01*
X207202520Y-88549480D02*
X206602520Y-88949480D01*
X207202520Y-88549480D02*
X207202520Y-87999480D01*
X207202520Y-88549480D02*
X207202520Y-89099480D01*
X207602520Y-88549480D02*
X207202520Y-88549480D01*
X208252520Y-87649480D02*
X208252520Y-89449480D01*
X205452520Y-87649480D02*
X208252520Y-87649480D01*
X205452520Y-89449480D02*
X205452520Y-87649480D01*
X208252520Y-89449480D02*
X205452520Y-89449480D01*
X202102520Y-63619480D02*
X202102520Y-65219480D01*
X198902520Y-63619480D02*
X202102520Y-63619480D01*
X198902520Y-65219480D02*
X198902520Y-63619480D01*
X202102520Y-65219480D02*
X198902520Y-65219480D01*
X202102520Y-66159480D02*
X202102520Y-67759480D01*
X198902520Y-66159480D02*
X202102520Y-66159480D01*
X198902520Y-67759480D02*
X198902520Y-66159480D01*
X202102520Y-67759480D02*
X198902520Y-67759480D01*
X179712520Y-107929480D02*
X178112520Y-107929480D01*
X179712520Y-104729480D02*
X179712520Y-107929480D01*
X178112520Y-104729480D02*
X179712520Y-104729480D01*
X178112520Y-107929480D02*
X178112520Y-104729480D01*
X183027520Y-102684480D02*
X183027520Y-101084480D01*
X186227520Y-102684480D02*
X183027520Y-102684480D01*
X186227520Y-101084480D02*
X186227520Y-102684480D01*
X183027520Y-101084480D02*
X186227520Y-101084480D01*
X196387520Y-108069480D02*
X196387520Y-109669480D01*
X193187520Y-108069480D02*
X196387520Y-108069480D01*
X193187520Y-109669480D02*
X193187520Y-108069480D01*
X196387520Y-109669480D02*
X193187520Y-109669480D01*
X187637520Y-90124480D02*
X189237520Y-90124480D01*
X187637520Y-93324480D02*
X187637520Y-90124480D01*
X189237520Y-93324480D02*
X187637520Y-93324480D01*
X189237520Y-90124480D02*
X189237520Y-93324480D01*
X182557520Y-90124480D02*
X184157520Y-90124480D01*
X182557520Y-93324480D02*
X182557520Y-90124480D01*
X184157520Y-93324480D02*
X182557520Y-93324480D01*
X184157520Y-90124480D02*
X184157520Y-93324480D01*
X144152520Y-90784480D02*
X142552520Y-90784480D01*
X144152520Y-87584480D02*
X144152520Y-90784480D01*
X142552520Y-87584480D02*
X144152520Y-87584480D01*
X142552520Y-90784480D02*
X142552520Y-87584480D01*
X144152520Y-85704480D02*
X142552520Y-85704480D01*
X144152520Y-82504480D02*
X144152520Y-85704480D01*
X142552520Y-82504480D02*
X144152520Y-82504480D01*
X142552520Y-85704480D02*
X142552520Y-82504480D01*
X146527520Y-70134480D02*
X154147520Y-70134480D01*
X154147520Y-70134480D02*
X154147520Y-67594480D01*
X154147520Y-67594480D02*
X146527520Y-67594480D01*
X146527520Y-67594480D02*
X146527520Y-70134480D01*
X206852520Y-107599480D02*
X206852520Y-102519480D01*
X206852520Y-102519480D02*
X204312520Y-102519480D01*
X204312520Y-102519480D02*
X204312520Y-107599480D01*
X204312520Y-107599480D02*
X206852520Y-107599480D01*
X152242520Y-110139480D02*
X152242520Y-97439480D01*
X152242520Y-97439480D02*
X147162520Y-97439480D01*
X147162520Y-97439480D02*
X147162520Y-110139480D01*
X147162520Y-110139480D02*
X152242520Y-110139480D01*
X204312520Y-110139480D02*
X204312520Y-115219480D01*
X204312520Y-115219480D02*
X206852520Y-115219480D01*
X206852520Y-115219480D02*
X206852520Y-110139480D01*
X206852520Y-110139480D02*
X204312520Y-110139480D01*
X178277520Y-82834480D02*
X193517520Y-82834480D01*
X193517520Y-82834480D02*
X193517520Y-80294480D01*
X193517520Y-80294480D02*
X178277520Y-80294480D01*
X178277520Y-80294480D02*
X178277520Y-82834480D01*
X204312520Y-63149480D02*
X204312520Y-75849480D01*
X204312520Y-75849480D02*
X206852520Y-75849480D01*
X206852520Y-75849480D02*
X206852520Y-63149480D01*
X206852520Y-63149480D02*
X204312520Y-63149480D01*
X166847520Y-115219480D02*
X159227520Y-115219480D01*
X159227520Y-115219480D02*
X159227520Y-120299480D01*
X159227520Y-120299480D02*
X166847520Y-120299480D01*
X166847520Y-120299480D02*
X166847520Y-115219480D01*
X149067520Y-70769480D02*
X149067520Y-80929480D01*
X149067520Y-80929480D02*
X151607520Y-80929480D01*
X151607520Y-80929480D02*
X151607520Y-70769480D01*
X151607520Y-70769480D02*
X149067520Y-70769480D01*
X214472520Y-63149480D02*
X209392520Y-63149480D01*
X209392520Y-63149480D02*
X209392520Y-65689480D01*
X209392520Y-65689480D02*
X214472520Y-65689480D01*
X214472520Y-65689480D02*
X214472520Y-63149480D01*
X210027520Y-71404480D02*
X210027520Y-66324480D01*
X210027520Y-66324480D02*
X207487520Y-66324480D01*
X207487520Y-66324480D02*
X207487520Y-71404480D01*
X207487520Y-71404480D02*
X210027520Y-71404480D01*
X227807520Y-113949480D02*
X227807520Y-103789480D01*
X227807520Y-103789480D02*
X225267520Y-103789480D01*
X225267520Y-103789480D02*
X225267520Y-113949480D01*
X225267520Y-113949480D02*
X227807520Y-113949480D01*
X227807520Y-88549480D02*
X227807520Y-80929480D01*
X227807520Y-80929480D02*
X225267520Y-80929480D01*
X225267520Y-80929480D02*
X225267520Y-88549480D01*
X225267520Y-88549480D02*
X227807520Y-88549480D01*
X208757520Y-120299480D02*
X218917520Y-120299480D01*
X218917520Y-120299480D02*
X218917520Y-117759480D01*
X218917520Y-117759480D02*
X208757520Y-117759480D01*
X208757520Y-117759480D02*
X208757520Y-120299480D01*
X225267520Y-99992180D02*
X227807520Y-99992180D01*
X225267520Y-89832180D02*
X225267520Y-99992180D01*
X225267520Y-89832180D02*
X227807520Y-89832180D01*
X214472520Y-99992180D02*
X211932520Y-99992180D01*
X227807520Y-89832180D02*
X227807520Y-99992180D01*
X211932520Y-89832180D02*
X214472520Y-89832180D01*
X211932520Y-99992180D02*
X211932520Y-89832180D01*
X211932520Y-99992180D02*
X211932520Y-89832180D01*
X211932520Y-89832180D02*
X214472520Y-89832180D01*
X214472520Y-89832180D02*
X214472520Y-99992180D01*
X214472520Y-99992180D02*
X211932520Y-99992180D01*
X211932520Y-69114480D02*
X211932520Y-69614480D01*
X211532520Y-69114480D02*
X211932520Y-68514480D01*
X212332520Y-69114480D02*
X211532520Y-69114480D01*
X211932520Y-68514480D02*
X212332520Y-69114480D01*
X211932520Y-68514480D02*
X211382520Y-68514480D01*
X211932520Y-68514480D02*
X212482520Y-68514480D01*
X211932520Y-68114480D02*
X211932520Y-68514480D01*
X211032520Y-67464480D02*
X212832520Y-67464480D01*
X211032520Y-70264480D02*
X211032520Y-67464480D01*
X212832520Y-70264480D02*
X211032520Y-70264480D01*
X212832520Y-67464480D02*
X212832520Y-70264480D01*
X177337520Y-110609480D02*
X177337520Y-112209480D01*
X174137520Y-110609480D02*
X177337520Y-110609480D01*
X174137520Y-112209480D02*
X174137520Y-110609480D01*
X177337520Y-112209480D02*
X174137520Y-112209480D01*
X211932520Y-87279480D02*
X222092520Y-87279480D01*
X222092520Y-87279480D02*
X222092520Y-82199480D01*
X222092520Y-82199480D02*
X211932520Y-82199480D01*
X211932520Y-82199480D02*
X211932520Y-87279480D01*
X221341932Y-67594480D02*
G75*
G03X221341932Y-67594480I-3059412J0D01*
G01*
X221432520Y-70744480D02*
X221432520Y-64444480D01*
X215802520Y-70744480D02*
X221432520Y-70744480D01*
X215132520Y-70074480D02*
X215802520Y-70744480D01*
X215132520Y-65114480D02*
X215132520Y-70074480D01*
X215802520Y-64444480D02*
X215132520Y-65114480D01*
X221432520Y-64444480D02*
X215802520Y-64444480D01*
X160002520Y-82319480D02*
G75*
G03X160002520Y-82319480I-1095000J0D01*
G01*
X167167520Y-85879480D02*
X167167520Y-81049480D01*
X167167520Y-81049480D02*
X157637520Y-81049480D01*
X157637520Y-81049480D02*
X157637520Y-85879480D01*
X157637520Y-85879480D02*
X167167520Y-85879480D01*
X158076520Y-83015480D02*
X159603520Y-81488480D01*
X158210520Y-83149480D02*
X159737520Y-81622480D01*
X160002520Y-93749480D02*
G75*
G03X160002520Y-93749480I-1095000J0D01*
G01*
X167167520Y-97309480D02*
X167167520Y-92479480D01*
X167167520Y-92479480D02*
X157637520Y-92479480D01*
X157637520Y-92479480D02*
X157637520Y-97309480D01*
X157637520Y-97309480D02*
X167167520Y-97309480D01*
X158076520Y-94445480D02*
X159603520Y-92918480D01*
X158210520Y-94579480D02*
X159737520Y-93052480D01*
X177172520Y-107929480D02*
X175572520Y-107929480D01*
X177172520Y-104729480D02*
X177172520Y-107929480D01*
X175572520Y-104729480D02*
X177172520Y-104729480D01*
X175572520Y-107929480D02*
X175572520Y-104729480D01*
X223246932Y-77119480D02*
G75*
G03X223246932Y-77119480I-3059412J0D01*
G01*
X217037520Y-80269480D02*
X223337520Y-80269480D01*
X217037520Y-74639480D02*
X217037520Y-80269480D01*
X217707520Y-73969480D02*
X217037520Y-74639480D01*
X222667520Y-73969480D02*
X217707520Y-73969480D01*
X223337520Y-74639480D02*
X222667520Y-73969480D01*
X223337520Y-80269480D02*
X223337520Y-74639480D01*
X216261932Y-77119480D02*
G75*
G03X216261932Y-77119480I-3059412J0D01*
G01*
X210052520Y-80269480D02*
X216352520Y-80269480D01*
X210052520Y-74639480D02*
X210052520Y-80269480D01*
X210722520Y-73969480D02*
X210052520Y-74639480D01*
X215682520Y-73969480D02*
X210722520Y-73969480D01*
X216352520Y-74639480D02*
X215682520Y-73969480D01*
X216352520Y-80269480D02*
X216352520Y-74639480D01*
D11*
X212845282Y-109170718D02*
X212892901Y-109027861D01*
X212892901Y-108789765D01*
X212845282Y-108694527D01*
X212797663Y-108646908D01*
X212702425Y-108599289D01*
X212607187Y-108599289D01*
X212511949Y-108646908D01*
X212464330Y-108694527D01*
X212416710Y-108789765D01*
X212369091Y-108980242D01*
X212321472Y-109075480D01*
X212273853Y-109123099D01*
X212178615Y-109170718D01*
X212083377Y-109170718D01*
X211988139Y-109123099D01*
X211940520Y-109075480D01*
X211892901Y-108980242D01*
X211892901Y-108742146D01*
X211940520Y-108599289D01*
X212892901Y-108170718D02*
X211892901Y-108170718D01*
X211892901Y-107789765D01*
X211940520Y-107694527D01*
X211988139Y-107646908D01*
X212083377Y-107599289D01*
X212226234Y-107599289D01*
X212321472Y-107646908D01*
X212369091Y-107694527D01*
X212416710Y-107789765D01*
X212416710Y-108170718D01*
X212892901Y-107170718D02*
X211892901Y-107170718D01*
X212988139Y-106932623D02*
X212988139Y-106170718D01*
X212892901Y-105789766D02*
X212845282Y-105885004D01*
X212750044Y-105932623D01*
X211892901Y-105932623D01*
X212892901Y-105408813D02*
X212226234Y-105408813D01*
X211892901Y-105408813D02*
X211940520Y-105456432D01*
X211988139Y-105408813D01*
X211940520Y-105361194D01*
X211892901Y-105408813D01*
X211988139Y-105408813D01*
X212892901Y-104932623D02*
X211892901Y-104932623D01*
X212273853Y-104932623D02*
X212226234Y-104837385D01*
X212226234Y-104646908D01*
X212273853Y-104551670D01*
X212321472Y-104504051D01*
X212416710Y-104456432D01*
X212702425Y-104456432D01*
X212797663Y-104504051D01*
X212845282Y-104551670D01*
X212892901Y-104646908D01*
X212892901Y-104837385D01*
X212845282Y-104932623D01*
X212892901Y-104027861D02*
X212226234Y-104027861D01*
X212416710Y-104027861D02*
X212321472Y-103980242D01*
X212273853Y-103932623D01*
X212226234Y-103837385D01*
X212226234Y-103742146D01*
X212845282Y-103027860D02*
X212892901Y-103123098D01*
X212892901Y-103313575D01*
X212845282Y-103408813D01*
X212750044Y-103456432D01*
X212369091Y-103456432D01*
X212273853Y-103408813D01*
X212226234Y-103313575D01*
X212226234Y-103123098D01*
X212273853Y-103027860D01*
X212369091Y-102980241D01*
X212464330Y-102980241D01*
X212559568Y-103456432D01*
X133471472Y-62077861D02*
X133471472Y-61077861D01*
X133804806Y-61792147D01*
X134138139Y-61077861D01*
X134138139Y-62077861D01*
X134757186Y-62077861D02*
X134661948Y-62030242D01*
X134614329Y-61982623D01*
X134566710Y-61887385D01*
X134566710Y-61601670D01*
X134614329Y-61506432D01*
X134661948Y-61458813D01*
X134757186Y-61411194D01*
X134900044Y-61411194D01*
X134995282Y-61458813D01*
X135042901Y-61506432D01*
X135090520Y-61601670D01*
X135090520Y-61887385D01*
X135042901Y-61982623D01*
X134995282Y-62030242D01*
X134900044Y-62077861D01*
X134757186Y-62077861D01*
X135947663Y-61411194D02*
X135947663Y-62077861D01*
X135519091Y-61411194D02*
X135519091Y-61935004D01*
X135566710Y-62030242D01*
X135661948Y-62077861D01*
X135804806Y-62077861D01*
X135900044Y-62030242D01*
X135947663Y-61982623D01*
X136423853Y-61411194D02*
X136423853Y-62077861D01*
X136423853Y-61506432D02*
X136471472Y-61458813D01*
X136566710Y-61411194D01*
X136709568Y-61411194D01*
X136804806Y-61458813D01*
X136852425Y-61554051D01*
X136852425Y-62077861D01*
X137185758Y-61411194D02*
X137566710Y-61411194D01*
X137328615Y-61077861D02*
X137328615Y-61935004D01*
X137376234Y-62030242D01*
X137471472Y-62077861D01*
X137566710Y-62077861D01*
X137900044Y-62077861D02*
X137900044Y-61411194D01*
X137900044Y-61077861D02*
X137852425Y-61125480D01*
X137900044Y-61173099D01*
X137947663Y-61125480D01*
X137900044Y-61077861D01*
X137900044Y-61173099D01*
X138376234Y-61411194D02*
X138376234Y-62077861D01*
X138376234Y-61506432D02*
X138423853Y-61458813D01*
X138519091Y-61411194D01*
X138661949Y-61411194D01*
X138757187Y-61458813D01*
X138804806Y-61554051D01*
X138804806Y-62077861D01*
X139709568Y-61411194D02*
X139709568Y-62220718D01*
X139661949Y-62315956D01*
X139614330Y-62363575D01*
X139519091Y-62411194D01*
X139376234Y-62411194D01*
X139280996Y-62363575D01*
X139709568Y-62030242D02*
X139614330Y-62077861D01*
X139423853Y-62077861D01*
X139328615Y-62030242D01*
X139280996Y-61982623D01*
X139233377Y-61887385D01*
X139233377Y-61601670D01*
X139280996Y-61506432D01*
X139328615Y-61458813D01*
X139423853Y-61411194D01*
X139614330Y-61411194D01*
X139709568Y-61458813D01*
X140185758Y-62077861D02*
X140185758Y-61077861D01*
X140185758Y-61554051D02*
X140757187Y-61554051D01*
X140757187Y-62077861D02*
X140757187Y-61077861D01*
X141376234Y-62077861D02*
X141280996Y-62030242D01*
X141233377Y-61982623D01*
X141185758Y-61887385D01*
X141185758Y-61601670D01*
X141233377Y-61506432D01*
X141280996Y-61458813D01*
X141376234Y-61411194D01*
X141519092Y-61411194D01*
X141614330Y-61458813D01*
X141661949Y-61506432D01*
X141709568Y-61601670D01*
X141709568Y-61887385D01*
X141661949Y-61982623D01*
X141614330Y-62030242D01*
X141519092Y-62077861D01*
X141376234Y-62077861D01*
X142280996Y-62077861D02*
X142185758Y-62030242D01*
X142138139Y-61935004D01*
X142138139Y-61077861D01*
X143042902Y-62030242D02*
X142947664Y-62077861D01*
X142757187Y-62077861D01*
X142661949Y-62030242D01*
X142614330Y-61935004D01*
X142614330Y-61554051D01*
X142661949Y-61458813D01*
X142757187Y-61411194D01*
X142947664Y-61411194D01*
X143042902Y-61458813D01*
X143090521Y-61554051D01*
X143090521Y-61649290D01*
X142614330Y-61744528D01*
X143280997Y-62173099D02*
X144042902Y-62173099D01*
X144185759Y-61077861D02*
X144804807Y-61077861D01*
X144471473Y-61458813D01*
X144614331Y-61458813D01*
X144709569Y-61506432D01*
X144757188Y-61554051D01*
X144804807Y-61649290D01*
X144804807Y-61887385D01*
X144757188Y-61982623D01*
X144709569Y-62030242D01*
X144614331Y-62077861D01*
X144328616Y-62077861D01*
X144233378Y-62030242D01*
X144185759Y-61982623D01*
X145233378Y-61982623D02*
X145280997Y-62030242D01*
X145233378Y-62077861D01*
X145185759Y-62030242D01*
X145233378Y-61982623D01*
X145233378Y-62077861D01*
X145661949Y-61173099D02*
X145709568Y-61125480D01*
X145804806Y-61077861D01*
X146042902Y-61077861D01*
X146138140Y-61125480D01*
X146185759Y-61173099D01*
X146233378Y-61268337D01*
X146233378Y-61363575D01*
X146185759Y-61506432D01*
X145614330Y-62077861D01*
X146233378Y-62077861D01*
X146661949Y-62077861D02*
X146661949Y-61411194D01*
X146661949Y-61506432D02*
X146709568Y-61458813D01*
X146804806Y-61411194D01*
X146947664Y-61411194D01*
X147042902Y-61458813D01*
X147090521Y-61554051D01*
X147090521Y-62077861D01*
X147090521Y-61554051D02*
X147138140Y-61458813D01*
X147233378Y-61411194D01*
X147376235Y-61411194D01*
X147471473Y-61458813D01*
X147519092Y-61554051D01*
X147519092Y-62077861D01*
X147995282Y-62077861D02*
X147995282Y-61411194D01*
X147995282Y-61506432D02*
X148042901Y-61458813D01*
X148138139Y-61411194D01*
X148280997Y-61411194D01*
X148376235Y-61458813D01*
X148423854Y-61554051D01*
X148423854Y-62077861D01*
X148423854Y-61554051D02*
X148471473Y-61458813D01*
X148566711Y-61411194D01*
X148709568Y-61411194D01*
X148804806Y-61458813D01*
X148852425Y-61554051D01*
X148852425Y-62077861D01*
X149090520Y-62173099D02*
X149852425Y-62173099D01*
X150090520Y-62077861D02*
X150090520Y-61077861D01*
X150423854Y-61792147D01*
X150757187Y-61077861D01*
X150757187Y-62077861D01*
X151138139Y-61077861D02*
X151757187Y-61077861D01*
X151423853Y-61458813D01*
X151566711Y-61458813D01*
X151661949Y-61506432D01*
X151709568Y-61554051D01*
X151757187Y-61649290D01*
X151757187Y-61887385D01*
X151709568Y-61982623D01*
X151661949Y-62030242D01*
X151566711Y-62077861D01*
X151280996Y-62077861D01*
X151185758Y-62030242D01*
X151138139Y-61982623D01*
X217418472Y-123046861D02*
X217418472Y-122046861D01*
X217751806Y-122761147D01*
X218085139Y-122046861D01*
X218085139Y-123046861D01*
X218704186Y-123046861D02*
X218608948Y-122999242D01*
X218561329Y-122951623D01*
X218513710Y-122856385D01*
X218513710Y-122570670D01*
X218561329Y-122475432D01*
X218608948Y-122427813D01*
X218704186Y-122380194D01*
X218847044Y-122380194D01*
X218942282Y-122427813D01*
X218989901Y-122475432D01*
X219037520Y-122570670D01*
X219037520Y-122856385D01*
X218989901Y-122951623D01*
X218942282Y-122999242D01*
X218847044Y-123046861D01*
X218704186Y-123046861D01*
X219894663Y-122380194D02*
X219894663Y-123046861D01*
X219466091Y-122380194D02*
X219466091Y-122904004D01*
X219513710Y-122999242D01*
X219608948Y-123046861D01*
X219751806Y-123046861D01*
X219847044Y-122999242D01*
X219894663Y-122951623D01*
X220370853Y-122380194D02*
X220370853Y-123046861D01*
X220370853Y-122475432D02*
X220418472Y-122427813D01*
X220513710Y-122380194D01*
X220656568Y-122380194D01*
X220751806Y-122427813D01*
X220799425Y-122523051D01*
X220799425Y-123046861D01*
X221132758Y-122380194D02*
X221513710Y-122380194D01*
X221275615Y-122046861D02*
X221275615Y-122904004D01*
X221323234Y-122999242D01*
X221418472Y-123046861D01*
X221513710Y-123046861D01*
X221847044Y-123046861D02*
X221847044Y-122380194D01*
X221847044Y-122046861D02*
X221799425Y-122094480D01*
X221847044Y-122142099D01*
X221894663Y-122094480D01*
X221847044Y-122046861D01*
X221847044Y-122142099D01*
X222323234Y-122380194D02*
X222323234Y-123046861D01*
X222323234Y-122475432D02*
X222370853Y-122427813D01*
X222466091Y-122380194D01*
X222608949Y-122380194D01*
X222704187Y-122427813D01*
X222751806Y-122523051D01*
X222751806Y-123046861D01*
X223656568Y-122380194D02*
X223656568Y-123189718D01*
X223608949Y-123284956D01*
X223561330Y-123332575D01*
X223466091Y-123380194D01*
X223323234Y-123380194D01*
X223227996Y-123332575D01*
X223656568Y-122999242D02*
X223561330Y-123046861D01*
X223370853Y-123046861D01*
X223275615Y-122999242D01*
X223227996Y-122951623D01*
X223180377Y-122856385D01*
X223180377Y-122570670D01*
X223227996Y-122475432D01*
X223275615Y-122427813D01*
X223370853Y-122380194D01*
X223561330Y-122380194D01*
X223656568Y-122427813D01*
X224132758Y-123046861D02*
X224132758Y-122046861D01*
X224132758Y-122523051D02*
X224704187Y-122523051D01*
X224704187Y-123046861D02*
X224704187Y-122046861D01*
X225323234Y-123046861D02*
X225227996Y-122999242D01*
X225180377Y-122951623D01*
X225132758Y-122856385D01*
X225132758Y-122570670D01*
X225180377Y-122475432D01*
X225227996Y-122427813D01*
X225323234Y-122380194D01*
X225466092Y-122380194D01*
X225561330Y-122427813D01*
X225608949Y-122475432D01*
X225656568Y-122570670D01*
X225656568Y-122856385D01*
X225608949Y-122951623D01*
X225561330Y-122999242D01*
X225466092Y-123046861D01*
X225323234Y-123046861D01*
X226227996Y-123046861D02*
X226132758Y-122999242D01*
X226085139Y-122904004D01*
X226085139Y-122046861D01*
X226989902Y-122999242D02*
X226894664Y-123046861D01*
X226704187Y-123046861D01*
X226608949Y-122999242D01*
X226561330Y-122904004D01*
X226561330Y-122523051D01*
X226608949Y-122427813D01*
X226704187Y-122380194D01*
X226894664Y-122380194D01*
X226989902Y-122427813D01*
X227037521Y-122523051D01*
X227037521Y-122618290D01*
X226561330Y-122713528D01*
X227227997Y-123142099D02*
X227989902Y-123142099D01*
X228132759Y-122046861D02*
X228751807Y-122046861D01*
X228418473Y-122427813D01*
X228561331Y-122427813D01*
X228656569Y-122475432D01*
X228704188Y-122523051D01*
X228751807Y-122618290D01*
X228751807Y-122856385D01*
X228704188Y-122951623D01*
X228656569Y-122999242D01*
X228561331Y-123046861D01*
X228275616Y-123046861D01*
X228180378Y-122999242D01*
X228132759Y-122951623D01*
X229180378Y-122951623D02*
X229227997Y-122999242D01*
X229180378Y-123046861D01*
X229132759Y-122999242D01*
X229180378Y-122951623D01*
X229180378Y-123046861D01*
X229608949Y-122142099D02*
X229656568Y-122094480D01*
X229751806Y-122046861D01*
X229989902Y-122046861D01*
X230085140Y-122094480D01*
X230132759Y-122142099D01*
X230180378Y-122237337D01*
X230180378Y-122332575D01*
X230132759Y-122475432D01*
X229561330Y-123046861D01*
X230180378Y-123046861D01*
X230608949Y-123046861D02*
X230608949Y-122380194D01*
X230608949Y-122475432D02*
X230656568Y-122427813D01*
X230751806Y-122380194D01*
X230894664Y-122380194D01*
X230989902Y-122427813D01*
X231037521Y-122523051D01*
X231037521Y-123046861D01*
X231037521Y-122523051D02*
X231085140Y-122427813D01*
X231180378Y-122380194D01*
X231323235Y-122380194D01*
X231418473Y-122427813D01*
X231466092Y-122523051D01*
X231466092Y-123046861D01*
X231942282Y-123046861D02*
X231942282Y-122380194D01*
X231942282Y-122475432D02*
X231989901Y-122427813D01*
X232085139Y-122380194D01*
X232227997Y-122380194D01*
X232323235Y-122427813D01*
X232370854Y-122523051D01*
X232370854Y-123046861D01*
X232370854Y-122523051D02*
X232418473Y-122427813D01*
X232513711Y-122380194D01*
X232656568Y-122380194D01*
X232751806Y-122427813D01*
X232799425Y-122523051D01*
X232799425Y-123046861D01*
X233037520Y-123142099D02*
X233799425Y-123142099D01*
X234037520Y-123046861D02*
X234037520Y-122046861D01*
X234370854Y-122761147D01*
X234704187Y-122046861D01*
X234704187Y-123046861D01*
X235085139Y-122046861D02*
X235704187Y-122046861D01*
X235370853Y-122427813D01*
X235513711Y-122427813D01*
X235608949Y-122475432D01*
X235656568Y-122523051D01*
X235704187Y-122618290D01*
X235704187Y-122856385D01*
X235656568Y-122951623D01*
X235608949Y-122999242D01*
X235513711Y-123046861D01*
X235227996Y-123046861D01*
X235132758Y-122999242D01*
X235085139Y-122951623D01*
X149742425Y-113497099D02*
X149790044Y-113449480D01*
X149885282Y-113401861D01*
X150123378Y-113401861D01*
X150218616Y-113449480D01*
X150266235Y-113497099D01*
X150313854Y-113592337D01*
X150313854Y-113687575D01*
X150266235Y-113830432D01*
X149694806Y-114401861D01*
X150313854Y-114401861D01*
X150694806Y-113497099D02*
X150742425Y-113449480D01*
X150837663Y-113401861D01*
X151075759Y-113401861D01*
X151170997Y-113449480D01*
X151218616Y-113497099D01*
X151266235Y-113592337D01*
X151266235Y-113687575D01*
X151218616Y-113830432D01*
X150647187Y-114401861D01*
X151266235Y-114401861D01*
X151885282Y-113401861D02*
X151980521Y-113401861D01*
X152075759Y-113449480D01*
X152123378Y-113497099D01*
X152170997Y-113592337D01*
X152218616Y-113782813D01*
X152218616Y-114020909D01*
X152170997Y-114211385D01*
X152123378Y-114306623D01*
X152075759Y-114354242D01*
X151980521Y-114401861D01*
X151885282Y-114401861D01*
X151790044Y-114354242D01*
X151742425Y-114306623D01*
X151694806Y-114211385D01*
X151647187Y-114020909D01*
X151647187Y-113782813D01*
X151694806Y-113592337D01*
X151742425Y-113497099D01*
X151790044Y-113449480D01*
X151885282Y-113401861D01*
X152647187Y-114401861D02*
X152647187Y-113401861D01*
X153218616Y-114401861D02*
X152790044Y-113830432D01*
X153218616Y-113401861D02*
X152647187Y-113973290D01*
X207177901Y-88937434D02*
X206177901Y-88937434D01*
X207177901Y-88366005D02*
X206606472Y-88794577D01*
X206177901Y-88366005D02*
X206749330Y-88937434D01*
X207130282Y-87556481D02*
X207177901Y-87651719D01*
X207177901Y-87842196D01*
X207130282Y-87937434D01*
X207035044Y-87985053D01*
X206654091Y-87985053D01*
X206558853Y-87937434D01*
X206511234Y-87842196D01*
X206511234Y-87651719D01*
X206558853Y-87556481D01*
X206654091Y-87508862D01*
X206749330Y-87508862D01*
X206844568Y-87985053D01*
X206511234Y-87175529D02*
X207177901Y-86937434D01*
X206511234Y-86699338D02*
X207177901Y-86937434D01*
X207415996Y-87032672D01*
X207463615Y-87080291D01*
X207511234Y-87175529D01*
X207273139Y-86556481D02*
X207273139Y-85794576D01*
X207130282Y-85604100D02*
X207177901Y-85508862D01*
X207177901Y-85318386D01*
X207130282Y-85223147D01*
X207035044Y-85175528D01*
X206987425Y-85175528D01*
X206892187Y-85223147D01*
X206844568Y-85318386D01*
X206844568Y-85461243D01*
X206796949Y-85556481D01*
X206701710Y-85604100D01*
X206654091Y-85604100D01*
X206558853Y-85556481D01*
X206511234Y-85461243D01*
X206511234Y-85318386D01*
X206558853Y-85223147D01*
X207130282Y-84366004D02*
X207177901Y-84461242D01*
X207177901Y-84651719D01*
X207130282Y-84746957D01*
X207035044Y-84794576D01*
X206654091Y-84794576D01*
X206558853Y-84746957D01*
X206511234Y-84651719D01*
X206511234Y-84461242D01*
X206558853Y-84366004D01*
X206654091Y-84318385D01*
X206749330Y-84318385D01*
X206844568Y-84794576D01*
X207177901Y-83746957D02*
X207130282Y-83842195D01*
X207035044Y-83889814D01*
X206177901Y-83889814D01*
X207130282Y-82985051D02*
X207177901Y-83080289D01*
X207177901Y-83270766D01*
X207130282Y-83366004D01*
X207035044Y-83413623D01*
X206654091Y-83413623D01*
X206558853Y-83366004D01*
X206511234Y-83270766D01*
X206511234Y-83080289D01*
X206558853Y-82985051D01*
X206654091Y-82937432D01*
X206749330Y-82937432D01*
X206844568Y-83413623D01*
X207130282Y-82080289D02*
X207177901Y-82175527D01*
X207177901Y-82366004D01*
X207130282Y-82461242D01*
X207082663Y-82508861D01*
X206987425Y-82556480D01*
X206701710Y-82556480D01*
X206606472Y-82508861D01*
X206558853Y-82461242D01*
X206511234Y-82366004D01*
X206511234Y-82175527D01*
X206558853Y-82080289D01*
X206511234Y-81794575D02*
X206511234Y-81413623D01*
X206177901Y-81651718D02*
X207035044Y-81651718D01*
X207130282Y-81604099D01*
X207177901Y-81508861D01*
X207177901Y-81413623D01*
X207273139Y-81318384D02*
X207273139Y-80556479D01*
X207177901Y-80318384D02*
X206511234Y-80318384D01*
X206606472Y-80318384D02*
X206558853Y-80270765D01*
X206511234Y-80175527D01*
X206511234Y-80032669D01*
X206558853Y-79937431D01*
X206654091Y-79889812D01*
X207177901Y-79889812D01*
X206654091Y-79889812D02*
X206558853Y-79842193D01*
X206511234Y-79746955D01*
X206511234Y-79604098D01*
X206558853Y-79508860D01*
X206654091Y-79461241D01*
X207177901Y-79461241D01*
X207130282Y-78604098D02*
X207177901Y-78699336D01*
X207177901Y-78889813D01*
X207130282Y-78985051D01*
X207035044Y-79032670D01*
X206654091Y-79032670D01*
X206558853Y-78985051D01*
X206511234Y-78889813D01*
X206511234Y-78699336D01*
X206558853Y-78604098D01*
X206654091Y-78556479D01*
X206749330Y-78556479D01*
X206844568Y-79032670D01*
X206511234Y-78127908D02*
X207177901Y-78127908D01*
X206606472Y-78127908D02*
X206558853Y-78080289D01*
X206511234Y-77985051D01*
X206511234Y-77842193D01*
X206558853Y-77746955D01*
X206654091Y-77699336D01*
X207177901Y-77699336D01*
X206511234Y-76794574D02*
X207177901Y-76794574D01*
X206511234Y-77223146D02*
X207035044Y-77223146D01*
X207130282Y-77175527D01*
X207177901Y-77080289D01*
X207177901Y-76937431D01*
X207130282Y-76842193D01*
X207082663Y-76794574D01*
X207273139Y-76556479D02*
X207273139Y-75794574D01*
X206654091Y-75556479D02*
X206654091Y-75223145D01*
X207177901Y-75080288D02*
X207177901Y-75556479D01*
X206177901Y-75556479D01*
X206177901Y-75080288D01*
X207130282Y-74699336D02*
X207177901Y-74556479D01*
X207177901Y-74318383D01*
X207130282Y-74223145D01*
X207082663Y-74175526D01*
X206987425Y-74127907D01*
X206892187Y-74127907D01*
X206796949Y-74175526D01*
X206749330Y-74223145D01*
X206701710Y-74318383D01*
X206654091Y-74508860D01*
X206606472Y-74604098D01*
X206558853Y-74651717D01*
X206463615Y-74699336D01*
X206368377Y-74699336D01*
X206273139Y-74651717D01*
X206225520Y-74604098D01*
X206177901Y-74508860D01*
X206177901Y-74270764D01*
X206225520Y-74127907D01*
X207082663Y-73127907D02*
X207130282Y-73175526D01*
X207177901Y-73318383D01*
X207177901Y-73413621D01*
X207130282Y-73556479D01*
X207035044Y-73651717D01*
X206939806Y-73699336D01*
X206749330Y-73746955D01*
X206606472Y-73746955D01*
X206415996Y-73699336D01*
X206320758Y-73651717D01*
X206225520Y-73556479D01*
X206177901Y-73413621D01*
X206177901Y-73318383D01*
X206225520Y-73175526D01*
X206273139Y-73127907D01*
X205638234Y-82651861D02*
X205638234Y-81651861D01*
X206019187Y-81651861D01*
X206114425Y-81699480D01*
X206162044Y-81747099D01*
X206209663Y-81842337D01*
X206209663Y-81985194D01*
X206162044Y-82080432D01*
X206114425Y-82128051D01*
X206019187Y-82175670D01*
X205638234Y-82175670D01*
X206590615Y-81747099D02*
X206638234Y-81699480D01*
X206733472Y-81651861D01*
X206971568Y-81651861D01*
X207066806Y-81699480D01*
X207114425Y-81747099D01*
X207162044Y-81842337D01*
X207162044Y-81937575D01*
X207114425Y-82080432D01*
X206542996Y-82651861D01*
X207162044Y-82651861D01*
X208066806Y-81651861D02*
X207590615Y-81651861D01*
X207542996Y-82128051D01*
X207590615Y-82080432D01*
X207685853Y-82032813D01*
X207923949Y-82032813D01*
X208019187Y-82080432D01*
X208066806Y-82128051D01*
X208114425Y-82223290D01*
X208114425Y-82461385D01*
X208066806Y-82556623D01*
X208019187Y-82604242D01*
X207923949Y-82651861D01*
X207685853Y-82651861D01*
X207590615Y-82604242D01*
X207542996Y-82556623D01*
X217164472Y-61188861D02*
X217164472Y-60188861D01*
X217497806Y-60903147D01*
X217831139Y-60188861D01*
X217831139Y-61188861D01*
X218450186Y-61188861D02*
X218354948Y-61141242D01*
X218307329Y-61093623D01*
X218259710Y-60998385D01*
X218259710Y-60712670D01*
X218307329Y-60617432D01*
X218354948Y-60569813D01*
X218450186Y-60522194D01*
X218593044Y-60522194D01*
X218688282Y-60569813D01*
X218735901Y-60617432D01*
X218783520Y-60712670D01*
X218783520Y-60998385D01*
X218735901Y-61093623D01*
X218688282Y-61141242D01*
X218593044Y-61188861D01*
X218450186Y-61188861D01*
X219640663Y-60522194D02*
X219640663Y-61188861D01*
X219212091Y-60522194D02*
X219212091Y-61046004D01*
X219259710Y-61141242D01*
X219354948Y-61188861D01*
X219497806Y-61188861D01*
X219593044Y-61141242D01*
X219640663Y-61093623D01*
X220116853Y-60522194D02*
X220116853Y-61188861D01*
X220116853Y-60617432D02*
X220164472Y-60569813D01*
X220259710Y-60522194D01*
X220402568Y-60522194D01*
X220497806Y-60569813D01*
X220545425Y-60665051D01*
X220545425Y-61188861D01*
X220878758Y-60522194D02*
X221259710Y-60522194D01*
X221021615Y-60188861D02*
X221021615Y-61046004D01*
X221069234Y-61141242D01*
X221164472Y-61188861D01*
X221259710Y-61188861D01*
X221593044Y-61188861D02*
X221593044Y-60522194D01*
X221593044Y-60188861D02*
X221545425Y-60236480D01*
X221593044Y-60284099D01*
X221640663Y-60236480D01*
X221593044Y-60188861D01*
X221593044Y-60284099D01*
X222069234Y-60522194D02*
X222069234Y-61188861D01*
X222069234Y-60617432D02*
X222116853Y-60569813D01*
X222212091Y-60522194D01*
X222354949Y-60522194D01*
X222450187Y-60569813D01*
X222497806Y-60665051D01*
X222497806Y-61188861D01*
X223402568Y-60522194D02*
X223402568Y-61331718D01*
X223354949Y-61426956D01*
X223307330Y-61474575D01*
X223212091Y-61522194D01*
X223069234Y-61522194D01*
X222973996Y-61474575D01*
X223402568Y-61141242D02*
X223307330Y-61188861D01*
X223116853Y-61188861D01*
X223021615Y-61141242D01*
X222973996Y-61093623D01*
X222926377Y-60998385D01*
X222926377Y-60712670D01*
X222973996Y-60617432D01*
X223021615Y-60569813D01*
X223116853Y-60522194D01*
X223307330Y-60522194D01*
X223402568Y-60569813D01*
X223878758Y-61188861D02*
X223878758Y-60188861D01*
X223878758Y-60665051D02*
X224450187Y-60665051D01*
X224450187Y-61188861D02*
X224450187Y-60188861D01*
X225069234Y-61188861D02*
X224973996Y-61141242D01*
X224926377Y-61093623D01*
X224878758Y-60998385D01*
X224878758Y-60712670D01*
X224926377Y-60617432D01*
X224973996Y-60569813D01*
X225069234Y-60522194D01*
X225212092Y-60522194D01*
X225307330Y-60569813D01*
X225354949Y-60617432D01*
X225402568Y-60712670D01*
X225402568Y-60998385D01*
X225354949Y-61093623D01*
X225307330Y-61141242D01*
X225212092Y-61188861D01*
X225069234Y-61188861D01*
X225973996Y-61188861D02*
X225878758Y-61141242D01*
X225831139Y-61046004D01*
X225831139Y-60188861D01*
X226735902Y-61141242D02*
X226640664Y-61188861D01*
X226450187Y-61188861D01*
X226354949Y-61141242D01*
X226307330Y-61046004D01*
X226307330Y-60665051D01*
X226354949Y-60569813D01*
X226450187Y-60522194D01*
X226640664Y-60522194D01*
X226735902Y-60569813D01*
X226783521Y-60665051D01*
X226783521Y-60760290D01*
X226307330Y-60855528D01*
X226973997Y-61284099D02*
X227735902Y-61284099D01*
X227878759Y-60188861D02*
X228497807Y-60188861D01*
X228164473Y-60569813D01*
X228307331Y-60569813D01*
X228402569Y-60617432D01*
X228450188Y-60665051D01*
X228497807Y-60760290D01*
X228497807Y-60998385D01*
X228450188Y-61093623D01*
X228402569Y-61141242D01*
X228307331Y-61188861D01*
X228021616Y-61188861D01*
X227926378Y-61141242D01*
X227878759Y-61093623D01*
X228926378Y-61093623D02*
X228973997Y-61141242D01*
X228926378Y-61188861D01*
X228878759Y-61141242D01*
X228926378Y-61093623D01*
X228926378Y-61188861D01*
X229354949Y-60284099D02*
X229402568Y-60236480D01*
X229497806Y-60188861D01*
X229735902Y-60188861D01*
X229831140Y-60236480D01*
X229878759Y-60284099D01*
X229926378Y-60379337D01*
X229926378Y-60474575D01*
X229878759Y-60617432D01*
X229307330Y-61188861D01*
X229926378Y-61188861D01*
X230354949Y-61188861D02*
X230354949Y-60522194D01*
X230354949Y-60617432D02*
X230402568Y-60569813D01*
X230497806Y-60522194D01*
X230640664Y-60522194D01*
X230735902Y-60569813D01*
X230783521Y-60665051D01*
X230783521Y-61188861D01*
X230783521Y-60665051D02*
X230831140Y-60569813D01*
X230926378Y-60522194D01*
X231069235Y-60522194D01*
X231164473Y-60569813D01*
X231212092Y-60665051D01*
X231212092Y-61188861D01*
X231688282Y-61188861D02*
X231688282Y-60522194D01*
X231688282Y-60617432D02*
X231735901Y-60569813D01*
X231831139Y-60522194D01*
X231973997Y-60522194D01*
X232069235Y-60569813D01*
X232116854Y-60665051D01*
X232116854Y-61188861D01*
X232116854Y-60665051D02*
X232164473Y-60569813D01*
X232259711Y-60522194D01*
X232402568Y-60522194D01*
X232497806Y-60569813D01*
X232545425Y-60665051D01*
X232545425Y-61188861D01*
X232783520Y-61284099D02*
X233545425Y-61284099D01*
X233783520Y-61188861D02*
X233783520Y-60188861D01*
X234116854Y-60903147D01*
X234450187Y-60188861D01*
X234450187Y-61188861D01*
X234831139Y-60188861D02*
X235450187Y-60188861D01*
X235116853Y-60569813D01*
X235259711Y-60569813D01*
X235354949Y-60617432D01*
X235402568Y-60665051D01*
X235450187Y-60760290D01*
X235450187Y-60998385D01*
X235402568Y-61093623D01*
X235354949Y-61141242D01*
X235259711Y-61188861D01*
X234973996Y-61188861D01*
X234878758Y-61141242D01*
X234831139Y-61093623D01*
X154203139Y-78254385D02*
X154155520Y-78206766D01*
X154107901Y-78111528D01*
X154107901Y-77873432D01*
X154155520Y-77778194D01*
X154203139Y-77730575D01*
X154298377Y-77682956D01*
X154393615Y-77682956D01*
X154536472Y-77730575D01*
X155107901Y-78302004D01*
X155107901Y-77682956D01*
X154203139Y-77302004D02*
X154155520Y-77254385D01*
X154107901Y-77159147D01*
X154107901Y-76921051D01*
X154155520Y-76825813D01*
X154203139Y-76778194D01*
X154298377Y-76730575D01*
X154393615Y-76730575D01*
X154536472Y-76778194D01*
X155107901Y-77349623D01*
X155107901Y-76730575D01*
X155107901Y-76302004D02*
X154107901Y-76302004D01*
X155107901Y-75730575D02*
X154536472Y-76159147D01*
X154107901Y-75730575D02*
X154679330Y-76302004D01*
X182580139Y-71587099D02*
X182627758Y-71539480D01*
X182722996Y-71491861D01*
X182961092Y-71491861D01*
X183056330Y-71539480D01*
X183103949Y-71587099D01*
X183151568Y-71682337D01*
X183151568Y-71777575D01*
X183103949Y-71920432D01*
X182532520Y-72491861D01*
X183151568Y-72491861D01*
X184056330Y-71491861D02*
X183580139Y-71491861D01*
X183532520Y-71968051D01*
X183580139Y-71920432D01*
X183675377Y-71872813D01*
X183913473Y-71872813D01*
X184008711Y-71920432D01*
X184056330Y-71968051D01*
X184103949Y-72063290D01*
X184103949Y-72301385D01*
X184056330Y-72396623D01*
X184008711Y-72444242D01*
X183913473Y-72491861D01*
X183675377Y-72491861D01*
X183580139Y-72444242D01*
X183532520Y-72396623D01*
X184961092Y-71491861D02*
X184770615Y-71491861D01*
X184675377Y-71539480D01*
X184627758Y-71587099D01*
X184532520Y-71729956D01*
X184484901Y-71920432D01*
X184484901Y-72301385D01*
X184532520Y-72396623D01*
X184580139Y-72444242D01*
X184675377Y-72491861D01*
X184865854Y-72491861D01*
X184961092Y-72444242D01*
X185008711Y-72396623D01*
X185056330Y-72301385D01*
X185056330Y-72063290D01*
X185008711Y-71968051D01*
X184961092Y-71920432D01*
X184865854Y-71872813D01*
X184675377Y-71872813D01*
X184580139Y-71920432D01*
X184532520Y-71968051D01*
X184484901Y-72063290D01*
X185675377Y-71491861D02*
X185770616Y-71491861D01*
X185865854Y-71539480D01*
X185913473Y-71587099D01*
X185961092Y-71682337D01*
X186008711Y-71872813D01*
X186008711Y-72110909D01*
X185961092Y-72301385D01*
X185913473Y-72396623D01*
X185865854Y-72444242D01*
X185770616Y-72491861D01*
X185675377Y-72491861D01*
X185580139Y-72444242D01*
X185532520Y-72396623D01*
X185484901Y-72301385D01*
X185437282Y-72110909D01*
X185437282Y-71872813D01*
X185484901Y-71682337D01*
X185532520Y-71587099D01*
X185580139Y-71539480D01*
X185675377Y-71491861D01*
X186437282Y-72110909D02*
X187199187Y-72110909D01*
X188103949Y-72444242D02*
X188008711Y-72491861D01*
X187818234Y-72491861D01*
X187722996Y-72444242D01*
X187675377Y-72396623D01*
X187627758Y-72301385D01*
X187627758Y-72015670D01*
X187675377Y-71920432D01*
X187722996Y-71872813D01*
X187818234Y-71825194D01*
X188008711Y-71825194D01*
X188103949Y-71872813D01*
X188675377Y-72491861D02*
X188580139Y-72444242D01*
X188532520Y-72396623D01*
X188484901Y-72301385D01*
X188484901Y-72015670D01*
X188532520Y-71920432D01*
X188580139Y-71872813D01*
X188675377Y-71825194D01*
X188818235Y-71825194D01*
X188913473Y-71872813D01*
X188961092Y-71920432D01*
X189008711Y-72015670D01*
X189008711Y-72301385D01*
X188961092Y-72396623D01*
X188913473Y-72444242D01*
X188818235Y-72491861D01*
X188675377Y-72491861D01*
X189437282Y-72491861D02*
X189437282Y-71825194D01*
X189437282Y-72015670D02*
X189484901Y-71920432D01*
X189532520Y-71872813D01*
X189627758Y-71825194D01*
X189722997Y-71825194D01*
X190437283Y-72444242D02*
X190342045Y-72491861D01*
X190151568Y-72491861D01*
X190056330Y-72444242D01*
X190008711Y-72349004D01*
X190008711Y-71968051D01*
X190056330Y-71872813D01*
X190151568Y-71825194D01*
X190342045Y-71825194D01*
X190437283Y-71872813D01*
X190484902Y-71968051D01*
X190484902Y-72063290D01*
X190008711Y-72158528D01*
X159751758Y-106781861D02*
X159751758Y-105781861D01*
X160132711Y-105781861D01*
X160227949Y-105829480D01*
X160275568Y-105877099D01*
X160323187Y-105972337D01*
X160323187Y-106115194D01*
X160275568Y-106210432D01*
X160227949Y-106258051D01*
X160132711Y-106305670D01*
X159751758Y-106305670D01*
X160942234Y-105781861D02*
X161132711Y-105781861D01*
X161227949Y-105829480D01*
X161323187Y-105924718D01*
X161370806Y-106115194D01*
X161370806Y-106448528D01*
X161323187Y-106639004D01*
X161227949Y-106734242D01*
X161132711Y-106781861D01*
X160942234Y-106781861D01*
X160846996Y-106734242D01*
X160751758Y-106639004D01*
X160704139Y-106448528D01*
X160704139Y-106115194D01*
X160751758Y-105924718D01*
X160846996Y-105829480D01*
X160942234Y-105781861D01*
X161656520Y-105781861D02*
X162227949Y-105781861D01*
X161942234Y-106781861D02*
X161942234Y-105781861D01*
X162323187Y-106877099D02*
X163085092Y-106877099D01*
X163275568Y-105877099D02*
X163323187Y-105829480D01*
X163418425Y-105781861D01*
X163656521Y-105781861D01*
X163751759Y-105829480D01*
X163799378Y-105877099D01*
X163846997Y-105972337D01*
X163846997Y-106067575D01*
X163799378Y-106210432D01*
X163227949Y-106781861D01*
X163846997Y-106781861D01*
X164227949Y-105877099D02*
X164275568Y-105829480D01*
X164370806Y-105781861D01*
X164608902Y-105781861D01*
X164704140Y-105829480D01*
X164751759Y-105877099D01*
X164799378Y-105972337D01*
X164799378Y-106067575D01*
X164751759Y-106210432D01*
X164180330Y-106781861D01*
X164799378Y-106781861D01*
X165227949Y-106781861D02*
X165227949Y-105781861D01*
X165323187Y-106400909D02*
X165608902Y-106781861D01*
X165608902Y-106115194D02*
X165227949Y-106496147D01*
X144439901Y-107781956D02*
X144439901Y-108258147D01*
X143439901Y-108258147D01*
X144344663Y-106877194D02*
X144392282Y-106924813D01*
X144439901Y-107067670D01*
X144439901Y-107162908D01*
X144392282Y-107305766D01*
X144297044Y-107401004D01*
X144201806Y-107448623D01*
X144011330Y-107496242D01*
X143868472Y-107496242D01*
X143677996Y-107448623D01*
X143582758Y-107401004D01*
X143487520Y-107305766D01*
X143439901Y-107162908D01*
X143439901Y-107067670D01*
X143487520Y-106924813D01*
X143535139Y-106877194D01*
X144439901Y-106448623D02*
X143439901Y-106448623D01*
X143439901Y-106210528D01*
X143487520Y-106067670D01*
X143582758Y-105972432D01*
X143677996Y-105924813D01*
X143868472Y-105877194D01*
X144011330Y-105877194D01*
X144201806Y-105924813D01*
X144297044Y-105972432D01*
X144392282Y-106067670D01*
X144439901Y-106210528D01*
X144439901Y-106448623D01*
X159370758Y-72618861D02*
X159370758Y-71618861D01*
X159751711Y-71618861D01*
X159846949Y-71666480D01*
X159894568Y-71714099D01*
X159942187Y-71809337D01*
X159942187Y-71952194D01*
X159894568Y-72047432D01*
X159846949Y-72095051D01*
X159751711Y-72142670D01*
X159370758Y-72142670D01*
X160561234Y-71618861D02*
X160751711Y-71618861D01*
X160846949Y-71666480D01*
X160942187Y-71761718D01*
X160989806Y-71952194D01*
X160989806Y-72285528D01*
X160942187Y-72476004D01*
X160846949Y-72571242D01*
X160751711Y-72618861D01*
X160561234Y-72618861D01*
X160465996Y-72571242D01*
X160370758Y-72476004D01*
X160323139Y-72285528D01*
X160323139Y-71952194D01*
X160370758Y-71761718D01*
X160465996Y-71666480D01*
X160561234Y-71618861D01*
X161275520Y-71618861D02*
X161846949Y-71618861D01*
X161561234Y-72618861D02*
X161561234Y-71618861D01*
X161942187Y-72714099D02*
X162704092Y-72714099D01*
X162894568Y-71714099D02*
X162942187Y-71666480D01*
X163037425Y-71618861D01*
X163275521Y-71618861D01*
X163370759Y-71666480D01*
X163418378Y-71714099D01*
X163465997Y-71809337D01*
X163465997Y-71904575D01*
X163418378Y-72047432D01*
X162846949Y-72618861D01*
X163465997Y-72618861D01*
X163846949Y-71714099D02*
X163894568Y-71666480D01*
X163989806Y-71618861D01*
X164227902Y-71618861D01*
X164323140Y-71666480D01*
X164370759Y-71714099D01*
X164418378Y-71809337D01*
X164418378Y-71904575D01*
X164370759Y-72047432D01*
X163799330Y-72618861D01*
X164418378Y-72618861D01*
X164846949Y-72618861D02*
X164846949Y-71618861D01*
X164942187Y-72237909D02*
X165227902Y-72618861D01*
X165227902Y-71952194D02*
X164846949Y-72333147D01*
X159021567Y-100939861D02*
X159021567Y-99939861D01*
X159402520Y-99939861D01*
X159497758Y-99987480D01*
X159545377Y-100035099D01*
X159592996Y-100130337D01*
X159592996Y-100273194D01*
X159545377Y-100368432D01*
X159497758Y-100416051D01*
X159402520Y-100463670D01*
X159021567Y-100463670D01*
X160212043Y-99939861D02*
X160402520Y-99939861D01*
X160497758Y-99987480D01*
X160592996Y-100082718D01*
X160640615Y-100273194D01*
X160640615Y-100606528D01*
X160592996Y-100797004D01*
X160497758Y-100892242D01*
X160402520Y-100939861D01*
X160212043Y-100939861D01*
X160116805Y-100892242D01*
X160021567Y-100797004D01*
X159973948Y-100606528D01*
X159973948Y-100273194D01*
X160021567Y-100082718D01*
X160116805Y-99987480D01*
X160212043Y-99939861D01*
X160926329Y-99939861D02*
X161497758Y-99939861D01*
X161212043Y-100939861D02*
X161212043Y-99939861D01*
X161592996Y-101035099D02*
X162354901Y-101035099D01*
X163116806Y-100939861D02*
X162545377Y-100939861D01*
X162831091Y-100939861D02*
X162831091Y-99939861D01*
X162735853Y-100082718D01*
X162640615Y-100177956D01*
X162545377Y-100225575D01*
X163735853Y-99939861D02*
X163831092Y-99939861D01*
X163926330Y-99987480D01*
X163973949Y-100035099D01*
X164021568Y-100130337D01*
X164069187Y-100320813D01*
X164069187Y-100558909D01*
X164021568Y-100749385D01*
X163973949Y-100844623D01*
X163926330Y-100892242D01*
X163831092Y-100939861D01*
X163735853Y-100939861D01*
X163640615Y-100892242D01*
X163592996Y-100844623D01*
X163545377Y-100749385D01*
X163497758Y-100558909D01*
X163497758Y-100320813D01*
X163545377Y-100130337D01*
X163592996Y-100035099D01*
X163640615Y-99987480D01*
X163735853Y-99939861D01*
X164688234Y-99939861D02*
X164783473Y-99939861D01*
X164878711Y-99987480D01*
X164926330Y-100035099D01*
X164973949Y-100130337D01*
X165021568Y-100320813D01*
X165021568Y-100558909D01*
X164973949Y-100749385D01*
X164926330Y-100844623D01*
X164878711Y-100892242D01*
X164783473Y-100939861D01*
X164688234Y-100939861D01*
X164592996Y-100892242D01*
X164545377Y-100844623D01*
X164497758Y-100749385D01*
X164450139Y-100558909D01*
X164450139Y-100320813D01*
X164497758Y-100130337D01*
X164545377Y-100035099D01*
X164592996Y-99987480D01*
X164688234Y-99939861D01*
X165450139Y-100939861D02*
X165450139Y-99939861D01*
X165545377Y-100558909D02*
X165831092Y-100939861D01*
X165831092Y-100273194D02*
X165450139Y-100654147D01*
X216702901Y-108742194D02*
X216702901Y-109218385D01*
X215702901Y-109218385D01*
X216607663Y-107837432D02*
X216655282Y-107885051D01*
X216702901Y-108027908D01*
X216702901Y-108123146D01*
X216655282Y-108266004D01*
X216560044Y-108361242D01*
X216464806Y-108408861D01*
X216274330Y-108456480D01*
X216131472Y-108456480D01*
X215940996Y-108408861D01*
X215845758Y-108361242D01*
X215750520Y-108266004D01*
X215702901Y-108123146D01*
X215702901Y-108027908D01*
X215750520Y-107885051D01*
X215798139Y-107837432D01*
X216702901Y-107408861D02*
X215702901Y-107408861D01*
X215702901Y-107170766D01*
X215750520Y-107027908D01*
X215845758Y-106932670D01*
X215940996Y-106885051D01*
X216131472Y-106837432D01*
X216274330Y-106837432D01*
X216464806Y-106885051D01*
X216560044Y-106932670D01*
X216655282Y-107027908D01*
X216702901Y-107170766D01*
X216702901Y-107408861D01*
X216798139Y-106646956D02*
X216798139Y-105885051D01*
X216702901Y-105646956D02*
X215702901Y-105646956D01*
X215798139Y-105218385D02*
X215750520Y-105170766D01*
X215702901Y-105075528D01*
X215702901Y-104837432D01*
X215750520Y-104742194D01*
X215798139Y-104694575D01*
X215893377Y-104646956D01*
X215988615Y-104646956D01*
X216131472Y-104694575D01*
X216702901Y-105266004D01*
X216702901Y-104646956D01*
X216607663Y-103646956D02*
X216655282Y-103694575D01*
X216702901Y-103837432D01*
X216702901Y-103932670D01*
X216655282Y-104075528D01*
X216560044Y-104170766D01*
X216464806Y-104218385D01*
X216274330Y-104266004D01*
X216131472Y-104266004D01*
X215940996Y-104218385D01*
X215845758Y-104170766D01*
X215750520Y-104075528D01*
X215702901Y-103932670D01*
X215702901Y-103837432D01*
X215750520Y-103694575D01*
X215798139Y-103646956D01*
X143249282Y-79262195D02*
X143296901Y-79119338D01*
X143296901Y-78881242D01*
X143249282Y-78786004D01*
X143201663Y-78738385D01*
X143106425Y-78690766D01*
X143011187Y-78690766D01*
X142915949Y-78738385D01*
X142868330Y-78786004D01*
X142820710Y-78881242D01*
X142773091Y-79071719D01*
X142725472Y-79166957D01*
X142677853Y-79214576D01*
X142582615Y-79262195D01*
X142487377Y-79262195D01*
X142392139Y-79214576D01*
X142344520Y-79166957D01*
X142296901Y-79071719D01*
X142296901Y-78833623D01*
X142344520Y-78690766D01*
X142630234Y-78405052D02*
X142630234Y-78024100D01*
X142296901Y-78262195D02*
X143154044Y-78262195D01*
X143249282Y-78214576D01*
X143296901Y-78119338D01*
X143296901Y-78024100D01*
X143296901Y-77690766D02*
X142630234Y-77690766D01*
X142296901Y-77690766D02*
X142344520Y-77738385D01*
X142392139Y-77690766D01*
X142344520Y-77643147D01*
X142296901Y-77690766D01*
X142392139Y-77690766D01*
X143249282Y-76786004D02*
X143296901Y-76881242D01*
X143296901Y-77071719D01*
X143249282Y-77166957D01*
X143201663Y-77214576D01*
X143106425Y-77262195D01*
X142820710Y-77262195D01*
X142725472Y-77214576D01*
X142677853Y-77166957D01*
X142630234Y-77071719D01*
X142630234Y-76881242D01*
X142677853Y-76786004D01*
X143296901Y-76357433D02*
X142296901Y-76357433D01*
X142915949Y-76262195D02*
X143296901Y-75976480D01*
X142630234Y-75976480D02*
X143011187Y-76357433D01*
X143392139Y-75786004D02*
X143392139Y-75024099D01*
X143296901Y-74643147D02*
X143249282Y-74738385D01*
X143154044Y-74786004D01*
X142296901Y-74786004D01*
X143249282Y-73881241D02*
X143296901Y-73976479D01*
X143296901Y-74166956D01*
X143249282Y-74262194D01*
X143154044Y-74309813D01*
X142773091Y-74309813D01*
X142677853Y-74262194D01*
X142630234Y-74166956D01*
X142630234Y-73976479D01*
X142677853Y-73881241D01*
X142773091Y-73833622D01*
X142868330Y-73833622D01*
X142963568Y-74309813D01*
X142630234Y-73547908D02*
X142630234Y-73166956D01*
X143296901Y-73405051D02*
X142439758Y-73405051D01*
X142344520Y-73357432D01*
X142296901Y-73262194D01*
X142296901Y-73166956D01*
X142630234Y-72976479D02*
X142630234Y-72595527D01*
X142296901Y-72833622D02*
X143154044Y-72833622D01*
X143249282Y-72786003D01*
X143296901Y-72690765D01*
X143296901Y-72595527D01*
X205812663Y-95756575D02*
X205860282Y-95804194D01*
X205907901Y-95947051D01*
X205907901Y-96042289D01*
X205860282Y-96185147D01*
X205765044Y-96280385D01*
X205669806Y-96328004D01*
X205479330Y-96375623D01*
X205336472Y-96375623D01*
X205145996Y-96328004D01*
X205050758Y-96280385D01*
X204955520Y-96185147D01*
X204907901Y-96042289D01*
X204907901Y-95947051D01*
X204955520Y-95804194D01*
X205003139Y-95756575D01*
X205907901Y-95185147D02*
X205860282Y-95280385D01*
X205765044Y-95328004D01*
X204907901Y-95328004D01*
X205907901Y-94661337D02*
X205860282Y-94756575D01*
X205812663Y-94804194D01*
X205717425Y-94851813D01*
X205431710Y-94851813D01*
X205336472Y-94804194D01*
X205288853Y-94756575D01*
X205241234Y-94661337D01*
X205241234Y-94518479D01*
X205288853Y-94423241D01*
X205336472Y-94375622D01*
X205431710Y-94328003D01*
X205717425Y-94328003D01*
X205812663Y-94375622D01*
X205860282Y-94423241D01*
X205907901Y-94518479D01*
X205907901Y-94661337D01*
X205860282Y-93470860D02*
X205907901Y-93566098D01*
X205907901Y-93756575D01*
X205860282Y-93851813D01*
X205812663Y-93899432D01*
X205717425Y-93947051D01*
X205431710Y-93947051D01*
X205336472Y-93899432D01*
X205288853Y-93851813D01*
X205241234Y-93756575D01*
X205241234Y-93566098D01*
X205288853Y-93470860D01*
X205907901Y-93042289D02*
X204907901Y-93042289D01*
X205526949Y-92947051D02*
X205907901Y-92661336D01*
X205241234Y-92661336D02*
X205622187Y-93042289D01*
X183234901Y-67189480D02*
X183234901Y-66618051D01*
X184234901Y-66903766D02*
X183234901Y-66903766D01*
X184234901Y-66284718D02*
X183568234Y-66284718D01*
X183758710Y-66284718D02*
X183663472Y-66237099D01*
X183615853Y-66189480D01*
X183568234Y-66094242D01*
X183568234Y-65999003D01*
X184234901Y-65665670D02*
X183568234Y-65665670D01*
X183234901Y-65665670D02*
X183282520Y-65713289D01*
X183330139Y-65665670D01*
X183282520Y-65618051D01*
X183234901Y-65665670D01*
X183330139Y-65665670D01*
X184234901Y-65189480D02*
X183568234Y-65189480D01*
X183663472Y-65189480D02*
X183615853Y-65141861D01*
X183568234Y-65046623D01*
X183568234Y-64903765D01*
X183615853Y-64808527D01*
X183711091Y-64760908D01*
X184234901Y-64760908D01*
X183711091Y-64760908D02*
X183615853Y-64713289D01*
X183568234Y-64618051D01*
X183568234Y-64475194D01*
X183615853Y-64379956D01*
X183711091Y-64332337D01*
X184234901Y-64332337D01*
X176428234Y-66141861D02*
X176428234Y-65141861D01*
X176809187Y-65141861D01*
X176904425Y-65189480D01*
X176952044Y-65237099D01*
X176999663Y-65332337D01*
X176999663Y-65475194D01*
X176952044Y-65570432D01*
X176904425Y-65618051D01*
X176809187Y-65665670D01*
X176428234Y-65665670D01*
X177952044Y-66141861D02*
X177380615Y-66141861D01*
X177666329Y-66141861D02*
X177666329Y-65141861D01*
X177571091Y-65284718D01*
X177475853Y-65379956D01*
X177380615Y-65427575D01*
X178904425Y-66141861D02*
X178332996Y-66141861D01*
X178618710Y-66141861D02*
X178618710Y-65141861D01*
X178523472Y-65284718D01*
X178428234Y-65379956D01*
X178332996Y-65427575D01*
X181222282Y-67840266D02*
X181269901Y-67697409D01*
X181269901Y-67459313D01*
X181222282Y-67364075D01*
X181174663Y-67316456D01*
X181079425Y-67268837D01*
X180984187Y-67268837D01*
X180888949Y-67316456D01*
X180841330Y-67364075D01*
X180793710Y-67459313D01*
X180746091Y-67649790D01*
X180698472Y-67745028D01*
X180650853Y-67792647D01*
X180555615Y-67840266D01*
X180460377Y-67840266D01*
X180365139Y-67792647D01*
X180317520Y-67745028D01*
X180269901Y-67649790D01*
X180269901Y-67411694D01*
X180317520Y-67268837D01*
X180603234Y-66935504D02*
X181269901Y-66745028D01*
X180793710Y-66554551D01*
X181269901Y-66364075D01*
X180603234Y-66173599D01*
X181269901Y-65792647D02*
X180603234Y-65792647D01*
X180269901Y-65792647D02*
X180317520Y-65840266D01*
X180365139Y-65792647D01*
X180317520Y-65745028D01*
X180269901Y-65792647D01*
X180365139Y-65792647D01*
X180603234Y-65459314D02*
X180603234Y-65078362D01*
X180269901Y-65316457D02*
X181127044Y-65316457D01*
X181222282Y-65268838D01*
X181269901Y-65173600D01*
X181269901Y-65078362D01*
X181222282Y-64316456D02*
X181269901Y-64411694D01*
X181269901Y-64602171D01*
X181222282Y-64697409D01*
X181174663Y-64745028D01*
X181079425Y-64792647D01*
X180793710Y-64792647D01*
X180698472Y-64745028D01*
X180650853Y-64697409D01*
X180603234Y-64602171D01*
X180603234Y-64411694D01*
X180650853Y-64316456D01*
X181269901Y-63887885D02*
X180269901Y-63887885D01*
X181269901Y-63459313D02*
X180746091Y-63459313D01*
X180650853Y-63506932D01*
X180603234Y-63602170D01*
X180603234Y-63745028D01*
X180650853Y-63840266D01*
X180698472Y-63887885D01*
X188366234Y-66395861D02*
X188366234Y-65395861D01*
X188747187Y-65395861D01*
X188842425Y-65443480D01*
X188890044Y-65491099D01*
X188937663Y-65586337D01*
X188937663Y-65729194D01*
X188890044Y-65824432D01*
X188842425Y-65872051D01*
X188747187Y-65919670D01*
X188366234Y-65919670D01*
X189890044Y-66395861D02*
X189318615Y-66395861D01*
X189604329Y-66395861D02*
X189604329Y-65395861D01*
X189509091Y-65538718D01*
X189413853Y-65633956D01*
X189318615Y-65681575D01*
X190747187Y-65729194D02*
X190747187Y-66395861D01*
X190509091Y-65348242D02*
X190270996Y-66062528D01*
X190890044Y-66062528D01*
X159148567Y-112496861D02*
X159148567Y-111496861D01*
X159529520Y-111496861D01*
X159624758Y-111544480D01*
X159672377Y-111592099D01*
X159719996Y-111687337D01*
X159719996Y-111830194D01*
X159672377Y-111925432D01*
X159624758Y-111973051D01*
X159529520Y-112020670D01*
X159148567Y-112020670D01*
X160339043Y-111496861D02*
X160529520Y-111496861D01*
X160624758Y-111544480D01*
X160719996Y-111639718D01*
X160767615Y-111830194D01*
X160767615Y-112163528D01*
X160719996Y-112354004D01*
X160624758Y-112449242D01*
X160529520Y-112496861D01*
X160339043Y-112496861D01*
X160243805Y-112449242D01*
X160148567Y-112354004D01*
X160100948Y-112163528D01*
X160100948Y-111830194D01*
X160148567Y-111639718D01*
X160243805Y-111544480D01*
X160339043Y-111496861D01*
X161053329Y-111496861D02*
X161624758Y-111496861D01*
X161339043Y-112496861D02*
X161339043Y-111496861D01*
X161719996Y-112592099D02*
X162481901Y-112592099D01*
X163243806Y-112496861D02*
X162672377Y-112496861D01*
X162958091Y-112496861D02*
X162958091Y-111496861D01*
X162862853Y-111639718D01*
X162767615Y-111734956D01*
X162672377Y-111782575D01*
X163862853Y-111496861D02*
X163958092Y-111496861D01*
X164053330Y-111544480D01*
X164100949Y-111592099D01*
X164148568Y-111687337D01*
X164196187Y-111877813D01*
X164196187Y-112115909D01*
X164148568Y-112306385D01*
X164100949Y-112401623D01*
X164053330Y-112449242D01*
X163958092Y-112496861D01*
X163862853Y-112496861D01*
X163767615Y-112449242D01*
X163719996Y-112401623D01*
X163672377Y-112306385D01*
X163624758Y-112115909D01*
X163624758Y-111877813D01*
X163672377Y-111687337D01*
X163719996Y-111592099D01*
X163767615Y-111544480D01*
X163862853Y-111496861D01*
X164815234Y-111496861D02*
X164910473Y-111496861D01*
X165005711Y-111544480D01*
X165053330Y-111592099D01*
X165100949Y-111687337D01*
X165148568Y-111877813D01*
X165148568Y-112115909D01*
X165100949Y-112306385D01*
X165053330Y-112401623D01*
X165005711Y-112449242D01*
X164910473Y-112496861D01*
X164815234Y-112496861D01*
X164719996Y-112449242D01*
X164672377Y-112401623D01*
X164624758Y-112306385D01*
X164577139Y-112115909D01*
X164577139Y-111877813D01*
X164624758Y-111687337D01*
X164672377Y-111592099D01*
X164719996Y-111544480D01*
X164815234Y-111496861D01*
X165577139Y-112496861D02*
X165577139Y-111496861D01*
X165672377Y-112115909D02*
X165958092Y-112496861D01*
X165958092Y-111830194D02*
X165577139Y-112211147D01*
X215559901Y-116640099D02*
X215559901Y-117211528D01*
X215559901Y-116925814D02*
X214559901Y-116925814D01*
X214702758Y-117021052D01*
X214797996Y-117116290D01*
X214845615Y-117211528D01*
X214559901Y-116021052D02*
X214559901Y-115925813D01*
X214607520Y-115830575D01*
X214655139Y-115782956D01*
X214750377Y-115735337D01*
X214940853Y-115687718D01*
X215178949Y-115687718D01*
X215369425Y-115735337D01*
X215464663Y-115782956D01*
X215512282Y-115830575D01*
X215559901Y-115925813D01*
X215559901Y-116021052D01*
X215512282Y-116116290D01*
X215464663Y-116163909D01*
X215369425Y-116211528D01*
X215178949Y-116259147D01*
X214940853Y-116259147D01*
X214750377Y-116211528D01*
X214655139Y-116163909D01*
X214607520Y-116116290D01*
X214559901Y-116021052D01*
X214559901Y-115068671D02*
X214559901Y-114973432D01*
X214607520Y-114878194D01*
X214655139Y-114830575D01*
X214750377Y-114782956D01*
X214940853Y-114735337D01*
X215178949Y-114735337D01*
X215369425Y-114782956D01*
X215464663Y-114830575D01*
X215512282Y-114878194D01*
X215559901Y-114973432D01*
X215559901Y-115068671D01*
X215512282Y-115163909D01*
X215464663Y-115211528D01*
X215369425Y-115259147D01*
X215178949Y-115306766D01*
X214940853Y-115306766D01*
X214750377Y-115259147D01*
X214655139Y-115211528D01*
X214607520Y-115163909D01*
X214559901Y-115068671D01*
X214893234Y-114306766D02*
X215559901Y-114306766D01*
X214988472Y-114306766D02*
X214940853Y-114259147D01*
X214893234Y-114163909D01*
X214893234Y-114021051D01*
X214940853Y-113925813D01*
X215036091Y-113878194D01*
X215559901Y-113878194D01*
X215036091Y-113068670D02*
X215036091Y-113402004D01*
X215559901Y-113402004D02*
X214559901Y-113402004D01*
X214559901Y-112925813D01*
X221179901Y-108051861D02*
X220608472Y-108051861D01*
X220894186Y-108051861D02*
X220894186Y-107051861D01*
X220798948Y-107194718D01*
X220703710Y-107289956D01*
X220608472Y-107337575D01*
X221798948Y-107051861D02*
X221894187Y-107051861D01*
X221989425Y-107099480D01*
X222037044Y-107147099D01*
X222084663Y-107242337D01*
X222132282Y-107432813D01*
X222132282Y-107670909D01*
X222084663Y-107861385D01*
X222037044Y-107956623D01*
X221989425Y-108004242D01*
X221894187Y-108051861D01*
X221798948Y-108051861D01*
X221703710Y-108004242D01*
X221656091Y-107956623D01*
X221608472Y-107861385D01*
X221560853Y-107670909D01*
X221560853Y-107432813D01*
X221608472Y-107242337D01*
X221656091Y-107147099D01*
X221703710Y-107099480D01*
X221798948Y-107051861D01*
X222751329Y-107051861D02*
X222846568Y-107051861D01*
X222941806Y-107099480D01*
X222989425Y-107147099D01*
X223037044Y-107242337D01*
X223084663Y-107432813D01*
X223084663Y-107670909D01*
X223037044Y-107861385D01*
X222989425Y-107956623D01*
X222941806Y-108004242D01*
X222846568Y-108051861D01*
X222751329Y-108051861D01*
X222656091Y-108004242D01*
X222608472Y-107956623D01*
X222560853Y-107861385D01*
X222513234Y-107670909D01*
X222513234Y-107432813D01*
X222560853Y-107242337D01*
X222608472Y-107147099D01*
X222656091Y-107099480D01*
X222751329Y-107051861D01*
X223513234Y-107385194D02*
X223513234Y-108051861D01*
X223513234Y-107480432D02*
X223560853Y-107432813D01*
X223656091Y-107385194D01*
X223798949Y-107385194D01*
X223894187Y-107432813D01*
X223941806Y-107528051D01*
X223941806Y-108051861D01*
X224751330Y-107528051D02*
X224417996Y-107528051D01*
X224417996Y-108051861D02*
X224417996Y-107051861D01*
X224894187Y-107051861D01*
X221179901Y-110591861D02*
X220608472Y-110591861D01*
X220894186Y-110591861D02*
X220894186Y-109591861D01*
X220798948Y-109734718D01*
X220703710Y-109829956D01*
X220608472Y-109877575D01*
X221798948Y-109591861D02*
X221894187Y-109591861D01*
X221989425Y-109639480D01*
X222037044Y-109687099D01*
X222084663Y-109782337D01*
X222132282Y-109972813D01*
X222132282Y-110210909D01*
X222084663Y-110401385D01*
X222037044Y-110496623D01*
X221989425Y-110544242D01*
X221894187Y-110591861D01*
X221798948Y-110591861D01*
X221703710Y-110544242D01*
X221656091Y-110496623D01*
X221608472Y-110401385D01*
X221560853Y-110210909D01*
X221560853Y-109972813D01*
X221608472Y-109782337D01*
X221656091Y-109687099D01*
X221703710Y-109639480D01*
X221798948Y-109591861D01*
X222751329Y-109591861D02*
X222846568Y-109591861D01*
X222941806Y-109639480D01*
X222989425Y-109687099D01*
X223037044Y-109782337D01*
X223084663Y-109972813D01*
X223084663Y-110210909D01*
X223037044Y-110401385D01*
X222989425Y-110496623D01*
X222941806Y-110544242D01*
X222846568Y-110591861D01*
X222751329Y-110591861D01*
X222656091Y-110544242D01*
X222608472Y-110496623D01*
X222560853Y-110401385D01*
X222513234Y-110210909D01*
X222513234Y-109972813D01*
X222560853Y-109782337D01*
X222608472Y-109687099D01*
X222656091Y-109639480D01*
X222751329Y-109591861D01*
X223513234Y-109925194D02*
X223513234Y-110591861D01*
X223513234Y-110020432D02*
X223560853Y-109972813D01*
X223656091Y-109925194D01*
X223798949Y-109925194D01*
X223894187Y-109972813D01*
X223941806Y-110068051D01*
X223941806Y-110591861D01*
X224751330Y-110068051D02*
X224417996Y-110068051D01*
X224417996Y-110591861D02*
X224417996Y-109591861D01*
X224894187Y-109591861D01*
X221179901Y-113131861D02*
X220608472Y-113131861D01*
X220894186Y-113131861D02*
X220894186Y-112131861D01*
X220798948Y-112274718D01*
X220703710Y-112369956D01*
X220608472Y-112417575D01*
X221798948Y-112131861D02*
X221894187Y-112131861D01*
X221989425Y-112179480D01*
X222037044Y-112227099D01*
X222084663Y-112322337D01*
X222132282Y-112512813D01*
X222132282Y-112750909D01*
X222084663Y-112941385D01*
X222037044Y-113036623D01*
X221989425Y-113084242D01*
X221894187Y-113131861D01*
X221798948Y-113131861D01*
X221703710Y-113084242D01*
X221656091Y-113036623D01*
X221608472Y-112941385D01*
X221560853Y-112750909D01*
X221560853Y-112512813D01*
X221608472Y-112322337D01*
X221656091Y-112227099D01*
X221703710Y-112179480D01*
X221798948Y-112131861D01*
X222751329Y-112131861D02*
X222846568Y-112131861D01*
X222941806Y-112179480D01*
X222989425Y-112227099D01*
X223037044Y-112322337D01*
X223084663Y-112512813D01*
X223084663Y-112750909D01*
X223037044Y-112941385D01*
X222989425Y-113036623D01*
X222941806Y-113084242D01*
X222846568Y-113131861D01*
X222751329Y-113131861D01*
X222656091Y-113084242D01*
X222608472Y-113036623D01*
X222560853Y-112941385D01*
X222513234Y-112750909D01*
X222513234Y-112512813D01*
X222560853Y-112322337D01*
X222608472Y-112227099D01*
X222656091Y-112179480D01*
X222751329Y-112131861D01*
X223513234Y-112465194D02*
X223513234Y-113131861D01*
X223513234Y-112560432D02*
X223560853Y-112512813D01*
X223656091Y-112465194D01*
X223798949Y-112465194D01*
X223894187Y-112512813D01*
X223941806Y-112608051D01*
X223941806Y-113131861D01*
X224751330Y-112608051D02*
X224417996Y-112608051D01*
X224417996Y-113131861D02*
X224417996Y-112131861D01*
X224894187Y-112131861D01*
X213019901Y-116640099D02*
X213019901Y-117211528D01*
X213019901Y-116925814D02*
X212019901Y-116925814D01*
X212162758Y-117021052D01*
X212257996Y-117116290D01*
X212305615Y-117211528D01*
X212019901Y-116021052D02*
X212019901Y-115925813D01*
X212067520Y-115830575D01*
X212115139Y-115782956D01*
X212210377Y-115735337D01*
X212400853Y-115687718D01*
X212638949Y-115687718D01*
X212829425Y-115735337D01*
X212924663Y-115782956D01*
X212972282Y-115830575D01*
X213019901Y-115925813D01*
X213019901Y-116021052D01*
X212972282Y-116116290D01*
X212924663Y-116163909D01*
X212829425Y-116211528D01*
X212638949Y-116259147D01*
X212400853Y-116259147D01*
X212210377Y-116211528D01*
X212115139Y-116163909D01*
X212067520Y-116116290D01*
X212019901Y-116021052D01*
X212019901Y-115068671D02*
X212019901Y-114973432D01*
X212067520Y-114878194D01*
X212115139Y-114830575D01*
X212210377Y-114782956D01*
X212400853Y-114735337D01*
X212638949Y-114735337D01*
X212829425Y-114782956D01*
X212924663Y-114830575D01*
X212972282Y-114878194D01*
X213019901Y-114973432D01*
X213019901Y-115068671D01*
X212972282Y-115163909D01*
X212924663Y-115211528D01*
X212829425Y-115259147D01*
X212638949Y-115306766D01*
X212400853Y-115306766D01*
X212210377Y-115259147D01*
X212115139Y-115211528D01*
X212067520Y-115163909D01*
X212019901Y-115068671D01*
X212353234Y-114306766D02*
X213019901Y-114306766D01*
X212448472Y-114306766D02*
X212400853Y-114259147D01*
X212353234Y-114163909D01*
X212353234Y-114021051D01*
X212400853Y-113925813D01*
X212496091Y-113878194D01*
X213019901Y-113878194D01*
X212496091Y-113068670D02*
X212496091Y-113402004D01*
X213019901Y-113402004D02*
X212019901Y-113402004D01*
X212019901Y-112925813D01*
X210479901Y-116767099D02*
X210479901Y-117338528D01*
X210479901Y-117052814D02*
X209479901Y-117052814D01*
X209622758Y-117148052D01*
X209717996Y-117243290D01*
X209765615Y-117338528D01*
X209479901Y-116148052D02*
X209479901Y-116052813D01*
X209527520Y-115957575D01*
X209575139Y-115909956D01*
X209670377Y-115862337D01*
X209860853Y-115814718D01*
X210098949Y-115814718D01*
X210289425Y-115862337D01*
X210384663Y-115909956D01*
X210432282Y-115957575D01*
X210479901Y-116052813D01*
X210479901Y-116148052D01*
X210432282Y-116243290D01*
X210384663Y-116290909D01*
X210289425Y-116338528D01*
X210098949Y-116386147D01*
X209860853Y-116386147D01*
X209670377Y-116338528D01*
X209575139Y-116290909D01*
X209527520Y-116243290D01*
X209479901Y-116148052D01*
X209479901Y-115195671D02*
X209479901Y-115100432D01*
X209527520Y-115005194D01*
X209575139Y-114957575D01*
X209670377Y-114909956D01*
X209860853Y-114862337D01*
X210098949Y-114862337D01*
X210289425Y-114909956D01*
X210384663Y-114957575D01*
X210432282Y-115005194D01*
X210479901Y-115100432D01*
X210479901Y-115195671D01*
X210432282Y-115290909D01*
X210384663Y-115338528D01*
X210289425Y-115386147D01*
X210098949Y-115433766D01*
X209860853Y-115433766D01*
X209670377Y-115386147D01*
X209575139Y-115338528D01*
X209527520Y-115290909D01*
X209479901Y-115195671D01*
X209813234Y-114433766D02*
X210479901Y-114433766D01*
X209908472Y-114433766D02*
X209860853Y-114386147D01*
X209813234Y-114290909D01*
X209813234Y-114148051D01*
X209860853Y-114052813D01*
X209956091Y-114005194D01*
X210479901Y-114005194D01*
X209956091Y-113195670D02*
X209956091Y-113529004D01*
X210479901Y-113529004D02*
X209479901Y-113529004D01*
X209479901Y-113052813D01*
X145106901Y-77571861D02*
X144535472Y-77571861D01*
X144821186Y-77571861D02*
X144821186Y-76571861D01*
X144725948Y-76714718D01*
X144630710Y-76809956D01*
X144535472Y-76857575D01*
X145725948Y-76571861D02*
X145821187Y-76571861D01*
X145916425Y-76619480D01*
X145964044Y-76667099D01*
X146011663Y-76762337D01*
X146059282Y-76952813D01*
X146059282Y-77190909D01*
X146011663Y-77381385D01*
X145964044Y-77476623D01*
X145916425Y-77524242D01*
X145821187Y-77571861D01*
X145725948Y-77571861D01*
X145630710Y-77524242D01*
X145583091Y-77476623D01*
X145535472Y-77381385D01*
X145487853Y-77190909D01*
X145487853Y-76952813D01*
X145535472Y-76762337D01*
X145583091Y-76667099D01*
X145630710Y-76619480D01*
X145725948Y-76571861D01*
X146678329Y-76571861D02*
X146773568Y-76571861D01*
X146868806Y-76619480D01*
X146916425Y-76667099D01*
X146964044Y-76762337D01*
X147011663Y-76952813D01*
X147011663Y-77190909D01*
X146964044Y-77381385D01*
X146916425Y-77476623D01*
X146868806Y-77524242D01*
X146773568Y-77571861D01*
X146678329Y-77571861D01*
X146583091Y-77524242D01*
X146535472Y-77476623D01*
X146487853Y-77381385D01*
X146440234Y-77190909D01*
X146440234Y-76952813D01*
X146487853Y-76762337D01*
X146535472Y-76667099D01*
X146583091Y-76619480D01*
X146678329Y-76571861D01*
X147440234Y-76905194D02*
X147440234Y-77571861D01*
X147440234Y-77000432D02*
X147487853Y-76952813D01*
X147583091Y-76905194D01*
X147725949Y-76905194D01*
X147821187Y-76952813D01*
X147868806Y-77048051D01*
X147868806Y-77571861D01*
X148678330Y-77048051D02*
X148344996Y-77048051D01*
X148344996Y-77571861D02*
X148344996Y-76571861D01*
X148821187Y-76571861D01*
X144979901Y-74904861D02*
X144408472Y-74904861D01*
X144694186Y-74904861D02*
X144694186Y-73904861D01*
X144598948Y-74047718D01*
X144503710Y-74142956D01*
X144408472Y-74190575D01*
X145598948Y-73904861D02*
X145694187Y-73904861D01*
X145789425Y-73952480D01*
X145837044Y-74000099D01*
X145884663Y-74095337D01*
X145932282Y-74285813D01*
X145932282Y-74523909D01*
X145884663Y-74714385D01*
X145837044Y-74809623D01*
X145789425Y-74857242D01*
X145694187Y-74904861D01*
X145598948Y-74904861D01*
X145503710Y-74857242D01*
X145456091Y-74809623D01*
X145408472Y-74714385D01*
X145360853Y-74523909D01*
X145360853Y-74285813D01*
X145408472Y-74095337D01*
X145456091Y-74000099D01*
X145503710Y-73952480D01*
X145598948Y-73904861D01*
X146551329Y-73904861D02*
X146646568Y-73904861D01*
X146741806Y-73952480D01*
X146789425Y-74000099D01*
X146837044Y-74095337D01*
X146884663Y-74285813D01*
X146884663Y-74523909D01*
X146837044Y-74714385D01*
X146789425Y-74809623D01*
X146741806Y-74857242D01*
X146646568Y-74904861D01*
X146551329Y-74904861D01*
X146456091Y-74857242D01*
X146408472Y-74809623D01*
X146360853Y-74714385D01*
X146313234Y-74523909D01*
X146313234Y-74285813D01*
X146360853Y-74095337D01*
X146408472Y-74000099D01*
X146456091Y-73952480D01*
X146551329Y-73904861D01*
X147313234Y-74238194D02*
X147313234Y-74904861D01*
X147313234Y-74333432D02*
X147360853Y-74285813D01*
X147456091Y-74238194D01*
X147598949Y-74238194D01*
X147694187Y-74285813D01*
X147741806Y-74381051D01*
X147741806Y-74904861D01*
X148551330Y-74381051D02*
X148217996Y-74381051D01*
X148217996Y-74904861D02*
X148217996Y-73904861D01*
X148694187Y-73904861D01*
X208670234Y-75111146D02*
X209336901Y-75111146D01*
X208289282Y-75349242D02*
X209003568Y-75587337D01*
X209003568Y-74968289D01*
X208336901Y-74682575D02*
X208336901Y-74015908D01*
X209336901Y-74444480D01*
X208670234Y-73634956D02*
X209336901Y-73634956D01*
X208765472Y-73634956D02*
X208717853Y-73587337D01*
X208670234Y-73492099D01*
X208670234Y-73349241D01*
X208717853Y-73254003D01*
X208813091Y-73206384D01*
X209336901Y-73206384D01*
X208813091Y-72396860D02*
X208813091Y-72730194D01*
X209336901Y-72730194D02*
X208336901Y-72730194D01*
X208336901Y-72254003D01*
X189810854Y-84017194D02*
X189810854Y-84683861D01*
X189572758Y-83636242D02*
X189334663Y-84350528D01*
X189953711Y-84350528D01*
X190239425Y-83683861D02*
X190906092Y-83683861D01*
X190477520Y-84683861D01*
X191287044Y-84017194D02*
X191287044Y-84683861D01*
X191287044Y-84112432D02*
X191334663Y-84064813D01*
X191429901Y-84017194D01*
X191572759Y-84017194D01*
X191667997Y-84064813D01*
X191715616Y-84160051D01*
X191715616Y-84683861D01*
X192525140Y-84160051D02*
X192191806Y-84160051D01*
X192191806Y-84683861D02*
X192191806Y-83683861D01*
X192667997Y-83683861D01*
X208035234Y-93526146D02*
X208701901Y-93526146D01*
X207654282Y-93764242D02*
X208368568Y-94002337D01*
X208368568Y-93383289D01*
X207701901Y-93097575D02*
X207701901Y-92430908D01*
X208701901Y-92859480D01*
X208035234Y-92049956D02*
X208701901Y-92049956D01*
X208130472Y-92049956D02*
X208082853Y-92002337D01*
X208035234Y-91907099D01*
X208035234Y-91764241D01*
X208082853Y-91669003D01*
X208178091Y-91621384D01*
X208701901Y-91621384D01*
X208178091Y-90811860D02*
X208178091Y-91145194D01*
X208701901Y-91145194D02*
X207701901Y-91145194D01*
X207701901Y-90669003D01*
X207932425Y-89001861D02*
X207932425Y-88001861D01*
X208265759Y-88716147D01*
X208599092Y-88001861D01*
X208599092Y-89001861D01*
X209408616Y-88478051D02*
X209551473Y-88525670D01*
X209599092Y-88573290D01*
X209646711Y-88668528D01*
X209646711Y-88811385D01*
X209599092Y-88906623D01*
X209551473Y-88954242D01*
X209456235Y-89001861D01*
X209075282Y-89001861D01*
X209075282Y-88001861D01*
X209408616Y-88001861D01*
X209503854Y-88049480D01*
X209551473Y-88097099D01*
X209599092Y-88192337D01*
X209599092Y-88287575D01*
X209551473Y-88382813D01*
X209503854Y-88430432D01*
X209408616Y-88478051D01*
X209075282Y-88478051D01*
X210646711Y-89001861D02*
X210313377Y-88525670D01*
X210075282Y-89001861D02*
X210075282Y-88001861D01*
X210456235Y-88001861D01*
X210551473Y-88049480D01*
X210599092Y-88097099D01*
X210646711Y-88192337D01*
X210646711Y-88335194D01*
X210599092Y-88430432D01*
X210551473Y-88478051D01*
X210456235Y-88525670D01*
X210075282Y-88525670D01*
X211265758Y-88001861D02*
X211360997Y-88001861D01*
X211456235Y-88049480D01*
X211503854Y-88097099D01*
X211551473Y-88192337D01*
X211599092Y-88382813D01*
X211599092Y-88620909D01*
X211551473Y-88811385D01*
X211503854Y-88906623D01*
X211456235Y-88954242D01*
X211360997Y-89001861D01*
X211265758Y-89001861D01*
X211170520Y-88954242D01*
X211122901Y-88906623D01*
X211075282Y-88811385D01*
X211027663Y-88620909D01*
X211027663Y-88382813D01*
X211075282Y-88192337D01*
X211122901Y-88097099D01*
X211170520Y-88049480D01*
X211265758Y-88001861D01*
X212503854Y-88001861D02*
X212027663Y-88001861D01*
X211980044Y-88478051D01*
X212027663Y-88430432D01*
X212122901Y-88382813D01*
X212360997Y-88382813D01*
X212456235Y-88430432D01*
X212503854Y-88478051D01*
X212551473Y-88573290D01*
X212551473Y-88811385D01*
X212503854Y-88906623D01*
X212456235Y-88954242D01*
X212360997Y-89001861D01*
X212122901Y-89001861D01*
X212027663Y-88954242D01*
X211980044Y-88906623D01*
X212932425Y-88097099D02*
X212980044Y-88049480D01*
X213075282Y-88001861D01*
X213313378Y-88001861D01*
X213408616Y-88049480D01*
X213456235Y-88097099D01*
X213503854Y-88192337D01*
X213503854Y-88287575D01*
X213456235Y-88430432D01*
X212884806Y-89001861D01*
X213503854Y-89001861D01*
X214122901Y-88001861D02*
X214218140Y-88001861D01*
X214313378Y-88049480D01*
X214360997Y-88097099D01*
X214408616Y-88192337D01*
X214456235Y-88382813D01*
X214456235Y-88620909D01*
X214408616Y-88811385D01*
X214360997Y-88906623D01*
X214313378Y-88954242D01*
X214218140Y-89001861D01*
X214122901Y-89001861D01*
X214027663Y-88954242D01*
X213980044Y-88906623D01*
X213932425Y-88811385D01*
X213884806Y-88620909D01*
X213884806Y-88382813D01*
X213932425Y-88192337D01*
X213980044Y-88097099D01*
X214027663Y-88049480D01*
X214122901Y-88001861D01*
X199240615Y-63967099D02*
X199288234Y-63919480D01*
X199383472Y-63871861D01*
X199621568Y-63871861D01*
X199716806Y-63919480D01*
X199764425Y-63967099D01*
X199812044Y-64062337D01*
X199812044Y-64157575D01*
X199764425Y-64300432D01*
X199192996Y-64871861D01*
X199812044Y-64871861D01*
X200192996Y-63967099D02*
X200240615Y-63919480D01*
X200335853Y-63871861D01*
X200573949Y-63871861D01*
X200669187Y-63919480D01*
X200716806Y-63967099D01*
X200764425Y-64062337D01*
X200764425Y-64157575D01*
X200716806Y-64300432D01*
X200145377Y-64871861D01*
X200764425Y-64871861D01*
X201192996Y-64871861D02*
X201192996Y-63871861D01*
X201764425Y-64871861D02*
X201335853Y-64300432D01*
X201764425Y-63871861D02*
X201192996Y-64443290D01*
X199113615Y-66507099D02*
X199161234Y-66459480D01*
X199256472Y-66411861D01*
X199494568Y-66411861D01*
X199589806Y-66459480D01*
X199637425Y-66507099D01*
X199685044Y-66602337D01*
X199685044Y-66697575D01*
X199637425Y-66840432D01*
X199065996Y-67411861D01*
X199685044Y-67411861D01*
X200065996Y-66507099D02*
X200113615Y-66459480D01*
X200208853Y-66411861D01*
X200446949Y-66411861D01*
X200542187Y-66459480D01*
X200589806Y-66507099D01*
X200637425Y-66602337D01*
X200637425Y-66697575D01*
X200589806Y-66840432D01*
X200018377Y-67411861D01*
X200637425Y-67411861D01*
X201065996Y-67411861D02*
X201065996Y-66411861D01*
X201637425Y-67411861D02*
X201208853Y-66840432D01*
X201637425Y-66411861D02*
X201065996Y-66983290D01*
X179491901Y-107146956D02*
X179491901Y-107718385D01*
X179491901Y-107432671D02*
X178491901Y-107432671D01*
X178634758Y-107527909D01*
X178729996Y-107623147D01*
X178777615Y-107718385D01*
X178491901Y-106527909D02*
X178491901Y-106432670D01*
X178539520Y-106337432D01*
X178587139Y-106289813D01*
X178682377Y-106242194D01*
X178872853Y-106194575D01*
X179110949Y-106194575D01*
X179301425Y-106242194D01*
X179396663Y-106289813D01*
X179444282Y-106337432D01*
X179491901Y-106432670D01*
X179491901Y-106527909D01*
X179444282Y-106623147D01*
X179396663Y-106670766D01*
X179301425Y-106718385D01*
X179110949Y-106766004D01*
X178872853Y-106766004D01*
X178682377Y-106718385D01*
X178587139Y-106670766D01*
X178539520Y-106623147D01*
X178491901Y-106527909D01*
X179491901Y-105766004D02*
X178491901Y-105766004D01*
X179491901Y-105194575D02*
X178920472Y-105623147D01*
X178491901Y-105194575D02*
X179063330Y-105766004D01*
X183937044Y-102336861D02*
X183365615Y-102336861D01*
X183651329Y-102336861D02*
X183651329Y-101336861D01*
X183556091Y-101479718D01*
X183460853Y-101574956D01*
X183365615Y-101622575D01*
X184556091Y-101336861D02*
X184651330Y-101336861D01*
X184746568Y-101384480D01*
X184794187Y-101432099D01*
X184841806Y-101527337D01*
X184889425Y-101717813D01*
X184889425Y-101955909D01*
X184841806Y-102146385D01*
X184794187Y-102241623D01*
X184746568Y-102289242D01*
X184651330Y-102336861D01*
X184556091Y-102336861D01*
X184460853Y-102289242D01*
X184413234Y-102241623D01*
X184365615Y-102146385D01*
X184317996Y-101955909D01*
X184317996Y-101717813D01*
X184365615Y-101527337D01*
X184413234Y-101432099D01*
X184460853Y-101384480D01*
X184556091Y-101336861D01*
X185317996Y-102336861D02*
X185317996Y-101336861D01*
X185889425Y-102336861D02*
X185460853Y-101765432D01*
X185889425Y-101336861D02*
X185317996Y-101908290D01*
X193676425Y-108544099D02*
X193724044Y-108496480D01*
X193819282Y-108448861D01*
X194057378Y-108448861D01*
X194152616Y-108496480D01*
X194200235Y-108544099D01*
X194247854Y-108639337D01*
X194247854Y-108734575D01*
X194200235Y-108877432D01*
X193628806Y-109448861D01*
X194247854Y-109448861D01*
X194866901Y-108448861D02*
X194962140Y-108448861D01*
X195057378Y-108496480D01*
X195104997Y-108544099D01*
X195152616Y-108639337D01*
X195200235Y-108829813D01*
X195200235Y-109067909D01*
X195152616Y-109258385D01*
X195104997Y-109353623D01*
X195057378Y-109401242D01*
X194962140Y-109448861D01*
X194866901Y-109448861D01*
X194771663Y-109401242D01*
X194724044Y-109353623D01*
X194676425Y-109258385D01*
X194628806Y-109067909D01*
X194628806Y-108829813D01*
X194676425Y-108639337D01*
X194724044Y-108544099D01*
X194771663Y-108496480D01*
X194866901Y-108448861D01*
X195819282Y-108448861D02*
X195914521Y-108448861D01*
X196009759Y-108496480D01*
X196057378Y-108544099D01*
X196104997Y-108639337D01*
X196152616Y-108829813D01*
X196152616Y-109067909D01*
X196104997Y-109258385D01*
X196057378Y-109353623D01*
X196009759Y-109401242D01*
X195914521Y-109448861D01*
X195819282Y-109448861D01*
X195724044Y-109401242D01*
X195676425Y-109353623D01*
X195628806Y-109258385D01*
X195581187Y-109067909D01*
X195581187Y-108829813D01*
X195628806Y-108639337D01*
X195676425Y-108544099D01*
X195724044Y-108496480D01*
X195819282Y-108448861D01*
X189016901Y-92414956D02*
X189016901Y-92986385D01*
X189016901Y-92700671D02*
X188016901Y-92700671D01*
X188159758Y-92795909D01*
X188254996Y-92891147D01*
X188302615Y-92986385D01*
X188445472Y-91843528D02*
X188397853Y-91938766D01*
X188350234Y-91986385D01*
X188254996Y-92034004D01*
X188207377Y-92034004D01*
X188112139Y-91986385D01*
X188064520Y-91938766D01*
X188016901Y-91843528D01*
X188016901Y-91653051D01*
X188064520Y-91557813D01*
X188112139Y-91510194D01*
X188207377Y-91462575D01*
X188254996Y-91462575D01*
X188350234Y-91510194D01*
X188397853Y-91557813D01*
X188445472Y-91653051D01*
X188445472Y-91843528D01*
X188493091Y-91938766D01*
X188540710Y-91986385D01*
X188635949Y-92034004D01*
X188826425Y-92034004D01*
X188921663Y-91986385D01*
X188969282Y-91938766D01*
X189016901Y-91843528D01*
X189016901Y-91653051D01*
X188969282Y-91557813D01*
X188921663Y-91510194D01*
X188826425Y-91462575D01*
X188635949Y-91462575D01*
X188540710Y-91510194D01*
X188493091Y-91557813D01*
X188445472Y-91653051D01*
X189016901Y-91034004D02*
X188016901Y-91034004D01*
X189016901Y-90462575D02*
X188445472Y-90891147D01*
X188016901Y-90462575D02*
X188588330Y-91034004D01*
X183809901Y-91938765D02*
X183809901Y-92510194D01*
X183809901Y-92224480D02*
X182809901Y-92224480D01*
X182952758Y-92319718D01*
X183047996Y-92414956D01*
X183095615Y-92510194D01*
X183809901Y-91510194D02*
X182809901Y-91510194D01*
X183809901Y-90938765D02*
X183238472Y-91367337D01*
X182809901Y-90938765D02*
X183381330Y-91510194D01*
X142804901Y-90621004D02*
X142804901Y-90001956D01*
X143185853Y-90335290D01*
X143185853Y-90192432D01*
X143233472Y-90097194D01*
X143281091Y-90049575D01*
X143376330Y-90001956D01*
X143614425Y-90001956D01*
X143709663Y-90049575D01*
X143757282Y-90097194D01*
X143804901Y-90192432D01*
X143804901Y-90478147D01*
X143757282Y-90573385D01*
X143709663Y-90621004D01*
X142804901Y-89668623D02*
X142804901Y-89049575D01*
X143185853Y-89382909D01*
X143185853Y-89240051D01*
X143233472Y-89144813D01*
X143281091Y-89097194D01*
X143376330Y-89049575D01*
X143614425Y-89049575D01*
X143709663Y-89097194D01*
X143757282Y-89144813D01*
X143804901Y-89240051D01*
X143804901Y-89525766D01*
X143757282Y-89621004D01*
X143709663Y-89668623D01*
X143804901Y-88621004D02*
X142804901Y-88621004D01*
X143804901Y-88049575D02*
X143233472Y-88478147D01*
X142804901Y-88049575D02*
X143376330Y-88621004D01*
X142931901Y-85287004D02*
X142931901Y-84667956D01*
X143312853Y-85001290D01*
X143312853Y-84858432D01*
X143360472Y-84763194D01*
X143408091Y-84715575D01*
X143503330Y-84667956D01*
X143741425Y-84667956D01*
X143836663Y-84715575D01*
X143884282Y-84763194D01*
X143931901Y-84858432D01*
X143931901Y-85144147D01*
X143884282Y-85239385D01*
X143836663Y-85287004D01*
X142931901Y-84334623D02*
X142931901Y-83715575D01*
X143312853Y-84048909D01*
X143312853Y-83906051D01*
X143360472Y-83810813D01*
X143408091Y-83763194D01*
X143503330Y-83715575D01*
X143741425Y-83715575D01*
X143836663Y-83763194D01*
X143884282Y-83810813D01*
X143931901Y-83906051D01*
X143931901Y-84191766D01*
X143884282Y-84287004D01*
X143836663Y-84334623D01*
X143931901Y-83287004D02*
X142931901Y-83287004D01*
X143931901Y-82715575D02*
X143360472Y-83144147D01*
X142931901Y-82715575D02*
X143503330Y-83287004D01*
X159275567Y-78079861D02*
X159275567Y-77079861D01*
X159656520Y-77079861D01*
X159751758Y-77127480D01*
X159799377Y-77175099D01*
X159846996Y-77270337D01*
X159846996Y-77413194D01*
X159799377Y-77508432D01*
X159751758Y-77556051D01*
X159656520Y-77603670D01*
X159275567Y-77603670D01*
X160466043Y-77079861D02*
X160656520Y-77079861D01*
X160751758Y-77127480D01*
X160846996Y-77222718D01*
X160894615Y-77413194D01*
X160894615Y-77746528D01*
X160846996Y-77937004D01*
X160751758Y-78032242D01*
X160656520Y-78079861D01*
X160466043Y-78079861D01*
X160370805Y-78032242D01*
X160275567Y-77937004D01*
X160227948Y-77746528D01*
X160227948Y-77413194D01*
X160275567Y-77222718D01*
X160370805Y-77127480D01*
X160466043Y-77079861D01*
X161180329Y-77079861D02*
X161751758Y-77079861D01*
X161466043Y-78079861D02*
X161466043Y-77079861D01*
X161846996Y-78175099D02*
X162608901Y-78175099D01*
X163370806Y-78079861D02*
X162799377Y-78079861D01*
X163085091Y-78079861D02*
X163085091Y-77079861D01*
X162989853Y-77222718D01*
X162894615Y-77317956D01*
X162799377Y-77365575D01*
X163989853Y-77079861D02*
X164085092Y-77079861D01*
X164180330Y-77127480D01*
X164227949Y-77175099D01*
X164275568Y-77270337D01*
X164323187Y-77460813D01*
X164323187Y-77698909D01*
X164275568Y-77889385D01*
X164227949Y-77984623D01*
X164180330Y-78032242D01*
X164085092Y-78079861D01*
X163989853Y-78079861D01*
X163894615Y-78032242D01*
X163846996Y-77984623D01*
X163799377Y-77889385D01*
X163751758Y-77698909D01*
X163751758Y-77460813D01*
X163799377Y-77270337D01*
X163846996Y-77175099D01*
X163894615Y-77127480D01*
X163989853Y-77079861D01*
X164942234Y-77079861D02*
X165037473Y-77079861D01*
X165132711Y-77127480D01*
X165180330Y-77175099D01*
X165227949Y-77270337D01*
X165275568Y-77460813D01*
X165275568Y-77698909D01*
X165227949Y-77889385D01*
X165180330Y-77984623D01*
X165132711Y-78032242D01*
X165037473Y-78079861D01*
X164942234Y-78079861D01*
X164846996Y-78032242D01*
X164799377Y-77984623D01*
X164751758Y-77889385D01*
X164704139Y-77698909D01*
X164704139Y-77460813D01*
X164751758Y-77270337D01*
X164799377Y-77175099D01*
X164846996Y-77127480D01*
X164942234Y-77079861D01*
X165704139Y-78079861D02*
X165704139Y-77079861D01*
X165799377Y-77698909D02*
X166085092Y-78079861D01*
X166085092Y-77413194D02*
X165704139Y-77794147D01*
X159021567Y-89636861D02*
X159021567Y-88636861D01*
X159402520Y-88636861D01*
X159497758Y-88684480D01*
X159545377Y-88732099D01*
X159592996Y-88827337D01*
X159592996Y-88970194D01*
X159545377Y-89065432D01*
X159497758Y-89113051D01*
X159402520Y-89160670D01*
X159021567Y-89160670D01*
X160212043Y-88636861D02*
X160402520Y-88636861D01*
X160497758Y-88684480D01*
X160592996Y-88779718D01*
X160640615Y-88970194D01*
X160640615Y-89303528D01*
X160592996Y-89494004D01*
X160497758Y-89589242D01*
X160402520Y-89636861D01*
X160212043Y-89636861D01*
X160116805Y-89589242D01*
X160021567Y-89494004D01*
X159973948Y-89303528D01*
X159973948Y-88970194D01*
X160021567Y-88779718D01*
X160116805Y-88684480D01*
X160212043Y-88636861D01*
X160926329Y-88636861D02*
X161497758Y-88636861D01*
X161212043Y-89636861D02*
X161212043Y-88636861D01*
X161592996Y-89732099D02*
X162354901Y-89732099D01*
X163116806Y-89636861D02*
X162545377Y-89636861D01*
X162831091Y-89636861D02*
X162831091Y-88636861D01*
X162735853Y-88779718D01*
X162640615Y-88874956D01*
X162545377Y-88922575D01*
X163735853Y-88636861D02*
X163831092Y-88636861D01*
X163926330Y-88684480D01*
X163973949Y-88732099D01*
X164021568Y-88827337D01*
X164069187Y-89017813D01*
X164069187Y-89255909D01*
X164021568Y-89446385D01*
X163973949Y-89541623D01*
X163926330Y-89589242D01*
X163831092Y-89636861D01*
X163735853Y-89636861D01*
X163640615Y-89589242D01*
X163592996Y-89541623D01*
X163545377Y-89446385D01*
X163497758Y-89255909D01*
X163497758Y-89017813D01*
X163545377Y-88827337D01*
X163592996Y-88732099D01*
X163640615Y-88684480D01*
X163735853Y-88636861D01*
X164688234Y-88636861D02*
X164783473Y-88636861D01*
X164878711Y-88684480D01*
X164926330Y-88732099D01*
X164973949Y-88827337D01*
X165021568Y-89017813D01*
X165021568Y-89255909D01*
X164973949Y-89446385D01*
X164926330Y-89541623D01*
X164878711Y-89589242D01*
X164783473Y-89636861D01*
X164688234Y-89636861D01*
X164592996Y-89589242D01*
X164545377Y-89541623D01*
X164497758Y-89446385D01*
X164450139Y-89255909D01*
X164450139Y-89017813D01*
X164497758Y-88827337D01*
X164545377Y-88732099D01*
X164592996Y-88684480D01*
X164688234Y-88636861D01*
X165450139Y-89636861D02*
X165450139Y-88636861D01*
X165545377Y-89255909D02*
X165831092Y-89636861D01*
X165831092Y-88970194D02*
X165450139Y-89351147D01*
X144420058Y-68304161D02*
X143943867Y-68304161D01*
X143896248Y-68780351D01*
X143943867Y-68732732D01*
X144039105Y-68685113D01*
X144277201Y-68685113D01*
X144372439Y-68732732D01*
X144420058Y-68780351D01*
X144467677Y-68875590D01*
X144467677Y-69113685D01*
X144420058Y-69208923D01*
X144372439Y-69256542D01*
X144277201Y-69304161D01*
X144039105Y-69304161D01*
X143943867Y-69256542D01*
X143896248Y-69208923D01*
X144801010Y-68637494D02*
X145039105Y-69304161D01*
X145277201Y-68637494D01*
X146372439Y-68256542D02*
X145515296Y-69542256D01*
X146610534Y-68304161D02*
X147229582Y-68304161D01*
X146896248Y-68685113D01*
X147039106Y-68685113D01*
X147134344Y-68732732D01*
X147181963Y-68780351D01*
X147229582Y-68875590D01*
X147229582Y-69113685D01*
X147181963Y-69208923D01*
X147134344Y-69256542D01*
X147039106Y-69304161D01*
X146753391Y-69304161D01*
X146658153Y-69256542D01*
X146610534Y-69208923D01*
X147705772Y-69256542D02*
X147705772Y-69304161D01*
X147658153Y-69399399D01*
X147610534Y-69447018D01*
X148039105Y-68304161D02*
X148658153Y-68304161D01*
X148324819Y-68685113D01*
X148467677Y-68685113D01*
X148562915Y-68732732D01*
X148610534Y-68780351D01*
X148658153Y-68875590D01*
X148658153Y-69113685D01*
X148610534Y-69208923D01*
X148562915Y-69256542D01*
X148467677Y-69304161D01*
X148181962Y-69304161D01*
X148086724Y-69256542D01*
X148039105Y-69208923D01*
X148991486Y-68637494D02*
X149229581Y-69304161D01*
X149467677Y-68637494D01*
X150610534Y-69304161D02*
X150610534Y-68637494D01*
X150610534Y-68732732D02*
X150658153Y-68685113D01*
X150753391Y-68637494D01*
X150896249Y-68637494D01*
X150991487Y-68685113D01*
X151039106Y-68780351D01*
X151039106Y-69304161D01*
X151039106Y-68780351D02*
X151086725Y-68685113D01*
X151181963Y-68637494D01*
X151324820Y-68637494D01*
X151420058Y-68685113D01*
X151467677Y-68780351D01*
X151467677Y-69304161D01*
X152372439Y-69304161D02*
X152372439Y-68780351D01*
X152324820Y-68685113D01*
X152229582Y-68637494D01*
X152039105Y-68637494D01*
X151943867Y-68685113D01*
X152372439Y-69256542D02*
X152277201Y-69304161D01*
X152039105Y-69304161D01*
X151943867Y-69256542D01*
X151896248Y-69161304D01*
X151896248Y-69066066D01*
X151943867Y-68970828D01*
X152039105Y-68923209D01*
X152277201Y-68923209D01*
X152372439Y-68875590D01*
X152848629Y-68637494D02*
X152848629Y-69304161D01*
X152848629Y-68732732D02*
X152896248Y-68685113D01*
X152991486Y-68637494D01*
X153134344Y-68637494D01*
X153229582Y-68685113D01*
X153277201Y-68780351D01*
X153277201Y-69304161D01*
X154181963Y-69256542D02*
X154086725Y-69304161D01*
X153896248Y-69304161D01*
X153801010Y-69256542D01*
X153753391Y-69208923D01*
X153705772Y-69113685D01*
X153705772Y-68827970D01*
X153753391Y-68732732D01*
X153801010Y-68685113D01*
X153896248Y-68637494D01*
X154086725Y-68637494D01*
X154181963Y-68685113D01*
X154610534Y-69304161D02*
X154610534Y-68304161D01*
X155039106Y-69304161D02*
X155039106Y-68780351D01*
X154991487Y-68685113D01*
X154896249Y-68637494D01*
X154753391Y-68637494D01*
X154658153Y-68685113D01*
X154610534Y-68732732D01*
X155896249Y-69256542D02*
X155801011Y-69304161D01*
X155610534Y-69304161D01*
X155515296Y-69256542D01*
X155467677Y-69161304D01*
X155467677Y-68780351D01*
X155515296Y-68685113D01*
X155610534Y-68637494D01*
X155801011Y-68637494D01*
X155896249Y-68685113D01*
X155943868Y-68780351D01*
X155943868Y-68875590D01*
X155467677Y-68970828D01*
X156324820Y-69256542D02*
X156420058Y-69304161D01*
X156610534Y-69304161D01*
X156705773Y-69256542D01*
X156753392Y-69161304D01*
X156753392Y-69113685D01*
X156705773Y-69018447D01*
X156610534Y-68970828D01*
X156467677Y-68970828D01*
X156372439Y-68923209D01*
X156324820Y-68827970D01*
X156324820Y-68780351D01*
X156372439Y-68685113D01*
X156467677Y-68637494D01*
X156610534Y-68637494D01*
X156705773Y-68685113D01*
X205511091Y-107622957D02*
X205511091Y-107289623D01*
X206034901Y-107146766D02*
X206034901Y-107622957D01*
X205034901Y-107622957D01*
X205034901Y-107146766D01*
X205987282Y-106289623D02*
X206034901Y-106384861D01*
X206034901Y-106575338D01*
X205987282Y-106670576D01*
X205939663Y-106718195D01*
X205844425Y-106765814D01*
X205558710Y-106765814D01*
X205463472Y-106718195D01*
X205415853Y-106670576D01*
X205368234Y-106575338D01*
X205368234Y-106384861D01*
X205415853Y-106289623D01*
X206034901Y-105718195D02*
X205987282Y-105813433D01*
X205939663Y-105861052D01*
X205844425Y-105908671D01*
X205558710Y-105908671D01*
X205463472Y-105861052D01*
X205415853Y-105813433D01*
X205368234Y-105718195D01*
X205368234Y-105575337D01*
X205415853Y-105480099D01*
X205463472Y-105432480D01*
X205558710Y-105384861D01*
X205844425Y-105384861D01*
X205939663Y-105432480D01*
X205987282Y-105480099D01*
X206034901Y-105575337D01*
X206034901Y-105718195D01*
X206034901Y-104813433D02*
X205987282Y-104908671D01*
X205892044Y-104956290D01*
X205034901Y-104956290D01*
X206034901Y-104003908D02*
X205511091Y-104003908D01*
X205415853Y-104051527D01*
X205368234Y-104146765D01*
X205368234Y-104337242D01*
X205415853Y-104432480D01*
X205987282Y-104003908D02*
X206034901Y-104099146D01*
X206034901Y-104337242D01*
X205987282Y-104432480D01*
X205892044Y-104480099D01*
X205796806Y-104480099D01*
X205701568Y-104432480D01*
X205653949Y-104337242D01*
X205653949Y-104099146D01*
X205606330Y-104003908D01*
X205368234Y-103099146D02*
X206177758Y-103099146D01*
X206272996Y-103146765D01*
X206320615Y-103194384D01*
X206368234Y-103289623D01*
X206368234Y-103432480D01*
X206320615Y-103527718D01*
X205987282Y-103099146D02*
X206034901Y-103194384D01*
X206034901Y-103384861D01*
X205987282Y-103480099D01*
X205939663Y-103527718D01*
X205844425Y-103575337D01*
X205558710Y-103575337D01*
X205463472Y-103527718D01*
X205415853Y-103480099D01*
X205368234Y-103384861D01*
X205368234Y-103194384D01*
X205415853Y-103099146D01*
X205987282Y-102242003D02*
X206034901Y-102337241D01*
X206034901Y-102527718D01*
X205987282Y-102622956D01*
X205892044Y-102670575D01*
X205511091Y-102670575D01*
X205415853Y-102622956D01*
X205368234Y-102527718D01*
X205368234Y-102337241D01*
X205415853Y-102242003D01*
X205511091Y-102194384D01*
X205606330Y-102194384D01*
X205701568Y-102670575D01*
X149916141Y-108430391D02*
X148916141Y-108430391D01*
X148916141Y-108049438D01*
X148963760Y-107954200D01*
X149011379Y-107906581D01*
X149106617Y-107858962D01*
X149249474Y-107858962D01*
X149344712Y-107906581D01*
X149392331Y-107954200D01*
X149439950Y-108049438D01*
X149439950Y-108430391D01*
X149916141Y-107287534D02*
X149868522Y-107382772D01*
X149820903Y-107430391D01*
X149725665Y-107478010D01*
X149439950Y-107478010D01*
X149344712Y-107430391D01*
X149297093Y-107382772D01*
X149249474Y-107287534D01*
X149249474Y-107144676D01*
X149297093Y-107049438D01*
X149344712Y-107001819D01*
X149439950Y-106954200D01*
X149725665Y-106954200D01*
X149820903Y-107001819D01*
X149868522Y-107049438D01*
X149916141Y-107144676D01*
X149916141Y-107287534D01*
X149249474Y-106668486D02*
X149249474Y-106287534D01*
X148916141Y-106525629D02*
X149773284Y-106525629D01*
X149868522Y-106478010D01*
X149916141Y-106382772D01*
X149916141Y-106287534D01*
X149868522Y-105573247D02*
X149916141Y-105668485D01*
X149916141Y-105858962D01*
X149868522Y-105954200D01*
X149773284Y-106001819D01*
X149392331Y-106001819D01*
X149297093Y-105954200D01*
X149249474Y-105858962D01*
X149249474Y-105668485D01*
X149297093Y-105573247D01*
X149392331Y-105525628D01*
X149487570Y-105525628D01*
X149582808Y-106001819D01*
X149249474Y-105097057D02*
X149916141Y-105097057D01*
X149344712Y-105097057D02*
X149297093Y-105049438D01*
X149249474Y-104954200D01*
X149249474Y-104811342D01*
X149297093Y-104716104D01*
X149392331Y-104668485D01*
X149916141Y-104668485D01*
X149249474Y-104335152D02*
X149249474Y-103954200D01*
X148916141Y-104192295D02*
X149773284Y-104192295D01*
X149868522Y-104144676D01*
X149916141Y-104049438D01*
X149916141Y-103954200D01*
X149916141Y-103620866D02*
X149249474Y-103620866D01*
X148916141Y-103620866D02*
X148963760Y-103668485D01*
X149011379Y-103620866D01*
X148963760Y-103573247D01*
X148916141Y-103620866D01*
X149011379Y-103620866D01*
X149916141Y-103001819D02*
X149868522Y-103097057D01*
X149820903Y-103144676D01*
X149725665Y-103192295D01*
X149439950Y-103192295D01*
X149344712Y-103144676D01*
X149297093Y-103097057D01*
X149249474Y-103001819D01*
X149249474Y-102858961D01*
X149297093Y-102763723D01*
X149344712Y-102716104D01*
X149439950Y-102668485D01*
X149725665Y-102668485D01*
X149820903Y-102716104D01*
X149868522Y-102763723D01*
X149916141Y-102858961D01*
X149916141Y-103001819D01*
X149916141Y-102239914D02*
X149249474Y-102239914D01*
X149344712Y-102239914D02*
X149297093Y-102192295D01*
X149249474Y-102097057D01*
X149249474Y-101954199D01*
X149297093Y-101858961D01*
X149392331Y-101811342D01*
X149916141Y-101811342D01*
X149392331Y-101811342D02*
X149297093Y-101763723D01*
X149249474Y-101668485D01*
X149249474Y-101525628D01*
X149297093Y-101430390D01*
X149392331Y-101382771D01*
X149916141Y-101382771D01*
X149868522Y-100525628D02*
X149916141Y-100620866D01*
X149916141Y-100811343D01*
X149868522Y-100906581D01*
X149773284Y-100954200D01*
X149392331Y-100954200D01*
X149297093Y-100906581D01*
X149249474Y-100811343D01*
X149249474Y-100620866D01*
X149297093Y-100525628D01*
X149392331Y-100478009D01*
X149487570Y-100478009D01*
X149582808Y-100954200D01*
X149249474Y-100192295D02*
X149249474Y-99811343D01*
X148916141Y-100049438D02*
X149773284Y-100049438D01*
X149868522Y-100001819D01*
X149916141Y-99906581D01*
X149916141Y-99811343D01*
X149916141Y-99478009D02*
X149249474Y-99478009D01*
X149439950Y-99478009D02*
X149344712Y-99430390D01*
X149297093Y-99382771D01*
X149249474Y-99287533D01*
X149249474Y-99192294D01*
X149868522Y-98478008D02*
X149916141Y-98573246D01*
X149916141Y-98763723D01*
X149868522Y-98858961D01*
X149773284Y-98906580D01*
X149392331Y-98906580D01*
X149297093Y-98858961D01*
X149249474Y-98763723D01*
X149249474Y-98573246D01*
X149297093Y-98478008D01*
X149392331Y-98430389D01*
X149487570Y-98430389D01*
X149582808Y-98906580D01*
X205034901Y-115076290D02*
X206034901Y-114742957D01*
X205034901Y-114409623D01*
X206034901Y-114076290D02*
X205368234Y-114076290D01*
X205034901Y-114076290D02*
X205082520Y-114123909D01*
X205130139Y-114076290D01*
X205082520Y-114028671D01*
X205034901Y-114076290D01*
X205130139Y-114076290D01*
X206034901Y-113600100D02*
X205034901Y-113600100D01*
X205415853Y-113600100D02*
X205368234Y-113504862D01*
X205368234Y-113314385D01*
X205415853Y-113219147D01*
X205463472Y-113171528D01*
X205558710Y-113123909D01*
X205844425Y-113123909D01*
X205939663Y-113171528D01*
X205987282Y-113219147D01*
X206034901Y-113314385D01*
X206034901Y-113504862D01*
X205987282Y-113600100D01*
X206034901Y-112695338D02*
X205368234Y-112695338D01*
X205558710Y-112695338D02*
X205463472Y-112647719D01*
X205415853Y-112600100D01*
X205368234Y-112504862D01*
X205368234Y-112409623D01*
X205987282Y-111695337D02*
X206034901Y-111790575D01*
X206034901Y-111981052D01*
X205987282Y-112076290D01*
X205892044Y-112123909D01*
X205511091Y-112123909D01*
X205415853Y-112076290D01*
X205368234Y-111981052D01*
X205368234Y-111790575D01*
X205415853Y-111695337D01*
X205511091Y-111647718D01*
X205606330Y-111647718D01*
X205701568Y-112123909D01*
X205368234Y-110790575D02*
X206034901Y-110790575D01*
X205368234Y-111219147D02*
X205892044Y-111219147D01*
X205987282Y-111171528D01*
X206034901Y-111076290D01*
X206034901Y-110933432D01*
X205987282Y-110838194D01*
X205939663Y-110790575D01*
X206034901Y-110314385D02*
X205368234Y-110314385D01*
X205558710Y-110314385D02*
X205463472Y-110266766D01*
X205415853Y-110219147D01*
X205368234Y-110123909D01*
X205368234Y-110028670D01*
X185183520Y-81889861D02*
X185183520Y-80889861D01*
X185516854Y-81604147D01*
X185850187Y-80889861D01*
X185850187Y-81889861D01*
X186326377Y-81889861D02*
X186326377Y-81223194D01*
X186326377Y-80889861D02*
X186278758Y-80937480D01*
X186326377Y-80985099D01*
X186373996Y-80937480D01*
X186326377Y-80889861D01*
X186326377Y-80985099D01*
X187231139Y-81842242D02*
X187135901Y-81889861D01*
X186945424Y-81889861D01*
X186850186Y-81842242D01*
X186802567Y-81794623D01*
X186754948Y-81699385D01*
X186754948Y-81413670D01*
X186802567Y-81318432D01*
X186850186Y-81270813D01*
X186945424Y-81223194D01*
X187135901Y-81223194D01*
X187231139Y-81270813D01*
X187659710Y-81889861D02*
X187659710Y-81223194D01*
X187659710Y-81413670D02*
X187707329Y-81318432D01*
X187754948Y-81270813D01*
X187850186Y-81223194D01*
X187945425Y-81223194D01*
X188421615Y-81889861D02*
X188326377Y-81842242D01*
X188278758Y-81794623D01*
X188231139Y-81699385D01*
X188231139Y-81413670D01*
X188278758Y-81318432D01*
X188326377Y-81270813D01*
X188421615Y-81223194D01*
X188564473Y-81223194D01*
X188659711Y-81270813D01*
X188707330Y-81318432D01*
X188754949Y-81413670D01*
X188754949Y-81699385D01*
X188707330Y-81794623D01*
X188659711Y-81842242D01*
X188564473Y-81889861D01*
X188421615Y-81889861D01*
X188945425Y-81985099D02*
X189707330Y-81985099D01*
X189897806Y-81842242D02*
X189993044Y-81889861D01*
X190183520Y-81889861D01*
X190278759Y-81842242D01*
X190326378Y-81747004D01*
X190326378Y-81699385D01*
X190278759Y-81604147D01*
X190183520Y-81556528D01*
X190040663Y-81556528D01*
X189945425Y-81508909D01*
X189897806Y-81413670D01*
X189897806Y-81366051D01*
X189945425Y-81270813D01*
X190040663Y-81223194D01*
X190183520Y-81223194D01*
X190278759Y-81270813D01*
X191183521Y-81889861D02*
X191183521Y-80889861D01*
X191183521Y-81842242D02*
X191088283Y-81889861D01*
X190897806Y-81889861D01*
X190802568Y-81842242D01*
X190754949Y-81794623D01*
X190707330Y-81699385D01*
X190707330Y-81413670D01*
X190754949Y-81318432D01*
X190802568Y-81270813D01*
X190897806Y-81223194D01*
X191088283Y-81223194D01*
X191183521Y-81270813D01*
X205749187Y-71840813D02*
X205749187Y-71364622D01*
X206034901Y-71936051D02*
X205034901Y-71602718D01*
X206034901Y-71269384D01*
X205368234Y-70507479D02*
X206034901Y-70507479D01*
X205368234Y-70936051D02*
X205892044Y-70936051D01*
X205987282Y-70888432D01*
X206034901Y-70793194D01*
X206034901Y-70650336D01*
X205987282Y-70555098D01*
X205939663Y-70507479D01*
X206034901Y-69602717D02*
X205034901Y-69602717D01*
X205987282Y-69602717D02*
X206034901Y-69697955D01*
X206034901Y-69888432D01*
X205987282Y-69983670D01*
X205939663Y-70031289D01*
X205844425Y-70078908D01*
X205558710Y-70078908D01*
X205463472Y-70031289D01*
X205415853Y-69983670D01*
X205368234Y-69888432D01*
X205368234Y-69697955D01*
X205415853Y-69602717D01*
X206034901Y-69126527D02*
X205368234Y-69126527D01*
X205034901Y-69126527D02*
X205082520Y-69174146D01*
X205130139Y-69126527D01*
X205082520Y-69078908D01*
X205034901Y-69126527D01*
X205130139Y-69126527D01*
X206034901Y-68507480D02*
X205987282Y-68602718D01*
X205939663Y-68650337D01*
X205844425Y-68697956D01*
X205558710Y-68697956D01*
X205463472Y-68650337D01*
X205415853Y-68602718D01*
X205368234Y-68507480D01*
X205368234Y-68364622D01*
X205415853Y-68269384D01*
X205463472Y-68221765D01*
X205558710Y-68174146D01*
X205844425Y-68174146D01*
X205939663Y-68221765D01*
X205987282Y-68269384D01*
X206034901Y-68364622D01*
X206034901Y-68507480D01*
X162013711Y-118227742D02*
X162156568Y-118275361D01*
X162394664Y-118275361D01*
X162489902Y-118227742D01*
X162537521Y-118180123D01*
X162585140Y-118084885D01*
X162585140Y-117989647D01*
X162537521Y-117894409D01*
X162489902Y-117846790D01*
X162394664Y-117799170D01*
X162204187Y-117751551D01*
X162108949Y-117703932D01*
X162061330Y-117656313D01*
X162013711Y-117561075D01*
X162013711Y-117465837D01*
X162061330Y-117370599D01*
X162108949Y-117322980D01*
X162204187Y-117275361D01*
X162442283Y-117275361D01*
X162585140Y-117322980D01*
X163013711Y-118275361D02*
X163013711Y-117275361D01*
X163394664Y-117275361D01*
X163489902Y-117322980D01*
X163537521Y-117370599D01*
X163585140Y-117465837D01*
X163585140Y-117608694D01*
X163537521Y-117703932D01*
X163489902Y-117751551D01*
X163394664Y-117799170D01*
X163013711Y-117799170D01*
X164013711Y-118275361D02*
X164013711Y-117275361D01*
X150869282Y-79738385D02*
X150916901Y-79595528D01*
X150916901Y-79357432D01*
X150869282Y-79262194D01*
X150821663Y-79214575D01*
X150726425Y-79166956D01*
X150631187Y-79166956D01*
X150535949Y-79214575D01*
X150488330Y-79262194D01*
X150440710Y-79357432D01*
X150393091Y-79547909D01*
X150345472Y-79643147D01*
X150297853Y-79690766D01*
X150202615Y-79738385D01*
X150107377Y-79738385D01*
X150012139Y-79690766D01*
X149964520Y-79643147D01*
X149916901Y-79547909D01*
X149916901Y-79309813D01*
X149964520Y-79166956D01*
X150250234Y-78881242D02*
X150250234Y-78500290D01*
X149916901Y-78738385D02*
X150774044Y-78738385D01*
X150869282Y-78690766D01*
X150916901Y-78595528D01*
X150916901Y-78500290D01*
X150916901Y-78166956D02*
X150250234Y-78166956D01*
X149916901Y-78166956D02*
X149964520Y-78214575D01*
X150012139Y-78166956D01*
X149964520Y-78119337D01*
X149916901Y-78166956D01*
X150012139Y-78166956D01*
X150869282Y-77262194D02*
X150916901Y-77357432D01*
X150916901Y-77547909D01*
X150869282Y-77643147D01*
X150821663Y-77690766D01*
X150726425Y-77738385D01*
X150440710Y-77738385D01*
X150345472Y-77690766D01*
X150297853Y-77643147D01*
X150250234Y-77547909D01*
X150250234Y-77357432D01*
X150297853Y-77262194D01*
X150916901Y-76833623D02*
X149916901Y-76833623D01*
X150535949Y-76738385D02*
X150916901Y-76452670D01*
X150250234Y-76452670D02*
X150631187Y-76833623D01*
X151012139Y-76262194D02*
X151012139Y-75500289D01*
X150916901Y-75262194D02*
X150250234Y-75262194D01*
X150440710Y-75262194D02*
X150345472Y-75214575D01*
X150297853Y-75166956D01*
X150250234Y-75071718D01*
X150250234Y-74976479D01*
X150916901Y-74643146D02*
X150250234Y-74643146D01*
X149916901Y-74643146D02*
X149964520Y-74690765D01*
X150012139Y-74643146D01*
X149964520Y-74595527D01*
X149916901Y-74643146D01*
X150012139Y-74643146D01*
X150250234Y-73738384D02*
X151059758Y-73738384D01*
X151154996Y-73786003D01*
X151202615Y-73833622D01*
X151250234Y-73928861D01*
X151250234Y-74071718D01*
X151202615Y-74166956D01*
X150869282Y-73738384D02*
X150916901Y-73833622D01*
X150916901Y-74024099D01*
X150869282Y-74119337D01*
X150821663Y-74166956D01*
X150726425Y-74214575D01*
X150440710Y-74214575D01*
X150345472Y-74166956D01*
X150297853Y-74119337D01*
X150250234Y-74024099D01*
X150250234Y-73833622D01*
X150297853Y-73738384D01*
X150916901Y-73262194D02*
X149916901Y-73262194D01*
X150916901Y-72833622D02*
X150393091Y-72833622D01*
X150297853Y-72881241D01*
X150250234Y-72976479D01*
X150250234Y-73119337D01*
X150297853Y-73214575D01*
X150345472Y-73262194D01*
X150250234Y-72500289D02*
X150250234Y-72119337D01*
X149916901Y-72357432D02*
X150774044Y-72357432D01*
X150869282Y-72309813D01*
X150916901Y-72214575D01*
X150916901Y-72119337D01*
X209083472Y-64221051D02*
X209226329Y-64268670D01*
X209273948Y-64316290D01*
X209321567Y-64411528D01*
X209321567Y-64554385D01*
X209273948Y-64649623D01*
X209226329Y-64697242D01*
X209131091Y-64744861D01*
X208750138Y-64744861D01*
X208750138Y-63744861D01*
X209083472Y-63744861D01*
X209178710Y-63792480D01*
X209226329Y-63840099D01*
X209273948Y-63935337D01*
X209273948Y-64030575D01*
X209226329Y-64125813D01*
X209178710Y-64173432D01*
X209083472Y-64221051D01*
X208750138Y-64221051D01*
X210178710Y-64744861D02*
X210178710Y-64221051D01*
X210131091Y-64125813D01*
X210035853Y-64078194D01*
X209845376Y-64078194D01*
X209750138Y-64125813D01*
X210178710Y-64697242D02*
X210083472Y-64744861D01*
X209845376Y-64744861D01*
X209750138Y-64697242D01*
X209702519Y-64602004D01*
X209702519Y-64506766D01*
X209750138Y-64411528D01*
X209845376Y-64363909D01*
X210083472Y-64363909D01*
X210178710Y-64316290D01*
X210512043Y-64078194D02*
X210892995Y-64078194D01*
X210654900Y-63744861D02*
X210654900Y-64602004D01*
X210702519Y-64697242D01*
X210797757Y-64744861D01*
X210892995Y-64744861D01*
X211083472Y-64078194D02*
X211464424Y-64078194D01*
X211226329Y-63744861D02*
X211226329Y-64602004D01*
X211273948Y-64697242D01*
X211369186Y-64744861D01*
X211464424Y-64744861D01*
X212178711Y-64697242D02*
X212083473Y-64744861D01*
X211892996Y-64744861D01*
X211797758Y-64697242D01*
X211750139Y-64602004D01*
X211750139Y-64221051D01*
X211797758Y-64125813D01*
X211892996Y-64078194D01*
X212083473Y-64078194D01*
X212178711Y-64125813D01*
X212226330Y-64221051D01*
X212226330Y-64316290D01*
X211750139Y-64411528D01*
X212654901Y-64744861D02*
X212654901Y-64078194D01*
X212654901Y-64268670D02*
X212702520Y-64173432D01*
X212750139Y-64125813D01*
X212845377Y-64078194D01*
X212940616Y-64078194D01*
X213178711Y-64078194D02*
X213416806Y-64744861D01*
X213654902Y-64078194D02*
X213416806Y-64744861D01*
X213321568Y-64982956D01*
X213273949Y-65030575D01*
X213178711Y-65078194D01*
X215273950Y-64744861D02*
X214797759Y-64744861D01*
X214797759Y-63744861D01*
X215607283Y-64744861D02*
X215607283Y-63744861D01*
X216083473Y-64744861D02*
X216083473Y-63744861D01*
X216464426Y-63744861D01*
X216559664Y-63792480D01*
X216607283Y-63840099D01*
X216654902Y-63935337D01*
X216654902Y-64078194D01*
X216607283Y-64173432D01*
X216559664Y-64221051D01*
X216464426Y-64268670D01*
X216083473Y-64268670D01*
X217273949Y-63744861D02*
X217464426Y-63744861D01*
X217559664Y-63792480D01*
X217654902Y-63887718D01*
X217702521Y-64078194D01*
X217702521Y-64411528D01*
X217654902Y-64602004D01*
X217559664Y-64697242D01*
X217464426Y-64744861D01*
X217273949Y-64744861D01*
X217178711Y-64697242D01*
X217083473Y-64602004D01*
X217035854Y-64411528D01*
X217035854Y-64078194D01*
X217083473Y-63887718D01*
X217178711Y-63792480D01*
X217273949Y-63744861D01*
X208146282Y-71840623D02*
X208193901Y-71697766D01*
X208193901Y-71459670D01*
X208146282Y-71364432D01*
X208098663Y-71316813D01*
X208003425Y-71269194D01*
X207908187Y-71269194D01*
X207812949Y-71316813D01*
X207765330Y-71364432D01*
X207717710Y-71459670D01*
X207670091Y-71650147D01*
X207622472Y-71745385D01*
X207574853Y-71793004D01*
X207479615Y-71840623D01*
X207384377Y-71840623D01*
X207289139Y-71793004D01*
X207241520Y-71745385D01*
X207193901Y-71650147D01*
X207193901Y-71412051D01*
X207241520Y-71269194D01*
X207527234Y-70935861D02*
X208193901Y-70745385D01*
X207717710Y-70554908D01*
X208193901Y-70364432D01*
X207527234Y-70173956D01*
X208289139Y-70031099D02*
X208289139Y-69269194D01*
X207527234Y-69031099D02*
X208527234Y-69031099D01*
X207574853Y-69031099D02*
X207527234Y-68935861D01*
X207527234Y-68745384D01*
X207574853Y-68650146D01*
X207622472Y-68602527D01*
X207717710Y-68554908D01*
X208003425Y-68554908D01*
X208098663Y-68602527D01*
X208146282Y-68650146D01*
X208193901Y-68745384D01*
X208193901Y-68935861D01*
X208146282Y-69031099D01*
X208193901Y-67983480D02*
X208146282Y-68078718D01*
X208098663Y-68126337D01*
X208003425Y-68173956D01*
X207717710Y-68173956D01*
X207622472Y-68126337D01*
X207574853Y-68078718D01*
X207527234Y-67983480D01*
X207527234Y-67840622D01*
X207574853Y-67745384D01*
X207622472Y-67697765D01*
X207717710Y-67650146D01*
X208003425Y-67650146D01*
X208098663Y-67697765D01*
X208146282Y-67745384D01*
X208193901Y-67840622D01*
X208193901Y-67983480D01*
X207527234Y-67316813D02*
X208193901Y-67126337D01*
X207717710Y-66935860D01*
X208193901Y-66745384D01*
X207527234Y-66554908D01*
X208146282Y-65793003D02*
X208193901Y-65888241D01*
X208193901Y-66078718D01*
X208146282Y-66173956D01*
X208051044Y-66221575D01*
X207670091Y-66221575D01*
X207574853Y-66173956D01*
X207527234Y-66078718D01*
X207527234Y-65888241D01*
X207574853Y-65793003D01*
X207670091Y-65745384D01*
X207765330Y-65745384D01*
X207860568Y-66221575D01*
X208193901Y-65316813D02*
X207527234Y-65316813D01*
X207717710Y-65316813D02*
X207622472Y-65269194D01*
X207574853Y-65221575D01*
X207527234Y-65126337D01*
X207527234Y-65031098D01*
X227007681Y-110236474D02*
X226531490Y-110569808D01*
X227007681Y-110807903D02*
X226007681Y-110807903D01*
X226007681Y-110426950D01*
X226055300Y-110331712D01*
X226102919Y-110284093D01*
X226198157Y-110236474D01*
X226341014Y-110236474D01*
X226436252Y-110284093D01*
X226483871Y-110331712D01*
X226531490Y-110426950D01*
X226531490Y-110807903D01*
X227007681Y-109665046D02*
X226960062Y-109760284D01*
X226912443Y-109807903D01*
X226817205Y-109855522D01*
X226531490Y-109855522D01*
X226436252Y-109807903D01*
X226388633Y-109760284D01*
X226341014Y-109665046D01*
X226341014Y-109522188D01*
X226388633Y-109426950D01*
X226436252Y-109379331D01*
X226531490Y-109331712D01*
X226817205Y-109331712D01*
X226912443Y-109379331D01*
X226960062Y-109426950D01*
X227007681Y-109522188D01*
X227007681Y-109665046D01*
X226341014Y-109045998D02*
X226341014Y-108665046D01*
X226007681Y-108903141D02*
X226864824Y-108903141D01*
X226960062Y-108855522D01*
X227007681Y-108760284D01*
X227007681Y-108665046D01*
X227102919Y-108569807D02*
X227102919Y-107807902D01*
X226102919Y-107617426D02*
X226055300Y-107569807D01*
X226007681Y-107474569D01*
X226007681Y-107236473D01*
X226055300Y-107141235D01*
X226102919Y-107093616D01*
X226198157Y-107045997D01*
X226293395Y-107045997D01*
X226436252Y-107093616D01*
X227007681Y-107665045D01*
X227007681Y-107045997D01*
X226989901Y-89334671D02*
X226989901Y-89810862D01*
X225989901Y-89810862D01*
X226894663Y-88429909D02*
X226942282Y-88477528D01*
X226989901Y-88620385D01*
X226989901Y-88715623D01*
X226942282Y-88858481D01*
X226847044Y-88953719D01*
X226751806Y-89001338D01*
X226561330Y-89048957D01*
X226418472Y-89048957D01*
X226227996Y-89001338D01*
X226132758Y-88953719D01*
X226037520Y-88858481D01*
X225989901Y-88715623D01*
X225989901Y-88620385D01*
X226037520Y-88477528D01*
X226085139Y-88429909D01*
X226989901Y-88001338D02*
X225989901Y-88001338D01*
X225989901Y-87763243D01*
X226037520Y-87620385D01*
X226132758Y-87525147D01*
X226227996Y-87477528D01*
X226418472Y-87429909D01*
X226561330Y-87429909D01*
X226751806Y-87477528D01*
X226847044Y-87525147D01*
X226942282Y-87620385D01*
X226989901Y-87763243D01*
X226989901Y-88001338D01*
X227085139Y-87239433D02*
X227085139Y-86477528D01*
X225989901Y-86382290D02*
X226989901Y-86048957D01*
X225989901Y-85715623D01*
X226942282Y-84953718D02*
X226989901Y-85048956D01*
X226989901Y-85239433D01*
X226942282Y-85334671D01*
X226894663Y-85382290D01*
X226799425Y-85429909D01*
X226513710Y-85429909D01*
X226418472Y-85382290D01*
X226370853Y-85334671D01*
X226323234Y-85239433D01*
X226323234Y-85048956D01*
X226370853Y-84953718D01*
X226942282Y-84096575D02*
X226989901Y-84191813D01*
X226989901Y-84382290D01*
X226942282Y-84477528D01*
X226894663Y-84525147D01*
X226799425Y-84572766D01*
X226513710Y-84572766D01*
X226418472Y-84525147D01*
X226370853Y-84477528D01*
X226323234Y-84382290D01*
X226323234Y-84191813D01*
X226370853Y-84096575D01*
X227085139Y-83906099D02*
X227085139Y-83144194D01*
X226942282Y-82953718D02*
X226989901Y-82858480D01*
X226989901Y-82668004D01*
X226942282Y-82572765D01*
X226847044Y-82525146D01*
X226799425Y-82525146D01*
X226704187Y-82572765D01*
X226656568Y-82668004D01*
X226656568Y-82810861D01*
X226608949Y-82906099D01*
X226513710Y-82953718D01*
X226466091Y-82953718D01*
X226370853Y-82906099D01*
X226323234Y-82810861D01*
X226323234Y-82668004D01*
X226370853Y-82572765D01*
X226942282Y-81715622D02*
X226989901Y-81810860D01*
X226989901Y-82001337D01*
X226942282Y-82096575D01*
X226847044Y-82144194D01*
X226466091Y-82144194D01*
X226370853Y-82096575D01*
X226323234Y-82001337D01*
X226323234Y-81810860D01*
X226370853Y-81715622D01*
X226466091Y-81668003D01*
X226561330Y-81668003D01*
X226656568Y-82144194D01*
X226989901Y-81096575D02*
X226942282Y-81191813D01*
X226847044Y-81239432D01*
X225989901Y-81239432D01*
X226942282Y-80334669D02*
X226989901Y-80429907D01*
X226989901Y-80620384D01*
X226942282Y-80715622D01*
X226847044Y-80763241D01*
X226466091Y-80763241D01*
X226370853Y-80715622D01*
X226323234Y-80620384D01*
X226323234Y-80429907D01*
X226370853Y-80334669D01*
X226466091Y-80287050D01*
X226561330Y-80287050D01*
X226656568Y-80763241D01*
X226942282Y-79429907D02*
X226989901Y-79525145D01*
X226989901Y-79715622D01*
X226942282Y-79810860D01*
X226894663Y-79858479D01*
X226799425Y-79906098D01*
X226513710Y-79906098D01*
X226418472Y-79858479D01*
X226370853Y-79810860D01*
X226323234Y-79715622D01*
X226323234Y-79525145D01*
X226370853Y-79429907D01*
X226323234Y-79144193D02*
X226323234Y-78763241D01*
X225989901Y-79001336D02*
X226847044Y-79001336D01*
X226942282Y-78953717D01*
X226989901Y-78858479D01*
X226989901Y-78763241D01*
X226481901Y-76174718D02*
X226481901Y-76650909D01*
X225481901Y-76650909D01*
X225815234Y-75412813D02*
X226481901Y-75412813D01*
X225434282Y-75650909D02*
X226148568Y-75889004D01*
X226148568Y-75269956D01*
X226481901Y-74841385D02*
X226481901Y-74650909D01*
X226434282Y-74555670D01*
X226386663Y-74508051D01*
X226243806Y-74412813D01*
X226053330Y-74365194D01*
X225672377Y-74365194D01*
X225577139Y-74412813D01*
X225529520Y-74460432D01*
X225481901Y-74555670D01*
X225481901Y-74746147D01*
X225529520Y-74841385D01*
X225577139Y-74889004D01*
X225672377Y-74936623D01*
X225910472Y-74936623D01*
X226005710Y-74889004D01*
X226053330Y-74841385D01*
X226100949Y-74746147D01*
X226100949Y-74555670D01*
X226053330Y-74460432D01*
X226005710Y-74412813D01*
X225910472Y-74365194D01*
X225815234Y-73508051D02*
X226481901Y-73508051D01*
X225434282Y-73746147D02*
X226148568Y-73984242D01*
X226148568Y-73365194D01*
X226481901Y-72460432D02*
X226481901Y-73031861D01*
X226481901Y-72746147D02*
X225481901Y-72746147D01*
X225624758Y-72841385D01*
X225719996Y-72936623D01*
X225767615Y-73031861D01*
X212297806Y-119481861D02*
X211964472Y-119005670D01*
X211726377Y-119481861D02*
X211726377Y-118481861D01*
X212107330Y-118481861D01*
X212202568Y-118529480D01*
X212250187Y-118577099D01*
X212297806Y-118672337D01*
X212297806Y-118815194D01*
X212250187Y-118910432D01*
X212202568Y-118958051D01*
X212107330Y-119005670D01*
X211726377Y-119005670D01*
X212869234Y-119481861D02*
X212773996Y-119434242D01*
X212726377Y-119386623D01*
X212678758Y-119291385D01*
X212678758Y-119005670D01*
X212726377Y-118910432D01*
X212773996Y-118862813D01*
X212869234Y-118815194D01*
X213012092Y-118815194D01*
X213107330Y-118862813D01*
X213154949Y-118910432D01*
X213202568Y-119005670D01*
X213202568Y-119291385D01*
X213154949Y-119386623D01*
X213107330Y-119434242D01*
X213012092Y-119481861D01*
X212869234Y-119481861D01*
X213488282Y-118815194D02*
X213869234Y-118815194D01*
X213631139Y-118481861D02*
X213631139Y-119339004D01*
X213678758Y-119434242D01*
X213773996Y-119481861D01*
X213869234Y-119481861D01*
X213964473Y-119577099D02*
X214726378Y-119577099D01*
X215488283Y-119481861D02*
X214916854Y-119481861D01*
X215202568Y-119481861D02*
X215202568Y-118481861D01*
X215107330Y-118624718D01*
X215012092Y-118719956D01*
X214916854Y-118767575D01*
X213076376Y-95351861D02*
X213076376Y-94351861D01*
X213409710Y-95066147D01*
X213743043Y-94351861D01*
X213743043Y-95351861D01*
X214362090Y-95351861D02*
X214266852Y-95304242D01*
X214219233Y-95256623D01*
X214171614Y-95161385D01*
X214171614Y-94875670D01*
X214219233Y-94780432D01*
X214266852Y-94732813D01*
X214362090Y-94685194D01*
X214504948Y-94685194D01*
X214600186Y-94732813D01*
X214647805Y-94780432D01*
X214695424Y-94875670D01*
X214695424Y-95161385D01*
X214647805Y-95256623D01*
X214600186Y-95304242D01*
X214504948Y-95351861D01*
X214362090Y-95351861D01*
X215552567Y-95351861D02*
X215552567Y-94351861D01*
X215552567Y-95304242D02*
X215457329Y-95351861D01*
X215266852Y-95351861D01*
X215171614Y-95304242D01*
X215123995Y-95256623D01*
X215076376Y-95161385D01*
X215076376Y-94875670D01*
X215123995Y-94780432D01*
X215171614Y-94732813D01*
X215266852Y-94685194D01*
X215457329Y-94685194D01*
X215552567Y-94732813D01*
X216457329Y-94685194D02*
X216457329Y-95351861D01*
X216028757Y-94685194D02*
X216028757Y-95209004D01*
X216076376Y-95304242D01*
X216171614Y-95351861D01*
X216314472Y-95351861D01*
X216409710Y-95304242D01*
X216457329Y-95256623D01*
X217076376Y-95351861D02*
X216981138Y-95304242D01*
X216933519Y-95209004D01*
X216933519Y-94351861D01*
X217838282Y-95304242D02*
X217743044Y-95351861D01*
X217552567Y-95351861D01*
X217457329Y-95304242D01*
X217409710Y-95209004D01*
X217409710Y-94828051D01*
X217457329Y-94732813D01*
X217552567Y-94685194D01*
X217743044Y-94685194D01*
X217838282Y-94732813D01*
X217885901Y-94828051D01*
X217885901Y-94923290D01*
X217409710Y-95018528D01*
X218076377Y-95447099D02*
X218838282Y-95447099D01*
X219647806Y-95351861D02*
X219314472Y-94875670D01*
X219076377Y-95351861D02*
X219076377Y-94351861D01*
X219457330Y-94351861D01*
X219552568Y-94399480D01*
X219600187Y-94447099D01*
X219647806Y-94542337D01*
X219647806Y-94685194D01*
X219600187Y-94780432D01*
X219552568Y-94828051D01*
X219457330Y-94875670D01*
X219076377Y-94875670D01*
X220028758Y-95304242D02*
X220171615Y-95351861D01*
X220409711Y-95351861D01*
X220504949Y-95304242D01*
X220552568Y-95256623D01*
X220600187Y-95161385D01*
X220600187Y-95066147D01*
X220552568Y-94970909D01*
X220504949Y-94923290D01*
X220409711Y-94875670D01*
X220219234Y-94828051D01*
X220123996Y-94780432D01*
X220076377Y-94732813D01*
X220028758Y-94637575D01*
X220028758Y-94542337D01*
X220076377Y-94447099D01*
X220123996Y-94399480D01*
X220219234Y-94351861D01*
X220457330Y-94351861D01*
X220600187Y-94399480D01*
X220981139Y-94447099D02*
X221028758Y-94399480D01*
X221123996Y-94351861D01*
X221362092Y-94351861D01*
X221457330Y-94399480D01*
X221504949Y-94447099D01*
X221552568Y-94542337D01*
X221552568Y-94637575D01*
X221504949Y-94780432D01*
X220933520Y-95351861D01*
X221552568Y-95351861D01*
X221885901Y-94351861D02*
X222504949Y-94351861D01*
X222171615Y-94732813D01*
X222314473Y-94732813D01*
X222409711Y-94780432D01*
X222457330Y-94828051D01*
X222504949Y-94923290D01*
X222504949Y-95161385D01*
X222457330Y-95256623D01*
X222409711Y-95304242D01*
X222314473Y-95351861D01*
X222028758Y-95351861D01*
X221933520Y-95304242D01*
X221885901Y-95256623D01*
X222885901Y-94447099D02*
X222933520Y-94399480D01*
X223028758Y-94351861D01*
X223266854Y-94351861D01*
X223362092Y-94399480D01*
X223409711Y-94447099D01*
X223457330Y-94542337D01*
X223457330Y-94637575D01*
X223409711Y-94780432D01*
X222838282Y-95351861D01*
X223457330Y-95351861D01*
X224600187Y-94304242D02*
X223743044Y-95589956D01*
X224790663Y-94351861D02*
X225362092Y-94351861D01*
X225076377Y-95351861D02*
X225076377Y-94351861D01*
X225552568Y-94351861D02*
X226123997Y-94351861D01*
X225838282Y-95351861D02*
X225838282Y-94351861D01*
X226933521Y-95351861D02*
X226457330Y-95351861D01*
X226457330Y-94351861D01*
X212257901Y-72356575D02*
X211257901Y-72356575D01*
X211972187Y-72023241D01*
X211257901Y-71689908D01*
X212257901Y-71689908D01*
X211734091Y-70880384D02*
X211781710Y-70737527D01*
X211829330Y-70689908D01*
X211924568Y-70642289D01*
X212067425Y-70642289D01*
X212162663Y-70689908D01*
X212210282Y-70737527D01*
X212257901Y-70832765D01*
X212257901Y-71213718D01*
X211257901Y-71213718D01*
X211257901Y-70880384D01*
X211305520Y-70785146D01*
X211353139Y-70737527D01*
X211448377Y-70689908D01*
X211543615Y-70689908D01*
X211638853Y-70737527D01*
X211686472Y-70785146D01*
X211734091Y-70880384D01*
X211734091Y-71213718D01*
X212257901Y-69642289D02*
X211781710Y-69975623D01*
X212257901Y-70213718D02*
X211257901Y-70213718D01*
X211257901Y-69832765D01*
X211305520Y-69737527D01*
X211353139Y-69689908D01*
X211448377Y-69642289D01*
X211591234Y-69642289D01*
X211686472Y-69689908D01*
X211734091Y-69737527D01*
X211781710Y-69832765D01*
X211781710Y-70213718D01*
X211257901Y-69023242D02*
X211257901Y-68928003D01*
X211305520Y-68832765D01*
X211353139Y-68785146D01*
X211448377Y-68737527D01*
X211638853Y-68689908D01*
X211876949Y-68689908D01*
X212067425Y-68737527D01*
X212162663Y-68785146D01*
X212210282Y-68832765D01*
X212257901Y-68928003D01*
X212257901Y-69023242D01*
X212210282Y-69118480D01*
X212162663Y-69166099D01*
X212067425Y-69213718D01*
X211876949Y-69261337D01*
X211638853Y-69261337D01*
X211448377Y-69213718D01*
X211353139Y-69166099D01*
X211305520Y-69118480D01*
X211257901Y-69023242D01*
X211257901Y-67785146D02*
X211257901Y-68261337D01*
X211734091Y-68308956D01*
X211686472Y-68261337D01*
X211638853Y-68166099D01*
X211638853Y-67928003D01*
X211686472Y-67832765D01*
X211734091Y-67785146D01*
X211829330Y-67737527D01*
X212067425Y-67737527D01*
X212162663Y-67785146D01*
X212210282Y-67832765D01*
X212257901Y-67928003D01*
X212257901Y-68166099D01*
X212210282Y-68261337D01*
X212162663Y-68308956D01*
X211353139Y-67356575D02*
X211305520Y-67308956D01*
X211257901Y-67213718D01*
X211257901Y-66975622D01*
X211305520Y-66880384D01*
X211353139Y-66832765D01*
X211448377Y-66785146D01*
X211543615Y-66785146D01*
X211686472Y-66832765D01*
X212257901Y-67404194D01*
X212257901Y-66785146D01*
X211257901Y-66166099D02*
X211257901Y-66070860D01*
X211305520Y-65975622D01*
X211353139Y-65928003D01*
X211448377Y-65880384D01*
X211638853Y-65832765D01*
X211876949Y-65832765D01*
X212067425Y-65880384D01*
X212162663Y-65928003D01*
X212210282Y-65975622D01*
X212257901Y-66070860D01*
X212257901Y-66166099D01*
X212210282Y-66261337D01*
X212162663Y-66308956D01*
X212067425Y-66356575D01*
X211876949Y-66404194D01*
X211638853Y-66404194D01*
X211448377Y-66356575D01*
X211353139Y-66308956D01*
X211305520Y-66261337D01*
X211257901Y-66166099D01*
X174372425Y-110957099D02*
X174420044Y-110909480D01*
X174515282Y-110861861D01*
X174753378Y-110861861D01*
X174848616Y-110909480D01*
X174896235Y-110957099D01*
X174943854Y-111052337D01*
X174943854Y-111147575D01*
X174896235Y-111290432D01*
X174324806Y-111861861D01*
X174943854Y-111861861D01*
X175324806Y-110957099D02*
X175372425Y-110909480D01*
X175467663Y-110861861D01*
X175705759Y-110861861D01*
X175800997Y-110909480D01*
X175848616Y-110957099D01*
X175896235Y-111052337D01*
X175896235Y-111147575D01*
X175848616Y-111290432D01*
X175277187Y-111861861D01*
X175896235Y-111861861D01*
X176515282Y-110861861D02*
X176610521Y-110861861D01*
X176705759Y-110909480D01*
X176753378Y-110957099D01*
X176800997Y-111052337D01*
X176848616Y-111242813D01*
X176848616Y-111480909D01*
X176800997Y-111671385D01*
X176753378Y-111766623D01*
X176705759Y-111814242D01*
X176610521Y-111861861D01*
X176515282Y-111861861D01*
X176420044Y-111814242D01*
X176372425Y-111766623D01*
X176324806Y-111671385D01*
X176277187Y-111480909D01*
X176277187Y-111242813D01*
X176324806Y-111052337D01*
X176372425Y-110957099D01*
X176420044Y-110909480D01*
X176515282Y-110861861D01*
X216314472Y-93573861D02*
X216314472Y-92573861D01*
X216647806Y-93288147D01*
X216981139Y-92573861D01*
X216981139Y-93573861D01*
X217600186Y-93573861D02*
X217504948Y-93526242D01*
X217457329Y-93478623D01*
X217409710Y-93383385D01*
X217409710Y-93097670D01*
X217457329Y-93002432D01*
X217504948Y-92954813D01*
X217600186Y-92907194D01*
X217743044Y-92907194D01*
X217838282Y-92954813D01*
X217885901Y-93002432D01*
X217933520Y-93097670D01*
X217933520Y-93383385D01*
X217885901Y-93478623D01*
X217838282Y-93526242D01*
X217743044Y-93573861D01*
X217600186Y-93573861D01*
X218790663Y-93573861D02*
X218790663Y-92573861D01*
X218790663Y-93526242D02*
X218695425Y-93573861D01*
X218504948Y-93573861D01*
X218409710Y-93526242D01*
X218362091Y-93478623D01*
X218314472Y-93383385D01*
X218314472Y-93097670D01*
X218362091Y-93002432D01*
X218409710Y-92954813D01*
X218504948Y-92907194D01*
X218695425Y-92907194D01*
X218790663Y-92954813D01*
X219695425Y-92907194D02*
X219695425Y-93573861D01*
X219266853Y-92907194D02*
X219266853Y-93431004D01*
X219314472Y-93526242D01*
X219409710Y-93573861D01*
X219552568Y-93573861D01*
X219647806Y-93526242D01*
X219695425Y-93478623D01*
X220314472Y-93573861D02*
X220219234Y-93526242D01*
X220171615Y-93431004D01*
X220171615Y-92573861D01*
X221076378Y-93526242D02*
X220981140Y-93573861D01*
X220790663Y-93573861D01*
X220695425Y-93526242D01*
X220647806Y-93431004D01*
X220647806Y-93050051D01*
X220695425Y-92954813D01*
X220790663Y-92907194D01*
X220981140Y-92907194D01*
X221076378Y-92954813D01*
X221123997Y-93050051D01*
X221123997Y-93145290D01*
X220647806Y-93240528D01*
X221314473Y-93669099D02*
X222076378Y-93669099D01*
X222171616Y-92573861D02*
X222743045Y-92573861D01*
X222457330Y-93573861D02*
X222457330Y-92573861D01*
X222981140Y-92573861D02*
X223647807Y-93573861D01*
X223647807Y-92573861D02*
X222981140Y-93573861D01*
X217464901Y-85953766D02*
X216464901Y-85953766D01*
X216464901Y-85572813D01*
X216512520Y-85477575D01*
X216560139Y-85429956D01*
X216655377Y-85382337D01*
X216798234Y-85382337D01*
X216893472Y-85429956D01*
X216941091Y-85477575D01*
X216988710Y-85572813D01*
X216988710Y-85953766D01*
X217464901Y-84429956D02*
X217464901Y-85001385D01*
X217464901Y-84715671D02*
X216464901Y-84715671D01*
X216607758Y-84810909D01*
X216702996Y-84906147D01*
X216750615Y-85001385D01*
X217464901Y-83953766D02*
X217464901Y-83763290D01*
X217417282Y-83668051D01*
X217369663Y-83620432D01*
X217226806Y-83525194D01*
X217036330Y-83477575D01*
X216655377Y-83477575D01*
X216560139Y-83525194D01*
X216512520Y-83572813D01*
X216464901Y-83668051D01*
X216464901Y-83858528D01*
X216512520Y-83953766D01*
X216560139Y-84001385D01*
X216655377Y-84049004D01*
X216893472Y-84049004D01*
X216988710Y-84001385D01*
X217036330Y-83953766D01*
X217083949Y-83858528D01*
X217083949Y-83668051D01*
X217036330Y-83572813D01*
X216988710Y-83525194D01*
X216893472Y-83477575D01*
X217044425Y-67507194D02*
X217044425Y-68173861D01*
X216806329Y-67126242D02*
X216568234Y-67840528D01*
X217187282Y-67840528D01*
X217472996Y-67173861D02*
X218139663Y-67173861D01*
X217711091Y-68173861D01*
X218520615Y-67507194D02*
X218520615Y-68507194D01*
X218996806Y-68031004D02*
X219044425Y-68126242D01*
X219139663Y-68173861D01*
X218520615Y-68031004D02*
X218568234Y-68126242D01*
X218663472Y-68173861D01*
X218853949Y-68173861D01*
X218949187Y-68126242D01*
X218996806Y-68031004D01*
X218996806Y-67507194D01*
X219901568Y-67650051D02*
X219568234Y-67650051D01*
X219568234Y-68173861D02*
X219568234Y-67173861D01*
X220044425Y-67173861D01*
X216151568Y-67585909D02*
X216913473Y-67585909D01*
X216532521Y-67966861D02*
X216532521Y-67204956D01*
X217639663Y-66046623D02*
X217592044Y-66094242D01*
X217449187Y-66141861D01*
X217353949Y-66141861D01*
X217211091Y-66094242D01*
X217115853Y-65999004D01*
X217068234Y-65903766D01*
X217020615Y-65713290D01*
X217020615Y-65570432D01*
X217068234Y-65379956D01*
X217115853Y-65284718D01*
X217211091Y-65189480D01*
X217353949Y-65141861D01*
X217449187Y-65141861D01*
X217592044Y-65189480D01*
X217639663Y-65237099D01*
X218020615Y-65237099D02*
X218068234Y-65189480D01*
X218163472Y-65141861D01*
X218401568Y-65141861D01*
X218496806Y-65189480D01*
X218544425Y-65237099D01*
X218592044Y-65332337D01*
X218592044Y-65427575D01*
X218544425Y-65570432D01*
X217972996Y-66141861D01*
X218592044Y-66141861D01*
X219163472Y-65570432D02*
X219068234Y-65522813D01*
X219020615Y-65475194D01*
X218972996Y-65379956D01*
X218972996Y-65332337D01*
X219020615Y-65237099D01*
X219068234Y-65189480D01*
X219163472Y-65141861D01*
X219353949Y-65141861D01*
X219449187Y-65189480D01*
X219496806Y-65237099D01*
X219544425Y-65332337D01*
X219544425Y-65379956D01*
X219496806Y-65475194D01*
X219449187Y-65522813D01*
X219353949Y-65570432D01*
X219163472Y-65570432D01*
X219068234Y-65618051D01*
X219020615Y-65665670D01*
X218972996Y-65760909D01*
X218972996Y-65951385D01*
X219020615Y-66046623D01*
X219068234Y-66094242D01*
X219163472Y-66141861D01*
X219353949Y-66141861D01*
X219449187Y-66094242D01*
X219496806Y-66046623D01*
X219544425Y-65951385D01*
X219544425Y-65760909D01*
X219496806Y-65665670D01*
X219449187Y-65618051D01*
X219353949Y-65570432D01*
X159497758Y-83921861D02*
X159497758Y-82921861D01*
X159878711Y-82921861D01*
X159973949Y-82969480D01*
X160021568Y-83017099D01*
X160069187Y-83112337D01*
X160069187Y-83255194D01*
X160021568Y-83350432D01*
X159973949Y-83398051D01*
X159878711Y-83445670D01*
X159497758Y-83445670D01*
X160688234Y-82921861D02*
X160878711Y-82921861D01*
X160973949Y-82969480D01*
X161069187Y-83064718D01*
X161116806Y-83255194D01*
X161116806Y-83588528D01*
X161069187Y-83779004D01*
X160973949Y-83874242D01*
X160878711Y-83921861D01*
X160688234Y-83921861D01*
X160592996Y-83874242D01*
X160497758Y-83779004D01*
X160450139Y-83588528D01*
X160450139Y-83255194D01*
X160497758Y-83064718D01*
X160592996Y-82969480D01*
X160688234Y-82921861D01*
X161402520Y-82921861D02*
X161973949Y-82921861D01*
X161688234Y-83921861D02*
X161688234Y-82921861D01*
X162069187Y-84017099D02*
X162831092Y-84017099D01*
X163021568Y-83017099D02*
X163069187Y-82969480D01*
X163164425Y-82921861D01*
X163402521Y-82921861D01*
X163497759Y-82969480D01*
X163545378Y-83017099D01*
X163592997Y-83112337D01*
X163592997Y-83207575D01*
X163545378Y-83350432D01*
X162973949Y-83921861D01*
X163592997Y-83921861D01*
X163973949Y-83017099D02*
X164021568Y-82969480D01*
X164116806Y-82921861D01*
X164354902Y-82921861D01*
X164450140Y-82969480D01*
X164497759Y-83017099D01*
X164545378Y-83112337D01*
X164545378Y-83207575D01*
X164497759Y-83350432D01*
X163926330Y-83921861D01*
X164545378Y-83921861D01*
X164973949Y-83921861D02*
X164973949Y-82921861D01*
X165069187Y-83540909D02*
X165354902Y-83921861D01*
X165354902Y-83255194D02*
X164973949Y-83636147D01*
X159624758Y-95351861D02*
X159624758Y-94351861D01*
X160005711Y-94351861D01*
X160100949Y-94399480D01*
X160148568Y-94447099D01*
X160196187Y-94542337D01*
X160196187Y-94685194D01*
X160148568Y-94780432D01*
X160100949Y-94828051D01*
X160005711Y-94875670D01*
X159624758Y-94875670D01*
X160815234Y-94351861D02*
X161005711Y-94351861D01*
X161100949Y-94399480D01*
X161196187Y-94494718D01*
X161243806Y-94685194D01*
X161243806Y-95018528D01*
X161196187Y-95209004D01*
X161100949Y-95304242D01*
X161005711Y-95351861D01*
X160815234Y-95351861D01*
X160719996Y-95304242D01*
X160624758Y-95209004D01*
X160577139Y-95018528D01*
X160577139Y-94685194D01*
X160624758Y-94494718D01*
X160719996Y-94399480D01*
X160815234Y-94351861D01*
X161529520Y-94351861D02*
X162100949Y-94351861D01*
X161815234Y-95351861D02*
X161815234Y-94351861D01*
X162196187Y-95447099D02*
X162958092Y-95447099D01*
X163148568Y-94447099D02*
X163196187Y-94399480D01*
X163291425Y-94351861D01*
X163529521Y-94351861D01*
X163624759Y-94399480D01*
X163672378Y-94447099D01*
X163719997Y-94542337D01*
X163719997Y-94637575D01*
X163672378Y-94780432D01*
X163100949Y-95351861D01*
X163719997Y-95351861D01*
X164100949Y-94447099D02*
X164148568Y-94399480D01*
X164243806Y-94351861D01*
X164481902Y-94351861D01*
X164577140Y-94399480D01*
X164624759Y-94447099D01*
X164672378Y-94542337D01*
X164672378Y-94637575D01*
X164624759Y-94780432D01*
X164053330Y-95351861D01*
X164672378Y-95351861D01*
X165100949Y-95351861D02*
X165100949Y-94351861D01*
X165196187Y-94970909D02*
X165481902Y-95351861D01*
X165481902Y-94685194D02*
X165100949Y-95066147D01*
X176824901Y-107750099D02*
X176824901Y-108321528D01*
X176824901Y-108035814D02*
X175824901Y-108035814D01*
X175967758Y-108131052D01*
X176062996Y-108226290D01*
X176110615Y-108321528D01*
X175824901Y-107131052D02*
X175824901Y-107035813D01*
X175872520Y-106940575D01*
X175920139Y-106892956D01*
X176015377Y-106845337D01*
X176205853Y-106797718D01*
X176443949Y-106797718D01*
X176634425Y-106845337D01*
X176729663Y-106892956D01*
X176777282Y-106940575D01*
X176824901Y-107035813D01*
X176824901Y-107131052D01*
X176777282Y-107226290D01*
X176729663Y-107273909D01*
X176634425Y-107321528D01*
X176443949Y-107369147D01*
X176205853Y-107369147D01*
X176015377Y-107321528D01*
X175920139Y-107273909D01*
X175872520Y-107226290D01*
X175824901Y-107131052D01*
X175824901Y-106178671D02*
X175824901Y-106083432D01*
X175872520Y-105988194D01*
X175920139Y-105940575D01*
X176015377Y-105892956D01*
X176205853Y-105845337D01*
X176443949Y-105845337D01*
X176634425Y-105892956D01*
X176729663Y-105940575D01*
X176777282Y-105988194D01*
X176824901Y-106083432D01*
X176824901Y-106178671D01*
X176777282Y-106273909D01*
X176729663Y-106321528D01*
X176634425Y-106369147D01*
X176443949Y-106416766D01*
X176205853Y-106416766D01*
X176015377Y-106369147D01*
X175920139Y-106321528D01*
X175872520Y-106273909D01*
X175824901Y-106178671D01*
X176158234Y-105416766D02*
X176824901Y-105416766D01*
X176253472Y-105416766D02*
X176205853Y-105369147D01*
X176158234Y-105273909D01*
X176158234Y-105131051D01*
X176205853Y-105035813D01*
X176301091Y-104988194D01*
X176824901Y-104988194D01*
X176301091Y-104178670D02*
X176301091Y-104512004D01*
X176824901Y-104512004D02*
X175824901Y-104512004D01*
X175824901Y-104035813D01*
X174979663Y-106496146D02*
X175027282Y-106543765D01*
X175074901Y-106686622D01*
X175074901Y-106781860D01*
X175027282Y-106924718D01*
X174932044Y-107019956D01*
X174836806Y-107067575D01*
X174646330Y-107115194D01*
X174503472Y-107115194D01*
X174312996Y-107067575D01*
X174217758Y-107019956D01*
X174122520Y-106924718D01*
X174074901Y-106781860D01*
X174074901Y-106686622D01*
X174122520Y-106543765D01*
X174170139Y-106496146D01*
X174074901Y-105639003D02*
X174074901Y-105829480D01*
X174122520Y-105924718D01*
X174170139Y-105972337D01*
X174312996Y-106067575D01*
X174503472Y-106115194D01*
X174884425Y-106115194D01*
X174979663Y-106067575D01*
X175027282Y-106019956D01*
X175074901Y-105924718D01*
X175074901Y-105734241D01*
X175027282Y-105639003D01*
X174979663Y-105591384D01*
X174884425Y-105543765D01*
X174646330Y-105543765D01*
X174551091Y-105591384D01*
X174503472Y-105639003D01*
X174455853Y-105734241D01*
X174455853Y-105924718D01*
X174503472Y-106019956D01*
X174551091Y-106067575D01*
X174646330Y-106115194D01*
X219973234Y-78230575D02*
X220639901Y-78230575D01*
X219592282Y-78468671D02*
X220306568Y-78706766D01*
X220306568Y-78087718D01*
X219639901Y-77802004D02*
X219639901Y-77135337D01*
X220639901Y-77563909D01*
X219973234Y-76754385D02*
X220973234Y-76754385D01*
X220497044Y-76278194D02*
X220592282Y-76230575D01*
X220639901Y-76135337D01*
X220497044Y-76754385D02*
X220592282Y-76706766D01*
X220639901Y-76611528D01*
X220639901Y-76421051D01*
X220592282Y-76325813D01*
X220497044Y-76278194D01*
X219973234Y-76278194D01*
X220116091Y-75373432D02*
X220116091Y-75706766D01*
X220639901Y-75706766D02*
X219639901Y-75706766D01*
X219639901Y-75230575D01*
X220338949Y-75750432D02*
X220338949Y-74988527D01*
X220719901Y-75369479D02*
X219957996Y-75369479D01*
X220544663Y-77286146D02*
X220592282Y-77333765D01*
X220639901Y-77476622D01*
X220639901Y-77571860D01*
X220592282Y-77714718D01*
X220497044Y-77809956D01*
X220401806Y-77857575D01*
X220211330Y-77905194D01*
X220068472Y-77905194D01*
X219877996Y-77857575D01*
X219782758Y-77809956D01*
X219687520Y-77714718D01*
X219639901Y-77571860D01*
X219639901Y-77476622D01*
X219687520Y-77333765D01*
X219735139Y-77286146D01*
X219639901Y-76952813D02*
X219639901Y-76286146D01*
X220639901Y-76714718D01*
X212988234Y-78103575D02*
X213654901Y-78103575D01*
X212607282Y-78341671D02*
X213321568Y-78579766D01*
X213321568Y-77960718D01*
X212654901Y-77675004D02*
X212654901Y-77008337D01*
X213654901Y-77436909D01*
X212988234Y-76627385D02*
X213988234Y-76627385D01*
X213512044Y-76151194D02*
X213607282Y-76103575D01*
X213654901Y-76008337D01*
X213512044Y-76627385D02*
X213607282Y-76579766D01*
X213654901Y-76484528D01*
X213654901Y-76294051D01*
X213607282Y-76198813D01*
X213512044Y-76151194D01*
X212988234Y-76151194D01*
X213131091Y-75246432D02*
X213131091Y-75579766D01*
X213654901Y-75579766D02*
X212654901Y-75579766D01*
X212654901Y-75103575D01*
X213353949Y-75750432D02*
X213353949Y-74988527D01*
X213734901Y-75369479D02*
X212972996Y-75369479D01*
X213559663Y-77286146D02*
X213607282Y-77333765D01*
X213654901Y-77476622D01*
X213654901Y-77571860D01*
X213607282Y-77714718D01*
X213512044Y-77809956D01*
X213416806Y-77857575D01*
X213226330Y-77905194D01*
X213083472Y-77905194D01*
X212892996Y-77857575D01*
X212797758Y-77809956D01*
X212702520Y-77714718D01*
X212654901Y-77571860D01*
X212654901Y-77476622D01*
X212702520Y-77333765D01*
X212750139Y-77286146D01*
X213083472Y-76714718D02*
X213035853Y-76809956D01*
X212988234Y-76857575D01*
X212892996Y-76905194D01*
X212845377Y-76905194D01*
X212750139Y-76857575D01*
X212702520Y-76809956D01*
X212654901Y-76714718D01*
X212654901Y-76524241D01*
X212702520Y-76429003D01*
X212750139Y-76381384D01*
X212845377Y-76333765D01*
X212892996Y-76333765D01*
X212988234Y-76381384D01*
X213035853Y-76429003D01*
X213083472Y-76524241D01*
X213083472Y-76714718D01*
X213131091Y-76809956D01*
X213178710Y-76857575D01*
X213273949Y-76905194D01*
X213464425Y-76905194D01*
X213559663Y-76857575D01*
X213607282Y-76809956D01*
X213654901Y-76714718D01*
X213654901Y-76524241D01*
X213607282Y-76429003D01*
X213559663Y-76381384D01*
X213464425Y-76333765D01*
X213273949Y-76333765D01*
X213178710Y-76381384D01*
X213131091Y-76429003D01*
X213083472Y-76524241D01*
M02*
