G04 #@! TF.FileFunction,Copper,L1,Top,Signal*
%FSLAX46Y46*%
G04 Gerber Fmt 4.6, Leading zero omitted, Abs format (unit mm)*
G04 Created by KiCad (PCBNEW 4.0.6) date 07/04/17 10:51:02*
%MOMM*%
%LPD*%
G01*
G04 APERTURE LIST*
%ADD10C,0.100000*%
%ADD11C,0.300000*%
%ADD12R,1.700000X1.700000*%
%ADD13O,1.700000X1.700000*%
%ADD14C,1.440000*%
%ADD15C,1.700000*%
%ADD16C,1.524000*%
%ADD17R,1.600000X1.000000*%
%ADD18R,1.000000X1.600000*%
%ADD19R,0.900000X1.200000*%
%ADD20R,0.900000X1.700000*%
%ADD21R,1.700000X0.900000*%
%ADD22O,2.540000X2.032000*%
%ADD23R,1.200000X0.900000*%
%ADD24R,1.597660X0.698500*%
%ADD25R,3.500000X1.600000*%
%ADD26R,1.600000X3.500000*%
%ADD27C,0.650000*%
%ADD28C,0.500000*%
%ADD29C,1.000000*%
%ADD30C,0.210000*%
G04 APERTURE END LIST*
D10*
D11*
X223557091Y-88660336D02*
X223557091Y-87731765D01*
X224128520Y-88231765D01*
X224128520Y-88017479D01*
X224199949Y-87874622D01*
X224271377Y-87803193D01*
X224414234Y-87731765D01*
X224771377Y-87731765D01*
X224914234Y-87803193D01*
X224985663Y-87874622D01*
X225057091Y-88017479D01*
X225057091Y-88446051D01*
X224985663Y-88588908D01*
X224914234Y-88660336D01*
X224914234Y-87088908D02*
X224985663Y-87017480D01*
X225057091Y-87088908D01*
X224985663Y-87160337D01*
X224914234Y-87088908D01*
X225057091Y-87088908D01*
X223557091Y-86517479D02*
X223557091Y-85588908D01*
X224128520Y-86088908D01*
X224128520Y-85874622D01*
X224199949Y-85731765D01*
X224271377Y-85660336D01*
X224414234Y-85588908D01*
X224771377Y-85588908D01*
X224914234Y-85660336D01*
X224985663Y-85731765D01*
X225057091Y-85874622D01*
X225057091Y-86303194D01*
X224985663Y-86446051D01*
X224914234Y-86517479D01*
X224057091Y-85088908D02*
X225057091Y-84731765D01*
X224057091Y-84374623D01*
X223430091Y-82358193D02*
X223430091Y-83072479D01*
X224144377Y-83143908D01*
X224072949Y-83072479D01*
X224001520Y-82929622D01*
X224001520Y-82572479D01*
X224072949Y-82429622D01*
X224144377Y-82358193D01*
X224287234Y-82286765D01*
X224644377Y-82286765D01*
X224787234Y-82358193D01*
X224858663Y-82429622D01*
X224930091Y-82572479D01*
X224930091Y-82929622D01*
X224858663Y-83072479D01*
X224787234Y-83143908D01*
X223430091Y-81858194D02*
X224930091Y-81358194D01*
X223430091Y-80858194D01*
X150536235Y-66011051D02*
X151464806Y-66011051D01*
X150964806Y-66582480D01*
X151179092Y-66582480D01*
X151321949Y-66653909D01*
X151393378Y-66725337D01*
X151464806Y-66868194D01*
X151464806Y-67225337D01*
X151393378Y-67368194D01*
X151321949Y-67439623D01*
X151179092Y-67511051D01*
X150750520Y-67511051D01*
X150607663Y-67439623D01*
X150536235Y-67368194D01*
X152107663Y-67368194D02*
X152179091Y-67439623D01*
X152107663Y-67511051D01*
X152036234Y-67439623D01*
X152107663Y-67368194D01*
X152107663Y-67511051D01*
X152679092Y-66011051D02*
X153607663Y-66011051D01*
X153107663Y-66582480D01*
X153321949Y-66582480D01*
X153464806Y-66653909D01*
X153536235Y-66725337D01*
X153607663Y-66868194D01*
X153607663Y-67225337D01*
X153536235Y-67368194D01*
X153464806Y-67439623D01*
X153321949Y-67511051D01*
X152893377Y-67511051D01*
X152750520Y-67439623D01*
X152679092Y-67368194D01*
X154036234Y-66011051D02*
X154536234Y-67511051D01*
X155036234Y-66011051D01*
X148019807Y-66011051D02*
X147305521Y-66011051D01*
X147234092Y-66725337D01*
X147305521Y-66653909D01*
X147448378Y-66582480D01*
X147805521Y-66582480D01*
X147948378Y-66653909D01*
X148019807Y-66725337D01*
X148091235Y-66868194D01*
X148091235Y-67225337D01*
X148019807Y-67368194D01*
X147948378Y-67439623D01*
X147805521Y-67511051D01*
X147448378Y-67511051D01*
X147305521Y-67439623D01*
X147234092Y-67368194D01*
X148519806Y-66011051D02*
X149019806Y-67511051D01*
X149519806Y-66011051D01*
X165683236Y-58113051D02*
X165683236Y-56613051D01*
X166183236Y-57684480D01*
X166683236Y-56613051D01*
X166683236Y-58113051D01*
X167968950Y-58041623D02*
X167826093Y-58113051D01*
X167540379Y-58113051D01*
X167397522Y-58041623D01*
X167326093Y-57898766D01*
X167326093Y-57327337D01*
X167397522Y-57184480D01*
X167540379Y-57113051D01*
X167826093Y-57113051D01*
X167968950Y-57184480D01*
X168040379Y-57327337D01*
X168040379Y-57470194D01*
X167326093Y-57613051D01*
X169326093Y-57113051D02*
X169326093Y-58327337D01*
X169254664Y-58470194D01*
X169183236Y-58541623D01*
X169040379Y-58613051D01*
X168826093Y-58613051D01*
X168683236Y-58541623D01*
X169326093Y-58041623D02*
X169183236Y-58113051D01*
X168897522Y-58113051D01*
X168754664Y-58041623D01*
X168683236Y-57970194D01*
X168611807Y-57827337D01*
X168611807Y-57398766D01*
X168683236Y-57255909D01*
X168754664Y-57184480D01*
X168897522Y-57113051D01*
X169183236Y-57113051D01*
X169326093Y-57184480D01*
X170683236Y-58113051D02*
X170683236Y-57327337D01*
X170611807Y-57184480D01*
X170468950Y-57113051D01*
X170183236Y-57113051D01*
X170040379Y-57184480D01*
X170683236Y-58041623D02*
X170540379Y-58113051D01*
X170183236Y-58113051D01*
X170040379Y-58041623D01*
X169968950Y-57898766D01*
X169968950Y-57755909D01*
X170040379Y-57613051D01*
X170183236Y-57541623D01*
X170540379Y-57541623D01*
X170683236Y-57470194D01*
X173397522Y-57970194D02*
X173326093Y-58041623D01*
X173111807Y-58113051D01*
X172968950Y-58113051D01*
X172754665Y-58041623D01*
X172611807Y-57898766D01*
X172540379Y-57755909D01*
X172468950Y-57470194D01*
X172468950Y-57255909D01*
X172540379Y-56970194D01*
X172611807Y-56827337D01*
X172754665Y-56684480D01*
X172968950Y-56613051D01*
X173111807Y-56613051D01*
X173326093Y-56684480D01*
X173397522Y-56755909D01*
X174254665Y-58113051D02*
X174111807Y-58041623D01*
X174040379Y-57970194D01*
X173968950Y-57827337D01*
X173968950Y-57398766D01*
X174040379Y-57255909D01*
X174111807Y-57184480D01*
X174254665Y-57113051D01*
X174468950Y-57113051D01*
X174611807Y-57184480D01*
X174683236Y-57255909D01*
X174754665Y-57398766D01*
X174754665Y-57827337D01*
X174683236Y-57970194D01*
X174611807Y-58041623D01*
X174468950Y-58113051D01*
X174254665Y-58113051D01*
X175397522Y-58113051D02*
X175397522Y-57113051D01*
X175397522Y-57398766D02*
X175468950Y-57255909D01*
X175540379Y-57184480D01*
X175683236Y-57113051D01*
X175826093Y-57113051D01*
X176897521Y-58041623D02*
X176754664Y-58113051D01*
X176468950Y-58113051D01*
X176326093Y-58041623D01*
X176254664Y-57898766D01*
X176254664Y-57327337D01*
X176326093Y-57184480D01*
X176468950Y-57113051D01*
X176754664Y-57113051D01*
X176897521Y-57184480D01*
X176968950Y-57327337D01*
X176968950Y-57470194D01*
X176254664Y-57613051D01*
X178683235Y-56755909D02*
X178754664Y-56684480D01*
X178897521Y-56613051D01*
X179254664Y-56613051D01*
X179397521Y-56684480D01*
X179468950Y-56755909D01*
X179540378Y-56898766D01*
X179540378Y-57041623D01*
X179468950Y-57255909D01*
X178611807Y-58113051D01*
X179540378Y-58113051D01*
X180897521Y-56613051D02*
X180183235Y-56613051D01*
X180111806Y-57327337D01*
X180183235Y-57255909D01*
X180326092Y-57184480D01*
X180683235Y-57184480D01*
X180826092Y-57255909D01*
X180897521Y-57327337D01*
X180968949Y-57470194D01*
X180968949Y-57827337D01*
X180897521Y-57970194D01*
X180826092Y-58041623D01*
X180683235Y-58113051D01*
X180326092Y-58113051D01*
X180183235Y-58041623D01*
X180111806Y-57970194D01*
X182254663Y-56613051D02*
X181968949Y-56613051D01*
X181826092Y-56684480D01*
X181754663Y-56755909D01*
X181611806Y-56970194D01*
X181540377Y-57255909D01*
X181540377Y-57827337D01*
X181611806Y-57970194D01*
X181683234Y-58041623D01*
X181826092Y-58113051D01*
X182111806Y-58113051D01*
X182254663Y-58041623D01*
X182326092Y-57970194D01*
X182397520Y-57827337D01*
X182397520Y-57470194D01*
X182326092Y-57327337D01*
X182254663Y-57255909D01*
X182111806Y-57184480D01*
X181826092Y-57184480D01*
X181683234Y-57255909D01*
X181611806Y-57327337D01*
X181540377Y-57470194D01*
X183326091Y-56613051D02*
X183468948Y-56613051D01*
X183611805Y-56684480D01*
X183683234Y-56755909D01*
X183754663Y-56898766D01*
X183826091Y-57184480D01*
X183826091Y-57541623D01*
X183754663Y-57827337D01*
X183683234Y-57970194D01*
X183611805Y-58041623D01*
X183468948Y-58113051D01*
X183326091Y-58113051D01*
X183183234Y-58041623D01*
X183111805Y-57970194D01*
X183040377Y-57827337D01*
X182968948Y-57541623D01*
X182968948Y-57184480D01*
X183040377Y-56898766D01*
X183111805Y-56755909D01*
X183183234Y-56684480D01*
X183326091Y-56613051D01*
X185540376Y-58041623D02*
X185683233Y-58113051D01*
X185968948Y-58113051D01*
X186111805Y-58041623D01*
X186183233Y-57898766D01*
X186183233Y-57827337D01*
X186111805Y-57684480D01*
X185968948Y-57613051D01*
X185754662Y-57613051D01*
X185611805Y-57541623D01*
X185540376Y-57398766D01*
X185540376Y-57327337D01*
X185611805Y-57184480D01*
X185754662Y-57113051D01*
X185968948Y-57113051D01*
X186111805Y-57184480D01*
X186826091Y-58113051D02*
X186826091Y-56613051D01*
X187468948Y-58113051D02*
X187468948Y-57327337D01*
X187397519Y-57184480D01*
X187254662Y-57113051D01*
X187040377Y-57113051D01*
X186897519Y-57184480D01*
X186826091Y-57255909D01*
X188183234Y-58113051D02*
X188183234Y-57113051D01*
X188183234Y-56613051D02*
X188111805Y-56684480D01*
X188183234Y-56755909D01*
X188254662Y-56684480D01*
X188183234Y-56613051D01*
X188183234Y-56755909D01*
X189468948Y-58041623D02*
X189326091Y-58113051D01*
X189040377Y-58113051D01*
X188897520Y-58041623D01*
X188826091Y-57898766D01*
X188826091Y-57327337D01*
X188897520Y-57184480D01*
X189040377Y-57113051D01*
X189326091Y-57113051D01*
X189468948Y-57184480D01*
X189540377Y-57327337D01*
X189540377Y-57470194D01*
X188826091Y-57613051D01*
X190397520Y-58113051D02*
X190254662Y-58041623D01*
X190183234Y-57898766D01*
X190183234Y-56613051D01*
X191611805Y-58113051D02*
X191611805Y-56613051D01*
X191611805Y-58041623D02*
X191468948Y-58113051D01*
X191183234Y-58113051D01*
X191040376Y-58041623D01*
X190968948Y-57970194D01*
X190897519Y-57827337D01*
X190897519Y-57398766D01*
X190968948Y-57255909D01*
X191040376Y-57184480D01*
X191183234Y-57113051D01*
X191468948Y-57113051D01*
X191611805Y-57184480D01*
X194326091Y-57970194D02*
X194254662Y-58041623D01*
X194040376Y-58113051D01*
X193897519Y-58113051D01*
X193683234Y-58041623D01*
X193540376Y-57898766D01*
X193468948Y-57755909D01*
X193397519Y-57470194D01*
X193397519Y-57255909D01*
X193468948Y-56970194D01*
X193540376Y-56827337D01*
X193683234Y-56684480D01*
X193897519Y-56613051D01*
X194040376Y-56613051D01*
X194254662Y-56684480D01*
X194326091Y-56755909D01*
X195183234Y-58113051D02*
X195040376Y-58041623D01*
X194968948Y-57970194D01*
X194897519Y-57827337D01*
X194897519Y-57398766D01*
X194968948Y-57255909D01*
X195040376Y-57184480D01*
X195183234Y-57113051D01*
X195397519Y-57113051D01*
X195540376Y-57184480D01*
X195611805Y-57255909D01*
X195683234Y-57398766D01*
X195683234Y-57827337D01*
X195611805Y-57970194D01*
X195540376Y-58041623D01*
X195397519Y-58113051D01*
X195183234Y-58113051D01*
X196326091Y-57113051D02*
X196326091Y-58613051D01*
X196326091Y-57184480D02*
X196468948Y-57113051D01*
X196754662Y-57113051D01*
X196897519Y-57184480D01*
X196968948Y-57255909D01*
X197040377Y-57398766D01*
X197040377Y-57827337D01*
X196968948Y-57970194D01*
X196897519Y-58041623D01*
X196754662Y-58113051D01*
X196468948Y-58113051D01*
X196326091Y-58041623D01*
X197683234Y-57113051D02*
X197683234Y-58613051D01*
X197683234Y-57184480D02*
X197826091Y-57113051D01*
X198111805Y-57113051D01*
X198254662Y-57184480D01*
X198326091Y-57255909D01*
X198397520Y-57398766D01*
X198397520Y-57827337D01*
X198326091Y-57970194D01*
X198254662Y-58041623D01*
X198111805Y-58113051D01*
X197826091Y-58113051D01*
X197683234Y-58041623D01*
X199611805Y-58041623D02*
X199468948Y-58113051D01*
X199183234Y-58113051D01*
X199040377Y-58041623D01*
X198968948Y-57898766D01*
X198968948Y-57327337D01*
X199040377Y-57184480D01*
X199183234Y-57113051D01*
X199468948Y-57113051D01*
X199611805Y-57184480D01*
X199683234Y-57327337D01*
X199683234Y-57470194D01*
X198968948Y-57613051D01*
X200326091Y-58113051D02*
X200326091Y-57113051D01*
X200326091Y-57398766D02*
X200397519Y-57255909D01*
X200468948Y-57184480D01*
X200611805Y-57113051D01*
X200754662Y-57113051D01*
X203183233Y-58113051D02*
X202326090Y-58113051D01*
X202754662Y-58113051D02*
X202754662Y-56613051D01*
X202611805Y-56827337D01*
X202468947Y-56970194D01*
X202326090Y-57041623D01*
X204897518Y-56541623D02*
X203611804Y-58470194D01*
X205326090Y-56755909D02*
X205397519Y-56684480D01*
X205540376Y-56613051D01*
X205897519Y-56613051D01*
X206040376Y-56684480D01*
X206111805Y-56755909D01*
X206183233Y-56898766D01*
X206183233Y-57041623D01*
X206111805Y-57255909D01*
X205254662Y-58113051D01*
X206183233Y-58113051D01*
X178004664Y-115131051D02*
X178004664Y-113631051D01*
X178504664Y-114702480D01*
X179004664Y-113631051D01*
X179004664Y-115131051D01*
X180290378Y-115059623D02*
X180147521Y-115131051D01*
X179861807Y-115131051D01*
X179718950Y-115059623D01*
X179647521Y-114916766D01*
X179647521Y-114345337D01*
X179718950Y-114202480D01*
X179861807Y-114131051D01*
X180147521Y-114131051D01*
X180290378Y-114202480D01*
X180361807Y-114345337D01*
X180361807Y-114488194D01*
X179647521Y-114631051D01*
X181647521Y-114131051D02*
X181647521Y-115345337D01*
X181576092Y-115488194D01*
X181504664Y-115559623D01*
X181361807Y-115631051D01*
X181147521Y-115631051D01*
X181004664Y-115559623D01*
X181647521Y-115059623D02*
X181504664Y-115131051D01*
X181218950Y-115131051D01*
X181076092Y-115059623D01*
X181004664Y-114988194D01*
X180933235Y-114845337D01*
X180933235Y-114416766D01*
X181004664Y-114273909D01*
X181076092Y-114202480D01*
X181218950Y-114131051D01*
X181504664Y-114131051D01*
X181647521Y-114202480D01*
X183004664Y-115131051D02*
X183004664Y-114345337D01*
X182933235Y-114202480D01*
X182790378Y-114131051D01*
X182504664Y-114131051D01*
X182361807Y-114202480D01*
X183004664Y-115059623D02*
X182861807Y-115131051D01*
X182504664Y-115131051D01*
X182361807Y-115059623D01*
X182290378Y-114916766D01*
X182290378Y-114773909D01*
X182361807Y-114631051D01*
X182504664Y-114559623D01*
X182861807Y-114559623D01*
X183004664Y-114488194D01*
X184576093Y-114988194D02*
X184504664Y-115059623D01*
X184290378Y-115131051D01*
X184147521Y-115131051D01*
X183933236Y-115059623D01*
X183790378Y-114916766D01*
X183718950Y-114773909D01*
X183647521Y-114488194D01*
X183647521Y-114273909D01*
X183718950Y-113988194D01*
X183790378Y-113845337D01*
X183933236Y-113702480D01*
X184147521Y-113631051D01*
X184290378Y-113631051D01*
X184504664Y-113702480D01*
X184576093Y-113773909D01*
X185433236Y-115131051D02*
X185290378Y-115059623D01*
X185218950Y-114988194D01*
X185147521Y-114845337D01*
X185147521Y-114416766D01*
X185218950Y-114273909D01*
X185290378Y-114202480D01*
X185433236Y-114131051D01*
X185647521Y-114131051D01*
X185790378Y-114202480D01*
X185861807Y-114273909D01*
X185933236Y-114416766D01*
X185933236Y-114845337D01*
X185861807Y-114988194D01*
X185790378Y-115059623D01*
X185647521Y-115131051D01*
X185433236Y-115131051D01*
X186576093Y-115131051D02*
X186576093Y-114131051D01*
X186576093Y-114416766D02*
X186647521Y-114273909D01*
X186718950Y-114202480D01*
X186861807Y-114131051D01*
X187004664Y-114131051D01*
X188076092Y-115059623D02*
X187933235Y-115131051D01*
X187647521Y-115131051D01*
X187504664Y-115059623D01*
X187433235Y-114916766D01*
X187433235Y-114345337D01*
X187504664Y-114202480D01*
X187647521Y-114131051D01*
X187933235Y-114131051D01*
X188076092Y-114202480D01*
X188147521Y-114345337D01*
X188147521Y-114488194D01*
X187433235Y-114631051D01*
X188718949Y-113773909D02*
X188790378Y-113702480D01*
X188933235Y-113631051D01*
X189290378Y-113631051D01*
X189433235Y-113702480D01*
X189504664Y-113773909D01*
X189576092Y-113916766D01*
X189576092Y-114059623D01*
X189504664Y-114273909D01*
X188647521Y-115131051D01*
X189576092Y-115131051D01*
X190933235Y-113631051D02*
X190218949Y-113631051D01*
X190147520Y-114345337D01*
X190218949Y-114273909D01*
X190361806Y-114202480D01*
X190718949Y-114202480D01*
X190861806Y-114273909D01*
X190933235Y-114345337D01*
X191004663Y-114488194D01*
X191004663Y-114845337D01*
X190933235Y-114988194D01*
X190861806Y-115059623D01*
X190718949Y-115131051D01*
X190361806Y-115131051D01*
X190218949Y-115059623D01*
X190147520Y-114988194D01*
X192290377Y-113631051D02*
X192004663Y-113631051D01*
X191861806Y-113702480D01*
X191790377Y-113773909D01*
X191647520Y-113988194D01*
X191576091Y-114273909D01*
X191576091Y-114845337D01*
X191647520Y-114988194D01*
X191718948Y-115059623D01*
X191861806Y-115131051D01*
X192147520Y-115131051D01*
X192290377Y-115059623D01*
X192361806Y-114988194D01*
X192433234Y-114845337D01*
X192433234Y-114488194D01*
X192361806Y-114345337D01*
X192290377Y-114273909D01*
X192147520Y-114202480D01*
X191861806Y-114202480D01*
X191718948Y-114273909D01*
X191647520Y-114345337D01*
X191576091Y-114488194D01*
X193361805Y-113631051D02*
X193504662Y-113631051D01*
X193647519Y-113702480D01*
X193718948Y-113773909D01*
X193790377Y-113916766D01*
X193861805Y-114202480D01*
X193861805Y-114559623D01*
X193790377Y-114845337D01*
X193718948Y-114988194D01*
X193647519Y-115059623D01*
X193504662Y-115131051D01*
X193361805Y-115131051D01*
X193218948Y-115059623D01*
X193147519Y-114988194D01*
X193076091Y-114845337D01*
X193004662Y-114559623D01*
X193004662Y-114202480D01*
X193076091Y-113916766D01*
X193147519Y-113773909D01*
X193218948Y-113702480D01*
X193361805Y-113631051D01*
X182718949Y-117609623D02*
X182933235Y-117681051D01*
X183290378Y-117681051D01*
X183433235Y-117609623D01*
X183504664Y-117538194D01*
X183576092Y-117395337D01*
X183576092Y-117252480D01*
X183504664Y-117109623D01*
X183433235Y-117038194D01*
X183290378Y-116966766D01*
X183004664Y-116895337D01*
X182861806Y-116823909D01*
X182790378Y-116752480D01*
X182718949Y-116609623D01*
X182718949Y-116466766D01*
X182790378Y-116323909D01*
X182861806Y-116252480D01*
X183004664Y-116181051D01*
X183361806Y-116181051D01*
X183576092Y-116252480D01*
X184218949Y-117681051D02*
X184218949Y-116181051D01*
X184861806Y-117681051D02*
X184861806Y-116895337D01*
X184790377Y-116752480D01*
X184647520Y-116681051D01*
X184433235Y-116681051D01*
X184290377Y-116752480D01*
X184218949Y-116823909D01*
X185576092Y-117681051D02*
X185576092Y-116681051D01*
X185576092Y-116181051D02*
X185504663Y-116252480D01*
X185576092Y-116323909D01*
X185647520Y-116252480D01*
X185576092Y-116181051D01*
X185576092Y-116323909D01*
X186861806Y-117609623D02*
X186718949Y-117681051D01*
X186433235Y-117681051D01*
X186290378Y-117609623D01*
X186218949Y-117466766D01*
X186218949Y-116895337D01*
X186290378Y-116752480D01*
X186433235Y-116681051D01*
X186718949Y-116681051D01*
X186861806Y-116752480D01*
X186933235Y-116895337D01*
X186933235Y-117038194D01*
X186218949Y-117181051D01*
X187790378Y-117681051D02*
X187647520Y-117609623D01*
X187576092Y-117466766D01*
X187576092Y-116181051D01*
X189004663Y-117681051D02*
X189004663Y-116181051D01*
X189004663Y-117609623D02*
X188861806Y-117681051D01*
X188576092Y-117681051D01*
X188433234Y-117609623D01*
X188361806Y-117538194D01*
X188290377Y-117395337D01*
X188290377Y-116966766D01*
X188361806Y-116823909D01*
X188433234Y-116752480D01*
X188576092Y-116681051D01*
X188861806Y-116681051D01*
X189004663Y-116752480D01*
D12*
X210662520Y-103789480D03*
D13*
X210662520Y-106329480D03*
X210662520Y-108869480D03*
D14*
X154147520Y-113949480D03*
X151607520Y-113949480D03*
X149067520Y-113949480D03*
D12*
X208122520Y-86009480D03*
D13*
X205582520Y-86009480D03*
X208122520Y-83469480D03*
X205582520Y-83469480D03*
X208122520Y-80929480D03*
X205582520Y-80929480D03*
X208122520Y-78389480D03*
X205582520Y-78389480D03*
D14*
X154655520Y-79786480D03*
X154655520Y-77246480D03*
X154655520Y-74706480D03*
D12*
X194787520Y-81564480D03*
D13*
X197327520Y-81564480D03*
D15*
X187167520Y-73309480D03*
X189707520Y-73309480D03*
X192247520Y-73309480D03*
X194787520Y-73309480D03*
X197327520Y-73309480D03*
X184627520Y-73309480D03*
X182087520Y-73309480D03*
X179547520Y-73309480D03*
X177007520Y-73309480D03*
X174467520Y-73309480D03*
X197327520Y-70769480D03*
X194787520Y-70769480D03*
X192247520Y-70769480D03*
X189707520Y-70769480D03*
X187167520Y-70769480D03*
X184627520Y-70769480D03*
X182087520Y-70769480D03*
X179547520Y-70769480D03*
X177007520Y-70769480D03*
X174467520Y-70769480D03*
X199867520Y-70769480D03*
X199867520Y-73309480D03*
X199867520Y-75849480D03*
X199867520Y-78389480D03*
X199867520Y-80929480D03*
X199867520Y-83469480D03*
X199867520Y-86009480D03*
X199867520Y-88549480D03*
X199867520Y-91089480D03*
X199867520Y-93629480D03*
X199867520Y-96169480D03*
X199867520Y-98709480D03*
X199867520Y-101249480D03*
X199867520Y-103789480D03*
X199867520Y-106329480D03*
X199867520Y-108869480D03*
X199867520Y-111409480D03*
X199867520Y-113949480D03*
X199867520Y-116489480D03*
X199867520Y-119029480D03*
X202407520Y-70769480D03*
X202407520Y-73309480D03*
X202407520Y-75849480D03*
X202407520Y-78389480D03*
X202407520Y-80929480D03*
X202407520Y-83469480D03*
X202407520Y-86009480D03*
X202407520Y-88549480D03*
X202407520Y-91089480D03*
X202407520Y-93629480D03*
X202407520Y-96169480D03*
X202407520Y-98709480D03*
X202407520Y-101249480D03*
X202407520Y-103789480D03*
X202407520Y-106329480D03*
X202407520Y-108869480D03*
X202407520Y-111409480D03*
X202407520Y-113949480D03*
X202407520Y-116489480D03*
X202407520Y-119029480D03*
X171927520Y-70769480D03*
X171927520Y-73309480D03*
X171927520Y-75849480D03*
X171927520Y-78389480D03*
X171927520Y-80929480D03*
X171927520Y-83469480D03*
X171927520Y-86009480D03*
X171927520Y-88549480D03*
X171927520Y-91089480D03*
X171927520Y-93629480D03*
X171927520Y-96169480D03*
X171927520Y-98709480D03*
X171927520Y-101249480D03*
X171927520Y-103789480D03*
X171927520Y-106329480D03*
X171927520Y-108869480D03*
X171927520Y-111409480D03*
X171927520Y-113949480D03*
X171927520Y-116489480D03*
X171927520Y-119029480D03*
X169387520Y-119029480D03*
X169387520Y-116489480D03*
X169387520Y-113949480D03*
X169387520Y-111409480D03*
X169387520Y-108869480D03*
X169387520Y-106329480D03*
X169387520Y-103789480D03*
X169387520Y-101249480D03*
X169387520Y-98709480D03*
X169387520Y-96169480D03*
X169387520Y-93629480D03*
X169387520Y-91089480D03*
X169387520Y-88549480D03*
X169387520Y-86009480D03*
X169387520Y-83469480D03*
X169387520Y-80929480D03*
X169387520Y-78389480D03*
X169387520Y-75849480D03*
X169387520Y-73309480D03*
X169387520Y-70769480D03*
D14*
X159862520Y-106329480D03*
X162402520Y-106329480D03*
X164942520Y-106329480D03*
D12*
X142717520Y-119029480D03*
D13*
X145257520Y-116489480D03*
X142717520Y-116489480D03*
X145257520Y-113949480D03*
X142717520Y-113949480D03*
X145257520Y-111409480D03*
X142717520Y-111409480D03*
X145257520Y-108869480D03*
X142717520Y-108869480D03*
X145257520Y-106329480D03*
X142717520Y-106329480D03*
X145257520Y-103789480D03*
X142717520Y-103789480D03*
X145257520Y-101249480D03*
X142717520Y-101249480D03*
X145257520Y-98709480D03*
X142717520Y-98709480D03*
X145257520Y-96169480D03*
X142717520Y-96169480D03*
D15*
X145257520Y-119029480D03*
X195422520Y-86009480D03*
X195422520Y-88549480D03*
X176372520Y-86009480D03*
X176372520Y-88549480D03*
X176372520Y-93629480D03*
X176372520Y-98709480D03*
X176372520Y-113949480D03*
X176372520Y-116489480D03*
X176372520Y-119029480D03*
X195422520Y-119029480D03*
X195422520Y-116489480D03*
X195422520Y-113949480D03*
D14*
X159862520Y-72039480D03*
X162402520Y-72039480D03*
X164942520Y-72039480D03*
D16*
X162402520Y-100614480D03*
X164942520Y-100614480D03*
X159862520Y-100614480D03*
D12*
X214472520Y-102519480D03*
D13*
X214472520Y-105059480D03*
X214472520Y-107599480D03*
X214472520Y-110139480D03*
D12*
X142717520Y-72039480D03*
D13*
X142717520Y-74579480D03*
X142717520Y-77119480D03*
X142717520Y-79659480D03*
D12*
X205582520Y-98709480D03*
D13*
X205582520Y-96169480D03*
X205582520Y-93629480D03*
X205582520Y-91089480D03*
D12*
X171292520Y-66959480D03*
D13*
X171292520Y-64419480D03*
X173832520Y-66959480D03*
X173832520Y-64419480D03*
X176372520Y-66959480D03*
X176372520Y-64419480D03*
X178912520Y-66959480D03*
X178912520Y-64419480D03*
X181452520Y-66959480D03*
X181452520Y-64419480D03*
D12*
X184627520Y-66959480D03*
D13*
X184627520Y-64419480D03*
X187167520Y-66959480D03*
X187167520Y-64419480D03*
X189707520Y-66959480D03*
X189707520Y-64419480D03*
X192247520Y-66959480D03*
X192247520Y-64419480D03*
X194787520Y-66959480D03*
X194787520Y-64419480D03*
D16*
X162402520Y-112044480D03*
X164942520Y-112044480D03*
X159862520Y-112044480D03*
D17*
X215107520Y-116719480D03*
X215107520Y-113719480D03*
D18*
X224227520Y-107599480D03*
X221227520Y-107599480D03*
X224227520Y-110139480D03*
X221227520Y-110139480D03*
X224227520Y-112679480D03*
X221227520Y-112679480D03*
D17*
X212567520Y-116719480D03*
X212567520Y-113719480D03*
X210027520Y-116719480D03*
X210027520Y-113719480D03*
D18*
X148027520Y-77119480D03*
X145027520Y-77119480D03*
X148027520Y-74579480D03*
X145027520Y-74579480D03*
D17*
X208757520Y-75444480D03*
X208757520Y-72444480D03*
D18*
X192477520Y-84104480D03*
X189477520Y-84104480D03*
D17*
X208122520Y-90859480D03*
X208122520Y-93859480D03*
D19*
X208502520Y-88549480D03*
X205202520Y-88549480D03*
D20*
X201952520Y-64419480D03*
X199052520Y-64419480D03*
X201952520Y-66959480D03*
X199052520Y-66959480D03*
D21*
X178912520Y-107779480D03*
X178912520Y-104879480D03*
D20*
X183177520Y-101884480D03*
X186077520Y-101884480D03*
X196237520Y-108869480D03*
X193337520Y-108869480D03*
D21*
X188437520Y-90274480D03*
X188437520Y-93174480D03*
X183357520Y-90274480D03*
X183357520Y-93174480D03*
X143352520Y-90634480D03*
X143352520Y-87734480D03*
X143352520Y-85554480D03*
X143352520Y-82654480D03*
D16*
X162402520Y-77754480D03*
X164942520Y-77754480D03*
X159862520Y-77754480D03*
X162402520Y-89184480D03*
X164942520Y-89184480D03*
X159862520Y-89184480D03*
D12*
X147797520Y-68864480D03*
D13*
X150337520Y-68864480D03*
X152877520Y-68864480D03*
D12*
X205582520Y-106329480D03*
D13*
X205582520Y-103789480D03*
D12*
X210662520Y-98709480D03*
D13*
X210662520Y-96169480D03*
X210662520Y-93629480D03*
X210662520Y-91089480D03*
D12*
X150972520Y-108869480D03*
D13*
X148432520Y-108869480D03*
X150972520Y-106329480D03*
X148432520Y-106329480D03*
X150972520Y-103789480D03*
X148432520Y-103789480D03*
X150972520Y-101249480D03*
X148432520Y-101249480D03*
X150972520Y-98709480D03*
X148432520Y-98709480D03*
D12*
X205582520Y-111409480D03*
D13*
X205582520Y-113949480D03*
D12*
X179547520Y-81564480D03*
D13*
X182087520Y-81564480D03*
X184627520Y-81564480D03*
X187167520Y-81564480D03*
X189707520Y-81564480D03*
X192247520Y-81564480D03*
D12*
X179547520Y-77754480D03*
D13*
X182087520Y-77754480D03*
X184627520Y-77754480D03*
X187167520Y-77754480D03*
X189707520Y-77754480D03*
X192247520Y-77754480D03*
D12*
X205582520Y-64419480D03*
D13*
X205582520Y-66959480D03*
X205582520Y-69499480D03*
X205582520Y-72039480D03*
X205582520Y-74579480D03*
D12*
X165577520Y-116489480D03*
D13*
X165577520Y-119029480D03*
X163037520Y-116489480D03*
X163037520Y-119029480D03*
X160497520Y-116489480D03*
X160497520Y-119029480D03*
D12*
X150337520Y-72039480D03*
D13*
X150337520Y-74579480D03*
X150337520Y-77119480D03*
X150337520Y-79659480D03*
D12*
X213202520Y-64419480D03*
D13*
X210662520Y-64419480D03*
D12*
X208757520Y-70134480D03*
D13*
X208757520Y-67594480D03*
D12*
X226537520Y-112679480D03*
D13*
X226537520Y-110139480D03*
X226537520Y-107599480D03*
X226537520Y-105059480D03*
D12*
X226537520Y-87279480D03*
D13*
X226537520Y-84739480D03*
X226537520Y-82199480D03*
D22*
X225902520Y-74579480D03*
X225902520Y-77119480D03*
X225902520Y-72039480D03*
D12*
X210027520Y-119029480D03*
D13*
X212567520Y-119029480D03*
X215107520Y-119029480D03*
X217647520Y-119029480D03*
X226537520Y-91152980D03*
X226537520Y-93692980D03*
X226537520Y-96232980D03*
X226537520Y-98772980D03*
X213202520Y-91102180D03*
X213202520Y-93642180D03*
X213202520Y-96182180D03*
X213202520Y-98722180D03*
X213202520Y-98722180D03*
X213202520Y-96182180D03*
X213202520Y-93642180D03*
X213202520Y-91102180D03*
D23*
X211932520Y-67214480D03*
X211932520Y-70514480D03*
D24*
X183149240Y-103792020D03*
X183149240Y-105062020D03*
X183149240Y-106332020D03*
X183149240Y-107599480D03*
X183149240Y-108866940D03*
X183149240Y-110136940D03*
X183149240Y-111406940D03*
X188645800Y-111406940D03*
X188645800Y-110136940D03*
X188645800Y-108866940D03*
X188645800Y-107599480D03*
X188645800Y-106332020D03*
X188645800Y-105062020D03*
X188645800Y-103792020D03*
X146954240Y-86012020D03*
X146954240Y-87282020D03*
X146954240Y-88552020D03*
X146954240Y-89819480D03*
X146954240Y-91086940D03*
X146954240Y-92356940D03*
X146954240Y-93626940D03*
X152450800Y-93626940D03*
X152450800Y-92356940D03*
X152450800Y-91086940D03*
X152450800Y-89819480D03*
X152450800Y-88552020D03*
X152450800Y-87282020D03*
X152450800Y-86012020D03*
D20*
X177187520Y-111409480D03*
X174287520Y-111409480D03*
D12*
X213202520Y-86009480D03*
D13*
X213202520Y-83469480D03*
X215742520Y-86009480D03*
X215742520Y-83469480D03*
X218282520Y-86009480D03*
X218282520Y-83469480D03*
X220822520Y-86009480D03*
X220822520Y-83469480D03*
D25*
X215582520Y-67594480D03*
X220982520Y-67594480D03*
D14*
X159862520Y-83469480D03*
X162402520Y-83469480D03*
X164942520Y-83469480D03*
X159862520Y-94899480D03*
X162402520Y-94899480D03*
X164942520Y-94899480D03*
D17*
X176372520Y-107829480D03*
X176372520Y-104829480D03*
D26*
X220187520Y-74419480D03*
X220187520Y-79819480D03*
X213202520Y-74419480D03*
X213202520Y-79819480D03*
D27*
X143352520Y-84104480D03*
X206217520Y-108869480D03*
X197327520Y-64038480D03*
X222727520Y-113060480D03*
X222727520Y-110139480D03*
X208503520Y-113695480D03*
X221203520Y-106075480D03*
X218917520Y-65054480D03*
X221457520Y-65689480D03*
X218409520Y-76738480D03*
X218536520Y-79786480D03*
X214853520Y-76738480D03*
X214853520Y-79659480D03*
X223362520Y-92359480D03*
X223362520Y-97566480D03*
X176372520Y-103154480D03*
X180817520Y-103789480D03*
X154147520Y-89819480D03*
X180820060Y-111406940D03*
X145130520Y-90327480D03*
X152750520Y-95661480D03*
X148813520Y-94010480D03*
X148813520Y-90327480D03*
X154782520Y-103789480D03*
X182087520Y-119029480D03*
X219552520Y-96169480D03*
X218409520Y-73690480D03*
X157957520Y-119029480D03*
X157957520Y-113568480D03*
X190342520Y-103789480D03*
X180817520Y-107599480D03*
X167609520Y-106837480D03*
X154401520Y-86644480D03*
X154401520Y-93629480D03*
X174213520Y-82072480D03*
X147289520Y-83469480D03*
X148178520Y-83469480D03*
X144495520Y-93629480D03*
X190977520Y-74579480D03*
X193517520Y-74579480D03*
X190342520Y-99979480D03*
X207487520Y-120299480D03*
X206090520Y-120045480D03*
X204439520Y-117759480D03*
X225140520Y-102265480D03*
X224378520Y-101503480D03*
X190342520Y-111409480D03*
X192882520Y-90454480D03*
X154655520Y-72420480D03*
X175356520Y-80802480D03*
X151734520Y-81437480D03*
X150591520Y-96423480D03*
X173832520Y-79659480D03*
X173832520Y-77627480D03*
X173832520Y-80802480D03*
X168117520Y-99979480D03*
X179547520Y-97439480D03*
X148686520Y-72928480D03*
X152750520Y-72166480D03*
X218409520Y-112425480D03*
X197962520Y-91089480D03*
X197962520Y-103789480D03*
X185262520Y-108869480D03*
X190342520Y-105059480D03*
X179547520Y-91724480D03*
X197327520Y-65181480D03*
X217647520Y-113060480D03*
X166212520Y-102011480D03*
X152877520Y-102011480D03*
X168117520Y-87279480D03*
X166847520Y-112044480D03*
X147289520Y-113822480D03*
X204566520Y-92359480D03*
X168117520Y-105440480D03*
X208122520Y-118902480D03*
X208122520Y-116997480D03*
X217139520Y-114076480D03*
X223362520Y-105059480D03*
X155036520Y-97820480D03*
X154401520Y-92740480D03*
X156433520Y-90708480D03*
X217139520Y-88549480D03*
X195422520Y-83469480D03*
X197327520Y-66959480D03*
X180817520Y-105059480D03*
X180817520Y-110139480D03*
X191612520Y-108869480D03*
X188437520Y-97439480D03*
X188437520Y-94899480D03*
X152877520Y-99979480D03*
X157957520Y-99979480D03*
X152750520Y-78389480D03*
X142717520Y-94264480D03*
X155036520Y-95661480D03*
X155417520Y-73309480D03*
X157322520Y-76738480D03*
X144241520Y-89057480D03*
X161132520Y-80040480D03*
X146400520Y-83469480D03*
X149067520Y-83469480D03*
X155671520Y-83469480D03*
X145257520Y-92359480D03*
X154401520Y-91724480D03*
X155417520Y-88549480D03*
X205582520Y-101757480D03*
X197962520Y-105059480D03*
X197962520Y-108869480D03*
X158592520Y-75214480D03*
X158592520Y-87025480D03*
X155671520Y-94899480D03*
X155417520Y-108869480D03*
X222473520Y-83469480D03*
X214853520Y-65816480D03*
X222854520Y-79532480D03*
X214853520Y-73690480D03*
D28*
X143352520Y-82654480D02*
X143352520Y-84104480D01*
X221227520Y-112679480D02*
X222346520Y-112679480D01*
X222346520Y-112679480D02*
X222727520Y-113060480D01*
X221227520Y-110139480D02*
X222727520Y-110139480D01*
X210027520Y-113719480D02*
X208527520Y-113719480D01*
X208527520Y-113719480D02*
X208503520Y-113695480D01*
X210027520Y-113719480D02*
X209876520Y-113568480D01*
X221227520Y-107599480D02*
X221227520Y-106099480D01*
X221227520Y-106099480D02*
X221203520Y-106075480D01*
D29*
X220982520Y-67594480D02*
X220982520Y-66164480D01*
X220982520Y-66164480D02*
X221457520Y-65689480D01*
X220187520Y-79819480D02*
X220154520Y-79786480D01*
X220154520Y-79786480D02*
X218536520Y-79786480D01*
X213202520Y-79819480D02*
X213362520Y-79659480D01*
X213362520Y-79659480D02*
X214853520Y-79659480D01*
D28*
X221227520Y-107599480D02*
X221227520Y-110139480D01*
X208122520Y-90859480D02*
X210432520Y-90859480D01*
X210432520Y-90859480D02*
X210662520Y-91089480D01*
X212567520Y-113719480D02*
X215107520Y-113719480D01*
X210027520Y-113719480D02*
X212567520Y-113719480D01*
D29*
X208757520Y-75444480D02*
X207717520Y-75444480D01*
X206852520Y-74579480D02*
X205582520Y-74579480D01*
X207717520Y-75444480D02*
X206852520Y-74579480D01*
X179801520Y-68610480D02*
X172943520Y-68610480D01*
X171927520Y-69626480D02*
X171927520Y-70769480D01*
X172943520Y-68610480D02*
X171927520Y-69626480D01*
D28*
X176372520Y-103154480D02*
X180182520Y-103154480D01*
X176372520Y-104829480D02*
X176372520Y-103154480D01*
X180820060Y-103792020D02*
X180817520Y-103789480D01*
X180820060Y-103792020D02*
X183149240Y-103792020D01*
X180182520Y-103154480D02*
X180817520Y-103789480D01*
D29*
X179801520Y-68610480D02*
X181452520Y-66959480D01*
X169387520Y-70769480D02*
X171927520Y-70769480D01*
D28*
X152450800Y-89819480D02*
X154147520Y-89819480D01*
X183149240Y-111406940D02*
X180820060Y-111406940D01*
X183177520Y-101884480D02*
X183177520Y-103763740D01*
X183177520Y-103763740D02*
X183149240Y-103792020D01*
D29*
X192477520Y-84104480D02*
X192477520Y-81794480D01*
X192477520Y-81794480D02*
X192247520Y-81564480D01*
D30*
X210472020Y-113758980D02*
X210027520Y-113314480D01*
D29*
X226537520Y-82199480D02*
X228188520Y-83850480D01*
X228188520Y-94581980D02*
X226537520Y-96232980D01*
X228188520Y-83850480D02*
X228188520Y-94581980D01*
D28*
X145638520Y-89819480D02*
X146954240Y-89819480D01*
X145130520Y-90327480D02*
X145638520Y-89819480D01*
X151988520Y-94899480D02*
X151734520Y-94899480D01*
X152750520Y-95661480D02*
X151988520Y-94899480D01*
X148813520Y-94010480D02*
X150845520Y-94010480D01*
X148305520Y-89819480D02*
X148813520Y-90327480D01*
X146954240Y-89819480D02*
X148305520Y-89819480D01*
X150845520Y-94010480D02*
X151734520Y-94899480D01*
X154782520Y-103789480D02*
X150972520Y-103789480D01*
D29*
X190342520Y-119029480D02*
X182087520Y-119029480D01*
X182087520Y-119029480D02*
X176372520Y-119029480D01*
X219552520Y-96169480D02*
X219552520Y-96182180D01*
X225902520Y-77119480D02*
X225902520Y-79532480D01*
X225902520Y-79532480D02*
X226537520Y-80167480D01*
X226537520Y-80167480D02*
X226537520Y-82199480D01*
X208757520Y-72444480D02*
X211019520Y-72444480D01*
X216504520Y-71785480D02*
X218409520Y-73690480D01*
X211678520Y-71785480D02*
X216504520Y-71785480D01*
X211019520Y-72444480D02*
X211678520Y-71785480D01*
X220187520Y-74419480D02*
X221805520Y-74419480D01*
X224505520Y-77119480D02*
X225902520Y-77119480D01*
X221805520Y-74419480D02*
X224505520Y-77119480D01*
X219138520Y-74419480D02*
X220187520Y-74419480D01*
X218409520Y-73690480D02*
X219138520Y-74419480D01*
X213202520Y-96182180D02*
X219552520Y-96182180D01*
X219552520Y-96182180D02*
X224759520Y-96182180D01*
X224759520Y-96182180D02*
X226486720Y-96182180D01*
X226486720Y-96182180D02*
X226537520Y-96232980D01*
D28*
X208122520Y-93859480D02*
X210432520Y-93859480D01*
X210432520Y-93859480D02*
X210662520Y-93629480D01*
D29*
X208757520Y-72444480D02*
X207257520Y-72444480D01*
X206852520Y-72039480D02*
X205582520Y-72039480D01*
X207257520Y-72444480D02*
X206852520Y-72039480D01*
D28*
X157957520Y-119029480D02*
X157957520Y-113568480D01*
X163291520Y-113314480D02*
X163672520Y-113314480D01*
X157957520Y-113568480D02*
X158592520Y-113568480D01*
X158846520Y-113314480D02*
X158592520Y-113568480D01*
X163291520Y-113314480D02*
X158846520Y-113314480D01*
X163672520Y-113314480D02*
X164942520Y-112044480D01*
X164561520Y-112044480D02*
X164942520Y-112044480D01*
D29*
X174467520Y-73309480D02*
X174467520Y-75849480D01*
X177007520Y-79659480D02*
X189072520Y-79659480D01*
X175483520Y-78135480D02*
X177007520Y-79659480D01*
X175483520Y-76865480D02*
X175483520Y-78135480D01*
X174467520Y-75849480D02*
X175483520Y-76865480D01*
X189707520Y-80294480D02*
X189707520Y-81564480D01*
X189072520Y-79659480D02*
X189707520Y-80294480D01*
D28*
X190339980Y-103792020D02*
X188645800Y-103792020D01*
X190342520Y-103789480D02*
X190339980Y-103792020D01*
X180817520Y-107599480D02*
X183149240Y-107599480D01*
X178912520Y-107779480D02*
X176422520Y-107779480D01*
X176422520Y-107779480D02*
X176372520Y-107829480D01*
X179092520Y-107599480D02*
X180817520Y-107599480D01*
X179092520Y-107599480D02*
X178912520Y-107779480D01*
D29*
X195422520Y-119029480D02*
X190342520Y-119029480D01*
X199867520Y-119029480D02*
X202407520Y-119029480D01*
X195422520Y-119029480D02*
X199867520Y-119029480D01*
X189477520Y-84104480D02*
X189477520Y-83064480D01*
X189707520Y-82834480D02*
X189707520Y-81564480D01*
X189477520Y-83064480D02*
X189707520Y-82834480D01*
X165577520Y-119029480D02*
X169387520Y-119029480D01*
D30*
X165450520Y-106837480D02*
X166847520Y-106837480D01*
X166847520Y-106837480D02*
X167609520Y-106837480D01*
X164942520Y-106329480D02*
X165450520Y-106837480D01*
X162402520Y-106329480D02*
X164942520Y-106329480D01*
X165958520Y-87787480D02*
X155544520Y-87787480D01*
X155544520Y-87787480D02*
X154401520Y-86644480D01*
X153639520Y-86012020D02*
X153639520Y-86009480D01*
X153769060Y-86012020D02*
X154401520Y-86644480D01*
X153769060Y-86012020D02*
X153642060Y-86012020D01*
X153642060Y-86012020D02*
X153639520Y-86009480D01*
X169387520Y-88549480D02*
X166720520Y-88549480D01*
X166720520Y-88549480D02*
X165958520Y-87787480D01*
X152450800Y-86012020D02*
X153639520Y-86012020D01*
X173261020Y-87977980D02*
X173261020Y-89247980D01*
X166085520Y-91978480D02*
X166085520Y-93756480D01*
X168244520Y-89819480D02*
X166085520Y-91978480D01*
X172689520Y-89819480D02*
X168244520Y-89819480D01*
X173261020Y-89247980D02*
X172689520Y-89819480D01*
X154401520Y-93629480D02*
X154401520Y-93626940D01*
X169387520Y-86009480D02*
X170022520Y-86009480D01*
X170022520Y-86009480D02*
X171292520Y-87279480D01*
X171292520Y-87279480D02*
X172562520Y-87279480D01*
X166085520Y-93756480D02*
X164942520Y-94899480D01*
X172562520Y-87279480D02*
X173261020Y-87977980D01*
X155417520Y-93629480D02*
X161132520Y-93629480D01*
X161132520Y-93629480D02*
X162402520Y-94899480D01*
X155414980Y-93626940D02*
X154401520Y-93626940D01*
X155417520Y-93629480D02*
X155414980Y-93626940D01*
X154401520Y-93626940D02*
X152450800Y-93626940D01*
X162402520Y-94899480D02*
X164942520Y-94899480D01*
X173451520Y-83850480D02*
X172562520Y-84739480D01*
X173451520Y-82834480D02*
X173451520Y-83850480D01*
X174213520Y-82072480D02*
X173451520Y-82834480D01*
X169387520Y-83469480D02*
X170022520Y-83469480D01*
X170022520Y-83469480D02*
X171292520Y-84739480D01*
X171292520Y-84739480D02*
X172562520Y-84739480D01*
X162402520Y-72039480D02*
X164942520Y-72039480D01*
X147289520Y-82961480D02*
X148051520Y-82199480D01*
X148051520Y-82199480D02*
X148432520Y-82199480D01*
X157195520Y-81564480D02*
X156687520Y-81564480D01*
X171927520Y-83469480D02*
X170657520Y-82199480D01*
X170657520Y-82199480D02*
X168117520Y-82199480D01*
X157195520Y-81564480D02*
X167482520Y-81564480D01*
X167482520Y-81564480D02*
X168117520Y-82199480D01*
X156687520Y-81564480D02*
X156052520Y-82199480D01*
X156052520Y-82199480D02*
X148432520Y-82199480D01*
X147289520Y-83469480D02*
X147289520Y-82961480D01*
X146954240Y-86012020D02*
X146954240Y-83804760D01*
X146954240Y-83804760D02*
X147289520Y-83469480D01*
X158973520Y-82199480D02*
X157449520Y-82199480D01*
X148178520Y-83469480D02*
X148178520Y-83088480D01*
X161132520Y-82199480D02*
X162402520Y-83469480D01*
X161132520Y-82199480D02*
X158973520Y-82199480D01*
X157449520Y-82199480D02*
X156941520Y-82707480D01*
X156941520Y-82707480D02*
X148559520Y-82707480D01*
X148559520Y-82707480D02*
X148178520Y-83088480D01*
X144495520Y-93629480D02*
X145257520Y-93629480D01*
X145260060Y-93626940D02*
X146954240Y-93626940D01*
X145257520Y-93629480D02*
X145260060Y-93626940D01*
X170022520Y-84739480D02*
X171292520Y-86009480D01*
X171292520Y-86009480D02*
X171927520Y-86009480D01*
X164942520Y-83469480D02*
X166847520Y-83469480D01*
X168117520Y-84739480D02*
X170022520Y-84739480D01*
X166847520Y-83469480D02*
X168117520Y-84739480D01*
X162402520Y-83469480D02*
X164942520Y-83469480D01*
X187167520Y-73309480D02*
X185897520Y-72039480D01*
X185897520Y-68229480D02*
X187167520Y-66959480D01*
X185897520Y-72039480D02*
X185897520Y-68229480D01*
X191739520Y-75341480D02*
X197835520Y-75341480D01*
X197835520Y-75341480D02*
X198343520Y-75849480D01*
X190977520Y-74579480D02*
X191739520Y-75341480D01*
X199867520Y-75849480D02*
X198343520Y-75849480D01*
X202407520Y-75849480D02*
X201137520Y-74579480D01*
X201137520Y-74579480D02*
X193517520Y-74579480D01*
X170657520Y-99979480D02*
X169387520Y-101249480D01*
X190342520Y-99979480D02*
X170657520Y-99979480D01*
X213393020Y-120743980D02*
X207932020Y-120743980D01*
X207932020Y-120743980D02*
X207868520Y-120680480D01*
X213393020Y-120743980D02*
X215107520Y-119029480D01*
X207487520Y-120299480D02*
X207868520Y-120680480D01*
X215107520Y-116719480D02*
X215107520Y-119029480D01*
X206535020Y-119600980D02*
X208059020Y-119600980D01*
X206090520Y-120045480D02*
X206535020Y-119600980D01*
X208122520Y-119664480D02*
X208059020Y-119600980D01*
X211297520Y-120299480D02*
X212567520Y-119029480D01*
X208757520Y-120299480D02*
X211297520Y-120299480D01*
X208757520Y-120299480D02*
X208122520Y-119664480D01*
X212567520Y-116719480D02*
X212567520Y-119029480D01*
D29*
X215582520Y-67594480D02*
X215582520Y-68704480D01*
X223362520Y-69499480D02*
X225902520Y-72039480D01*
X216377520Y-69499480D02*
X223362520Y-69499480D01*
X215582520Y-68704480D02*
X216377520Y-69499480D01*
X211932520Y-67214480D02*
X212822520Y-67214480D01*
X213202520Y-67594480D02*
X215582520Y-67594480D01*
X212822520Y-67214480D02*
X213202520Y-67594480D01*
D30*
X208884520Y-117886480D02*
X210027520Y-119029480D01*
X204566520Y-117886480D02*
X208884520Y-117886480D01*
X204439520Y-117759480D02*
X204566520Y-117886480D01*
X209797520Y-116489480D02*
X210027520Y-116719480D01*
X210027520Y-116719480D02*
X210027520Y-119029480D01*
X223362520Y-101503480D02*
X224124520Y-102265480D01*
X224124520Y-102265480D02*
X225140520Y-102265480D01*
X202407520Y-101249480D02*
X204693520Y-101249480D01*
X222854520Y-100995480D02*
X223362520Y-101503480D01*
X204947520Y-100995480D02*
X222854520Y-100995480D01*
X204693520Y-101249480D02*
X204947520Y-100995480D01*
X224227520Y-107599480D02*
X226537520Y-107599480D01*
X207106520Y-100487480D02*
X210154520Y-100487480D01*
X204058520Y-100487480D02*
X207106520Y-100487480D01*
X203550520Y-99979480D02*
X204058520Y-100487480D01*
X201137520Y-99979480D02*
X203550520Y-99979480D01*
X199867520Y-101249480D02*
X201137520Y-99979480D01*
X223362520Y-100487480D02*
X224378520Y-101503480D01*
X210154520Y-100487480D02*
X223362520Y-100487480D01*
X224227520Y-110139480D02*
X226537520Y-110139480D01*
X208122520Y-110139480D02*
X205074520Y-110139480D01*
X201899520Y-107599480D02*
X200629520Y-106329480D01*
X203169520Y-107599480D02*
X201899520Y-107599480D01*
X203804520Y-108234480D02*
X203169520Y-107599480D01*
X203804520Y-108869480D02*
X203804520Y-108234480D01*
X205074520Y-110139480D02*
X203804520Y-108869480D01*
X200629520Y-106329480D02*
X199867520Y-106329480D01*
X218409520Y-111409480D02*
X209392520Y-111409480D01*
X224227520Y-112679480D02*
X223362520Y-112679480D01*
X223362520Y-112679480D02*
X222664020Y-111980980D01*
X220314520Y-111409480D02*
X218409520Y-111409480D01*
X220314520Y-111409480D02*
X222092520Y-111409480D01*
X222092520Y-111409480D02*
X222664020Y-111980980D01*
X208122520Y-110139480D02*
X209392520Y-111409480D01*
X224100520Y-112806480D02*
X224227520Y-112679480D01*
X224227520Y-112679480D02*
X226537520Y-112679480D01*
X208122520Y-83469480D02*
X206852520Y-82199480D01*
X203677520Y-83469480D02*
X202407520Y-83469480D01*
X204947520Y-82199480D02*
X203677520Y-83469480D01*
X206852520Y-82199480D02*
X204947520Y-82199480D01*
X205582520Y-83469480D02*
X204312520Y-84739480D01*
X201137520Y-84739480D02*
X199867520Y-83469480D01*
X204312520Y-84739480D02*
X201137520Y-84739480D01*
X204947520Y-79659480D02*
X203677520Y-79659480D01*
X203677520Y-79659480D02*
X202407520Y-80929480D01*
X208122520Y-80929480D02*
X206852520Y-79659480D01*
X206852520Y-79659480D02*
X204947520Y-79659480D01*
X203677520Y-82199480D02*
X204312520Y-82199480D01*
X204312520Y-82199480D02*
X205582520Y-80929480D01*
X203677520Y-82199480D02*
X201137520Y-82199480D01*
X201137520Y-82199480D02*
X199867520Y-80929480D01*
X205582520Y-78389480D02*
X204312520Y-78389480D01*
X204312520Y-78389480D02*
X203042520Y-79659480D01*
X201137520Y-79659480D02*
X199867520Y-78389480D01*
X203042520Y-79659480D02*
X201137520Y-79659480D01*
X208122520Y-78389480D02*
X206852520Y-77119480D01*
X203677520Y-77119480D02*
X202407520Y-78389480D01*
X206852520Y-77119480D02*
X203677520Y-77119480D01*
D28*
X174287520Y-111409480D02*
X171927520Y-111409480D01*
D30*
X208502520Y-88549480D02*
X209773520Y-88549480D01*
X214472520Y-84739480D02*
X215742520Y-83469480D01*
X211805520Y-84739480D02*
X214472520Y-84739480D01*
X211043520Y-85501480D02*
X211805520Y-84739480D01*
X211043520Y-87279480D02*
X211043520Y-85501480D01*
X209773520Y-88549480D02*
X211043520Y-87279480D01*
X205202520Y-88549480D02*
X204312520Y-88549480D01*
X201137520Y-87279480D02*
X199867520Y-86009480D01*
X203042520Y-87279480D02*
X201137520Y-87279480D01*
X204312520Y-88549480D02*
X203042520Y-87279480D01*
X190339980Y-111406940D02*
X190342520Y-111409480D01*
X188645800Y-111406940D02*
X190339980Y-111406940D01*
X197327520Y-88549480D02*
X199867520Y-86009480D01*
X192882520Y-90454480D02*
X196057520Y-90454480D01*
X196057520Y-90454480D02*
X197327520Y-89184480D01*
X197327520Y-89184480D02*
X197327520Y-88549480D01*
X160561020Y-70832980D02*
X156243020Y-70832980D01*
X156243020Y-70832980D02*
X154655520Y-72420480D01*
X175356520Y-79278480D02*
X175356520Y-80802480D01*
X174594520Y-78516480D02*
X175356520Y-79278480D01*
X172943520Y-76738480D02*
X174086520Y-76738480D01*
X174594520Y-77246480D02*
X174086520Y-76738480D01*
X162402520Y-75214480D02*
X161132520Y-73944480D01*
X164942520Y-75214480D02*
X162402520Y-75214480D01*
X166847520Y-77119480D02*
X164942520Y-75214480D01*
X172562520Y-77119480D02*
X166847520Y-77119480D01*
X172943520Y-76738480D02*
X172562520Y-77119480D01*
X161132520Y-71404480D02*
X160561020Y-70832980D01*
X161132520Y-73944480D02*
X161132520Y-71404480D01*
X174594520Y-77246480D02*
X174594520Y-78516480D01*
X151734520Y-81437480D02*
X156179520Y-81437480D01*
X167228520Y-81056480D02*
X168625520Y-79659480D01*
X156560520Y-81056480D02*
X167228520Y-81056480D01*
X156179520Y-81437480D02*
X156560520Y-81056480D01*
X150591520Y-96423480D02*
X149702520Y-96423480D01*
X143987520Y-97439480D02*
X142717520Y-98709480D01*
X146019520Y-97439480D02*
X143987520Y-97439480D01*
X147035520Y-96423480D02*
X146019520Y-97439480D01*
X149702520Y-96423480D02*
X147035520Y-96423480D01*
X173832520Y-79659480D02*
X168625520Y-79659480D01*
X166720520Y-98582480D02*
X153258520Y-98582480D01*
X153258520Y-98582480D02*
X151861520Y-99979480D01*
X151861520Y-99979480D02*
X143987520Y-99979480D01*
X143987520Y-99979480D02*
X142717520Y-101249480D01*
X166720520Y-98582480D02*
X168117520Y-99979480D01*
X173832520Y-77627480D02*
X173832520Y-78516480D01*
X174594520Y-79278480D02*
X174658020Y-79278480D01*
X173832520Y-78516480D02*
X174594520Y-79278480D01*
X174658020Y-79976980D02*
X174658020Y-79278480D01*
X173832520Y-80802480D02*
X174658020Y-79976980D01*
X151607520Y-96423480D02*
X152115520Y-96931480D01*
X152115520Y-96931480D02*
X166974520Y-96931480D01*
X150718520Y-95534480D02*
X145892520Y-95534480D01*
X151607520Y-96423480D02*
X150718520Y-95534480D01*
X145892520Y-95534480D02*
X145257520Y-96169480D01*
X167482520Y-97439480D02*
X166974520Y-96931480D01*
X179547520Y-97439480D02*
X167482520Y-97439480D01*
X166593520Y-71277480D02*
X166212520Y-70896480D01*
X178277520Y-72039480D02*
X173832520Y-72039480D01*
X173832520Y-72039480D02*
X173197520Y-72674480D01*
X173197520Y-72674480D02*
X173197520Y-73817480D01*
X173197520Y-73817480D02*
X172435520Y-74579480D01*
X172435520Y-74579480D02*
X168371520Y-74579480D01*
X168371520Y-74579480D02*
X166593520Y-72801480D01*
X166593520Y-72801480D02*
X166593520Y-71277480D01*
X179547520Y-70769480D02*
X178277520Y-72039480D01*
X165704520Y-70388480D02*
X166212520Y-70896480D01*
X155544520Y-70388480D02*
X165704520Y-70388480D01*
X148686520Y-72928480D02*
X149067520Y-73309480D01*
X149067520Y-73309480D02*
X152623520Y-73309480D01*
X152623520Y-73309480D02*
X155544520Y-70388480D01*
X166212520Y-69880480D02*
X155036520Y-69880480D01*
X155036520Y-69880480D02*
X152750520Y-72166480D01*
X168371520Y-72039480D02*
X166212520Y-69880480D01*
X177007520Y-70769480D02*
X175737520Y-69499480D01*
X173197520Y-71404480D02*
X172562520Y-72039480D01*
X173197520Y-70261480D02*
X173197520Y-71404480D01*
X173959520Y-69499480D02*
X173197520Y-70261480D01*
X175737520Y-69499480D02*
X173959520Y-69499480D01*
X172562520Y-72039480D02*
X168371520Y-72039480D01*
X192247520Y-91724480D02*
X195422520Y-91724480D01*
X199867520Y-88549480D02*
X198597520Y-88549480D01*
X192247520Y-91724480D02*
X190797520Y-90274480D01*
X198597520Y-88549480D02*
X195422520Y-91724480D01*
X188437520Y-90274480D02*
X190797520Y-90274480D01*
X205582520Y-96169480D02*
X210662520Y-96169480D01*
X205582520Y-96169480D02*
X204312520Y-97439480D01*
X201137520Y-97439480D02*
X199867520Y-98709480D01*
X204312520Y-97439480D02*
X201137520Y-97439480D01*
X216885520Y-112044480D02*
X218028520Y-112044480D01*
X218028520Y-112044480D02*
X218409520Y-112425480D01*
X207995520Y-112044480D02*
X207487520Y-112044480D01*
X204312520Y-113949480D02*
X203042520Y-115219480D01*
X204312520Y-113314480D02*
X204312520Y-113949480D01*
X204947520Y-112679480D02*
X204312520Y-113314480D01*
X206852520Y-112679480D02*
X204947520Y-112679480D01*
X207487520Y-112044480D02*
X206852520Y-112679480D01*
X199867520Y-113949480D02*
X199994520Y-113949480D01*
X199994520Y-113949480D02*
X201264520Y-115219480D01*
X201264520Y-115219480D02*
X203042520Y-115219480D01*
X208757520Y-112044480D02*
X207995520Y-112044480D01*
X211805520Y-112044480D02*
X216885520Y-112044480D01*
X211805520Y-112044480D02*
X208757520Y-112044480D01*
X183357520Y-90274480D02*
X183357520Y-89184480D01*
X200502520Y-84739480D02*
X201772520Y-86009480D01*
X198597520Y-84739480D02*
X200502520Y-84739480D01*
X197962520Y-85374480D02*
X198597520Y-84739480D01*
X197962520Y-86009480D02*
X197962520Y-85374480D01*
X196692520Y-87279480D02*
X197962520Y-86009480D01*
X194152520Y-87279480D02*
X196692520Y-87279480D01*
X192882520Y-88549480D02*
X194152520Y-87279480D01*
X183992520Y-88549480D02*
X192882520Y-88549480D01*
X183357520Y-89184480D02*
X183992520Y-88549480D01*
X201772520Y-86009480D02*
X202407520Y-86009480D01*
X196692520Y-105059480D02*
X197962520Y-103789480D01*
X190342520Y-105059480D02*
X196692520Y-105059480D01*
X201137520Y-89819480D02*
X202407520Y-88549480D01*
X199232520Y-89819480D02*
X201137520Y-89819480D01*
X197962520Y-91089480D02*
X199232520Y-89819480D01*
X185259980Y-108866940D02*
X185262520Y-108869480D01*
X183149240Y-108866940D02*
X185259980Y-108866940D01*
X190339980Y-105062020D02*
X188645800Y-105062020D01*
X190342520Y-105059480D02*
X190339980Y-105062020D01*
X179547520Y-91724480D02*
X190342520Y-91724480D01*
X202407520Y-91089480D02*
X201772520Y-91089480D01*
X201772520Y-91089480D02*
X200502520Y-92359480D01*
X190977520Y-92359480D02*
X190342520Y-91724480D01*
X200502520Y-92359480D02*
X190977520Y-92359480D01*
X199052520Y-64419480D02*
X198089520Y-64419480D01*
X198089520Y-64419480D02*
X197327520Y-65181480D01*
X205582520Y-98709480D02*
X210662520Y-98709480D01*
X205582520Y-98709480D02*
X202407520Y-98709480D01*
X188645800Y-107599480D02*
X201137520Y-107599480D01*
X201137520Y-107599480D02*
X202407520Y-108869480D01*
X205328520Y-116489480D02*
X205963520Y-116489480D01*
X207741520Y-114711480D02*
X207741520Y-113060480D01*
X205963520Y-116489480D02*
X207741520Y-114711480D01*
X202407520Y-116489480D02*
X205328520Y-116489480D01*
X215869520Y-112679480D02*
X217266520Y-112679480D01*
X207741520Y-113060480D02*
X208122520Y-112679480D01*
X208122520Y-112679480D02*
X215869520Y-112679480D01*
X217266520Y-112679480D02*
X217647520Y-113060480D01*
X155925520Y-102011480D02*
X152877520Y-102011480D01*
X166212520Y-102011480D02*
X155925520Y-102011480D01*
X170022520Y-87279480D02*
X168117520Y-87279480D01*
X171292520Y-88549480D02*
X170022520Y-87279480D01*
X171927520Y-88549480D02*
X171292520Y-88549480D01*
X157449520Y-112806480D02*
X159608520Y-110647480D01*
X157449520Y-112806480D02*
X148686520Y-112806480D01*
X148686520Y-112806480D02*
X148305520Y-112806480D01*
X148305520Y-112806480D02*
X147289520Y-113822480D01*
X159608520Y-110647480D02*
X165450520Y-110647480D01*
X165450520Y-110647480D02*
X166847520Y-112044480D01*
X167863520Y-102773480D02*
X151734520Y-102773480D01*
X151734520Y-102773480D02*
X151480520Y-102519480D01*
X151480520Y-102519480D02*
X143987520Y-102519480D01*
X143987520Y-102519480D02*
X142717520Y-103789480D01*
X168117520Y-102519480D02*
X167863520Y-102773480D01*
X170657520Y-102519480D02*
X168117520Y-102519480D01*
X171927520Y-101249480D02*
X170657520Y-102519480D01*
X167228520Y-104424480D02*
X168244520Y-104424480D01*
X168244520Y-104424480D02*
X168879520Y-105059480D01*
X156433520Y-107345480D02*
X159354520Y-104424480D01*
X154909520Y-107345480D02*
X156433520Y-107345480D01*
X154655520Y-107599480D02*
X154909520Y-107345480D01*
X167228520Y-104424480D02*
X159354520Y-104424480D01*
X154655520Y-107599480D02*
X143987520Y-107599480D01*
X143987520Y-107599480D02*
X142717520Y-106329480D01*
X170657520Y-105059480D02*
X168879520Y-105059480D01*
X171927520Y-103789480D02*
X170657520Y-105059480D01*
X143987520Y-110139480D02*
X142717520Y-108869480D01*
X145892520Y-110139480D02*
X143987520Y-110139480D01*
X146718020Y-110964980D02*
X145892520Y-110139480D01*
X156497020Y-110964980D02*
X146718020Y-110964980D01*
X168117520Y-108234480D02*
X168752520Y-107599480D01*
X171927520Y-106329480D02*
X170657520Y-107599480D01*
X170657520Y-107599480D02*
X168752520Y-107599480D01*
X159227520Y-108234480D02*
X156497020Y-110964980D01*
X159227520Y-108234480D02*
X168117520Y-108234480D01*
X159354520Y-109504480D02*
X158719520Y-110139480D01*
X167609520Y-109504480D02*
X159354520Y-109504480D01*
X158719520Y-110139480D02*
X157005020Y-111853980D01*
X146718020Y-111853980D02*
X145892520Y-112679480D01*
X157005020Y-111853980D02*
X146718020Y-111853980D01*
X143987520Y-112679480D02*
X142717520Y-111409480D01*
X145892520Y-112679480D02*
X143987520Y-112679480D01*
X168244520Y-110139480D02*
X167609520Y-109504480D01*
X171927520Y-108869480D02*
X170657520Y-110139480D01*
X170657520Y-110139480D02*
X168244520Y-110139480D01*
X162021520Y-114965480D02*
X160497520Y-116489480D01*
X162656520Y-114965480D02*
X162021520Y-114965480D01*
X163545520Y-114076480D02*
X162656520Y-114965480D01*
X163799520Y-114076480D02*
X163545520Y-114076480D01*
X167101520Y-114076480D02*
X163799520Y-114076480D01*
X168498520Y-112679480D02*
X167101520Y-114076480D01*
X168498520Y-112679480D02*
X170657520Y-112679480D01*
X170657520Y-112679480D02*
X171927520Y-113949480D01*
X167609520Y-114584480D02*
X163926520Y-114584480D01*
X163926520Y-114584480D02*
X163037520Y-115473480D01*
X163037520Y-115473480D02*
X163037520Y-116489480D01*
X168625520Y-115219480D02*
X168244520Y-115219480D01*
X168244520Y-115219480D02*
X167609520Y-114584480D01*
X170657520Y-115219480D02*
X168625520Y-115219480D01*
X170657520Y-115219480D02*
X171927520Y-116489480D01*
X165577520Y-116489480D02*
X166847520Y-117759480D01*
X170657520Y-117759480D02*
X171927520Y-119029480D01*
X166847520Y-117759480D02*
X170657520Y-117759480D01*
X164307520Y-117759480D02*
X163037520Y-119029480D01*
X164307520Y-115473480D02*
X164307520Y-117759480D01*
X164688520Y-115092480D02*
X164307520Y-115473480D01*
X166974520Y-115092480D02*
X164688520Y-115092480D01*
X169387520Y-116489480D02*
X168371520Y-116489480D01*
X168371520Y-116489480D02*
X166974520Y-115092480D01*
X167482520Y-110774480D02*
X166720520Y-110012480D01*
X168117520Y-111409480D02*
X169387520Y-111409480D01*
X167482520Y-110774480D02*
X168117520Y-111409480D01*
X159481520Y-110012480D02*
X158211520Y-111282480D01*
X159989520Y-110012480D02*
X159481520Y-110012480D01*
X166720520Y-110012480D02*
X159989520Y-110012480D01*
X157195520Y-112298480D02*
X147226020Y-112298480D01*
X146654520Y-112869980D02*
X146654520Y-113504980D01*
X146210020Y-113949480D02*
X145257520Y-113949480D01*
X146654520Y-113504980D02*
X146210020Y-113949480D01*
X158211520Y-111282480D02*
X157195520Y-112298480D01*
X147226020Y-112298480D02*
X146654520Y-112869980D01*
X156814520Y-111409480D02*
X145257520Y-111409480D01*
X159354520Y-108869480D02*
X156814520Y-111409480D01*
X169387520Y-108869480D02*
X159354520Y-108869480D01*
X169387520Y-106329480D02*
X168117520Y-107599480D01*
X159227520Y-107599480D02*
X156306520Y-110520480D01*
X146908520Y-110520480D02*
X145257520Y-108869480D01*
X156306520Y-110520480D02*
X146908520Y-110520480D01*
X168117520Y-107599480D02*
X159227520Y-107599480D01*
X169387520Y-103789480D02*
X159227520Y-103789480D01*
X157957520Y-105059480D02*
X159227520Y-103789480D01*
X146527520Y-105059480D02*
X157957520Y-105059480D01*
X146527520Y-105059480D02*
X145257520Y-106329480D01*
X204566520Y-92359480D02*
X203042520Y-92359480D01*
X170657520Y-94899480D02*
X175102520Y-94899480D01*
X201772520Y-92359480D02*
X201137520Y-92994480D01*
X200502520Y-94899480D02*
X201137520Y-94264480D01*
X175102520Y-94899480D02*
X176372520Y-96169480D01*
X176372520Y-96169480D02*
X196692520Y-96169480D01*
X196692520Y-96169480D02*
X197962520Y-94899480D01*
X197962520Y-94899480D02*
X200502520Y-94899480D01*
X201137520Y-94264480D02*
X201137520Y-92994480D01*
X201772520Y-92359480D02*
X203042520Y-92359480D01*
X169387520Y-93629480D02*
X170657520Y-94899480D01*
X166720520Y-105059480D02*
X167736520Y-105059480D01*
X167736520Y-105059480D02*
X168117520Y-105440480D01*
X149639020Y-110075980D02*
X148432520Y-108869480D01*
X153703020Y-110075980D02*
X149639020Y-110075980D01*
X153703020Y-110075980D02*
X154528520Y-109250480D01*
X156560520Y-107980480D02*
X159481520Y-105059480D01*
X155290520Y-107980480D02*
X156560520Y-107980480D01*
X154528520Y-108742480D02*
X155290520Y-107980480D01*
X154528520Y-109250480D02*
X154528520Y-108742480D01*
X166720520Y-105059480D02*
X159481520Y-105059480D01*
X201952520Y-64419480D02*
X205582520Y-64419480D01*
X201952520Y-66959480D02*
X205582520Y-66959480D01*
D28*
X147162520Y-117759480D02*
X150972520Y-117759480D01*
X155290520Y-120362980D02*
X152687020Y-117759480D01*
X152687020Y-117759480D02*
X150972520Y-117759480D01*
D30*
X147162520Y-117759480D02*
X143987520Y-117759480D01*
D28*
X208757520Y-115219480D02*
X215234520Y-115219480D01*
X205963520Y-118902480D02*
X208122520Y-118902480D01*
X202979020Y-120362980D02*
X155290520Y-120362980D01*
X202979020Y-120362980D02*
X203487020Y-120362980D01*
X204947520Y-118902480D02*
X203487020Y-120362980D01*
X205963520Y-118902480D02*
X204947520Y-118902480D01*
X208122520Y-115854480D02*
X208122520Y-116997480D01*
X208757520Y-115219480D02*
X208122520Y-115854480D01*
X216504520Y-115219480D02*
X217139520Y-114584480D01*
X217139520Y-114584480D02*
X217139520Y-114076480D01*
X215234520Y-115219480D02*
X216504520Y-115219480D01*
X214472520Y-105059480D02*
X223362520Y-105059480D01*
D30*
X142717520Y-116489480D02*
X143987520Y-117759480D01*
X149067520Y-116489480D02*
X151607520Y-113949480D01*
X148432520Y-116489480D02*
X149067520Y-116489480D01*
X145257520Y-116489480D02*
X148432520Y-116489480D01*
X145298160Y-116530120D02*
X145257520Y-116489480D01*
X143987520Y-115219480D02*
X142717520Y-113949480D01*
X147797520Y-115219480D02*
X143987520Y-115219480D01*
X149067520Y-113949480D02*
X147797520Y-115219480D01*
X154655520Y-97439480D02*
X147670520Y-97439480D01*
X147670520Y-97439480D02*
X146400520Y-98709480D01*
X145257520Y-98709480D02*
X146400520Y-98709480D01*
X154655520Y-97439480D02*
X155036520Y-97820480D01*
X154401520Y-92740480D02*
X156433520Y-90708480D01*
D29*
X208757520Y-67594480D02*
X208757520Y-65054480D01*
X209392520Y-64419480D02*
X210662520Y-64419480D01*
X208757520Y-65054480D02*
X209392520Y-64419480D01*
X213202520Y-86009480D02*
X215742520Y-88549480D01*
X215742520Y-88549480D02*
X217139520Y-88549480D01*
X211932520Y-70514480D02*
X210407520Y-70514480D01*
X210407520Y-70514480D02*
X210027520Y-70134480D01*
X210027520Y-70134480D02*
X208757520Y-70134480D01*
D30*
X176372520Y-88549480D02*
X177642520Y-87279480D01*
X195422520Y-83469480D02*
X194152520Y-84739480D01*
X194152520Y-84739480D02*
X194152520Y-85374480D01*
X194152520Y-85374480D02*
X192247520Y-87279480D01*
X192247520Y-87279480D02*
X177642520Y-87279480D01*
X197327520Y-66959480D02*
X199052520Y-66959480D01*
X182084980Y-110136940D02*
X182082440Y-110139480D01*
X182082440Y-110139480D02*
X180817520Y-110139480D01*
X183149240Y-110136940D02*
X182084980Y-110136940D01*
X179092520Y-105059480D02*
X180817520Y-105059480D01*
X180820060Y-105062020D02*
X180817520Y-105059480D01*
X180820060Y-105062020D02*
X183149240Y-105062020D01*
X179092520Y-105059480D02*
X178912520Y-104879480D01*
D28*
X186077520Y-101884480D02*
X186077520Y-106332020D01*
X185897520Y-106329480D02*
X185897520Y-106332020D01*
X186074980Y-106329480D02*
X185897520Y-106329480D01*
X186077520Y-106332020D02*
X186074980Y-106329480D01*
X188645800Y-106332020D02*
X185897520Y-106332020D01*
X185897520Y-106332020D02*
X183149240Y-106332020D01*
D30*
X190977520Y-108869480D02*
X191612520Y-108869480D01*
X191612520Y-108869480D02*
X193337520Y-108869480D01*
X188645800Y-110136940D02*
X190974980Y-110136940D01*
X190977520Y-110139480D02*
X190977520Y-108866940D01*
X190974980Y-110136940D02*
X190977520Y-110139480D01*
X190977520Y-108866940D02*
X190977520Y-108869480D01*
X190977520Y-108869480D02*
X190977520Y-108866940D01*
X188645800Y-108866940D02*
X190977520Y-108866940D01*
X183357520Y-93174480D02*
X181272520Y-93174480D01*
X180817520Y-93629480D02*
X176372520Y-93629480D01*
X181272520Y-93174480D02*
X180817520Y-93629480D01*
X176372520Y-98709480D02*
X187167520Y-98709480D01*
X187167520Y-98709480D02*
X188437520Y-97439480D01*
X188437520Y-94899480D02*
X188437520Y-93174480D01*
X154147520Y-99979480D02*
X157957520Y-99979480D01*
X154147520Y-99979480D02*
X152877520Y-99979480D01*
X152750520Y-78389480D02*
X151734520Y-78389480D01*
X145027520Y-74579480D02*
X142717520Y-74579480D01*
X145027520Y-74579480D02*
X146019520Y-74579480D01*
X146527520Y-75087480D02*
X146019520Y-74579480D01*
X146527520Y-77754480D02*
X146527520Y-75087480D01*
X147162520Y-78389480D02*
X146527520Y-77754480D01*
X151734520Y-78389480D02*
X147162520Y-78389480D01*
X151607520Y-95661480D02*
X152369520Y-96423480D01*
X154274520Y-96423480D02*
X155036520Y-95661480D01*
X152369520Y-96423480D02*
X154274520Y-96423480D01*
X145027520Y-77119480D02*
X142717520Y-77119480D01*
X150845520Y-94899480D02*
X151607520Y-95661480D01*
X143352520Y-94899480D02*
X142717520Y-94264480D01*
X150845520Y-94899480D02*
X143352520Y-94899480D01*
X150337520Y-74579480D02*
X152877520Y-74579480D01*
X152877520Y-74579480D02*
X154147520Y-73309480D01*
X154147520Y-73309480D02*
X155417520Y-73309480D01*
X150337520Y-77119480D02*
X151607520Y-75849480D01*
X156433520Y-75849480D02*
X157322520Y-76738480D01*
X151607520Y-75849480D02*
X156433520Y-75849480D01*
X150845520Y-88552020D02*
X150845520Y-91086940D01*
X150845520Y-91086940D02*
X150845520Y-91089480D01*
X150845520Y-91089480D02*
X150845520Y-91086940D01*
X143352520Y-87734480D02*
X143352520Y-88422480D01*
X143352520Y-88422480D02*
X143987520Y-89057480D01*
X143987520Y-89057480D02*
X144241520Y-89057480D01*
X144749520Y-89057480D02*
X145257520Y-88549480D01*
X144241520Y-89057480D02*
X144749520Y-89057480D01*
X145892520Y-88549480D02*
X145257520Y-88549480D01*
X145895060Y-88552020D02*
X145892520Y-88549480D01*
X145895060Y-88552020D02*
X146954240Y-88552020D01*
X146954240Y-88552020D02*
X149067520Y-88552020D01*
X149067520Y-88552020D02*
X150845520Y-88552020D01*
X150845520Y-88552020D02*
X152450800Y-88552020D01*
X152450800Y-91086940D02*
X150845520Y-91086940D01*
X150845520Y-91086940D02*
X149067520Y-91086940D01*
X149067520Y-91086940D02*
X146954240Y-91086940D01*
X143352520Y-87734480D02*
X143352520Y-85554480D01*
X152496520Y-80421480D02*
X151353520Y-80421480D01*
X148051520Y-81056480D02*
X146400520Y-82707480D01*
X150718520Y-81056480D02*
X148051520Y-81056480D01*
X151353520Y-80421480D02*
X150718520Y-81056480D01*
X156433520Y-80040480D02*
X161132520Y-80040480D01*
X155544520Y-80929480D02*
X156433520Y-80040480D01*
X153893520Y-80929480D02*
X155544520Y-80929480D01*
X153385520Y-80421480D02*
X153893520Y-80929480D01*
X152496520Y-80421480D02*
X153385520Y-80421480D01*
X146400520Y-83469480D02*
X146400520Y-82707480D01*
X145257520Y-84612480D02*
X145257520Y-86644480D01*
X146400520Y-83469480D02*
X145257520Y-84612480D01*
X145257520Y-86644480D02*
X145892520Y-87279480D01*
X146951700Y-87279480D02*
X145892520Y-87279480D01*
X146951700Y-87279480D02*
X146954240Y-87282020D01*
X155671520Y-83469480D02*
X149067520Y-83469480D01*
X145260060Y-92356940D02*
X146954240Y-92356940D01*
X145257520Y-92359480D02*
X145260060Y-92356940D01*
X154398980Y-91724480D02*
X153766520Y-92356940D01*
X154401520Y-91724480D02*
X154398980Y-91724480D01*
X152450800Y-92356940D02*
X153766520Y-92356940D01*
X154147520Y-87279480D02*
X152453340Y-87279480D01*
X155417520Y-88549480D02*
X154147520Y-87279480D01*
X152453340Y-87279480D02*
X152450800Y-87282020D01*
X207233520Y-101757480D02*
X208630520Y-101757480D01*
X205582520Y-101757480D02*
X207233520Y-101757480D01*
X208630520Y-101757480D02*
X210662520Y-103789480D01*
X200502520Y-96169480D02*
X199867520Y-96169480D01*
X206725520Y-102519480D02*
X207360520Y-102519480D01*
X208630520Y-103789480D02*
X208630520Y-104297480D01*
X207360520Y-102519480D02*
X208630520Y-103789480D01*
X206471520Y-102519480D02*
X206725520Y-102519480D01*
X208630520Y-104297480D02*
X210662520Y-106329480D01*
X201137520Y-102519480D02*
X206344520Y-102519480D01*
X206344520Y-102519480D02*
X206471520Y-102519480D01*
X201137520Y-102519480D02*
X199867520Y-103789480D01*
X207233520Y-105440480D02*
X210662520Y-108869480D01*
X203677520Y-105059480D02*
X202407520Y-103789480D01*
X203677520Y-105059480D02*
X206852520Y-105059480D01*
X207233520Y-105440480D02*
X206852520Y-105059480D01*
X205582520Y-106329480D02*
X204312520Y-106329480D01*
X204312520Y-106329480D02*
X203042520Y-105059480D01*
X197962520Y-105059480D02*
X203042520Y-105059480D01*
X196237520Y-108869480D02*
X197962520Y-108869480D01*
X205582520Y-111409480D02*
X204312520Y-111409480D01*
X204312520Y-111409480D02*
X203042520Y-112679480D01*
X195676520Y-112425480D02*
X198597520Y-112425480D01*
X198851520Y-112679480D02*
X203042520Y-112679480D01*
X198597520Y-112425480D02*
X198851520Y-112679480D01*
X190977520Y-112425480D02*
X195676520Y-112425480D01*
X179928520Y-112425480D02*
X190977520Y-112425480D01*
X179928520Y-112425480D02*
X178912520Y-111409480D01*
X178912520Y-111409480D02*
X177187520Y-111409480D01*
X158592520Y-75214480D02*
X158592520Y-74579480D01*
X158592520Y-74579480D02*
X159862520Y-73309480D01*
X159862520Y-73309480D02*
X159862520Y-72039480D01*
X158592520Y-86009480D02*
X158592520Y-87025480D01*
X159862520Y-83469480D02*
X159862520Y-84739480D01*
X158592520Y-86009480D02*
X159862520Y-84739480D01*
X159862520Y-94899480D02*
X155671520Y-94899480D01*
X155417520Y-108869480D02*
X157322520Y-108869480D01*
X157322520Y-108869480D02*
X159862520Y-106329480D01*
D28*
X214853520Y-63784480D02*
X214853520Y-63276480D01*
X214472520Y-62895480D02*
X213710520Y-62895480D01*
X214853520Y-63276480D02*
X214472520Y-62895480D01*
X213710520Y-62895480D02*
X213075520Y-62895480D01*
D29*
X222473520Y-79913480D02*
X222854520Y-79532480D01*
X222473520Y-83469480D02*
X222473520Y-79913480D01*
D28*
X214853520Y-64673480D02*
X214853520Y-63784480D01*
X214853520Y-65816480D02*
X214853520Y-64673480D01*
X171419520Y-62895480D02*
X170530520Y-62895480D01*
X164561520Y-68864480D02*
X152877520Y-68864480D01*
X170530520Y-62895480D02*
X164561520Y-68864480D01*
X200248520Y-62895480D02*
X171419520Y-62895480D01*
X213075520Y-62895480D02*
X200248520Y-62895480D01*
D29*
X214853520Y-73690480D02*
X213931520Y-73690480D01*
X213931520Y-73690480D02*
X213202520Y-74419480D01*
D28*
X142717520Y-72039480D02*
X147162520Y-72039480D01*
X147162520Y-72039480D02*
X147797520Y-72674480D01*
X150337520Y-72039480D02*
X148432520Y-72039480D01*
X148432520Y-72039480D02*
X147797520Y-72674480D01*
X148027520Y-74579480D02*
X147797520Y-74349480D01*
X147797520Y-74349480D02*
X147797520Y-72674480D01*
X148027520Y-77119480D02*
X148027520Y-74579480D01*
M02*
