G04 #@! TF.FileFunction,Other,Fab,Bot*
%FSLAX46Y46*%
G04 Gerber Fmt 4.6, Leading zero omitted, Abs format (unit mm)*
G04 Created by KiCad (PCBNEW 4.0.7) date 11/12/17 17:03:15*
%MOMM*%
%LPD*%
G01*
G04 APERTURE LIST*
%ADD10C,0.100000*%
%ADD11C,0.300000*%
%ADD12C,0.120000*%
%ADD13C,0.150000*%
%ADD14C,0.105000*%
G04 APERTURE END LIST*
D10*
D11*
X179016450Y-55905910D02*
X178873592Y-55834481D01*
X178802164Y-55763052D01*
X178730735Y-55620195D01*
X178730735Y-55548767D01*
X178802164Y-55405910D01*
X178873592Y-55334481D01*
X179016450Y-55263052D01*
X179302164Y-55263052D01*
X179445021Y-55334481D01*
X179516450Y-55405910D01*
X179587878Y-55548767D01*
X179587878Y-55620195D01*
X179516450Y-55763052D01*
X179445021Y-55834481D01*
X179302164Y-55905910D01*
X179016450Y-55905910D01*
X178873592Y-55977338D01*
X178802164Y-56048767D01*
X178730735Y-56191624D01*
X178730735Y-56477338D01*
X178802164Y-56620195D01*
X178873592Y-56691624D01*
X179016450Y-56763052D01*
X179302164Y-56763052D01*
X179445021Y-56691624D01*
X179516450Y-56620195D01*
X179587878Y-56477338D01*
X179587878Y-56191624D01*
X179516450Y-56048767D01*
X179445021Y-55977338D01*
X179302164Y-55905910D01*
X180302163Y-56763052D02*
X180587878Y-56763052D01*
X180730735Y-56691624D01*
X180802163Y-56620195D01*
X180945021Y-56405910D01*
X181016449Y-56120195D01*
X181016449Y-55548767D01*
X180945021Y-55405910D01*
X180873592Y-55334481D01*
X180730735Y-55263052D01*
X180445021Y-55263052D01*
X180302163Y-55334481D01*
X180230735Y-55405910D01*
X180159306Y-55548767D01*
X180159306Y-55905910D01*
X180230735Y-56048767D01*
X180302163Y-56120195D01*
X180445021Y-56191624D01*
X180730735Y-56191624D01*
X180873592Y-56120195D01*
X180945021Y-56048767D01*
X181016449Y-55905910D01*
X181730734Y-56691624D02*
X181730734Y-56763052D01*
X181659306Y-56905910D01*
X181587877Y-56977338D01*
X183087878Y-55263052D02*
X182373592Y-55263052D01*
X182302163Y-55977338D01*
X182373592Y-55905910D01*
X182516449Y-55834481D01*
X182873592Y-55834481D01*
X183016449Y-55905910D01*
X183087878Y-55977338D01*
X183159306Y-56120195D01*
X183159306Y-56477338D01*
X183087878Y-56620195D01*
X183016449Y-56691624D01*
X182873592Y-56763052D01*
X182516449Y-56763052D01*
X182373592Y-56691624D01*
X182302163Y-56620195D01*
X183659306Y-55263052D02*
X184587877Y-55263052D01*
X184087877Y-55834481D01*
X184302163Y-55834481D01*
X184445020Y-55905910D01*
X184516449Y-55977338D01*
X184587877Y-56120195D01*
X184587877Y-56477338D01*
X184516449Y-56620195D01*
X184445020Y-56691624D01*
X184302163Y-56763052D01*
X183873591Y-56763052D01*
X183730734Y-56691624D01*
X183659306Y-56620195D01*
X185945020Y-55263052D02*
X185230734Y-55263052D01*
X185159305Y-55977338D01*
X185230734Y-55905910D01*
X185373591Y-55834481D01*
X185730734Y-55834481D01*
X185873591Y-55905910D01*
X185945020Y-55977338D01*
X186016448Y-56120195D01*
X186016448Y-56477338D01*
X185945020Y-56620195D01*
X185873591Y-56691624D01*
X185730734Y-56763052D01*
X185373591Y-56763052D01*
X185230734Y-56691624D01*
X185159305Y-56620195D01*
X187802162Y-56763052D02*
X187802162Y-55763052D01*
X187802162Y-55905910D02*
X187873590Y-55834481D01*
X188016448Y-55763052D01*
X188230733Y-55763052D01*
X188373590Y-55834481D01*
X188445019Y-55977338D01*
X188445019Y-56763052D01*
X188445019Y-55977338D02*
X188516448Y-55834481D01*
X188659305Y-55763052D01*
X188873590Y-55763052D01*
X189016448Y-55834481D01*
X189087876Y-55977338D01*
X189087876Y-56763052D01*
X189802162Y-56763052D02*
X189802162Y-55763052D01*
X189802162Y-55905910D02*
X189873590Y-55834481D01*
X190016448Y-55763052D01*
X190230733Y-55763052D01*
X190373590Y-55834481D01*
X190445019Y-55977338D01*
X190445019Y-56763052D01*
X190445019Y-55977338D02*
X190516448Y-55834481D01*
X190659305Y-55763052D01*
X190873590Y-55763052D01*
X191016448Y-55834481D01*
X191087876Y-55977338D01*
X191087876Y-56763052D01*
X229712520Y-57434481D02*
X140177520Y-57434481D01*
X229712520Y-61879480D02*
X229712520Y-54734481D01*
X140177520Y-61879480D02*
X140177520Y-54734481D01*
X140177520Y-57434481D02*
X141304024Y-56848060D01*
X140177520Y-57434481D02*
X141304024Y-58020902D01*
X229712520Y-57434481D02*
X228586016Y-56848060D01*
X229712520Y-57434481D02*
X228586016Y-58020902D01*
X133933950Y-86295910D02*
X133933950Y-85581624D01*
X133219664Y-85510195D01*
X133291092Y-85581624D01*
X133362521Y-85724481D01*
X133362521Y-86081624D01*
X133291092Y-86224481D01*
X133219664Y-86295910D01*
X133076807Y-86367338D01*
X132719664Y-86367338D01*
X132576807Y-86295910D01*
X132505378Y-86224481D01*
X132433950Y-86081624D01*
X132433950Y-85724481D01*
X132505378Y-85581624D01*
X132576807Y-85510195D01*
X132433950Y-87081623D02*
X132433950Y-87367338D01*
X132505378Y-87510195D01*
X132576807Y-87581623D01*
X132791092Y-87724481D01*
X133076807Y-87795909D01*
X133648235Y-87795909D01*
X133791092Y-87724481D01*
X133862521Y-87653052D01*
X133933950Y-87510195D01*
X133933950Y-87224481D01*
X133862521Y-87081623D01*
X133791092Y-87010195D01*
X133648235Y-86938766D01*
X133291092Y-86938766D01*
X133148235Y-87010195D01*
X133076807Y-87081623D01*
X133005378Y-87224481D01*
X133005378Y-87510195D01*
X133076807Y-87653052D01*
X133148235Y-87724481D01*
X133291092Y-87795909D01*
X132505378Y-88510194D02*
X132433950Y-88510194D01*
X132291092Y-88438766D01*
X132219664Y-88367337D01*
X133933950Y-89795909D02*
X133933950Y-89510195D01*
X133862521Y-89367338D01*
X133791092Y-89295909D01*
X133576807Y-89153052D01*
X133291092Y-89081623D01*
X132719664Y-89081623D01*
X132576807Y-89153052D01*
X132505378Y-89224480D01*
X132433950Y-89367338D01*
X132433950Y-89653052D01*
X132505378Y-89795909D01*
X132576807Y-89867338D01*
X132719664Y-89938766D01*
X133076807Y-89938766D01*
X133219664Y-89867338D01*
X133291092Y-89795909D01*
X133362521Y-89653052D01*
X133362521Y-89367338D01*
X133291092Y-89224480D01*
X133219664Y-89153052D01*
X133076807Y-89081623D01*
X132433950Y-90653051D02*
X132433950Y-90938766D01*
X132505378Y-91081623D01*
X132576807Y-91153051D01*
X132791092Y-91295909D01*
X133076807Y-91367337D01*
X133648235Y-91367337D01*
X133791092Y-91295909D01*
X133862521Y-91224480D01*
X133933950Y-91081623D01*
X133933950Y-90795909D01*
X133862521Y-90653051D01*
X133791092Y-90581623D01*
X133648235Y-90510194D01*
X133291092Y-90510194D01*
X133148235Y-90581623D01*
X133076807Y-90653051D01*
X133005378Y-90795909D01*
X133005378Y-91081623D01*
X133076807Y-91224480D01*
X133148235Y-91295909D01*
X133291092Y-91367337D01*
X133933950Y-92295908D02*
X133933950Y-92438765D01*
X133862521Y-92581622D01*
X133791092Y-92653051D01*
X133648235Y-92724480D01*
X133362521Y-92795908D01*
X133005378Y-92795908D01*
X132719664Y-92724480D01*
X132576807Y-92653051D01*
X132505378Y-92581622D01*
X132433950Y-92438765D01*
X132433950Y-92295908D01*
X132505378Y-92153051D01*
X132576807Y-92081622D01*
X132719664Y-92010194D01*
X133005378Y-91938765D01*
X133362521Y-91938765D01*
X133648235Y-92010194D01*
X133791092Y-92081622D01*
X133862521Y-92153051D01*
X133933950Y-92295908D01*
X132433950Y-94581622D02*
X133433950Y-94581622D01*
X133291092Y-94581622D02*
X133362521Y-94653050D01*
X133433950Y-94795908D01*
X133433950Y-95010193D01*
X133362521Y-95153050D01*
X133219664Y-95224479D01*
X132433950Y-95224479D01*
X133219664Y-95224479D02*
X133362521Y-95295908D01*
X133433950Y-95438765D01*
X133433950Y-95653050D01*
X133362521Y-95795908D01*
X133219664Y-95867336D01*
X132433950Y-95867336D01*
X132433950Y-96581622D02*
X133433950Y-96581622D01*
X133291092Y-96581622D02*
X133362521Y-96653050D01*
X133433950Y-96795908D01*
X133433950Y-97010193D01*
X133362521Y-97153050D01*
X133219664Y-97224479D01*
X132433950Y-97224479D01*
X133219664Y-97224479D02*
X133362521Y-97295908D01*
X133433950Y-97438765D01*
X133433950Y-97653050D01*
X133362521Y-97795908D01*
X133219664Y-97867336D01*
X132433950Y-97867336D01*
X134462521Y-61879480D02*
X134462521Y-121569480D01*
X140177520Y-61879480D02*
X131762521Y-61879480D01*
X140177520Y-121569480D02*
X131762521Y-121569480D01*
X134462521Y-121569480D02*
X133876100Y-120442976D01*
X134462521Y-121569480D02*
X135048942Y-120442976D01*
X134462521Y-61879480D02*
X133876100Y-63005984D01*
X134462521Y-61879480D02*
X135048942Y-63005984D01*
D10*
X225051520Y-68788480D02*
X223451520Y-68788480D01*
X225051520Y-71988480D02*
X225051520Y-68788480D01*
X223451520Y-71988480D02*
X225051520Y-71988480D01*
X223451520Y-68788480D02*
X223451520Y-71988480D01*
X216961520Y-77411480D02*
X216961520Y-75811480D01*
X213761520Y-77411480D02*
X216961520Y-77411480D01*
X213761520Y-75811480D02*
X213761520Y-77411480D01*
X216961520Y-75811480D02*
X213761520Y-75811480D01*
X224835520Y-74744480D02*
X224835520Y-73144480D01*
X221635520Y-74744480D02*
X224835520Y-74744480D01*
X221635520Y-73144480D02*
X221635520Y-74744480D01*
X224835520Y-73144480D02*
X221635520Y-73144480D01*
X212402520Y-105262480D02*
X214002520Y-105262480D01*
X212402520Y-102062480D02*
X212402520Y-105262480D01*
X214002520Y-102062480D02*
X212402520Y-102062480D01*
X214002520Y-105262480D02*
X214002520Y-102062480D01*
X207741520Y-111794480D02*
X207741520Y-111294480D01*
X207341520Y-111794480D02*
X207741520Y-112394480D01*
X208141520Y-111794480D02*
X207341520Y-111794480D01*
X207741520Y-112394480D02*
X208141520Y-111794480D01*
X207741520Y-112394480D02*
X207191520Y-112394480D01*
X207741520Y-112394480D02*
X208291520Y-112394480D01*
X207741520Y-112794480D02*
X207741520Y-112394480D01*
X206841520Y-113444480D02*
X208641520Y-113444480D01*
X206841520Y-110644480D02*
X206841520Y-113444480D01*
X208641520Y-110644480D02*
X206841520Y-110644480D01*
X208641520Y-113444480D02*
X208641520Y-110644480D01*
X194355520Y-107129480D02*
X194355520Y-105529480D01*
X191155520Y-107129480D02*
X194355520Y-107129480D01*
X191155520Y-105529480D02*
X191155520Y-107129480D01*
X194355520Y-105529480D02*
X191155520Y-105529480D01*
X193974520Y-99763480D02*
X193974520Y-98163480D01*
X190774520Y-99763480D02*
X193974520Y-99763480D01*
X190774520Y-98163480D02*
X190774520Y-99763480D01*
X193974520Y-98163480D02*
X190774520Y-98163480D01*
D12*
X222473520Y-94137480D02*
X217901520Y-94137480D01*
X217901520Y-94137480D02*
X217901520Y-90581480D01*
X217901520Y-90581480D02*
X221838520Y-90581480D01*
X221838520Y-90581480D02*
X222600520Y-91343480D01*
X222600520Y-91343480D02*
X222600520Y-94137480D01*
X222600520Y-94137480D02*
X222473520Y-94137480D01*
X194152520Y-108869480D02*
X194152520Y-119664480D01*
X194152520Y-119664480D02*
X182722520Y-119664480D01*
X182722520Y-119664480D02*
X182087520Y-119664480D01*
X182087520Y-119664480D02*
X180817520Y-120299480D01*
X194152520Y-108869480D02*
X177642520Y-108869480D01*
X177642520Y-108869480D02*
X177642520Y-120299480D01*
X189072520Y-89819480D02*
X190342520Y-89819480D01*
X190342520Y-89819480D02*
X190342520Y-90454480D01*
X190342520Y-90454480D02*
X189072520Y-90454480D01*
X182722520Y-89819480D02*
X181452520Y-89819480D01*
X181452520Y-89819480D02*
X181452520Y-90454480D01*
X181452520Y-90454480D02*
X182722520Y-90454480D01*
X182722520Y-86009480D02*
X181452520Y-86009480D01*
X181452520Y-86009480D02*
X181452520Y-86644480D01*
X181452520Y-86644480D02*
X182722520Y-86644480D01*
X189072520Y-86009480D02*
X190342520Y-86009480D01*
X190342520Y-86009480D02*
X190342520Y-86644480D01*
X190342520Y-86644480D02*
X189072520Y-86644480D01*
X189072520Y-84739480D02*
X189072520Y-91089480D01*
X189072520Y-91089480D02*
X182722520Y-91089480D01*
X182722520Y-91089480D02*
X182722520Y-84739480D01*
X196692520Y-120299480D02*
X175102520Y-120299480D01*
X175102520Y-120299480D02*
X175102520Y-84739480D01*
X175102520Y-84739480D02*
X196692520Y-84739480D01*
X196692520Y-84739480D02*
X196692520Y-120299480D01*
D10*
X212402520Y-110469480D02*
X214002520Y-110469480D01*
X212402520Y-107269480D02*
X212402520Y-110469480D01*
X214002520Y-107269480D02*
X212402520Y-107269480D01*
X214002520Y-110469480D02*
X214002520Y-107269480D01*
X184932520Y-102354480D02*
X184932520Y-103954480D01*
X188132520Y-102354480D02*
X184932520Y-102354480D01*
X188132520Y-103954480D02*
X188132520Y-102354480D01*
X184932520Y-103954480D02*
X188132520Y-103954480D01*
X184932520Y-106164480D02*
X184932520Y-107764480D01*
X188132520Y-106164480D02*
X184932520Y-106164480D01*
X188132520Y-107764480D02*
X188132520Y-106164480D01*
X184932520Y-107764480D02*
X188132520Y-107764480D01*
X182252520Y-104729480D02*
X180652520Y-104729480D01*
X182252520Y-107929480D02*
X182252520Y-104729480D01*
X180652520Y-107929480D02*
X182252520Y-107929480D01*
X180652520Y-104729480D02*
X180652520Y-107929480D01*
X185427520Y-97744480D02*
X183827520Y-97744480D01*
X185427520Y-100944480D02*
X185427520Y-97744480D01*
X183827520Y-100944480D02*
X185427520Y-100944480D01*
X183827520Y-97744480D02*
X183827520Y-100944480D01*
X167901520Y-115651480D02*
X166301520Y-115651480D01*
X167901520Y-118851480D02*
X167901520Y-115651480D01*
X166301520Y-118851480D02*
X167901520Y-118851480D01*
X166301520Y-115651480D02*
X166301520Y-118851480D01*
X198267520Y-66794480D02*
X198267520Y-68394480D01*
X201467520Y-66794480D02*
X198267520Y-66794480D01*
X201467520Y-68394480D02*
X201467520Y-66794480D01*
X198267520Y-68394480D02*
X201467520Y-68394480D01*
X151429520Y-101922480D02*
X151429520Y-100322480D01*
X148229520Y-101922480D02*
X151429520Y-101922480D01*
X148229520Y-100322480D02*
X148229520Y-101922480D01*
X151429520Y-100322480D02*
X148229520Y-100322480D01*
X152547520Y-110609480D02*
X152547520Y-112209480D01*
X155747520Y-110609480D02*
X152547520Y-110609480D01*
X155747520Y-112209480D02*
X155747520Y-110609480D01*
X152547520Y-112209480D02*
X155747520Y-112209480D01*
X166682520Y-67289480D02*
X168282520Y-67289480D01*
X166682520Y-64089480D02*
X166682520Y-67289480D01*
X168282520Y-64089480D02*
X166682520Y-64089480D01*
X168282520Y-67289480D02*
X168282520Y-64089480D01*
X198597520Y-77119480D02*
X198597520Y-82199480D01*
X198597520Y-82199480D02*
X196057520Y-82199480D01*
X196057520Y-82199480D02*
X196057520Y-77119480D01*
X196057520Y-77119480D02*
X198597520Y-77119480D01*
X213367520Y-113619480D02*
X211767520Y-113619480D01*
X213367520Y-116819480D02*
X213367520Y-113619480D01*
X211767520Y-116819480D02*
X213367520Y-116819480D01*
X211767520Y-113619480D02*
X211767520Y-116819480D01*
X156522520Y-106659480D02*
X158122520Y-106659480D01*
X156522520Y-103459480D02*
X156522520Y-106659480D01*
X158122520Y-103459480D02*
X156522520Y-103459480D01*
X158122520Y-106659480D02*
X158122520Y-103459480D01*
X156522520Y-72369480D02*
X158122520Y-72369480D01*
X156522520Y-69169480D02*
X156522520Y-72369480D01*
X158122520Y-69169480D02*
X156522520Y-69169480D01*
X158122520Y-72369480D02*
X158122520Y-69169480D01*
X217592520Y-66564480D02*
X216542520Y-65514480D01*
X217592520Y-66564480D02*
X217592520Y-72214480D01*
X216542520Y-65514480D02*
X213892520Y-65514480D01*
X217592520Y-72214480D02*
X213892520Y-72214480D01*
X213892520Y-65514480D02*
X213892520Y-72214480D01*
X153677520Y-85044480D02*
X152077520Y-85044480D01*
X153677520Y-88244480D02*
X153677520Y-85044480D01*
X152077520Y-88244480D02*
X153677520Y-88244480D01*
X152077520Y-85044480D02*
X152077520Y-88244480D01*
X156992520Y-108069480D02*
X156992520Y-109669480D01*
X160192520Y-108069480D02*
X156992520Y-108069480D01*
X160192520Y-109669480D02*
X160192520Y-108069480D01*
X156992520Y-109669480D02*
X160192520Y-109669480D01*
X210497520Y-80624480D02*
X212097520Y-80624480D01*
X210497520Y-77424480D02*
X210497520Y-80624480D01*
X212097520Y-77424480D02*
X210497520Y-77424480D01*
X212097520Y-80624480D02*
X212097520Y-77424480D01*
X207957520Y-80624480D02*
X209557520Y-80624480D01*
X207957520Y-77424480D02*
X207957520Y-80624480D01*
X209557520Y-77424480D02*
X207957520Y-77424480D01*
X209557520Y-80624480D02*
X209557520Y-77424480D01*
X210116520Y-99547480D02*
X211716520Y-99547480D01*
X210116520Y-96347480D02*
X210116520Y-99547480D01*
X211716520Y-96347480D02*
X210116520Y-96347480D01*
X211716520Y-99547480D02*
X211716520Y-96347480D01*
X147632520Y-76179480D02*
X149232520Y-76179480D01*
X147632520Y-72979480D02*
X147632520Y-76179480D01*
X149232520Y-72979480D02*
X147632520Y-72979480D01*
X149232520Y-76179480D02*
X149232520Y-72979480D01*
X152077520Y-94594480D02*
X153677520Y-94594480D01*
X152077520Y-91394480D02*
X152077520Y-94594480D01*
X153677520Y-91394480D02*
X152077520Y-91394480D01*
X153677520Y-94594480D02*
X153677520Y-91394480D01*
X221127520Y-109339480D02*
X221127520Y-110939480D01*
X224327520Y-109339480D02*
X221127520Y-109339480D01*
X224327520Y-110939480D02*
X224327520Y-109339480D01*
X221127520Y-110939480D02*
X224327520Y-110939480D01*
X162072520Y-73779480D02*
X162072520Y-75379480D01*
X165272520Y-73779480D02*
X162072520Y-73779480D01*
X165272520Y-75379480D02*
X165272520Y-73779480D01*
X162072520Y-75379480D02*
X165272520Y-75379480D01*
X212097520Y-72344480D02*
X210497520Y-72344480D01*
X212097520Y-75544480D02*
X212097520Y-72344480D01*
X210497520Y-75544480D02*
X212097520Y-75544480D01*
X210497520Y-72344480D02*
X210497520Y-75544480D01*
X225051520Y-78821480D02*
X223451520Y-78821480D01*
X225051520Y-82021480D02*
X225051520Y-78821480D01*
X223451520Y-82021480D02*
X225051520Y-82021480D01*
X223451520Y-78821480D02*
X223451520Y-82021480D01*
X149232520Y-78694480D02*
X147632520Y-78694480D01*
X149232520Y-81894480D02*
X149232520Y-78694480D01*
X147632520Y-81894480D02*
X149232520Y-81894480D01*
X147632520Y-78694480D02*
X147632520Y-81894480D01*
X145587520Y-81475480D02*
X145587520Y-79875480D01*
X142387520Y-81475480D02*
X145587520Y-81475480D01*
X142387520Y-79875480D02*
X142387520Y-81475480D01*
X145587520Y-79875480D02*
X142387520Y-79875480D01*
X145587520Y-71569480D02*
X145587520Y-69969480D01*
X142387520Y-71569480D02*
X145587520Y-71569480D01*
X142387520Y-69969480D02*
X142387520Y-71569480D01*
X145587520Y-69969480D02*
X142387520Y-69969480D01*
X209557520Y-72344480D02*
X207957520Y-72344480D01*
X209557520Y-75544480D02*
X209557520Y-72344480D01*
X207957520Y-75544480D02*
X209557520Y-75544480D01*
X207957520Y-72344480D02*
X207957520Y-75544480D01*
X210916520Y-92609480D02*
X210916520Y-93109480D01*
X211316520Y-92609480D02*
X210916520Y-92009480D01*
X210516520Y-92609480D02*
X211316520Y-92609480D01*
X210916520Y-92009480D02*
X210516520Y-92609480D01*
X210916520Y-92009480D02*
X211466520Y-92009480D01*
X210916520Y-92009480D02*
X210366520Y-92009480D01*
X210916520Y-91609480D02*
X210916520Y-92009480D01*
X211816520Y-90959480D02*
X210016520Y-90959480D01*
X211816520Y-93759480D02*
X211816520Y-90959480D01*
X210016520Y-93759480D02*
X211816520Y-93759480D01*
X210016520Y-90959480D02*
X210016520Y-93759480D01*
X210827520Y-113619480D02*
X209227520Y-113619480D01*
X210827520Y-116819480D02*
X210827520Y-113619480D01*
X209227520Y-116819480D02*
X210827520Y-116819480D01*
X209227520Y-113619480D02*
X209227520Y-116819480D01*
X221127520Y-111879480D02*
X221127520Y-113479480D01*
X224327520Y-111879480D02*
X221127520Y-111879480D01*
X224327520Y-113479480D02*
X224327520Y-111879480D01*
X221127520Y-113479480D02*
X224327520Y-113479480D01*
X142552520Y-85704480D02*
X144152520Y-85704480D01*
X142552520Y-82504480D02*
X142552520Y-85704480D01*
X144152520Y-82504480D02*
X142552520Y-82504480D01*
X144152520Y-85704480D02*
X144152520Y-82504480D01*
X147962520Y-85044480D02*
X146362520Y-85044480D01*
X147962520Y-88244480D02*
X147962520Y-85044480D01*
X146362520Y-88244480D02*
X147962520Y-88244480D01*
X146362520Y-85044480D02*
X146362520Y-88244480D01*
X146362520Y-94594480D02*
X147962520Y-94594480D01*
X146362520Y-91394480D02*
X146362520Y-94594480D01*
X147962520Y-91394480D02*
X146362520Y-91394480D01*
X147962520Y-94594480D02*
X147962520Y-91394480D01*
X156522520Y-83799480D02*
X158122520Y-83799480D01*
X156522520Y-80599480D02*
X156522520Y-83799480D01*
X158122520Y-80599480D02*
X156522520Y-80599480D01*
X158122520Y-83799480D02*
X158122520Y-80599480D01*
X162072520Y-85209480D02*
X162072520Y-86809480D01*
X165272520Y-85209480D02*
X162072520Y-85209480D01*
X165272520Y-86809480D02*
X165272520Y-85209480D01*
X162072520Y-86809480D02*
X165272520Y-86809480D01*
X156522520Y-95229480D02*
X158122520Y-95229480D01*
X156522520Y-92029480D02*
X156522520Y-95229480D01*
X158122520Y-92029480D02*
X156522520Y-92029480D01*
X158122520Y-95229480D02*
X158122520Y-92029480D01*
X162072520Y-96639480D02*
X162072520Y-98239480D01*
X165272520Y-96639480D02*
X162072520Y-96639480D01*
X165272520Y-98239480D02*
X165272520Y-96639480D01*
X162072520Y-98239480D02*
X165272520Y-98239480D01*
X162072520Y-108069480D02*
X162072520Y-109669480D01*
X165272520Y-108069480D02*
X162072520Y-108069480D01*
X165272520Y-109669480D02*
X165272520Y-108069480D01*
X162072520Y-109669480D02*
X165272520Y-109669480D01*
X156992520Y-73779480D02*
X156992520Y-75379480D01*
X160192520Y-73779480D02*
X156992520Y-73779480D01*
X160192520Y-75379480D02*
X160192520Y-73779480D01*
X156992520Y-75379480D02*
X160192520Y-75379480D01*
X207237520Y-66959480D02*
X206737520Y-66959480D01*
X207237520Y-67359480D02*
X207837520Y-66959480D01*
X207237520Y-66559480D02*
X207237520Y-67359480D01*
X207837520Y-66959480D02*
X207237520Y-66559480D01*
X207837520Y-66959480D02*
X207837520Y-67509480D01*
X207837520Y-66959480D02*
X207837520Y-66409480D01*
X208237520Y-66959480D02*
X207837520Y-66959480D01*
X208887520Y-67859480D02*
X208887520Y-66059480D01*
X206087520Y-67859480D02*
X208887520Y-67859480D01*
X206087520Y-66059480D02*
X206087520Y-67859480D01*
X208887520Y-66059480D02*
X206087520Y-66059480D01*
X156992520Y-85209480D02*
X156992520Y-86809480D01*
X160192520Y-85209480D02*
X156992520Y-85209480D01*
X160192520Y-86809480D02*
X160192520Y-85209480D01*
X156992520Y-86809480D02*
X160192520Y-86809480D01*
X156992520Y-96639480D02*
X156992520Y-98239480D01*
X160192520Y-96639480D02*
X156992520Y-96639480D01*
X160192520Y-98239480D02*
X160192520Y-96639480D01*
X156992520Y-98239480D02*
X160192520Y-98239480D01*
X142552520Y-90784480D02*
X144152520Y-90784480D01*
X142552520Y-87584480D02*
X142552520Y-90784480D01*
X144152520Y-87584480D02*
X142552520Y-87584480D01*
X144152520Y-90784480D02*
X144152520Y-87584480D01*
D12*
X222473520Y-99217480D02*
X217901520Y-99217480D01*
X217901520Y-99217480D02*
X217901520Y-95661480D01*
X217901520Y-95661480D02*
X221838520Y-95661480D01*
X221838520Y-95661480D02*
X222600520Y-96423480D01*
X222600520Y-96423480D02*
X222600520Y-99217480D01*
X222600520Y-99217480D02*
X222473520Y-99217480D01*
D10*
X178277520Y-75214480D02*
X190977520Y-75214480D01*
X190977520Y-75214480D02*
X190977520Y-80294480D01*
X190977520Y-80294480D02*
X178277520Y-80294480D01*
X178277520Y-80294480D02*
X178277520Y-75214480D01*
D13*
X224703901Y-69698004D02*
X224703901Y-69126575D01*
X224703901Y-69412289D02*
X223703901Y-69412289D01*
X223846758Y-69317051D01*
X223941996Y-69221813D01*
X223989615Y-69126575D01*
X223703901Y-70317051D02*
X223703901Y-70412290D01*
X223751520Y-70507528D01*
X223799139Y-70555147D01*
X223894377Y-70602766D01*
X224084853Y-70650385D01*
X224322949Y-70650385D01*
X224513425Y-70602766D01*
X224608663Y-70555147D01*
X224656282Y-70507528D01*
X224703901Y-70412290D01*
X224703901Y-70317051D01*
X224656282Y-70221813D01*
X224608663Y-70174194D01*
X224513425Y-70126575D01*
X224322949Y-70078956D01*
X224084853Y-70078956D01*
X223894377Y-70126575D01*
X223799139Y-70174194D01*
X223751520Y-70221813D01*
X223703901Y-70317051D01*
X224703901Y-71078956D02*
X223703901Y-71078956D01*
X224703901Y-71650385D02*
X224132472Y-71221813D01*
X223703901Y-71650385D02*
X224275330Y-71078956D01*
X216861520Y-76159099D02*
X216813901Y-76111480D01*
X216718663Y-76063861D01*
X216480567Y-76063861D01*
X216385329Y-76111480D01*
X216337710Y-76159099D01*
X216290091Y-76254337D01*
X216290091Y-76349575D01*
X216337710Y-76492432D01*
X216909139Y-77063861D01*
X216290091Y-77063861D01*
X215861520Y-76968623D02*
X215813901Y-77016242D01*
X215861520Y-77063861D01*
X215909139Y-77016242D01*
X215861520Y-76968623D01*
X215861520Y-77063861D01*
X215432949Y-76159099D02*
X215385330Y-76111480D01*
X215290092Y-76063861D01*
X215051996Y-76063861D01*
X214956758Y-76111480D01*
X214909139Y-76159099D01*
X214861520Y-76254337D01*
X214861520Y-76349575D01*
X214909139Y-76492432D01*
X215480568Y-77063861D01*
X214861520Y-77063861D01*
X214432949Y-77063861D02*
X214432949Y-76063861D01*
X213861520Y-77063861D02*
X214290092Y-76492432D01*
X213861520Y-76063861D02*
X214432949Y-76635290D01*
X224545044Y-73396861D02*
X223925996Y-73396861D01*
X224259330Y-73777813D01*
X224116472Y-73777813D01*
X224021234Y-73825432D01*
X223973615Y-73873051D01*
X223925996Y-73968290D01*
X223925996Y-74206385D01*
X223973615Y-74301623D01*
X224021234Y-74349242D01*
X224116472Y-74396861D01*
X224402187Y-74396861D01*
X224497425Y-74349242D01*
X224545044Y-74301623D01*
X223592663Y-73396861D02*
X222973615Y-73396861D01*
X223306949Y-73777813D01*
X223164091Y-73777813D01*
X223068853Y-73825432D01*
X223021234Y-73873051D01*
X222973615Y-73968290D01*
X222973615Y-74206385D01*
X223021234Y-74301623D01*
X223068853Y-74349242D01*
X223164091Y-74396861D01*
X223449806Y-74396861D01*
X223545044Y-74349242D01*
X223592663Y-74301623D01*
X222545044Y-74396861D02*
X222545044Y-73396861D01*
X221973615Y-74396861D02*
X222402187Y-73825432D01*
X221973615Y-73396861D02*
X222545044Y-73968290D01*
X212861234Y-103003766D02*
X213527901Y-103003766D01*
X212480282Y-102765670D02*
X213194568Y-102527575D01*
X213194568Y-103146623D01*
X213527901Y-103527575D02*
X212527901Y-103527575D01*
X213527901Y-104099004D02*
X212956472Y-103670432D01*
X212527901Y-104099004D02*
X213099330Y-103527575D01*
X212527901Y-104432337D02*
X212527901Y-105099004D01*
X213527901Y-104670432D01*
X209971901Y-108679385D02*
X208971901Y-108679385D01*
X209686187Y-109012719D01*
X208971901Y-109346052D01*
X209971901Y-109346052D01*
X209448091Y-110155576D02*
X209495710Y-110298433D01*
X209543330Y-110346052D01*
X209638568Y-110393671D01*
X209781425Y-110393671D01*
X209876663Y-110346052D01*
X209924282Y-110298433D01*
X209971901Y-110203195D01*
X209971901Y-109822242D01*
X208971901Y-109822242D01*
X208971901Y-110155576D01*
X209019520Y-110250814D01*
X209067139Y-110298433D01*
X209162377Y-110346052D01*
X209257615Y-110346052D01*
X209352853Y-110298433D01*
X209400472Y-110250814D01*
X209448091Y-110155576D01*
X209448091Y-109822242D01*
X209971901Y-111393671D02*
X209495710Y-111060337D01*
X209971901Y-110822242D02*
X208971901Y-110822242D01*
X208971901Y-111203195D01*
X209019520Y-111298433D01*
X209067139Y-111346052D01*
X209162377Y-111393671D01*
X209305234Y-111393671D01*
X209400472Y-111346052D01*
X209448091Y-111298433D01*
X209495710Y-111203195D01*
X209495710Y-110822242D01*
X208971901Y-112012718D02*
X208971901Y-112107957D01*
X209019520Y-112203195D01*
X209067139Y-112250814D01*
X209162377Y-112298433D01*
X209352853Y-112346052D01*
X209590949Y-112346052D01*
X209781425Y-112298433D01*
X209876663Y-112250814D01*
X209924282Y-112203195D01*
X209971901Y-112107957D01*
X209971901Y-112012718D01*
X209924282Y-111917480D01*
X209876663Y-111869861D01*
X209781425Y-111822242D01*
X209590949Y-111774623D01*
X209352853Y-111774623D01*
X209162377Y-111822242D01*
X209067139Y-111869861D01*
X209019520Y-111917480D01*
X208971901Y-112012718D01*
X208971901Y-113250814D02*
X208971901Y-112774623D01*
X209448091Y-112727004D01*
X209400472Y-112774623D01*
X209352853Y-112869861D01*
X209352853Y-113107957D01*
X209400472Y-113203195D01*
X209448091Y-113250814D01*
X209543330Y-113298433D01*
X209781425Y-113298433D01*
X209876663Y-113250814D01*
X209924282Y-113203195D01*
X209971901Y-113107957D01*
X209971901Y-112869861D01*
X209924282Y-112774623D01*
X209876663Y-112727004D01*
X209067139Y-113679385D02*
X209019520Y-113727004D01*
X208971901Y-113822242D01*
X208971901Y-114060338D01*
X209019520Y-114155576D01*
X209067139Y-114203195D01*
X209162377Y-114250814D01*
X209257615Y-114250814D01*
X209400472Y-114203195D01*
X209971901Y-113631766D01*
X209971901Y-114250814D01*
X208971901Y-114869861D02*
X208971901Y-114965100D01*
X209019520Y-115060338D01*
X209067139Y-115107957D01*
X209162377Y-115155576D01*
X209352853Y-115203195D01*
X209590949Y-115203195D01*
X209781425Y-115155576D01*
X209876663Y-115107957D01*
X209924282Y-115060338D01*
X209971901Y-114965100D01*
X209971901Y-114869861D01*
X209924282Y-114774623D01*
X209876663Y-114727004D01*
X209781425Y-114679385D01*
X209590949Y-114631766D01*
X209352853Y-114631766D01*
X209162377Y-114679385D01*
X209067139Y-114727004D01*
X209019520Y-114774623D01*
X208971901Y-114869861D01*
X193652329Y-106115194D02*
X193652329Y-106781861D01*
X193890425Y-105734242D02*
X194128520Y-106448528D01*
X193509472Y-106448528D01*
X193080901Y-106734242D02*
X193080901Y-106781861D01*
X193128520Y-106877099D01*
X193176139Y-106924718D01*
X192747568Y-105781861D02*
X192080901Y-105781861D01*
X192509473Y-106781861D01*
X191699949Y-106781861D02*
X191699949Y-105781861D01*
X191128520Y-106781861D02*
X191557092Y-106210432D01*
X191128520Y-105781861D02*
X191699949Y-106353290D01*
X193271329Y-98749194D02*
X193271329Y-99415861D01*
X193509425Y-98368242D02*
X193747520Y-99082528D01*
X193128472Y-99082528D01*
X192699901Y-99368242D02*
X192699901Y-99415861D01*
X192747520Y-99511099D01*
X192795139Y-99558718D01*
X192366568Y-98415861D02*
X191699901Y-98415861D01*
X192128473Y-99415861D01*
X191318949Y-99415861D02*
X191318949Y-98415861D01*
X190747520Y-99415861D02*
X191176092Y-98844432D01*
X190747520Y-98415861D02*
X191318949Y-98987290D01*
X175824901Y-93955433D02*
X176539187Y-93955433D01*
X176682044Y-93907813D01*
X176777282Y-93812575D01*
X176824901Y-93669718D01*
X176824901Y-93574480D01*
X176920139Y-95098290D02*
X176872520Y-95003052D01*
X176777282Y-94907814D01*
X176634425Y-94764957D01*
X176586806Y-94669718D01*
X176586806Y-94574480D01*
X176824901Y-94622099D02*
X176777282Y-94526861D01*
X176682044Y-94431623D01*
X176491568Y-94384004D01*
X176158234Y-94384004D01*
X175967758Y-94431623D01*
X175872520Y-94526861D01*
X175824901Y-94622099D01*
X175824901Y-94812576D01*
X175872520Y-94907814D01*
X175967758Y-95003052D01*
X176158234Y-95050671D01*
X176491568Y-95050671D01*
X176682044Y-95003052D01*
X176777282Y-94907814D01*
X176824901Y-94812576D01*
X176824901Y-94622099D01*
X175824901Y-95907814D02*
X175824901Y-95717337D01*
X175872520Y-95622099D01*
X175920139Y-95574480D01*
X176062996Y-95479242D01*
X176253472Y-95431623D01*
X176634425Y-95431623D01*
X176729663Y-95479242D01*
X176777282Y-95526861D01*
X176824901Y-95622099D01*
X176824901Y-95812576D01*
X176777282Y-95907814D01*
X176729663Y-95955433D01*
X176634425Y-96003052D01*
X176396330Y-96003052D01*
X176301091Y-95955433D01*
X176253472Y-95907814D01*
X176205853Y-95812576D01*
X176205853Y-95622099D01*
X176253472Y-95526861D01*
X176301091Y-95479242D01*
X176396330Y-95431623D01*
X175824901Y-96907814D02*
X175824901Y-96431623D01*
X176301091Y-96384004D01*
X176253472Y-96431623D01*
X176205853Y-96526861D01*
X176205853Y-96764957D01*
X176253472Y-96860195D01*
X176301091Y-96907814D01*
X176396330Y-96955433D01*
X176634425Y-96955433D01*
X176729663Y-96907814D01*
X176777282Y-96860195D01*
X176824901Y-96764957D01*
X176824901Y-96526861D01*
X176777282Y-96431623D01*
X176729663Y-96384004D01*
X175824901Y-97574480D02*
X175824901Y-97669719D01*
X175872520Y-97764957D01*
X175920139Y-97812576D01*
X176015377Y-97860195D01*
X176205853Y-97907814D01*
X176443949Y-97907814D01*
X176634425Y-97860195D01*
X176729663Y-97812576D01*
X176777282Y-97764957D01*
X176824901Y-97669719D01*
X176824901Y-97574480D01*
X176777282Y-97479242D01*
X176729663Y-97431623D01*
X176634425Y-97384004D01*
X176443949Y-97336385D01*
X176205853Y-97336385D01*
X176015377Y-97384004D01*
X175920139Y-97431623D01*
X175872520Y-97479242D01*
X175824901Y-97574480D01*
X175824901Y-98526861D02*
X175824901Y-98622100D01*
X175872520Y-98717338D01*
X175920139Y-98764957D01*
X176015377Y-98812576D01*
X176205853Y-98860195D01*
X176443949Y-98860195D01*
X176634425Y-98812576D01*
X176729663Y-98764957D01*
X176777282Y-98717338D01*
X176824901Y-98622100D01*
X176824901Y-98526861D01*
X176777282Y-98431623D01*
X176729663Y-98384004D01*
X176634425Y-98336385D01*
X176443949Y-98288766D01*
X176205853Y-98288766D01*
X176015377Y-98336385D01*
X175920139Y-98384004D01*
X175872520Y-98431623D01*
X175824901Y-98526861D01*
X176920139Y-99050671D02*
X176920139Y-99812576D01*
X175920139Y-100003052D02*
X175872520Y-100050671D01*
X175824901Y-100145909D01*
X175824901Y-100384005D01*
X175872520Y-100479243D01*
X175920139Y-100526862D01*
X176015377Y-100574481D01*
X176110615Y-100574481D01*
X176253472Y-100526862D01*
X176824901Y-99955433D01*
X176824901Y-100574481D01*
X176253472Y-101145909D02*
X176205853Y-101050671D01*
X176158234Y-101003052D01*
X176062996Y-100955433D01*
X176015377Y-100955433D01*
X175920139Y-101003052D01*
X175872520Y-101050671D01*
X175824901Y-101145909D01*
X175824901Y-101336386D01*
X175872520Y-101431624D01*
X175920139Y-101479243D01*
X176015377Y-101526862D01*
X176062996Y-101526862D01*
X176158234Y-101479243D01*
X176205853Y-101431624D01*
X176253472Y-101336386D01*
X176253472Y-101145909D01*
X176301091Y-101050671D01*
X176348710Y-101003052D01*
X176443949Y-100955433D01*
X176634425Y-100955433D01*
X176729663Y-101003052D01*
X176777282Y-101050671D01*
X176824901Y-101145909D01*
X176824901Y-101336386D01*
X176777282Y-101431624D01*
X176729663Y-101479243D01*
X176634425Y-101526862D01*
X176443949Y-101526862D01*
X176348710Y-101479243D01*
X176301091Y-101431624D01*
X176253472Y-101336386D01*
X176824901Y-101955433D02*
X175824901Y-101955433D01*
X175824901Y-102336386D01*
X175872520Y-102431624D01*
X175920139Y-102479243D01*
X176015377Y-102526862D01*
X176158234Y-102526862D01*
X176253472Y-102479243D01*
X176301091Y-102431624D01*
X176348710Y-102336386D01*
X176348710Y-101955433D01*
X213527901Y-107194861D02*
X213527901Y-106623432D01*
X213527901Y-106909146D02*
X212527901Y-106909146D01*
X212670758Y-106813908D01*
X212765996Y-106718670D01*
X212813615Y-106623432D01*
X212527901Y-107813908D02*
X212527901Y-107909147D01*
X212575520Y-108004385D01*
X212623139Y-108052004D01*
X212718377Y-108099623D01*
X212908853Y-108147242D01*
X213146949Y-108147242D01*
X213337425Y-108099623D01*
X213432663Y-108052004D01*
X213480282Y-108004385D01*
X213527901Y-107909147D01*
X213527901Y-107813908D01*
X213480282Y-107718670D01*
X213432663Y-107671051D01*
X213337425Y-107623432D01*
X213146949Y-107575813D01*
X212908853Y-107575813D01*
X212718377Y-107623432D01*
X212623139Y-107671051D01*
X212575520Y-107718670D01*
X212527901Y-107813908D01*
X212527901Y-108766289D02*
X212527901Y-108861528D01*
X212575520Y-108956766D01*
X212623139Y-109004385D01*
X212718377Y-109052004D01*
X212908853Y-109099623D01*
X213146949Y-109099623D01*
X213337425Y-109052004D01*
X213432663Y-109004385D01*
X213480282Y-108956766D01*
X213527901Y-108861528D01*
X213527901Y-108766289D01*
X213480282Y-108671051D01*
X213432663Y-108623432D01*
X213337425Y-108575813D01*
X213146949Y-108528194D01*
X212908853Y-108528194D01*
X212718377Y-108575813D01*
X212623139Y-108623432D01*
X212575520Y-108671051D01*
X212527901Y-108766289D01*
X212861234Y-109528194D02*
X213527901Y-109528194D01*
X212956472Y-109528194D02*
X212908853Y-109575813D01*
X212861234Y-109671051D01*
X212861234Y-109813909D01*
X212908853Y-109909147D01*
X213004091Y-109956766D01*
X213527901Y-109956766D01*
X213004091Y-110766290D02*
X213004091Y-110432956D01*
X213527901Y-110432956D02*
X212527901Y-110432956D01*
X212527901Y-110909147D01*
X187349996Y-103606861D02*
X187921425Y-103606861D01*
X187635711Y-103606861D02*
X187635711Y-102606861D01*
X187730949Y-102749718D01*
X187826187Y-102844956D01*
X187921425Y-102892575D01*
X186730949Y-102606861D02*
X186635710Y-102606861D01*
X186540472Y-102654480D01*
X186492853Y-102702099D01*
X186445234Y-102797337D01*
X186397615Y-102987813D01*
X186397615Y-103225909D01*
X186445234Y-103416385D01*
X186492853Y-103511623D01*
X186540472Y-103559242D01*
X186635710Y-103606861D01*
X186730949Y-103606861D01*
X186826187Y-103559242D01*
X186873806Y-103511623D01*
X186921425Y-103416385D01*
X186969044Y-103225909D01*
X186969044Y-102987813D01*
X186921425Y-102797337D01*
X186873806Y-102702099D01*
X186826187Y-102654480D01*
X186730949Y-102606861D01*
X185969044Y-103606861D02*
X185969044Y-102606861D01*
X185397615Y-103606861D02*
X185826187Y-103035432D01*
X185397615Y-102606861D02*
X185969044Y-103178290D01*
X187349996Y-107416861D02*
X187921425Y-107416861D01*
X187635711Y-107416861D02*
X187635711Y-106416861D01*
X187730949Y-106559718D01*
X187826187Y-106654956D01*
X187921425Y-106702575D01*
X186730949Y-106416861D02*
X186635710Y-106416861D01*
X186540472Y-106464480D01*
X186492853Y-106512099D01*
X186445234Y-106607337D01*
X186397615Y-106797813D01*
X186397615Y-107035909D01*
X186445234Y-107226385D01*
X186492853Y-107321623D01*
X186540472Y-107369242D01*
X186635710Y-107416861D01*
X186730949Y-107416861D01*
X186826187Y-107369242D01*
X186873806Y-107321623D01*
X186921425Y-107226385D01*
X186969044Y-107035909D01*
X186969044Y-106797813D01*
X186921425Y-106607337D01*
X186873806Y-106512099D01*
X186826187Y-106464480D01*
X186730949Y-106416861D01*
X185969044Y-107416861D02*
X185969044Y-106416861D01*
X185397615Y-107416861D02*
X185826187Y-106845432D01*
X185397615Y-106416861D02*
X185969044Y-106988290D01*
X181904901Y-104654861D02*
X181904901Y-104083432D01*
X181904901Y-104369146D02*
X180904901Y-104369146D01*
X181047758Y-104273908D01*
X181142996Y-104178670D01*
X181190615Y-104083432D01*
X180904901Y-105273908D02*
X180904901Y-105369147D01*
X180952520Y-105464385D01*
X181000139Y-105512004D01*
X181095377Y-105559623D01*
X181285853Y-105607242D01*
X181523949Y-105607242D01*
X181714425Y-105559623D01*
X181809663Y-105512004D01*
X181857282Y-105464385D01*
X181904901Y-105369147D01*
X181904901Y-105273908D01*
X181857282Y-105178670D01*
X181809663Y-105131051D01*
X181714425Y-105083432D01*
X181523949Y-105035813D01*
X181285853Y-105035813D01*
X181095377Y-105083432D01*
X181000139Y-105131051D01*
X180952520Y-105178670D01*
X180904901Y-105273908D01*
X180904901Y-106226289D02*
X180904901Y-106321528D01*
X180952520Y-106416766D01*
X181000139Y-106464385D01*
X181095377Y-106512004D01*
X181285853Y-106559623D01*
X181523949Y-106559623D01*
X181714425Y-106512004D01*
X181809663Y-106464385D01*
X181857282Y-106416766D01*
X181904901Y-106321528D01*
X181904901Y-106226289D01*
X181857282Y-106131051D01*
X181809663Y-106083432D01*
X181714425Y-106035813D01*
X181523949Y-105988194D01*
X181285853Y-105988194D01*
X181095377Y-106035813D01*
X181000139Y-106083432D01*
X180952520Y-106131051D01*
X180904901Y-106226289D01*
X181238234Y-106988194D02*
X181904901Y-106988194D01*
X181333472Y-106988194D02*
X181285853Y-107035813D01*
X181238234Y-107131051D01*
X181238234Y-107273909D01*
X181285853Y-107369147D01*
X181381091Y-107416766D01*
X181904901Y-107416766D01*
X181381091Y-108226290D02*
X181381091Y-107892956D01*
X181904901Y-107892956D02*
X180904901Y-107892956D01*
X180904901Y-108369147D01*
X185079901Y-97669861D02*
X185079901Y-97098432D01*
X185079901Y-97384146D02*
X184079901Y-97384146D01*
X184222758Y-97288908D01*
X184317996Y-97193670D01*
X184365615Y-97098432D01*
X184079901Y-98288908D02*
X184079901Y-98384147D01*
X184127520Y-98479385D01*
X184175139Y-98527004D01*
X184270377Y-98574623D01*
X184460853Y-98622242D01*
X184698949Y-98622242D01*
X184889425Y-98574623D01*
X184984663Y-98527004D01*
X185032282Y-98479385D01*
X185079901Y-98384147D01*
X185079901Y-98288908D01*
X185032282Y-98193670D01*
X184984663Y-98146051D01*
X184889425Y-98098432D01*
X184698949Y-98050813D01*
X184460853Y-98050813D01*
X184270377Y-98098432D01*
X184175139Y-98146051D01*
X184127520Y-98193670D01*
X184079901Y-98288908D01*
X184079901Y-99241289D02*
X184079901Y-99336528D01*
X184127520Y-99431766D01*
X184175139Y-99479385D01*
X184270377Y-99527004D01*
X184460853Y-99574623D01*
X184698949Y-99574623D01*
X184889425Y-99527004D01*
X184984663Y-99479385D01*
X185032282Y-99431766D01*
X185079901Y-99336528D01*
X185079901Y-99241289D01*
X185032282Y-99146051D01*
X184984663Y-99098432D01*
X184889425Y-99050813D01*
X184698949Y-99003194D01*
X184460853Y-99003194D01*
X184270377Y-99050813D01*
X184175139Y-99098432D01*
X184127520Y-99146051D01*
X184079901Y-99241289D01*
X184413234Y-100003194D02*
X185079901Y-100003194D01*
X184508472Y-100003194D02*
X184460853Y-100050813D01*
X184413234Y-100146051D01*
X184413234Y-100288909D01*
X184460853Y-100384147D01*
X184556091Y-100431766D01*
X185079901Y-100431766D01*
X184556091Y-101241290D02*
X184556091Y-100907956D01*
X185079901Y-100907956D02*
X184079901Y-100907956D01*
X184079901Y-101384147D01*
X167553901Y-115576861D02*
X167553901Y-115005432D01*
X167553901Y-115291146D02*
X166553901Y-115291146D01*
X166696758Y-115195908D01*
X166791996Y-115100670D01*
X166839615Y-115005432D01*
X166553901Y-116195908D02*
X166553901Y-116291147D01*
X166601520Y-116386385D01*
X166649139Y-116434004D01*
X166744377Y-116481623D01*
X166934853Y-116529242D01*
X167172949Y-116529242D01*
X167363425Y-116481623D01*
X167458663Y-116434004D01*
X167506282Y-116386385D01*
X167553901Y-116291147D01*
X167553901Y-116195908D01*
X167506282Y-116100670D01*
X167458663Y-116053051D01*
X167363425Y-116005432D01*
X167172949Y-115957813D01*
X166934853Y-115957813D01*
X166744377Y-116005432D01*
X166649139Y-116053051D01*
X166601520Y-116100670D01*
X166553901Y-116195908D01*
X166553901Y-117148289D02*
X166553901Y-117243528D01*
X166601520Y-117338766D01*
X166649139Y-117386385D01*
X166744377Y-117434004D01*
X166934853Y-117481623D01*
X167172949Y-117481623D01*
X167363425Y-117434004D01*
X167458663Y-117386385D01*
X167506282Y-117338766D01*
X167553901Y-117243528D01*
X167553901Y-117148289D01*
X167506282Y-117053051D01*
X167458663Y-117005432D01*
X167363425Y-116957813D01*
X167172949Y-116910194D01*
X166934853Y-116910194D01*
X166744377Y-116957813D01*
X166649139Y-117005432D01*
X166601520Y-117053051D01*
X166553901Y-117148289D01*
X166887234Y-117910194D02*
X167553901Y-117910194D01*
X166982472Y-117910194D02*
X166934853Y-117957813D01*
X166887234Y-118053051D01*
X166887234Y-118195909D01*
X166934853Y-118291147D01*
X167030091Y-118338766D01*
X167553901Y-118338766D01*
X167030091Y-119148290D02*
X167030091Y-118814956D01*
X167553901Y-118814956D02*
X166553901Y-118814956D01*
X166553901Y-119291147D01*
X201129425Y-67142099D02*
X201081806Y-67094480D01*
X200986568Y-67046861D01*
X200748472Y-67046861D01*
X200653234Y-67094480D01*
X200605615Y-67142099D01*
X200557996Y-67237337D01*
X200557996Y-67332575D01*
X200605615Y-67475432D01*
X201177044Y-68046861D01*
X200557996Y-68046861D01*
X200177044Y-67142099D02*
X200129425Y-67094480D01*
X200034187Y-67046861D01*
X199796091Y-67046861D01*
X199700853Y-67094480D01*
X199653234Y-67142099D01*
X199605615Y-67237337D01*
X199605615Y-67332575D01*
X199653234Y-67475432D01*
X200224663Y-68046861D01*
X199605615Y-68046861D01*
X199177044Y-68046861D02*
X199177044Y-67046861D01*
X198605615Y-68046861D02*
X199034187Y-67475432D01*
X198605615Y-67046861D02*
X199177044Y-67618290D01*
X151504139Y-101574861D02*
X152075568Y-101574861D01*
X151789854Y-101574861D02*
X151789854Y-100574861D01*
X151885092Y-100717718D01*
X151980330Y-100812956D01*
X152075568Y-100860575D01*
X150885092Y-100574861D02*
X150789853Y-100574861D01*
X150694615Y-100622480D01*
X150646996Y-100670099D01*
X150599377Y-100765337D01*
X150551758Y-100955813D01*
X150551758Y-101193909D01*
X150599377Y-101384385D01*
X150646996Y-101479623D01*
X150694615Y-101527242D01*
X150789853Y-101574861D01*
X150885092Y-101574861D01*
X150980330Y-101527242D01*
X151027949Y-101479623D01*
X151075568Y-101384385D01*
X151123187Y-101193909D01*
X151123187Y-100955813D01*
X151075568Y-100765337D01*
X151027949Y-100670099D01*
X150980330Y-100622480D01*
X150885092Y-100574861D01*
X149932711Y-100574861D02*
X149837472Y-100574861D01*
X149742234Y-100622480D01*
X149694615Y-100670099D01*
X149646996Y-100765337D01*
X149599377Y-100955813D01*
X149599377Y-101193909D01*
X149646996Y-101384385D01*
X149694615Y-101479623D01*
X149742234Y-101527242D01*
X149837472Y-101574861D01*
X149932711Y-101574861D01*
X150027949Y-101527242D01*
X150075568Y-101479623D01*
X150123187Y-101384385D01*
X150170806Y-101193909D01*
X150170806Y-100955813D01*
X150123187Y-100765337D01*
X150075568Y-100670099D01*
X150027949Y-100622480D01*
X149932711Y-100574861D01*
X149170806Y-100908194D02*
X149170806Y-101574861D01*
X149170806Y-101003432D02*
X149123187Y-100955813D01*
X149027949Y-100908194D01*
X148885091Y-100908194D01*
X148789853Y-100955813D01*
X148742234Y-101051051D01*
X148742234Y-101574861D01*
X147932710Y-101051051D02*
X148266044Y-101051051D01*
X148266044Y-101574861D02*
X148266044Y-100574861D01*
X147789853Y-100574861D01*
X155568139Y-111861861D02*
X156139568Y-111861861D01*
X155853854Y-111861861D02*
X155853854Y-110861861D01*
X155949092Y-111004718D01*
X156044330Y-111099956D01*
X156139568Y-111147575D01*
X154949092Y-110861861D02*
X154853853Y-110861861D01*
X154758615Y-110909480D01*
X154710996Y-110957099D01*
X154663377Y-111052337D01*
X154615758Y-111242813D01*
X154615758Y-111480909D01*
X154663377Y-111671385D01*
X154710996Y-111766623D01*
X154758615Y-111814242D01*
X154853853Y-111861861D01*
X154949092Y-111861861D01*
X155044330Y-111814242D01*
X155091949Y-111766623D01*
X155139568Y-111671385D01*
X155187187Y-111480909D01*
X155187187Y-111242813D01*
X155139568Y-111052337D01*
X155091949Y-110957099D01*
X155044330Y-110909480D01*
X154949092Y-110861861D01*
X153996711Y-110861861D02*
X153901472Y-110861861D01*
X153806234Y-110909480D01*
X153758615Y-110957099D01*
X153710996Y-111052337D01*
X153663377Y-111242813D01*
X153663377Y-111480909D01*
X153710996Y-111671385D01*
X153758615Y-111766623D01*
X153806234Y-111814242D01*
X153901472Y-111861861D01*
X153996711Y-111861861D01*
X154091949Y-111814242D01*
X154139568Y-111766623D01*
X154187187Y-111671385D01*
X154234806Y-111480909D01*
X154234806Y-111242813D01*
X154187187Y-111052337D01*
X154139568Y-110957099D01*
X154091949Y-110909480D01*
X153996711Y-110861861D01*
X153234806Y-111195194D02*
X153234806Y-111861861D01*
X153234806Y-111290432D02*
X153187187Y-111242813D01*
X153091949Y-111195194D01*
X152949091Y-111195194D01*
X152853853Y-111242813D01*
X152806234Y-111338051D01*
X152806234Y-111861861D01*
X151996710Y-111338051D02*
X152330044Y-111338051D01*
X152330044Y-111861861D02*
X152330044Y-110861861D01*
X151853853Y-110861861D01*
X167934901Y-64141861D02*
X167934901Y-63570432D01*
X167934901Y-63856146D02*
X166934901Y-63856146D01*
X167077758Y-63760908D01*
X167172996Y-63665670D01*
X167220615Y-63570432D01*
X166934901Y-64760908D02*
X166934901Y-64856147D01*
X166982520Y-64951385D01*
X167030139Y-64999004D01*
X167125377Y-65046623D01*
X167315853Y-65094242D01*
X167553949Y-65094242D01*
X167744425Y-65046623D01*
X167839663Y-64999004D01*
X167887282Y-64951385D01*
X167934901Y-64856147D01*
X167934901Y-64760908D01*
X167887282Y-64665670D01*
X167839663Y-64618051D01*
X167744425Y-64570432D01*
X167553949Y-64522813D01*
X167315853Y-64522813D01*
X167125377Y-64570432D01*
X167030139Y-64618051D01*
X166982520Y-64665670D01*
X166934901Y-64760908D01*
X166934901Y-65713289D02*
X166934901Y-65808528D01*
X166982520Y-65903766D01*
X167030139Y-65951385D01*
X167125377Y-65999004D01*
X167315853Y-66046623D01*
X167553949Y-66046623D01*
X167744425Y-65999004D01*
X167839663Y-65951385D01*
X167887282Y-65903766D01*
X167934901Y-65808528D01*
X167934901Y-65713289D01*
X167887282Y-65618051D01*
X167839663Y-65570432D01*
X167744425Y-65522813D01*
X167553949Y-65475194D01*
X167315853Y-65475194D01*
X167125377Y-65522813D01*
X167030139Y-65570432D01*
X166982520Y-65618051D01*
X166934901Y-65713289D01*
X167268234Y-66475194D02*
X167934901Y-66475194D01*
X167363472Y-66475194D02*
X167315853Y-66522813D01*
X167268234Y-66618051D01*
X167268234Y-66760909D01*
X167315853Y-66856147D01*
X167411091Y-66903766D01*
X167934901Y-66903766D01*
X167411091Y-67713290D02*
X167411091Y-67379956D01*
X167934901Y-67379956D02*
X166934901Y-67379956D01*
X166934901Y-67856147D01*
X169744663Y-65046623D02*
X169792282Y-64999004D01*
X169839901Y-64856147D01*
X169839901Y-64760909D01*
X169792282Y-64618051D01*
X169697044Y-64522813D01*
X169601806Y-64475194D01*
X169411330Y-64427575D01*
X169268472Y-64427575D01*
X169077996Y-64475194D01*
X168982758Y-64522813D01*
X168887520Y-64618051D01*
X168839901Y-64760909D01*
X168839901Y-64856147D01*
X168887520Y-64999004D01*
X168935139Y-65046623D01*
X169839901Y-65999004D02*
X169839901Y-65427575D01*
X169839901Y-65713289D02*
X168839901Y-65713289D01*
X168982758Y-65618051D01*
X169077996Y-65522813D01*
X169125615Y-65427575D01*
X168839901Y-66618051D02*
X168839901Y-66713290D01*
X168887520Y-66808528D01*
X168935139Y-66856147D01*
X169030377Y-66903766D01*
X169220853Y-66951385D01*
X169458949Y-66951385D01*
X169649425Y-66903766D01*
X169744663Y-66856147D01*
X169792282Y-66808528D01*
X169839901Y-66713290D01*
X169839901Y-66618051D01*
X169792282Y-66522813D01*
X169744663Y-66475194D01*
X169649425Y-66427575D01*
X169458949Y-66379956D01*
X169220853Y-66379956D01*
X169030377Y-66427575D01*
X168935139Y-66475194D01*
X168887520Y-66522813D01*
X168839901Y-66618051D01*
X197779901Y-78746766D02*
X196779901Y-78746766D01*
X197256091Y-78746766D02*
X197256091Y-79318195D01*
X197779901Y-79318195D02*
X196779901Y-79318195D01*
X197779901Y-79794385D02*
X196779901Y-79794385D01*
X196779901Y-80175338D01*
X196827520Y-80270576D01*
X196875139Y-80318195D01*
X196970377Y-80365814D01*
X197113234Y-80365814D01*
X197208472Y-80318195D01*
X197256091Y-80270576D01*
X197303710Y-80175338D01*
X197303710Y-79794385D01*
X212146901Y-114370290D02*
X212146901Y-113894099D01*
X212623091Y-113846480D01*
X212575472Y-113894099D01*
X212527853Y-113989337D01*
X212527853Y-114227433D01*
X212575472Y-114322671D01*
X212623091Y-114370290D01*
X212718330Y-114417909D01*
X212956425Y-114417909D01*
X213051663Y-114370290D01*
X213099282Y-114322671D01*
X213146901Y-114227433D01*
X213146901Y-113989337D01*
X213099282Y-113894099D01*
X213051663Y-113846480D01*
X213051663Y-114846480D02*
X213099282Y-114894099D01*
X213146901Y-114846480D01*
X213099282Y-114798861D01*
X213051663Y-114846480D01*
X213146901Y-114846480D01*
X213146901Y-115846480D02*
X213146901Y-115275051D01*
X213146901Y-115560765D02*
X212146901Y-115560765D01*
X212289758Y-115465527D01*
X212384996Y-115370289D01*
X212432615Y-115275051D01*
X213146901Y-116275051D02*
X212146901Y-116275051D01*
X213146901Y-116846480D02*
X212575472Y-116417908D01*
X212146901Y-116846480D02*
X212718330Y-116275051D01*
X157235234Y-104146766D02*
X157901901Y-104146766D01*
X156854282Y-103908670D02*
X157568568Y-103670575D01*
X157568568Y-104289623D01*
X156901901Y-104575337D02*
X156901901Y-105242004D01*
X157901901Y-104813432D01*
X157901901Y-105622956D02*
X156901901Y-105622956D01*
X157901901Y-106194385D02*
X157330472Y-105765813D01*
X156901901Y-106194385D02*
X157473330Y-105622956D01*
X157235234Y-69983766D02*
X157901901Y-69983766D01*
X156854282Y-69745670D02*
X157568568Y-69507575D01*
X157568568Y-70126623D01*
X156901901Y-70412337D02*
X156901901Y-71079004D01*
X157901901Y-70650432D01*
X157901901Y-71459956D02*
X156901901Y-71459956D01*
X157901901Y-72031385D02*
X157330472Y-71602813D01*
X156901901Y-72031385D02*
X157473330Y-71459956D01*
X219242901Y-64205718D02*
X219242901Y-63729527D01*
X218242901Y-63729527D01*
X219242901Y-64539051D02*
X218242901Y-64539051D01*
X218242901Y-64777146D01*
X218290520Y-64920004D01*
X218385758Y-65015242D01*
X218480996Y-65062861D01*
X218671472Y-65110480D01*
X218814330Y-65110480D01*
X219004806Y-65062861D01*
X219100044Y-65015242D01*
X219195282Y-64920004D01*
X219242901Y-64777146D01*
X219242901Y-64539051D01*
X219242901Y-66062861D02*
X219242901Y-65491432D01*
X219242901Y-65777146D02*
X218242901Y-65777146D01*
X218385758Y-65681908D01*
X218480996Y-65586670D01*
X218528615Y-65491432D01*
X219242901Y-67015242D02*
X219242901Y-66443813D01*
X219242901Y-66729527D02*
X218242901Y-66729527D01*
X218385758Y-66634289D01*
X218480996Y-66539051D01*
X218528615Y-66443813D01*
X219242901Y-67967623D02*
X219242901Y-67396194D01*
X219242901Y-67681908D02*
X218242901Y-67681908D01*
X218385758Y-67586670D01*
X218480996Y-67491432D01*
X218528615Y-67396194D01*
X218242901Y-68300956D02*
X218242901Y-68967623D01*
X219242901Y-68539051D01*
X219195282Y-69300956D02*
X219242901Y-69443813D01*
X219242901Y-69681909D01*
X219195282Y-69777147D01*
X219147663Y-69824766D01*
X219052425Y-69872385D01*
X218957187Y-69872385D01*
X218861949Y-69824766D01*
X218814330Y-69777147D01*
X218766710Y-69681909D01*
X218719091Y-69491432D01*
X218671472Y-69396194D01*
X218623853Y-69348575D01*
X218528615Y-69300956D01*
X218433377Y-69300956D01*
X218338139Y-69348575D01*
X218290520Y-69396194D01*
X218242901Y-69491432D01*
X218242901Y-69729528D01*
X218290520Y-69872385D01*
X218242901Y-70205718D02*
X218242901Y-70824766D01*
X218623853Y-70491432D01*
X218623853Y-70634290D01*
X218671472Y-70729528D01*
X218719091Y-70777147D01*
X218814330Y-70824766D01*
X219052425Y-70824766D01*
X219147663Y-70777147D01*
X219195282Y-70729528D01*
X219242901Y-70634290D01*
X219242901Y-70348575D01*
X219195282Y-70253337D01*
X219147663Y-70205718D01*
X218242901Y-71158099D02*
X218242901Y-71777147D01*
X218623853Y-71443813D01*
X218623853Y-71586671D01*
X218671472Y-71681909D01*
X218719091Y-71729528D01*
X218814330Y-71777147D01*
X219052425Y-71777147D01*
X219147663Y-71729528D01*
X219195282Y-71681909D01*
X219242901Y-71586671D01*
X219242901Y-71300956D01*
X219195282Y-71205718D01*
X219147663Y-71158099D01*
X218242901Y-72062861D02*
X218242901Y-72634290D01*
X219242901Y-72348575D02*
X218242901Y-72348575D01*
X219242901Y-73539052D02*
X218766710Y-73205718D01*
X219242901Y-72967623D02*
X218242901Y-72967623D01*
X218242901Y-73348576D01*
X218290520Y-73443814D01*
X218338139Y-73491433D01*
X218433377Y-73539052D01*
X218576234Y-73539052D01*
X218671472Y-73491433D01*
X218719091Y-73443814D01*
X218766710Y-73348576D01*
X218766710Y-72967623D01*
X152171139Y-85128623D02*
X152123520Y-85176242D01*
X152075901Y-85271480D01*
X152075901Y-85509576D01*
X152123520Y-85604814D01*
X152171139Y-85652433D01*
X152266377Y-85700052D01*
X152361615Y-85700052D01*
X152504472Y-85652433D01*
X153075901Y-85081004D01*
X153075901Y-85700052D01*
X152171139Y-86081004D02*
X152123520Y-86128623D01*
X152075901Y-86223861D01*
X152075901Y-86461957D01*
X152123520Y-86557195D01*
X152171139Y-86604814D01*
X152266377Y-86652433D01*
X152361615Y-86652433D01*
X152504472Y-86604814D01*
X153075901Y-86033385D01*
X153075901Y-86652433D01*
X152409234Y-87081004D02*
X153075901Y-87081004D01*
X152504472Y-87081004D02*
X152456853Y-87128623D01*
X152409234Y-87223861D01*
X152409234Y-87366719D01*
X152456853Y-87461957D01*
X152552091Y-87509576D01*
X153075901Y-87509576D01*
X152552091Y-88319100D02*
X152552091Y-87985766D01*
X153075901Y-87985766D02*
X152075901Y-87985766D01*
X152075901Y-88461957D01*
X159759186Y-109321861D02*
X160330615Y-109321861D01*
X160044901Y-109321861D02*
X160044901Y-108321861D01*
X160140139Y-108464718D01*
X160235377Y-108559956D01*
X160330615Y-108607575D01*
X159378234Y-108417099D02*
X159330615Y-108369480D01*
X159235377Y-108321861D01*
X158997281Y-108321861D01*
X158902043Y-108369480D01*
X158854424Y-108417099D01*
X158806805Y-108512337D01*
X158806805Y-108607575D01*
X158854424Y-108750432D01*
X159425853Y-109321861D01*
X158806805Y-109321861D01*
X158187758Y-108321861D02*
X158092519Y-108321861D01*
X157997281Y-108369480D01*
X157949662Y-108417099D01*
X157902043Y-108512337D01*
X157854424Y-108702813D01*
X157854424Y-108940909D01*
X157902043Y-109131385D01*
X157949662Y-109226623D01*
X157997281Y-109274242D01*
X158092519Y-109321861D01*
X158187758Y-109321861D01*
X158282996Y-109274242D01*
X158330615Y-109226623D01*
X158378234Y-109131385D01*
X158425853Y-108940909D01*
X158425853Y-108702813D01*
X158378234Y-108512337D01*
X158330615Y-108417099D01*
X158282996Y-108369480D01*
X158187758Y-108321861D01*
X157425853Y-109321861D02*
X157425853Y-108321861D01*
X156854424Y-109321861D02*
X157282996Y-108750432D01*
X156854424Y-108321861D02*
X157425853Y-108893290D01*
D14*
X159042520Y-107916147D02*
X159275854Y-107582813D01*
X159442520Y-107916147D02*
X159442520Y-107216147D01*
X159175854Y-107216147D01*
X159109187Y-107249480D01*
X159075854Y-107282813D01*
X159042520Y-107349480D01*
X159042520Y-107449480D01*
X159075854Y-107516147D01*
X159109187Y-107549480D01*
X159175854Y-107582813D01*
X159442520Y-107582813D01*
X158375854Y-107916147D02*
X158775854Y-107916147D01*
X158575854Y-107916147D02*
X158575854Y-107216147D01*
X158642520Y-107316147D01*
X158709187Y-107382813D01*
X158775854Y-107416147D01*
X157775853Y-107449480D02*
X157775853Y-107916147D01*
X157942520Y-107182813D02*
X158109187Y-107682813D01*
X157675853Y-107682813D01*
D13*
X210845139Y-78032480D02*
X210797520Y-78080099D01*
X210749901Y-78175337D01*
X210749901Y-78413433D01*
X210797520Y-78508671D01*
X210845139Y-78556290D01*
X210940377Y-78603909D01*
X211035615Y-78603909D01*
X211178472Y-78556290D01*
X211749901Y-77984861D01*
X211749901Y-78603909D01*
X211654663Y-79032480D02*
X211702282Y-79080099D01*
X211749901Y-79032480D01*
X211702282Y-78984861D01*
X211654663Y-79032480D01*
X211749901Y-79032480D01*
X210749901Y-79413432D02*
X210749901Y-80080099D01*
X211749901Y-79651527D01*
X211749901Y-80461051D02*
X210749901Y-80461051D01*
X211749901Y-81032480D02*
X211178472Y-80603908D01*
X210749901Y-81032480D02*
X211321330Y-80461051D01*
X208336901Y-78556290D02*
X208336901Y-78080099D01*
X208813091Y-78032480D01*
X208765472Y-78080099D01*
X208717853Y-78175337D01*
X208717853Y-78413433D01*
X208765472Y-78508671D01*
X208813091Y-78556290D01*
X208908330Y-78603909D01*
X209146425Y-78603909D01*
X209241663Y-78556290D01*
X209289282Y-78508671D01*
X209336901Y-78413433D01*
X209336901Y-78175337D01*
X209289282Y-78080099D01*
X209241663Y-78032480D01*
X209241663Y-79032480D02*
X209289282Y-79080099D01*
X209336901Y-79032480D01*
X209289282Y-78984861D01*
X209241663Y-79032480D01*
X209336901Y-79032480D01*
X209336901Y-80032480D02*
X209336901Y-79461051D01*
X209336901Y-79746765D02*
X208336901Y-79746765D01*
X208479758Y-79651527D01*
X208574996Y-79556289D01*
X208622615Y-79461051D01*
X209336901Y-80461051D02*
X208336901Y-80461051D01*
X209336901Y-81032480D02*
X208765472Y-80603908D01*
X208336901Y-81032480D02*
X208908330Y-80461051D01*
X211241901Y-96272861D02*
X211241901Y-95701432D01*
X211241901Y-95987146D02*
X210241901Y-95987146D01*
X210384758Y-95891908D01*
X210479996Y-95796670D01*
X210527615Y-95701432D01*
X210241901Y-96891908D02*
X210241901Y-96987147D01*
X210289520Y-97082385D01*
X210337139Y-97130004D01*
X210432377Y-97177623D01*
X210622853Y-97225242D01*
X210860949Y-97225242D01*
X211051425Y-97177623D01*
X211146663Y-97130004D01*
X211194282Y-97082385D01*
X211241901Y-96987147D01*
X211241901Y-96891908D01*
X211194282Y-96796670D01*
X211146663Y-96749051D01*
X211051425Y-96701432D01*
X210860949Y-96653813D01*
X210622853Y-96653813D01*
X210432377Y-96701432D01*
X210337139Y-96749051D01*
X210289520Y-96796670D01*
X210241901Y-96891908D01*
X210241901Y-97844289D02*
X210241901Y-97939528D01*
X210289520Y-98034766D01*
X210337139Y-98082385D01*
X210432377Y-98130004D01*
X210622853Y-98177623D01*
X210860949Y-98177623D01*
X211051425Y-98130004D01*
X211146663Y-98082385D01*
X211194282Y-98034766D01*
X211241901Y-97939528D01*
X211241901Y-97844289D01*
X211194282Y-97749051D01*
X211146663Y-97701432D01*
X211051425Y-97653813D01*
X210860949Y-97606194D01*
X210622853Y-97606194D01*
X210432377Y-97653813D01*
X210337139Y-97701432D01*
X210289520Y-97749051D01*
X210241901Y-97844289D01*
X210575234Y-98606194D02*
X211241901Y-98606194D01*
X210670472Y-98606194D02*
X210622853Y-98653813D01*
X210575234Y-98749051D01*
X210575234Y-98891909D01*
X210622853Y-98987147D01*
X210718091Y-99034766D01*
X211241901Y-99034766D01*
X210718091Y-99844290D02*
X210718091Y-99510956D01*
X211241901Y-99510956D02*
X210241901Y-99510956D01*
X210241901Y-99987147D01*
X148884901Y-73031861D02*
X148884901Y-72460432D01*
X148884901Y-72746146D02*
X147884901Y-72746146D01*
X148027758Y-72650908D01*
X148122996Y-72555670D01*
X148170615Y-72460432D01*
X147884901Y-73650908D02*
X147884901Y-73746147D01*
X147932520Y-73841385D01*
X147980139Y-73889004D01*
X148075377Y-73936623D01*
X148265853Y-73984242D01*
X148503949Y-73984242D01*
X148694425Y-73936623D01*
X148789663Y-73889004D01*
X148837282Y-73841385D01*
X148884901Y-73746147D01*
X148884901Y-73650908D01*
X148837282Y-73555670D01*
X148789663Y-73508051D01*
X148694425Y-73460432D01*
X148503949Y-73412813D01*
X148265853Y-73412813D01*
X148075377Y-73460432D01*
X147980139Y-73508051D01*
X147932520Y-73555670D01*
X147884901Y-73650908D01*
X147884901Y-74603289D02*
X147884901Y-74698528D01*
X147932520Y-74793766D01*
X147980139Y-74841385D01*
X148075377Y-74889004D01*
X148265853Y-74936623D01*
X148503949Y-74936623D01*
X148694425Y-74889004D01*
X148789663Y-74841385D01*
X148837282Y-74793766D01*
X148884901Y-74698528D01*
X148884901Y-74603289D01*
X148837282Y-74508051D01*
X148789663Y-74460432D01*
X148694425Y-74412813D01*
X148503949Y-74365194D01*
X148265853Y-74365194D01*
X148075377Y-74412813D01*
X147980139Y-74460432D01*
X147932520Y-74508051D01*
X147884901Y-74603289D01*
X148218234Y-75365194D02*
X148884901Y-75365194D01*
X148313472Y-75365194D02*
X148265853Y-75412813D01*
X148218234Y-75508051D01*
X148218234Y-75650909D01*
X148265853Y-75746147D01*
X148361091Y-75793766D01*
X148884901Y-75793766D01*
X148361091Y-76603290D02*
X148361091Y-76269956D01*
X148884901Y-76269956D02*
X147884901Y-76269956D01*
X147884901Y-76746147D01*
X152171139Y-90970623D02*
X152123520Y-91018242D01*
X152075901Y-91113480D01*
X152075901Y-91351576D01*
X152123520Y-91446814D01*
X152171139Y-91494433D01*
X152266377Y-91542052D01*
X152361615Y-91542052D01*
X152504472Y-91494433D01*
X153075901Y-90923004D01*
X153075901Y-91542052D01*
X152171139Y-91923004D02*
X152123520Y-91970623D01*
X152075901Y-92065861D01*
X152075901Y-92303957D01*
X152123520Y-92399195D01*
X152171139Y-92446814D01*
X152266377Y-92494433D01*
X152361615Y-92494433D01*
X152504472Y-92446814D01*
X153075901Y-91875385D01*
X153075901Y-92494433D01*
X152409234Y-92923004D02*
X153075901Y-92923004D01*
X152504472Y-92923004D02*
X152456853Y-92970623D01*
X152409234Y-93065861D01*
X152409234Y-93208719D01*
X152456853Y-93303957D01*
X152552091Y-93351576D01*
X153075901Y-93351576D01*
X152552091Y-94161100D02*
X152552091Y-93827766D01*
X153075901Y-93827766D02*
X152075901Y-93827766D01*
X152075901Y-94303957D01*
X223703710Y-109591861D02*
X224179901Y-109591861D01*
X224227520Y-110068051D01*
X224179901Y-110020432D01*
X224084663Y-109972813D01*
X223846567Y-109972813D01*
X223751329Y-110020432D01*
X223703710Y-110068051D01*
X223656091Y-110163290D01*
X223656091Y-110401385D01*
X223703710Y-110496623D01*
X223751329Y-110544242D01*
X223846567Y-110591861D01*
X224084663Y-110591861D01*
X224179901Y-110544242D01*
X224227520Y-110496623D01*
X223227520Y-110496623D02*
X223179901Y-110544242D01*
X223227520Y-110591861D01*
X223275139Y-110544242D01*
X223227520Y-110496623D01*
X223227520Y-110591861D01*
X222227520Y-110591861D02*
X222798949Y-110591861D01*
X222513235Y-110591861D02*
X222513235Y-109591861D01*
X222608473Y-109734718D01*
X222703711Y-109829956D01*
X222798949Y-109877575D01*
X221798949Y-110591861D02*
X221798949Y-109591861D01*
X221227520Y-110591861D02*
X221656092Y-110020432D01*
X221227520Y-109591861D02*
X221798949Y-110163290D01*
X164585186Y-75031861D02*
X165156615Y-75031861D01*
X164870901Y-75031861D02*
X164870901Y-74031861D01*
X164966139Y-74174718D01*
X165061377Y-74269956D01*
X165156615Y-74317575D01*
X164204234Y-74127099D02*
X164156615Y-74079480D01*
X164061377Y-74031861D01*
X163823281Y-74031861D01*
X163728043Y-74079480D01*
X163680424Y-74127099D01*
X163632805Y-74222337D01*
X163632805Y-74317575D01*
X163680424Y-74460432D01*
X164251853Y-75031861D01*
X163632805Y-75031861D01*
X163013758Y-74031861D02*
X162918519Y-74031861D01*
X162823281Y-74079480D01*
X162775662Y-74127099D01*
X162728043Y-74222337D01*
X162680424Y-74412813D01*
X162680424Y-74650909D01*
X162728043Y-74841385D01*
X162775662Y-74936623D01*
X162823281Y-74984242D01*
X162918519Y-75031861D01*
X163013758Y-75031861D01*
X163108996Y-74984242D01*
X163156615Y-74936623D01*
X163204234Y-74841385D01*
X163251853Y-74650909D01*
X163251853Y-74412813D01*
X163204234Y-74222337D01*
X163156615Y-74127099D01*
X163108996Y-74079480D01*
X163013758Y-74031861D01*
X162251853Y-75031861D02*
X162251853Y-74031861D01*
X161680424Y-75031861D02*
X162108996Y-74460432D01*
X161680424Y-74031861D02*
X162251853Y-74603290D01*
X211749901Y-72396861D02*
X211749901Y-71825432D01*
X211749901Y-72111146D02*
X210749901Y-72111146D01*
X210892758Y-72015908D01*
X210987996Y-71920670D01*
X211035615Y-71825432D01*
X210749901Y-73015908D02*
X210749901Y-73111147D01*
X210797520Y-73206385D01*
X210845139Y-73254004D01*
X210940377Y-73301623D01*
X211130853Y-73349242D01*
X211368949Y-73349242D01*
X211559425Y-73301623D01*
X211654663Y-73254004D01*
X211702282Y-73206385D01*
X211749901Y-73111147D01*
X211749901Y-73015908D01*
X211702282Y-72920670D01*
X211654663Y-72873051D01*
X211559425Y-72825432D01*
X211368949Y-72777813D01*
X211130853Y-72777813D01*
X210940377Y-72825432D01*
X210845139Y-72873051D01*
X210797520Y-72920670D01*
X210749901Y-73015908D01*
X210749901Y-73968289D02*
X210749901Y-74063528D01*
X210797520Y-74158766D01*
X210845139Y-74206385D01*
X210940377Y-74254004D01*
X211130853Y-74301623D01*
X211368949Y-74301623D01*
X211559425Y-74254004D01*
X211654663Y-74206385D01*
X211702282Y-74158766D01*
X211749901Y-74063528D01*
X211749901Y-73968289D01*
X211702282Y-73873051D01*
X211654663Y-73825432D01*
X211559425Y-73777813D01*
X211368949Y-73730194D01*
X211130853Y-73730194D01*
X210940377Y-73777813D01*
X210845139Y-73825432D01*
X210797520Y-73873051D01*
X210749901Y-73968289D01*
X211083234Y-74730194D02*
X211749901Y-74730194D01*
X211178472Y-74730194D02*
X211130853Y-74777813D01*
X211083234Y-74873051D01*
X211083234Y-75015909D01*
X211130853Y-75111147D01*
X211226091Y-75158766D01*
X211749901Y-75158766D01*
X211226091Y-75968290D02*
X211226091Y-75634956D01*
X211749901Y-75634956D02*
X210749901Y-75634956D01*
X210749901Y-76111147D01*
X224830901Y-79000861D02*
X224830901Y-78429432D01*
X224830901Y-78715146D02*
X223830901Y-78715146D01*
X223973758Y-78619908D01*
X224068996Y-78524670D01*
X224116615Y-78429432D01*
X223830901Y-79619908D02*
X223830901Y-79715147D01*
X223878520Y-79810385D01*
X223926139Y-79858004D01*
X224021377Y-79905623D01*
X224211853Y-79953242D01*
X224449949Y-79953242D01*
X224640425Y-79905623D01*
X224735663Y-79858004D01*
X224783282Y-79810385D01*
X224830901Y-79715147D01*
X224830901Y-79619908D01*
X224783282Y-79524670D01*
X224735663Y-79477051D01*
X224640425Y-79429432D01*
X224449949Y-79381813D01*
X224211853Y-79381813D01*
X224021377Y-79429432D01*
X223926139Y-79477051D01*
X223878520Y-79524670D01*
X223830901Y-79619908D01*
X223830901Y-80572289D02*
X223830901Y-80667528D01*
X223878520Y-80762766D01*
X223926139Y-80810385D01*
X224021377Y-80858004D01*
X224211853Y-80905623D01*
X224449949Y-80905623D01*
X224640425Y-80858004D01*
X224735663Y-80810385D01*
X224783282Y-80762766D01*
X224830901Y-80667528D01*
X224830901Y-80572289D01*
X224783282Y-80477051D01*
X224735663Y-80429432D01*
X224640425Y-80381813D01*
X224449949Y-80334194D01*
X224211853Y-80334194D01*
X224021377Y-80381813D01*
X223926139Y-80429432D01*
X223878520Y-80477051D01*
X223830901Y-80572289D01*
X224164234Y-81334194D02*
X224830901Y-81334194D01*
X224259472Y-81334194D02*
X224211853Y-81381813D01*
X224164234Y-81477051D01*
X224164234Y-81619909D01*
X224211853Y-81715147D01*
X224307091Y-81762766D01*
X224830901Y-81762766D01*
X224307091Y-82572290D02*
X224307091Y-82238956D01*
X224830901Y-82238956D02*
X223830901Y-82238956D01*
X223830901Y-82715147D01*
X148757901Y-78873861D02*
X148757901Y-78302432D01*
X148757901Y-78588146D02*
X147757901Y-78588146D01*
X147900758Y-78492908D01*
X147995996Y-78397670D01*
X148043615Y-78302432D01*
X147757901Y-79492908D02*
X147757901Y-79588147D01*
X147805520Y-79683385D01*
X147853139Y-79731004D01*
X147948377Y-79778623D01*
X148138853Y-79826242D01*
X148376949Y-79826242D01*
X148567425Y-79778623D01*
X148662663Y-79731004D01*
X148710282Y-79683385D01*
X148757901Y-79588147D01*
X148757901Y-79492908D01*
X148710282Y-79397670D01*
X148662663Y-79350051D01*
X148567425Y-79302432D01*
X148376949Y-79254813D01*
X148138853Y-79254813D01*
X147948377Y-79302432D01*
X147853139Y-79350051D01*
X147805520Y-79397670D01*
X147757901Y-79492908D01*
X147757901Y-80445289D02*
X147757901Y-80540528D01*
X147805520Y-80635766D01*
X147853139Y-80683385D01*
X147948377Y-80731004D01*
X148138853Y-80778623D01*
X148376949Y-80778623D01*
X148567425Y-80731004D01*
X148662663Y-80683385D01*
X148710282Y-80635766D01*
X148757901Y-80540528D01*
X148757901Y-80445289D01*
X148710282Y-80350051D01*
X148662663Y-80302432D01*
X148567425Y-80254813D01*
X148376949Y-80207194D01*
X148138853Y-80207194D01*
X147948377Y-80254813D01*
X147853139Y-80302432D01*
X147805520Y-80350051D01*
X147757901Y-80445289D01*
X148091234Y-81207194D02*
X148757901Y-81207194D01*
X148186472Y-81207194D02*
X148138853Y-81254813D01*
X148091234Y-81350051D01*
X148091234Y-81492909D01*
X148138853Y-81588147D01*
X148234091Y-81635766D01*
X148757901Y-81635766D01*
X148234091Y-82445290D02*
X148234091Y-82111956D01*
X148757901Y-82111956D02*
X147757901Y-82111956D01*
X147757901Y-82588147D01*
X145662139Y-81127861D02*
X146233568Y-81127861D01*
X145947854Y-81127861D02*
X145947854Y-80127861D01*
X146043092Y-80270718D01*
X146138330Y-80365956D01*
X146233568Y-80413575D01*
X145043092Y-80127861D02*
X144947853Y-80127861D01*
X144852615Y-80175480D01*
X144804996Y-80223099D01*
X144757377Y-80318337D01*
X144709758Y-80508813D01*
X144709758Y-80746909D01*
X144757377Y-80937385D01*
X144804996Y-81032623D01*
X144852615Y-81080242D01*
X144947853Y-81127861D01*
X145043092Y-81127861D01*
X145138330Y-81080242D01*
X145185949Y-81032623D01*
X145233568Y-80937385D01*
X145281187Y-80746909D01*
X145281187Y-80508813D01*
X145233568Y-80318337D01*
X145185949Y-80223099D01*
X145138330Y-80175480D01*
X145043092Y-80127861D01*
X144090711Y-80127861D02*
X143995472Y-80127861D01*
X143900234Y-80175480D01*
X143852615Y-80223099D01*
X143804996Y-80318337D01*
X143757377Y-80508813D01*
X143757377Y-80746909D01*
X143804996Y-80937385D01*
X143852615Y-81032623D01*
X143900234Y-81080242D01*
X143995472Y-81127861D01*
X144090711Y-81127861D01*
X144185949Y-81080242D01*
X144233568Y-81032623D01*
X144281187Y-80937385D01*
X144328806Y-80746909D01*
X144328806Y-80508813D01*
X144281187Y-80318337D01*
X144233568Y-80223099D01*
X144185949Y-80175480D01*
X144090711Y-80127861D01*
X143328806Y-80461194D02*
X143328806Y-81127861D01*
X143328806Y-80556432D02*
X143281187Y-80508813D01*
X143185949Y-80461194D01*
X143043091Y-80461194D01*
X142947853Y-80508813D01*
X142900234Y-80604051D01*
X142900234Y-81127861D01*
X142090710Y-80604051D02*
X142424044Y-80604051D01*
X142424044Y-81127861D02*
X142424044Y-80127861D01*
X141947853Y-80127861D01*
X145535139Y-71348861D02*
X146106568Y-71348861D01*
X145820854Y-71348861D02*
X145820854Y-70348861D01*
X145916092Y-70491718D01*
X146011330Y-70586956D01*
X146106568Y-70634575D01*
X144916092Y-70348861D02*
X144820853Y-70348861D01*
X144725615Y-70396480D01*
X144677996Y-70444099D01*
X144630377Y-70539337D01*
X144582758Y-70729813D01*
X144582758Y-70967909D01*
X144630377Y-71158385D01*
X144677996Y-71253623D01*
X144725615Y-71301242D01*
X144820853Y-71348861D01*
X144916092Y-71348861D01*
X145011330Y-71301242D01*
X145058949Y-71253623D01*
X145106568Y-71158385D01*
X145154187Y-70967909D01*
X145154187Y-70729813D01*
X145106568Y-70539337D01*
X145058949Y-70444099D01*
X145011330Y-70396480D01*
X144916092Y-70348861D01*
X143963711Y-70348861D02*
X143868472Y-70348861D01*
X143773234Y-70396480D01*
X143725615Y-70444099D01*
X143677996Y-70539337D01*
X143630377Y-70729813D01*
X143630377Y-70967909D01*
X143677996Y-71158385D01*
X143725615Y-71253623D01*
X143773234Y-71301242D01*
X143868472Y-71348861D01*
X143963711Y-71348861D01*
X144058949Y-71301242D01*
X144106568Y-71253623D01*
X144154187Y-71158385D01*
X144201806Y-70967909D01*
X144201806Y-70729813D01*
X144154187Y-70539337D01*
X144106568Y-70444099D01*
X144058949Y-70396480D01*
X143963711Y-70348861D01*
X143201806Y-70682194D02*
X143201806Y-71348861D01*
X143201806Y-70777432D02*
X143154187Y-70729813D01*
X143058949Y-70682194D01*
X142916091Y-70682194D01*
X142820853Y-70729813D01*
X142773234Y-70825051D01*
X142773234Y-71348861D01*
X141963710Y-70825051D02*
X142297044Y-70825051D01*
X142297044Y-71348861D02*
X142297044Y-70348861D01*
X141820853Y-70348861D01*
X209336901Y-72396861D02*
X209336901Y-71825432D01*
X209336901Y-72111146D02*
X208336901Y-72111146D01*
X208479758Y-72015908D01*
X208574996Y-71920670D01*
X208622615Y-71825432D01*
X208336901Y-73015908D02*
X208336901Y-73111147D01*
X208384520Y-73206385D01*
X208432139Y-73254004D01*
X208527377Y-73301623D01*
X208717853Y-73349242D01*
X208955949Y-73349242D01*
X209146425Y-73301623D01*
X209241663Y-73254004D01*
X209289282Y-73206385D01*
X209336901Y-73111147D01*
X209336901Y-73015908D01*
X209289282Y-72920670D01*
X209241663Y-72873051D01*
X209146425Y-72825432D01*
X208955949Y-72777813D01*
X208717853Y-72777813D01*
X208527377Y-72825432D01*
X208432139Y-72873051D01*
X208384520Y-72920670D01*
X208336901Y-73015908D01*
X208336901Y-73968289D02*
X208336901Y-74063528D01*
X208384520Y-74158766D01*
X208432139Y-74206385D01*
X208527377Y-74254004D01*
X208717853Y-74301623D01*
X208955949Y-74301623D01*
X209146425Y-74254004D01*
X209241663Y-74206385D01*
X209289282Y-74158766D01*
X209336901Y-74063528D01*
X209336901Y-73968289D01*
X209289282Y-73873051D01*
X209241663Y-73825432D01*
X209146425Y-73777813D01*
X208955949Y-73730194D01*
X208717853Y-73730194D01*
X208527377Y-73777813D01*
X208432139Y-73825432D01*
X208384520Y-73873051D01*
X208336901Y-73968289D01*
X208670234Y-74730194D02*
X209336901Y-74730194D01*
X208765472Y-74730194D02*
X208717853Y-74777813D01*
X208670234Y-74873051D01*
X208670234Y-75015909D01*
X208717853Y-75111147D01*
X208813091Y-75158766D01*
X209336901Y-75158766D01*
X208813091Y-75968290D02*
X208813091Y-75634956D01*
X209336901Y-75634956D02*
X208336901Y-75634956D01*
X208336901Y-76111147D01*
X214154615Y-95224861D02*
X214154615Y-94224861D01*
X213821281Y-94939147D01*
X213487948Y-94224861D01*
X213487948Y-95224861D01*
X212678424Y-94701051D02*
X212535567Y-94748670D01*
X212487948Y-94796290D01*
X212440329Y-94891528D01*
X212440329Y-95034385D01*
X212487948Y-95129623D01*
X212535567Y-95177242D01*
X212630805Y-95224861D01*
X213011758Y-95224861D01*
X213011758Y-94224861D01*
X212678424Y-94224861D01*
X212583186Y-94272480D01*
X212535567Y-94320099D01*
X212487948Y-94415337D01*
X212487948Y-94510575D01*
X212535567Y-94605813D01*
X212583186Y-94653432D01*
X212678424Y-94701051D01*
X213011758Y-94701051D01*
X211440329Y-95224861D02*
X211773663Y-94748670D01*
X212011758Y-95224861D02*
X212011758Y-94224861D01*
X211630805Y-94224861D01*
X211535567Y-94272480D01*
X211487948Y-94320099D01*
X211440329Y-94415337D01*
X211440329Y-94558194D01*
X211487948Y-94653432D01*
X211535567Y-94701051D01*
X211630805Y-94748670D01*
X212011758Y-94748670D01*
X210821282Y-94224861D02*
X210726043Y-94224861D01*
X210630805Y-94272480D01*
X210583186Y-94320099D01*
X210535567Y-94415337D01*
X210487948Y-94605813D01*
X210487948Y-94843909D01*
X210535567Y-95034385D01*
X210583186Y-95129623D01*
X210630805Y-95177242D01*
X210726043Y-95224861D01*
X210821282Y-95224861D01*
X210916520Y-95177242D01*
X210964139Y-95129623D01*
X211011758Y-95034385D01*
X211059377Y-94843909D01*
X211059377Y-94605813D01*
X211011758Y-94415337D01*
X210964139Y-94320099D01*
X210916520Y-94272480D01*
X210821282Y-94224861D01*
X209583186Y-94224861D02*
X210059377Y-94224861D01*
X210106996Y-94701051D01*
X210059377Y-94653432D01*
X209964139Y-94605813D01*
X209726043Y-94605813D01*
X209630805Y-94653432D01*
X209583186Y-94701051D01*
X209535567Y-94796290D01*
X209535567Y-95034385D01*
X209583186Y-95129623D01*
X209630805Y-95177242D01*
X209726043Y-95224861D01*
X209964139Y-95224861D01*
X210059377Y-95177242D01*
X210106996Y-95129623D01*
X209154615Y-94320099D02*
X209106996Y-94272480D01*
X209011758Y-94224861D01*
X208773662Y-94224861D01*
X208678424Y-94272480D01*
X208630805Y-94320099D01*
X208583186Y-94415337D01*
X208583186Y-94510575D01*
X208630805Y-94653432D01*
X209202234Y-95224861D01*
X208583186Y-95224861D01*
X207964139Y-94224861D02*
X207868900Y-94224861D01*
X207773662Y-94272480D01*
X207726043Y-94320099D01*
X207678424Y-94415337D01*
X207630805Y-94605813D01*
X207630805Y-94843909D01*
X207678424Y-95034385D01*
X207726043Y-95129623D01*
X207773662Y-95177242D01*
X207868900Y-95224861D01*
X207964139Y-95224861D01*
X208059377Y-95177242D01*
X208106996Y-95129623D01*
X208154615Y-95034385D01*
X208202234Y-94843909D01*
X208202234Y-94605813D01*
X208154615Y-94415337D01*
X208106996Y-94320099D01*
X208059377Y-94272480D01*
X207964139Y-94224861D01*
X209606901Y-114243290D02*
X209606901Y-113767099D01*
X210083091Y-113719480D01*
X210035472Y-113767099D01*
X209987853Y-113862337D01*
X209987853Y-114100433D01*
X210035472Y-114195671D01*
X210083091Y-114243290D01*
X210178330Y-114290909D01*
X210416425Y-114290909D01*
X210511663Y-114243290D01*
X210559282Y-114195671D01*
X210606901Y-114100433D01*
X210606901Y-113862337D01*
X210559282Y-113767099D01*
X210511663Y-113719480D01*
X210511663Y-114719480D02*
X210559282Y-114767099D01*
X210606901Y-114719480D01*
X210559282Y-114671861D01*
X210511663Y-114719480D01*
X210606901Y-114719480D01*
X210606901Y-115719480D02*
X210606901Y-115148051D01*
X210606901Y-115433765D02*
X209606901Y-115433765D01*
X209749758Y-115338527D01*
X209844996Y-115243289D01*
X209892615Y-115148051D01*
X210606901Y-116148051D02*
X209606901Y-116148051D01*
X210606901Y-116719480D02*
X210035472Y-116290908D01*
X209606901Y-116719480D02*
X210178330Y-116148051D01*
X223703710Y-112131861D02*
X224179901Y-112131861D01*
X224227520Y-112608051D01*
X224179901Y-112560432D01*
X224084663Y-112512813D01*
X223846567Y-112512813D01*
X223751329Y-112560432D01*
X223703710Y-112608051D01*
X223656091Y-112703290D01*
X223656091Y-112941385D01*
X223703710Y-113036623D01*
X223751329Y-113084242D01*
X223846567Y-113131861D01*
X224084663Y-113131861D01*
X224179901Y-113084242D01*
X224227520Y-113036623D01*
X223227520Y-113036623D02*
X223179901Y-113084242D01*
X223227520Y-113131861D01*
X223275139Y-113084242D01*
X223227520Y-113036623D01*
X223227520Y-113131861D01*
X222227520Y-113131861D02*
X222798949Y-113131861D01*
X222513235Y-113131861D02*
X222513235Y-112131861D01*
X222608473Y-112274718D01*
X222703711Y-112369956D01*
X222798949Y-112417575D01*
X221798949Y-113131861D02*
X221798949Y-112131861D01*
X221227520Y-113131861D02*
X221656092Y-112560432D01*
X221227520Y-112131861D02*
X221798949Y-112703290D01*
X142931901Y-82699719D02*
X142931901Y-82509242D01*
X142979520Y-82414004D01*
X143027139Y-82366385D01*
X143169996Y-82271147D01*
X143360472Y-82223528D01*
X143741425Y-82223528D01*
X143836663Y-82271147D01*
X143884282Y-82318766D01*
X143931901Y-82414004D01*
X143931901Y-82604481D01*
X143884282Y-82699719D01*
X143836663Y-82747338D01*
X143741425Y-82794957D01*
X143503330Y-82794957D01*
X143408091Y-82747338D01*
X143360472Y-82699719D01*
X143312853Y-82604481D01*
X143312853Y-82414004D01*
X143360472Y-82318766D01*
X143408091Y-82271147D01*
X143503330Y-82223528D01*
X143836663Y-83223528D02*
X143884282Y-83271147D01*
X143931901Y-83223528D01*
X143884282Y-83175909D01*
X143836663Y-83223528D01*
X143931901Y-83223528D01*
X143360472Y-83842575D02*
X143312853Y-83747337D01*
X143265234Y-83699718D01*
X143169996Y-83652099D01*
X143122377Y-83652099D01*
X143027139Y-83699718D01*
X142979520Y-83747337D01*
X142931901Y-83842575D01*
X142931901Y-84033052D01*
X142979520Y-84128290D01*
X143027139Y-84175909D01*
X143122377Y-84223528D01*
X143169996Y-84223528D01*
X143265234Y-84175909D01*
X143312853Y-84128290D01*
X143360472Y-84033052D01*
X143360472Y-83842575D01*
X143408091Y-83747337D01*
X143455710Y-83699718D01*
X143550949Y-83652099D01*
X143741425Y-83652099D01*
X143836663Y-83699718D01*
X143884282Y-83747337D01*
X143931901Y-83842575D01*
X143931901Y-84033052D01*
X143884282Y-84128290D01*
X143836663Y-84175909D01*
X143741425Y-84223528D01*
X143550949Y-84223528D01*
X143455710Y-84175909D01*
X143408091Y-84128290D01*
X143360472Y-84033052D01*
X143265234Y-84652099D02*
X143931901Y-84652099D01*
X143360472Y-84652099D02*
X143312853Y-84699718D01*
X143265234Y-84794956D01*
X143265234Y-84937814D01*
X143312853Y-85033052D01*
X143408091Y-85080671D01*
X143931901Y-85080671D01*
X143408091Y-85890195D02*
X143408091Y-85556861D01*
X143931901Y-85556861D02*
X142931901Y-85556861D01*
X142931901Y-86033052D01*
X146583139Y-85128623D02*
X146535520Y-85176242D01*
X146487901Y-85271480D01*
X146487901Y-85509576D01*
X146535520Y-85604814D01*
X146583139Y-85652433D01*
X146678377Y-85700052D01*
X146773615Y-85700052D01*
X146916472Y-85652433D01*
X147487901Y-85081004D01*
X147487901Y-85700052D01*
X146583139Y-86081004D02*
X146535520Y-86128623D01*
X146487901Y-86223861D01*
X146487901Y-86461957D01*
X146535520Y-86557195D01*
X146583139Y-86604814D01*
X146678377Y-86652433D01*
X146773615Y-86652433D01*
X146916472Y-86604814D01*
X147487901Y-86033385D01*
X147487901Y-86652433D01*
X146821234Y-87081004D02*
X147487901Y-87081004D01*
X146916472Y-87081004D02*
X146868853Y-87128623D01*
X146821234Y-87223861D01*
X146821234Y-87366719D01*
X146868853Y-87461957D01*
X146964091Y-87509576D01*
X147487901Y-87509576D01*
X146964091Y-88319100D02*
X146964091Y-87985766D01*
X147487901Y-87985766D02*
X146487901Y-87985766D01*
X146487901Y-88461957D01*
X146583139Y-91224623D02*
X146535520Y-91272242D01*
X146487901Y-91367480D01*
X146487901Y-91605576D01*
X146535520Y-91700814D01*
X146583139Y-91748433D01*
X146678377Y-91796052D01*
X146773615Y-91796052D01*
X146916472Y-91748433D01*
X147487901Y-91177004D01*
X147487901Y-91796052D01*
X146583139Y-92177004D02*
X146535520Y-92224623D01*
X146487901Y-92319861D01*
X146487901Y-92557957D01*
X146535520Y-92653195D01*
X146583139Y-92700814D01*
X146678377Y-92748433D01*
X146773615Y-92748433D01*
X146916472Y-92700814D01*
X147487901Y-92129385D01*
X147487901Y-92748433D01*
X146821234Y-93177004D02*
X147487901Y-93177004D01*
X146916472Y-93177004D02*
X146868853Y-93224623D01*
X146821234Y-93319861D01*
X146821234Y-93462719D01*
X146868853Y-93557957D01*
X146964091Y-93605576D01*
X147487901Y-93605576D01*
X146964091Y-94415100D02*
X146964091Y-94081766D01*
X147487901Y-94081766D02*
X146487901Y-94081766D01*
X146487901Y-94557957D01*
X157235234Y-81540766D02*
X157901901Y-81540766D01*
X156854282Y-81302670D02*
X157568568Y-81064575D01*
X157568568Y-81683623D01*
X156901901Y-81969337D02*
X156901901Y-82636004D01*
X157901901Y-82207432D01*
X157901901Y-83016956D02*
X156901901Y-83016956D01*
X157901901Y-83588385D02*
X157330472Y-83159813D01*
X156901901Y-83588385D02*
X157473330Y-83016956D01*
X164839186Y-86461861D02*
X165410615Y-86461861D01*
X165124901Y-86461861D02*
X165124901Y-85461861D01*
X165220139Y-85604718D01*
X165315377Y-85699956D01*
X165410615Y-85747575D01*
X164458234Y-85557099D02*
X164410615Y-85509480D01*
X164315377Y-85461861D01*
X164077281Y-85461861D01*
X163982043Y-85509480D01*
X163934424Y-85557099D01*
X163886805Y-85652337D01*
X163886805Y-85747575D01*
X163934424Y-85890432D01*
X164505853Y-86461861D01*
X163886805Y-86461861D01*
X163267758Y-85461861D02*
X163172519Y-85461861D01*
X163077281Y-85509480D01*
X163029662Y-85557099D01*
X162982043Y-85652337D01*
X162934424Y-85842813D01*
X162934424Y-86080909D01*
X162982043Y-86271385D01*
X163029662Y-86366623D01*
X163077281Y-86414242D01*
X163172519Y-86461861D01*
X163267758Y-86461861D01*
X163362996Y-86414242D01*
X163410615Y-86366623D01*
X163458234Y-86271385D01*
X163505853Y-86080909D01*
X163505853Y-85842813D01*
X163458234Y-85652337D01*
X163410615Y-85557099D01*
X163362996Y-85509480D01*
X163267758Y-85461861D01*
X162505853Y-86461861D02*
X162505853Y-85461861D01*
X161934424Y-86461861D02*
X162362996Y-85890432D01*
X161934424Y-85461861D02*
X162505853Y-86033290D01*
X157108234Y-92589766D02*
X157774901Y-92589766D01*
X156727282Y-92351670D02*
X157441568Y-92113575D01*
X157441568Y-92732623D01*
X156774901Y-93018337D02*
X156774901Y-93685004D01*
X157774901Y-93256432D01*
X157774901Y-94065956D02*
X156774901Y-94065956D01*
X157774901Y-94637385D02*
X157203472Y-94208813D01*
X156774901Y-94637385D02*
X157346330Y-94065956D01*
X164839186Y-97891861D02*
X165410615Y-97891861D01*
X165124901Y-97891861D02*
X165124901Y-96891861D01*
X165220139Y-97034718D01*
X165315377Y-97129956D01*
X165410615Y-97177575D01*
X164458234Y-96987099D02*
X164410615Y-96939480D01*
X164315377Y-96891861D01*
X164077281Y-96891861D01*
X163982043Y-96939480D01*
X163934424Y-96987099D01*
X163886805Y-97082337D01*
X163886805Y-97177575D01*
X163934424Y-97320432D01*
X164505853Y-97891861D01*
X163886805Y-97891861D01*
X163267758Y-96891861D02*
X163172519Y-96891861D01*
X163077281Y-96939480D01*
X163029662Y-96987099D01*
X162982043Y-97082337D01*
X162934424Y-97272813D01*
X162934424Y-97510909D01*
X162982043Y-97701385D01*
X163029662Y-97796623D01*
X163077281Y-97844242D01*
X163172519Y-97891861D01*
X163267758Y-97891861D01*
X163362996Y-97844242D01*
X163410615Y-97796623D01*
X163458234Y-97701385D01*
X163505853Y-97510909D01*
X163505853Y-97272813D01*
X163458234Y-97082337D01*
X163410615Y-96987099D01*
X163362996Y-96939480D01*
X163267758Y-96891861D01*
X162505853Y-97891861D02*
X162505853Y-96891861D01*
X161934424Y-97891861D02*
X162362996Y-97320432D01*
X161934424Y-96891861D02*
X162505853Y-97463290D01*
X164712186Y-109448861D02*
X165283615Y-109448861D01*
X164997901Y-109448861D02*
X164997901Y-108448861D01*
X165093139Y-108591718D01*
X165188377Y-108686956D01*
X165283615Y-108734575D01*
X164331234Y-108544099D02*
X164283615Y-108496480D01*
X164188377Y-108448861D01*
X163950281Y-108448861D01*
X163855043Y-108496480D01*
X163807424Y-108544099D01*
X163759805Y-108639337D01*
X163759805Y-108734575D01*
X163807424Y-108877432D01*
X164378853Y-109448861D01*
X163759805Y-109448861D01*
X163140758Y-108448861D02*
X163045519Y-108448861D01*
X162950281Y-108496480D01*
X162902662Y-108544099D01*
X162855043Y-108639337D01*
X162807424Y-108829813D01*
X162807424Y-109067909D01*
X162855043Y-109258385D01*
X162902662Y-109353623D01*
X162950281Y-109401242D01*
X163045519Y-109448861D01*
X163140758Y-109448861D01*
X163235996Y-109401242D01*
X163283615Y-109353623D01*
X163331234Y-109258385D01*
X163378853Y-109067909D01*
X163378853Y-108829813D01*
X163331234Y-108639337D01*
X163283615Y-108544099D01*
X163235996Y-108496480D01*
X163140758Y-108448861D01*
X162378853Y-109448861D02*
X162378853Y-108448861D01*
X161807424Y-109448861D02*
X162235996Y-108877432D01*
X161807424Y-108448861D02*
X162378853Y-109020290D01*
X159759186Y-75031861D02*
X160330615Y-75031861D01*
X160044901Y-75031861D02*
X160044901Y-74031861D01*
X160140139Y-74174718D01*
X160235377Y-74269956D01*
X160330615Y-74317575D01*
X159378234Y-74127099D02*
X159330615Y-74079480D01*
X159235377Y-74031861D01*
X158997281Y-74031861D01*
X158902043Y-74079480D01*
X158854424Y-74127099D01*
X158806805Y-74222337D01*
X158806805Y-74317575D01*
X158854424Y-74460432D01*
X159425853Y-75031861D01*
X158806805Y-75031861D01*
X158187758Y-74031861D02*
X158092519Y-74031861D01*
X157997281Y-74079480D01*
X157949662Y-74127099D01*
X157902043Y-74222337D01*
X157854424Y-74412813D01*
X157854424Y-74650909D01*
X157902043Y-74841385D01*
X157949662Y-74936623D01*
X157997281Y-74984242D01*
X158092519Y-75031861D01*
X158187758Y-75031861D01*
X158282996Y-74984242D01*
X158330615Y-74936623D01*
X158378234Y-74841385D01*
X158425853Y-74650909D01*
X158425853Y-74412813D01*
X158378234Y-74222337D01*
X158330615Y-74127099D01*
X158282996Y-74079480D01*
X158187758Y-74031861D01*
X157425853Y-75031861D02*
X157425853Y-74031861D01*
X156854424Y-75031861D02*
X157282996Y-74460432D01*
X156854424Y-74031861D02*
X157425853Y-74603290D01*
X210471615Y-67538861D02*
X210471615Y-66538861D01*
X210138281Y-67253147D01*
X209804948Y-66538861D01*
X209804948Y-67538861D01*
X208995424Y-67015051D02*
X208852567Y-67062670D01*
X208804948Y-67110290D01*
X208757329Y-67205528D01*
X208757329Y-67348385D01*
X208804948Y-67443623D01*
X208852567Y-67491242D01*
X208947805Y-67538861D01*
X209328758Y-67538861D01*
X209328758Y-66538861D01*
X208995424Y-66538861D01*
X208900186Y-66586480D01*
X208852567Y-66634099D01*
X208804948Y-66729337D01*
X208804948Y-66824575D01*
X208852567Y-66919813D01*
X208900186Y-66967432D01*
X208995424Y-67015051D01*
X209328758Y-67015051D01*
X207757329Y-67538861D02*
X208090663Y-67062670D01*
X208328758Y-67538861D02*
X208328758Y-66538861D01*
X207947805Y-66538861D01*
X207852567Y-66586480D01*
X207804948Y-66634099D01*
X207757329Y-66729337D01*
X207757329Y-66872194D01*
X207804948Y-66967432D01*
X207852567Y-67015051D01*
X207947805Y-67062670D01*
X208328758Y-67062670D01*
X207138282Y-66538861D02*
X207043043Y-66538861D01*
X206947805Y-66586480D01*
X206900186Y-66634099D01*
X206852567Y-66729337D01*
X206804948Y-66919813D01*
X206804948Y-67157909D01*
X206852567Y-67348385D01*
X206900186Y-67443623D01*
X206947805Y-67491242D01*
X207043043Y-67538861D01*
X207138282Y-67538861D01*
X207233520Y-67491242D01*
X207281139Y-67443623D01*
X207328758Y-67348385D01*
X207376377Y-67157909D01*
X207376377Y-66919813D01*
X207328758Y-66729337D01*
X207281139Y-66634099D01*
X207233520Y-66586480D01*
X207138282Y-66538861D01*
X205900186Y-66538861D02*
X206376377Y-66538861D01*
X206423996Y-67015051D01*
X206376377Y-66967432D01*
X206281139Y-66919813D01*
X206043043Y-66919813D01*
X205947805Y-66967432D01*
X205900186Y-67015051D01*
X205852567Y-67110290D01*
X205852567Y-67348385D01*
X205900186Y-67443623D01*
X205947805Y-67491242D01*
X206043043Y-67538861D01*
X206281139Y-67538861D01*
X206376377Y-67491242D01*
X206423996Y-67443623D01*
X205471615Y-66634099D02*
X205423996Y-66586480D01*
X205328758Y-66538861D01*
X205090662Y-66538861D01*
X204995424Y-66586480D01*
X204947805Y-66634099D01*
X204900186Y-66729337D01*
X204900186Y-66824575D01*
X204947805Y-66967432D01*
X205519234Y-67538861D01*
X204900186Y-67538861D01*
X204281139Y-66538861D02*
X204185900Y-66538861D01*
X204090662Y-66586480D01*
X204043043Y-66634099D01*
X203995424Y-66729337D01*
X203947805Y-66919813D01*
X203947805Y-67157909D01*
X203995424Y-67348385D01*
X204043043Y-67443623D01*
X204090662Y-67491242D01*
X204185900Y-67538861D01*
X204281139Y-67538861D01*
X204376377Y-67491242D01*
X204423996Y-67443623D01*
X204471615Y-67348385D01*
X204519234Y-67157909D01*
X204519234Y-66919813D01*
X204471615Y-66729337D01*
X204423996Y-66634099D01*
X204376377Y-66586480D01*
X204281139Y-66538861D01*
X159759186Y-86461861D02*
X160330615Y-86461861D01*
X160044901Y-86461861D02*
X160044901Y-85461861D01*
X160140139Y-85604718D01*
X160235377Y-85699956D01*
X160330615Y-85747575D01*
X159378234Y-85557099D02*
X159330615Y-85509480D01*
X159235377Y-85461861D01*
X158997281Y-85461861D01*
X158902043Y-85509480D01*
X158854424Y-85557099D01*
X158806805Y-85652337D01*
X158806805Y-85747575D01*
X158854424Y-85890432D01*
X159425853Y-86461861D01*
X158806805Y-86461861D01*
X158187758Y-85461861D02*
X158092519Y-85461861D01*
X157997281Y-85509480D01*
X157949662Y-85557099D01*
X157902043Y-85652337D01*
X157854424Y-85842813D01*
X157854424Y-86080909D01*
X157902043Y-86271385D01*
X157949662Y-86366623D01*
X157997281Y-86414242D01*
X158092519Y-86461861D01*
X158187758Y-86461861D01*
X158282996Y-86414242D01*
X158330615Y-86366623D01*
X158378234Y-86271385D01*
X158425853Y-86080909D01*
X158425853Y-85842813D01*
X158378234Y-85652337D01*
X158330615Y-85557099D01*
X158282996Y-85509480D01*
X158187758Y-85461861D01*
X157425853Y-86461861D02*
X157425853Y-85461861D01*
X156854424Y-86461861D02*
X157282996Y-85890432D01*
X156854424Y-85461861D02*
X157425853Y-86033290D01*
D14*
X159042520Y-85056147D02*
X159275854Y-84722813D01*
X159442520Y-85056147D02*
X159442520Y-84356147D01*
X159175854Y-84356147D01*
X159109187Y-84389480D01*
X159075854Y-84422813D01*
X159042520Y-84489480D01*
X159042520Y-84589480D01*
X159075854Y-84656147D01*
X159109187Y-84689480D01*
X159175854Y-84722813D01*
X159442520Y-84722813D01*
X158375854Y-85056147D02*
X158775854Y-85056147D01*
X158575854Y-85056147D02*
X158575854Y-84356147D01*
X158642520Y-84456147D01*
X158709187Y-84522813D01*
X158775854Y-84556147D01*
X158109187Y-84422813D02*
X158075853Y-84389480D01*
X158009187Y-84356147D01*
X157842520Y-84356147D01*
X157775853Y-84389480D01*
X157742520Y-84422813D01*
X157709187Y-84489480D01*
X157709187Y-84556147D01*
X157742520Y-84656147D01*
X158142520Y-85056147D01*
X157709187Y-85056147D01*
D13*
X159632186Y-97891861D02*
X160203615Y-97891861D01*
X159917901Y-97891861D02*
X159917901Y-96891861D01*
X160013139Y-97034718D01*
X160108377Y-97129956D01*
X160203615Y-97177575D01*
X159251234Y-96987099D02*
X159203615Y-96939480D01*
X159108377Y-96891861D01*
X158870281Y-96891861D01*
X158775043Y-96939480D01*
X158727424Y-96987099D01*
X158679805Y-97082337D01*
X158679805Y-97177575D01*
X158727424Y-97320432D01*
X159298853Y-97891861D01*
X158679805Y-97891861D01*
X158060758Y-96891861D02*
X157965519Y-96891861D01*
X157870281Y-96939480D01*
X157822662Y-96987099D01*
X157775043Y-97082337D01*
X157727424Y-97272813D01*
X157727424Y-97510909D01*
X157775043Y-97701385D01*
X157822662Y-97796623D01*
X157870281Y-97844242D01*
X157965519Y-97891861D01*
X158060758Y-97891861D01*
X158155996Y-97844242D01*
X158203615Y-97796623D01*
X158251234Y-97701385D01*
X158298853Y-97510909D01*
X158298853Y-97272813D01*
X158251234Y-97082337D01*
X158203615Y-96987099D01*
X158155996Y-96939480D01*
X158060758Y-96891861D01*
X157298853Y-97891861D02*
X157298853Y-96891861D01*
X156727424Y-97891861D02*
X157155996Y-97320432D01*
X156727424Y-96891861D02*
X157298853Y-97463290D01*
D14*
X159042520Y-96486147D02*
X159275854Y-96152813D01*
X159442520Y-96486147D02*
X159442520Y-95786147D01*
X159175854Y-95786147D01*
X159109187Y-95819480D01*
X159075854Y-95852813D01*
X159042520Y-95919480D01*
X159042520Y-96019480D01*
X159075854Y-96086147D01*
X159109187Y-96119480D01*
X159175854Y-96152813D01*
X159442520Y-96152813D01*
X158375854Y-96486147D02*
X158775854Y-96486147D01*
X158575854Y-96486147D02*
X158575854Y-95786147D01*
X158642520Y-95886147D01*
X158709187Y-95952813D01*
X158775854Y-95986147D01*
X158142520Y-95786147D02*
X157709187Y-95786147D01*
X157942520Y-96052813D01*
X157842520Y-96052813D01*
X157775853Y-96086147D01*
X157742520Y-96119480D01*
X157709187Y-96186147D01*
X157709187Y-96352813D01*
X157742520Y-96419480D01*
X157775853Y-96452813D01*
X157842520Y-96486147D01*
X158042520Y-96486147D01*
X158109187Y-96452813D01*
X158142520Y-96419480D01*
D13*
X143804901Y-87636861D02*
X143804901Y-87065432D01*
X143804901Y-87351146D02*
X142804901Y-87351146D01*
X142947758Y-87255908D01*
X143042996Y-87160670D01*
X143090615Y-87065432D01*
X142804901Y-88255908D02*
X142804901Y-88351147D01*
X142852520Y-88446385D01*
X142900139Y-88494004D01*
X142995377Y-88541623D01*
X143185853Y-88589242D01*
X143423949Y-88589242D01*
X143614425Y-88541623D01*
X143709663Y-88494004D01*
X143757282Y-88446385D01*
X143804901Y-88351147D01*
X143804901Y-88255908D01*
X143757282Y-88160670D01*
X143709663Y-88113051D01*
X143614425Y-88065432D01*
X143423949Y-88017813D01*
X143185853Y-88017813D01*
X142995377Y-88065432D01*
X142900139Y-88113051D01*
X142852520Y-88160670D01*
X142804901Y-88255908D01*
X142804901Y-89208289D02*
X142804901Y-89303528D01*
X142852520Y-89398766D01*
X142900139Y-89446385D01*
X142995377Y-89494004D01*
X143185853Y-89541623D01*
X143423949Y-89541623D01*
X143614425Y-89494004D01*
X143709663Y-89446385D01*
X143757282Y-89398766D01*
X143804901Y-89303528D01*
X143804901Y-89208289D01*
X143757282Y-89113051D01*
X143709663Y-89065432D01*
X143614425Y-89017813D01*
X143423949Y-88970194D01*
X143185853Y-88970194D01*
X142995377Y-89017813D01*
X142900139Y-89065432D01*
X142852520Y-89113051D01*
X142804901Y-89208289D01*
X143138234Y-89970194D02*
X143804901Y-89970194D01*
X143233472Y-89970194D02*
X143185853Y-90017813D01*
X143138234Y-90113051D01*
X143138234Y-90255909D01*
X143185853Y-90351147D01*
X143281091Y-90398766D01*
X143804901Y-90398766D01*
X143281091Y-91208290D02*
X143281091Y-90874956D01*
X143804901Y-90874956D02*
X142804901Y-90874956D01*
X142804901Y-91351147D01*
X145459663Y-89017814D02*
X145507282Y-88970195D01*
X145554901Y-88827338D01*
X145554901Y-88732100D01*
X145507282Y-88589242D01*
X145412044Y-88494004D01*
X145316806Y-88446385D01*
X145126330Y-88398766D01*
X144983472Y-88398766D01*
X144792996Y-88446385D01*
X144697758Y-88494004D01*
X144602520Y-88589242D01*
X144554901Y-88732100D01*
X144554901Y-88827338D01*
X144602520Y-88970195D01*
X144650139Y-89017814D01*
X144888234Y-89874957D02*
X145554901Y-89874957D01*
X144507282Y-89636861D02*
X145221568Y-89398766D01*
X145221568Y-90017814D01*
X186462800Y-78398002D02*
X186319943Y-78445621D01*
X186081847Y-78445621D01*
X185986609Y-78398002D01*
X185938990Y-78350383D01*
X185891371Y-78255145D01*
X185891371Y-78159907D01*
X185938990Y-78064669D01*
X185986609Y-78017050D01*
X186081847Y-77969430D01*
X186272324Y-77921811D01*
X186367562Y-77874192D01*
X186415181Y-77826573D01*
X186462800Y-77731335D01*
X186462800Y-77636097D01*
X186415181Y-77540859D01*
X186367562Y-77493240D01*
X186272324Y-77445621D01*
X186034228Y-77445621D01*
X185891371Y-77493240D01*
X185462800Y-78445621D02*
X185462800Y-77445621D01*
X185081847Y-77445621D01*
X184986609Y-77493240D01*
X184938990Y-77540859D01*
X184891371Y-77636097D01*
X184891371Y-77778954D01*
X184938990Y-77874192D01*
X184986609Y-77921811D01*
X185081847Y-77969430D01*
X185462800Y-77969430D01*
X184462800Y-78445621D02*
X184462800Y-77445621D01*
X184081848Y-77445621D02*
X183415181Y-78445621D01*
X183415181Y-77445621D02*
X184081848Y-78445621D01*
M02*
