G04 #@! TF.FileFunction,Legend,Bot*
%FSLAX46Y46*%
G04 Gerber Fmt 4.6, Leading zero omitted, Abs format (unit mm)*
G04 Created by KiCad (PCBNEW 4.0.6) date 08/21/17 14:47:51*
%MOMM*%
%LPD*%
G01*
G04 APERTURE LIST*
%ADD10C,0.100000*%
%ADD11C,0.300000*%
%ADD12C,0.120000*%
%ADD13C,0.150000*%
%ADD14C,0.200000*%
%ADD15C,0.500000*%
G04 APERTURE END LIST*
D10*
D11*
X209282517Y-58113051D02*
X209282517Y-56613051D01*
X208782517Y-57684480D01*
X208282517Y-56613051D01*
X208282517Y-58113051D01*
X206996803Y-58041623D02*
X207139660Y-58113051D01*
X207425374Y-58113051D01*
X207568231Y-58041623D01*
X207639660Y-57898766D01*
X207639660Y-57327337D01*
X207568231Y-57184480D01*
X207425374Y-57113051D01*
X207139660Y-57113051D01*
X206996803Y-57184480D01*
X206925374Y-57327337D01*
X206925374Y-57470194D01*
X207639660Y-57613051D01*
X205639660Y-57113051D02*
X205639660Y-58327337D01*
X205711089Y-58470194D01*
X205782517Y-58541623D01*
X205925374Y-58613051D01*
X206139660Y-58613051D01*
X206282517Y-58541623D01*
X205639660Y-58041623D02*
X205782517Y-58113051D01*
X206068231Y-58113051D01*
X206211089Y-58041623D01*
X206282517Y-57970194D01*
X206353946Y-57827337D01*
X206353946Y-57398766D01*
X206282517Y-57255909D01*
X206211089Y-57184480D01*
X206068231Y-57113051D01*
X205782517Y-57113051D01*
X205639660Y-57184480D01*
X204282517Y-58113051D02*
X204282517Y-57327337D01*
X204353946Y-57184480D01*
X204496803Y-57113051D01*
X204782517Y-57113051D01*
X204925374Y-57184480D01*
X204282517Y-58041623D02*
X204425374Y-58113051D01*
X204782517Y-58113051D01*
X204925374Y-58041623D01*
X204996803Y-57898766D01*
X204996803Y-57755909D01*
X204925374Y-57613051D01*
X204782517Y-57541623D01*
X204425374Y-57541623D01*
X204282517Y-57470194D01*
X201568231Y-57970194D02*
X201639660Y-58041623D01*
X201853946Y-58113051D01*
X201996803Y-58113051D01*
X202211088Y-58041623D01*
X202353946Y-57898766D01*
X202425374Y-57755909D01*
X202496803Y-57470194D01*
X202496803Y-57255909D01*
X202425374Y-56970194D01*
X202353946Y-56827337D01*
X202211088Y-56684480D01*
X201996803Y-56613051D01*
X201853946Y-56613051D01*
X201639660Y-56684480D01*
X201568231Y-56755909D01*
X200711088Y-58113051D02*
X200853946Y-58041623D01*
X200925374Y-57970194D01*
X200996803Y-57827337D01*
X200996803Y-57398766D01*
X200925374Y-57255909D01*
X200853946Y-57184480D01*
X200711088Y-57113051D01*
X200496803Y-57113051D01*
X200353946Y-57184480D01*
X200282517Y-57255909D01*
X200211088Y-57398766D01*
X200211088Y-57827337D01*
X200282517Y-57970194D01*
X200353946Y-58041623D01*
X200496803Y-58113051D01*
X200711088Y-58113051D01*
X199568231Y-58113051D02*
X199568231Y-57113051D01*
X199568231Y-57398766D02*
X199496803Y-57255909D01*
X199425374Y-57184480D01*
X199282517Y-57113051D01*
X199139660Y-57113051D01*
X198068232Y-58041623D02*
X198211089Y-58113051D01*
X198496803Y-58113051D01*
X198639660Y-58041623D01*
X198711089Y-57898766D01*
X198711089Y-57327337D01*
X198639660Y-57184480D01*
X198496803Y-57113051D01*
X198211089Y-57113051D01*
X198068232Y-57184480D01*
X197996803Y-57327337D01*
X197996803Y-57470194D01*
X198711089Y-57613051D01*
X196282518Y-56755909D02*
X196211089Y-56684480D01*
X196068232Y-56613051D01*
X195711089Y-56613051D01*
X195568232Y-56684480D01*
X195496803Y-56755909D01*
X195425375Y-56898766D01*
X195425375Y-57041623D01*
X195496803Y-57255909D01*
X196353946Y-58113051D01*
X195425375Y-58113051D01*
X194068232Y-56613051D02*
X194782518Y-56613051D01*
X194853947Y-57327337D01*
X194782518Y-57255909D01*
X194639661Y-57184480D01*
X194282518Y-57184480D01*
X194139661Y-57255909D01*
X194068232Y-57327337D01*
X193996804Y-57470194D01*
X193996804Y-57827337D01*
X194068232Y-57970194D01*
X194139661Y-58041623D01*
X194282518Y-58113051D01*
X194639661Y-58113051D01*
X194782518Y-58041623D01*
X194853947Y-57970194D01*
X192711090Y-56613051D02*
X192996804Y-56613051D01*
X193139661Y-56684480D01*
X193211090Y-56755909D01*
X193353947Y-56970194D01*
X193425376Y-57255909D01*
X193425376Y-57827337D01*
X193353947Y-57970194D01*
X193282519Y-58041623D01*
X193139661Y-58113051D01*
X192853947Y-58113051D01*
X192711090Y-58041623D01*
X192639661Y-57970194D01*
X192568233Y-57827337D01*
X192568233Y-57470194D01*
X192639661Y-57327337D01*
X192711090Y-57255909D01*
X192853947Y-57184480D01*
X193139661Y-57184480D01*
X193282519Y-57255909D01*
X193353947Y-57327337D01*
X193425376Y-57470194D01*
X191639662Y-56613051D02*
X191496805Y-56613051D01*
X191353948Y-56684480D01*
X191282519Y-56755909D01*
X191211090Y-56898766D01*
X191139662Y-57184480D01*
X191139662Y-57541623D01*
X191211090Y-57827337D01*
X191282519Y-57970194D01*
X191353948Y-58041623D01*
X191496805Y-58113051D01*
X191639662Y-58113051D01*
X191782519Y-58041623D01*
X191853948Y-57970194D01*
X191925376Y-57827337D01*
X191996805Y-57541623D01*
X191996805Y-57184480D01*
X191925376Y-56898766D01*
X191853948Y-56755909D01*
X191782519Y-56684480D01*
X191639662Y-56613051D01*
X189425377Y-58041623D02*
X189282520Y-58113051D01*
X188996805Y-58113051D01*
X188853948Y-58041623D01*
X188782520Y-57898766D01*
X188782520Y-57827337D01*
X188853948Y-57684480D01*
X188996805Y-57613051D01*
X189211091Y-57613051D01*
X189353948Y-57541623D01*
X189425377Y-57398766D01*
X189425377Y-57327337D01*
X189353948Y-57184480D01*
X189211091Y-57113051D01*
X188996805Y-57113051D01*
X188853948Y-57184480D01*
X188139662Y-58113051D02*
X188139662Y-56613051D01*
X187496805Y-58113051D02*
X187496805Y-57327337D01*
X187568234Y-57184480D01*
X187711091Y-57113051D01*
X187925376Y-57113051D01*
X188068234Y-57184480D01*
X188139662Y-57255909D01*
X186782519Y-58113051D02*
X186782519Y-57113051D01*
X186782519Y-56613051D02*
X186853948Y-56684480D01*
X186782519Y-56755909D01*
X186711091Y-56684480D01*
X186782519Y-56613051D01*
X186782519Y-56755909D01*
X185496805Y-58041623D02*
X185639662Y-58113051D01*
X185925376Y-58113051D01*
X186068233Y-58041623D01*
X186139662Y-57898766D01*
X186139662Y-57327337D01*
X186068233Y-57184480D01*
X185925376Y-57113051D01*
X185639662Y-57113051D01*
X185496805Y-57184480D01*
X185425376Y-57327337D01*
X185425376Y-57470194D01*
X186139662Y-57613051D01*
X184568233Y-58113051D02*
X184711091Y-58041623D01*
X184782519Y-57898766D01*
X184782519Y-56613051D01*
X183353948Y-58113051D02*
X183353948Y-56613051D01*
X183353948Y-58041623D02*
X183496805Y-58113051D01*
X183782519Y-58113051D01*
X183925377Y-58041623D01*
X183996805Y-57970194D01*
X184068234Y-57827337D01*
X184068234Y-57398766D01*
X183996805Y-57255909D01*
X183925377Y-57184480D01*
X183782519Y-57113051D01*
X183496805Y-57113051D01*
X183353948Y-57184480D01*
X181568234Y-58041623D02*
X181353948Y-58113051D01*
X180996805Y-58113051D01*
X180853948Y-58041623D01*
X180782519Y-57970194D01*
X180711091Y-57827337D01*
X180711091Y-57684480D01*
X180782519Y-57541623D01*
X180853948Y-57470194D01*
X180996805Y-57398766D01*
X181282519Y-57327337D01*
X181425377Y-57255909D01*
X181496805Y-57184480D01*
X181568234Y-57041623D01*
X181568234Y-56898766D01*
X181496805Y-56755909D01*
X181425377Y-56684480D01*
X181282519Y-56613051D01*
X180925377Y-56613051D01*
X180711091Y-56684480D01*
X180068234Y-58113051D02*
X180068234Y-57113051D01*
X180068234Y-56613051D02*
X180139663Y-56684480D01*
X180068234Y-56755909D01*
X179996806Y-56684480D01*
X180068234Y-56613051D01*
X180068234Y-56755909D01*
X179139662Y-58113051D02*
X179282520Y-58041623D01*
X179353948Y-57898766D01*
X179353948Y-56613051D01*
X178568234Y-58113051D02*
X178568234Y-56613051D01*
X178425377Y-57541623D02*
X177996806Y-58113051D01*
X177996806Y-57113051D02*
X178568234Y-57684480D01*
X176282520Y-58041623D02*
X176068234Y-58113051D01*
X175711091Y-58113051D01*
X175568234Y-58041623D01*
X175496805Y-57970194D01*
X175425377Y-57827337D01*
X175425377Y-57684480D01*
X175496805Y-57541623D01*
X175568234Y-57470194D01*
X175711091Y-57398766D01*
X175996805Y-57327337D01*
X176139663Y-57255909D01*
X176211091Y-57184480D01*
X176282520Y-57041623D01*
X176282520Y-56898766D01*
X176211091Y-56755909D01*
X176139663Y-56684480D01*
X175996805Y-56613051D01*
X175639663Y-56613051D01*
X175425377Y-56684480D01*
X174139663Y-58041623D02*
X174282520Y-58113051D01*
X174568234Y-58113051D01*
X174711092Y-58041623D01*
X174782520Y-57970194D01*
X174853949Y-57827337D01*
X174853949Y-57398766D01*
X174782520Y-57255909D01*
X174711092Y-57184480D01*
X174568234Y-57113051D01*
X174282520Y-57113051D01*
X174139663Y-57184480D01*
X173496806Y-58113051D02*
X173496806Y-57113051D01*
X173496806Y-57398766D02*
X173425378Y-57255909D01*
X173353949Y-57184480D01*
X173211092Y-57113051D01*
X173068235Y-57113051D01*
X171996807Y-58041623D02*
X172139664Y-58113051D01*
X172425378Y-58113051D01*
X172568235Y-58041623D01*
X172639664Y-57898766D01*
X172639664Y-57327337D01*
X172568235Y-57184480D01*
X172425378Y-57113051D01*
X172139664Y-57113051D01*
X171996807Y-57184480D01*
X171925378Y-57327337D01*
X171925378Y-57470194D01*
X172639664Y-57613051D01*
X170711093Y-58041623D02*
X170853950Y-58113051D01*
X171139664Y-58113051D01*
X171282521Y-58041623D01*
X171353950Y-57898766D01*
X171353950Y-57327337D01*
X171282521Y-57184480D01*
X171139664Y-57113051D01*
X170853950Y-57113051D01*
X170711093Y-57184480D01*
X170639664Y-57327337D01*
X170639664Y-57470194D01*
X171353950Y-57613051D01*
X169996807Y-57113051D02*
X169996807Y-58113051D01*
X169996807Y-57255909D02*
X169925379Y-57184480D01*
X169782521Y-57113051D01*
X169568236Y-57113051D01*
X169425379Y-57184480D01*
X169353950Y-57327337D01*
X169353950Y-58113051D01*
X167568236Y-56755909D02*
X167496807Y-56684480D01*
X167353950Y-56613051D01*
X166996807Y-56613051D01*
X166853950Y-56684480D01*
X166782521Y-56755909D01*
X166711093Y-56898766D01*
X166711093Y-57041623D01*
X166782521Y-57255909D01*
X167639664Y-58113051D01*
X166711093Y-58113051D01*
X164996808Y-56541623D02*
X166282522Y-58470194D01*
X164568236Y-56755909D02*
X164496807Y-56684480D01*
X164353950Y-56613051D01*
X163996807Y-56613051D01*
X163853950Y-56684480D01*
X163782521Y-56755909D01*
X163711093Y-56898766D01*
X163711093Y-57041623D01*
X163782521Y-57255909D01*
X164639664Y-58113051D01*
X163711093Y-58113051D01*
X185599805Y-113959337D02*
X185385519Y-114030766D01*
X185314091Y-114102194D01*
X185242662Y-114245051D01*
X185242662Y-114459337D01*
X185314091Y-114602194D01*
X185385519Y-114673623D01*
X185528377Y-114745051D01*
X186099805Y-114745051D01*
X186099805Y-113245051D01*
X185599805Y-113245051D01*
X185456948Y-113316480D01*
X185385519Y-113387909D01*
X185314091Y-113530766D01*
X185314091Y-113673623D01*
X185385519Y-113816480D01*
X185456948Y-113887909D01*
X185599805Y-113959337D01*
X186099805Y-113959337D01*
X184742662Y-113745051D02*
X184385519Y-114745051D01*
X184028377Y-113745051D02*
X184385519Y-114745051D01*
X184528377Y-115102194D01*
X184599805Y-115173623D01*
X184742662Y-115245051D01*
X189956948Y-115795051D02*
X189671234Y-115795051D01*
X189528376Y-115866480D01*
X189385519Y-116009337D01*
X189314091Y-116295051D01*
X189314091Y-116795051D01*
X189385519Y-117080766D01*
X189528376Y-117223623D01*
X189671234Y-117295051D01*
X189956948Y-117295051D01*
X190099805Y-117223623D01*
X190242662Y-117080766D01*
X190314091Y-116795051D01*
X190314091Y-116295051D01*
X190242662Y-116009337D01*
X190099805Y-115866480D01*
X189956948Y-115795051D01*
X188671233Y-116295051D02*
X188671233Y-117795051D01*
X188671233Y-116366480D02*
X188528376Y-116295051D01*
X188242662Y-116295051D01*
X188099805Y-116366480D01*
X188028376Y-116437909D01*
X187956947Y-116580766D01*
X187956947Y-117009337D01*
X188028376Y-117152194D01*
X188099805Y-117223623D01*
X188242662Y-117295051D01*
X188528376Y-117295051D01*
X188671233Y-117223623D01*
X186742662Y-117223623D02*
X186885519Y-117295051D01*
X187171233Y-117295051D01*
X187314090Y-117223623D01*
X187385519Y-117080766D01*
X187385519Y-116509337D01*
X187314090Y-116366480D01*
X187171233Y-116295051D01*
X186885519Y-116295051D01*
X186742662Y-116366480D01*
X186671233Y-116509337D01*
X186671233Y-116652194D01*
X187385519Y-116795051D01*
X186028376Y-116295051D02*
X186028376Y-117295051D01*
X186028376Y-116437909D02*
X185956948Y-116366480D01*
X185814090Y-116295051D01*
X185599805Y-116295051D01*
X185456948Y-116366480D01*
X185385519Y-116509337D01*
X185385519Y-117295051D01*
X184742662Y-116866480D02*
X184028376Y-116866480D01*
X184885519Y-117295051D02*
X184385519Y-115795051D01*
X183885519Y-117295051D01*
X183599805Y-115795051D02*
X183099805Y-117295051D01*
X182599805Y-115795051D01*
X181242662Y-117295051D02*
X181742662Y-116580766D01*
X182099805Y-117295051D02*
X182099805Y-115795051D01*
X181528377Y-115795051D01*
X181385519Y-115866480D01*
X181314091Y-115937909D01*
X181242662Y-116080766D01*
X181242662Y-116295051D01*
X181314091Y-116437909D01*
X181385519Y-116509337D01*
X181528377Y-116580766D01*
X182099805Y-116580766D01*
X179956948Y-117223623D02*
X180099805Y-117295051D01*
X180385519Y-117295051D01*
X180528377Y-117223623D01*
X180599805Y-117152194D01*
X180671234Y-117009337D01*
X180671234Y-116580766D01*
X180599805Y-116437909D01*
X180528377Y-116366480D01*
X180385519Y-116295051D01*
X180099805Y-116295051D01*
X179956948Y-116366480D01*
X187885520Y-118345051D02*
X187028377Y-118345051D01*
X187456948Y-119845051D02*
X187456948Y-118345051D01*
X185956949Y-119773623D02*
X186099806Y-119845051D01*
X186385520Y-119845051D01*
X186528377Y-119773623D01*
X186599806Y-119630766D01*
X186599806Y-119059337D01*
X186528377Y-118916480D01*
X186385520Y-118845051D01*
X186099806Y-118845051D01*
X185956949Y-118916480D01*
X185885520Y-119059337D01*
X185885520Y-119202194D01*
X186599806Y-119345051D01*
X184599806Y-119845051D02*
X184599806Y-119059337D01*
X184671235Y-118916480D01*
X184814092Y-118845051D01*
X185099806Y-118845051D01*
X185242663Y-118916480D01*
X184599806Y-119773623D02*
X184742663Y-119845051D01*
X185099806Y-119845051D01*
X185242663Y-119773623D01*
X185314092Y-119630766D01*
X185314092Y-119487909D01*
X185242663Y-119345051D01*
X185099806Y-119273623D01*
X184742663Y-119273623D01*
X184599806Y-119202194D01*
X183885520Y-119845051D02*
X183885520Y-118845051D01*
X183885520Y-118987909D02*
X183814092Y-118916480D01*
X183671234Y-118845051D01*
X183456949Y-118845051D01*
X183314092Y-118916480D01*
X183242663Y-119059337D01*
X183242663Y-119845051D01*
X183242663Y-119059337D02*
X183171234Y-118916480D01*
X183028377Y-118845051D01*
X182814092Y-118845051D01*
X182671234Y-118916480D01*
X182599806Y-119059337D01*
X182599806Y-119845051D01*
X178004664Y-86810051D02*
X178004664Y-85310051D01*
X178504664Y-86381480D01*
X179004664Y-85310051D01*
X179004664Y-86810051D01*
X180290378Y-86738623D02*
X180147521Y-86810051D01*
X179861807Y-86810051D01*
X179718950Y-86738623D01*
X179647521Y-86595766D01*
X179647521Y-86024337D01*
X179718950Y-85881480D01*
X179861807Y-85810051D01*
X180147521Y-85810051D01*
X180290378Y-85881480D01*
X180361807Y-86024337D01*
X180361807Y-86167194D01*
X179647521Y-86310051D01*
X181647521Y-85810051D02*
X181647521Y-87024337D01*
X181576092Y-87167194D01*
X181504664Y-87238623D01*
X181361807Y-87310051D01*
X181147521Y-87310051D01*
X181004664Y-87238623D01*
X181647521Y-86738623D02*
X181504664Y-86810051D01*
X181218950Y-86810051D01*
X181076092Y-86738623D01*
X181004664Y-86667194D01*
X180933235Y-86524337D01*
X180933235Y-86095766D01*
X181004664Y-85952909D01*
X181076092Y-85881480D01*
X181218950Y-85810051D01*
X181504664Y-85810051D01*
X181647521Y-85881480D01*
X183004664Y-86810051D02*
X183004664Y-86024337D01*
X182933235Y-85881480D01*
X182790378Y-85810051D01*
X182504664Y-85810051D01*
X182361807Y-85881480D01*
X183004664Y-86738623D02*
X182861807Y-86810051D01*
X182504664Y-86810051D01*
X182361807Y-86738623D01*
X182290378Y-86595766D01*
X182290378Y-86452909D01*
X182361807Y-86310051D01*
X182504664Y-86238623D01*
X182861807Y-86238623D01*
X183004664Y-86167194D01*
X184576093Y-86667194D02*
X184504664Y-86738623D01*
X184290378Y-86810051D01*
X184147521Y-86810051D01*
X183933236Y-86738623D01*
X183790378Y-86595766D01*
X183718950Y-86452909D01*
X183647521Y-86167194D01*
X183647521Y-85952909D01*
X183718950Y-85667194D01*
X183790378Y-85524337D01*
X183933236Y-85381480D01*
X184147521Y-85310051D01*
X184290378Y-85310051D01*
X184504664Y-85381480D01*
X184576093Y-85452909D01*
X185433236Y-86810051D02*
X185290378Y-86738623D01*
X185218950Y-86667194D01*
X185147521Y-86524337D01*
X185147521Y-86095766D01*
X185218950Y-85952909D01*
X185290378Y-85881480D01*
X185433236Y-85810051D01*
X185647521Y-85810051D01*
X185790378Y-85881480D01*
X185861807Y-85952909D01*
X185933236Y-86095766D01*
X185933236Y-86524337D01*
X185861807Y-86667194D01*
X185790378Y-86738623D01*
X185647521Y-86810051D01*
X185433236Y-86810051D01*
X186576093Y-86810051D02*
X186576093Y-85810051D01*
X186576093Y-86095766D02*
X186647521Y-85952909D01*
X186718950Y-85881480D01*
X186861807Y-85810051D01*
X187004664Y-85810051D01*
X188076092Y-86738623D02*
X187933235Y-86810051D01*
X187647521Y-86810051D01*
X187504664Y-86738623D01*
X187433235Y-86595766D01*
X187433235Y-86024337D01*
X187504664Y-85881480D01*
X187647521Y-85810051D01*
X187933235Y-85810051D01*
X188076092Y-85881480D01*
X188147521Y-86024337D01*
X188147521Y-86167194D01*
X187433235Y-86310051D01*
X188718949Y-85452909D02*
X188790378Y-85381480D01*
X188933235Y-85310051D01*
X189290378Y-85310051D01*
X189433235Y-85381480D01*
X189504664Y-85452909D01*
X189576092Y-85595766D01*
X189576092Y-85738623D01*
X189504664Y-85952909D01*
X188647521Y-86810051D01*
X189576092Y-86810051D01*
X190933235Y-85310051D02*
X190218949Y-85310051D01*
X190147520Y-86024337D01*
X190218949Y-85952909D01*
X190361806Y-85881480D01*
X190718949Y-85881480D01*
X190861806Y-85952909D01*
X190933235Y-86024337D01*
X191004663Y-86167194D01*
X191004663Y-86524337D01*
X190933235Y-86667194D01*
X190861806Y-86738623D01*
X190718949Y-86810051D01*
X190361806Y-86810051D01*
X190218949Y-86738623D01*
X190147520Y-86667194D01*
X192290377Y-85310051D02*
X192004663Y-85310051D01*
X191861806Y-85381480D01*
X191790377Y-85452909D01*
X191647520Y-85667194D01*
X191576091Y-85952909D01*
X191576091Y-86524337D01*
X191647520Y-86667194D01*
X191718948Y-86738623D01*
X191861806Y-86810051D01*
X192147520Y-86810051D01*
X192290377Y-86738623D01*
X192361806Y-86667194D01*
X192433234Y-86524337D01*
X192433234Y-86167194D01*
X192361806Y-86024337D01*
X192290377Y-85952909D01*
X192147520Y-85881480D01*
X191861806Y-85881480D01*
X191718948Y-85952909D01*
X191647520Y-86024337D01*
X191576091Y-86167194D01*
X193361805Y-85310051D02*
X193504662Y-85310051D01*
X193647519Y-85381480D01*
X193718948Y-85452909D01*
X193790377Y-85595766D01*
X193861805Y-85881480D01*
X193861805Y-86238623D01*
X193790377Y-86524337D01*
X193718948Y-86667194D01*
X193647519Y-86738623D01*
X193504662Y-86810051D01*
X193361805Y-86810051D01*
X193218948Y-86738623D01*
X193147519Y-86667194D01*
X193076091Y-86524337D01*
X193004662Y-86238623D01*
X193004662Y-85881480D01*
X193076091Y-85595766D01*
X193147519Y-85452909D01*
X193218948Y-85381480D01*
X193361805Y-85310051D01*
X179718949Y-89288623D02*
X179933235Y-89360051D01*
X180290378Y-89360051D01*
X180433235Y-89288623D01*
X180504664Y-89217194D01*
X180576092Y-89074337D01*
X180576092Y-88931480D01*
X180504664Y-88788623D01*
X180433235Y-88717194D01*
X180290378Y-88645766D01*
X180004664Y-88574337D01*
X179861806Y-88502909D01*
X179790378Y-88431480D01*
X179718949Y-88288623D01*
X179718949Y-88145766D01*
X179790378Y-88002909D01*
X179861806Y-87931480D01*
X180004664Y-87860051D01*
X180361806Y-87860051D01*
X180576092Y-87931480D01*
X181218949Y-89360051D02*
X181218949Y-87860051D01*
X181861806Y-89360051D02*
X181861806Y-88574337D01*
X181790377Y-88431480D01*
X181647520Y-88360051D01*
X181433235Y-88360051D01*
X181290377Y-88431480D01*
X181218949Y-88502909D01*
X182576092Y-89360051D02*
X182576092Y-88360051D01*
X182576092Y-87860051D02*
X182504663Y-87931480D01*
X182576092Y-88002909D01*
X182647520Y-87931480D01*
X182576092Y-87860051D01*
X182576092Y-88002909D01*
X183861806Y-89288623D02*
X183718949Y-89360051D01*
X183433235Y-89360051D01*
X183290378Y-89288623D01*
X183218949Y-89145766D01*
X183218949Y-88574337D01*
X183290378Y-88431480D01*
X183433235Y-88360051D01*
X183718949Y-88360051D01*
X183861806Y-88431480D01*
X183933235Y-88574337D01*
X183933235Y-88717194D01*
X183218949Y-88860051D01*
X184790378Y-89360051D02*
X184647520Y-89288623D01*
X184576092Y-89145766D01*
X184576092Y-87860051D01*
X186004663Y-89360051D02*
X186004663Y-87860051D01*
X186004663Y-89288623D02*
X185861806Y-89360051D01*
X185576092Y-89360051D01*
X185433234Y-89288623D01*
X185361806Y-89217194D01*
X185290377Y-89074337D01*
X185290377Y-88645766D01*
X185361806Y-88502909D01*
X185433234Y-88431480D01*
X185576092Y-88360051D01*
X185861806Y-88360051D01*
X186004663Y-88431480D01*
X187647520Y-87860051D02*
X188147520Y-89360051D01*
X188647520Y-87860051D01*
X189076091Y-88002909D02*
X189147520Y-87931480D01*
X189290377Y-87860051D01*
X189647520Y-87860051D01*
X189790377Y-87931480D01*
X189861806Y-88002909D01*
X189933234Y-88145766D01*
X189933234Y-88288623D01*
X189861806Y-88502909D01*
X189004663Y-89360051D01*
X189933234Y-89360051D01*
X190576091Y-89217194D02*
X190647519Y-89288623D01*
X190576091Y-89360051D01*
X190504662Y-89288623D01*
X190576091Y-89217194D01*
X190576091Y-89360051D01*
X191576091Y-87860051D02*
X191718948Y-87860051D01*
X191861805Y-87931480D01*
X191933234Y-88002909D01*
X192004663Y-88145766D01*
X192076091Y-88431480D01*
X192076091Y-88788623D01*
X192004663Y-89074337D01*
X191933234Y-89217194D01*
X191861805Y-89288623D01*
X191718948Y-89360051D01*
X191576091Y-89360051D01*
X191433234Y-89288623D01*
X191361805Y-89217194D01*
X191290377Y-89074337D01*
X191218948Y-88788623D01*
X191218948Y-88431480D01*
X191290377Y-88145766D01*
X191361805Y-88002909D01*
X191433234Y-87931480D01*
X191576091Y-87860051D01*
D12*
X196692520Y-120299480D02*
X175102520Y-120299480D01*
X175102520Y-120299480D02*
X175102520Y-84739480D01*
X175102520Y-84739480D02*
X196692520Y-84739480D01*
X196692520Y-84739480D02*
X196692520Y-120299480D01*
D13*
X187532520Y-102079480D02*
X185532520Y-102079480D01*
X185532520Y-104229480D02*
X187532520Y-104229480D01*
X187532520Y-105889480D02*
X185532520Y-105889480D01*
X185532520Y-108039480D02*
X187532520Y-108039480D01*
D12*
X180427520Y-107329480D02*
X180427520Y-105329480D01*
X182477520Y-105329480D02*
X182477520Y-107329480D01*
X183602520Y-100344480D02*
X183602520Y-98344480D01*
X185652520Y-98344480D02*
X185652520Y-100344480D01*
X194288520Y-116505480D02*
X194288520Y-118505480D01*
X192238520Y-118505480D02*
X192238520Y-116505480D01*
X179556520Y-116505480D02*
X179556520Y-118505480D01*
X177506520Y-118505480D02*
X177506520Y-116505480D01*
X166076520Y-118251480D02*
X166076520Y-116251480D01*
X168126520Y-116251480D02*
X168126520Y-118251480D01*
X175492520Y-80945480D02*
X175492520Y-82945480D01*
X173442520Y-82945480D02*
X173442520Y-80945480D01*
D13*
X201502520Y-65884480D02*
X199502520Y-65884480D01*
X199502520Y-68034480D02*
X201502520Y-68034480D01*
D14*
X222737520Y-91189480D02*
X222737520Y-94309480D01*
X222737520Y-94309480D02*
X217637520Y-94309480D01*
X217637520Y-94309480D02*
X217637520Y-90409480D01*
X217637520Y-90409480D02*
X221957520Y-90409480D01*
X221957520Y-90409480D02*
X222737520Y-91189480D01*
D15*
X223637120Y-89901480D02*
G75*
G03X223637120Y-89901480I-290000J0D01*
G01*
D12*
X148829520Y-100097480D02*
X150829520Y-100097480D01*
X150829520Y-102147480D02*
X148829520Y-102147480D01*
X148067520Y-112924480D02*
X150067520Y-112924480D01*
X150067520Y-114974480D02*
X148067520Y-114974480D01*
X168502520Y-64689480D02*
X168502520Y-66689480D01*
X166462520Y-66689480D02*
X166462520Y-64689480D01*
X196057520Y-80174480D02*
X198717520Y-80174480D01*
X198717520Y-80174480D02*
X198717520Y-82954480D01*
X198717520Y-82954480D02*
X196057520Y-82954480D01*
X196057520Y-82954480D02*
X196057520Y-80174480D01*
X194787520Y-80174480D02*
X193397520Y-80174480D01*
X193397520Y-80174480D02*
X193397520Y-81564480D01*
D13*
X213642520Y-116219480D02*
X213642520Y-114219480D01*
X211492520Y-114219480D02*
X211492520Y-116219480D01*
D12*
X203967520Y-109869480D02*
X203967520Y-107869480D01*
X203967520Y-107869480D02*
X207867520Y-107869480D01*
X203967520Y-109869480D02*
X207867520Y-109869480D01*
D13*
X156247520Y-104059480D02*
X156247520Y-106059480D01*
X158397520Y-106059480D02*
X158397520Y-104059480D01*
X156247520Y-69769480D02*
X156247520Y-71769480D01*
X158397520Y-71769480D02*
X158397520Y-69769480D01*
D12*
X213832520Y-72274480D02*
X213832520Y-71014480D01*
X213832520Y-65454480D02*
X213832520Y-66714480D01*
X217592520Y-72274480D02*
X213832520Y-72274480D01*
X219842520Y-65454480D02*
X213832520Y-65454480D01*
X151852520Y-87644480D02*
X151852520Y-85644480D01*
X153902520Y-85644480D02*
X153902520Y-87644480D01*
X159592520Y-107799480D02*
X157592520Y-107799480D01*
X157592520Y-109939480D02*
X159592520Y-109939480D01*
D13*
X209832520Y-79389480D02*
X209832520Y-77389480D01*
X207682520Y-77389480D02*
X207682520Y-79389480D01*
X210222520Y-77389480D02*
X210222520Y-79389480D01*
X212372520Y-79389480D02*
X212372520Y-77389480D01*
D12*
X206970520Y-93105480D02*
X206970520Y-91105480D01*
X209020520Y-91105480D02*
X209020520Y-93105480D01*
X149457520Y-73579480D02*
X149457520Y-75579480D01*
X147407520Y-75579480D02*
X147407520Y-73579480D01*
X153902520Y-91994480D02*
X153902520Y-93994480D01*
X151852520Y-93994480D02*
X151852520Y-91994480D01*
D13*
X223727520Y-109064480D02*
X221727520Y-109064480D01*
X221727520Y-111214480D02*
X223727520Y-111214480D01*
X164672520Y-73504480D02*
X162672520Y-73504480D01*
X162672520Y-75654480D02*
X164672520Y-75654480D01*
D12*
X214082520Y-76214480D02*
X214082520Y-74214480D01*
X216132520Y-74214480D02*
X216132520Y-76214480D01*
X221212520Y-76119480D02*
X221212520Y-78119480D01*
X219162520Y-78119480D02*
X219162520Y-76119480D01*
X147407520Y-81294480D02*
X147407520Y-79294480D01*
X149457520Y-79294480D02*
X149457520Y-81294480D01*
X142987520Y-79650480D02*
X144987520Y-79650480D01*
X144987520Y-81700480D02*
X142987520Y-81700480D01*
X142987520Y-69744480D02*
X144987520Y-69744480D01*
X144987520Y-71794480D02*
X142987520Y-71794480D01*
X209782520Y-72309480D02*
X209782520Y-74309480D01*
X207732520Y-74309480D02*
X207732520Y-72309480D01*
D13*
X211102520Y-116219480D02*
X211102520Y-114219480D01*
X208952520Y-114219480D02*
X208952520Y-116219480D01*
X223727520Y-111604480D02*
X221727520Y-111604480D01*
X221727520Y-113754480D02*
X223727520Y-113754480D01*
D12*
X144377520Y-83104480D02*
X144377520Y-85104480D01*
X142327520Y-85104480D02*
X142327520Y-83104480D01*
X146137520Y-87644480D02*
X146137520Y-85644480D01*
X148187520Y-85644480D02*
X148187520Y-87644480D01*
X148187520Y-91994480D02*
X148187520Y-93994480D01*
X146137520Y-93994480D02*
X146137520Y-91994480D01*
D13*
X156247520Y-81199480D02*
X156247520Y-83199480D01*
X158397520Y-83199480D02*
X158397520Y-81199480D01*
X164672520Y-84934480D02*
X162672520Y-84934480D01*
X162672520Y-87084480D02*
X164672520Y-87084480D01*
X156247520Y-92629480D02*
X156247520Y-94629480D01*
X158397520Y-94629480D02*
X158397520Y-92629480D01*
X164672520Y-96364480D02*
X162672520Y-96364480D01*
X162672520Y-98514480D02*
X164672520Y-98514480D01*
X164672520Y-107794480D02*
X162672520Y-107794480D01*
X162672520Y-109944480D02*
X164672520Y-109944480D01*
X159592520Y-73504480D02*
X157592520Y-73504480D01*
X157592520Y-75654480D02*
X159592520Y-75654480D01*
D12*
X214987520Y-108869480D02*
X214987520Y-101129480D01*
X214987520Y-101129480D02*
X217767520Y-101129480D01*
X217767520Y-101129480D02*
X217767520Y-108869480D01*
X217767520Y-108869480D02*
X214987520Y-108869480D01*
X214987520Y-110139480D02*
X214987520Y-111529480D01*
X214987520Y-111529480D02*
X216377520Y-111529480D01*
X210147520Y-68229480D02*
X210147520Y-70889480D01*
X210147520Y-70889480D02*
X207367520Y-70889480D01*
X207367520Y-70889480D02*
X207367520Y-68229480D01*
X207367520Y-68229480D02*
X210147520Y-68229480D01*
X210147520Y-66959480D02*
X210147520Y-65569480D01*
X210147520Y-65569480D02*
X208757520Y-65569480D01*
D13*
X188707520Y-111849480D02*
X190707520Y-111849480D01*
X190707520Y-109699480D02*
X188707520Y-109699480D01*
D12*
X159592520Y-84939480D02*
X157592520Y-84939480D01*
X157592520Y-87079480D02*
X159592520Y-87079480D01*
X159592520Y-96369480D02*
X157592520Y-96369480D01*
X157592520Y-98509480D02*
X159592520Y-98509480D01*
X144372520Y-88184480D02*
X144372520Y-90184480D01*
X142332520Y-90184480D02*
X142332520Y-88184480D01*
X178277520Y-76364480D02*
X198717520Y-76364480D01*
X198717520Y-76364480D02*
X198717520Y-79144480D01*
X198717520Y-79144480D02*
X178277520Y-79144480D01*
X178277520Y-79144480D02*
X178277520Y-76364480D01*
X177007520Y-76364480D02*
X175617520Y-76364480D01*
X175617520Y-76364480D02*
X175617520Y-77754480D01*
D14*
X222737520Y-96269480D02*
X222737520Y-99389480D01*
X222737520Y-99389480D02*
X217637520Y-99389480D01*
X217637520Y-99389480D02*
X217637520Y-95489480D01*
X217637520Y-95489480D02*
X221957520Y-95489480D01*
X221957520Y-95489480D02*
X222737520Y-96269480D01*
D15*
X223637120Y-94981480D02*
G75*
G03X223637120Y-94981480I-290000J0D01*
G01*
D13*
X198033901Y-117688194D02*
X197033901Y-117688194D01*
X197033901Y-118069147D01*
X197081520Y-118164385D01*
X197129139Y-118212004D01*
X197224377Y-118259623D01*
X197367234Y-118259623D01*
X197462472Y-118212004D01*
X197510091Y-118164385D01*
X197557710Y-118069147D01*
X197557710Y-117688194D01*
X197129139Y-118640575D02*
X197081520Y-118688194D01*
X197033901Y-118783432D01*
X197033901Y-119021528D01*
X197081520Y-119116766D01*
X197129139Y-119164385D01*
X197224377Y-119212004D01*
X197319615Y-119212004D01*
X197462472Y-119164385D01*
X198033901Y-118592956D01*
X198033901Y-119212004D01*
X197129139Y-119592956D02*
X197081520Y-119640575D01*
X197033901Y-119735813D01*
X197033901Y-119973909D01*
X197081520Y-120069147D01*
X197129139Y-120116766D01*
X197224377Y-120164385D01*
X197319615Y-120164385D01*
X197462472Y-120116766D01*
X198033901Y-119545337D01*
X198033901Y-120164385D01*
X190350377Y-103606861D02*
X190683711Y-103130670D01*
X190921806Y-103606861D02*
X190921806Y-102606861D01*
X190540853Y-102606861D01*
X190445615Y-102654480D01*
X190397996Y-102702099D01*
X190350377Y-102797337D01*
X190350377Y-102940194D01*
X190397996Y-103035432D01*
X190445615Y-103083051D01*
X190540853Y-103130670D01*
X190921806Y-103130670D01*
X189969425Y-102702099D02*
X189921806Y-102654480D01*
X189826568Y-102606861D01*
X189588472Y-102606861D01*
X189493234Y-102654480D01*
X189445615Y-102702099D01*
X189397996Y-102797337D01*
X189397996Y-102892575D01*
X189445615Y-103035432D01*
X190017044Y-103606861D01*
X189397996Y-103606861D01*
X188778949Y-102606861D02*
X188683710Y-102606861D01*
X188588472Y-102654480D01*
X188540853Y-102702099D01*
X188493234Y-102797337D01*
X188445615Y-102987813D01*
X188445615Y-103225909D01*
X188493234Y-103416385D01*
X188540853Y-103511623D01*
X188588472Y-103559242D01*
X188683710Y-103606861D01*
X188778949Y-103606861D01*
X188874187Y-103559242D01*
X188921806Y-103511623D01*
X188969425Y-103416385D01*
X189017044Y-103225909D01*
X189017044Y-102987813D01*
X188969425Y-102797337D01*
X188921806Y-102702099D01*
X188874187Y-102654480D01*
X188778949Y-102606861D01*
X190350377Y-107416861D02*
X190683711Y-106940670D01*
X190921806Y-107416861D02*
X190921806Y-106416861D01*
X190540853Y-106416861D01*
X190445615Y-106464480D01*
X190397996Y-106512099D01*
X190350377Y-106607337D01*
X190350377Y-106750194D01*
X190397996Y-106845432D01*
X190445615Y-106893051D01*
X190540853Y-106940670D01*
X190921806Y-106940670D01*
X189397996Y-107416861D02*
X189969425Y-107416861D01*
X189683711Y-107416861D02*
X189683711Y-106416861D01*
X189778949Y-106559718D01*
X189874187Y-106654956D01*
X189969425Y-106702575D01*
X188493234Y-106416861D02*
X188969425Y-106416861D01*
X189017044Y-106893051D01*
X188969425Y-106845432D01*
X188874187Y-106797813D01*
X188636091Y-106797813D01*
X188540853Y-106845432D01*
X188493234Y-106893051D01*
X188445615Y-106988290D01*
X188445615Y-107226385D01*
X188493234Y-107321623D01*
X188540853Y-107369242D01*
X188636091Y-107416861D01*
X188874187Y-107416861D01*
X188969425Y-107369242D01*
X189017044Y-107321623D01*
X183841663Y-104797623D02*
X183889282Y-104750004D01*
X183936901Y-104607147D01*
X183936901Y-104511909D01*
X183889282Y-104369051D01*
X183794044Y-104273813D01*
X183698806Y-104226194D01*
X183508330Y-104178575D01*
X183365472Y-104178575D01*
X183174996Y-104226194D01*
X183079758Y-104273813D01*
X182984520Y-104369051D01*
X182936901Y-104511909D01*
X182936901Y-104607147D01*
X182984520Y-104750004D01*
X183032139Y-104797623D01*
X183032139Y-105178575D02*
X182984520Y-105226194D01*
X182936901Y-105321432D01*
X182936901Y-105559528D01*
X182984520Y-105654766D01*
X183032139Y-105702385D01*
X183127377Y-105750004D01*
X183222615Y-105750004D01*
X183365472Y-105702385D01*
X183936901Y-105130956D01*
X183936901Y-105750004D01*
X182936901Y-106083337D02*
X182936901Y-106702385D01*
X183317853Y-106369051D01*
X183317853Y-106511909D01*
X183365472Y-106607147D01*
X183413091Y-106654766D01*
X183508330Y-106702385D01*
X183746425Y-106702385D01*
X183841663Y-106654766D01*
X183889282Y-106607147D01*
X183936901Y-106511909D01*
X183936901Y-106226194D01*
X183889282Y-106130956D01*
X183841663Y-106083337D01*
X187016663Y-97812623D02*
X187064282Y-97765004D01*
X187111901Y-97622147D01*
X187111901Y-97526909D01*
X187064282Y-97384051D01*
X186969044Y-97288813D01*
X186873806Y-97241194D01*
X186683330Y-97193575D01*
X186540472Y-97193575D01*
X186349996Y-97241194D01*
X186254758Y-97288813D01*
X186159520Y-97384051D01*
X186111901Y-97526909D01*
X186111901Y-97622147D01*
X186159520Y-97765004D01*
X186207139Y-97812623D01*
X186207139Y-98193575D02*
X186159520Y-98241194D01*
X186111901Y-98336432D01*
X186111901Y-98574528D01*
X186159520Y-98669766D01*
X186207139Y-98717385D01*
X186302377Y-98765004D01*
X186397615Y-98765004D01*
X186540472Y-98717385D01*
X187111901Y-98145956D01*
X187111901Y-98765004D01*
X186207139Y-99145956D02*
X186159520Y-99193575D01*
X186111901Y-99288813D01*
X186111901Y-99526909D01*
X186159520Y-99622147D01*
X186207139Y-99669766D01*
X186302377Y-99717385D01*
X186397615Y-99717385D01*
X186540472Y-99669766D01*
X187111901Y-99098337D01*
X187111901Y-99717385D01*
X193620663Y-113052623D02*
X193668282Y-113005004D01*
X193715901Y-112862147D01*
X193715901Y-112766909D01*
X193668282Y-112624051D01*
X193573044Y-112528813D01*
X193477806Y-112481194D01*
X193287330Y-112433575D01*
X193144472Y-112433575D01*
X192953996Y-112481194D01*
X192858758Y-112528813D01*
X192763520Y-112624051D01*
X192715901Y-112766909D01*
X192715901Y-112862147D01*
X192763520Y-113005004D01*
X192811139Y-113052623D01*
X192811139Y-113433575D02*
X192763520Y-113481194D01*
X192715901Y-113576432D01*
X192715901Y-113814528D01*
X192763520Y-113909766D01*
X192811139Y-113957385D01*
X192906377Y-114005004D01*
X193001615Y-114005004D01*
X193144472Y-113957385D01*
X193715901Y-113385956D01*
X193715901Y-114005004D01*
X193715901Y-114957385D02*
X193715901Y-114385956D01*
X193715901Y-114671670D02*
X192715901Y-114671670D01*
X192858758Y-114576432D01*
X192953996Y-114481194D01*
X193001615Y-114385956D01*
X178888663Y-112925623D02*
X178936282Y-112878004D01*
X178983901Y-112735147D01*
X178983901Y-112639909D01*
X178936282Y-112497051D01*
X178841044Y-112401813D01*
X178745806Y-112354194D01*
X178555330Y-112306575D01*
X178412472Y-112306575D01*
X178221996Y-112354194D01*
X178126758Y-112401813D01*
X178031520Y-112497051D01*
X177983901Y-112639909D01*
X177983901Y-112735147D01*
X178031520Y-112878004D01*
X178079139Y-112925623D01*
X178079139Y-113306575D02*
X178031520Y-113354194D01*
X177983901Y-113449432D01*
X177983901Y-113687528D01*
X178031520Y-113782766D01*
X178079139Y-113830385D01*
X178174377Y-113878004D01*
X178269615Y-113878004D01*
X178412472Y-113830385D01*
X178983901Y-113258956D01*
X178983901Y-113878004D01*
X177983901Y-114497051D02*
X177983901Y-114592290D01*
X178031520Y-114687528D01*
X178079139Y-114735147D01*
X178174377Y-114782766D01*
X178364853Y-114830385D01*
X178602949Y-114830385D01*
X178793425Y-114782766D01*
X178888663Y-114735147D01*
X178936282Y-114687528D01*
X178983901Y-114592290D01*
X178983901Y-114497051D01*
X178936282Y-114401813D01*
X178888663Y-114354194D01*
X178793425Y-114306575D01*
X178602949Y-114258956D01*
X178364853Y-114258956D01*
X178174377Y-114306575D01*
X178079139Y-114354194D01*
X178031520Y-114401813D01*
X177983901Y-114497051D01*
X167585663Y-112925623D02*
X167633282Y-112878004D01*
X167680901Y-112735147D01*
X167680901Y-112639909D01*
X167633282Y-112497051D01*
X167538044Y-112401813D01*
X167442806Y-112354194D01*
X167252330Y-112306575D01*
X167109472Y-112306575D01*
X166918996Y-112354194D01*
X166823758Y-112401813D01*
X166728520Y-112497051D01*
X166680901Y-112639909D01*
X166680901Y-112735147D01*
X166728520Y-112878004D01*
X166776139Y-112925623D01*
X167680901Y-113878004D02*
X167680901Y-113306575D01*
X167680901Y-113592289D02*
X166680901Y-113592289D01*
X166823758Y-113497051D01*
X166918996Y-113401813D01*
X166966615Y-113306575D01*
X167680901Y-114354194D02*
X167680901Y-114544670D01*
X167633282Y-114639909D01*
X167585663Y-114687528D01*
X167442806Y-114782766D01*
X167252330Y-114830385D01*
X166871377Y-114830385D01*
X166776139Y-114782766D01*
X166728520Y-114735147D01*
X166680901Y-114639909D01*
X166680901Y-114449432D01*
X166728520Y-114354194D01*
X166776139Y-114306575D01*
X166871377Y-114258956D01*
X167109472Y-114258956D01*
X167204710Y-114306575D01*
X167252330Y-114354194D01*
X167299949Y-114449432D01*
X167299949Y-114639909D01*
X167252330Y-114735147D01*
X167204710Y-114782766D01*
X167109472Y-114830385D01*
X176602663Y-81175623D02*
X176650282Y-81128004D01*
X176697901Y-80985147D01*
X176697901Y-80889909D01*
X176650282Y-80747051D01*
X176555044Y-80651813D01*
X176459806Y-80604194D01*
X176269330Y-80556575D01*
X176126472Y-80556575D01*
X175935996Y-80604194D01*
X175840758Y-80651813D01*
X175745520Y-80747051D01*
X175697901Y-80889909D01*
X175697901Y-80985147D01*
X175745520Y-81128004D01*
X175793139Y-81175623D01*
X176697901Y-82128004D02*
X176697901Y-81556575D01*
X176697901Y-81842289D02*
X175697901Y-81842289D01*
X175840758Y-81747051D01*
X175935996Y-81651813D01*
X175983615Y-81556575D01*
X176126472Y-82699432D02*
X176078853Y-82604194D01*
X176031234Y-82556575D01*
X175935996Y-82508956D01*
X175888377Y-82508956D01*
X175793139Y-82556575D01*
X175745520Y-82604194D01*
X175697901Y-82699432D01*
X175697901Y-82889909D01*
X175745520Y-82985147D01*
X175793139Y-83032766D01*
X175888377Y-83080385D01*
X175935996Y-83080385D01*
X176031234Y-83032766D01*
X176078853Y-82985147D01*
X176126472Y-82889909D01*
X176126472Y-82699432D01*
X176174091Y-82604194D01*
X176221710Y-82556575D01*
X176316949Y-82508956D01*
X176507425Y-82508956D01*
X176602663Y-82556575D01*
X176650282Y-82604194D01*
X176697901Y-82699432D01*
X176697901Y-82889909D01*
X176650282Y-82985147D01*
X176602663Y-83032766D01*
X176507425Y-83080385D01*
X176316949Y-83080385D01*
X176221710Y-83032766D01*
X176174091Y-82985147D01*
X176126472Y-82889909D01*
X200637377Y-65379861D02*
X200970711Y-64903670D01*
X201208806Y-65379861D02*
X201208806Y-64379861D01*
X200827853Y-64379861D01*
X200732615Y-64427480D01*
X200684996Y-64475099D01*
X200637377Y-64570337D01*
X200637377Y-64713194D01*
X200684996Y-64808432D01*
X200732615Y-64856051D01*
X200827853Y-64903670D01*
X201208806Y-64903670D01*
X199684996Y-65379861D02*
X200256425Y-65379861D01*
X199970711Y-65379861D02*
X199970711Y-64379861D01*
X200065949Y-64522718D01*
X200161187Y-64617956D01*
X200256425Y-64665575D01*
X199065949Y-64379861D02*
X198970710Y-64379861D01*
X198875472Y-64427480D01*
X198827853Y-64475099D01*
X198780234Y-64570337D01*
X198732615Y-64760813D01*
X198732615Y-64998909D01*
X198780234Y-65189385D01*
X198827853Y-65284623D01*
X198875472Y-65332242D01*
X198970710Y-65379861D01*
X199065949Y-65379861D01*
X199161187Y-65332242D01*
X199208806Y-65284623D01*
X199256425Y-65189385D01*
X199304044Y-64998909D01*
X199304044Y-64760813D01*
X199256425Y-64570337D01*
X199208806Y-64475099D01*
X199161187Y-64427480D01*
X199065949Y-64379861D01*
D14*
X216021806Y-91702337D02*
X216021806Y-92673766D01*
X215964663Y-92788051D01*
X215907520Y-92845194D01*
X215793234Y-92902337D01*
X215564663Y-92902337D01*
X215450377Y-92845194D01*
X215393234Y-92788051D01*
X215336091Y-92673766D01*
X215336091Y-91702337D01*
X214878948Y-91702337D02*
X214136091Y-91702337D01*
X214536091Y-92159480D01*
X214364663Y-92159480D01*
X214250377Y-92216623D01*
X214193234Y-92273766D01*
X214136091Y-92388051D01*
X214136091Y-92673766D01*
X214193234Y-92788051D01*
X214250377Y-92845194D01*
X214364663Y-92902337D01*
X214707520Y-92902337D01*
X214821806Y-92845194D01*
X214878948Y-92788051D01*
X222695377Y-88527337D02*
X222009663Y-88527337D01*
X222352520Y-89727337D02*
X222352520Y-88527337D01*
X221038234Y-89727337D02*
X221609663Y-89727337D01*
X221609663Y-88527337D01*
X220638234Y-89727337D02*
X220638234Y-88527337D01*
X220181091Y-88527337D01*
X220066805Y-88584480D01*
X220009662Y-88641623D01*
X219952519Y-88755909D01*
X219952519Y-88927337D01*
X220009662Y-89041623D01*
X220066805Y-89098766D01*
X220181091Y-89155909D01*
X220638234Y-89155909D01*
X219495377Y-88641623D02*
X219438234Y-88584480D01*
X219323948Y-88527337D01*
X219038234Y-88527337D01*
X218923948Y-88584480D01*
X218866805Y-88641623D01*
X218809662Y-88755909D01*
X218809662Y-88870194D01*
X218866805Y-89041623D01*
X219552519Y-89727337D01*
X218809662Y-89727337D01*
X218238234Y-89727337D02*
X218009662Y-89727337D01*
X217895377Y-89670194D01*
X217838234Y-89613051D01*
X217723948Y-89441623D01*
X217666805Y-89213051D01*
X217666805Y-88755909D01*
X217723948Y-88641623D01*
X217781091Y-88584480D01*
X217895377Y-88527337D01*
X218123948Y-88527337D01*
X218238234Y-88584480D01*
X218295377Y-88641623D01*
X218352520Y-88755909D01*
X218352520Y-89041623D01*
X218295377Y-89155909D01*
X218238234Y-89213051D01*
X218123948Y-89270194D01*
X217895377Y-89270194D01*
X217781091Y-89213051D01*
X217723948Y-89155909D01*
X217666805Y-89041623D01*
X216923948Y-88527337D02*
X216809663Y-88527337D01*
X216695377Y-88584480D01*
X216638234Y-88641623D01*
X216581091Y-88755909D01*
X216523948Y-88984480D01*
X216523948Y-89270194D01*
X216581091Y-89498766D01*
X216638234Y-89613051D01*
X216695377Y-89670194D01*
X216809663Y-89727337D01*
X216923948Y-89727337D01*
X217038234Y-89670194D01*
X217095377Y-89613051D01*
X217152520Y-89498766D01*
X217209663Y-89270194D01*
X217209663Y-88984480D01*
X217152520Y-88755909D01*
X217095377Y-88641623D01*
X217038234Y-88584480D01*
X216923948Y-88527337D01*
D13*
X150599377Y-99701623D02*
X150646996Y-99749242D01*
X150789853Y-99796861D01*
X150885091Y-99796861D01*
X151027949Y-99749242D01*
X151123187Y-99654004D01*
X151170806Y-99558766D01*
X151218425Y-99368290D01*
X151218425Y-99225432D01*
X151170806Y-99034956D01*
X151123187Y-98939718D01*
X151027949Y-98844480D01*
X150885091Y-98796861D01*
X150789853Y-98796861D01*
X150646996Y-98844480D01*
X150599377Y-98892099D01*
X149646996Y-99796861D02*
X150218425Y-99796861D01*
X149932711Y-99796861D02*
X149932711Y-98796861D01*
X150027949Y-98939718D01*
X150123187Y-99034956D01*
X150218425Y-99082575D01*
X149313663Y-98796861D02*
X148694615Y-98796861D01*
X149027949Y-99177813D01*
X148885091Y-99177813D01*
X148789853Y-99225432D01*
X148742234Y-99273051D01*
X148694615Y-99368290D01*
X148694615Y-99606385D01*
X148742234Y-99701623D01*
X148789853Y-99749242D01*
X148885091Y-99796861D01*
X149170806Y-99796861D01*
X149266044Y-99749242D01*
X149313663Y-99701623D01*
X150599377Y-116338623D02*
X150646996Y-116386242D01*
X150789853Y-116433861D01*
X150885091Y-116433861D01*
X151027949Y-116386242D01*
X151123187Y-116291004D01*
X151170806Y-116195766D01*
X151218425Y-116005290D01*
X151218425Y-115862432D01*
X151170806Y-115671956D01*
X151123187Y-115576718D01*
X151027949Y-115481480D01*
X150885091Y-115433861D01*
X150789853Y-115433861D01*
X150646996Y-115481480D01*
X150599377Y-115529099D01*
X149646996Y-116433861D02*
X150218425Y-116433861D01*
X149932711Y-116433861D02*
X149932711Y-115433861D01*
X150027949Y-115576718D01*
X150123187Y-115671956D01*
X150218425Y-115719575D01*
X149266044Y-115529099D02*
X149218425Y-115481480D01*
X149123187Y-115433861D01*
X148885091Y-115433861D01*
X148789853Y-115481480D01*
X148742234Y-115529099D01*
X148694615Y-115624337D01*
X148694615Y-115719575D01*
X148742234Y-115862432D01*
X149313663Y-116433861D01*
X148694615Y-116433861D01*
X166061663Y-63395623D02*
X166109282Y-63348004D01*
X166156901Y-63205147D01*
X166156901Y-63109909D01*
X166109282Y-62967051D01*
X166014044Y-62871813D01*
X165918806Y-62824194D01*
X165728330Y-62776575D01*
X165585472Y-62776575D01*
X165394996Y-62824194D01*
X165299758Y-62871813D01*
X165204520Y-62967051D01*
X165156901Y-63109909D01*
X165156901Y-63205147D01*
X165204520Y-63348004D01*
X165252139Y-63395623D01*
X166156901Y-64348004D02*
X166156901Y-63776575D01*
X166156901Y-64062289D02*
X165156901Y-64062289D01*
X165299758Y-63967051D01*
X165394996Y-63871813D01*
X165442615Y-63776575D01*
X165156901Y-64967051D02*
X165156901Y-65062290D01*
X165204520Y-65157528D01*
X165252139Y-65205147D01*
X165347377Y-65252766D01*
X165537853Y-65300385D01*
X165775949Y-65300385D01*
X165966425Y-65252766D01*
X166061663Y-65205147D01*
X166109282Y-65157528D01*
X166156901Y-65062290D01*
X166156901Y-64967051D01*
X166109282Y-64871813D01*
X166061663Y-64824194D01*
X165966425Y-64776575D01*
X165775949Y-64728956D01*
X165537853Y-64728956D01*
X165347377Y-64776575D01*
X165252139Y-64824194D01*
X165204520Y-64871813D01*
X165156901Y-64967051D01*
X197906806Y-84175861D02*
X197906806Y-83175861D01*
X197525853Y-83175861D01*
X197430615Y-83223480D01*
X197382996Y-83271099D01*
X197335377Y-83366337D01*
X197335377Y-83509194D01*
X197382996Y-83604432D01*
X197430615Y-83652051D01*
X197525853Y-83699670D01*
X197906806Y-83699670D01*
X196954425Y-83271099D02*
X196906806Y-83223480D01*
X196811568Y-83175861D01*
X196573472Y-83175861D01*
X196478234Y-83223480D01*
X196430615Y-83271099D01*
X196382996Y-83366337D01*
X196382996Y-83461575D01*
X196430615Y-83604432D01*
X197002044Y-84175861D01*
X196382996Y-84175861D01*
X196049663Y-83175861D02*
X195382996Y-83175861D01*
X195811568Y-84175861D01*
X214924901Y-114703623D02*
X214448710Y-114370289D01*
X214924901Y-114132194D02*
X213924901Y-114132194D01*
X213924901Y-114513147D01*
X213972520Y-114608385D01*
X214020139Y-114656004D01*
X214115377Y-114703623D01*
X214258234Y-114703623D01*
X214353472Y-114656004D01*
X214401091Y-114608385D01*
X214448710Y-114513147D01*
X214448710Y-114132194D01*
X214924901Y-115656004D02*
X214924901Y-115084575D01*
X214924901Y-115370289D02*
X213924901Y-115370289D01*
X214067758Y-115275051D01*
X214162996Y-115179813D01*
X214210615Y-115084575D01*
X214353472Y-116227432D02*
X214305853Y-116132194D01*
X214258234Y-116084575D01*
X214162996Y-116036956D01*
X214115377Y-116036956D01*
X214020139Y-116084575D01*
X213972520Y-116132194D01*
X213924901Y-116227432D01*
X213924901Y-116417909D01*
X213972520Y-116513147D01*
X214020139Y-116560766D01*
X214115377Y-116608385D01*
X214162996Y-116608385D01*
X214258234Y-116560766D01*
X214305853Y-116513147D01*
X214353472Y-116417909D01*
X214353472Y-116227432D01*
X214401091Y-116132194D01*
X214448710Y-116084575D01*
X214543949Y-116036956D01*
X214734425Y-116036956D01*
X214829663Y-116084575D01*
X214877282Y-116132194D01*
X214924901Y-116227432D01*
X214924901Y-116417909D01*
X214877282Y-116513147D01*
X214829663Y-116560766D01*
X214734425Y-116608385D01*
X214543949Y-116608385D01*
X214448710Y-116560766D01*
X214401091Y-116513147D01*
X214353472Y-116417909D01*
X208733615Y-107670861D02*
X208733615Y-106670861D01*
X208495520Y-106670861D01*
X208352662Y-106718480D01*
X208257424Y-106813718D01*
X208209805Y-106908956D01*
X208162186Y-107099432D01*
X208162186Y-107242290D01*
X208209805Y-107432766D01*
X208257424Y-107528004D01*
X208352662Y-107623242D01*
X208495520Y-107670861D01*
X208733615Y-107670861D01*
X207209805Y-107670861D02*
X207781234Y-107670861D01*
X207495520Y-107670861D02*
X207495520Y-106670861D01*
X207590758Y-106813718D01*
X207685996Y-106908956D01*
X207781234Y-106956575D01*
X159679901Y-103146623D02*
X159203710Y-102813289D01*
X159679901Y-102575194D02*
X158679901Y-102575194D01*
X158679901Y-102956147D01*
X158727520Y-103051385D01*
X158775139Y-103099004D01*
X158870377Y-103146623D01*
X159013234Y-103146623D01*
X159108472Y-103099004D01*
X159156091Y-103051385D01*
X159203710Y-102956147D01*
X159203710Y-102575194D01*
X158679901Y-103479956D02*
X158679901Y-104099004D01*
X159060853Y-103765670D01*
X159060853Y-103908528D01*
X159108472Y-104003766D01*
X159156091Y-104051385D01*
X159251330Y-104099004D01*
X159489425Y-104099004D01*
X159584663Y-104051385D01*
X159632282Y-104003766D01*
X159679901Y-103908528D01*
X159679901Y-103622813D01*
X159632282Y-103527575D01*
X159584663Y-103479956D01*
X158679901Y-105003766D02*
X158679901Y-104527575D01*
X159156091Y-104479956D01*
X159108472Y-104527575D01*
X159060853Y-104622813D01*
X159060853Y-104860909D01*
X159108472Y-104956147D01*
X159156091Y-105003766D01*
X159251330Y-105051385D01*
X159489425Y-105051385D01*
X159584663Y-105003766D01*
X159632282Y-104956147D01*
X159679901Y-104860909D01*
X159679901Y-104622813D01*
X159632282Y-104527575D01*
X159584663Y-104479956D01*
X159552901Y-68983623D02*
X159076710Y-68650289D01*
X159552901Y-68412194D02*
X158552901Y-68412194D01*
X158552901Y-68793147D01*
X158600520Y-68888385D01*
X158648139Y-68936004D01*
X158743377Y-68983623D01*
X158886234Y-68983623D01*
X158981472Y-68936004D01*
X159029091Y-68888385D01*
X159076710Y-68793147D01*
X159076710Y-68412194D01*
X158648139Y-69364575D02*
X158600520Y-69412194D01*
X158552901Y-69507432D01*
X158552901Y-69745528D01*
X158600520Y-69840766D01*
X158648139Y-69888385D01*
X158743377Y-69936004D01*
X158838615Y-69936004D01*
X158981472Y-69888385D01*
X159552901Y-69316956D01*
X159552901Y-69936004D01*
X158552901Y-70793147D02*
X158552901Y-70602670D01*
X158600520Y-70507432D01*
X158648139Y-70459813D01*
X158790996Y-70364575D01*
X158981472Y-70316956D01*
X159362425Y-70316956D01*
X159457663Y-70364575D01*
X159505282Y-70412194D01*
X159552901Y-70507432D01*
X159552901Y-70697909D01*
X159505282Y-70793147D01*
X159457663Y-70840766D01*
X159362425Y-70888385D01*
X159124330Y-70888385D01*
X159029091Y-70840766D01*
X158981472Y-70793147D01*
X158933853Y-70697909D01*
X158933853Y-70507432D01*
X158981472Y-70412194D01*
X159029091Y-70364575D01*
X159124330Y-70316956D01*
X217266425Y-64125861D02*
X217266425Y-64935385D01*
X217218806Y-65030623D01*
X217171187Y-65078242D01*
X217075949Y-65125861D01*
X216885472Y-65125861D01*
X216790234Y-65078242D01*
X216742615Y-65030623D01*
X216694996Y-64935385D01*
X216694996Y-64125861D01*
X215742615Y-64125861D02*
X216218806Y-64125861D01*
X216266425Y-64602051D01*
X216218806Y-64554432D01*
X216123568Y-64506813D01*
X215885472Y-64506813D01*
X215790234Y-64554432D01*
X215742615Y-64602051D01*
X215694996Y-64697290D01*
X215694996Y-64935385D01*
X215742615Y-65030623D01*
X215790234Y-65078242D01*
X215885472Y-65125861D01*
X216123568Y-65125861D01*
X216218806Y-65078242D01*
X216266425Y-65030623D01*
X151342363Y-86014323D02*
X151389982Y-85966704D01*
X151437601Y-85823847D01*
X151437601Y-85728609D01*
X151389982Y-85585751D01*
X151294744Y-85490513D01*
X151199506Y-85442894D01*
X151009030Y-85395275D01*
X150866172Y-85395275D01*
X150675696Y-85442894D01*
X150580458Y-85490513D01*
X150485220Y-85585751D01*
X150437601Y-85728609D01*
X150437601Y-85823847D01*
X150485220Y-85966704D01*
X150532839Y-86014323D01*
X150770934Y-86871466D02*
X151437601Y-86871466D01*
X150389982Y-86633370D02*
X151104268Y-86395275D01*
X151104268Y-87014323D01*
X150437601Y-87823847D02*
X150437601Y-87633370D01*
X150485220Y-87538132D01*
X150532839Y-87490513D01*
X150675696Y-87395275D01*
X150866172Y-87347656D01*
X151247125Y-87347656D01*
X151342363Y-87395275D01*
X151389982Y-87442894D01*
X151437601Y-87538132D01*
X151437601Y-87728609D01*
X151389982Y-87823847D01*
X151342363Y-87871466D01*
X151247125Y-87919085D01*
X151009030Y-87919085D01*
X150913791Y-87871466D01*
X150866172Y-87823847D01*
X150818553Y-87728609D01*
X150818553Y-87538132D01*
X150866172Y-87442894D01*
X150913791Y-87395275D01*
X151009030Y-87347656D01*
X159235377Y-110972861D02*
X159568711Y-110496670D01*
X159806806Y-110972861D02*
X159806806Y-109972861D01*
X159425853Y-109972861D01*
X159330615Y-110020480D01*
X159282996Y-110068099D01*
X159235377Y-110163337D01*
X159235377Y-110306194D01*
X159282996Y-110401432D01*
X159330615Y-110449051D01*
X159425853Y-110496670D01*
X159806806Y-110496670D01*
X158282996Y-110972861D02*
X158854425Y-110972861D01*
X158568711Y-110972861D02*
X158568711Y-109972861D01*
X158663949Y-110115718D01*
X158759187Y-110210956D01*
X158854425Y-110258575D01*
X157425853Y-110306194D02*
X157425853Y-110972861D01*
X157663949Y-109925242D02*
X157902044Y-110639528D01*
X157282996Y-110639528D01*
X209209901Y-74190623D02*
X208733710Y-73857289D01*
X209209901Y-73619194D02*
X208209901Y-73619194D01*
X208209901Y-74000147D01*
X208257520Y-74095385D01*
X208305139Y-74143004D01*
X208400377Y-74190623D01*
X208543234Y-74190623D01*
X208638472Y-74143004D01*
X208686091Y-74095385D01*
X208733710Y-74000147D01*
X208733710Y-73619194D01*
X209209901Y-75143004D02*
X209209901Y-74571575D01*
X209209901Y-74857289D02*
X208209901Y-74857289D01*
X208352758Y-74762051D01*
X208447996Y-74666813D01*
X208495615Y-74571575D01*
X208209901Y-76000147D02*
X208209901Y-75809670D01*
X208257520Y-75714432D01*
X208305139Y-75666813D01*
X208447996Y-75571575D01*
X208638472Y-75523956D01*
X209019425Y-75523956D01*
X209114663Y-75571575D01*
X209162282Y-75619194D01*
X209209901Y-75714432D01*
X209209901Y-75904909D01*
X209162282Y-76000147D01*
X209114663Y-76047766D01*
X209019425Y-76095385D01*
X208781330Y-76095385D01*
X208686091Y-76047766D01*
X208638472Y-76000147D01*
X208590853Y-75904909D01*
X208590853Y-75714432D01*
X208638472Y-75619194D01*
X208686091Y-75571575D01*
X208781330Y-75523956D01*
X211749901Y-81302623D02*
X211273710Y-80969289D01*
X211749901Y-80731194D02*
X210749901Y-80731194D01*
X210749901Y-81112147D01*
X210797520Y-81207385D01*
X210845139Y-81255004D01*
X210940377Y-81302623D01*
X211083234Y-81302623D01*
X211178472Y-81255004D01*
X211226091Y-81207385D01*
X211273710Y-81112147D01*
X211273710Y-80731194D01*
X211749901Y-82255004D02*
X211749901Y-81683575D01*
X211749901Y-81969289D02*
X210749901Y-81969289D01*
X210892758Y-81874051D01*
X210987996Y-81778813D01*
X211035615Y-81683575D01*
X210749901Y-82588337D02*
X210749901Y-83255004D01*
X211749901Y-82826432D01*
X208162186Y-95383623D02*
X208209805Y-95431242D01*
X208352662Y-95478861D01*
X208447900Y-95478861D01*
X208590758Y-95431242D01*
X208685996Y-95336004D01*
X208733615Y-95240766D01*
X208781234Y-95050290D01*
X208781234Y-94907432D01*
X208733615Y-94716956D01*
X208685996Y-94621718D01*
X208590758Y-94526480D01*
X208447900Y-94478861D01*
X208352662Y-94478861D01*
X208209805Y-94526480D01*
X208162186Y-94574099D01*
X207209805Y-95478861D02*
X207781234Y-95478861D01*
X207495520Y-95478861D02*
X207495520Y-94478861D01*
X207590758Y-94621718D01*
X207685996Y-94716956D01*
X207781234Y-94764575D01*
X147392663Y-73301623D02*
X147440282Y-73254004D01*
X147487901Y-73111147D01*
X147487901Y-73015909D01*
X147440282Y-72873051D01*
X147345044Y-72777813D01*
X147249806Y-72730194D01*
X147059330Y-72682575D01*
X146916472Y-72682575D01*
X146725996Y-72730194D01*
X146630758Y-72777813D01*
X146535520Y-72873051D01*
X146487901Y-73015909D01*
X146487901Y-73111147D01*
X146535520Y-73254004D01*
X146583139Y-73301623D01*
X147487901Y-74254004D02*
X147487901Y-73682575D01*
X147487901Y-73968289D02*
X146487901Y-73968289D01*
X146630758Y-73873051D01*
X146725996Y-73777813D01*
X146773615Y-73682575D01*
X146487901Y-75111147D02*
X146487901Y-74920670D01*
X146535520Y-74825432D01*
X146583139Y-74777813D01*
X146725996Y-74682575D01*
X146916472Y-74634956D01*
X147297425Y-74634956D01*
X147392663Y-74682575D01*
X147440282Y-74730194D01*
X147487901Y-74825432D01*
X147487901Y-75015909D01*
X147440282Y-75111147D01*
X147392663Y-75158766D01*
X147297425Y-75206385D01*
X147059330Y-75206385D01*
X146964091Y-75158766D01*
X146916472Y-75111147D01*
X146868853Y-75015909D01*
X146868853Y-74825432D01*
X146916472Y-74730194D01*
X146964091Y-74682575D01*
X147059330Y-74634956D01*
X151456663Y-92478623D02*
X151504282Y-92431004D01*
X151551901Y-92288147D01*
X151551901Y-92192909D01*
X151504282Y-92050051D01*
X151409044Y-91954813D01*
X151313806Y-91907194D01*
X151123330Y-91859575D01*
X150980472Y-91859575D01*
X150789996Y-91907194D01*
X150694758Y-91954813D01*
X150599520Y-92050051D01*
X150551901Y-92192909D01*
X150551901Y-92288147D01*
X150599520Y-92431004D01*
X150647139Y-92478623D01*
X150885234Y-93335766D02*
X151551901Y-93335766D01*
X150504282Y-93097670D02*
X151218568Y-92859575D01*
X151218568Y-93478623D01*
X150551901Y-94335766D02*
X150551901Y-93859575D01*
X151028091Y-93811956D01*
X150980472Y-93859575D01*
X150932853Y-93954813D01*
X150932853Y-94192909D01*
X150980472Y-94288147D01*
X151028091Y-94335766D01*
X151123330Y-94383385D01*
X151361425Y-94383385D01*
X151456663Y-94335766D01*
X151504282Y-94288147D01*
X151551901Y-94192909D01*
X151551901Y-93954813D01*
X151504282Y-93859575D01*
X151456663Y-93811956D01*
X219814377Y-110591861D02*
X220147711Y-110115670D01*
X220385806Y-110591861D02*
X220385806Y-109591861D01*
X220004853Y-109591861D01*
X219909615Y-109639480D01*
X219861996Y-109687099D01*
X219814377Y-109782337D01*
X219814377Y-109925194D01*
X219861996Y-110020432D01*
X219909615Y-110068051D01*
X220004853Y-110115670D01*
X220385806Y-110115670D01*
X219433425Y-109687099D02*
X219385806Y-109639480D01*
X219290568Y-109591861D01*
X219052472Y-109591861D01*
X218957234Y-109639480D01*
X218909615Y-109687099D01*
X218861996Y-109782337D01*
X218861996Y-109877575D01*
X218909615Y-110020432D01*
X219481044Y-110591861D01*
X218861996Y-110591861D01*
X218481044Y-109687099D02*
X218433425Y-109639480D01*
X218338187Y-109591861D01*
X218100091Y-109591861D01*
X218004853Y-109639480D01*
X217957234Y-109687099D01*
X217909615Y-109782337D01*
X217909615Y-109877575D01*
X217957234Y-110020432D01*
X218528663Y-110591861D01*
X217909615Y-110591861D01*
X164315377Y-76682861D02*
X164648711Y-76206670D01*
X164886806Y-76682861D02*
X164886806Y-75682861D01*
X164505853Y-75682861D01*
X164410615Y-75730480D01*
X164362996Y-75778099D01*
X164315377Y-75873337D01*
X164315377Y-76016194D01*
X164362996Y-76111432D01*
X164410615Y-76159051D01*
X164505853Y-76206670D01*
X164886806Y-76206670D01*
X163934425Y-75778099D02*
X163886806Y-75730480D01*
X163791568Y-75682861D01*
X163553472Y-75682861D01*
X163458234Y-75730480D01*
X163410615Y-75778099D01*
X163362996Y-75873337D01*
X163362996Y-75968575D01*
X163410615Y-76111432D01*
X163982044Y-76682861D01*
X163362996Y-76682861D01*
X162791568Y-76111432D02*
X162886806Y-76063813D01*
X162934425Y-76016194D01*
X162982044Y-75920956D01*
X162982044Y-75873337D01*
X162934425Y-75778099D01*
X162886806Y-75730480D01*
X162791568Y-75682861D01*
X162601091Y-75682861D01*
X162505853Y-75730480D01*
X162458234Y-75778099D01*
X162410615Y-75873337D01*
X162410615Y-75920956D01*
X162458234Y-76016194D01*
X162505853Y-76063813D01*
X162601091Y-76111432D01*
X162791568Y-76111432D01*
X162886806Y-76159051D01*
X162934425Y-76206670D01*
X162982044Y-76301909D01*
X162982044Y-76492385D01*
X162934425Y-76587623D01*
X162886806Y-76635242D01*
X162791568Y-76682861D01*
X162601091Y-76682861D01*
X162505853Y-76635242D01*
X162458234Y-76587623D01*
X162410615Y-76492385D01*
X162410615Y-76301909D01*
X162458234Y-76206670D01*
X162505853Y-76159051D01*
X162601091Y-76111432D01*
X217369663Y-74571623D02*
X217417282Y-74524004D01*
X217464901Y-74381147D01*
X217464901Y-74285909D01*
X217417282Y-74143051D01*
X217322044Y-74047813D01*
X217226806Y-74000194D01*
X217036330Y-73952575D01*
X216893472Y-73952575D01*
X216702996Y-74000194D01*
X216607758Y-74047813D01*
X216512520Y-74143051D01*
X216464901Y-74285909D01*
X216464901Y-74381147D01*
X216512520Y-74524004D01*
X216560139Y-74571623D01*
X216464901Y-74904956D02*
X216464901Y-75524004D01*
X216845853Y-75190670D01*
X216845853Y-75333528D01*
X216893472Y-75428766D01*
X216941091Y-75476385D01*
X217036330Y-75524004D01*
X217274425Y-75524004D01*
X217369663Y-75476385D01*
X217417282Y-75428766D01*
X217464901Y-75333528D01*
X217464901Y-75047813D01*
X217417282Y-74952575D01*
X217369663Y-74904956D01*
X216893472Y-76095432D02*
X216845853Y-76000194D01*
X216798234Y-75952575D01*
X216702996Y-75904956D01*
X216655377Y-75904956D01*
X216560139Y-75952575D01*
X216512520Y-76000194D01*
X216464901Y-76095432D01*
X216464901Y-76285909D01*
X216512520Y-76381147D01*
X216560139Y-76428766D01*
X216655377Y-76476385D01*
X216702996Y-76476385D01*
X216798234Y-76428766D01*
X216845853Y-76381147D01*
X216893472Y-76285909D01*
X216893472Y-76095432D01*
X216941091Y-76000194D01*
X216988710Y-75952575D01*
X217083949Y-75904956D01*
X217274425Y-75904956D01*
X217369663Y-75952575D01*
X217417282Y-76000194D01*
X217464901Y-76095432D01*
X217464901Y-76285909D01*
X217417282Y-76381147D01*
X217369663Y-76428766D01*
X217274425Y-76476385D01*
X217083949Y-76476385D01*
X216988710Y-76428766D01*
X216941091Y-76381147D01*
X216893472Y-76285909D01*
X218639663Y-76603623D02*
X218687282Y-76556004D01*
X218734901Y-76413147D01*
X218734901Y-76317909D01*
X218687282Y-76175051D01*
X218592044Y-76079813D01*
X218496806Y-76032194D01*
X218306330Y-75984575D01*
X218163472Y-75984575D01*
X217972996Y-76032194D01*
X217877758Y-76079813D01*
X217782520Y-76175051D01*
X217734901Y-76317909D01*
X217734901Y-76413147D01*
X217782520Y-76556004D01*
X217830139Y-76603623D01*
X217734901Y-76936956D02*
X217734901Y-77556004D01*
X218115853Y-77222670D01*
X218115853Y-77365528D01*
X218163472Y-77460766D01*
X218211091Y-77508385D01*
X218306330Y-77556004D01*
X218544425Y-77556004D01*
X218639663Y-77508385D01*
X218687282Y-77460766D01*
X218734901Y-77365528D01*
X218734901Y-77079813D01*
X218687282Y-76984575D01*
X218639663Y-76936956D01*
X218734901Y-78508385D02*
X218734901Y-77936956D01*
X218734901Y-78222670D02*
X217734901Y-78222670D01*
X217877758Y-78127432D01*
X217972996Y-78032194D01*
X218020615Y-77936956D01*
X147392663Y-79651623D02*
X147440282Y-79604004D01*
X147487901Y-79461147D01*
X147487901Y-79365909D01*
X147440282Y-79223051D01*
X147345044Y-79127813D01*
X147249806Y-79080194D01*
X147059330Y-79032575D01*
X146916472Y-79032575D01*
X146725996Y-79080194D01*
X146630758Y-79127813D01*
X146535520Y-79223051D01*
X146487901Y-79365909D01*
X146487901Y-79461147D01*
X146535520Y-79604004D01*
X146583139Y-79651623D01*
X147487901Y-80604004D02*
X147487901Y-80032575D01*
X147487901Y-80318289D02*
X146487901Y-80318289D01*
X146630758Y-80223051D01*
X146725996Y-80127813D01*
X146773615Y-80032575D01*
X146487901Y-80937337D02*
X146487901Y-81604004D01*
X147487901Y-81175432D01*
X141423663Y-80032623D02*
X141471282Y-79985004D01*
X141518901Y-79842147D01*
X141518901Y-79746909D01*
X141471282Y-79604051D01*
X141376044Y-79508813D01*
X141280806Y-79461194D01*
X141090330Y-79413575D01*
X140947472Y-79413575D01*
X140756996Y-79461194D01*
X140661758Y-79508813D01*
X140566520Y-79604051D01*
X140518901Y-79746909D01*
X140518901Y-79842147D01*
X140566520Y-79985004D01*
X140614139Y-80032623D01*
X141518901Y-80985004D02*
X141518901Y-80413575D01*
X141518901Y-80699289D02*
X140518901Y-80699289D01*
X140661758Y-80604051D01*
X140756996Y-80508813D01*
X140804615Y-80413575D01*
X141518901Y-81937385D02*
X141518901Y-81365956D01*
X141518901Y-81651670D02*
X140518901Y-81651670D01*
X140661758Y-81556432D01*
X140756996Y-81461194D01*
X140804615Y-81365956D01*
X144154186Y-69475623D02*
X144201805Y-69523242D01*
X144344662Y-69570861D01*
X144439900Y-69570861D01*
X144582758Y-69523242D01*
X144677996Y-69428004D01*
X144725615Y-69332766D01*
X144773234Y-69142290D01*
X144773234Y-68999432D01*
X144725615Y-68808956D01*
X144677996Y-68713718D01*
X144582758Y-68618480D01*
X144439900Y-68570861D01*
X144344662Y-68570861D01*
X144201805Y-68618480D01*
X144154186Y-68666099D01*
X143677996Y-69570861D02*
X143487520Y-69570861D01*
X143392281Y-69523242D01*
X143344662Y-69475623D01*
X143249424Y-69332766D01*
X143201805Y-69142290D01*
X143201805Y-68761337D01*
X143249424Y-68666099D01*
X143297043Y-68618480D01*
X143392281Y-68570861D01*
X143582758Y-68570861D01*
X143677996Y-68618480D01*
X143725615Y-68666099D01*
X143773234Y-68761337D01*
X143773234Y-68999432D01*
X143725615Y-69094670D01*
X143677996Y-69142290D01*
X143582758Y-69189909D01*
X143392281Y-69189909D01*
X143297043Y-69142290D01*
X143249424Y-69094670D01*
X143201805Y-68999432D01*
X211019663Y-73904814D02*
X211067282Y-73857195D01*
X211114901Y-73714338D01*
X211114901Y-73619100D01*
X211067282Y-73476242D01*
X210972044Y-73381004D01*
X210876806Y-73333385D01*
X210686330Y-73285766D01*
X210543472Y-73285766D01*
X210352996Y-73333385D01*
X210257758Y-73381004D01*
X210162520Y-73476242D01*
X210114901Y-73619100D01*
X210114901Y-73714338D01*
X210162520Y-73857195D01*
X210210139Y-73904814D01*
X210114901Y-74809576D02*
X210114901Y-74333385D01*
X210591091Y-74285766D01*
X210543472Y-74333385D01*
X210495853Y-74428623D01*
X210495853Y-74666719D01*
X210543472Y-74761957D01*
X210591091Y-74809576D01*
X210686330Y-74857195D01*
X210924425Y-74857195D01*
X211019663Y-74809576D01*
X211067282Y-74761957D01*
X211114901Y-74666719D01*
X211114901Y-74428623D01*
X211067282Y-74333385D01*
X211019663Y-74285766D01*
X208574901Y-114830623D02*
X208098710Y-114497289D01*
X208574901Y-114259194D02*
X207574901Y-114259194D01*
X207574901Y-114640147D01*
X207622520Y-114735385D01*
X207670139Y-114783004D01*
X207765377Y-114830623D01*
X207908234Y-114830623D01*
X208003472Y-114783004D01*
X208051091Y-114735385D01*
X208098710Y-114640147D01*
X208098710Y-114259194D01*
X208574901Y-115783004D02*
X208574901Y-115211575D01*
X208574901Y-115497289D02*
X207574901Y-115497289D01*
X207717758Y-115402051D01*
X207812996Y-115306813D01*
X207860615Y-115211575D01*
X208574901Y-116259194D02*
X208574901Y-116449670D01*
X208527282Y-116544909D01*
X208479663Y-116592528D01*
X208336806Y-116687766D01*
X208146330Y-116735385D01*
X207765377Y-116735385D01*
X207670139Y-116687766D01*
X207622520Y-116640147D01*
X207574901Y-116544909D01*
X207574901Y-116354432D01*
X207622520Y-116259194D01*
X207670139Y-116211575D01*
X207765377Y-116163956D01*
X208003472Y-116163956D01*
X208098710Y-116211575D01*
X208146330Y-116259194D01*
X208193949Y-116354432D01*
X208193949Y-116544909D01*
X208146330Y-116640147D01*
X208098710Y-116687766D01*
X208003472Y-116735385D01*
X219814377Y-113131861D02*
X220147711Y-112655670D01*
X220385806Y-113131861D02*
X220385806Y-112131861D01*
X220004853Y-112131861D01*
X219909615Y-112179480D01*
X219861996Y-112227099D01*
X219814377Y-112322337D01*
X219814377Y-112465194D01*
X219861996Y-112560432D01*
X219909615Y-112608051D01*
X220004853Y-112655670D01*
X220385806Y-112655670D01*
X219433425Y-112227099D02*
X219385806Y-112179480D01*
X219290568Y-112131861D01*
X219052472Y-112131861D01*
X218957234Y-112179480D01*
X218909615Y-112227099D01*
X218861996Y-112322337D01*
X218861996Y-112417575D01*
X218909615Y-112560432D01*
X219481044Y-113131861D01*
X218861996Y-113131861D01*
X218528663Y-112131861D02*
X217909615Y-112131861D01*
X218242949Y-112512813D01*
X218100091Y-112512813D01*
X218004853Y-112560432D01*
X217957234Y-112608051D01*
X217909615Y-112703290D01*
X217909615Y-112941385D01*
X217957234Y-113036623D01*
X218004853Y-113084242D01*
X218100091Y-113131861D01*
X218385806Y-113131861D01*
X218481044Y-113084242D01*
X218528663Y-113036623D01*
X145614663Y-83334623D02*
X145662282Y-83287004D01*
X145709901Y-83144147D01*
X145709901Y-83048909D01*
X145662282Y-82906051D01*
X145567044Y-82810813D01*
X145471806Y-82763194D01*
X145281330Y-82715575D01*
X145138472Y-82715575D01*
X144947996Y-82763194D01*
X144852758Y-82810813D01*
X144757520Y-82906051D01*
X144709901Y-83048909D01*
X144709901Y-83144147D01*
X144757520Y-83287004D01*
X144805139Y-83334623D01*
X145043234Y-84191766D02*
X145709901Y-84191766D01*
X144662282Y-83953670D02*
X145376568Y-83715575D01*
X145376568Y-84334623D01*
X144805139Y-84667956D02*
X144757520Y-84715575D01*
X144709901Y-84810813D01*
X144709901Y-85048909D01*
X144757520Y-85144147D01*
X144805139Y-85191766D01*
X144900377Y-85239385D01*
X144995615Y-85239385D01*
X145138472Y-85191766D01*
X145709901Y-84620337D01*
X145709901Y-85239385D01*
X149551663Y-86128623D02*
X149599282Y-86081004D01*
X149646901Y-85938147D01*
X149646901Y-85842909D01*
X149599282Y-85700051D01*
X149504044Y-85604813D01*
X149408806Y-85557194D01*
X149218330Y-85509575D01*
X149075472Y-85509575D01*
X148884996Y-85557194D01*
X148789758Y-85604813D01*
X148694520Y-85700051D01*
X148646901Y-85842909D01*
X148646901Y-85938147D01*
X148694520Y-86081004D01*
X148742139Y-86128623D01*
X148980234Y-86985766D02*
X149646901Y-86985766D01*
X148599282Y-86747670D02*
X149313568Y-86509575D01*
X149313568Y-87128623D01*
X148646901Y-87414337D02*
X148646901Y-88033385D01*
X149027853Y-87700051D01*
X149027853Y-87842909D01*
X149075472Y-87938147D01*
X149123091Y-87985766D01*
X149218330Y-88033385D01*
X149456425Y-88033385D01*
X149551663Y-87985766D01*
X149599282Y-87938147D01*
X149646901Y-87842909D01*
X149646901Y-87557194D01*
X149599282Y-87461956D01*
X149551663Y-87414337D01*
X149424663Y-92478623D02*
X149472282Y-92431004D01*
X149519901Y-92288147D01*
X149519901Y-92192909D01*
X149472282Y-92050051D01*
X149377044Y-91954813D01*
X149281806Y-91907194D01*
X149091330Y-91859575D01*
X148948472Y-91859575D01*
X148757996Y-91907194D01*
X148662758Y-91954813D01*
X148567520Y-92050051D01*
X148519901Y-92192909D01*
X148519901Y-92288147D01*
X148567520Y-92431004D01*
X148615139Y-92478623D01*
X148853234Y-93335766D02*
X149519901Y-93335766D01*
X148472282Y-93097670D02*
X149186568Y-92859575D01*
X149186568Y-93478623D01*
X148853234Y-94288147D02*
X149519901Y-94288147D01*
X148472282Y-94050051D02*
X149186568Y-93811956D01*
X149186568Y-94431004D01*
X159679901Y-80286623D02*
X159203710Y-79953289D01*
X159679901Y-79715194D02*
X158679901Y-79715194D01*
X158679901Y-80096147D01*
X158727520Y-80191385D01*
X158775139Y-80239004D01*
X158870377Y-80286623D01*
X159013234Y-80286623D01*
X159108472Y-80239004D01*
X159156091Y-80191385D01*
X159203710Y-80096147D01*
X159203710Y-79715194D01*
X158775139Y-80667575D02*
X158727520Y-80715194D01*
X158679901Y-80810432D01*
X158679901Y-81048528D01*
X158727520Y-81143766D01*
X158775139Y-81191385D01*
X158870377Y-81239004D01*
X158965615Y-81239004D01*
X159108472Y-81191385D01*
X159679901Y-80619956D01*
X159679901Y-81239004D01*
X159679901Y-81715194D02*
X159679901Y-81905670D01*
X159632282Y-82000909D01*
X159584663Y-82048528D01*
X159441806Y-82143766D01*
X159251330Y-82191385D01*
X158870377Y-82191385D01*
X158775139Y-82143766D01*
X158727520Y-82096147D01*
X158679901Y-82000909D01*
X158679901Y-81810432D01*
X158727520Y-81715194D01*
X158775139Y-81667575D01*
X158870377Y-81619956D01*
X159108472Y-81619956D01*
X159203710Y-81667575D01*
X159251330Y-81715194D01*
X159298949Y-81810432D01*
X159298949Y-82000909D01*
X159251330Y-82096147D01*
X159203710Y-82143766D01*
X159108472Y-82191385D01*
X164315377Y-88112861D02*
X164648711Y-87636670D01*
X164886806Y-88112861D02*
X164886806Y-87112861D01*
X164505853Y-87112861D01*
X164410615Y-87160480D01*
X164362996Y-87208099D01*
X164315377Y-87303337D01*
X164315377Y-87446194D01*
X164362996Y-87541432D01*
X164410615Y-87589051D01*
X164505853Y-87636670D01*
X164886806Y-87636670D01*
X163982044Y-87112861D02*
X163362996Y-87112861D01*
X163696330Y-87493813D01*
X163553472Y-87493813D01*
X163458234Y-87541432D01*
X163410615Y-87589051D01*
X163362996Y-87684290D01*
X163362996Y-87922385D01*
X163410615Y-88017623D01*
X163458234Y-88065242D01*
X163553472Y-88112861D01*
X163839187Y-88112861D01*
X163934425Y-88065242D01*
X163982044Y-88017623D01*
X162410615Y-88112861D02*
X162982044Y-88112861D01*
X162696330Y-88112861D02*
X162696330Y-87112861D01*
X162791568Y-87255718D01*
X162886806Y-87350956D01*
X162982044Y-87398575D01*
X159679901Y-91716623D02*
X159203710Y-91383289D01*
X159679901Y-91145194D02*
X158679901Y-91145194D01*
X158679901Y-91526147D01*
X158727520Y-91621385D01*
X158775139Y-91669004D01*
X158870377Y-91716623D01*
X159013234Y-91716623D01*
X159108472Y-91669004D01*
X159156091Y-91621385D01*
X159203710Y-91526147D01*
X159203710Y-91145194D01*
X158679901Y-92049956D02*
X158679901Y-92669004D01*
X159060853Y-92335670D01*
X159060853Y-92478528D01*
X159108472Y-92573766D01*
X159156091Y-92621385D01*
X159251330Y-92669004D01*
X159489425Y-92669004D01*
X159584663Y-92621385D01*
X159632282Y-92573766D01*
X159679901Y-92478528D01*
X159679901Y-92192813D01*
X159632282Y-92097575D01*
X159584663Y-92049956D01*
X158775139Y-93049956D02*
X158727520Y-93097575D01*
X158679901Y-93192813D01*
X158679901Y-93430909D01*
X158727520Y-93526147D01*
X158775139Y-93573766D01*
X158870377Y-93621385D01*
X158965615Y-93621385D01*
X159108472Y-93573766D01*
X159679901Y-93002337D01*
X159679901Y-93621385D01*
X164442377Y-99542861D02*
X164775711Y-99066670D01*
X165013806Y-99542861D02*
X165013806Y-98542861D01*
X164632853Y-98542861D01*
X164537615Y-98590480D01*
X164489996Y-98638099D01*
X164442377Y-98733337D01*
X164442377Y-98876194D01*
X164489996Y-98971432D01*
X164537615Y-99019051D01*
X164632853Y-99066670D01*
X165013806Y-99066670D01*
X164109044Y-98542861D02*
X163489996Y-98542861D01*
X163823330Y-98923813D01*
X163680472Y-98923813D01*
X163585234Y-98971432D01*
X163537615Y-99019051D01*
X163489996Y-99114290D01*
X163489996Y-99352385D01*
X163537615Y-99447623D01*
X163585234Y-99495242D01*
X163680472Y-99542861D01*
X163966187Y-99542861D01*
X164061425Y-99495242D01*
X164109044Y-99447623D01*
X162632853Y-98876194D02*
X162632853Y-99542861D01*
X162870949Y-98495242D02*
X163109044Y-99209528D01*
X162489996Y-99209528D01*
X164315377Y-111099861D02*
X164648711Y-110623670D01*
X164886806Y-111099861D02*
X164886806Y-110099861D01*
X164505853Y-110099861D01*
X164410615Y-110147480D01*
X164362996Y-110195099D01*
X164315377Y-110290337D01*
X164315377Y-110433194D01*
X164362996Y-110528432D01*
X164410615Y-110576051D01*
X164505853Y-110623670D01*
X164886806Y-110623670D01*
X163982044Y-110099861D02*
X163362996Y-110099861D01*
X163696330Y-110480813D01*
X163553472Y-110480813D01*
X163458234Y-110528432D01*
X163410615Y-110576051D01*
X163362996Y-110671290D01*
X163362996Y-110909385D01*
X163410615Y-111004623D01*
X163458234Y-111052242D01*
X163553472Y-111099861D01*
X163839187Y-111099861D01*
X163934425Y-111052242D01*
X163982044Y-111004623D01*
X163029663Y-110099861D02*
X162362996Y-110099861D01*
X162791568Y-111099861D01*
X159235377Y-76809861D02*
X159568711Y-76333670D01*
X159806806Y-76809861D02*
X159806806Y-75809861D01*
X159425853Y-75809861D01*
X159330615Y-75857480D01*
X159282996Y-75905099D01*
X159235377Y-76000337D01*
X159235377Y-76143194D01*
X159282996Y-76238432D01*
X159330615Y-76286051D01*
X159425853Y-76333670D01*
X159806806Y-76333670D01*
X158282996Y-76809861D02*
X158854425Y-76809861D01*
X158568711Y-76809861D02*
X158568711Y-75809861D01*
X158663949Y-75952718D01*
X158759187Y-76047956D01*
X158854425Y-76095575D01*
X157330615Y-76809861D02*
X157902044Y-76809861D01*
X157616330Y-76809861D02*
X157616330Y-75809861D01*
X157711568Y-75952718D01*
X157806806Y-76047956D01*
X157902044Y-76095575D01*
X217242615Y-100939861D02*
X217242615Y-99939861D01*
X216861662Y-99939861D01*
X216766424Y-99987480D01*
X216718805Y-100035099D01*
X216671186Y-100130337D01*
X216671186Y-100273194D01*
X216718805Y-100368432D01*
X216766424Y-100416051D01*
X216861662Y-100463670D01*
X217242615Y-100463670D01*
X216337853Y-99939861D02*
X215718805Y-99939861D01*
X216052139Y-100320813D01*
X215909281Y-100320813D01*
X215814043Y-100368432D01*
X215766424Y-100416051D01*
X215718805Y-100511290D01*
X215718805Y-100749385D01*
X215766424Y-100844623D01*
X215814043Y-100892242D01*
X215909281Y-100939861D01*
X216194996Y-100939861D01*
X216290234Y-100892242D01*
X216337853Y-100844623D01*
X212765806Y-66649861D02*
X212765806Y-65649861D01*
X212384853Y-65649861D01*
X212289615Y-65697480D01*
X212241996Y-65745099D01*
X212194377Y-65840337D01*
X212194377Y-65983194D01*
X212241996Y-66078432D01*
X212289615Y-66126051D01*
X212384853Y-66173670D01*
X212765806Y-66173670D01*
X211813425Y-65745099D02*
X211765806Y-65697480D01*
X211670568Y-65649861D01*
X211432472Y-65649861D01*
X211337234Y-65697480D01*
X211289615Y-65745099D01*
X211241996Y-65840337D01*
X211241996Y-65935575D01*
X211289615Y-66078432D01*
X211861044Y-66649861D01*
X211241996Y-66649861D01*
X210289615Y-66649861D02*
X210861044Y-66649861D01*
X210575330Y-66649861D02*
X210575330Y-65649861D01*
X210670568Y-65792718D01*
X210765806Y-65887956D01*
X210861044Y-65935575D01*
X167371282Y-69586861D02*
X167133187Y-70586861D01*
X166942710Y-69872575D01*
X166752234Y-70586861D01*
X166514139Y-69586861D01*
X165609377Y-70586861D02*
X166180806Y-70586861D01*
X165895092Y-70586861D02*
X165895092Y-69586861D01*
X165990330Y-69729718D01*
X166085568Y-69824956D01*
X166180806Y-69872575D01*
X166751901Y-67935861D02*
X166180472Y-67935861D01*
X166466187Y-68935861D02*
X166466187Y-67935861D01*
X165847139Y-68412051D02*
X165513805Y-68412051D01*
X165370948Y-68935861D02*
X165847139Y-68935861D01*
X165847139Y-67935861D01*
X165370948Y-67935861D01*
X164989996Y-68888242D02*
X164847139Y-68935861D01*
X164609043Y-68935861D01*
X164513805Y-68888242D01*
X164466186Y-68840623D01*
X164418567Y-68745385D01*
X164418567Y-68650147D01*
X164466186Y-68554909D01*
X164513805Y-68507290D01*
X164609043Y-68459670D01*
X164799520Y-68412051D01*
X164894758Y-68364432D01*
X164942377Y-68316813D01*
X164989996Y-68221575D01*
X164989996Y-68126337D01*
X164942377Y-68031099D01*
X164894758Y-67983480D01*
X164799520Y-67935861D01*
X164561424Y-67935861D01*
X164418567Y-67983480D01*
X164132853Y-67935861D02*
X163561424Y-67935861D01*
X163847139Y-68935861D02*
X163847139Y-67935861D01*
X163466186Y-69031099D02*
X162704281Y-69031099D01*
X162513805Y-68031099D02*
X162466186Y-67983480D01*
X162370948Y-67935861D01*
X162132852Y-67935861D01*
X162037614Y-67983480D01*
X161989995Y-68031099D01*
X161942376Y-68126337D01*
X161942376Y-68221575D01*
X161989995Y-68364432D01*
X162561424Y-68935861D01*
X161942376Y-68935861D01*
X161513805Y-68935861D02*
X161513805Y-67935861D01*
X161132852Y-67935861D01*
X161037614Y-67983480D01*
X160989995Y-68031099D01*
X160942376Y-68126337D01*
X160942376Y-68269194D01*
X160989995Y-68364432D01*
X161037614Y-68412051D01*
X161132852Y-68459670D01*
X161513805Y-68459670D01*
X167498282Y-81016861D02*
X167260187Y-82016861D01*
X167069710Y-81302575D01*
X166879234Y-82016861D01*
X166641139Y-81016861D01*
X166307806Y-81112099D02*
X166260187Y-81064480D01*
X166164949Y-81016861D01*
X165926853Y-81016861D01*
X165831615Y-81064480D01*
X165783996Y-81112099D01*
X165736377Y-81207337D01*
X165736377Y-81302575D01*
X165783996Y-81445432D01*
X166355425Y-82016861D01*
X165736377Y-82016861D01*
X166624901Y-79365861D02*
X166053472Y-79365861D01*
X166339187Y-80365861D02*
X166339187Y-79365861D01*
X165720139Y-79842051D02*
X165386805Y-79842051D01*
X165243948Y-80365861D02*
X165720139Y-80365861D01*
X165720139Y-79365861D01*
X165243948Y-79365861D01*
X164862996Y-80318242D02*
X164720139Y-80365861D01*
X164482043Y-80365861D01*
X164386805Y-80318242D01*
X164339186Y-80270623D01*
X164291567Y-80175385D01*
X164291567Y-80080147D01*
X164339186Y-79984909D01*
X164386805Y-79937290D01*
X164482043Y-79889670D01*
X164672520Y-79842051D01*
X164767758Y-79794432D01*
X164815377Y-79746813D01*
X164862996Y-79651575D01*
X164862996Y-79556337D01*
X164815377Y-79461099D01*
X164767758Y-79413480D01*
X164672520Y-79365861D01*
X164434424Y-79365861D01*
X164291567Y-79413480D01*
X164005853Y-79365861D02*
X163434424Y-79365861D01*
X163720139Y-80365861D02*
X163720139Y-79365861D01*
X163339186Y-80461099D02*
X162577281Y-80461099D01*
X162386805Y-79461099D02*
X162339186Y-79413480D01*
X162243948Y-79365861D01*
X162005852Y-79365861D01*
X161910614Y-79413480D01*
X161862995Y-79461099D01*
X161815376Y-79556337D01*
X161815376Y-79651575D01*
X161862995Y-79794432D01*
X162434424Y-80365861D01*
X161815376Y-80365861D01*
X161386805Y-80365861D02*
X161386805Y-79365861D01*
X161005852Y-79365861D01*
X160910614Y-79413480D01*
X160862995Y-79461099D01*
X160815376Y-79556337D01*
X160815376Y-79699194D01*
X160862995Y-79794432D01*
X160910614Y-79842051D01*
X161005852Y-79889670D01*
X161386805Y-79889670D01*
X167498282Y-92446861D02*
X167260187Y-93446861D01*
X167069710Y-92732575D01*
X166879234Y-93446861D01*
X166641139Y-92446861D01*
X166355425Y-92446861D02*
X165736377Y-92446861D01*
X166069711Y-92827813D01*
X165926853Y-92827813D01*
X165831615Y-92875432D01*
X165783996Y-92923051D01*
X165736377Y-93018290D01*
X165736377Y-93256385D01*
X165783996Y-93351623D01*
X165831615Y-93399242D01*
X165926853Y-93446861D01*
X166212568Y-93446861D01*
X166307806Y-93399242D01*
X166355425Y-93351623D01*
X166624901Y-90795861D02*
X166053472Y-90795861D01*
X166339187Y-91795861D02*
X166339187Y-90795861D01*
X165720139Y-91272051D02*
X165386805Y-91272051D01*
X165243948Y-91795861D02*
X165720139Y-91795861D01*
X165720139Y-90795861D01*
X165243948Y-90795861D01*
X164862996Y-91748242D02*
X164720139Y-91795861D01*
X164482043Y-91795861D01*
X164386805Y-91748242D01*
X164339186Y-91700623D01*
X164291567Y-91605385D01*
X164291567Y-91510147D01*
X164339186Y-91414909D01*
X164386805Y-91367290D01*
X164482043Y-91319670D01*
X164672520Y-91272051D01*
X164767758Y-91224432D01*
X164815377Y-91176813D01*
X164862996Y-91081575D01*
X164862996Y-90986337D01*
X164815377Y-90891099D01*
X164767758Y-90843480D01*
X164672520Y-90795861D01*
X164434424Y-90795861D01*
X164291567Y-90843480D01*
X164005853Y-90795861D02*
X163434424Y-90795861D01*
X163720139Y-91795861D02*
X163720139Y-90795861D01*
X163339186Y-91891099D02*
X162577281Y-91891099D01*
X162386805Y-90891099D02*
X162339186Y-90843480D01*
X162243948Y-90795861D01*
X162005852Y-90795861D01*
X161910614Y-90843480D01*
X161862995Y-90891099D01*
X161815376Y-90986337D01*
X161815376Y-91081575D01*
X161862995Y-91224432D01*
X162434424Y-91795861D01*
X161815376Y-91795861D01*
X161386805Y-91795861D02*
X161386805Y-90795861D01*
X161005852Y-90795861D01*
X160910614Y-90843480D01*
X160862995Y-90891099D01*
X160815376Y-90986337D01*
X160815376Y-91129194D01*
X160862995Y-91224432D01*
X160910614Y-91272051D01*
X161005852Y-91319670D01*
X161386805Y-91319670D01*
X167371282Y-103876861D02*
X167133187Y-104876861D01*
X166942710Y-104162575D01*
X166752234Y-104876861D01*
X166514139Y-103876861D01*
X165704615Y-104210194D02*
X165704615Y-104876861D01*
X165942711Y-103829242D02*
X166180806Y-104543528D01*
X165561758Y-104543528D01*
X166624901Y-102225861D02*
X166053472Y-102225861D01*
X166339187Y-103225861D02*
X166339187Y-102225861D01*
X165720139Y-102702051D02*
X165386805Y-102702051D01*
X165243948Y-103225861D02*
X165720139Y-103225861D01*
X165720139Y-102225861D01*
X165243948Y-102225861D01*
X164862996Y-103178242D02*
X164720139Y-103225861D01*
X164482043Y-103225861D01*
X164386805Y-103178242D01*
X164339186Y-103130623D01*
X164291567Y-103035385D01*
X164291567Y-102940147D01*
X164339186Y-102844909D01*
X164386805Y-102797290D01*
X164482043Y-102749670D01*
X164672520Y-102702051D01*
X164767758Y-102654432D01*
X164815377Y-102606813D01*
X164862996Y-102511575D01*
X164862996Y-102416337D01*
X164815377Y-102321099D01*
X164767758Y-102273480D01*
X164672520Y-102225861D01*
X164434424Y-102225861D01*
X164291567Y-102273480D01*
X164005853Y-102225861D02*
X163434424Y-102225861D01*
X163720139Y-103225861D02*
X163720139Y-102225861D01*
X163339186Y-103321099D02*
X162577281Y-103321099D01*
X162386805Y-102321099D02*
X162339186Y-102273480D01*
X162243948Y-102225861D01*
X162005852Y-102225861D01*
X161910614Y-102273480D01*
X161862995Y-102321099D01*
X161815376Y-102416337D01*
X161815376Y-102511575D01*
X161862995Y-102654432D01*
X162434424Y-103225861D01*
X161815376Y-103225861D01*
X161386805Y-103225861D02*
X161386805Y-102225861D01*
X161005852Y-102225861D01*
X160910614Y-102273480D01*
X160862995Y-102321099D01*
X160815376Y-102416337D01*
X160815376Y-102559194D01*
X160862995Y-102654432D01*
X160910614Y-102702051D01*
X161005852Y-102749670D01*
X161386805Y-102749670D01*
X186699186Y-111226861D02*
X187032520Y-110750670D01*
X187270615Y-111226861D02*
X187270615Y-110226861D01*
X186889662Y-110226861D01*
X186794424Y-110274480D01*
X186746805Y-110322099D01*
X186699186Y-110417337D01*
X186699186Y-110560194D01*
X186746805Y-110655432D01*
X186794424Y-110703051D01*
X186889662Y-110750670D01*
X187270615Y-110750670D01*
X186222996Y-111226861D02*
X186032520Y-111226861D01*
X185937281Y-111179242D01*
X185889662Y-111131623D01*
X185794424Y-110988766D01*
X185746805Y-110798290D01*
X185746805Y-110417337D01*
X185794424Y-110322099D01*
X185842043Y-110274480D01*
X185937281Y-110226861D01*
X186127758Y-110226861D01*
X186222996Y-110274480D01*
X186270615Y-110322099D01*
X186318234Y-110417337D01*
X186318234Y-110655432D01*
X186270615Y-110750670D01*
X186222996Y-110798290D01*
X186127758Y-110845909D01*
X185937281Y-110845909D01*
X185842043Y-110798290D01*
X185794424Y-110750670D01*
X185746805Y-110655432D01*
X159235377Y-88311861D02*
X159568711Y-87835670D01*
X159806806Y-88311861D02*
X159806806Y-87311861D01*
X159425853Y-87311861D01*
X159330615Y-87359480D01*
X159282996Y-87407099D01*
X159235377Y-87502337D01*
X159235377Y-87645194D01*
X159282996Y-87740432D01*
X159330615Y-87788051D01*
X159425853Y-87835670D01*
X159806806Y-87835670D01*
X158282996Y-88311861D02*
X158854425Y-88311861D01*
X158568711Y-88311861D02*
X158568711Y-87311861D01*
X158663949Y-87454718D01*
X158759187Y-87549956D01*
X158854425Y-87597575D01*
X157902044Y-87407099D02*
X157854425Y-87359480D01*
X157759187Y-87311861D01*
X157521091Y-87311861D01*
X157425853Y-87359480D01*
X157378234Y-87407099D01*
X157330615Y-87502337D01*
X157330615Y-87597575D01*
X157378234Y-87740432D01*
X157949663Y-88311861D01*
X157330615Y-88311861D01*
X159235377Y-99741861D02*
X159568711Y-99265670D01*
X159806806Y-99741861D02*
X159806806Y-98741861D01*
X159425853Y-98741861D01*
X159330615Y-98789480D01*
X159282996Y-98837099D01*
X159235377Y-98932337D01*
X159235377Y-99075194D01*
X159282996Y-99170432D01*
X159330615Y-99218051D01*
X159425853Y-99265670D01*
X159806806Y-99265670D01*
X158282996Y-99741861D02*
X158854425Y-99741861D01*
X158568711Y-99741861D02*
X158568711Y-98741861D01*
X158663949Y-98884718D01*
X158759187Y-98979956D01*
X158854425Y-99027575D01*
X157949663Y-98741861D02*
X157330615Y-98741861D01*
X157663949Y-99122813D01*
X157521091Y-99122813D01*
X157425853Y-99170432D01*
X157378234Y-99218051D01*
X157330615Y-99313290D01*
X157330615Y-99551385D01*
X157378234Y-99646623D01*
X157425853Y-99694242D01*
X157521091Y-99741861D01*
X157806806Y-99741861D01*
X157902044Y-99694242D01*
X157949663Y-99646623D01*
X145614663Y-88763814D02*
X145662282Y-88716195D01*
X145709901Y-88573338D01*
X145709901Y-88478100D01*
X145662282Y-88335242D01*
X145567044Y-88240004D01*
X145471806Y-88192385D01*
X145281330Y-88144766D01*
X145138472Y-88144766D01*
X144947996Y-88192385D01*
X144852758Y-88240004D01*
X144757520Y-88335242D01*
X144709901Y-88478100D01*
X144709901Y-88573338D01*
X144757520Y-88716195D01*
X144805139Y-88763814D01*
X145043234Y-89620957D02*
X145709901Y-89620957D01*
X144662282Y-89382861D02*
X145376568Y-89144766D01*
X145376568Y-89763814D01*
X175173901Y-76508385D02*
X174173901Y-76508385D01*
X174173901Y-76889338D01*
X174221520Y-76984576D01*
X174269139Y-77032195D01*
X174364377Y-77079814D01*
X174507234Y-77079814D01*
X174602472Y-77032195D01*
X174650091Y-76984576D01*
X174697710Y-76889338D01*
X174697710Y-76508385D01*
X174173901Y-77413147D02*
X174173901Y-78079814D01*
X175173901Y-77651242D01*
D14*
X216021806Y-96782337D02*
X216021806Y-97753766D01*
X215964663Y-97868051D01*
X215907520Y-97925194D01*
X215793234Y-97982337D01*
X215564663Y-97982337D01*
X215450377Y-97925194D01*
X215393234Y-97868051D01*
X215336091Y-97753766D01*
X215336091Y-96782337D01*
X214821806Y-96896623D02*
X214764663Y-96839480D01*
X214650377Y-96782337D01*
X214364663Y-96782337D01*
X214250377Y-96839480D01*
X214193234Y-96896623D01*
X214136091Y-97010909D01*
X214136091Y-97125194D01*
X214193234Y-97296623D01*
X214878948Y-97982337D01*
X214136091Y-97982337D01*
X224600377Y-99957337D02*
X223914663Y-99957337D01*
X224257520Y-101157337D02*
X224257520Y-99957337D01*
X222943234Y-101157337D02*
X223514663Y-101157337D01*
X223514663Y-99957337D01*
X222543234Y-101157337D02*
X222543234Y-99957337D01*
X222086091Y-99957337D01*
X221971805Y-100014480D01*
X221914662Y-100071623D01*
X221857519Y-100185909D01*
X221857519Y-100357337D01*
X221914662Y-100471623D01*
X221971805Y-100528766D01*
X222086091Y-100585909D01*
X222543234Y-100585909D01*
X221400377Y-100071623D02*
X221343234Y-100014480D01*
X221228948Y-99957337D01*
X220943234Y-99957337D01*
X220828948Y-100014480D01*
X220771805Y-100071623D01*
X220714662Y-100185909D01*
X220714662Y-100300194D01*
X220771805Y-100471623D01*
X221457519Y-101157337D01*
X220714662Y-101157337D01*
X220143234Y-101157337D02*
X219914662Y-101157337D01*
X219800377Y-101100194D01*
X219743234Y-101043051D01*
X219628948Y-100871623D01*
X219571805Y-100643051D01*
X219571805Y-100185909D01*
X219628948Y-100071623D01*
X219686091Y-100014480D01*
X219800377Y-99957337D01*
X220028948Y-99957337D01*
X220143234Y-100014480D01*
X220200377Y-100071623D01*
X220257520Y-100185909D01*
X220257520Y-100471623D01*
X220200377Y-100585909D01*
X220143234Y-100643051D01*
X220028948Y-100700194D01*
X219800377Y-100700194D01*
X219686091Y-100643051D01*
X219628948Y-100585909D01*
X219571805Y-100471623D01*
X218828948Y-99957337D02*
X218714663Y-99957337D01*
X218600377Y-100014480D01*
X218543234Y-100071623D01*
X218486091Y-100185909D01*
X218428948Y-100414480D01*
X218428948Y-100700194D01*
X218486091Y-100928766D01*
X218543234Y-101043051D01*
X218600377Y-101100194D01*
X218714663Y-101157337D01*
X218828948Y-101157337D01*
X218943234Y-101100194D01*
X219000377Y-101043051D01*
X219057520Y-100928766D01*
X219114663Y-100700194D01*
X219114663Y-100414480D01*
X219057520Y-100185909D01*
X219000377Y-100071623D01*
X218943234Y-100014480D01*
X218828948Y-99957337D01*
M02*
