M48
;DRILL file {KiCad 4.0.6} date 07/04/17 10:51:06
;FORMAT={-:-/ absolute / metric / decimal}
FMAT,2
METRIC,TZ
T1C0.300
T2C0.800
T3C0.813
T4C1.000
T5C1.143
%
G90
G05
M71
T1
X142.718Y-94.264
X143.353Y-84.104
X144.242Y-89.057
X144.496Y-93.629
X145.131Y-90.327
X145.258Y-92.359
X146.401Y-83.469
X147.29Y-83.469
X147.29Y-113.822
X148.179Y-83.469
X148.687Y-72.928
X148.814Y-90.327
X148.814Y-94.01
X149.068Y-83.469
X150.592Y-96.423
X151.735Y-81.437
X152.751Y-72.166
X152.751Y-78.389
X152.751Y-95.661
X152.878Y-99.979
X152.878Y-102.011
X154.148Y-89.819
X154.402Y-86.644
X154.402Y-91.724
X154.402Y-92.74
X154.402Y-93.629
X154.656Y-72.42
X154.783Y-103.789
X155.037Y-95.661
X155.037Y-97.82
X155.418Y-73.309
X155.418Y-88.549
X155.418Y-108.869
X155.672Y-83.469
X155.672Y-94.899
X156.434Y-90.708
X157.323Y-76.738
X157.958Y-99.979
X157.958Y-113.568
X157.958Y-119.029
X158.593Y-75.214
X158.593Y-87.025
X161.133Y-80.04
X166.213Y-102.011
X166.848Y-112.044
X167.61Y-106.837
X168.118Y-87.279
X168.118Y-99.979
X168.118Y-105.44
X173.833Y-77.627
X173.833Y-79.659
X173.833Y-80.802
X174.214Y-82.072
X175.357Y-80.802
X176.373Y-103.154
X179.548Y-91.724
X179.548Y-97.439
X180.818Y-103.789
X180.818Y-105.059
X180.818Y-107.599
X180.818Y-110.139
X180.82Y-111.407
X182.088Y-119.029
X185.263Y-108.869
X188.438Y-94.899
X188.438Y-97.439
X190.343Y-99.979
X190.343Y-103.789
X190.343Y-105.059
X190.343Y-111.409
X190.978Y-74.579
X191.613Y-108.869
X192.883Y-90.454
X193.518Y-74.579
X195.423Y-83.469
X197.328Y-64.038
X197.328Y-65.181
X197.328Y-66.959
X197.963Y-91.089
X197.963Y-103.789
X197.963Y-105.059
X197.963Y-108.869
X204.44Y-117.759
X204.567Y-92.359
X205.583Y-101.757
X206.091Y-120.045
X206.218Y-108.869
X207.488Y-120.299
X208.123Y-116.997
X208.123Y-118.902
X208.504Y-113.695
X214.854Y-65.816
X214.854Y-73.69
X214.854Y-76.738
X214.854Y-79.659
X217.14Y-88.549
X217.14Y-114.076
X217.648Y-113.06
X218.41Y-73.69
X218.41Y-76.738
X218.41Y-112.425
X218.537Y-79.786
X218.918Y-65.054
X219.553Y-96.169
X221.204Y-106.075
X221.458Y-65.689
X222.474Y-83.469
X222.728Y-110.139
X222.728Y-113.06
X222.855Y-79.532
X223.363Y-92.359
X223.363Y-97.566
X223.363Y-105.059
X224.379Y-101.503
X225.141Y-102.265
T2
X149.068Y-113.949
X151.608Y-113.949
X154.148Y-113.949
X154.656Y-74.706
X154.656Y-77.246
X154.656Y-79.786
X159.863Y-72.039
X159.863Y-83.469
X159.863Y-94.899
X159.863Y-106.329
X162.403Y-72.039
X162.403Y-83.469
X162.403Y-94.899
X162.403Y-106.329
X164.943Y-72.039
X164.943Y-83.469
X164.943Y-94.899
X164.943Y-106.329
T3
X159.863Y-77.754
X159.863Y-89.184
X159.863Y-100.614
X159.863Y-112.044
X162.403Y-77.754
X162.403Y-89.184
X162.403Y-100.614
X162.403Y-112.044
X164.943Y-77.754
X164.943Y-89.184
X164.943Y-100.614
X164.943Y-112.044
T4
X142.718Y-72.039
X142.718Y-74.579
X142.718Y-77.119
X142.718Y-79.659
X142.718Y-96.169
X142.718Y-98.709
X142.718Y-101.249
X142.718Y-103.789
X142.718Y-106.329
X142.718Y-108.869
X142.718Y-111.409
X142.718Y-113.949
X142.718Y-116.489
X142.718Y-119.029
X145.258Y-96.169
X145.258Y-98.709
X145.258Y-101.249
X145.258Y-103.789
X145.258Y-106.329
X145.258Y-108.869
X145.258Y-111.409
X145.258Y-113.949
X145.258Y-116.489
X145.258Y-119.029
X147.798Y-68.864
X148.433Y-98.709
X148.433Y-101.249
X148.433Y-103.789
X148.433Y-106.329
X148.433Y-108.869
X150.338Y-68.864
X150.338Y-72.039
X150.338Y-74.579
X150.338Y-77.119
X150.338Y-79.659
X150.973Y-98.709
X150.973Y-101.249
X150.973Y-103.789
X150.973Y-106.329
X150.973Y-108.869
X152.878Y-68.864
X160.498Y-116.489
X160.498Y-119.029
X163.038Y-116.489
X163.038Y-119.029
X165.578Y-116.489
X165.578Y-119.029
X169.388Y-70.769
X169.388Y-73.309
X169.388Y-75.849
X169.388Y-78.389
X169.388Y-80.929
X169.388Y-83.469
X169.388Y-86.009
X169.388Y-88.549
X169.388Y-91.089
X169.388Y-93.629
X169.388Y-96.169
X169.388Y-98.709
X169.388Y-101.249
X169.388Y-103.789
X169.388Y-106.329
X169.388Y-108.869
X169.388Y-111.409
X169.388Y-113.949
X169.388Y-116.489
X169.388Y-119.029
X171.293Y-64.419
X171.293Y-66.959
X171.928Y-70.769
X171.928Y-73.309
X171.928Y-75.849
X171.928Y-78.389
X171.928Y-80.929
X171.928Y-83.469
X171.928Y-86.009
X171.928Y-88.549
X171.928Y-91.089
X171.928Y-93.629
X171.928Y-96.169
X171.928Y-98.709
X171.928Y-101.249
X171.928Y-103.789
X171.928Y-106.329
X171.928Y-108.869
X171.928Y-111.409
X171.928Y-113.949
X171.928Y-116.489
X171.928Y-119.029
X173.833Y-64.419
X173.833Y-66.959
X174.468Y-70.769
X174.468Y-73.309
X176.373Y-64.419
X176.373Y-66.959
X176.373Y-86.009
X176.373Y-88.549
X176.373Y-93.629
X176.373Y-98.709
X176.373Y-113.949
X176.373Y-116.489
X176.373Y-119.029
X177.008Y-70.769
X177.008Y-73.309
X178.913Y-64.419
X178.913Y-66.959
X179.548Y-70.769
X179.548Y-73.309
X179.548Y-77.754
X179.548Y-81.564
X181.453Y-64.419
X181.453Y-66.959
X182.088Y-70.769
X182.088Y-73.309
X182.088Y-77.754
X182.088Y-81.564
X184.628Y-64.419
X184.628Y-66.959
X184.628Y-70.769
X184.628Y-73.309
X184.628Y-77.754
X184.628Y-81.564
X187.168Y-64.419
X187.168Y-66.959
X187.168Y-70.769
X187.168Y-73.309
X187.168Y-77.754
X187.168Y-81.564
X189.708Y-64.419
X189.708Y-66.959
X189.708Y-70.769
X189.708Y-73.309
X189.708Y-77.754
X189.708Y-81.564
X192.248Y-64.419
X192.248Y-66.959
X192.248Y-70.769
X192.248Y-73.309
X192.248Y-77.754
X192.248Y-81.564
X194.788Y-64.419
X194.788Y-66.959
X194.788Y-70.769
X194.788Y-73.309
X194.788Y-81.564
X195.423Y-86.009
X195.423Y-88.549
X195.423Y-113.949
X195.423Y-116.489
X195.423Y-119.029
X197.328Y-70.769
X197.328Y-73.309
X197.328Y-81.564
X199.868Y-70.769
X199.868Y-73.309
X199.868Y-75.849
X199.868Y-78.389
X199.868Y-80.929
X199.868Y-83.469
X199.868Y-86.009
X199.868Y-88.549
X199.868Y-91.089
X199.868Y-93.629
X199.868Y-96.169
X199.868Y-98.709
X199.868Y-101.249
X199.868Y-103.789
X199.868Y-106.329
X199.868Y-108.869
X199.868Y-111.409
X199.868Y-113.949
X199.868Y-116.489
X199.868Y-119.029
X202.408Y-70.769
X202.408Y-73.309
X202.408Y-75.849
X202.408Y-78.389
X202.408Y-80.929
X202.408Y-83.469
X202.408Y-86.009
X202.408Y-88.549
X202.408Y-91.089
X202.408Y-93.629
X202.408Y-96.169
X202.408Y-98.709
X202.408Y-101.249
X202.408Y-103.789
X202.408Y-106.329
X202.408Y-108.869
X202.408Y-111.409
X202.408Y-113.949
X202.408Y-116.489
X202.408Y-119.029
X205.583Y-64.419
X205.583Y-66.959
X205.583Y-69.499
X205.583Y-72.039
X205.583Y-74.579
X205.583Y-78.389
X205.583Y-80.929
X205.583Y-83.469
X205.583Y-86.009
X205.583Y-91.089
X205.583Y-93.629
X205.583Y-96.169
X205.583Y-98.709
X205.583Y-103.789
X205.583Y-106.329
X205.583Y-111.409
X205.583Y-113.949
X208.123Y-78.389
X208.123Y-80.929
X208.123Y-83.469
X208.123Y-86.009
X208.758Y-67.594
X208.758Y-70.134
X210.028Y-119.029
X210.663Y-64.419
X210.663Y-91.089
X210.663Y-93.629
X210.663Y-96.169
X210.663Y-98.709
X210.663Y-103.789
X210.663Y-106.329
X210.663Y-108.869
X212.568Y-119.029
X213.203Y-64.419
X213.203Y-83.469
X213.203Y-86.009
X213.203Y-91.102
X213.203Y-91.102
X213.203Y-93.642
X213.203Y-93.642
X213.203Y-96.182
X213.203Y-96.182
X213.203Y-98.722
X213.203Y-98.722
X214.473Y-102.519
X214.473Y-105.059
X214.473Y-107.599
X214.473Y-110.139
X215.108Y-119.029
X215.743Y-83.469
X215.743Y-86.009
X217.648Y-119.029
X218.283Y-83.469
X218.283Y-86.009
X220.823Y-83.469
X220.823Y-86.009
X226.538Y-82.199
X226.538Y-84.739
X226.538Y-87.279
X226.538Y-91.153
X226.538Y-93.693
X226.538Y-96.233
X226.538Y-98.773
X226.538Y-105.059
X226.538Y-107.599
X226.538Y-110.139
X226.538Y-112.679
T5
X225.903Y-72.039
X225.903Y-74.579
X225.903Y-77.119
T0
M30
