G04 #@! TF.FileFunction,Soldermask,Top*
%FSLAX46Y46*%
G04 Gerber Fmt 4.6, Leading zero omitted, Abs format (unit mm)*
G04 Created by KiCad (PCBNEW 4.0.6) date 07/04/17 10:51:02*
%MOMM*%
%LPD*%
G01*
G04 APERTURE LIST*
%ADD10C,0.100000*%
%ADD11C,0.300000*%
%ADD12R,2.100000X2.100000*%
%ADD13O,2.100000X2.100000*%
%ADD14C,4.200000*%
%ADD15C,1.840000*%
%ADD16C,2.100000*%
%ADD17C,1.924000*%
%ADD18R,2.000000X1.400000*%
%ADD19R,1.400000X2.000000*%
%ADD20R,1.300000X1.600000*%
%ADD21R,1.300000X2.100000*%
%ADD22R,2.100000X1.300000*%
%ADD23O,2.940000X2.432000*%
%ADD24R,1.600000X1.300000*%
%ADD25R,1.997660X1.098500*%
%ADD26R,3.900000X2.000000*%
%ADD27R,2.000000X3.900000*%
G04 APERTURE END LIST*
D10*
D11*
X163318236Y-58113051D02*
X163318236Y-56613051D01*
X163818236Y-57684480D01*
X164318236Y-56613051D01*
X164318236Y-58113051D01*
X165603950Y-58041623D02*
X165461093Y-58113051D01*
X165175379Y-58113051D01*
X165032522Y-58041623D01*
X164961093Y-57898766D01*
X164961093Y-57327337D01*
X165032522Y-57184480D01*
X165175379Y-57113051D01*
X165461093Y-57113051D01*
X165603950Y-57184480D01*
X165675379Y-57327337D01*
X165675379Y-57470194D01*
X164961093Y-57613051D01*
X166961093Y-57113051D02*
X166961093Y-58327337D01*
X166889664Y-58470194D01*
X166818236Y-58541623D01*
X166675379Y-58613051D01*
X166461093Y-58613051D01*
X166318236Y-58541623D01*
X166961093Y-58041623D02*
X166818236Y-58113051D01*
X166532522Y-58113051D01*
X166389664Y-58041623D01*
X166318236Y-57970194D01*
X166246807Y-57827337D01*
X166246807Y-57398766D01*
X166318236Y-57255909D01*
X166389664Y-57184480D01*
X166532522Y-57113051D01*
X166818236Y-57113051D01*
X166961093Y-57184480D01*
X168318236Y-58113051D02*
X168318236Y-57327337D01*
X168246807Y-57184480D01*
X168103950Y-57113051D01*
X167818236Y-57113051D01*
X167675379Y-57184480D01*
X168318236Y-58041623D02*
X168175379Y-58113051D01*
X167818236Y-58113051D01*
X167675379Y-58041623D01*
X167603950Y-57898766D01*
X167603950Y-57755909D01*
X167675379Y-57613051D01*
X167818236Y-57541623D01*
X168175379Y-57541623D01*
X168318236Y-57470194D01*
X171032522Y-57970194D02*
X170961093Y-58041623D01*
X170746807Y-58113051D01*
X170603950Y-58113051D01*
X170389665Y-58041623D01*
X170246807Y-57898766D01*
X170175379Y-57755909D01*
X170103950Y-57470194D01*
X170103950Y-57255909D01*
X170175379Y-56970194D01*
X170246807Y-56827337D01*
X170389665Y-56684480D01*
X170603950Y-56613051D01*
X170746807Y-56613051D01*
X170961093Y-56684480D01*
X171032522Y-56755909D01*
X171889665Y-58113051D02*
X171746807Y-58041623D01*
X171675379Y-57970194D01*
X171603950Y-57827337D01*
X171603950Y-57398766D01*
X171675379Y-57255909D01*
X171746807Y-57184480D01*
X171889665Y-57113051D01*
X172103950Y-57113051D01*
X172246807Y-57184480D01*
X172318236Y-57255909D01*
X172389665Y-57398766D01*
X172389665Y-57827337D01*
X172318236Y-57970194D01*
X172246807Y-58041623D01*
X172103950Y-58113051D01*
X171889665Y-58113051D01*
X173032522Y-58113051D02*
X173032522Y-57113051D01*
X173032522Y-57398766D02*
X173103950Y-57255909D01*
X173175379Y-57184480D01*
X173318236Y-57113051D01*
X173461093Y-57113051D01*
X174532521Y-58041623D02*
X174389664Y-58113051D01*
X174103950Y-58113051D01*
X173961093Y-58041623D01*
X173889664Y-57898766D01*
X173889664Y-57327337D01*
X173961093Y-57184480D01*
X174103950Y-57113051D01*
X174389664Y-57113051D01*
X174532521Y-57184480D01*
X174603950Y-57327337D01*
X174603950Y-57470194D01*
X173889664Y-57613051D01*
X176318235Y-56755909D02*
X176389664Y-56684480D01*
X176532521Y-56613051D01*
X176889664Y-56613051D01*
X177032521Y-56684480D01*
X177103950Y-56755909D01*
X177175378Y-56898766D01*
X177175378Y-57041623D01*
X177103950Y-57255909D01*
X176246807Y-58113051D01*
X177175378Y-58113051D01*
X178532521Y-56613051D02*
X177818235Y-56613051D01*
X177746806Y-57327337D01*
X177818235Y-57255909D01*
X177961092Y-57184480D01*
X178318235Y-57184480D01*
X178461092Y-57255909D01*
X178532521Y-57327337D01*
X178603949Y-57470194D01*
X178603949Y-57827337D01*
X178532521Y-57970194D01*
X178461092Y-58041623D01*
X178318235Y-58113051D01*
X177961092Y-58113051D01*
X177818235Y-58041623D01*
X177746806Y-57970194D01*
X179889663Y-56613051D02*
X179603949Y-56613051D01*
X179461092Y-56684480D01*
X179389663Y-56755909D01*
X179246806Y-56970194D01*
X179175377Y-57255909D01*
X179175377Y-57827337D01*
X179246806Y-57970194D01*
X179318234Y-58041623D01*
X179461092Y-58113051D01*
X179746806Y-58113051D01*
X179889663Y-58041623D01*
X179961092Y-57970194D01*
X180032520Y-57827337D01*
X180032520Y-57470194D01*
X179961092Y-57327337D01*
X179889663Y-57255909D01*
X179746806Y-57184480D01*
X179461092Y-57184480D01*
X179318234Y-57255909D01*
X179246806Y-57327337D01*
X179175377Y-57470194D01*
X180961091Y-56613051D02*
X181103948Y-56613051D01*
X181246805Y-56684480D01*
X181318234Y-56755909D01*
X181389663Y-56898766D01*
X181461091Y-57184480D01*
X181461091Y-57541623D01*
X181389663Y-57827337D01*
X181318234Y-57970194D01*
X181246805Y-58041623D01*
X181103948Y-58113051D01*
X180961091Y-58113051D01*
X180818234Y-58041623D01*
X180746805Y-57970194D01*
X180675377Y-57827337D01*
X180603948Y-57541623D01*
X180603948Y-57184480D01*
X180675377Y-56898766D01*
X180746805Y-56755909D01*
X180818234Y-56684480D01*
X180961091Y-56613051D01*
X183175376Y-58041623D02*
X183318233Y-58113051D01*
X183603948Y-58113051D01*
X183746805Y-58041623D01*
X183818233Y-57898766D01*
X183818233Y-57827337D01*
X183746805Y-57684480D01*
X183603948Y-57613051D01*
X183389662Y-57613051D01*
X183246805Y-57541623D01*
X183175376Y-57398766D01*
X183175376Y-57327337D01*
X183246805Y-57184480D01*
X183389662Y-57113051D01*
X183603948Y-57113051D01*
X183746805Y-57184480D01*
X184461091Y-58113051D02*
X184461091Y-56613051D01*
X185103948Y-58113051D02*
X185103948Y-57327337D01*
X185032519Y-57184480D01*
X184889662Y-57113051D01*
X184675377Y-57113051D01*
X184532519Y-57184480D01*
X184461091Y-57255909D01*
X185818234Y-58113051D02*
X185818234Y-57113051D01*
X185818234Y-56613051D02*
X185746805Y-56684480D01*
X185818234Y-56755909D01*
X185889662Y-56684480D01*
X185818234Y-56613051D01*
X185818234Y-56755909D01*
X187103948Y-58041623D02*
X186961091Y-58113051D01*
X186675377Y-58113051D01*
X186532520Y-58041623D01*
X186461091Y-57898766D01*
X186461091Y-57327337D01*
X186532520Y-57184480D01*
X186675377Y-57113051D01*
X186961091Y-57113051D01*
X187103948Y-57184480D01*
X187175377Y-57327337D01*
X187175377Y-57470194D01*
X186461091Y-57613051D01*
X188032520Y-58113051D02*
X187889662Y-58041623D01*
X187818234Y-57898766D01*
X187818234Y-56613051D01*
X189246805Y-58113051D02*
X189246805Y-56613051D01*
X189246805Y-58041623D02*
X189103948Y-58113051D01*
X188818234Y-58113051D01*
X188675376Y-58041623D01*
X188603948Y-57970194D01*
X188532519Y-57827337D01*
X188532519Y-57398766D01*
X188603948Y-57255909D01*
X188675376Y-57184480D01*
X188818234Y-57113051D01*
X189103948Y-57113051D01*
X189246805Y-57184480D01*
X191032519Y-58041623D02*
X191246805Y-58113051D01*
X191603948Y-58113051D01*
X191746805Y-58041623D01*
X191818234Y-57970194D01*
X191889662Y-57827337D01*
X191889662Y-57684480D01*
X191818234Y-57541623D01*
X191746805Y-57470194D01*
X191603948Y-57398766D01*
X191318234Y-57327337D01*
X191175376Y-57255909D01*
X191103948Y-57184480D01*
X191032519Y-57041623D01*
X191032519Y-56898766D01*
X191103948Y-56755909D01*
X191175376Y-56684480D01*
X191318234Y-56613051D01*
X191675376Y-56613051D01*
X191889662Y-56684480D01*
X192746805Y-58113051D02*
X192603947Y-58041623D01*
X192532519Y-57970194D01*
X192461090Y-57827337D01*
X192461090Y-57398766D01*
X192532519Y-57255909D01*
X192603947Y-57184480D01*
X192746805Y-57113051D01*
X192961090Y-57113051D01*
X193103947Y-57184480D01*
X193175376Y-57255909D01*
X193246805Y-57398766D01*
X193246805Y-57827337D01*
X193175376Y-57970194D01*
X193103947Y-58041623D01*
X192961090Y-58113051D01*
X192746805Y-58113051D01*
X194103948Y-58113051D02*
X193961090Y-58041623D01*
X193889662Y-57898766D01*
X193889662Y-56613051D01*
X195318233Y-58113051D02*
X195318233Y-56613051D01*
X195318233Y-58041623D02*
X195175376Y-58113051D01*
X194889662Y-58113051D01*
X194746804Y-58041623D01*
X194675376Y-57970194D01*
X194603947Y-57827337D01*
X194603947Y-57398766D01*
X194675376Y-57255909D01*
X194746804Y-57184480D01*
X194889662Y-57113051D01*
X195175376Y-57113051D01*
X195318233Y-57184480D01*
X196603947Y-58041623D02*
X196461090Y-58113051D01*
X196175376Y-58113051D01*
X196032519Y-58041623D01*
X195961090Y-57898766D01*
X195961090Y-57327337D01*
X196032519Y-57184480D01*
X196175376Y-57113051D01*
X196461090Y-57113051D01*
X196603947Y-57184480D01*
X196675376Y-57327337D01*
X196675376Y-57470194D01*
X195961090Y-57613051D01*
X197318233Y-58113051D02*
X197318233Y-57113051D01*
X197318233Y-57398766D02*
X197389661Y-57255909D01*
X197461090Y-57184480D01*
X197603947Y-57113051D01*
X197746804Y-57113051D01*
X199389661Y-58113051D02*
X199389661Y-56613051D01*
X199889661Y-57684480D01*
X200389661Y-56613051D01*
X200389661Y-58113051D01*
X201746804Y-58113051D02*
X201746804Y-57327337D01*
X201675375Y-57184480D01*
X201532518Y-57113051D01*
X201246804Y-57113051D01*
X201103947Y-57184480D01*
X201746804Y-58041623D02*
X201603947Y-58113051D01*
X201246804Y-58113051D01*
X201103947Y-58041623D01*
X201032518Y-57898766D01*
X201032518Y-57755909D01*
X201103947Y-57613051D01*
X201246804Y-57541623D01*
X201603947Y-57541623D01*
X201746804Y-57470194D01*
X202389661Y-58041623D02*
X202532518Y-58113051D01*
X202818233Y-58113051D01*
X202961090Y-58041623D01*
X203032518Y-57898766D01*
X203032518Y-57827337D01*
X202961090Y-57684480D01*
X202818233Y-57613051D01*
X202603947Y-57613051D01*
X202461090Y-57541623D01*
X202389661Y-57398766D01*
X202389661Y-57327337D01*
X202461090Y-57184480D01*
X202603947Y-57113051D01*
X202818233Y-57113051D01*
X202961090Y-57184480D01*
X203675376Y-58113051D02*
X203675376Y-56613051D01*
X203818233Y-57541623D02*
X204246804Y-58113051D01*
X204246804Y-57113051D02*
X203675376Y-57684480D01*
X206818233Y-58113051D02*
X205961090Y-58113051D01*
X206389662Y-58113051D02*
X206389662Y-56613051D01*
X206246805Y-56827337D01*
X206103947Y-56970194D01*
X205961090Y-57041623D01*
X208532518Y-56541623D02*
X207246804Y-58470194D01*
X208961090Y-56755909D02*
X209032519Y-56684480D01*
X209175376Y-56613051D01*
X209532519Y-56613051D01*
X209675376Y-56684480D01*
X209746805Y-56755909D01*
X209818233Y-56898766D01*
X209818233Y-57041623D01*
X209746805Y-57255909D01*
X208889662Y-58113051D01*
X209818233Y-58113051D01*
D12*
X210662520Y-103789480D03*
D13*
X210662520Y-106329480D03*
X210662520Y-108869480D03*
D14*
X143352520Y-65054480D03*
X226537520Y-118394480D03*
D15*
X154147520Y-113949480D03*
X151607520Y-113949480D03*
X149067520Y-113949480D03*
D12*
X208122520Y-86009480D03*
D13*
X205582520Y-86009480D03*
X208122520Y-83469480D03*
X205582520Y-83469480D03*
X208122520Y-80929480D03*
X205582520Y-80929480D03*
X208122520Y-78389480D03*
X205582520Y-78389480D03*
D14*
X226537520Y-65054480D03*
D15*
X154655520Y-79786480D03*
X154655520Y-77246480D03*
X154655520Y-74706480D03*
D12*
X194787520Y-81564480D03*
D13*
X197327520Y-81564480D03*
D16*
X187167520Y-73309480D03*
X189707520Y-73309480D03*
X192247520Y-73309480D03*
X194787520Y-73309480D03*
X197327520Y-73309480D03*
X184627520Y-73309480D03*
X182087520Y-73309480D03*
X179547520Y-73309480D03*
X177007520Y-73309480D03*
X174467520Y-73309480D03*
X197327520Y-70769480D03*
X194787520Y-70769480D03*
X192247520Y-70769480D03*
X189707520Y-70769480D03*
X187167520Y-70769480D03*
X184627520Y-70769480D03*
X182087520Y-70769480D03*
X179547520Y-70769480D03*
X177007520Y-70769480D03*
X174467520Y-70769480D03*
X199867520Y-70769480D03*
X199867520Y-73309480D03*
X199867520Y-75849480D03*
X199867520Y-78389480D03*
X199867520Y-80929480D03*
X199867520Y-83469480D03*
X199867520Y-86009480D03*
X199867520Y-88549480D03*
X199867520Y-91089480D03*
X199867520Y-93629480D03*
X199867520Y-96169480D03*
X199867520Y-98709480D03*
X199867520Y-101249480D03*
X199867520Y-103789480D03*
X199867520Y-106329480D03*
X199867520Y-108869480D03*
X199867520Y-111409480D03*
X199867520Y-113949480D03*
X199867520Y-116489480D03*
X199867520Y-119029480D03*
X202407520Y-70769480D03*
X202407520Y-73309480D03*
X202407520Y-75849480D03*
X202407520Y-78389480D03*
X202407520Y-80929480D03*
X202407520Y-83469480D03*
X202407520Y-86009480D03*
X202407520Y-88549480D03*
X202407520Y-91089480D03*
X202407520Y-93629480D03*
X202407520Y-96169480D03*
X202407520Y-98709480D03*
X202407520Y-101249480D03*
X202407520Y-103789480D03*
X202407520Y-106329480D03*
X202407520Y-108869480D03*
X202407520Y-111409480D03*
X202407520Y-113949480D03*
X202407520Y-116489480D03*
X202407520Y-119029480D03*
X171927520Y-70769480D03*
X171927520Y-73309480D03*
X171927520Y-75849480D03*
X171927520Y-78389480D03*
X171927520Y-80929480D03*
X171927520Y-83469480D03*
X171927520Y-86009480D03*
X171927520Y-88549480D03*
X171927520Y-91089480D03*
X171927520Y-93629480D03*
X171927520Y-96169480D03*
X171927520Y-98709480D03*
X171927520Y-101249480D03*
X171927520Y-103789480D03*
X171927520Y-106329480D03*
X171927520Y-108869480D03*
X171927520Y-111409480D03*
X171927520Y-113949480D03*
X171927520Y-116489480D03*
X171927520Y-119029480D03*
X169387520Y-119029480D03*
X169387520Y-116489480D03*
X169387520Y-113949480D03*
X169387520Y-111409480D03*
X169387520Y-108869480D03*
X169387520Y-106329480D03*
X169387520Y-103789480D03*
X169387520Y-101249480D03*
X169387520Y-98709480D03*
X169387520Y-96169480D03*
X169387520Y-93629480D03*
X169387520Y-91089480D03*
X169387520Y-88549480D03*
X169387520Y-86009480D03*
X169387520Y-83469480D03*
X169387520Y-80929480D03*
X169387520Y-78389480D03*
X169387520Y-75849480D03*
X169387520Y-73309480D03*
X169387520Y-70769480D03*
D15*
X159862520Y-106329480D03*
X162402520Y-106329480D03*
X164942520Y-106329480D03*
D12*
X142717520Y-119029480D03*
D13*
X145257520Y-116489480D03*
X142717520Y-116489480D03*
X145257520Y-113949480D03*
X142717520Y-113949480D03*
X145257520Y-111409480D03*
X142717520Y-111409480D03*
X145257520Y-108869480D03*
X142717520Y-108869480D03*
X145257520Y-106329480D03*
X142717520Y-106329480D03*
X145257520Y-103789480D03*
X142717520Y-103789480D03*
X145257520Y-101249480D03*
X142717520Y-101249480D03*
X145257520Y-98709480D03*
X142717520Y-98709480D03*
X145257520Y-96169480D03*
X142717520Y-96169480D03*
D16*
X145257520Y-119029480D03*
X195422520Y-86009480D03*
X195422520Y-88549480D03*
X176372520Y-86009480D03*
X176372520Y-88549480D03*
X176372520Y-93629480D03*
X176372520Y-98709480D03*
X176372520Y-113949480D03*
X176372520Y-116489480D03*
X176372520Y-119029480D03*
X195422520Y-119029480D03*
X195422520Y-116489480D03*
X195422520Y-113949480D03*
D15*
X159862520Y-72039480D03*
X162402520Y-72039480D03*
X164942520Y-72039480D03*
D17*
X162402520Y-100614480D03*
X164942520Y-100614480D03*
X159862520Y-100614480D03*
D12*
X214472520Y-102519480D03*
D13*
X214472520Y-105059480D03*
X214472520Y-107599480D03*
X214472520Y-110139480D03*
D12*
X142717520Y-72039480D03*
D13*
X142717520Y-74579480D03*
X142717520Y-77119480D03*
X142717520Y-79659480D03*
D12*
X205582520Y-98709480D03*
D13*
X205582520Y-96169480D03*
X205582520Y-93629480D03*
X205582520Y-91089480D03*
D12*
X171292520Y-66959480D03*
D13*
X171292520Y-64419480D03*
X173832520Y-66959480D03*
X173832520Y-64419480D03*
X176372520Y-66959480D03*
X176372520Y-64419480D03*
X178912520Y-66959480D03*
X178912520Y-64419480D03*
X181452520Y-66959480D03*
X181452520Y-64419480D03*
D12*
X184627520Y-66959480D03*
D13*
X184627520Y-64419480D03*
X187167520Y-66959480D03*
X187167520Y-64419480D03*
X189707520Y-66959480D03*
X189707520Y-64419480D03*
X192247520Y-66959480D03*
X192247520Y-64419480D03*
X194787520Y-66959480D03*
X194787520Y-64419480D03*
D17*
X162402520Y-112044480D03*
X164942520Y-112044480D03*
X159862520Y-112044480D03*
D18*
X215107520Y-116719480D03*
X215107520Y-113719480D03*
D19*
X224227520Y-107599480D03*
X221227520Y-107599480D03*
X224227520Y-110139480D03*
X221227520Y-110139480D03*
X224227520Y-112679480D03*
X221227520Y-112679480D03*
D18*
X212567520Y-116719480D03*
X212567520Y-113719480D03*
X210027520Y-116719480D03*
X210027520Y-113719480D03*
D19*
X148027520Y-77119480D03*
X145027520Y-77119480D03*
X148027520Y-74579480D03*
X145027520Y-74579480D03*
D18*
X208757520Y-75444480D03*
X208757520Y-72444480D03*
D19*
X192477520Y-84104480D03*
X189477520Y-84104480D03*
D18*
X208122520Y-90859480D03*
X208122520Y-93859480D03*
D20*
X208502520Y-88549480D03*
X205202520Y-88549480D03*
D21*
X201952520Y-64419480D03*
X199052520Y-64419480D03*
X201952520Y-66959480D03*
X199052520Y-66959480D03*
D22*
X178912520Y-107779480D03*
X178912520Y-104879480D03*
D21*
X183177520Y-101884480D03*
X186077520Y-101884480D03*
X196237520Y-108869480D03*
X193337520Y-108869480D03*
D22*
X188437520Y-90274480D03*
X188437520Y-93174480D03*
X183357520Y-90274480D03*
X183357520Y-93174480D03*
X143352520Y-90634480D03*
X143352520Y-87734480D03*
X143352520Y-85554480D03*
X143352520Y-82654480D03*
D17*
X162402520Y-77754480D03*
X164942520Y-77754480D03*
X159862520Y-77754480D03*
X162402520Y-89184480D03*
X164942520Y-89184480D03*
X159862520Y-89184480D03*
D12*
X147797520Y-68864480D03*
D13*
X150337520Y-68864480D03*
X152877520Y-68864480D03*
D12*
X205582520Y-106329480D03*
D13*
X205582520Y-103789480D03*
D12*
X210662520Y-98709480D03*
D13*
X210662520Y-96169480D03*
X210662520Y-93629480D03*
X210662520Y-91089480D03*
D12*
X150972520Y-108869480D03*
D13*
X148432520Y-108869480D03*
X150972520Y-106329480D03*
X148432520Y-106329480D03*
X150972520Y-103789480D03*
X148432520Y-103789480D03*
X150972520Y-101249480D03*
X148432520Y-101249480D03*
X150972520Y-98709480D03*
X148432520Y-98709480D03*
D12*
X205582520Y-111409480D03*
D13*
X205582520Y-113949480D03*
D12*
X179547520Y-81564480D03*
D13*
X182087520Y-81564480D03*
X184627520Y-81564480D03*
X187167520Y-81564480D03*
X189707520Y-81564480D03*
X192247520Y-81564480D03*
D12*
X179547520Y-77754480D03*
D13*
X182087520Y-77754480D03*
X184627520Y-77754480D03*
X187167520Y-77754480D03*
X189707520Y-77754480D03*
X192247520Y-77754480D03*
D12*
X205582520Y-64419480D03*
D13*
X205582520Y-66959480D03*
X205582520Y-69499480D03*
X205582520Y-72039480D03*
X205582520Y-74579480D03*
D12*
X165577520Y-116489480D03*
D13*
X165577520Y-119029480D03*
X163037520Y-116489480D03*
X163037520Y-119029480D03*
X160497520Y-116489480D03*
X160497520Y-119029480D03*
D12*
X150337520Y-72039480D03*
D13*
X150337520Y-74579480D03*
X150337520Y-77119480D03*
X150337520Y-79659480D03*
D12*
X213202520Y-64419480D03*
D13*
X210662520Y-64419480D03*
D12*
X208757520Y-70134480D03*
D13*
X208757520Y-67594480D03*
D12*
X226537520Y-112679480D03*
D13*
X226537520Y-110139480D03*
X226537520Y-107599480D03*
X226537520Y-105059480D03*
D12*
X226537520Y-87279480D03*
D13*
X226537520Y-84739480D03*
X226537520Y-82199480D03*
D23*
X225902520Y-74579480D03*
X225902520Y-77119480D03*
X225902520Y-72039480D03*
D12*
X210027520Y-119029480D03*
D13*
X212567520Y-119029480D03*
X215107520Y-119029480D03*
X217647520Y-119029480D03*
X226537520Y-91152980D03*
X226537520Y-93692980D03*
X226537520Y-96232980D03*
X226537520Y-98772980D03*
X213202520Y-91102180D03*
X213202520Y-93642180D03*
X213202520Y-96182180D03*
X213202520Y-98722180D03*
X213202520Y-98722180D03*
X213202520Y-96182180D03*
X213202520Y-93642180D03*
X213202520Y-91102180D03*
D24*
X211932520Y-67214480D03*
X211932520Y-70514480D03*
D25*
X183149240Y-103792020D03*
X183149240Y-105062020D03*
X183149240Y-106332020D03*
X183149240Y-107599480D03*
X183149240Y-108866940D03*
X183149240Y-110136940D03*
X183149240Y-111406940D03*
X188645800Y-111406940D03*
X188645800Y-110136940D03*
X188645800Y-108866940D03*
X188645800Y-107599480D03*
X188645800Y-106332020D03*
X188645800Y-105062020D03*
X188645800Y-103792020D03*
X146954240Y-86012020D03*
X146954240Y-87282020D03*
X146954240Y-88552020D03*
X146954240Y-89819480D03*
X146954240Y-91086940D03*
X146954240Y-92356940D03*
X146954240Y-93626940D03*
X152450800Y-93626940D03*
X152450800Y-92356940D03*
X152450800Y-91086940D03*
X152450800Y-89819480D03*
X152450800Y-88552020D03*
X152450800Y-87282020D03*
X152450800Y-86012020D03*
D21*
X177187520Y-111409480D03*
X174287520Y-111409480D03*
D12*
X213202520Y-86009480D03*
D13*
X213202520Y-83469480D03*
X215742520Y-86009480D03*
X215742520Y-83469480D03*
X218282520Y-86009480D03*
X218282520Y-83469480D03*
X220822520Y-86009480D03*
X220822520Y-83469480D03*
D26*
X215582520Y-67594480D03*
X220982520Y-67594480D03*
D15*
X159862520Y-83469480D03*
X162402520Y-83469480D03*
X164942520Y-83469480D03*
X159862520Y-94899480D03*
X162402520Y-94899480D03*
X164942520Y-94899480D03*
D18*
X176372520Y-107829480D03*
X176372520Y-104829480D03*
D27*
X220187520Y-74419480D03*
X220187520Y-79819480D03*
X213202520Y-74419480D03*
X213202520Y-79819480D03*
M02*
