G04 #@! TF.FileFunction,Other,Fab,Top*
%FSLAX46Y46*%
G04 Gerber Fmt 4.6, Leading zero omitted, Abs format (unit mm)*
G04 Created by KiCad (PCBNEW 4.0.6) date 08/21/17 14:47:51*
%MOMM*%
%LPD*%
G01*
G04 APERTURE LIST*
%ADD10C,0.100000*%
%ADD11C,0.120000*%
%ADD12C,0.150000*%
G04 APERTURE END LIST*
D10*
X193987520Y-104729480D02*
X195587520Y-104729480D01*
X193987520Y-107929480D02*
X193987520Y-104729480D01*
X195587520Y-107929480D02*
X193987520Y-107929480D01*
X195587520Y-104729480D02*
X195587520Y-107929480D01*
X198597520Y-107599480D02*
X198597520Y-102519480D01*
X198597520Y-102519480D02*
X196057520Y-102519480D01*
X196057520Y-102519480D02*
X196057520Y-107599480D01*
X196057520Y-107599480D02*
X198597520Y-107599480D01*
D11*
X180182520Y-118394480D02*
X180182520Y-110774480D01*
X180182520Y-110774480D02*
X175102520Y-110774480D01*
X175102520Y-110774480D02*
X175102520Y-118394480D01*
X179062423Y-114584480D02*
G75*
G03X179062423Y-114584480I-1419903J0D01*
G01*
X175102520Y-118394480D02*
X180182520Y-118394480D01*
X197327520Y-120299480D02*
X197327520Y-108869480D01*
X197327520Y-108869480D02*
X182087520Y-108869480D01*
X182087520Y-108869480D02*
X182087520Y-120299480D01*
X203677520Y-69499480D02*
X168117520Y-69499480D01*
X168117520Y-69499480D02*
X168117520Y-120299480D01*
X168117520Y-120299480D02*
X203677520Y-120299480D01*
X203677520Y-120299480D02*
X203677520Y-69499480D01*
D10*
X196654520Y-114508480D02*
X198254520Y-114508480D01*
X196654520Y-117708480D02*
X196654520Y-114508480D01*
X198254520Y-117708480D02*
X196654520Y-117708480D01*
X198254520Y-114508480D02*
X198254520Y-117708480D01*
X155417520Y-107599480D02*
X147797520Y-107599480D01*
X147797520Y-107599480D02*
X147797520Y-110139480D01*
X147797520Y-110139480D02*
X155417520Y-110139480D01*
X155417520Y-110139480D02*
X155417520Y-107599480D01*
X155417520Y-102519480D02*
X147797520Y-102519480D01*
X147797520Y-102519480D02*
X147797520Y-105059480D01*
X147797520Y-105059480D02*
X155417520Y-105059480D01*
X155417520Y-105059480D02*
X155417520Y-102519480D01*
X155417520Y-105059480D02*
X147797520Y-105059480D01*
X147797520Y-105059480D02*
X147797520Y-107599480D01*
X147797520Y-107599480D02*
X155417520Y-107599480D01*
X155417520Y-107599480D02*
X155417520Y-105059480D01*
D11*
X227553520Y-69245480D02*
X227553520Y-79786480D01*
X227553520Y-79786480D02*
X227553520Y-79913480D01*
X224124520Y-69245480D02*
X224124520Y-79913480D01*
X224124520Y-79913480D02*
X228950520Y-79913480D01*
X228950520Y-79913480D02*
X228950520Y-69245480D01*
X228950520Y-69245480D02*
X224124520Y-69245480D01*
D10*
X149702520Y-72039480D02*
X149702520Y-79659480D01*
X149702520Y-79659480D02*
X154782520Y-79659480D01*
X154782520Y-79659480D02*
X154782520Y-72039480D01*
X154782520Y-72039480D02*
X149702520Y-72039480D01*
X141447520Y-72039480D02*
X141447520Y-79659480D01*
X141447520Y-79659480D02*
X146527520Y-79659480D01*
X146527520Y-79659480D02*
X146527520Y-72039480D01*
X146527520Y-72039480D02*
X141447520Y-72039480D01*
D11*
X148716501Y-86009480D02*
G75*
G03X148716501Y-86009480I-283981J0D01*
G01*
X147924520Y-85501480D02*
X147924520Y-94137480D01*
X147924520Y-94137480D02*
X151480520Y-94137480D01*
X151480520Y-94137480D02*
X151480520Y-85501480D01*
X151480520Y-85501480D02*
X147924520Y-85501480D01*
D10*
X206852520Y-79659480D02*
X206852520Y-74579480D01*
X206852520Y-74579480D02*
X204312520Y-74579480D01*
X204312520Y-74579480D02*
X204312520Y-79659480D01*
X204312520Y-79659480D02*
X206852520Y-79659480D01*
X227807520Y-113949480D02*
X227807520Y-103789480D01*
X227807520Y-103789480D02*
X225267520Y-103789480D01*
X225267520Y-103789480D02*
X225267520Y-113949480D01*
X225267520Y-113949480D02*
X227807520Y-113949480D01*
X204312520Y-89819480D02*
X214472520Y-89819480D01*
X214472520Y-89819480D02*
X214472520Y-84739480D01*
X214472520Y-84739480D02*
X204312520Y-84739480D01*
X204312520Y-84739480D02*
X204312520Y-89819480D01*
D11*
X207060520Y-62649480D02*
X207081520Y-84650480D01*
X207081520Y-84650480D02*
X223459520Y-84676480D01*
X223459520Y-84676480D02*
X223431520Y-62659480D01*
X223431520Y-62659480D02*
X207055520Y-62654480D01*
D10*
X211932520Y-99979480D02*
X211932520Y-89819480D01*
X211932520Y-89819480D02*
X209392520Y-89819480D01*
X209392520Y-89819480D02*
X209392520Y-99979480D01*
X209392520Y-99979480D02*
X211932520Y-99979480D01*
X151429520Y-100322480D02*
X151429520Y-101922480D01*
X148229520Y-100322480D02*
X151429520Y-100322480D01*
X148229520Y-101922480D02*
X148229520Y-100322480D01*
X151429520Y-101922480D02*
X148229520Y-101922480D01*
X160002520Y-65174480D02*
G75*
G03X160002520Y-65174480I-1095000J0D01*
G01*
X167167520Y-68734480D02*
X167167520Y-63904480D01*
X167167520Y-63904480D02*
X157637520Y-63904480D01*
X157637520Y-63904480D02*
X157637520Y-68734480D01*
X157637520Y-68734480D02*
X167167520Y-68734480D01*
X158076520Y-65870480D02*
X159603520Y-64343480D01*
X158210520Y-66004480D02*
X159737520Y-64477480D01*
X149842520Y-116609480D02*
G75*
G03X149842520Y-116609480I-1095000J0D01*
G01*
X157007520Y-120169480D02*
X157007520Y-115339480D01*
X157007520Y-115339480D02*
X147477520Y-115339480D01*
X147477520Y-115339480D02*
X147477520Y-120169480D01*
X147477520Y-120169480D02*
X157007520Y-120169480D01*
X147916520Y-117305480D02*
X149443520Y-115778480D01*
X148050520Y-117439480D02*
X149577520Y-115912480D01*
X208757520Y-103789480D02*
X208757520Y-111409480D01*
X208757520Y-111409480D02*
X211297520Y-111409480D01*
X211297520Y-111409480D02*
X211297520Y-103789480D01*
X211297520Y-103789480D02*
X208757520Y-103789480D01*
X160002520Y-105179480D02*
G75*
G03X160002520Y-105179480I-1095000J0D01*
G01*
X167167520Y-108739480D02*
X167167520Y-103909480D01*
X167167520Y-103909480D02*
X157637520Y-103909480D01*
X157637520Y-103909480D02*
X157637520Y-108739480D01*
X157637520Y-108739480D02*
X167167520Y-108739480D01*
X158076520Y-105875480D02*
X159603520Y-104348480D01*
X158210520Y-106009480D02*
X159737520Y-104482480D01*
X146527520Y-120299480D02*
X146527520Y-94899480D01*
X146527520Y-94899480D02*
X141447520Y-94899480D01*
X141447520Y-94899480D02*
X141447520Y-120299480D01*
X141447520Y-120299480D02*
X146527520Y-120299480D01*
X160002520Y-70889480D02*
G75*
G03X160002520Y-70889480I-1095000J0D01*
G01*
X167167520Y-74449480D02*
X167167520Y-69619480D01*
X167167520Y-69619480D02*
X157637520Y-69619480D01*
X157637520Y-69619480D02*
X157637520Y-74449480D01*
X157637520Y-74449480D02*
X167167520Y-74449480D01*
X158076520Y-71585480D02*
X159603520Y-70058480D01*
X158210520Y-71719480D02*
X159737520Y-70192480D01*
X211932520Y-101249480D02*
X211932520Y-111409480D01*
X211932520Y-111409480D02*
X214472520Y-111409480D01*
X214472520Y-111409480D02*
X214472520Y-101249480D01*
X214472520Y-101249480D02*
X211932520Y-101249480D01*
X206852520Y-99979480D02*
X206852520Y-89819480D01*
X206852520Y-89819480D02*
X204312520Y-89819480D01*
X204312520Y-89819480D02*
X204312520Y-99979480D01*
X204312520Y-99979480D02*
X206852520Y-99979480D01*
X170022520Y-68229480D02*
X182722520Y-68229480D01*
X182722520Y-68229480D02*
X182722520Y-63149480D01*
X182722520Y-63149480D02*
X170022520Y-63149480D01*
X170022520Y-63149480D02*
X170022520Y-68229480D01*
X183357520Y-68229480D02*
X196057520Y-68229480D01*
X196057520Y-68229480D02*
X196057520Y-63149480D01*
X196057520Y-63149480D02*
X183357520Y-63149480D01*
X183357520Y-63149480D02*
X183357520Y-68229480D01*
X215907520Y-116819480D02*
X214307520Y-116819480D01*
X215907520Y-113619480D02*
X215907520Y-116819480D01*
X214307520Y-113619480D02*
X215907520Y-113619480D01*
X214307520Y-116819480D02*
X214307520Y-113619480D01*
X224327520Y-106799480D02*
X224327520Y-108399480D01*
X221127520Y-106799480D02*
X224327520Y-106799480D01*
X221127520Y-108399480D02*
X221127520Y-106799480D01*
X224327520Y-108399480D02*
X221127520Y-108399480D01*
X224327520Y-109339480D02*
X224327520Y-110939480D01*
X221127520Y-109339480D02*
X224327520Y-109339480D01*
X221127520Y-110939480D02*
X221127520Y-109339480D01*
X224327520Y-110939480D02*
X221127520Y-110939480D01*
X224327520Y-111879480D02*
X224327520Y-113479480D01*
X221127520Y-111879480D02*
X224327520Y-111879480D01*
X221127520Y-113479480D02*
X221127520Y-111879480D01*
X224327520Y-113479480D02*
X221127520Y-113479480D01*
X213367520Y-116819480D02*
X211767520Y-116819480D01*
X213367520Y-113619480D02*
X213367520Y-116819480D01*
X211767520Y-113619480D02*
X213367520Y-113619480D01*
X211767520Y-116819480D02*
X211767520Y-113619480D01*
X210827520Y-116819480D02*
X209227520Y-116819480D01*
X210827520Y-113619480D02*
X210827520Y-116819480D01*
X209227520Y-113619480D02*
X210827520Y-113619480D01*
X209227520Y-116819480D02*
X209227520Y-113619480D01*
X192577520Y-83304480D02*
X192577520Y-84904480D01*
X189377520Y-83304480D02*
X192577520Y-83304480D01*
X189377520Y-84904480D02*
X189377520Y-83304480D01*
X192577520Y-84904480D02*
X189377520Y-84904480D01*
X217736520Y-102189480D02*
X219336520Y-102189480D01*
X217736520Y-105389480D02*
X217736520Y-102189480D01*
X219336520Y-105389480D02*
X217736520Y-105389480D01*
X219336520Y-102189480D02*
X219336520Y-105389480D01*
X218032520Y-91089480D02*
X217532520Y-91089480D01*
X218032520Y-90689480D02*
X218632520Y-91089480D01*
X218032520Y-91489480D02*
X218032520Y-90689480D01*
X218632520Y-91089480D02*
X218032520Y-91489480D01*
X218632520Y-91089480D02*
X218632520Y-90539480D01*
X218632520Y-91089480D02*
X218632520Y-91639480D01*
X219032520Y-91089480D02*
X218632520Y-91089480D01*
X219682520Y-90189480D02*
X219682520Y-91989480D01*
X216882520Y-90189480D02*
X219682520Y-90189480D01*
X216882520Y-91989480D02*
X216882520Y-90189480D01*
X219682520Y-91989480D02*
X216882520Y-91989480D01*
X202102520Y-63619480D02*
X202102520Y-65219480D01*
X198902520Y-63619480D02*
X202102520Y-63619480D01*
X198902520Y-65219480D02*
X198902520Y-63619480D01*
X202102520Y-65219480D02*
X198902520Y-65219480D01*
X202102520Y-66159480D02*
X202102520Y-67759480D01*
X198902520Y-66159480D02*
X202102520Y-66159480D01*
X198902520Y-67759480D02*
X198902520Y-66159480D01*
X202102520Y-67759480D02*
X198902520Y-67759480D01*
X208160520Y-127995480D02*
X206560520Y-127995480D01*
X208160520Y-124795480D02*
X208160520Y-127995480D01*
X206560520Y-124795480D02*
X208160520Y-124795480D01*
X206560520Y-127995480D02*
X206560520Y-124795480D01*
X214002520Y-127995480D02*
X212402520Y-127995480D01*
X214002520Y-124795480D02*
X214002520Y-127995480D01*
X212402520Y-124795480D02*
X214002520Y-124795480D01*
X212402520Y-127995480D02*
X212402520Y-124795480D01*
X177972520Y-100449480D02*
X177972520Y-102049480D01*
X174772520Y-100449480D02*
X177972520Y-100449480D01*
X174772520Y-102049480D02*
X174772520Y-100449480D01*
X177972520Y-102049480D02*
X174772520Y-102049480D01*
X177972520Y-90289480D02*
X177972520Y-91889480D01*
X174772520Y-90289480D02*
X177972520Y-90289480D01*
X174772520Y-91889480D02*
X174772520Y-90289480D01*
X177972520Y-91889480D02*
X174772520Y-91889480D01*
X144152520Y-90784480D02*
X142552520Y-90784480D01*
X144152520Y-87584480D02*
X144152520Y-90784480D01*
X142552520Y-87584480D02*
X144152520Y-87584480D01*
X142552520Y-90784480D02*
X142552520Y-87584480D01*
X144152520Y-85704480D02*
X142552520Y-85704480D01*
X144152520Y-82504480D02*
X144152520Y-85704480D01*
X142552520Y-82504480D02*
X144152520Y-82504480D01*
X142552520Y-85704480D02*
X142552520Y-82504480D01*
X146527520Y-70134480D02*
X154147520Y-70134480D01*
X154147520Y-70134480D02*
X154147520Y-67594480D01*
X154147520Y-67594480D02*
X146527520Y-67594480D01*
X146527520Y-67594480D02*
X146527520Y-70134480D01*
X216682520Y-94429480D02*
X216682520Y-92829480D01*
X219882520Y-94429480D02*
X216682520Y-94429480D01*
X219882520Y-92829480D02*
X219882520Y-94429480D01*
X216682520Y-92829480D02*
X219882520Y-92829480D01*
X206852520Y-107599480D02*
X206852520Y-102519480D01*
X206852520Y-102519480D02*
X204312520Y-102519480D01*
X204312520Y-102519480D02*
X204312520Y-107599480D01*
X204312520Y-107599480D02*
X206852520Y-107599480D01*
X204312520Y-110139480D02*
X204312520Y-115219480D01*
X204312520Y-115219480D02*
X206852520Y-115219480D01*
X206852520Y-115219480D02*
X206852520Y-110139480D01*
X206852520Y-110139480D02*
X204312520Y-110139480D01*
X178277520Y-82834480D02*
X193517520Y-82834480D01*
X193517520Y-82834480D02*
X193517520Y-80294480D01*
X193517520Y-80294480D02*
X178277520Y-80294480D01*
X178277520Y-80294480D02*
X178277520Y-82834480D01*
X166212520Y-115219480D02*
X158592520Y-115219480D01*
X158592520Y-115219480D02*
X158592520Y-120299480D01*
X158592520Y-120299480D02*
X166212520Y-120299480D01*
X166212520Y-120299480D02*
X166212520Y-115219480D01*
X204312520Y-63149480D02*
X204312520Y-73309480D01*
X204312520Y-73309480D02*
X206852520Y-73309480D01*
X206852520Y-73309480D02*
X206852520Y-63149480D01*
X206852520Y-63149480D02*
X204312520Y-63149480D01*
X227807520Y-100614480D02*
X220187520Y-100614480D01*
X220187520Y-100614480D02*
X220187520Y-103154480D01*
X220187520Y-103154480D02*
X227807520Y-103154480D01*
X227807520Y-103154480D02*
X227807520Y-100614480D01*
X208757520Y-120299480D02*
X218917520Y-120299480D01*
X218917520Y-120299480D02*
X218917520Y-117759480D01*
X218917520Y-117759480D02*
X208757520Y-117759480D01*
X208757520Y-117759480D02*
X208757520Y-120299480D01*
X211551520Y-68479480D02*
X211551520Y-68979480D01*
X211151520Y-68479480D02*
X211551520Y-67879480D01*
X211951520Y-68479480D02*
X211151520Y-68479480D01*
X211551520Y-67879480D02*
X211951520Y-68479480D01*
X211551520Y-67879480D02*
X211001520Y-67879480D01*
X211551520Y-67879480D02*
X212101520Y-67879480D01*
X211551520Y-67479480D02*
X211551520Y-67879480D01*
X210651520Y-66829480D02*
X212451520Y-66829480D01*
X210651520Y-69629480D02*
X210651520Y-66829480D01*
X212451520Y-69629480D02*
X210651520Y-69629480D01*
X212451520Y-66829480D02*
X212451520Y-69629480D01*
X217012520Y-89819480D02*
X227172520Y-89819480D01*
X227172520Y-89819480D02*
X227172520Y-84739480D01*
X227172520Y-84739480D02*
X217012520Y-84739480D01*
X217012520Y-84739480D02*
X217012520Y-89819480D01*
X219436932Y-68864480D02*
G75*
G03X219436932Y-68864480I-3059412J0D01*
G01*
X219527520Y-65714480D02*
X213227520Y-65714480D01*
X219527520Y-71344480D02*
X219527520Y-65714480D01*
X218857520Y-72014480D02*
X219527520Y-71344480D01*
X213897520Y-72014480D02*
X218857520Y-72014480D01*
X213227520Y-71344480D02*
X213897520Y-72014480D01*
X213227520Y-65714480D02*
X213227520Y-71344480D01*
X160002520Y-82319480D02*
G75*
G03X160002520Y-82319480I-1095000J0D01*
G01*
X167167520Y-85879480D02*
X167167520Y-81049480D01*
X167167520Y-81049480D02*
X157637520Y-81049480D01*
X157637520Y-81049480D02*
X157637520Y-85879480D01*
X157637520Y-85879480D02*
X167167520Y-85879480D01*
X158076520Y-83015480D02*
X159603520Y-81488480D01*
X158210520Y-83149480D02*
X159737520Y-81622480D01*
X160002520Y-93749480D02*
G75*
G03X160002520Y-93749480I-1095000J0D01*
G01*
X167167520Y-97309480D02*
X167167520Y-92479480D01*
X167167520Y-92479480D02*
X157637520Y-92479480D01*
X157637520Y-92479480D02*
X157637520Y-97309480D01*
X157637520Y-97309480D02*
X167167520Y-97309480D01*
X158076520Y-94445480D02*
X159603520Y-92918480D01*
X158210520Y-94579480D02*
X159737520Y-93052480D01*
X216593520Y-124668480D02*
X218193520Y-124668480D01*
X216593520Y-127868480D02*
X216593520Y-124668480D01*
X218193520Y-127868480D02*
X216593520Y-127868480D01*
X218193520Y-124668480D02*
X218193520Y-127868480D01*
X223246932Y-77119480D02*
G75*
G03X223246932Y-77119480I-3059412J0D01*
G01*
X223337520Y-73969480D02*
X217037520Y-73969480D01*
X223337520Y-79599480D02*
X223337520Y-73969480D01*
X222667520Y-80269480D02*
X223337520Y-79599480D01*
X217707520Y-80269480D02*
X222667520Y-80269480D01*
X217037520Y-79599480D02*
X217707520Y-80269480D01*
X217037520Y-73969480D02*
X217037520Y-79599480D01*
X216261932Y-77119480D02*
G75*
G03X216261932Y-77119480I-3059412J0D01*
G01*
X210052520Y-80269480D02*
X216352520Y-80269480D01*
X210052520Y-74639480D02*
X210052520Y-80269480D01*
X210722520Y-73969480D02*
X210052520Y-74639480D01*
X215682520Y-73969480D02*
X210722520Y-73969480D01*
X216352520Y-74639480D02*
X215682520Y-73969480D01*
X216352520Y-80269480D02*
X216352520Y-74639480D01*
D11*
X217012520Y-98074480D02*
X217012520Y-95534480D01*
X217012520Y-95534480D02*
X215742520Y-95534480D01*
X215742520Y-95534480D02*
X215742520Y-98074480D01*
X215742520Y-98074480D02*
X217012520Y-98074480D01*
X220822520Y-95534480D02*
X218917520Y-95534480D01*
X218917520Y-95534480D02*
X218917520Y-94264480D01*
X218917520Y-94264480D02*
X220822520Y-94264480D01*
X220822520Y-94264480D02*
X220822520Y-95534480D01*
X220822520Y-96804480D02*
X220822520Y-98074480D01*
X220822520Y-98074480D02*
X218917520Y-98074480D01*
X218917520Y-98074480D02*
X218917520Y-96804480D01*
X218917520Y-96804480D02*
X220822520Y-96804480D01*
X224632520Y-92994480D02*
X222727520Y-92994480D01*
X222727520Y-92994480D02*
X222727520Y-91724480D01*
X222727520Y-91724480D02*
X224632520Y-91724480D01*
X224632520Y-91724480D02*
X224632520Y-92994480D01*
X224632520Y-95534480D02*
X224632520Y-94264480D01*
X224632520Y-94264480D02*
X222727520Y-94264480D01*
X222727520Y-94264480D02*
X222727520Y-95534480D01*
X222727520Y-95534480D02*
X224632520Y-95534480D01*
X224632520Y-96804480D02*
X224632520Y-98074480D01*
X224632520Y-98074480D02*
X222727520Y-98074480D01*
X224632520Y-96804480D02*
X222727520Y-96804480D01*
X222727520Y-96804480D02*
X222727520Y-98074480D01*
D10*
X225267520Y-99992180D02*
X227807520Y-99992180D01*
X225267520Y-89832180D02*
X225267520Y-99992180D01*
X225267520Y-89832180D02*
X227807520Y-89832180D01*
X214472520Y-99992180D02*
X211932520Y-99992180D01*
X227807520Y-89832180D02*
X227807520Y-99992180D01*
X211932520Y-89832180D02*
X214472520Y-89832180D01*
X211932520Y-99992180D02*
X211932520Y-89832180D01*
X211932520Y-99992180D02*
X211932520Y-89832180D01*
X211932520Y-89832180D02*
X214472520Y-89832180D01*
X214472520Y-89832180D02*
X214472520Y-99992180D01*
X214472520Y-99992180D02*
X211932520Y-99992180D01*
X192232520Y-96823480D02*
X192232520Y-96023480D01*
X193532520Y-96823480D02*
X192232520Y-96823480D01*
X193532520Y-96023480D02*
X193532520Y-96823480D01*
X192232520Y-96023480D02*
X193532520Y-96023480D01*
X192682520Y-96423480D02*
X193082520Y-96198480D01*
X192682520Y-96423480D02*
X192407520Y-96423480D01*
X193082520Y-96648480D02*
X192682520Y-96423480D01*
X193082520Y-96198480D02*
X193082520Y-96648480D01*
X192682520Y-96148480D02*
X192682520Y-96698480D01*
X193082520Y-96423480D02*
X193332520Y-96423480D01*
X193532520Y-94499480D02*
X193532520Y-95299480D01*
X192232520Y-94499480D02*
X193532520Y-94499480D01*
X192232520Y-95299480D02*
X192232520Y-94499480D01*
X193532520Y-95299480D02*
X192232520Y-95299480D01*
X193082520Y-94899480D02*
X192682520Y-95124480D01*
X193082520Y-94899480D02*
X193357520Y-94899480D01*
X192682520Y-94674480D02*
X193082520Y-94899480D01*
X192682520Y-95124480D02*
X192682520Y-94674480D01*
X193082520Y-95174480D02*
X193082520Y-94624480D01*
X192682520Y-94899480D02*
X192432520Y-94899480D01*
X184667520Y-115389480D02*
X183817520Y-115389480D01*
X183317520Y-115889480D02*
X183317520Y-117589480D01*
X184667520Y-115389480D02*
X184667520Y-117589480D01*
X184667520Y-117589480D02*
X183317520Y-117589480D01*
X183817520Y-115389480D02*
X183317520Y-115889480D01*
D12*
X240928234Y-94867575D02*
X241594901Y-94867575D01*
X240547282Y-95105671D02*
X241261568Y-95343766D01*
X241261568Y-94724718D01*
X240594901Y-94153290D02*
X240594901Y-94058051D01*
X240642520Y-93962813D01*
X240690139Y-93915194D01*
X240785377Y-93867575D01*
X240975853Y-93819956D01*
X241213949Y-93819956D01*
X241404425Y-93867575D01*
X241499663Y-93915194D01*
X241547282Y-93962813D01*
X241594901Y-94058051D01*
X241594901Y-94153290D01*
X241547282Y-94248528D01*
X241499663Y-94296147D01*
X241404425Y-94343766D01*
X241213949Y-94391385D01*
X240975853Y-94391385D01*
X240785377Y-94343766D01*
X240690139Y-94296147D01*
X240642520Y-94248528D01*
X240594901Y-94153290D01*
X240594901Y-92915194D02*
X240594901Y-93391385D01*
X241071091Y-93439004D01*
X241023472Y-93391385D01*
X240975853Y-93296147D01*
X240975853Y-93058051D01*
X241023472Y-92962813D01*
X241071091Y-92915194D01*
X241166330Y-92867575D01*
X241404425Y-92867575D01*
X241499663Y-92915194D01*
X241547282Y-92962813D01*
X241594901Y-93058051D01*
X241594901Y-93296147D01*
X241547282Y-93391385D01*
X241499663Y-93439004D01*
X240594901Y-92248528D02*
X240594901Y-92153289D01*
X240642520Y-92058051D01*
X240690139Y-92010432D01*
X240785377Y-91962813D01*
X240975853Y-91915194D01*
X241213949Y-91915194D01*
X241404425Y-91962813D01*
X241499663Y-92010432D01*
X241547282Y-92058051D01*
X241594901Y-92153289D01*
X241594901Y-92248528D01*
X241547282Y-92343766D01*
X241499663Y-92391385D01*
X241404425Y-92439004D01*
X241213949Y-92486623D01*
X240975853Y-92486623D01*
X240785377Y-92439004D01*
X240690139Y-92391385D01*
X240642520Y-92343766D01*
X240594901Y-92248528D01*
X194462139Y-107440575D02*
X194414520Y-107392956D01*
X194366901Y-107297718D01*
X194366901Y-107059622D01*
X194414520Y-106964384D01*
X194462139Y-106916765D01*
X194557377Y-106869146D01*
X194652615Y-106869146D01*
X194795472Y-106916765D01*
X195366901Y-107488194D01*
X195366901Y-106869146D01*
X194366901Y-106250099D02*
X194366901Y-106154860D01*
X194414520Y-106059622D01*
X194462139Y-106012003D01*
X194557377Y-105964384D01*
X194747853Y-105916765D01*
X194985949Y-105916765D01*
X195176425Y-105964384D01*
X195271663Y-106012003D01*
X195319282Y-106059622D01*
X195366901Y-106154860D01*
X195366901Y-106250099D01*
X195319282Y-106345337D01*
X195271663Y-106392956D01*
X195176425Y-106440575D01*
X194985949Y-106488194D01*
X194747853Y-106488194D01*
X194557377Y-106440575D01*
X194462139Y-106392956D01*
X194414520Y-106345337D01*
X194366901Y-106250099D01*
X194366901Y-105297718D02*
X194366901Y-105202479D01*
X194414520Y-105107241D01*
X194462139Y-105059622D01*
X194557377Y-105012003D01*
X194747853Y-104964384D01*
X194985949Y-104964384D01*
X195176425Y-105012003D01*
X195271663Y-105059622D01*
X195319282Y-105107241D01*
X195366901Y-105202479D01*
X195366901Y-105297718D01*
X195319282Y-105392956D01*
X195271663Y-105440575D01*
X195176425Y-105488194D01*
X194985949Y-105535813D01*
X194747853Y-105535813D01*
X194557377Y-105488194D01*
X194462139Y-105440575D01*
X194414520Y-105392956D01*
X194366901Y-105297718D01*
X184556091Y-103360432D02*
X184556091Y-103693766D01*
X185079901Y-103693766D02*
X184079901Y-103693766D01*
X184079901Y-103217575D01*
X185079901Y-102836623D02*
X184079901Y-102836623D01*
X184794187Y-102503289D01*
X184079901Y-102169956D01*
X185079901Y-102169956D01*
X184175139Y-101741385D02*
X184127520Y-101693766D01*
X184079901Y-101598528D01*
X184079901Y-101360432D01*
X184127520Y-101265194D01*
X184175139Y-101217575D01*
X184270377Y-101169956D01*
X184365615Y-101169956D01*
X184508472Y-101217575D01*
X185079901Y-101789004D01*
X185079901Y-101169956D01*
X184413234Y-100312813D02*
X185079901Y-100312813D01*
X184032282Y-100550909D02*
X184746568Y-100789004D01*
X184746568Y-100169956D01*
X184079901Y-99884242D02*
X185079901Y-99646147D01*
X184365615Y-99455670D01*
X185079901Y-99265194D01*
X184079901Y-99027099D01*
X184175139Y-98693766D02*
X184127520Y-98646147D01*
X184079901Y-98550909D01*
X184079901Y-98312813D01*
X184127520Y-98217575D01*
X184175139Y-98169956D01*
X184270377Y-98122337D01*
X184365615Y-98122337D01*
X184508472Y-98169956D01*
X185079901Y-98741385D01*
X185079901Y-98122337D01*
X184079901Y-97217575D02*
X184079901Y-97693766D01*
X184556091Y-97741385D01*
X184508472Y-97693766D01*
X184460853Y-97598528D01*
X184460853Y-97360432D01*
X184508472Y-97265194D01*
X184556091Y-97217575D01*
X184651330Y-97169956D01*
X184889425Y-97169956D01*
X184984663Y-97217575D01*
X185032282Y-97265194D01*
X185079901Y-97360432D01*
X185079901Y-97598528D01*
X185032282Y-97693766D01*
X184984663Y-97741385D01*
X184079901Y-96312813D02*
X184079901Y-96503290D01*
X184127520Y-96598528D01*
X184175139Y-96646147D01*
X184317996Y-96741385D01*
X184508472Y-96789004D01*
X184889425Y-96789004D01*
X184984663Y-96741385D01*
X185032282Y-96693766D01*
X185079901Y-96598528D01*
X185079901Y-96408051D01*
X185032282Y-96312813D01*
X184984663Y-96265194D01*
X184889425Y-96217575D01*
X184651330Y-96217575D01*
X184556091Y-96265194D01*
X184508472Y-96312813D01*
X184460853Y-96408051D01*
X184460853Y-96598528D01*
X184508472Y-96693766D01*
X184556091Y-96741385D01*
X184651330Y-96789004D01*
X197684663Y-107281718D02*
X197732282Y-107329337D01*
X197779901Y-107472194D01*
X197779901Y-107567432D01*
X197732282Y-107710290D01*
X197637044Y-107805528D01*
X197541806Y-107853147D01*
X197351330Y-107900766D01*
X197208472Y-107900766D01*
X197017996Y-107853147D01*
X196922758Y-107805528D01*
X196827520Y-107710290D01*
X196779901Y-107567432D01*
X196779901Y-107472194D01*
X196827520Y-107329337D01*
X196875139Y-107281718D01*
X197779901Y-106281718D02*
X197303710Y-106615052D01*
X197779901Y-106853147D02*
X196779901Y-106853147D01*
X196779901Y-106472194D01*
X196827520Y-106376956D01*
X196875139Y-106329337D01*
X196970377Y-106281718D01*
X197113234Y-106281718D01*
X197208472Y-106329337D01*
X197256091Y-106376956D01*
X197303710Y-106472194D01*
X197303710Y-106853147D01*
X196875139Y-105900766D02*
X196827520Y-105853147D01*
X196779901Y-105757909D01*
X196779901Y-105519813D01*
X196827520Y-105424575D01*
X196875139Y-105376956D01*
X196970377Y-105329337D01*
X197065615Y-105329337D01*
X197208472Y-105376956D01*
X197779901Y-105948385D01*
X197779901Y-105329337D01*
X196779901Y-104710290D02*
X196779901Y-104615051D01*
X196827520Y-104519813D01*
X196875139Y-104472194D01*
X196970377Y-104424575D01*
X197160853Y-104376956D01*
X197398949Y-104376956D01*
X197589425Y-104424575D01*
X197684663Y-104472194D01*
X197732282Y-104519813D01*
X197779901Y-104615051D01*
X197779901Y-104710290D01*
X197732282Y-104805528D01*
X197684663Y-104853147D01*
X197589425Y-104900766D01*
X197398949Y-104948385D01*
X197160853Y-104948385D01*
X196970377Y-104900766D01*
X196875139Y-104853147D01*
X196827520Y-104805528D01*
X196779901Y-104710290D01*
X196779901Y-104043623D02*
X196779901Y-103424575D01*
X197160853Y-103757909D01*
X197160853Y-103615051D01*
X197208472Y-103519813D01*
X197256091Y-103472194D01*
X197351330Y-103424575D01*
X197589425Y-103424575D01*
X197684663Y-103472194D01*
X197732282Y-103519813D01*
X197779901Y-103615051D01*
X197779901Y-103900766D01*
X197732282Y-103996004D01*
X197684663Y-104043623D01*
X196875139Y-103043623D02*
X196827520Y-102996004D01*
X196779901Y-102900766D01*
X196779901Y-102662670D01*
X196827520Y-102567432D01*
X196875139Y-102519813D01*
X196970377Y-102472194D01*
X197065615Y-102472194D01*
X197208472Y-102519813D01*
X197779901Y-103091242D01*
X197779901Y-102472194D01*
X182453139Y-118704099D02*
X182500758Y-118656480D01*
X182595996Y-118608861D01*
X182834092Y-118608861D01*
X182929330Y-118656480D01*
X182976949Y-118704099D01*
X183024568Y-118799337D01*
X183024568Y-118894575D01*
X182976949Y-119037432D01*
X182405520Y-119608861D01*
X183024568Y-119608861D01*
X183929330Y-118608861D02*
X183453139Y-118608861D01*
X183405520Y-119085051D01*
X183453139Y-119037432D01*
X183548377Y-118989813D01*
X183786473Y-118989813D01*
X183881711Y-119037432D01*
X183929330Y-119085051D01*
X183976949Y-119180290D01*
X183976949Y-119418385D01*
X183929330Y-119513623D01*
X183881711Y-119561242D01*
X183786473Y-119608861D01*
X183548377Y-119608861D01*
X183453139Y-119561242D01*
X183405520Y-119513623D01*
X184834092Y-118608861D02*
X184643615Y-118608861D01*
X184548377Y-118656480D01*
X184500758Y-118704099D01*
X184405520Y-118846956D01*
X184357901Y-119037432D01*
X184357901Y-119418385D01*
X184405520Y-119513623D01*
X184453139Y-119561242D01*
X184548377Y-119608861D01*
X184738854Y-119608861D01*
X184834092Y-119561242D01*
X184881711Y-119513623D01*
X184929330Y-119418385D01*
X184929330Y-119180290D01*
X184881711Y-119085051D01*
X184834092Y-119037432D01*
X184738854Y-118989813D01*
X184548377Y-118989813D01*
X184453139Y-119037432D01*
X184405520Y-119085051D01*
X184357901Y-119180290D01*
X185548377Y-118608861D02*
X185643616Y-118608861D01*
X185738854Y-118656480D01*
X185786473Y-118704099D01*
X185834092Y-118799337D01*
X185881711Y-118989813D01*
X185881711Y-119227909D01*
X185834092Y-119418385D01*
X185786473Y-119513623D01*
X185738854Y-119561242D01*
X185643616Y-119608861D01*
X185548377Y-119608861D01*
X185453139Y-119561242D01*
X185405520Y-119513623D01*
X185357901Y-119418385D01*
X185310282Y-119227909D01*
X185310282Y-118989813D01*
X185357901Y-118799337D01*
X185405520Y-118704099D01*
X185453139Y-118656480D01*
X185548377Y-118608861D01*
X186310282Y-119227909D02*
X187072187Y-119227909D01*
X187976949Y-119561242D02*
X187881711Y-119608861D01*
X187691234Y-119608861D01*
X187595996Y-119561242D01*
X187548377Y-119513623D01*
X187500758Y-119418385D01*
X187500758Y-119132670D01*
X187548377Y-119037432D01*
X187595996Y-118989813D01*
X187691234Y-118942194D01*
X187881711Y-118942194D01*
X187976949Y-118989813D01*
X188548377Y-119608861D02*
X188453139Y-119561242D01*
X188405520Y-119513623D01*
X188357901Y-119418385D01*
X188357901Y-119132670D01*
X188405520Y-119037432D01*
X188453139Y-118989813D01*
X188548377Y-118942194D01*
X188691235Y-118942194D01*
X188786473Y-118989813D01*
X188834092Y-119037432D01*
X188881711Y-119132670D01*
X188881711Y-119418385D01*
X188834092Y-119513623D01*
X188786473Y-119561242D01*
X188691235Y-119608861D01*
X188548377Y-119608861D01*
X189310282Y-119608861D02*
X189310282Y-118942194D01*
X189310282Y-119132670D02*
X189357901Y-119037432D01*
X189405520Y-118989813D01*
X189500758Y-118942194D01*
X189595997Y-118942194D01*
X190310283Y-119561242D02*
X190215045Y-119608861D01*
X190024568Y-119608861D01*
X189929330Y-119561242D01*
X189881711Y-119466004D01*
X189881711Y-119085051D01*
X189929330Y-118989813D01*
X190024568Y-118942194D01*
X190215045Y-118942194D01*
X190310283Y-118989813D01*
X190357902Y-119085051D01*
X190357902Y-119180290D01*
X189881711Y-119275528D01*
X197906901Y-117529099D02*
X197906901Y-118100528D01*
X197906901Y-117814814D02*
X196906901Y-117814814D01*
X197049758Y-117910052D01*
X197144996Y-118005290D01*
X197192615Y-118100528D01*
X196906901Y-116910052D02*
X196906901Y-116814813D01*
X196954520Y-116719575D01*
X197002139Y-116671956D01*
X197097377Y-116624337D01*
X197287853Y-116576718D01*
X197525949Y-116576718D01*
X197716425Y-116624337D01*
X197811663Y-116671956D01*
X197859282Y-116719575D01*
X197906901Y-116814813D01*
X197906901Y-116910052D01*
X197859282Y-117005290D01*
X197811663Y-117052909D01*
X197716425Y-117100528D01*
X197525949Y-117148147D01*
X197287853Y-117148147D01*
X197097377Y-117100528D01*
X197002139Y-117052909D01*
X196954520Y-117005290D01*
X196906901Y-116910052D01*
X196906901Y-115957671D02*
X196906901Y-115862432D01*
X196954520Y-115767194D01*
X197002139Y-115719575D01*
X197097377Y-115671956D01*
X197287853Y-115624337D01*
X197525949Y-115624337D01*
X197716425Y-115671956D01*
X197811663Y-115719575D01*
X197859282Y-115767194D01*
X197906901Y-115862432D01*
X197906901Y-115957671D01*
X197859282Y-116052909D01*
X197811663Y-116100528D01*
X197716425Y-116148147D01*
X197525949Y-116195766D01*
X197287853Y-116195766D01*
X197097377Y-116148147D01*
X197002139Y-116100528D01*
X196954520Y-116052909D01*
X196906901Y-115957671D01*
X197240234Y-115195766D02*
X197906901Y-115195766D01*
X197335472Y-115195766D02*
X197287853Y-115148147D01*
X197240234Y-115052909D01*
X197240234Y-114910051D01*
X197287853Y-114814813D01*
X197383091Y-114767194D01*
X197906901Y-114767194D01*
X197383091Y-113957670D02*
X197383091Y-114291004D01*
X197906901Y-114291004D02*
X196906901Y-114291004D01*
X196906901Y-113814813D01*
X150258329Y-109448861D02*
X150258329Y-108448861D01*
X150639282Y-108448861D01*
X150734520Y-108496480D01*
X150782139Y-108544099D01*
X150829758Y-108639337D01*
X150829758Y-108782194D01*
X150782139Y-108877432D01*
X150734520Y-108925051D01*
X150639282Y-108972670D01*
X150258329Y-108972670D01*
X151401186Y-109448861D02*
X151305948Y-109401242D01*
X151258329Y-109353623D01*
X151210710Y-109258385D01*
X151210710Y-108972670D01*
X151258329Y-108877432D01*
X151305948Y-108829813D01*
X151401186Y-108782194D01*
X151544044Y-108782194D01*
X151639282Y-108829813D01*
X151686901Y-108877432D01*
X151734520Y-108972670D01*
X151734520Y-109258385D01*
X151686901Y-109353623D01*
X151639282Y-109401242D01*
X151544044Y-109448861D01*
X151401186Y-109448861D01*
X152020234Y-108782194D02*
X152401186Y-108782194D01*
X152163091Y-108448861D02*
X152163091Y-109306004D01*
X152210710Y-109401242D01*
X152305948Y-109448861D01*
X152401186Y-109448861D01*
X152639282Y-108448861D02*
X153258330Y-108448861D01*
X152924996Y-108829813D01*
X153067854Y-108829813D01*
X153163092Y-108877432D01*
X153210711Y-108925051D01*
X153258330Y-109020290D01*
X153258330Y-109258385D01*
X153210711Y-109353623D01*
X153163092Y-109401242D01*
X153067854Y-109448861D01*
X152782139Y-109448861D01*
X152686901Y-109401242D01*
X152639282Y-109353623D01*
X150258329Y-104368861D02*
X150258329Y-103368861D01*
X150639282Y-103368861D01*
X150734520Y-103416480D01*
X150782139Y-103464099D01*
X150829758Y-103559337D01*
X150829758Y-103702194D01*
X150782139Y-103797432D01*
X150734520Y-103845051D01*
X150639282Y-103892670D01*
X150258329Y-103892670D01*
X151401186Y-104368861D02*
X151305948Y-104321242D01*
X151258329Y-104273623D01*
X151210710Y-104178385D01*
X151210710Y-103892670D01*
X151258329Y-103797432D01*
X151305948Y-103749813D01*
X151401186Y-103702194D01*
X151544044Y-103702194D01*
X151639282Y-103749813D01*
X151686901Y-103797432D01*
X151734520Y-103892670D01*
X151734520Y-104178385D01*
X151686901Y-104273623D01*
X151639282Y-104321242D01*
X151544044Y-104368861D01*
X151401186Y-104368861D01*
X152020234Y-103702194D02*
X152401186Y-103702194D01*
X152163091Y-103368861D02*
X152163091Y-104226004D01*
X152210710Y-104321242D01*
X152305948Y-104368861D01*
X152401186Y-104368861D01*
X153258330Y-104368861D02*
X152686901Y-104368861D01*
X152972615Y-104368861D02*
X152972615Y-103368861D01*
X152877377Y-103511718D01*
X152782139Y-103606956D01*
X152686901Y-103654575D01*
X150258329Y-106908861D02*
X150258329Y-105908861D01*
X150639282Y-105908861D01*
X150734520Y-105956480D01*
X150782139Y-106004099D01*
X150829758Y-106099337D01*
X150829758Y-106242194D01*
X150782139Y-106337432D01*
X150734520Y-106385051D01*
X150639282Y-106432670D01*
X150258329Y-106432670D01*
X151401186Y-106908861D02*
X151305948Y-106861242D01*
X151258329Y-106813623D01*
X151210710Y-106718385D01*
X151210710Y-106432670D01*
X151258329Y-106337432D01*
X151305948Y-106289813D01*
X151401186Y-106242194D01*
X151544044Y-106242194D01*
X151639282Y-106289813D01*
X151686901Y-106337432D01*
X151734520Y-106432670D01*
X151734520Y-106718385D01*
X151686901Y-106813623D01*
X151639282Y-106861242D01*
X151544044Y-106908861D01*
X151401186Y-106908861D01*
X152020234Y-106242194D02*
X152401186Y-106242194D01*
X152163091Y-105908861D02*
X152163091Y-106766004D01*
X152210710Y-106861242D01*
X152305948Y-106908861D01*
X152401186Y-106908861D01*
X152686901Y-106004099D02*
X152734520Y-105956480D01*
X152829758Y-105908861D01*
X153067854Y-105908861D01*
X153163092Y-105956480D01*
X153210711Y-106004099D01*
X153258330Y-106099337D01*
X153258330Y-106194575D01*
X153210711Y-106337432D01*
X152639282Y-106908861D01*
X153258330Y-106908861D01*
X226481901Y-76174718D02*
X226481901Y-76650909D01*
X225481901Y-76650909D01*
X225815234Y-75412813D02*
X226481901Y-75412813D01*
X225434282Y-75650909D02*
X226148568Y-75889004D01*
X226148568Y-75269956D01*
X226481901Y-74841385D02*
X226481901Y-74650909D01*
X226434282Y-74555670D01*
X226386663Y-74508051D01*
X226243806Y-74412813D01*
X226053330Y-74365194D01*
X225672377Y-74365194D01*
X225577139Y-74412813D01*
X225529520Y-74460432D01*
X225481901Y-74555670D01*
X225481901Y-74746147D01*
X225529520Y-74841385D01*
X225577139Y-74889004D01*
X225672377Y-74936623D01*
X225910472Y-74936623D01*
X226005710Y-74889004D01*
X226053330Y-74841385D01*
X226100949Y-74746147D01*
X226100949Y-74555670D01*
X226053330Y-74460432D01*
X226005710Y-74412813D01*
X225910472Y-74365194D01*
X225815234Y-73508051D02*
X226481901Y-73508051D01*
X225434282Y-73746147D02*
X226148568Y-73984242D01*
X226148568Y-73365194D01*
X226481901Y-72460432D02*
X226481901Y-73031861D01*
X226481901Y-72746147D02*
X225481901Y-72746147D01*
X225624758Y-72841385D01*
X225719996Y-72936623D01*
X225767615Y-73031861D01*
X152710782Y-79611385D02*
X152758401Y-79468528D01*
X152758401Y-79230432D01*
X152710782Y-79135194D01*
X152663163Y-79087575D01*
X152567925Y-79039956D01*
X152472687Y-79039956D01*
X152377449Y-79087575D01*
X152329830Y-79135194D01*
X152282210Y-79230432D01*
X152234591Y-79420909D01*
X152186972Y-79516147D01*
X152139353Y-79563766D01*
X152044115Y-79611385D01*
X151948877Y-79611385D01*
X151853639Y-79563766D01*
X151806020Y-79516147D01*
X151758401Y-79420909D01*
X151758401Y-79182813D01*
X151806020Y-79039956D01*
X152091734Y-78754242D02*
X152091734Y-78373290D01*
X151758401Y-78611385D02*
X152615544Y-78611385D01*
X152710782Y-78563766D01*
X152758401Y-78468528D01*
X152758401Y-78373290D01*
X152758401Y-78039956D02*
X152091734Y-78039956D01*
X151758401Y-78039956D02*
X151806020Y-78087575D01*
X151853639Y-78039956D01*
X151806020Y-77992337D01*
X151758401Y-78039956D01*
X151853639Y-78039956D01*
X152710782Y-77135194D02*
X152758401Y-77230432D01*
X152758401Y-77420909D01*
X152710782Y-77516147D01*
X152663163Y-77563766D01*
X152567925Y-77611385D01*
X152282210Y-77611385D01*
X152186972Y-77563766D01*
X152139353Y-77516147D01*
X152091734Y-77420909D01*
X152091734Y-77230432D01*
X152139353Y-77135194D01*
X152758401Y-76706623D02*
X151758401Y-76706623D01*
X152377449Y-76611385D02*
X152758401Y-76325670D01*
X152091734Y-76325670D02*
X152472687Y-76706623D01*
X152853639Y-76135194D02*
X152853639Y-75373289D01*
X152758401Y-75135194D02*
X152091734Y-75135194D01*
X152282210Y-75135194D02*
X152186972Y-75087575D01*
X152139353Y-75039956D01*
X152091734Y-74944718D01*
X152091734Y-74849479D01*
X152758401Y-74516146D02*
X152091734Y-74516146D01*
X151758401Y-74516146D02*
X151806020Y-74563765D01*
X151853639Y-74516146D01*
X151806020Y-74468527D01*
X151758401Y-74516146D01*
X151853639Y-74516146D01*
X152091734Y-73611384D02*
X152901258Y-73611384D01*
X152996496Y-73659003D01*
X153044115Y-73706622D01*
X153091734Y-73801861D01*
X153091734Y-73944718D01*
X153044115Y-74039956D01*
X152710782Y-73611384D02*
X152758401Y-73706622D01*
X152758401Y-73897099D01*
X152710782Y-73992337D01*
X152663163Y-74039956D01*
X152567925Y-74087575D01*
X152282210Y-74087575D01*
X152186972Y-74039956D01*
X152139353Y-73992337D01*
X152091734Y-73897099D01*
X152091734Y-73706622D01*
X152139353Y-73611384D01*
X152758401Y-73135194D02*
X151758401Y-73135194D01*
X152758401Y-72706622D02*
X152234591Y-72706622D01*
X152139353Y-72754241D01*
X152091734Y-72849479D01*
X152091734Y-72992337D01*
X152139353Y-73087575D01*
X152186972Y-73135194D01*
X152091734Y-72373289D02*
X152091734Y-71992337D01*
X151758401Y-72230432D02*
X152615544Y-72230432D01*
X152710782Y-72182813D01*
X152758401Y-72087575D01*
X152758401Y-71992337D01*
X144455782Y-79135195D02*
X144503401Y-78992338D01*
X144503401Y-78754242D01*
X144455782Y-78659004D01*
X144408163Y-78611385D01*
X144312925Y-78563766D01*
X144217687Y-78563766D01*
X144122449Y-78611385D01*
X144074830Y-78659004D01*
X144027210Y-78754242D01*
X143979591Y-78944719D01*
X143931972Y-79039957D01*
X143884353Y-79087576D01*
X143789115Y-79135195D01*
X143693877Y-79135195D01*
X143598639Y-79087576D01*
X143551020Y-79039957D01*
X143503401Y-78944719D01*
X143503401Y-78706623D01*
X143551020Y-78563766D01*
X143836734Y-78278052D02*
X143836734Y-77897100D01*
X143503401Y-78135195D02*
X144360544Y-78135195D01*
X144455782Y-78087576D01*
X144503401Y-77992338D01*
X144503401Y-77897100D01*
X144503401Y-77563766D02*
X143836734Y-77563766D01*
X143503401Y-77563766D02*
X143551020Y-77611385D01*
X143598639Y-77563766D01*
X143551020Y-77516147D01*
X143503401Y-77563766D01*
X143598639Y-77563766D01*
X144455782Y-76659004D02*
X144503401Y-76754242D01*
X144503401Y-76944719D01*
X144455782Y-77039957D01*
X144408163Y-77087576D01*
X144312925Y-77135195D01*
X144027210Y-77135195D01*
X143931972Y-77087576D01*
X143884353Y-77039957D01*
X143836734Y-76944719D01*
X143836734Y-76754242D01*
X143884353Y-76659004D01*
X144503401Y-76230433D02*
X143503401Y-76230433D01*
X144122449Y-76135195D02*
X144503401Y-75849480D01*
X143836734Y-75849480D02*
X144217687Y-76230433D01*
X144598639Y-75659004D02*
X144598639Y-74897099D01*
X144503401Y-74516147D02*
X144455782Y-74611385D01*
X144360544Y-74659004D01*
X143503401Y-74659004D01*
X144455782Y-73754241D02*
X144503401Y-73849479D01*
X144503401Y-74039956D01*
X144455782Y-74135194D01*
X144360544Y-74182813D01*
X143979591Y-74182813D01*
X143884353Y-74135194D01*
X143836734Y-74039956D01*
X143836734Y-73849479D01*
X143884353Y-73754241D01*
X143979591Y-73706622D01*
X144074830Y-73706622D01*
X144170068Y-74182813D01*
X143836734Y-73420908D02*
X143836734Y-73039956D01*
X144503401Y-73278051D02*
X143646258Y-73278051D01*
X143551020Y-73230432D01*
X143503401Y-73135194D01*
X143503401Y-73039956D01*
X143836734Y-72849479D02*
X143836734Y-72468527D01*
X143503401Y-72706622D02*
X144360544Y-72706622D01*
X144455782Y-72659003D01*
X144503401Y-72563765D01*
X144503401Y-72468527D01*
X205638091Y-78365527D02*
X205685710Y-78222670D01*
X205733330Y-78175051D01*
X205828568Y-78127432D01*
X205971425Y-78127432D01*
X206066663Y-78175051D01*
X206114282Y-78222670D01*
X206161901Y-78317908D01*
X206161901Y-78698861D01*
X205161901Y-78698861D01*
X205161901Y-78365527D01*
X205209520Y-78270289D01*
X205257139Y-78222670D01*
X205352377Y-78175051D01*
X205447615Y-78175051D01*
X205542853Y-78222670D01*
X205590472Y-78270289D01*
X205638091Y-78365527D01*
X205638091Y-78698861D01*
X205876187Y-77746480D02*
X205876187Y-77270289D01*
X206161901Y-77841718D02*
X205161901Y-77508385D01*
X206161901Y-77175051D01*
X205161901Y-76984575D02*
X205161901Y-76413146D01*
X206161901Y-76698861D02*
X205161901Y-76698861D01*
X205161901Y-76222670D02*
X205161901Y-75651241D01*
X206161901Y-75936956D02*
X205161901Y-75936956D01*
X226989901Y-110409194D02*
X226513710Y-110742528D01*
X226989901Y-110980623D02*
X225989901Y-110980623D01*
X225989901Y-110599670D01*
X226037520Y-110504432D01*
X226085139Y-110456813D01*
X226180377Y-110409194D01*
X226323234Y-110409194D01*
X226418472Y-110456813D01*
X226466091Y-110504432D01*
X226513710Y-110599670D01*
X226513710Y-110980623D01*
X226989901Y-109837766D02*
X226942282Y-109933004D01*
X226894663Y-109980623D01*
X226799425Y-110028242D01*
X226513710Y-110028242D01*
X226418472Y-109980623D01*
X226370853Y-109933004D01*
X226323234Y-109837766D01*
X226323234Y-109694908D01*
X226370853Y-109599670D01*
X226418472Y-109552051D01*
X226513710Y-109504432D01*
X226799425Y-109504432D01*
X226894663Y-109552051D01*
X226942282Y-109599670D01*
X226989901Y-109694908D01*
X226989901Y-109837766D01*
X226323234Y-109218718D02*
X226323234Y-108837766D01*
X225989901Y-109075861D02*
X226847044Y-109075861D01*
X226942282Y-109028242D01*
X226989901Y-108933004D01*
X226989901Y-108837766D01*
X227085139Y-108742527D02*
X227085139Y-107980622D01*
X226085139Y-107790146D02*
X226037520Y-107742527D01*
X225989901Y-107647289D01*
X225989901Y-107409193D01*
X226037520Y-107313955D01*
X226085139Y-107266336D01*
X226180377Y-107218717D01*
X226275615Y-107218717D01*
X226418472Y-107266336D01*
X226989901Y-107837765D01*
X226989901Y-107218717D01*
X208043329Y-88874861D02*
X208043329Y-87874861D01*
X208614758Y-88874861D02*
X208186186Y-88303432D01*
X208614758Y-87874861D02*
X208043329Y-88446290D01*
X209424282Y-88827242D02*
X209329044Y-88874861D01*
X209138567Y-88874861D01*
X209043329Y-88827242D01*
X208995710Y-88732004D01*
X208995710Y-88351051D01*
X209043329Y-88255813D01*
X209138567Y-88208194D01*
X209329044Y-88208194D01*
X209424282Y-88255813D01*
X209471901Y-88351051D01*
X209471901Y-88446290D01*
X208995710Y-88541528D01*
X209805234Y-88208194D02*
X210043329Y-88874861D01*
X210281425Y-88208194D02*
X210043329Y-88874861D01*
X209948091Y-89112956D01*
X209900472Y-89160575D01*
X209805234Y-89208194D01*
X210614758Y-88827242D02*
X210709996Y-88874861D01*
X210900472Y-88874861D01*
X210995711Y-88827242D01*
X211043330Y-88732004D01*
X211043330Y-88684385D01*
X210995711Y-88589147D01*
X210900472Y-88541528D01*
X210757615Y-88541528D01*
X210662377Y-88493909D01*
X210614758Y-88398670D01*
X210614758Y-88351051D01*
X210662377Y-88255813D01*
X210757615Y-88208194D01*
X210900472Y-88208194D01*
X210995711Y-88255813D01*
X208051234Y-86207861D02*
X208051234Y-85207861D01*
X208432187Y-85207861D01*
X208527425Y-85255480D01*
X208575044Y-85303099D01*
X208622663Y-85398337D01*
X208622663Y-85541194D01*
X208575044Y-85636432D01*
X208527425Y-85684051D01*
X208432187Y-85731670D01*
X208051234Y-85731670D01*
X209003615Y-85303099D02*
X209051234Y-85255480D01*
X209146472Y-85207861D01*
X209384568Y-85207861D01*
X209479806Y-85255480D01*
X209527425Y-85303099D01*
X209575044Y-85398337D01*
X209575044Y-85493575D01*
X209527425Y-85636432D01*
X208955996Y-86207861D01*
X209575044Y-86207861D01*
X210479806Y-85207861D02*
X210003615Y-85207861D01*
X209955996Y-85684051D01*
X210003615Y-85636432D01*
X210098853Y-85588813D01*
X210336949Y-85588813D01*
X210432187Y-85636432D01*
X210479806Y-85684051D01*
X210527425Y-85779290D01*
X210527425Y-86017385D01*
X210479806Y-86112623D01*
X210432187Y-86160242D01*
X210336949Y-86207861D01*
X210098853Y-86207861D01*
X210003615Y-86160242D01*
X209955996Y-86112623D01*
X208447901Y-74555146D02*
X207447901Y-74555146D01*
X208162187Y-74221812D01*
X207447901Y-73888479D01*
X208447901Y-73888479D01*
X208447901Y-73412289D02*
X207781234Y-73412289D01*
X207447901Y-73412289D02*
X207495520Y-73459908D01*
X207543139Y-73412289D01*
X207495520Y-73364670D01*
X207447901Y-73412289D01*
X207543139Y-73412289D01*
X207781234Y-72936099D02*
X208447901Y-72936099D01*
X207876472Y-72936099D02*
X207828853Y-72888480D01*
X207781234Y-72793242D01*
X207781234Y-72650384D01*
X207828853Y-72555146D01*
X207924091Y-72507527D01*
X208447901Y-72507527D01*
X208447901Y-72031337D02*
X207781234Y-72031337D01*
X207447901Y-72031337D02*
X207495520Y-72078956D01*
X207543139Y-72031337D01*
X207495520Y-71983718D01*
X207447901Y-72031337D01*
X207543139Y-72031337D01*
X208447901Y-71555147D02*
X207447901Y-71555147D01*
X207447901Y-71317052D01*
X207495520Y-71174194D01*
X207590758Y-71078956D01*
X207685996Y-71031337D01*
X207876472Y-70983718D01*
X208019330Y-70983718D01*
X208209806Y-71031337D01*
X208305044Y-71078956D01*
X208400282Y-71174194D01*
X208447901Y-71317052D01*
X208447901Y-71555147D01*
X208352663Y-69983718D02*
X208400282Y-70031337D01*
X208447901Y-70174194D01*
X208447901Y-70269432D01*
X208400282Y-70412290D01*
X208305044Y-70507528D01*
X208209806Y-70555147D01*
X208019330Y-70602766D01*
X207876472Y-70602766D01*
X207685996Y-70555147D01*
X207590758Y-70507528D01*
X207495520Y-70412290D01*
X207447901Y-70269432D01*
X207447901Y-70174194D01*
X207495520Y-70031337D01*
X207543139Y-69983718D01*
X208447901Y-69555147D02*
X207447901Y-69555147D01*
X207447901Y-69317052D01*
X207495520Y-69174194D01*
X207590758Y-69078956D01*
X207685996Y-69031337D01*
X207876472Y-68983718D01*
X208019330Y-68983718D01*
X208209806Y-69031337D01*
X208305044Y-69078956D01*
X208400282Y-69174194D01*
X208447901Y-69317052D01*
X208447901Y-69555147D01*
X208352663Y-67983718D02*
X208400282Y-68031337D01*
X208447901Y-68174194D01*
X208447901Y-68269432D01*
X208400282Y-68412290D01*
X208305044Y-68507528D01*
X208209806Y-68555147D01*
X208019330Y-68602766D01*
X207876472Y-68602766D01*
X207685996Y-68555147D01*
X207590758Y-68507528D01*
X207495520Y-68412290D01*
X207447901Y-68269432D01*
X207447901Y-68174194D01*
X207495520Y-68031337D01*
X207543139Y-67983718D01*
X207447901Y-67650385D02*
X207447901Y-67031337D01*
X207828853Y-67364671D01*
X207828853Y-67221813D01*
X207876472Y-67126575D01*
X207924091Y-67078956D01*
X208019330Y-67031337D01*
X208257425Y-67031337D01*
X208352663Y-67078956D01*
X208400282Y-67126575D01*
X208447901Y-67221813D01*
X208447901Y-67507528D01*
X208400282Y-67602766D01*
X208352663Y-67650385D01*
X208162187Y-66650385D02*
X208162187Y-66174194D01*
X208447901Y-66745623D02*
X207447901Y-66412290D01*
X208447901Y-66078956D01*
X212654901Y-83818528D02*
X212654901Y-83628051D01*
X212702520Y-83532813D01*
X212797758Y-83437575D01*
X212988234Y-83389956D01*
X213321568Y-83389956D01*
X213512044Y-83437575D01*
X213607282Y-83532813D01*
X213654901Y-83628051D01*
X213654901Y-83818528D01*
X213607282Y-83913766D01*
X213512044Y-84009004D01*
X213321568Y-84056623D01*
X212988234Y-84056623D01*
X212797758Y-84009004D01*
X212702520Y-83913766D01*
X212654901Y-83818528D01*
X212654901Y-82961385D02*
X213464425Y-82961385D01*
X213559663Y-82913766D01*
X213607282Y-82866147D01*
X213654901Y-82770909D01*
X213654901Y-82580432D01*
X213607282Y-82485194D01*
X213559663Y-82437575D01*
X213464425Y-82389956D01*
X212654901Y-82389956D01*
X212654901Y-82056623D02*
X212654901Y-81485194D01*
X213654901Y-81770909D02*
X212654901Y-81770909D01*
X213273949Y-81151861D02*
X213273949Y-80389956D01*
X213654901Y-80770908D02*
X212892996Y-80770908D01*
X217099901Y-83818528D02*
X217099901Y-83628051D01*
X217147520Y-83532813D01*
X217242758Y-83437575D01*
X217433234Y-83389956D01*
X217766568Y-83389956D01*
X217957044Y-83437575D01*
X218052282Y-83532813D01*
X218099901Y-83628051D01*
X218099901Y-83818528D01*
X218052282Y-83913766D01*
X217957044Y-84009004D01*
X217766568Y-84056623D01*
X217433234Y-84056623D01*
X217242758Y-84009004D01*
X217147520Y-83913766D01*
X217099901Y-83818528D01*
X217099901Y-82961385D02*
X217909425Y-82961385D01*
X218004663Y-82913766D01*
X218052282Y-82866147D01*
X218099901Y-82770909D01*
X218099901Y-82580432D01*
X218052282Y-82485194D01*
X218004663Y-82437575D01*
X217909425Y-82389956D01*
X217099901Y-82389956D01*
X217099901Y-82056623D02*
X217099901Y-81485194D01*
X218099901Y-81770909D02*
X217099901Y-81770909D01*
X217718949Y-81151861D02*
X217718949Y-80389956D01*
X218099901Y-65308337D02*
X217099901Y-65308337D01*
X218099901Y-64832147D02*
X217099901Y-64832147D01*
X218099901Y-64260718D01*
X217099901Y-64260718D01*
X217718949Y-63784528D02*
X217718949Y-63022623D01*
X213654901Y-65308337D02*
X212654901Y-65308337D01*
X213654901Y-64832147D02*
X212654901Y-64832147D01*
X213654901Y-64260718D01*
X212654901Y-64260718D01*
X213273949Y-63784528D02*
X213273949Y-63022623D01*
X213654901Y-63403575D02*
X212892996Y-63403575D01*
X210987901Y-95542289D02*
X210511710Y-95875623D01*
X210987901Y-96113718D02*
X209987901Y-96113718D01*
X209987901Y-95732765D01*
X210035520Y-95637527D01*
X210083139Y-95589908D01*
X210178377Y-95542289D01*
X210321234Y-95542289D01*
X210416472Y-95589908D01*
X210464091Y-95637527D01*
X210511710Y-95732765D01*
X210511710Y-96113718D01*
X209987901Y-95208956D02*
X210987901Y-94542289D01*
X209987901Y-94542289D02*
X210987901Y-95208956D01*
X209987901Y-94304194D02*
X209987901Y-93732765D01*
X210987901Y-94018480D02*
X209987901Y-94018480D01*
X209987901Y-93494670D02*
X210987901Y-92828003D01*
X209987901Y-92828003D02*
X210987901Y-93494670D01*
X148408901Y-101574861D02*
X147837472Y-101574861D01*
X148123186Y-101574861D02*
X148123186Y-100574861D01*
X148027948Y-100717718D01*
X147932710Y-100812956D01*
X147837472Y-100860575D01*
X149027948Y-100574861D02*
X149123187Y-100574861D01*
X149218425Y-100622480D01*
X149266044Y-100670099D01*
X149313663Y-100765337D01*
X149361282Y-100955813D01*
X149361282Y-101193909D01*
X149313663Y-101384385D01*
X149266044Y-101479623D01*
X149218425Y-101527242D01*
X149123187Y-101574861D01*
X149027948Y-101574861D01*
X148932710Y-101527242D01*
X148885091Y-101479623D01*
X148837472Y-101384385D01*
X148789853Y-101193909D01*
X148789853Y-100955813D01*
X148837472Y-100765337D01*
X148885091Y-100670099D01*
X148932710Y-100622480D01*
X149027948Y-100574861D01*
X149980329Y-100574861D02*
X150075568Y-100574861D01*
X150170806Y-100622480D01*
X150218425Y-100670099D01*
X150266044Y-100765337D01*
X150313663Y-100955813D01*
X150313663Y-101193909D01*
X150266044Y-101384385D01*
X150218425Y-101479623D01*
X150170806Y-101527242D01*
X150075568Y-101574861D01*
X149980329Y-101574861D01*
X149885091Y-101527242D01*
X149837472Y-101479623D01*
X149789853Y-101384385D01*
X149742234Y-101193909D01*
X149742234Y-100955813D01*
X149789853Y-100765337D01*
X149837472Y-100670099D01*
X149885091Y-100622480D01*
X149980329Y-100574861D01*
X150742234Y-100908194D02*
X150742234Y-101574861D01*
X150742234Y-101003432D02*
X150789853Y-100955813D01*
X150885091Y-100908194D01*
X151027949Y-100908194D01*
X151123187Y-100955813D01*
X151170806Y-101051051D01*
X151170806Y-101574861D01*
X151980330Y-101051051D02*
X151646996Y-101051051D01*
X151646996Y-101574861D02*
X151646996Y-100574861D01*
X152123187Y-100574861D01*
X161394615Y-65872099D02*
X161442234Y-65824480D01*
X161537472Y-65776861D01*
X161775568Y-65776861D01*
X161870806Y-65824480D01*
X161918425Y-65872099D01*
X161966044Y-65967337D01*
X161966044Y-66062575D01*
X161918425Y-66205432D01*
X161346996Y-66776861D01*
X161966044Y-66776861D01*
X162346996Y-65872099D02*
X162394615Y-65824480D01*
X162489853Y-65776861D01*
X162727949Y-65776861D01*
X162823187Y-65824480D01*
X162870806Y-65872099D01*
X162918425Y-65967337D01*
X162918425Y-66062575D01*
X162870806Y-66205432D01*
X162299377Y-66776861D01*
X162918425Y-66776861D01*
X163346996Y-66776861D02*
X163346996Y-65776861D01*
X163918425Y-66776861D02*
X163489853Y-66205432D01*
X163918425Y-65776861D02*
X163346996Y-66348290D01*
X150631425Y-117307099D02*
X150679044Y-117259480D01*
X150774282Y-117211861D01*
X151012378Y-117211861D01*
X151107616Y-117259480D01*
X151155235Y-117307099D01*
X151202854Y-117402337D01*
X151202854Y-117497575D01*
X151155235Y-117640432D01*
X150583806Y-118211861D01*
X151202854Y-118211861D01*
X151583806Y-117307099D02*
X151631425Y-117259480D01*
X151726663Y-117211861D01*
X151964759Y-117211861D01*
X152059997Y-117259480D01*
X152107616Y-117307099D01*
X152155235Y-117402337D01*
X152155235Y-117497575D01*
X152107616Y-117640432D01*
X151536187Y-118211861D01*
X152155235Y-118211861D01*
X152774282Y-117211861D02*
X152869521Y-117211861D01*
X152964759Y-117259480D01*
X153012378Y-117307099D01*
X153059997Y-117402337D01*
X153107616Y-117592813D01*
X153107616Y-117830909D01*
X153059997Y-118021385D01*
X153012378Y-118116623D01*
X152964759Y-118164242D01*
X152869521Y-118211861D01*
X152774282Y-118211861D01*
X152679044Y-118164242D01*
X152631425Y-118116623D01*
X152583806Y-118021385D01*
X152536187Y-117830909D01*
X152536187Y-117592813D01*
X152583806Y-117402337D01*
X152631425Y-117307099D01*
X152679044Y-117259480D01*
X152774282Y-117211861D01*
X153536187Y-118211861D02*
X153536187Y-117211861D01*
X154107616Y-118211861D02*
X153679044Y-117640432D01*
X154107616Y-117211861D02*
X153536187Y-117783290D01*
X210559282Y-110567718D02*
X210606901Y-110424861D01*
X210606901Y-110186765D01*
X210559282Y-110091527D01*
X210511663Y-110043908D01*
X210416425Y-109996289D01*
X210321187Y-109996289D01*
X210225949Y-110043908D01*
X210178330Y-110091527D01*
X210130710Y-110186765D01*
X210083091Y-110377242D01*
X210035472Y-110472480D01*
X209987853Y-110520099D01*
X209892615Y-110567718D01*
X209797377Y-110567718D01*
X209702139Y-110520099D01*
X209654520Y-110472480D01*
X209606901Y-110377242D01*
X209606901Y-110139146D01*
X209654520Y-109996289D01*
X210606901Y-109567718D02*
X209606901Y-109567718D01*
X209606901Y-109186765D01*
X209654520Y-109091527D01*
X209702139Y-109043908D01*
X209797377Y-108996289D01*
X209940234Y-108996289D01*
X210035472Y-109043908D01*
X210083091Y-109091527D01*
X210130710Y-109186765D01*
X210130710Y-109567718D01*
X210606901Y-108567718D02*
X209606901Y-108567718D01*
X210702139Y-108329623D02*
X210702139Y-107567718D01*
X210606901Y-107186766D02*
X210559282Y-107282004D01*
X210464044Y-107329623D01*
X209606901Y-107329623D01*
X210606901Y-106805813D02*
X209940234Y-106805813D01*
X209606901Y-106805813D02*
X209654520Y-106853432D01*
X209702139Y-106805813D01*
X209654520Y-106758194D01*
X209606901Y-106805813D01*
X209702139Y-106805813D01*
X210606901Y-106329623D02*
X209606901Y-106329623D01*
X209987853Y-106329623D02*
X209940234Y-106234385D01*
X209940234Y-106043908D01*
X209987853Y-105948670D01*
X210035472Y-105901051D01*
X210130710Y-105853432D01*
X210416425Y-105853432D01*
X210511663Y-105901051D01*
X210559282Y-105948670D01*
X210606901Y-106043908D01*
X210606901Y-106234385D01*
X210559282Y-106329623D01*
X210606901Y-105424861D02*
X209940234Y-105424861D01*
X210130710Y-105424861D02*
X210035472Y-105377242D01*
X209987853Y-105329623D01*
X209940234Y-105234385D01*
X209940234Y-105139146D01*
X210559282Y-104424860D02*
X210606901Y-104520098D01*
X210606901Y-104710575D01*
X210559282Y-104805813D01*
X210464044Y-104853432D01*
X210083091Y-104853432D01*
X209987853Y-104805813D01*
X209940234Y-104710575D01*
X209940234Y-104520098D01*
X209987853Y-104424860D01*
X210083091Y-104377241D01*
X210178330Y-104377241D01*
X210273568Y-104853432D01*
X133471472Y-62077861D02*
X133471472Y-61077861D01*
X133804806Y-61792147D01*
X134138139Y-61077861D01*
X134138139Y-62077861D01*
X134757186Y-62077861D02*
X134661948Y-62030242D01*
X134614329Y-61982623D01*
X134566710Y-61887385D01*
X134566710Y-61601670D01*
X134614329Y-61506432D01*
X134661948Y-61458813D01*
X134757186Y-61411194D01*
X134900044Y-61411194D01*
X134995282Y-61458813D01*
X135042901Y-61506432D01*
X135090520Y-61601670D01*
X135090520Y-61887385D01*
X135042901Y-61982623D01*
X134995282Y-62030242D01*
X134900044Y-62077861D01*
X134757186Y-62077861D01*
X135947663Y-61411194D02*
X135947663Y-62077861D01*
X135519091Y-61411194D02*
X135519091Y-61935004D01*
X135566710Y-62030242D01*
X135661948Y-62077861D01*
X135804806Y-62077861D01*
X135900044Y-62030242D01*
X135947663Y-61982623D01*
X136423853Y-61411194D02*
X136423853Y-62077861D01*
X136423853Y-61506432D02*
X136471472Y-61458813D01*
X136566710Y-61411194D01*
X136709568Y-61411194D01*
X136804806Y-61458813D01*
X136852425Y-61554051D01*
X136852425Y-62077861D01*
X137185758Y-61411194D02*
X137566710Y-61411194D01*
X137328615Y-61077861D02*
X137328615Y-61935004D01*
X137376234Y-62030242D01*
X137471472Y-62077861D01*
X137566710Y-62077861D01*
X137900044Y-62077861D02*
X137900044Y-61411194D01*
X137900044Y-61077861D02*
X137852425Y-61125480D01*
X137900044Y-61173099D01*
X137947663Y-61125480D01*
X137900044Y-61077861D01*
X137900044Y-61173099D01*
X138376234Y-61411194D02*
X138376234Y-62077861D01*
X138376234Y-61506432D02*
X138423853Y-61458813D01*
X138519091Y-61411194D01*
X138661949Y-61411194D01*
X138757187Y-61458813D01*
X138804806Y-61554051D01*
X138804806Y-62077861D01*
X139709568Y-61411194D02*
X139709568Y-62220718D01*
X139661949Y-62315956D01*
X139614330Y-62363575D01*
X139519091Y-62411194D01*
X139376234Y-62411194D01*
X139280996Y-62363575D01*
X139709568Y-62030242D02*
X139614330Y-62077861D01*
X139423853Y-62077861D01*
X139328615Y-62030242D01*
X139280996Y-61982623D01*
X139233377Y-61887385D01*
X139233377Y-61601670D01*
X139280996Y-61506432D01*
X139328615Y-61458813D01*
X139423853Y-61411194D01*
X139614330Y-61411194D01*
X139709568Y-61458813D01*
X140185758Y-62077861D02*
X140185758Y-61077861D01*
X140185758Y-61554051D02*
X140757187Y-61554051D01*
X140757187Y-62077861D02*
X140757187Y-61077861D01*
X141376234Y-62077861D02*
X141280996Y-62030242D01*
X141233377Y-61982623D01*
X141185758Y-61887385D01*
X141185758Y-61601670D01*
X141233377Y-61506432D01*
X141280996Y-61458813D01*
X141376234Y-61411194D01*
X141519092Y-61411194D01*
X141614330Y-61458813D01*
X141661949Y-61506432D01*
X141709568Y-61601670D01*
X141709568Y-61887385D01*
X141661949Y-61982623D01*
X141614330Y-62030242D01*
X141519092Y-62077861D01*
X141376234Y-62077861D01*
X142280996Y-62077861D02*
X142185758Y-62030242D01*
X142138139Y-61935004D01*
X142138139Y-61077861D01*
X143042902Y-62030242D02*
X142947664Y-62077861D01*
X142757187Y-62077861D01*
X142661949Y-62030242D01*
X142614330Y-61935004D01*
X142614330Y-61554051D01*
X142661949Y-61458813D01*
X142757187Y-61411194D01*
X142947664Y-61411194D01*
X143042902Y-61458813D01*
X143090521Y-61554051D01*
X143090521Y-61649290D01*
X142614330Y-61744528D01*
X143280997Y-62173099D02*
X144042902Y-62173099D01*
X144185759Y-61077861D02*
X144804807Y-61077861D01*
X144471473Y-61458813D01*
X144614331Y-61458813D01*
X144709569Y-61506432D01*
X144757188Y-61554051D01*
X144804807Y-61649290D01*
X144804807Y-61887385D01*
X144757188Y-61982623D01*
X144709569Y-62030242D01*
X144614331Y-62077861D01*
X144328616Y-62077861D01*
X144233378Y-62030242D01*
X144185759Y-61982623D01*
X145233378Y-61982623D02*
X145280997Y-62030242D01*
X145233378Y-62077861D01*
X145185759Y-62030242D01*
X145233378Y-61982623D01*
X145233378Y-62077861D01*
X145661949Y-61173099D02*
X145709568Y-61125480D01*
X145804806Y-61077861D01*
X146042902Y-61077861D01*
X146138140Y-61125480D01*
X146185759Y-61173099D01*
X146233378Y-61268337D01*
X146233378Y-61363575D01*
X146185759Y-61506432D01*
X145614330Y-62077861D01*
X146233378Y-62077861D01*
X146661949Y-62077861D02*
X146661949Y-61411194D01*
X146661949Y-61506432D02*
X146709568Y-61458813D01*
X146804806Y-61411194D01*
X146947664Y-61411194D01*
X147042902Y-61458813D01*
X147090521Y-61554051D01*
X147090521Y-62077861D01*
X147090521Y-61554051D02*
X147138140Y-61458813D01*
X147233378Y-61411194D01*
X147376235Y-61411194D01*
X147471473Y-61458813D01*
X147519092Y-61554051D01*
X147519092Y-62077861D01*
X147995282Y-62077861D02*
X147995282Y-61411194D01*
X147995282Y-61506432D02*
X148042901Y-61458813D01*
X148138139Y-61411194D01*
X148280997Y-61411194D01*
X148376235Y-61458813D01*
X148423854Y-61554051D01*
X148423854Y-62077861D01*
X148423854Y-61554051D02*
X148471473Y-61458813D01*
X148566711Y-61411194D01*
X148709568Y-61411194D01*
X148804806Y-61458813D01*
X148852425Y-61554051D01*
X148852425Y-62077861D01*
X149090520Y-62173099D02*
X149852425Y-62173099D01*
X150090520Y-62077861D02*
X150090520Y-61077861D01*
X150423854Y-61792147D01*
X150757187Y-61077861D01*
X150757187Y-62077861D01*
X151138139Y-61077861D02*
X151757187Y-61077861D01*
X151423853Y-61458813D01*
X151566711Y-61458813D01*
X151661949Y-61506432D01*
X151709568Y-61554051D01*
X151757187Y-61649290D01*
X151757187Y-61887385D01*
X151709568Y-61982623D01*
X151661949Y-62030242D01*
X151566711Y-62077861D01*
X151280996Y-62077861D01*
X151185758Y-62030242D01*
X151138139Y-61982623D01*
X217418472Y-123046861D02*
X217418472Y-122046861D01*
X217751806Y-122761147D01*
X218085139Y-122046861D01*
X218085139Y-123046861D01*
X218704186Y-123046861D02*
X218608948Y-122999242D01*
X218561329Y-122951623D01*
X218513710Y-122856385D01*
X218513710Y-122570670D01*
X218561329Y-122475432D01*
X218608948Y-122427813D01*
X218704186Y-122380194D01*
X218847044Y-122380194D01*
X218942282Y-122427813D01*
X218989901Y-122475432D01*
X219037520Y-122570670D01*
X219037520Y-122856385D01*
X218989901Y-122951623D01*
X218942282Y-122999242D01*
X218847044Y-123046861D01*
X218704186Y-123046861D01*
X219894663Y-122380194D02*
X219894663Y-123046861D01*
X219466091Y-122380194D02*
X219466091Y-122904004D01*
X219513710Y-122999242D01*
X219608948Y-123046861D01*
X219751806Y-123046861D01*
X219847044Y-122999242D01*
X219894663Y-122951623D01*
X220370853Y-122380194D02*
X220370853Y-123046861D01*
X220370853Y-122475432D02*
X220418472Y-122427813D01*
X220513710Y-122380194D01*
X220656568Y-122380194D01*
X220751806Y-122427813D01*
X220799425Y-122523051D01*
X220799425Y-123046861D01*
X221132758Y-122380194D02*
X221513710Y-122380194D01*
X221275615Y-122046861D02*
X221275615Y-122904004D01*
X221323234Y-122999242D01*
X221418472Y-123046861D01*
X221513710Y-123046861D01*
X221847044Y-123046861D02*
X221847044Y-122380194D01*
X221847044Y-122046861D02*
X221799425Y-122094480D01*
X221847044Y-122142099D01*
X221894663Y-122094480D01*
X221847044Y-122046861D01*
X221847044Y-122142099D01*
X222323234Y-122380194D02*
X222323234Y-123046861D01*
X222323234Y-122475432D02*
X222370853Y-122427813D01*
X222466091Y-122380194D01*
X222608949Y-122380194D01*
X222704187Y-122427813D01*
X222751806Y-122523051D01*
X222751806Y-123046861D01*
X223656568Y-122380194D02*
X223656568Y-123189718D01*
X223608949Y-123284956D01*
X223561330Y-123332575D01*
X223466091Y-123380194D01*
X223323234Y-123380194D01*
X223227996Y-123332575D01*
X223656568Y-122999242D02*
X223561330Y-123046861D01*
X223370853Y-123046861D01*
X223275615Y-122999242D01*
X223227996Y-122951623D01*
X223180377Y-122856385D01*
X223180377Y-122570670D01*
X223227996Y-122475432D01*
X223275615Y-122427813D01*
X223370853Y-122380194D01*
X223561330Y-122380194D01*
X223656568Y-122427813D01*
X224132758Y-123046861D02*
X224132758Y-122046861D01*
X224132758Y-122523051D02*
X224704187Y-122523051D01*
X224704187Y-123046861D02*
X224704187Y-122046861D01*
X225323234Y-123046861D02*
X225227996Y-122999242D01*
X225180377Y-122951623D01*
X225132758Y-122856385D01*
X225132758Y-122570670D01*
X225180377Y-122475432D01*
X225227996Y-122427813D01*
X225323234Y-122380194D01*
X225466092Y-122380194D01*
X225561330Y-122427813D01*
X225608949Y-122475432D01*
X225656568Y-122570670D01*
X225656568Y-122856385D01*
X225608949Y-122951623D01*
X225561330Y-122999242D01*
X225466092Y-123046861D01*
X225323234Y-123046861D01*
X226227996Y-123046861D02*
X226132758Y-122999242D01*
X226085139Y-122904004D01*
X226085139Y-122046861D01*
X226989902Y-122999242D02*
X226894664Y-123046861D01*
X226704187Y-123046861D01*
X226608949Y-122999242D01*
X226561330Y-122904004D01*
X226561330Y-122523051D01*
X226608949Y-122427813D01*
X226704187Y-122380194D01*
X226894664Y-122380194D01*
X226989902Y-122427813D01*
X227037521Y-122523051D01*
X227037521Y-122618290D01*
X226561330Y-122713528D01*
X227227997Y-123142099D02*
X227989902Y-123142099D01*
X228132759Y-122046861D02*
X228751807Y-122046861D01*
X228418473Y-122427813D01*
X228561331Y-122427813D01*
X228656569Y-122475432D01*
X228704188Y-122523051D01*
X228751807Y-122618290D01*
X228751807Y-122856385D01*
X228704188Y-122951623D01*
X228656569Y-122999242D01*
X228561331Y-123046861D01*
X228275616Y-123046861D01*
X228180378Y-122999242D01*
X228132759Y-122951623D01*
X229180378Y-122951623D02*
X229227997Y-122999242D01*
X229180378Y-123046861D01*
X229132759Y-122999242D01*
X229180378Y-122951623D01*
X229180378Y-123046861D01*
X229608949Y-122142099D02*
X229656568Y-122094480D01*
X229751806Y-122046861D01*
X229989902Y-122046861D01*
X230085140Y-122094480D01*
X230132759Y-122142099D01*
X230180378Y-122237337D01*
X230180378Y-122332575D01*
X230132759Y-122475432D01*
X229561330Y-123046861D01*
X230180378Y-123046861D01*
X230608949Y-123046861D02*
X230608949Y-122380194D01*
X230608949Y-122475432D02*
X230656568Y-122427813D01*
X230751806Y-122380194D01*
X230894664Y-122380194D01*
X230989902Y-122427813D01*
X231037521Y-122523051D01*
X231037521Y-123046861D01*
X231037521Y-122523051D02*
X231085140Y-122427813D01*
X231180378Y-122380194D01*
X231323235Y-122380194D01*
X231418473Y-122427813D01*
X231466092Y-122523051D01*
X231466092Y-123046861D01*
X231942282Y-123046861D02*
X231942282Y-122380194D01*
X231942282Y-122475432D02*
X231989901Y-122427813D01*
X232085139Y-122380194D01*
X232227997Y-122380194D01*
X232323235Y-122427813D01*
X232370854Y-122523051D01*
X232370854Y-123046861D01*
X232370854Y-122523051D02*
X232418473Y-122427813D01*
X232513711Y-122380194D01*
X232656568Y-122380194D01*
X232751806Y-122427813D01*
X232799425Y-122523051D01*
X232799425Y-123046861D01*
X233037520Y-123142099D02*
X233799425Y-123142099D01*
X234037520Y-123046861D02*
X234037520Y-122046861D01*
X234370854Y-122761147D01*
X234704187Y-122046861D01*
X234704187Y-123046861D01*
X235085139Y-122046861D02*
X235704187Y-122046861D01*
X235370853Y-122427813D01*
X235513711Y-122427813D01*
X235608949Y-122475432D01*
X235656568Y-122523051D01*
X235704187Y-122618290D01*
X235704187Y-122856385D01*
X235656568Y-122951623D01*
X235608949Y-122999242D01*
X235513711Y-123046861D01*
X235227996Y-123046861D01*
X235132758Y-122999242D01*
X235085139Y-122951623D01*
X217164472Y-61188861D02*
X217164472Y-60188861D01*
X217497806Y-60903147D01*
X217831139Y-60188861D01*
X217831139Y-61188861D01*
X218450186Y-61188861D02*
X218354948Y-61141242D01*
X218307329Y-61093623D01*
X218259710Y-60998385D01*
X218259710Y-60712670D01*
X218307329Y-60617432D01*
X218354948Y-60569813D01*
X218450186Y-60522194D01*
X218593044Y-60522194D01*
X218688282Y-60569813D01*
X218735901Y-60617432D01*
X218783520Y-60712670D01*
X218783520Y-60998385D01*
X218735901Y-61093623D01*
X218688282Y-61141242D01*
X218593044Y-61188861D01*
X218450186Y-61188861D01*
X219640663Y-60522194D02*
X219640663Y-61188861D01*
X219212091Y-60522194D02*
X219212091Y-61046004D01*
X219259710Y-61141242D01*
X219354948Y-61188861D01*
X219497806Y-61188861D01*
X219593044Y-61141242D01*
X219640663Y-61093623D01*
X220116853Y-60522194D02*
X220116853Y-61188861D01*
X220116853Y-60617432D02*
X220164472Y-60569813D01*
X220259710Y-60522194D01*
X220402568Y-60522194D01*
X220497806Y-60569813D01*
X220545425Y-60665051D01*
X220545425Y-61188861D01*
X220878758Y-60522194D02*
X221259710Y-60522194D01*
X221021615Y-60188861D02*
X221021615Y-61046004D01*
X221069234Y-61141242D01*
X221164472Y-61188861D01*
X221259710Y-61188861D01*
X221593044Y-61188861D02*
X221593044Y-60522194D01*
X221593044Y-60188861D02*
X221545425Y-60236480D01*
X221593044Y-60284099D01*
X221640663Y-60236480D01*
X221593044Y-60188861D01*
X221593044Y-60284099D01*
X222069234Y-60522194D02*
X222069234Y-61188861D01*
X222069234Y-60617432D02*
X222116853Y-60569813D01*
X222212091Y-60522194D01*
X222354949Y-60522194D01*
X222450187Y-60569813D01*
X222497806Y-60665051D01*
X222497806Y-61188861D01*
X223402568Y-60522194D02*
X223402568Y-61331718D01*
X223354949Y-61426956D01*
X223307330Y-61474575D01*
X223212091Y-61522194D01*
X223069234Y-61522194D01*
X222973996Y-61474575D01*
X223402568Y-61141242D02*
X223307330Y-61188861D01*
X223116853Y-61188861D01*
X223021615Y-61141242D01*
X222973996Y-61093623D01*
X222926377Y-60998385D01*
X222926377Y-60712670D01*
X222973996Y-60617432D01*
X223021615Y-60569813D01*
X223116853Y-60522194D01*
X223307330Y-60522194D01*
X223402568Y-60569813D01*
X223878758Y-61188861D02*
X223878758Y-60188861D01*
X223878758Y-60665051D02*
X224450187Y-60665051D01*
X224450187Y-61188861D02*
X224450187Y-60188861D01*
X225069234Y-61188861D02*
X224973996Y-61141242D01*
X224926377Y-61093623D01*
X224878758Y-60998385D01*
X224878758Y-60712670D01*
X224926377Y-60617432D01*
X224973996Y-60569813D01*
X225069234Y-60522194D01*
X225212092Y-60522194D01*
X225307330Y-60569813D01*
X225354949Y-60617432D01*
X225402568Y-60712670D01*
X225402568Y-60998385D01*
X225354949Y-61093623D01*
X225307330Y-61141242D01*
X225212092Y-61188861D01*
X225069234Y-61188861D01*
X225973996Y-61188861D02*
X225878758Y-61141242D01*
X225831139Y-61046004D01*
X225831139Y-60188861D01*
X226735902Y-61141242D02*
X226640664Y-61188861D01*
X226450187Y-61188861D01*
X226354949Y-61141242D01*
X226307330Y-61046004D01*
X226307330Y-60665051D01*
X226354949Y-60569813D01*
X226450187Y-60522194D01*
X226640664Y-60522194D01*
X226735902Y-60569813D01*
X226783521Y-60665051D01*
X226783521Y-60760290D01*
X226307330Y-60855528D01*
X226973997Y-61284099D02*
X227735902Y-61284099D01*
X227878759Y-60188861D02*
X228497807Y-60188861D01*
X228164473Y-60569813D01*
X228307331Y-60569813D01*
X228402569Y-60617432D01*
X228450188Y-60665051D01*
X228497807Y-60760290D01*
X228497807Y-60998385D01*
X228450188Y-61093623D01*
X228402569Y-61141242D01*
X228307331Y-61188861D01*
X228021616Y-61188861D01*
X227926378Y-61141242D01*
X227878759Y-61093623D01*
X228926378Y-61093623D02*
X228973997Y-61141242D01*
X228926378Y-61188861D01*
X228878759Y-61141242D01*
X228926378Y-61093623D01*
X228926378Y-61188861D01*
X229354949Y-60284099D02*
X229402568Y-60236480D01*
X229497806Y-60188861D01*
X229735902Y-60188861D01*
X229831140Y-60236480D01*
X229878759Y-60284099D01*
X229926378Y-60379337D01*
X229926378Y-60474575D01*
X229878759Y-60617432D01*
X229307330Y-61188861D01*
X229926378Y-61188861D01*
X230354949Y-61188861D02*
X230354949Y-60522194D01*
X230354949Y-60617432D02*
X230402568Y-60569813D01*
X230497806Y-60522194D01*
X230640664Y-60522194D01*
X230735902Y-60569813D01*
X230783521Y-60665051D01*
X230783521Y-61188861D01*
X230783521Y-60665051D02*
X230831140Y-60569813D01*
X230926378Y-60522194D01*
X231069235Y-60522194D01*
X231164473Y-60569813D01*
X231212092Y-60665051D01*
X231212092Y-61188861D01*
X231688282Y-61188861D02*
X231688282Y-60522194D01*
X231688282Y-60617432D02*
X231735901Y-60569813D01*
X231831139Y-60522194D01*
X231973997Y-60522194D01*
X232069235Y-60569813D01*
X232116854Y-60665051D01*
X232116854Y-61188861D01*
X232116854Y-60665051D02*
X232164473Y-60569813D01*
X232259711Y-60522194D01*
X232402568Y-60522194D01*
X232497806Y-60569813D01*
X232545425Y-60665051D01*
X232545425Y-61188861D01*
X232783520Y-61284099D02*
X233545425Y-61284099D01*
X233783520Y-61188861D02*
X233783520Y-60188861D01*
X234116854Y-60903147D01*
X234450187Y-60188861D01*
X234450187Y-61188861D01*
X234831139Y-60188861D02*
X235450187Y-60188861D01*
X235116853Y-60569813D01*
X235259711Y-60569813D01*
X235354949Y-60617432D01*
X235402568Y-60665051D01*
X235450187Y-60760290D01*
X235450187Y-60998385D01*
X235402568Y-61093623D01*
X235354949Y-61141242D01*
X235259711Y-61188861D01*
X234973996Y-61188861D01*
X234878758Y-61141242D01*
X234831139Y-61093623D01*
X159751758Y-106781861D02*
X159751758Y-105781861D01*
X160132711Y-105781861D01*
X160227949Y-105829480D01*
X160275568Y-105877099D01*
X160323187Y-105972337D01*
X160323187Y-106115194D01*
X160275568Y-106210432D01*
X160227949Y-106258051D01*
X160132711Y-106305670D01*
X159751758Y-106305670D01*
X160942234Y-105781861D02*
X161132711Y-105781861D01*
X161227949Y-105829480D01*
X161323187Y-105924718D01*
X161370806Y-106115194D01*
X161370806Y-106448528D01*
X161323187Y-106639004D01*
X161227949Y-106734242D01*
X161132711Y-106781861D01*
X160942234Y-106781861D01*
X160846996Y-106734242D01*
X160751758Y-106639004D01*
X160704139Y-106448528D01*
X160704139Y-106115194D01*
X160751758Y-105924718D01*
X160846996Y-105829480D01*
X160942234Y-105781861D01*
X161656520Y-105781861D02*
X162227949Y-105781861D01*
X161942234Y-106781861D02*
X161942234Y-105781861D01*
X162323187Y-106877099D02*
X163085092Y-106877099D01*
X163275568Y-105877099D02*
X163323187Y-105829480D01*
X163418425Y-105781861D01*
X163656521Y-105781861D01*
X163751759Y-105829480D01*
X163799378Y-105877099D01*
X163846997Y-105972337D01*
X163846997Y-106067575D01*
X163799378Y-106210432D01*
X163227949Y-106781861D01*
X163846997Y-106781861D01*
X164227949Y-105877099D02*
X164275568Y-105829480D01*
X164370806Y-105781861D01*
X164608902Y-105781861D01*
X164704140Y-105829480D01*
X164751759Y-105877099D01*
X164799378Y-105972337D01*
X164799378Y-106067575D01*
X164751759Y-106210432D01*
X164180330Y-106781861D01*
X164799378Y-106781861D01*
X165227949Y-106781861D02*
X165227949Y-105781861D01*
X165323187Y-106400909D02*
X165608902Y-106781861D01*
X165608902Y-106115194D02*
X165227949Y-106496147D01*
X144439901Y-107781956D02*
X144439901Y-108258147D01*
X143439901Y-108258147D01*
X144344663Y-106877194D02*
X144392282Y-106924813D01*
X144439901Y-107067670D01*
X144439901Y-107162908D01*
X144392282Y-107305766D01*
X144297044Y-107401004D01*
X144201806Y-107448623D01*
X144011330Y-107496242D01*
X143868472Y-107496242D01*
X143677996Y-107448623D01*
X143582758Y-107401004D01*
X143487520Y-107305766D01*
X143439901Y-107162908D01*
X143439901Y-107067670D01*
X143487520Y-106924813D01*
X143535139Y-106877194D01*
X144439901Y-106448623D02*
X143439901Y-106448623D01*
X143439901Y-106210528D01*
X143487520Y-106067670D01*
X143582758Y-105972432D01*
X143677996Y-105924813D01*
X143868472Y-105877194D01*
X144011330Y-105877194D01*
X144201806Y-105924813D01*
X144297044Y-105972432D01*
X144392282Y-106067670D01*
X144439901Y-106210528D01*
X144439901Y-106448623D01*
X159370758Y-72618861D02*
X159370758Y-71618861D01*
X159751711Y-71618861D01*
X159846949Y-71666480D01*
X159894568Y-71714099D01*
X159942187Y-71809337D01*
X159942187Y-71952194D01*
X159894568Y-72047432D01*
X159846949Y-72095051D01*
X159751711Y-72142670D01*
X159370758Y-72142670D01*
X160561234Y-71618861D02*
X160751711Y-71618861D01*
X160846949Y-71666480D01*
X160942187Y-71761718D01*
X160989806Y-71952194D01*
X160989806Y-72285528D01*
X160942187Y-72476004D01*
X160846949Y-72571242D01*
X160751711Y-72618861D01*
X160561234Y-72618861D01*
X160465996Y-72571242D01*
X160370758Y-72476004D01*
X160323139Y-72285528D01*
X160323139Y-71952194D01*
X160370758Y-71761718D01*
X160465996Y-71666480D01*
X160561234Y-71618861D01*
X161275520Y-71618861D02*
X161846949Y-71618861D01*
X161561234Y-72618861D02*
X161561234Y-71618861D01*
X161942187Y-72714099D02*
X162704092Y-72714099D01*
X162894568Y-71714099D02*
X162942187Y-71666480D01*
X163037425Y-71618861D01*
X163275521Y-71618861D01*
X163370759Y-71666480D01*
X163418378Y-71714099D01*
X163465997Y-71809337D01*
X163465997Y-71904575D01*
X163418378Y-72047432D01*
X162846949Y-72618861D01*
X163465997Y-72618861D01*
X163846949Y-71714099D02*
X163894568Y-71666480D01*
X163989806Y-71618861D01*
X164227902Y-71618861D01*
X164323140Y-71666480D01*
X164370759Y-71714099D01*
X164418378Y-71809337D01*
X164418378Y-71904575D01*
X164370759Y-72047432D01*
X163799330Y-72618861D01*
X164418378Y-72618861D01*
X164846949Y-72618861D02*
X164846949Y-71618861D01*
X164942187Y-72237909D02*
X165227902Y-72618861D01*
X165227902Y-71952194D02*
X164846949Y-72333147D01*
X159021567Y-100939861D02*
X159021567Y-99939861D01*
X159402520Y-99939861D01*
X159497758Y-99987480D01*
X159545377Y-100035099D01*
X159592996Y-100130337D01*
X159592996Y-100273194D01*
X159545377Y-100368432D01*
X159497758Y-100416051D01*
X159402520Y-100463670D01*
X159021567Y-100463670D01*
X160212043Y-99939861D02*
X160402520Y-99939861D01*
X160497758Y-99987480D01*
X160592996Y-100082718D01*
X160640615Y-100273194D01*
X160640615Y-100606528D01*
X160592996Y-100797004D01*
X160497758Y-100892242D01*
X160402520Y-100939861D01*
X160212043Y-100939861D01*
X160116805Y-100892242D01*
X160021567Y-100797004D01*
X159973948Y-100606528D01*
X159973948Y-100273194D01*
X160021567Y-100082718D01*
X160116805Y-99987480D01*
X160212043Y-99939861D01*
X160926329Y-99939861D02*
X161497758Y-99939861D01*
X161212043Y-100939861D02*
X161212043Y-99939861D01*
X161592996Y-101035099D02*
X162354901Y-101035099D01*
X163116806Y-100939861D02*
X162545377Y-100939861D01*
X162831091Y-100939861D02*
X162831091Y-99939861D01*
X162735853Y-100082718D01*
X162640615Y-100177956D01*
X162545377Y-100225575D01*
X163735853Y-99939861D02*
X163831092Y-99939861D01*
X163926330Y-99987480D01*
X163973949Y-100035099D01*
X164021568Y-100130337D01*
X164069187Y-100320813D01*
X164069187Y-100558909D01*
X164021568Y-100749385D01*
X163973949Y-100844623D01*
X163926330Y-100892242D01*
X163831092Y-100939861D01*
X163735853Y-100939861D01*
X163640615Y-100892242D01*
X163592996Y-100844623D01*
X163545377Y-100749385D01*
X163497758Y-100558909D01*
X163497758Y-100320813D01*
X163545377Y-100130337D01*
X163592996Y-100035099D01*
X163640615Y-99987480D01*
X163735853Y-99939861D01*
X164688234Y-99939861D02*
X164783473Y-99939861D01*
X164878711Y-99987480D01*
X164926330Y-100035099D01*
X164973949Y-100130337D01*
X165021568Y-100320813D01*
X165021568Y-100558909D01*
X164973949Y-100749385D01*
X164926330Y-100844623D01*
X164878711Y-100892242D01*
X164783473Y-100939861D01*
X164688234Y-100939861D01*
X164592996Y-100892242D01*
X164545377Y-100844623D01*
X164497758Y-100749385D01*
X164450139Y-100558909D01*
X164450139Y-100320813D01*
X164497758Y-100130337D01*
X164545377Y-100035099D01*
X164592996Y-99987480D01*
X164688234Y-99939861D01*
X165450139Y-100939861D02*
X165450139Y-99939861D01*
X165545377Y-100558909D02*
X165831092Y-100939861D01*
X165831092Y-100273194D02*
X165450139Y-100654147D01*
X213654901Y-108869194D02*
X213654901Y-109345385D01*
X212654901Y-109345385D01*
X213559663Y-107964432D02*
X213607282Y-108012051D01*
X213654901Y-108154908D01*
X213654901Y-108250146D01*
X213607282Y-108393004D01*
X213512044Y-108488242D01*
X213416806Y-108535861D01*
X213226330Y-108583480D01*
X213083472Y-108583480D01*
X212892996Y-108535861D01*
X212797758Y-108488242D01*
X212702520Y-108393004D01*
X212654901Y-108250146D01*
X212654901Y-108154908D01*
X212702520Y-108012051D01*
X212750139Y-107964432D01*
X213654901Y-107535861D02*
X212654901Y-107535861D01*
X212654901Y-107297766D01*
X212702520Y-107154908D01*
X212797758Y-107059670D01*
X212892996Y-107012051D01*
X213083472Y-106964432D01*
X213226330Y-106964432D01*
X213416806Y-107012051D01*
X213512044Y-107059670D01*
X213607282Y-107154908D01*
X213654901Y-107297766D01*
X213654901Y-107535861D01*
X213750139Y-106773956D02*
X213750139Y-106012051D01*
X213654901Y-105773956D02*
X212654901Y-105773956D01*
X212750139Y-105345385D02*
X212702520Y-105297766D01*
X212654901Y-105202528D01*
X212654901Y-104964432D01*
X212702520Y-104869194D01*
X212750139Y-104821575D01*
X212845377Y-104773956D01*
X212940615Y-104773956D01*
X213083472Y-104821575D01*
X213654901Y-105393004D01*
X213654901Y-104773956D01*
X213559663Y-103773956D02*
X213607282Y-103821575D01*
X213654901Y-103964432D01*
X213654901Y-104059670D01*
X213607282Y-104202528D01*
X213512044Y-104297766D01*
X213416806Y-104345385D01*
X213226330Y-104393004D01*
X213083472Y-104393004D01*
X212892996Y-104345385D01*
X212797758Y-104297766D01*
X212702520Y-104202528D01*
X212654901Y-104059670D01*
X212654901Y-103964432D01*
X212702520Y-103821575D01*
X212750139Y-103773956D01*
X205812663Y-95756575D02*
X205860282Y-95804194D01*
X205907901Y-95947051D01*
X205907901Y-96042289D01*
X205860282Y-96185147D01*
X205765044Y-96280385D01*
X205669806Y-96328004D01*
X205479330Y-96375623D01*
X205336472Y-96375623D01*
X205145996Y-96328004D01*
X205050758Y-96280385D01*
X204955520Y-96185147D01*
X204907901Y-96042289D01*
X204907901Y-95947051D01*
X204955520Y-95804194D01*
X205003139Y-95756575D01*
X205907901Y-95185147D02*
X205860282Y-95280385D01*
X205765044Y-95328004D01*
X204907901Y-95328004D01*
X205907901Y-94661337D02*
X205860282Y-94756575D01*
X205812663Y-94804194D01*
X205717425Y-94851813D01*
X205431710Y-94851813D01*
X205336472Y-94804194D01*
X205288853Y-94756575D01*
X205241234Y-94661337D01*
X205241234Y-94518479D01*
X205288853Y-94423241D01*
X205336472Y-94375622D01*
X205431710Y-94328003D01*
X205717425Y-94328003D01*
X205812663Y-94375622D01*
X205860282Y-94423241D01*
X205907901Y-94518479D01*
X205907901Y-94661337D01*
X205860282Y-93470860D02*
X205907901Y-93566098D01*
X205907901Y-93756575D01*
X205860282Y-93851813D01*
X205812663Y-93899432D01*
X205717425Y-93947051D01*
X205431710Y-93947051D01*
X205336472Y-93899432D01*
X205288853Y-93851813D01*
X205241234Y-93756575D01*
X205241234Y-93566098D01*
X205288853Y-93470860D01*
X205907901Y-93042289D02*
X204907901Y-93042289D01*
X205526949Y-92947051D02*
X205907901Y-92661336D01*
X205241234Y-92661336D02*
X205622187Y-93042289D01*
X174618520Y-66538861D02*
X175189949Y-66538861D01*
X174904234Y-67538861D02*
X174904234Y-66538861D01*
X175523282Y-67538861D02*
X175523282Y-66872194D01*
X175523282Y-67062670D02*
X175570901Y-66967432D01*
X175618520Y-66919813D01*
X175713758Y-66872194D01*
X175808997Y-66872194D01*
X176142330Y-67538861D02*
X176142330Y-66872194D01*
X176142330Y-66538861D02*
X176094711Y-66586480D01*
X176142330Y-66634099D01*
X176189949Y-66586480D01*
X176142330Y-66538861D01*
X176142330Y-66634099D01*
X176618520Y-67538861D02*
X176618520Y-66872194D01*
X176618520Y-66967432D02*
X176666139Y-66919813D01*
X176761377Y-66872194D01*
X176904235Y-66872194D01*
X176999473Y-66919813D01*
X177047092Y-67015051D01*
X177047092Y-67538861D01*
X177047092Y-67015051D02*
X177094711Y-66919813D01*
X177189949Y-66872194D01*
X177332806Y-66872194D01*
X177428044Y-66919813D01*
X177475663Y-67015051D01*
X177475663Y-67538861D01*
X174904234Y-65379861D02*
X174904234Y-64379861D01*
X175285187Y-64379861D01*
X175380425Y-64427480D01*
X175428044Y-64475099D01*
X175475663Y-64570337D01*
X175475663Y-64713194D01*
X175428044Y-64808432D01*
X175380425Y-64856051D01*
X175285187Y-64903670D01*
X174904234Y-64903670D01*
X176428044Y-65379861D02*
X175856615Y-65379861D01*
X176142329Y-65379861D02*
X176142329Y-64379861D01*
X176047091Y-64522718D01*
X175951853Y-64617956D01*
X175856615Y-64665575D01*
X177380425Y-65379861D02*
X176808996Y-65379861D01*
X177094710Y-65379861D02*
X177094710Y-64379861D01*
X176999472Y-64522718D01*
X176904234Y-64617956D01*
X176808996Y-64665575D01*
X187493234Y-67364242D02*
X187636091Y-67411861D01*
X187874187Y-67411861D01*
X187969425Y-67364242D01*
X188017044Y-67316623D01*
X188064663Y-67221385D01*
X188064663Y-67126147D01*
X188017044Y-67030909D01*
X187969425Y-66983290D01*
X187874187Y-66935670D01*
X187683710Y-66888051D01*
X187588472Y-66840432D01*
X187540853Y-66792813D01*
X187493234Y-66697575D01*
X187493234Y-66602337D01*
X187540853Y-66507099D01*
X187588472Y-66459480D01*
X187683710Y-66411861D01*
X187921806Y-66411861D01*
X188064663Y-66459480D01*
X188397996Y-66745194D02*
X188588472Y-67411861D01*
X188778949Y-66935670D01*
X188969425Y-67411861D01*
X189159901Y-66745194D01*
X189540853Y-67411861D02*
X189540853Y-66745194D01*
X189540853Y-66411861D02*
X189493234Y-66459480D01*
X189540853Y-66507099D01*
X189588472Y-66459480D01*
X189540853Y-66411861D01*
X189540853Y-66507099D01*
X189874186Y-66745194D02*
X190255138Y-66745194D01*
X190017043Y-66411861D02*
X190017043Y-67269004D01*
X190064662Y-67364242D01*
X190159900Y-67411861D01*
X190255138Y-67411861D01*
X191017044Y-67364242D02*
X190921806Y-67411861D01*
X190731329Y-67411861D01*
X190636091Y-67364242D01*
X190588472Y-67316623D01*
X190540853Y-67221385D01*
X190540853Y-66935670D01*
X190588472Y-66840432D01*
X190636091Y-66792813D01*
X190731329Y-66745194D01*
X190921806Y-66745194D01*
X191017044Y-66792813D01*
X191445615Y-67411861D02*
X191445615Y-66411861D01*
X191874187Y-67411861D02*
X191874187Y-66888051D01*
X191826568Y-66792813D01*
X191731330Y-66745194D01*
X191588472Y-66745194D01*
X191493234Y-66792813D01*
X191445615Y-66840432D01*
X188366234Y-65379861D02*
X188366234Y-64379861D01*
X188747187Y-64379861D01*
X188842425Y-64427480D01*
X188890044Y-64475099D01*
X188937663Y-64570337D01*
X188937663Y-64713194D01*
X188890044Y-64808432D01*
X188842425Y-64856051D01*
X188747187Y-64903670D01*
X188366234Y-64903670D01*
X189890044Y-65379861D02*
X189318615Y-65379861D01*
X189604329Y-65379861D02*
X189604329Y-64379861D01*
X189509091Y-64522718D01*
X189413853Y-64617956D01*
X189318615Y-64665575D01*
X190747187Y-64713194D02*
X190747187Y-65379861D01*
X190509091Y-64332242D02*
X190270996Y-65046528D01*
X190890044Y-65046528D01*
X159148567Y-112496861D02*
X159148567Y-111496861D01*
X159529520Y-111496861D01*
X159624758Y-111544480D01*
X159672377Y-111592099D01*
X159719996Y-111687337D01*
X159719996Y-111830194D01*
X159672377Y-111925432D01*
X159624758Y-111973051D01*
X159529520Y-112020670D01*
X159148567Y-112020670D01*
X160339043Y-111496861D02*
X160529520Y-111496861D01*
X160624758Y-111544480D01*
X160719996Y-111639718D01*
X160767615Y-111830194D01*
X160767615Y-112163528D01*
X160719996Y-112354004D01*
X160624758Y-112449242D01*
X160529520Y-112496861D01*
X160339043Y-112496861D01*
X160243805Y-112449242D01*
X160148567Y-112354004D01*
X160100948Y-112163528D01*
X160100948Y-111830194D01*
X160148567Y-111639718D01*
X160243805Y-111544480D01*
X160339043Y-111496861D01*
X161053329Y-111496861D02*
X161624758Y-111496861D01*
X161339043Y-112496861D02*
X161339043Y-111496861D01*
X161719996Y-112592099D02*
X162481901Y-112592099D01*
X163243806Y-112496861D02*
X162672377Y-112496861D01*
X162958091Y-112496861D02*
X162958091Y-111496861D01*
X162862853Y-111639718D01*
X162767615Y-111734956D01*
X162672377Y-111782575D01*
X163862853Y-111496861D02*
X163958092Y-111496861D01*
X164053330Y-111544480D01*
X164100949Y-111592099D01*
X164148568Y-111687337D01*
X164196187Y-111877813D01*
X164196187Y-112115909D01*
X164148568Y-112306385D01*
X164100949Y-112401623D01*
X164053330Y-112449242D01*
X163958092Y-112496861D01*
X163862853Y-112496861D01*
X163767615Y-112449242D01*
X163719996Y-112401623D01*
X163672377Y-112306385D01*
X163624758Y-112115909D01*
X163624758Y-111877813D01*
X163672377Y-111687337D01*
X163719996Y-111592099D01*
X163767615Y-111544480D01*
X163862853Y-111496861D01*
X164815234Y-111496861D02*
X164910473Y-111496861D01*
X165005711Y-111544480D01*
X165053330Y-111592099D01*
X165100949Y-111687337D01*
X165148568Y-111877813D01*
X165148568Y-112115909D01*
X165100949Y-112306385D01*
X165053330Y-112401623D01*
X165005711Y-112449242D01*
X164910473Y-112496861D01*
X164815234Y-112496861D01*
X164719996Y-112449242D01*
X164672377Y-112401623D01*
X164624758Y-112306385D01*
X164577139Y-112115909D01*
X164577139Y-111877813D01*
X164624758Y-111687337D01*
X164672377Y-111592099D01*
X164719996Y-111544480D01*
X164815234Y-111496861D01*
X165577139Y-112496861D02*
X165577139Y-111496861D01*
X165672377Y-112115909D02*
X165958092Y-112496861D01*
X165958092Y-111830194D02*
X165577139Y-112211147D01*
X215559901Y-116640099D02*
X215559901Y-117211528D01*
X215559901Y-116925814D02*
X214559901Y-116925814D01*
X214702758Y-117021052D01*
X214797996Y-117116290D01*
X214845615Y-117211528D01*
X214559901Y-116021052D02*
X214559901Y-115925813D01*
X214607520Y-115830575D01*
X214655139Y-115782956D01*
X214750377Y-115735337D01*
X214940853Y-115687718D01*
X215178949Y-115687718D01*
X215369425Y-115735337D01*
X215464663Y-115782956D01*
X215512282Y-115830575D01*
X215559901Y-115925813D01*
X215559901Y-116021052D01*
X215512282Y-116116290D01*
X215464663Y-116163909D01*
X215369425Y-116211528D01*
X215178949Y-116259147D01*
X214940853Y-116259147D01*
X214750377Y-116211528D01*
X214655139Y-116163909D01*
X214607520Y-116116290D01*
X214559901Y-116021052D01*
X214559901Y-115068671D02*
X214559901Y-114973432D01*
X214607520Y-114878194D01*
X214655139Y-114830575D01*
X214750377Y-114782956D01*
X214940853Y-114735337D01*
X215178949Y-114735337D01*
X215369425Y-114782956D01*
X215464663Y-114830575D01*
X215512282Y-114878194D01*
X215559901Y-114973432D01*
X215559901Y-115068671D01*
X215512282Y-115163909D01*
X215464663Y-115211528D01*
X215369425Y-115259147D01*
X215178949Y-115306766D01*
X214940853Y-115306766D01*
X214750377Y-115259147D01*
X214655139Y-115211528D01*
X214607520Y-115163909D01*
X214559901Y-115068671D01*
X214893234Y-114306766D02*
X215559901Y-114306766D01*
X214988472Y-114306766D02*
X214940853Y-114259147D01*
X214893234Y-114163909D01*
X214893234Y-114021051D01*
X214940853Y-113925813D01*
X215036091Y-113878194D01*
X215559901Y-113878194D01*
X215036091Y-113068670D02*
X215036091Y-113402004D01*
X215559901Y-113402004D02*
X214559901Y-113402004D01*
X214559901Y-112925813D01*
X221179901Y-108051861D02*
X220608472Y-108051861D01*
X220894186Y-108051861D02*
X220894186Y-107051861D01*
X220798948Y-107194718D01*
X220703710Y-107289956D01*
X220608472Y-107337575D01*
X221798948Y-107051861D02*
X221894187Y-107051861D01*
X221989425Y-107099480D01*
X222037044Y-107147099D01*
X222084663Y-107242337D01*
X222132282Y-107432813D01*
X222132282Y-107670909D01*
X222084663Y-107861385D01*
X222037044Y-107956623D01*
X221989425Y-108004242D01*
X221894187Y-108051861D01*
X221798948Y-108051861D01*
X221703710Y-108004242D01*
X221656091Y-107956623D01*
X221608472Y-107861385D01*
X221560853Y-107670909D01*
X221560853Y-107432813D01*
X221608472Y-107242337D01*
X221656091Y-107147099D01*
X221703710Y-107099480D01*
X221798948Y-107051861D01*
X222751329Y-107051861D02*
X222846568Y-107051861D01*
X222941806Y-107099480D01*
X222989425Y-107147099D01*
X223037044Y-107242337D01*
X223084663Y-107432813D01*
X223084663Y-107670909D01*
X223037044Y-107861385D01*
X222989425Y-107956623D01*
X222941806Y-108004242D01*
X222846568Y-108051861D01*
X222751329Y-108051861D01*
X222656091Y-108004242D01*
X222608472Y-107956623D01*
X222560853Y-107861385D01*
X222513234Y-107670909D01*
X222513234Y-107432813D01*
X222560853Y-107242337D01*
X222608472Y-107147099D01*
X222656091Y-107099480D01*
X222751329Y-107051861D01*
X223513234Y-107385194D02*
X223513234Y-108051861D01*
X223513234Y-107480432D02*
X223560853Y-107432813D01*
X223656091Y-107385194D01*
X223798949Y-107385194D01*
X223894187Y-107432813D01*
X223941806Y-107528051D01*
X223941806Y-108051861D01*
X224751330Y-107528051D02*
X224417996Y-107528051D01*
X224417996Y-108051861D02*
X224417996Y-107051861D01*
X224894187Y-107051861D01*
X221179901Y-110591861D02*
X220608472Y-110591861D01*
X220894186Y-110591861D02*
X220894186Y-109591861D01*
X220798948Y-109734718D01*
X220703710Y-109829956D01*
X220608472Y-109877575D01*
X221798948Y-109591861D02*
X221894187Y-109591861D01*
X221989425Y-109639480D01*
X222037044Y-109687099D01*
X222084663Y-109782337D01*
X222132282Y-109972813D01*
X222132282Y-110210909D01*
X222084663Y-110401385D01*
X222037044Y-110496623D01*
X221989425Y-110544242D01*
X221894187Y-110591861D01*
X221798948Y-110591861D01*
X221703710Y-110544242D01*
X221656091Y-110496623D01*
X221608472Y-110401385D01*
X221560853Y-110210909D01*
X221560853Y-109972813D01*
X221608472Y-109782337D01*
X221656091Y-109687099D01*
X221703710Y-109639480D01*
X221798948Y-109591861D01*
X222751329Y-109591861D02*
X222846568Y-109591861D01*
X222941806Y-109639480D01*
X222989425Y-109687099D01*
X223037044Y-109782337D01*
X223084663Y-109972813D01*
X223084663Y-110210909D01*
X223037044Y-110401385D01*
X222989425Y-110496623D01*
X222941806Y-110544242D01*
X222846568Y-110591861D01*
X222751329Y-110591861D01*
X222656091Y-110544242D01*
X222608472Y-110496623D01*
X222560853Y-110401385D01*
X222513234Y-110210909D01*
X222513234Y-109972813D01*
X222560853Y-109782337D01*
X222608472Y-109687099D01*
X222656091Y-109639480D01*
X222751329Y-109591861D01*
X223513234Y-109925194D02*
X223513234Y-110591861D01*
X223513234Y-110020432D02*
X223560853Y-109972813D01*
X223656091Y-109925194D01*
X223798949Y-109925194D01*
X223894187Y-109972813D01*
X223941806Y-110068051D01*
X223941806Y-110591861D01*
X224751330Y-110068051D02*
X224417996Y-110068051D01*
X224417996Y-110591861D02*
X224417996Y-109591861D01*
X224894187Y-109591861D01*
X221179901Y-113131861D02*
X220608472Y-113131861D01*
X220894186Y-113131861D02*
X220894186Y-112131861D01*
X220798948Y-112274718D01*
X220703710Y-112369956D01*
X220608472Y-112417575D01*
X221798948Y-112131861D02*
X221894187Y-112131861D01*
X221989425Y-112179480D01*
X222037044Y-112227099D01*
X222084663Y-112322337D01*
X222132282Y-112512813D01*
X222132282Y-112750909D01*
X222084663Y-112941385D01*
X222037044Y-113036623D01*
X221989425Y-113084242D01*
X221894187Y-113131861D01*
X221798948Y-113131861D01*
X221703710Y-113084242D01*
X221656091Y-113036623D01*
X221608472Y-112941385D01*
X221560853Y-112750909D01*
X221560853Y-112512813D01*
X221608472Y-112322337D01*
X221656091Y-112227099D01*
X221703710Y-112179480D01*
X221798948Y-112131861D01*
X222751329Y-112131861D02*
X222846568Y-112131861D01*
X222941806Y-112179480D01*
X222989425Y-112227099D01*
X223037044Y-112322337D01*
X223084663Y-112512813D01*
X223084663Y-112750909D01*
X223037044Y-112941385D01*
X222989425Y-113036623D01*
X222941806Y-113084242D01*
X222846568Y-113131861D01*
X222751329Y-113131861D01*
X222656091Y-113084242D01*
X222608472Y-113036623D01*
X222560853Y-112941385D01*
X222513234Y-112750909D01*
X222513234Y-112512813D01*
X222560853Y-112322337D01*
X222608472Y-112227099D01*
X222656091Y-112179480D01*
X222751329Y-112131861D01*
X223513234Y-112465194D02*
X223513234Y-113131861D01*
X223513234Y-112560432D02*
X223560853Y-112512813D01*
X223656091Y-112465194D01*
X223798949Y-112465194D01*
X223894187Y-112512813D01*
X223941806Y-112608051D01*
X223941806Y-113131861D01*
X224751330Y-112608051D02*
X224417996Y-112608051D01*
X224417996Y-113131861D02*
X224417996Y-112131861D01*
X224894187Y-112131861D01*
X213019901Y-116640099D02*
X213019901Y-117211528D01*
X213019901Y-116925814D02*
X212019901Y-116925814D01*
X212162758Y-117021052D01*
X212257996Y-117116290D01*
X212305615Y-117211528D01*
X212019901Y-116021052D02*
X212019901Y-115925813D01*
X212067520Y-115830575D01*
X212115139Y-115782956D01*
X212210377Y-115735337D01*
X212400853Y-115687718D01*
X212638949Y-115687718D01*
X212829425Y-115735337D01*
X212924663Y-115782956D01*
X212972282Y-115830575D01*
X213019901Y-115925813D01*
X213019901Y-116021052D01*
X212972282Y-116116290D01*
X212924663Y-116163909D01*
X212829425Y-116211528D01*
X212638949Y-116259147D01*
X212400853Y-116259147D01*
X212210377Y-116211528D01*
X212115139Y-116163909D01*
X212067520Y-116116290D01*
X212019901Y-116021052D01*
X212019901Y-115068671D02*
X212019901Y-114973432D01*
X212067520Y-114878194D01*
X212115139Y-114830575D01*
X212210377Y-114782956D01*
X212400853Y-114735337D01*
X212638949Y-114735337D01*
X212829425Y-114782956D01*
X212924663Y-114830575D01*
X212972282Y-114878194D01*
X213019901Y-114973432D01*
X213019901Y-115068671D01*
X212972282Y-115163909D01*
X212924663Y-115211528D01*
X212829425Y-115259147D01*
X212638949Y-115306766D01*
X212400853Y-115306766D01*
X212210377Y-115259147D01*
X212115139Y-115211528D01*
X212067520Y-115163909D01*
X212019901Y-115068671D01*
X212353234Y-114306766D02*
X213019901Y-114306766D01*
X212448472Y-114306766D02*
X212400853Y-114259147D01*
X212353234Y-114163909D01*
X212353234Y-114021051D01*
X212400853Y-113925813D01*
X212496091Y-113878194D01*
X213019901Y-113878194D01*
X212496091Y-113068670D02*
X212496091Y-113402004D01*
X213019901Y-113402004D02*
X212019901Y-113402004D01*
X212019901Y-112925813D01*
X210479901Y-116767099D02*
X210479901Y-117338528D01*
X210479901Y-117052814D02*
X209479901Y-117052814D01*
X209622758Y-117148052D01*
X209717996Y-117243290D01*
X209765615Y-117338528D01*
X209479901Y-116148052D02*
X209479901Y-116052813D01*
X209527520Y-115957575D01*
X209575139Y-115909956D01*
X209670377Y-115862337D01*
X209860853Y-115814718D01*
X210098949Y-115814718D01*
X210289425Y-115862337D01*
X210384663Y-115909956D01*
X210432282Y-115957575D01*
X210479901Y-116052813D01*
X210479901Y-116148052D01*
X210432282Y-116243290D01*
X210384663Y-116290909D01*
X210289425Y-116338528D01*
X210098949Y-116386147D01*
X209860853Y-116386147D01*
X209670377Y-116338528D01*
X209575139Y-116290909D01*
X209527520Y-116243290D01*
X209479901Y-116148052D01*
X209479901Y-115195671D02*
X209479901Y-115100432D01*
X209527520Y-115005194D01*
X209575139Y-114957575D01*
X209670377Y-114909956D01*
X209860853Y-114862337D01*
X210098949Y-114862337D01*
X210289425Y-114909956D01*
X210384663Y-114957575D01*
X210432282Y-115005194D01*
X210479901Y-115100432D01*
X210479901Y-115195671D01*
X210432282Y-115290909D01*
X210384663Y-115338528D01*
X210289425Y-115386147D01*
X210098949Y-115433766D01*
X209860853Y-115433766D01*
X209670377Y-115386147D01*
X209575139Y-115338528D01*
X209527520Y-115290909D01*
X209479901Y-115195671D01*
X209813234Y-114433766D02*
X210479901Y-114433766D01*
X209908472Y-114433766D02*
X209860853Y-114386147D01*
X209813234Y-114290909D01*
X209813234Y-114148051D01*
X209860853Y-114052813D01*
X209956091Y-114005194D01*
X210479901Y-114005194D01*
X209956091Y-113195670D02*
X209956091Y-113529004D01*
X210479901Y-113529004D02*
X209479901Y-113529004D01*
X209479901Y-113052813D01*
X189810854Y-84017194D02*
X189810854Y-84683861D01*
X189572758Y-83636242D02*
X189334663Y-84350528D01*
X189953711Y-84350528D01*
X190239425Y-83683861D02*
X190906092Y-83683861D01*
X190477520Y-84683861D01*
X191287044Y-84017194D02*
X191287044Y-84683861D01*
X191287044Y-84112432D02*
X191334663Y-84064813D01*
X191429901Y-84017194D01*
X191572759Y-84017194D01*
X191667997Y-84064813D01*
X191715616Y-84160051D01*
X191715616Y-84683861D01*
X192525140Y-84160051D02*
X192191806Y-84160051D01*
X192191806Y-84683861D02*
X192191806Y-83683861D01*
X192667997Y-83683861D01*
X218449234Y-104956146D02*
X219115901Y-104956146D01*
X218068282Y-105194242D02*
X218782568Y-105432337D01*
X218782568Y-104813289D01*
X218115901Y-104527575D02*
X218115901Y-103860908D01*
X219115901Y-104289480D01*
X218449234Y-103479956D02*
X219115901Y-103479956D01*
X218544472Y-103479956D02*
X218496853Y-103432337D01*
X218449234Y-103337099D01*
X218449234Y-103194241D01*
X218496853Y-103099003D01*
X218592091Y-103051384D01*
X219115901Y-103051384D01*
X218592091Y-102241860D02*
X218592091Y-102575194D01*
X219115901Y-102575194D02*
X218115901Y-102575194D01*
X218115901Y-102099003D01*
X216321901Y-94327575D02*
X215321901Y-94327575D01*
X216036187Y-93994241D01*
X215321901Y-93660908D01*
X216321901Y-93660908D01*
X215798091Y-92851384D02*
X215845710Y-92708527D01*
X215893330Y-92660908D01*
X215988568Y-92613289D01*
X216131425Y-92613289D01*
X216226663Y-92660908D01*
X216274282Y-92708527D01*
X216321901Y-92803765D01*
X216321901Y-93184718D01*
X215321901Y-93184718D01*
X215321901Y-92851384D01*
X215369520Y-92756146D01*
X215417139Y-92708527D01*
X215512377Y-92660908D01*
X215607615Y-92660908D01*
X215702853Y-92708527D01*
X215750472Y-92756146D01*
X215798091Y-92851384D01*
X215798091Y-93184718D01*
X216321901Y-91613289D02*
X215845710Y-91946623D01*
X216321901Y-92184718D02*
X215321901Y-92184718D01*
X215321901Y-91803765D01*
X215369520Y-91708527D01*
X215417139Y-91660908D01*
X215512377Y-91613289D01*
X215655234Y-91613289D01*
X215750472Y-91660908D01*
X215798091Y-91708527D01*
X215845710Y-91803765D01*
X215845710Y-92184718D01*
X215321901Y-90994242D02*
X215321901Y-90899003D01*
X215369520Y-90803765D01*
X215417139Y-90756146D01*
X215512377Y-90708527D01*
X215702853Y-90660908D01*
X215940949Y-90660908D01*
X216131425Y-90708527D01*
X216226663Y-90756146D01*
X216274282Y-90803765D01*
X216321901Y-90899003D01*
X216321901Y-90994242D01*
X216274282Y-91089480D01*
X216226663Y-91137099D01*
X216131425Y-91184718D01*
X215940949Y-91232337D01*
X215702853Y-91232337D01*
X215512377Y-91184718D01*
X215417139Y-91137099D01*
X215369520Y-91089480D01*
X215321901Y-90994242D01*
X215321901Y-89756146D02*
X215321901Y-90232337D01*
X215798091Y-90279956D01*
X215750472Y-90232337D01*
X215702853Y-90137099D01*
X215702853Y-89899003D01*
X215750472Y-89803765D01*
X215798091Y-89756146D01*
X215893330Y-89708527D01*
X216131425Y-89708527D01*
X216226663Y-89756146D01*
X216274282Y-89803765D01*
X216321901Y-89899003D01*
X216321901Y-90137099D01*
X216274282Y-90232337D01*
X216226663Y-90279956D01*
X215417139Y-89327575D02*
X215369520Y-89279956D01*
X215321901Y-89184718D01*
X215321901Y-88946622D01*
X215369520Y-88851384D01*
X215417139Y-88803765D01*
X215512377Y-88756146D01*
X215607615Y-88756146D01*
X215750472Y-88803765D01*
X216321901Y-89375194D01*
X216321901Y-88756146D01*
X215321901Y-88137099D02*
X215321901Y-88041860D01*
X215369520Y-87946622D01*
X215417139Y-87899003D01*
X215512377Y-87851384D01*
X215702853Y-87803765D01*
X215940949Y-87803765D01*
X216131425Y-87851384D01*
X216226663Y-87899003D01*
X216274282Y-87946622D01*
X216321901Y-88041860D01*
X216321901Y-88137099D01*
X216274282Y-88232337D01*
X216226663Y-88279956D01*
X216131425Y-88327575D01*
X215940949Y-88375194D01*
X215702853Y-88375194D01*
X215512377Y-88327575D01*
X215417139Y-88279956D01*
X215369520Y-88232337D01*
X215321901Y-88137099D01*
X199240615Y-63967099D02*
X199288234Y-63919480D01*
X199383472Y-63871861D01*
X199621568Y-63871861D01*
X199716806Y-63919480D01*
X199764425Y-63967099D01*
X199812044Y-64062337D01*
X199812044Y-64157575D01*
X199764425Y-64300432D01*
X199192996Y-64871861D01*
X199812044Y-64871861D01*
X200192996Y-63967099D02*
X200240615Y-63919480D01*
X200335853Y-63871861D01*
X200573949Y-63871861D01*
X200669187Y-63919480D01*
X200716806Y-63967099D01*
X200764425Y-64062337D01*
X200764425Y-64157575D01*
X200716806Y-64300432D01*
X200145377Y-64871861D01*
X200764425Y-64871861D01*
X201192996Y-64871861D02*
X201192996Y-63871861D01*
X201764425Y-64871861D02*
X201335853Y-64300432D01*
X201764425Y-63871861D02*
X201192996Y-64443290D01*
X200161235Y-67411861D02*
X199589806Y-67411861D01*
X199875520Y-67411861D02*
X199875520Y-66411861D01*
X199780282Y-66554718D01*
X199685044Y-66649956D01*
X199589806Y-66697575D01*
X200589806Y-67411861D02*
X200589806Y-66411861D01*
X201161235Y-67411861D02*
X200732663Y-66840432D01*
X201161235Y-66411861D02*
X200589806Y-66983290D01*
X207939901Y-127212956D02*
X207939901Y-127784385D01*
X207939901Y-127498671D02*
X206939901Y-127498671D01*
X207082758Y-127593909D01*
X207177996Y-127689147D01*
X207225615Y-127784385D01*
X206939901Y-126593909D02*
X206939901Y-126498670D01*
X206987520Y-126403432D01*
X207035139Y-126355813D01*
X207130377Y-126308194D01*
X207320853Y-126260575D01*
X207558949Y-126260575D01*
X207749425Y-126308194D01*
X207844663Y-126355813D01*
X207892282Y-126403432D01*
X207939901Y-126498670D01*
X207939901Y-126593909D01*
X207892282Y-126689147D01*
X207844663Y-126736766D01*
X207749425Y-126784385D01*
X207558949Y-126832004D01*
X207320853Y-126832004D01*
X207130377Y-126784385D01*
X207035139Y-126736766D01*
X206987520Y-126689147D01*
X206939901Y-126593909D01*
X207939901Y-125832004D02*
X206939901Y-125832004D01*
X207939901Y-125260575D02*
X207368472Y-125689147D01*
X206939901Y-125260575D02*
X207511330Y-125832004D01*
X213654901Y-127085956D02*
X213654901Y-127657385D01*
X213654901Y-127371671D02*
X212654901Y-127371671D01*
X212797758Y-127466909D01*
X212892996Y-127562147D01*
X212940615Y-127657385D01*
X212654901Y-126466909D02*
X212654901Y-126371670D01*
X212702520Y-126276432D01*
X212750139Y-126228813D01*
X212845377Y-126181194D01*
X213035853Y-126133575D01*
X213273949Y-126133575D01*
X213464425Y-126181194D01*
X213559663Y-126228813D01*
X213607282Y-126276432D01*
X213654901Y-126371670D01*
X213654901Y-126466909D01*
X213607282Y-126562147D01*
X213559663Y-126609766D01*
X213464425Y-126657385D01*
X213273949Y-126705004D01*
X213035853Y-126705004D01*
X212845377Y-126657385D01*
X212750139Y-126609766D01*
X212702520Y-126562147D01*
X212654901Y-126466909D01*
X213654901Y-125705004D02*
X212654901Y-125705004D01*
X213654901Y-125133575D02*
X213083472Y-125562147D01*
X212654901Y-125133575D02*
X213226330Y-125705004D01*
X175682044Y-101828861D02*
X175110615Y-101828861D01*
X175396329Y-101828861D02*
X175396329Y-100828861D01*
X175301091Y-100971718D01*
X175205853Y-101066956D01*
X175110615Y-101114575D01*
X176253472Y-101257432D02*
X176158234Y-101209813D01*
X176110615Y-101162194D01*
X176062996Y-101066956D01*
X176062996Y-101019337D01*
X176110615Y-100924099D01*
X176158234Y-100876480D01*
X176253472Y-100828861D01*
X176443949Y-100828861D01*
X176539187Y-100876480D01*
X176586806Y-100924099D01*
X176634425Y-101019337D01*
X176634425Y-101066956D01*
X176586806Y-101162194D01*
X176539187Y-101209813D01*
X176443949Y-101257432D01*
X176253472Y-101257432D01*
X176158234Y-101305051D01*
X176110615Y-101352670D01*
X176062996Y-101447909D01*
X176062996Y-101638385D01*
X176110615Y-101733623D01*
X176158234Y-101781242D01*
X176253472Y-101828861D01*
X176443949Y-101828861D01*
X176539187Y-101781242D01*
X176586806Y-101733623D01*
X176634425Y-101638385D01*
X176634425Y-101447909D01*
X176586806Y-101352670D01*
X176539187Y-101305051D01*
X176443949Y-101257432D01*
X177062996Y-101828861D02*
X177062996Y-100828861D01*
X177634425Y-101828861D02*
X177205853Y-101257432D01*
X177634425Y-100828861D02*
X177062996Y-101400290D01*
X176158235Y-91541861D02*
X175586806Y-91541861D01*
X175872520Y-91541861D02*
X175872520Y-90541861D01*
X175777282Y-90684718D01*
X175682044Y-90779956D01*
X175586806Y-90827575D01*
X176586806Y-91541861D02*
X176586806Y-90541861D01*
X177158235Y-91541861D02*
X176729663Y-90970432D01*
X177158235Y-90541861D02*
X176586806Y-91113290D01*
X142804901Y-90621004D02*
X142804901Y-90001956D01*
X143185853Y-90335290D01*
X143185853Y-90192432D01*
X143233472Y-90097194D01*
X143281091Y-90049575D01*
X143376330Y-90001956D01*
X143614425Y-90001956D01*
X143709663Y-90049575D01*
X143757282Y-90097194D01*
X143804901Y-90192432D01*
X143804901Y-90478147D01*
X143757282Y-90573385D01*
X143709663Y-90621004D01*
X142804901Y-89668623D02*
X142804901Y-89049575D01*
X143185853Y-89382909D01*
X143185853Y-89240051D01*
X143233472Y-89144813D01*
X143281091Y-89097194D01*
X143376330Y-89049575D01*
X143614425Y-89049575D01*
X143709663Y-89097194D01*
X143757282Y-89144813D01*
X143804901Y-89240051D01*
X143804901Y-89525766D01*
X143757282Y-89621004D01*
X143709663Y-89668623D01*
X143804901Y-88621004D02*
X142804901Y-88621004D01*
X143804901Y-88049575D02*
X143233472Y-88478147D01*
X142804901Y-88049575D02*
X143376330Y-88621004D01*
X142931901Y-85287004D02*
X142931901Y-84667956D01*
X143312853Y-85001290D01*
X143312853Y-84858432D01*
X143360472Y-84763194D01*
X143408091Y-84715575D01*
X143503330Y-84667956D01*
X143741425Y-84667956D01*
X143836663Y-84715575D01*
X143884282Y-84763194D01*
X143931901Y-84858432D01*
X143931901Y-85144147D01*
X143884282Y-85239385D01*
X143836663Y-85287004D01*
X142931901Y-84334623D02*
X142931901Y-83715575D01*
X143312853Y-84048909D01*
X143312853Y-83906051D01*
X143360472Y-83810813D01*
X143408091Y-83763194D01*
X143503330Y-83715575D01*
X143741425Y-83715575D01*
X143836663Y-83763194D01*
X143884282Y-83810813D01*
X143931901Y-83906051D01*
X143931901Y-84191766D01*
X143884282Y-84287004D01*
X143836663Y-84334623D01*
X143931901Y-83287004D02*
X142931901Y-83287004D01*
X143931901Y-82715575D02*
X143360472Y-83144147D01*
X142931901Y-82715575D02*
X143503330Y-83287004D01*
X159275567Y-78079861D02*
X159275567Y-77079861D01*
X159656520Y-77079861D01*
X159751758Y-77127480D01*
X159799377Y-77175099D01*
X159846996Y-77270337D01*
X159846996Y-77413194D01*
X159799377Y-77508432D01*
X159751758Y-77556051D01*
X159656520Y-77603670D01*
X159275567Y-77603670D01*
X160466043Y-77079861D02*
X160656520Y-77079861D01*
X160751758Y-77127480D01*
X160846996Y-77222718D01*
X160894615Y-77413194D01*
X160894615Y-77746528D01*
X160846996Y-77937004D01*
X160751758Y-78032242D01*
X160656520Y-78079861D01*
X160466043Y-78079861D01*
X160370805Y-78032242D01*
X160275567Y-77937004D01*
X160227948Y-77746528D01*
X160227948Y-77413194D01*
X160275567Y-77222718D01*
X160370805Y-77127480D01*
X160466043Y-77079861D01*
X161180329Y-77079861D02*
X161751758Y-77079861D01*
X161466043Y-78079861D02*
X161466043Y-77079861D01*
X161846996Y-78175099D02*
X162608901Y-78175099D01*
X163370806Y-78079861D02*
X162799377Y-78079861D01*
X163085091Y-78079861D02*
X163085091Y-77079861D01*
X162989853Y-77222718D01*
X162894615Y-77317956D01*
X162799377Y-77365575D01*
X163989853Y-77079861D02*
X164085092Y-77079861D01*
X164180330Y-77127480D01*
X164227949Y-77175099D01*
X164275568Y-77270337D01*
X164323187Y-77460813D01*
X164323187Y-77698909D01*
X164275568Y-77889385D01*
X164227949Y-77984623D01*
X164180330Y-78032242D01*
X164085092Y-78079861D01*
X163989853Y-78079861D01*
X163894615Y-78032242D01*
X163846996Y-77984623D01*
X163799377Y-77889385D01*
X163751758Y-77698909D01*
X163751758Y-77460813D01*
X163799377Y-77270337D01*
X163846996Y-77175099D01*
X163894615Y-77127480D01*
X163989853Y-77079861D01*
X164942234Y-77079861D02*
X165037473Y-77079861D01*
X165132711Y-77127480D01*
X165180330Y-77175099D01*
X165227949Y-77270337D01*
X165275568Y-77460813D01*
X165275568Y-77698909D01*
X165227949Y-77889385D01*
X165180330Y-77984623D01*
X165132711Y-78032242D01*
X165037473Y-78079861D01*
X164942234Y-78079861D01*
X164846996Y-78032242D01*
X164799377Y-77984623D01*
X164751758Y-77889385D01*
X164704139Y-77698909D01*
X164704139Y-77460813D01*
X164751758Y-77270337D01*
X164799377Y-77175099D01*
X164846996Y-77127480D01*
X164942234Y-77079861D01*
X165704139Y-78079861D02*
X165704139Y-77079861D01*
X165799377Y-77698909D02*
X166085092Y-78079861D01*
X166085092Y-77413194D02*
X165704139Y-77794147D01*
X159021567Y-89636861D02*
X159021567Y-88636861D01*
X159402520Y-88636861D01*
X159497758Y-88684480D01*
X159545377Y-88732099D01*
X159592996Y-88827337D01*
X159592996Y-88970194D01*
X159545377Y-89065432D01*
X159497758Y-89113051D01*
X159402520Y-89160670D01*
X159021567Y-89160670D01*
X160212043Y-88636861D02*
X160402520Y-88636861D01*
X160497758Y-88684480D01*
X160592996Y-88779718D01*
X160640615Y-88970194D01*
X160640615Y-89303528D01*
X160592996Y-89494004D01*
X160497758Y-89589242D01*
X160402520Y-89636861D01*
X160212043Y-89636861D01*
X160116805Y-89589242D01*
X160021567Y-89494004D01*
X159973948Y-89303528D01*
X159973948Y-88970194D01*
X160021567Y-88779718D01*
X160116805Y-88684480D01*
X160212043Y-88636861D01*
X160926329Y-88636861D02*
X161497758Y-88636861D01*
X161212043Y-89636861D02*
X161212043Y-88636861D01*
X161592996Y-89732099D02*
X162354901Y-89732099D01*
X163116806Y-89636861D02*
X162545377Y-89636861D01*
X162831091Y-89636861D02*
X162831091Y-88636861D01*
X162735853Y-88779718D01*
X162640615Y-88874956D01*
X162545377Y-88922575D01*
X163735853Y-88636861D02*
X163831092Y-88636861D01*
X163926330Y-88684480D01*
X163973949Y-88732099D01*
X164021568Y-88827337D01*
X164069187Y-89017813D01*
X164069187Y-89255909D01*
X164021568Y-89446385D01*
X163973949Y-89541623D01*
X163926330Y-89589242D01*
X163831092Y-89636861D01*
X163735853Y-89636861D01*
X163640615Y-89589242D01*
X163592996Y-89541623D01*
X163545377Y-89446385D01*
X163497758Y-89255909D01*
X163497758Y-89017813D01*
X163545377Y-88827337D01*
X163592996Y-88732099D01*
X163640615Y-88684480D01*
X163735853Y-88636861D01*
X164688234Y-88636861D02*
X164783473Y-88636861D01*
X164878711Y-88684480D01*
X164926330Y-88732099D01*
X164973949Y-88827337D01*
X165021568Y-89017813D01*
X165021568Y-89255909D01*
X164973949Y-89446385D01*
X164926330Y-89541623D01*
X164878711Y-89589242D01*
X164783473Y-89636861D01*
X164688234Y-89636861D01*
X164592996Y-89589242D01*
X164545377Y-89541623D01*
X164497758Y-89446385D01*
X164450139Y-89255909D01*
X164450139Y-89017813D01*
X164497758Y-88827337D01*
X164545377Y-88732099D01*
X164592996Y-88684480D01*
X164688234Y-88636861D01*
X165450139Y-89636861D02*
X165450139Y-88636861D01*
X165545377Y-89255909D02*
X165831092Y-89636861D01*
X165831092Y-88970194D02*
X165450139Y-89351147D01*
X142400758Y-66030861D02*
X141924567Y-66030861D01*
X141876948Y-66507051D01*
X141924567Y-66459432D01*
X142019805Y-66411813D01*
X142257901Y-66411813D01*
X142353139Y-66459432D01*
X142400758Y-66507051D01*
X142448377Y-66602290D01*
X142448377Y-66840385D01*
X142400758Y-66935623D01*
X142353139Y-66983242D01*
X142257901Y-67030861D01*
X142019805Y-67030861D01*
X141924567Y-66983242D01*
X141876948Y-66935623D01*
X142781710Y-66364194D02*
X143019805Y-67030861D01*
X143257901Y-66364194D01*
X144353139Y-65983242D02*
X143495996Y-67268956D01*
X144591234Y-66030861D02*
X145210282Y-66030861D01*
X144876948Y-66411813D01*
X145019806Y-66411813D01*
X145115044Y-66459432D01*
X145162663Y-66507051D01*
X145210282Y-66602290D01*
X145210282Y-66840385D01*
X145162663Y-66935623D01*
X145115044Y-66983242D01*
X145019806Y-67030861D01*
X144734091Y-67030861D01*
X144638853Y-66983242D01*
X144591234Y-66935623D01*
X145686472Y-66983242D02*
X145686472Y-67030861D01*
X145638853Y-67126099D01*
X145591234Y-67173718D01*
X146019805Y-66030861D02*
X146638853Y-66030861D01*
X146305519Y-66411813D01*
X146448377Y-66411813D01*
X146543615Y-66459432D01*
X146591234Y-66507051D01*
X146638853Y-66602290D01*
X146638853Y-66840385D01*
X146591234Y-66935623D01*
X146543615Y-66983242D01*
X146448377Y-67030861D01*
X146162662Y-67030861D01*
X146067424Y-66983242D01*
X146019805Y-66935623D01*
X146972186Y-66364194D02*
X147210281Y-67030861D01*
X147448377Y-66364194D01*
X148591234Y-67030861D02*
X148591234Y-66364194D01*
X148591234Y-66459432D02*
X148638853Y-66411813D01*
X148734091Y-66364194D01*
X148876949Y-66364194D01*
X148972187Y-66411813D01*
X149019806Y-66507051D01*
X149019806Y-67030861D01*
X149019806Y-66507051D02*
X149067425Y-66411813D01*
X149162663Y-66364194D01*
X149305520Y-66364194D01*
X149400758Y-66411813D01*
X149448377Y-66507051D01*
X149448377Y-67030861D01*
X150353139Y-67030861D02*
X150353139Y-66507051D01*
X150305520Y-66411813D01*
X150210282Y-66364194D01*
X150019805Y-66364194D01*
X149924567Y-66411813D01*
X150353139Y-66983242D02*
X150257901Y-67030861D01*
X150019805Y-67030861D01*
X149924567Y-66983242D01*
X149876948Y-66888004D01*
X149876948Y-66792766D01*
X149924567Y-66697528D01*
X150019805Y-66649909D01*
X150257901Y-66649909D01*
X150353139Y-66602290D01*
X150829329Y-66364194D02*
X150829329Y-67030861D01*
X150829329Y-66459432D02*
X150876948Y-66411813D01*
X150972186Y-66364194D01*
X151115044Y-66364194D01*
X151210282Y-66411813D01*
X151257901Y-66507051D01*
X151257901Y-67030861D01*
X152162663Y-66983242D02*
X152067425Y-67030861D01*
X151876948Y-67030861D01*
X151781710Y-66983242D01*
X151734091Y-66935623D01*
X151686472Y-66840385D01*
X151686472Y-66554670D01*
X151734091Y-66459432D01*
X151781710Y-66411813D01*
X151876948Y-66364194D01*
X152067425Y-66364194D01*
X152162663Y-66411813D01*
X152591234Y-67030861D02*
X152591234Y-66030861D01*
X153019806Y-67030861D02*
X153019806Y-66507051D01*
X152972187Y-66411813D01*
X152876949Y-66364194D01*
X152734091Y-66364194D01*
X152638853Y-66411813D01*
X152591234Y-66459432D01*
X153876949Y-66983242D02*
X153781711Y-67030861D01*
X153591234Y-67030861D01*
X153495996Y-66983242D01*
X153448377Y-66888004D01*
X153448377Y-66507051D01*
X153495996Y-66411813D01*
X153591234Y-66364194D01*
X153781711Y-66364194D01*
X153876949Y-66411813D01*
X153924568Y-66507051D01*
X153924568Y-66602290D01*
X153448377Y-66697528D01*
X154305520Y-66983242D02*
X154400758Y-67030861D01*
X154591234Y-67030861D01*
X154686473Y-66983242D01*
X154734092Y-66888004D01*
X154734092Y-66840385D01*
X154686473Y-66745147D01*
X154591234Y-66697528D01*
X154448377Y-66697528D01*
X154353139Y-66649909D01*
X154305520Y-66554670D01*
X154305520Y-66507051D01*
X154353139Y-66411813D01*
X154448377Y-66364194D01*
X154591234Y-66364194D01*
X154686473Y-66411813D01*
X217457116Y-93478694D02*
X217457116Y-94145361D01*
X217219020Y-93097742D02*
X216980925Y-93812028D01*
X217599973Y-93812028D01*
X217885687Y-93145361D02*
X218552354Y-93145361D01*
X218123782Y-94145361D01*
X219123782Y-93145361D02*
X219219021Y-93145361D01*
X219314259Y-93192980D01*
X219361878Y-93240599D01*
X219409497Y-93335837D01*
X219457116Y-93526313D01*
X219457116Y-93764409D01*
X219409497Y-93954885D01*
X219361878Y-94050123D01*
X219314259Y-94097742D01*
X219219021Y-94145361D01*
X219123782Y-94145361D01*
X219028544Y-94097742D01*
X218980925Y-94050123D01*
X218933306Y-93954885D01*
X218885687Y-93764409D01*
X218885687Y-93526313D01*
X218933306Y-93335837D01*
X218980925Y-93240599D01*
X219028544Y-93192980D01*
X219123782Y-93145361D01*
X205511091Y-107622957D02*
X205511091Y-107289623D01*
X206034901Y-107146766D02*
X206034901Y-107622957D01*
X205034901Y-107622957D01*
X205034901Y-107146766D01*
X205987282Y-106289623D02*
X206034901Y-106384861D01*
X206034901Y-106575338D01*
X205987282Y-106670576D01*
X205939663Y-106718195D01*
X205844425Y-106765814D01*
X205558710Y-106765814D01*
X205463472Y-106718195D01*
X205415853Y-106670576D01*
X205368234Y-106575338D01*
X205368234Y-106384861D01*
X205415853Y-106289623D01*
X206034901Y-105718195D02*
X205987282Y-105813433D01*
X205939663Y-105861052D01*
X205844425Y-105908671D01*
X205558710Y-105908671D01*
X205463472Y-105861052D01*
X205415853Y-105813433D01*
X205368234Y-105718195D01*
X205368234Y-105575337D01*
X205415853Y-105480099D01*
X205463472Y-105432480D01*
X205558710Y-105384861D01*
X205844425Y-105384861D01*
X205939663Y-105432480D01*
X205987282Y-105480099D01*
X206034901Y-105575337D01*
X206034901Y-105718195D01*
X206034901Y-104813433D02*
X205987282Y-104908671D01*
X205892044Y-104956290D01*
X205034901Y-104956290D01*
X206034901Y-104003908D02*
X205511091Y-104003908D01*
X205415853Y-104051527D01*
X205368234Y-104146765D01*
X205368234Y-104337242D01*
X205415853Y-104432480D01*
X205987282Y-104003908D02*
X206034901Y-104099146D01*
X206034901Y-104337242D01*
X205987282Y-104432480D01*
X205892044Y-104480099D01*
X205796806Y-104480099D01*
X205701568Y-104432480D01*
X205653949Y-104337242D01*
X205653949Y-104099146D01*
X205606330Y-104003908D01*
X205368234Y-103099146D02*
X206177758Y-103099146D01*
X206272996Y-103146765D01*
X206320615Y-103194384D01*
X206368234Y-103289623D01*
X206368234Y-103432480D01*
X206320615Y-103527718D01*
X205987282Y-103099146D02*
X206034901Y-103194384D01*
X206034901Y-103384861D01*
X205987282Y-103480099D01*
X205939663Y-103527718D01*
X205844425Y-103575337D01*
X205558710Y-103575337D01*
X205463472Y-103527718D01*
X205415853Y-103480099D01*
X205368234Y-103384861D01*
X205368234Y-103194384D01*
X205415853Y-103099146D01*
X205987282Y-102242003D02*
X206034901Y-102337241D01*
X206034901Y-102527718D01*
X205987282Y-102622956D01*
X205892044Y-102670575D01*
X205511091Y-102670575D01*
X205415853Y-102622956D01*
X205368234Y-102527718D01*
X205368234Y-102337241D01*
X205415853Y-102242003D01*
X205511091Y-102194384D01*
X205606330Y-102194384D01*
X205701568Y-102670575D01*
X205034901Y-115076290D02*
X206034901Y-114742957D01*
X205034901Y-114409623D01*
X206034901Y-114076290D02*
X205368234Y-114076290D01*
X205034901Y-114076290D02*
X205082520Y-114123909D01*
X205130139Y-114076290D01*
X205082520Y-114028671D01*
X205034901Y-114076290D01*
X205130139Y-114076290D01*
X206034901Y-113600100D02*
X205034901Y-113600100D01*
X205415853Y-113600100D02*
X205368234Y-113504862D01*
X205368234Y-113314385D01*
X205415853Y-113219147D01*
X205463472Y-113171528D01*
X205558710Y-113123909D01*
X205844425Y-113123909D01*
X205939663Y-113171528D01*
X205987282Y-113219147D01*
X206034901Y-113314385D01*
X206034901Y-113504862D01*
X205987282Y-113600100D01*
X206034901Y-112695338D02*
X205368234Y-112695338D01*
X205558710Y-112695338D02*
X205463472Y-112647719D01*
X205415853Y-112600100D01*
X205368234Y-112504862D01*
X205368234Y-112409623D01*
X205987282Y-111695337D02*
X206034901Y-111790575D01*
X206034901Y-111981052D01*
X205987282Y-112076290D01*
X205892044Y-112123909D01*
X205511091Y-112123909D01*
X205415853Y-112076290D01*
X205368234Y-111981052D01*
X205368234Y-111790575D01*
X205415853Y-111695337D01*
X205511091Y-111647718D01*
X205606330Y-111647718D01*
X205701568Y-112123909D01*
X205368234Y-110790575D02*
X206034901Y-110790575D01*
X205368234Y-111219147D02*
X205892044Y-111219147D01*
X205987282Y-111171528D01*
X206034901Y-111076290D01*
X206034901Y-110933432D01*
X205987282Y-110838194D01*
X205939663Y-110790575D01*
X206034901Y-110314385D02*
X205368234Y-110314385D01*
X205558710Y-110314385D02*
X205463472Y-110266766D01*
X205415853Y-110219147D01*
X205368234Y-110123909D01*
X205368234Y-110028670D01*
X183151520Y-82016861D02*
X183151520Y-81016861D01*
X183484854Y-81731147D01*
X183818187Y-81016861D01*
X183818187Y-82016861D01*
X184294377Y-82016861D02*
X184294377Y-81350194D01*
X184294377Y-81016861D02*
X184246758Y-81064480D01*
X184294377Y-81112099D01*
X184341996Y-81064480D01*
X184294377Y-81016861D01*
X184294377Y-81112099D01*
X185199139Y-81969242D02*
X185103901Y-82016861D01*
X184913424Y-82016861D01*
X184818186Y-81969242D01*
X184770567Y-81921623D01*
X184722948Y-81826385D01*
X184722948Y-81540670D01*
X184770567Y-81445432D01*
X184818186Y-81397813D01*
X184913424Y-81350194D01*
X185103901Y-81350194D01*
X185199139Y-81397813D01*
X185627710Y-82016861D02*
X185627710Y-81350194D01*
X185627710Y-81540670D02*
X185675329Y-81445432D01*
X185722948Y-81397813D01*
X185818186Y-81350194D01*
X185913425Y-81350194D01*
X186389615Y-82016861D02*
X186294377Y-81969242D01*
X186246758Y-81921623D01*
X186199139Y-81826385D01*
X186199139Y-81540670D01*
X186246758Y-81445432D01*
X186294377Y-81397813D01*
X186389615Y-81350194D01*
X186532473Y-81350194D01*
X186627711Y-81397813D01*
X186675330Y-81445432D01*
X186722949Y-81540670D01*
X186722949Y-81826385D01*
X186675330Y-81921623D01*
X186627711Y-81969242D01*
X186532473Y-82016861D01*
X186389615Y-82016861D01*
X186913425Y-82112099D02*
X187675330Y-82112099D01*
X187865806Y-81969242D02*
X187961044Y-82016861D01*
X188151520Y-82016861D01*
X188246759Y-81969242D01*
X188294378Y-81874004D01*
X188294378Y-81826385D01*
X188246759Y-81731147D01*
X188151520Y-81683528D01*
X188008663Y-81683528D01*
X187913425Y-81635909D01*
X187865806Y-81540670D01*
X187865806Y-81493051D01*
X187913425Y-81397813D01*
X188008663Y-81350194D01*
X188151520Y-81350194D01*
X188246759Y-81397813D01*
X189151521Y-82016861D02*
X189151521Y-81016861D01*
X189151521Y-81969242D02*
X189056283Y-82016861D01*
X188865806Y-82016861D01*
X188770568Y-81969242D01*
X188722949Y-81921623D01*
X188675330Y-81826385D01*
X188675330Y-81540670D01*
X188722949Y-81445432D01*
X188770568Y-81397813D01*
X188865806Y-81350194D01*
X189056283Y-81350194D01*
X189151521Y-81397813D01*
X161378711Y-118227742D02*
X161521568Y-118275361D01*
X161759664Y-118275361D01*
X161854902Y-118227742D01*
X161902521Y-118180123D01*
X161950140Y-118084885D01*
X161950140Y-117989647D01*
X161902521Y-117894409D01*
X161854902Y-117846790D01*
X161759664Y-117799170D01*
X161569187Y-117751551D01*
X161473949Y-117703932D01*
X161426330Y-117656313D01*
X161378711Y-117561075D01*
X161378711Y-117465837D01*
X161426330Y-117370599D01*
X161473949Y-117322980D01*
X161569187Y-117275361D01*
X161807283Y-117275361D01*
X161950140Y-117322980D01*
X162378711Y-118275361D02*
X162378711Y-117275361D01*
X162759664Y-117275361D01*
X162854902Y-117322980D01*
X162902521Y-117370599D01*
X162950140Y-117465837D01*
X162950140Y-117608694D01*
X162902521Y-117703932D01*
X162854902Y-117751551D01*
X162759664Y-117799170D01*
X162378711Y-117799170D01*
X163378711Y-118275361D02*
X163378711Y-117275361D01*
X205731407Y-69981533D02*
X205731407Y-69505342D01*
X206017121Y-70076771D02*
X205017121Y-69743438D01*
X206017121Y-69410104D01*
X205350454Y-68648199D02*
X206017121Y-68648199D01*
X205350454Y-69076771D02*
X205874264Y-69076771D01*
X205969502Y-69029152D01*
X206017121Y-68933914D01*
X206017121Y-68791056D01*
X205969502Y-68695818D01*
X205921883Y-68648199D01*
X206017121Y-67743437D02*
X205017121Y-67743437D01*
X205969502Y-67743437D02*
X206017121Y-67838675D01*
X206017121Y-68029152D01*
X205969502Y-68124390D01*
X205921883Y-68172009D01*
X205826645Y-68219628D01*
X205540930Y-68219628D01*
X205445692Y-68172009D01*
X205398073Y-68124390D01*
X205350454Y-68029152D01*
X205350454Y-67838675D01*
X205398073Y-67743437D01*
X206017121Y-67267247D02*
X205350454Y-67267247D01*
X205017121Y-67267247D02*
X205064740Y-67314866D01*
X205112359Y-67267247D01*
X205064740Y-67219628D01*
X205017121Y-67267247D01*
X205112359Y-67267247D01*
X206017121Y-66648200D02*
X205969502Y-66743438D01*
X205921883Y-66791057D01*
X205826645Y-66838676D01*
X205540930Y-66838676D01*
X205445692Y-66791057D01*
X205398073Y-66743438D01*
X205350454Y-66648200D01*
X205350454Y-66505342D01*
X205398073Y-66410104D01*
X205445692Y-66362485D01*
X205540930Y-66314866D01*
X205826645Y-66314866D01*
X205921883Y-66362485D01*
X205969502Y-66410104D01*
X206017121Y-66505342D01*
X206017121Y-66648200D01*
X221330854Y-102336861D02*
X220854663Y-102336861D01*
X220854663Y-101336861D01*
X222235616Y-102241623D02*
X222187997Y-102289242D01*
X222045140Y-102336861D01*
X221949902Y-102336861D01*
X221807044Y-102289242D01*
X221711806Y-102194004D01*
X221664187Y-102098766D01*
X221616568Y-101908290D01*
X221616568Y-101765432D01*
X221664187Y-101574956D01*
X221711806Y-101479718D01*
X221807044Y-101384480D01*
X221949902Y-101336861D01*
X222045140Y-101336861D01*
X222187997Y-101384480D01*
X222235616Y-101432099D01*
X222664187Y-102336861D02*
X222664187Y-101336861D01*
X222902282Y-101336861D01*
X223045140Y-101384480D01*
X223140378Y-101479718D01*
X223187997Y-101574956D01*
X223235616Y-101765432D01*
X223235616Y-101908290D01*
X223187997Y-102098766D01*
X223140378Y-102194004D01*
X223045140Y-102289242D01*
X222902282Y-102336861D01*
X222664187Y-102336861D01*
X223426092Y-102432099D02*
X224187997Y-102432099D01*
X224378473Y-102051147D02*
X224854664Y-102051147D01*
X224283235Y-102336861D02*
X224616568Y-101336861D01*
X224949902Y-102336861D01*
X225426092Y-102336861D02*
X225330854Y-102289242D01*
X225283235Y-102194004D01*
X225283235Y-101336861D01*
X225807045Y-102336861D02*
X225807045Y-101670194D01*
X225807045Y-101336861D02*
X225759426Y-101384480D01*
X225807045Y-101432099D01*
X225854664Y-101384480D01*
X225807045Y-101336861D01*
X225807045Y-101432099D01*
X226283235Y-102336861D02*
X226283235Y-101670194D01*
X226283235Y-101765432D02*
X226330854Y-101717813D01*
X226426092Y-101670194D01*
X226568950Y-101670194D01*
X226664188Y-101717813D01*
X226711807Y-101813051D01*
X226711807Y-102336861D01*
X226711807Y-101813051D02*
X226759426Y-101717813D01*
X226854664Y-101670194D01*
X226997521Y-101670194D01*
X227092759Y-101717813D01*
X227140378Y-101813051D01*
X227140378Y-102336861D01*
X212297806Y-119481861D02*
X211964472Y-119005670D01*
X211726377Y-119481861D02*
X211726377Y-118481861D01*
X212107330Y-118481861D01*
X212202568Y-118529480D01*
X212250187Y-118577099D01*
X212297806Y-118672337D01*
X212297806Y-118815194D01*
X212250187Y-118910432D01*
X212202568Y-118958051D01*
X212107330Y-119005670D01*
X211726377Y-119005670D01*
X212869234Y-119481861D02*
X212773996Y-119434242D01*
X212726377Y-119386623D01*
X212678758Y-119291385D01*
X212678758Y-119005670D01*
X212726377Y-118910432D01*
X212773996Y-118862813D01*
X212869234Y-118815194D01*
X213012092Y-118815194D01*
X213107330Y-118862813D01*
X213154949Y-118910432D01*
X213202568Y-119005670D01*
X213202568Y-119291385D01*
X213154949Y-119386623D01*
X213107330Y-119434242D01*
X213012092Y-119481861D01*
X212869234Y-119481861D01*
X213488282Y-118815194D02*
X213869234Y-118815194D01*
X213631139Y-118481861D02*
X213631139Y-119339004D01*
X213678758Y-119434242D01*
X213773996Y-119481861D01*
X213869234Y-119481861D01*
X213964473Y-119577099D02*
X214726378Y-119577099D01*
X215488283Y-119481861D02*
X214916854Y-119481861D01*
X215202568Y-119481861D02*
X215202568Y-118481861D01*
X215107330Y-118624718D01*
X215012092Y-118719956D01*
X214916854Y-118767575D01*
X211876901Y-71721575D02*
X210876901Y-71721575D01*
X211591187Y-71388241D01*
X210876901Y-71054908D01*
X211876901Y-71054908D01*
X211353091Y-70245384D02*
X211400710Y-70102527D01*
X211448330Y-70054908D01*
X211543568Y-70007289D01*
X211686425Y-70007289D01*
X211781663Y-70054908D01*
X211829282Y-70102527D01*
X211876901Y-70197765D01*
X211876901Y-70578718D01*
X210876901Y-70578718D01*
X210876901Y-70245384D01*
X210924520Y-70150146D01*
X210972139Y-70102527D01*
X211067377Y-70054908D01*
X211162615Y-70054908D01*
X211257853Y-70102527D01*
X211305472Y-70150146D01*
X211353091Y-70245384D01*
X211353091Y-70578718D01*
X211876901Y-69007289D02*
X211400710Y-69340623D01*
X211876901Y-69578718D02*
X210876901Y-69578718D01*
X210876901Y-69197765D01*
X210924520Y-69102527D01*
X210972139Y-69054908D01*
X211067377Y-69007289D01*
X211210234Y-69007289D01*
X211305472Y-69054908D01*
X211353091Y-69102527D01*
X211400710Y-69197765D01*
X211400710Y-69578718D01*
X210876901Y-68388242D02*
X210876901Y-68293003D01*
X210924520Y-68197765D01*
X210972139Y-68150146D01*
X211067377Y-68102527D01*
X211257853Y-68054908D01*
X211495949Y-68054908D01*
X211686425Y-68102527D01*
X211781663Y-68150146D01*
X211829282Y-68197765D01*
X211876901Y-68293003D01*
X211876901Y-68388242D01*
X211829282Y-68483480D01*
X211781663Y-68531099D01*
X211686425Y-68578718D01*
X211495949Y-68626337D01*
X211257853Y-68626337D01*
X211067377Y-68578718D01*
X210972139Y-68531099D01*
X210924520Y-68483480D01*
X210876901Y-68388242D01*
X210876901Y-67150146D02*
X210876901Y-67626337D01*
X211353091Y-67673956D01*
X211305472Y-67626337D01*
X211257853Y-67531099D01*
X211257853Y-67293003D01*
X211305472Y-67197765D01*
X211353091Y-67150146D01*
X211448330Y-67102527D01*
X211686425Y-67102527D01*
X211781663Y-67150146D01*
X211829282Y-67197765D01*
X211876901Y-67293003D01*
X211876901Y-67531099D01*
X211829282Y-67626337D01*
X211781663Y-67673956D01*
X210972139Y-66721575D02*
X210924520Y-66673956D01*
X210876901Y-66578718D01*
X210876901Y-66340622D01*
X210924520Y-66245384D01*
X210972139Y-66197765D01*
X211067377Y-66150146D01*
X211162615Y-66150146D01*
X211305472Y-66197765D01*
X211876901Y-66769194D01*
X211876901Y-66150146D01*
X210876901Y-65531099D02*
X210876901Y-65435860D01*
X210924520Y-65340622D01*
X210972139Y-65293003D01*
X211067377Y-65245384D01*
X211257853Y-65197765D01*
X211495949Y-65197765D01*
X211686425Y-65245384D01*
X211781663Y-65293003D01*
X211829282Y-65340622D01*
X211876901Y-65435860D01*
X211876901Y-65531099D01*
X211829282Y-65626337D01*
X211781663Y-65673956D01*
X211686425Y-65721575D01*
X211495949Y-65769194D01*
X211257853Y-65769194D01*
X211067377Y-65721575D01*
X210972139Y-65673956D01*
X210924520Y-65626337D01*
X210876901Y-65531099D01*
X218219472Y-89128861D02*
X218219472Y-88128861D01*
X218552806Y-88843147D01*
X218886139Y-88128861D01*
X218886139Y-89128861D01*
X219505186Y-89128861D02*
X219409948Y-89081242D01*
X219362329Y-89033623D01*
X219314710Y-88938385D01*
X219314710Y-88652670D01*
X219362329Y-88557432D01*
X219409948Y-88509813D01*
X219505186Y-88462194D01*
X219648044Y-88462194D01*
X219743282Y-88509813D01*
X219790901Y-88557432D01*
X219838520Y-88652670D01*
X219838520Y-88938385D01*
X219790901Y-89033623D01*
X219743282Y-89081242D01*
X219648044Y-89128861D01*
X219505186Y-89128861D01*
X220695663Y-89128861D02*
X220695663Y-88128861D01*
X220695663Y-89081242D02*
X220600425Y-89128861D01*
X220409948Y-89128861D01*
X220314710Y-89081242D01*
X220267091Y-89033623D01*
X220219472Y-88938385D01*
X220219472Y-88652670D01*
X220267091Y-88557432D01*
X220314710Y-88509813D01*
X220409948Y-88462194D01*
X220600425Y-88462194D01*
X220695663Y-88509813D01*
X221600425Y-88462194D02*
X221600425Y-89128861D01*
X221171853Y-88462194D02*
X221171853Y-88986004D01*
X221219472Y-89081242D01*
X221314710Y-89128861D01*
X221457568Y-89128861D01*
X221552806Y-89081242D01*
X221600425Y-89033623D01*
X222219472Y-89128861D02*
X222124234Y-89081242D01*
X222076615Y-88986004D01*
X222076615Y-88128861D01*
X222981378Y-89081242D02*
X222886140Y-89128861D01*
X222695663Y-89128861D01*
X222600425Y-89081242D01*
X222552806Y-88986004D01*
X222552806Y-88605051D01*
X222600425Y-88509813D01*
X222695663Y-88462194D01*
X222886140Y-88462194D01*
X222981378Y-88509813D01*
X223028997Y-88605051D01*
X223028997Y-88700290D01*
X222552806Y-88795528D01*
X223219473Y-89224099D02*
X223981378Y-89224099D01*
X224076616Y-88128861D02*
X224648045Y-88128861D01*
X224362330Y-89128861D02*
X224362330Y-88128861D01*
X224886140Y-88128861D02*
X225552807Y-89128861D01*
X225552807Y-88128861D02*
X224886140Y-89128861D01*
X220751234Y-86080861D02*
X220751234Y-85080861D01*
X221132187Y-85080861D01*
X221227425Y-85128480D01*
X221275044Y-85176099D01*
X221322663Y-85271337D01*
X221322663Y-85414194D01*
X221275044Y-85509432D01*
X221227425Y-85557051D01*
X221132187Y-85604670D01*
X220751234Y-85604670D01*
X222275044Y-86080861D02*
X221703615Y-86080861D01*
X221989329Y-86080861D02*
X221989329Y-85080861D01*
X221894091Y-85223718D01*
X221798853Y-85318956D01*
X221703615Y-85366575D01*
X222751234Y-86080861D02*
X222941710Y-86080861D01*
X223036949Y-86033242D01*
X223084568Y-85985623D01*
X223179806Y-85842766D01*
X223227425Y-85652290D01*
X223227425Y-85271337D01*
X223179806Y-85176099D01*
X223132187Y-85128480D01*
X223036949Y-85080861D01*
X222846472Y-85080861D01*
X222751234Y-85128480D01*
X222703615Y-85176099D01*
X222655996Y-85271337D01*
X222655996Y-85509432D01*
X222703615Y-85604670D01*
X222751234Y-85652290D01*
X222846472Y-85699909D01*
X223036949Y-85699909D01*
X223132187Y-85652290D01*
X223179806Y-85604670D01*
X223227425Y-85509432D01*
X217814234Y-69975575D02*
X218480901Y-69975575D01*
X217433282Y-70213671D02*
X218147568Y-70451766D01*
X218147568Y-69832718D01*
X217480901Y-69547004D02*
X217480901Y-68880337D01*
X218480901Y-69308909D01*
X217814234Y-68499385D02*
X218814234Y-68499385D01*
X218338044Y-68023194D02*
X218433282Y-67975575D01*
X218480901Y-67880337D01*
X218338044Y-68499385D02*
X218433282Y-68451766D01*
X218480901Y-68356528D01*
X218480901Y-68166051D01*
X218433282Y-68070813D01*
X218338044Y-68023194D01*
X217814234Y-68023194D01*
X217957091Y-67118432D02*
X217957091Y-67451766D01*
X218480901Y-67451766D02*
X217480901Y-67451766D01*
X217480901Y-66975575D01*
X216368949Y-70995432D02*
X216368949Y-70233527D01*
X216749901Y-70614479D02*
X215987996Y-70614479D01*
X214829663Y-69507337D02*
X214877282Y-69554956D01*
X214924901Y-69697813D01*
X214924901Y-69793051D01*
X214877282Y-69935909D01*
X214782044Y-70031147D01*
X214686806Y-70078766D01*
X214496330Y-70126385D01*
X214353472Y-70126385D01*
X214162996Y-70078766D01*
X214067758Y-70031147D01*
X213972520Y-69935909D01*
X213924901Y-69793051D01*
X213924901Y-69697813D01*
X213972520Y-69554956D01*
X214020139Y-69507337D01*
X214020139Y-69126385D02*
X213972520Y-69078766D01*
X213924901Y-68983528D01*
X213924901Y-68745432D01*
X213972520Y-68650194D01*
X214020139Y-68602575D01*
X214115377Y-68554956D01*
X214210615Y-68554956D01*
X214353472Y-68602575D01*
X214924901Y-69174004D01*
X214924901Y-68554956D01*
X214353472Y-67983528D02*
X214305853Y-68078766D01*
X214258234Y-68126385D01*
X214162996Y-68174004D01*
X214115377Y-68174004D01*
X214020139Y-68126385D01*
X213972520Y-68078766D01*
X213924901Y-67983528D01*
X213924901Y-67793051D01*
X213972520Y-67697813D01*
X214020139Y-67650194D01*
X214115377Y-67602575D01*
X214162996Y-67602575D01*
X214258234Y-67650194D01*
X214305853Y-67697813D01*
X214353472Y-67793051D01*
X214353472Y-67983528D01*
X214401091Y-68078766D01*
X214448710Y-68126385D01*
X214543949Y-68174004D01*
X214734425Y-68174004D01*
X214829663Y-68126385D01*
X214877282Y-68078766D01*
X214924901Y-67983528D01*
X214924901Y-67793051D01*
X214877282Y-67697813D01*
X214829663Y-67650194D01*
X214734425Y-67602575D01*
X214543949Y-67602575D01*
X214448710Y-67650194D01*
X214401091Y-67697813D01*
X214353472Y-67793051D01*
X159497758Y-83921861D02*
X159497758Y-82921861D01*
X159878711Y-82921861D01*
X159973949Y-82969480D01*
X160021568Y-83017099D01*
X160069187Y-83112337D01*
X160069187Y-83255194D01*
X160021568Y-83350432D01*
X159973949Y-83398051D01*
X159878711Y-83445670D01*
X159497758Y-83445670D01*
X160688234Y-82921861D02*
X160878711Y-82921861D01*
X160973949Y-82969480D01*
X161069187Y-83064718D01*
X161116806Y-83255194D01*
X161116806Y-83588528D01*
X161069187Y-83779004D01*
X160973949Y-83874242D01*
X160878711Y-83921861D01*
X160688234Y-83921861D01*
X160592996Y-83874242D01*
X160497758Y-83779004D01*
X160450139Y-83588528D01*
X160450139Y-83255194D01*
X160497758Y-83064718D01*
X160592996Y-82969480D01*
X160688234Y-82921861D01*
X161402520Y-82921861D02*
X161973949Y-82921861D01*
X161688234Y-83921861D02*
X161688234Y-82921861D01*
X162069187Y-84017099D02*
X162831092Y-84017099D01*
X163021568Y-83017099D02*
X163069187Y-82969480D01*
X163164425Y-82921861D01*
X163402521Y-82921861D01*
X163497759Y-82969480D01*
X163545378Y-83017099D01*
X163592997Y-83112337D01*
X163592997Y-83207575D01*
X163545378Y-83350432D01*
X162973949Y-83921861D01*
X163592997Y-83921861D01*
X163973949Y-83017099D02*
X164021568Y-82969480D01*
X164116806Y-82921861D01*
X164354902Y-82921861D01*
X164450140Y-82969480D01*
X164497759Y-83017099D01*
X164545378Y-83112337D01*
X164545378Y-83207575D01*
X164497759Y-83350432D01*
X163926330Y-83921861D01*
X164545378Y-83921861D01*
X164973949Y-83921861D02*
X164973949Y-82921861D01*
X165069187Y-83540909D02*
X165354902Y-83921861D01*
X165354902Y-83255194D02*
X164973949Y-83636147D01*
X159624758Y-95351861D02*
X159624758Y-94351861D01*
X160005711Y-94351861D01*
X160100949Y-94399480D01*
X160148568Y-94447099D01*
X160196187Y-94542337D01*
X160196187Y-94685194D01*
X160148568Y-94780432D01*
X160100949Y-94828051D01*
X160005711Y-94875670D01*
X159624758Y-94875670D01*
X160815234Y-94351861D02*
X161005711Y-94351861D01*
X161100949Y-94399480D01*
X161196187Y-94494718D01*
X161243806Y-94685194D01*
X161243806Y-95018528D01*
X161196187Y-95209004D01*
X161100949Y-95304242D01*
X161005711Y-95351861D01*
X160815234Y-95351861D01*
X160719996Y-95304242D01*
X160624758Y-95209004D01*
X160577139Y-95018528D01*
X160577139Y-94685194D01*
X160624758Y-94494718D01*
X160719996Y-94399480D01*
X160815234Y-94351861D01*
X161529520Y-94351861D02*
X162100949Y-94351861D01*
X161815234Y-95351861D02*
X161815234Y-94351861D01*
X162196187Y-95447099D02*
X162958092Y-95447099D01*
X163148568Y-94447099D02*
X163196187Y-94399480D01*
X163291425Y-94351861D01*
X163529521Y-94351861D01*
X163624759Y-94399480D01*
X163672378Y-94447099D01*
X163719997Y-94542337D01*
X163719997Y-94637575D01*
X163672378Y-94780432D01*
X163100949Y-95351861D01*
X163719997Y-95351861D01*
X164100949Y-94447099D02*
X164148568Y-94399480D01*
X164243806Y-94351861D01*
X164481902Y-94351861D01*
X164577140Y-94399480D01*
X164624759Y-94447099D01*
X164672378Y-94542337D01*
X164672378Y-94637575D01*
X164624759Y-94780432D01*
X164053330Y-95351861D01*
X164672378Y-95351861D01*
X165100949Y-95351861D02*
X165100949Y-94351861D01*
X165196187Y-94970909D02*
X165481902Y-95351861D01*
X165481902Y-94685194D02*
X165100949Y-95066147D01*
X217845901Y-127943099D02*
X217845901Y-128514528D01*
X217845901Y-128228814D02*
X216845901Y-128228814D01*
X216988758Y-128324052D01*
X217083996Y-128419290D01*
X217131615Y-128514528D01*
X216845901Y-127324052D02*
X216845901Y-127228813D01*
X216893520Y-127133575D01*
X216941139Y-127085956D01*
X217036377Y-127038337D01*
X217226853Y-126990718D01*
X217464949Y-126990718D01*
X217655425Y-127038337D01*
X217750663Y-127085956D01*
X217798282Y-127133575D01*
X217845901Y-127228813D01*
X217845901Y-127324052D01*
X217798282Y-127419290D01*
X217750663Y-127466909D01*
X217655425Y-127514528D01*
X217464949Y-127562147D01*
X217226853Y-127562147D01*
X217036377Y-127514528D01*
X216941139Y-127466909D01*
X216893520Y-127419290D01*
X216845901Y-127324052D01*
X216845901Y-126371671D02*
X216845901Y-126276432D01*
X216893520Y-126181194D01*
X216941139Y-126133575D01*
X217036377Y-126085956D01*
X217226853Y-126038337D01*
X217464949Y-126038337D01*
X217655425Y-126085956D01*
X217750663Y-126133575D01*
X217798282Y-126181194D01*
X217845901Y-126276432D01*
X217845901Y-126371671D01*
X217798282Y-126466909D01*
X217750663Y-126514528D01*
X217655425Y-126562147D01*
X217464949Y-126609766D01*
X217226853Y-126609766D01*
X217036377Y-126562147D01*
X216941139Y-126514528D01*
X216893520Y-126466909D01*
X216845901Y-126371671D01*
X217179234Y-125609766D02*
X217845901Y-125609766D01*
X217274472Y-125609766D02*
X217226853Y-125562147D01*
X217179234Y-125466909D01*
X217179234Y-125324051D01*
X217226853Y-125228813D01*
X217322091Y-125181194D01*
X217845901Y-125181194D01*
X217322091Y-124371670D02*
X217322091Y-124705004D01*
X217845901Y-124705004D02*
X216845901Y-124705004D01*
X216845901Y-124228813D01*
X219500663Y-126435146D02*
X219548282Y-126482765D01*
X219595901Y-126625622D01*
X219595901Y-126720860D01*
X219548282Y-126863718D01*
X219453044Y-126958956D01*
X219357806Y-127006575D01*
X219167330Y-127054194D01*
X219024472Y-127054194D01*
X218833996Y-127006575D01*
X218738758Y-126958956D01*
X218643520Y-126863718D01*
X218595901Y-126720860D01*
X218595901Y-126625622D01*
X218643520Y-126482765D01*
X218691139Y-126435146D01*
X218595901Y-125578003D02*
X218595901Y-125768480D01*
X218643520Y-125863718D01*
X218691139Y-125911337D01*
X218833996Y-126006575D01*
X219024472Y-126054194D01*
X219405425Y-126054194D01*
X219500663Y-126006575D01*
X219548282Y-125958956D01*
X219595901Y-125863718D01*
X219595901Y-125673241D01*
X219548282Y-125578003D01*
X219500663Y-125530384D01*
X219405425Y-125482765D01*
X219167330Y-125482765D01*
X219072091Y-125530384D01*
X219024472Y-125578003D01*
X218976853Y-125673241D01*
X218976853Y-125863718D01*
X219024472Y-125958956D01*
X219072091Y-126006575D01*
X219167330Y-126054194D01*
X221497234Y-78484575D02*
X222163901Y-78484575D01*
X221116282Y-78722671D02*
X221830568Y-78960766D01*
X221830568Y-78341718D01*
X221163901Y-78056004D02*
X221163901Y-77389337D01*
X222163901Y-77817909D01*
X221497234Y-77008385D02*
X222497234Y-77008385D01*
X222021044Y-76532194D02*
X222116282Y-76484575D01*
X222163901Y-76389337D01*
X222021044Y-77008385D02*
X222116282Y-76960766D01*
X222163901Y-76865528D01*
X222163901Y-76675051D01*
X222116282Y-76579813D01*
X222021044Y-76532194D01*
X221497234Y-76532194D01*
X221640091Y-75627432D02*
X221640091Y-75960766D01*
X222163901Y-75960766D02*
X221163901Y-75960766D01*
X221163901Y-75484575D01*
X220178949Y-79250432D02*
X220178949Y-78488527D01*
X220559901Y-78869479D02*
X219797996Y-78869479D01*
X219274663Y-77032146D02*
X219322282Y-77079765D01*
X219369901Y-77222622D01*
X219369901Y-77317860D01*
X219322282Y-77460718D01*
X219227044Y-77555956D01*
X219131806Y-77603575D01*
X218941330Y-77651194D01*
X218798472Y-77651194D01*
X218607996Y-77603575D01*
X218512758Y-77555956D01*
X218417520Y-77460718D01*
X218369901Y-77317860D01*
X218369901Y-77222622D01*
X218417520Y-77079765D01*
X218465139Y-77032146D01*
X218369901Y-76698813D02*
X218369901Y-76032146D01*
X219369901Y-76460718D01*
X214512234Y-78357575D02*
X215178901Y-78357575D01*
X214131282Y-78595671D02*
X214845568Y-78833766D01*
X214845568Y-78214718D01*
X214178901Y-77929004D02*
X214178901Y-77262337D01*
X215178901Y-77690909D01*
X214512234Y-76881385D02*
X215512234Y-76881385D01*
X215036044Y-76405194D02*
X215131282Y-76357575D01*
X215178901Y-76262337D01*
X215036044Y-76881385D02*
X215131282Y-76833766D01*
X215178901Y-76738528D01*
X215178901Y-76548051D01*
X215131282Y-76452813D01*
X215036044Y-76405194D01*
X214512234Y-76405194D01*
X214655091Y-75500432D02*
X214655091Y-75833766D01*
X215178901Y-75833766D02*
X214178901Y-75833766D01*
X214178901Y-75357575D01*
X213353949Y-75750432D02*
X213353949Y-74988527D01*
X213734901Y-75369479D02*
X212972996Y-75369479D01*
X212035663Y-77286146D02*
X212083282Y-77333765D01*
X212130901Y-77476622D01*
X212130901Y-77571860D01*
X212083282Y-77714718D01*
X211988044Y-77809956D01*
X211892806Y-77857575D01*
X211702330Y-77905194D01*
X211559472Y-77905194D01*
X211368996Y-77857575D01*
X211273758Y-77809956D01*
X211178520Y-77714718D01*
X211130901Y-77571860D01*
X211130901Y-77476622D01*
X211178520Y-77333765D01*
X211226139Y-77286146D01*
X211559472Y-76714718D02*
X211511853Y-76809956D01*
X211464234Y-76857575D01*
X211368996Y-76905194D01*
X211321377Y-76905194D01*
X211226139Y-76857575D01*
X211178520Y-76809956D01*
X211130901Y-76714718D01*
X211130901Y-76524241D01*
X211178520Y-76429003D01*
X211226139Y-76381384D01*
X211321377Y-76333765D01*
X211368996Y-76333765D01*
X211464234Y-76381384D01*
X211511853Y-76429003D01*
X211559472Y-76524241D01*
X211559472Y-76714718D01*
X211607091Y-76809956D01*
X211654710Y-76857575D01*
X211749949Y-76905194D01*
X211940425Y-76905194D01*
X212035663Y-76857575D01*
X212083282Y-76809956D01*
X212130901Y-76714718D01*
X212130901Y-76524241D01*
X212083282Y-76429003D01*
X212035663Y-76381384D01*
X211940425Y-76333765D01*
X211749949Y-76333765D01*
X211654710Y-76381384D01*
X211607091Y-76429003D01*
X211559472Y-76524241D01*
X216060520Y-98542861D02*
X216631949Y-98542861D01*
X216346234Y-99542861D02*
X216346234Y-98542861D01*
X216822425Y-98542861D02*
X217393854Y-98542861D01*
X217108139Y-99542861D02*
X217108139Y-98542861D01*
X218203378Y-99542861D02*
X217727187Y-99542861D01*
X217727187Y-98542861D01*
X219250997Y-98495242D02*
X218393854Y-99780956D01*
X220155759Y-99542861D02*
X219822425Y-99066670D01*
X219584330Y-99542861D02*
X219584330Y-98542861D01*
X219965283Y-98542861D01*
X220060521Y-98590480D01*
X220108140Y-98638099D01*
X220155759Y-98733337D01*
X220155759Y-98876194D01*
X220108140Y-98971432D01*
X220060521Y-99019051D01*
X219965283Y-99066670D01*
X219584330Y-99066670D01*
X220536711Y-99495242D02*
X220679568Y-99542861D01*
X220917664Y-99542861D01*
X221012902Y-99495242D01*
X221060521Y-99447623D01*
X221108140Y-99352385D01*
X221108140Y-99257147D01*
X221060521Y-99161909D01*
X221012902Y-99114290D01*
X220917664Y-99066670D01*
X220727187Y-99019051D01*
X220631949Y-98971432D01*
X220584330Y-98923813D01*
X220536711Y-98828575D01*
X220536711Y-98733337D01*
X220584330Y-98638099D01*
X220631949Y-98590480D01*
X220727187Y-98542861D01*
X220965283Y-98542861D01*
X221108140Y-98590480D01*
X221489092Y-98638099D02*
X221536711Y-98590480D01*
X221631949Y-98542861D01*
X221870045Y-98542861D01*
X221965283Y-98590480D01*
X222012902Y-98638099D01*
X222060521Y-98733337D01*
X222060521Y-98828575D01*
X222012902Y-98971432D01*
X221441473Y-99542861D01*
X222060521Y-99542861D01*
X222393854Y-98542861D02*
X223012902Y-98542861D01*
X222679568Y-98923813D01*
X222822426Y-98923813D01*
X222917664Y-98971432D01*
X222965283Y-99019051D01*
X223012902Y-99114290D01*
X223012902Y-99352385D01*
X222965283Y-99447623D01*
X222917664Y-99495242D01*
X222822426Y-99542861D01*
X222536711Y-99542861D01*
X222441473Y-99495242D01*
X222393854Y-99447623D01*
X223393854Y-98638099D02*
X223441473Y-98590480D01*
X223536711Y-98542861D01*
X223774807Y-98542861D01*
X223870045Y-98590480D01*
X223917664Y-98638099D01*
X223965283Y-98733337D01*
X223965283Y-98828575D01*
X223917664Y-98971432D01*
X223346235Y-99542861D01*
X223965283Y-99542861D01*
X188254901Y-111258337D02*
X187254901Y-111258337D01*
X187254901Y-111020242D01*
X187302520Y-110877384D01*
X187397758Y-110782146D01*
X187492996Y-110734527D01*
X187683472Y-110686908D01*
X187826330Y-110686908D01*
X188016806Y-110734527D01*
X188112044Y-110782146D01*
X188207282Y-110877384D01*
X188254901Y-111020242D01*
X188254901Y-111258337D01*
X188207282Y-110305956D02*
X188254901Y-110163099D01*
X188254901Y-109925003D01*
X188207282Y-109829765D01*
X188159663Y-109782146D01*
X188064425Y-109734527D01*
X187969187Y-109734527D01*
X187873949Y-109782146D01*
X187826330Y-109829765D01*
X187778710Y-109925003D01*
X187731091Y-110115480D01*
X187683472Y-110210718D01*
X187635853Y-110258337D01*
X187540615Y-110305956D01*
X187445377Y-110305956D01*
X187350139Y-110258337D01*
X187302520Y-110210718D01*
X187254901Y-110115480D01*
X187254901Y-109877384D01*
X187302520Y-109734527D01*
X187254901Y-109401194D02*
X187254901Y-108782146D01*
X187635853Y-109115480D01*
X187635853Y-108972622D01*
X187683472Y-108877384D01*
X187731091Y-108829765D01*
X187826330Y-108782146D01*
X188064425Y-108782146D01*
X188159663Y-108829765D01*
X188207282Y-108877384D01*
X188254901Y-108972622D01*
X188254901Y-109258337D01*
X188207282Y-109353575D01*
X188159663Y-109401194D01*
X187350139Y-108401194D02*
X187302520Y-108353575D01*
X187254901Y-108258337D01*
X187254901Y-108020241D01*
X187302520Y-107925003D01*
X187350139Y-107877384D01*
X187445377Y-107829765D01*
X187540615Y-107829765D01*
X187683472Y-107877384D01*
X188254901Y-108448813D01*
X188254901Y-107829765D01*
X187254901Y-107496432D02*
X187254901Y-106877384D01*
X187635853Y-107210718D01*
X187635853Y-107067860D01*
X187683472Y-106972622D01*
X187731091Y-106925003D01*
X187826330Y-106877384D01*
X188064425Y-106877384D01*
X188159663Y-106925003D01*
X188207282Y-106972622D01*
X188254901Y-107067860D01*
X188254901Y-107353575D01*
X188207282Y-107448813D01*
X188159663Y-107496432D01*
X188254901Y-105925003D02*
X188254901Y-106496432D01*
X188254901Y-106210718D02*
X187254901Y-106210718D01*
X187397758Y-106305956D01*
X187492996Y-106401194D01*
X187540615Y-106496432D01*
X190882520Y-98475861D02*
X190406329Y-98475861D01*
X190406329Y-97475861D01*
X191692044Y-98475861D02*
X191215853Y-98475861D01*
X191215853Y-97475861D01*
X192453949Y-97809194D02*
X192453949Y-98475861D01*
X192215853Y-97428242D02*
X191977758Y-98142528D01*
X192596806Y-98142528D01*
X193501568Y-98475861D02*
X192930139Y-98475861D01*
X193215853Y-98475861D02*
X193215853Y-97475861D01*
X193120615Y-97618718D01*
X193025377Y-97713956D01*
X192930139Y-97761575D01*
X194358711Y-97809194D02*
X194358711Y-98475861D01*
X194120615Y-97428242D02*
X193882520Y-98142528D01*
X194501568Y-98142528D01*
X195025377Y-97904432D02*
X194930139Y-97856813D01*
X194882520Y-97809194D01*
X194834901Y-97713956D01*
X194834901Y-97666337D01*
X194882520Y-97571099D01*
X194930139Y-97523480D01*
X195025377Y-97475861D01*
X195215854Y-97475861D01*
X195311092Y-97523480D01*
X195358711Y-97571099D01*
X195406330Y-97666337D01*
X195406330Y-97713956D01*
X195358711Y-97809194D01*
X195311092Y-97856813D01*
X195215854Y-97904432D01*
X195025377Y-97904432D01*
X194930139Y-97952051D01*
X194882520Y-97999670D01*
X194834901Y-98094909D01*
X194834901Y-98285385D01*
X194882520Y-98380623D01*
X194930139Y-98428242D01*
X195025377Y-98475861D01*
X195215854Y-98475861D01*
X195311092Y-98428242D01*
X195358711Y-98380623D01*
X195406330Y-98285385D01*
X195406330Y-98094909D01*
X195358711Y-97999670D01*
X195311092Y-97952051D01*
X195215854Y-97904432D01*
X192144425Y-95375861D02*
X192144425Y-94375861D01*
X192382520Y-94375861D01*
X192525378Y-94423480D01*
X192620616Y-94518718D01*
X192668235Y-94613956D01*
X192715854Y-94804432D01*
X192715854Y-94947290D01*
X192668235Y-95137766D01*
X192620616Y-95233004D01*
X192525378Y-95328242D01*
X192382520Y-95375861D01*
X192144425Y-95375861D01*
X193572997Y-94709194D02*
X193572997Y-95375861D01*
X193334901Y-94328242D02*
X193096806Y-95042528D01*
X193715854Y-95042528D01*
X190882520Y-93751861D02*
X190406329Y-93751861D01*
X190406329Y-92751861D01*
X191692044Y-93751861D02*
X191215853Y-93751861D01*
X191215853Y-92751861D01*
X192453949Y-93085194D02*
X192453949Y-93751861D01*
X192215853Y-92704242D02*
X191977758Y-93418528D01*
X192596806Y-93418528D01*
X193501568Y-93751861D02*
X192930139Y-93751861D01*
X193215853Y-93751861D02*
X193215853Y-92751861D01*
X193120615Y-92894718D01*
X193025377Y-92989956D01*
X192930139Y-93037575D01*
X194358711Y-93085194D02*
X194358711Y-93751861D01*
X194120615Y-92704242D02*
X193882520Y-93418528D01*
X194501568Y-93418528D01*
X195025377Y-93180432D02*
X194930139Y-93132813D01*
X194882520Y-93085194D01*
X194834901Y-92989956D01*
X194834901Y-92942337D01*
X194882520Y-92847099D01*
X194930139Y-92799480D01*
X195025377Y-92751861D01*
X195215854Y-92751861D01*
X195311092Y-92799480D01*
X195358711Y-92847099D01*
X195406330Y-92942337D01*
X195406330Y-92989956D01*
X195358711Y-93085194D01*
X195311092Y-93132813D01*
X195215854Y-93180432D01*
X195025377Y-93180432D01*
X194930139Y-93228051D01*
X194882520Y-93275670D01*
X194834901Y-93370909D01*
X194834901Y-93561385D01*
X194882520Y-93656623D01*
X194930139Y-93704242D01*
X195025377Y-93751861D01*
X195215854Y-93751861D01*
X195311092Y-93704242D01*
X195358711Y-93656623D01*
X195406330Y-93561385D01*
X195406330Y-93370909D01*
X195358711Y-93275670D01*
X195311092Y-93228051D01*
X195215854Y-93180432D01*
X192144425Y-96851861D02*
X192144425Y-95851861D01*
X192382520Y-95851861D01*
X192525378Y-95899480D01*
X192620616Y-95994718D01*
X192668235Y-96089956D01*
X192715854Y-96280432D01*
X192715854Y-96423290D01*
X192668235Y-96613766D01*
X192620616Y-96709004D01*
X192525378Y-96804242D01*
X192382520Y-96851861D01*
X192144425Y-96851861D01*
X193049187Y-95851861D02*
X193668235Y-95851861D01*
X193334901Y-96232813D01*
X193477759Y-96232813D01*
X193572997Y-96280432D01*
X193620616Y-96328051D01*
X193668235Y-96423290D01*
X193668235Y-96661385D01*
X193620616Y-96756623D01*
X193572997Y-96804242D01*
X193477759Y-96851861D01*
X193192044Y-96851861D01*
X193096806Y-96804242D01*
X193049187Y-96756623D01*
X178968710Y-117941861D02*
X179635377Y-117941861D01*
X179206805Y-118941861D01*
X180444901Y-118275194D02*
X180444901Y-118941861D01*
X180206805Y-117894242D02*
X179968710Y-118608528D01*
X180587758Y-118608528D01*
X181444901Y-118941861D02*
X180968710Y-118941861D01*
X180968710Y-117941861D01*
X181635377Y-117941861D02*
X181968710Y-118941861D01*
X182302044Y-117941861D01*
X183206806Y-118846623D02*
X183159187Y-118894242D01*
X183016330Y-118941861D01*
X182921092Y-118941861D01*
X182778234Y-118894242D01*
X182682996Y-118799004D01*
X182635377Y-118703766D01*
X182587758Y-118513290D01*
X182587758Y-118370432D01*
X182635377Y-118179956D01*
X182682996Y-118084718D01*
X182778234Y-117989480D01*
X182921092Y-117941861D01*
X183016330Y-117941861D01*
X183159187Y-117989480D01*
X183206806Y-118037099D01*
X184159187Y-118941861D02*
X183587758Y-118941861D01*
X183873472Y-118941861D02*
X183873472Y-117941861D01*
X183778234Y-118084718D01*
X183682996Y-118179956D01*
X183587758Y-118227575D01*
X185111568Y-117989480D02*
X185016330Y-117941861D01*
X184873473Y-117941861D01*
X184730615Y-117989480D01*
X184635377Y-118084718D01*
X184587758Y-118179956D01*
X184540139Y-118370432D01*
X184540139Y-118513290D01*
X184587758Y-118703766D01*
X184635377Y-118799004D01*
X184730615Y-118894242D01*
X184873473Y-118941861D01*
X184968711Y-118941861D01*
X185111568Y-118894242D01*
X185159187Y-118846623D01*
X185159187Y-118513290D01*
X184968711Y-118513290D01*
X185492520Y-117941861D02*
X186111568Y-117941861D01*
X185778234Y-118322813D01*
X185921092Y-118322813D01*
X186016330Y-118370432D01*
X186063949Y-118418051D01*
X186111568Y-118513290D01*
X186111568Y-118751385D01*
X186063949Y-118846623D01*
X186016330Y-118894242D01*
X185921092Y-118941861D01*
X185635377Y-118941861D01*
X185540139Y-118894242D01*
X185492520Y-118846623D01*
X187063949Y-118941861D02*
X186492520Y-118941861D01*
X186778234Y-118941861D02*
X186778234Y-117941861D01*
X186682996Y-118084718D01*
X186587758Y-118179956D01*
X186492520Y-118227575D01*
X187968711Y-117941861D02*
X187492520Y-117941861D01*
X187444901Y-118418051D01*
X187492520Y-118370432D01*
X187587758Y-118322813D01*
X187825854Y-118322813D01*
X187921092Y-118370432D01*
X187968711Y-118418051D01*
X188016330Y-118513290D01*
X188016330Y-118751385D01*
X187968711Y-118846623D01*
X187921092Y-118894242D01*
X187825854Y-118941861D01*
X187587758Y-118941861D01*
X187492520Y-118894242D01*
X187444901Y-118846623D01*
X188349663Y-117941861D02*
X189016330Y-117941861D01*
X188587758Y-118941861D01*
X233927282Y-74142337D02*
X233974901Y-73999480D01*
X233974901Y-73761384D01*
X233927282Y-73666146D01*
X233879663Y-73618527D01*
X233784425Y-73570908D01*
X233689187Y-73570908D01*
X233593949Y-73618527D01*
X233546330Y-73666146D01*
X233498710Y-73761384D01*
X233451091Y-73951861D01*
X233403472Y-74047099D01*
X233355853Y-74094718D01*
X233260615Y-74142337D01*
X233165377Y-74142337D01*
X233070139Y-74094718D01*
X233022520Y-74047099D01*
X232974901Y-73951861D01*
X232974901Y-73713765D01*
X233022520Y-73570908D01*
X232974901Y-72951861D02*
X232974901Y-72761384D01*
X233022520Y-72666146D01*
X233117758Y-72570908D01*
X233308234Y-72523289D01*
X233641568Y-72523289D01*
X233832044Y-72570908D01*
X233927282Y-72666146D01*
X233974901Y-72761384D01*
X233974901Y-72951861D01*
X233927282Y-73047099D01*
X233832044Y-73142337D01*
X233641568Y-73189956D01*
X233308234Y-73189956D01*
X233117758Y-73142337D01*
X233022520Y-73047099D01*
X232974901Y-72951861D01*
X233974901Y-72094718D02*
X232974901Y-72094718D01*
X233879663Y-71047099D02*
X233927282Y-71094718D01*
X233974901Y-71237575D01*
X233974901Y-71332813D01*
X233927282Y-71475671D01*
X233832044Y-71570909D01*
X233736806Y-71618528D01*
X233546330Y-71666147D01*
X233403472Y-71666147D01*
X233212996Y-71618528D01*
X233117758Y-71570909D01*
X233022520Y-71475671D01*
X232974901Y-71332813D01*
X232974901Y-71237575D01*
X233022520Y-71094718D01*
X233070139Y-71047099D01*
X233593949Y-70618528D02*
X233593949Y-69856623D01*
X233974901Y-69380433D02*
X232974901Y-69380433D01*
X233689187Y-69047099D01*
X232974901Y-68713766D01*
X233974901Y-68713766D01*
X233974901Y-68237576D02*
X233308234Y-68237576D01*
X232974901Y-68237576D02*
X233022520Y-68285195D01*
X233070139Y-68237576D01*
X233022520Y-68189957D01*
X232974901Y-68237576D01*
X233070139Y-68237576D01*
X233927282Y-67332814D02*
X233974901Y-67428052D01*
X233974901Y-67618529D01*
X233927282Y-67713767D01*
X233879663Y-67761386D01*
X233784425Y-67809005D01*
X233498710Y-67809005D01*
X233403472Y-67761386D01*
X233355853Y-67713767D01*
X233308234Y-67618529D01*
X233308234Y-67428052D01*
X233355853Y-67332814D01*
X233974901Y-66904243D02*
X233308234Y-66904243D01*
X233498710Y-66904243D02*
X233403472Y-66856624D01*
X233355853Y-66809005D01*
X233308234Y-66713767D01*
X233308234Y-66618528D01*
X233974901Y-66142338D02*
X233927282Y-66237576D01*
X233879663Y-66285195D01*
X233784425Y-66332814D01*
X233498710Y-66332814D01*
X233403472Y-66285195D01*
X233355853Y-66237576D01*
X233308234Y-66142338D01*
X233308234Y-65999480D01*
X233355853Y-65904242D01*
X233403472Y-65856623D01*
X233498710Y-65809004D01*
X233784425Y-65809004D01*
X233879663Y-65856623D01*
X233927282Y-65904242D01*
X233974901Y-65999480D01*
X233974901Y-66142338D01*
X233403472Y-65237576D02*
X233355853Y-65332814D01*
X233308234Y-65380433D01*
X233212996Y-65428052D01*
X233165377Y-65428052D01*
X233070139Y-65380433D01*
X233022520Y-65332814D01*
X232974901Y-65237576D01*
X232974901Y-65047099D01*
X233022520Y-64951861D01*
X233070139Y-64904242D01*
X233165377Y-64856623D01*
X233212996Y-64856623D01*
X233308234Y-64904242D01*
X233355853Y-64951861D01*
X233403472Y-65047099D01*
X233403472Y-65237576D01*
X233451091Y-65332814D01*
X233498710Y-65380433D01*
X233593949Y-65428052D01*
X233784425Y-65428052D01*
X233879663Y-65380433D01*
X233927282Y-65332814D01*
X233974901Y-65237576D01*
X233974901Y-65047099D01*
X233927282Y-64951861D01*
X233879663Y-64904242D01*
X233784425Y-64856623D01*
X233593949Y-64856623D01*
X233498710Y-64904242D01*
X233451091Y-64951861D01*
X233403472Y-65047099D01*
M02*
