G04 #@! TF.FileFunction,Other,User*
%FSLAX46Y46*%
G04 Gerber Fmt 4.6, Leading zero omitted, Abs format (unit mm)*
G04 Created by KiCad (PCBNEW 4.0.7) date 11/20/17 08:28:58*
%MOMM*%
%LPD*%
G01*
G04 APERTURE LIST*
%ADD10C,0.100000*%
%ADD11C,0.050000*%
G04 APERTURE END LIST*
D10*
D11*
X208891520Y-114394480D02*
X208891520Y-109694480D01*
X208891520Y-109694480D02*
X206591520Y-109694480D01*
X206591520Y-109694480D02*
X206591520Y-114394480D01*
X208891520Y-114394480D02*
X206591520Y-114394480D01*
X211367520Y-113019480D02*
X211367520Y-117419480D01*
X213767520Y-113019480D02*
X213767520Y-117419480D01*
X211367520Y-113019480D02*
X213767520Y-113019480D01*
X211367520Y-117419480D02*
X213767520Y-117419480D01*
X208827520Y-113019480D02*
X208827520Y-117419480D01*
X211227520Y-113019480D02*
X211227520Y-117419480D01*
X208827520Y-113019480D02*
X211227520Y-113019480D01*
X208827520Y-117419480D02*
X211227520Y-117419480D01*
X220527520Y-113879480D02*
X224927520Y-113879480D01*
X220527520Y-111479480D02*
X224927520Y-111479480D01*
X220527520Y-113879480D02*
X220527520Y-111479480D01*
X224927520Y-113879480D02*
X224927520Y-111479480D01*
X220527520Y-111339480D02*
X224927520Y-111339480D01*
X220527520Y-108939480D02*
X224927520Y-108939480D01*
X220527520Y-111339480D02*
X220527520Y-108939480D01*
X224927520Y-111339480D02*
X224927520Y-108939480D01*
X214352520Y-111169480D02*
X214352520Y-106569480D01*
X212052520Y-111169480D02*
X212052520Y-106569480D01*
X214352520Y-111169480D02*
X212052520Y-111169480D01*
X214352520Y-106569480D02*
X212052520Y-106569480D01*
X214402520Y-105862480D02*
X214402520Y-101462480D01*
X212002520Y-105862480D02*
X212002520Y-101462480D01*
X214402520Y-105862480D02*
X212002520Y-105862480D01*
X214402520Y-101462480D02*
X212002520Y-101462480D01*
X224827520Y-105889480D02*
X220627520Y-105889480D01*
X224827520Y-101689480D02*
X220627520Y-101689480D01*
X220627520Y-101689480D02*
X220627520Y-105889480D01*
X224827520Y-101689480D02*
X224827520Y-105889480D01*
X212066520Y-100247480D02*
X212066520Y-95647480D01*
X209766520Y-100247480D02*
X209766520Y-95647480D01*
X212066520Y-100247480D02*
X209766520Y-100247480D01*
X212066520Y-95647480D02*
X209766520Y-95647480D01*
X209766520Y-90009480D02*
X209766520Y-94709480D01*
X209766520Y-94709480D02*
X212066520Y-94709480D01*
X212066520Y-94709480D02*
X212066520Y-90009480D01*
X209766520Y-90009480D02*
X212066520Y-90009480D01*
X223101520Y-78121480D02*
X223101520Y-82721480D01*
X225401520Y-78121480D02*
X225401520Y-82721480D01*
X223101520Y-78121480D02*
X225401520Y-78121480D01*
X223101520Y-82721480D02*
X225401520Y-82721480D01*
X225435520Y-72744480D02*
X221035520Y-72744480D01*
X225435520Y-75144480D02*
X221035520Y-75144480D01*
X225435520Y-72744480D02*
X225435520Y-75144480D01*
X221035520Y-72744480D02*
X221035520Y-75144480D01*
X223051520Y-68188480D02*
X223051520Y-72588480D01*
X225451520Y-68188480D02*
X225451520Y-72588480D01*
X223051520Y-68188480D02*
X225451520Y-68188480D01*
X223051520Y-72588480D02*
X225451520Y-72588480D01*
X212497520Y-81224480D02*
X212497520Y-76824480D01*
X210097520Y-81224480D02*
X210097520Y-76824480D01*
X212497520Y-81224480D02*
X210097520Y-81224480D01*
X212497520Y-76824480D02*
X210097520Y-76824480D01*
X209957520Y-81224480D02*
X209957520Y-76824480D01*
X207557520Y-81224480D02*
X207557520Y-76824480D01*
X209957520Y-81224480D02*
X207557520Y-81224480D01*
X209957520Y-76824480D02*
X207557520Y-76824480D01*
X217561520Y-75411480D02*
X213161520Y-75411480D01*
X217561520Y-77811480D02*
X213161520Y-77811480D01*
X217561520Y-75411480D02*
X217561520Y-77811480D01*
X213161520Y-75411480D02*
X213161520Y-77811480D01*
X210147520Y-71644480D02*
X210147520Y-76244480D01*
X212447520Y-71644480D02*
X212447520Y-76244480D01*
X210147520Y-71644480D02*
X212447520Y-71644480D01*
X210147520Y-76244480D02*
X212447520Y-76244480D01*
X207607520Y-71644480D02*
X207607520Y-76244480D01*
X209907520Y-71644480D02*
X209907520Y-76244480D01*
X207607520Y-71644480D02*
X209907520Y-71644480D01*
X207607520Y-76244480D02*
X209907520Y-76244480D01*
X211342520Y-65264480D02*
X220142520Y-65264480D01*
X211342520Y-72464480D02*
X211342520Y-65264480D01*
X220142520Y-72464480D02*
X211342520Y-72464480D01*
X220142520Y-65264480D02*
X220142520Y-72464480D01*
X209837520Y-65809480D02*
X205137520Y-65809480D01*
X205137520Y-65809480D02*
X205137520Y-68109480D01*
X205137520Y-68109480D02*
X209837520Y-68109480D01*
X209837520Y-65809480D02*
X209837520Y-68109480D01*
X197667520Y-68794480D02*
X202067520Y-68794480D01*
X197667520Y-66394480D02*
X202067520Y-66394480D01*
X197667520Y-68794480D02*
X197667520Y-66394480D01*
X202067520Y-68794480D02*
X202067520Y-66394480D01*
X198927520Y-76789480D02*
X198927520Y-82489480D01*
X198927520Y-82489480D02*
X195727520Y-82489480D01*
X195727520Y-82489480D02*
X195727520Y-76789480D01*
X195727520Y-76789480D02*
X198927520Y-76789480D01*
X177947520Y-74884480D02*
X191247520Y-74884480D01*
X191247520Y-74884480D02*
X191247520Y-80584480D01*
X191247520Y-80584480D02*
X177947520Y-80584480D01*
X177947520Y-80584480D02*
X177947520Y-74884480D01*
X194574520Y-97763480D02*
X190174520Y-97763480D01*
X194574520Y-100163480D02*
X190174520Y-100163480D01*
X194574520Y-97763480D02*
X194574520Y-100163480D01*
X190174520Y-97763480D02*
X190174520Y-100163480D01*
X183477520Y-97044480D02*
X183477520Y-101644480D01*
X185777520Y-97044480D02*
X185777520Y-101644480D01*
X183477520Y-97044480D02*
X185777520Y-97044480D01*
X183477520Y-101644480D02*
X185777520Y-101644480D01*
X184332520Y-104354480D02*
X188732520Y-104354480D01*
X184332520Y-101954480D02*
X188732520Y-101954480D01*
X184332520Y-104354480D02*
X184332520Y-101954480D01*
X188732520Y-104354480D02*
X188732520Y-101954480D01*
X194955520Y-105129480D02*
X190555520Y-105129480D01*
X194955520Y-107529480D02*
X190555520Y-107529480D01*
X194955520Y-105129480D02*
X194955520Y-107529480D01*
X190555520Y-105129480D02*
X190555520Y-107529480D01*
X184332520Y-108164480D02*
X188732520Y-108164480D01*
X184332520Y-105764480D02*
X188732520Y-105764480D01*
X184332520Y-108164480D02*
X184332520Y-105764480D01*
X188732520Y-108164480D02*
X188732520Y-105764480D01*
X180302520Y-104029480D02*
X180302520Y-108629480D01*
X182602520Y-104029480D02*
X182602520Y-108629480D01*
X180302520Y-104029480D02*
X182602520Y-104029480D01*
X180302520Y-108629480D02*
X182602520Y-108629480D01*
X165951520Y-114951480D02*
X165951520Y-119551480D01*
X168251520Y-114951480D02*
X168251520Y-119551480D01*
X165951520Y-114951480D02*
X168251520Y-114951480D01*
X165951520Y-119551480D02*
X168251520Y-119551480D01*
X158522520Y-107259480D02*
X158522520Y-102859480D01*
X156122520Y-107259480D02*
X156122520Y-102859480D01*
X158522520Y-107259480D02*
X156122520Y-107259480D01*
X158522520Y-102859480D02*
X156122520Y-102859480D01*
X151847520Y-112559480D02*
X156447520Y-112559480D01*
X151847520Y-110259480D02*
X156447520Y-110259480D01*
X151847520Y-112559480D02*
X151847520Y-110259480D01*
X156447520Y-112559480D02*
X156447520Y-110259480D01*
X152129520Y-99972480D02*
X147529520Y-99972480D01*
X152129520Y-102272480D02*
X147529520Y-102272480D01*
X152129520Y-99972480D02*
X152129520Y-102272480D01*
X147529520Y-99972480D02*
X147529520Y-102272480D01*
X161472520Y-98639480D02*
X165872520Y-98639480D01*
X161472520Y-96239480D02*
X165872520Y-96239480D01*
X161472520Y-98639480D02*
X161472520Y-96239480D01*
X165872520Y-98639480D02*
X165872520Y-96239480D01*
X158522520Y-95829480D02*
X158522520Y-91429480D01*
X156122520Y-95829480D02*
X156122520Y-91429480D01*
X158522520Y-95829480D02*
X156122520Y-95829480D01*
X158522520Y-91429480D02*
X156122520Y-91429480D01*
X154027520Y-95294480D02*
X154027520Y-90694480D01*
X151727520Y-95294480D02*
X151727520Y-90694480D01*
X154027520Y-95294480D02*
X151727520Y-95294480D01*
X154027520Y-90694480D02*
X151727520Y-90694480D01*
X148312520Y-95294480D02*
X148312520Y-90694480D01*
X146012520Y-95294480D02*
X146012520Y-90694480D01*
X148312520Y-95294480D02*
X146012520Y-95294480D01*
X148312520Y-90694480D02*
X146012520Y-90694480D01*
X146012520Y-84344480D02*
X146012520Y-88944480D01*
X148312520Y-84344480D02*
X148312520Y-88944480D01*
X146012520Y-84344480D02*
X148312520Y-84344480D01*
X146012520Y-88944480D02*
X148312520Y-88944480D01*
X151727520Y-84344480D02*
X151727520Y-88944480D01*
X154027520Y-84344480D02*
X154027520Y-88944480D01*
X151727520Y-84344480D02*
X154027520Y-84344480D01*
X151727520Y-88944480D02*
X154027520Y-88944480D01*
X161472520Y-87209480D02*
X165872520Y-87209480D01*
X161472520Y-84809480D02*
X165872520Y-84809480D01*
X161472520Y-87209480D02*
X161472520Y-84809480D01*
X165872520Y-87209480D02*
X165872520Y-84809480D01*
X158522520Y-84399480D02*
X158522520Y-79999480D01*
X156122520Y-84399480D02*
X156122520Y-79999480D01*
X158522520Y-84399480D02*
X156122520Y-84399480D01*
X158522520Y-79999480D02*
X156122520Y-79999480D01*
X156392520Y-75779480D02*
X160792520Y-75779480D01*
X156392520Y-73379480D02*
X160792520Y-73379480D01*
X156392520Y-75779480D02*
X156392520Y-73379480D01*
X160792520Y-75779480D02*
X160792520Y-73379480D01*
X161472520Y-75779480D02*
X165872520Y-75779480D01*
X161472520Y-73379480D02*
X165872520Y-73379480D01*
X161472520Y-75779480D02*
X161472520Y-73379480D01*
X165872520Y-75779480D02*
X165872520Y-73379480D01*
X146287520Y-79525480D02*
X141687520Y-79525480D01*
X146287520Y-81825480D02*
X141687520Y-81825480D01*
X146287520Y-79525480D02*
X146287520Y-81825480D01*
X141687520Y-79525480D02*
X141687520Y-81825480D01*
X144502520Y-86404480D02*
X144502520Y-81804480D01*
X142202520Y-86404480D02*
X142202520Y-81804480D01*
X144502520Y-86404480D02*
X142202520Y-86404480D01*
X144502520Y-81804480D02*
X142202520Y-81804480D01*
X147282520Y-77994480D02*
X147282520Y-82594480D01*
X149582520Y-77994480D02*
X149582520Y-82594480D01*
X147282520Y-77994480D02*
X149582520Y-77994480D01*
X147282520Y-82594480D02*
X149582520Y-82594480D01*
X149582520Y-76879480D02*
X149582520Y-72279480D01*
X147282520Y-76879480D02*
X147282520Y-72279480D01*
X149582520Y-76879480D02*
X147282520Y-76879480D01*
X149582520Y-72279480D02*
X147282520Y-72279480D01*
X158522520Y-72969480D02*
X158522520Y-68569480D01*
X156122520Y-72969480D02*
X156122520Y-68569480D01*
X158522520Y-72969480D02*
X156122520Y-72969480D01*
X158522520Y-68569480D02*
X156122520Y-68569480D01*
X146287520Y-69619480D02*
X141687520Y-69619480D01*
X146287520Y-71919480D02*
X141687520Y-71919480D01*
X146287520Y-69619480D02*
X146287520Y-71919480D01*
X141687520Y-69619480D02*
X141687520Y-71919480D01*
X156442520Y-87119480D02*
X160742520Y-87119480D01*
X156442520Y-87119480D02*
X156442520Y-84909480D01*
X160742520Y-84909480D02*
X160742520Y-87119480D01*
X160742520Y-84909480D02*
X156442520Y-84909480D01*
X156442520Y-98549480D02*
X160742520Y-98549480D01*
X156442520Y-98549480D02*
X156442520Y-96339480D01*
X160742520Y-96339480D02*
X160742520Y-98549480D01*
X160742520Y-96339480D02*
X156442520Y-96339480D01*
X161472520Y-110069480D02*
X165872520Y-110069480D01*
X161472520Y-107669480D02*
X165872520Y-107669480D01*
X161472520Y-110069480D02*
X161472520Y-107669480D01*
X165872520Y-110069480D02*
X165872520Y-107669480D01*
X156442520Y-109979480D02*
X160742520Y-109979480D01*
X156442520Y-109979480D02*
X156442520Y-107769480D01*
X160742520Y-107769480D02*
X160742520Y-109979480D01*
X160742520Y-107769480D02*
X156442520Y-107769480D01*
X168532520Y-67939480D02*
X168532520Y-63439480D01*
X168532520Y-67939480D02*
X166432520Y-67939480D01*
X166432520Y-63439480D02*
X168532520Y-63439480D01*
X166432520Y-63439480D02*
X166432520Y-67939480D01*
X144402520Y-91434480D02*
X144402520Y-86934480D01*
X144402520Y-91434480D02*
X142302520Y-91434480D01*
X142302520Y-86934480D02*
X144402520Y-86934480D01*
X142302520Y-86934480D02*
X142302520Y-91434480D01*
M02*
