G04 #@! TF.FileFunction,Other,User*
%FSLAX46Y46*%
G04 Gerber Fmt 4.6, Leading zero omitted, Abs format (unit mm)*
G04 Created by KiCad (PCBNEW 4.0.6) date 08/21/17 14:47:51*
%MOMM*%
%LPD*%
G01*
G04 APERTURE LIST*
%ADD10C,0.100000*%
%ADD11C,0.050000*%
G04 APERTURE END LIST*
D10*
D11*
X184332520Y-104354480D02*
X188732520Y-104354480D01*
X184332520Y-101954480D02*
X188732520Y-101954480D01*
X184332520Y-104354480D02*
X184332520Y-101954480D01*
X188732520Y-104354480D02*
X188732520Y-101954480D01*
X184332520Y-108164480D02*
X188732520Y-108164480D01*
X184332520Y-105764480D02*
X188732520Y-105764480D01*
X184332520Y-108164480D02*
X184332520Y-105764480D01*
X188732520Y-108164480D02*
X188732520Y-105764480D01*
X180302520Y-104029480D02*
X180302520Y-108629480D01*
X182602520Y-104029480D02*
X182602520Y-108629480D01*
X180302520Y-104029480D02*
X182602520Y-104029480D01*
X180302520Y-108629480D02*
X182602520Y-108629480D01*
X183477520Y-97044480D02*
X183477520Y-101644480D01*
X185777520Y-97044480D02*
X185777520Y-101644480D01*
X183477520Y-97044480D02*
X185777520Y-97044480D01*
X183477520Y-101644480D02*
X185777520Y-101644480D01*
X194413520Y-119805480D02*
X194413520Y-115205480D01*
X192113520Y-119805480D02*
X192113520Y-115205480D01*
X194413520Y-119805480D02*
X192113520Y-119805480D01*
X194413520Y-115205480D02*
X192113520Y-115205480D01*
X179681520Y-119805480D02*
X179681520Y-115205480D01*
X177381520Y-119805480D02*
X177381520Y-115205480D01*
X179681520Y-119805480D02*
X177381520Y-119805480D01*
X179681520Y-115205480D02*
X177381520Y-115205480D01*
X165951520Y-114951480D02*
X165951520Y-119551480D01*
X168251520Y-114951480D02*
X168251520Y-119551480D01*
X165951520Y-114951480D02*
X168251520Y-114951480D01*
X165951520Y-119551480D02*
X168251520Y-119551480D01*
X175617520Y-84245480D02*
X175617520Y-79645480D01*
X173317520Y-84245480D02*
X173317520Y-79645480D01*
X175617520Y-84245480D02*
X173317520Y-84245480D01*
X175617520Y-79645480D02*
X173317520Y-79645480D01*
X198302520Y-68159480D02*
X202702520Y-68159480D01*
X198302520Y-65759480D02*
X202702520Y-65759480D01*
X198302520Y-68159480D02*
X198302520Y-65759480D01*
X202702520Y-68159480D02*
X202702520Y-65759480D01*
X152129520Y-99972480D02*
X147529520Y-99972480D01*
X152129520Y-102272480D02*
X147529520Y-102272480D01*
X152129520Y-99972480D02*
X152129520Y-102272480D01*
X147529520Y-99972480D02*
X147529520Y-102272480D01*
X151367520Y-112799480D02*
X146767520Y-112799480D01*
X151367520Y-115099480D02*
X146767520Y-115099480D01*
X151367520Y-112799480D02*
X151367520Y-115099480D01*
X146767520Y-112799480D02*
X146767520Y-115099480D01*
X168532520Y-67939480D02*
X168532520Y-63439480D01*
X168532520Y-67939480D02*
X166432520Y-67939480D01*
X166432520Y-63439480D02*
X168532520Y-63439480D01*
X166432520Y-63439480D02*
X166432520Y-67939480D01*
X193187520Y-79964480D02*
X198887520Y-79964480D01*
X198887520Y-79964480D02*
X198887520Y-83164480D01*
X198887520Y-83164480D02*
X193187520Y-83164480D01*
X193187520Y-83164480D02*
X193187520Y-79964480D01*
X211367520Y-113019480D02*
X211367520Y-117419480D01*
X213767520Y-113019480D02*
X213767520Y-117419480D01*
X211367520Y-113019480D02*
X213767520Y-113019480D01*
X211367520Y-117419480D02*
X213767520Y-117419480D01*
X203867520Y-110019480D02*
X208567520Y-110019480D01*
X208567520Y-110019480D02*
X208567520Y-107719480D01*
X208567520Y-107719480D02*
X203867520Y-107719480D01*
X203867520Y-110019480D02*
X203867520Y-107719480D01*
X158522520Y-107259480D02*
X158522520Y-102859480D01*
X156122520Y-107259480D02*
X156122520Y-102859480D01*
X158522520Y-107259480D02*
X156122520Y-107259480D01*
X158522520Y-102859480D02*
X156122520Y-102859480D01*
X158522520Y-72969480D02*
X158522520Y-68569480D01*
X156122520Y-72969480D02*
X156122520Y-68569480D01*
X158522520Y-72969480D02*
X156122520Y-72969480D01*
X158522520Y-68569480D02*
X156122520Y-68569480D01*
X211342520Y-65264480D02*
X220142520Y-65264480D01*
X211342520Y-72464480D02*
X211342520Y-65264480D01*
X220142520Y-72464480D02*
X211342520Y-72464480D01*
X220142520Y-65264480D02*
X220142520Y-72464480D01*
X151727520Y-84344480D02*
X151727520Y-88944480D01*
X154027520Y-84344480D02*
X154027520Y-88944480D01*
X151727520Y-84344480D02*
X154027520Y-84344480D01*
X151727520Y-88944480D02*
X154027520Y-88944480D01*
X156442520Y-109979480D02*
X160742520Y-109979480D01*
X156442520Y-109979480D02*
X156442520Y-107769480D01*
X160742520Y-107769480D02*
X160742520Y-109979480D01*
X160742520Y-107769480D02*
X156442520Y-107769480D01*
X207557520Y-76189480D02*
X207557520Y-80589480D01*
X209957520Y-76189480D02*
X209957520Y-80589480D01*
X207557520Y-76189480D02*
X209957520Y-76189480D01*
X207557520Y-80589480D02*
X209957520Y-80589480D01*
X212497520Y-80589480D02*
X212497520Y-76189480D01*
X210097520Y-80589480D02*
X210097520Y-76189480D01*
X212497520Y-80589480D02*
X210097520Y-80589480D01*
X212497520Y-76189480D02*
X210097520Y-76189480D01*
X206845520Y-89805480D02*
X206845520Y-94405480D01*
X209145520Y-89805480D02*
X209145520Y-94405480D01*
X206845520Y-89805480D02*
X209145520Y-89805480D01*
X206845520Y-94405480D02*
X209145520Y-94405480D01*
X149582520Y-76879480D02*
X149582520Y-72279480D01*
X147282520Y-76879480D02*
X147282520Y-72279480D01*
X149582520Y-76879480D02*
X147282520Y-76879480D01*
X149582520Y-72279480D02*
X147282520Y-72279480D01*
X154027520Y-95294480D02*
X154027520Y-90694480D01*
X151727520Y-95294480D02*
X151727520Y-90694480D01*
X154027520Y-95294480D02*
X151727520Y-95294480D01*
X154027520Y-90694480D02*
X151727520Y-90694480D01*
X220527520Y-111339480D02*
X224927520Y-111339480D01*
X220527520Y-108939480D02*
X224927520Y-108939480D01*
X220527520Y-111339480D02*
X220527520Y-108939480D01*
X224927520Y-111339480D02*
X224927520Y-108939480D01*
X161472520Y-75779480D02*
X165872520Y-75779480D01*
X161472520Y-73379480D02*
X165872520Y-73379480D01*
X161472520Y-75779480D02*
X161472520Y-73379480D01*
X165872520Y-75779480D02*
X165872520Y-73379480D01*
X213957520Y-72914480D02*
X213957520Y-77514480D01*
X216257520Y-72914480D02*
X216257520Y-77514480D01*
X213957520Y-72914480D02*
X216257520Y-72914480D01*
X213957520Y-77514480D02*
X216257520Y-77514480D01*
X221337520Y-79419480D02*
X221337520Y-74819480D01*
X219037520Y-79419480D02*
X219037520Y-74819480D01*
X221337520Y-79419480D02*
X219037520Y-79419480D01*
X221337520Y-74819480D02*
X219037520Y-74819480D01*
X147282520Y-77994480D02*
X147282520Y-82594480D01*
X149582520Y-77994480D02*
X149582520Y-82594480D01*
X147282520Y-77994480D02*
X149582520Y-77994480D01*
X147282520Y-82594480D02*
X149582520Y-82594480D01*
X146287520Y-79525480D02*
X141687520Y-79525480D01*
X146287520Y-81825480D02*
X141687520Y-81825480D01*
X146287520Y-79525480D02*
X146287520Y-81825480D01*
X141687520Y-79525480D02*
X141687520Y-81825480D01*
X146287520Y-69619480D02*
X141687520Y-69619480D01*
X146287520Y-71919480D02*
X141687520Y-71919480D01*
X146287520Y-69619480D02*
X146287520Y-71919480D01*
X141687520Y-69619480D02*
X141687520Y-71919480D01*
X209907520Y-75609480D02*
X209907520Y-71009480D01*
X207607520Y-75609480D02*
X207607520Y-71009480D01*
X209907520Y-75609480D02*
X207607520Y-75609480D01*
X209907520Y-71009480D02*
X207607520Y-71009480D01*
X208827520Y-113019480D02*
X208827520Y-117419480D01*
X211227520Y-113019480D02*
X211227520Y-117419480D01*
X208827520Y-113019480D02*
X211227520Y-113019480D01*
X208827520Y-117419480D02*
X211227520Y-117419480D01*
X220527520Y-113879480D02*
X224927520Y-113879480D01*
X220527520Y-111479480D02*
X224927520Y-111479480D01*
X220527520Y-113879480D02*
X220527520Y-111479480D01*
X224927520Y-113879480D02*
X224927520Y-111479480D01*
X144502520Y-86404480D02*
X144502520Y-81804480D01*
X142202520Y-86404480D02*
X142202520Y-81804480D01*
X144502520Y-86404480D02*
X142202520Y-86404480D01*
X144502520Y-81804480D02*
X142202520Y-81804480D01*
X146012520Y-84344480D02*
X146012520Y-88944480D01*
X148312520Y-84344480D02*
X148312520Y-88944480D01*
X146012520Y-84344480D02*
X148312520Y-84344480D01*
X146012520Y-88944480D02*
X148312520Y-88944480D01*
X148312520Y-95294480D02*
X148312520Y-90694480D01*
X146012520Y-95294480D02*
X146012520Y-90694480D01*
X148312520Y-95294480D02*
X146012520Y-95294480D01*
X148312520Y-90694480D02*
X146012520Y-90694480D01*
X158522520Y-84399480D02*
X158522520Y-79999480D01*
X156122520Y-84399480D02*
X156122520Y-79999480D01*
X158522520Y-84399480D02*
X156122520Y-84399480D01*
X158522520Y-79999480D02*
X156122520Y-79999480D01*
X161472520Y-87209480D02*
X165872520Y-87209480D01*
X161472520Y-84809480D02*
X165872520Y-84809480D01*
X161472520Y-87209480D02*
X161472520Y-84809480D01*
X165872520Y-87209480D02*
X165872520Y-84809480D01*
X158522520Y-95829480D02*
X158522520Y-91429480D01*
X156122520Y-95829480D02*
X156122520Y-91429480D01*
X158522520Y-95829480D02*
X156122520Y-95829480D01*
X158522520Y-91429480D02*
X156122520Y-91429480D01*
X161472520Y-98639480D02*
X165872520Y-98639480D01*
X161472520Y-96239480D02*
X165872520Y-96239480D01*
X161472520Y-98639480D02*
X161472520Y-96239480D01*
X165872520Y-98639480D02*
X165872520Y-96239480D01*
X161472520Y-110069480D02*
X165872520Y-110069480D01*
X161472520Y-107669480D02*
X165872520Y-107669480D01*
X161472520Y-110069480D02*
X161472520Y-107669480D01*
X165872520Y-110069480D02*
X165872520Y-107669480D01*
X156392520Y-75779480D02*
X160792520Y-75779480D01*
X156392520Y-73379480D02*
X160792520Y-73379480D01*
X156392520Y-75779480D02*
X156392520Y-73379480D01*
X160792520Y-75779480D02*
X160792520Y-73379480D01*
X214777520Y-111739480D02*
X214777520Y-100939480D01*
X214777520Y-100939480D02*
X217977520Y-100939480D01*
X217977520Y-100939480D02*
X217977520Y-111739480D01*
X217977520Y-111739480D02*
X214777520Y-111739480D01*
X210357520Y-65359480D02*
X210357520Y-71059480D01*
X210357520Y-71059480D02*
X207157520Y-71059480D01*
X207157520Y-71059480D02*
X207157520Y-65359480D01*
X207157520Y-65359480D02*
X210357520Y-65359480D01*
X191907520Y-109574480D02*
X187507520Y-109574480D01*
X191907520Y-111974480D02*
X187507520Y-111974480D01*
X191907520Y-109574480D02*
X191907520Y-111974480D01*
X187507520Y-109574480D02*
X187507520Y-111974480D01*
X156442520Y-87119480D02*
X160742520Y-87119480D01*
X156442520Y-87119480D02*
X156442520Y-84909480D01*
X160742520Y-84909480D02*
X160742520Y-87119480D01*
X160742520Y-84909480D02*
X156442520Y-84909480D01*
X156442520Y-98549480D02*
X160742520Y-98549480D01*
X156442520Y-98549480D02*
X156442520Y-96339480D01*
X160742520Y-96339480D02*
X160742520Y-98549480D01*
X160742520Y-96339480D02*
X156442520Y-96339480D01*
X144402520Y-91434480D02*
X144402520Y-86934480D01*
X144402520Y-91434480D02*
X142302520Y-91434480D01*
X142302520Y-86934480D02*
X144402520Y-86934480D01*
X142302520Y-86934480D02*
X142302520Y-91434480D01*
X175407520Y-76154480D02*
X198907520Y-76154480D01*
X198907520Y-76154480D02*
X198907520Y-79354480D01*
X198907520Y-79354480D02*
X175407520Y-79354480D01*
X175407520Y-79354480D02*
X175407520Y-76154480D01*
M02*
