G04 #@! TF.FileFunction,Copper,L1,Top,Signal*
%FSLAX46Y46*%
G04 Gerber Fmt 4.6, Leading zero omitted, Abs format (unit mm)*
G04 Created by KiCad (PCBNEW 4.0.6) date 08/21/17 14:47:51*
%MOMM*%
%LPD*%
G01*
G04 APERTURE LIST*
%ADD10C,0.100000*%
%ADD11C,0.300000*%
%ADD12R,1.143000X0.508000*%
%ADD13C,1.700000*%
%ADD14R,1.700000X0.900000*%
%ADD15R,3.000000X0.650000*%
%ADD16R,1.700000X1.700000*%
%ADD17O,1.700000X1.700000*%
%ADD18R,1.600000X1.000000*%
%ADD19O,2.540000X2.032000*%
%ADD20R,1.597660X0.698500*%
%ADD21R,1.000000X1.600000*%
%ADD22C,1.440000*%
%ADD23C,1.524000*%
%ADD24R,0.900000X1.200000*%
%ADD25R,0.900000X1.700000*%
%ADD26R,1.200000X0.900000*%
%ADD27R,1.600000X3.500000*%
%ADD28R,1.980000X0.530000*%
%ADD29R,1.100000X0.600000*%
%ADD30R,1.500000X0.400000*%
%ADD31R,1.040000X0.380000*%
%ADD32C,0.800000*%
%ADD33C,1.000000*%
%ADD34C,0.650000*%
%ADD35C,0.500000*%
%ADD36C,0.310000*%
%ADD37C,1.000000*%
%ADD38C,0.210000*%
G04 APERTURE END LIST*
D10*
D11*
X165683236Y-58113051D02*
X165683236Y-56613051D01*
X166183236Y-57684480D01*
X166683236Y-56613051D01*
X166683236Y-58113051D01*
X167968950Y-58041623D02*
X167826093Y-58113051D01*
X167540379Y-58113051D01*
X167397522Y-58041623D01*
X167326093Y-57898766D01*
X167326093Y-57327337D01*
X167397522Y-57184480D01*
X167540379Y-57113051D01*
X167826093Y-57113051D01*
X167968950Y-57184480D01*
X168040379Y-57327337D01*
X168040379Y-57470194D01*
X167326093Y-57613051D01*
X169326093Y-57113051D02*
X169326093Y-58327337D01*
X169254664Y-58470194D01*
X169183236Y-58541623D01*
X169040379Y-58613051D01*
X168826093Y-58613051D01*
X168683236Y-58541623D01*
X169326093Y-58041623D02*
X169183236Y-58113051D01*
X168897522Y-58113051D01*
X168754664Y-58041623D01*
X168683236Y-57970194D01*
X168611807Y-57827337D01*
X168611807Y-57398766D01*
X168683236Y-57255909D01*
X168754664Y-57184480D01*
X168897522Y-57113051D01*
X169183236Y-57113051D01*
X169326093Y-57184480D01*
X170683236Y-58113051D02*
X170683236Y-57327337D01*
X170611807Y-57184480D01*
X170468950Y-57113051D01*
X170183236Y-57113051D01*
X170040379Y-57184480D01*
X170683236Y-58041623D02*
X170540379Y-58113051D01*
X170183236Y-58113051D01*
X170040379Y-58041623D01*
X169968950Y-57898766D01*
X169968950Y-57755909D01*
X170040379Y-57613051D01*
X170183236Y-57541623D01*
X170540379Y-57541623D01*
X170683236Y-57470194D01*
X173397522Y-57970194D02*
X173326093Y-58041623D01*
X173111807Y-58113051D01*
X172968950Y-58113051D01*
X172754665Y-58041623D01*
X172611807Y-57898766D01*
X172540379Y-57755909D01*
X172468950Y-57470194D01*
X172468950Y-57255909D01*
X172540379Y-56970194D01*
X172611807Y-56827337D01*
X172754665Y-56684480D01*
X172968950Y-56613051D01*
X173111807Y-56613051D01*
X173326093Y-56684480D01*
X173397522Y-56755909D01*
X174254665Y-58113051D02*
X174111807Y-58041623D01*
X174040379Y-57970194D01*
X173968950Y-57827337D01*
X173968950Y-57398766D01*
X174040379Y-57255909D01*
X174111807Y-57184480D01*
X174254665Y-57113051D01*
X174468950Y-57113051D01*
X174611807Y-57184480D01*
X174683236Y-57255909D01*
X174754665Y-57398766D01*
X174754665Y-57827337D01*
X174683236Y-57970194D01*
X174611807Y-58041623D01*
X174468950Y-58113051D01*
X174254665Y-58113051D01*
X175397522Y-58113051D02*
X175397522Y-57113051D01*
X175397522Y-57398766D02*
X175468950Y-57255909D01*
X175540379Y-57184480D01*
X175683236Y-57113051D01*
X175826093Y-57113051D01*
X176897521Y-58041623D02*
X176754664Y-58113051D01*
X176468950Y-58113051D01*
X176326093Y-58041623D01*
X176254664Y-57898766D01*
X176254664Y-57327337D01*
X176326093Y-57184480D01*
X176468950Y-57113051D01*
X176754664Y-57113051D01*
X176897521Y-57184480D01*
X176968950Y-57327337D01*
X176968950Y-57470194D01*
X176254664Y-57613051D01*
X178683235Y-56755909D02*
X178754664Y-56684480D01*
X178897521Y-56613051D01*
X179254664Y-56613051D01*
X179397521Y-56684480D01*
X179468950Y-56755909D01*
X179540378Y-56898766D01*
X179540378Y-57041623D01*
X179468950Y-57255909D01*
X178611807Y-58113051D01*
X179540378Y-58113051D01*
X180897521Y-56613051D02*
X180183235Y-56613051D01*
X180111806Y-57327337D01*
X180183235Y-57255909D01*
X180326092Y-57184480D01*
X180683235Y-57184480D01*
X180826092Y-57255909D01*
X180897521Y-57327337D01*
X180968949Y-57470194D01*
X180968949Y-57827337D01*
X180897521Y-57970194D01*
X180826092Y-58041623D01*
X180683235Y-58113051D01*
X180326092Y-58113051D01*
X180183235Y-58041623D01*
X180111806Y-57970194D01*
X182254663Y-56613051D02*
X181968949Y-56613051D01*
X181826092Y-56684480D01*
X181754663Y-56755909D01*
X181611806Y-56970194D01*
X181540377Y-57255909D01*
X181540377Y-57827337D01*
X181611806Y-57970194D01*
X181683234Y-58041623D01*
X181826092Y-58113051D01*
X182111806Y-58113051D01*
X182254663Y-58041623D01*
X182326092Y-57970194D01*
X182397520Y-57827337D01*
X182397520Y-57470194D01*
X182326092Y-57327337D01*
X182254663Y-57255909D01*
X182111806Y-57184480D01*
X181826092Y-57184480D01*
X181683234Y-57255909D01*
X181611806Y-57327337D01*
X181540377Y-57470194D01*
X183326091Y-56613051D02*
X183468948Y-56613051D01*
X183611805Y-56684480D01*
X183683234Y-56755909D01*
X183754663Y-56898766D01*
X183826091Y-57184480D01*
X183826091Y-57541623D01*
X183754663Y-57827337D01*
X183683234Y-57970194D01*
X183611805Y-58041623D01*
X183468948Y-58113051D01*
X183326091Y-58113051D01*
X183183234Y-58041623D01*
X183111805Y-57970194D01*
X183040377Y-57827337D01*
X182968948Y-57541623D01*
X182968948Y-57184480D01*
X183040377Y-56898766D01*
X183111805Y-56755909D01*
X183183234Y-56684480D01*
X183326091Y-56613051D01*
X185540376Y-58041623D02*
X185683233Y-58113051D01*
X185968948Y-58113051D01*
X186111805Y-58041623D01*
X186183233Y-57898766D01*
X186183233Y-57827337D01*
X186111805Y-57684480D01*
X185968948Y-57613051D01*
X185754662Y-57613051D01*
X185611805Y-57541623D01*
X185540376Y-57398766D01*
X185540376Y-57327337D01*
X185611805Y-57184480D01*
X185754662Y-57113051D01*
X185968948Y-57113051D01*
X186111805Y-57184480D01*
X186826091Y-58113051D02*
X186826091Y-56613051D01*
X187468948Y-58113051D02*
X187468948Y-57327337D01*
X187397519Y-57184480D01*
X187254662Y-57113051D01*
X187040377Y-57113051D01*
X186897519Y-57184480D01*
X186826091Y-57255909D01*
X188183234Y-58113051D02*
X188183234Y-57113051D01*
X188183234Y-56613051D02*
X188111805Y-56684480D01*
X188183234Y-56755909D01*
X188254662Y-56684480D01*
X188183234Y-56613051D01*
X188183234Y-56755909D01*
X189468948Y-58041623D02*
X189326091Y-58113051D01*
X189040377Y-58113051D01*
X188897520Y-58041623D01*
X188826091Y-57898766D01*
X188826091Y-57327337D01*
X188897520Y-57184480D01*
X189040377Y-57113051D01*
X189326091Y-57113051D01*
X189468948Y-57184480D01*
X189540377Y-57327337D01*
X189540377Y-57470194D01*
X188826091Y-57613051D01*
X190397520Y-58113051D02*
X190254662Y-58041623D01*
X190183234Y-57898766D01*
X190183234Y-56613051D01*
X191611805Y-58113051D02*
X191611805Y-56613051D01*
X191611805Y-58041623D02*
X191468948Y-58113051D01*
X191183234Y-58113051D01*
X191040376Y-58041623D01*
X190968948Y-57970194D01*
X190897519Y-57827337D01*
X190897519Y-57398766D01*
X190968948Y-57255909D01*
X191040376Y-57184480D01*
X191183234Y-57113051D01*
X191468948Y-57113051D01*
X191611805Y-57184480D01*
X194326091Y-57970194D02*
X194254662Y-58041623D01*
X194040376Y-58113051D01*
X193897519Y-58113051D01*
X193683234Y-58041623D01*
X193540376Y-57898766D01*
X193468948Y-57755909D01*
X193397519Y-57470194D01*
X193397519Y-57255909D01*
X193468948Y-56970194D01*
X193540376Y-56827337D01*
X193683234Y-56684480D01*
X193897519Y-56613051D01*
X194040376Y-56613051D01*
X194254662Y-56684480D01*
X194326091Y-56755909D01*
X195183234Y-58113051D02*
X195040376Y-58041623D01*
X194968948Y-57970194D01*
X194897519Y-57827337D01*
X194897519Y-57398766D01*
X194968948Y-57255909D01*
X195040376Y-57184480D01*
X195183234Y-57113051D01*
X195397519Y-57113051D01*
X195540376Y-57184480D01*
X195611805Y-57255909D01*
X195683234Y-57398766D01*
X195683234Y-57827337D01*
X195611805Y-57970194D01*
X195540376Y-58041623D01*
X195397519Y-58113051D01*
X195183234Y-58113051D01*
X196326091Y-57113051D02*
X196326091Y-58613051D01*
X196326091Y-57184480D02*
X196468948Y-57113051D01*
X196754662Y-57113051D01*
X196897519Y-57184480D01*
X196968948Y-57255909D01*
X197040377Y-57398766D01*
X197040377Y-57827337D01*
X196968948Y-57970194D01*
X196897519Y-58041623D01*
X196754662Y-58113051D01*
X196468948Y-58113051D01*
X196326091Y-58041623D01*
X197683234Y-57113051D02*
X197683234Y-58613051D01*
X197683234Y-57184480D02*
X197826091Y-57113051D01*
X198111805Y-57113051D01*
X198254662Y-57184480D01*
X198326091Y-57255909D01*
X198397520Y-57398766D01*
X198397520Y-57827337D01*
X198326091Y-57970194D01*
X198254662Y-58041623D01*
X198111805Y-58113051D01*
X197826091Y-58113051D01*
X197683234Y-58041623D01*
X199611805Y-58041623D02*
X199468948Y-58113051D01*
X199183234Y-58113051D01*
X199040377Y-58041623D01*
X198968948Y-57898766D01*
X198968948Y-57327337D01*
X199040377Y-57184480D01*
X199183234Y-57113051D01*
X199468948Y-57113051D01*
X199611805Y-57184480D01*
X199683234Y-57327337D01*
X199683234Y-57470194D01*
X198968948Y-57613051D01*
X200326091Y-58113051D02*
X200326091Y-57113051D01*
X200326091Y-57398766D02*
X200397519Y-57255909D01*
X200468948Y-57184480D01*
X200611805Y-57113051D01*
X200754662Y-57113051D01*
X203183233Y-58113051D02*
X202326090Y-58113051D01*
X202754662Y-58113051D02*
X202754662Y-56613051D01*
X202611805Y-56827337D01*
X202468947Y-56970194D01*
X202326090Y-57041623D01*
X204897518Y-56541623D02*
X203611804Y-58470194D01*
X205326090Y-56755909D02*
X205397519Y-56684480D01*
X205540376Y-56613051D01*
X205897519Y-56613051D01*
X206040376Y-56684480D01*
X206111805Y-56755909D01*
X206183233Y-56898766D01*
X206183233Y-57041623D01*
X206111805Y-57255909D01*
X205254662Y-58113051D01*
X206183233Y-58113051D01*
D12*
X245587520Y-89184480D03*
X245587520Y-91724480D03*
X245587520Y-92994480D03*
X245587520Y-94264480D03*
X245587520Y-95534480D03*
X245587520Y-96804480D03*
X245587520Y-98074480D03*
X239237520Y-98074480D03*
X239237520Y-96804480D03*
X239237520Y-95534480D03*
X239237520Y-94264480D03*
X239237520Y-92994480D03*
X239237520Y-91724480D03*
X239237520Y-90454480D03*
X239237520Y-89184480D03*
X245587520Y-90454480D03*
D13*
X195422520Y-86009480D03*
X195422520Y-88549480D03*
X176372520Y-86009480D03*
X176372520Y-88549480D03*
X176372520Y-93629480D03*
X176372520Y-98709480D03*
X176372520Y-113949480D03*
X176372520Y-116489480D03*
X176372520Y-119029480D03*
X195422520Y-119029480D03*
X195422520Y-116489480D03*
X195422520Y-113949480D03*
D14*
X194787520Y-104879480D03*
X194787520Y-107779480D03*
D15*
X189247520Y-98074480D03*
X189247520Y-99344480D03*
X189247520Y-100614480D03*
X189247520Y-101884480D03*
X182547520Y-101884480D03*
X182547520Y-100614480D03*
X182547520Y-99344480D03*
X182547520Y-98074480D03*
D16*
X197327520Y-106329480D03*
D17*
X197327520Y-103789480D03*
D13*
X187167520Y-73309480D03*
X189707520Y-73309480D03*
X192247520Y-73309480D03*
X194787520Y-73309480D03*
X197327520Y-73309480D03*
X184627520Y-73309480D03*
X182087520Y-73309480D03*
X179547520Y-73309480D03*
X177007520Y-73309480D03*
X174467520Y-73309480D03*
X197327520Y-70769480D03*
X194787520Y-70769480D03*
X192247520Y-70769480D03*
X189707520Y-70769480D03*
X187167520Y-70769480D03*
X184627520Y-70769480D03*
X182087520Y-70769480D03*
X179547520Y-70769480D03*
X177007520Y-70769480D03*
X174467520Y-70769480D03*
X199867520Y-70769480D03*
X199867520Y-73309480D03*
X199867520Y-75849480D03*
X199867520Y-78389480D03*
X199867520Y-80929480D03*
X199867520Y-83469480D03*
X199867520Y-86009480D03*
X199867520Y-88549480D03*
X199867520Y-91089480D03*
X199867520Y-93629480D03*
X199867520Y-96169480D03*
X199867520Y-98709480D03*
X199867520Y-101249480D03*
X199867520Y-103789480D03*
X199867520Y-106329480D03*
X199867520Y-108869480D03*
X199867520Y-111409480D03*
X199867520Y-113949480D03*
X199867520Y-116489480D03*
X199867520Y-119029480D03*
X202407520Y-70769480D03*
X202407520Y-73309480D03*
X202407520Y-75849480D03*
X202407520Y-78389480D03*
X202407520Y-80929480D03*
X202407520Y-83469480D03*
X202407520Y-86009480D03*
X202407520Y-88549480D03*
X202407520Y-91089480D03*
X202407520Y-93629480D03*
X202407520Y-96169480D03*
X202407520Y-98709480D03*
X202407520Y-101249480D03*
X202407520Y-103789480D03*
X202407520Y-106329480D03*
X202407520Y-108869480D03*
X202407520Y-111409480D03*
X202407520Y-113949480D03*
X202407520Y-116489480D03*
X202407520Y-119029480D03*
X171927520Y-70769480D03*
X171927520Y-73309480D03*
X171927520Y-75849480D03*
X171927520Y-78389480D03*
X171927520Y-80929480D03*
X171927520Y-83469480D03*
X171927520Y-86009480D03*
X171927520Y-88549480D03*
X171927520Y-91089480D03*
X171927520Y-93629480D03*
X171927520Y-96169480D03*
X171927520Y-98709480D03*
X171927520Y-101249480D03*
X171927520Y-103789480D03*
X171927520Y-106329480D03*
X171927520Y-108869480D03*
X171927520Y-111409480D03*
X171927520Y-113949480D03*
X171927520Y-116489480D03*
X171927520Y-119029480D03*
X169387520Y-119029480D03*
X169387520Y-116489480D03*
X169387520Y-113949480D03*
X169387520Y-111409480D03*
X169387520Y-108869480D03*
X169387520Y-106329480D03*
X169387520Y-103789480D03*
X169387520Y-101249480D03*
X169387520Y-98709480D03*
X169387520Y-96169480D03*
X169387520Y-93629480D03*
X169387520Y-91089480D03*
X169387520Y-88549480D03*
X169387520Y-86009480D03*
X169387520Y-83469480D03*
X169387520Y-80929480D03*
X169387520Y-78389480D03*
X169387520Y-75849480D03*
X169387520Y-73309480D03*
X169387520Y-70769480D03*
D18*
X197454520Y-114608480D03*
X197454520Y-117608480D03*
D16*
X154147520Y-108869480D03*
D17*
X151607520Y-108869480D03*
X149067520Y-108869480D03*
D16*
X154147520Y-103789480D03*
D17*
X151607520Y-103789480D03*
X149067520Y-103789480D03*
D16*
X154147520Y-106329480D03*
D17*
X151607520Y-106329480D03*
X149067520Y-106329480D03*
D19*
X225902520Y-74579480D03*
X225902520Y-77119480D03*
X225902520Y-72039480D03*
D16*
X150972520Y-73309480D03*
D17*
X153512520Y-73309480D03*
X150972520Y-75849480D03*
X153512520Y-75849480D03*
X150972520Y-78389480D03*
X153512520Y-78389480D03*
D16*
X142717520Y-73309480D03*
D17*
X145257520Y-73309480D03*
X142717520Y-75849480D03*
X145257520Y-75849480D03*
X142717520Y-78389480D03*
X145257520Y-78389480D03*
D20*
X146954240Y-86012020D03*
X146954240Y-87282020D03*
X146954240Y-88552020D03*
X146954240Y-89819480D03*
X146954240Y-91086940D03*
X146954240Y-92356940D03*
X146954240Y-93626940D03*
X152450800Y-93626940D03*
X152450800Y-92356940D03*
X152450800Y-91086940D03*
X152450800Y-89819480D03*
X152450800Y-88552020D03*
X152450800Y-87282020D03*
X152450800Y-86012020D03*
D16*
X205582520Y-78389480D03*
D17*
X205582520Y-75849480D03*
D16*
X226537520Y-112679480D03*
D17*
X226537520Y-110139480D03*
X226537520Y-107599480D03*
X226537520Y-105059480D03*
D16*
X205582520Y-88549480D03*
D17*
X205582520Y-86009480D03*
X208122520Y-88549480D03*
X208122520Y-86009480D03*
X210662520Y-88549480D03*
X210662520Y-86009480D03*
X213202520Y-88549480D03*
X213202520Y-86009480D03*
D16*
X208757520Y-64419480D03*
X208767520Y-82961480D03*
X211297520Y-64419480D03*
X211297520Y-82961480D03*
D13*
X219425520Y-64419480D03*
X219425520Y-82961480D03*
X221965520Y-64419480D03*
X221965520Y-82961480D03*
D16*
X210662520Y-98709480D03*
D17*
X210662520Y-96169480D03*
X210662520Y-93629480D03*
X210662520Y-91089480D03*
D21*
X151329520Y-101122480D03*
X148329520Y-101122480D03*
D22*
X159862520Y-66324480D03*
X162402520Y-66324480D03*
X164942520Y-66324480D03*
X149702520Y-117759480D03*
X152242520Y-117759480D03*
X154782520Y-117759480D03*
D16*
X210027520Y-105059480D03*
D17*
X210027520Y-107599480D03*
X210027520Y-110139480D03*
D16*
X194787520Y-81564480D03*
D17*
X197327520Y-81564480D03*
D22*
X159862520Y-106329480D03*
X162402520Y-106329480D03*
X164942520Y-106329480D03*
D16*
X142717520Y-119029480D03*
D17*
X145257520Y-116489480D03*
X142717520Y-116489480D03*
X145257520Y-113949480D03*
X142717520Y-113949480D03*
X145257520Y-111409480D03*
X142717520Y-111409480D03*
X145257520Y-108869480D03*
X142717520Y-108869480D03*
X145257520Y-106329480D03*
X142717520Y-106329480D03*
X145257520Y-103789480D03*
X142717520Y-103789480D03*
X145257520Y-101249480D03*
X142717520Y-101249480D03*
X145257520Y-98709480D03*
X142717520Y-98709480D03*
X145257520Y-96169480D03*
X142717520Y-96169480D03*
D13*
X145257520Y-119029480D03*
D22*
X159862520Y-72039480D03*
X162402520Y-72039480D03*
X164942520Y-72039480D03*
D23*
X162402520Y-100614480D03*
X164942520Y-100614480D03*
X159862520Y-100614480D03*
D16*
X213202520Y-102519480D03*
D17*
X213202520Y-105059480D03*
X213202520Y-107599480D03*
X213202520Y-110139480D03*
D16*
X205582520Y-98709480D03*
D17*
X205582520Y-96169480D03*
X205582520Y-93629480D03*
X205582520Y-91089480D03*
D16*
X171292520Y-66959480D03*
D17*
X171292520Y-64419480D03*
X173832520Y-66959480D03*
X173832520Y-64419480D03*
X176372520Y-66959480D03*
X176372520Y-64419480D03*
X178912520Y-66959480D03*
X178912520Y-64419480D03*
X181452520Y-66959480D03*
X181452520Y-64419480D03*
D16*
X184627520Y-66959480D03*
D17*
X184627520Y-64419480D03*
X187167520Y-66959480D03*
X187167520Y-64419480D03*
X189707520Y-66959480D03*
X189707520Y-64419480D03*
X192247520Y-66959480D03*
X192247520Y-64419480D03*
X194787520Y-66959480D03*
X194787520Y-64419480D03*
D23*
X162402520Y-112044480D03*
X164942520Y-112044480D03*
X159862520Y-112044480D03*
D18*
X215107520Y-116719480D03*
X215107520Y-113719480D03*
D21*
X224227520Y-107599480D03*
X221227520Y-107599480D03*
X224227520Y-110139480D03*
X221227520Y-110139480D03*
X224227520Y-112679480D03*
X221227520Y-112679480D03*
D18*
X212567520Y-116719480D03*
X212567520Y-113719480D03*
X210027520Y-116719480D03*
X210027520Y-113719480D03*
D21*
X192477520Y-84104480D03*
X189477520Y-84104480D03*
D18*
X218536520Y-102289480D03*
X218536520Y-105289480D03*
D24*
X219932520Y-91089480D03*
X216632520Y-91089480D03*
D25*
X201952520Y-64419480D03*
X199052520Y-64419480D03*
X201952520Y-66959480D03*
X199052520Y-66959480D03*
D14*
X207360520Y-127845480D03*
X207360520Y-124945480D03*
X213202520Y-127845480D03*
X213202520Y-124945480D03*
D25*
X177822520Y-101249480D03*
X174922520Y-101249480D03*
X177822520Y-91089480D03*
X174922520Y-91089480D03*
D14*
X143352520Y-90634480D03*
X143352520Y-87734480D03*
X143352520Y-85554480D03*
X143352520Y-82654480D03*
D23*
X162402520Y-77754480D03*
X164942520Y-77754480D03*
X159862520Y-77754480D03*
X162402520Y-89184480D03*
X164942520Y-89184480D03*
X159862520Y-89184480D03*
D16*
X147797520Y-68864480D03*
D17*
X150337520Y-68864480D03*
X152877520Y-68864480D03*
D25*
X216832520Y-93629480D03*
X219732520Y-93629480D03*
D16*
X205582520Y-106329480D03*
D17*
X205582520Y-103789480D03*
D16*
X216377520Y-110139480D03*
D17*
X216377520Y-107599480D03*
X216377520Y-105059480D03*
X216377520Y-102519480D03*
D16*
X205582520Y-111409480D03*
D17*
X205582520Y-113949480D03*
D16*
X179547520Y-81564480D03*
D17*
X182087520Y-81564480D03*
X184627520Y-81564480D03*
X187167520Y-81564480D03*
X189707520Y-81564480D03*
X192247520Y-81564480D03*
D16*
X164942520Y-116489480D03*
D17*
X164942520Y-119029480D03*
X162402520Y-116489480D03*
X162402520Y-119029480D03*
X159862520Y-116489480D03*
X159862520Y-119029480D03*
D16*
X208757520Y-66959480D03*
D17*
X208757520Y-69499480D03*
D16*
X205582520Y-64419480D03*
D17*
X205582520Y-66959480D03*
X205582520Y-69499480D03*
X205582520Y-72039480D03*
D16*
X226537520Y-101884480D03*
D17*
X223997520Y-101884480D03*
X221457520Y-101884480D03*
D16*
X210027520Y-119029480D03*
D17*
X212567520Y-119029480D03*
X215107520Y-119029480D03*
X217647520Y-119029480D03*
D26*
X211551520Y-66579480D03*
X211551520Y-69879480D03*
D16*
X218282520Y-88549480D03*
D17*
X218282520Y-86009480D03*
X220822520Y-88549480D03*
X220822520Y-86009480D03*
X223362520Y-88549480D03*
X223362520Y-86009480D03*
X225902520Y-88549480D03*
X225902520Y-86009480D03*
D27*
X216377520Y-71564480D03*
X216377520Y-66164480D03*
D22*
X159862520Y-83469480D03*
X162402520Y-83469480D03*
X164942520Y-83469480D03*
X159862520Y-94899480D03*
X162402520Y-94899480D03*
X164942520Y-94899480D03*
D18*
X217393520Y-124768480D03*
X217393520Y-127768480D03*
D27*
X220187520Y-79819480D03*
X220187520Y-74419480D03*
X213202520Y-74419480D03*
X213202520Y-79819480D03*
D16*
X177007520Y-77754480D03*
D17*
X179547520Y-77754480D03*
X182087520Y-77754480D03*
X184627520Y-77754480D03*
X187167520Y-77754480D03*
X189707520Y-77754480D03*
X192247520Y-77754480D03*
X194787520Y-77754480D03*
X197327520Y-77754480D03*
D13*
X226537520Y-91152980D03*
X226537520Y-93692980D03*
X226537520Y-96232980D03*
D16*
X226537520Y-98772980D03*
D13*
X213202520Y-91102180D03*
X213202520Y-93642180D03*
X213202520Y-96182180D03*
X213202520Y-98722180D03*
X213202520Y-98722180D03*
X213202520Y-96182180D03*
X213202520Y-93642180D03*
X213202520Y-91102180D03*
D28*
X181212520Y-103789480D03*
X181212520Y-105059480D03*
X181212520Y-106329480D03*
X181212520Y-107599480D03*
X181212520Y-108869480D03*
X181212520Y-110139480D03*
X181212520Y-111409480D03*
X181212520Y-112679480D03*
X190582520Y-112679480D03*
X190582520Y-111409480D03*
X190582520Y-110139480D03*
X190582520Y-108869480D03*
X190582520Y-107599480D03*
X190582520Y-106329480D03*
X190582520Y-105059480D03*
X190582520Y-103789480D03*
D29*
X193982520Y-96423480D03*
X191782520Y-96423480D03*
X191782520Y-94899480D03*
X193982520Y-94899480D03*
D30*
X182662520Y-115839480D03*
X182662520Y-116489480D03*
X182662520Y-117139480D03*
X185322520Y-117139480D03*
X185322520Y-116489480D03*
X185322520Y-115839480D03*
D31*
X236912520Y-68524480D03*
X236912520Y-69174480D03*
X236912520Y-69824480D03*
X236912520Y-70474480D03*
X232672520Y-70474480D03*
X232672520Y-69824480D03*
X232672520Y-69174480D03*
X232672520Y-68524480D03*
D32*
X154401520Y-89819480D03*
D33*
X216885520Y-113695480D03*
X221711520Y-105948480D03*
X180690520Y-115092480D03*
X188437520Y-112679480D03*
X183357520Y-107599480D03*
X183357520Y-112679480D03*
X191739520Y-97820480D03*
X186532520Y-100106480D03*
X180182520Y-101884480D03*
X215107520Y-79786480D03*
X175991520Y-83850480D03*
X197454520Y-113187480D03*
X149829520Y-100487480D03*
X181071520Y-68737480D03*
X164942520Y-68229480D03*
X221965520Y-74452480D03*
D34*
X143987520Y-70261480D03*
X148432520Y-74579480D03*
X143352520Y-84104480D03*
X206217520Y-108869480D03*
D33*
X219489020Y-98010980D03*
X220314520Y-105313480D03*
X187802520Y-115854480D03*
X189707520Y-119029480D03*
X183357520Y-105059480D03*
X189707520Y-95534480D03*
X186532520Y-98074480D03*
X209392520Y-73309480D03*
X174467520Y-79151480D03*
X150845520Y-98582480D03*
X148051520Y-98582480D03*
D34*
X148813520Y-90327480D03*
D33*
X158084520Y-113568480D03*
D34*
X145130520Y-90327480D03*
D33*
X218028520Y-80294480D03*
D34*
X167609520Y-105186480D03*
X154401520Y-86644480D03*
X154401520Y-93629480D03*
X174213520Y-84739480D03*
X147289520Y-83469480D03*
X145260060Y-93626940D03*
X148178520Y-83469480D03*
X186786520Y-95026480D03*
X205074520Y-117505480D03*
X205836520Y-116743480D03*
X206979520Y-116743480D03*
X224759520Y-100233480D03*
X205074520Y-84231480D03*
X206979520Y-82707480D03*
X206979520Y-81691480D03*
X179039520Y-111409480D03*
X214218520Y-89819480D03*
X216631520Y-89692480D03*
X195676520Y-111536480D03*
X174086520Y-81691480D03*
X151734520Y-81437480D03*
X150337520Y-96423480D03*
X173324520Y-76103480D03*
X173324520Y-86771480D03*
X168117520Y-99979480D03*
X180182520Y-88168480D03*
X149829520Y-80167480D03*
X154274520Y-71277480D03*
X179039520Y-101249480D03*
X180563520Y-91597480D03*
X218409520Y-112171480D03*
X198597520Y-89819480D03*
X196819520Y-111536480D03*
X179293520Y-92359480D03*
X200502520Y-66324480D03*
X194660520Y-111536480D03*
X194660520Y-109377480D03*
X218409520Y-113187480D03*
X166593520Y-101884480D03*
X168117520Y-87279480D03*
X152623520Y-101122480D03*
X167609520Y-106456480D03*
X182087520Y-94391480D03*
X178785520Y-94391480D03*
X179039520Y-97439480D03*
X185516520Y-95788480D03*
X183738520Y-94391480D03*
X179801520Y-95407480D03*
X203677520Y-94899480D03*
X168117520Y-102011480D03*
X152623520Y-100106480D03*
D33*
X166593520Y-120299480D03*
X156306520Y-119918480D03*
X222727520Y-114584480D03*
X214853520Y-101249480D03*
D34*
X154655520Y-96804480D03*
X155544520Y-89819480D03*
X154401520Y-92740480D03*
X155290520Y-69753480D03*
X218282520Y-93629480D03*
D33*
X211297520Y-73309480D03*
D34*
X197327520Y-66959480D03*
X197962520Y-83469480D03*
X221330520Y-93121480D03*
X192755520Y-107853480D03*
X191612520Y-117124480D03*
X156179520Y-100106480D03*
X152242520Y-98074480D03*
X153004520Y-80421480D03*
X155671520Y-95661480D03*
X157322520Y-70769480D03*
X157322520Y-76738480D03*
X148432520Y-77500480D03*
X144241520Y-89057480D03*
X146400520Y-83469480D03*
X161132520Y-80040480D03*
X149067520Y-83469480D03*
X155671520Y-83469480D03*
X145257520Y-92359480D03*
X154401520Y-91724480D03*
X154401520Y-88144480D03*
X192755520Y-110774480D03*
X158592520Y-75214480D03*
X158592520Y-87025480D03*
X158338520Y-97312480D03*
X158719520Y-107599480D03*
X166339520Y-72039480D03*
X192247520Y-99344480D03*
X191612520Y-101884480D03*
X192882520Y-105059480D03*
X192882520Y-100614480D03*
X192882520Y-103789480D03*
X183357520Y-106329480D03*
X183357520Y-103789480D03*
D33*
X221584520Y-68864480D03*
X214472520Y-63784480D03*
X213647020Y-71848980D03*
D35*
X152450800Y-89819480D02*
X154147520Y-89819480D01*
X154147520Y-89819480D02*
X154401520Y-89819480D01*
X215107520Y-113719480D02*
X215131520Y-113695480D01*
X215131520Y-113695480D02*
X216885520Y-113695480D01*
X221227520Y-107599480D02*
X221227520Y-106432480D01*
X221227520Y-106432480D02*
X221711520Y-105948480D01*
D36*
X182662520Y-116489480D02*
X181071520Y-116489480D01*
X180690520Y-116108480D02*
X180690520Y-115092480D01*
X181071520Y-116489480D02*
X180690520Y-116108480D01*
D35*
X190582520Y-108869480D02*
X188437520Y-108869480D01*
X190582520Y-110139480D02*
X188437520Y-110139480D01*
X190582520Y-111409480D02*
X188437520Y-111409480D01*
X190582520Y-107599480D02*
X189072520Y-107599480D01*
X188437520Y-112679480D02*
X190582520Y-112679480D01*
X188437520Y-108234480D02*
X188437520Y-108869480D01*
X188437520Y-108869480D02*
X188437520Y-110139480D01*
X188437520Y-110139480D02*
X188437520Y-111409480D01*
X188437520Y-111409480D02*
X188437520Y-112679480D01*
X189072520Y-107599480D02*
X188437520Y-108234480D01*
X181212520Y-111409480D02*
X183357520Y-111409480D01*
X181212520Y-110139480D02*
X183357520Y-110139480D01*
X181212520Y-108869480D02*
X182722520Y-108869480D01*
X183357520Y-112679480D02*
X181212520Y-112679480D01*
X183357520Y-109504480D02*
X183357520Y-110139480D01*
X183357520Y-110139480D02*
X183357520Y-111409480D01*
X183357520Y-111409480D02*
X183357520Y-112679480D01*
X182722520Y-108869480D02*
X183357520Y-109504480D01*
X191782520Y-96423480D02*
X191782520Y-97777480D01*
X191782520Y-97777480D02*
X191739520Y-97820480D01*
X187294520Y-99344480D02*
X189247520Y-99344480D01*
X186532520Y-100106480D02*
X187294520Y-99344480D01*
X182547520Y-100614480D02*
X180182520Y-100614480D01*
X180182520Y-100614480D02*
X180309520Y-100614480D01*
X180309520Y-100614480D02*
X180182520Y-100614480D01*
X182547520Y-99344480D02*
X180182520Y-99344480D01*
X180182520Y-99344480D02*
X180182520Y-99471480D01*
X182547520Y-98074480D02*
X180563520Y-98074480D01*
X180182520Y-101884480D02*
X182222520Y-101884480D01*
X180182520Y-98455480D02*
X180182520Y-99471480D01*
X180182520Y-99471480D02*
X180182520Y-100614480D01*
X180182520Y-100614480D02*
X180182520Y-101884480D01*
X180563520Y-98074480D02*
X180182520Y-98455480D01*
D37*
X213202520Y-79819480D02*
X215074520Y-79819480D01*
X215074520Y-79819480D02*
X215107520Y-79786480D01*
D35*
X197454520Y-114608480D02*
X197454520Y-113187480D01*
X148329520Y-101122480D02*
X149194520Y-101122480D01*
X149194520Y-101122480D02*
X149829520Y-100487480D01*
D37*
X171927520Y-70769480D02*
X171927520Y-69753480D01*
X172943520Y-68737480D02*
X181071520Y-68737480D01*
X171927520Y-69753480D02*
X172943520Y-68737480D01*
X169387520Y-70769480D02*
X166847520Y-68229480D01*
X166847520Y-68229480D02*
X164942520Y-68229480D01*
D35*
X171927520Y-70769480D02*
X171927520Y-70515480D01*
D37*
X169387520Y-70769480D02*
X171927520Y-70769480D01*
X220187520Y-74419480D02*
X221932520Y-74419480D01*
X221932520Y-74419480D02*
X221965520Y-74452480D01*
X216377520Y-66164480D02*
X217680520Y-66164480D01*
X217680520Y-66164480D02*
X219425520Y-64419480D01*
D35*
X216377520Y-102519480D02*
X218306520Y-102519480D01*
X218306520Y-102519480D02*
X218536520Y-102289480D01*
X221227520Y-110139480D02*
X221227520Y-112679480D01*
X221227520Y-107599480D02*
X221227520Y-110139480D01*
X143352520Y-82654480D02*
X143352520Y-84104480D01*
X212567520Y-113719480D02*
X215107520Y-113719480D01*
X210027520Y-113719480D02*
X212567520Y-113719480D01*
D37*
X192477520Y-84104480D02*
X192477520Y-81794480D01*
X192477520Y-81794480D02*
X192247520Y-81564480D01*
X215361520Y-87406480D02*
X215361520Y-82961480D01*
X215361520Y-92232480D02*
X215361520Y-87406480D01*
D35*
X220290520Y-105289480D02*
X220314520Y-105313480D01*
X218536520Y-105289480D02*
X220290520Y-105289480D01*
D36*
X185322520Y-116489480D02*
X186532520Y-116489480D01*
X186532520Y-116489480D02*
X187167520Y-115854480D01*
X187167520Y-115854480D02*
X187802520Y-115854480D01*
D35*
X183357520Y-105059480D02*
X181212520Y-105059480D01*
X191782520Y-94899480D02*
X190342520Y-94899480D01*
X190342520Y-94899480D02*
X189707520Y-95534480D01*
X189247520Y-98074480D02*
X186532520Y-98074480D01*
X208821020Y-80357980D02*
X208821020Y-73880980D01*
X208821020Y-73880980D02*
X209392520Y-73309480D01*
X197454520Y-117608480D02*
X197454520Y-119029480D01*
X176348520Y-119005480D02*
X176372520Y-119029480D01*
X148051520Y-98582480D02*
X150845520Y-98582480D01*
X159608520Y-120426480D02*
X158973520Y-120426480D01*
X163545520Y-120426480D02*
X159608520Y-120426480D01*
X164942520Y-119029480D02*
X163545520Y-120426480D01*
X158084520Y-119537480D02*
X158084520Y-113568480D01*
X158973520Y-120426480D02*
X158084520Y-119537480D01*
X148305520Y-89819480D02*
X148813520Y-90327480D01*
X146954240Y-89819480D02*
X148305520Y-89819480D01*
X158338520Y-113314480D02*
X158084520Y-113568480D01*
X163672520Y-113314480D02*
X164942520Y-112044480D01*
X163672520Y-113314480D02*
X158338520Y-113314480D01*
X208821020Y-80357980D02*
X208767520Y-80411480D01*
X208767520Y-82961480D02*
X208767520Y-80411480D01*
D37*
X215361520Y-92232480D02*
X215361520Y-95928180D01*
X215107520Y-96182180D02*
X215361520Y-95928180D01*
D35*
X205582520Y-93629480D02*
X208122520Y-93629480D01*
X208122520Y-93629480D02*
X210662520Y-96169480D01*
X169387520Y-119029480D02*
X164942520Y-119029480D01*
D37*
X223202520Y-79819480D02*
X223202520Y-81531480D01*
X224251520Y-85120480D02*
X223362520Y-86009480D01*
X224251520Y-82580480D02*
X224251520Y-85120480D01*
X223202520Y-81531480D02*
X224251520Y-82580480D01*
X215755220Y-96182180D02*
X217660220Y-96182180D01*
X217660220Y-96182180D02*
X219489020Y-98010980D01*
X224696020Y-95534480D02*
X224061020Y-96169480D01*
X224696020Y-95534480D02*
X226537520Y-93692980D01*
X224061020Y-96169480D02*
X221330520Y-96169480D01*
X221330520Y-96169480D02*
X219489020Y-98010980D01*
X211297520Y-82961480D02*
X214980520Y-82961480D01*
X218503520Y-79819480D02*
X220187520Y-79819480D01*
X218028520Y-80294480D02*
X218503520Y-79819480D01*
X214980520Y-82961480D02*
X215361520Y-82961480D01*
X215361520Y-82961480D02*
X218028520Y-80294480D01*
X208767520Y-82961480D02*
X211297520Y-82961480D01*
X220187520Y-79819480D02*
X222092520Y-79819480D01*
X222092520Y-79819480D02*
X223202520Y-79819480D01*
X223202520Y-79819480D02*
X225902520Y-77119480D01*
D35*
X216377520Y-105059480D02*
X218306520Y-105059480D01*
X218306520Y-105059480D02*
X218536520Y-105289480D01*
D37*
X215107520Y-96182180D02*
X215107520Y-96169480D01*
X213202520Y-96182180D02*
X215107520Y-96182180D01*
X215755220Y-96182180D02*
X215120220Y-96182180D01*
X215120220Y-96182180D02*
X215107520Y-96169480D01*
X210662520Y-96169480D02*
X213189820Y-96169480D01*
X213189820Y-96169480D02*
X213202520Y-96182180D01*
D35*
X143352520Y-90634480D02*
X144823520Y-90634480D01*
X144823520Y-90634480D02*
X145130520Y-90327480D01*
D37*
X189477520Y-84104480D02*
X178023520Y-84104480D01*
X174467520Y-79786480D02*
X174467520Y-79151480D01*
X174467520Y-79151480D02*
X174467520Y-73309480D01*
X175991520Y-81310480D02*
X174467520Y-79786480D01*
X175991520Y-82072480D02*
X175991520Y-81310480D01*
X178023520Y-84104480D02*
X175991520Y-82072480D01*
D35*
X145638520Y-89819480D02*
X146954240Y-89819480D01*
X145130520Y-90327480D02*
X145638520Y-89819480D01*
D37*
X190342520Y-119029480D02*
X189707520Y-119029480D01*
X195422520Y-119029480D02*
X190342520Y-119029480D01*
X189707520Y-119029480D02*
X182087520Y-119029480D01*
X182087520Y-119029480D02*
X176372520Y-119029480D01*
X199867520Y-119029480D02*
X202407520Y-119029480D01*
X195422520Y-119029480D02*
X197454520Y-119029480D01*
X197454520Y-119029480D02*
X199867520Y-119029480D01*
X189477520Y-84104480D02*
X189477520Y-83064480D01*
X189707520Y-82834480D02*
X189707520Y-81564480D01*
X189477520Y-83064480D02*
X189707520Y-82834480D01*
D38*
X166466520Y-106329480D02*
X164942520Y-106329480D01*
X167609520Y-105186480D02*
X166466520Y-106329480D01*
X162402520Y-106329480D02*
X164942520Y-106329480D01*
X165958520Y-87787480D02*
X155544520Y-87787480D01*
X155544520Y-87787480D02*
X154401520Y-86644480D01*
X153639520Y-86012020D02*
X153639520Y-86009480D01*
X153769060Y-86012020D02*
X154401520Y-86644480D01*
X153769060Y-86012020D02*
X153642060Y-86012020D01*
X153642060Y-86012020D02*
X153639520Y-86009480D01*
X169387520Y-88549480D02*
X166720520Y-88549480D01*
X166720520Y-88549480D02*
X165958520Y-87787480D01*
X152450800Y-86012020D02*
X153639520Y-86012020D01*
X173261020Y-87977980D02*
X173261020Y-89247980D01*
X166085520Y-91978480D02*
X166085520Y-93756480D01*
X168244520Y-89819480D02*
X166085520Y-91978480D01*
X172689520Y-89819480D02*
X168244520Y-89819480D01*
X173261020Y-89247980D02*
X172689520Y-89819480D01*
X154401520Y-93629480D02*
X154401520Y-93626940D01*
X169387520Y-86009480D02*
X170022520Y-86009480D01*
X170022520Y-86009480D02*
X171292520Y-87279480D01*
X171292520Y-87279480D02*
X172562520Y-87279480D01*
X166085520Y-93756480D02*
X164942520Y-94899480D01*
X172562520Y-87279480D02*
X173261020Y-87977980D01*
X155417520Y-93629480D02*
X161132520Y-93629480D01*
X161132520Y-93629480D02*
X162402520Y-94899480D01*
X155414980Y-93626940D02*
X154401520Y-93626940D01*
X155417520Y-93629480D02*
X155414980Y-93626940D01*
X154401520Y-93626940D02*
X152450800Y-93626940D01*
X162402520Y-94899480D02*
X164942520Y-94899480D01*
X172816520Y-84739480D02*
X170657520Y-84739480D01*
X170657520Y-84739480D02*
X169387520Y-83469480D01*
X174213520Y-84739480D02*
X172816520Y-84739480D01*
X171927520Y-83469480D02*
X171292520Y-83469480D01*
X171292520Y-83469480D02*
X170022520Y-82199480D01*
X147289520Y-82961480D02*
X148051520Y-82199480D01*
X148051520Y-82199480D02*
X148432520Y-82199480D01*
X157195520Y-81564480D02*
X156687520Y-81564480D01*
X171927520Y-83469480D02*
X170657520Y-82199480D01*
X170657520Y-82199480D02*
X170022520Y-82199480D01*
X170022520Y-82199480D02*
X168117520Y-82199480D01*
X157195520Y-81564480D02*
X167482520Y-81564480D01*
X167482520Y-81564480D02*
X168117520Y-82199480D01*
X156687520Y-81564480D02*
X156052520Y-82199480D01*
X156052520Y-82199480D02*
X148432520Y-82199480D01*
X147289520Y-83469480D02*
X147289520Y-82961480D01*
X146954240Y-86012020D02*
X146954240Y-83804760D01*
X146954240Y-83804760D02*
X147289520Y-83469480D01*
X158973520Y-82199480D02*
X157449520Y-82199480D01*
X148178520Y-83469480D02*
X148178520Y-83088480D01*
X161132520Y-82199480D02*
X162402520Y-83469480D01*
X161132520Y-82199480D02*
X158973520Y-82199480D01*
X157449520Y-82199480D02*
X156941520Y-82707480D01*
X156941520Y-82707480D02*
X148559520Y-82707480D01*
X148559520Y-82707480D02*
X148178520Y-83088480D01*
X170022520Y-84739480D02*
X171292520Y-86009480D01*
X171292520Y-86009480D02*
X171927520Y-86009480D01*
X164942520Y-83469480D02*
X166847520Y-83469480D01*
X168117520Y-84739480D02*
X170022520Y-84739480D01*
X166847520Y-83469480D02*
X168117520Y-84739480D01*
X162402520Y-83469480D02*
X164942520Y-83469480D01*
X145260060Y-93626940D02*
X146954240Y-93626940D01*
X187167520Y-73309480D02*
X185897520Y-72039480D01*
X185897520Y-68229480D02*
X187167520Y-66959480D01*
X185897520Y-72039480D02*
X185897520Y-68229480D01*
X196057520Y-69499480D02*
X197962520Y-69499480D01*
X198597520Y-70134480D02*
X198597520Y-74579480D01*
X197962520Y-69499480D02*
X198597520Y-70134480D01*
X194152520Y-68864480D02*
X192247520Y-66959480D01*
X195422520Y-68864480D02*
X194152520Y-68864480D01*
X196057520Y-69499480D02*
X195422520Y-68864480D01*
X199867520Y-75849480D02*
X198597520Y-74579480D01*
X201137520Y-72547480D02*
X201137520Y-69499480D01*
X193517520Y-65689480D02*
X192247520Y-64419480D01*
X195422520Y-65689480D02*
X193517520Y-65689480D01*
X196057520Y-66324480D02*
X195422520Y-65689480D01*
X196057520Y-67594480D02*
X196057520Y-66324480D01*
X197327520Y-68864480D02*
X196057520Y-67594480D01*
X200502520Y-68864480D02*
X197327520Y-68864480D01*
X201137520Y-69499480D02*
X200502520Y-68864480D01*
X201137520Y-72547480D02*
X201137520Y-74579480D01*
X202407520Y-75849480D02*
X201137520Y-74579480D01*
X175801020Y-96867980D02*
X172689520Y-99979480D01*
X172689520Y-99979480D02*
X171800520Y-99979480D01*
X183484520Y-96677480D02*
X175991520Y-96677480D01*
X175991520Y-96677480D02*
X175801020Y-96867980D01*
X170657520Y-99979480D02*
X169387520Y-101249480D01*
X171800520Y-99979480D02*
X170657520Y-99979480D01*
X186786520Y-95026480D02*
X185135520Y-95026480D01*
X185135520Y-95026480D02*
X183484520Y-96677480D01*
X213329520Y-120807480D02*
X208376520Y-120807480D01*
X208376520Y-120807480D02*
X205074520Y-117505480D01*
X213329520Y-120807480D02*
X215107520Y-119029480D01*
X215107520Y-116719480D02*
X215107520Y-119029480D01*
X209392520Y-120299480D02*
X208630520Y-120299480D01*
X205836520Y-117505480D02*
X205836520Y-116743480D01*
X208630520Y-120299480D02*
X205836520Y-117505480D01*
X209392520Y-120299480D02*
X211297520Y-120299480D01*
X211297520Y-120299480D02*
X212567520Y-119029480D01*
X212567520Y-116719480D02*
X212567520Y-119029480D01*
X210027520Y-119029480D02*
X208503520Y-119029480D01*
X206979520Y-117505480D02*
X206979520Y-116743480D01*
X208503520Y-119029480D02*
X206979520Y-117505480D01*
X209797520Y-116489480D02*
X210027520Y-116719480D01*
X210027520Y-116719480D02*
X210027520Y-119029480D01*
X222727520Y-106710480D02*
X222727520Y-105694480D01*
X220822520Y-103789480D02*
X211297520Y-103789480D01*
X222727520Y-105694480D02*
X220822520Y-103789480D01*
X222727520Y-106710480D02*
X222727520Y-107218480D01*
X222727520Y-107218480D02*
X223108520Y-107599480D01*
X223108520Y-107599480D02*
X224227520Y-107599480D01*
X210789520Y-103789480D02*
X211297520Y-103789480D01*
X202407520Y-101249480D02*
X203804520Y-101249480D01*
X203804520Y-101249480D02*
X204693520Y-101249480D01*
X206344520Y-101249480D02*
X208884520Y-103789480D01*
X208884520Y-103789480D02*
X210789520Y-103789480D01*
X204693520Y-101249480D02*
X206344520Y-101249480D01*
X224227520Y-107599480D02*
X226537520Y-107599480D01*
X223489520Y-99725480D02*
X224251520Y-99725480D01*
X224251520Y-99725480D02*
X224759520Y-100233480D01*
X214472520Y-100233480D02*
X214980520Y-99725480D01*
X214980520Y-99725480D02*
X223489520Y-99725480D01*
X214472520Y-100233480D02*
X203804520Y-100233480D01*
X199867520Y-101249480D02*
X201137520Y-99979480D01*
X203042520Y-99979480D02*
X203550520Y-99979480D01*
X203550520Y-99979480D02*
X203804520Y-100233480D01*
X201137520Y-99979480D02*
X203042520Y-99979480D01*
X224227520Y-110139480D02*
X226537520Y-110139480D01*
X222727520Y-113060480D02*
X222219520Y-113568480D01*
X222219520Y-113568480D02*
X221838520Y-113949480D01*
X219425520Y-111790480D02*
X219425520Y-112933480D01*
X218282520Y-111409480D02*
X208376520Y-111409480D01*
X207868520Y-110901480D02*
X207106520Y-110139480D01*
X206725520Y-110139480D02*
X207106520Y-110139480D01*
X202280520Y-107599480D02*
X201137520Y-107599480D01*
X199867520Y-106329480D02*
X201137520Y-107599480D01*
X206725520Y-110139480D02*
X205074520Y-110139480D01*
X203169520Y-107599480D02*
X202280520Y-107599480D01*
X203804520Y-108234480D02*
X203169520Y-107599480D01*
X203804520Y-108869480D02*
X203804520Y-108234480D01*
X205074520Y-110139480D02*
X203804520Y-108869480D01*
X208376520Y-111409480D02*
X207868520Y-110901480D01*
X219425520Y-111790480D02*
X219044520Y-111409480D01*
X219044520Y-111409480D02*
X218282520Y-111409480D01*
X220441520Y-113949480D02*
X221838520Y-113949480D01*
X219425520Y-112933480D02*
X220441520Y-113949480D01*
X223108520Y-112679480D02*
X224227520Y-112679480D01*
X222727520Y-113060480D02*
X223108520Y-112679480D01*
X224227520Y-112679480D02*
X226537520Y-112679480D01*
X205074520Y-83469480D02*
X205328520Y-83469480D01*
X205328520Y-83469480D02*
X206852520Y-84993480D01*
X206852520Y-84993480D02*
X206852520Y-85501480D01*
X202407520Y-83469480D02*
X205074520Y-83469480D01*
X206852520Y-87279480D02*
X208122520Y-88549480D01*
X206852520Y-85501480D02*
X206852520Y-87279480D01*
X200629520Y-83469480D02*
X201899520Y-84739480D01*
X201899520Y-84739480D02*
X204566520Y-84739480D01*
X204566520Y-84739480D02*
X205074520Y-84231480D01*
X199867520Y-83469480D02*
X200629520Y-83469480D01*
X207741520Y-84231480D02*
X207487520Y-84231480D01*
X207487520Y-84231480D02*
X204185520Y-80929480D01*
X211043520Y-84485480D02*
X210789520Y-84231480D01*
X210789520Y-84231480D02*
X207741520Y-84231480D01*
X202407520Y-80929480D02*
X204185520Y-80929480D01*
X211932520Y-87279480D02*
X210662520Y-88549480D01*
X211932520Y-85374480D02*
X211932520Y-87279480D01*
X211043520Y-84485480D02*
X211932520Y-85374480D01*
X207487520Y-84739480D02*
X207233520Y-84739480D01*
X204693520Y-82199480D02*
X204185520Y-82199480D01*
X207233520Y-84739480D02*
X204693520Y-82199480D01*
X210662520Y-86009480D02*
X209392520Y-84739480D01*
X201137520Y-82199480D02*
X199867520Y-80929480D01*
X204185520Y-82199480D02*
X201137520Y-82199480D01*
X209392520Y-84739480D02*
X207487520Y-84739480D01*
X206979520Y-82707480D02*
X204693520Y-80421480D01*
X204693520Y-80421480D02*
X204185520Y-80421480D01*
X202407520Y-79659480D02*
X202915520Y-79659480D01*
X203677520Y-80421480D02*
X204185520Y-80421480D01*
X202915520Y-79659480D02*
X203677520Y-80421480D01*
X201137520Y-79659480D02*
X199867520Y-78389480D01*
X202407520Y-79659480D02*
X201137520Y-79659480D01*
X206979520Y-81691480D02*
X205201520Y-79913480D01*
X205201520Y-79913480D02*
X204566520Y-79913480D01*
X205201520Y-79913480D02*
X204947520Y-79913480D01*
X204947520Y-79913480D02*
X204566520Y-79913480D01*
X204566520Y-79913480D02*
X203931520Y-79913480D01*
X203931520Y-79913480D02*
X202407520Y-78389480D01*
X179039520Y-111409480D02*
X171927520Y-111409480D01*
X219932520Y-91089480D02*
X219552520Y-90709480D01*
X219552520Y-90709480D02*
X219552520Y-87279480D01*
X219552520Y-87279480D02*
X220822520Y-86009480D01*
X216632520Y-91089480D02*
X216632520Y-89693480D01*
X216632520Y-89693480D02*
X216631520Y-89692480D01*
X207106520Y-89819480D02*
X214218520Y-89819480D01*
X201137520Y-87279480D02*
X199867520Y-86009480D01*
X203296520Y-87279480D02*
X201137520Y-87279480D01*
X203804520Y-87787480D02*
X203296520Y-87279480D01*
X203804520Y-89184480D02*
X203804520Y-87787480D01*
X204439520Y-89819480D02*
X203804520Y-89184480D01*
X207106520Y-89819480D02*
X204439520Y-89819480D01*
X194978020Y-112234980D02*
X194343020Y-112234980D01*
X194343020Y-112234980D02*
X193771520Y-112806480D01*
X195676520Y-111536480D02*
X194978020Y-112234980D01*
X183723520Y-117139480D02*
X182662520Y-117139480D01*
X192374520Y-114203480D02*
X193771520Y-112806480D01*
X183723520Y-117139480D02*
X183992520Y-116870480D01*
X183992520Y-116870480D02*
X183992520Y-114838480D01*
X183992520Y-114838480D02*
X184627520Y-114203480D01*
X184627520Y-114203480D02*
X192374520Y-114203480D01*
X183357520Y-68991480D02*
X183357520Y-66832480D01*
X165577520Y-65689480D02*
X164942520Y-66324480D01*
X182214520Y-65689480D02*
X165577520Y-65689480D01*
X183357520Y-66832480D02*
X182214520Y-65689480D01*
X183357520Y-69753480D02*
X183357520Y-68991480D01*
X183357520Y-72039480D02*
X182087520Y-73309480D01*
X183357520Y-69753480D02*
X183357520Y-72039480D01*
X170657520Y-81056480D02*
X170657520Y-81437480D01*
X170657520Y-81437480D02*
X171419520Y-82199480D01*
X172054520Y-82199480D02*
X173578520Y-82199480D01*
X173578520Y-82199480D02*
X174086520Y-81691480D01*
X155925520Y-81691480D02*
X151988520Y-81691480D01*
X169641520Y-79659480D02*
X170149520Y-79659480D01*
X170657520Y-80167480D02*
X170657520Y-81056480D01*
X170149520Y-79659480D02*
X170657520Y-80167480D01*
X167228520Y-81056480D02*
X168625520Y-79659480D01*
X156560520Y-81056480D02*
X167228520Y-81056480D01*
X156179520Y-81437480D02*
X156560520Y-81056480D01*
X169641520Y-79659480D02*
X168625520Y-79659480D01*
X156179520Y-81437480D02*
X155925520Y-81691480D01*
X171419520Y-82199480D02*
X172054520Y-82199480D01*
X151988520Y-81691480D02*
X151734520Y-81437480D01*
X145511520Y-97439480D02*
X146273520Y-97439480D01*
X146273520Y-97439480D02*
X147289520Y-96423480D01*
X147289520Y-96423480D02*
X147543520Y-96423480D01*
X148813520Y-96423480D02*
X147543520Y-96423480D01*
X150337520Y-96423480D02*
X148813520Y-96423480D01*
X142717520Y-98709480D02*
X143987520Y-97439480D01*
X145511520Y-97439480D02*
X143987520Y-97439480D01*
X155798520Y-98582480D02*
X153893520Y-98582480D01*
X153893520Y-98582480D02*
X152623520Y-97312480D01*
X158973520Y-98582480D02*
X155798520Y-98582480D01*
X174848520Y-81437480D02*
X175102520Y-81691480D01*
X175102520Y-84993480D02*
X173959520Y-86136480D01*
X175102520Y-84485480D02*
X175102520Y-84993480D01*
X175102520Y-81691480D02*
X175102520Y-84485480D01*
X174848520Y-81437480D02*
X173197520Y-79786480D01*
X173959520Y-86136480D02*
X173324520Y-86771480D01*
X173197520Y-79532480D02*
X173197520Y-79786480D01*
X173197520Y-77627480D02*
X173197520Y-79024480D01*
X173197520Y-79024480D02*
X173197520Y-79532480D01*
X173197520Y-76865480D02*
X173197520Y-77627480D01*
X173197520Y-76230480D02*
X173197520Y-76865480D01*
X173324520Y-76103480D02*
X173197520Y-76230480D01*
X147035520Y-98328480D02*
X147035520Y-99471480D01*
X148051520Y-97693480D02*
X147670520Y-97693480D01*
X147670520Y-97693480D02*
X147289520Y-98074480D01*
X148051520Y-97693480D02*
X150337520Y-97693480D01*
X147289520Y-98074480D02*
X147035520Y-98328480D01*
X150972520Y-97693480D02*
X151353520Y-97312480D01*
X151353520Y-97312480D02*
X152623520Y-97312480D01*
X150337520Y-97693480D02*
X150972520Y-97693480D01*
X166720520Y-98582480D02*
X168117520Y-99979480D01*
X166720520Y-98582480D02*
X158973520Y-98582480D01*
X147035520Y-99471480D02*
X147035520Y-99344480D01*
X147035520Y-99344480D02*
X147035520Y-99471480D01*
X147035520Y-99471480D02*
X146527520Y-99979480D01*
X143987520Y-99979480D02*
X142717520Y-101249480D01*
X146527520Y-99979480D02*
X143987520Y-99979480D01*
X154274520Y-96105980D02*
X154973020Y-96105980D01*
X154973020Y-96105980D02*
X156941520Y-98074480D01*
X164307520Y-98074480D02*
X164815520Y-97566480D01*
X156941520Y-98074480D02*
X164307520Y-98074480D01*
X164815520Y-97566480D02*
X165450520Y-96931480D01*
X179039520Y-88168480D02*
X180182520Y-88168480D01*
X177388520Y-89819480D02*
X179039520Y-88168480D01*
X176626520Y-89819480D02*
X177388520Y-89819480D01*
X173705520Y-91343480D02*
X173705520Y-90073480D01*
X165450520Y-96931480D02*
X167609520Y-94772480D01*
X167609520Y-94772480D02*
X167609520Y-93121480D01*
X167609520Y-93121480D02*
X168371520Y-92359480D01*
X168371520Y-92359480D02*
X172689520Y-92359480D01*
X173705520Y-91343480D02*
X172689520Y-92359480D01*
X173705520Y-90073480D02*
X173959520Y-89819480D01*
X173959520Y-89819480D02*
X176626520Y-89819480D01*
X151290020Y-96105980D02*
X154274520Y-96105980D01*
X150718520Y-95534480D02*
X145892520Y-95534480D01*
X151290020Y-96105980D02*
X150718520Y-95534480D01*
X145892520Y-95534480D02*
X145257520Y-96169480D01*
X172435520Y-74579480D02*
X168371520Y-74579480D01*
X173197520Y-73817480D02*
X172435520Y-74579480D01*
X173197520Y-72674480D02*
X173197520Y-73817480D01*
X173832520Y-72039480D02*
X173197520Y-72674480D01*
X178277520Y-72039480D02*
X173832520Y-72039480D01*
X168371520Y-74579480D02*
X167990520Y-74579480D01*
X179547520Y-70769480D02*
X178277520Y-72039480D01*
X150210520Y-79786480D02*
X150337520Y-79659480D01*
X150337520Y-79659480D02*
X156052520Y-79659480D01*
X156052520Y-79659480D02*
X156433520Y-79278480D01*
X156433520Y-79278480D02*
X165323520Y-79278480D01*
X165323520Y-79278480D02*
X166974520Y-77627480D01*
X166974520Y-77627480D02*
X166974520Y-75595480D01*
X166974520Y-75595480D02*
X167990520Y-74579480D01*
X149829520Y-80167480D02*
X150210520Y-79786480D01*
X156179520Y-70515480D02*
X155417520Y-71277480D01*
X155417520Y-71277480D02*
X154274520Y-71277480D01*
X156179520Y-70515480D02*
X156814520Y-69880480D01*
X173197520Y-70261480D02*
X173197520Y-71404480D01*
X166212520Y-69880480D02*
X156814520Y-69880480D01*
X168371520Y-72039480D02*
X166212520Y-69880480D01*
X172562520Y-72039480D02*
X168371520Y-72039480D01*
X175801020Y-69562980D02*
X173896020Y-69562980D01*
X173896020Y-69562980D02*
X173832520Y-69626480D01*
X177007520Y-70769480D02*
X175801020Y-69562980D01*
X173832520Y-69626480D02*
X173197520Y-70261480D01*
X173197520Y-71404480D02*
X172562520Y-72039480D01*
X177822520Y-101249480D02*
X179039520Y-101249480D01*
X198343520Y-88549480D02*
X199867520Y-88549480D01*
X195295520Y-91597480D02*
X198343520Y-88549480D01*
X180563520Y-91597480D02*
X195295520Y-91597480D01*
X218155520Y-111917480D02*
X217647520Y-111917480D01*
X218409520Y-112171480D02*
X218155520Y-111917480D01*
X217774520Y-111917480D02*
X217647520Y-111917480D01*
X217647520Y-111917480D02*
X217393520Y-111917480D01*
X207614520Y-111917480D02*
X206852520Y-112679480D01*
X217774520Y-111917480D02*
X217393520Y-111917480D01*
X217393520Y-111917480D02*
X207614520Y-111917480D01*
X204947520Y-112679480D02*
X201137520Y-112679480D01*
X206852520Y-112679480D02*
X204947520Y-112679480D01*
X201137520Y-112679480D02*
X199867520Y-113949480D01*
X181071520Y-89311480D02*
X179293520Y-91089480D01*
X183992520Y-88549480D02*
X181833520Y-88549480D01*
X179293520Y-91089480D02*
X177822520Y-91089480D01*
X181833520Y-88549480D02*
X181071520Y-89311480D01*
X200502520Y-84739480D02*
X201772520Y-86009480D01*
X198597520Y-84739480D02*
X200502520Y-84739480D01*
X197962520Y-85374480D02*
X198597520Y-84739480D01*
X197962520Y-86009480D02*
X197962520Y-85374480D01*
X196692520Y-87279480D02*
X197962520Y-86009480D01*
X194152520Y-87279480D02*
X196692520Y-87279480D01*
X192882520Y-88549480D02*
X194152520Y-87279480D01*
X183992520Y-88549480D02*
X192882520Y-88549480D01*
X201772520Y-86009480D02*
X202407520Y-86009480D01*
X198597520Y-89819480D02*
X201137520Y-89819480D01*
X201137520Y-89819480D02*
X202407520Y-88549480D01*
X193517520Y-114076480D02*
X194914520Y-112679480D01*
X194914520Y-112679480D02*
X195676520Y-112679480D01*
X195676520Y-112679480D02*
X196819520Y-111536480D01*
X186039520Y-115839480D02*
X187040520Y-114838480D01*
X187040520Y-114838480D02*
X192755520Y-114838480D01*
X192755520Y-114838480D02*
X193517520Y-114076480D01*
X185322520Y-115839480D02*
X186039520Y-115839480D01*
X200502520Y-92359480D02*
X201137520Y-92359480D01*
X201137520Y-92359480D02*
X202407520Y-91089480D01*
X191485520Y-92359480D02*
X179293520Y-92359480D01*
X200502520Y-92359480D02*
X191739520Y-92359480D01*
X191739520Y-92359480D02*
X191485520Y-92359480D01*
X199052520Y-64419480D02*
X199867520Y-64419480D01*
X200502520Y-65054480D02*
X200502520Y-66324480D01*
X199867520Y-64419480D02*
X200502520Y-65054480D01*
X192501520Y-113187480D02*
X194152520Y-111536480D01*
X194152520Y-111536480D02*
X194660520Y-111536480D01*
X191993520Y-113695480D02*
X192501520Y-113187480D01*
X182662520Y-115092480D02*
X182662520Y-114517480D01*
X183484520Y-113695480D02*
X191993520Y-113695480D01*
X182662520Y-114517480D02*
X183484520Y-113695480D01*
X201645520Y-108869480D02*
X200375520Y-107599480D01*
X200375520Y-107599480D02*
X198724520Y-107599480D01*
X198724520Y-107599480D02*
X197454520Y-108869480D01*
X194660520Y-109377480D02*
X196946520Y-109377480D01*
X196946520Y-109377480D02*
X197454520Y-108869480D01*
X182662520Y-115092480D02*
X182662520Y-115839480D01*
X202407520Y-108869480D02*
X201645520Y-108869480D01*
X216885520Y-112425480D02*
X217647520Y-112425480D01*
X217647520Y-112425480D02*
X218409520Y-113187480D01*
X208376520Y-112425480D02*
X207741520Y-113060480D01*
X216885520Y-112425480D02*
X208376520Y-112425480D01*
X202407520Y-116489480D02*
X203296520Y-116489480D01*
X207741520Y-113060480D02*
X207233520Y-113568480D01*
X207233520Y-113568480D02*
X207233520Y-114203480D01*
X203296520Y-116489480D02*
X204566520Y-115219480D01*
X204566520Y-115219480D02*
X206217520Y-115219480D01*
X206217520Y-115219480D02*
X207233520Y-114203480D01*
X156052520Y-101884480D02*
X153385520Y-101884480D01*
X166593520Y-101884480D02*
X156052520Y-101884480D01*
X153385520Y-101884480D02*
X152623520Y-101122480D01*
X171292520Y-88549480D02*
X170022520Y-87279480D01*
X170022520Y-87279480D02*
X168117520Y-87279480D01*
X151329520Y-101122480D02*
X152623520Y-101122480D01*
X171927520Y-88549480D02*
X171292520Y-88549480D01*
X166847520Y-107218480D02*
X165704520Y-108361480D01*
X166847520Y-107218480D02*
X167609520Y-106456480D01*
X152877520Y-110139480D02*
X155544520Y-110139480D01*
X151607520Y-108869480D02*
X152877520Y-110139480D01*
X165704520Y-108361480D02*
X157322520Y-108361480D01*
X157322520Y-108361480D02*
X155544520Y-110139480D01*
X168498520Y-102773480D02*
X168117520Y-103154480D01*
X168498520Y-102773480D02*
X168752520Y-102519480D01*
X170657520Y-102519480D02*
X168752520Y-102519480D01*
X171927520Y-101249480D02*
X170657520Y-102519480D01*
X168117520Y-103154480D02*
X156941520Y-103154480D01*
X154909520Y-102519480D02*
X156306520Y-102519480D01*
X156306520Y-102519480D02*
X156941520Y-103154480D01*
X151480520Y-102519480D02*
X154909520Y-102519480D01*
X151480520Y-102519480D02*
X143987520Y-102519480D01*
X143987520Y-102519480D02*
X142717520Y-103789480D01*
X167228520Y-104424480D02*
X168244520Y-104424480D01*
X168244520Y-104424480D02*
X168879520Y-105059480D01*
X167228520Y-104424480D02*
X159354520Y-104424480D01*
X170657520Y-105059480D02*
X168879520Y-105059480D01*
X171927520Y-103789480D02*
X170657520Y-105059480D01*
X156433520Y-107345480D02*
X159354520Y-104424480D01*
X154655520Y-107599480D02*
X156179520Y-107599480D01*
X156179520Y-107599480D02*
X156433520Y-107345480D01*
X154655520Y-107599480D02*
X143987520Y-107599480D01*
X143987520Y-107599480D02*
X142717520Y-106329480D01*
X156179520Y-112171480D02*
X158973520Y-109377480D01*
X167609520Y-108234480D02*
X166466520Y-109377480D01*
X166466520Y-109377480D02*
X158973520Y-109377480D01*
X168117520Y-108234480D02*
X168752520Y-107599480D01*
X171927520Y-106329480D02*
X170657520Y-107599480D01*
X170657520Y-107599480D02*
X168752520Y-107599480D01*
X167609520Y-108234480D02*
X168117520Y-108234480D01*
X146908520Y-112298480D02*
X147797520Y-113187480D01*
X155163520Y-113187480D02*
X156179520Y-112171480D01*
X147797520Y-113187480D02*
X155163520Y-113187480D01*
X146527520Y-111917480D02*
X146908520Y-112298480D01*
X146527520Y-110901480D02*
X146527520Y-111917480D01*
X145130520Y-110139480D02*
X145765520Y-110139480D01*
X145765520Y-110139480D02*
X146527520Y-110901480D01*
X145130520Y-110139480D02*
X143987520Y-110139480D01*
X143987520Y-110139480D02*
X142717520Y-108869480D01*
X156560520Y-113060480D02*
X159227520Y-110393480D01*
X168244520Y-110139480D02*
X167990520Y-110393480D01*
X167990520Y-110393480D02*
X159227520Y-110393480D01*
X171927520Y-108869480D02*
X170657520Y-110139480D01*
X170657520Y-110139480D02*
X168244520Y-110139480D01*
X146527520Y-113314480D02*
X147416520Y-114203480D01*
X155417520Y-114203480D02*
X156560520Y-113060480D01*
X147416520Y-114203480D02*
X155417520Y-114203480D01*
X145511520Y-112679480D02*
X145892520Y-112679480D01*
X145892520Y-112679480D02*
X146527520Y-113314480D01*
X143987520Y-112679480D02*
X142717520Y-111409480D01*
X145511520Y-112679480D02*
X143987520Y-112679480D01*
X162910520Y-114076480D02*
X162275520Y-114076480D01*
X162275520Y-114076480D02*
X159862520Y-116489480D01*
X164434520Y-114076480D02*
X162910520Y-114076480D01*
X170657520Y-112679480D02*
X171927520Y-113949480D01*
X168498520Y-112679480D02*
X170657520Y-112679480D01*
X168498520Y-112679480D02*
X167101520Y-114076480D01*
X167101520Y-114076480D02*
X164434520Y-114076480D01*
X182087520Y-94391480D02*
X178785520Y-94391480D01*
X163926520Y-114584480D02*
X163164520Y-114584480D01*
X168625520Y-115219480D02*
X168244520Y-115219480D01*
X168244520Y-115219480D02*
X167609520Y-114584480D01*
X170657520Y-115219480D02*
X168625520Y-115219480D01*
X170657520Y-115219480D02*
X171927520Y-116489480D01*
X167609520Y-114584480D02*
X163926520Y-114584480D01*
X163164520Y-114584480D02*
X162402520Y-115346480D01*
X162402520Y-115346480D02*
X162402520Y-116489480D01*
X180627020Y-97121980D02*
X179357020Y-97121980D01*
X179357020Y-97121980D02*
X179039520Y-97439480D01*
X184183020Y-97121980D02*
X180627020Y-97121980D01*
X184183020Y-97121980D02*
X185516520Y-95788480D01*
X167482520Y-117759480D02*
X166212520Y-117759480D01*
X166212520Y-117759480D02*
X164942520Y-116489480D01*
X167482520Y-117759480D02*
X170657520Y-117759480D01*
X170657520Y-117759480D02*
X171927520Y-119029480D01*
X182087520Y-95407480D02*
X182722520Y-95407480D01*
X182722520Y-95407480D02*
X183738520Y-94391480D01*
X182087520Y-95407480D02*
X179801520Y-95407480D01*
X164688520Y-115092480D02*
X164180520Y-115092480D01*
X163672520Y-117759480D02*
X162402520Y-119029480D01*
X163672520Y-115600480D02*
X163672520Y-117759480D01*
X164180520Y-115092480D02*
X163672520Y-115600480D01*
X168371520Y-116489480D02*
X166974520Y-115092480D01*
X169387520Y-116489480D02*
X168371520Y-116489480D01*
X166974520Y-115092480D02*
X164688520Y-115092480D01*
X168117520Y-111409480D02*
X169387520Y-111409480D01*
X167609520Y-110901480D02*
X168117520Y-111409480D01*
X145257520Y-113949480D02*
X146019520Y-113949480D01*
X146019520Y-113949480D02*
X146781520Y-114711480D01*
X155544520Y-114711480D02*
X159354520Y-110901480D01*
X146781520Y-114711480D02*
X155544520Y-114711480D01*
X159354520Y-110901480D02*
X167609520Y-110901480D01*
X156179520Y-112806480D02*
X155290520Y-113695480D01*
X147543520Y-113695480D02*
X145257520Y-111409480D01*
X155290520Y-113695480D02*
X147543520Y-113695480D01*
X156179520Y-112806480D02*
X159100520Y-109885480D01*
X167101520Y-109885480D02*
X159100520Y-109885480D01*
X168117520Y-108869480D02*
X167101520Y-109885480D01*
X169387520Y-108869480D02*
X168117520Y-108869480D01*
X155925520Y-111790480D02*
X155036520Y-112679480D01*
X147035520Y-111663480D02*
X147035520Y-111155480D01*
X148051520Y-112679480D02*
X147035520Y-111663480D01*
X155036520Y-112679480D02*
X148051520Y-112679480D01*
X145257520Y-108869480D02*
X147035520Y-110647480D01*
X147035520Y-110647480D02*
X147035520Y-111155480D01*
X155925520Y-111790480D02*
X158846520Y-108869480D01*
X166085520Y-108869480D02*
X158846520Y-108869480D01*
X167355520Y-107599480D02*
X166085520Y-108869480D01*
X169387520Y-106329480D02*
X168117520Y-107599480D01*
X168117520Y-107599480D02*
X167355520Y-107599480D01*
X146527520Y-105059480D02*
X145257520Y-106329480D01*
X146527520Y-105059480D02*
X157957520Y-105059480D01*
X169387520Y-103789480D02*
X159227520Y-103789480D01*
X157957520Y-105059480D02*
X159227520Y-103789480D01*
X200502520Y-94899480D02*
X203677520Y-94899480D01*
X193982520Y-94899480D02*
X193982520Y-96423480D01*
X194025520Y-93883480D02*
X194025520Y-94856480D01*
X194025520Y-94856480D02*
X193982520Y-94899480D01*
X177769520Y-96169480D02*
X174467520Y-96169480D01*
X174467520Y-96169480D02*
X173197520Y-94899480D01*
X193644520Y-93883480D02*
X194025520Y-93883480D01*
X194025520Y-93883480D02*
X198089520Y-93883480D01*
X199105520Y-94899480D02*
X200502520Y-94899480D01*
X193517520Y-93883480D02*
X193644520Y-93883480D01*
X198089520Y-93883480D02*
X199105520Y-94899480D01*
X193263520Y-93883480D02*
X193517520Y-93883480D01*
X186405520Y-94264480D02*
X185008520Y-94264480D01*
X185008520Y-94264480D02*
X183103520Y-96169480D01*
X190342520Y-93883480D02*
X193263520Y-93883480D01*
X189961520Y-94264480D02*
X190342520Y-93883480D01*
X186405520Y-94264480D02*
X189961520Y-94264480D01*
X172816520Y-94899480D02*
X173197520Y-94899480D01*
X172816520Y-94899480D02*
X170657520Y-94899480D01*
X170657520Y-94899480D02*
X169387520Y-93629480D01*
X177769520Y-96169480D02*
X183103520Y-96169480D01*
X156179520Y-100868480D02*
X153385520Y-100868480D01*
X153385520Y-100868480D02*
X152623520Y-100106480D01*
X159735520Y-99344480D02*
X158973520Y-99344480D01*
X166974520Y-100868480D02*
X166974520Y-100360480D01*
X166974520Y-100360480D02*
X165958520Y-99344480D01*
X165958520Y-99344480D02*
X159735520Y-99344480D01*
X157449520Y-100868480D02*
X156179520Y-100868480D01*
X168117520Y-102011480D02*
X166974520Y-100868480D01*
X158973520Y-99344480D02*
X157449520Y-100868480D01*
X201952520Y-64419480D02*
X205582520Y-64419480D01*
X201952520Y-66959480D02*
X205582520Y-66959480D01*
D35*
X166974520Y-120680480D02*
X167355520Y-120680480D01*
X166593520Y-120299480D02*
X166974520Y-120680480D01*
X202915520Y-120680480D02*
X202788520Y-120680480D01*
X170149520Y-120680480D02*
X167355520Y-120680480D01*
X170149520Y-120680480D02*
X202788520Y-120680480D01*
X154020520Y-120680480D02*
X141574520Y-120680480D01*
X141574520Y-120680480D02*
X141066520Y-120172480D01*
X141066520Y-117124480D02*
X141701520Y-116489480D01*
X142717520Y-116489480D02*
X141701520Y-116489480D01*
X141066520Y-118140480D02*
X141066520Y-117124480D01*
X141066520Y-120172480D02*
X141066520Y-118140480D01*
X155544520Y-120680480D02*
X156306520Y-119918480D01*
X154020520Y-120680480D02*
X155544520Y-120680480D01*
X203169520Y-120426480D02*
X202915520Y-120680480D01*
X203931520Y-119664480D02*
X203169520Y-120426480D01*
X222219520Y-114584480D02*
X222727520Y-114584480D01*
X222600520Y-100487480D02*
X218155520Y-100487480D01*
X218155520Y-100487480D02*
X215869520Y-100487480D01*
X215869520Y-100487480D02*
X215615520Y-100487480D01*
X215615520Y-100487480D02*
X214853520Y-101249480D01*
X222600520Y-100487480D02*
X223997520Y-101884480D01*
X217901520Y-115219480D02*
X218917520Y-115219480D01*
X218917520Y-115219480D02*
X219552520Y-114584480D01*
X217901520Y-115219480D02*
X216377520Y-115219480D01*
X222219520Y-114584480D02*
X219552520Y-114584480D01*
X215996520Y-115219480D02*
X216377520Y-115219480D01*
X203931520Y-117124480D02*
X203931520Y-119664480D01*
X204693520Y-116362480D02*
X205201520Y-115854480D01*
X206598520Y-115854480D02*
X205201520Y-115854480D01*
X208757520Y-115219480D02*
X215107520Y-115219480D01*
X215107520Y-115219480D02*
X215996520Y-115219480D01*
X207233520Y-115219480D02*
X206598520Y-115854480D01*
X208757520Y-115219480D02*
X207233520Y-115219480D01*
X204693520Y-116362480D02*
X203931520Y-117124480D01*
D38*
X145257520Y-116489480D02*
X150972520Y-116489480D01*
X150972520Y-116489480D02*
X152242520Y-117759480D01*
X143987520Y-115219480D02*
X142717520Y-113949480D01*
X145892520Y-115219480D02*
X152242520Y-115219480D01*
X145892520Y-115219480D02*
X143987520Y-115219480D01*
X152242520Y-115219480D02*
X154782520Y-117759480D01*
X154655520Y-96804480D02*
X154020520Y-96804480D01*
X155544520Y-89819480D02*
X155544520Y-91597480D01*
X154020520Y-96804480D02*
X150972520Y-96804480D01*
X146527520Y-97947480D02*
X146527520Y-98455480D01*
X150591520Y-97185480D02*
X147416520Y-97185480D01*
X147416520Y-97185480D02*
X147289520Y-97185480D01*
X147289520Y-97185480D02*
X146781520Y-97693480D01*
X146781520Y-97693480D02*
X146527520Y-97947480D01*
X150972520Y-96804480D02*
X150591520Y-97185480D01*
X154401520Y-92740480D02*
X155544520Y-91597480D01*
X146527520Y-98455480D02*
X146527520Y-98328480D01*
X146527520Y-98328480D02*
X146527520Y-98455480D01*
X146527520Y-98455480D02*
X146273520Y-98709480D01*
X145257520Y-98709480D02*
X146273520Y-98709480D01*
X160751520Y-67975480D02*
X159608520Y-69118480D01*
X155925520Y-69118480D02*
X155290520Y-69753480D01*
X156560520Y-69118480D02*
X155925520Y-69118480D01*
X159608520Y-69118480D02*
X156560520Y-69118480D01*
X160751520Y-67975480D02*
X162402520Y-66324480D01*
D35*
X216832520Y-93629480D02*
X218282520Y-93629480D01*
X211297520Y-73309480D02*
X211297520Y-71912480D01*
X211297520Y-71912480D02*
X211551520Y-71658480D01*
X211551520Y-69879480D02*
X211551520Y-71658480D01*
D37*
X208757520Y-66959480D02*
X209392520Y-66959480D01*
X209392520Y-66959480D02*
X211551520Y-69118480D01*
X211551520Y-69118480D02*
X211551520Y-69879480D01*
D38*
X180817520Y-87279480D02*
X177642520Y-87279480D01*
X177642520Y-87279480D02*
X176372520Y-88549480D01*
X197327520Y-66959480D02*
X199052520Y-66959480D01*
X195422520Y-84358480D02*
X197073520Y-84358480D01*
X197073520Y-84358480D02*
X197962520Y-83469480D01*
X192247520Y-87279480D02*
X180817520Y-87279480D01*
X194152520Y-85374480D02*
X192247520Y-87279480D01*
X194152520Y-84739480D02*
X194152520Y-85374480D01*
X194533520Y-84358480D02*
X194152520Y-84739480D01*
X176372520Y-88549480D02*
X177642520Y-87279480D01*
X195422520Y-84358480D02*
X194914520Y-84358480D01*
X194914520Y-84358480D02*
X194533520Y-84358480D01*
D35*
X219732520Y-93629480D02*
X220822520Y-93629480D01*
X220822520Y-93629480D02*
X221330520Y-93121480D01*
D38*
X192755520Y-107853480D02*
X194713520Y-107853480D01*
X194713520Y-107853480D02*
X194787520Y-107779480D01*
X186532520Y-117139480D02*
X191597520Y-117139480D01*
X191597520Y-117139480D02*
X191612520Y-117124480D01*
X186532520Y-117139480D02*
X185322520Y-117139480D01*
X174922520Y-91089480D02*
X174922520Y-92179480D01*
X174922520Y-92179480D02*
X176372520Y-93629480D01*
X174922520Y-101249480D02*
X174922520Y-100159480D01*
X174922520Y-100159480D02*
X176372520Y-98709480D01*
X152750520Y-98582480D02*
X154274520Y-100106480D01*
X154274520Y-100106480D02*
X156179520Y-100106480D01*
X150083520Y-80929480D02*
X148051520Y-80929480D01*
X148051520Y-80929480D02*
X146781520Y-79659480D01*
X152750520Y-98582480D02*
X152242520Y-98074480D01*
X146781520Y-77373480D02*
X145257520Y-75849480D01*
X152877520Y-80294480D02*
X153004520Y-80421480D01*
X150718520Y-80294480D02*
X152877520Y-80294480D01*
X150083520Y-80929480D02*
X150718520Y-80294480D01*
X146781520Y-79659480D02*
X146781520Y-77373480D01*
X155036520Y-95661480D02*
X155671520Y-95661480D01*
X145638520Y-94899480D02*
X144495520Y-94899480D01*
X144495520Y-94899480D02*
X141320520Y-91724480D01*
X141320520Y-77246480D02*
X142717520Y-75849480D01*
X141320520Y-91724480D02*
X141320520Y-77246480D01*
X150845520Y-94899480D02*
X145638520Y-94899480D01*
X150845520Y-94899480D02*
X151607520Y-95661480D01*
X155036520Y-95661480D02*
X151607520Y-95661480D01*
X150972520Y-75849480D02*
X152242520Y-74579480D01*
X155544520Y-72547480D02*
X157322520Y-70769480D01*
X155544520Y-73690480D02*
X155544520Y-72547480D01*
X154655520Y-74579480D02*
X155544520Y-73690480D01*
X154528520Y-74579480D02*
X154655520Y-74579480D01*
X152242520Y-74579480D02*
X154528520Y-74579480D01*
X155036520Y-75849480D02*
X156433520Y-75849480D01*
X156433520Y-75849480D02*
X157322520Y-76738480D01*
X153512520Y-75849480D02*
X155036520Y-75849480D01*
X152242520Y-77119480D02*
X153512520Y-75849480D01*
X148813520Y-77119480D02*
X152242520Y-77119480D01*
X148432520Y-77500480D02*
X148813520Y-77119480D01*
X150845520Y-88552020D02*
X150845520Y-91086940D01*
X150845520Y-91086940D02*
X150845520Y-91089480D01*
X150845520Y-91089480D02*
X150845520Y-91086940D01*
X143352520Y-87734480D02*
X143352520Y-88422480D01*
X143352520Y-88422480D02*
X143987520Y-89057480D01*
X143987520Y-89057480D02*
X144241520Y-89057480D01*
X144749520Y-89057480D02*
X145257520Y-88549480D01*
X144241520Y-89057480D02*
X144749520Y-89057480D01*
X145892520Y-88549480D02*
X145257520Y-88549480D01*
X145895060Y-88552020D02*
X145892520Y-88549480D01*
X145895060Y-88552020D02*
X146954240Y-88552020D01*
X146954240Y-88552020D02*
X149067520Y-88552020D01*
X149067520Y-88552020D02*
X150845520Y-88552020D01*
X150845520Y-88552020D02*
X152450800Y-88552020D01*
X152450800Y-91086940D02*
X150845520Y-91086940D01*
X150845520Y-91086940D02*
X149067520Y-91086940D01*
X149067520Y-91086940D02*
X146954240Y-91086940D01*
X143352520Y-87734480D02*
X143352520Y-85554480D01*
X150210520Y-81564480D02*
X147543520Y-81564480D01*
X147543520Y-81564480D02*
X146908520Y-82199480D01*
X151036020Y-80738980D02*
X152179020Y-80738980D01*
X155671520Y-81183480D02*
X156814520Y-80040480D01*
X152623520Y-81183480D02*
X155671520Y-81183480D01*
X152179020Y-80738980D02*
X152623520Y-81183480D01*
X150718520Y-81056480D02*
X150210520Y-81564480D01*
X151036020Y-80738980D02*
X150845520Y-80929480D01*
X146908520Y-82199480D02*
X146400520Y-82707480D01*
X150845520Y-80929480D02*
X150718520Y-81056480D01*
X146400520Y-83469480D02*
X146400520Y-82707480D01*
X145257520Y-84612480D02*
X145257520Y-86644480D01*
X146400520Y-83469480D02*
X145257520Y-84612480D01*
X145257520Y-86644480D02*
X145892520Y-87279480D01*
X156814520Y-80040480D02*
X161132520Y-80040480D01*
X146951700Y-87279480D02*
X145892520Y-87279480D01*
X146951700Y-87279480D02*
X146954240Y-87282020D01*
X155671520Y-83469480D02*
X149067520Y-83469480D01*
X145260060Y-92356940D02*
X146954240Y-92356940D01*
X145257520Y-92359480D02*
X145260060Y-92356940D01*
X154398980Y-91724480D02*
X153766520Y-92356940D01*
X154401520Y-91724480D02*
X154398980Y-91724480D01*
X152450800Y-92356940D02*
X153766520Y-92356940D01*
X154401520Y-88144480D02*
X154401520Y-87533480D01*
X154147520Y-87279480D02*
X152453340Y-87279480D01*
X154401520Y-87533480D02*
X154147520Y-87279480D01*
X152453340Y-87279480D02*
X152450800Y-87282020D01*
X207805020Y-106011980D02*
X207805020Y-107916980D01*
X207805020Y-107916980D02*
X210027520Y-110139480D01*
X207233520Y-105440480D02*
X207805020Y-106011980D01*
X203677520Y-105059480D02*
X202407520Y-103789480D01*
X203677520Y-105059480D02*
X206852520Y-105059480D01*
X207233520Y-105440480D02*
X206852520Y-105059480D01*
X194787520Y-104879480D02*
X195877520Y-104879480D01*
X204312520Y-106329480D02*
X205582520Y-106329480D01*
X203042520Y-105059480D02*
X204312520Y-106329480D01*
X196057520Y-105059480D02*
X203042520Y-105059480D01*
X195877520Y-104879480D02*
X196057520Y-105059480D01*
X198343520Y-110139480D02*
X193390520Y-110139480D01*
X193390520Y-110139480D02*
X192755520Y-110774480D01*
X198724520Y-110139480D02*
X198343520Y-110139480D01*
X205582520Y-111409480D02*
X204312520Y-110139480D01*
X198724520Y-110139480D02*
X204312520Y-110139480D01*
X158592520Y-75214480D02*
X158592520Y-74579480D01*
X158592520Y-74579480D02*
X159862520Y-73309480D01*
X159862520Y-73309480D02*
X159862520Y-72039480D01*
X158592520Y-86009480D02*
X158592520Y-87025480D01*
X159862520Y-83469480D02*
X159862520Y-84739480D01*
X158592520Y-86009480D02*
X159862520Y-84739480D01*
X158338520Y-97312480D02*
X158338520Y-96423480D01*
X158338520Y-96423480D02*
X159862520Y-94899480D01*
X158719520Y-107599480D02*
X159862520Y-106456480D01*
X159862520Y-106456480D02*
X159862520Y-106329480D01*
X159862520Y-106456480D02*
X159862520Y-106329480D01*
D35*
X150972520Y-73309480D02*
X148305520Y-73309480D01*
X148305520Y-73309480D02*
X145257520Y-73309480D01*
X150972520Y-73309480D02*
X153512520Y-73309480D01*
X142717520Y-73309480D02*
X145257520Y-73309480D01*
X167609520Y-73309480D02*
X166339520Y-72039480D01*
X169387520Y-73309480D02*
X167609520Y-73309480D01*
D38*
X208757520Y-105059480D02*
X208757520Y-106329480D01*
X208757520Y-106329480D02*
X210027520Y-107599480D01*
X205582520Y-102519480D02*
X206217520Y-102519480D01*
X206217520Y-102519480D02*
X208757520Y-105059480D01*
X201137520Y-102519480D02*
X199867520Y-103789480D01*
X205582520Y-102519480D02*
X201137520Y-102519480D01*
X213189820Y-91089480D02*
X213202520Y-91102180D01*
X210662520Y-91089480D02*
X213189820Y-91089480D01*
X210662520Y-93629480D02*
X213189820Y-93629480D01*
X213189820Y-93629480D02*
X213202520Y-93642180D01*
D37*
X207487520Y-72166480D02*
X207487520Y-70769480D01*
X207487520Y-70769480D02*
X208757520Y-69499480D01*
X207487520Y-73309480D02*
X207487520Y-73944480D01*
X207487520Y-73944480D02*
X206852520Y-74579480D01*
X207487520Y-72166480D02*
X207487520Y-73309480D01*
X206852520Y-74579480D02*
X205582520Y-75849480D01*
X211551520Y-66579480D02*
X212822520Y-66579480D01*
X213837520Y-69024480D02*
X216377520Y-71564480D01*
X213837520Y-67594480D02*
X213837520Y-69024480D01*
X212822520Y-66579480D02*
X213837520Y-67594480D01*
X208757520Y-64419480D02*
X211297520Y-64419480D01*
X211551520Y-66579480D02*
X211551520Y-65943480D01*
X211297520Y-65689480D02*
X211297520Y-64419480D01*
X211551520Y-65943480D02*
X211297520Y-65689480D01*
X216377520Y-71564480D02*
X222887520Y-71564480D01*
X222887520Y-71564480D02*
X223362520Y-72039480D01*
X223362520Y-72039480D02*
X225902520Y-72039480D01*
D38*
X192882520Y-98709480D02*
X196692520Y-98709480D01*
X192247520Y-99344480D02*
X192882520Y-98709480D01*
X190582520Y-105059480D02*
X192882520Y-105059480D01*
X191612520Y-101884480D02*
X189247520Y-101884480D01*
X199867520Y-98709480D02*
X196692520Y-98709480D01*
X216377520Y-107599480D02*
X213202520Y-107599480D01*
X205582520Y-96169480D02*
X204312520Y-97439480D01*
X201137520Y-97439480D02*
X199867520Y-98709480D01*
X204312520Y-97439480D02*
X201137520Y-97439480D01*
X190582520Y-103789480D02*
X192882520Y-103789480D01*
X192755520Y-100614480D02*
X191612520Y-100614480D01*
X191612520Y-100614480D02*
X189247520Y-100614480D01*
X202407520Y-98709480D02*
X201772520Y-98709480D01*
X201772520Y-98709480D02*
X200502520Y-99979480D01*
X195041520Y-100614480D02*
X192882520Y-100614480D01*
X192882520Y-100614480D02*
X192755520Y-100614480D01*
X195676520Y-99979480D02*
X195041520Y-100614480D01*
X200502520Y-99979480D02*
X195676520Y-99979480D01*
X205582520Y-98709480D02*
X202407520Y-98709480D01*
X216377520Y-110139480D02*
X213202520Y-110139480D01*
X181212520Y-106329480D02*
X183357520Y-106329480D01*
X183357520Y-103789480D02*
X181212520Y-103789480D01*
D35*
X197327520Y-106329480D02*
X190582520Y-106329480D01*
D37*
X226537520Y-101884480D02*
X227934520Y-101884480D01*
X228569520Y-101249480D02*
X227934520Y-101884480D01*
X228569520Y-71404480D02*
X228569520Y-101249480D01*
X227045520Y-69880480D02*
X228569520Y-71404480D01*
X222600520Y-69880480D02*
X227045520Y-69880480D01*
X222600520Y-69880480D02*
X221584520Y-68864480D01*
D35*
X195676520Y-62895480D02*
X200248520Y-62895480D01*
X211932520Y-62895480D02*
X200248520Y-62895480D01*
X213583520Y-62895480D02*
X214472520Y-63784480D01*
X211932520Y-62895480D02*
X213583520Y-62895480D01*
D37*
X213202520Y-72293480D02*
X213202520Y-74419480D01*
X213710520Y-71785480D02*
X213647020Y-71848980D01*
X213647020Y-71848980D02*
X213202520Y-72293480D01*
D38*
X196311520Y-63403480D02*
X196184520Y-63403480D01*
X196184520Y-63403480D02*
X195676520Y-62895480D01*
D35*
X163037520Y-62895480D02*
X160878520Y-62895480D01*
X160878520Y-62895480D02*
X154909520Y-68864480D01*
X170530520Y-62895480D02*
X163037520Y-62895480D01*
X171419520Y-62895480D02*
X170530520Y-62895480D01*
X154909520Y-68864480D02*
X152877520Y-68864480D01*
X195676520Y-62895480D02*
X171419520Y-62895480D01*
M02*
