G04 #@! TF.GenerationSoftware,KiCad,Pcbnew,(5.0.2)-1*
G04 #@! TF.CreationDate,2019-11-09T14:17:09+01:00*
G04 #@! TF.ProjectId,MPX_Alimentation,4d50585f-416c-4696-9d65-6e746174696f,v1.0*
G04 #@! TF.SameCoordinates,Original*
G04 #@! TF.FileFunction,Other,Fab,Top*
%FSLAX46Y46*%
G04 Gerber Fmt 4.6, Leading zero omitted, Abs format (unit mm)*
G04 Created by KiCad (PCBNEW (5.0.2)-1) date 09/11/2019 14:17:09*
%MOMM*%
%LPD*%
G01*
G04 APERTURE LIST*
%ADD10C,0.200000*%
%ADD11C,0.100000*%
%ADD12C,0.120000*%
%ADD13C,0.150000*%
G04 APERTURE END LIST*
D10*
X157000000Y-93000000D02*
X159000000Y-93000000D01*
X158000000Y-92500000D02*
X158000000Y-92000000D01*
X158000000Y-94000000D02*
X158000000Y-92500000D01*
X135000000Y-96000000D02*
X135000000Y-94000000D01*
X134000000Y-95000000D02*
X136000000Y-95000000D01*
D11*
G04 #@! TO.C,D1*
X161534000Y-88649000D02*
X161534000Y-83439000D01*
X161534000Y-83439000D02*
X152004000Y-83439000D01*
X152004000Y-83439000D02*
X152004000Y-88649000D01*
X152004000Y-88649000D02*
X161534000Y-88649000D01*
X164770000Y-86044000D02*
X161915000Y-86044000D01*
X148895000Y-86044000D02*
X151750000Y-86044000D01*
X160104500Y-88649000D02*
X160104500Y-83439000D01*
G04 #@! TO.C,R1*
X129070000Y-94250000D02*
X129070000Y-91750000D01*
X129070000Y-91750000D02*
X122770000Y-91750000D01*
X122770000Y-91750000D02*
X122770000Y-94250000D01*
X122770000Y-94250000D02*
X129070000Y-94250000D01*
X131000000Y-93000000D02*
X129070000Y-93000000D01*
X120840000Y-93000000D02*
X122770000Y-93000000D01*
G04 #@! TO.C,F1*
X140500000Y-103814000D02*
X140500000Y-88464000D01*
X137950000Y-108264000D02*
X137950000Y-84164000D01*
X137950000Y-84164000D02*
X143050000Y-84164000D01*
X143050000Y-84164000D02*
X143050000Y-108264000D01*
X143050000Y-108264000D02*
X138000000Y-108264000D01*
X137150000Y-92864000D02*
X143850000Y-92864000D01*
X143850000Y-92864000D02*
X143850000Y-83314000D01*
X143850000Y-83314000D02*
X137200000Y-83314000D01*
X137200000Y-83314000D02*
X137150000Y-92864000D01*
X137150000Y-108964000D02*
X137150000Y-99614000D01*
X137150000Y-99614000D02*
X143850000Y-99614000D01*
X143850000Y-99614000D02*
X143850000Y-108964000D01*
X143850000Y-108964000D02*
X137150000Y-108964000D01*
D12*
G04 #@! TO.C,P4*
X167180000Y-82840000D02*
X167180000Y-103160000D01*
X167180000Y-103160000D02*
X191310000Y-103160000D01*
X191310000Y-103160000D02*
X191310000Y-82840000D01*
X191310000Y-82840000D02*
X167180000Y-82840000D01*
D11*
G04 #@! TO.C,P1*
X163270000Y-102135000D02*
X163270000Y-104040000D01*
X163270000Y-104040000D02*
X155650000Y-104040000D01*
X155650000Y-104040000D02*
X155650000Y-101500000D01*
X155650000Y-101500000D02*
X162635000Y-101500000D01*
X162635000Y-101500000D02*
X163270000Y-102135000D01*
X162320000Y-99680000D02*
X162320000Y-101500000D01*
X162320000Y-99680000D02*
X161680000Y-99680000D01*
X161680000Y-99680000D02*
X161680000Y-101500000D01*
X162320000Y-104040000D02*
X162320000Y-110040000D01*
X162320000Y-110040000D02*
X161680000Y-110040000D01*
X161680000Y-104040000D02*
X161680000Y-110040000D01*
X159780000Y-99680000D02*
X159780000Y-101500000D01*
X159780000Y-99680000D02*
X159140000Y-99680000D01*
X159140000Y-99680000D02*
X159140000Y-101500000D01*
X159780000Y-104040000D02*
X159780000Y-110040000D01*
X159780000Y-110040000D02*
X159140000Y-110040000D01*
X159140000Y-104040000D02*
X159140000Y-110040000D01*
X157240000Y-99680000D02*
X157240000Y-101500000D01*
X157240000Y-99680000D02*
X156600000Y-99680000D01*
X156600000Y-99680000D02*
X156600000Y-101500000D01*
X157240000Y-104040000D02*
X157240000Y-110040000D01*
X157240000Y-110040000D02*
X156600000Y-110040000D01*
X156600000Y-104040000D02*
X156600000Y-110040000D01*
G04 #@! TO.C,P2*
X125770000Y-105135000D02*
X125770000Y-107040000D01*
X125770000Y-107040000D02*
X113070000Y-107040000D01*
X113070000Y-107040000D02*
X113070000Y-104500000D01*
X113070000Y-104500000D02*
X125135000Y-104500000D01*
X125135000Y-104500000D02*
X125770000Y-105135000D01*
X124820000Y-102680000D02*
X124820000Y-104500000D01*
X124820000Y-102680000D02*
X124180000Y-102680000D01*
X124180000Y-102680000D02*
X124180000Y-104500000D01*
X124820000Y-107040000D02*
X124820000Y-113040000D01*
X124820000Y-113040000D02*
X124180000Y-113040000D01*
X124180000Y-107040000D02*
X124180000Y-113040000D01*
X122280000Y-102680000D02*
X122280000Y-104500000D01*
X122280000Y-102680000D02*
X121640000Y-102680000D01*
X121640000Y-102680000D02*
X121640000Y-104500000D01*
X122280000Y-107040000D02*
X122280000Y-113040000D01*
X122280000Y-113040000D02*
X121640000Y-113040000D01*
X121640000Y-107040000D02*
X121640000Y-113040000D01*
X119740000Y-102680000D02*
X119740000Y-104500000D01*
X119740000Y-102680000D02*
X119100000Y-102680000D01*
X119100000Y-102680000D02*
X119100000Y-104500000D01*
X119740000Y-107040000D02*
X119740000Y-113040000D01*
X119740000Y-113040000D02*
X119100000Y-113040000D01*
X119100000Y-107040000D02*
X119100000Y-113040000D01*
X117200000Y-102680000D02*
X117200000Y-104500000D01*
X117200000Y-102680000D02*
X116560000Y-102680000D01*
X116560000Y-102680000D02*
X116560000Y-104500000D01*
X117200000Y-107040000D02*
X117200000Y-113040000D01*
X117200000Y-113040000D02*
X116560000Y-113040000D01*
X116560000Y-107040000D02*
X116560000Y-113040000D01*
X114660000Y-102680000D02*
X114660000Y-104500000D01*
X114660000Y-102680000D02*
X114020000Y-102680000D01*
X114020000Y-102680000D02*
X114020000Y-104500000D01*
X114660000Y-107040000D02*
X114660000Y-113040000D01*
X114660000Y-113040000D02*
X114020000Y-113040000D01*
X114020000Y-107040000D02*
X114020000Y-113040000D01*
G04 #@! TO.C,P3*
X109865000Y-91270000D02*
X107960000Y-91270000D01*
X107960000Y-91270000D02*
X107960000Y-81110000D01*
X107960000Y-81110000D02*
X110500000Y-81110000D01*
X110500000Y-81110000D02*
X110500000Y-90635000D01*
X110500000Y-90635000D02*
X109865000Y-91270000D01*
X112320000Y-90320000D02*
X110500000Y-90320000D01*
X112320000Y-90320000D02*
X112320000Y-89680000D01*
X112320000Y-89680000D02*
X110500000Y-89680000D01*
X107960000Y-90320000D02*
X101960000Y-90320000D01*
X101960000Y-90320000D02*
X101960000Y-89680000D01*
X107960000Y-89680000D02*
X101960000Y-89680000D01*
X112320000Y-87780000D02*
X110500000Y-87780000D01*
X112320000Y-87780000D02*
X112320000Y-87140000D01*
X112320000Y-87140000D02*
X110500000Y-87140000D01*
X107960000Y-87780000D02*
X101960000Y-87780000D01*
X101960000Y-87780000D02*
X101960000Y-87140000D01*
X107960000Y-87140000D02*
X101960000Y-87140000D01*
X112320000Y-85240000D02*
X110500000Y-85240000D01*
X112320000Y-85240000D02*
X112320000Y-84600000D01*
X112320000Y-84600000D02*
X110500000Y-84600000D01*
X107960000Y-85240000D02*
X101960000Y-85240000D01*
X101960000Y-85240000D02*
X101960000Y-84600000D01*
X107960000Y-84600000D02*
X101960000Y-84600000D01*
X112320000Y-82700000D02*
X110500000Y-82700000D01*
X112320000Y-82700000D02*
X112320000Y-82060000D01*
X112320000Y-82060000D02*
X110500000Y-82060000D01*
X107960000Y-82700000D02*
X101960000Y-82700000D01*
X101960000Y-82700000D02*
X101960000Y-82060000D01*
X107960000Y-82060000D02*
X101960000Y-82060000D01*
G04 #@! TD*
G04 #@! TO.C,D1*
D13*
X154712809Y-87496380D02*
X154712809Y-86496380D01*
X154950904Y-86496380D01*
X155093761Y-86544000D01*
X155189000Y-86639238D01*
X155236619Y-86734476D01*
X155284238Y-86924952D01*
X155284238Y-87067809D01*
X155236619Y-87258285D01*
X155189000Y-87353523D01*
X155093761Y-87448761D01*
X154950904Y-87496380D01*
X154712809Y-87496380D01*
X155712809Y-87496380D02*
X155712809Y-86496380D01*
X156379476Y-86496380D02*
X156569952Y-86496380D01*
X156665190Y-86544000D01*
X156760428Y-86639238D01*
X156808047Y-86829714D01*
X156808047Y-87163047D01*
X156760428Y-87353523D01*
X156665190Y-87448761D01*
X156569952Y-87496380D01*
X156379476Y-87496380D01*
X156284238Y-87448761D01*
X156189000Y-87353523D01*
X156141380Y-87163047D01*
X156141380Y-86829714D01*
X156189000Y-86639238D01*
X156284238Y-86544000D01*
X156379476Y-86496380D01*
X157236619Y-87496380D02*
X157236619Y-86496380D01*
X157474714Y-86496380D01*
X157617571Y-86544000D01*
X157712809Y-86639238D01*
X157760428Y-86734476D01*
X157808047Y-86924952D01*
X157808047Y-87067809D01*
X157760428Y-87258285D01*
X157712809Y-87353523D01*
X157617571Y-87448761D01*
X157474714Y-87496380D01*
X157236619Y-87496380D01*
X158236619Y-86972571D02*
X158569952Y-86972571D01*
X158712809Y-87496380D02*
X158236619Y-87496380D01*
X158236619Y-86496380D01*
X158712809Y-86496380D01*
X155950904Y-85596380D02*
X155950904Y-84596380D01*
X156189000Y-84596380D01*
X156331857Y-84644000D01*
X156427095Y-84739238D01*
X156474714Y-84834476D01*
X156522333Y-85024952D01*
X156522333Y-85167809D01*
X156474714Y-85358285D01*
X156427095Y-85453523D01*
X156331857Y-85548761D01*
X156189000Y-85596380D01*
X155950904Y-85596380D01*
X157474714Y-85596380D02*
X156903285Y-85596380D01*
X157189000Y-85596380D02*
X157189000Y-84596380D01*
X157093761Y-84739238D01*
X156998523Y-84834476D01*
X156903285Y-84882095D01*
G04 #@! TO.C,R1*
X126289523Y-93517380D02*
X125956190Y-93041190D01*
X125718095Y-93517380D02*
X125718095Y-92517380D01*
X126099047Y-92517380D01*
X126194285Y-92565000D01*
X126241904Y-92612619D01*
X126289523Y-92707857D01*
X126289523Y-92850714D01*
X126241904Y-92945952D01*
X126194285Y-92993571D01*
X126099047Y-93041190D01*
X125718095Y-93041190D01*
G04 #@! TO.C,F1*
X139490476Y-95992571D02*
X139157142Y-95992571D01*
X139157142Y-96516380D02*
X139157142Y-95516380D01*
X139633333Y-95516380D01*
X140014285Y-95516380D02*
X140014285Y-96325904D01*
X140061904Y-96421142D01*
X140109523Y-96468761D01*
X140204761Y-96516380D01*
X140395238Y-96516380D01*
X140490476Y-96468761D01*
X140538095Y-96421142D01*
X140585714Y-96325904D01*
X140585714Y-95516380D01*
X141014285Y-96468761D02*
X141157142Y-96516380D01*
X141395238Y-96516380D01*
X141490476Y-96468761D01*
X141538095Y-96421142D01*
X141585714Y-96325904D01*
X141585714Y-96230666D01*
X141538095Y-96135428D01*
X141490476Y-96087809D01*
X141395238Y-96040190D01*
X141204761Y-95992571D01*
X141109523Y-95944952D01*
X141061904Y-95897333D01*
X141014285Y-95802095D01*
X141014285Y-95706857D01*
X141061904Y-95611619D01*
X141109523Y-95564000D01*
X141204761Y-95516380D01*
X141442857Y-95516380D01*
X141585714Y-95564000D01*
X142014285Y-95992571D02*
X142347619Y-95992571D01*
X142490476Y-96516380D02*
X142014285Y-96516380D01*
X142014285Y-95516380D01*
X142490476Y-95516380D01*
G04 #@! TO.C,P4*
X165657142Y-97523809D02*
X165704761Y-97571428D01*
X165752380Y-97714285D01*
X165752380Y-97809523D01*
X165704761Y-97952380D01*
X165609523Y-98047619D01*
X165514285Y-98095238D01*
X165323809Y-98142857D01*
X165180952Y-98142857D01*
X164990476Y-98095238D01*
X164895238Y-98047619D01*
X164800000Y-97952380D01*
X164752380Y-97809523D01*
X164752380Y-97714285D01*
X164800000Y-97571428D01*
X164847619Y-97523809D01*
X164752380Y-96904761D02*
X164752380Y-96714285D01*
X164800000Y-96619047D01*
X164895238Y-96523809D01*
X165085714Y-96476190D01*
X165419047Y-96476190D01*
X165609523Y-96523809D01*
X165704761Y-96619047D01*
X165752380Y-96714285D01*
X165752380Y-96904761D01*
X165704761Y-97000000D01*
X165609523Y-97095238D01*
X165419047Y-97142857D01*
X165085714Y-97142857D01*
X164895238Y-97095238D01*
X164800000Y-97000000D01*
X164752380Y-96904761D01*
X165752380Y-96047619D02*
X164752380Y-96047619D01*
X165752380Y-95476190D01*
X164752380Y-95476190D01*
X165752380Y-95000000D02*
X164752380Y-95000000D01*
X165752380Y-94428571D01*
X164752380Y-94428571D01*
X165847619Y-94190476D02*
X165847619Y-93428571D01*
X164752380Y-93000000D02*
X164752380Y-92904761D01*
X164800000Y-92809523D01*
X164847619Y-92761904D01*
X164942857Y-92714285D01*
X165133333Y-92666666D01*
X165371428Y-92666666D01*
X165561904Y-92714285D01*
X165657142Y-92761904D01*
X165704761Y-92809523D01*
X165752380Y-92904761D01*
X165752380Y-93000000D01*
X165704761Y-93095238D01*
X165657142Y-93142857D01*
X165561904Y-93190476D01*
X165371428Y-93238095D01*
X165133333Y-93238095D01*
X164942857Y-93190476D01*
X164847619Y-93142857D01*
X164800000Y-93095238D01*
X164752380Y-93000000D01*
X165752380Y-91714285D02*
X165752380Y-92285714D01*
X165752380Y-92000000D02*
X164752380Y-92000000D01*
X164895238Y-92095238D01*
X164990476Y-92190476D01*
X165038095Y-92285714D01*
X164752380Y-91380952D02*
X165752380Y-90714285D01*
X164752380Y-90714285D02*
X165752380Y-91380952D01*
X164752380Y-90142857D02*
X164752380Y-90047619D01*
X164800000Y-89952380D01*
X164847619Y-89904761D01*
X164942857Y-89857142D01*
X165133333Y-89809523D01*
X165371428Y-89809523D01*
X165561904Y-89857142D01*
X165657142Y-89904761D01*
X165704761Y-89952380D01*
X165752380Y-90047619D01*
X165752380Y-90142857D01*
X165704761Y-90238095D01*
X165657142Y-90285714D01*
X165561904Y-90333333D01*
X165371428Y-90380952D01*
X165133333Y-90380952D01*
X164942857Y-90333333D01*
X164847619Y-90285714D01*
X164800000Y-90238095D01*
X164752380Y-90142857D01*
X164752380Y-89476190D02*
X164752380Y-88809523D01*
X165752380Y-89238095D01*
X178261904Y-92452380D02*
X178261904Y-91452380D01*
X178642857Y-91452380D01*
X178738095Y-91500000D01*
X178785714Y-91547619D01*
X178833333Y-91642857D01*
X178833333Y-91785714D01*
X178785714Y-91880952D01*
X178738095Y-91928571D01*
X178642857Y-91976190D01*
X178261904Y-91976190D01*
X179690476Y-91785714D02*
X179690476Y-92452380D01*
X179452380Y-91404761D02*
X179214285Y-92119047D01*
X179833333Y-92119047D01*
G04 #@! TO.C,P1*
X154057142Y-108423809D02*
X154104761Y-108471428D01*
X154152380Y-108614285D01*
X154152380Y-108709523D01*
X154104761Y-108852380D01*
X154009523Y-108947619D01*
X153914285Y-108995238D01*
X153723809Y-109042857D01*
X153580952Y-109042857D01*
X153390476Y-108995238D01*
X153295238Y-108947619D01*
X153200000Y-108852380D01*
X153152380Y-108709523D01*
X153152380Y-108614285D01*
X153200000Y-108471428D01*
X153247619Y-108423809D01*
X153152380Y-107804761D02*
X153152380Y-107614285D01*
X153200000Y-107519047D01*
X153295238Y-107423809D01*
X153485714Y-107376190D01*
X153819047Y-107376190D01*
X154009523Y-107423809D01*
X154104761Y-107519047D01*
X154152380Y-107614285D01*
X154152380Y-107804761D01*
X154104761Y-107900000D01*
X154009523Y-107995238D01*
X153819047Y-108042857D01*
X153485714Y-108042857D01*
X153295238Y-107995238D01*
X153200000Y-107900000D01*
X153152380Y-107804761D01*
X154152380Y-106947619D02*
X153152380Y-106947619D01*
X154152380Y-106376190D01*
X153152380Y-106376190D01*
X154152380Y-105900000D02*
X153152380Y-105900000D01*
X154152380Y-105328571D01*
X153152380Y-105328571D01*
X154247619Y-105090476D02*
X154247619Y-104328571D01*
X153152380Y-103900000D02*
X153152380Y-103804761D01*
X153200000Y-103709523D01*
X153247619Y-103661904D01*
X153342857Y-103614285D01*
X153533333Y-103566666D01*
X153771428Y-103566666D01*
X153961904Y-103614285D01*
X154057142Y-103661904D01*
X154104761Y-103709523D01*
X154152380Y-103804761D01*
X154152380Y-103900000D01*
X154104761Y-103995238D01*
X154057142Y-104042857D01*
X153961904Y-104090476D01*
X153771428Y-104138095D01*
X153533333Y-104138095D01*
X153342857Y-104090476D01*
X153247619Y-104042857D01*
X153200000Y-103995238D01*
X153152380Y-103900000D01*
X154152380Y-102614285D02*
X154152380Y-103185714D01*
X154152380Y-102900000D02*
X153152380Y-102900000D01*
X153295238Y-102995238D01*
X153390476Y-103090476D01*
X153438095Y-103185714D01*
X153152380Y-102280952D02*
X154152380Y-101614285D01*
X153152380Y-101614285D02*
X154152380Y-102280952D01*
X153152380Y-101042857D02*
X153152380Y-100947619D01*
X153200000Y-100852380D01*
X153247619Y-100804761D01*
X153342857Y-100757142D01*
X153533333Y-100709523D01*
X153771428Y-100709523D01*
X153961904Y-100757142D01*
X154057142Y-100804761D01*
X154104761Y-100852380D01*
X154152380Y-100947619D01*
X154152380Y-101042857D01*
X154104761Y-101138095D01*
X154057142Y-101185714D01*
X153961904Y-101233333D01*
X153771428Y-101280952D01*
X153533333Y-101280952D01*
X153342857Y-101233333D01*
X153247619Y-101185714D01*
X153200000Y-101138095D01*
X153152380Y-101042857D01*
X153152380Y-100376190D02*
X153152380Y-99757142D01*
X153533333Y-100090476D01*
X153533333Y-99947619D01*
X153580952Y-99852380D01*
X153628571Y-99804761D01*
X153723809Y-99757142D01*
X153961904Y-99757142D01*
X154057142Y-99804761D01*
X154104761Y-99852380D01*
X154152380Y-99947619D01*
X154152380Y-100233333D01*
X154104761Y-100328571D01*
X154057142Y-100376190D01*
X158721904Y-103222380D02*
X158721904Y-102222380D01*
X159102857Y-102222380D01*
X159198095Y-102270000D01*
X159245714Y-102317619D01*
X159293333Y-102412857D01*
X159293333Y-102555714D01*
X159245714Y-102650952D01*
X159198095Y-102698571D01*
X159102857Y-102746190D01*
X158721904Y-102746190D01*
X160245714Y-103222380D02*
X159674285Y-103222380D01*
X159960000Y-103222380D02*
X159960000Y-102222380D01*
X159864761Y-102365238D01*
X159769523Y-102460476D01*
X159674285Y-102508095D01*
G04 #@! TO.C,P2*
X115176190Y-100757142D02*
X115128571Y-100804761D01*
X114985714Y-100852380D01*
X114890476Y-100852380D01*
X114747619Y-100804761D01*
X114652380Y-100709523D01*
X114604761Y-100614285D01*
X114557142Y-100423809D01*
X114557142Y-100280952D01*
X114604761Y-100090476D01*
X114652380Y-99995238D01*
X114747619Y-99900000D01*
X114890476Y-99852380D01*
X114985714Y-99852380D01*
X115128571Y-99900000D01*
X115176190Y-99947619D01*
X115795238Y-99852380D02*
X115985714Y-99852380D01*
X116080952Y-99900000D01*
X116176190Y-99995238D01*
X116223809Y-100185714D01*
X116223809Y-100519047D01*
X116176190Y-100709523D01*
X116080952Y-100804761D01*
X115985714Y-100852380D01*
X115795238Y-100852380D01*
X115700000Y-100804761D01*
X115604761Y-100709523D01*
X115557142Y-100519047D01*
X115557142Y-100185714D01*
X115604761Y-99995238D01*
X115700000Y-99900000D01*
X115795238Y-99852380D01*
X116652380Y-100852380D02*
X116652380Y-99852380D01*
X117223809Y-100852380D01*
X117223809Y-99852380D01*
X117700000Y-100852380D02*
X117700000Y-99852380D01*
X118271428Y-100852380D01*
X118271428Y-99852380D01*
X118509523Y-100947619D02*
X119271428Y-100947619D01*
X119700000Y-99852380D02*
X119795238Y-99852380D01*
X119890476Y-99900000D01*
X119938095Y-99947619D01*
X119985714Y-100042857D01*
X120033333Y-100233333D01*
X120033333Y-100471428D01*
X119985714Y-100661904D01*
X119938095Y-100757142D01*
X119890476Y-100804761D01*
X119795238Y-100852380D01*
X119700000Y-100852380D01*
X119604761Y-100804761D01*
X119557142Y-100757142D01*
X119509523Y-100661904D01*
X119461904Y-100471428D01*
X119461904Y-100233333D01*
X119509523Y-100042857D01*
X119557142Y-99947619D01*
X119604761Y-99900000D01*
X119700000Y-99852380D01*
X120985714Y-100852380D02*
X120414285Y-100852380D01*
X120700000Y-100852380D02*
X120700000Y-99852380D01*
X120604761Y-99995238D01*
X120509523Y-100090476D01*
X120414285Y-100138095D01*
X121319047Y-99852380D02*
X121985714Y-100852380D01*
X121985714Y-99852380D02*
X121319047Y-100852380D01*
X122557142Y-99852380D02*
X122652380Y-99852380D01*
X122747619Y-99900000D01*
X122795238Y-99947619D01*
X122842857Y-100042857D01*
X122890476Y-100233333D01*
X122890476Y-100471428D01*
X122842857Y-100661904D01*
X122795238Y-100757142D01*
X122747619Y-100804761D01*
X122652380Y-100852380D01*
X122557142Y-100852380D01*
X122461904Y-100804761D01*
X122414285Y-100757142D01*
X122366666Y-100661904D01*
X122319047Y-100471428D01*
X122319047Y-100233333D01*
X122366666Y-100042857D01*
X122414285Y-99947619D01*
X122461904Y-99900000D01*
X122557142Y-99852380D01*
X123795238Y-99852380D02*
X123319047Y-99852380D01*
X123271428Y-100328571D01*
X123319047Y-100280952D01*
X123414285Y-100233333D01*
X123652380Y-100233333D01*
X123747619Y-100280952D01*
X123795238Y-100328571D01*
X123842857Y-100423809D01*
X123842857Y-100661904D01*
X123795238Y-100757142D01*
X123747619Y-100804761D01*
X123652380Y-100852380D01*
X123414285Y-100852380D01*
X123319047Y-100804761D01*
X123271428Y-100757142D01*
X118681904Y-106222380D02*
X118681904Y-105222380D01*
X119062857Y-105222380D01*
X119158095Y-105270000D01*
X119205714Y-105317619D01*
X119253333Y-105412857D01*
X119253333Y-105555714D01*
X119205714Y-105650952D01*
X119158095Y-105698571D01*
X119062857Y-105746190D01*
X118681904Y-105746190D01*
X119634285Y-105317619D02*
X119681904Y-105270000D01*
X119777142Y-105222380D01*
X120015238Y-105222380D01*
X120110476Y-105270000D01*
X120158095Y-105317619D01*
X120205714Y-105412857D01*
X120205714Y-105508095D01*
X120158095Y-105650952D01*
X119586666Y-106222380D01*
X120205714Y-106222380D01*
G04 #@! TO.C,P3*
X103776190Y-79857142D02*
X103728571Y-79904761D01*
X103585714Y-79952380D01*
X103490476Y-79952380D01*
X103347619Y-79904761D01*
X103252380Y-79809523D01*
X103204761Y-79714285D01*
X103157142Y-79523809D01*
X103157142Y-79380952D01*
X103204761Y-79190476D01*
X103252380Y-79095238D01*
X103347619Y-79000000D01*
X103490476Y-78952380D01*
X103585714Y-78952380D01*
X103728571Y-79000000D01*
X103776190Y-79047619D01*
X104395238Y-78952380D02*
X104585714Y-78952380D01*
X104680952Y-79000000D01*
X104776190Y-79095238D01*
X104823809Y-79285714D01*
X104823809Y-79619047D01*
X104776190Y-79809523D01*
X104680952Y-79904761D01*
X104585714Y-79952380D01*
X104395238Y-79952380D01*
X104300000Y-79904761D01*
X104204761Y-79809523D01*
X104157142Y-79619047D01*
X104157142Y-79285714D01*
X104204761Y-79095238D01*
X104300000Y-79000000D01*
X104395238Y-78952380D01*
X105252380Y-79952380D02*
X105252380Y-78952380D01*
X105823809Y-79952380D01*
X105823809Y-78952380D01*
X106300000Y-79952380D02*
X106300000Y-78952380D01*
X106871428Y-79952380D01*
X106871428Y-78952380D01*
X107109523Y-80047619D02*
X107871428Y-80047619D01*
X108300000Y-78952380D02*
X108395238Y-78952380D01*
X108490476Y-79000000D01*
X108538095Y-79047619D01*
X108585714Y-79142857D01*
X108633333Y-79333333D01*
X108633333Y-79571428D01*
X108585714Y-79761904D01*
X108538095Y-79857142D01*
X108490476Y-79904761D01*
X108395238Y-79952380D01*
X108300000Y-79952380D01*
X108204761Y-79904761D01*
X108157142Y-79857142D01*
X108109523Y-79761904D01*
X108061904Y-79571428D01*
X108061904Y-79333333D01*
X108109523Y-79142857D01*
X108157142Y-79047619D01*
X108204761Y-79000000D01*
X108300000Y-78952380D01*
X109585714Y-79952380D02*
X109014285Y-79952380D01*
X109300000Y-79952380D02*
X109300000Y-78952380D01*
X109204761Y-79095238D01*
X109109523Y-79190476D01*
X109014285Y-79238095D01*
X109919047Y-78952380D02*
X110585714Y-79952380D01*
X110585714Y-78952380D02*
X109919047Y-79952380D01*
X111157142Y-78952380D02*
X111252380Y-78952380D01*
X111347619Y-79000000D01*
X111395238Y-79047619D01*
X111442857Y-79142857D01*
X111490476Y-79333333D01*
X111490476Y-79571428D01*
X111442857Y-79761904D01*
X111395238Y-79857142D01*
X111347619Y-79904761D01*
X111252380Y-79952380D01*
X111157142Y-79952380D01*
X111061904Y-79904761D01*
X111014285Y-79857142D01*
X110966666Y-79761904D01*
X110919047Y-79571428D01*
X110919047Y-79333333D01*
X110966666Y-79142857D01*
X111014285Y-79047619D01*
X111061904Y-79000000D01*
X111157142Y-78952380D01*
X112347619Y-79285714D02*
X112347619Y-79952380D01*
X112109523Y-78904761D02*
X111871428Y-79619047D01*
X112490476Y-79619047D01*
X109682380Y-86928095D02*
X108682380Y-86928095D01*
X108682380Y-86547142D01*
X108730000Y-86451904D01*
X108777619Y-86404285D01*
X108872857Y-86356666D01*
X109015714Y-86356666D01*
X109110952Y-86404285D01*
X109158571Y-86451904D01*
X109206190Y-86547142D01*
X109206190Y-86928095D01*
X108682380Y-86023333D02*
X108682380Y-85404285D01*
X109063333Y-85737619D01*
X109063333Y-85594761D01*
X109110952Y-85499523D01*
X109158571Y-85451904D01*
X109253809Y-85404285D01*
X109491904Y-85404285D01*
X109587142Y-85451904D01*
X109634761Y-85499523D01*
X109682380Y-85594761D01*
X109682380Y-85880476D01*
X109634761Y-85975714D01*
X109587142Y-86023333D01*
G04 #@! TO.C,A1*
X183880952Y-110557142D02*
X183833333Y-110604761D01*
X183690476Y-110652380D01*
X183595238Y-110652380D01*
X183452380Y-110604761D01*
X183357142Y-110509523D01*
X183309523Y-110414285D01*
X183261904Y-110223809D01*
X183261904Y-110080952D01*
X183309523Y-109890476D01*
X183357142Y-109795238D01*
X183452380Y-109700000D01*
X183595238Y-109652380D01*
X183690476Y-109652380D01*
X183833333Y-109700000D01*
X183880952Y-109747619D01*
X184500000Y-109652380D02*
X184690476Y-109652380D01*
X184785714Y-109700000D01*
X184880952Y-109795238D01*
X184928571Y-109985714D01*
X184928571Y-110319047D01*
X184880952Y-110509523D01*
X184785714Y-110604761D01*
X184690476Y-110652380D01*
X184500000Y-110652380D01*
X184404761Y-110604761D01*
X184309523Y-110509523D01*
X184261904Y-110319047D01*
X184261904Y-109985714D01*
X184309523Y-109795238D01*
X184404761Y-109700000D01*
X184500000Y-109652380D01*
X185357142Y-110652380D02*
X185357142Y-109652380D01*
X185928571Y-110652380D01*
X185928571Y-109652380D01*
X186404761Y-110652380D02*
X186404761Y-109652380D01*
X186976190Y-110652380D01*
X186976190Y-109652380D01*
X187214285Y-110747619D02*
X187976190Y-110747619D01*
X188738095Y-110652380D02*
X188166666Y-110652380D01*
X188452380Y-110652380D02*
X188452380Y-109652380D01*
X188357142Y-109795238D01*
X188261904Y-109890476D01*
X188166666Y-109938095D01*
G04 #@! TO.C,B1*
X112880952Y-77557142D02*
X112833333Y-77604761D01*
X112690476Y-77652380D01*
X112595238Y-77652380D01*
X112452380Y-77604761D01*
X112357142Y-77509523D01*
X112309523Y-77414285D01*
X112261904Y-77223809D01*
X112261904Y-77080952D01*
X112309523Y-76890476D01*
X112357142Y-76795238D01*
X112452380Y-76700000D01*
X112595238Y-76652380D01*
X112690476Y-76652380D01*
X112833333Y-76700000D01*
X112880952Y-76747619D01*
X113500000Y-76652380D02*
X113690476Y-76652380D01*
X113785714Y-76700000D01*
X113880952Y-76795238D01*
X113928571Y-76985714D01*
X113928571Y-77319047D01*
X113880952Y-77509523D01*
X113785714Y-77604761D01*
X113690476Y-77652380D01*
X113500000Y-77652380D01*
X113404761Y-77604761D01*
X113309523Y-77509523D01*
X113261904Y-77319047D01*
X113261904Y-76985714D01*
X113309523Y-76795238D01*
X113404761Y-76700000D01*
X113500000Y-76652380D01*
X114357142Y-77652380D02*
X114357142Y-76652380D01*
X114928571Y-77652380D01*
X114928571Y-76652380D01*
X115404761Y-77652380D02*
X115404761Y-76652380D01*
X115976190Y-77652380D01*
X115976190Y-76652380D01*
X116214285Y-77747619D02*
X116976190Y-77747619D01*
X117738095Y-77652380D02*
X117166666Y-77652380D01*
X117452380Y-77652380D02*
X117452380Y-76652380D01*
X117357142Y-76795238D01*
X117261904Y-76890476D01*
X117166666Y-76938095D01*
G04 #@! TO.C,C1*
X106880952Y-104557142D02*
X106833333Y-104604761D01*
X106690476Y-104652380D01*
X106595238Y-104652380D01*
X106452380Y-104604761D01*
X106357142Y-104509523D01*
X106309523Y-104414285D01*
X106261904Y-104223809D01*
X106261904Y-104080952D01*
X106309523Y-103890476D01*
X106357142Y-103795238D01*
X106452380Y-103700000D01*
X106595238Y-103652380D01*
X106690476Y-103652380D01*
X106833333Y-103700000D01*
X106880952Y-103747619D01*
X107500000Y-103652380D02*
X107690476Y-103652380D01*
X107785714Y-103700000D01*
X107880952Y-103795238D01*
X107928571Y-103985714D01*
X107928571Y-104319047D01*
X107880952Y-104509523D01*
X107785714Y-104604761D01*
X107690476Y-104652380D01*
X107500000Y-104652380D01*
X107404761Y-104604761D01*
X107309523Y-104509523D01*
X107261904Y-104319047D01*
X107261904Y-103985714D01*
X107309523Y-103795238D01*
X107404761Y-103700000D01*
X107500000Y-103652380D01*
X108357142Y-104652380D02*
X108357142Y-103652380D01*
X108928571Y-104652380D01*
X108928571Y-103652380D01*
X109404761Y-104652380D02*
X109404761Y-103652380D01*
X109976190Y-104652380D01*
X109976190Y-103652380D01*
X110214285Y-104747619D02*
X110976190Y-104747619D01*
X111738095Y-104652380D02*
X111166666Y-104652380D01*
X111452380Y-104652380D02*
X111452380Y-103652380D01*
X111357142Y-103795238D01*
X111261904Y-103890476D01*
X111166666Y-103938095D01*
G04 #@! TD*
M02*
