%FSLAX45Y45*%
G04 Gerber Fmt 4.5, Leading zero omitted, Abs format (unit mm)*
G04 Created by KiCad (PCBNEW 4.0.7) date 08/07/18 09:06:01*
%MOMM*%
%LPD*%
G01*
G04 APERTURE LIST*
%ADD10C,0.127000*%
%ADD11C,0.150000*%
%ADD12C,0.200000*%
%ADD13C,0.300000*%
G04 APERTURE END LIST*
D10*
D11*
X10000000Y-11500000D02*
X10000000Y-7000000D01*
X13000000Y-11500000D02*
X10000000Y-11500000D01*
X12000000Y-7000000D02*
X10000000Y-7000000D01*
X12000000Y-8000000D02*
X12000000Y-7000000D01*
X13750000Y-8000000D02*
X12000000Y-8000000D01*
X13750000Y-8250000D02*
X13750000Y-8000000D01*
X16250000Y-8250000D02*
X13750000Y-8250000D01*
X16250000Y-8000000D02*
X16250000Y-8250000D01*
X16500000Y-8000000D02*
X16250000Y-8000000D01*
X19000000Y-8000000D02*
X16500000Y-8000000D01*
X19000000Y-11500000D02*
X19000000Y-8000000D01*
X18000000Y-11500000D02*
X19000000Y-11500000D01*
X18000000Y-11000000D02*
X18000000Y-11500000D01*
X13000000Y-11000000D02*
X18000000Y-11000000D01*
X13000000Y-11500000D02*
X13000000Y-11000000D01*
D12*
X10790000Y-9990000D02*
X11010000Y-10210000D01*
X11010000Y-9990000D02*
X10790000Y-10210000D01*
X11390000Y-7290000D02*
X11610000Y-7510000D01*
X11610000Y-7290000D02*
X11390000Y-7510000D01*
X18490000Y-10590000D02*
X18710000Y-10810000D01*
X18710000Y-10590000D02*
X18490000Y-10810000D01*
D13*
X10263929Y-11973214D02*
X10263929Y-11673214D01*
X10335357Y-11673214D01*
X10378214Y-11687500D01*
X10406786Y-11716071D01*
X10421071Y-11744643D01*
X10435357Y-11801786D01*
X10435357Y-11844643D01*
X10421071Y-11901786D01*
X10406786Y-11930357D01*
X10378214Y-11958929D01*
X10335357Y-11973214D01*
X10263929Y-11973214D01*
X10563929Y-11973214D02*
X10563929Y-11773214D01*
X10563929Y-11830357D02*
X10578214Y-11801786D01*
X10592500Y-11787500D01*
X10621071Y-11773214D01*
X10649643Y-11773214D01*
X10749643Y-11973214D02*
X10749643Y-11773214D01*
X10749643Y-11673214D02*
X10735357Y-11687500D01*
X10749643Y-11701786D01*
X10763929Y-11687500D01*
X10749643Y-11673214D01*
X10749643Y-11701786D01*
X10935357Y-11973214D02*
X10906786Y-11958929D01*
X10892500Y-11930357D01*
X10892500Y-11673214D01*
X11092500Y-11973214D02*
X11063929Y-11958929D01*
X11049643Y-11930357D01*
X11049643Y-11673214D01*
X11435357Y-11973214D02*
X11435357Y-11673214D01*
X11535357Y-11887500D01*
X11635357Y-11673214D01*
X11635357Y-11973214D01*
X11906786Y-11973214D02*
X11906786Y-11816071D01*
X11892500Y-11787500D01*
X11863928Y-11773214D01*
X11806786Y-11773214D01*
X11778214Y-11787500D01*
X11906786Y-11958929D02*
X11878214Y-11973214D01*
X11806786Y-11973214D01*
X11778214Y-11958929D01*
X11763928Y-11930357D01*
X11763928Y-11901786D01*
X11778214Y-11873214D01*
X11806786Y-11858929D01*
X11878214Y-11858929D01*
X11906786Y-11844643D01*
X12049643Y-11773214D02*
X12049643Y-12073214D01*
X12049643Y-11787500D02*
X12078214Y-11773214D01*
X12135357Y-11773214D01*
X12163928Y-11787500D01*
X12178214Y-11801786D01*
X12192500Y-11830357D01*
X12192500Y-11916071D01*
X12178214Y-11944643D01*
X12163928Y-11958929D01*
X12135357Y-11973214D01*
X12078214Y-11973214D01*
X12049643Y-11958929D01*
X12321071Y-11944643D02*
X12335357Y-11958929D01*
X12321071Y-11973214D01*
X12306786Y-11958929D01*
X12321071Y-11944643D01*
X12321071Y-11973214D01*
X12321071Y-11787500D02*
X12335357Y-11801786D01*
X12321071Y-11816071D01*
X12306786Y-11801786D01*
X12321071Y-11787500D01*
X12321071Y-11816071D01*
X9772500Y-12357500D02*
X9992500Y-12577500D01*
X9992500Y-12357500D02*
X9772500Y-12577500D01*
X10249643Y-12331786D02*
X10263929Y-12317500D01*
X10292500Y-12303214D01*
X10363929Y-12303214D01*
X10392500Y-12317500D01*
X10406786Y-12331786D01*
X10421071Y-12360357D01*
X10421071Y-12388929D01*
X10406786Y-12431786D01*
X10235357Y-12603214D01*
X10421071Y-12603214D01*
X10549643Y-12574643D02*
X10563929Y-12588929D01*
X10549643Y-12603214D01*
X10535357Y-12588929D01*
X10549643Y-12574643D01*
X10549643Y-12603214D01*
X10678214Y-12331786D02*
X10692500Y-12317500D01*
X10721071Y-12303214D01*
X10792500Y-12303214D01*
X10821071Y-12317500D01*
X10835357Y-12331786D01*
X10849643Y-12360357D01*
X10849643Y-12388929D01*
X10835357Y-12431786D01*
X10663928Y-12603214D01*
X10849643Y-12603214D01*
X11035357Y-12303214D02*
X11063929Y-12303214D01*
X11092500Y-12317500D01*
X11106786Y-12331786D01*
X11121071Y-12360357D01*
X11135357Y-12417500D01*
X11135357Y-12488929D01*
X11121071Y-12546071D01*
X11106786Y-12574643D01*
X11092500Y-12588929D01*
X11063929Y-12603214D01*
X11035357Y-12603214D01*
X11006786Y-12588929D01*
X10992500Y-12574643D01*
X10978214Y-12546071D01*
X10963929Y-12488929D01*
X10963929Y-12417500D01*
X10978214Y-12360357D01*
X10992500Y-12331786D01*
X11006786Y-12317500D01*
X11035357Y-12303214D01*
X11263928Y-12603214D02*
X11263928Y-12403214D01*
X11263928Y-12431786D02*
X11278214Y-12417500D01*
X11306786Y-12403214D01*
X11349643Y-12403214D01*
X11378214Y-12417500D01*
X11392500Y-12446071D01*
X11392500Y-12603214D01*
X11392500Y-12446071D02*
X11406786Y-12417500D01*
X11435357Y-12403214D01*
X11478214Y-12403214D01*
X11506786Y-12417500D01*
X11521071Y-12446071D01*
X11521071Y-12603214D01*
X11663928Y-12603214D02*
X11663928Y-12403214D01*
X11663928Y-12431786D02*
X11678214Y-12417500D01*
X11706786Y-12403214D01*
X11749643Y-12403214D01*
X11778214Y-12417500D01*
X11792500Y-12446071D01*
X11792500Y-12603214D01*
X11792500Y-12446071D02*
X11806786Y-12417500D01*
X11835357Y-12403214D01*
X11878214Y-12403214D01*
X11906786Y-12417500D01*
X11921071Y-12446071D01*
X11921071Y-12603214D01*
X12506786Y-12288929D02*
X12249643Y-12674643D01*
X12892500Y-12303214D02*
X12921071Y-12303214D01*
X12949643Y-12317500D01*
X12963928Y-12331786D01*
X12978214Y-12360357D01*
X12992500Y-12417500D01*
X12992500Y-12488929D01*
X12978214Y-12546071D01*
X12963928Y-12574643D01*
X12949643Y-12588929D01*
X12921071Y-12603214D01*
X12892500Y-12603214D01*
X12863928Y-12588929D01*
X12849643Y-12574643D01*
X12835357Y-12546071D01*
X12821071Y-12488929D01*
X12821071Y-12417500D01*
X12835357Y-12360357D01*
X12849643Y-12331786D01*
X12863928Y-12317500D01*
X12892500Y-12303214D01*
X13121071Y-12574643D02*
X13135357Y-12588929D01*
X13121071Y-12603214D01*
X13106786Y-12588929D01*
X13121071Y-12574643D01*
X13121071Y-12603214D01*
X13321071Y-12303214D02*
X13349643Y-12303214D01*
X13378214Y-12317500D01*
X13392500Y-12331786D01*
X13406785Y-12360357D01*
X13421071Y-12417500D01*
X13421071Y-12488929D01*
X13406785Y-12546071D01*
X13392500Y-12574643D01*
X13378214Y-12588929D01*
X13349643Y-12603214D01*
X13321071Y-12603214D01*
X13292500Y-12588929D01*
X13278214Y-12574643D01*
X13263928Y-12546071D01*
X13249643Y-12488929D01*
X13249643Y-12417500D01*
X13263928Y-12360357D01*
X13278214Y-12331786D01*
X13292500Y-12317500D01*
X13321071Y-12303214D01*
X13592500Y-12431786D02*
X13563928Y-12417500D01*
X13549643Y-12403214D01*
X13535357Y-12374643D01*
X13535357Y-12360357D01*
X13549643Y-12331786D01*
X13563928Y-12317500D01*
X13592500Y-12303214D01*
X13649643Y-12303214D01*
X13678214Y-12317500D01*
X13692500Y-12331786D01*
X13706785Y-12360357D01*
X13706785Y-12374643D01*
X13692500Y-12403214D01*
X13678214Y-12417500D01*
X13649643Y-12431786D01*
X13592500Y-12431786D01*
X13563928Y-12446071D01*
X13549643Y-12460357D01*
X13535357Y-12488929D01*
X13535357Y-12546071D01*
X13549643Y-12574643D01*
X13563928Y-12588929D01*
X13592500Y-12603214D01*
X13649643Y-12603214D01*
X13678214Y-12588929D01*
X13692500Y-12574643D01*
X13706785Y-12546071D01*
X13706785Y-12488929D01*
X13692500Y-12460357D01*
X13678214Y-12446071D01*
X13649643Y-12431786D01*
X13806785Y-12303214D02*
X14006785Y-12303214D01*
X13878214Y-12603214D01*
X14106786Y-12303214D02*
X14106786Y-12360357D01*
X14221071Y-12303214D02*
X14221071Y-12360357D01*
X14663928Y-12717500D02*
X14649643Y-12703214D01*
X14621071Y-12660357D01*
X14606785Y-12631786D01*
X14592500Y-12588929D01*
X14578214Y-12517500D01*
X14578214Y-12460357D01*
X14592500Y-12388929D01*
X14606785Y-12346071D01*
X14621071Y-12317500D01*
X14649643Y-12274643D01*
X14663928Y-12260357D01*
X14749643Y-12303214D02*
X14935357Y-12303214D01*
X14835357Y-12417500D01*
X14878214Y-12417500D01*
X14906785Y-12431786D01*
X14921071Y-12446071D01*
X14935357Y-12474643D01*
X14935357Y-12546071D01*
X14921071Y-12574643D01*
X14906785Y-12588929D01*
X14878214Y-12603214D01*
X14792500Y-12603214D01*
X14763928Y-12588929D01*
X14749643Y-12574643D01*
X15292500Y-12603214D02*
X15292500Y-12303214D01*
X15421071Y-12603214D02*
X15421071Y-12446071D01*
X15406785Y-12417500D01*
X15378214Y-12403214D01*
X15335357Y-12403214D01*
X15306785Y-12417500D01*
X15292500Y-12431786D01*
X15606785Y-12603214D02*
X15578214Y-12588929D01*
X15563928Y-12574643D01*
X15549643Y-12546071D01*
X15549643Y-12460357D01*
X15563928Y-12431786D01*
X15578214Y-12417500D01*
X15606785Y-12403214D01*
X15649643Y-12403214D01*
X15678214Y-12417500D01*
X15692500Y-12431786D01*
X15706785Y-12460357D01*
X15706785Y-12546071D01*
X15692500Y-12574643D01*
X15678214Y-12588929D01*
X15649643Y-12603214D01*
X15606785Y-12603214D01*
X15878214Y-12603214D02*
X15849643Y-12588929D01*
X15835357Y-12560357D01*
X15835357Y-12303214D01*
X16106786Y-12588929D02*
X16078214Y-12603214D01*
X16021071Y-12603214D01*
X15992500Y-12588929D01*
X15978214Y-12560357D01*
X15978214Y-12446071D01*
X15992500Y-12417500D01*
X16021071Y-12403214D01*
X16078214Y-12403214D01*
X16106786Y-12417500D01*
X16121071Y-12446071D01*
X16121071Y-12474643D01*
X15978214Y-12503214D01*
X16235357Y-12588929D02*
X16263928Y-12603214D01*
X16321071Y-12603214D01*
X16349643Y-12588929D01*
X16363928Y-12560357D01*
X16363928Y-12546071D01*
X16349643Y-12517500D01*
X16321071Y-12503214D01*
X16278214Y-12503214D01*
X16249643Y-12488929D01*
X16235357Y-12460357D01*
X16235357Y-12446071D01*
X16249643Y-12417500D01*
X16278214Y-12403214D01*
X16321071Y-12403214D01*
X16349643Y-12417500D01*
X16463928Y-12717500D02*
X16478214Y-12703214D01*
X16506786Y-12660357D01*
X16521071Y-12631786D01*
X16535357Y-12588929D01*
X16549643Y-12517500D01*
X16549643Y-12460357D01*
X16535357Y-12388929D01*
X16521071Y-12346071D01*
X16506786Y-12317500D01*
X16478214Y-12274643D01*
X16463928Y-12260357D01*
X17006786Y-12717500D02*
X16992500Y-12703214D01*
X16963928Y-12660357D01*
X16949643Y-12631786D01*
X16935357Y-12588929D01*
X16921071Y-12517500D01*
X16921071Y-12460357D01*
X16935357Y-12388929D01*
X16949643Y-12346071D01*
X16963928Y-12317500D01*
X16992500Y-12274643D01*
X17006786Y-12260357D01*
X17121071Y-12403214D02*
X17121071Y-12603214D01*
X17121071Y-12431786D02*
X17135357Y-12417500D01*
X17163928Y-12403214D01*
X17206786Y-12403214D01*
X17235357Y-12417500D01*
X17249643Y-12446071D01*
X17249643Y-12603214D01*
X17435357Y-12603214D02*
X17406786Y-12588929D01*
X17392500Y-12574643D01*
X17378214Y-12546071D01*
X17378214Y-12460357D01*
X17392500Y-12431786D01*
X17406786Y-12417500D01*
X17435357Y-12403214D01*
X17478214Y-12403214D01*
X17506786Y-12417500D01*
X17521071Y-12431786D01*
X17535357Y-12460357D01*
X17535357Y-12546071D01*
X17521071Y-12574643D01*
X17506786Y-12588929D01*
X17478214Y-12603214D01*
X17435357Y-12603214D01*
X17621071Y-12403214D02*
X17735357Y-12403214D01*
X17663929Y-12303214D02*
X17663929Y-12560357D01*
X17678214Y-12588929D01*
X17706786Y-12603214D01*
X17735357Y-12603214D01*
X18063929Y-12403214D02*
X18063929Y-12703214D01*
X18063929Y-12417500D02*
X18092500Y-12403214D01*
X18149643Y-12403214D01*
X18178214Y-12417500D01*
X18192500Y-12431786D01*
X18206786Y-12460357D01*
X18206786Y-12546071D01*
X18192500Y-12574643D01*
X18178214Y-12588929D01*
X18149643Y-12603214D01*
X18092500Y-12603214D01*
X18063929Y-12588929D01*
X18378214Y-12603214D02*
X18349643Y-12588929D01*
X18335357Y-12560357D01*
X18335357Y-12303214D01*
X18621071Y-12603214D02*
X18621071Y-12446071D01*
X18606786Y-12417500D01*
X18578214Y-12403214D01*
X18521071Y-12403214D01*
X18492500Y-12417500D01*
X18621071Y-12588929D02*
X18592500Y-12603214D01*
X18521071Y-12603214D01*
X18492500Y-12588929D01*
X18478214Y-12560357D01*
X18478214Y-12531786D01*
X18492500Y-12503214D01*
X18521071Y-12488929D01*
X18592500Y-12488929D01*
X18621071Y-12474643D01*
X18721071Y-12403214D02*
X18835357Y-12403214D01*
X18763929Y-12303214D02*
X18763929Y-12560357D01*
X18778214Y-12588929D01*
X18806786Y-12603214D01*
X18835357Y-12603214D01*
X19049643Y-12588929D02*
X19021072Y-12603214D01*
X18963929Y-12603214D01*
X18935357Y-12588929D01*
X18921072Y-12560357D01*
X18921072Y-12446071D01*
X18935357Y-12417500D01*
X18963929Y-12403214D01*
X19021072Y-12403214D01*
X19049643Y-12417500D01*
X19063929Y-12446071D01*
X19063929Y-12474643D01*
X18921072Y-12503214D01*
X19321072Y-12603214D02*
X19321072Y-12303214D01*
X19321072Y-12588929D02*
X19292500Y-12603214D01*
X19235357Y-12603214D01*
X19206786Y-12588929D01*
X19192500Y-12574643D01*
X19178214Y-12546071D01*
X19178214Y-12460357D01*
X19192500Y-12431786D01*
X19206786Y-12417500D01*
X19235357Y-12403214D01*
X19292500Y-12403214D01*
X19321072Y-12417500D01*
X19435357Y-12717500D02*
X19449643Y-12703214D01*
X19478214Y-12660357D01*
X19492500Y-12631786D01*
X19506786Y-12588929D01*
X19521072Y-12517500D01*
X19521072Y-12460357D01*
X19506786Y-12388929D01*
X19492500Y-12346071D01*
X19478214Y-12317500D01*
X19449643Y-12274643D01*
X19435357Y-12260357D01*
M02*
