M48
;DRILL file {KiCad (5.0.2)-1} date 09/11/2019 14:16:31
;FORMAT={-:-/ absolute / metric / decimal}
FMAT,2
METRIC,TZ
T1C0.600
T2C0.800
T3C0.900
T4C1.000
T5C1.100
T6C1.300
T7C1.350
%
G90
G05
T1
X116.844Y-84.92
X147.957Y-94.043
X150.038Y-96.331
T2
X120.84Y-93.
X131.Y-93.
T3
X135.Y-93.7
X135.Y-96.24
T4
X156.92Y-100.
X159.46Y-100.
X162.Y-100.
X114.34Y-103.
X116.88Y-103.
X119.42Y-103.
X121.96Y-103.
X124.5Y-103.
X112.Y-82.38
X112.Y-84.92
X112.Y-87.46
X112.Y-90.
T5
X155.Y-90.46
X155.Y-95.54
X158.Y-90.46
X158.Y-95.54
X161.Y-90.46
X161.Y-95.54
T6
X148.895Y-86.044
X164.77Y-86.044
T7
X137.96Y-88.504
X137.96Y-103.824
X140.5Y-85.964
X140.5Y-91.044
X140.5Y-101.284
X140.5Y-106.364
X143.04Y-88.504
X143.04Y-103.824
X169.72Y-85.38
X169.72Y-100.7
X172.26Y-87.92
X172.26Y-98.16
X174.8Y-85.38
X174.8Y-93.
X174.8Y-100.7
X184.96Y-87.92
X184.96Y-98.08
T0
M30
