G04 #@! TF.GenerationSoftware,KiCad,Pcbnew,(5.0.2)-1*
G04 #@! TF.CreationDate,2019-11-09T14:17:09+01:00*
G04 #@! TF.ProjectId,MPX_Alimentation,4d50585f-416c-4696-9d65-6e746174696f,v1.0*
G04 #@! TF.SameCoordinates,Original*
G04 #@! TF.FileFunction,Legend,Top*
G04 #@! TF.FilePolarity,Positive*
%FSLAX46Y46*%
G04 Gerber Fmt 4.6, Leading zero omitted, Abs format (unit mm)*
G04 Created by KiCad (PCBNEW (5.0.2)-1) date 09/11/2019 14:17:09*
%MOMM*%
%LPD*%
G01*
G04 APERTURE LIST*
%ADD10C,0.120000*%
%ADD11C,0.150000*%
G04 APERTURE END LIST*
D10*
G04 #@! TO.C,D1*
X161594000Y-88709000D02*
X161594000Y-83379000D01*
X161594000Y-83379000D02*
X151944000Y-83379000D01*
X151944000Y-83379000D02*
X151944000Y-88709000D01*
X151944000Y-88709000D02*
X161594000Y-88709000D01*
X163290000Y-86044000D02*
X161975000Y-86044000D01*
X150629000Y-86044000D02*
X151944000Y-86044000D01*
X160104500Y-88709000D02*
X160104500Y-83379000D01*
G04 #@! TO.C,R1*
X129130000Y-94310000D02*
X129130000Y-91690000D01*
X129130000Y-91690000D02*
X122710000Y-91690000D01*
X122710000Y-91690000D02*
X122710000Y-94310000D01*
X122710000Y-94310000D02*
X129130000Y-94310000D01*
X130020000Y-93000000D02*
X129130000Y-93000000D01*
X121820000Y-93000000D02*
X122710000Y-93000000D01*
G04 #@! TO.C,F1*
X140500000Y-99414000D02*
X140500000Y-92914000D01*
X143930000Y-99504000D02*
X143930000Y-102424000D01*
X143930000Y-109034000D02*
X143930000Y-105224000D01*
X143040000Y-108264000D02*
X143040000Y-105474000D01*
X143040000Y-99504000D02*
X143040000Y-102174000D01*
X137070000Y-109034000D02*
X137070000Y-105224000D01*
X137960000Y-108264000D02*
X137960000Y-105474000D01*
X137070000Y-99504000D02*
X137070000Y-102424000D01*
X137960000Y-99504000D02*
X137960000Y-102174000D01*
X137070000Y-92954000D02*
X137070000Y-89904000D01*
X137960000Y-92954000D02*
X137960000Y-90154000D01*
X143040000Y-92954000D02*
X143040000Y-90154000D01*
X143930000Y-92954000D02*
X143930000Y-89904000D01*
X143930000Y-83294000D02*
X143930000Y-87104000D01*
X143040000Y-84184000D02*
X143040000Y-86854000D01*
X137070000Y-83294000D02*
X137070000Y-87104000D01*
X137960000Y-84184000D02*
X137960000Y-86854000D01*
X137070000Y-83294000D02*
X143930000Y-83294000D01*
X143930000Y-92954000D02*
X143040000Y-92954000D01*
X137070000Y-92954000D02*
X137960000Y-92954000D01*
X137070000Y-109034000D02*
X143930000Y-109034000D01*
X143930000Y-99504000D02*
X143040000Y-99504000D01*
X137070000Y-99504000D02*
X138090000Y-99504000D01*
X143040000Y-90454000D02*
X143040000Y-102134000D01*
X137960000Y-102004000D02*
X137960000Y-90454000D01*
X140500000Y-99504000D02*
X137960000Y-99504000D01*
X137960000Y-108274000D02*
X143040000Y-108274000D01*
X143040000Y-99504000D02*
X140500000Y-99504000D01*
X140500000Y-92954000D02*
X137960000Y-92954000D01*
X137960000Y-84194000D02*
X143040000Y-84194000D01*
X143040000Y-92954000D02*
X140500000Y-92954000D01*
G04 #@! TO.C,P1*
X163330000Y-101440000D02*
X155590000Y-101440000D01*
X155590000Y-101440000D02*
X155590000Y-104100000D01*
X155590000Y-104100000D02*
X163330000Y-104100000D01*
X163330000Y-104100000D02*
X163330000Y-101440000D01*
X162380000Y-104100000D02*
X162380000Y-110100000D01*
X162380000Y-110100000D02*
X161620000Y-110100000D01*
X161620000Y-110100000D02*
X161620000Y-104100000D01*
X162320000Y-104100000D02*
X162320000Y-110100000D01*
X162200000Y-104100000D02*
X162200000Y-110100000D01*
X162080000Y-104100000D02*
X162080000Y-110100000D01*
X161960000Y-104100000D02*
X161960000Y-110100000D01*
X161840000Y-104100000D02*
X161840000Y-110100000D01*
X161720000Y-104100000D02*
X161720000Y-110100000D01*
X162380000Y-101110000D02*
X162380000Y-101440000D01*
X161620000Y-101110000D02*
X161620000Y-101440000D01*
X160730000Y-101440000D02*
X160730000Y-104100000D01*
X159840000Y-104100000D02*
X159840000Y-110100000D01*
X159840000Y-110100000D02*
X159080000Y-110100000D01*
X159080000Y-110100000D02*
X159080000Y-104100000D01*
X159840000Y-101042929D02*
X159840000Y-101440000D01*
X159080000Y-101042929D02*
X159080000Y-101440000D01*
X158190000Y-101440000D02*
X158190000Y-104100000D01*
X157300000Y-104100000D02*
X157300000Y-110100000D01*
X157300000Y-110100000D02*
X156540000Y-110100000D01*
X156540000Y-110100000D02*
X156540000Y-104100000D01*
X157300000Y-101042929D02*
X157300000Y-101440000D01*
X156540000Y-101042929D02*
X156540000Y-101440000D01*
X162000000Y-98730000D02*
X163270000Y-98730000D01*
X163270000Y-98730000D02*
X163270000Y-100000000D01*
G04 #@! TO.C,P2*
X125830000Y-104440000D02*
X113010000Y-104440000D01*
X113010000Y-104440000D02*
X113010000Y-107100000D01*
X113010000Y-107100000D02*
X125830000Y-107100000D01*
X125830000Y-107100000D02*
X125830000Y-104440000D01*
X124880000Y-107100000D02*
X124880000Y-113100000D01*
X124880000Y-113100000D02*
X124120000Y-113100000D01*
X124120000Y-113100000D02*
X124120000Y-107100000D01*
X124820000Y-107100000D02*
X124820000Y-113100000D01*
X124700000Y-107100000D02*
X124700000Y-113100000D01*
X124580000Y-107100000D02*
X124580000Y-113100000D01*
X124460000Y-107100000D02*
X124460000Y-113100000D01*
X124340000Y-107100000D02*
X124340000Y-113100000D01*
X124220000Y-107100000D02*
X124220000Y-113100000D01*
X124880000Y-104110000D02*
X124880000Y-104440000D01*
X124120000Y-104110000D02*
X124120000Y-104440000D01*
X123230000Y-104440000D02*
X123230000Y-107100000D01*
X122340000Y-107100000D02*
X122340000Y-113100000D01*
X122340000Y-113100000D02*
X121580000Y-113100000D01*
X121580000Y-113100000D02*
X121580000Y-107100000D01*
X122340000Y-104042929D02*
X122340000Y-104440000D01*
X121580000Y-104042929D02*
X121580000Y-104440000D01*
X120690000Y-104440000D02*
X120690000Y-107100000D01*
X119800000Y-107100000D02*
X119800000Y-113100000D01*
X119800000Y-113100000D02*
X119040000Y-113100000D01*
X119040000Y-113100000D02*
X119040000Y-107100000D01*
X119800000Y-104042929D02*
X119800000Y-104440000D01*
X119040000Y-104042929D02*
X119040000Y-104440000D01*
X118150000Y-104440000D02*
X118150000Y-107100000D01*
X117260000Y-107100000D02*
X117260000Y-113100000D01*
X117260000Y-113100000D02*
X116500000Y-113100000D01*
X116500000Y-113100000D02*
X116500000Y-107100000D01*
X117260000Y-104042929D02*
X117260000Y-104440000D01*
X116500000Y-104042929D02*
X116500000Y-104440000D01*
X115610000Y-104440000D02*
X115610000Y-107100000D01*
X114720000Y-107100000D02*
X114720000Y-113100000D01*
X114720000Y-113100000D02*
X113960000Y-113100000D01*
X113960000Y-113100000D02*
X113960000Y-107100000D01*
X114720000Y-104042929D02*
X114720000Y-104440000D01*
X113960000Y-104042929D02*
X113960000Y-104440000D01*
X124500000Y-101730000D02*
X125770000Y-101730000D01*
X125770000Y-101730000D02*
X125770000Y-103000000D01*
G04 #@! TO.C,P3*
X110560000Y-91330000D02*
X110560000Y-81050000D01*
X110560000Y-81050000D02*
X107900000Y-81050000D01*
X107900000Y-81050000D02*
X107900000Y-91330000D01*
X107900000Y-91330000D02*
X110560000Y-91330000D01*
X107900000Y-90380000D02*
X101900000Y-90380000D01*
X101900000Y-90380000D02*
X101900000Y-89620000D01*
X101900000Y-89620000D02*
X107900000Y-89620000D01*
X107900000Y-90320000D02*
X101900000Y-90320000D01*
X107900000Y-90200000D02*
X101900000Y-90200000D01*
X107900000Y-90080000D02*
X101900000Y-90080000D01*
X107900000Y-89960000D02*
X101900000Y-89960000D01*
X107900000Y-89840000D02*
X101900000Y-89840000D01*
X107900000Y-89720000D02*
X101900000Y-89720000D01*
X110890000Y-90380000D02*
X110560000Y-90380000D01*
X110890000Y-89620000D02*
X110560000Y-89620000D01*
X110560000Y-88730000D02*
X107900000Y-88730000D01*
X107900000Y-87840000D02*
X101900000Y-87840000D01*
X101900000Y-87840000D02*
X101900000Y-87080000D01*
X101900000Y-87080000D02*
X107900000Y-87080000D01*
X110957071Y-87840000D02*
X110560000Y-87840000D01*
X110957071Y-87080000D02*
X110560000Y-87080000D01*
X110560000Y-86190000D02*
X107900000Y-86190000D01*
X107900000Y-85300000D02*
X101900000Y-85300000D01*
X101900000Y-85300000D02*
X101900000Y-84540000D01*
X101900000Y-84540000D02*
X107900000Y-84540000D01*
X110957071Y-85300000D02*
X110560000Y-85300000D01*
X110957071Y-84540000D02*
X110560000Y-84540000D01*
X110560000Y-83650000D02*
X107900000Y-83650000D01*
X107900000Y-82760000D02*
X101900000Y-82760000D01*
X101900000Y-82760000D02*
X101900000Y-82000000D01*
X101900000Y-82000000D02*
X107900000Y-82000000D01*
X110957071Y-82760000D02*
X110560000Y-82760000D01*
X110957071Y-82000000D02*
X110560000Y-82000000D01*
X113270000Y-90000000D02*
X113270000Y-91270000D01*
X113270000Y-91270000D02*
X112000000Y-91270000D01*
G04 #@! TD*
G04 #@! TO.C,D1*
D11*
X164031904Y-89296380D02*
X164031904Y-88296380D01*
X164270000Y-88296380D01*
X164412857Y-88344000D01*
X164508095Y-88439238D01*
X164555714Y-88534476D01*
X164603333Y-88724952D01*
X164603333Y-88867809D01*
X164555714Y-89058285D01*
X164508095Y-89153523D01*
X164412857Y-89248761D01*
X164270000Y-89296380D01*
X164031904Y-89296380D01*
X165555714Y-89296380D02*
X164984285Y-89296380D01*
X165270000Y-89296380D02*
X165270000Y-88296380D01*
X165174761Y-88439238D01*
X165079523Y-88534476D01*
X164984285Y-88582095D01*
G04 #@! TO.C,R1*
X125753333Y-95762380D02*
X125420000Y-95286190D01*
X125181904Y-95762380D02*
X125181904Y-94762380D01*
X125562857Y-94762380D01*
X125658095Y-94810000D01*
X125705714Y-94857619D01*
X125753333Y-94952857D01*
X125753333Y-95095714D01*
X125705714Y-95190952D01*
X125658095Y-95238571D01*
X125562857Y-95286190D01*
X125181904Y-95286190D01*
X126705714Y-95762380D02*
X126134285Y-95762380D01*
X126420000Y-95762380D02*
X126420000Y-94762380D01*
X126324761Y-94905238D01*
X126229523Y-95000476D01*
X126134285Y-95048095D01*
G04 #@! TO.C,F1*
X135028571Y-102697333D02*
X135028571Y-103030666D01*
X135552380Y-103030666D02*
X134552380Y-103030666D01*
X134552380Y-102554476D01*
X135552380Y-101649714D02*
X135552380Y-102221142D01*
X135552380Y-101935428D02*
X134552380Y-101935428D01*
X134695238Y-102030666D01*
X134790476Y-102125904D01*
X134838095Y-102221142D01*
G04 #@! TO.C,P4*
X166352380Y-97238095D02*
X165352380Y-97238095D01*
X165352380Y-96857142D01*
X165400000Y-96761904D01*
X165447619Y-96714285D01*
X165542857Y-96666666D01*
X165685714Y-96666666D01*
X165780952Y-96714285D01*
X165828571Y-96761904D01*
X165876190Y-96857142D01*
X165876190Y-97238095D01*
X165685714Y-95809523D02*
X166352380Y-95809523D01*
X165304761Y-96047619D02*
X166019047Y-96285714D01*
X166019047Y-95666666D01*
G04 #@! TO.C,P1*
X164722380Y-105123095D02*
X163722380Y-105123095D01*
X163722380Y-104742142D01*
X163770000Y-104646904D01*
X163817619Y-104599285D01*
X163912857Y-104551666D01*
X164055714Y-104551666D01*
X164150952Y-104599285D01*
X164198571Y-104646904D01*
X164246190Y-104742142D01*
X164246190Y-105123095D01*
X164722380Y-103599285D02*
X164722380Y-104170714D01*
X164722380Y-103885000D02*
X163722380Y-103885000D01*
X163865238Y-103980238D01*
X163960476Y-104075476D01*
X164008095Y-104170714D01*
G04 #@! TO.C,P2*
X127222380Y-108123095D02*
X126222380Y-108123095D01*
X126222380Y-107742142D01*
X126270000Y-107646904D01*
X126317619Y-107599285D01*
X126412857Y-107551666D01*
X126555714Y-107551666D01*
X126650952Y-107599285D01*
X126698571Y-107646904D01*
X126746190Y-107742142D01*
X126746190Y-108123095D01*
X126317619Y-107170714D02*
X126270000Y-107123095D01*
X126222380Y-107027857D01*
X126222380Y-106789761D01*
X126270000Y-106694523D01*
X126317619Y-106646904D01*
X126412857Y-106599285D01*
X126508095Y-106599285D01*
X126650952Y-106646904D01*
X127222380Y-107218333D01*
X127222380Y-106599285D01*
G04 #@! TO.C,P3*
X106876904Y-92722380D02*
X106876904Y-91722380D01*
X107257857Y-91722380D01*
X107353095Y-91770000D01*
X107400714Y-91817619D01*
X107448333Y-91912857D01*
X107448333Y-92055714D01*
X107400714Y-92150952D01*
X107353095Y-92198571D01*
X107257857Y-92246190D01*
X106876904Y-92246190D01*
X107781666Y-91722380D02*
X108400714Y-91722380D01*
X108067380Y-92103333D01*
X108210238Y-92103333D01*
X108305476Y-92150952D01*
X108353095Y-92198571D01*
X108400714Y-92293809D01*
X108400714Y-92531904D01*
X108353095Y-92627142D01*
X108305476Y-92674761D01*
X108210238Y-92722380D01*
X107924523Y-92722380D01*
X107829285Y-92674761D01*
X107781666Y-92627142D01*
G04 #@! TO.C,A1*
X185285714Y-103966666D02*
X185761904Y-103966666D01*
X185190476Y-104252380D02*
X185523809Y-103252380D01*
X185857142Y-104252380D01*
X186714285Y-104252380D02*
X186142857Y-104252380D01*
X186428571Y-104252380D02*
X186428571Y-103252380D01*
X186333333Y-103395238D01*
X186238095Y-103490476D01*
X186142857Y-103538095D01*
G04 #@! TO.C,B1*
X114595238Y-70728571D02*
X114738095Y-70776190D01*
X114785714Y-70823809D01*
X114833333Y-70919047D01*
X114833333Y-71061904D01*
X114785714Y-71157142D01*
X114738095Y-71204761D01*
X114642857Y-71252380D01*
X114261904Y-71252380D01*
X114261904Y-70252380D01*
X114595238Y-70252380D01*
X114690476Y-70300000D01*
X114738095Y-70347619D01*
X114785714Y-70442857D01*
X114785714Y-70538095D01*
X114738095Y-70633333D01*
X114690476Y-70680952D01*
X114595238Y-70728571D01*
X114261904Y-70728571D01*
X115785714Y-71252380D02*
X115214285Y-71252380D01*
X115500000Y-71252380D02*
X115500000Y-70252380D01*
X115404761Y-70395238D01*
X115309523Y-70490476D01*
X115214285Y-70538095D01*
G04 #@! TO.C,C1*
X108833333Y-98157142D02*
X108785714Y-98204761D01*
X108642857Y-98252380D01*
X108547619Y-98252380D01*
X108404761Y-98204761D01*
X108309523Y-98109523D01*
X108261904Y-98014285D01*
X108214285Y-97823809D01*
X108214285Y-97680952D01*
X108261904Y-97490476D01*
X108309523Y-97395238D01*
X108404761Y-97300000D01*
X108547619Y-97252380D01*
X108642857Y-97252380D01*
X108785714Y-97300000D01*
X108833333Y-97347619D01*
X109785714Y-98252380D02*
X109214285Y-98252380D01*
X109500000Y-98252380D02*
X109500000Y-97252380D01*
X109404761Y-97395238D01*
X109309523Y-97490476D01*
X109214285Y-97538095D01*
G04 #@! TD*
M02*
