G04 #@! TF.FileFunction,Other,Fab,Top*
%FSLAX46Y46*%
G04 Gerber Fmt 4.6, Leading zero omitted, Abs format (unit mm)*
G04 Created by KiCad (PCBNEW 4.0.7) date 08/07/18 09:05:40*
%MOMM*%
%LPD*%
G01*
G04 APERTURE LIST*
%ADD10C,0.100000*%
%ADD11C,0.200000*%
%ADD12C,0.120000*%
%ADD13C,0.150000*%
G04 APERTURE END LIST*
D10*
D11*
X157000000Y-93000000D02*
X159000000Y-93000000D01*
X158000000Y-92500000D02*
X158000000Y-92000000D01*
X158000000Y-94000000D02*
X158000000Y-92500000D01*
X135000000Y-96000000D02*
X135000000Y-94000000D01*
X134000000Y-95000000D02*
X136000000Y-95000000D01*
D10*
X161534000Y-88649000D02*
X161534000Y-83439000D01*
X161534000Y-83439000D02*
X152004000Y-83439000D01*
X152004000Y-83439000D02*
X152004000Y-88649000D01*
X152004000Y-88649000D02*
X161534000Y-88649000D01*
X164770000Y-86044000D02*
X161915000Y-86044000D01*
X148895000Y-86044000D02*
X151750000Y-86044000D01*
X160104500Y-88649000D02*
X160104500Y-83439000D01*
X129070000Y-94250000D02*
X129070000Y-91750000D01*
X129070000Y-91750000D02*
X122770000Y-91750000D01*
X122770000Y-91750000D02*
X122770000Y-94250000D01*
X122770000Y-94250000D02*
X129070000Y-94250000D01*
X131000000Y-93000000D02*
X129070000Y-93000000D01*
X120840000Y-93000000D02*
X122770000Y-93000000D01*
X142752000Y-103814000D02*
X142752000Y-88464000D01*
X140202000Y-108264000D02*
X140202000Y-84164000D01*
X140202000Y-84164000D02*
X145302000Y-84164000D01*
X145302000Y-84164000D02*
X145302000Y-108264000D01*
X145302000Y-108264000D02*
X140252000Y-108264000D01*
X139402000Y-92864000D02*
X146102000Y-92864000D01*
X146102000Y-92864000D02*
X146102000Y-83314000D01*
X146102000Y-83314000D02*
X139452000Y-83314000D01*
X139452000Y-83314000D02*
X139402000Y-92864000D01*
X139402000Y-108964000D02*
X139402000Y-99614000D01*
X139402000Y-99614000D02*
X146102000Y-99614000D01*
X146102000Y-99614000D02*
X146102000Y-108964000D01*
X146102000Y-108964000D02*
X139402000Y-108964000D01*
D12*
X167180000Y-82840000D02*
X167180000Y-103160000D01*
X167180000Y-103160000D02*
X191310000Y-103160000D01*
X191310000Y-103160000D02*
X191310000Y-82840000D01*
X191310000Y-82840000D02*
X167180000Y-82840000D01*
D10*
X163270000Y-102135000D02*
X163270000Y-104040000D01*
X163270000Y-104040000D02*
X155650000Y-104040000D01*
X155650000Y-104040000D02*
X155650000Y-101500000D01*
X155650000Y-101500000D02*
X162635000Y-101500000D01*
X162635000Y-101500000D02*
X163270000Y-102135000D01*
X162320000Y-99680000D02*
X162320000Y-101500000D01*
X162320000Y-99680000D02*
X161680000Y-99680000D01*
X161680000Y-99680000D02*
X161680000Y-101500000D01*
X162320000Y-104040000D02*
X162320000Y-110040000D01*
X162320000Y-110040000D02*
X161680000Y-110040000D01*
X161680000Y-104040000D02*
X161680000Y-110040000D01*
X159780000Y-99680000D02*
X159780000Y-101500000D01*
X159780000Y-99680000D02*
X159140000Y-99680000D01*
X159140000Y-99680000D02*
X159140000Y-101500000D01*
X159780000Y-104040000D02*
X159780000Y-110040000D01*
X159780000Y-110040000D02*
X159140000Y-110040000D01*
X159140000Y-104040000D02*
X159140000Y-110040000D01*
X157240000Y-99680000D02*
X157240000Y-101500000D01*
X157240000Y-99680000D02*
X156600000Y-99680000D01*
X156600000Y-99680000D02*
X156600000Y-101500000D01*
X157240000Y-104040000D02*
X157240000Y-110040000D01*
X157240000Y-110040000D02*
X156600000Y-110040000D01*
X156600000Y-104040000D02*
X156600000Y-110040000D01*
X125770000Y-105135000D02*
X125770000Y-107040000D01*
X125770000Y-107040000D02*
X113070000Y-107040000D01*
X113070000Y-107040000D02*
X113070000Y-104500000D01*
X113070000Y-104500000D02*
X125135000Y-104500000D01*
X125135000Y-104500000D02*
X125770000Y-105135000D01*
X124820000Y-102680000D02*
X124820000Y-104500000D01*
X124820000Y-102680000D02*
X124180000Y-102680000D01*
X124180000Y-102680000D02*
X124180000Y-104500000D01*
X124820000Y-107040000D02*
X124820000Y-113040000D01*
X124820000Y-113040000D02*
X124180000Y-113040000D01*
X124180000Y-107040000D02*
X124180000Y-113040000D01*
X122280000Y-102680000D02*
X122280000Y-104500000D01*
X122280000Y-102680000D02*
X121640000Y-102680000D01*
X121640000Y-102680000D02*
X121640000Y-104500000D01*
X122280000Y-107040000D02*
X122280000Y-113040000D01*
X122280000Y-113040000D02*
X121640000Y-113040000D01*
X121640000Y-107040000D02*
X121640000Y-113040000D01*
X119740000Y-102680000D02*
X119740000Y-104500000D01*
X119740000Y-102680000D02*
X119100000Y-102680000D01*
X119100000Y-102680000D02*
X119100000Y-104500000D01*
X119740000Y-107040000D02*
X119740000Y-113040000D01*
X119740000Y-113040000D02*
X119100000Y-113040000D01*
X119100000Y-107040000D02*
X119100000Y-113040000D01*
X117200000Y-102680000D02*
X117200000Y-104500000D01*
X117200000Y-102680000D02*
X116560000Y-102680000D01*
X116560000Y-102680000D02*
X116560000Y-104500000D01*
X117200000Y-107040000D02*
X117200000Y-113040000D01*
X117200000Y-113040000D02*
X116560000Y-113040000D01*
X116560000Y-107040000D02*
X116560000Y-113040000D01*
X114660000Y-102680000D02*
X114660000Y-104500000D01*
X114660000Y-102680000D02*
X114020000Y-102680000D01*
X114020000Y-102680000D02*
X114020000Y-104500000D01*
X114660000Y-107040000D02*
X114660000Y-113040000D01*
X114660000Y-113040000D02*
X114020000Y-113040000D01*
X114020000Y-107040000D02*
X114020000Y-113040000D01*
X109865000Y-91270000D02*
X107960000Y-91270000D01*
X107960000Y-91270000D02*
X107960000Y-81110000D01*
X107960000Y-81110000D02*
X110500000Y-81110000D01*
X110500000Y-81110000D02*
X110500000Y-90635000D01*
X110500000Y-90635000D02*
X109865000Y-91270000D01*
X112320000Y-90320000D02*
X110500000Y-90320000D01*
X112320000Y-90320000D02*
X112320000Y-89680000D01*
X112320000Y-89680000D02*
X110500000Y-89680000D01*
X107960000Y-90320000D02*
X101960000Y-90320000D01*
X101960000Y-90320000D02*
X101960000Y-89680000D01*
X107960000Y-89680000D02*
X101960000Y-89680000D01*
X112320000Y-87780000D02*
X110500000Y-87780000D01*
X112320000Y-87780000D02*
X112320000Y-87140000D01*
X112320000Y-87140000D02*
X110500000Y-87140000D01*
X107960000Y-87780000D02*
X101960000Y-87780000D01*
X101960000Y-87780000D02*
X101960000Y-87140000D01*
X107960000Y-87140000D02*
X101960000Y-87140000D01*
X112320000Y-85240000D02*
X110500000Y-85240000D01*
X112320000Y-85240000D02*
X112320000Y-84600000D01*
X112320000Y-84600000D02*
X110500000Y-84600000D01*
X107960000Y-85240000D02*
X101960000Y-85240000D01*
X101960000Y-85240000D02*
X101960000Y-84600000D01*
X107960000Y-84600000D02*
X101960000Y-84600000D01*
X112320000Y-82700000D02*
X110500000Y-82700000D01*
X112320000Y-82700000D02*
X112320000Y-82060000D01*
X112320000Y-82060000D02*
X110500000Y-82060000D01*
X107960000Y-82700000D02*
X101960000Y-82700000D01*
X101960000Y-82700000D02*
X101960000Y-82060000D01*
X107960000Y-82060000D02*
X101960000Y-82060000D01*
D13*
X154712810Y-87496381D02*
X154712810Y-86496381D01*
X154950905Y-86496381D01*
X155093763Y-86544000D01*
X155189001Y-86639238D01*
X155236620Y-86734476D01*
X155284239Y-86924952D01*
X155284239Y-87067810D01*
X155236620Y-87258286D01*
X155189001Y-87353524D01*
X155093763Y-87448762D01*
X154950905Y-87496381D01*
X154712810Y-87496381D01*
X155712810Y-87496381D02*
X155712810Y-86496381D01*
X156379476Y-86496381D02*
X156569953Y-86496381D01*
X156665191Y-86544000D01*
X156760429Y-86639238D01*
X156808048Y-86829714D01*
X156808048Y-87163048D01*
X156760429Y-87353524D01*
X156665191Y-87448762D01*
X156569953Y-87496381D01*
X156379476Y-87496381D01*
X156284238Y-87448762D01*
X156189000Y-87353524D01*
X156141381Y-87163048D01*
X156141381Y-86829714D01*
X156189000Y-86639238D01*
X156284238Y-86544000D01*
X156379476Y-86496381D01*
X157236619Y-87496381D02*
X157236619Y-86496381D01*
X157474714Y-86496381D01*
X157617572Y-86544000D01*
X157712810Y-86639238D01*
X157760429Y-86734476D01*
X157808048Y-86924952D01*
X157808048Y-87067810D01*
X157760429Y-87258286D01*
X157712810Y-87353524D01*
X157617572Y-87448762D01*
X157474714Y-87496381D01*
X157236619Y-87496381D01*
X158236619Y-86972571D02*
X158569953Y-86972571D01*
X158712810Y-87496381D02*
X158236619Y-87496381D01*
X158236619Y-86496381D01*
X158712810Y-86496381D01*
X155950905Y-85596381D02*
X155950905Y-84596381D01*
X156189000Y-84596381D01*
X156331858Y-84644000D01*
X156427096Y-84739238D01*
X156474715Y-84834476D01*
X156522334Y-85024952D01*
X156522334Y-85167810D01*
X156474715Y-85358286D01*
X156427096Y-85453524D01*
X156331858Y-85548762D01*
X156189000Y-85596381D01*
X155950905Y-85596381D01*
X157474715Y-85596381D02*
X156903286Y-85596381D01*
X157189000Y-85596381D02*
X157189000Y-84596381D01*
X157093762Y-84739238D01*
X156998524Y-84834476D01*
X156903286Y-84882095D01*
X126289524Y-93517381D02*
X125956190Y-93041190D01*
X125718095Y-93517381D02*
X125718095Y-92517381D01*
X126099048Y-92517381D01*
X126194286Y-92565000D01*
X126241905Y-92612619D01*
X126289524Y-92707857D01*
X126289524Y-92850714D01*
X126241905Y-92945952D01*
X126194286Y-92993571D01*
X126099048Y-93041190D01*
X125718095Y-93041190D01*
X141742477Y-95992571D02*
X141409143Y-95992571D01*
X141409143Y-96516381D02*
X141409143Y-95516381D01*
X141885334Y-95516381D01*
X142266286Y-95516381D02*
X142266286Y-96325905D01*
X142313905Y-96421143D01*
X142361524Y-96468762D01*
X142456762Y-96516381D01*
X142647239Y-96516381D01*
X142742477Y-96468762D01*
X142790096Y-96421143D01*
X142837715Y-96325905D01*
X142837715Y-95516381D01*
X143266286Y-96468762D02*
X143409143Y-96516381D01*
X143647239Y-96516381D01*
X143742477Y-96468762D01*
X143790096Y-96421143D01*
X143837715Y-96325905D01*
X143837715Y-96230667D01*
X143790096Y-96135429D01*
X143742477Y-96087810D01*
X143647239Y-96040190D01*
X143456762Y-95992571D01*
X143361524Y-95944952D01*
X143313905Y-95897333D01*
X143266286Y-95802095D01*
X143266286Y-95706857D01*
X143313905Y-95611619D01*
X143361524Y-95564000D01*
X143456762Y-95516381D01*
X143694858Y-95516381D01*
X143837715Y-95564000D01*
X144266286Y-95992571D02*
X144599620Y-95992571D01*
X144742477Y-96516381D02*
X144266286Y-96516381D01*
X144266286Y-95516381D01*
X144742477Y-95516381D01*
X165657143Y-97523809D02*
X165704762Y-97571428D01*
X165752381Y-97714285D01*
X165752381Y-97809523D01*
X165704762Y-97952381D01*
X165609524Y-98047619D01*
X165514286Y-98095238D01*
X165323810Y-98142857D01*
X165180952Y-98142857D01*
X164990476Y-98095238D01*
X164895238Y-98047619D01*
X164800000Y-97952381D01*
X164752381Y-97809523D01*
X164752381Y-97714285D01*
X164800000Y-97571428D01*
X164847619Y-97523809D01*
X164752381Y-96904762D02*
X164752381Y-96714285D01*
X164800000Y-96619047D01*
X164895238Y-96523809D01*
X165085714Y-96476190D01*
X165419048Y-96476190D01*
X165609524Y-96523809D01*
X165704762Y-96619047D01*
X165752381Y-96714285D01*
X165752381Y-96904762D01*
X165704762Y-97000000D01*
X165609524Y-97095238D01*
X165419048Y-97142857D01*
X165085714Y-97142857D01*
X164895238Y-97095238D01*
X164800000Y-97000000D01*
X164752381Y-96904762D01*
X165752381Y-96047619D02*
X164752381Y-96047619D01*
X165752381Y-95476190D01*
X164752381Y-95476190D01*
X165752381Y-95000000D02*
X164752381Y-95000000D01*
X165752381Y-94428571D01*
X164752381Y-94428571D01*
X165847619Y-94190476D02*
X165847619Y-93428571D01*
X164752381Y-93000000D02*
X164752381Y-92904761D01*
X164800000Y-92809523D01*
X164847619Y-92761904D01*
X164942857Y-92714285D01*
X165133333Y-92666666D01*
X165371429Y-92666666D01*
X165561905Y-92714285D01*
X165657143Y-92761904D01*
X165704762Y-92809523D01*
X165752381Y-92904761D01*
X165752381Y-93000000D01*
X165704762Y-93095238D01*
X165657143Y-93142857D01*
X165561905Y-93190476D01*
X165371429Y-93238095D01*
X165133333Y-93238095D01*
X164942857Y-93190476D01*
X164847619Y-93142857D01*
X164800000Y-93095238D01*
X164752381Y-93000000D01*
X165752381Y-91714285D02*
X165752381Y-92285714D01*
X165752381Y-92000000D02*
X164752381Y-92000000D01*
X164895238Y-92095238D01*
X164990476Y-92190476D01*
X165038095Y-92285714D01*
X164752381Y-91380952D02*
X165752381Y-90714285D01*
X164752381Y-90714285D02*
X165752381Y-91380952D01*
X164752381Y-90142857D02*
X164752381Y-90047618D01*
X164800000Y-89952380D01*
X164847619Y-89904761D01*
X164942857Y-89857142D01*
X165133333Y-89809523D01*
X165371429Y-89809523D01*
X165561905Y-89857142D01*
X165657143Y-89904761D01*
X165704762Y-89952380D01*
X165752381Y-90047618D01*
X165752381Y-90142857D01*
X165704762Y-90238095D01*
X165657143Y-90285714D01*
X165561905Y-90333333D01*
X165371429Y-90380952D01*
X165133333Y-90380952D01*
X164942857Y-90333333D01*
X164847619Y-90285714D01*
X164800000Y-90238095D01*
X164752381Y-90142857D01*
X164752381Y-89476190D02*
X164752381Y-88809523D01*
X165752381Y-89238095D01*
X178261905Y-92452381D02*
X178261905Y-91452381D01*
X178642858Y-91452381D01*
X178738096Y-91500000D01*
X178785715Y-91547619D01*
X178833334Y-91642857D01*
X178833334Y-91785714D01*
X178785715Y-91880952D01*
X178738096Y-91928571D01*
X178642858Y-91976190D01*
X178261905Y-91976190D01*
X179690477Y-91785714D02*
X179690477Y-92452381D01*
X179452381Y-91404762D02*
X179214286Y-92119048D01*
X179833334Y-92119048D01*
X154057143Y-108423809D02*
X154104762Y-108471428D01*
X154152381Y-108614285D01*
X154152381Y-108709523D01*
X154104762Y-108852381D01*
X154009524Y-108947619D01*
X153914286Y-108995238D01*
X153723810Y-109042857D01*
X153580952Y-109042857D01*
X153390476Y-108995238D01*
X153295238Y-108947619D01*
X153200000Y-108852381D01*
X153152381Y-108709523D01*
X153152381Y-108614285D01*
X153200000Y-108471428D01*
X153247619Y-108423809D01*
X153152381Y-107804762D02*
X153152381Y-107614285D01*
X153200000Y-107519047D01*
X153295238Y-107423809D01*
X153485714Y-107376190D01*
X153819048Y-107376190D01*
X154009524Y-107423809D01*
X154104762Y-107519047D01*
X154152381Y-107614285D01*
X154152381Y-107804762D01*
X154104762Y-107900000D01*
X154009524Y-107995238D01*
X153819048Y-108042857D01*
X153485714Y-108042857D01*
X153295238Y-107995238D01*
X153200000Y-107900000D01*
X153152381Y-107804762D01*
X154152381Y-106947619D02*
X153152381Y-106947619D01*
X154152381Y-106376190D01*
X153152381Y-106376190D01*
X154152381Y-105900000D02*
X153152381Y-105900000D01*
X154152381Y-105328571D01*
X153152381Y-105328571D01*
X154247619Y-105090476D02*
X154247619Y-104328571D01*
X153152381Y-103900000D02*
X153152381Y-103804761D01*
X153200000Y-103709523D01*
X153247619Y-103661904D01*
X153342857Y-103614285D01*
X153533333Y-103566666D01*
X153771429Y-103566666D01*
X153961905Y-103614285D01*
X154057143Y-103661904D01*
X154104762Y-103709523D01*
X154152381Y-103804761D01*
X154152381Y-103900000D01*
X154104762Y-103995238D01*
X154057143Y-104042857D01*
X153961905Y-104090476D01*
X153771429Y-104138095D01*
X153533333Y-104138095D01*
X153342857Y-104090476D01*
X153247619Y-104042857D01*
X153200000Y-103995238D01*
X153152381Y-103900000D01*
X154152381Y-102614285D02*
X154152381Y-103185714D01*
X154152381Y-102900000D02*
X153152381Y-102900000D01*
X153295238Y-102995238D01*
X153390476Y-103090476D01*
X153438095Y-103185714D01*
X153152381Y-102280952D02*
X154152381Y-101614285D01*
X153152381Y-101614285D02*
X154152381Y-102280952D01*
X153152381Y-101042857D02*
X153152381Y-100947618D01*
X153200000Y-100852380D01*
X153247619Y-100804761D01*
X153342857Y-100757142D01*
X153533333Y-100709523D01*
X153771429Y-100709523D01*
X153961905Y-100757142D01*
X154057143Y-100804761D01*
X154104762Y-100852380D01*
X154152381Y-100947618D01*
X154152381Y-101042857D01*
X154104762Y-101138095D01*
X154057143Y-101185714D01*
X153961905Y-101233333D01*
X153771429Y-101280952D01*
X153533333Y-101280952D01*
X153342857Y-101233333D01*
X153247619Y-101185714D01*
X153200000Y-101138095D01*
X153152381Y-101042857D01*
X153152381Y-100376190D02*
X153152381Y-99757142D01*
X153533333Y-100090476D01*
X153533333Y-99947618D01*
X153580952Y-99852380D01*
X153628571Y-99804761D01*
X153723810Y-99757142D01*
X153961905Y-99757142D01*
X154057143Y-99804761D01*
X154104762Y-99852380D01*
X154152381Y-99947618D01*
X154152381Y-100233333D01*
X154104762Y-100328571D01*
X154057143Y-100376190D01*
X158721905Y-103222381D02*
X158721905Y-102222381D01*
X159102858Y-102222381D01*
X159198096Y-102270000D01*
X159245715Y-102317619D01*
X159293334Y-102412857D01*
X159293334Y-102555714D01*
X159245715Y-102650952D01*
X159198096Y-102698571D01*
X159102858Y-102746190D01*
X158721905Y-102746190D01*
X160245715Y-103222381D02*
X159674286Y-103222381D01*
X159960000Y-103222381D02*
X159960000Y-102222381D01*
X159864762Y-102365238D01*
X159769524Y-102460476D01*
X159674286Y-102508095D01*
X115176191Y-100757143D02*
X115128572Y-100804762D01*
X114985715Y-100852381D01*
X114890477Y-100852381D01*
X114747619Y-100804762D01*
X114652381Y-100709524D01*
X114604762Y-100614286D01*
X114557143Y-100423810D01*
X114557143Y-100280952D01*
X114604762Y-100090476D01*
X114652381Y-99995238D01*
X114747619Y-99900000D01*
X114890477Y-99852381D01*
X114985715Y-99852381D01*
X115128572Y-99900000D01*
X115176191Y-99947619D01*
X115795238Y-99852381D02*
X115985715Y-99852381D01*
X116080953Y-99900000D01*
X116176191Y-99995238D01*
X116223810Y-100185714D01*
X116223810Y-100519048D01*
X116176191Y-100709524D01*
X116080953Y-100804762D01*
X115985715Y-100852381D01*
X115795238Y-100852381D01*
X115700000Y-100804762D01*
X115604762Y-100709524D01*
X115557143Y-100519048D01*
X115557143Y-100185714D01*
X115604762Y-99995238D01*
X115700000Y-99900000D01*
X115795238Y-99852381D01*
X116652381Y-100852381D02*
X116652381Y-99852381D01*
X117223810Y-100852381D01*
X117223810Y-99852381D01*
X117700000Y-100852381D02*
X117700000Y-99852381D01*
X118271429Y-100852381D01*
X118271429Y-99852381D01*
X118509524Y-100947619D02*
X119271429Y-100947619D01*
X119700000Y-99852381D02*
X119795239Y-99852381D01*
X119890477Y-99900000D01*
X119938096Y-99947619D01*
X119985715Y-100042857D01*
X120033334Y-100233333D01*
X120033334Y-100471429D01*
X119985715Y-100661905D01*
X119938096Y-100757143D01*
X119890477Y-100804762D01*
X119795239Y-100852381D01*
X119700000Y-100852381D01*
X119604762Y-100804762D01*
X119557143Y-100757143D01*
X119509524Y-100661905D01*
X119461905Y-100471429D01*
X119461905Y-100233333D01*
X119509524Y-100042857D01*
X119557143Y-99947619D01*
X119604762Y-99900000D01*
X119700000Y-99852381D01*
X120985715Y-100852381D02*
X120414286Y-100852381D01*
X120700000Y-100852381D02*
X120700000Y-99852381D01*
X120604762Y-99995238D01*
X120509524Y-100090476D01*
X120414286Y-100138095D01*
X121319048Y-99852381D02*
X121985715Y-100852381D01*
X121985715Y-99852381D02*
X121319048Y-100852381D01*
X122557143Y-99852381D02*
X122652382Y-99852381D01*
X122747620Y-99900000D01*
X122795239Y-99947619D01*
X122842858Y-100042857D01*
X122890477Y-100233333D01*
X122890477Y-100471429D01*
X122842858Y-100661905D01*
X122795239Y-100757143D01*
X122747620Y-100804762D01*
X122652382Y-100852381D01*
X122557143Y-100852381D01*
X122461905Y-100804762D01*
X122414286Y-100757143D01*
X122366667Y-100661905D01*
X122319048Y-100471429D01*
X122319048Y-100233333D01*
X122366667Y-100042857D01*
X122414286Y-99947619D01*
X122461905Y-99900000D01*
X122557143Y-99852381D01*
X123795239Y-99852381D02*
X123319048Y-99852381D01*
X123271429Y-100328571D01*
X123319048Y-100280952D01*
X123414286Y-100233333D01*
X123652382Y-100233333D01*
X123747620Y-100280952D01*
X123795239Y-100328571D01*
X123842858Y-100423810D01*
X123842858Y-100661905D01*
X123795239Y-100757143D01*
X123747620Y-100804762D01*
X123652382Y-100852381D01*
X123414286Y-100852381D01*
X123319048Y-100804762D01*
X123271429Y-100757143D01*
X118681905Y-106222381D02*
X118681905Y-105222381D01*
X119062858Y-105222381D01*
X119158096Y-105270000D01*
X119205715Y-105317619D01*
X119253334Y-105412857D01*
X119253334Y-105555714D01*
X119205715Y-105650952D01*
X119158096Y-105698571D01*
X119062858Y-105746190D01*
X118681905Y-105746190D01*
X119634286Y-105317619D02*
X119681905Y-105270000D01*
X119777143Y-105222381D01*
X120015239Y-105222381D01*
X120110477Y-105270000D01*
X120158096Y-105317619D01*
X120205715Y-105412857D01*
X120205715Y-105508095D01*
X120158096Y-105650952D01*
X119586667Y-106222381D01*
X120205715Y-106222381D01*
X103776191Y-79857143D02*
X103728572Y-79904762D01*
X103585715Y-79952381D01*
X103490477Y-79952381D01*
X103347619Y-79904762D01*
X103252381Y-79809524D01*
X103204762Y-79714286D01*
X103157143Y-79523810D01*
X103157143Y-79380952D01*
X103204762Y-79190476D01*
X103252381Y-79095238D01*
X103347619Y-79000000D01*
X103490477Y-78952381D01*
X103585715Y-78952381D01*
X103728572Y-79000000D01*
X103776191Y-79047619D01*
X104395238Y-78952381D02*
X104585715Y-78952381D01*
X104680953Y-79000000D01*
X104776191Y-79095238D01*
X104823810Y-79285714D01*
X104823810Y-79619048D01*
X104776191Y-79809524D01*
X104680953Y-79904762D01*
X104585715Y-79952381D01*
X104395238Y-79952381D01*
X104300000Y-79904762D01*
X104204762Y-79809524D01*
X104157143Y-79619048D01*
X104157143Y-79285714D01*
X104204762Y-79095238D01*
X104300000Y-79000000D01*
X104395238Y-78952381D01*
X105252381Y-79952381D02*
X105252381Y-78952381D01*
X105823810Y-79952381D01*
X105823810Y-78952381D01*
X106300000Y-79952381D02*
X106300000Y-78952381D01*
X106871429Y-79952381D01*
X106871429Y-78952381D01*
X107109524Y-80047619D02*
X107871429Y-80047619D01*
X108300000Y-78952381D02*
X108395239Y-78952381D01*
X108490477Y-79000000D01*
X108538096Y-79047619D01*
X108585715Y-79142857D01*
X108633334Y-79333333D01*
X108633334Y-79571429D01*
X108585715Y-79761905D01*
X108538096Y-79857143D01*
X108490477Y-79904762D01*
X108395239Y-79952381D01*
X108300000Y-79952381D01*
X108204762Y-79904762D01*
X108157143Y-79857143D01*
X108109524Y-79761905D01*
X108061905Y-79571429D01*
X108061905Y-79333333D01*
X108109524Y-79142857D01*
X108157143Y-79047619D01*
X108204762Y-79000000D01*
X108300000Y-78952381D01*
X109585715Y-79952381D02*
X109014286Y-79952381D01*
X109300000Y-79952381D02*
X109300000Y-78952381D01*
X109204762Y-79095238D01*
X109109524Y-79190476D01*
X109014286Y-79238095D01*
X109919048Y-78952381D02*
X110585715Y-79952381D01*
X110585715Y-78952381D02*
X109919048Y-79952381D01*
X111157143Y-78952381D02*
X111252382Y-78952381D01*
X111347620Y-79000000D01*
X111395239Y-79047619D01*
X111442858Y-79142857D01*
X111490477Y-79333333D01*
X111490477Y-79571429D01*
X111442858Y-79761905D01*
X111395239Y-79857143D01*
X111347620Y-79904762D01*
X111252382Y-79952381D01*
X111157143Y-79952381D01*
X111061905Y-79904762D01*
X111014286Y-79857143D01*
X110966667Y-79761905D01*
X110919048Y-79571429D01*
X110919048Y-79333333D01*
X110966667Y-79142857D01*
X111014286Y-79047619D01*
X111061905Y-79000000D01*
X111157143Y-78952381D01*
X112347620Y-79285714D02*
X112347620Y-79952381D01*
X112109524Y-78904762D02*
X111871429Y-79619048D01*
X112490477Y-79619048D01*
X109682381Y-86928095D02*
X108682381Y-86928095D01*
X108682381Y-86547142D01*
X108730000Y-86451904D01*
X108777619Y-86404285D01*
X108872857Y-86356666D01*
X109015714Y-86356666D01*
X109110952Y-86404285D01*
X109158571Y-86451904D01*
X109206190Y-86547142D01*
X109206190Y-86928095D01*
X108682381Y-86023333D02*
X108682381Y-85404285D01*
X109063333Y-85737619D01*
X109063333Y-85594761D01*
X109110952Y-85499523D01*
X109158571Y-85451904D01*
X109253810Y-85404285D01*
X109491905Y-85404285D01*
X109587143Y-85451904D01*
X109634762Y-85499523D01*
X109682381Y-85594761D01*
X109682381Y-85880476D01*
X109634762Y-85975714D01*
X109587143Y-86023333D01*
X183880953Y-110557143D02*
X183833334Y-110604762D01*
X183690477Y-110652381D01*
X183595239Y-110652381D01*
X183452381Y-110604762D01*
X183357143Y-110509524D01*
X183309524Y-110414286D01*
X183261905Y-110223810D01*
X183261905Y-110080952D01*
X183309524Y-109890476D01*
X183357143Y-109795238D01*
X183452381Y-109700000D01*
X183595239Y-109652381D01*
X183690477Y-109652381D01*
X183833334Y-109700000D01*
X183880953Y-109747619D01*
X184500000Y-109652381D02*
X184690477Y-109652381D01*
X184785715Y-109700000D01*
X184880953Y-109795238D01*
X184928572Y-109985714D01*
X184928572Y-110319048D01*
X184880953Y-110509524D01*
X184785715Y-110604762D01*
X184690477Y-110652381D01*
X184500000Y-110652381D01*
X184404762Y-110604762D01*
X184309524Y-110509524D01*
X184261905Y-110319048D01*
X184261905Y-109985714D01*
X184309524Y-109795238D01*
X184404762Y-109700000D01*
X184500000Y-109652381D01*
X185357143Y-110652381D02*
X185357143Y-109652381D01*
X185928572Y-110652381D01*
X185928572Y-109652381D01*
X186404762Y-110652381D02*
X186404762Y-109652381D01*
X186976191Y-110652381D01*
X186976191Y-109652381D01*
X187214286Y-110747619D02*
X187976191Y-110747619D01*
X188738096Y-110652381D02*
X188166667Y-110652381D01*
X188452381Y-110652381D02*
X188452381Y-109652381D01*
X188357143Y-109795238D01*
X188261905Y-109890476D01*
X188166667Y-109938095D01*
X112880953Y-77557143D02*
X112833334Y-77604762D01*
X112690477Y-77652381D01*
X112595239Y-77652381D01*
X112452381Y-77604762D01*
X112357143Y-77509524D01*
X112309524Y-77414286D01*
X112261905Y-77223810D01*
X112261905Y-77080952D01*
X112309524Y-76890476D01*
X112357143Y-76795238D01*
X112452381Y-76700000D01*
X112595239Y-76652381D01*
X112690477Y-76652381D01*
X112833334Y-76700000D01*
X112880953Y-76747619D01*
X113500000Y-76652381D02*
X113690477Y-76652381D01*
X113785715Y-76700000D01*
X113880953Y-76795238D01*
X113928572Y-76985714D01*
X113928572Y-77319048D01*
X113880953Y-77509524D01*
X113785715Y-77604762D01*
X113690477Y-77652381D01*
X113500000Y-77652381D01*
X113404762Y-77604762D01*
X113309524Y-77509524D01*
X113261905Y-77319048D01*
X113261905Y-76985714D01*
X113309524Y-76795238D01*
X113404762Y-76700000D01*
X113500000Y-76652381D01*
X114357143Y-77652381D02*
X114357143Y-76652381D01*
X114928572Y-77652381D01*
X114928572Y-76652381D01*
X115404762Y-77652381D02*
X115404762Y-76652381D01*
X115976191Y-77652381D01*
X115976191Y-76652381D01*
X116214286Y-77747619D02*
X116976191Y-77747619D01*
X117738096Y-77652381D02*
X117166667Y-77652381D01*
X117452381Y-77652381D02*
X117452381Y-76652381D01*
X117357143Y-76795238D01*
X117261905Y-76890476D01*
X117166667Y-76938095D01*
X106880953Y-104557143D02*
X106833334Y-104604762D01*
X106690477Y-104652381D01*
X106595239Y-104652381D01*
X106452381Y-104604762D01*
X106357143Y-104509524D01*
X106309524Y-104414286D01*
X106261905Y-104223810D01*
X106261905Y-104080952D01*
X106309524Y-103890476D01*
X106357143Y-103795238D01*
X106452381Y-103700000D01*
X106595239Y-103652381D01*
X106690477Y-103652381D01*
X106833334Y-103700000D01*
X106880953Y-103747619D01*
X107500000Y-103652381D02*
X107690477Y-103652381D01*
X107785715Y-103700000D01*
X107880953Y-103795238D01*
X107928572Y-103985714D01*
X107928572Y-104319048D01*
X107880953Y-104509524D01*
X107785715Y-104604762D01*
X107690477Y-104652381D01*
X107500000Y-104652381D01*
X107404762Y-104604762D01*
X107309524Y-104509524D01*
X107261905Y-104319048D01*
X107261905Y-103985714D01*
X107309524Y-103795238D01*
X107404762Y-103700000D01*
X107500000Y-103652381D01*
X108357143Y-104652381D02*
X108357143Y-103652381D01*
X108928572Y-104652381D01*
X108928572Y-103652381D01*
X109404762Y-104652381D02*
X109404762Y-103652381D01*
X109976191Y-104652381D01*
X109976191Y-103652381D01*
X110214286Y-104747619D02*
X110976191Y-104747619D01*
X111738096Y-104652381D02*
X111166667Y-104652381D01*
X111452381Y-104652381D02*
X111452381Y-103652381D01*
X111357143Y-103795238D01*
X111261905Y-103890476D01*
X111166667Y-103938095D01*
M02*
