#define x_width 128

#define x_height 64

static unsigned char x_bits[] = {

 0x00, 0x00, 0x00, 0x00, 0x00, 0x00, 0x00, 0x00, 0x00, 0x00, 0x00, 0x00, 0x00, 0x00, 0x00, 0x00, 
0x00, 0x00, 0x00,
 0x00, 0x00, 0x00, 0x00, 0x00, 0x00, 0x00, 0x00, 0x00, 0x00, 0x00, 0x00, 0x00, 
0x1c, 0x70, 0x00, 0x00, 0x00, 0x00,
 0xc0, 0xff, 0x00, 0x00, 0x00, 0x00, 0xf0, 0x3f, 0xf8, 0x1f, 
0x3c, 0x70, 0x00, 0x00, 0x00, 0x00, 0xe0, 0xff, 0x00,
 0x00, 0x00, 0x00, 0xf0, 0x7f, 0xfc, 0x1f, 
0x3c, 0x70, 0x00, 0x00, 0x00, 0x00, 0xe0, 0xff, 0x00, 0x00, 0x00, 0x00,
 0xf0, 0xff, 0xfc, 0x1f, 
0x7c, 0x70, 0x00, 0x00, 0x00, 0x00, 0xe0, 0x00, 0x00, 0x00, 0x00, 0x00, 0x70, 0xf0, 0x1c,
 0x00, 
0xfc, 0x70, 0xfe, 0x73, 0x38, 0xff, 0xe7, 0x00, 0xfe, 0xcf, 0x7f, 0xfe, 0x71, 0xe0, 0x1c, 0x00, 
0xfc, 0x71,
 0xfe, 0x73, 0x38, 0xff, 0xe7, 0x00, 0xfe, 0xcf, 0x7f, 0xfe, 0x73, 0xe0, 0x1c, 0x00, 
0xfc, 0x71, 0xfe, 0xe3, 0x1c,
 0xff, 0xe7, 0x00, 0xfe, 0xcf, 0x7f, 0xfe, 0x73, 0xe0, 0x1c, 0x00, 
0xdc, 0x73, 0x0e, 0xe0, 0x1c, 0x70, 0xe0, 0x7f,
 0xe0, 0xc0, 0x01, 0x8e, 0x73, 0xe0, 0x1c, 0x00, 
0x9c, 0x73, 0x0e, 0xc0, 0x0f, 0x70, 0xe0, 0xff, 0xe0, 0xc0, 0x01,
 0x8e, 0x73, 0xf0, 0x1c, 0x00, 
0x9c, 0x77, 0x0e, 0xc0, 0x0f, 0x70, 0xc0, 0xff, 0xe1, 0xc0, 0x01, 0x8e, 0xf3, 0x7f,
 0x1c, 0x00, 
0x1c, 0x7f, 0xfe, 0x81, 0x07, 0x70, 0x00, 0xff, 0xe1, 0xc0, 0x3f, 0x8e, 0xf3, 0x3f, 0x1c, 0x00, 
0x1c,
 0x7e, 0xfe, 0x81, 0x07, 0x70, 0x00, 0xc0, 0xe1, 0xc0, 0x3f, 0xfe, 0xf3, 0x1f, 0x1c, 0x00, 
0x1c, 0x7e, 0xfe, 0x81,
 0x07, 0x70, 0x00, 0xc0, 0xe1, 0xc0, 0x3f, 0xfe, 0x73, 0x1e, 0x1c, 0x00, 
0x1c, 0x7c, 0x0e, 0x80, 0x07, 0x70, 0x00,
 0xc0, 0xe1, 0xc0, 0x01, 0xfe, 0x71, 0x1c, 0x1c, 0x00, 
0x1c, 0x7c, 0x0e, 0xc0, 0x0f, 0x70, 0x00, 0xc0, 0xe1, 0xc0,
 0x01, 0x0e, 0x70, 0x3c, 0x1c, 0x00, 
0x1c, 0x78, 0x0e, 0xc0, 0x0f, 0x70, 0x00, 0xc0, 0xe1, 0xc0, 0x01, 0x0e, 0x70,
 0x38, 0x1c, 0x00, 
0x1c, 0x78, 0x0e, 0xe0, 0x1c, 0x70, 0x00, 0xe0, 0xe1, 0xc0, 0x01, 0x0e, 0x70, 0x78, 0x1c, 0x00,
 
0x1c, 0x70, 0xfe, 0xe3, 0x1c, 0x70, 0xe0, 0xff, 0xe1, 0xc0, 0x7f, 0x0e, 0x70, 0x70, 0xfc, 0x1f, 
0x1c, 0x70, 0xfe,
 0x73, 0x38, 0x70, 0xe0, 0xff, 0xe0, 0xc0, 0x7f, 0x0e, 0x70, 0xf0, 0xfc, 0x1f, 
0x1c, 0x70, 0xfe, 0x73, 0x38, 0x70,
 0xe0, 0x7f, 0xe0, 0xc0, 0x7f, 0x0e, 0x70, 0xe0, 0xf8, 0x1f, 
0x00, 0x00, 0x00, 0x00, 0x00, 0x00, 0x00, 0x00, 0x00,
 0x00, 0x00, 0x00, 0x00, 0x00, 0x00, 0x00, 
0x00, 0x00, 0x00, 0x00, 0x00, 0x00, 0x00, 0x00, 0x00, 0x00, 0x00, 0x00,
 0x00, 0x00, 0x00, 0x00, 
0x00, 0x00, 0x00, 0x00, 0x00, 0x00, 0x00, 0x00, 0x00, 0x00, 0x00, 0x00, 0x00, 0x00, 0x00,
 0x00, 
0x00, 0x00, 0x00, 0x00, 0x00, 0x00, 0x00, 0x00, 0x00, 0x00, 0x00, 0x00, 0x00, 0x00, 0x00, 0x00, 
0x00, 0x00,
 0x00, 0x00, 0x00, 0x00, 0x00, 0x00, 0x00, 0x00, 0x00, 0x00, 0x00, 0x00, 0x00, 0x00, 
0x00, 0x00, 0x00, 0x00, 0x00,
 0x00, 0x00, 0x00, 0x00, 0x00, 0x00, 0x00, 0x00, 0x00, 0x00, 0x00, 
0x00, 0x00, 0x00, 0x00, 0x00, 0x00, 0x00, 0x00,
 0x00, 0x00, 0x00, 0x06, 0x00, 0x00, 0x00, 0x00, 
0x00, 0x00, 0x00, 0x00, 0x00, 0x00, 0x00, 0x00, 0x00, 0x00, 0x00,
 0x06, 0x00, 0x00, 0x00, 0x00, 
0x00, 0x00, 0x00, 0x00, 0x00, 0x00, 0x00, 0x00, 0x00, 0x00, 0x00, 0x06, 0x0f, 0x00,
 0x00, 0x00, 
0x00, 0x00, 0x00, 0x00, 0x00, 0x00, 0x00, 0x00, 0x00, 0x00, 0x00, 0x86, 0x0d, 0x00, 0x00, 0x00, 
0x00,
 0x00, 0x00, 0x00, 0x00, 0x00, 0x00, 0x00, 0x00, 0x00, 0x00, 0xcf, 0x0c, 0x00, 0x00, 0x00, 
0x00, 0x00, 0x00, 0x00,
 0x00, 0x00, 0x00, 0x00, 0x00, 0x00, 0x78, 0x47, 0x04, 0x00, 0x00, 0x00, 
0x00, 0x00, 0x00, 0x00, 0x00, 0x00, 0x00,
 0x00, 0x00, 0x70, 0x6c, 0x66, 0x06, 0x00, 0x00, 0x00, 
0x00, 0x00, 0x00, 0x00, 0x00, 0x00, 0x00, 0x00, 0x00, 0x7c,
 0x66, 0xe6, 0x03, 0x00, 0x00, 0x00, 
0x00, 0x00, 0x00, 0x00, 0x1f, 0x00, 0x00, 0x00, 0x18, 0x66, 0x06, 0xe6, 0x10,
 0x00, 0x00, 0x00, 
0x00, 0x00, 0x00, 0xc0, 0x1f, 0x00, 0x00, 0x00, 0x3e, 0x63, 0x06, 0xc6, 0x09, 0x00, 0x00, 0x00,
 
0x00, 0x00, 0x00, 0x60, 0x1c, 0x00, 0x00, 0xcc, 0x33, 0x63, 0x06, 0xce, 0x0f, 0x00, 0x00, 0x00, 
0x00, 0x00, 0x00,
 0x30, 0x1c, 0x00, 0xc0, 0xcf, 0x31, 0x63, 0x46, 0x8e, 0x03, 0x00, 0x00, 0x00, 
0x00, 0x00, 0x00, 0x38, 0x1c, 0x00,
 0xf4, 0xcd, 0x31, 0x73, 0x7e, 0x04, 0x00, 0x00, 0x00, 0x00, 
0x00, 0x00, 0x00, 0x18, 0x0c, 0x30, 0xfe, 0xcc, 0x30,
 0xf3, 0x3c, 0x00, 0x00, 0x00, 0x00, 0x00, 
0x00, 0x00, 0x00, 0x1c, 0x00, 0x7c, 0xce, 0xcc, 0x18, 0xef, 0x08, 0x00,
 0x00, 0x00, 0x00, 0x00, 
0x00, 0x00, 0x00, 0x1c, 0x00, 0x46, 0xce, 0xdc, 0x18, 0x0f, 0x00, 0xe0, 0x1f, 0x00, 0x00,
 0x00, 
0x00, 0x00, 0x00, 0x1e, 0x00, 0xc2, 0xc6, 0xd8, 0x1e, 0x00, 0xf0, 0xff, 0x1f, 0x00, 0x00, 0x00, 
0x00, 0x00,
 0x00, 0x1e, 0x00, 0xc3, 0xc6, 0xd8, 0x0c, 0xe0, 0xff, 0x03, 0x00, 0x00, 0x00, 0x00, 
0x00, 0x00, 0x00, 0x1e, 0x00,
 0xc3, 0xce, 0x98, 0x81, 0xff, 0x00, 0x00, 0x00, 0x00, 0x00, 0x00, 
0x00, 0x00, 0x00, 0x1e, 0x60, 0x43, 0xce, 0x88,
 0xfd, 0x01, 0x00, 0x00, 0x00, 0x00, 0x00, 0x00, 
0x00, 0x00, 0x00, 0x1e, 0x30, 0x67, 0x0c, 0x80, 0x0d, 0x00, 0x00,
 0x00, 0x00, 0x00, 0x00, 0x00, 
0x00, 0x00, 0x00, 0x3e, 0x18, 0x3e, 0x00, 0xbe, 0x01, 0x00, 0x00, 0x00, 0x00, 0x00,
 0x00, 0x00, 
0x00, 0x00, 0x00, 0xfc, 0x0f, 0x1e, 0xe0, 0x87, 0x01, 0x00, 0x00, 0x00, 0x00, 0x00, 0x00, 0x00, 
0x00,
 0x00, 0x00, 0xfc, 0x07, 0x00, 0x3e, 0x80, 0x01, 0x00, 0x00, 0x00, 0x00, 0x00, 0x00, 0x00, 
0x00, 0x00, 0x00, 0xf8,
 0x03, 0xc0, 0x03, 0x80, 0x00, 0x00, 0x00, 0x00, 0x00, 0x00, 0x00, 0x00, 
0x00, 0x00, 0x00, 0xf0, 0x00, 0x78, 0x00,
 0x00, 0x00, 0x00, 0x00, 0x00, 0x00, 0x00, 0x00, 0x00, 
0x00, 0x00, 0x00, 0x00, 0x00, 0x07, 0x00, 0x00, 0x00, 0x00,
 0x00, 0x00, 0x00, 0x00, 0x00, 0x00, 
0x00, 0x00, 0x00, 0x00, 0xe0, 0x00, 0x00, 0x00, 0x00, 0x00, 0x00, 0x00, 0x00,
 0x00, 0x00, 0x00, 
0x00, 0x00, 0x00, 0x00, 0x1c, 0x00, 0x00, 0x00, 0x00, 0x00, 0x00, 0x00, 0x00, 0x00, 0x00, 0x00,
 
0x00, 0x00, 0x00, 0x00, 0x03, 0x00, 0x00, 0x00, 0x00, 0x80, 0x01, 0x00, 0x3f, 0x01, 0x00, 0x00, 
0x00, 0x00, 0x00,
 0xc0, 0x00, 0x00, 0x00, 0x00, 0x00, 0x40, 0x9a, 0x4b, 0x24, 0x29, 0x59, 0x73, 
0x00, 0x00, 0x00, 0x00, 0x00, 0x00,
 0x00, 0x00, 0x00, 0x40, 0xaa, 0x58, 0xc4, 0x68, 0x45, 0x15, 
0x00, 0x00, 0x00, 0x00, 0x00, 0x00, 0x00, 0x00, 0x00,
 0x40, 0x9a, 0x69, 0xc4, 0xa8, 0x49, 0x35, 
0x00, 0x00, 0x00, 0x00, 0x00, 0x00, 0x00, 0x00, 0x00, 0x40, 0x8a, 0x48,
 0x24, 0x29, 0x51, 0x15, 
0x00, 0x00, 0x00, 0x00, 0x00, 0x00, 0x00, 0x00, 0x00, 0x80, 0x89, 0x4b, 0x24, 0x29, 0x4d,
 0x73, 
0x00, 0x00, 0x00, 0x00, 0x00, 0x00, 0x00, 0x00, 0x00, 0x00, 0x00, 0x00, 0x00, 0x00, 0x00, 0x00, 
};