G04 #@! TF.GenerationSoftware,KiCad,Pcbnew,(5.0.2)-1*
G04 #@! TF.CreationDate,2019-01-06T14:15:55+01:00*
G04 #@! TF.ProjectId,Xany2Msx,58616e79-324d-4737-982e-6b696361645f,rev?*
G04 #@! TF.SameCoordinates,Original*
G04 #@! TF.FileFunction,Copper,L1,Top*
G04 #@! TF.FilePolarity,Positive*
%FSLAX46Y46*%
G04 Gerber Fmt 4.6, Leading zero omitted, Abs format (unit mm)*
G04 Created by KiCad (PCBNEW (5.0.2)-1) date 06/01/2019 14:15:55*
%MOMM*%
%LPD*%
G01*
G04 APERTURE LIST*
G04 #@! TA.AperFunction,ComponentPad*
%ADD10R,1.800000X1.800000*%
G04 #@! TD*
G04 #@! TA.AperFunction,ComponentPad*
%ADD11O,1.800000X1.800000*%
G04 #@! TD*
G04 #@! TA.AperFunction,ComponentPad*
%ADD12R,1.600000X1.600000*%
G04 #@! TD*
G04 #@! TA.AperFunction,ComponentPad*
%ADD13O,1.600000X1.600000*%
G04 #@! TD*
G04 #@! TA.AperFunction,ComponentPad*
%ADD14R,1.700000X1.700000*%
G04 #@! TD*
G04 #@! TA.AperFunction,ComponentPad*
%ADD15O,1.700000X1.700000*%
G04 #@! TD*
G04 #@! TA.AperFunction,ComponentPad*
%ADD16C,1.500000*%
G04 #@! TD*
G04 #@! TA.AperFunction,ComponentPad*
%ADD17C,1.600000*%
G04 #@! TD*
G04 #@! TA.AperFunction,ComponentPad*
%ADD18C,1.400000*%
G04 #@! TD*
G04 #@! TA.AperFunction,ComponentPad*
%ADD19O,1.400000X1.400000*%
G04 #@! TD*
G04 #@! TA.AperFunction,ComponentPad*
%ADD20C,1.800000*%
G04 #@! TD*
G04 #@! TA.AperFunction,Conductor*
%ADD21C,0.250000*%
G04 #@! TD*
G04 #@! TA.AperFunction,Conductor*
%ADD22C,0.500000*%
G04 #@! TD*
G04 #@! TA.AperFunction,Conductor*
%ADD23C,0.310000*%
G04 #@! TD*
G04 APERTURE END LIST*
D10*
G04 #@! TO.P,D1,1*
G04 #@! TO.N,+5V*
X137160000Y-86360000D03*
D11*
G04 #@! TO.P,D1,2*
G04 #@! TO.N,+VRx*
X134620000Y-86360000D03*
G04 #@! TD*
D12*
G04 #@! TO.P,U1,1*
G04 #@! TO.N,Net-(R1-Pad1)*
X123952000Y-86995000D03*
D13*
G04 #@! TO.P,U1,5*
G04 #@! TO.N,Net-(J2-Pad1)*
X131572000Y-94615000D03*
G04 #@! TO.P,U1,2*
G04 #@! TO.N,Net-(C1-Pad1)*
X123952000Y-89535000D03*
G04 #@! TO.P,U1,6*
G04 #@! TO.N,Net-(J2-Pad2)*
X131572000Y-92075000D03*
G04 #@! TO.P,U1,3*
G04 #@! TO.N,Net-(C2-Pad1)*
X123952000Y-92075000D03*
G04 #@! TO.P,U1,7*
G04 #@! TO.N,Net-(J2-Pad3)*
X131572000Y-89535000D03*
G04 #@! TO.P,U1,4*
G04 #@! TO.N,GND*
X123952000Y-94615000D03*
G04 #@! TO.P,U1,8*
G04 #@! TO.N,+5V*
X131572000Y-86995000D03*
G04 #@! TD*
D14*
G04 #@! TO.P,J1,1*
G04 #@! TO.N,Net-(J1-Pad1)*
X114300000Y-88900000D03*
D15*
G04 #@! TO.P,J1,2*
G04 #@! TO.N,+VRx*
X114300000Y-91440000D03*
G04 #@! TO.P,J1,3*
G04 #@! TO.N,GND*
X114300000Y-93980000D03*
G04 #@! TD*
G04 #@! TO.P,J2,3*
G04 #@! TO.N,Net-(J2-Pad3)*
X134620000Y-89535000D03*
G04 #@! TO.P,J2,2*
G04 #@! TO.N,Net-(J2-Pad2)*
X134620000Y-92075000D03*
D14*
G04 #@! TO.P,J2,1*
G04 #@! TO.N,Net-(J2-Pad1)*
X134620000Y-94615000D03*
G04 #@! TD*
G04 #@! TO.P,J3,1*
G04 #@! TO.N,+5V*
X137160000Y-94615000D03*
D15*
G04 #@! TO.P,J3,2*
X137160000Y-92075000D03*
G04 #@! TO.P,J3,3*
X137160000Y-89535000D03*
G04 #@! TD*
G04 #@! TO.P,J4,3*
G04 #@! TO.N,GND*
X139700000Y-94615000D03*
G04 #@! TO.P,J4,2*
X139700000Y-92075000D03*
D14*
G04 #@! TO.P,J4,1*
X139700000Y-89535000D03*
G04 #@! TD*
G04 #@! TO.P,J5,1*
G04 #@! TO.N,+VRx*
X118110000Y-88900000D03*
D15*
G04 #@! TO.P,J5,2*
G04 #@! TO.N,+5V*
X118110000Y-91440000D03*
G04 #@! TO.P,J5,3*
X118110000Y-93980000D03*
G04 #@! TD*
D16*
G04 #@! TO.P,C1,1*
G04 #@! TO.N,Net-(C1-Pad1)*
X121285000Y-89495000D03*
G04 #@! TO.P,C1,2*
G04 #@! TO.N,GND*
X121285000Y-86995000D03*
G04 #@! TD*
D17*
G04 #@! TO.P,C2,2*
G04 #@! TO.N,GND*
X121285000Y-94575000D03*
G04 #@! TO.P,C2,1*
G04 #@! TO.N,Net-(C2-Pad1)*
X121285000Y-92075000D03*
G04 #@! TD*
D18*
G04 #@! TO.P,R1,1*
G04 #@! TO.N,Net-(R1-Pad1)*
X116840000Y-86360000D03*
D19*
G04 #@! TO.P,R1,2*
G04 #@! TO.N,Net-(J1-Pad1)*
X114300000Y-86360000D03*
G04 #@! TD*
D17*
G04 #@! TO.P,C3,1*
G04 #@! TO.N,GND*
X126492000Y-90805000D03*
G04 #@! TO.P,C3,2*
G04 #@! TO.N,+5V*
X128992000Y-90805000D03*
G04 #@! TD*
D20*
G04 #@! TO.P,Y1,2*
G04 #@! TO.N,Net-(C2-Pad1)*
X127762000Y-93345000D03*
G04 #@! TO.P,Y1,1*
G04 #@! TO.N,Net-(C1-Pad1)*
X127762000Y-88465000D03*
G04 #@! TD*
D10*
G04 #@! TO.P,D2,1*
G04 #@! TO.N,Net-(D2-Pad1)*
X102235000Y-86360000D03*
D11*
G04 #@! TO.P,D2,2*
G04 #@! TO.N,Net-(D2-Pad2)*
X104775000Y-86360000D03*
G04 #@! TD*
D12*
G04 #@! TO.P,J6,1*
G04 #@! TO.N,N/C*
X102235000Y-90170000D03*
D13*
G04 #@! TO.P,J6,2*
G04 #@! TO.N,Net-(D2-Pad2)*
X104775000Y-90170000D03*
G04 #@! TO.P,J6,3*
G04 #@! TO.N,Net-(D2-Pad1)*
X102235000Y-92710000D03*
G04 #@! TO.P,J6,4*
G04 #@! TO.N,+5VP*
X104775000Y-92710000D03*
D15*
G04 #@! TO.P,J6,5*
G04 #@! TO.N,N/C*
X102235000Y-95250000D03*
G04 #@! TO.P,J6,6*
G04 #@! TO.N,GNDD*
X104775000Y-95250000D03*
G04 #@! TD*
D19*
G04 #@! TO.P,R2,2*
G04 #@! TO.N,Net-(J7-Pad1)*
X107696000Y-90170000D03*
D18*
G04 #@! TO.P,R2,1*
G04 #@! TO.N,Net-(D2-Pad2)*
X107696000Y-87630000D03*
G04 #@! TD*
G04 #@! TO.P,R3,1*
G04 #@! TO.N,Net-(J7-Pad1)*
X107696000Y-92710000D03*
D19*
G04 #@! TO.P,R3,2*
G04 #@! TO.N,+5VP*
X107696000Y-95250000D03*
G04 #@! TD*
D12*
G04 #@! TO.P,J7,1*
G04 #@! TO.N,Net-(J7-Pad1)*
X110490000Y-88900000D03*
D17*
G04 #@! TO.P,J7,2*
G04 #@! TO.N,+5VP*
X110490000Y-91440000D03*
G04 #@! TO.P,J7,3*
G04 #@! TO.N,GNDD*
X110490000Y-93980000D03*
G04 #@! TD*
D21*
G04 #@! TO.N,Net-(J2-Pad3)*
X131572000Y-89535000D02*
X134620000Y-89535000D01*
G04 #@! TO.N,Net-(J2-Pad2)*
X131572000Y-92075000D02*
X134620000Y-92075000D01*
G04 #@! TO.N,Net-(J2-Pad1)*
X131572000Y-94615000D02*
X134620000Y-94615000D01*
D22*
G04 #@! TO.N,+VRx*
X115570000Y-91440000D02*
X118110000Y-88900000D01*
X114300000Y-91440000D02*
X115570000Y-91440000D01*
X127635000Y-85725000D02*
X125095000Y-88265000D01*
X132715000Y-85725000D02*
X127635000Y-85725000D01*
X133350000Y-86360000D02*
X132715000Y-85725000D01*
X118110000Y-88900000D02*
X119380000Y-88900000D01*
X119380000Y-88900000D02*
X120015000Y-88265000D01*
X125095000Y-88265000D02*
X120015000Y-88265000D01*
X133350000Y-86360000D02*
X134620000Y-86360000D01*
D21*
G04 #@! TO.N,Net-(C1-Pad1)*
X121325000Y-89535000D02*
X121285000Y-89495000D01*
X123952000Y-89535000D02*
X121325000Y-89535000D01*
X126546000Y-88465000D02*
X125476000Y-89535000D01*
X127762000Y-88465000D02*
X126546000Y-88465000D01*
X123952000Y-89535000D02*
X125476000Y-89535000D01*
G04 #@! TO.N,Net-(C2-Pad1)*
X123952000Y-92075000D02*
X121285000Y-92075000D01*
X126746000Y-93345000D02*
X125476000Y-92075000D01*
X127762000Y-93345000D02*
X126746000Y-93345000D01*
X123952000Y-92075000D02*
X125476000Y-92075000D01*
G04 #@! TO.N,Net-(J1-Pad1)*
X114300000Y-88900000D02*
X114300000Y-86360000D01*
G04 #@! TO.N,Net-(R1-Pad1)*
X116840000Y-86360000D02*
X119380000Y-86360000D01*
X119380000Y-86360000D02*
X120015000Y-85725000D01*
X122682000Y-85725000D02*
X123952000Y-86995000D01*
X120015000Y-85725000D02*
X122682000Y-85725000D01*
D22*
G04 #@! TO.N,+5V*
X131572000Y-86995000D02*
X132715000Y-86995000D01*
X132715000Y-86995000D02*
X133731000Y-88011000D01*
X118110000Y-93980000D02*
X118110000Y-91440000D01*
X118110000Y-93980000D02*
X120269000Y-96139000D01*
X131572000Y-86995000D02*
X130937000Y-86995000D01*
X130937000Y-86995000D02*
X130048000Y-87884000D01*
X130048000Y-89749000D02*
X128992000Y-90805000D01*
X130048000Y-87884000D02*
X130048000Y-89749000D01*
X135636000Y-96139000D02*
X137160000Y-94615000D01*
X134366000Y-96139000D02*
X135636000Y-96139000D01*
X120269000Y-96139000D02*
X134366000Y-96139000D01*
X137160000Y-89535000D02*
X137160000Y-92075000D01*
X137160000Y-94615000D02*
X137160000Y-92075000D01*
X137160000Y-89535000D02*
X137160000Y-88011000D01*
X133731000Y-88011000D02*
X137160000Y-88011000D01*
X137160000Y-88011000D02*
X137160000Y-86360000D01*
D23*
G04 #@! TO.N,Net-(D2-Pad1)*
X102235000Y-86360000D02*
X103505000Y-87630000D01*
X103505000Y-91440000D02*
X102235000Y-92710000D01*
X103505000Y-87630000D02*
X103505000Y-91440000D01*
D22*
G04 #@! TO.N,Net-(D2-Pad2)*
X104775000Y-86360000D02*
X104775000Y-90170000D01*
X106426000Y-86360000D02*
X107696000Y-87630000D01*
X104775000Y-86360000D02*
X106426000Y-86360000D01*
G04 #@! TO.N,+5VP*
X108966000Y-92964000D02*
X110490000Y-91440000D01*
X107696000Y-95250000D02*
X108966000Y-93980000D01*
X108966000Y-93980000D02*
X108966000Y-92964000D01*
X107696000Y-95250000D02*
X106680000Y-94234000D01*
X106299000Y-94234000D02*
X104775000Y-92710000D01*
X106680000Y-94234000D02*
X106299000Y-94234000D01*
G04 #@! TO.N,Net-(J7-Pad1)*
X107696000Y-90170000D02*
X107696000Y-92710000D01*
X109220000Y-90170000D02*
X110490000Y-88900000D01*
X107696000Y-90170000D02*
X109220000Y-90170000D01*
G04 #@! TD*
M02*
